%FSLAX34Y34*%
G04 Gerber Fmt 3.4, Leading zero omitted, Abs format*
G04 (created by PCBNEW (2014-03-13 BZR 4745)-product) date Mon Apr 14 16:26:34 2014*
%MOIN*%
G01*
G70*
G90*
G04 APERTURE LIST*
%ADD10C,0.005906*%
%ADD11C,0.007874*%
%ADD12C,0.011811*%
G04 APERTURE END LIST*
G54D10*
G54D11*
X49875Y-25700D02*
X49875Y-25825D01*
X48950Y-24775D02*
X49875Y-25700D01*
X52525Y-30575D02*
X52525Y-30600D01*
X47075Y-30575D02*
X52525Y-30575D01*
X50325Y-29175D02*
X50325Y-29100D01*
X44800Y-29175D02*
X50325Y-29175D01*
X44600Y-29375D02*
X44800Y-29175D01*
X44100Y-29875D02*
X44600Y-29375D01*
X49475Y-25275D02*
X49475Y-25300D01*
X46800Y-24800D02*
X49000Y-24800D01*
X30225Y-24150D02*
X30025Y-24150D01*
X30225Y-21125D02*
X30225Y-24150D01*
X25850Y-25475D02*
X25825Y-25475D01*
X25850Y-19750D02*
X25850Y-25475D01*
G54D12*
X53375Y-15517D02*
X53375Y-15123D01*
X53375Y-15179D02*
X53347Y-15151D01*
X53291Y-15123D01*
X53207Y-15123D01*
X53150Y-15151D01*
X53122Y-15207D01*
X53122Y-15517D01*
X53122Y-15207D02*
X53094Y-15151D01*
X53038Y-15123D01*
X52953Y-15123D01*
X52897Y-15151D01*
X52869Y-15207D01*
X52869Y-15517D01*
X52363Y-15489D02*
X52419Y-15517D01*
X52532Y-15517D01*
X52588Y-15489D01*
X52616Y-15432D01*
X52616Y-15207D01*
X52588Y-15151D01*
X52532Y-15123D01*
X52419Y-15123D01*
X52363Y-15151D01*
X52335Y-15207D01*
X52335Y-15264D01*
X52616Y-15320D01*
X51829Y-15517D02*
X51829Y-14926D01*
X51829Y-15489D02*
X51885Y-15517D01*
X51997Y-15517D01*
X52054Y-15489D01*
X52082Y-15460D01*
X52110Y-15404D01*
X52110Y-15235D01*
X52082Y-15179D01*
X52054Y-15151D01*
X51997Y-15123D01*
X51885Y-15123D01*
X51829Y-15151D01*
X51547Y-15517D02*
X51547Y-15123D01*
X51547Y-14926D02*
X51575Y-14954D01*
X51547Y-14982D01*
X51519Y-14954D01*
X51547Y-14926D01*
X51547Y-14982D01*
X51013Y-15123D02*
X51013Y-15517D01*
X51266Y-15123D02*
X51266Y-15432D01*
X51238Y-15489D01*
X51182Y-15517D01*
X51097Y-15517D01*
X51041Y-15489D01*
X51013Y-15460D01*
X50732Y-15517D02*
X50732Y-15123D01*
X50732Y-15179D02*
X50704Y-15151D01*
X50647Y-15123D01*
X50563Y-15123D01*
X50507Y-15151D01*
X50479Y-15207D01*
X50479Y-15517D01*
X50479Y-15207D02*
X50451Y-15151D01*
X50394Y-15123D01*
X50310Y-15123D01*
X50254Y-15151D01*
X50226Y-15207D01*
X50226Y-15517D01*
X49494Y-15123D02*
X49494Y-15714D01*
X49494Y-15151D02*
X49438Y-15123D01*
X49326Y-15123D01*
X49270Y-15151D01*
X49241Y-15179D01*
X49213Y-15235D01*
X49213Y-15404D01*
X49241Y-15460D01*
X49270Y-15489D01*
X49326Y-15517D01*
X49438Y-15517D01*
X49494Y-15489D01*
X48876Y-15517D02*
X48932Y-15489D01*
X48960Y-15460D01*
X48988Y-15404D01*
X48988Y-15235D01*
X48960Y-15179D01*
X48932Y-15151D01*
X48876Y-15123D01*
X48791Y-15123D01*
X48735Y-15151D01*
X48707Y-15179D01*
X48679Y-15235D01*
X48679Y-15404D01*
X48707Y-15460D01*
X48735Y-15489D01*
X48791Y-15517D01*
X48876Y-15517D01*
X48482Y-15123D02*
X48370Y-15517D01*
X48257Y-15235D01*
X48145Y-15517D01*
X48032Y-15123D01*
X47582Y-15489D02*
X47638Y-15517D01*
X47751Y-15517D01*
X47807Y-15489D01*
X47835Y-15432D01*
X47835Y-15207D01*
X47807Y-15151D01*
X47751Y-15123D01*
X47638Y-15123D01*
X47582Y-15151D01*
X47554Y-15207D01*
X47554Y-15264D01*
X47835Y-15320D01*
X47301Y-15517D02*
X47301Y-15123D01*
X47301Y-15235D02*
X47273Y-15179D01*
X47245Y-15151D01*
X47189Y-15123D01*
X47132Y-15123D01*
X46570Y-14926D02*
X46232Y-14926D01*
X46401Y-15517D02*
X46401Y-14926D01*
X45614Y-14898D02*
X46120Y-15657D01*
X45079Y-15517D02*
X45276Y-15235D01*
X45417Y-15517D02*
X45417Y-14926D01*
X45192Y-14926D01*
X45136Y-14954D01*
X45108Y-14982D01*
X45079Y-15039D01*
X45079Y-15123D01*
X45108Y-15179D01*
X45136Y-15207D01*
X45192Y-15235D01*
X45417Y-15235D01*
X44405Y-15489D02*
X44348Y-15517D01*
X44236Y-15517D01*
X44180Y-15489D01*
X44151Y-15432D01*
X44151Y-15404D01*
X44180Y-15348D01*
X44236Y-15320D01*
X44320Y-15320D01*
X44376Y-15292D01*
X44405Y-15235D01*
X44405Y-15207D01*
X44376Y-15151D01*
X44320Y-15123D01*
X44236Y-15123D01*
X44180Y-15151D01*
X43955Y-15123D02*
X43842Y-15517D01*
X43730Y-15235D01*
X43617Y-15517D01*
X43505Y-15123D01*
X43280Y-15517D02*
X43280Y-15123D01*
X43280Y-14926D02*
X43308Y-14954D01*
X43280Y-14982D01*
X43252Y-14954D01*
X43280Y-14926D01*
X43280Y-14982D01*
X43083Y-15123D02*
X42858Y-15123D01*
X42998Y-14926D02*
X42998Y-15432D01*
X42970Y-15489D01*
X42914Y-15517D01*
X42858Y-15517D01*
X42408Y-15489D02*
X42464Y-15517D01*
X42577Y-15517D01*
X42633Y-15489D01*
X42661Y-15460D01*
X42689Y-15404D01*
X42689Y-15235D01*
X42661Y-15179D01*
X42633Y-15151D01*
X42577Y-15123D01*
X42464Y-15123D01*
X42408Y-15151D01*
X42155Y-15517D02*
X42155Y-14926D01*
X41902Y-15517D02*
X41902Y-15207D01*
X41930Y-15151D01*
X41986Y-15123D01*
X42070Y-15123D01*
X42127Y-15151D01*
X42155Y-15179D01*
X41171Y-15517D02*
X41171Y-15123D01*
X41171Y-15235D02*
X41142Y-15179D01*
X41114Y-15151D01*
X41058Y-15123D01*
X41002Y-15123D01*
X40692Y-14926D02*
X40636Y-14926D01*
X40580Y-14954D01*
X40552Y-14982D01*
X40524Y-15039D01*
X40496Y-15151D01*
X40496Y-15292D01*
X40524Y-15404D01*
X40552Y-15460D01*
X40580Y-15489D01*
X40636Y-15517D01*
X40692Y-15517D01*
X40749Y-15489D01*
X40777Y-15460D01*
X40805Y-15404D01*
X40833Y-15292D01*
X40833Y-15151D01*
X40805Y-15039D01*
X40777Y-14982D01*
X40749Y-14954D01*
X40692Y-14926D01*
M02*
