%FSLAX34Y34*%
G04 Gerber Fmt 3.4, Leading zero omitted, Abs format*
G04 (created by PCBNEW (2014-03-13 BZR 4745)-product) date Mon Apr 14 16:26:34 2014*
%MOIN*%
G01*
G70*
G90*
G04 APERTURE LIST*
%ADD10C,0.005906*%
%ADD11R,0.055000X0.055000*%
%ADD12C,0.055000*%
%ADD13R,0.200787X0.094488*%
%ADD14R,0.094488X0.200787*%
%ADD15C,0.035000*%
%ADD16C,0.019685*%
%ADD17C,0.039370*%
%ADD18C,0.100000*%
%ADD19C,0.031496*%
G04 APERTURE END LIST*
G54D10*
G54D11*
X26640Y-14685D03*
G54D12*
X26640Y-15685D03*
X26640Y-16685D03*
G54D11*
X50300Y-18675D03*
G54D12*
X49300Y-18675D03*
X48300Y-18675D03*
G54D13*
X23500Y-24232D03*
X23500Y-20767D03*
G54D14*
X37332Y-10850D03*
X33867Y-10850D03*
X50332Y-34500D03*
X46867Y-34500D03*
G54D11*
X61800Y-31400D03*
G54D12*
X61800Y-32400D03*
X61800Y-33400D03*
G54D11*
X42300Y-17350D03*
G54D12*
X43300Y-17350D03*
X44300Y-17350D03*
X45300Y-17350D03*
X46300Y-17350D03*
X47300Y-17350D03*
X48300Y-17350D03*
X49300Y-17350D03*
X50300Y-17350D03*
X51300Y-17350D03*
X52300Y-17350D03*
X53300Y-17350D03*
X53300Y-11350D03*
X52300Y-11350D03*
X51300Y-11350D03*
X50300Y-11350D03*
X49300Y-11350D03*
X48300Y-11350D03*
X47300Y-11350D03*
X46300Y-11350D03*
X45300Y-11350D03*
X44300Y-11350D03*
X43300Y-11350D03*
X42300Y-11350D03*
G54D15*
X34900Y-33700D03*
X40400Y-34000D03*
X28800Y-30400D03*
X39000Y-33000D03*
X42100Y-33700D03*
X47100Y-30600D03*
X52300Y-30600D03*
X34500Y-34400D03*
X38000Y-34400D03*
X50100Y-29100D03*
X44600Y-29200D03*
X42200Y-31600D03*
X41000Y-31600D03*
X44200Y-21200D03*
X55300Y-25000D03*
X56625Y-12925D03*
X57000Y-13850D03*
X32375Y-18600D03*
X45500Y-30000D03*
X58850Y-32750D03*
X46900Y-33100D03*
X28915Y-12335D03*
X30040Y-12550D03*
X31020Y-12920D03*
X27250Y-31850D03*
X40300Y-31550D03*
X26900Y-28050D03*
X49300Y-20600D03*
X50400Y-23400D03*
X37300Y-12300D03*
X33900Y-12300D03*
X24967Y-24232D03*
X25000Y-20800D03*
X50300Y-33100D03*
X38000Y-25900D03*
X33600Y-26000D03*
X59200Y-17400D03*
X58300Y-26300D03*
X51000Y-32100D03*
X46100Y-31200D03*
X37800Y-31100D03*
X29500Y-31900D03*
X31300Y-32000D03*
X31300Y-31000D03*
X36050Y-31050D03*
X36050Y-31950D03*
X28400Y-18600D03*
X29600Y-18600D03*
X55900Y-14700D03*
X38300Y-16300D03*
X39800Y-16300D03*
X37900Y-28300D03*
X29400Y-28100D03*
X41300Y-28400D03*
X42800Y-28400D03*
X60050Y-32150D03*
X37400Y-18200D03*
X32400Y-15100D03*
X49500Y-24800D03*
X46800Y-24800D03*
X25800Y-25600D03*
X25900Y-19400D03*
X30200Y-21100D03*
X34000Y-27900D03*
X31700Y-27800D03*
X30100Y-24200D03*
G54D16*
X40100Y-33700D02*
X34900Y-33700D01*
X40400Y-34000D02*
X40100Y-33700D01*
X28800Y-30400D02*
X28800Y-34000D01*
X28800Y-34000D02*
X29800Y-35000D01*
X29800Y-35000D02*
X40600Y-35000D01*
X41800Y-33800D02*
X41900Y-33700D01*
X40600Y-35000D02*
X41800Y-33800D01*
X41800Y-33700D02*
X41800Y-33800D01*
X41900Y-33700D02*
X41800Y-33700D01*
X41600Y-33700D02*
X41900Y-33700D01*
X40900Y-33000D02*
X41600Y-33700D01*
X39000Y-33000D02*
X40900Y-33000D01*
X42100Y-33700D02*
X41900Y-33700D01*
G54D17*
X46925Y-30600D02*
X46825Y-30500D01*
X47100Y-30600D02*
X46925Y-30600D01*
G54D18*
X46900Y-30600D02*
X46650Y-30350D01*
X46925Y-30600D02*
X46900Y-30600D01*
X53050Y-30600D02*
X53075Y-30625D01*
G54D17*
X52300Y-30600D02*
X52750Y-30600D01*
G54D18*
X52750Y-30600D02*
X53050Y-30600D01*
G54D16*
X38000Y-34400D02*
X34500Y-34400D01*
X41000Y-31600D02*
X42200Y-31600D01*
G54D18*
X44100Y-30025D02*
X44150Y-30075D01*
G54D17*
X44600Y-29200D02*
X44575Y-29200D01*
X44575Y-29200D02*
X44100Y-29675D01*
G54D18*
X44100Y-29675D02*
X44100Y-30025D01*
X51050Y-29100D02*
X51075Y-29075D01*
G54D17*
X50100Y-29100D02*
X50650Y-29100D01*
G54D18*
X50650Y-29100D02*
X51050Y-29100D01*
G54D17*
X44200Y-21200D02*
X47000Y-21200D01*
X47000Y-21200D02*
X50800Y-25000D01*
X50800Y-25000D02*
X55300Y-25000D01*
G54D16*
X43300Y-17350D02*
X44300Y-17350D01*
X44300Y-17350D02*
X44300Y-18050D01*
X44300Y-18050D02*
X44075Y-18275D01*
X57000Y-13850D02*
X57025Y-13850D01*
G54D19*
X48300Y-18675D02*
X47775Y-18675D01*
X47775Y-18675D02*
X47675Y-18575D01*
X43300Y-17350D02*
X43300Y-17850D01*
X43300Y-17850D02*
X43325Y-17875D01*
X44300Y-17350D02*
X44300Y-17850D01*
X44300Y-17850D02*
X44275Y-17875D01*
X51300Y-17350D02*
X51300Y-16825D01*
X51300Y-16825D02*
X51350Y-16775D01*
X51300Y-11350D02*
X51300Y-11925D01*
X51300Y-11925D02*
X51275Y-11925D01*
G54D16*
X46867Y-34500D02*
X46867Y-33132D01*
X46867Y-33132D02*
X46900Y-33100D01*
G54D19*
X37332Y-10850D02*
X37332Y-12267D01*
X37332Y-12267D02*
X37300Y-12300D01*
X33867Y-12267D02*
X33900Y-12300D01*
X33867Y-12267D02*
X33867Y-10850D01*
X23500Y-24232D02*
X24967Y-24232D01*
X24967Y-20767D02*
X25000Y-20800D01*
X24967Y-20767D02*
X23500Y-20767D01*
X50332Y-33132D02*
X50332Y-34500D01*
X50332Y-33132D02*
X50300Y-33100D01*
X60300Y-32400D02*
X60050Y-32150D01*
X61800Y-32400D02*
X60300Y-32400D01*
X27365Y-15685D02*
X27450Y-15600D01*
X26640Y-15685D02*
X27365Y-15685D01*
G54D17*
X37100Y-15100D02*
X37300Y-15300D01*
X37300Y-15300D02*
X37300Y-18100D01*
X37300Y-18100D02*
X37400Y-18200D01*
X32400Y-15100D02*
X32600Y-15100D01*
X32600Y-15100D02*
X37100Y-15100D01*
G54D18*
X25900Y-19400D02*
X25900Y-19950D01*
X25800Y-25600D02*
X25800Y-25050D01*
X46800Y-24800D02*
X46550Y-24800D01*
G54D17*
X49500Y-25175D02*
X49600Y-25275D01*
X49500Y-24800D02*
X49500Y-25175D01*
X49675Y-25550D02*
X49600Y-25475D01*
X49500Y-25375D02*
X49675Y-25550D01*
X49500Y-25175D02*
X49500Y-25375D01*
G54D18*
X50050Y-26375D02*
X50275Y-26600D01*
G54D17*
X49675Y-25775D02*
X50025Y-26125D01*
X49675Y-25550D02*
X49675Y-25775D01*
X50025Y-26125D02*
X50050Y-26125D01*
G54D18*
X50050Y-26125D02*
X50050Y-26375D01*
G54D16*
X30100Y-21100D02*
X30200Y-21100D01*
X34000Y-27900D02*
X33900Y-27800D01*
X33900Y-27800D02*
X31700Y-27800D01*
G54D18*
X30100Y-24200D02*
X30100Y-24550D01*
X30200Y-21100D02*
X30200Y-20700D01*
G54D10*
G36*
X63285Y-35285D02*
X62370Y-35285D01*
X62370Y-33287D01*
X62283Y-33077D01*
X62123Y-32916D01*
X62083Y-32900D01*
X62122Y-32883D01*
X62283Y-32723D01*
X62370Y-32513D01*
X62370Y-32287D01*
X62283Y-32077D01*
X62164Y-31957D01*
X62242Y-31925D01*
X62325Y-31842D01*
X62370Y-31733D01*
X62370Y-31616D01*
X62370Y-31066D01*
X62325Y-30957D01*
X62242Y-30874D01*
X62133Y-30829D01*
X62016Y-30829D01*
X61466Y-30829D01*
X61357Y-30874D01*
X61274Y-30957D01*
X61229Y-31066D01*
X61229Y-31183D01*
X61229Y-31733D01*
X61274Y-31842D01*
X61357Y-31925D01*
X61435Y-31957D01*
X61316Y-32076D01*
X61229Y-32286D01*
X61229Y-32512D01*
X61316Y-32722D01*
X61476Y-32883D01*
X61516Y-32899D01*
X61477Y-32916D01*
X61316Y-33076D01*
X61229Y-33286D01*
X61229Y-33512D01*
X61316Y-33722D01*
X61476Y-33883D01*
X61686Y-33970D01*
X61912Y-33970D01*
X62122Y-33883D01*
X62283Y-33723D01*
X62370Y-33513D01*
X62370Y-33287D01*
X62370Y-35285D01*
X55792Y-35285D01*
X55792Y-25000D01*
X55754Y-24811D01*
X55647Y-24652D01*
X55488Y-24545D01*
X55300Y-24507D01*
X53870Y-24507D01*
X53870Y-17237D01*
X53870Y-11237D01*
X53783Y-11027D01*
X53623Y-10866D01*
X53413Y-10779D01*
X53187Y-10779D01*
X52977Y-10866D01*
X52816Y-11026D01*
X52800Y-11066D01*
X52783Y-11027D01*
X52623Y-10866D01*
X52413Y-10779D01*
X52187Y-10779D01*
X51977Y-10866D01*
X51816Y-11026D01*
X51800Y-11066D01*
X51783Y-11027D01*
X51623Y-10866D01*
X51413Y-10779D01*
X51187Y-10779D01*
X50977Y-10866D01*
X50816Y-11026D01*
X50800Y-11066D01*
X50783Y-11027D01*
X50623Y-10866D01*
X50413Y-10779D01*
X50187Y-10779D01*
X49977Y-10866D01*
X49816Y-11026D01*
X49800Y-11066D01*
X49783Y-11027D01*
X49623Y-10866D01*
X49413Y-10779D01*
X49187Y-10779D01*
X48977Y-10866D01*
X48816Y-11026D01*
X48800Y-11066D01*
X48783Y-11027D01*
X48623Y-10866D01*
X48413Y-10779D01*
X48187Y-10779D01*
X47977Y-10866D01*
X47816Y-11026D01*
X47800Y-11066D01*
X47783Y-11027D01*
X47623Y-10866D01*
X47413Y-10779D01*
X47187Y-10779D01*
X46977Y-10866D01*
X46816Y-11026D01*
X46800Y-11066D01*
X46783Y-11027D01*
X46623Y-10866D01*
X46413Y-10779D01*
X46187Y-10779D01*
X45977Y-10866D01*
X45816Y-11026D01*
X45800Y-11066D01*
X45783Y-11027D01*
X45623Y-10866D01*
X45413Y-10779D01*
X45187Y-10779D01*
X44977Y-10866D01*
X44816Y-11026D01*
X44800Y-11066D01*
X44783Y-11027D01*
X44623Y-10866D01*
X44413Y-10779D01*
X44187Y-10779D01*
X43977Y-10866D01*
X43816Y-11026D01*
X43800Y-11066D01*
X43783Y-11027D01*
X43623Y-10866D01*
X43413Y-10779D01*
X43187Y-10779D01*
X42977Y-10866D01*
X42816Y-11026D01*
X42800Y-11066D01*
X42783Y-11027D01*
X42623Y-10866D01*
X42413Y-10779D01*
X42187Y-10779D01*
X41977Y-10866D01*
X41816Y-11026D01*
X41729Y-11236D01*
X41729Y-11462D01*
X41816Y-11672D01*
X41976Y-11833D01*
X42186Y-11920D01*
X42412Y-11920D01*
X42622Y-11833D01*
X42783Y-11673D01*
X42799Y-11633D01*
X42816Y-11672D01*
X42976Y-11833D01*
X43186Y-11920D01*
X43412Y-11920D01*
X43622Y-11833D01*
X43783Y-11673D01*
X43799Y-11633D01*
X43816Y-11672D01*
X43976Y-11833D01*
X44186Y-11920D01*
X44412Y-11920D01*
X44622Y-11833D01*
X44783Y-11673D01*
X44799Y-11633D01*
X44816Y-11672D01*
X44976Y-11833D01*
X45186Y-11920D01*
X45412Y-11920D01*
X45622Y-11833D01*
X45783Y-11673D01*
X45799Y-11633D01*
X45816Y-11672D01*
X45976Y-11833D01*
X46186Y-11920D01*
X46412Y-11920D01*
X46622Y-11833D01*
X46783Y-11673D01*
X46799Y-11633D01*
X46816Y-11672D01*
X46976Y-11833D01*
X47186Y-11920D01*
X47412Y-11920D01*
X47622Y-11833D01*
X47783Y-11673D01*
X47799Y-11633D01*
X47816Y-11672D01*
X47976Y-11833D01*
X48186Y-11920D01*
X48412Y-11920D01*
X48622Y-11833D01*
X48783Y-11673D01*
X48799Y-11633D01*
X48816Y-11672D01*
X48976Y-11833D01*
X49186Y-11920D01*
X49412Y-11920D01*
X49622Y-11833D01*
X49783Y-11673D01*
X49799Y-11633D01*
X49816Y-11672D01*
X49976Y-11833D01*
X50186Y-11920D01*
X50412Y-11920D01*
X50622Y-11833D01*
X50783Y-11673D01*
X50799Y-11633D01*
X50816Y-11672D01*
X50976Y-11833D01*
X51186Y-11920D01*
X51412Y-11920D01*
X51622Y-11833D01*
X51783Y-11673D01*
X51799Y-11633D01*
X51816Y-11672D01*
X51976Y-11833D01*
X52186Y-11920D01*
X52412Y-11920D01*
X52622Y-11833D01*
X52783Y-11673D01*
X52799Y-11633D01*
X52816Y-11672D01*
X52976Y-11833D01*
X53186Y-11920D01*
X53412Y-11920D01*
X53622Y-11833D01*
X53783Y-11673D01*
X53870Y-11463D01*
X53870Y-11237D01*
X53870Y-17237D01*
X53783Y-17027D01*
X53623Y-16866D01*
X53413Y-16779D01*
X53187Y-16779D01*
X52977Y-16866D01*
X52816Y-17026D01*
X52800Y-17066D01*
X52783Y-17027D01*
X52623Y-16866D01*
X52413Y-16779D01*
X52187Y-16779D01*
X51977Y-16866D01*
X51816Y-17026D01*
X51800Y-17066D01*
X51783Y-17027D01*
X51623Y-16866D01*
X51413Y-16779D01*
X51187Y-16779D01*
X50977Y-16866D01*
X50816Y-17026D01*
X50800Y-17066D01*
X50783Y-17027D01*
X50623Y-16866D01*
X50413Y-16779D01*
X50187Y-16779D01*
X49977Y-16866D01*
X49816Y-17026D01*
X49800Y-17066D01*
X49783Y-17027D01*
X49623Y-16866D01*
X49413Y-16779D01*
X49187Y-16779D01*
X48977Y-16866D01*
X48816Y-17026D01*
X48800Y-17066D01*
X48783Y-17027D01*
X48623Y-16866D01*
X48413Y-16779D01*
X48187Y-16779D01*
X47977Y-16866D01*
X47816Y-17026D01*
X47800Y-17066D01*
X47783Y-17027D01*
X47623Y-16866D01*
X47413Y-16779D01*
X47187Y-16779D01*
X46977Y-16866D01*
X46816Y-17026D01*
X46800Y-17066D01*
X46783Y-17027D01*
X46623Y-16866D01*
X46413Y-16779D01*
X46187Y-16779D01*
X45977Y-16866D01*
X45816Y-17026D01*
X45800Y-17066D01*
X45783Y-17027D01*
X45623Y-16866D01*
X45413Y-16779D01*
X45187Y-16779D01*
X44977Y-16866D01*
X44816Y-17026D01*
X44800Y-17066D01*
X44783Y-17027D01*
X44623Y-16866D01*
X44413Y-16779D01*
X44187Y-16779D01*
X43977Y-16866D01*
X43816Y-17026D01*
X43800Y-17066D01*
X43783Y-17027D01*
X43623Y-16866D01*
X43413Y-16779D01*
X43187Y-16779D01*
X42977Y-16866D01*
X42857Y-16985D01*
X42825Y-16907D01*
X42742Y-16824D01*
X42633Y-16779D01*
X42516Y-16779D01*
X41966Y-16779D01*
X41857Y-16824D01*
X41774Y-16907D01*
X41729Y-17016D01*
X41729Y-17133D01*
X41729Y-17683D01*
X41774Y-17792D01*
X41857Y-17875D01*
X41966Y-17920D01*
X42083Y-17920D01*
X42633Y-17920D01*
X42742Y-17875D01*
X42825Y-17792D01*
X42857Y-17714D01*
X42976Y-17833D01*
X43186Y-17920D01*
X43412Y-17920D01*
X43622Y-17833D01*
X43783Y-17673D01*
X43799Y-17633D01*
X43816Y-17672D01*
X43976Y-17833D01*
X44186Y-17920D01*
X44412Y-17920D01*
X44622Y-17833D01*
X44783Y-17673D01*
X44799Y-17633D01*
X44816Y-17672D01*
X44976Y-17833D01*
X45186Y-17920D01*
X45412Y-17920D01*
X45622Y-17833D01*
X45783Y-17673D01*
X45799Y-17633D01*
X45816Y-17672D01*
X45976Y-17833D01*
X46186Y-17920D01*
X46412Y-17920D01*
X46622Y-17833D01*
X46783Y-17673D01*
X46799Y-17633D01*
X46816Y-17672D01*
X46976Y-17833D01*
X47186Y-17920D01*
X47412Y-17920D01*
X47622Y-17833D01*
X47783Y-17673D01*
X47799Y-17633D01*
X47816Y-17672D01*
X47976Y-17833D01*
X48186Y-17920D01*
X48412Y-17920D01*
X48622Y-17833D01*
X48783Y-17673D01*
X48799Y-17633D01*
X48816Y-17672D01*
X48976Y-17833D01*
X49186Y-17920D01*
X49412Y-17920D01*
X49622Y-17833D01*
X49783Y-17673D01*
X49799Y-17633D01*
X49816Y-17672D01*
X49976Y-17833D01*
X50186Y-17920D01*
X50412Y-17920D01*
X50622Y-17833D01*
X50783Y-17673D01*
X50799Y-17633D01*
X50816Y-17672D01*
X50976Y-17833D01*
X51186Y-17920D01*
X51412Y-17920D01*
X51622Y-17833D01*
X51783Y-17673D01*
X51799Y-17633D01*
X51816Y-17672D01*
X51976Y-17833D01*
X52186Y-17920D01*
X52412Y-17920D01*
X52622Y-17833D01*
X52783Y-17673D01*
X52799Y-17633D01*
X52816Y-17672D01*
X52976Y-17833D01*
X53186Y-17920D01*
X53412Y-17920D01*
X53622Y-17833D01*
X53783Y-17673D01*
X53870Y-17463D01*
X53870Y-17237D01*
X53870Y-24507D01*
X51003Y-24507D01*
X50870Y-24374D01*
X50870Y-19008D01*
X50870Y-18891D01*
X50870Y-18341D01*
X50825Y-18232D01*
X50742Y-18149D01*
X50633Y-18104D01*
X50516Y-18104D01*
X49966Y-18104D01*
X49857Y-18149D01*
X49774Y-18232D01*
X49742Y-18310D01*
X49623Y-18191D01*
X49413Y-18104D01*
X49187Y-18104D01*
X48977Y-18191D01*
X48816Y-18351D01*
X48800Y-18391D01*
X48783Y-18352D01*
X48623Y-18191D01*
X48413Y-18104D01*
X48187Y-18104D01*
X47977Y-18191D01*
X47816Y-18351D01*
X47729Y-18561D01*
X47729Y-18787D01*
X47816Y-18997D01*
X47976Y-19158D01*
X48186Y-19245D01*
X48412Y-19245D01*
X48622Y-19158D01*
X48783Y-18998D01*
X48799Y-18958D01*
X48816Y-18997D01*
X48976Y-19158D01*
X49186Y-19245D01*
X49412Y-19245D01*
X49622Y-19158D01*
X49742Y-19039D01*
X49774Y-19117D01*
X49857Y-19200D01*
X49966Y-19245D01*
X50083Y-19245D01*
X50633Y-19245D01*
X50742Y-19200D01*
X50825Y-19117D01*
X50870Y-19008D01*
X50870Y-24374D01*
X47347Y-20852D01*
X47188Y-20745D01*
X47000Y-20707D01*
X44200Y-20707D01*
X44011Y-20745D01*
X43852Y-20852D01*
X43745Y-21011D01*
X43707Y-21200D01*
X43745Y-21388D01*
X43852Y-21547D01*
X44011Y-21654D01*
X44200Y-21692D01*
X46796Y-21692D01*
X49426Y-24322D01*
X49311Y-24345D01*
X49152Y-24452D01*
X49045Y-24611D01*
X49007Y-24800D01*
X49007Y-25175D01*
X49007Y-25375D01*
X49045Y-25563D01*
X49152Y-25722D01*
X49182Y-25753D01*
X49182Y-25775D01*
X49220Y-25963D01*
X49271Y-26040D01*
X49254Y-26125D01*
X49254Y-26375D01*
X49315Y-26679D01*
X49487Y-26937D01*
X49712Y-27162D01*
X49970Y-27334D01*
X50275Y-27395D01*
X50579Y-27334D01*
X50837Y-27162D01*
X51009Y-26904D01*
X51070Y-26600D01*
X51009Y-26295D01*
X50837Y-26037D01*
X50825Y-26025D01*
X50784Y-25820D01*
X50612Y-25562D01*
X50354Y-25390D01*
X50117Y-25343D01*
X50087Y-25298D01*
X50092Y-25275D01*
X50054Y-25086D01*
X49992Y-24993D01*
X49992Y-24888D01*
X50452Y-25347D01*
X50452Y-25347D01*
X50611Y-25454D01*
X50800Y-25492D01*
X55300Y-25492D01*
X55488Y-25454D01*
X55647Y-25347D01*
X55754Y-25188D01*
X55792Y-25000D01*
X55792Y-35285D01*
X53870Y-35285D01*
X53870Y-30625D01*
X53809Y-30320D01*
X53637Y-30062D01*
X53612Y-30037D01*
X53354Y-29865D01*
X53050Y-29804D01*
X52750Y-29804D01*
X52445Y-29865D01*
X52187Y-30037D01*
X52116Y-30144D01*
X52111Y-30145D01*
X51952Y-30252D01*
X51870Y-30374D01*
X51870Y-29075D01*
X51809Y-28770D01*
X51637Y-28512D01*
X51379Y-28340D01*
X51075Y-28279D01*
X50949Y-28304D01*
X50650Y-28304D01*
X50345Y-28365D01*
X50087Y-28537D01*
X50031Y-28621D01*
X49911Y-28645D01*
X49752Y-28752D01*
X49645Y-28911D01*
X49607Y-29100D01*
X49645Y-29288D01*
X49752Y-29447D01*
X49911Y-29554D01*
X50031Y-29578D01*
X50087Y-29662D01*
X50345Y-29834D01*
X50650Y-29895D01*
X51050Y-29895D01*
X51354Y-29834D01*
X51354Y-29834D01*
X51612Y-29662D01*
X51637Y-29637D01*
X51809Y-29379D01*
X51870Y-29075D01*
X51870Y-30374D01*
X51845Y-30411D01*
X51807Y-30600D01*
X51845Y-30788D01*
X51952Y-30947D01*
X52111Y-31054D01*
X52116Y-31055D01*
X52187Y-31162D01*
X52445Y-31334D01*
X52750Y-31395D01*
X52949Y-31395D01*
X53075Y-31420D01*
X53379Y-31359D01*
X53637Y-31187D01*
X53809Y-30929D01*
X53870Y-30625D01*
X53870Y-35285D01*
X51100Y-35285D01*
X51100Y-33437D01*
X51055Y-33328D01*
X50971Y-33245D01*
X50863Y-33200D01*
X50745Y-33200D01*
X49801Y-33200D01*
X49692Y-33245D01*
X49609Y-33328D01*
X49564Y-33437D01*
X49564Y-33554D01*
X49564Y-35285D01*
X47720Y-35285D01*
X47720Y-30600D01*
X47659Y-30295D01*
X47595Y-30199D01*
X47595Y-24800D01*
X47534Y-24495D01*
X47362Y-24237D01*
X47104Y-24065D01*
X46800Y-24004D01*
X46550Y-24004D01*
X46245Y-24065D01*
X45987Y-24237D01*
X45815Y-24495D01*
X45754Y-24800D01*
X45815Y-25104D01*
X45987Y-25362D01*
X46245Y-25534D01*
X46550Y-25595D01*
X46800Y-25595D01*
X47104Y-25534D01*
X47362Y-25362D01*
X47534Y-25104D01*
X47595Y-24800D01*
X47595Y-30199D01*
X47487Y-30037D01*
X47412Y-29987D01*
X47212Y-29787D01*
X46954Y-29615D01*
X46650Y-29554D01*
X46345Y-29615D01*
X46087Y-29787D01*
X45915Y-30045D01*
X45854Y-30350D01*
X45915Y-30654D01*
X46087Y-30912D01*
X46337Y-31162D01*
X46337Y-31162D01*
X46337Y-31162D01*
X46510Y-31277D01*
X46595Y-31334D01*
X46595Y-31334D01*
X46900Y-31395D01*
X46900Y-31395D01*
X46900Y-31395D01*
X46925Y-31395D01*
X47229Y-31334D01*
X47487Y-31162D01*
X47659Y-30904D01*
X47720Y-30600D01*
X47720Y-35285D01*
X47635Y-35285D01*
X47635Y-33437D01*
X47590Y-33328D01*
X47507Y-33245D01*
X47398Y-33200D01*
X47281Y-33200D01*
X46336Y-33200D01*
X46228Y-33245D01*
X46144Y-33328D01*
X46100Y-33437D01*
X46100Y-33554D01*
X46100Y-35285D01*
X45092Y-35285D01*
X45092Y-29200D01*
X45054Y-29011D01*
X44947Y-28852D01*
X44788Y-28745D01*
X44600Y-28707D01*
X44575Y-28707D01*
X44386Y-28745D01*
X44227Y-28852D01*
X44182Y-28896D01*
X44100Y-28879D01*
X43795Y-28940D01*
X43537Y-29112D01*
X43365Y-29370D01*
X43304Y-29675D01*
X43304Y-30025D01*
X43365Y-30329D01*
X43537Y-30587D01*
X43587Y-30637D01*
X43845Y-30809D01*
X44150Y-30870D01*
X44454Y-30809D01*
X44712Y-30637D01*
X44884Y-30379D01*
X44945Y-30075D01*
X44895Y-29823D01*
X44895Y-29675D01*
X44879Y-29593D01*
X44947Y-29547D01*
X45054Y-29388D01*
X45092Y-29200D01*
X45092Y-35285D01*
X42670Y-35285D01*
X42670Y-31506D01*
X42598Y-31333D01*
X42466Y-31201D01*
X42293Y-31129D01*
X42106Y-31129D01*
X41933Y-31201D01*
X41928Y-31206D01*
X41271Y-31206D01*
X41266Y-31201D01*
X41093Y-31129D01*
X40906Y-31129D01*
X40733Y-31201D01*
X40601Y-31333D01*
X40529Y-31506D01*
X40529Y-31693D01*
X40601Y-31866D01*
X40733Y-31998D01*
X40906Y-32070D01*
X41093Y-32070D01*
X41266Y-31998D01*
X41271Y-31993D01*
X41928Y-31993D01*
X41933Y-31998D01*
X42106Y-32070D01*
X42293Y-32070D01*
X42466Y-31998D01*
X42598Y-31866D01*
X42670Y-31693D01*
X42670Y-31506D01*
X42670Y-35285D01*
X40868Y-35285D01*
X40878Y-35278D01*
X41992Y-34164D01*
X42006Y-34170D01*
X42193Y-34170D01*
X42366Y-34098D01*
X42498Y-33966D01*
X42570Y-33793D01*
X42570Y-33606D01*
X42498Y-33433D01*
X42366Y-33301D01*
X42193Y-33229D01*
X42006Y-33229D01*
X41833Y-33301D01*
X41828Y-33306D01*
X41800Y-33306D01*
X41763Y-33306D01*
X41178Y-32721D01*
X41050Y-32636D01*
X40900Y-32606D01*
X39271Y-32606D01*
X39266Y-32601D01*
X39093Y-32529D01*
X38906Y-32529D01*
X38733Y-32601D01*
X38601Y-32733D01*
X38529Y-32906D01*
X38529Y-33093D01*
X38601Y-33266D01*
X38641Y-33306D01*
X37892Y-33306D01*
X37892Y-18200D01*
X37854Y-18011D01*
X37792Y-17918D01*
X37792Y-15300D01*
X37760Y-15142D01*
X37754Y-15111D01*
X37754Y-15111D01*
X37647Y-14952D01*
X37647Y-14952D01*
X37447Y-14752D01*
X37288Y-14645D01*
X37100Y-14607D01*
X32600Y-14607D01*
X32400Y-14607D01*
X32211Y-14645D01*
X32052Y-14752D01*
X31945Y-14911D01*
X31907Y-15100D01*
X31945Y-15288D01*
X32052Y-15447D01*
X32211Y-15554D01*
X32400Y-15592D01*
X32600Y-15592D01*
X36807Y-15592D01*
X36807Y-18100D01*
X36845Y-18288D01*
X36952Y-18447D01*
X37052Y-18547D01*
X37211Y-18654D01*
X37400Y-18692D01*
X37588Y-18654D01*
X37747Y-18547D01*
X37854Y-18388D01*
X37892Y-18200D01*
X37892Y-33306D01*
X35171Y-33306D01*
X35166Y-33301D01*
X34993Y-33229D01*
X34806Y-33229D01*
X34633Y-33301D01*
X34501Y-33433D01*
X34470Y-33508D01*
X34470Y-27806D01*
X34398Y-27633D01*
X34266Y-27501D01*
X34093Y-27429D01*
X34017Y-27429D01*
X33900Y-27406D01*
X31971Y-27406D01*
X31966Y-27401D01*
X31793Y-27329D01*
X31606Y-27329D01*
X31433Y-27401D01*
X31301Y-27533D01*
X31229Y-27706D01*
X31229Y-27893D01*
X31301Y-28066D01*
X31433Y-28198D01*
X31606Y-28270D01*
X31793Y-28270D01*
X31966Y-28198D01*
X31971Y-28193D01*
X33628Y-28193D01*
X33733Y-28298D01*
X33906Y-28370D01*
X34093Y-28370D01*
X34266Y-28298D01*
X34398Y-28166D01*
X34470Y-27993D01*
X34470Y-27806D01*
X34470Y-33508D01*
X34429Y-33606D01*
X34429Y-33793D01*
X34486Y-33929D01*
X34406Y-33929D01*
X34233Y-34001D01*
X34101Y-34133D01*
X34029Y-34306D01*
X34029Y-34493D01*
X34076Y-34606D01*
X30995Y-34606D01*
X30995Y-21100D01*
X30995Y-20700D01*
X30934Y-20395D01*
X30762Y-20137D01*
X30504Y-19965D01*
X30200Y-19904D01*
X29895Y-19965D01*
X29637Y-20137D01*
X29465Y-20395D01*
X29404Y-20700D01*
X29404Y-21100D01*
X29465Y-21404D01*
X29637Y-21662D01*
X29895Y-21834D01*
X30200Y-21895D01*
X30504Y-21834D01*
X30762Y-21662D01*
X30934Y-21404D01*
X30995Y-21100D01*
X30995Y-34606D01*
X30895Y-34606D01*
X30895Y-24550D01*
X30895Y-24200D01*
X30834Y-23895D01*
X30662Y-23637D01*
X30404Y-23465D01*
X30100Y-23404D01*
X29795Y-23465D01*
X29537Y-23637D01*
X29365Y-23895D01*
X29304Y-24200D01*
X29304Y-24550D01*
X29365Y-24854D01*
X29537Y-25112D01*
X29795Y-25284D01*
X30100Y-25345D01*
X30404Y-25284D01*
X30662Y-25112D01*
X30834Y-24854D01*
X30895Y-24550D01*
X30895Y-34606D01*
X29963Y-34606D01*
X29193Y-33836D01*
X29193Y-30671D01*
X29198Y-30666D01*
X29270Y-30493D01*
X29270Y-30306D01*
X29198Y-30133D01*
X29066Y-30001D01*
X28893Y-29929D01*
X28706Y-29929D01*
X28533Y-30001D01*
X28401Y-30133D01*
X28329Y-30306D01*
X28329Y-30493D01*
X28401Y-30666D01*
X28406Y-30671D01*
X28406Y-34000D01*
X28436Y-34150D01*
X28521Y-34278D01*
X29521Y-35278D01*
X29521Y-35278D01*
X29531Y-35285D01*
X27210Y-35285D01*
X27210Y-16572D01*
X27123Y-16362D01*
X26963Y-16201D01*
X26923Y-16185D01*
X26962Y-16168D01*
X27123Y-16008D01*
X27210Y-15798D01*
X27210Y-15572D01*
X27123Y-15362D01*
X27004Y-15242D01*
X27082Y-15210D01*
X27165Y-15127D01*
X27210Y-15018D01*
X27210Y-14901D01*
X27210Y-14351D01*
X27165Y-14242D01*
X27082Y-14159D01*
X26973Y-14114D01*
X26856Y-14114D01*
X26306Y-14114D01*
X26197Y-14159D01*
X26114Y-14242D01*
X26069Y-14351D01*
X26069Y-14468D01*
X26069Y-15018D01*
X26114Y-15127D01*
X26197Y-15210D01*
X26275Y-15242D01*
X26156Y-15361D01*
X26069Y-15571D01*
X26069Y-15797D01*
X26156Y-16007D01*
X26316Y-16168D01*
X26356Y-16184D01*
X26317Y-16201D01*
X26156Y-16361D01*
X26069Y-16571D01*
X26069Y-16797D01*
X26156Y-17007D01*
X26316Y-17168D01*
X26526Y-17255D01*
X26752Y-17255D01*
X26962Y-17168D01*
X27123Y-17008D01*
X27210Y-16798D01*
X27210Y-16572D01*
X27210Y-35285D01*
X26695Y-35285D01*
X26695Y-19950D01*
X26695Y-19400D01*
X26634Y-19095D01*
X26462Y-18837D01*
X26204Y-18665D01*
X25900Y-18604D01*
X25595Y-18665D01*
X25337Y-18837D01*
X25165Y-19095D01*
X25104Y-19400D01*
X25104Y-19950D01*
X25165Y-20254D01*
X25337Y-20512D01*
X25595Y-20684D01*
X25900Y-20745D01*
X26204Y-20684D01*
X26462Y-20512D01*
X26634Y-20254D01*
X26695Y-19950D01*
X26695Y-35285D01*
X26595Y-35285D01*
X26595Y-25600D01*
X26595Y-25050D01*
X26534Y-24745D01*
X26362Y-24487D01*
X26104Y-24315D01*
X25800Y-24254D01*
X25495Y-24315D01*
X25237Y-24487D01*
X25065Y-24745D01*
X25004Y-25050D01*
X25004Y-25600D01*
X25065Y-25904D01*
X25237Y-26162D01*
X25495Y-26334D01*
X25800Y-26395D01*
X26104Y-26334D01*
X26362Y-26162D01*
X26534Y-25904D01*
X26595Y-25600D01*
X26595Y-35285D01*
X22814Y-35285D01*
X22814Y-25000D01*
X24562Y-25000D01*
X24671Y-24955D01*
X24754Y-24871D01*
X24799Y-24763D01*
X24799Y-24645D01*
X24799Y-23701D01*
X24754Y-23592D01*
X24671Y-23509D01*
X24562Y-23464D01*
X24445Y-23464D01*
X22814Y-23464D01*
X22814Y-22500D01*
X22814Y-21535D01*
X24562Y-21535D01*
X24671Y-21490D01*
X24754Y-21407D01*
X24799Y-21298D01*
X24799Y-21181D01*
X24799Y-20236D01*
X24754Y-20128D01*
X24671Y-20044D01*
X24562Y-20000D01*
X24445Y-20000D01*
X22814Y-20000D01*
X22814Y-10114D01*
X33100Y-10114D01*
X33100Y-11912D01*
X33144Y-12021D01*
X33228Y-12104D01*
X33336Y-12149D01*
X33454Y-12149D01*
X34398Y-12149D01*
X34507Y-12104D01*
X34590Y-12021D01*
X34635Y-11912D01*
X34635Y-11795D01*
X34635Y-10114D01*
X36564Y-10114D01*
X36564Y-11912D01*
X36609Y-12021D01*
X36692Y-12104D01*
X36801Y-12149D01*
X36918Y-12149D01*
X37863Y-12149D01*
X37971Y-12104D01*
X38055Y-12021D01*
X38100Y-11912D01*
X38100Y-11795D01*
X38100Y-10114D01*
X63285Y-10114D01*
X63285Y-35285D01*
X63285Y-35285D01*
G37*
G54D16*
X63285Y-35285D02*
X62370Y-35285D01*
X62370Y-33287D01*
X62283Y-33077D01*
X62123Y-32916D01*
X62083Y-32900D01*
X62122Y-32883D01*
X62283Y-32723D01*
X62370Y-32513D01*
X62370Y-32287D01*
X62283Y-32077D01*
X62164Y-31957D01*
X62242Y-31925D01*
X62325Y-31842D01*
X62370Y-31733D01*
X62370Y-31616D01*
X62370Y-31066D01*
X62325Y-30957D01*
X62242Y-30874D01*
X62133Y-30829D01*
X62016Y-30829D01*
X61466Y-30829D01*
X61357Y-30874D01*
X61274Y-30957D01*
X61229Y-31066D01*
X61229Y-31183D01*
X61229Y-31733D01*
X61274Y-31842D01*
X61357Y-31925D01*
X61435Y-31957D01*
X61316Y-32076D01*
X61229Y-32286D01*
X61229Y-32512D01*
X61316Y-32722D01*
X61476Y-32883D01*
X61516Y-32899D01*
X61477Y-32916D01*
X61316Y-33076D01*
X61229Y-33286D01*
X61229Y-33512D01*
X61316Y-33722D01*
X61476Y-33883D01*
X61686Y-33970D01*
X61912Y-33970D01*
X62122Y-33883D01*
X62283Y-33723D01*
X62370Y-33513D01*
X62370Y-33287D01*
X62370Y-35285D01*
X55792Y-35285D01*
X55792Y-25000D01*
X55754Y-24811D01*
X55647Y-24652D01*
X55488Y-24545D01*
X55300Y-24507D01*
X53870Y-24507D01*
X53870Y-17237D01*
X53870Y-11237D01*
X53783Y-11027D01*
X53623Y-10866D01*
X53413Y-10779D01*
X53187Y-10779D01*
X52977Y-10866D01*
X52816Y-11026D01*
X52800Y-11066D01*
X52783Y-11027D01*
X52623Y-10866D01*
X52413Y-10779D01*
X52187Y-10779D01*
X51977Y-10866D01*
X51816Y-11026D01*
X51800Y-11066D01*
X51783Y-11027D01*
X51623Y-10866D01*
X51413Y-10779D01*
X51187Y-10779D01*
X50977Y-10866D01*
X50816Y-11026D01*
X50800Y-11066D01*
X50783Y-11027D01*
X50623Y-10866D01*
X50413Y-10779D01*
X50187Y-10779D01*
X49977Y-10866D01*
X49816Y-11026D01*
X49800Y-11066D01*
X49783Y-11027D01*
X49623Y-10866D01*
X49413Y-10779D01*
X49187Y-10779D01*
X48977Y-10866D01*
X48816Y-11026D01*
X48800Y-11066D01*
X48783Y-11027D01*
X48623Y-10866D01*
X48413Y-10779D01*
X48187Y-10779D01*
X47977Y-10866D01*
X47816Y-11026D01*
X47800Y-11066D01*
X47783Y-11027D01*
X47623Y-10866D01*
X47413Y-10779D01*
X47187Y-10779D01*
X46977Y-10866D01*
X46816Y-11026D01*
X46800Y-11066D01*
X46783Y-11027D01*
X46623Y-10866D01*
X46413Y-10779D01*
X46187Y-10779D01*
X45977Y-10866D01*
X45816Y-11026D01*
X45800Y-11066D01*
X45783Y-11027D01*
X45623Y-10866D01*
X45413Y-10779D01*
X45187Y-10779D01*
X44977Y-10866D01*
X44816Y-11026D01*
X44800Y-11066D01*
X44783Y-11027D01*
X44623Y-10866D01*
X44413Y-10779D01*
X44187Y-10779D01*
X43977Y-10866D01*
X43816Y-11026D01*
X43800Y-11066D01*
X43783Y-11027D01*
X43623Y-10866D01*
X43413Y-10779D01*
X43187Y-10779D01*
X42977Y-10866D01*
X42816Y-11026D01*
X42800Y-11066D01*
X42783Y-11027D01*
X42623Y-10866D01*
X42413Y-10779D01*
X42187Y-10779D01*
X41977Y-10866D01*
X41816Y-11026D01*
X41729Y-11236D01*
X41729Y-11462D01*
X41816Y-11672D01*
X41976Y-11833D01*
X42186Y-11920D01*
X42412Y-11920D01*
X42622Y-11833D01*
X42783Y-11673D01*
X42799Y-11633D01*
X42816Y-11672D01*
X42976Y-11833D01*
X43186Y-11920D01*
X43412Y-11920D01*
X43622Y-11833D01*
X43783Y-11673D01*
X43799Y-11633D01*
X43816Y-11672D01*
X43976Y-11833D01*
X44186Y-11920D01*
X44412Y-11920D01*
X44622Y-11833D01*
X44783Y-11673D01*
X44799Y-11633D01*
X44816Y-11672D01*
X44976Y-11833D01*
X45186Y-11920D01*
X45412Y-11920D01*
X45622Y-11833D01*
X45783Y-11673D01*
X45799Y-11633D01*
X45816Y-11672D01*
X45976Y-11833D01*
X46186Y-11920D01*
X46412Y-11920D01*
X46622Y-11833D01*
X46783Y-11673D01*
X46799Y-11633D01*
X46816Y-11672D01*
X46976Y-11833D01*
X47186Y-11920D01*
X47412Y-11920D01*
X47622Y-11833D01*
X47783Y-11673D01*
X47799Y-11633D01*
X47816Y-11672D01*
X47976Y-11833D01*
X48186Y-11920D01*
X48412Y-11920D01*
X48622Y-11833D01*
X48783Y-11673D01*
X48799Y-11633D01*
X48816Y-11672D01*
X48976Y-11833D01*
X49186Y-11920D01*
X49412Y-11920D01*
X49622Y-11833D01*
X49783Y-11673D01*
X49799Y-11633D01*
X49816Y-11672D01*
X49976Y-11833D01*
X50186Y-11920D01*
X50412Y-11920D01*
X50622Y-11833D01*
X50783Y-11673D01*
X50799Y-11633D01*
X50816Y-11672D01*
X50976Y-11833D01*
X51186Y-11920D01*
X51412Y-11920D01*
X51622Y-11833D01*
X51783Y-11673D01*
X51799Y-11633D01*
X51816Y-11672D01*
X51976Y-11833D01*
X52186Y-11920D01*
X52412Y-11920D01*
X52622Y-11833D01*
X52783Y-11673D01*
X52799Y-11633D01*
X52816Y-11672D01*
X52976Y-11833D01*
X53186Y-11920D01*
X53412Y-11920D01*
X53622Y-11833D01*
X53783Y-11673D01*
X53870Y-11463D01*
X53870Y-11237D01*
X53870Y-17237D01*
X53783Y-17027D01*
X53623Y-16866D01*
X53413Y-16779D01*
X53187Y-16779D01*
X52977Y-16866D01*
X52816Y-17026D01*
X52800Y-17066D01*
X52783Y-17027D01*
X52623Y-16866D01*
X52413Y-16779D01*
X52187Y-16779D01*
X51977Y-16866D01*
X51816Y-17026D01*
X51800Y-17066D01*
X51783Y-17027D01*
X51623Y-16866D01*
X51413Y-16779D01*
X51187Y-16779D01*
X50977Y-16866D01*
X50816Y-17026D01*
X50800Y-17066D01*
X50783Y-17027D01*
X50623Y-16866D01*
X50413Y-16779D01*
X50187Y-16779D01*
X49977Y-16866D01*
X49816Y-17026D01*
X49800Y-17066D01*
X49783Y-17027D01*
X49623Y-16866D01*
X49413Y-16779D01*
X49187Y-16779D01*
X48977Y-16866D01*
X48816Y-17026D01*
X48800Y-17066D01*
X48783Y-17027D01*
X48623Y-16866D01*
X48413Y-16779D01*
X48187Y-16779D01*
X47977Y-16866D01*
X47816Y-17026D01*
X47800Y-17066D01*
X47783Y-17027D01*
X47623Y-16866D01*
X47413Y-16779D01*
X47187Y-16779D01*
X46977Y-16866D01*
X46816Y-17026D01*
X46800Y-17066D01*
X46783Y-17027D01*
X46623Y-16866D01*
X46413Y-16779D01*
X46187Y-16779D01*
X45977Y-16866D01*
X45816Y-17026D01*
X45800Y-17066D01*
X45783Y-17027D01*
X45623Y-16866D01*
X45413Y-16779D01*
X45187Y-16779D01*
X44977Y-16866D01*
X44816Y-17026D01*
X44800Y-17066D01*
X44783Y-17027D01*
X44623Y-16866D01*
X44413Y-16779D01*
X44187Y-16779D01*
X43977Y-16866D01*
X43816Y-17026D01*
X43800Y-17066D01*
X43783Y-17027D01*
X43623Y-16866D01*
X43413Y-16779D01*
X43187Y-16779D01*
X42977Y-16866D01*
X42857Y-16985D01*
X42825Y-16907D01*
X42742Y-16824D01*
X42633Y-16779D01*
X42516Y-16779D01*
X41966Y-16779D01*
X41857Y-16824D01*
X41774Y-16907D01*
X41729Y-17016D01*
X41729Y-17133D01*
X41729Y-17683D01*
X41774Y-17792D01*
X41857Y-17875D01*
X41966Y-17920D01*
X42083Y-17920D01*
X42633Y-17920D01*
X42742Y-17875D01*
X42825Y-17792D01*
X42857Y-17714D01*
X42976Y-17833D01*
X43186Y-17920D01*
X43412Y-17920D01*
X43622Y-17833D01*
X43783Y-17673D01*
X43799Y-17633D01*
X43816Y-17672D01*
X43976Y-17833D01*
X44186Y-17920D01*
X44412Y-17920D01*
X44622Y-17833D01*
X44783Y-17673D01*
X44799Y-17633D01*
X44816Y-17672D01*
X44976Y-17833D01*
X45186Y-17920D01*
X45412Y-17920D01*
X45622Y-17833D01*
X45783Y-17673D01*
X45799Y-17633D01*
X45816Y-17672D01*
X45976Y-17833D01*
X46186Y-17920D01*
X46412Y-17920D01*
X46622Y-17833D01*
X46783Y-17673D01*
X46799Y-17633D01*
X46816Y-17672D01*
X46976Y-17833D01*
X47186Y-17920D01*
X47412Y-17920D01*
X47622Y-17833D01*
X47783Y-17673D01*
X47799Y-17633D01*
X47816Y-17672D01*
X47976Y-17833D01*
X48186Y-17920D01*
X48412Y-17920D01*
X48622Y-17833D01*
X48783Y-17673D01*
X48799Y-17633D01*
X48816Y-17672D01*
X48976Y-17833D01*
X49186Y-17920D01*
X49412Y-17920D01*
X49622Y-17833D01*
X49783Y-17673D01*
X49799Y-17633D01*
X49816Y-17672D01*
X49976Y-17833D01*
X50186Y-17920D01*
X50412Y-17920D01*
X50622Y-17833D01*
X50783Y-17673D01*
X50799Y-17633D01*
X50816Y-17672D01*
X50976Y-17833D01*
X51186Y-17920D01*
X51412Y-17920D01*
X51622Y-17833D01*
X51783Y-17673D01*
X51799Y-17633D01*
X51816Y-17672D01*
X51976Y-17833D01*
X52186Y-17920D01*
X52412Y-17920D01*
X52622Y-17833D01*
X52783Y-17673D01*
X52799Y-17633D01*
X52816Y-17672D01*
X52976Y-17833D01*
X53186Y-17920D01*
X53412Y-17920D01*
X53622Y-17833D01*
X53783Y-17673D01*
X53870Y-17463D01*
X53870Y-17237D01*
X53870Y-24507D01*
X51003Y-24507D01*
X50870Y-24374D01*
X50870Y-19008D01*
X50870Y-18891D01*
X50870Y-18341D01*
X50825Y-18232D01*
X50742Y-18149D01*
X50633Y-18104D01*
X50516Y-18104D01*
X49966Y-18104D01*
X49857Y-18149D01*
X49774Y-18232D01*
X49742Y-18310D01*
X49623Y-18191D01*
X49413Y-18104D01*
X49187Y-18104D01*
X48977Y-18191D01*
X48816Y-18351D01*
X48800Y-18391D01*
X48783Y-18352D01*
X48623Y-18191D01*
X48413Y-18104D01*
X48187Y-18104D01*
X47977Y-18191D01*
X47816Y-18351D01*
X47729Y-18561D01*
X47729Y-18787D01*
X47816Y-18997D01*
X47976Y-19158D01*
X48186Y-19245D01*
X48412Y-19245D01*
X48622Y-19158D01*
X48783Y-18998D01*
X48799Y-18958D01*
X48816Y-18997D01*
X48976Y-19158D01*
X49186Y-19245D01*
X49412Y-19245D01*
X49622Y-19158D01*
X49742Y-19039D01*
X49774Y-19117D01*
X49857Y-19200D01*
X49966Y-19245D01*
X50083Y-19245D01*
X50633Y-19245D01*
X50742Y-19200D01*
X50825Y-19117D01*
X50870Y-19008D01*
X50870Y-24374D01*
X47347Y-20852D01*
X47188Y-20745D01*
X47000Y-20707D01*
X44200Y-20707D01*
X44011Y-20745D01*
X43852Y-20852D01*
X43745Y-21011D01*
X43707Y-21200D01*
X43745Y-21388D01*
X43852Y-21547D01*
X44011Y-21654D01*
X44200Y-21692D01*
X46796Y-21692D01*
X49426Y-24322D01*
X49311Y-24345D01*
X49152Y-24452D01*
X49045Y-24611D01*
X49007Y-24800D01*
X49007Y-25175D01*
X49007Y-25375D01*
X49045Y-25563D01*
X49152Y-25722D01*
X49182Y-25753D01*
X49182Y-25775D01*
X49220Y-25963D01*
X49271Y-26040D01*
X49254Y-26125D01*
X49254Y-26375D01*
X49315Y-26679D01*
X49487Y-26937D01*
X49712Y-27162D01*
X49970Y-27334D01*
X50275Y-27395D01*
X50579Y-27334D01*
X50837Y-27162D01*
X51009Y-26904D01*
X51070Y-26600D01*
X51009Y-26295D01*
X50837Y-26037D01*
X50825Y-26025D01*
X50784Y-25820D01*
X50612Y-25562D01*
X50354Y-25390D01*
X50117Y-25343D01*
X50087Y-25298D01*
X50092Y-25275D01*
X50054Y-25086D01*
X49992Y-24993D01*
X49992Y-24888D01*
X50452Y-25347D01*
X50452Y-25347D01*
X50611Y-25454D01*
X50800Y-25492D01*
X55300Y-25492D01*
X55488Y-25454D01*
X55647Y-25347D01*
X55754Y-25188D01*
X55792Y-25000D01*
X55792Y-35285D01*
X53870Y-35285D01*
X53870Y-30625D01*
X53809Y-30320D01*
X53637Y-30062D01*
X53612Y-30037D01*
X53354Y-29865D01*
X53050Y-29804D01*
X52750Y-29804D01*
X52445Y-29865D01*
X52187Y-30037D01*
X52116Y-30144D01*
X52111Y-30145D01*
X51952Y-30252D01*
X51870Y-30374D01*
X51870Y-29075D01*
X51809Y-28770D01*
X51637Y-28512D01*
X51379Y-28340D01*
X51075Y-28279D01*
X50949Y-28304D01*
X50650Y-28304D01*
X50345Y-28365D01*
X50087Y-28537D01*
X50031Y-28621D01*
X49911Y-28645D01*
X49752Y-28752D01*
X49645Y-28911D01*
X49607Y-29100D01*
X49645Y-29288D01*
X49752Y-29447D01*
X49911Y-29554D01*
X50031Y-29578D01*
X50087Y-29662D01*
X50345Y-29834D01*
X50650Y-29895D01*
X51050Y-29895D01*
X51354Y-29834D01*
X51354Y-29834D01*
X51612Y-29662D01*
X51637Y-29637D01*
X51809Y-29379D01*
X51870Y-29075D01*
X51870Y-30374D01*
X51845Y-30411D01*
X51807Y-30600D01*
X51845Y-30788D01*
X51952Y-30947D01*
X52111Y-31054D01*
X52116Y-31055D01*
X52187Y-31162D01*
X52445Y-31334D01*
X52750Y-31395D01*
X52949Y-31395D01*
X53075Y-31420D01*
X53379Y-31359D01*
X53637Y-31187D01*
X53809Y-30929D01*
X53870Y-30625D01*
X53870Y-35285D01*
X51100Y-35285D01*
X51100Y-33437D01*
X51055Y-33328D01*
X50971Y-33245D01*
X50863Y-33200D01*
X50745Y-33200D01*
X49801Y-33200D01*
X49692Y-33245D01*
X49609Y-33328D01*
X49564Y-33437D01*
X49564Y-33554D01*
X49564Y-35285D01*
X47720Y-35285D01*
X47720Y-30600D01*
X47659Y-30295D01*
X47595Y-30199D01*
X47595Y-24800D01*
X47534Y-24495D01*
X47362Y-24237D01*
X47104Y-24065D01*
X46800Y-24004D01*
X46550Y-24004D01*
X46245Y-24065D01*
X45987Y-24237D01*
X45815Y-24495D01*
X45754Y-24800D01*
X45815Y-25104D01*
X45987Y-25362D01*
X46245Y-25534D01*
X46550Y-25595D01*
X46800Y-25595D01*
X47104Y-25534D01*
X47362Y-25362D01*
X47534Y-25104D01*
X47595Y-24800D01*
X47595Y-30199D01*
X47487Y-30037D01*
X47412Y-29987D01*
X47212Y-29787D01*
X46954Y-29615D01*
X46650Y-29554D01*
X46345Y-29615D01*
X46087Y-29787D01*
X45915Y-30045D01*
X45854Y-30350D01*
X45915Y-30654D01*
X46087Y-30912D01*
X46337Y-31162D01*
X46337Y-31162D01*
X46337Y-31162D01*
X46510Y-31277D01*
X46595Y-31334D01*
X46595Y-31334D01*
X46900Y-31395D01*
X46900Y-31395D01*
X46900Y-31395D01*
X46925Y-31395D01*
X47229Y-31334D01*
X47487Y-31162D01*
X47659Y-30904D01*
X47720Y-30600D01*
X47720Y-35285D01*
X47635Y-35285D01*
X47635Y-33437D01*
X47590Y-33328D01*
X47507Y-33245D01*
X47398Y-33200D01*
X47281Y-33200D01*
X46336Y-33200D01*
X46228Y-33245D01*
X46144Y-33328D01*
X46100Y-33437D01*
X46100Y-33554D01*
X46100Y-35285D01*
X45092Y-35285D01*
X45092Y-29200D01*
X45054Y-29011D01*
X44947Y-28852D01*
X44788Y-28745D01*
X44600Y-28707D01*
X44575Y-28707D01*
X44386Y-28745D01*
X44227Y-28852D01*
X44182Y-28896D01*
X44100Y-28879D01*
X43795Y-28940D01*
X43537Y-29112D01*
X43365Y-29370D01*
X43304Y-29675D01*
X43304Y-30025D01*
X43365Y-30329D01*
X43537Y-30587D01*
X43587Y-30637D01*
X43845Y-30809D01*
X44150Y-30870D01*
X44454Y-30809D01*
X44712Y-30637D01*
X44884Y-30379D01*
X44945Y-30075D01*
X44895Y-29823D01*
X44895Y-29675D01*
X44879Y-29593D01*
X44947Y-29547D01*
X45054Y-29388D01*
X45092Y-29200D01*
X45092Y-35285D01*
X42670Y-35285D01*
X42670Y-31506D01*
X42598Y-31333D01*
X42466Y-31201D01*
X42293Y-31129D01*
X42106Y-31129D01*
X41933Y-31201D01*
X41928Y-31206D01*
X41271Y-31206D01*
X41266Y-31201D01*
X41093Y-31129D01*
X40906Y-31129D01*
X40733Y-31201D01*
X40601Y-31333D01*
X40529Y-31506D01*
X40529Y-31693D01*
X40601Y-31866D01*
X40733Y-31998D01*
X40906Y-32070D01*
X41093Y-32070D01*
X41266Y-31998D01*
X41271Y-31993D01*
X41928Y-31993D01*
X41933Y-31998D01*
X42106Y-32070D01*
X42293Y-32070D01*
X42466Y-31998D01*
X42598Y-31866D01*
X42670Y-31693D01*
X42670Y-31506D01*
X42670Y-35285D01*
X40868Y-35285D01*
X40878Y-35278D01*
X41992Y-34164D01*
X42006Y-34170D01*
X42193Y-34170D01*
X42366Y-34098D01*
X42498Y-33966D01*
X42570Y-33793D01*
X42570Y-33606D01*
X42498Y-33433D01*
X42366Y-33301D01*
X42193Y-33229D01*
X42006Y-33229D01*
X41833Y-33301D01*
X41828Y-33306D01*
X41800Y-33306D01*
X41763Y-33306D01*
X41178Y-32721D01*
X41050Y-32636D01*
X40900Y-32606D01*
X39271Y-32606D01*
X39266Y-32601D01*
X39093Y-32529D01*
X38906Y-32529D01*
X38733Y-32601D01*
X38601Y-32733D01*
X38529Y-32906D01*
X38529Y-33093D01*
X38601Y-33266D01*
X38641Y-33306D01*
X37892Y-33306D01*
X37892Y-18200D01*
X37854Y-18011D01*
X37792Y-17918D01*
X37792Y-15300D01*
X37760Y-15142D01*
X37754Y-15111D01*
X37754Y-15111D01*
X37647Y-14952D01*
X37647Y-14952D01*
X37447Y-14752D01*
X37288Y-14645D01*
X37100Y-14607D01*
X32600Y-14607D01*
X32400Y-14607D01*
X32211Y-14645D01*
X32052Y-14752D01*
X31945Y-14911D01*
X31907Y-15100D01*
X31945Y-15288D01*
X32052Y-15447D01*
X32211Y-15554D01*
X32400Y-15592D01*
X32600Y-15592D01*
X36807Y-15592D01*
X36807Y-18100D01*
X36845Y-18288D01*
X36952Y-18447D01*
X37052Y-18547D01*
X37211Y-18654D01*
X37400Y-18692D01*
X37588Y-18654D01*
X37747Y-18547D01*
X37854Y-18388D01*
X37892Y-18200D01*
X37892Y-33306D01*
X35171Y-33306D01*
X35166Y-33301D01*
X34993Y-33229D01*
X34806Y-33229D01*
X34633Y-33301D01*
X34501Y-33433D01*
X34470Y-33508D01*
X34470Y-27806D01*
X34398Y-27633D01*
X34266Y-27501D01*
X34093Y-27429D01*
X34017Y-27429D01*
X33900Y-27406D01*
X31971Y-27406D01*
X31966Y-27401D01*
X31793Y-27329D01*
X31606Y-27329D01*
X31433Y-27401D01*
X31301Y-27533D01*
X31229Y-27706D01*
X31229Y-27893D01*
X31301Y-28066D01*
X31433Y-28198D01*
X31606Y-28270D01*
X31793Y-28270D01*
X31966Y-28198D01*
X31971Y-28193D01*
X33628Y-28193D01*
X33733Y-28298D01*
X33906Y-28370D01*
X34093Y-28370D01*
X34266Y-28298D01*
X34398Y-28166D01*
X34470Y-27993D01*
X34470Y-27806D01*
X34470Y-33508D01*
X34429Y-33606D01*
X34429Y-33793D01*
X34486Y-33929D01*
X34406Y-33929D01*
X34233Y-34001D01*
X34101Y-34133D01*
X34029Y-34306D01*
X34029Y-34493D01*
X34076Y-34606D01*
X30995Y-34606D01*
X30995Y-21100D01*
X30995Y-20700D01*
X30934Y-20395D01*
X30762Y-20137D01*
X30504Y-19965D01*
X30200Y-19904D01*
X29895Y-19965D01*
X29637Y-20137D01*
X29465Y-20395D01*
X29404Y-20700D01*
X29404Y-21100D01*
X29465Y-21404D01*
X29637Y-21662D01*
X29895Y-21834D01*
X30200Y-21895D01*
X30504Y-21834D01*
X30762Y-21662D01*
X30934Y-21404D01*
X30995Y-21100D01*
X30995Y-34606D01*
X30895Y-34606D01*
X30895Y-24550D01*
X30895Y-24200D01*
X30834Y-23895D01*
X30662Y-23637D01*
X30404Y-23465D01*
X30100Y-23404D01*
X29795Y-23465D01*
X29537Y-23637D01*
X29365Y-23895D01*
X29304Y-24200D01*
X29304Y-24550D01*
X29365Y-24854D01*
X29537Y-25112D01*
X29795Y-25284D01*
X30100Y-25345D01*
X30404Y-25284D01*
X30662Y-25112D01*
X30834Y-24854D01*
X30895Y-24550D01*
X30895Y-34606D01*
X29963Y-34606D01*
X29193Y-33836D01*
X29193Y-30671D01*
X29198Y-30666D01*
X29270Y-30493D01*
X29270Y-30306D01*
X29198Y-30133D01*
X29066Y-30001D01*
X28893Y-29929D01*
X28706Y-29929D01*
X28533Y-30001D01*
X28401Y-30133D01*
X28329Y-30306D01*
X28329Y-30493D01*
X28401Y-30666D01*
X28406Y-30671D01*
X28406Y-34000D01*
X28436Y-34150D01*
X28521Y-34278D01*
X29521Y-35278D01*
X29521Y-35278D01*
X29531Y-35285D01*
X27210Y-35285D01*
X27210Y-16572D01*
X27123Y-16362D01*
X26963Y-16201D01*
X26923Y-16185D01*
X26962Y-16168D01*
X27123Y-16008D01*
X27210Y-15798D01*
X27210Y-15572D01*
X27123Y-15362D01*
X27004Y-15242D01*
X27082Y-15210D01*
X27165Y-15127D01*
X27210Y-15018D01*
X27210Y-14901D01*
X27210Y-14351D01*
X27165Y-14242D01*
X27082Y-14159D01*
X26973Y-14114D01*
X26856Y-14114D01*
X26306Y-14114D01*
X26197Y-14159D01*
X26114Y-14242D01*
X26069Y-14351D01*
X26069Y-14468D01*
X26069Y-15018D01*
X26114Y-15127D01*
X26197Y-15210D01*
X26275Y-15242D01*
X26156Y-15361D01*
X26069Y-15571D01*
X26069Y-15797D01*
X26156Y-16007D01*
X26316Y-16168D01*
X26356Y-16184D01*
X26317Y-16201D01*
X26156Y-16361D01*
X26069Y-16571D01*
X26069Y-16797D01*
X26156Y-17007D01*
X26316Y-17168D01*
X26526Y-17255D01*
X26752Y-17255D01*
X26962Y-17168D01*
X27123Y-17008D01*
X27210Y-16798D01*
X27210Y-16572D01*
X27210Y-35285D01*
X26695Y-35285D01*
X26695Y-19950D01*
X26695Y-19400D01*
X26634Y-19095D01*
X26462Y-18837D01*
X26204Y-18665D01*
X25900Y-18604D01*
X25595Y-18665D01*
X25337Y-18837D01*
X25165Y-19095D01*
X25104Y-19400D01*
X25104Y-19950D01*
X25165Y-20254D01*
X25337Y-20512D01*
X25595Y-20684D01*
X25900Y-20745D01*
X26204Y-20684D01*
X26462Y-20512D01*
X26634Y-20254D01*
X26695Y-19950D01*
X26695Y-35285D01*
X26595Y-35285D01*
X26595Y-25600D01*
X26595Y-25050D01*
X26534Y-24745D01*
X26362Y-24487D01*
X26104Y-24315D01*
X25800Y-24254D01*
X25495Y-24315D01*
X25237Y-24487D01*
X25065Y-24745D01*
X25004Y-25050D01*
X25004Y-25600D01*
X25065Y-25904D01*
X25237Y-26162D01*
X25495Y-26334D01*
X25800Y-26395D01*
X26104Y-26334D01*
X26362Y-26162D01*
X26534Y-25904D01*
X26595Y-25600D01*
X26595Y-35285D01*
X22814Y-35285D01*
X22814Y-25000D01*
X24562Y-25000D01*
X24671Y-24955D01*
X24754Y-24871D01*
X24799Y-24763D01*
X24799Y-24645D01*
X24799Y-23701D01*
X24754Y-23592D01*
X24671Y-23509D01*
X24562Y-23464D01*
X24445Y-23464D01*
X22814Y-23464D01*
X22814Y-22500D01*
X22814Y-21535D01*
X24562Y-21535D01*
X24671Y-21490D01*
X24754Y-21407D01*
X24799Y-21298D01*
X24799Y-21181D01*
X24799Y-20236D01*
X24754Y-20128D01*
X24671Y-20044D01*
X24562Y-20000D01*
X24445Y-20000D01*
X22814Y-20000D01*
X22814Y-10114D01*
X33100Y-10114D01*
X33100Y-11912D01*
X33144Y-12021D01*
X33228Y-12104D01*
X33336Y-12149D01*
X33454Y-12149D01*
X34398Y-12149D01*
X34507Y-12104D01*
X34590Y-12021D01*
X34635Y-11912D01*
X34635Y-11795D01*
X34635Y-10114D01*
X36564Y-10114D01*
X36564Y-11912D01*
X36609Y-12021D01*
X36692Y-12104D01*
X36801Y-12149D01*
X36918Y-12149D01*
X37863Y-12149D01*
X37971Y-12104D01*
X38055Y-12021D01*
X38100Y-11912D01*
X38100Y-11795D01*
X38100Y-10114D01*
X63285Y-10114D01*
X63285Y-35285D01*
M02*
