%FSLAX34Y34*%
G04 Gerber Fmt 3.4, Leading zero omitted, Abs format*
G04 (created by PCBNEW (2014-03-13 BZR 4745)-product) date Mon Apr 14 16:26:34 2014*
%MOIN*%
G01*
G70*
G90*
G04 APERTURE LIST*
%ADD10C,0.005906*%
%ADD11R,0.055000X0.055000*%
%ADD12C,0.055000*%
%ADD13R,0.200787X0.094488*%
%ADD14R,0.094488X0.200787*%
%ADD15C,0.010000*%
G04 APERTURE END LIST*
G54D10*
G54D11*
X26640Y-14685D03*
G54D12*
X26640Y-15685D03*
X26640Y-16685D03*
G54D11*
X50300Y-18675D03*
G54D12*
X49300Y-18675D03*
X48300Y-18675D03*
G54D13*
X23500Y-24232D03*
X23500Y-20767D03*
G54D14*
X37332Y-10850D03*
X33867Y-10850D03*
X50332Y-34500D03*
X46867Y-34500D03*
G54D11*
X61800Y-31400D03*
G54D12*
X61800Y-32400D03*
X61800Y-33400D03*
G54D11*
X42300Y-17350D03*
G54D12*
X43300Y-17350D03*
X44300Y-17350D03*
X45300Y-17350D03*
X46300Y-17350D03*
X47300Y-17350D03*
X48300Y-17350D03*
X49300Y-17350D03*
X50300Y-17350D03*
X51300Y-17350D03*
X52300Y-17350D03*
X53300Y-17350D03*
X53300Y-11350D03*
X52300Y-11350D03*
X51300Y-11350D03*
X50300Y-11350D03*
X49300Y-11350D03*
X48300Y-11350D03*
X47300Y-11350D03*
X46300Y-11350D03*
X45300Y-11350D03*
X44300Y-11350D03*
X43300Y-11350D03*
X42300Y-11350D03*
G54D10*
G36*
X26275Y-20054D02*
X26079Y-20250D01*
X26000Y-20250D01*
X25720Y-20250D01*
X25550Y-20079D01*
X25550Y-19500D01*
X25550Y-19350D01*
X25550Y-19295D01*
X25720Y-19125D01*
X26029Y-19125D01*
X26275Y-19370D01*
X26275Y-20054D01*
X26275Y-20054D01*
G37*
G54D15*
X26275Y-20054D02*
X26079Y-20250D01*
X26000Y-20250D01*
X25720Y-20250D01*
X25550Y-20079D01*
X25550Y-19500D01*
X25550Y-19350D01*
X25550Y-19295D01*
X25720Y-19125D01*
X26029Y-19125D01*
X26275Y-19370D01*
X26275Y-20054D01*
G54D10*
G36*
X26125Y-25779D02*
X25954Y-25950D01*
X25645Y-25950D01*
X25450Y-25754D01*
X25450Y-24920D01*
X25625Y-24745D01*
X25625Y-24750D01*
X25979Y-24750D01*
X26125Y-24895D01*
X26125Y-25779D01*
X26125Y-25779D01*
G37*
G54D15*
X26125Y-25779D02*
X25954Y-25950D01*
X25645Y-25950D01*
X25450Y-25754D01*
X25450Y-24920D01*
X25625Y-24745D01*
X25625Y-24750D01*
X25979Y-24750D01*
X26125Y-24895D01*
X26125Y-25779D01*
G54D10*
G36*
X30425Y-24654D02*
X30254Y-24825D01*
X29970Y-24825D01*
X29775Y-24629D01*
X29775Y-24020D01*
X29925Y-23870D01*
X29925Y-23875D01*
X30254Y-23875D01*
X30425Y-24045D01*
X30425Y-24654D01*
X30425Y-24654D01*
G37*
G54D15*
X30425Y-24654D02*
X30254Y-24825D01*
X29970Y-24825D01*
X29775Y-24629D01*
X29775Y-24020D01*
X29925Y-23870D01*
X29925Y-23875D01*
X30254Y-23875D01*
X30425Y-24045D01*
X30425Y-24654D01*
G54D10*
G36*
X30575Y-21179D02*
X30354Y-21400D01*
X30020Y-21400D01*
X29850Y-21229D01*
X29850Y-20520D01*
X29985Y-20385D01*
X29995Y-20375D01*
X30379Y-20375D01*
X30575Y-20570D01*
X30575Y-21179D01*
X30575Y-21179D01*
G37*
G54D15*
X30575Y-21179D02*
X30354Y-21400D01*
X30020Y-21400D01*
X29850Y-21229D01*
X29850Y-20520D01*
X29985Y-20385D01*
X29995Y-20375D01*
X30379Y-20375D01*
X30575Y-20570D01*
X30575Y-21179D01*
G54D10*
G36*
X47150Y-25004D02*
X47029Y-25125D01*
X46420Y-25125D01*
X46225Y-24929D01*
X46225Y-24500D01*
X46315Y-24500D01*
X46390Y-24450D01*
X46929Y-24450D01*
X47150Y-24670D01*
X47150Y-25004D01*
X47150Y-25004D01*
G37*
G54D15*
X47150Y-25004D02*
X47029Y-25125D01*
X46420Y-25125D01*
X46225Y-24929D01*
X46225Y-24500D01*
X46315Y-24500D01*
X46390Y-24450D01*
X46929Y-24450D01*
X47150Y-24670D01*
X47150Y-25004D01*
G54D10*
G36*
X51425Y-29279D02*
X51229Y-29475D01*
X50520Y-29475D01*
X50348Y-29302D01*
X50326Y-28994D01*
X50570Y-28750D01*
X51279Y-28750D01*
X51425Y-28895D01*
X51425Y-29279D01*
X51425Y-29279D01*
G37*
G54D15*
X51425Y-29279D02*
X51229Y-29475D01*
X50520Y-29475D01*
X50348Y-29302D01*
X50326Y-28994D01*
X50570Y-28750D01*
X51279Y-28750D01*
X51425Y-28895D01*
X51425Y-29279D01*
G54D10*
G36*
X53475Y-30854D02*
X53304Y-31025D01*
X52595Y-31025D01*
X52475Y-30904D01*
X52475Y-30798D01*
X52451Y-30419D01*
X52670Y-30200D01*
X53204Y-30200D01*
X53475Y-30470D01*
X53475Y-30854D01*
X53475Y-30854D01*
G37*
G54D15*
X53475Y-30854D02*
X53304Y-31025D01*
X52595Y-31025D01*
X52475Y-30904D01*
X52475Y-30798D01*
X52451Y-30419D01*
X52670Y-30200D01*
X53204Y-30200D01*
X53475Y-30470D01*
X53475Y-30854D01*
G54D10*
G36*
X47125Y-30779D02*
X46929Y-30975D01*
X46795Y-30975D01*
X46250Y-30429D01*
X46250Y-30300D01*
X46250Y-30220D01*
X46520Y-29950D01*
X46679Y-29950D01*
X47125Y-30395D01*
X47125Y-30779D01*
X47125Y-30779D01*
G37*
G54D15*
X47125Y-30779D02*
X46929Y-30975D01*
X46795Y-30975D01*
X46250Y-30429D01*
X46250Y-30300D01*
X46250Y-30220D01*
X46520Y-29950D01*
X46679Y-29950D01*
X47125Y-30395D01*
X47125Y-30779D01*
G54D10*
G36*
X44425Y-30229D02*
X44204Y-30450D01*
X43945Y-30450D01*
X43775Y-30279D01*
X43775Y-29470D01*
X43945Y-29300D01*
X44207Y-29300D01*
X44425Y-29474D01*
X44425Y-30229D01*
X44425Y-30229D01*
G37*
G54D15*
X44425Y-30229D02*
X44204Y-30450D01*
X43945Y-30450D01*
X43775Y-30279D01*
X43775Y-29470D01*
X43945Y-29300D01*
X44207Y-29300D01*
X44425Y-29474D01*
X44425Y-30229D01*
G54D10*
G36*
X50650Y-26754D02*
X50479Y-26925D01*
X50170Y-26925D01*
X49750Y-26504D01*
X49750Y-26008D01*
X49811Y-25825D01*
X50204Y-25825D01*
X50450Y-26070D01*
X50450Y-26345D01*
X50650Y-26545D01*
X50650Y-26754D01*
X50650Y-26754D01*
G37*
G54D15*
X50650Y-26754D02*
X50479Y-26925D01*
X50170Y-26925D01*
X49750Y-26504D01*
X49750Y-26008D01*
X49811Y-25825D01*
X50204Y-25825D01*
X50450Y-26070D01*
X50450Y-26345D01*
X50650Y-26545D01*
X50650Y-26754D01*
M02*
