%FSLAX34Y34*%
G04 Gerber Fmt 3.4, Leading zero omitted, Abs format*
G04 (created by PCBNEW (2014-03-19 BZR 4756)-product) date Mon 28 Jul 2014 09:33:57 AM AKDT*
%MOIN*%
G01*
G70*
G90*
G04 APERTURE LIST*
%ADD10C,0.005906*%
%ADD11C,0.007874*%
%ADD12C,0.011811*%
G04 APERTURE END LIST*
G54D10*
G54D11*
X23700Y-11000D02*
X22500Y-11000D01*
X23700Y-9800D02*
X23700Y-11000D01*
X62400Y-9800D02*
X23700Y-9800D01*
X62400Y-11000D02*
X62400Y-9800D01*
X63600Y-11000D02*
X62400Y-11000D01*
X63600Y-34300D02*
X63600Y-11000D01*
X62400Y-34300D02*
X63600Y-34300D01*
X62400Y-35500D02*
X62400Y-34300D01*
X36700Y-35500D02*
X62400Y-35500D01*
X36700Y-34300D02*
X36700Y-35500D01*
X28800Y-34300D02*
X36700Y-34300D01*
X28800Y-35500D02*
X28800Y-34300D01*
X23700Y-35500D02*
X28800Y-35500D01*
X23700Y-34300D02*
X23700Y-35500D01*
X22500Y-34300D02*
X23700Y-34300D01*
X22500Y-11000D02*
X22500Y-34300D01*
G54D12*
X58052Y-14067D02*
X58052Y-13476D01*
X57799Y-14067D02*
X57799Y-13757D01*
X57827Y-13701D01*
X57883Y-13673D01*
X57968Y-13673D01*
X58024Y-13701D01*
X58052Y-13729D01*
X57518Y-14067D02*
X57518Y-13673D01*
X57518Y-13476D02*
X57546Y-13504D01*
X57518Y-13532D01*
X57489Y-13504D01*
X57518Y-13476D01*
X57518Y-13532D01*
X56983Y-13673D02*
X56983Y-14151D01*
X57011Y-14207D01*
X57040Y-14235D01*
X57096Y-14264D01*
X57180Y-14264D01*
X57236Y-14235D01*
X56983Y-14039D02*
X57040Y-14067D01*
X57152Y-14067D01*
X57208Y-14039D01*
X57236Y-14010D01*
X57265Y-13954D01*
X57265Y-13785D01*
X57236Y-13729D01*
X57208Y-13701D01*
X57152Y-13673D01*
X57040Y-13673D01*
X56983Y-13701D01*
X56702Y-14067D02*
X56702Y-13476D01*
X56449Y-14067D02*
X56449Y-13757D01*
X56477Y-13701D01*
X56533Y-13673D01*
X56618Y-13673D01*
X56674Y-13701D01*
X56702Y-13729D01*
X55718Y-13673D02*
X55718Y-14264D01*
X55718Y-13701D02*
X55662Y-13673D01*
X55549Y-13673D01*
X55493Y-13701D01*
X55465Y-13729D01*
X55437Y-13785D01*
X55437Y-13954D01*
X55465Y-14010D01*
X55493Y-14039D01*
X55549Y-14067D01*
X55662Y-14067D01*
X55718Y-14039D01*
X55099Y-14067D02*
X55155Y-14039D01*
X55184Y-14010D01*
X55212Y-13954D01*
X55212Y-13785D01*
X55184Y-13729D01*
X55155Y-13701D01*
X55099Y-13673D01*
X55015Y-13673D01*
X54959Y-13701D01*
X54930Y-13729D01*
X54902Y-13785D01*
X54902Y-13954D01*
X54930Y-14010D01*
X54959Y-14039D01*
X55015Y-14067D01*
X55099Y-14067D01*
X54705Y-13673D02*
X54593Y-14067D01*
X54480Y-13785D01*
X54368Y-14067D01*
X54256Y-13673D01*
X53806Y-14039D02*
X53862Y-14067D01*
X53974Y-14067D01*
X54031Y-14039D01*
X54059Y-13982D01*
X54059Y-13757D01*
X54031Y-13701D01*
X53974Y-13673D01*
X53862Y-13673D01*
X53806Y-13701D01*
X53777Y-13757D01*
X53777Y-13814D01*
X54059Y-13870D01*
X53524Y-14067D02*
X53524Y-13673D01*
X53524Y-13785D02*
X53496Y-13729D01*
X53468Y-13701D01*
X53412Y-13673D01*
X53356Y-13673D01*
X52793Y-13476D02*
X52456Y-13476D01*
X52624Y-14067D02*
X52624Y-13476D01*
X51837Y-13448D02*
X52343Y-14207D01*
X51303Y-14067D02*
X51500Y-13785D01*
X51640Y-14067D02*
X51640Y-13476D01*
X51415Y-13476D01*
X51359Y-13504D01*
X51331Y-13532D01*
X51303Y-13589D01*
X51303Y-13673D01*
X51331Y-13729D01*
X51359Y-13757D01*
X51415Y-13785D01*
X51640Y-13785D01*
X50628Y-14039D02*
X50572Y-14067D01*
X50459Y-14067D01*
X50403Y-14039D01*
X50375Y-13982D01*
X50375Y-13954D01*
X50403Y-13898D01*
X50459Y-13870D01*
X50543Y-13870D01*
X50600Y-13842D01*
X50628Y-13785D01*
X50628Y-13757D01*
X50600Y-13701D01*
X50543Y-13673D01*
X50459Y-13673D01*
X50403Y-13701D01*
X50178Y-13673D02*
X50065Y-14067D01*
X49953Y-13785D01*
X49840Y-14067D01*
X49728Y-13673D01*
X49503Y-14067D02*
X49503Y-13673D01*
X49503Y-13476D02*
X49531Y-13504D01*
X49503Y-13532D01*
X49475Y-13504D01*
X49503Y-13476D01*
X49503Y-13532D01*
X49306Y-13673D02*
X49081Y-13673D01*
X49222Y-13476D02*
X49222Y-13982D01*
X49194Y-14039D01*
X49137Y-14067D01*
X49081Y-14067D01*
X48631Y-14039D02*
X48687Y-14067D01*
X48800Y-14067D01*
X48856Y-14039D01*
X48884Y-14010D01*
X48912Y-13954D01*
X48912Y-13785D01*
X48884Y-13729D01*
X48856Y-13701D01*
X48800Y-13673D01*
X48687Y-13673D01*
X48631Y-13701D01*
X48378Y-14067D02*
X48378Y-13476D01*
X48125Y-14067D02*
X48125Y-13757D01*
X48153Y-13701D01*
X48209Y-13673D01*
X48294Y-13673D01*
X48350Y-13701D01*
X48378Y-13729D01*
X47394Y-14067D02*
X47394Y-13673D01*
X47394Y-13785D02*
X47366Y-13729D01*
X47338Y-13701D01*
X47281Y-13673D01*
X47225Y-13673D01*
X47056Y-13532D02*
X47028Y-13504D01*
X46972Y-13476D01*
X46831Y-13476D01*
X46775Y-13504D01*
X46747Y-13532D01*
X46719Y-13589D01*
X46719Y-13645D01*
X46747Y-13729D01*
X47085Y-14067D01*
X46719Y-14067D01*
M02*
