%FSLAX34Y34*%
G04 Gerber Fmt 3.4, Leading zero omitted, Abs format*
G04 (created by PCBNEW (2014-03-19 BZR 4756)-product) date Fri Feb  6 12:39:27 2015*
%MOIN*%
G01*
G70*
G90*
G04 APERTURE LIST*
%ADD10C,0.005906*%
%ADD11C,0.011811*%
G04 APERTURE END LIST*
G54D10*
G54D11*
X57452Y-10467D02*
X57452Y-9876D01*
X57199Y-10467D02*
X57199Y-10157D01*
X57227Y-10101D01*
X57283Y-10073D01*
X57368Y-10073D01*
X57424Y-10101D01*
X57452Y-10129D01*
X56918Y-10467D02*
X56918Y-10073D01*
X56918Y-9876D02*
X56946Y-9904D01*
X56918Y-9932D01*
X56889Y-9904D01*
X56918Y-9876D01*
X56918Y-9932D01*
X56383Y-10073D02*
X56383Y-10551D01*
X56411Y-10607D01*
X56440Y-10635D01*
X56496Y-10664D01*
X56580Y-10664D01*
X56636Y-10635D01*
X56383Y-10439D02*
X56440Y-10467D01*
X56552Y-10467D01*
X56608Y-10439D01*
X56636Y-10410D01*
X56665Y-10354D01*
X56665Y-10185D01*
X56636Y-10129D01*
X56608Y-10101D01*
X56552Y-10073D01*
X56440Y-10073D01*
X56383Y-10101D01*
X56102Y-10467D02*
X56102Y-9876D01*
X55849Y-10467D02*
X55849Y-10157D01*
X55877Y-10101D01*
X55933Y-10073D01*
X56018Y-10073D01*
X56074Y-10101D01*
X56102Y-10129D01*
X55118Y-10073D02*
X55118Y-10664D01*
X55118Y-10101D02*
X55062Y-10073D01*
X54949Y-10073D01*
X54893Y-10101D01*
X54865Y-10129D01*
X54837Y-10185D01*
X54837Y-10354D01*
X54865Y-10410D01*
X54893Y-10439D01*
X54949Y-10467D01*
X55062Y-10467D01*
X55118Y-10439D01*
X54499Y-10467D02*
X54555Y-10439D01*
X54584Y-10410D01*
X54612Y-10354D01*
X54612Y-10185D01*
X54584Y-10129D01*
X54555Y-10101D01*
X54499Y-10073D01*
X54415Y-10073D01*
X54359Y-10101D01*
X54330Y-10129D01*
X54302Y-10185D01*
X54302Y-10354D01*
X54330Y-10410D01*
X54359Y-10439D01*
X54415Y-10467D01*
X54499Y-10467D01*
X54105Y-10073D02*
X53993Y-10467D01*
X53880Y-10185D01*
X53768Y-10467D01*
X53656Y-10073D01*
X53206Y-10439D02*
X53262Y-10467D01*
X53374Y-10467D01*
X53431Y-10439D01*
X53459Y-10382D01*
X53459Y-10157D01*
X53431Y-10101D01*
X53374Y-10073D01*
X53262Y-10073D01*
X53206Y-10101D01*
X53177Y-10157D01*
X53177Y-10214D01*
X53459Y-10270D01*
X52924Y-10467D02*
X52924Y-10073D01*
X52924Y-10185D02*
X52896Y-10129D01*
X52868Y-10101D01*
X52812Y-10073D01*
X52756Y-10073D01*
X52193Y-9876D02*
X51856Y-9876D01*
X52024Y-10467D02*
X52024Y-9876D01*
X51237Y-9848D02*
X51743Y-10607D01*
X50703Y-10467D02*
X50900Y-10185D01*
X51040Y-10467D02*
X51040Y-9876D01*
X50815Y-9876D01*
X50759Y-9904D01*
X50731Y-9932D01*
X50703Y-9989D01*
X50703Y-10073D01*
X50731Y-10129D01*
X50759Y-10157D01*
X50815Y-10185D01*
X51040Y-10185D01*
X50028Y-10439D02*
X49972Y-10467D01*
X49859Y-10467D01*
X49803Y-10439D01*
X49775Y-10382D01*
X49775Y-10354D01*
X49803Y-10298D01*
X49859Y-10270D01*
X49943Y-10270D01*
X50000Y-10242D01*
X50028Y-10185D01*
X50028Y-10157D01*
X50000Y-10101D01*
X49943Y-10073D01*
X49859Y-10073D01*
X49803Y-10101D01*
X49578Y-10073D02*
X49465Y-10467D01*
X49353Y-10185D01*
X49240Y-10467D01*
X49128Y-10073D01*
X48903Y-10467D02*
X48903Y-10073D01*
X48903Y-9876D02*
X48931Y-9904D01*
X48903Y-9932D01*
X48875Y-9904D01*
X48903Y-9876D01*
X48903Y-9932D01*
X48706Y-10073D02*
X48481Y-10073D01*
X48622Y-9876D02*
X48622Y-10382D01*
X48594Y-10439D01*
X48537Y-10467D01*
X48481Y-10467D01*
X48031Y-10439D02*
X48087Y-10467D01*
X48200Y-10467D01*
X48256Y-10439D01*
X48284Y-10410D01*
X48312Y-10354D01*
X48312Y-10185D01*
X48284Y-10129D01*
X48256Y-10101D01*
X48200Y-10073D01*
X48087Y-10073D01*
X48031Y-10101D01*
X47778Y-10467D02*
X47778Y-9876D01*
X47525Y-10467D02*
X47525Y-10157D01*
X47553Y-10101D01*
X47609Y-10073D01*
X47694Y-10073D01*
X47750Y-10101D01*
X47778Y-10129D01*
X46794Y-10467D02*
X46794Y-10073D01*
X46794Y-10185D02*
X46766Y-10129D01*
X46738Y-10101D01*
X46681Y-10073D01*
X46625Y-10073D01*
X46175Y-10073D02*
X46175Y-10467D01*
X46316Y-9848D02*
X46456Y-10270D01*
X46091Y-10270D01*
M02*
