%FSLAX34Y34*%
G04 Gerber Fmt 3.4, Leading zero omitted, Abs format*
G04 (created by PCBNEW (2014-03-19 BZR 4756)-product) date Mon 28 Jul 2014 09:33:57 AM AKDT*
%MOIN*%
G01*
G70*
G90*
G04 APERTURE LIST*
%ADD10C,0.005906*%
%ADD11R,0.200787X0.094488*%
%ADD12R,0.094488X0.200787*%
%ADD13O,0.059300X0.118700*%
%ADD14O,0.118700X0.059300*%
%ADD15C,0.035000*%
%ADD16C,0.031496*%
%ADD17C,0.019685*%
%ADD18C,0.039370*%
G04 APERTURE END LIST*
G54D10*
G54D11*
X23500Y-24232D03*
X23500Y-20767D03*
G54D12*
X34507Y-10850D03*
X31042Y-10850D03*
X54316Y-34500D03*
X50851Y-34500D03*
G54D13*
X31800Y-29800D03*
X32800Y-29800D03*
X33800Y-29800D03*
G54D14*
X62100Y-30350D03*
X62100Y-29350D03*
X62100Y-28350D03*
G54D13*
X43200Y-11200D03*
X42200Y-11200D03*
X41200Y-11200D03*
G54D15*
X54550Y-29250D03*
X42200Y-33500D03*
X54250Y-28750D03*
X38500Y-31750D03*
X42750Y-20300D03*
X55450Y-26050D03*
X61200Y-26600D03*
X61200Y-25800D03*
X28000Y-30200D03*
X40600Y-14000D03*
X38400Y-14000D03*
X25200Y-15750D03*
X51100Y-19500D03*
X52300Y-19500D03*
X61500Y-13300D03*
X59100Y-13900D03*
X54600Y-11800D03*
X50000Y-11800D03*
X42800Y-28400D03*
X41300Y-28400D03*
X46250Y-19850D03*
X54984Y-32100D03*
X60000Y-26800D03*
X60900Y-17900D03*
X37000Y-25900D03*
X25000Y-20800D03*
X24967Y-24232D03*
X52100Y-23900D03*
X51100Y-20150D03*
X45380Y-18270D03*
X45750Y-17290D03*
X45965Y-16165D03*
X49484Y-30000D03*
X46250Y-18350D03*
X49400Y-32400D03*
X26350Y-27950D03*
X29550Y-14800D03*
X46550Y-17100D03*
X37950Y-34350D03*
X40150Y-34550D03*
X42975Y-18725D03*
X42100Y-30450D03*
X29100Y-32000D03*
X56350Y-21000D03*
X28050Y-17050D03*
X28900Y-17150D03*
X50000Y-34500D03*
X54300Y-33100D03*
X34475Y-12300D03*
X31075Y-12300D03*
X40100Y-17900D03*
X39000Y-18200D03*
X52200Y-20950D03*
X44200Y-26800D03*
X28850Y-26500D03*
X29050Y-13650D03*
X62700Y-17600D03*
X55400Y-24950D03*
X41000Y-13200D03*
X41000Y-18000D03*
X42800Y-29600D03*
X25200Y-19000D03*
X36150Y-27250D03*
X42250Y-31200D03*
X53550Y-19250D03*
X55100Y-21100D03*
X37800Y-15400D03*
X47100Y-14700D03*
G54D16*
X24967Y-20767D02*
X23500Y-20767D01*
X24967Y-20767D02*
X25000Y-20800D01*
X23500Y-24232D02*
X24967Y-24232D01*
G54D17*
X50851Y-34500D02*
X50000Y-34500D01*
X54316Y-33116D02*
X54300Y-33100D01*
X54316Y-34500D02*
X54316Y-33116D01*
X34507Y-12267D02*
X34475Y-12300D01*
X34507Y-10850D02*
X34507Y-12267D01*
X31042Y-12267D02*
X31075Y-12300D01*
X31042Y-10850D02*
X31042Y-12267D01*
G54D18*
X41000Y-13200D02*
X42600Y-14800D01*
X42600Y-16400D02*
X42600Y-14800D01*
X41000Y-18000D02*
X42600Y-16400D01*
G54D17*
X57700Y-30350D02*
X53550Y-26200D01*
X53550Y-26200D02*
X53550Y-19250D01*
X62100Y-30350D02*
X57700Y-30350D01*
X55100Y-21100D02*
X55050Y-21150D01*
X55050Y-21150D02*
X54300Y-21150D01*
X54300Y-21150D02*
X54000Y-21450D01*
X54000Y-21450D02*
X54000Y-26000D01*
X54000Y-26000D02*
X57350Y-29350D01*
X57350Y-29350D02*
X62100Y-29350D01*
M02*
