%FSLAX34Y34*%
G04 Gerber Fmt 3.4, Leading zero omitted, Abs format*
G04 (created by PCBNEW (2014-03-19 BZR 4756)-product) date Fri Feb  6 12:39:27 2015*
%MOIN*%
G01*
G70*
G90*
G04 APERTURE LIST*
%ADD10C,0.005906*%
%ADD11C,0.006890*%
%ADD12C,0.009843*%
%ADD13C,0.007874*%
%ADD14C,0.010827*%
%ADD15C,0.011811*%
%ADD16C,0.005000*%
%ADD17C,0.008000*%
%ADD18C,0.002600*%
%ADD19C,0.004000*%
%ADD20C,0.002000*%
%ADD21C,0.015000*%
%ADD22C,0.019685*%
G04 APERTURE END LIST*
G54D10*
G54D11*
X23885Y-32398D02*
X23872Y-32411D01*
X23832Y-32424D01*
X23806Y-32424D01*
X23767Y-32411D01*
X23740Y-32385D01*
X23727Y-32359D01*
X23714Y-32306D01*
X23714Y-32267D01*
X23727Y-32214D01*
X23740Y-32188D01*
X23767Y-32162D01*
X23806Y-32149D01*
X23832Y-32149D01*
X23872Y-32162D01*
X23885Y-32175D01*
X41985Y-27798D02*
X41972Y-27811D01*
X41932Y-27824D01*
X41906Y-27824D01*
X41867Y-27811D01*
X41840Y-27785D01*
X41827Y-27759D01*
X41814Y-27706D01*
X41814Y-27667D01*
X41827Y-27614D01*
X41840Y-27588D01*
X41867Y-27562D01*
X41906Y-27549D01*
X41932Y-27549D01*
X41972Y-27562D01*
X41985Y-27575D01*
X44085Y-21698D02*
X44072Y-21711D01*
X44032Y-21724D01*
X44006Y-21724D01*
X43967Y-21711D01*
X43940Y-21685D01*
X43927Y-21659D01*
X43914Y-21606D01*
X43914Y-21567D01*
X43927Y-21514D01*
X43940Y-21488D01*
X43967Y-21462D01*
X44006Y-21449D01*
X44032Y-21449D01*
X44072Y-21462D01*
X44085Y-21475D01*
X32085Y-29198D02*
X32072Y-29211D01*
X32032Y-29224D01*
X32006Y-29224D01*
X31967Y-29211D01*
X31940Y-29185D01*
X31927Y-29159D01*
X31914Y-29106D01*
X31914Y-29067D01*
X31927Y-29014D01*
X31940Y-28988D01*
X31967Y-28962D01*
X32006Y-28949D01*
X32032Y-28949D01*
X32072Y-28962D01*
X32085Y-28975D01*
X29685Y-25498D02*
X29672Y-25511D01*
X29632Y-25524D01*
X29606Y-25524D01*
X29567Y-25511D01*
X29540Y-25485D01*
X29527Y-25459D01*
X29514Y-25406D01*
X29514Y-25367D01*
X29527Y-25314D01*
X29540Y-25288D01*
X29567Y-25262D01*
X29606Y-25249D01*
X29632Y-25249D01*
X29672Y-25262D01*
X29685Y-25275D01*
X39885Y-23598D02*
X39872Y-23611D01*
X39832Y-23624D01*
X39806Y-23624D01*
X39767Y-23611D01*
X39740Y-23585D01*
X39727Y-23559D01*
X39714Y-23506D01*
X39714Y-23467D01*
X39727Y-23414D01*
X39740Y-23388D01*
X39767Y-23362D01*
X39806Y-23349D01*
X39832Y-23349D01*
X39872Y-23362D01*
X39885Y-23375D01*
X48585Y-28798D02*
X48572Y-28811D01*
X48532Y-28824D01*
X48506Y-28824D01*
X48467Y-28811D01*
X48440Y-28785D01*
X48427Y-28759D01*
X48414Y-28706D01*
X48414Y-28667D01*
X48427Y-28614D01*
X48440Y-28588D01*
X48467Y-28562D01*
X48506Y-28549D01*
X48532Y-28549D01*
X48572Y-28562D01*
X48585Y-28575D01*
X49985Y-24998D02*
X49972Y-25011D01*
X49932Y-25024D01*
X49906Y-25024D01*
X49867Y-25011D01*
X49840Y-24985D01*
X49827Y-24959D01*
X49814Y-24906D01*
X49814Y-24867D01*
X49827Y-24814D01*
X49840Y-24788D01*
X49867Y-24762D01*
X49906Y-24749D01*
X49932Y-24749D01*
X49972Y-24762D01*
X49985Y-24775D01*
G54D12*
X45484Y-30009D02*
X45484Y-29784D01*
X45878Y-29896D02*
X45484Y-29896D01*
X45878Y-29428D02*
X45690Y-29559D01*
X45878Y-29653D02*
X45484Y-29653D01*
X45484Y-29503D01*
X45503Y-29465D01*
X45521Y-29446D01*
X45559Y-29428D01*
X45615Y-29428D01*
X45653Y-29446D01*
X45671Y-29465D01*
X45690Y-29503D01*
X45690Y-29653D01*
X59378Y-30024D02*
X58984Y-30024D01*
X58984Y-29874D01*
X59003Y-29837D01*
X59021Y-29818D01*
X59059Y-29799D01*
X59115Y-29799D01*
X59153Y-29818D01*
X59171Y-29837D01*
X59190Y-29874D01*
X59190Y-30024D01*
X58984Y-29668D02*
X59378Y-29574D01*
X59096Y-29499D01*
X59378Y-29425D01*
X58984Y-29331D01*
X59378Y-28956D02*
X59190Y-29087D01*
X59378Y-29181D02*
X58984Y-29181D01*
X58984Y-29031D01*
X59003Y-28993D01*
X59021Y-28975D01*
X59059Y-28956D01*
X59115Y-28956D01*
X59153Y-28975D01*
X59171Y-28993D01*
X59190Y-29031D01*
X59190Y-29181D01*
G54D11*
X50877Y-12645D02*
X51008Y-12645D01*
X50850Y-12724D02*
X50942Y-12449D01*
X51034Y-12724D01*
X51126Y-12449D02*
X51126Y-12672D01*
X51139Y-12698D01*
X51152Y-12711D01*
X51178Y-12724D01*
X51231Y-12724D01*
X51257Y-12711D01*
X51270Y-12698D01*
X51283Y-12672D01*
X51283Y-12449D01*
X51388Y-12449D02*
X51572Y-12724D01*
X51572Y-12449D02*
X51388Y-12724D01*
X52005Y-12540D02*
X52005Y-12724D01*
X51940Y-12435D02*
X51874Y-12632D01*
X52045Y-12632D01*
X52202Y-12449D02*
X52228Y-12449D01*
X52254Y-12462D01*
X52268Y-12475D01*
X52281Y-12501D01*
X52294Y-12554D01*
X52294Y-12619D01*
X52281Y-12672D01*
X52268Y-12698D01*
X52254Y-12711D01*
X52228Y-12724D01*
X52202Y-12724D01*
X52176Y-12711D01*
X52163Y-12698D01*
X52150Y-12672D01*
X52136Y-12619D01*
X52136Y-12554D01*
X52150Y-12501D01*
X52163Y-12475D01*
X52176Y-12462D01*
X52202Y-12449D01*
X52464Y-12449D02*
X52491Y-12449D01*
X52517Y-12462D01*
X52530Y-12475D01*
X52543Y-12501D01*
X52556Y-12554D01*
X52556Y-12619D01*
X52543Y-12672D01*
X52530Y-12698D01*
X52517Y-12711D01*
X52491Y-12724D01*
X52464Y-12724D01*
X52438Y-12711D01*
X52425Y-12698D01*
X52412Y-12672D01*
X52399Y-12619D01*
X52399Y-12554D01*
X52412Y-12501D01*
X52425Y-12475D01*
X52438Y-12462D01*
X52464Y-12449D01*
X52635Y-12449D02*
X52727Y-12724D01*
X52819Y-12449D01*
X53121Y-12724D02*
X53121Y-12449D01*
X53252Y-12724D02*
X53252Y-12449D01*
X53409Y-12724D01*
X53409Y-12449D01*
X49962Y-14909D02*
X49949Y-14936D01*
X49949Y-14975D01*
X49962Y-15014D01*
X49988Y-15041D01*
X50014Y-15054D01*
X50067Y-15067D01*
X50106Y-15067D01*
X50159Y-15054D01*
X50185Y-15041D01*
X50211Y-15014D01*
X50224Y-14975D01*
X50224Y-14949D01*
X50211Y-14909D01*
X50198Y-14896D01*
X50106Y-14896D01*
X50106Y-14949D01*
X50224Y-14778D02*
X49949Y-14778D01*
X50224Y-14621D01*
X49949Y-14621D01*
X50224Y-14490D02*
X49949Y-14490D01*
X49949Y-14424D01*
X49962Y-14385D01*
X49988Y-14358D01*
X50014Y-14345D01*
X50067Y-14332D01*
X50106Y-14332D01*
X50159Y-14345D01*
X50185Y-14358D01*
X50211Y-14385D01*
X50224Y-14424D01*
X50224Y-14490D01*
X50040Y-16228D02*
X50224Y-16228D01*
X49935Y-16293D02*
X50132Y-16359D01*
X50132Y-16188D01*
X49949Y-16031D02*
X49949Y-16004D01*
X49962Y-15978D01*
X49975Y-15965D01*
X50001Y-15952D01*
X50054Y-15939D01*
X50119Y-15939D01*
X50172Y-15952D01*
X50198Y-15965D01*
X50211Y-15978D01*
X50224Y-16004D01*
X50224Y-16031D01*
X50211Y-16057D01*
X50198Y-16070D01*
X50172Y-16083D01*
X50119Y-16096D01*
X50054Y-16096D01*
X50001Y-16083D01*
X49975Y-16070D01*
X49962Y-16057D01*
X49949Y-16031D01*
X49949Y-15768D02*
X49949Y-15742D01*
X49962Y-15716D01*
X49975Y-15703D01*
X50001Y-15690D01*
X50054Y-15676D01*
X50119Y-15676D01*
X50172Y-15690D01*
X50198Y-15703D01*
X50211Y-15716D01*
X50224Y-15742D01*
X50224Y-15768D01*
X50211Y-15795D01*
X50198Y-15808D01*
X50172Y-15821D01*
X50119Y-15834D01*
X50054Y-15834D01*
X50001Y-15821D01*
X49975Y-15808D01*
X49962Y-15795D01*
X49949Y-15768D01*
X49949Y-15598D02*
X50224Y-15506D01*
X49949Y-15414D01*
G54D12*
X53578Y-30068D02*
X53184Y-30068D01*
X53371Y-30068D02*
X53371Y-29843D01*
X53578Y-29843D02*
X53184Y-29843D01*
X53184Y-29712D02*
X53578Y-29581D01*
X53184Y-29449D01*
X53578Y-29018D02*
X53184Y-29018D01*
X53465Y-28887D01*
X53184Y-28756D01*
X53578Y-28756D01*
X53184Y-28493D02*
X53184Y-28418D01*
X53203Y-28381D01*
X53240Y-28343D01*
X53315Y-28325D01*
X53446Y-28325D01*
X53521Y-28343D01*
X53559Y-28381D01*
X53578Y-28418D01*
X53578Y-28493D01*
X53559Y-28531D01*
X53521Y-28568D01*
X53446Y-28587D01*
X53315Y-28587D01*
X53240Y-28568D01*
X53203Y-28531D01*
X53184Y-28493D01*
X53578Y-28156D02*
X53184Y-28156D01*
X53578Y-27931D01*
X53184Y-27931D01*
G54D13*
X39011Y-31700D02*
G75*
G03X39011Y-31700I-111J0D01*
G74*
G01*
X39800Y-21350D02*
X39800Y-21850D01*
X43750Y-21550D02*
X43750Y-21875D01*
X52403Y-21500D02*
G75*
G03X52403Y-21500I-103J0D01*
G74*
G01*
G54D14*
X37735Y-19605D02*
X37838Y-20038D01*
X37921Y-19729D01*
X38003Y-20038D01*
X38107Y-19605D01*
X38251Y-19914D02*
X38457Y-19914D01*
X38210Y-20038D02*
X38354Y-19605D01*
X38498Y-20038D01*
X38890Y-20038D02*
X38746Y-19832D01*
X38643Y-20038D02*
X38643Y-19605D01*
X38808Y-19605D01*
X38849Y-19626D01*
X38870Y-19646D01*
X38890Y-19688D01*
X38890Y-19749D01*
X38870Y-19791D01*
X38849Y-19811D01*
X38808Y-19832D01*
X38643Y-19832D01*
X39076Y-20038D02*
X39076Y-19605D01*
X39323Y-20038D01*
X39323Y-19605D01*
X39529Y-20038D02*
X39529Y-19605D01*
X39736Y-20038D02*
X39736Y-19605D01*
X39983Y-20038D01*
X39983Y-19605D01*
X40416Y-19626D02*
X40375Y-19605D01*
X40313Y-19605D01*
X40251Y-19626D01*
X40210Y-19667D01*
X40189Y-19708D01*
X40169Y-19791D01*
X40169Y-19853D01*
X40189Y-19935D01*
X40210Y-19976D01*
X40251Y-20018D01*
X40313Y-20038D01*
X40354Y-20038D01*
X40416Y-20018D01*
X40437Y-19997D01*
X40437Y-19853D01*
X40354Y-19853D01*
X40622Y-19997D02*
X40643Y-20018D01*
X40622Y-20038D01*
X40602Y-20018D01*
X40622Y-19997D01*
X40622Y-20038D01*
X40622Y-19770D02*
X40643Y-19791D01*
X40622Y-19811D01*
X40602Y-19791D01*
X40622Y-19770D01*
X40622Y-19811D01*
X37014Y-20753D02*
X37014Y-20320D01*
X37014Y-20526D02*
X37261Y-20526D01*
X37261Y-20753D02*
X37261Y-20320D01*
X37467Y-20753D02*
X37467Y-20320D01*
X37900Y-20340D02*
X37859Y-20320D01*
X37797Y-20320D01*
X37735Y-20340D01*
X37694Y-20381D01*
X37673Y-20423D01*
X37653Y-20505D01*
X37653Y-20567D01*
X37673Y-20650D01*
X37694Y-20691D01*
X37735Y-20732D01*
X37797Y-20753D01*
X37838Y-20753D01*
X37900Y-20732D01*
X37921Y-20711D01*
X37921Y-20567D01*
X37838Y-20567D01*
X38107Y-20753D02*
X38107Y-20320D01*
X38107Y-20526D02*
X38354Y-20526D01*
X38354Y-20753D02*
X38354Y-20320D01*
X38828Y-20320D02*
X38973Y-20753D01*
X39117Y-20320D01*
X39344Y-20320D02*
X39426Y-20320D01*
X39468Y-20340D01*
X39509Y-20381D01*
X39529Y-20464D01*
X39529Y-20608D01*
X39509Y-20691D01*
X39468Y-20732D01*
X39426Y-20753D01*
X39344Y-20753D01*
X39303Y-20732D01*
X39261Y-20691D01*
X39241Y-20608D01*
X39241Y-20464D01*
X39261Y-20381D01*
X39303Y-20340D01*
X39344Y-20320D01*
X39921Y-20753D02*
X39715Y-20753D01*
X39715Y-20320D01*
X40004Y-20320D02*
X40251Y-20320D01*
X40128Y-20753D02*
X40128Y-20320D01*
X40375Y-20629D02*
X40581Y-20629D01*
X40334Y-20753D02*
X40478Y-20320D01*
X40622Y-20753D01*
X40994Y-20340D02*
X40952Y-20320D01*
X40891Y-20320D01*
X40829Y-20340D01*
X40787Y-20381D01*
X40767Y-20423D01*
X40746Y-20505D01*
X40746Y-20567D01*
X40767Y-20650D01*
X40787Y-20691D01*
X40829Y-20732D01*
X40891Y-20753D01*
X40932Y-20753D01*
X40994Y-20732D01*
X41014Y-20711D01*
X41014Y-20567D01*
X40932Y-20567D01*
X41200Y-20526D02*
X41344Y-20526D01*
X41406Y-20753D02*
X41200Y-20753D01*
X41200Y-20320D01*
X41406Y-20320D01*
G54D15*
X26425Y-32498D02*
X26706Y-32498D01*
X26368Y-32667D02*
X26565Y-32076D01*
X26762Y-32667D01*
X26959Y-32667D02*
X26959Y-32076D01*
X27296Y-32667D01*
X27296Y-32076D01*
X27493Y-32076D02*
X27831Y-32076D01*
X27662Y-32667D02*
X27662Y-32076D01*
X32850Y-32076D02*
X33187Y-32076D01*
X33018Y-32667D02*
X33018Y-32076D01*
X33328Y-32076D02*
X33721Y-32667D01*
X33721Y-32076D02*
X33328Y-32667D01*
X51501Y-32167D02*
X51304Y-31885D01*
X51164Y-32167D02*
X51164Y-31576D01*
X51389Y-31576D01*
X51445Y-31604D01*
X51473Y-31632D01*
X51501Y-31689D01*
X51501Y-31773D01*
X51473Y-31829D01*
X51445Y-31857D01*
X51389Y-31885D01*
X51164Y-31885D01*
X51698Y-31576D02*
X52092Y-32167D01*
X52092Y-31576D02*
X51698Y-32167D01*
X24137Y-13259D02*
X24475Y-13259D01*
X24306Y-13849D02*
X24306Y-13259D01*
X25093Y-13231D02*
X24587Y-13990D01*
X25628Y-13849D02*
X25431Y-13568D01*
X25290Y-13849D02*
X25290Y-13259D01*
X25515Y-13259D01*
X25571Y-13287D01*
X25600Y-13315D01*
X25628Y-13371D01*
X25628Y-13456D01*
X25600Y-13512D01*
X25571Y-13540D01*
X25515Y-13568D01*
X25290Y-13568D01*
X26331Y-13849D02*
X26331Y-13456D01*
X26331Y-13568D02*
X26359Y-13512D01*
X26387Y-13484D01*
X26443Y-13456D01*
X26499Y-13456D01*
X26949Y-13456D02*
X26949Y-13849D01*
X26809Y-13231D02*
X26668Y-13652D01*
X27034Y-13652D01*
X24264Y-14204D02*
X24264Y-14682D01*
X24292Y-14738D01*
X24320Y-14766D01*
X24376Y-14794D01*
X24489Y-14794D01*
X24545Y-14766D01*
X24573Y-14738D01*
X24601Y-14682D01*
X24601Y-14204D01*
X24854Y-14625D02*
X25135Y-14625D01*
X24798Y-14794D02*
X24995Y-14204D01*
X25192Y-14794D01*
X25585Y-14485D02*
X25389Y-14485D01*
X25389Y-14794D02*
X25389Y-14204D01*
X25670Y-14204D01*
X26654Y-14232D02*
X26598Y-14204D01*
X26513Y-14204D01*
X26429Y-14232D01*
X26373Y-14288D01*
X26345Y-14344D01*
X26317Y-14457D01*
X26317Y-14541D01*
X26345Y-14654D01*
X26373Y-14710D01*
X26429Y-14766D01*
X26513Y-14794D01*
X26570Y-14794D01*
X26654Y-14766D01*
X26682Y-14738D01*
X26682Y-14541D01*
X26570Y-14541D01*
X26935Y-14794D02*
X26935Y-14204D01*
X23884Y-15205D02*
X23912Y-15177D01*
X23968Y-15149D01*
X24109Y-15149D01*
X24165Y-15177D01*
X24193Y-15205D01*
X24222Y-15261D01*
X24222Y-15317D01*
X24193Y-15402D01*
X23856Y-15739D01*
X24222Y-15739D01*
X24587Y-15149D02*
X24643Y-15149D01*
X24700Y-15177D01*
X24728Y-15205D01*
X24756Y-15261D01*
X24784Y-15374D01*
X24784Y-15514D01*
X24756Y-15627D01*
X24728Y-15683D01*
X24700Y-15711D01*
X24643Y-15739D01*
X24587Y-15739D01*
X24531Y-15711D01*
X24503Y-15683D01*
X24475Y-15627D01*
X24447Y-15514D01*
X24447Y-15374D01*
X24475Y-15261D01*
X24503Y-15205D01*
X24531Y-15177D01*
X24587Y-15149D01*
X25346Y-15739D02*
X25009Y-15739D01*
X25178Y-15739D02*
X25178Y-15149D01*
X25121Y-15233D01*
X25065Y-15289D01*
X25009Y-15317D01*
X25881Y-15149D02*
X25600Y-15149D01*
X25571Y-15430D01*
X25600Y-15402D01*
X25656Y-15374D01*
X25796Y-15374D01*
X25853Y-15402D01*
X25881Y-15430D01*
X25909Y-15486D01*
X25909Y-15627D01*
X25881Y-15683D01*
X25853Y-15711D01*
X25796Y-15739D01*
X25656Y-15739D01*
X25600Y-15711D01*
X25571Y-15683D01*
X26162Y-15683D02*
X26190Y-15711D01*
X26162Y-15739D01*
X26134Y-15711D01*
X26162Y-15683D01*
X26162Y-15739D01*
X26556Y-15149D02*
X26612Y-15149D01*
X26668Y-15177D01*
X26696Y-15205D01*
X26724Y-15261D01*
X26752Y-15374D01*
X26752Y-15514D01*
X26724Y-15627D01*
X26696Y-15683D01*
X26668Y-15711D01*
X26612Y-15739D01*
X26556Y-15739D01*
X26499Y-15711D01*
X26471Y-15683D01*
X26443Y-15627D01*
X26415Y-15514D01*
X26415Y-15374D01*
X26443Y-15261D01*
X26471Y-15205D01*
X26499Y-15177D01*
X26556Y-15149D01*
X27315Y-15739D02*
X26977Y-15739D01*
X27146Y-15739D02*
X27146Y-15149D01*
X27090Y-15233D01*
X27034Y-15289D01*
X26977Y-15317D01*
X23786Y-16290D02*
X23786Y-16796D01*
X23758Y-16853D01*
X23701Y-16881D01*
X23673Y-16881D01*
X23786Y-16093D02*
X23758Y-16122D01*
X23786Y-16150D01*
X23814Y-16122D01*
X23786Y-16093D01*
X23786Y-16150D01*
X24151Y-16684D02*
X24095Y-16656D01*
X24067Y-16628D01*
X24039Y-16571D01*
X24039Y-16403D01*
X24067Y-16347D01*
X24095Y-16318D01*
X24151Y-16290D01*
X24236Y-16290D01*
X24292Y-16318D01*
X24320Y-16347D01*
X24348Y-16403D01*
X24348Y-16571D01*
X24320Y-16628D01*
X24292Y-16656D01*
X24236Y-16684D01*
X24151Y-16684D01*
X24601Y-16290D02*
X24601Y-16684D01*
X24601Y-16347D02*
X24629Y-16318D01*
X24686Y-16290D01*
X24770Y-16290D01*
X24826Y-16318D01*
X24854Y-16375D01*
X24854Y-16684D01*
X25585Y-16684D02*
X25585Y-16093D01*
X25642Y-16459D02*
X25810Y-16684D01*
X25810Y-16290D02*
X25585Y-16515D01*
X26148Y-16684D02*
X26092Y-16656D01*
X26064Y-16600D01*
X26064Y-16093D01*
X26598Y-16656D02*
X26542Y-16684D01*
X26429Y-16684D01*
X26373Y-16656D01*
X26345Y-16600D01*
X26345Y-16375D01*
X26373Y-16318D01*
X26429Y-16290D01*
X26542Y-16290D01*
X26598Y-16318D01*
X26626Y-16375D01*
X26626Y-16431D01*
X26345Y-16487D01*
X26879Y-16684D02*
X26879Y-16290D01*
X26879Y-16093D02*
X26851Y-16122D01*
X26879Y-16150D01*
X26907Y-16122D01*
X26879Y-16093D01*
X26879Y-16150D01*
X27160Y-16290D02*
X27160Y-16684D01*
X27160Y-16347D02*
X27188Y-16318D01*
X27245Y-16290D01*
X27329Y-16290D01*
X27385Y-16318D01*
X27413Y-16375D01*
X27413Y-16684D01*
G54D16*
X51350Y-21300D02*
X50850Y-21300D01*
X51350Y-20800D02*
X50860Y-20800D01*
X51350Y-20650D02*
X51350Y-21450D01*
X51350Y-21450D02*
X50850Y-21450D01*
X50850Y-21450D02*
X50850Y-20650D01*
X50850Y-20650D02*
X51350Y-20650D01*
X30060Y-29730D02*
X31040Y-29730D01*
X31040Y-28470D02*
X30060Y-28470D01*
X30060Y-28650D02*
X31040Y-28650D01*
X31040Y-29550D02*
X30060Y-29550D01*
X31040Y-29730D02*
X31040Y-28470D01*
X30060Y-28470D02*
X30060Y-29730D01*
X57000Y-28450D02*
X57000Y-27950D01*
X57500Y-28450D02*
X57500Y-27960D01*
X57650Y-28450D02*
X56850Y-28450D01*
X56850Y-28450D02*
X56850Y-27950D01*
X56850Y-27950D02*
X57650Y-27950D01*
X57650Y-27950D02*
X57650Y-28450D01*
X36190Y-21420D02*
X35210Y-21420D01*
X35210Y-22680D02*
X36190Y-22680D01*
X36190Y-22500D02*
X35210Y-22500D01*
X35210Y-21600D02*
X36190Y-21600D01*
X35210Y-21420D02*
X35210Y-22680D01*
X36190Y-22680D02*
X36190Y-21420D01*
X59190Y-25445D02*
X58210Y-25445D01*
X58210Y-26705D02*
X59190Y-26705D01*
X59190Y-26525D02*
X58210Y-26525D01*
X58210Y-25625D02*
X59190Y-25625D01*
X58210Y-25445D02*
X58210Y-26705D01*
X59190Y-26705D02*
X59190Y-25445D01*
X41740Y-22470D02*
X40760Y-22470D01*
X40760Y-23730D02*
X41740Y-23730D01*
X41740Y-23550D02*
X40760Y-23550D01*
X40760Y-22650D02*
X41740Y-22650D01*
X40760Y-22470D02*
X40760Y-23730D01*
X41740Y-23730D02*
X41740Y-22470D01*
X59590Y-14970D02*
X58610Y-14970D01*
X58610Y-16230D02*
X59590Y-16230D01*
X59590Y-16050D02*
X58610Y-16050D01*
X58610Y-15150D02*
X59590Y-15150D01*
X58610Y-14970D02*
X58610Y-16230D01*
X59590Y-16230D02*
X59590Y-14970D01*
X47460Y-23830D02*
X48440Y-23830D01*
X48440Y-22570D02*
X47460Y-22570D01*
X47460Y-22750D02*
X48440Y-22750D01*
X48440Y-23650D02*
X47460Y-23650D01*
X48440Y-23830D02*
X48440Y-22570D01*
X47460Y-22570D02*
X47460Y-23830D01*
X36850Y-32850D02*
X36850Y-32350D01*
X37350Y-32850D02*
X37350Y-32360D01*
X37500Y-32850D02*
X36700Y-32850D01*
X36700Y-32850D02*
X36700Y-32350D01*
X36700Y-32350D02*
X37500Y-32350D01*
X37500Y-32350D02*
X37500Y-32850D01*
X32920Y-22110D02*
X32920Y-23090D01*
X34180Y-23090D02*
X34180Y-22110D01*
X34000Y-22110D02*
X34000Y-23090D01*
X33100Y-23090D02*
X33100Y-22110D01*
X32920Y-23090D02*
X34180Y-23090D01*
X34180Y-22110D02*
X32920Y-22110D01*
X37300Y-25150D02*
X36800Y-25150D01*
X37300Y-24650D02*
X36810Y-24650D01*
X37300Y-24500D02*
X37300Y-25300D01*
X37300Y-25300D02*
X36800Y-25300D01*
X36800Y-25300D02*
X36800Y-24500D01*
X36800Y-24500D02*
X37300Y-24500D01*
X36710Y-28430D02*
X37690Y-28430D01*
X37690Y-27170D02*
X36710Y-27170D01*
X36710Y-27350D02*
X37690Y-27350D01*
X37690Y-28250D02*
X36710Y-28250D01*
X37690Y-28430D02*
X37690Y-27170D01*
X36710Y-27170D02*
X36710Y-28430D01*
X44750Y-24750D02*
X44750Y-24250D01*
X45250Y-24750D02*
X45250Y-24260D01*
X45400Y-24750D02*
X44600Y-24750D01*
X44600Y-24750D02*
X44600Y-24250D01*
X44600Y-24250D02*
X45400Y-24250D01*
X45400Y-24250D02*
X45400Y-24750D01*
X44000Y-17540D02*
X44000Y-17040D01*
X44500Y-17540D02*
X44500Y-17050D01*
X44650Y-17540D02*
X43850Y-17540D01*
X43850Y-17540D02*
X43850Y-17040D01*
X43850Y-17040D02*
X44650Y-17040D01*
X44650Y-17040D02*
X44650Y-17540D01*
X44030Y-18520D02*
X44030Y-18020D01*
X44530Y-18520D02*
X44530Y-18030D01*
X44680Y-18520D02*
X43880Y-18520D01*
X43880Y-18520D02*
X43880Y-18020D01*
X43880Y-18020D02*
X44680Y-18020D01*
X44680Y-18020D02*
X44680Y-18520D01*
X45145Y-16655D02*
X45145Y-15675D01*
X43885Y-15675D02*
X43885Y-16655D01*
X44065Y-16655D02*
X44065Y-15675D01*
X44965Y-15675D02*
X44965Y-16655D01*
X45145Y-15675D02*
X43885Y-15675D01*
X43885Y-16655D02*
X45145Y-16655D01*
X46920Y-19360D02*
X46920Y-20340D01*
X48180Y-20340D02*
X48180Y-19360D01*
X48000Y-19360D02*
X48000Y-20340D01*
X47100Y-20340D02*
X47100Y-19360D01*
X46920Y-20340D02*
X48180Y-20340D01*
X48180Y-19360D02*
X46920Y-19360D01*
X46920Y-17860D02*
X46920Y-18840D01*
X48180Y-18840D02*
X48180Y-17860D01*
X48000Y-17860D02*
X48000Y-18840D01*
X47100Y-18840D02*
X47100Y-17860D01*
X46920Y-18840D02*
X48180Y-18840D01*
X48180Y-17860D02*
X46920Y-17860D01*
G54D10*
X33600Y-28600D02*
X32350Y-28600D01*
X43500Y-27200D02*
X42250Y-27200D01*
X49950Y-25300D02*
X49950Y-26550D01*
X48550Y-28300D02*
X48550Y-27050D01*
G54D16*
X33080Y-25640D02*
X33080Y-24660D01*
X31820Y-24660D02*
X31820Y-25640D01*
X32000Y-25640D02*
X32000Y-24660D01*
X32900Y-24660D02*
X32900Y-25640D01*
X33080Y-24660D02*
X31820Y-24660D01*
X31820Y-25640D02*
X33080Y-25640D01*
X37590Y-22470D02*
X36610Y-22470D01*
X36610Y-23730D02*
X37590Y-23730D01*
X37590Y-23550D02*
X36610Y-23550D01*
X36610Y-22650D02*
X37590Y-22650D01*
X36610Y-22470D02*
X36610Y-23730D01*
X37590Y-23730D02*
X37590Y-22470D01*
X43240Y-21470D02*
X42260Y-21470D01*
X42260Y-22730D02*
X43240Y-22730D01*
X43240Y-22550D02*
X42260Y-22550D01*
X42260Y-21650D02*
X43240Y-21650D01*
X42260Y-21470D02*
X42260Y-22730D01*
X43240Y-22730D02*
X43240Y-21470D01*
X46840Y-22570D02*
X45860Y-22570D01*
X45860Y-23830D02*
X46840Y-23830D01*
X46840Y-23650D02*
X45860Y-23650D01*
X45860Y-22750D02*
X46840Y-22750D01*
X45860Y-22570D02*
X45860Y-23830D01*
X46840Y-23830D02*
X46840Y-22570D01*
X40760Y-25480D02*
X41740Y-25480D01*
X41740Y-24220D02*
X40760Y-24220D01*
X40760Y-24400D02*
X41740Y-24400D01*
X41740Y-25300D02*
X40760Y-25300D01*
X41740Y-25480D02*
X41740Y-24220D01*
X40760Y-24220D02*
X40760Y-25480D01*
X33950Y-26850D02*
X34450Y-26850D01*
X33950Y-27350D02*
X34440Y-27350D01*
X33950Y-27500D02*
X33950Y-26700D01*
X33950Y-26700D02*
X34450Y-26700D01*
X34450Y-26700D02*
X34450Y-27500D01*
X34450Y-27500D02*
X33950Y-27500D01*
X43900Y-25450D02*
X44400Y-25450D01*
X43900Y-25950D02*
X44390Y-25950D01*
X43900Y-26100D02*
X43900Y-25300D01*
X43900Y-25300D02*
X44400Y-25300D01*
X44400Y-25300D02*
X44400Y-26100D01*
X44400Y-26100D02*
X43900Y-26100D01*
X39850Y-34450D02*
X40350Y-34450D01*
X39850Y-34950D02*
X40340Y-34950D01*
X39850Y-35100D02*
X39850Y-34300D01*
X39850Y-34300D02*
X40350Y-34300D01*
X40350Y-34300D02*
X40350Y-35100D01*
X40350Y-35100D02*
X39850Y-35100D01*
X53880Y-21775D02*
X52320Y-21775D01*
X52320Y-21775D02*
X52320Y-23675D01*
X52320Y-23675D02*
X53880Y-23675D01*
X53880Y-23675D02*
X53880Y-21775D01*
X53880Y-21975D02*
X54310Y-21975D01*
X53880Y-22475D02*
X54310Y-22475D01*
X53880Y-22975D02*
X54310Y-22975D01*
X54310Y-23475D02*
X53880Y-23475D01*
X52320Y-23475D02*
X51890Y-23475D01*
X51890Y-22975D02*
X52320Y-22975D01*
X51890Y-22475D02*
X52320Y-22475D01*
X51890Y-21975D02*
X52320Y-21975D01*
X52796Y-22065D02*
G75*
G03X52796Y-22065I-186J0D01*
G74*
G01*
X42100Y-18100D02*
X42600Y-18100D01*
X42100Y-18600D02*
X42590Y-18600D01*
X42100Y-18750D02*
X42100Y-17950D01*
X42100Y-17950D02*
X42600Y-17950D01*
X42600Y-17950D02*
X42600Y-18750D01*
X42600Y-18750D02*
X42100Y-18750D01*
G54D10*
X23850Y-31900D02*
X23850Y-30650D01*
G54D16*
X38800Y-31350D02*
X38850Y-31350D01*
X38850Y-31350D02*
X38850Y-29250D01*
X37350Y-29250D02*
X37350Y-31350D01*
X37350Y-31350D02*
X38800Y-31350D01*
X37900Y-31350D02*
X37900Y-31150D01*
X37900Y-31150D02*
X38300Y-31150D01*
X38300Y-31150D02*
X38300Y-31350D01*
X37350Y-29250D02*
X38850Y-29250D01*
X47750Y-16900D02*
X47750Y-17400D01*
X47250Y-16900D02*
X47250Y-17390D01*
X47100Y-16900D02*
X47900Y-16900D01*
X47900Y-16900D02*
X47900Y-17400D01*
X47900Y-17400D02*
X47100Y-17400D01*
X47100Y-17400D02*
X47100Y-16900D01*
X46200Y-13900D02*
X45700Y-13900D01*
X46200Y-13400D02*
X45710Y-13400D01*
X46200Y-13250D02*
X46200Y-14050D01*
X46200Y-14050D02*
X45700Y-14050D01*
X45700Y-14050D02*
X45700Y-13250D01*
X45700Y-13250D02*
X46200Y-13250D01*
G54D10*
X48362Y-16359D02*
X48362Y-16555D01*
X56237Y-16359D02*
X56237Y-16555D01*
X54268Y-11044D02*
X56237Y-11044D01*
X56237Y-11044D02*
X56237Y-11240D01*
X56237Y-13406D02*
X56237Y-12225D01*
X56237Y-15374D02*
X56237Y-14390D01*
X48362Y-13800D02*
X48362Y-15374D01*
X48362Y-12225D02*
X48362Y-12815D01*
X48362Y-11044D02*
X48362Y-11240D01*
X48362Y-11044D02*
X54268Y-11044D01*
X56237Y-16555D02*
X48362Y-16555D01*
X48559Y-10256D02*
G75*
G03X48559Y-10256I-196J0D01*
G74*
G01*
G54D17*
X44900Y-14100D02*
X44900Y-14800D01*
X44900Y-14800D02*
X44650Y-15050D01*
X44650Y-15050D02*
X43250Y-15050D01*
X43250Y-15050D02*
X43000Y-14800D01*
X43000Y-14800D02*
X43000Y-13400D01*
X43000Y-13400D02*
X43250Y-13150D01*
X43250Y-13150D02*
X44650Y-13150D01*
X44650Y-13150D02*
X44900Y-13400D01*
X44900Y-13400D02*
X44900Y-14100D01*
G54D16*
X62750Y-15950D02*
X60250Y-15950D01*
X62750Y-14250D02*
X60250Y-14250D01*
X62750Y-14000D02*
X62750Y-16200D01*
X62750Y-16200D02*
X60250Y-16200D01*
X60250Y-16200D02*
X60250Y-14000D01*
X60250Y-14000D02*
X62750Y-14000D01*
X37930Y-34390D02*
X37930Y-33410D01*
X36670Y-33410D02*
X36670Y-34390D01*
X36850Y-34390D02*
X36850Y-33410D01*
X37750Y-33410D02*
X37750Y-34390D01*
X37930Y-33410D02*
X36670Y-33410D01*
X36670Y-34390D02*
X37930Y-34390D01*
X41090Y-28670D02*
X40110Y-28670D01*
X40110Y-29930D02*
X41090Y-29930D01*
X41090Y-29750D02*
X40110Y-29750D01*
X40110Y-28850D02*
X41090Y-28850D01*
X40110Y-28670D02*
X40110Y-29930D01*
X41090Y-29930D02*
X41090Y-28670D01*
X35210Y-30730D02*
X36190Y-30730D01*
X36190Y-29470D02*
X35210Y-29470D01*
X35210Y-29650D02*
X36190Y-29650D01*
X36190Y-30550D02*
X35210Y-30550D01*
X36190Y-30730D02*
X36190Y-29470D01*
X35210Y-29470D02*
X35210Y-30730D01*
X40350Y-33250D02*
X39850Y-33250D01*
X40350Y-32750D02*
X39860Y-32750D01*
X40350Y-32600D02*
X40350Y-33400D01*
X40350Y-33400D02*
X39850Y-33400D01*
X39850Y-33400D02*
X39850Y-32600D01*
X39850Y-32600D02*
X40350Y-32600D01*
G54D18*
X40282Y-15696D02*
X40154Y-15696D01*
X40154Y-15696D02*
X40154Y-15893D01*
X40282Y-15893D02*
X40154Y-15893D01*
X40282Y-15696D02*
X40282Y-15893D01*
X40527Y-15696D02*
X40468Y-15696D01*
X40468Y-15696D02*
X40468Y-15795D01*
X40527Y-15795D02*
X40468Y-15795D01*
X40527Y-15696D02*
X40527Y-15795D01*
X40332Y-15696D02*
X40273Y-15696D01*
X40273Y-15696D02*
X40273Y-15795D01*
X40332Y-15795D02*
X40273Y-15795D01*
X40332Y-15696D02*
X40332Y-15795D01*
X40478Y-15696D02*
X40322Y-15696D01*
X40322Y-15696D02*
X40322Y-15765D01*
X40478Y-15765D02*
X40322Y-15765D01*
X40478Y-15696D02*
X40478Y-15765D01*
X40282Y-15107D02*
X40154Y-15107D01*
X40154Y-15107D02*
X40154Y-15304D01*
X40282Y-15304D02*
X40154Y-15304D01*
X40282Y-15107D02*
X40282Y-15304D01*
X40646Y-15107D02*
X40518Y-15107D01*
X40518Y-15107D02*
X40518Y-15304D01*
X40646Y-15304D02*
X40518Y-15304D01*
X40646Y-15107D02*
X40646Y-15304D01*
X40332Y-15205D02*
X40273Y-15205D01*
X40273Y-15205D02*
X40273Y-15304D01*
X40332Y-15304D02*
X40273Y-15304D01*
X40332Y-15205D02*
X40332Y-15304D01*
X40527Y-15205D02*
X40468Y-15205D01*
X40468Y-15205D02*
X40468Y-15304D01*
X40527Y-15304D02*
X40468Y-15304D01*
X40527Y-15205D02*
X40527Y-15304D01*
X40478Y-15235D02*
X40322Y-15235D01*
X40322Y-15235D02*
X40322Y-15304D01*
X40478Y-15304D02*
X40322Y-15304D01*
X40478Y-15235D02*
X40478Y-15304D01*
X40439Y-15500D02*
X40361Y-15500D01*
X40361Y-15500D02*
X40361Y-15578D01*
X40439Y-15578D02*
X40361Y-15578D01*
X40439Y-15500D02*
X40439Y-15578D01*
X40636Y-15696D02*
X40518Y-15696D01*
X40518Y-15696D02*
X40518Y-15814D01*
X40636Y-15814D02*
X40518Y-15814D01*
X40636Y-15696D02*
X40636Y-15814D01*
X40646Y-15864D02*
X40557Y-15864D01*
X40557Y-15864D02*
X40557Y-15893D01*
X40646Y-15893D02*
X40557Y-15893D01*
X40646Y-15864D02*
X40646Y-15893D01*
G54D19*
X40174Y-15706D02*
X40174Y-15294D01*
X40626Y-15304D02*
X40626Y-15864D01*
G54D20*
X40605Y-15834D02*
G75*
G03X40605Y-15834I-28J0D01*
G74*
G01*
G54D19*
X40537Y-15893D02*
G75*
G03X40263Y-15893I-137J0D01*
G74*
G01*
X40263Y-15107D02*
G75*
G03X40537Y-15107I137J0D01*
G74*
G01*
G54D18*
X38982Y-33196D02*
X38854Y-33196D01*
X38854Y-33196D02*
X38854Y-33393D01*
X38982Y-33393D02*
X38854Y-33393D01*
X38982Y-33196D02*
X38982Y-33393D01*
X39227Y-33196D02*
X39168Y-33196D01*
X39168Y-33196D02*
X39168Y-33295D01*
X39227Y-33295D02*
X39168Y-33295D01*
X39227Y-33196D02*
X39227Y-33295D01*
X39032Y-33196D02*
X38973Y-33196D01*
X38973Y-33196D02*
X38973Y-33295D01*
X39032Y-33295D02*
X38973Y-33295D01*
X39032Y-33196D02*
X39032Y-33295D01*
X39178Y-33196D02*
X39022Y-33196D01*
X39022Y-33196D02*
X39022Y-33265D01*
X39178Y-33265D02*
X39022Y-33265D01*
X39178Y-33196D02*
X39178Y-33265D01*
X38982Y-32607D02*
X38854Y-32607D01*
X38854Y-32607D02*
X38854Y-32804D01*
X38982Y-32804D02*
X38854Y-32804D01*
X38982Y-32607D02*
X38982Y-32804D01*
X39346Y-32607D02*
X39218Y-32607D01*
X39218Y-32607D02*
X39218Y-32804D01*
X39346Y-32804D02*
X39218Y-32804D01*
X39346Y-32607D02*
X39346Y-32804D01*
X39032Y-32705D02*
X38973Y-32705D01*
X38973Y-32705D02*
X38973Y-32804D01*
X39032Y-32804D02*
X38973Y-32804D01*
X39032Y-32705D02*
X39032Y-32804D01*
X39227Y-32705D02*
X39168Y-32705D01*
X39168Y-32705D02*
X39168Y-32804D01*
X39227Y-32804D02*
X39168Y-32804D01*
X39227Y-32705D02*
X39227Y-32804D01*
X39178Y-32735D02*
X39022Y-32735D01*
X39022Y-32735D02*
X39022Y-32804D01*
X39178Y-32804D02*
X39022Y-32804D01*
X39178Y-32735D02*
X39178Y-32804D01*
X39139Y-33000D02*
X39061Y-33000D01*
X39061Y-33000D02*
X39061Y-33078D01*
X39139Y-33078D02*
X39061Y-33078D01*
X39139Y-33000D02*
X39139Y-33078D01*
X39336Y-33196D02*
X39218Y-33196D01*
X39218Y-33196D02*
X39218Y-33314D01*
X39336Y-33314D02*
X39218Y-33314D01*
X39336Y-33196D02*
X39336Y-33314D01*
X39346Y-33364D02*
X39257Y-33364D01*
X39257Y-33364D02*
X39257Y-33393D01*
X39346Y-33393D02*
X39257Y-33393D01*
X39346Y-33364D02*
X39346Y-33393D01*
G54D19*
X38874Y-33206D02*
X38874Y-32794D01*
X39326Y-32804D02*
X39326Y-33364D01*
G54D20*
X39305Y-33334D02*
G75*
G03X39305Y-33334I-28J0D01*
G74*
G01*
G54D19*
X39237Y-33393D02*
G75*
G03X38963Y-33393I-137J0D01*
G74*
G01*
X38963Y-32607D02*
G75*
G03X39237Y-32607I137J0D01*
G74*
G01*
G54D16*
X40150Y-16650D02*
X40650Y-16650D01*
X40150Y-17150D02*
X40640Y-17150D01*
X40150Y-17300D02*
X40150Y-16500D01*
X40150Y-16500D02*
X40650Y-16500D01*
X40650Y-16500D02*
X40650Y-17300D01*
X40650Y-17300D02*
X40150Y-17300D01*
X54900Y-19900D02*
X54400Y-19900D01*
X54900Y-19400D02*
X54410Y-19400D01*
X54900Y-19250D02*
X54900Y-20050D01*
X54900Y-20050D02*
X54400Y-20050D01*
X54400Y-20050D02*
X54400Y-19250D01*
X54400Y-19250D02*
X54900Y-19250D01*
X55650Y-20600D02*
X55650Y-20100D01*
X56150Y-20600D02*
X56150Y-20110D01*
X56300Y-20600D02*
X55500Y-20600D01*
X55500Y-20600D02*
X55500Y-20100D01*
X55500Y-20100D02*
X56300Y-20100D01*
X56300Y-20100D02*
X56300Y-20600D01*
X39350Y-34950D02*
X38850Y-34950D01*
X39350Y-34450D02*
X38860Y-34450D01*
X39350Y-34300D02*
X39350Y-35100D01*
X39350Y-35100D02*
X38850Y-35100D01*
X38850Y-35100D02*
X38850Y-34300D01*
X38850Y-34300D02*
X39350Y-34300D01*
X33160Y-12980D02*
X34140Y-12980D01*
X34140Y-11720D02*
X33160Y-11720D01*
X33160Y-11900D02*
X34140Y-11900D01*
X34140Y-12800D02*
X33160Y-12800D01*
X34140Y-12980D02*
X34140Y-11720D01*
X33160Y-11720D02*
X33160Y-12980D01*
X30850Y-14750D02*
X30350Y-14750D01*
X30850Y-14250D02*
X30360Y-14250D01*
X30850Y-14100D02*
X30850Y-14900D01*
X30850Y-14900D02*
X30350Y-14900D01*
X30350Y-14900D02*
X30350Y-14100D01*
X30350Y-14100D02*
X30850Y-14100D01*
X31150Y-11100D02*
X31650Y-11100D01*
X31150Y-11600D02*
X31640Y-11600D01*
X31150Y-11750D02*
X31150Y-10950D01*
X31150Y-10950D02*
X31650Y-10950D01*
X31650Y-10950D02*
X31650Y-11750D01*
X31650Y-11750D02*
X31150Y-11750D01*
X32100Y-12500D02*
X32600Y-12500D01*
X32100Y-13000D02*
X32590Y-13000D01*
X32100Y-13150D02*
X32100Y-12350D01*
X32100Y-12350D02*
X32600Y-12350D01*
X32600Y-12350D02*
X32600Y-13150D01*
X32600Y-13150D02*
X32100Y-13150D01*
X34050Y-14450D02*
X34550Y-14450D01*
X34050Y-14950D02*
X34540Y-14950D01*
X34050Y-15100D02*
X34050Y-14300D01*
X34050Y-14300D02*
X34550Y-14300D01*
X34550Y-14300D02*
X34550Y-15100D01*
X34550Y-15100D02*
X34050Y-15100D01*
X31460Y-22230D02*
X32440Y-22230D01*
X32440Y-20970D02*
X31460Y-20970D01*
X31460Y-21150D02*
X32440Y-21150D01*
X32440Y-22050D02*
X31460Y-22050D01*
X32440Y-22230D02*
X32440Y-20970D01*
X31460Y-20970D02*
X31460Y-22230D01*
X39750Y-13350D02*
X40250Y-13350D01*
X39750Y-13850D02*
X40240Y-13850D01*
X39750Y-14000D02*
X39750Y-13200D01*
X39750Y-13200D02*
X40250Y-13200D01*
X40250Y-13200D02*
X40250Y-14000D01*
X40250Y-14000D02*
X39750Y-14000D01*
X38750Y-13350D02*
X39250Y-13350D01*
X38750Y-13850D02*
X39240Y-13850D01*
X38750Y-14000D02*
X38750Y-13200D01*
X38750Y-13200D02*
X39250Y-13200D01*
X39250Y-13200D02*
X39250Y-14000D01*
X39250Y-14000D02*
X38750Y-14000D01*
G54D17*
X40850Y-11950D02*
X40150Y-11950D01*
X40150Y-11950D02*
X39900Y-11700D01*
X39900Y-11700D02*
X39900Y-10300D01*
X39900Y-10300D02*
X40150Y-10050D01*
X40150Y-10050D02*
X41550Y-10050D01*
X41550Y-10050D02*
X41800Y-10300D01*
X41800Y-10300D02*
X41800Y-11700D01*
X41800Y-11700D02*
X41550Y-11950D01*
X41550Y-11950D02*
X40850Y-11950D01*
G54D16*
X31860Y-13765D02*
X31660Y-13765D01*
X31660Y-13765D02*
X31660Y-14235D01*
X31860Y-13765D02*
X31860Y-14235D01*
X32450Y-13765D02*
X32450Y-14235D01*
X32250Y-13765D02*
X32250Y-14235D01*
X32450Y-13765D02*
X32250Y-13765D01*
X33040Y-13765D02*
X32840Y-13765D01*
X32840Y-13765D02*
X32840Y-14235D01*
X33040Y-13765D02*
X33040Y-14235D01*
X32705Y-15460D02*
X31995Y-15460D01*
X31995Y-15460D02*
X31995Y-15265D01*
X32705Y-15460D02*
X32705Y-15265D01*
X33255Y-14235D02*
X33255Y-15265D01*
X33255Y-15265D02*
X31445Y-15265D01*
X31445Y-15265D02*
X31445Y-14235D01*
X31445Y-14235D02*
X33255Y-14235D01*
X30350Y-12400D02*
X30350Y-13600D01*
X30350Y-13600D02*
X30050Y-13600D01*
X30050Y-13600D02*
X30050Y-12400D01*
X30050Y-12400D02*
X30350Y-12400D01*
G54D21*
X30600Y-24177D02*
X30994Y-23843D01*
X30994Y-23843D02*
X30206Y-23843D01*
X30206Y-23843D02*
X30600Y-24177D01*
X30600Y-24177D02*
X30206Y-24177D01*
X30600Y-24177D02*
X30994Y-24177D01*
X29911Y-23094D02*
X29970Y-23094D01*
X29911Y-24768D02*
X29950Y-24768D01*
X29911Y-24906D02*
X29950Y-24906D01*
X31289Y-23094D02*
X31250Y-23094D01*
X31289Y-24768D02*
X31250Y-24768D01*
X31289Y-24906D02*
X31250Y-24906D01*
X29813Y-24768D02*
X29891Y-24768D01*
X31387Y-24768D02*
X31309Y-24768D01*
X29814Y-24904D02*
X29892Y-24904D01*
X29814Y-23092D02*
X29814Y-24904D01*
X29814Y-23092D02*
X29892Y-23092D01*
X31387Y-23094D02*
X31309Y-23094D01*
X31387Y-23094D02*
X31387Y-24906D01*
X31387Y-24906D02*
X31309Y-24906D01*
G54D16*
X55700Y-27950D02*
X55700Y-28450D01*
X55200Y-27950D02*
X55200Y-28440D01*
X55050Y-27950D02*
X55850Y-27950D01*
X55850Y-27950D02*
X55850Y-28450D01*
X55850Y-28450D02*
X55050Y-28450D01*
X55050Y-28450D02*
X55050Y-27950D01*
X55720Y-17100D02*
G75*
G03X55720Y-17100I-70J0D01*
G74*
G01*
X55000Y-18250D02*
X55600Y-18250D01*
X55600Y-18250D02*
X55600Y-17150D01*
X55600Y-17150D02*
X55000Y-17150D01*
X54400Y-17150D02*
X53800Y-17150D01*
X53800Y-17150D02*
X53800Y-18250D01*
X53800Y-18250D02*
X54400Y-18250D01*
X55220Y-19700D02*
G75*
G03X55220Y-19700I-70J0D01*
G74*
G01*
X55800Y-18550D02*
X55200Y-18550D01*
X55200Y-18550D02*
X55200Y-19650D01*
X55200Y-19650D02*
X55800Y-19650D01*
X56400Y-19650D02*
X57000Y-19650D01*
X57000Y-19650D02*
X57000Y-18550D01*
X57000Y-18550D02*
X56400Y-18550D01*
X54470Y-20400D02*
G75*
G03X54470Y-20400I-70J0D01*
G74*
G01*
X53750Y-21550D02*
X54350Y-21550D01*
X54350Y-21550D02*
X54350Y-20450D01*
X54350Y-20450D02*
X53750Y-20450D01*
X53150Y-20450D02*
X52550Y-20450D01*
X52550Y-20450D02*
X52550Y-21550D01*
X52550Y-21550D02*
X53150Y-21550D01*
X50520Y-17250D02*
G75*
G03X50520Y-17250I-70J0D01*
G74*
G01*
X51600Y-17900D02*
X51600Y-17300D01*
X51600Y-17300D02*
X50500Y-17300D01*
X50500Y-17300D02*
X50500Y-17900D01*
X50500Y-18500D02*
X50500Y-19100D01*
X50500Y-19100D02*
X51600Y-19100D01*
X51600Y-19100D02*
X51600Y-18500D01*
X51920Y-17250D02*
G75*
G03X51920Y-17250I-70J0D01*
G74*
G01*
X53000Y-17900D02*
X53000Y-17300D01*
X53000Y-17300D02*
X51900Y-17300D01*
X51900Y-17300D02*
X51900Y-17900D01*
X51900Y-18500D02*
X51900Y-19100D01*
X51900Y-19100D02*
X53000Y-19100D01*
X53000Y-19100D02*
X53000Y-18500D01*
G54D10*
X38450Y-16800D02*
X39700Y-16800D01*
G54D16*
X46070Y-26950D02*
G75*
G03X46070Y-26950I-70J0D01*
G74*
G01*
X44850Y-26300D02*
X44850Y-26900D01*
X44850Y-26900D02*
X45950Y-26900D01*
X45950Y-26900D02*
X45950Y-26300D01*
X45950Y-25700D02*
X45950Y-25100D01*
X45950Y-25100D02*
X44850Y-25100D01*
X44850Y-25100D02*
X44850Y-25700D01*
X36570Y-26100D02*
G75*
G03X36570Y-26100I-70J0D01*
G74*
G01*
X35350Y-25450D02*
X35350Y-26050D01*
X35350Y-26050D02*
X36450Y-26050D01*
X36450Y-26050D02*
X36450Y-25450D01*
X36450Y-24850D02*
X36450Y-24250D01*
X36450Y-24250D02*
X35350Y-24250D01*
X35350Y-24250D02*
X35350Y-24850D01*
X36370Y-28750D02*
G75*
G03X36370Y-28750I-70J0D01*
G74*
G01*
X35150Y-28100D02*
X35150Y-28700D01*
X35150Y-28700D02*
X36250Y-28700D01*
X36250Y-28700D02*
X36250Y-28100D01*
X36250Y-27500D02*
X36250Y-26900D01*
X36250Y-26900D02*
X35150Y-26900D01*
X35150Y-26900D02*
X35150Y-27500D01*
X31870Y-10100D02*
G75*
G03X31870Y-10100I-70J0D01*
G74*
G01*
X32950Y-10750D02*
X32950Y-10150D01*
X32950Y-10150D02*
X31850Y-10150D01*
X31850Y-10150D02*
X31850Y-10750D01*
X31850Y-11350D02*
X31850Y-11950D01*
X31850Y-11950D02*
X32950Y-11950D01*
X32950Y-11950D02*
X32950Y-11350D01*
G54D10*
X38700Y-26023D02*
X38306Y-26357D01*
X38306Y-26357D02*
X39094Y-26357D01*
X39094Y-26357D02*
X38700Y-26023D01*
X38700Y-26023D02*
X39094Y-26023D01*
X38700Y-26023D02*
X38306Y-26023D01*
X39389Y-27106D02*
X39330Y-27106D01*
X39389Y-25432D02*
X39350Y-25432D01*
X39389Y-25294D02*
X39350Y-25294D01*
X38011Y-27106D02*
X38050Y-27106D01*
X38011Y-25432D02*
X38050Y-25432D01*
X38011Y-25294D02*
X38050Y-25294D01*
X39487Y-25432D02*
X39409Y-25432D01*
X37913Y-25432D02*
X37991Y-25432D01*
X39486Y-25296D02*
X39408Y-25296D01*
X39486Y-27108D02*
X39486Y-25296D01*
X39486Y-27108D02*
X39408Y-27108D01*
X37913Y-27106D02*
X37991Y-27106D01*
X37913Y-27106D02*
X37913Y-25294D01*
X37913Y-25294D02*
X37991Y-25294D01*
X50550Y-32000D02*
X50650Y-32000D01*
X50650Y-32000D02*
X50650Y-29600D01*
X50650Y-29600D02*
X50550Y-29600D01*
X47450Y-29600D02*
X47450Y-32000D01*
X47450Y-32000D02*
X47550Y-32000D01*
X47550Y-29600D02*
X47450Y-29600D01*
X47250Y-29600D02*
G75*
G03X47250Y-29600I-100J0D01*
G74*
G01*
X50700Y-14300D02*
X50700Y-15300D01*
X53200Y-13050D02*
X53200Y-14300D01*
X50700Y-13300D02*
X50700Y-13050D01*
X50700Y-13050D02*
X53200Y-13050D01*
X53200Y-15300D02*
X53200Y-16550D01*
X53200Y-16550D02*
X50700Y-16550D01*
X50700Y-16550D02*
X50700Y-16300D01*
X41250Y-36000D02*
X46250Y-36000D01*
X46250Y-36000D02*
X46250Y-35250D01*
X41250Y-36000D02*
X41250Y-35250D01*
X42250Y-30500D02*
X42000Y-30500D01*
X42000Y-30500D02*
X41250Y-30500D01*
X41250Y-30500D02*
X41250Y-35250D01*
X41250Y-35250D02*
X46250Y-35250D01*
X46250Y-35250D02*
X46250Y-30500D01*
X46250Y-30500D02*
X45250Y-30500D01*
X53350Y-36000D02*
X58350Y-36000D01*
X58350Y-36000D02*
X58350Y-35250D01*
X53350Y-36000D02*
X53350Y-35250D01*
X54350Y-30500D02*
X54100Y-30500D01*
X54100Y-30500D02*
X53350Y-30500D01*
X53350Y-30500D02*
X53350Y-35250D01*
X53350Y-35250D02*
X58350Y-35250D01*
X58350Y-35250D02*
X58350Y-30500D01*
X58350Y-30500D02*
X57350Y-30500D01*
X59050Y-36000D02*
X64050Y-36000D01*
X64050Y-36000D02*
X64050Y-35250D01*
X59050Y-36000D02*
X59050Y-35250D01*
X60050Y-30500D02*
X59800Y-30500D01*
X59800Y-30500D02*
X59050Y-30500D01*
X59050Y-30500D02*
X59050Y-35250D01*
X59050Y-35250D02*
X64050Y-35250D01*
X64050Y-35250D02*
X64050Y-30500D01*
X64050Y-30500D02*
X63050Y-30500D01*
G54D11*
X29212Y-10477D02*
X29107Y-10477D01*
X29107Y-10642D02*
X29107Y-10327D01*
X29257Y-10327D01*
X29377Y-10642D02*
X29377Y-10327D01*
X29527Y-10642D02*
X29527Y-10327D01*
X29602Y-10327D01*
X29647Y-10342D01*
X29677Y-10372D01*
X29692Y-10402D01*
X29707Y-10462D01*
X29707Y-10507D01*
X29692Y-10567D01*
X29677Y-10597D01*
X29647Y-10627D01*
X29602Y-10642D01*
X29527Y-10642D01*
X30007Y-10642D02*
X29827Y-10642D01*
X29917Y-10642D02*
X29917Y-10327D01*
X29887Y-10372D01*
X29857Y-10402D01*
X29827Y-10417D01*
X50562Y-20902D02*
X50577Y-20917D01*
X50592Y-20962D01*
X50592Y-20992D01*
X50577Y-21037D01*
X50547Y-21067D01*
X50517Y-21082D01*
X50457Y-21097D01*
X50412Y-21097D01*
X50352Y-21082D01*
X50322Y-21067D01*
X50292Y-21037D01*
X50277Y-20992D01*
X50277Y-20962D01*
X50292Y-20917D01*
X50307Y-20902D01*
X50592Y-20602D02*
X50592Y-20782D01*
X50592Y-20692D02*
X50277Y-20692D01*
X50322Y-20722D01*
X50352Y-20752D01*
X50367Y-20782D01*
X29612Y-29477D02*
X29627Y-29492D01*
X29642Y-29537D01*
X29642Y-29567D01*
X29627Y-29612D01*
X29597Y-29642D01*
X29567Y-29657D01*
X29507Y-29672D01*
X29462Y-29672D01*
X29402Y-29657D01*
X29372Y-29642D01*
X29342Y-29612D01*
X29327Y-29567D01*
X29327Y-29537D01*
X29342Y-29492D01*
X29357Y-29477D01*
X29357Y-29357D02*
X29342Y-29342D01*
X29327Y-29312D01*
X29327Y-29237D01*
X29342Y-29207D01*
X29357Y-29192D01*
X29387Y-29177D01*
X29417Y-29177D01*
X29462Y-29192D01*
X29642Y-29372D01*
X29642Y-29177D01*
X56947Y-27612D02*
X56932Y-27627D01*
X56887Y-27642D01*
X56857Y-27642D01*
X56812Y-27627D01*
X56782Y-27597D01*
X56767Y-27567D01*
X56752Y-27507D01*
X56752Y-27462D01*
X56767Y-27402D01*
X56782Y-27372D01*
X56812Y-27342D01*
X56857Y-27327D01*
X56887Y-27327D01*
X56932Y-27342D01*
X56947Y-27357D01*
X57052Y-27327D02*
X57247Y-27327D01*
X57142Y-27447D01*
X57187Y-27447D01*
X57217Y-27462D01*
X57232Y-27477D01*
X57247Y-27507D01*
X57247Y-27582D01*
X57232Y-27612D01*
X57217Y-27627D01*
X57187Y-27642D01*
X57097Y-27642D01*
X57067Y-27627D01*
X57052Y-27612D01*
X36762Y-21602D02*
X36777Y-21617D01*
X36792Y-21662D01*
X36792Y-21692D01*
X36777Y-21737D01*
X36747Y-21767D01*
X36717Y-21782D01*
X36657Y-21797D01*
X36612Y-21797D01*
X36552Y-21782D01*
X36522Y-21767D01*
X36492Y-21737D01*
X36477Y-21692D01*
X36477Y-21662D01*
X36492Y-21617D01*
X36507Y-21602D01*
X36477Y-21332D02*
X36477Y-21392D01*
X36492Y-21422D01*
X36507Y-21437D01*
X36552Y-21467D01*
X36612Y-21482D01*
X36732Y-21482D01*
X36762Y-21467D01*
X36777Y-21452D01*
X36792Y-21422D01*
X36792Y-21362D01*
X36777Y-21332D01*
X36762Y-21317D01*
X36732Y-21302D01*
X36657Y-21302D01*
X36627Y-21317D01*
X36612Y-21332D01*
X36597Y-21362D01*
X36597Y-21422D01*
X36612Y-21452D01*
X36627Y-21467D01*
X36657Y-21482D01*
X57547Y-26812D02*
X57532Y-26827D01*
X57487Y-26842D01*
X57457Y-26842D01*
X57412Y-26827D01*
X57382Y-26797D01*
X57367Y-26767D01*
X57352Y-26707D01*
X57352Y-26662D01*
X57367Y-26602D01*
X57382Y-26572D01*
X57412Y-26542D01*
X57457Y-26527D01*
X57487Y-26527D01*
X57532Y-26542D01*
X57547Y-26557D01*
X57652Y-26527D02*
X57862Y-26527D01*
X57727Y-26842D01*
X41147Y-21762D02*
X41132Y-21777D01*
X41087Y-21792D01*
X41057Y-21792D01*
X41012Y-21777D01*
X40982Y-21747D01*
X40967Y-21717D01*
X40952Y-21657D01*
X40952Y-21612D01*
X40967Y-21552D01*
X40982Y-21522D01*
X41012Y-21492D01*
X41057Y-21477D01*
X41087Y-21477D01*
X41132Y-21492D01*
X41147Y-21507D01*
X41297Y-21792D02*
X41357Y-21792D01*
X41387Y-21777D01*
X41402Y-21762D01*
X41432Y-21717D01*
X41447Y-21657D01*
X41447Y-21537D01*
X41432Y-21507D01*
X41417Y-21492D01*
X41387Y-21477D01*
X41327Y-21477D01*
X41297Y-21492D01*
X41282Y-21507D01*
X41267Y-21537D01*
X41267Y-21612D01*
X41282Y-21642D01*
X41297Y-21657D01*
X41327Y-21672D01*
X41387Y-21672D01*
X41417Y-21657D01*
X41432Y-21642D01*
X41447Y-21612D01*
X58897Y-17112D02*
X58882Y-17127D01*
X58837Y-17142D01*
X58807Y-17142D01*
X58762Y-17127D01*
X58732Y-17097D01*
X58717Y-17067D01*
X58702Y-17007D01*
X58702Y-16962D01*
X58717Y-16902D01*
X58732Y-16872D01*
X58762Y-16842D01*
X58807Y-16827D01*
X58837Y-16827D01*
X58882Y-16842D01*
X58897Y-16857D01*
X59197Y-17142D02*
X59017Y-17142D01*
X59107Y-17142D02*
X59107Y-16827D01*
X59077Y-16872D01*
X59047Y-16902D01*
X59017Y-16917D01*
X59392Y-16827D02*
X59422Y-16827D01*
X59452Y-16842D01*
X59467Y-16857D01*
X59482Y-16887D01*
X59497Y-16947D01*
X59497Y-17022D01*
X59482Y-17082D01*
X59467Y-17112D01*
X59452Y-17127D01*
X59422Y-17142D01*
X59392Y-17142D01*
X59362Y-17127D01*
X59347Y-17112D01*
X59332Y-17082D01*
X59317Y-17022D01*
X59317Y-16947D01*
X59332Y-16887D01*
X59347Y-16857D01*
X59362Y-16842D01*
X59392Y-16827D01*
X47697Y-22012D02*
X47682Y-22027D01*
X47637Y-22042D01*
X47607Y-22042D01*
X47562Y-22027D01*
X47532Y-21997D01*
X47517Y-21967D01*
X47502Y-21907D01*
X47502Y-21862D01*
X47517Y-21802D01*
X47532Y-21772D01*
X47562Y-21742D01*
X47607Y-21727D01*
X47637Y-21727D01*
X47682Y-21742D01*
X47697Y-21757D01*
X47997Y-22042D02*
X47817Y-22042D01*
X47907Y-22042D02*
X47907Y-21727D01*
X47877Y-21772D01*
X47847Y-21802D01*
X47817Y-21817D01*
X48297Y-22042D02*
X48117Y-22042D01*
X48207Y-22042D02*
X48207Y-21727D01*
X48177Y-21772D01*
X48147Y-21802D01*
X48117Y-21817D01*
X36212Y-32902D02*
X36227Y-32917D01*
X36242Y-32962D01*
X36242Y-32992D01*
X36227Y-33037D01*
X36197Y-33067D01*
X36167Y-33082D01*
X36107Y-33097D01*
X36062Y-33097D01*
X36002Y-33082D01*
X35972Y-33067D01*
X35942Y-33037D01*
X35927Y-32992D01*
X35927Y-32962D01*
X35942Y-32917D01*
X35957Y-32902D01*
X36242Y-32602D02*
X36242Y-32782D01*
X36242Y-32692D02*
X35927Y-32692D01*
X35972Y-32722D01*
X36002Y-32752D01*
X36017Y-32782D01*
X35927Y-32497D02*
X35927Y-32302D01*
X36047Y-32407D01*
X36047Y-32362D01*
X36062Y-32332D01*
X36077Y-32317D01*
X36107Y-32302D01*
X36182Y-32302D01*
X36212Y-32317D01*
X36227Y-32332D01*
X36242Y-32362D01*
X36242Y-32452D01*
X36227Y-32482D01*
X36212Y-32497D01*
X33347Y-21662D02*
X33332Y-21677D01*
X33287Y-21692D01*
X33257Y-21692D01*
X33212Y-21677D01*
X33182Y-21647D01*
X33167Y-21617D01*
X33152Y-21557D01*
X33152Y-21512D01*
X33167Y-21452D01*
X33182Y-21422D01*
X33212Y-21392D01*
X33257Y-21377D01*
X33287Y-21377D01*
X33332Y-21392D01*
X33347Y-21407D01*
X33647Y-21692D02*
X33467Y-21692D01*
X33557Y-21692D02*
X33557Y-21377D01*
X33527Y-21422D01*
X33497Y-21452D01*
X33467Y-21467D01*
X33932Y-21377D02*
X33782Y-21377D01*
X33767Y-21527D01*
X33782Y-21512D01*
X33812Y-21497D01*
X33887Y-21497D01*
X33917Y-21512D01*
X33932Y-21527D01*
X33947Y-21557D01*
X33947Y-21632D01*
X33932Y-21662D01*
X33917Y-21677D01*
X33887Y-21692D01*
X33812Y-21692D01*
X33782Y-21677D01*
X33767Y-21662D01*
X37812Y-25002D02*
X37827Y-25017D01*
X37842Y-25062D01*
X37842Y-25092D01*
X37827Y-25137D01*
X37797Y-25167D01*
X37767Y-25182D01*
X37707Y-25197D01*
X37662Y-25197D01*
X37602Y-25182D01*
X37572Y-25167D01*
X37542Y-25137D01*
X37527Y-25092D01*
X37527Y-25062D01*
X37542Y-25017D01*
X37557Y-25002D01*
X37842Y-24702D02*
X37842Y-24882D01*
X37842Y-24792D02*
X37527Y-24792D01*
X37572Y-24822D01*
X37602Y-24852D01*
X37617Y-24882D01*
X37527Y-24597D02*
X37527Y-24387D01*
X37842Y-24522D01*
X36897Y-26712D02*
X36882Y-26727D01*
X36837Y-26742D01*
X36807Y-26742D01*
X36762Y-26727D01*
X36732Y-26697D01*
X36717Y-26667D01*
X36702Y-26607D01*
X36702Y-26562D01*
X36717Y-26502D01*
X36732Y-26472D01*
X36762Y-26442D01*
X36807Y-26427D01*
X36837Y-26427D01*
X36882Y-26442D01*
X36897Y-26457D01*
X37197Y-26742D02*
X37017Y-26742D01*
X37107Y-26742D02*
X37107Y-26427D01*
X37077Y-26472D01*
X37047Y-26502D01*
X37017Y-26517D01*
X37377Y-26562D02*
X37347Y-26547D01*
X37332Y-26532D01*
X37317Y-26502D01*
X37317Y-26487D01*
X37332Y-26457D01*
X37347Y-26442D01*
X37377Y-26427D01*
X37437Y-26427D01*
X37467Y-26442D01*
X37482Y-26457D01*
X37497Y-26487D01*
X37497Y-26502D01*
X37482Y-26532D01*
X37467Y-26547D01*
X37437Y-26562D01*
X37377Y-26562D01*
X37347Y-26577D01*
X37332Y-26592D01*
X37317Y-26622D01*
X37317Y-26682D01*
X37332Y-26712D01*
X37347Y-26727D01*
X37377Y-26742D01*
X37437Y-26742D01*
X37467Y-26727D01*
X37482Y-26712D01*
X37497Y-26682D01*
X37497Y-26622D01*
X37482Y-26592D01*
X37467Y-26577D01*
X37437Y-26562D01*
X44497Y-23912D02*
X44482Y-23927D01*
X44437Y-23942D01*
X44407Y-23942D01*
X44362Y-23927D01*
X44332Y-23897D01*
X44317Y-23867D01*
X44302Y-23807D01*
X44302Y-23762D01*
X44317Y-23702D01*
X44332Y-23672D01*
X44362Y-23642D01*
X44407Y-23627D01*
X44437Y-23627D01*
X44482Y-23642D01*
X44497Y-23657D01*
X44617Y-23657D02*
X44632Y-23642D01*
X44662Y-23627D01*
X44737Y-23627D01*
X44767Y-23642D01*
X44782Y-23657D01*
X44797Y-23687D01*
X44797Y-23717D01*
X44782Y-23762D01*
X44602Y-23942D01*
X44797Y-23942D01*
X44992Y-23627D02*
X45022Y-23627D01*
X45052Y-23642D01*
X45067Y-23657D01*
X45082Y-23687D01*
X45097Y-23747D01*
X45097Y-23822D01*
X45082Y-23882D01*
X45067Y-23912D01*
X45052Y-23927D01*
X45022Y-23942D01*
X44992Y-23942D01*
X44962Y-23927D01*
X44947Y-23912D01*
X44932Y-23882D01*
X44917Y-23822D01*
X44917Y-23747D01*
X44932Y-23687D01*
X44947Y-23657D01*
X44962Y-23642D01*
X44992Y-23627D01*
X42697Y-17362D02*
X42682Y-17377D01*
X42637Y-17392D01*
X42607Y-17392D01*
X42562Y-17377D01*
X42532Y-17347D01*
X42517Y-17317D01*
X42502Y-17257D01*
X42502Y-17212D01*
X42517Y-17152D01*
X42532Y-17122D01*
X42562Y-17092D01*
X42607Y-17077D01*
X42637Y-17077D01*
X42682Y-17092D01*
X42697Y-17107D01*
X42817Y-17107D02*
X42832Y-17092D01*
X42862Y-17077D01*
X42937Y-17077D01*
X42967Y-17092D01*
X42982Y-17107D01*
X42997Y-17137D01*
X42997Y-17167D01*
X42982Y-17212D01*
X42802Y-17392D01*
X42997Y-17392D01*
X43117Y-17107D02*
X43132Y-17092D01*
X43162Y-17077D01*
X43237Y-17077D01*
X43267Y-17092D01*
X43282Y-17107D01*
X43297Y-17137D01*
X43297Y-17167D01*
X43282Y-17212D01*
X43102Y-17392D01*
X43297Y-17392D01*
X44047Y-19162D02*
X44032Y-19177D01*
X43987Y-19192D01*
X43957Y-19192D01*
X43912Y-19177D01*
X43882Y-19147D01*
X43867Y-19117D01*
X43852Y-19057D01*
X43852Y-19012D01*
X43867Y-18952D01*
X43882Y-18922D01*
X43912Y-18892D01*
X43957Y-18877D01*
X43987Y-18877D01*
X44032Y-18892D01*
X44047Y-18907D01*
X44167Y-18907D02*
X44182Y-18892D01*
X44212Y-18877D01*
X44287Y-18877D01*
X44317Y-18892D01*
X44332Y-18907D01*
X44347Y-18937D01*
X44347Y-18967D01*
X44332Y-19012D01*
X44152Y-19192D01*
X44347Y-19192D01*
X44452Y-18877D02*
X44647Y-18877D01*
X44542Y-18997D01*
X44587Y-18997D01*
X44617Y-19012D01*
X44632Y-19027D01*
X44647Y-19057D01*
X44647Y-19132D01*
X44632Y-19162D01*
X44617Y-19177D01*
X44587Y-19192D01*
X44497Y-19192D01*
X44467Y-19177D01*
X44452Y-19162D01*
X42747Y-16262D02*
X42732Y-16277D01*
X42687Y-16292D01*
X42657Y-16292D01*
X42612Y-16277D01*
X42582Y-16247D01*
X42567Y-16217D01*
X42552Y-16157D01*
X42552Y-16112D01*
X42567Y-16052D01*
X42582Y-16022D01*
X42612Y-15992D01*
X42657Y-15977D01*
X42687Y-15977D01*
X42732Y-15992D01*
X42747Y-16007D01*
X42867Y-16007D02*
X42882Y-15992D01*
X42912Y-15977D01*
X42987Y-15977D01*
X43017Y-15992D01*
X43032Y-16007D01*
X43047Y-16037D01*
X43047Y-16067D01*
X43032Y-16112D01*
X42852Y-16292D01*
X43047Y-16292D01*
X43317Y-16082D02*
X43317Y-16292D01*
X43242Y-15962D02*
X43167Y-16187D01*
X43362Y-16187D01*
X47597Y-21062D02*
X47582Y-21077D01*
X47537Y-21092D01*
X47507Y-21092D01*
X47462Y-21077D01*
X47432Y-21047D01*
X47417Y-21017D01*
X47402Y-20957D01*
X47402Y-20912D01*
X47417Y-20852D01*
X47432Y-20822D01*
X47462Y-20792D01*
X47507Y-20777D01*
X47537Y-20777D01*
X47582Y-20792D01*
X47597Y-20807D01*
X47717Y-20807D02*
X47732Y-20792D01*
X47762Y-20777D01*
X47837Y-20777D01*
X47867Y-20792D01*
X47882Y-20807D01*
X47897Y-20837D01*
X47897Y-20867D01*
X47882Y-20912D01*
X47702Y-21092D01*
X47897Y-21092D01*
X48182Y-20777D02*
X48032Y-20777D01*
X48017Y-20927D01*
X48032Y-20912D01*
X48062Y-20897D01*
X48137Y-20897D01*
X48167Y-20912D01*
X48182Y-20927D01*
X48197Y-20957D01*
X48197Y-21032D01*
X48182Y-21062D01*
X48167Y-21077D01*
X48137Y-21092D01*
X48062Y-21092D01*
X48032Y-21077D01*
X48017Y-21062D01*
X48897Y-18512D02*
X48882Y-18527D01*
X48837Y-18542D01*
X48807Y-18542D01*
X48762Y-18527D01*
X48732Y-18497D01*
X48717Y-18467D01*
X48702Y-18407D01*
X48702Y-18362D01*
X48717Y-18302D01*
X48732Y-18272D01*
X48762Y-18242D01*
X48807Y-18227D01*
X48837Y-18227D01*
X48882Y-18242D01*
X48897Y-18257D01*
X49017Y-18257D02*
X49032Y-18242D01*
X49062Y-18227D01*
X49137Y-18227D01*
X49167Y-18242D01*
X49182Y-18257D01*
X49197Y-18287D01*
X49197Y-18317D01*
X49182Y-18362D01*
X49002Y-18542D01*
X49197Y-18542D01*
X49302Y-18227D02*
X49512Y-18227D01*
X49377Y-18542D01*
X32142Y-26832D02*
X31827Y-26832D01*
X31827Y-26757D01*
X31842Y-26712D01*
X31872Y-26682D01*
X31902Y-26667D01*
X31962Y-26652D01*
X32007Y-26652D01*
X32067Y-26667D01*
X32097Y-26682D01*
X32127Y-26712D01*
X32142Y-26757D01*
X32142Y-26832D01*
X32142Y-26352D02*
X32142Y-26532D01*
X32142Y-26442D02*
X31827Y-26442D01*
X31872Y-26472D01*
X31902Y-26502D01*
X31917Y-26532D01*
X38867Y-21692D02*
X38867Y-21377D01*
X38942Y-21377D01*
X38987Y-21392D01*
X39017Y-21422D01*
X39032Y-21452D01*
X39047Y-21512D01*
X39047Y-21557D01*
X39032Y-21617D01*
X39017Y-21647D01*
X38987Y-21677D01*
X38942Y-21692D01*
X38867Y-21692D01*
X39152Y-21377D02*
X39347Y-21377D01*
X39242Y-21497D01*
X39287Y-21497D01*
X39317Y-21512D01*
X39332Y-21527D01*
X39347Y-21557D01*
X39347Y-21632D01*
X39332Y-21662D01*
X39317Y-21677D01*
X39287Y-21692D01*
X39197Y-21692D01*
X39167Y-21677D01*
X39152Y-21662D01*
X44317Y-21542D02*
X44317Y-21227D01*
X44392Y-21227D01*
X44437Y-21242D01*
X44467Y-21272D01*
X44482Y-21302D01*
X44497Y-21362D01*
X44497Y-21407D01*
X44482Y-21467D01*
X44467Y-21497D01*
X44437Y-21527D01*
X44392Y-21542D01*
X44317Y-21542D01*
X44782Y-21227D02*
X44632Y-21227D01*
X44617Y-21377D01*
X44632Y-21362D01*
X44662Y-21347D01*
X44737Y-21347D01*
X44767Y-21362D01*
X44782Y-21377D01*
X44797Y-21407D01*
X44797Y-21482D01*
X44782Y-21512D01*
X44767Y-21527D01*
X44737Y-21542D01*
X44662Y-21542D01*
X44632Y-21527D01*
X44617Y-21512D01*
X42267Y-24642D02*
X42267Y-24327D01*
X42342Y-24327D01*
X42387Y-24342D01*
X42417Y-24372D01*
X42432Y-24402D01*
X42447Y-24462D01*
X42447Y-24507D01*
X42432Y-24567D01*
X42417Y-24597D01*
X42387Y-24627D01*
X42342Y-24642D01*
X42267Y-24642D01*
X42717Y-24327D02*
X42657Y-24327D01*
X42627Y-24342D01*
X42612Y-24357D01*
X42582Y-24402D01*
X42567Y-24462D01*
X42567Y-24582D01*
X42582Y-24612D01*
X42597Y-24627D01*
X42627Y-24642D01*
X42687Y-24642D01*
X42717Y-24627D01*
X42732Y-24612D01*
X42747Y-24582D01*
X42747Y-24507D01*
X42732Y-24477D01*
X42717Y-24462D01*
X42687Y-24447D01*
X42627Y-24447D01*
X42597Y-24462D01*
X42582Y-24477D01*
X42567Y-24507D01*
X51067Y-26642D02*
X51067Y-26327D01*
X51142Y-26327D01*
X51187Y-26342D01*
X51217Y-26372D01*
X51232Y-26402D01*
X51247Y-26462D01*
X51247Y-26507D01*
X51232Y-26567D01*
X51217Y-26597D01*
X51187Y-26627D01*
X51142Y-26642D01*
X51067Y-26642D01*
X51352Y-26327D02*
X51562Y-26327D01*
X51427Y-26642D01*
X51167Y-28442D02*
X51167Y-28127D01*
X51242Y-28127D01*
X51287Y-28142D01*
X51317Y-28172D01*
X51332Y-28202D01*
X51347Y-28262D01*
X51347Y-28307D01*
X51332Y-28367D01*
X51317Y-28397D01*
X51287Y-28427D01*
X51242Y-28442D01*
X51167Y-28442D01*
X51527Y-28262D02*
X51497Y-28247D01*
X51482Y-28232D01*
X51467Y-28202D01*
X51467Y-28187D01*
X51482Y-28157D01*
X51497Y-28142D01*
X51527Y-28127D01*
X51587Y-28127D01*
X51617Y-28142D01*
X51632Y-28157D01*
X51647Y-28187D01*
X51647Y-28202D01*
X51632Y-28232D01*
X51617Y-28247D01*
X51587Y-28262D01*
X51527Y-28262D01*
X51497Y-28277D01*
X51482Y-28292D01*
X51467Y-28322D01*
X51467Y-28382D01*
X51482Y-28412D01*
X51497Y-28427D01*
X51527Y-28442D01*
X51587Y-28442D01*
X51617Y-28427D01*
X51632Y-28412D01*
X51647Y-28382D01*
X51647Y-28322D01*
X51632Y-28292D01*
X51617Y-28277D01*
X51587Y-28262D01*
X28927Y-34504D02*
X29152Y-34504D01*
X29197Y-34519D01*
X29227Y-34549D01*
X29242Y-34594D01*
X29242Y-34624D01*
X29242Y-34190D02*
X29242Y-34370D01*
X29242Y-34280D02*
X28927Y-34280D01*
X28972Y-34310D01*
X29002Y-34340D01*
X29017Y-34370D01*
X28127Y-34504D02*
X28352Y-34504D01*
X28397Y-34519D01*
X28427Y-34549D01*
X28442Y-34594D01*
X28442Y-34624D01*
X28157Y-34370D02*
X28142Y-34355D01*
X28127Y-34325D01*
X28127Y-34250D01*
X28142Y-34220D01*
X28157Y-34205D01*
X28187Y-34190D01*
X28217Y-34190D01*
X28262Y-34205D01*
X28442Y-34385D01*
X28442Y-34190D01*
X47127Y-34504D02*
X47352Y-34504D01*
X47397Y-34519D01*
X47427Y-34549D01*
X47442Y-34594D01*
X47442Y-34624D01*
X47127Y-34385D02*
X47127Y-34190D01*
X47247Y-34295D01*
X47247Y-34250D01*
X47262Y-34220D01*
X47277Y-34205D01*
X47307Y-34190D01*
X47382Y-34190D01*
X47412Y-34205D01*
X47427Y-34220D01*
X47442Y-34250D01*
X47442Y-34340D01*
X47427Y-34370D01*
X47412Y-34385D01*
X33047Y-24342D02*
X32897Y-24342D01*
X32897Y-24027D01*
X33317Y-24342D02*
X33137Y-24342D01*
X33227Y-24342D02*
X33227Y-24027D01*
X33197Y-24072D01*
X33167Y-24102D01*
X33137Y-24117D01*
X38047Y-23942D02*
X37897Y-23942D01*
X37897Y-23627D01*
X38122Y-23627D02*
X38317Y-23627D01*
X38212Y-23747D01*
X38257Y-23747D01*
X38287Y-23762D01*
X38302Y-23777D01*
X38317Y-23807D01*
X38317Y-23882D01*
X38302Y-23912D01*
X38287Y-23927D01*
X38257Y-23942D01*
X38167Y-23942D01*
X38137Y-23927D01*
X38122Y-23912D01*
X43847Y-21042D02*
X43697Y-21042D01*
X43697Y-20727D01*
X44087Y-20832D02*
X44087Y-21042D01*
X44012Y-20712D02*
X43937Y-20937D01*
X44132Y-20937D01*
X46417Y-21852D02*
X46417Y-22002D01*
X46102Y-22002D01*
X46102Y-21597D02*
X46102Y-21747D01*
X46252Y-21762D01*
X46237Y-21747D01*
X46222Y-21717D01*
X46222Y-21642D01*
X46237Y-21612D01*
X46252Y-21597D01*
X46282Y-21582D01*
X46357Y-21582D01*
X46387Y-21597D01*
X46402Y-21612D01*
X46417Y-21642D01*
X46417Y-21717D01*
X46402Y-21747D01*
X46387Y-21762D01*
X40147Y-24642D02*
X39997Y-24642D01*
X39997Y-24327D01*
X40387Y-24327D02*
X40327Y-24327D01*
X40297Y-24342D01*
X40282Y-24357D01*
X40252Y-24402D01*
X40237Y-24462D01*
X40237Y-24582D01*
X40252Y-24612D01*
X40267Y-24627D01*
X40297Y-24642D01*
X40357Y-24642D01*
X40387Y-24627D01*
X40402Y-24612D01*
X40417Y-24582D01*
X40417Y-24507D01*
X40402Y-24477D01*
X40387Y-24462D01*
X40357Y-24447D01*
X40297Y-24447D01*
X40267Y-24462D01*
X40252Y-24477D01*
X40237Y-24507D01*
X57670Y-23672D02*
X57640Y-23657D01*
X57610Y-23627D01*
X57565Y-23582D01*
X57535Y-23567D01*
X57505Y-23567D01*
X57520Y-23642D02*
X57490Y-23627D01*
X57460Y-23597D01*
X57445Y-23537D01*
X57445Y-23432D01*
X57460Y-23372D01*
X57490Y-23342D01*
X57520Y-23327D01*
X57580Y-23327D01*
X57610Y-23342D01*
X57640Y-23372D01*
X57655Y-23432D01*
X57655Y-23537D01*
X57640Y-23597D01*
X57610Y-23627D01*
X57580Y-23642D01*
X57520Y-23642D01*
X57759Y-23327D02*
X57954Y-23327D01*
X57849Y-23447D01*
X57894Y-23447D01*
X57924Y-23462D01*
X57939Y-23477D01*
X57954Y-23507D01*
X57954Y-23582D01*
X57939Y-23612D01*
X57924Y-23627D01*
X57894Y-23642D01*
X57804Y-23642D01*
X57774Y-23627D01*
X57759Y-23612D01*
X60970Y-23672D02*
X60940Y-23657D01*
X60910Y-23627D01*
X60865Y-23582D01*
X60835Y-23567D01*
X60805Y-23567D01*
X60820Y-23642D02*
X60790Y-23627D01*
X60760Y-23597D01*
X60745Y-23537D01*
X60745Y-23432D01*
X60760Y-23372D01*
X60790Y-23342D01*
X60820Y-23327D01*
X60880Y-23327D01*
X60910Y-23342D01*
X60940Y-23372D01*
X60955Y-23432D01*
X60955Y-23537D01*
X60940Y-23597D01*
X60910Y-23627D01*
X60880Y-23642D01*
X60820Y-23642D01*
X61224Y-23432D02*
X61224Y-23642D01*
X61149Y-23312D02*
X61074Y-23537D01*
X61269Y-23537D01*
X34197Y-26142D02*
X34092Y-25992D01*
X34017Y-26142D02*
X34017Y-25827D01*
X34137Y-25827D01*
X34167Y-25842D01*
X34182Y-25857D01*
X34197Y-25887D01*
X34197Y-25932D01*
X34182Y-25962D01*
X34167Y-25977D01*
X34137Y-25992D01*
X34017Y-25992D01*
X34317Y-25857D02*
X34332Y-25842D01*
X34362Y-25827D01*
X34437Y-25827D01*
X34467Y-25842D01*
X34482Y-25857D01*
X34497Y-25887D01*
X34497Y-25917D01*
X34482Y-25962D01*
X34302Y-26142D01*
X34497Y-26142D01*
X44242Y-27802D02*
X44092Y-27907D01*
X44242Y-27982D02*
X43927Y-27982D01*
X43927Y-27862D01*
X43942Y-27832D01*
X43957Y-27817D01*
X43987Y-27802D01*
X44032Y-27802D01*
X44062Y-27817D01*
X44077Y-27832D01*
X44092Y-27862D01*
X44092Y-27982D01*
X44242Y-27502D02*
X44242Y-27682D01*
X44242Y-27592D02*
X43927Y-27592D01*
X43972Y-27622D01*
X44002Y-27652D01*
X44017Y-27682D01*
X43927Y-27397D02*
X43927Y-27202D01*
X44047Y-27307D01*
X44047Y-27262D01*
X44062Y-27232D01*
X44077Y-27217D01*
X44107Y-27202D01*
X44182Y-27202D01*
X44212Y-27217D01*
X44227Y-27232D01*
X44242Y-27262D01*
X44242Y-27352D01*
X44227Y-27382D01*
X44212Y-27397D01*
X40942Y-35102D02*
X40792Y-35207D01*
X40942Y-35282D02*
X40627Y-35282D01*
X40627Y-35162D01*
X40642Y-35132D01*
X40657Y-35117D01*
X40687Y-35102D01*
X40732Y-35102D01*
X40762Y-35117D01*
X40777Y-35132D01*
X40792Y-35162D01*
X40792Y-35282D01*
X40657Y-34982D02*
X40642Y-34967D01*
X40627Y-34937D01*
X40627Y-34862D01*
X40642Y-34832D01*
X40657Y-34817D01*
X40687Y-34802D01*
X40717Y-34802D01*
X40762Y-34817D01*
X40942Y-34997D01*
X40942Y-34802D01*
X40627Y-34697D02*
X40627Y-34487D01*
X40942Y-34622D01*
X52960Y-24077D02*
X52960Y-24332D01*
X52975Y-24362D01*
X52990Y-24377D01*
X53020Y-24392D01*
X53080Y-24392D01*
X53110Y-24377D01*
X53125Y-24362D01*
X53140Y-24332D01*
X53140Y-24077D01*
X53454Y-24392D02*
X53274Y-24392D01*
X53364Y-24392D02*
X53364Y-24077D01*
X53334Y-24122D01*
X53304Y-24152D01*
X53274Y-24167D01*
X42097Y-19562D02*
X42082Y-19577D01*
X42037Y-19592D01*
X42007Y-19592D01*
X41962Y-19577D01*
X41932Y-19547D01*
X41917Y-19517D01*
X41902Y-19457D01*
X41902Y-19412D01*
X41917Y-19352D01*
X41932Y-19322D01*
X41962Y-19292D01*
X42007Y-19277D01*
X42037Y-19277D01*
X42082Y-19292D01*
X42097Y-19307D01*
X42217Y-19307D02*
X42232Y-19292D01*
X42262Y-19277D01*
X42337Y-19277D01*
X42367Y-19292D01*
X42382Y-19307D01*
X42397Y-19337D01*
X42397Y-19367D01*
X42382Y-19412D01*
X42202Y-19592D01*
X42397Y-19592D01*
X42667Y-19277D02*
X42607Y-19277D01*
X42577Y-19292D01*
X42562Y-19307D01*
X42532Y-19352D01*
X42517Y-19412D01*
X42517Y-19532D01*
X42532Y-19562D01*
X42547Y-19577D01*
X42577Y-19592D01*
X42637Y-19592D01*
X42667Y-19577D01*
X42682Y-19562D01*
X42697Y-19532D01*
X42697Y-19457D01*
X42682Y-19427D01*
X42667Y-19412D01*
X42637Y-19397D01*
X42577Y-19397D01*
X42547Y-19412D01*
X42532Y-19427D01*
X42517Y-19457D01*
X23117Y-30442D02*
X23117Y-30127D01*
X23192Y-30127D01*
X23237Y-30142D01*
X23267Y-30172D01*
X23282Y-30202D01*
X23297Y-30262D01*
X23297Y-30307D01*
X23282Y-30367D01*
X23267Y-30397D01*
X23237Y-30427D01*
X23192Y-30442D01*
X23117Y-30442D01*
X23447Y-30442D02*
X23507Y-30442D01*
X23537Y-30427D01*
X23552Y-30412D01*
X23582Y-30367D01*
X23597Y-30307D01*
X23597Y-30187D01*
X23582Y-30157D01*
X23567Y-30142D01*
X23537Y-30127D01*
X23477Y-30127D01*
X23447Y-30142D01*
X23432Y-30157D01*
X23417Y-30187D01*
X23417Y-30262D01*
X23432Y-30292D01*
X23447Y-30307D01*
X23477Y-30322D01*
X23537Y-30322D01*
X23567Y-30307D01*
X23582Y-30292D01*
X23597Y-30262D01*
X38260Y-28727D02*
X38260Y-28982D01*
X38275Y-29012D01*
X38290Y-29027D01*
X38320Y-29042D01*
X38380Y-29042D01*
X38410Y-29027D01*
X38425Y-29012D01*
X38440Y-28982D01*
X38440Y-28727D01*
X38574Y-28757D02*
X38589Y-28742D01*
X38619Y-28727D01*
X38694Y-28727D01*
X38724Y-28742D01*
X38739Y-28757D01*
X38754Y-28787D01*
X38754Y-28817D01*
X38739Y-28862D01*
X38559Y-29042D01*
X38754Y-29042D01*
X48897Y-17412D02*
X48882Y-17427D01*
X48837Y-17442D01*
X48807Y-17442D01*
X48762Y-17427D01*
X48732Y-17397D01*
X48717Y-17367D01*
X48702Y-17307D01*
X48702Y-17262D01*
X48717Y-17202D01*
X48732Y-17172D01*
X48762Y-17142D01*
X48807Y-17127D01*
X48837Y-17127D01*
X48882Y-17142D01*
X48897Y-17157D01*
X49017Y-17157D02*
X49032Y-17142D01*
X49062Y-17127D01*
X49137Y-17127D01*
X49167Y-17142D01*
X49182Y-17157D01*
X49197Y-17187D01*
X49197Y-17217D01*
X49182Y-17262D01*
X49002Y-17442D01*
X49197Y-17442D01*
X49377Y-17262D02*
X49347Y-17247D01*
X49332Y-17232D01*
X49317Y-17202D01*
X49317Y-17187D01*
X49332Y-17157D01*
X49347Y-17142D01*
X49377Y-17127D01*
X49437Y-17127D01*
X49467Y-17142D01*
X49482Y-17157D01*
X49497Y-17187D01*
X49497Y-17202D01*
X49482Y-17232D01*
X49467Y-17247D01*
X49437Y-17262D01*
X49377Y-17262D01*
X49347Y-17277D01*
X49332Y-17292D01*
X49317Y-17322D01*
X49317Y-17382D01*
X49332Y-17412D01*
X49347Y-17427D01*
X49377Y-17442D01*
X49437Y-17442D01*
X49467Y-17427D01*
X49482Y-17412D01*
X49497Y-17382D01*
X49497Y-17322D01*
X49482Y-17292D01*
X49467Y-17277D01*
X49437Y-17262D01*
X46042Y-12552D02*
X45892Y-12657D01*
X46042Y-12732D02*
X45727Y-12732D01*
X45727Y-12612D01*
X45742Y-12582D01*
X45757Y-12567D01*
X45787Y-12552D01*
X45832Y-12552D01*
X45862Y-12567D01*
X45877Y-12582D01*
X45892Y-12612D01*
X45892Y-12732D01*
X46042Y-12252D02*
X46042Y-12432D01*
X46042Y-12342D02*
X45727Y-12342D01*
X45772Y-12372D01*
X45802Y-12402D01*
X45817Y-12432D01*
X51469Y-10477D02*
X51469Y-10732D01*
X51484Y-10762D01*
X51499Y-10777D01*
X51529Y-10792D01*
X51589Y-10792D01*
X51619Y-10777D01*
X51634Y-10762D01*
X51649Y-10732D01*
X51649Y-10477D01*
X51769Y-10477D02*
X51964Y-10477D01*
X51859Y-10597D01*
X51904Y-10597D01*
X51934Y-10612D01*
X51949Y-10627D01*
X51964Y-10657D01*
X51964Y-10732D01*
X51949Y-10762D01*
X51934Y-10777D01*
X51904Y-10792D01*
X51814Y-10792D01*
X51784Y-10777D01*
X51769Y-10762D01*
X42347Y-13442D02*
X42197Y-13442D01*
X42197Y-13127D01*
X42422Y-13127D02*
X42632Y-13127D01*
X42497Y-13442D01*
X60597Y-17112D02*
X60582Y-17127D01*
X60537Y-17142D01*
X60507Y-17142D01*
X60462Y-17127D01*
X60432Y-17097D01*
X60417Y-17067D01*
X60402Y-17007D01*
X60402Y-16962D01*
X60417Y-16902D01*
X60432Y-16872D01*
X60462Y-16842D01*
X60507Y-16827D01*
X60537Y-16827D01*
X60582Y-16842D01*
X60597Y-16857D01*
X60702Y-16827D02*
X60897Y-16827D01*
X60792Y-16947D01*
X60837Y-16947D01*
X60867Y-16962D01*
X60882Y-16977D01*
X60897Y-17007D01*
X60897Y-17082D01*
X60882Y-17112D01*
X60867Y-17127D01*
X60837Y-17142D01*
X60747Y-17142D01*
X60717Y-17127D01*
X60702Y-17112D01*
X61092Y-16827D02*
X61122Y-16827D01*
X61152Y-16842D01*
X61167Y-16857D01*
X61182Y-16887D01*
X61197Y-16947D01*
X61197Y-17022D01*
X61182Y-17082D01*
X61167Y-17112D01*
X61152Y-17127D01*
X61122Y-17142D01*
X61092Y-17142D01*
X61062Y-17127D01*
X61047Y-17112D01*
X61032Y-17082D01*
X61017Y-17022D01*
X61017Y-16947D01*
X61032Y-16887D01*
X61047Y-16857D01*
X61062Y-16842D01*
X61092Y-16827D01*
X35977Y-12604D02*
X35977Y-12709D01*
X36142Y-12709D02*
X35827Y-12709D01*
X35827Y-12559D01*
X36142Y-12275D02*
X36142Y-12455D01*
X36142Y-12365D02*
X35827Y-12365D01*
X35872Y-12395D01*
X35902Y-12425D01*
X35917Y-12455D01*
X36497Y-34912D02*
X36482Y-34927D01*
X36437Y-34942D01*
X36407Y-34942D01*
X36362Y-34927D01*
X36332Y-34897D01*
X36317Y-34867D01*
X36302Y-34807D01*
X36302Y-34762D01*
X36317Y-34702D01*
X36332Y-34672D01*
X36362Y-34642D01*
X36407Y-34627D01*
X36437Y-34627D01*
X36482Y-34642D01*
X36497Y-34657D01*
X36797Y-34942D02*
X36617Y-34942D01*
X36707Y-34942D02*
X36707Y-34627D01*
X36677Y-34672D01*
X36647Y-34702D01*
X36617Y-34717D01*
X36917Y-34657D02*
X36932Y-34642D01*
X36962Y-34627D01*
X37037Y-34627D01*
X37067Y-34642D01*
X37082Y-34657D01*
X37097Y-34687D01*
X37097Y-34717D01*
X37082Y-34762D01*
X36902Y-34942D01*
X37097Y-34942D01*
X40547Y-27642D02*
X40442Y-27492D01*
X40367Y-27642D02*
X40367Y-27327D01*
X40487Y-27327D01*
X40517Y-27342D01*
X40532Y-27357D01*
X40547Y-27387D01*
X40547Y-27432D01*
X40532Y-27462D01*
X40517Y-27477D01*
X40487Y-27492D01*
X40367Y-27492D01*
X40817Y-27327D02*
X40757Y-27327D01*
X40727Y-27342D01*
X40712Y-27357D01*
X40682Y-27402D01*
X40667Y-27462D01*
X40667Y-27582D01*
X40682Y-27612D01*
X40697Y-27627D01*
X40727Y-27642D01*
X40787Y-27642D01*
X40817Y-27627D01*
X40832Y-27612D01*
X40847Y-27582D01*
X40847Y-27507D01*
X40832Y-27477D01*
X40817Y-27462D01*
X40787Y-27447D01*
X40727Y-27447D01*
X40697Y-27462D01*
X40682Y-27477D01*
X40667Y-27507D01*
X34942Y-30852D02*
X34792Y-30957D01*
X34942Y-31032D02*
X34627Y-31032D01*
X34627Y-30912D01*
X34642Y-30882D01*
X34657Y-30867D01*
X34687Y-30852D01*
X34732Y-30852D01*
X34762Y-30867D01*
X34777Y-30882D01*
X34792Y-30912D01*
X34792Y-31032D01*
X34627Y-30747D02*
X34627Y-30537D01*
X34942Y-30672D01*
X40942Y-32702D02*
X40792Y-32807D01*
X40942Y-32882D02*
X40627Y-32882D01*
X40627Y-32762D01*
X40642Y-32732D01*
X40657Y-32717D01*
X40687Y-32702D01*
X40732Y-32702D01*
X40762Y-32717D01*
X40777Y-32732D01*
X40792Y-32762D01*
X40792Y-32882D01*
X40657Y-32582D02*
X40642Y-32567D01*
X40627Y-32537D01*
X40627Y-32462D01*
X40642Y-32432D01*
X40657Y-32417D01*
X40687Y-32402D01*
X40717Y-32402D01*
X40762Y-32417D01*
X40942Y-32597D01*
X40942Y-32402D01*
X40762Y-32222D02*
X40747Y-32252D01*
X40732Y-32267D01*
X40702Y-32282D01*
X40687Y-32282D01*
X40657Y-32267D01*
X40642Y-32252D01*
X40627Y-32222D01*
X40627Y-32162D01*
X40642Y-32132D01*
X40657Y-32117D01*
X40687Y-32102D01*
X40702Y-32102D01*
X40732Y-32117D01*
X40747Y-32132D01*
X40762Y-32162D01*
X40762Y-32222D01*
X40777Y-32252D01*
X40792Y-32267D01*
X40822Y-32282D01*
X40882Y-32282D01*
X40912Y-32267D01*
X40927Y-32252D01*
X40942Y-32222D01*
X40942Y-32162D01*
X40927Y-32132D01*
X40912Y-32117D01*
X40882Y-32102D01*
X40822Y-32102D01*
X40792Y-32117D01*
X40777Y-32132D01*
X40762Y-32162D01*
X41342Y-15982D02*
X41027Y-15982D01*
X41027Y-15907D01*
X41042Y-15862D01*
X41072Y-15832D01*
X41102Y-15817D01*
X41162Y-15802D01*
X41207Y-15802D01*
X41267Y-15817D01*
X41297Y-15832D01*
X41327Y-15862D01*
X41342Y-15907D01*
X41342Y-15982D01*
X41342Y-15502D02*
X41342Y-15682D01*
X41342Y-15592D02*
X41027Y-15592D01*
X41072Y-15622D01*
X41102Y-15652D01*
X41117Y-15682D01*
X41027Y-15307D02*
X41027Y-15277D01*
X41042Y-15247D01*
X41057Y-15232D01*
X41087Y-15217D01*
X41147Y-15202D01*
X41222Y-15202D01*
X41282Y-15217D01*
X41312Y-15232D01*
X41327Y-15247D01*
X41342Y-15277D01*
X41342Y-15307D01*
X41327Y-15337D01*
X41312Y-15352D01*
X41282Y-15367D01*
X41222Y-15382D01*
X41147Y-15382D01*
X41087Y-15367D01*
X41057Y-15352D01*
X41042Y-15337D01*
X41027Y-15307D01*
X38642Y-33282D02*
X38327Y-33282D01*
X38327Y-33207D01*
X38342Y-33162D01*
X38372Y-33132D01*
X38402Y-33117D01*
X38462Y-33102D01*
X38507Y-33102D01*
X38567Y-33117D01*
X38597Y-33132D01*
X38627Y-33162D01*
X38642Y-33207D01*
X38642Y-33282D01*
X38642Y-32802D02*
X38642Y-32982D01*
X38642Y-32892D02*
X38327Y-32892D01*
X38372Y-32922D01*
X38402Y-32952D01*
X38417Y-32982D01*
X38642Y-32502D02*
X38642Y-32682D01*
X38642Y-32592D02*
X38327Y-32592D01*
X38372Y-32622D01*
X38402Y-32652D01*
X38417Y-32682D01*
X41342Y-17202D02*
X41192Y-17307D01*
X41342Y-17382D02*
X41027Y-17382D01*
X41027Y-17262D01*
X41042Y-17232D01*
X41057Y-17217D01*
X41087Y-17202D01*
X41132Y-17202D01*
X41162Y-17217D01*
X41177Y-17232D01*
X41192Y-17262D01*
X41192Y-17382D01*
X41342Y-16902D02*
X41342Y-17082D01*
X41342Y-16992D02*
X41027Y-16992D01*
X41072Y-17022D01*
X41102Y-17052D01*
X41117Y-17082D01*
X41057Y-16782D02*
X41042Y-16767D01*
X41027Y-16737D01*
X41027Y-16662D01*
X41042Y-16632D01*
X41057Y-16617D01*
X41087Y-16602D01*
X41117Y-16602D01*
X41162Y-16617D01*
X41342Y-16797D01*
X41342Y-16602D01*
X53497Y-20042D02*
X53392Y-19892D01*
X53317Y-20042D02*
X53317Y-19727D01*
X53437Y-19727D01*
X53467Y-19742D01*
X53482Y-19757D01*
X53497Y-19787D01*
X53497Y-19832D01*
X53482Y-19862D01*
X53467Y-19877D01*
X53437Y-19892D01*
X53317Y-19892D01*
X53797Y-20042D02*
X53617Y-20042D01*
X53707Y-20042D02*
X53707Y-19727D01*
X53677Y-19772D01*
X53647Y-19802D01*
X53617Y-19817D01*
X54067Y-19727D02*
X54007Y-19727D01*
X53977Y-19742D01*
X53962Y-19757D01*
X53932Y-19802D01*
X53917Y-19862D01*
X53917Y-19982D01*
X53932Y-20012D01*
X53947Y-20027D01*
X53977Y-20042D01*
X54037Y-20042D01*
X54067Y-20027D01*
X54082Y-20012D01*
X54097Y-19982D01*
X54097Y-19907D01*
X54082Y-19877D01*
X54067Y-19862D01*
X54037Y-19847D01*
X53977Y-19847D01*
X53947Y-19862D01*
X53932Y-19877D01*
X53917Y-19907D01*
X55597Y-21642D02*
X55492Y-21492D01*
X55417Y-21642D02*
X55417Y-21327D01*
X55537Y-21327D01*
X55567Y-21342D01*
X55582Y-21357D01*
X55597Y-21387D01*
X55597Y-21432D01*
X55582Y-21462D01*
X55567Y-21477D01*
X55537Y-21492D01*
X55417Y-21492D01*
X55897Y-21642D02*
X55717Y-21642D01*
X55807Y-21642D02*
X55807Y-21327D01*
X55777Y-21372D01*
X55747Y-21402D01*
X55717Y-21417D01*
X56002Y-21327D02*
X56212Y-21327D01*
X56077Y-21642D01*
X37997Y-35642D02*
X37892Y-35492D01*
X37817Y-35642D02*
X37817Y-35327D01*
X37937Y-35327D01*
X37967Y-35342D01*
X37982Y-35357D01*
X37997Y-35387D01*
X37997Y-35432D01*
X37982Y-35462D01*
X37967Y-35477D01*
X37937Y-35492D01*
X37817Y-35492D01*
X38297Y-35642D02*
X38117Y-35642D01*
X38207Y-35642D02*
X38207Y-35327D01*
X38177Y-35372D01*
X38147Y-35402D01*
X38117Y-35417D01*
X38477Y-35462D02*
X38447Y-35447D01*
X38432Y-35432D01*
X38417Y-35402D01*
X38417Y-35387D01*
X38432Y-35357D01*
X38447Y-35342D01*
X38477Y-35327D01*
X38537Y-35327D01*
X38567Y-35342D01*
X38582Y-35357D01*
X38597Y-35387D01*
X38597Y-35402D01*
X38582Y-35432D01*
X38567Y-35447D01*
X38537Y-35462D01*
X38477Y-35462D01*
X38447Y-35477D01*
X38432Y-35492D01*
X38417Y-35522D01*
X38417Y-35582D01*
X38432Y-35612D01*
X38447Y-35627D01*
X38477Y-35642D01*
X38537Y-35642D01*
X38567Y-35627D01*
X38582Y-35612D01*
X38597Y-35582D01*
X38597Y-35522D01*
X38582Y-35492D01*
X38567Y-35477D01*
X38537Y-35462D01*
X34762Y-12502D02*
X34777Y-12517D01*
X34792Y-12562D01*
X34792Y-12592D01*
X34777Y-12637D01*
X34747Y-12667D01*
X34717Y-12682D01*
X34657Y-12697D01*
X34612Y-12697D01*
X34552Y-12682D01*
X34522Y-12667D01*
X34492Y-12637D01*
X34477Y-12592D01*
X34477Y-12562D01*
X34492Y-12517D01*
X34507Y-12502D01*
X34477Y-12397D02*
X34477Y-12202D01*
X34597Y-12307D01*
X34597Y-12262D01*
X34612Y-12232D01*
X34627Y-12217D01*
X34657Y-12202D01*
X34732Y-12202D01*
X34762Y-12217D01*
X34777Y-12232D01*
X34792Y-12262D01*
X34792Y-12352D01*
X34777Y-12382D01*
X34762Y-12397D01*
X34792Y-11902D02*
X34792Y-12082D01*
X34792Y-11992D02*
X34477Y-11992D01*
X34522Y-12022D01*
X34552Y-12052D01*
X34567Y-12082D01*
X29942Y-14802D02*
X29792Y-14907D01*
X29942Y-14982D02*
X29627Y-14982D01*
X29627Y-14862D01*
X29642Y-14832D01*
X29657Y-14817D01*
X29687Y-14802D01*
X29732Y-14802D01*
X29762Y-14817D01*
X29777Y-14832D01*
X29792Y-14862D01*
X29792Y-14982D01*
X29942Y-14502D02*
X29942Y-14682D01*
X29942Y-14592D02*
X29627Y-14592D01*
X29672Y-14622D01*
X29702Y-14652D01*
X29717Y-14682D01*
X29942Y-14352D02*
X29942Y-14292D01*
X29927Y-14262D01*
X29912Y-14247D01*
X29867Y-14217D01*
X29807Y-14202D01*
X29687Y-14202D01*
X29657Y-14217D01*
X29642Y-14232D01*
X29627Y-14262D01*
X29627Y-14322D01*
X29642Y-14352D01*
X29657Y-14367D01*
X29687Y-14382D01*
X29762Y-14382D01*
X29792Y-14367D01*
X29807Y-14352D01*
X29822Y-14322D01*
X29822Y-14262D01*
X29807Y-14232D01*
X29792Y-14217D01*
X29762Y-14202D01*
X30792Y-11502D02*
X30642Y-11607D01*
X30792Y-11682D02*
X30477Y-11682D01*
X30477Y-11562D01*
X30492Y-11532D01*
X30507Y-11517D01*
X30537Y-11502D01*
X30582Y-11502D01*
X30612Y-11517D01*
X30627Y-11532D01*
X30642Y-11562D01*
X30642Y-11682D01*
X30507Y-11382D02*
X30492Y-11367D01*
X30477Y-11337D01*
X30477Y-11262D01*
X30492Y-11232D01*
X30507Y-11217D01*
X30537Y-11202D01*
X30567Y-11202D01*
X30612Y-11217D01*
X30792Y-11397D01*
X30792Y-11202D01*
X30792Y-11052D02*
X30792Y-10992D01*
X30777Y-10962D01*
X30762Y-10947D01*
X30717Y-10917D01*
X30657Y-10902D01*
X30537Y-10902D01*
X30507Y-10917D01*
X30492Y-10932D01*
X30477Y-10962D01*
X30477Y-11022D01*
X30492Y-11052D01*
X30507Y-11067D01*
X30537Y-11082D01*
X30612Y-11082D01*
X30642Y-11067D01*
X30657Y-11052D01*
X30672Y-11022D01*
X30672Y-10962D01*
X30657Y-10932D01*
X30642Y-10917D01*
X30612Y-10902D01*
X31842Y-12902D02*
X31692Y-13007D01*
X31842Y-13082D02*
X31527Y-13082D01*
X31527Y-12962D01*
X31542Y-12932D01*
X31557Y-12917D01*
X31587Y-12902D01*
X31632Y-12902D01*
X31662Y-12917D01*
X31677Y-12932D01*
X31692Y-12962D01*
X31692Y-13082D01*
X31527Y-12797D02*
X31527Y-12602D01*
X31647Y-12707D01*
X31647Y-12662D01*
X31662Y-12632D01*
X31677Y-12617D01*
X31707Y-12602D01*
X31782Y-12602D01*
X31812Y-12617D01*
X31827Y-12632D01*
X31842Y-12662D01*
X31842Y-12752D01*
X31827Y-12782D01*
X31812Y-12797D01*
X31842Y-12302D02*
X31842Y-12482D01*
X31842Y-12392D02*
X31527Y-12392D01*
X31572Y-12422D01*
X31602Y-12452D01*
X31617Y-12482D01*
X35112Y-15002D02*
X35127Y-15017D01*
X35142Y-15062D01*
X35142Y-15092D01*
X35127Y-15137D01*
X35097Y-15167D01*
X35067Y-15182D01*
X35007Y-15197D01*
X34962Y-15197D01*
X34902Y-15182D01*
X34872Y-15167D01*
X34842Y-15137D01*
X34827Y-15092D01*
X34827Y-15062D01*
X34842Y-15017D01*
X34857Y-15002D01*
X34827Y-14897D02*
X34827Y-14702D01*
X34947Y-14807D01*
X34947Y-14762D01*
X34962Y-14732D01*
X34977Y-14717D01*
X35007Y-14702D01*
X35082Y-14702D01*
X35112Y-14717D01*
X35127Y-14732D01*
X35142Y-14762D01*
X35142Y-14852D01*
X35127Y-14882D01*
X35112Y-14897D01*
X34857Y-14582D02*
X34842Y-14567D01*
X34827Y-14537D01*
X34827Y-14462D01*
X34842Y-14432D01*
X34857Y-14417D01*
X34887Y-14402D01*
X34917Y-14402D01*
X34962Y-14417D01*
X35142Y-14597D01*
X35142Y-14402D01*
X31142Y-20952D02*
X31142Y-21102D01*
X30827Y-21102D01*
X30962Y-20802D02*
X30947Y-20832D01*
X30932Y-20847D01*
X30902Y-20862D01*
X30887Y-20862D01*
X30857Y-20847D01*
X30842Y-20832D01*
X30827Y-20802D01*
X30827Y-20742D01*
X30842Y-20712D01*
X30857Y-20697D01*
X30887Y-20682D01*
X30902Y-20682D01*
X30932Y-20697D01*
X30947Y-20712D01*
X30962Y-20742D01*
X30962Y-20802D01*
X30977Y-20832D01*
X30992Y-20847D01*
X31022Y-20862D01*
X31082Y-20862D01*
X31112Y-20847D01*
X31127Y-20832D01*
X31142Y-20802D01*
X31142Y-20742D01*
X31127Y-20712D01*
X31112Y-20697D01*
X31082Y-20682D01*
X31022Y-20682D01*
X30992Y-20697D01*
X30977Y-20712D01*
X30962Y-20742D01*
X39812Y-15102D02*
X39827Y-15117D01*
X39842Y-15162D01*
X39842Y-15192D01*
X39827Y-15237D01*
X39797Y-15267D01*
X39767Y-15282D01*
X39707Y-15297D01*
X39662Y-15297D01*
X39602Y-15282D01*
X39572Y-15267D01*
X39542Y-15237D01*
X39527Y-15192D01*
X39527Y-15162D01*
X39542Y-15117D01*
X39557Y-15102D01*
X39527Y-14997D02*
X39527Y-14802D01*
X39647Y-14907D01*
X39647Y-14862D01*
X39662Y-14832D01*
X39677Y-14817D01*
X39707Y-14802D01*
X39782Y-14802D01*
X39812Y-14817D01*
X39827Y-14832D01*
X39842Y-14862D01*
X39842Y-14952D01*
X39827Y-14982D01*
X39812Y-14997D01*
X39527Y-14517D02*
X39527Y-14667D01*
X39677Y-14682D01*
X39662Y-14667D01*
X39647Y-14637D01*
X39647Y-14562D01*
X39662Y-14532D01*
X39677Y-14517D01*
X39707Y-14502D01*
X39782Y-14502D01*
X39812Y-14517D01*
X39827Y-14532D01*
X39842Y-14562D01*
X39842Y-14637D01*
X39827Y-14667D01*
X39812Y-14682D01*
X39012Y-15102D02*
X39027Y-15117D01*
X39042Y-15162D01*
X39042Y-15192D01*
X39027Y-15237D01*
X38997Y-15267D01*
X38967Y-15282D01*
X38907Y-15297D01*
X38862Y-15297D01*
X38802Y-15282D01*
X38772Y-15267D01*
X38742Y-15237D01*
X38727Y-15192D01*
X38727Y-15162D01*
X38742Y-15117D01*
X38757Y-15102D01*
X38727Y-14997D02*
X38727Y-14802D01*
X38847Y-14907D01*
X38847Y-14862D01*
X38862Y-14832D01*
X38877Y-14817D01*
X38907Y-14802D01*
X38982Y-14802D01*
X39012Y-14817D01*
X39027Y-14832D01*
X39042Y-14862D01*
X39042Y-14952D01*
X39027Y-14982D01*
X39012Y-14997D01*
X38727Y-14532D02*
X38727Y-14592D01*
X38742Y-14622D01*
X38757Y-14637D01*
X38802Y-14667D01*
X38862Y-14682D01*
X38982Y-14682D01*
X39012Y-14667D01*
X39027Y-14652D01*
X39042Y-14622D01*
X39042Y-14562D01*
X39027Y-14532D01*
X39012Y-14517D01*
X38982Y-14502D01*
X38907Y-14502D01*
X38877Y-14517D01*
X38862Y-14532D01*
X38847Y-14562D01*
X38847Y-14622D01*
X38862Y-14652D01*
X38877Y-14667D01*
X38907Y-14682D01*
X41992Y-9252D02*
X41992Y-9402D01*
X41677Y-9402D01*
X41992Y-9132D02*
X41992Y-9072D01*
X41977Y-9042D01*
X41962Y-9027D01*
X41917Y-8997D01*
X41857Y-8982D01*
X41737Y-8982D01*
X41707Y-8997D01*
X41692Y-9012D01*
X41677Y-9042D01*
X41677Y-9102D01*
X41692Y-9132D01*
X41707Y-9147D01*
X41737Y-9162D01*
X41812Y-9162D01*
X41842Y-9147D01*
X41857Y-9132D01*
X41872Y-9102D01*
X41872Y-9042D01*
X41857Y-9012D01*
X41842Y-8997D01*
X41812Y-8982D01*
X32420Y-16172D02*
X32390Y-16157D01*
X32360Y-16127D01*
X32315Y-16082D01*
X32285Y-16067D01*
X32255Y-16067D01*
X32270Y-16142D02*
X32240Y-16127D01*
X32210Y-16097D01*
X32195Y-16037D01*
X32195Y-15932D01*
X32210Y-15872D01*
X32240Y-15842D01*
X32270Y-15827D01*
X32330Y-15827D01*
X32360Y-15842D01*
X32390Y-15872D01*
X32405Y-15932D01*
X32405Y-16037D01*
X32390Y-16097D01*
X32360Y-16127D01*
X32330Y-16142D01*
X32270Y-16142D01*
X32704Y-16142D02*
X32524Y-16142D01*
X32614Y-16142D02*
X32614Y-15827D01*
X32584Y-15872D01*
X32554Y-15902D01*
X32524Y-15917D01*
X29372Y-13029D02*
X29357Y-13059D01*
X29327Y-13089D01*
X29282Y-13134D01*
X29267Y-13164D01*
X29267Y-13194D01*
X29342Y-13179D02*
X29327Y-13209D01*
X29297Y-13239D01*
X29237Y-13254D01*
X29132Y-13254D01*
X29072Y-13239D01*
X29042Y-13209D01*
X29027Y-13179D01*
X29027Y-13119D01*
X29042Y-13089D01*
X29072Y-13059D01*
X29132Y-13044D01*
X29237Y-13044D01*
X29297Y-13059D01*
X29327Y-13089D01*
X29342Y-13119D01*
X29342Y-13179D01*
X29057Y-12925D02*
X29042Y-12910D01*
X29027Y-12880D01*
X29027Y-12805D01*
X29042Y-12775D01*
X29057Y-12760D01*
X29087Y-12745D01*
X29117Y-12745D01*
X29162Y-12760D01*
X29342Y-12940D01*
X29342Y-12745D01*
X29285Y-25074D02*
X28970Y-25074D01*
X28970Y-24999D01*
X28985Y-24954D01*
X29015Y-24924D01*
X29045Y-24909D01*
X29105Y-24894D01*
X29150Y-24894D01*
X29210Y-24909D01*
X29240Y-24924D01*
X29270Y-24954D01*
X29285Y-24999D01*
X29285Y-25074D01*
X29000Y-24774D02*
X28985Y-24759D01*
X28970Y-24729D01*
X28970Y-24654D01*
X28985Y-24624D01*
X29000Y-24609D01*
X29030Y-24594D01*
X29060Y-24594D01*
X29105Y-24609D01*
X29285Y-24789D01*
X29285Y-24594D01*
X54947Y-27612D02*
X54932Y-27627D01*
X54887Y-27642D01*
X54857Y-27642D01*
X54812Y-27627D01*
X54782Y-27597D01*
X54767Y-27567D01*
X54752Y-27507D01*
X54752Y-27462D01*
X54767Y-27402D01*
X54782Y-27372D01*
X54812Y-27342D01*
X54857Y-27327D01*
X54887Y-27327D01*
X54932Y-27342D01*
X54947Y-27357D01*
X55217Y-27432D02*
X55217Y-27642D01*
X55142Y-27312D02*
X55067Y-27537D01*
X55262Y-27537D01*
X56147Y-17542D02*
X56042Y-17392D01*
X55967Y-17542D02*
X55967Y-17227D01*
X56087Y-17227D01*
X56117Y-17242D01*
X56132Y-17257D01*
X56147Y-17287D01*
X56147Y-17332D01*
X56132Y-17362D01*
X56117Y-17377D01*
X56087Y-17392D01*
X55967Y-17392D01*
X56252Y-17227D02*
X56447Y-17227D01*
X56342Y-17347D01*
X56387Y-17347D01*
X56417Y-17362D01*
X56432Y-17377D01*
X56447Y-17407D01*
X56447Y-17482D01*
X56432Y-17512D01*
X56417Y-17527D01*
X56387Y-17542D01*
X56297Y-17542D01*
X56267Y-17527D01*
X56252Y-17512D01*
X56097Y-18242D02*
X55992Y-18092D01*
X55917Y-18242D02*
X55917Y-17927D01*
X56037Y-17927D01*
X56067Y-17942D01*
X56082Y-17957D01*
X56097Y-17987D01*
X56097Y-18032D01*
X56082Y-18062D01*
X56067Y-18077D01*
X56037Y-18092D01*
X55917Y-18092D01*
X56397Y-18242D02*
X56217Y-18242D01*
X56307Y-18242D02*
X56307Y-17927D01*
X56277Y-17972D01*
X56247Y-18002D01*
X56217Y-18017D01*
X56667Y-18032D02*
X56667Y-18242D01*
X56592Y-17912D02*
X56517Y-18137D01*
X56712Y-18137D01*
X51997Y-20912D02*
X51982Y-20927D01*
X51937Y-20942D01*
X51907Y-20942D01*
X51862Y-20927D01*
X51832Y-20897D01*
X51817Y-20867D01*
X51802Y-20807D01*
X51802Y-20762D01*
X51817Y-20702D01*
X51832Y-20672D01*
X51862Y-20642D01*
X51907Y-20627D01*
X51937Y-20627D01*
X51982Y-20642D01*
X51997Y-20657D01*
X52282Y-20627D02*
X52132Y-20627D01*
X52117Y-20777D01*
X52132Y-20762D01*
X52162Y-20747D01*
X52237Y-20747D01*
X52267Y-20762D01*
X52282Y-20777D01*
X52297Y-20807D01*
X52297Y-20882D01*
X52282Y-20912D01*
X52267Y-20927D01*
X52237Y-20942D01*
X52162Y-20942D01*
X52132Y-20927D01*
X52117Y-20912D01*
X50897Y-17012D02*
X50882Y-17027D01*
X50837Y-17042D01*
X50807Y-17042D01*
X50762Y-17027D01*
X50732Y-16997D01*
X50717Y-16967D01*
X50702Y-16907D01*
X50702Y-16862D01*
X50717Y-16802D01*
X50732Y-16772D01*
X50762Y-16742D01*
X50807Y-16727D01*
X50837Y-16727D01*
X50882Y-16742D01*
X50897Y-16757D01*
X51002Y-16727D02*
X51197Y-16727D01*
X51092Y-16847D01*
X51137Y-16847D01*
X51167Y-16862D01*
X51182Y-16877D01*
X51197Y-16907D01*
X51197Y-16982D01*
X51182Y-17012D01*
X51167Y-17027D01*
X51137Y-17042D01*
X51047Y-17042D01*
X51017Y-17027D01*
X51002Y-17012D01*
X51302Y-16727D02*
X51497Y-16727D01*
X51392Y-16847D01*
X51437Y-16847D01*
X51467Y-16862D01*
X51482Y-16877D01*
X51497Y-16907D01*
X51497Y-16982D01*
X51482Y-17012D01*
X51467Y-17027D01*
X51437Y-17042D01*
X51347Y-17042D01*
X51317Y-17027D01*
X51302Y-17012D01*
X52247Y-17012D02*
X52232Y-17027D01*
X52187Y-17042D01*
X52157Y-17042D01*
X52112Y-17027D01*
X52082Y-16997D01*
X52067Y-16967D01*
X52052Y-16907D01*
X52052Y-16862D01*
X52067Y-16802D01*
X52082Y-16772D01*
X52112Y-16742D01*
X52157Y-16727D01*
X52187Y-16727D01*
X52232Y-16742D01*
X52247Y-16757D01*
X52352Y-16727D02*
X52547Y-16727D01*
X52442Y-16847D01*
X52487Y-16847D01*
X52517Y-16862D01*
X52532Y-16877D01*
X52547Y-16907D01*
X52547Y-16982D01*
X52532Y-17012D01*
X52517Y-17027D01*
X52487Y-17042D01*
X52397Y-17042D01*
X52367Y-17027D01*
X52352Y-17012D01*
X52817Y-16832D02*
X52817Y-17042D01*
X52742Y-16712D02*
X52667Y-16937D01*
X52862Y-16937D01*
X37842Y-17882D02*
X37527Y-17882D01*
X37527Y-17807D01*
X37542Y-17762D01*
X37572Y-17732D01*
X37602Y-17717D01*
X37662Y-17702D01*
X37707Y-17702D01*
X37767Y-17717D01*
X37797Y-17732D01*
X37827Y-17762D01*
X37842Y-17807D01*
X37842Y-17882D01*
X37842Y-17402D02*
X37842Y-17582D01*
X37842Y-17492D02*
X37527Y-17492D01*
X37572Y-17522D01*
X37602Y-17552D01*
X37617Y-17582D01*
X37557Y-17282D02*
X37542Y-17267D01*
X37527Y-17237D01*
X37527Y-17162D01*
X37542Y-17132D01*
X37557Y-17117D01*
X37587Y-17102D01*
X37617Y-17102D01*
X37662Y-17117D01*
X37842Y-17297D01*
X37842Y-17102D01*
X46542Y-26602D02*
X46392Y-26707D01*
X46542Y-26782D02*
X46227Y-26782D01*
X46227Y-26662D01*
X46242Y-26632D01*
X46257Y-26617D01*
X46287Y-26602D01*
X46332Y-26602D01*
X46362Y-26617D01*
X46377Y-26632D01*
X46392Y-26662D01*
X46392Y-26782D01*
X46542Y-26302D02*
X46542Y-26482D01*
X46542Y-26392D02*
X46227Y-26392D01*
X46272Y-26422D01*
X46302Y-26452D01*
X46317Y-26482D01*
X46542Y-26002D02*
X46542Y-26182D01*
X46542Y-26092D02*
X46227Y-26092D01*
X46272Y-26122D01*
X46302Y-26152D01*
X46317Y-26182D01*
X35497Y-24042D02*
X35392Y-23892D01*
X35317Y-24042D02*
X35317Y-23727D01*
X35437Y-23727D01*
X35467Y-23742D01*
X35482Y-23757D01*
X35497Y-23787D01*
X35497Y-23832D01*
X35482Y-23862D01*
X35467Y-23877D01*
X35437Y-23892D01*
X35317Y-23892D01*
X35617Y-23757D02*
X35632Y-23742D01*
X35662Y-23727D01*
X35737Y-23727D01*
X35767Y-23742D01*
X35782Y-23757D01*
X35797Y-23787D01*
X35797Y-23817D01*
X35782Y-23862D01*
X35602Y-24042D01*
X35797Y-24042D01*
X35917Y-23757D02*
X35932Y-23742D01*
X35962Y-23727D01*
X36037Y-23727D01*
X36067Y-23742D01*
X36082Y-23757D01*
X36097Y-23787D01*
X36097Y-23817D01*
X36082Y-23862D01*
X35902Y-24042D01*
X36097Y-24042D01*
X34997Y-26742D02*
X34892Y-26592D01*
X34817Y-26742D02*
X34817Y-26427D01*
X34937Y-26427D01*
X34967Y-26442D01*
X34982Y-26457D01*
X34997Y-26487D01*
X34997Y-26532D01*
X34982Y-26562D01*
X34967Y-26577D01*
X34937Y-26592D01*
X34817Y-26592D01*
X35117Y-26457D02*
X35132Y-26442D01*
X35162Y-26427D01*
X35237Y-26427D01*
X35267Y-26442D01*
X35282Y-26457D01*
X35297Y-26487D01*
X35297Y-26517D01*
X35282Y-26562D01*
X35102Y-26742D01*
X35297Y-26742D01*
X35582Y-26427D02*
X35432Y-26427D01*
X35417Y-26577D01*
X35432Y-26562D01*
X35462Y-26547D01*
X35537Y-26547D01*
X35567Y-26562D01*
X35582Y-26577D01*
X35597Y-26607D01*
X35597Y-26682D01*
X35582Y-26712D01*
X35567Y-26727D01*
X35537Y-26742D01*
X35462Y-26742D01*
X35432Y-26727D01*
X35417Y-26712D01*
X32742Y-11252D02*
X32592Y-11357D01*
X32742Y-11432D02*
X32427Y-11432D01*
X32427Y-11312D01*
X32442Y-11282D01*
X32457Y-11267D01*
X32487Y-11252D01*
X32532Y-11252D01*
X32562Y-11267D01*
X32577Y-11282D01*
X32592Y-11312D01*
X32592Y-11432D01*
X32427Y-11147D02*
X32427Y-10952D01*
X32547Y-11057D01*
X32547Y-11012D01*
X32562Y-10982D01*
X32577Y-10967D01*
X32607Y-10952D01*
X32682Y-10952D01*
X32712Y-10967D01*
X32727Y-10982D01*
X32742Y-11012D01*
X32742Y-11102D01*
X32727Y-11132D01*
X32712Y-11147D01*
X32427Y-10757D02*
X32427Y-10727D01*
X32442Y-10697D01*
X32457Y-10682D01*
X32487Y-10667D01*
X32547Y-10652D01*
X32622Y-10652D01*
X32682Y-10667D01*
X32712Y-10682D01*
X32727Y-10697D01*
X32742Y-10727D01*
X32742Y-10757D01*
X32727Y-10787D01*
X32712Y-10802D01*
X32682Y-10817D01*
X32622Y-10832D01*
X32547Y-10832D01*
X32487Y-10817D01*
X32457Y-10802D01*
X32442Y-10787D01*
X32427Y-10757D01*
X39942Y-26332D02*
X39627Y-26332D01*
X39627Y-26257D01*
X39642Y-26212D01*
X39672Y-26182D01*
X39702Y-26167D01*
X39762Y-26152D01*
X39807Y-26152D01*
X39867Y-26167D01*
X39897Y-26182D01*
X39927Y-26212D01*
X39942Y-26257D01*
X39942Y-26332D01*
X39732Y-25882D02*
X39942Y-25882D01*
X39612Y-25957D02*
X39837Y-26032D01*
X39837Y-25837D01*
G54D10*
X39533Y-27553D02*
X39533Y-27366D01*
X39646Y-27591D02*
X39252Y-27460D01*
X39646Y-27328D01*
X39646Y-25122D02*
X39252Y-25122D01*
X39646Y-24897D02*
X39421Y-25065D01*
X39252Y-24897D02*
X39477Y-25122D01*
G54D11*
X50860Y-30627D02*
X50860Y-30882D01*
X50875Y-30912D01*
X50890Y-30927D01*
X50920Y-30942D01*
X50980Y-30942D01*
X51010Y-30927D01*
X51025Y-30912D01*
X51040Y-30882D01*
X51040Y-30627D01*
X51324Y-30732D02*
X51324Y-30942D01*
X51249Y-30612D02*
X51174Y-30837D01*
X51369Y-30837D01*
X57812Y-10527D02*
X57707Y-10527D01*
X57707Y-10692D02*
X57707Y-10377D01*
X57857Y-10377D01*
X57977Y-10692D02*
X57977Y-10377D01*
X58127Y-10692D02*
X58127Y-10377D01*
X58202Y-10377D01*
X58247Y-10392D01*
X58277Y-10422D01*
X58292Y-10452D01*
X58307Y-10512D01*
X58307Y-10557D01*
X58292Y-10617D01*
X58277Y-10647D01*
X58247Y-10677D01*
X58202Y-10692D01*
X58127Y-10692D01*
X58427Y-10407D02*
X58442Y-10392D01*
X58472Y-10377D01*
X58547Y-10377D01*
X58577Y-10392D01*
X58592Y-10407D01*
X58607Y-10437D01*
X58607Y-10467D01*
X58592Y-10512D01*
X58412Y-10692D01*
X58607Y-10692D01*
X25412Y-25127D02*
X25307Y-25127D01*
X25307Y-25292D02*
X25307Y-24977D01*
X25457Y-24977D01*
X25577Y-25292D02*
X25577Y-24977D01*
X25727Y-25292D02*
X25727Y-24977D01*
X25802Y-24977D01*
X25847Y-24992D01*
X25877Y-25022D01*
X25892Y-25052D01*
X25907Y-25112D01*
X25907Y-25157D01*
X25892Y-25217D01*
X25877Y-25247D01*
X25847Y-25277D01*
X25802Y-25292D01*
X25727Y-25292D01*
X26012Y-24977D02*
X26207Y-24977D01*
X26102Y-25097D01*
X26147Y-25097D01*
X26177Y-25112D01*
X26192Y-25127D01*
X26207Y-25157D01*
X26207Y-25232D01*
X26192Y-25262D01*
X26177Y-25277D01*
X26147Y-25292D01*
X26057Y-25292D01*
X26027Y-25277D01*
X26012Y-25262D01*
X23360Y-27142D02*
X23360Y-26827D01*
X23360Y-26977D02*
X23540Y-26977D01*
X23540Y-27142D02*
X23540Y-26827D01*
X23854Y-27142D02*
X23674Y-27142D01*
X23764Y-27142D02*
X23764Y-26827D01*
X23734Y-26872D01*
X23704Y-26902D01*
X23674Y-26917D01*
X23360Y-10842D02*
X23360Y-10527D01*
X23360Y-10677D02*
X23540Y-10677D01*
X23540Y-10842D02*
X23540Y-10527D01*
X23674Y-10557D02*
X23689Y-10542D01*
X23719Y-10527D01*
X23794Y-10527D01*
X23824Y-10542D01*
X23839Y-10557D01*
X23854Y-10587D01*
X23854Y-10617D01*
X23839Y-10662D01*
X23659Y-10842D01*
X23854Y-10842D01*
X62960Y-27042D02*
X62960Y-26727D01*
X62960Y-26877D02*
X63140Y-26877D01*
X63140Y-27042D02*
X63140Y-26727D01*
X63259Y-26727D02*
X63454Y-26727D01*
X63349Y-26847D01*
X63394Y-26847D01*
X63424Y-26862D01*
X63439Y-26877D01*
X63454Y-26907D01*
X63454Y-26982D01*
X63439Y-27012D01*
X63424Y-27027D01*
X63394Y-27042D01*
X63304Y-27042D01*
X63274Y-27027D01*
X63259Y-27012D01*
X53742Y-15832D02*
X53427Y-15832D01*
X53742Y-15652D02*
X53562Y-15787D01*
X53427Y-15652D02*
X53607Y-15832D01*
X53532Y-15382D02*
X53742Y-15382D01*
X53412Y-15457D02*
X53637Y-15532D01*
X53637Y-15337D01*
X63060Y-10942D02*
X63060Y-10627D01*
X63060Y-10777D02*
X63240Y-10777D01*
X63240Y-10942D02*
X63240Y-10627D01*
X63524Y-10732D02*
X63524Y-10942D01*
X63449Y-10612D02*
X63374Y-10837D01*
X63569Y-10837D01*
X47442Y-32832D02*
X47127Y-32832D01*
X47442Y-32652D02*
X47262Y-32787D01*
X47127Y-32652D02*
X47307Y-32832D01*
X47442Y-32352D02*
X47442Y-32532D01*
X47442Y-32442D02*
X47127Y-32442D01*
X47172Y-32472D01*
X47202Y-32502D01*
X47217Y-32532D01*
X58842Y-32732D02*
X58527Y-32732D01*
X58842Y-32552D02*
X58662Y-32687D01*
X58527Y-32552D02*
X58707Y-32732D01*
X58557Y-32432D02*
X58542Y-32417D01*
X58527Y-32387D01*
X58527Y-32312D01*
X58542Y-32282D01*
X58557Y-32267D01*
X58587Y-32252D01*
X58617Y-32252D01*
X58662Y-32267D01*
X58842Y-32447D01*
X58842Y-32252D01*
X64542Y-32832D02*
X64227Y-32832D01*
X64542Y-32652D02*
X64362Y-32787D01*
X64227Y-32652D02*
X64407Y-32832D01*
X64227Y-32547D02*
X64227Y-32352D01*
X64347Y-32457D01*
X64347Y-32412D01*
X64362Y-32382D01*
X64377Y-32367D01*
X64407Y-32352D01*
X64482Y-32352D01*
X64512Y-32367D01*
X64527Y-32382D01*
X64542Y-32412D01*
X64542Y-32502D01*
X64527Y-32532D01*
X64512Y-32547D01*
G54D10*
G36*
X25601Y-21651D02*
X22898Y-21651D01*
X22898Y-17548D01*
X25601Y-17548D01*
X25601Y-21651D01*
X25601Y-21651D01*
G37*
G54D22*
X25601Y-21651D02*
X22898Y-21651D01*
X22898Y-17548D01*
X25601Y-17548D01*
X25601Y-21651D01*
M02*
