%FSLAX34Y34*%
G04 Gerber Fmt 3.4, Leading zero omitted, Abs format*
G04 (created by PCBNEW (2014-03-19 BZR 4756)-product) date Mon 28 Jul 2014 09:33:57 AM AKDT*
%MOIN*%
G01*
G70*
G90*
G04 APERTURE LIST*
%ADD10C,0.005906*%
%ADD11C,0.007874*%
%ADD12C,0.006890*%
%ADD13C,0.009843*%
%ADD14C,0.011811*%
%ADD15C,0.005000*%
%ADD16C,0.008000*%
%ADD17C,0.002600*%
%ADD18C,0.004000*%
%ADD19C,0.002000*%
%ADD20C,0.010000*%
%ADD21C,0.015000*%
%ADD22C,0.012000*%
%ADD23C,0.019685*%
G04 APERTURE END LIST*
G54D10*
G54D11*
X22500Y-34300D02*
X22500Y-11000D01*
X23700Y-34300D02*
X22500Y-34300D01*
X23700Y-35500D02*
X23700Y-34300D01*
X28800Y-35500D02*
X23700Y-35500D01*
X28800Y-34300D02*
X28800Y-35500D01*
X36700Y-34300D02*
X28800Y-34300D01*
X36700Y-35500D02*
X36700Y-34300D01*
X62400Y-35500D02*
X36700Y-35500D01*
X62400Y-34300D02*
X62400Y-35500D01*
X63600Y-34300D02*
X62400Y-34300D01*
X63600Y-11000D02*
X63600Y-34300D01*
X62400Y-11000D02*
X63600Y-11000D01*
X62400Y-9800D02*
X62400Y-11000D01*
X23700Y-9800D02*
X62400Y-9800D01*
X23700Y-11000D02*
X23700Y-9800D01*
X22500Y-11000D02*
X23700Y-11000D01*
G54D12*
X44147Y-11049D02*
X44016Y-11049D01*
X44003Y-11180D01*
X44016Y-11167D01*
X44042Y-11154D01*
X44108Y-11154D01*
X44134Y-11167D01*
X44147Y-11180D01*
X44160Y-11206D01*
X44160Y-11272D01*
X44147Y-11298D01*
X44134Y-11311D01*
X44108Y-11324D01*
X44042Y-11324D01*
X44016Y-11311D01*
X44003Y-11298D01*
X44239Y-11049D02*
X44331Y-11324D01*
X44423Y-11049D01*
G54D11*
X61500Y-32700D02*
G75*
G03X61500Y-32700I-700J0D01*
G74*
G01*
X26015Y-32700D02*
G75*
G03X26015Y-32700I-715J0D01*
G74*
G01*
X26000Y-12600D02*
G75*
G03X26000Y-12600I-700J0D01*
G74*
G01*
G54D13*
X60628Y-30468D02*
X60234Y-30468D01*
X60421Y-30468D02*
X60421Y-30243D01*
X60628Y-30243D02*
X60234Y-30243D01*
X60234Y-30112D02*
X60628Y-29981D01*
X60234Y-29849D01*
X60628Y-29418D02*
X60234Y-29418D01*
X60515Y-29287D01*
X60234Y-29156D01*
X60628Y-29156D01*
X60234Y-28893D02*
X60234Y-28818D01*
X60253Y-28781D01*
X60290Y-28743D01*
X60365Y-28725D01*
X60496Y-28725D01*
X60571Y-28743D01*
X60609Y-28781D01*
X60628Y-28818D01*
X60628Y-28893D01*
X60609Y-28931D01*
X60571Y-28968D01*
X60496Y-28987D01*
X60365Y-28987D01*
X60290Y-28968D01*
X60253Y-28931D01*
X60234Y-28893D01*
X60628Y-28556D02*
X60234Y-28556D01*
X60628Y-28331D01*
X60234Y-28331D01*
G54D11*
X41311Y-32900D02*
G75*
G03X41311Y-32900I-111J0D01*
G74*
G01*
X39800Y-21350D02*
X39800Y-21850D01*
X63500Y-26150D02*
X62400Y-27250D01*
X62400Y-27250D02*
X62400Y-27200D01*
X55750Y-27250D02*
X62400Y-27250D01*
X54950Y-26450D02*
X55750Y-27250D01*
X48800Y-26450D02*
X54950Y-26450D01*
X46150Y-23800D02*
X48800Y-26450D01*
X38750Y-23800D02*
X46150Y-23800D01*
X38000Y-23050D02*
X38750Y-23800D01*
X38000Y-21700D02*
X38000Y-23050D01*
X39000Y-20700D02*
X38000Y-21700D01*
X40000Y-19700D02*
X39000Y-20700D01*
X41700Y-19700D02*
X40000Y-19700D01*
X42900Y-19700D02*
X41700Y-19700D01*
X44600Y-19700D02*
X42900Y-19700D01*
X45250Y-19050D02*
X44600Y-19700D01*
X49300Y-19050D02*
X45250Y-19050D01*
X50050Y-18300D02*
X49300Y-19050D01*
X50050Y-13250D02*
X50050Y-18300D01*
X50150Y-13100D02*
X50050Y-13200D01*
X50350Y-12900D02*
X50150Y-13100D01*
X50750Y-12500D02*
X50350Y-12900D01*
X53050Y-10200D02*
X50750Y-12500D01*
X61600Y-10200D02*
X53050Y-10200D01*
X63500Y-12100D02*
X63500Y-26100D01*
X63400Y-12000D02*
X63500Y-12100D01*
X61600Y-10200D02*
X63400Y-12000D01*
G54D12*
X40829Y-12924D02*
X40671Y-12924D01*
X40750Y-12924D02*
X40750Y-12649D01*
X40724Y-12688D01*
X40698Y-12714D01*
X40671Y-12727D01*
X40934Y-12675D02*
X40947Y-12662D01*
X40973Y-12649D01*
X41039Y-12649D01*
X41065Y-12662D01*
X41078Y-12675D01*
X41091Y-12701D01*
X41091Y-12727D01*
X41078Y-12767D01*
X40921Y-12924D01*
X41091Y-12924D01*
X41170Y-12649D02*
X41262Y-12924D01*
X41354Y-12649D01*
G54D11*
X43750Y-21550D02*
X43750Y-21875D01*
X52403Y-21500D02*
G75*
G03X52403Y-21500I-103J0D01*
G74*
G01*
X32690Y-29550D02*
G75*
G03X32690Y-29550I-90J0D01*
G74*
G01*
G54D14*
X58303Y-11004D02*
X58443Y-11594D01*
X58556Y-11172D01*
X58668Y-11594D01*
X58809Y-11004D01*
X59006Y-11425D02*
X59287Y-11425D01*
X58950Y-11594D02*
X59147Y-11004D01*
X59343Y-11594D01*
X59878Y-11594D02*
X59681Y-11313D01*
X59540Y-11594D02*
X59540Y-11004D01*
X59765Y-11004D01*
X59821Y-11032D01*
X59850Y-11060D01*
X59878Y-11116D01*
X59878Y-11201D01*
X59850Y-11257D01*
X59821Y-11285D01*
X59765Y-11313D01*
X59540Y-11313D01*
X60131Y-11594D02*
X60131Y-11004D01*
X60468Y-11594D01*
X60468Y-11004D01*
X60749Y-11594D02*
X60749Y-11004D01*
X61031Y-11594D02*
X61031Y-11004D01*
X61368Y-11594D01*
X61368Y-11004D01*
X61959Y-11032D02*
X61902Y-11004D01*
X61818Y-11004D01*
X61734Y-11032D01*
X61677Y-11088D01*
X61649Y-11144D01*
X61621Y-11257D01*
X61621Y-11341D01*
X61649Y-11454D01*
X61677Y-11510D01*
X61734Y-11566D01*
X61818Y-11594D01*
X61874Y-11594D01*
X61959Y-11566D01*
X61987Y-11538D01*
X61987Y-11341D01*
X61874Y-11341D01*
X62240Y-11538D02*
X62268Y-11566D01*
X62240Y-11594D01*
X62212Y-11566D01*
X62240Y-11538D01*
X62240Y-11594D01*
X62240Y-11229D02*
X62268Y-11257D01*
X62240Y-11285D01*
X62212Y-11257D01*
X62240Y-11229D01*
X62240Y-11285D01*
X59596Y-12145D02*
X59596Y-12539D01*
X59456Y-11920D02*
X59315Y-12342D01*
X59681Y-12342D01*
X60018Y-11949D02*
X60075Y-11949D01*
X60131Y-11977D01*
X60159Y-12005D01*
X60187Y-12061D01*
X60215Y-12174D01*
X60215Y-12314D01*
X60187Y-12427D01*
X60159Y-12483D01*
X60131Y-12511D01*
X60075Y-12539D01*
X60018Y-12539D01*
X59962Y-12511D01*
X59934Y-12483D01*
X59906Y-12427D01*
X59878Y-12314D01*
X59878Y-12174D01*
X59906Y-12061D01*
X59934Y-12005D01*
X59962Y-11977D01*
X60018Y-11949D01*
X60581Y-11949D02*
X60637Y-11949D01*
X60693Y-11977D01*
X60721Y-12005D01*
X60749Y-12061D01*
X60778Y-12174D01*
X60778Y-12314D01*
X60749Y-12427D01*
X60721Y-12483D01*
X60693Y-12511D01*
X60637Y-12539D01*
X60581Y-12539D01*
X60524Y-12511D01*
X60496Y-12483D01*
X60468Y-12427D01*
X60440Y-12314D01*
X60440Y-12174D01*
X60468Y-12061D01*
X60496Y-12005D01*
X60524Y-11977D01*
X60581Y-11949D01*
X60946Y-11949D02*
X61143Y-12539D01*
X61340Y-11949D01*
X28525Y-10698D02*
X28806Y-10698D01*
X28468Y-10867D02*
X28665Y-10276D01*
X28862Y-10867D01*
X29059Y-10867D02*
X29059Y-10276D01*
X29396Y-10867D01*
X29396Y-10276D01*
X29593Y-10276D02*
X29931Y-10276D01*
X29762Y-10867D02*
X29762Y-10276D01*
X23050Y-25226D02*
X23387Y-25226D01*
X23218Y-25817D02*
X23218Y-25226D01*
X23528Y-25226D02*
X23921Y-25817D01*
X23921Y-25226D02*
X23528Y-25817D01*
X55601Y-34517D02*
X55404Y-34235D01*
X55264Y-34517D02*
X55264Y-33926D01*
X55489Y-33926D01*
X55545Y-33954D01*
X55573Y-33982D01*
X55601Y-34039D01*
X55601Y-34123D01*
X55573Y-34179D01*
X55545Y-34207D01*
X55489Y-34235D01*
X55264Y-34235D01*
X55798Y-33926D02*
X56192Y-34517D01*
X56192Y-33926D02*
X55798Y-34517D01*
X32196Y-31985D02*
X31953Y-32155D01*
X32196Y-32277D02*
X31685Y-32277D01*
X31685Y-32082D01*
X31709Y-32034D01*
X31733Y-32009D01*
X31782Y-31985D01*
X31855Y-31985D01*
X31904Y-32009D01*
X31928Y-32034D01*
X31953Y-32082D01*
X31953Y-32277D01*
X31685Y-31814D02*
X32196Y-31473D01*
X31685Y-31473D02*
X32196Y-31814D01*
X32519Y-32143D02*
X32519Y-32094D01*
X32544Y-32046D01*
X32568Y-32021D01*
X32617Y-31997D01*
X32714Y-31973D01*
X32836Y-31973D01*
X32934Y-31997D01*
X32982Y-32021D01*
X33007Y-32046D01*
X33031Y-32094D01*
X33031Y-32143D01*
X33007Y-32192D01*
X32982Y-32216D01*
X32934Y-32241D01*
X32836Y-32265D01*
X32714Y-32265D01*
X32617Y-32241D01*
X32568Y-32216D01*
X32544Y-32192D01*
X32519Y-32143D01*
X32519Y-31826D02*
X33031Y-31656D01*
X32519Y-31485D01*
X33354Y-32289D02*
X33354Y-31997D01*
X33866Y-32143D02*
X33354Y-32143D01*
X33354Y-31875D02*
X33866Y-31534D01*
X33354Y-31534D02*
X33866Y-31875D01*
X44087Y-30859D02*
X44425Y-30859D01*
X44256Y-31449D02*
X44256Y-30859D01*
X45043Y-30831D02*
X44537Y-31590D01*
X45578Y-31449D02*
X45381Y-31168D01*
X45240Y-31449D02*
X45240Y-30859D01*
X45465Y-30859D01*
X45521Y-30887D01*
X45550Y-30915D01*
X45578Y-30971D01*
X45578Y-31056D01*
X45550Y-31112D01*
X45521Y-31140D01*
X45465Y-31168D01*
X45240Y-31168D01*
X46281Y-31449D02*
X46281Y-31056D01*
X46281Y-31168D02*
X46309Y-31112D01*
X46337Y-31084D01*
X46393Y-31056D01*
X46449Y-31056D01*
X46618Y-30915D02*
X46646Y-30887D01*
X46702Y-30859D01*
X46843Y-30859D01*
X46899Y-30887D01*
X46927Y-30915D01*
X46956Y-30971D01*
X46956Y-31028D01*
X46927Y-31112D01*
X46590Y-31449D01*
X46956Y-31449D01*
X44214Y-31804D02*
X44214Y-32282D01*
X44242Y-32338D01*
X44270Y-32366D01*
X44326Y-32394D01*
X44439Y-32394D01*
X44495Y-32366D01*
X44523Y-32338D01*
X44551Y-32282D01*
X44551Y-31804D01*
X44804Y-32225D02*
X45085Y-32225D01*
X44748Y-32394D02*
X44945Y-31804D01*
X45142Y-32394D01*
X45535Y-32085D02*
X45339Y-32085D01*
X45339Y-32394D02*
X45339Y-31804D01*
X45620Y-31804D01*
X46604Y-31832D02*
X46548Y-31804D01*
X46463Y-31804D01*
X46379Y-31832D01*
X46323Y-31888D01*
X46295Y-31944D01*
X46267Y-32057D01*
X46267Y-32141D01*
X46295Y-32254D01*
X46323Y-32310D01*
X46379Y-32366D01*
X46463Y-32394D01*
X46520Y-32394D01*
X46604Y-32366D01*
X46632Y-32338D01*
X46632Y-32141D01*
X46520Y-32141D01*
X46885Y-32394D02*
X46885Y-31804D01*
X43834Y-32805D02*
X43862Y-32777D01*
X43918Y-32749D01*
X44059Y-32749D01*
X44115Y-32777D01*
X44143Y-32805D01*
X44172Y-32861D01*
X44172Y-32917D01*
X44143Y-33002D01*
X43806Y-33339D01*
X44172Y-33339D01*
X44537Y-32749D02*
X44593Y-32749D01*
X44650Y-32777D01*
X44678Y-32805D01*
X44706Y-32861D01*
X44734Y-32974D01*
X44734Y-33114D01*
X44706Y-33227D01*
X44678Y-33283D01*
X44650Y-33311D01*
X44593Y-33339D01*
X44537Y-33339D01*
X44481Y-33311D01*
X44453Y-33283D01*
X44425Y-33227D01*
X44397Y-33114D01*
X44397Y-32974D01*
X44425Y-32861D01*
X44453Y-32805D01*
X44481Y-32777D01*
X44537Y-32749D01*
X45296Y-33339D02*
X44959Y-33339D01*
X45128Y-33339D02*
X45128Y-32749D01*
X45071Y-32833D01*
X45015Y-32889D01*
X44959Y-32917D01*
X45803Y-32945D02*
X45803Y-33339D01*
X45662Y-32720D02*
X45521Y-33142D01*
X45887Y-33142D01*
X46112Y-33283D02*
X46140Y-33311D01*
X46112Y-33339D01*
X46084Y-33311D01*
X46112Y-33283D01*
X46112Y-33339D01*
X46506Y-32749D02*
X46562Y-32749D01*
X46618Y-32777D01*
X46646Y-32805D01*
X46674Y-32861D01*
X46702Y-32974D01*
X46702Y-33114D01*
X46674Y-33227D01*
X46646Y-33283D01*
X46618Y-33311D01*
X46562Y-33339D01*
X46506Y-33339D01*
X46449Y-33311D01*
X46421Y-33283D01*
X46393Y-33227D01*
X46365Y-33114D01*
X46365Y-32974D01*
X46393Y-32861D01*
X46421Y-32805D01*
X46449Y-32777D01*
X46506Y-32749D01*
X46899Y-32749D02*
X47293Y-32749D01*
X47040Y-33339D01*
X43736Y-33890D02*
X43736Y-34396D01*
X43708Y-34453D01*
X43651Y-34481D01*
X43623Y-34481D01*
X43736Y-33693D02*
X43708Y-33722D01*
X43736Y-33750D01*
X43764Y-33722D01*
X43736Y-33693D01*
X43736Y-33750D01*
X44101Y-34284D02*
X44045Y-34256D01*
X44017Y-34228D01*
X43989Y-34171D01*
X43989Y-34003D01*
X44017Y-33947D01*
X44045Y-33918D01*
X44101Y-33890D01*
X44186Y-33890D01*
X44242Y-33918D01*
X44270Y-33947D01*
X44298Y-34003D01*
X44298Y-34171D01*
X44270Y-34228D01*
X44242Y-34256D01*
X44186Y-34284D01*
X44101Y-34284D01*
X44551Y-33890D02*
X44551Y-34284D01*
X44551Y-33947D02*
X44579Y-33918D01*
X44636Y-33890D01*
X44720Y-33890D01*
X44776Y-33918D01*
X44804Y-33975D01*
X44804Y-34284D01*
X45535Y-34284D02*
X45535Y-33693D01*
X45592Y-34059D02*
X45760Y-34284D01*
X45760Y-33890D02*
X45535Y-34115D01*
X46098Y-34284D02*
X46042Y-34256D01*
X46014Y-34200D01*
X46014Y-33693D01*
X46548Y-34256D02*
X46492Y-34284D01*
X46379Y-34284D01*
X46323Y-34256D01*
X46295Y-34200D01*
X46295Y-33975D01*
X46323Y-33918D01*
X46379Y-33890D01*
X46492Y-33890D01*
X46548Y-33918D01*
X46576Y-33975D01*
X46576Y-34031D01*
X46295Y-34087D01*
X46829Y-34284D02*
X46829Y-33890D01*
X46829Y-33693D02*
X46801Y-33722D01*
X46829Y-33750D01*
X46857Y-33722D01*
X46829Y-33693D01*
X46829Y-33750D01*
X47110Y-33890D02*
X47110Y-34284D01*
X47110Y-33947D02*
X47138Y-33918D01*
X47195Y-33890D01*
X47279Y-33890D01*
X47335Y-33918D01*
X47363Y-33975D01*
X47363Y-34284D01*
G54D15*
X51350Y-21300D02*
X50850Y-21300D01*
X51350Y-20800D02*
X50860Y-20800D01*
X51350Y-20650D02*
X51350Y-21450D01*
X51350Y-21450D02*
X50850Y-21450D01*
X50850Y-21450D02*
X50850Y-20650D01*
X50850Y-20650D02*
X51350Y-20650D01*
X25320Y-22010D02*
X25320Y-22990D01*
X26580Y-22990D02*
X26580Y-22010D01*
X26400Y-22010D02*
X26400Y-22990D01*
X25500Y-22990D02*
X25500Y-22010D01*
X25320Y-22990D02*
X26580Y-22990D01*
X26580Y-22010D02*
X25320Y-22010D01*
X62250Y-25550D02*
X62250Y-26050D01*
X61750Y-25550D02*
X61750Y-26040D01*
X61600Y-25550D02*
X62400Y-25550D01*
X62400Y-25550D02*
X62400Y-26050D01*
X62400Y-26050D02*
X61600Y-26050D01*
X61600Y-26050D02*
X61600Y-25550D01*
X54100Y-20725D02*
X54100Y-21225D01*
X53600Y-20725D02*
X53600Y-21215D01*
X53450Y-20725D02*
X54250Y-20725D01*
X54250Y-20725D02*
X54250Y-21225D01*
X54250Y-21225D02*
X53450Y-21225D01*
X53450Y-21225D02*
X53450Y-20725D01*
X36190Y-21420D02*
X35210Y-21420D01*
X35210Y-22680D02*
X36190Y-22680D01*
X36190Y-22500D02*
X35210Y-22500D01*
X35210Y-21600D02*
X36190Y-21600D01*
X35210Y-21420D02*
X35210Y-22680D01*
X36190Y-22680D02*
X36190Y-21420D01*
X59190Y-25445D02*
X58210Y-25445D01*
X58210Y-26705D02*
X59190Y-26705D01*
X59190Y-26525D02*
X58210Y-26525D01*
X58210Y-25625D02*
X59190Y-25625D01*
X58210Y-25445D02*
X58210Y-26705D01*
X59190Y-26705D02*
X59190Y-25445D01*
X41740Y-22470D02*
X40760Y-22470D01*
X40760Y-23730D02*
X41740Y-23730D01*
X41740Y-23550D02*
X40760Y-23550D01*
X40760Y-22650D02*
X41740Y-22650D01*
X40760Y-22470D02*
X40760Y-23730D01*
X41740Y-23730D02*
X41740Y-22470D01*
X59590Y-14970D02*
X58610Y-14970D01*
X58610Y-16230D02*
X59590Y-16230D01*
X59590Y-16050D02*
X58610Y-16050D01*
X58610Y-15150D02*
X59590Y-15150D01*
X58610Y-14970D02*
X58610Y-16230D01*
X59590Y-16230D02*
X59590Y-14970D01*
X52094Y-29730D02*
X53074Y-29730D01*
X53074Y-28470D02*
X52094Y-28470D01*
X52094Y-28650D02*
X53074Y-28650D01*
X53074Y-29550D02*
X52094Y-29550D01*
X53074Y-29730D02*
X53074Y-28470D01*
X52094Y-28470D02*
X52094Y-29730D01*
X39900Y-33300D02*
X40400Y-33300D01*
X39900Y-33800D02*
X40390Y-33800D01*
X39900Y-33950D02*
X39900Y-33150D01*
X39900Y-33150D02*
X40400Y-33150D01*
X40400Y-33150D02*
X40400Y-33950D01*
X40400Y-33950D02*
X39900Y-33950D01*
X32920Y-22110D02*
X32920Y-23090D01*
X34180Y-23090D02*
X34180Y-22110D01*
X34000Y-22110D02*
X34000Y-23090D01*
X33100Y-23090D02*
X33100Y-22110D01*
X32920Y-23090D02*
X34180Y-23090D01*
X34180Y-22110D02*
X32920Y-22110D01*
X37300Y-25150D02*
X36800Y-25150D01*
X37300Y-24650D02*
X36810Y-24650D01*
X37300Y-24500D02*
X37300Y-25300D01*
X37300Y-25300D02*
X36800Y-25300D01*
X36800Y-25300D02*
X36800Y-24500D01*
X36800Y-24500D02*
X37300Y-24500D01*
X40810Y-27730D02*
X41790Y-27730D01*
X41790Y-26470D02*
X40810Y-26470D01*
X40810Y-26650D02*
X41790Y-26650D01*
X41790Y-27550D02*
X40810Y-27550D01*
X41790Y-27730D02*
X41790Y-26470D01*
X40810Y-26470D02*
X40810Y-27730D01*
X49534Y-29500D02*
X49534Y-29000D01*
X50034Y-29500D02*
X50034Y-29010D01*
X50184Y-29500D02*
X49384Y-29500D01*
X49384Y-29500D02*
X49384Y-29000D01*
X49384Y-29000D02*
X50184Y-29000D01*
X50184Y-29000D02*
X50184Y-29500D01*
X44000Y-17540D02*
X44000Y-17040D01*
X44500Y-17540D02*
X44500Y-17050D01*
X44650Y-17540D02*
X43850Y-17540D01*
X43850Y-17540D02*
X43850Y-17040D01*
X43850Y-17040D02*
X44650Y-17040D01*
X44650Y-17040D02*
X44650Y-17540D01*
X44030Y-18520D02*
X44030Y-18020D01*
X44530Y-18520D02*
X44530Y-18030D01*
X44680Y-18520D02*
X43880Y-18520D01*
X43880Y-18520D02*
X43880Y-18020D01*
X43880Y-18020D02*
X44680Y-18020D01*
X44680Y-18020D02*
X44680Y-18520D01*
X45145Y-16655D02*
X45145Y-15675D01*
X43885Y-15675D02*
X43885Y-16655D01*
X44065Y-16655D02*
X44065Y-15675D01*
X44965Y-15675D02*
X44965Y-16655D01*
X45145Y-15675D02*
X43885Y-15675D01*
X43885Y-16655D02*
X45145Y-16655D01*
X46920Y-19360D02*
X46920Y-20340D01*
X48180Y-20340D02*
X48180Y-19360D01*
X48000Y-19360D02*
X48000Y-20340D01*
X47100Y-20340D02*
X47100Y-19360D01*
X46920Y-20340D02*
X48180Y-20340D01*
X48180Y-19360D02*
X46920Y-19360D01*
X46920Y-17860D02*
X46920Y-18840D01*
X48180Y-18840D02*
X48180Y-17860D01*
X48000Y-17860D02*
X48000Y-18840D01*
X47100Y-18840D02*
X47100Y-17860D01*
X46920Y-18840D02*
X48180Y-18840D01*
X48180Y-17860D02*
X46920Y-17860D01*
G54D10*
X28100Y-27500D02*
X26850Y-27500D01*
X43500Y-27200D02*
X42250Y-27200D01*
X54484Y-30300D02*
X54484Y-31550D01*
X52034Y-31750D02*
X52034Y-33000D01*
G54D15*
X27010Y-23880D02*
X27990Y-23880D01*
X27990Y-22620D02*
X27010Y-22620D01*
X27010Y-22800D02*
X27990Y-22800D01*
X27990Y-23700D02*
X27010Y-23700D01*
X27990Y-23880D02*
X27990Y-22620D01*
X27010Y-22620D02*
X27010Y-23880D01*
X37590Y-22470D02*
X36610Y-22470D01*
X36610Y-23730D02*
X37590Y-23730D01*
X37590Y-23550D02*
X36610Y-23550D01*
X36610Y-22650D02*
X37590Y-22650D01*
X36610Y-22470D02*
X36610Y-23730D01*
X37590Y-23730D02*
X37590Y-22470D01*
X43240Y-21470D02*
X42260Y-21470D01*
X42260Y-22730D02*
X43240Y-22730D01*
X43240Y-22550D02*
X42260Y-22550D01*
X42260Y-21650D02*
X43240Y-21650D01*
X42260Y-21470D02*
X42260Y-22730D01*
X43240Y-22730D02*
X43240Y-21470D01*
X52464Y-28040D02*
X52464Y-27060D01*
X51204Y-27060D02*
X51204Y-28040D01*
X51384Y-28040D02*
X51384Y-27060D01*
X52284Y-27060D02*
X52284Y-28040D01*
X52464Y-27060D02*
X51204Y-27060D01*
X51204Y-28040D02*
X52464Y-28040D01*
X40760Y-25480D02*
X41740Y-25480D01*
X41740Y-24220D02*
X40760Y-24220D01*
X40760Y-24400D02*
X41740Y-24400D01*
X41740Y-25300D02*
X40760Y-25300D01*
X41740Y-25480D02*
X41740Y-24220D01*
X40760Y-24220D02*
X40760Y-25480D01*
X27230Y-24455D02*
X27230Y-24955D01*
X26730Y-24455D02*
X26730Y-24945D01*
X26580Y-24455D02*
X27380Y-24455D01*
X27380Y-24455D02*
X27380Y-24955D01*
X27380Y-24955D02*
X26580Y-24955D01*
X26580Y-24955D02*
X26580Y-24455D01*
X49534Y-28600D02*
X49534Y-28100D01*
X50034Y-28600D02*
X50034Y-28110D01*
X50184Y-28600D02*
X49384Y-28600D01*
X49384Y-28600D02*
X49384Y-28100D01*
X49384Y-28100D02*
X50184Y-28100D01*
X50184Y-28100D02*
X50184Y-28600D01*
X43850Y-25450D02*
X44350Y-25450D01*
X43850Y-25950D02*
X44340Y-25950D01*
X43850Y-26100D02*
X43850Y-25300D01*
X43850Y-25300D02*
X44350Y-25300D01*
X44350Y-25300D02*
X44350Y-26100D01*
X44350Y-26100D02*
X43850Y-26100D01*
X36400Y-25150D02*
X35900Y-25150D01*
X36400Y-24650D02*
X35910Y-24650D01*
X36400Y-24500D02*
X36400Y-25300D01*
X36400Y-25300D02*
X35900Y-25300D01*
X35900Y-25300D02*
X35900Y-24500D01*
X35900Y-24500D02*
X36400Y-24500D01*
X40050Y-28150D02*
X39550Y-28150D01*
X40050Y-27650D02*
X39560Y-27650D01*
X40050Y-27500D02*
X40050Y-28300D01*
X40050Y-28300D02*
X39550Y-28300D01*
X39550Y-28300D02*
X39550Y-27500D01*
X39550Y-27500D02*
X40050Y-27500D01*
X30450Y-29650D02*
X29950Y-29650D01*
X30450Y-29150D02*
X29960Y-29150D01*
X30450Y-29000D02*
X30450Y-29800D01*
X30450Y-29800D02*
X29950Y-29800D01*
X29950Y-29800D02*
X29950Y-29000D01*
X29950Y-29000D02*
X30450Y-29000D01*
X53880Y-21775D02*
X52320Y-21775D01*
X52320Y-21775D02*
X52320Y-23675D01*
X52320Y-23675D02*
X53880Y-23675D01*
X53880Y-23675D02*
X53880Y-21775D01*
X53880Y-21975D02*
X54310Y-21975D01*
X53880Y-22475D02*
X54310Y-22475D01*
X53880Y-22975D02*
X54310Y-22975D01*
X54310Y-23475D02*
X53880Y-23475D01*
X52320Y-23475D02*
X51890Y-23475D01*
X51890Y-22975D02*
X52320Y-22975D01*
X51890Y-22475D02*
X52320Y-22475D01*
X51890Y-21975D02*
X52320Y-21975D01*
X52796Y-22065D02*
G75*
G03X52796Y-22065I-186J0D01*
G74*
G01*
X42100Y-18100D02*
X42600Y-18100D01*
X42100Y-18600D02*
X42590Y-18600D01*
X42100Y-18750D02*
X42100Y-17950D01*
X42100Y-17950D02*
X42600Y-17950D01*
X42600Y-17950D02*
X42600Y-18750D01*
X42600Y-18750D02*
X42100Y-18750D01*
X52620Y-17750D02*
X51980Y-17750D01*
X51980Y-18650D02*
X52620Y-18650D01*
X51980Y-18830D02*
X52620Y-18830D01*
X52620Y-18830D02*
X52620Y-17570D01*
X52620Y-17570D02*
X51980Y-17570D01*
X51980Y-17570D02*
X51980Y-18830D01*
G54D10*
X30900Y-15400D02*
X30900Y-14150D01*
G54D15*
X40950Y-32550D02*
X41000Y-32550D01*
X41000Y-32550D02*
X41000Y-30450D01*
X39500Y-30450D02*
X39500Y-32550D01*
X39500Y-32550D02*
X40950Y-32550D01*
X40050Y-32550D02*
X40050Y-32350D01*
X40050Y-32350D02*
X40450Y-32350D01*
X40450Y-32350D02*
X40450Y-32550D01*
X39500Y-30450D02*
X41000Y-30450D01*
X47750Y-16900D02*
X47750Y-17400D01*
X47250Y-16900D02*
X47250Y-17390D01*
X47100Y-16900D02*
X47900Y-16900D01*
X47900Y-16900D02*
X47900Y-17400D01*
X47900Y-17400D02*
X47100Y-17400D01*
X47100Y-17400D02*
X47100Y-16900D01*
X46200Y-13900D02*
X45700Y-13900D01*
X46200Y-13400D02*
X45710Y-13400D01*
X46200Y-13250D02*
X46200Y-14050D01*
X46200Y-14050D02*
X45700Y-14050D01*
X45700Y-14050D02*
X45700Y-13250D01*
X45700Y-13250D02*
X46200Y-13250D01*
G54D10*
X48362Y-16359D02*
X48362Y-16555D01*
X56237Y-16359D02*
X56237Y-16555D01*
X54268Y-11044D02*
X56237Y-11044D01*
X56237Y-11044D02*
X56237Y-11240D01*
X56237Y-13406D02*
X56237Y-12225D01*
X56237Y-15374D02*
X56237Y-14390D01*
X48362Y-13800D02*
X48362Y-15374D01*
X48362Y-12225D02*
X48362Y-12815D01*
X48362Y-11044D02*
X48362Y-11240D01*
X48362Y-11044D02*
X54268Y-11044D01*
X56237Y-16555D02*
X48362Y-16555D01*
X48559Y-10256D02*
G75*
G03X48559Y-10256I-196J0D01*
G74*
G01*
G54D16*
X44900Y-14100D02*
X44900Y-14800D01*
X44900Y-14800D02*
X44650Y-15050D01*
X44650Y-15050D02*
X43250Y-15050D01*
X43250Y-15050D02*
X43000Y-14800D01*
X43000Y-14800D02*
X43000Y-13400D01*
X43000Y-13400D02*
X43250Y-13150D01*
X43250Y-13150D02*
X44650Y-13150D01*
X44650Y-13150D02*
X44900Y-13400D01*
X44900Y-13400D02*
X44900Y-14100D01*
G54D15*
X62750Y-15950D02*
X60250Y-15950D01*
X62750Y-14250D02*
X60250Y-14250D01*
X62750Y-14000D02*
X62750Y-16200D01*
X62750Y-16200D02*
X60250Y-16200D01*
X60250Y-16200D02*
X60250Y-14000D01*
X60250Y-14000D02*
X62750Y-14000D01*
X51420Y-17750D02*
X50780Y-17750D01*
X50780Y-18650D02*
X51420Y-18650D01*
X50780Y-18830D02*
X51420Y-18830D01*
X51420Y-18830D02*
X51420Y-17570D01*
X51420Y-17570D02*
X50780Y-17570D01*
X50780Y-17570D02*
X50780Y-18830D01*
X38410Y-34430D02*
X39390Y-34430D01*
X39390Y-33170D02*
X38410Y-33170D01*
X38410Y-33350D02*
X39390Y-33350D01*
X39390Y-34250D02*
X38410Y-34250D01*
X39390Y-34430D02*
X39390Y-33170D01*
X38410Y-33170D02*
X38410Y-34430D01*
X47440Y-26220D02*
X46460Y-26220D01*
X46460Y-27480D02*
X47440Y-27480D01*
X47440Y-27300D02*
X46460Y-27300D01*
X46460Y-26400D02*
X47440Y-26400D01*
X46460Y-26220D02*
X46460Y-27480D01*
X47440Y-27480D02*
X47440Y-26220D01*
X29670Y-25710D02*
X29670Y-26690D01*
X30930Y-26690D02*
X30930Y-25710D01*
X30750Y-25710D02*
X30750Y-26690D01*
X29850Y-26690D02*
X29850Y-25710D01*
X29670Y-26690D02*
X30930Y-26690D01*
X30930Y-25710D02*
X29670Y-25710D01*
X29850Y-32300D02*
X29850Y-31800D01*
X30350Y-32300D02*
X30350Y-31810D01*
X30500Y-32300D02*
X29700Y-32300D01*
X29700Y-32300D02*
X29700Y-31800D01*
X29700Y-31800D02*
X30500Y-31800D01*
X30500Y-31800D02*
X30500Y-32300D01*
G54D17*
X40282Y-15696D02*
X40154Y-15696D01*
X40154Y-15696D02*
X40154Y-15893D01*
X40282Y-15893D02*
X40154Y-15893D01*
X40282Y-15696D02*
X40282Y-15893D01*
X40527Y-15696D02*
X40468Y-15696D01*
X40468Y-15696D02*
X40468Y-15795D01*
X40527Y-15795D02*
X40468Y-15795D01*
X40527Y-15696D02*
X40527Y-15795D01*
X40332Y-15696D02*
X40273Y-15696D01*
X40273Y-15696D02*
X40273Y-15795D01*
X40332Y-15795D02*
X40273Y-15795D01*
X40332Y-15696D02*
X40332Y-15795D01*
X40478Y-15696D02*
X40322Y-15696D01*
X40322Y-15696D02*
X40322Y-15765D01*
X40478Y-15765D02*
X40322Y-15765D01*
X40478Y-15696D02*
X40478Y-15765D01*
X40282Y-15107D02*
X40154Y-15107D01*
X40154Y-15107D02*
X40154Y-15304D01*
X40282Y-15304D02*
X40154Y-15304D01*
X40282Y-15107D02*
X40282Y-15304D01*
X40646Y-15107D02*
X40518Y-15107D01*
X40518Y-15107D02*
X40518Y-15304D01*
X40646Y-15304D02*
X40518Y-15304D01*
X40646Y-15107D02*
X40646Y-15304D01*
X40332Y-15205D02*
X40273Y-15205D01*
X40273Y-15205D02*
X40273Y-15304D01*
X40332Y-15304D02*
X40273Y-15304D01*
X40332Y-15205D02*
X40332Y-15304D01*
X40527Y-15205D02*
X40468Y-15205D01*
X40468Y-15205D02*
X40468Y-15304D01*
X40527Y-15304D02*
X40468Y-15304D01*
X40527Y-15205D02*
X40527Y-15304D01*
X40478Y-15235D02*
X40322Y-15235D01*
X40322Y-15235D02*
X40322Y-15304D01*
X40478Y-15304D02*
X40322Y-15304D01*
X40478Y-15235D02*
X40478Y-15304D01*
X40439Y-15500D02*
X40361Y-15500D01*
X40361Y-15500D02*
X40361Y-15578D01*
X40439Y-15578D02*
X40361Y-15578D01*
X40439Y-15500D02*
X40439Y-15578D01*
X40636Y-15696D02*
X40518Y-15696D01*
X40518Y-15696D02*
X40518Y-15814D01*
X40636Y-15814D02*
X40518Y-15814D01*
X40636Y-15696D02*
X40636Y-15814D01*
X40646Y-15864D02*
X40557Y-15864D01*
X40557Y-15864D02*
X40557Y-15893D01*
X40646Y-15893D02*
X40557Y-15893D01*
X40646Y-15864D02*
X40646Y-15893D01*
G54D18*
X40174Y-15706D02*
X40174Y-15294D01*
X40626Y-15304D02*
X40626Y-15864D01*
G54D19*
X40605Y-15834D02*
G75*
G03X40605Y-15834I-28J0D01*
G74*
G01*
G54D18*
X40537Y-15893D02*
G75*
G03X40263Y-15893I-137J0D01*
G74*
G01*
X40263Y-15107D02*
G75*
G03X40537Y-15107I137J0D01*
G74*
G01*
G54D17*
X29804Y-30882D02*
X29804Y-30754D01*
X29804Y-30754D02*
X29607Y-30754D01*
X29607Y-30882D02*
X29607Y-30754D01*
X29804Y-30882D02*
X29607Y-30882D01*
X29804Y-31127D02*
X29804Y-31068D01*
X29804Y-31068D02*
X29705Y-31068D01*
X29705Y-31127D02*
X29705Y-31068D01*
X29804Y-31127D02*
X29705Y-31127D01*
X29804Y-30932D02*
X29804Y-30873D01*
X29804Y-30873D02*
X29705Y-30873D01*
X29705Y-30932D02*
X29705Y-30873D01*
X29804Y-30932D02*
X29705Y-30932D01*
X29804Y-31078D02*
X29804Y-30922D01*
X29804Y-30922D02*
X29735Y-30922D01*
X29735Y-31078D02*
X29735Y-30922D01*
X29804Y-31078D02*
X29735Y-31078D01*
X30393Y-30882D02*
X30393Y-30754D01*
X30393Y-30754D02*
X30196Y-30754D01*
X30196Y-30882D02*
X30196Y-30754D01*
X30393Y-30882D02*
X30196Y-30882D01*
X30393Y-31246D02*
X30393Y-31118D01*
X30393Y-31118D02*
X30196Y-31118D01*
X30196Y-31246D02*
X30196Y-31118D01*
X30393Y-31246D02*
X30196Y-31246D01*
X30295Y-30932D02*
X30295Y-30873D01*
X30295Y-30873D02*
X30196Y-30873D01*
X30196Y-30932D02*
X30196Y-30873D01*
X30295Y-30932D02*
X30196Y-30932D01*
X30295Y-31127D02*
X30295Y-31068D01*
X30295Y-31068D02*
X30196Y-31068D01*
X30196Y-31127D02*
X30196Y-31068D01*
X30295Y-31127D02*
X30196Y-31127D01*
X30265Y-31078D02*
X30265Y-30922D01*
X30265Y-30922D02*
X30196Y-30922D01*
X30196Y-31078D02*
X30196Y-30922D01*
X30265Y-31078D02*
X30196Y-31078D01*
X30000Y-31039D02*
X30000Y-30961D01*
X30000Y-30961D02*
X29922Y-30961D01*
X29922Y-31039D02*
X29922Y-30961D01*
X30000Y-31039D02*
X29922Y-31039D01*
X29804Y-31236D02*
X29804Y-31118D01*
X29804Y-31118D02*
X29686Y-31118D01*
X29686Y-31236D02*
X29686Y-31118D01*
X29804Y-31236D02*
X29686Y-31236D01*
X29636Y-31246D02*
X29636Y-31157D01*
X29636Y-31157D02*
X29607Y-31157D01*
X29607Y-31246D02*
X29607Y-31157D01*
X29636Y-31246D02*
X29607Y-31246D01*
G54D18*
X29794Y-30774D02*
X30206Y-30774D01*
X30196Y-31226D02*
X29636Y-31226D01*
G54D19*
X29694Y-31177D02*
G75*
G03X29694Y-31177I-28J0D01*
G74*
G01*
G54D18*
X29607Y-31137D02*
G75*
G03X29607Y-30863I0J137D01*
G74*
G01*
X30393Y-30863D02*
G75*
G03X30393Y-31137I0J-137D01*
G74*
G01*
G54D20*
X31300Y-28550D02*
X31300Y-31050D01*
X34300Y-28550D02*
X34300Y-31050D01*
X34300Y-29300D02*
X31300Y-29300D01*
X31300Y-28550D02*
X34300Y-28550D01*
X34300Y-31050D02*
X31300Y-31050D01*
X60850Y-30850D02*
X63350Y-30850D01*
X60850Y-27850D02*
X63350Y-27850D01*
X61600Y-27850D02*
X61600Y-30850D01*
X60850Y-30850D02*
X60850Y-27850D01*
X63350Y-27850D02*
X63350Y-30850D01*
G54D15*
X40150Y-16650D02*
X40650Y-16650D01*
X40150Y-17150D02*
X40640Y-17150D01*
X40150Y-17300D02*
X40150Y-16500D01*
X40150Y-16500D02*
X40650Y-16500D01*
X40650Y-16500D02*
X40650Y-17300D01*
X40650Y-17300D02*
X40150Y-17300D01*
X54900Y-19900D02*
X54400Y-19900D01*
X54900Y-19400D02*
X54410Y-19400D01*
X54900Y-19250D02*
X54900Y-20050D01*
X54900Y-20050D02*
X54400Y-20050D01*
X54400Y-20050D02*
X54400Y-19250D01*
X54400Y-19250D02*
X54900Y-19250D01*
X55650Y-20600D02*
X55650Y-20100D01*
X56150Y-20600D02*
X56150Y-20110D01*
X56300Y-20600D02*
X55500Y-20600D01*
X55500Y-20600D02*
X55500Y-20100D01*
X55500Y-20100D02*
X56300Y-20100D01*
X56300Y-20100D02*
X56300Y-20600D01*
X28150Y-31250D02*
X28150Y-30750D01*
X28650Y-31250D02*
X28650Y-30760D01*
X28800Y-31250D02*
X28000Y-31250D01*
X28000Y-31250D02*
X28000Y-30750D01*
X28000Y-30750D02*
X28800Y-30750D01*
X28800Y-30750D02*
X28800Y-31250D01*
X27560Y-16530D02*
X28540Y-16530D01*
X28540Y-15270D02*
X27560Y-15270D01*
X27560Y-15450D02*
X28540Y-15450D01*
X28540Y-16350D02*
X27560Y-16350D01*
X28540Y-16530D02*
X28540Y-15270D01*
X27560Y-15270D02*
X27560Y-16530D01*
X25450Y-18250D02*
X24950Y-18250D01*
X25450Y-17750D02*
X24960Y-17750D01*
X25450Y-17600D02*
X25450Y-18400D01*
X25450Y-18400D02*
X24950Y-18400D01*
X24950Y-18400D02*
X24950Y-17600D01*
X24950Y-17600D02*
X25450Y-17600D01*
X25750Y-14600D02*
X26250Y-14600D01*
X25750Y-15100D02*
X26240Y-15100D01*
X25750Y-15250D02*
X25750Y-14450D01*
X25750Y-14450D02*
X26250Y-14450D01*
X26250Y-14450D02*
X26250Y-15250D01*
X26250Y-15250D02*
X25750Y-15250D01*
X26700Y-14600D02*
X27200Y-14600D01*
X26700Y-15100D02*
X27190Y-15100D01*
X26700Y-15250D02*
X26700Y-14450D01*
X26700Y-14450D02*
X27200Y-14450D01*
X27200Y-14450D02*
X27200Y-15250D01*
X27200Y-15250D02*
X26700Y-15250D01*
X26700Y-16000D02*
X27200Y-16000D01*
X26700Y-16500D02*
X27190Y-16500D01*
X26700Y-16650D02*
X26700Y-15850D01*
X26700Y-15850D02*
X27200Y-15850D01*
X27200Y-15850D02*
X27200Y-16650D01*
X27200Y-16650D02*
X26700Y-16650D01*
X28650Y-17950D02*
X29150Y-17950D01*
X28650Y-18450D02*
X29140Y-18450D01*
X28650Y-18600D02*
X28650Y-17800D01*
X28650Y-17800D02*
X29150Y-17800D01*
X29150Y-17800D02*
X29150Y-18600D01*
X29150Y-18600D02*
X28650Y-18600D01*
X31460Y-22230D02*
X32440Y-22230D01*
X32440Y-20970D02*
X31460Y-20970D01*
X31460Y-21150D02*
X32440Y-21150D01*
X32440Y-22050D02*
X31460Y-22050D01*
X32440Y-22230D02*
X32440Y-20970D01*
X31460Y-20970D02*
X31460Y-22230D01*
X39750Y-13350D02*
X40250Y-13350D01*
X39750Y-13850D02*
X40240Y-13850D01*
X39750Y-14000D02*
X39750Y-13200D01*
X39750Y-13200D02*
X40250Y-13200D01*
X40250Y-13200D02*
X40250Y-14000D01*
X40250Y-14000D02*
X39750Y-14000D01*
X38750Y-13350D02*
X39250Y-13350D01*
X38750Y-13850D02*
X39240Y-13850D01*
X38750Y-14000D02*
X38750Y-13200D01*
X38750Y-13200D02*
X39250Y-13200D01*
X39250Y-13200D02*
X39250Y-14000D01*
X39250Y-14000D02*
X38750Y-14000D01*
G54D20*
X43700Y-12450D02*
X43700Y-9950D01*
X40700Y-12450D02*
X40700Y-9950D01*
X40700Y-11700D02*
X43700Y-11700D01*
X43700Y-12450D02*
X40700Y-12450D01*
X40700Y-9950D02*
X43700Y-9950D01*
G54D16*
X39950Y-11600D02*
X39950Y-12300D01*
X39950Y-12300D02*
X39700Y-12550D01*
X39700Y-12550D02*
X38300Y-12550D01*
X38300Y-12550D02*
X38050Y-12300D01*
X38050Y-12300D02*
X38050Y-10900D01*
X38050Y-10900D02*
X38300Y-10650D01*
X38300Y-10650D02*
X39700Y-10650D01*
X39700Y-10650D02*
X39950Y-10900D01*
X39950Y-10900D02*
X39950Y-11600D01*
G54D15*
X26460Y-17265D02*
X26260Y-17265D01*
X26260Y-17265D02*
X26260Y-17735D01*
X26460Y-17265D02*
X26460Y-17735D01*
X27050Y-17265D02*
X27050Y-17735D01*
X26850Y-17265D02*
X26850Y-17735D01*
X27050Y-17265D02*
X26850Y-17265D01*
X27640Y-17265D02*
X27440Y-17265D01*
X27440Y-17265D02*
X27440Y-17735D01*
X27640Y-17265D02*
X27640Y-17735D01*
X27305Y-18960D02*
X26595Y-18960D01*
X26595Y-18960D02*
X26595Y-18765D01*
X27305Y-18960D02*
X27305Y-18765D01*
X27855Y-17735D02*
X27855Y-18765D01*
X27855Y-18765D02*
X26045Y-18765D01*
X26045Y-18765D02*
X26045Y-17735D01*
X26045Y-17735D02*
X27855Y-17735D01*
X24950Y-15900D02*
X24950Y-17100D01*
X24950Y-17100D02*
X24650Y-17100D01*
X24650Y-17100D02*
X24650Y-15900D01*
X24650Y-15900D02*
X24950Y-15900D01*
G54D21*
X29523Y-22500D02*
X29857Y-22894D01*
X29857Y-22894D02*
X29857Y-22106D01*
X29857Y-22106D02*
X29523Y-22500D01*
X29523Y-22500D02*
X29523Y-22106D01*
X29523Y-22500D02*
X29523Y-22894D01*
X30606Y-21811D02*
X30606Y-21870D01*
X28932Y-21811D02*
X28932Y-21850D01*
X28794Y-21811D02*
X28794Y-21850D01*
X30606Y-23189D02*
X30606Y-23150D01*
X28932Y-23189D02*
X28932Y-23150D01*
X28794Y-23189D02*
X28794Y-23150D01*
X28932Y-21713D02*
X28932Y-21791D01*
X28932Y-23287D02*
X28932Y-23209D01*
X28796Y-21714D02*
X28796Y-21792D01*
X30608Y-21714D02*
X28796Y-21714D01*
X30608Y-21714D02*
X30608Y-21792D01*
X30606Y-23287D02*
X30606Y-23209D01*
X30606Y-23287D02*
X28794Y-23287D01*
X28794Y-23287D02*
X28794Y-23209D01*
X39800Y-25423D02*
X39406Y-25757D01*
X39406Y-25757D02*
X40194Y-25757D01*
X40194Y-25757D02*
X39800Y-25423D01*
X39800Y-25423D02*
X40194Y-25423D01*
X39800Y-25423D02*
X39406Y-25423D01*
X40489Y-26506D02*
X40430Y-26506D01*
X40489Y-24832D02*
X40450Y-24832D01*
X40489Y-24694D02*
X40450Y-24694D01*
X39111Y-26506D02*
X39150Y-26506D01*
X39111Y-24832D02*
X39150Y-24832D01*
X39111Y-24694D02*
X39150Y-24694D01*
X40587Y-24832D02*
X40509Y-24832D01*
X39013Y-24832D02*
X39091Y-24832D01*
X40586Y-24696D02*
X40508Y-24696D01*
X40586Y-26508D02*
X40586Y-24696D01*
X40586Y-26508D02*
X40508Y-26508D01*
X39013Y-26506D02*
X39091Y-26506D01*
X39013Y-26506D02*
X39013Y-24694D01*
X39013Y-24694D02*
X39091Y-24694D01*
G54D15*
X62250Y-26350D02*
X62250Y-26850D01*
X61750Y-26350D02*
X61750Y-26840D01*
X61600Y-26350D02*
X62400Y-26350D01*
X62400Y-26350D02*
X62400Y-26850D01*
X62400Y-26850D02*
X61600Y-26850D01*
X61600Y-26850D02*
X61600Y-26350D01*
X55720Y-17100D02*
G75*
G03X55720Y-17100I-70J0D01*
G74*
G01*
X55000Y-18250D02*
X55600Y-18250D01*
X55600Y-18250D02*
X55600Y-17150D01*
X55600Y-17150D02*
X55000Y-17150D01*
X54400Y-17150D02*
X53800Y-17150D01*
X53800Y-17150D02*
X53800Y-18250D01*
X53800Y-18250D02*
X54400Y-18250D01*
X55220Y-19700D02*
G75*
G03X55220Y-19700I-70J0D01*
G74*
G01*
X55800Y-18550D02*
X55200Y-18550D01*
X55200Y-18550D02*
X55200Y-19650D01*
X55200Y-19650D02*
X55800Y-19650D01*
X56400Y-19650D02*
X57000Y-19650D01*
X57000Y-19650D02*
X57000Y-18550D01*
X57000Y-18550D02*
X56400Y-18550D01*
G54D10*
X50576Y-20909D02*
X50593Y-20925D01*
X50610Y-20976D01*
X50610Y-21010D01*
X50593Y-21060D01*
X50559Y-21094D01*
X50525Y-21111D01*
X50458Y-21128D01*
X50407Y-21128D01*
X50340Y-21111D01*
X50306Y-21094D01*
X50272Y-21060D01*
X50255Y-21010D01*
X50255Y-20976D01*
X50272Y-20925D01*
X50289Y-20909D01*
X50610Y-20571D02*
X50610Y-20774D01*
X50610Y-20672D02*
X50255Y-20672D01*
X50306Y-20706D01*
X50340Y-20740D01*
X50357Y-20774D01*
X25565Y-21576D02*
X25549Y-21593D01*
X25498Y-21610D01*
X25464Y-21610D01*
X25414Y-21593D01*
X25380Y-21559D01*
X25363Y-21525D01*
X25346Y-21458D01*
X25346Y-21407D01*
X25363Y-21340D01*
X25380Y-21306D01*
X25414Y-21272D01*
X25464Y-21255D01*
X25498Y-21255D01*
X25549Y-21272D01*
X25565Y-21289D01*
X25700Y-21289D02*
X25717Y-21272D01*
X25751Y-21255D01*
X25835Y-21255D01*
X25869Y-21272D01*
X25886Y-21289D01*
X25903Y-21323D01*
X25903Y-21357D01*
X25886Y-21407D01*
X25684Y-21610D01*
X25903Y-21610D01*
X60540Y-25626D02*
X60524Y-25643D01*
X60473Y-25660D01*
X60439Y-25660D01*
X60389Y-25643D01*
X60355Y-25609D01*
X60338Y-25575D01*
X60321Y-25508D01*
X60321Y-25457D01*
X60338Y-25390D01*
X60355Y-25356D01*
X60389Y-25322D01*
X60439Y-25305D01*
X60473Y-25305D01*
X60524Y-25322D01*
X60540Y-25339D01*
X60659Y-25305D02*
X60878Y-25305D01*
X60760Y-25440D01*
X60810Y-25440D01*
X60844Y-25457D01*
X60861Y-25474D01*
X60878Y-25508D01*
X60878Y-25592D01*
X60861Y-25626D01*
X60844Y-25643D01*
X60810Y-25660D01*
X60709Y-25660D01*
X60675Y-25643D01*
X60659Y-25626D01*
X53390Y-20376D02*
X53374Y-20393D01*
X53323Y-20410D01*
X53289Y-20410D01*
X53239Y-20393D01*
X53205Y-20359D01*
X53188Y-20325D01*
X53171Y-20258D01*
X53171Y-20207D01*
X53188Y-20140D01*
X53205Y-20106D01*
X53239Y-20072D01*
X53289Y-20055D01*
X53323Y-20055D01*
X53374Y-20072D01*
X53390Y-20089D01*
X53711Y-20055D02*
X53542Y-20055D01*
X53525Y-20224D01*
X53542Y-20207D01*
X53576Y-20190D01*
X53660Y-20190D01*
X53694Y-20207D01*
X53711Y-20224D01*
X53728Y-20258D01*
X53728Y-20342D01*
X53711Y-20376D01*
X53694Y-20393D01*
X53660Y-20410D01*
X53576Y-20410D01*
X53542Y-20393D01*
X53525Y-20376D01*
X36776Y-21609D02*
X36793Y-21625D01*
X36810Y-21676D01*
X36810Y-21710D01*
X36793Y-21760D01*
X36759Y-21794D01*
X36725Y-21811D01*
X36658Y-21828D01*
X36607Y-21828D01*
X36540Y-21811D01*
X36506Y-21794D01*
X36472Y-21760D01*
X36455Y-21710D01*
X36455Y-21676D01*
X36472Y-21625D01*
X36489Y-21609D01*
X36455Y-21305D02*
X36455Y-21372D01*
X36472Y-21406D01*
X36489Y-21423D01*
X36540Y-21457D01*
X36607Y-21474D01*
X36742Y-21474D01*
X36776Y-21457D01*
X36793Y-21440D01*
X36810Y-21406D01*
X36810Y-21339D01*
X36793Y-21305D01*
X36776Y-21288D01*
X36742Y-21271D01*
X36658Y-21271D01*
X36624Y-21288D01*
X36607Y-21305D01*
X36590Y-21339D01*
X36590Y-21406D01*
X36607Y-21440D01*
X36624Y-21457D01*
X36658Y-21474D01*
X57590Y-26826D02*
X57574Y-26843D01*
X57523Y-26860D01*
X57489Y-26860D01*
X57439Y-26843D01*
X57405Y-26809D01*
X57388Y-26775D01*
X57371Y-26708D01*
X57371Y-26657D01*
X57388Y-26590D01*
X57405Y-26556D01*
X57439Y-26522D01*
X57489Y-26505D01*
X57523Y-26505D01*
X57574Y-26522D01*
X57590Y-26539D01*
X57709Y-26505D02*
X57945Y-26505D01*
X57793Y-26860D01*
X41140Y-21776D02*
X41124Y-21793D01*
X41073Y-21810D01*
X41039Y-21810D01*
X40989Y-21793D01*
X40955Y-21759D01*
X40938Y-21725D01*
X40921Y-21658D01*
X40921Y-21607D01*
X40938Y-21540D01*
X40955Y-21506D01*
X40989Y-21472D01*
X41039Y-21455D01*
X41073Y-21455D01*
X41124Y-21472D01*
X41140Y-21489D01*
X41309Y-21810D02*
X41377Y-21810D01*
X41410Y-21793D01*
X41427Y-21776D01*
X41461Y-21725D01*
X41478Y-21658D01*
X41478Y-21523D01*
X41461Y-21489D01*
X41444Y-21472D01*
X41410Y-21455D01*
X41343Y-21455D01*
X41309Y-21472D01*
X41292Y-21489D01*
X41275Y-21523D01*
X41275Y-21607D01*
X41292Y-21641D01*
X41309Y-21658D01*
X41343Y-21675D01*
X41410Y-21675D01*
X41444Y-21658D01*
X41461Y-21641D01*
X41478Y-21607D01*
X59826Y-17427D02*
X59843Y-17444D01*
X59860Y-17495D01*
X59860Y-17529D01*
X59843Y-17579D01*
X59809Y-17613D01*
X59775Y-17630D01*
X59708Y-17647D01*
X59657Y-17647D01*
X59590Y-17630D01*
X59556Y-17613D01*
X59522Y-17579D01*
X59505Y-17529D01*
X59505Y-17495D01*
X59522Y-17444D01*
X59539Y-17427D01*
X59860Y-17090D02*
X59860Y-17292D01*
X59860Y-17191D02*
X59505Y-17191D01*
X59556Y-17225D01*
X59590Y-17259D01*
X59607Y-17292D01*
X59505Y-16870D02*
X59505Y-16837D01*
X59522Y-16803D01*
X59539Y-16786D01*
X59573Y-16769D01*
X59640Y-16752D01*
X59725Y-16752D01*
X59792Y-16769D01*
X59826Y-16786D01*
X59843Y-16803D01*
X59860Y-16837D01*
X59860Y-16870D01*
X59843Y-16904D01*
X59826Y-16921D01*
X59792Y-16938D01*
X59725Y-16955D01*
X59640Y-16955D01*
X59573Y-16938D01*
X59539Y-16921D01*
X59522Y-16904D01*
X59505Y-16870D01*
X51626Y-29677D02*
X51643Y-29694D01*
X51660Y-29745D01*
X51660Y-29779D01*
X51643Y-29829D01*
X51609Y-29863D01*
X51575Y-29880D01*
X51508Y-29897D01*
X51457Y-29897D01*
X51390Y-29880D01*
X51356Y-29863D01*
X51322Y-29829D01*
X51305Y-29779D01*
X51305Y-29745D01*
X51322Y-29694D01*
X51339Y-29677D01*
X51660Y-29340D02*
X51660Y-29542D01*
X51660Y-29441D02*
X51305Y-29441D01*
X51356Y-29475D01*
X51390Y-29509D01*
X51407Y-29542D01*
X51660Y-29002D02*
X51660Y-29205D01*
X51660Y-29104D02*
X51305Y-29104D01*
X51356Y-29137D01*
X51390Y-29171D01*
X51407Y-29205D01*
X40976Y-33977D02*
X40993Y-33994D01*
X41010Y-34045D01*
X41010Y-34079D01*
X40993Y-34129D01*
X40959Y-34163D01*
X40925Y-34180D01*
X40858Y-34197D01*
X40807Y-34197D01*
X40740Y-34180D01*
X40706Y-34163D01*
X40672Y-34129D01*
X40655Y-34079D01*
X40655Y-34045D01*
X40672Y-33994D01*
X40689Y-33977D01*
X41010Y-33640D02*
X41010Y-33842D01*
X41010Y-33741D02*
X40655Y-33741D01*
X40706Y-33775D01*
X40740Y-33809D01*
X40757Y-33842D01*
X40655Y-33522D02*
X40655Y-33302D01*
X40790Y-33420D01*
X40790Y-33370D01*
X40807Y-33336D01*
X40824Y-33319D01*
X40858Y-33302D01*
X40942Y-33302D01*
X40976Y-33319D01*
X40993Y-33336D01*
X41010Y-33370D01*
X41010Y-33471D01*
X40993Y-33505D01*
X40976Y-33522D01*
X33322Y-21676D02*
X33305Y-21693D01*
X33254Y-21710D01*
X33220Y-21710D01*
X33170Y-21693D01*
X33136Y-21659D01*
X33119Y-21625D01*
X33102Y-21558D01*
X33102Y-21507D01*
X33119Y-21440D01*
X33136Y-21406D01*
X33170Y-21372D01*
X33220Y-21355D01*
X33254Y-21355D01*
X33305Y-21372D01*
X33322Y-21389D01*
X33659Y-21710D02*
X33457Y-21710D01*
X33558Y-21710D02*
X33558Y-21355D01*
X33524Y-21406D01*
X33490Y-21440D01*
X33457Y-21457D01*
X33980Y-21355D02*
X33811Y-21355D01*
X33794Y-21524D01*
X33811Y-21507D01*
X33845Y-21490D01*
X33929Y-21490D01*
X33963Y-21507D01*
X33980Y-21524D01*
X33997Y-21558D01*
X33997Y-21642D01*
X33980Y-21676D01*
X33963Y-21693D01*
X33929Y-21710D01*
X33845Y-21710D01*
X33811Y-21693D01*
X33794Y-21676D01*
X37876Y-25227D02*
X37893Y-25244D01*
X37910Y-25295D01*
X37910Y-25329D01*
X37893Y-25379D01*
X37859Y-25413D01*
X37825Y-25430D01*
X37758Y-25447D01*
X37707Y-25447D01*
X37640Y-25430D01*
X37606Y-25413D01*
X37572Y-25379D01*
X37555Y-25329D01*
X37555Y-25295D01*
X37572Y-25244D01*
X37589Y-25227D01*
X37910Y-24890D02*
X37910Y-25092D01*
X37910Y-24991D02*
X37555Y-24991D01*
X37606Y-25025D01*
X37640Y-25059D01*
X37657Y-25092D01*
X37555Y-24772D02*
X37555Y-24535D01*
X37910Y-24687D01*
X42026Y-29027D02*
X42043Y-29044D01*
X42060Y-29095D01*
X42060Y-29129D01*
X42043Y-29179D01*
X42009Y-29213D01*
X41975Y-29230D01*
X41908Y-29247D01*
X41857Y-29247D01*
X41790Y-29230D01*
X41756Y-29213D01*
X41722Y-29179D01*
X41705Y-29129D01*
X41705Y-29095D01*
X41722Y-29044D01*
X41739Y-29027D01*
X42060Y-28690D02*
X42060Y-28892D01*
X42060Y-28791D02*
X41705Y-28791D01*
X41756Y-28825D01*
X41790Y-28859D01*
X41807Y-28892D01*
X41857Y-28487D02*
X41840Y-28521D01*
X41824Y-28538D01*
X41790Y-28555D01*
X41773Y-28555D01*
X41739Y-28538D01*
X41722Y-28521D01*
X41705Y-28487D01*
X41705Y-28420D01*
X41722Y-28386D01*
X41739Y-28369D01*
X41773Y-28352D01*
X41790Y-28352D01*
X41824Y-28369D01*
X41840Y-28386D01*
X41857Y-28420D01*
X41857Y-28487D01*
X41874Y-28521D01*
X41891Y-28538D01*
X41925Y-28555D01*
X41992Y-28555D01*
X42026Y-28538D01*
X42043Y-28521D01*
X42060Y-28487D01*
X42060Y-28420D01*
X42043Y-28386D01*
X42026Y-28369D01*
X41992Y-28352D01*
X41925Y-28352D01*
X41891Y-28369D01*
X41874Y-28386D01*
X41857Y-28420D01*
X50122Y-30176D02*
X50105Y-30193D01*
X50054Y-30210D01*
X50020Y-30210D01*
X49970Y-30193D01*
X49936Y-30159D01*
X49919Y-30125D01*
X49902Y-30058D01*
X49902Y-30007D01*
X49919Y-29940D01*
X49936Y-29906D01*
X49970Y-29872D01*
X50020Y-29855D01*
X50054Y-29855D01*
X50105Y-29872D01*
X50122Y-29889D01*
X50257Y-29889D02*
X50274Y-29872D01*
X50307Y-29855D01*
X50392Y-29855D01*
X50425Y-29872D01*
X50442Y-29889D01*
X50459Y-29923D01*
X50459Y-29957D01*
X50442Y-30007D01*
X50240Y-30210D01*
X50459Y-30210D01*
X50679Y-29855D02*
X50712Y-29855D01*
X50746Y-29872D01*
X50763Y-29889D01*
X50780Y-29923D01*
X50797Y-29990D01*
X50797Y-30075D01*
X50780Y-30142D01*
X50763Y-30176D01*
X50746Y-30193D01*
X50712Y-30210D01*
X50679Y-30210D01*
X50645Y-30193D01*
X50628Y-30176D01*
X50611Y-30142D01*
X50594Y-30075D01*
X50594Y-29990D01*
X50611Y-29923D01*
X50628Y-29889D01*
X50645Y-29872D01*
X50679Y-29855D01*
X42672Y-17376D02*
X42655Y-17393D01*
X42604Y-17410D01*
X42570Y-17410D01*
X42520Y-17393D01*
X42486Y-17359D01*
X42469Y-17325D01*
X42452Y-17258D01*
X42452Y-17207D01*
X42469Y-17140D01*
X42486Y-17106D01*
X42520Y-17072D01*
X42570Y-17055D01*
X42604Y-17055D01*
X42655Y-17072D01*
X42672Y-17089D01*
X42807Y-17089D02*
X42824Y-17072D01*
X42857Y-17055D01*
X42942Y-17055D01*
X42975Y-17072D01*
X42992Y-17089D01*
X43009Y-17123D01*
X43009Y-17157D01*
X42992Y-17207D01*
X42790Y-17410D01*
X43009Y-17410D01*
X43144Y-17089D02*
X43161Y-17072D01*
X43195Y-17055D01*
X43279Y-17055D01*
X43313Y-17072D01*
X43330Y-17089D01*
X43347Y-17123D01*
X43347Y-17157D01*
X43330Y-17207D01*
X43127Y-17410D01*
X43347Y-17410D01*
X44022Y-19176D02*
X44005Y-19193D01*
X43954Y-19210D01*
X43920Y-19210D01*
X43870Y-19193D01*
X43836Y-19159D01*
X43819Y-19125D01*
X43802Y-19058D01*
X43802Y-19007D01*
X43819Y-18940D01*
X43836Y-18906D01*
X43870Y-18872D01*
X43920Y-18855D01*
X43954Y-18855D01*
X44005Y-18872D01*
X44022Y-18889D01*
X44157Y-18889D02*
X44174Y-18872D01*
X44207Y-18855D01*
X44292Y-18855D01*
X44325Y-18872D01*
X44342Y-18889D01*
X44359Y-18923D01*
X44359Y-18957D01*
X44342Y-19007D01*
X44140Y-19210D01*
X44359Y-19210D01*
X44477Y-18855D02*
X44697Y-18855D01*
X44579Y-18990D01*
X44629Y-18990D01*
X44663Y-19007D01*
X44680Y-19024D01*
X44697Y-19058D01*
X44697Y-19142D01*
X44680Y-19176D01*
X44663Y-19193D01*
X44629Y-19210D01*
X44528Y-19210D01*
X44494Y-19193D01*
X44477Y-19176D01*
X42722Y-16276D02*
X42705Y-16293D01*
X42654Y-16310D01*
X42620Y-16310D01*
X42570Y-16293D01*
X42536Y-16259D01*
X42519Y-16225D01*
X42502Y-16158D01*
X42502Y-16107D01*
X42519Y-16040D01*
X42536Y-16006D01*
X42570Y-15972D01*
X42620Y-15955D01*
X42654Y-15955D01*
X42705Y-15972D01*
X42722Y-15989D01*
X42857Y-15989D02*
X42874Y-15972D01*
X42907Y-15955D01*
X42992Y-15955D01*
X43025Y-15972D01*
X43042Y-15989D01*
X43059Y-16023D01*
X43059Y-16057D01*
X43042Y-16107D01*
X42840Y-16310D01*
X43059Y-16310D01*
X43363Y-16074D02*
X43363Y-16310D01*
X43279Y-15939D02*
X43194Y-16192D01*
X43414Y-16192D01*
X47572Y-21076D02*
X47555Y-21093D01*
X47504Y-21110D01*
X47470Y-21110D01*
X47420Y-21093D01*
X47386Y-21059D01*
X47369Y-21025D01*
X47352Y-20958D01*
X47352Y-20907D01*
X47369Y-20840D01*
X47386Y-20806D01*
X47420Y-20772D01*
X47470Y-20755D01*
X47504Y-20755D01*
X47555Y-20772D01*
X47572Y-20789D01*
X47707Y-20789D02*
X47724Y-20772D01*
X47757Y-20755D01*
X47842Y-20755D01*
X47875Y-20772D01*
X47892Y-20789D01*
X47909Y-20823D01*
X47909Y-20857D01*
X47892Y-20907D01*
X47690Y-21110D01*
X47909Y-21110D01*
X48230Y-20755D02*
X48061Y-20755D01*
X48044Y-20924D01*
X48061Y-20907D01*
X48095Y-20890D01*
X48179Y-20890D01*
X48213Y-20907D01*
X48230Y-20924D01*
X48247Y-20958D01*
X48247Y-21042D01*
X48230Y-21076D01*
X48213Y-21093D01*
X48179Y-21110D01*
X48095Y-21110D01*
X48061Y-21093D01*
X48044Y-21076D01*
X48947Y-18551D02*
X48930Y-18568D01*
X48879Y-18585D01*
X48845Y-18585D01*
X48795Y-18568D01*
X48761Y-18534D01*
X48744Y-18500D01*
X48727Y-18433D01*
X48727Y-18382D01*
X48744Y-18315D01*
X48761Y-18281D01*
X48795Y-18247D01*
X48845Y-18230D01*
X48879Y-18230D01*
X48930Y-18247D01*
X48947Y-18264D01*
X49082Y-18264D02*
X49099Y-18247D01*
X49132Y-18230D01*
X49217Y-18230D01*
X49250Y-18247D01*
X49267Y-18264D01*
X49284Y-18298D01*
X49284Y-18332D01*
X49267Y-18382D01*
X49065Y-18585D01*
X49284Y-18585D01*
X49402Y-18230D02*
X49639Y-18230D01*
X49487Y-18585D01*
X28710Y-26111D02*
X28355Y-26111D01*
X28355Y-26027D01*
X28372Y-25976D01*
X28406Y-25942D01*
X28440Y-25925D01*
X28507Y-25909D01*
X28558Y-25909D01*
X28625Y-25925D01*
X28659Y-25942D01*
X28693Y-25976D01*
X28710Y-26027D01*
X28710Y-26111D01*
X28710Y-25571D02*
X28710Y-25774D01*
X28710Y-25672D02*
X28355Y-25672D01*
X28406Y-25706D01*
X28440Y-25740D01*
X28457Y-25774D01*
X38838Y-21710D02*
X38838Y-21355D01*
X38922Y-21355D01*
X38973Y-21372D01*
X39007Y-21406D01*
X39024Y-21440D01*
X39040Y-21507D01*
X39040Y-21558D01*
X39024Y-21625D01*
X39007Y-21659D01*
X38973Y-21693D01*
X38922Y-21710D01*
X38838Y-21710D01*
X39159Y-21355D02*
X39378Y-21355D01*
X39260Y-21490D01*
X39310Y-21490D01*
X39344Y-21507D01*
X39361Y-21524D01*
X39378Y-21558D01*
X39378Y-21642D01*
X39361Y-21676D01*
X39344Y-21693D01*
X39310Y-21710D01*
X39209Y-21710D01*
X39175Y-21693D01*
X39159Y-21676D01*
X44288Y-21560D02*
X44288Y-21205D01*
X44372Y-21205D01*
X44423Y-21222D01*
X44457Y-21256D01*
X44474Y-21290D01*
X44490Y-21357D01*
X44490Y-21408D01*
X44474Y-21475D01*
X44457Y-21509D01*
X44423Y-21543D01*
X44372Y-21560D01*
X44288Y-21560D01*
X44811Y-21205D02*
X44642Y-21205D01*
X44625Y-21374D01*
X44642Y-21357D01*
X44676Y-21340D01*
X44760Y-21340D01*
X44794Y-21357D01*
X44811Y-21374D01*
X44828Y-21408D01*
X44828Y-21492D01*
X44811Y-21526D01*
X44794Y-21543D01*
X44760Y-21560D01*
X44676Y-21560D01*
X44642Y-21543D01*
X44625Y-21526D01*
X42238Y-24860D02*
X42238Y-24505D01*
X42322Y-24505D01*
X42373Y-24522D01*
X42407Y-24556D01*
X42424Y-24590D01*
X42440Y-24657D01*
X42440Y-24708D01*
X42424Y-24775D01*
X42407Y-24809D01*
X42373Y-24843D01*
X42322Y-24860D01*
X42238Y-24860D01*
X42744Y-24505D02*
X42677Y-24505D01*
X42643Y-24522D01*
X42626Y-24539D01*
X42592Y-24590D01*
X42575Y-24657D01*
X42575Y-24792D01*
X42592Y-24826D01*
X42609Y-24843D01*
X42643Y-24860D01*
X42710Y-24860D01*
X42744Y-24843D01*
X42761Y-24826D01*
X42778Y-24792D01*
X42778Y-24708D01*
X42761Y-24674D01*
X42744Y-24657D01*
X42710Y-24640D01*
X42643Y-24640D01*
X42609Y-24657D01*
X42592Y-24674D01*
X42575Y-24708D01*
X55622Y-31460D02*
X55622Y-31105D01*
X55707Y-31105D01*
X55757Y-31122D01*
X55791Y-31156D01*
X55808Y-31190D01*
X55825Y-31257D01*
X55825Y-31308D01*
X55808Y-31375D01*
X55791Y-31409D01*
X55757Y-31443D01*
X55707Y-31460D01*
X55622Y-31460D01*
X55943Y-31105D02*
X56179Y-31105D01*
X56027Y-31460D01*
X49038Y-31860D02*
X49038Y-31505D01*
X49122Y-31505D01*
X49173Y-31522D01*
X49207Y-31556D01*
X49224Y-31590D01*
X49240Y-31657D01*
X49240Y-31708D01*
X49224Y-31775D01*
X49207Y-31809D01*
X49173Y-31843D01*
X49122Y-31860D01*
X49038Y-31860D01*
X49443Y-31657D02*
X49409Y-31640D01*
X49392Y-31624D01*
X49375Y-31590D01*
X49375Y-31573D01*
X49392Y-31539D01*
X49409Y-31522D01*
X49443Y-31505D01*
X49510Y-31505D01*
X49544Y-31522D01*
X49561Y-31539D01*
X49578Y-31573D01*
X49578Y-31590D01*
X49561Y-31624D01*
X49544Y-31640D01*
X49510Y-31657D01*
X49443Y-31657D01*
X49409Y-31674D01*
X49392Y-31691D01*
X49375Y-31725D01*
X49375Y-31792D01*
X49392Y-31826D01*
X49409Y-31843D01*
X49443Y-31860D01*
X49510Y-31860D01*
X49544Y-31843D01*
X49561Y-31826D01*
X49578Y-31792D01*
X49578Y-31725D01*
X49561Y-31691D01*
X49544Y-31674D01*
X49510Y-31657D01*
X22881Y-19305D02*
X22881Y-19559D01*
X22865Y-19609D01*
X22831Y-19643D01*
X22780Y-19660D01*
X22746Y-19660D01*
X23236Y-19660D02*
X23033Y-19660D01*
X23134Y-19660D02*
X23134Y-19305D01*
X23101Y-19356D01*
X23067Y-19390D01*
X23033Y-19407D01*
X29580Y-11468D02*
X29834Y-11468D01*
X29884Y-11484D01*
X29918Y-11518D01*
X29935Y-11569D01*
X29935Y-11603D01*
X29614Y-11316D02*
X29597Y-11299D01*
X29580Y-11265D01*
X29580Y-11181D01*
X29597Y-11147D01*
X29614Y-11130D01*
X29648Y-11113D01*
X29682Y-11113D01*
X29732Y-11130D01*
X29935Y-11333D01*
X29935Y-11113D01*
X49655Y-33968D02*
X49909Y-33968D01*
X49959Y-33984D01*
X49993Y-34018D01*
X50010Y-34069D01*
X50010Y-34103D01*
X49655Y-33833D02*
X49655Y-33613D01*
X49790Y-33731D01*
X49790Y-33681D01*
X49807Y-33647D01*
X49824Y-33630D01*
X49858Y-33613D01*
X49942Y-33613D01*
X49976Y-33630D01*
X49993Y-33647D01*
X50010Y-33681D01*
X50010Y-33782D01*
X49993Y-33816D01*
X49976Y-33833D01*
X26115Y-23860D02*
X25947Y-23860D01*
X25947Y-23505D01*
X26419Y-23860D02*
X26217Y-23860D01*
X26318Y-23860D02*
X26318Y-23505D01*
X26284Y-23556D01*
X26250Y-23590D01*
X26217Y-23607D01*
X38110Y-23809D02*
X38110Y-23977D01*
X37755Y-23977D01*
X37755Y-23724D02*
X37755Y-23505D01*
X37890Y-23623D01*
X37890Y-23572D01*
X37907Y-23539D01*
X37924Y-23522D01*
X37958Y-23505D01*
X38042Y-23505D01*
X38076Y-23522D01*
X38093Y-23539D01*
X38110Y-23572D01*
X38110Y-23674D01*
X38093Y-23707D01*
X38076Y-23724D01*
X43390Y-20710D02*
X43222Y-20710D01*
X43222Y-20355D01*
X43660Y-20474D02*
X43660Y-20710D01*
X43576Y-20339D02*
X43492Y-20592D01*
X43711Y-20592D01*
X53175Y-27635D02*
X53006Y-27635D01*
X53006Y-27280D01*
X53462Y-27280D02*
X53293Y-27280D01*
X53276Y-27449D01*
X53293Y-27432D01*
X53327Y-27415D01*
X53411Y-27415D01*
X53445Y-27432D01*
X53462Y-27449D01*
X53478Y-27483D01*
X53478Y-27567D01*
X53462Y-27601D01*
X53445Y-27618D01*
X53411Y-27635D01*
X53327Y-27635D01*
X53293Y-27618D01*
X53276Y-27601D01*
X42390Y-24360D02*
X42222Y-24360D01*
X42222Y-24005D01*
X42660Y-24005D02*
X42593Y-24005D01*
X42559Y-24022D01*
X42542Y-24039D01*
X42509Y-24090D01*
X42492Y-24157D01*
X42492Y-24292D01*
X42509Y-24326D01*
X42525Y-24343D01*
X42559Y-24360D01*
X42627Y-24360D01*
X42660Y-24343D01*
X42677Y-24326D01*
X42694Y-24292D01*
X42694Y-24208D01*
X42677Y-24174D01*
X42660Y-24157D01*
X42627Y-24140D01*
X42559Y-24140D01*
X42525Y-24157D01*
X42509Y-24174D01*
X42492Y-24208D01*
X57516Y-23494D02*
X57482Y-23477D01*
X57448Y-23443D01*
X57398Y-23392D01*
X57364Y-23375D01*
X57330Y-23375D01*
X57347Y-23460D02*
X57313Y-23443D01*
X57280Y-23409D01*
X57263Y-23342D01*
X57263Y-23224D01*
X57280Y-23156D01*
X57313Y-23122D01*
X57347Y-23105D01*
X57415Y-23105D01*
X57448Y-23122D01*
X57482Y-23156D01*
X57499Y-23224D01*
X57499Y-23342D01*
X57482Y-23409D01*
X57448Y-23443D01*
X57415Y-23460D01*
X57347Y-23460D01*
X57617Y-23105D02*
X57836Y-23105D01*
X57718Y-23240D01*
X57769Y-23240D01*
X57803Y-23257D01*
X57819Y-23274D01*
X57836Y-23308D01*
X57836Y-23392D01*
X57819Y-23426D01*
X57803Y-23443D01*
X57769Y-23460D01*
X57668Y-23460D01*
X57634Y-23443D01*
X57617Y-23426D01*
X60766Y-17194D02*
X60732Y-17177D01*
X60698Y-17143D01*
X60648Y-17092D01*
X60614Y-17075D01*
X60580Y-17075D01*
X60597Y-17160D02*
X60563Y-17143D01*
X60530Y-17109D01*
X60513Y-17042D01*
X60513Y-16924D01*
X60530Y-16856D01*
X60563Y-16822D01*
X60597Y-16805D01*
X60665Y-16805D01*
X60698Y-16822D01*
X60732Y-16856D01*
X60749Y-16924D01*
X60749Y-17042D01*
X60732Y-17109D01*
X60698Y-17143D01*
X60665Y-17160D01*
X60597Y-17160D01*
X61053Y-16924D02*
X61053Y-17160D01*
X60968Y-16789D02*
X60884Y-17042D01*
X61103Y-17042D01*
X25690Y-24810D02*
X25572Y-24641D01*
X25488Y-24810D02*
X25488Y-24455D01*
X25623Y-24455D01*
X25657Y-24472D01*
X25674Y-24489D01*
X25690Y-24523D01*
X25690Y-24574D01*
X25674Y-24607D01*
X25657Y-24624D01*
X25623Y-24641D01*
X25488Y-24641D01*
X25825Y-24489D02*
X25842Y-24472D01*
X25876Y-24455D01*
X25960Y-24455D01*
X25994Y-24472D01*
X26011Y-24489D01*
X26028Y-24523D01*
X26028Y-24557D01*
X26011Y-24607D01*
X25809Y-24810D01*
X26028Y-24810D01*
X50972Y-28610D02*
X50854Y-28441D01*
X50769Y-28610D02*
X50769Y-28255D01*
X50904Y-28255D01*
X50938Y-28272D01*
X50955Y-28289D01*
X50972Y-28323D01*
X50972Y-28374D01*
X50955Y-28407D01*
X50938Y-28424D01*
X50904Y-28441D01*
X50769Y-28441D01*
X51309Y-28610D02*
X51107Y-28610D01*
X51208Y-28610D02*
X51208Y-28255D01*
X51174Y-28306D01*
X51140Y-28340D01*
X51107Y-28357D01*
X51647Y-28610D02*
X51444Y-28610D01*
X51545Y-28610D02*
X51545Y-28255D01*
X51512Y-28306D01*
X51478Y-28340D01*
X51444Y-28357D01*
X44960Y-25877D02*
X44791Y-25995D01*
X44960Y-26080D02*
X44605Y-26080D01*
X44605Y-25945D01*
X44622Y-25911D01*
X44639Y-25894D01*
X44673Y-25877D01*
X44724Y-25877D01*
X44757Y-25894D01*
X44774Y-25911D01*
X44791Y-25945D01*
X44791Y-26080D01*
X44960Y-25540D02*
X44960Y-25742D01*
X44960Y-25641D02*
X44605Y-25641D01*
X44656Y-25675D01*
X44690Y-25709D01*
X44707Y-25742D01*
X44605Y-25422D02*
X44605Y-25202D01*
X44740Y-25320D01*
X44740Y-25270D01*
X44757Y-25236D01*
X44774Y-25219D01*
X44808Y-25202D01*
X44892Y-25202D01*
X44926Y-25219D01*
X44943Y-25236D01*
X44960Y-25270D01*
X44960Y-25371D01*
X44943Y-25405D01*
X44926Y-25422D01*
X35635Y-25177D02*
X35466Y-25295D01*
X35635Y-25380D02*
X35280Y-25380D01*
X35280Y-25245D01*
X35297Y-25211D01*
X35314Y-25194D01*
X35348Y-25177D01*
X35399Y-25177D01*
X35432Y-25194D01*
X35449Y-25211D01*
X35466Y-25245D01*
X35466Y-25380D01*
X35314Y-25042D02*
X35297Y-25025D01*
X35280Y-24992D01*
X35280Y-24907D01*
X35297Y-24874D01*
X35314Y-24857D01*
X35348Y-24840D01*
X35382Y-24840D01*
X35432Y-24857D01*
X35635Y-25059D01*
X35635Y-24840D01*
X35314Y-24705D02*
X35297Y-24688D01*
X35280Y-24654D01*
X35280Y-24570D01*
X35297Y-24536D01*
X35314Y-24519D01*
X35348Y-24502D01*
X35382Y-24502D01*
X35432Y-24519D01*
X35635Y-24722D01*
X35635Y-24502D01*
X39260Y-28227D02*
X39091Y-28345D01*
X39260Y-28430D02*
X38905Y-28430D01*
X38905Y-28295D01*
X38922Y-28261D01*
X38939Y-28244D01*
X38973Y-28227D01*
X39024Y-28227D01*
X39057Y-28244D01*
X39074Y-28261D01*
X39091Y-28295D01*
X39091Y-28430D01*
X38939Y-28092D02*
X38922Y-28075D01*
X38905Y-28042D01*
X38905Y-27957D01*
X38922Y-27924D01*
X38939Y-27907D01*
X38973Y-27890D01*
X39007Y-27890D01*
X39057Y-27907D01*
X39260Y-28109D01*
X39260Y-27890D01*
X38905Y-27569D02*
X38905Y-27738D01*
X39074Y-27755D01*
X39057Y-27738D01*
X39040Y-27704D01*
X39040Y-27620D01*
X39057Y-27586D01*
X39074Y-27569D01*
X39108Y-27552D01*
X39192Y-27552D01*
X39226Y-27569D01*
X39243Y-27586D01*
X39260Y-27620D01*
X39260Y-27704D01*
X39243Y-27738D01*
X39226Y-27755D01*
X29972Y-28460D02*
X29854Y-28291D01*
X29769Y-28460D02*
X29769Y-28105D01*
X29904Y-28105D01*
X29938Y-28122D01*
X29955Y-28139D01*
X29972Y-28173D01*
X29972Y-28224D01*
X29955Y-28257D01*
X29938Y-28274D01*
X29904Y-28291D01*
X29769Y-28291D01*
X30107Y-28139D02*
X30124Y-28122D01*
X30157Y-28105D01*
X30242Y-28105D01*
X30275Y-28122D01*
X30292Y-28139D01*
X30309Y-28173D01*
X30309Y-28207D01*
X30292Y-28257D01*
X30090Y-28460D01*
X30309Y-28460D01*
X30427Y-28105D02*
X30664Y-28105D01*
X30512Y-28460D01*
X52930Y-24055D02*
X52930Y-24342D01*
X52946Y-24376D01*
X52963Y-24393D01*
X52997Y-24410D01*
X53065Y-24410D01*
X53098Y-24393D01*
X53115Y-24376D01*
X53132Y-24342D01*
X53132Y-24055D01*
X53486Y-24410D02*
X53284Y-24410D01*
X53385Y-24410D02*
X53385Y-24055D01*
X53351Y-24106D01*
X53318Y-24140D01*
X53284Y-24157D01*
X42072Y-19576D02*
X42055Y-19593D01*
X42004Y-19610D01*
X41970Y-19610D01*
X41920Y-19593D01*
X41886Y-19559D01*
X41869Y-19525D01*
X41852Y-19458D01*
X41852Y-19407D01*
X41869Y-19340D01*
X41886Y-19306D01*
X41920Y-19272D01*
X41970Y-19255D01*
X42004Y-19255D01*
X42055Y-19272D01*
X42072Y-19289D01*
X42207Y-19289D02*
X42224Y-19272D01*
X42257Y-19255D01*
X42342Y-19255D01*
X42375Y-19272D01*
X42392Y-19289D01*
X42409Y-19323D01*
X42409Y-19357D01*
X42392Y-19407D01*
X42190Y-19610D01*
X42409Y-19610D01*
X42713Y-19255D02*
X42645Y-19255D01*
X42612Y-19272D01*
X42595Y-19289D01*
X42561Y-19340D01*
X42544Y-19407D01*
X42544Y-19542D01*
X42561Y-19576D01*
X42578Y-19593D01*
X42612Y-19610D01*
X42679Y-19610D01*
X42713Y-19593D01*
X42730Y-19576D01*
X42747Y-19542D01*
X42747Y-19458D01*
X42730Y-19424D01*
X42713Y-19407D01*
X42679Y-19390D01*
X42612Y-19390D01*
X42578Y-19407D01*
X42561Y-19424D01*
X42544Y-19458D01*
X52072Y-20126D02*
X52055Y-20143D01*
X52004Y-20160D01*
X51970Y-20160D01*
X51920Y-20143D01*
X51886Y-20109D01*
X51869Y-20075D01*
X51852Y-20008D01*
X51852Y-19957D01*
X51869Y-19890D01*
X51886Y-19856D01*
X51920Y-19822D01*
X51970Y-19805D01*
X52004Y-19805D01*
X52055Y-19822D01*
X52072Y-19839D01*
X52190Y-19805D02*
X52409Y-19805D01*
X52291Y-19940D01*
X52342Y-19940D01*
X52375Y-19957D01*
X52392Y-19974D01*
X52409Y-20008D01*
X52409Y-20092D01*
X52392Y-20126D01*
X52375Y-20143D01*
X52342Y-20160D01*
X52240Y-20160D01*
X52207Y-20143D01*
X52190Y-20126D01*
X52713Y-19924D02*
X52713Y-20160D01*
X52629Y-19789D02*
X52544Y-20042D01*
X52764Y-20042D01*
X30088Y-16060D02*
X30088Y-15705D01*
X30172Y-15705D01*
X30223Y-15722D01*
X30257Y-15756D01*
X30274Y-15790D01*
X30290Y-15857D01*
X30290Y-15908D01*
X30274Y-15975D01*
X30257Y-16009D01*
X30223Y-16043D01*
X30172Y-16060D01*
X30088Y-16060D01*
X30459Y-16060D02*
X30527Y-16060D01*
X30560Y-16043D01*
X30577Y-16026D01*
X30611Y-15975D01*
X30628Y-15908D01*
X30628Y-15773D01*
X30611Y-15739D01*
X30594Y-15722D01*
X30560Y-15705D01*
X30493Y-15705D01*
X30459Y-15722D01*
X30442Y-15739D01*
X30425Y-15773D01*
X30425Y-15857D01*
X30442Y-15891D01*
X30459Y-15908D01*
X30493Y-15925D01*
X30560Y-15925D01*
X30594Y-15908D01*
X30611Y-15891D01*
X30628Y-15857D01*
X38255Y-30919D02*
X38542Y-30919D01*
X38576Y-30903D01*
X38593Y-30886D01*
X38610Y-30852D01*
X38610Y-30784D01*
X38593Y-30751D01*
X38576Y-30734D01*
X38542Y-30717D01*
X38255Y-30717D01*
X38289Y-30565D02*
X38272Y-30548D01*
X38255Y-30515D01*
X38255Y-30430D01*
X38272Y-30396D01*
X38289Y-30380D01*
X38323Y-30363D01*
X38357Y-30363D01*
X38407Y-30380D01*
X38610Y-30582D01*
X38610Y-30363D01*
X48872Y-17376D02*
X48855Y-17393D01*
X48804Y-17410D01*
X48770Y-17410D01*
X48720Y-17393D01*
X48686Y-17359D01*
X48669Y-17325D01*
X48652Y-17258D01*
X48652Y-17207D01*
X48669Y-17140D01*
X48686Y-17106D01*
X48720Y-17072D01*
X48770Y-17055D01*
X48804Y-17055D01*
X48855Y-17072D01*
X48872Y-17089D01*
X49007Y-17089D02*
X49024Y-17072D01*
X49057Y-17055D01*
X49142Y-17055D01*
X49175Y-17072D01*
X49192Y-17089D01*
X49209Y-17123D01*
X49209Y-17157D01*
X49192Y-17207D01*
X48990Y-17410D01*
X49209Y-17410D01*
X49412Y-17207D02*
X49378Y-17190D01*
X49361Y-17174D01*
X49344Y-17140D01*
X49344Y-17123D01*
X49361Y-17089D01*
X49378Y-17072D01*
X49412Y-17055D01*
X49479Y-17055D01*
X49513Y-17072D01*
X49530Y-17089D01*
X49547Y-17123D01*
X49547Y-17140D01*
X49530Y-17174D01*
X49513Y-17190D01*
X49479Y-17207D01*
X49412Y-17207D01*
X49378Y-17224D01*
X49361Y-17241D01*
X49344Y-17275D01*
X49344Y-17342D01*
X49361Y-17376D01*
X49378Y-17393D01*
X49412Y-17410D01*
X49479Y-17410D01*
X49513Y-17393D01*
X49530Y-17376D01*
X49547Y-17342D01*
X49547Y-17275D01*
X49530Y-17241D01*
X49513Y-17224D01*
X49479Y-17207D01*
X46160Y-12559D02*
X45991Y-12677D01*
X46160Y-12761D02*
X45805Y-12761D01*
X45805Y-12626D01*
X45822Y-12592D01*
X45839Y-12575D01*
X45873Y-12559D01*
X45924Y-12559D01*
X45957Y-12575D01*
X45974Y-12592D01*
X45991Y-12626D01*
X45991Y-12761D01*
X46160Y-12221D02*
X46160Y-12424D01*
X46160Y-12322D02*
X45805Y-12322D01*
X45856Y-12356D01*
X45890Y-12390D01*
X45907Y-12424D01*
X51439Y-10456D02*
X51439Y-10743D01*
X51456Y-10776D01*
X51473Y-10793D01*
X51506Y-10810D01*
X51574Y-10810D01*
X51608Y-10793D01*
X51625Y-10776D01*
X51641Y-10743D01*
X51641Y-10456D01*
X51776Y-10456D02*
X51996Y-10456D01*
X51878Y-10591D01*
X51928Y-10591D01*
X51962Y-10608D01*
X51979Y-10625D01*
X51996Y-10658D01*
X51996Y-10743D01*
X51979Y-10776D01*
X51962Y-10793D01*
X51928Y-10810D01*
X51827Y-10810D01*
X51793Y-10793D01*
X51776Y-10776D01*
X42840Y-15860D02*
X42672Y-15860D01*
X42672Y-15505D01*
X42925Y-15505D02*
X43161Y-15505D01*
X43009Y-15860D01*
X60272Y-13326D02*
X60255Y-13343D01*
X60204Y-13360D01*
X60170Y-13360D01*
X60120Y-13343D01*
X60086Y-13309D01*
X60069Y-13275D01*
X60052Y-13208D01*
X60052Y-13157D01*
X60069Y-13090D01*
X60086Y-13056D01*
X60120Y-13022D01*
X60170Y-13005D01*
X60204Y-13005D01*
X60255Y-13022D01*
X60272Y-13039D01*
X60390Y-13005D02*
X60609Y-13005D01*
X60491Y-13140D01*
X60542Y-13140D01*
X60575Y-13157D01*
X60592Y-13174D01*
X60609Y-13208D01*
X60609Y-13292D01*
X60592Y-13326D01*
X60575Y-13343D01*
X60542Y-13360D01*
X60440Y-13360D01*
X60407Y-13343D01*
X60390Y-13326D01*
X60829Y-13005D02*
X60862Y-13005D01*
X60896Y-13022D01*
X60913Y-13039D01*
X60930Y-13073D01*
X60947Y-13140D01*
X60947Y-13225D01*
X60930Y-13292D01*
X60913Y-13326D01*
X60896Y-13343D01*
X60862Y-13360D01*
X60829Y-13360D01*
X60795Y-13343D01*
X60778Y-13326D01*
X60761Y-13292D01*
X60744Y-13225D01*
X60744Y-13140D01*
X60761Y-13073D01*
X60778Y-13039D01*
X60795Y-13022D01*
X60829Y-13005D01*
X50526Y-18227D02*
X50543Y-18244D01*
X50560Y-18295D01*
X50560Y-18329D01*
X50543Y-18379D01*
X50509Y-18413D01*
X50475Y-18430D01*
X50408Y-18447D01*
X50357Y-18447D01*
X50290Y-18430D01*
X50256Y-18413D01*
X50222Y-18379D01*
X50205Y-18329D01*
X50205Y-18295D01*
X50222Y-18244D01*
X50239Y-18227D01*
X50205Y-18109D02*
X50205Y-17890D01*
X50340Y-18008D01*
X50340Y-17957D01*
X50357Y-17924D01*
X50374Y-17907D01*
X50408Y-17890D01*
X50492Y-17890D01*
X50526Y-17907D01*
X50543Y-17924D01*
X50560Y-17957D01*
X50560Y-18059D01*
X50543Y-18092D01*
X50526Y-18109D01*
X50205Y-17772D02*
X50205Y-17552D01*
X50340Y-17670D01*
X50340Y-17620D01*
X50357Y-17586D01*
X50374Y-17569D01*
X50408Y-17552D01*
X50492Y-17552D01*
X50526Y-17569D01*
X50543Y-17586D01*
X50560Y-17620D01*
X50560Y-17721D01*
X50543Y-17755D01*
X50526Y-17772D01*
X35974Y-12618D02*
X35974Y-12736D01*
X36160Y-12736D02*
X35805Y-12736D01*
X35805Y-12567D01*
X36160Y-12246D02*
X36160Y-12449D01*
X36160Y-12348D02*
X35805Y-12348D01*
X35856Y-12381D01*
X35890Y-12415D01*
X35907Y-12449D01*
X38076Y-33477D02*
X38093Y-33494D01*
X38110Y-33545D01*
X38110Y-33579D01*
X38093Y-33629D01*
X38059Y-33663D01*
X38025Y-33680D01*
X37958Y-33697D01*
X37907Y-33697D01*
X37840Y-33680D01*
X37806Y-33663D01*
X37772Y-33629D01*
X37755Y-33579D01*
X37755Y-33545D01*
X37772Y-33494D01*
X37789Y-33477D01*
X38110Y-33140D02*
X38110Y-33342D01*
X38110Y-33241D02*
X37755Y-33241D01*
X37806Y-33275D01*
X37840Y-33309D01*
X37857Y-33342D01*
X37789Y-33005D02*
X37772Y-32988D01*
X37755Y-32954D01*
X37755Y-32870D01*
X37772Y-32836D01*
X37789Y-32819D01*
X37823Y-32802D01*
X37857Y-32802D01*
X37907Y-32819D01*
X38110Y-33022D01*
X38110Y-32802D01*
X47800Y-26919D02*
X47631Y-27037D01*
X47800Y-27121D02*
X47445Y-27121D01*
X47445Y-26986D01*
X47462Y-26952D01*
X47479Y-26935D01*
X47513Y-26919D01*
X47564Y-26919D01*
X47597Y-26935D01*
X47614Y-26952D01*
X47631Y-26986D01*
X47631Y-27121D01*
X47445Y-26615D02*
X47445Y-26682D01*
X47462Y-26716D01*
X47479Y-26733D01*
X47530Y-26767D01*
X47597Y-26784D01*
X47732Y-26784D01*
X47766Y-26767D01*
X47783Y-26750D01*
X47800Y-26716D01*
X47800Y-26649D01*
X47783Y-26615D01*
X47766Y-26598D01*
X47732Y-26581D01*
X47648Y-26581D01*
X47614Y-26598D01*
X47597Y-26615D01*
X47580Y-26649D01*
X47580Y-26716D01*
X47597Y-26750D01*
X47614Y-26767D01*
X47648Y-26784D01*
X29590Y-25360D02*
X29472Y-25191D01*
X29388Y-25360D02*
X29388Y-25005D01*
X29523Y-25005D01*
X29557Y-25022D01*
X29574Y-25039D01*
X29590Y-25073D01*
X29590Y-25124D01*
X29574Y-25157D01*
X29557Y-25174D01*
X29523Y-25191D01*
X29388Y-25191D01*
X29709Y-25005D02*
X29945Y-25005D01*
X29793Y-25360D01*
X29872Y-33010D02*
X29754Y-32841D01*
X29669Y-33010D02*
X29669Y-32655D01*
X29804Y-32655D01*
X29838Y-32672D01*
X29855Y-32689D01*
X29872Y-32723D01*
X29872Y-32774D01*
X29855Y-32807D01*
X29838Y-32824D01*
X29804Y-32841D01*
X29669Y-32841D01*
X30007Y-32689D02*
X30024Y-32672D01*
X30057Y-32655D01*
X30142Y-32655D01*
X30175Y-32672D01*
X30192Y-32689D01*
X30209Y-32723D01*
X30209Y-32757D01*
X30192Y-32807D01*
X29990Y-33010D01*
X30209Y-33010D01*
X30412Y-32807D02*
X30378Y-32790D01*
X30361Y-32774D01*
X30344Y-32740D01*
X30344Y-32723D01*
X30361Y-32689D01*
X30378Y-32672D01*
X30412Y-32655D01*
X30479Y-32655D01*
X30513Y-32672D01*
X30530Y-32689D01*
X30547Y-32723D01*
X30547Y-32740D01*
X30530Y-32774D01*
X30513Y-32790D01*
X30479Y-32807D01*
X30412Y-32807D01*
X30378Y-32824D01*
X30361Y-32841D01*
X30344Y-32875D01*
X30344Y-32942D01*
X30361Y-32976D01*
X30378Y-32993D01*
X30412Y-33010D01*
X30479Y-33010D01*
X30513Y-32993D01*
X30530Y-32976D01*
X30547Y-32942D01*
X30547Y-32875D01*
X30530Y-32841D01*
X30513Y-32824D01*
X30479Y-32807D01*
X40560Y-14530D02*
X40205Y-14530D01*
X40205Y-14445D01*
X40222Y-14395D01*
X40256Y-14361D01*
X40290Y-14344D01*
X40357Y-14327D01*
X40408Y-14327D01*
X40475Y-14344D01*
X40509Y-14361D01*
X40543Y-14395D01*
X40560Y-14445D01*
X40560Y-14530D01*
X40560Y-13990D02*
X40560Y-14192D01*
X40560Y-14091D02*
X40205Y-14091D01*
X40256Y-14125D01*
X40290Y-14159D01*
X40307Y-14192D01*
X40205Y-13770D02*
X40205Y-13737D01*
X40222Y-13703D01*
X40239Y-13686D01*
X40273Y-13669D01*
X40340Y-13652D01*
X40425Y-13652D01*
X40492Y-13669D01*
X40526Y-13686D01*
X40543Y-13703D01*
X40560Y-13737D01*
X40560Y-13770D01*
X40543Y-13804D01*
X40526Y-13821D01*
X40492Y-13838D01*
X40425Y-13855D01*
X40340Y-13855D01*
X40273Y-13838D01*
X40239Y-13821D01*
X40222Y-13804D01*
X40205Y-13770D01*
X29569Y-30560D02*
X29569Y-30205D01*
X29654Y-30205D01*
X29704Y-30222D01*
X29738Y-30256D01*
X29755Y-30290D01*
X29772Y-30357D01*
X29772Y-30408D01*
X29755Y-30475D01*
X29738Y-30509D01*
X29704Y-30543D01*
X29654Y-30560D01*
X29569Y-30560D01*
X30109Y-30560D02*
X29907Y-30560D01*
X30008Y-30560D02*
X30008Y-30205D01*
X29974Y-30256D01*
X29940Y-30290D01*
X29907Y-30307D01*
X30447Y-30560D02*
X30244Y-30560D01*
X30345Y-30560D02*
X30345Y-30205D01*
X30312Y-30256D01*
X30278Y-30290D01*
X30244Y-30307D01*
X32558Y-28464D02*
X32558Y-28109D01*
X32760Y-28464D02*
X32608Y-28261D01*
X32760Y-28109D02*
X32558Y-28312D01*
X33098Y-28464D02*
X32895Y-28464D01*
X32996Y-28464D02*
X32996Y-28109D01*
X32963Y-28160D01*
X32929Y-28194D01*
X32895Y-28211D01*
X62638Y-31410D02*
X62638Y-31055D01*
X62840Y-31410D02*
X62689Y-31207D01*
X62840Y-31055D02*
X62638Y-31258D01*
X62975Y-31089D02*
X62992Y-31072D01*
X63026Y-31055D01*
X63110Y-31055D01*
X63144Y-31072D01*
X63161Y-31089D01*
X63178Y-31123D01*
X63178Y-31157D01*
X63161Y-31207D01*
X62959Y-31410D01*
X63178Y-31410D01*
X41310Y-17177D02*
X41141Y-17295D01*
X41310Y-17380D02*
X40955Y-17380D01*
X40955Y-17245D01*
X40972Y-17211D01*
X40989Y-17194D01*
X41023Y-17177D01*
X41074Y-17177D01*
X41107Y-17194D01*
X41124Y-17211D01*
X41141Y-17245D01*
X41141Y-17380D01*
X41310Y-16840D02*
X41310Y-17042D01*
X41310Y-16941D02*
X40955Y-16941D01*
X41006Y-16975D01*
X41040Y-17009D01*
X41057Y-17042D01*
X40989Y-16705D02*
X40972Y-16688D01*
X40955Y-16654D01*
X40955Y-16570D01*
X40972Y-16536D01*
X40989Y-16519D01*
X41023Y-16502D01*
X41057Y-16502D01*
X41107Y-16519D01*
X41310Y-16722D01*
X41310Y-16502D01*
X53522Y-19810D02*
X53404Y-19641D01*
X53319Y-19810D02*
X53319Y-19455D01*
X53454Y-19455D01*
X53488Y-19472D01*
X53505Y-19489D01*
X53522Y-19523D01*
X53522Y-19574D01*
X53505Y-19607D01*
X53488Y-19624D01*
X53454Y-19641D01*
X53319Y-19641D01*
X53859Y-19810D02*
X53657Y-19810D01*
X53758Y-19810D02*
X53758Y-19455D01*
X53724Y-19506D01*
X53690Y-19540D01*
X53657Y-19557D01*
X54163Y-19455D02*
X54095Y-19455D01*
X54062Y-19472D01*
X54045Y-19489D01*
X54011Y-19540D01*
X53994Y-19607D01*
X53994Y-19742D01*
X54011Y-19776D01*
X54028Y-19793D01*
X54062Y-19810D01*
X54129Y-19810D01*
X54163Y-19793D01*
X54180Y-19776D01*
X54197Y-19742D01*
X54197Y-19658D01*
X54180Y-19624D01*
X54163Y-19607D01*
X54129Y-19590D01*
X54062Y-19590D01*
X54028Y-19607D01*
X54011Y-19624D01*
X53994Y-19658D01*
X55572Y-21660D02*
X55454Y-21491D01*
X55369Y-21660D02*
X55369Y-21305D01*
X55504Y-21305D01*
X55538Y-21322D01*
X55555Y-21339D01*
X55572Y-21373D01*
X55572Y-21424D01*
X55555Y-21457D01*
X55538Y-21474D01*
X55504Y-21491D01*
X55369Y-21491D01*
X55909Y-21660D02*
X55707Y-21660D01*
X55808Y-21660D02*
X55808Y-21305D01*
X55774Y-21356D01*
X55740Y-21390D01*
X55707Y-21407D01*
X56027Y-21305D02*
X56264Y-21305D01*
X56112Y-21660D01*
X27410Y-31227D02*
X27241Y-31345D01*
X27410Y-31430D02*
X27055Y-31430D01*
X27055Y-31295D01*
X27072Y-31261D01*
X27089Y-31244D01*
X27123Y-31227D01*
X27174Y-31227D01*
X27207Y-31244D01*
X27224Y-31261D01*
X27241Y-31295D01*
X27241Y-31430D01*
X27410Y-30890D02*
X27410Y-31092D01*
X27410Y-30991D02*
X27055Y-30991D01*
X27106Y-31025D01*
X27140Y-31059D01*
X27157Y-31092D01*
X27207Y-30687D02*
X27190Y-30721D01*
X27174Y-30738D01*
X27140Y-30755D01*
X27123Y-30755D01*
X27089Y-30738D01*
X27072Y-30721D01*
X27055Y-30687D01*
X27055Y-30620D01*
X27072Y-30586D01*
X27089Y-30569D01*
X27123Y-30552D01*
X27140Y-30552D01*
X27174Y-30569D01*
X27190Y-30586D01*
X27207Y-30620D01*
X27207Y-30687D01*
X27224Y-30721D01*
X27241Y-30738D01*
X27275Y-30755D01*
X27342Y-30755D01*
X27376Y-30738D01*
X27393Y-30721D01*
X27410Y-30687D01*
X27410Y-30620D01*
X27393Y-30586D01*
X27376Y-30569D01*
X27342Y-30552D01*
X27275Y-30552D01*
X27241Y-30569D01*
X27224Y-30586D01*
X27207Y-30620D01*
X29176Y-16077D02*
X29193Y-16094D01*
X29210Y-16145D01*
X29210Y-16179D01*
X29193Y-16229D01*
X29159Y-16263D01*
X29125Y-16280D01*
X29058Y-16297D01*
X29007Y-16297D01*
X28940Y-16280D01*
X28906Y-16263D01*
X28872Y-16229D01*
X28855Y-16179D01*
X28855Y-16145D01*
X28872Y-16094D01*
X28889Y-16077D01*
X28855Y-15959D02*
X28855Y-15740D01*
X28990Y-15858D01*
X28990Y-15807D01*
X29007Y-15774D01*
X29024Y-15757D01*
X29058Y-15740D01*
X29142Y-15740D01*
X29176Y-15757D01*
X29193Y-15774D01*
X29210Y-15807D01*
X29210Y-15909D01*
X29193Y-15942D01*
X29176Y-15959D01*
X29210Y-15402D02*
X29210Y-15605D01*
X29210Y-15504D02*
X28855Y-15504D01*
X28906Y-15537D01*
X28940Y-15571D01*
X28957Y-15605D01*
X24560Y-18327D02*
X24391Y-18445D01*
X24560Y-18530D02*
X24205Y-18530D01*
X24205Y-18395D01*
X24222Y-18361D01*
X24239Y-18344D01*
X24273Y-18327D01*
X24324Y-18327D01*
X24357Y-18344D01*
X24374Y-18361D01*
X24391Y-18395D01*
X24391Y-18530D01*
X24560Y-17990D02*
X24560Y-18192D01*
X24560Y-18091D02*
X24205Y-18091D01*
X24256Y-18125D01*
X24290Y-18159D01*
X24307Y-18192D01*
X24560Y-17821D02*
X24560Y-17754D01*
X24543Y-17720D01*
X24526Y-17703D01*
X24475Y-17669D01*
X24408Y-17652D01*
X24273Y-17652D01*
X24239Y-17669D01*
X24222Y-17686D01*
X24205Y-17720D01*
X24205Y-17787D01*
X24222Y-17821D01*
X24239Y-17838D01*
X24273Y-17855D01*
X24357Y-17855D01*
X24391Y-17838D01*
X24408Y-17821D01*
X24425Y-17787D01*
X24425Y-17720D01*
X24408Y-17686D01*
X24391Y-17669D01*
X24357Y-17652D01*
X25410Y-15027D02*
X25241Y-15145D01*
X25410Y-15230D02*
X25055Y-15230D01*
X25055Y-15095D01*
X25072Y-15061D01*
X25089Y-15044D01*
X25123Y-15027D01*
X25174Y-15027D01*
X25207Y-15044D01*
X25224Y-15061D01*
X25241Y-15095D01*
X25241Y-15230D01*
X25089Y-14892D02*
X25072Y-14875D01*
X25055Y-14842D01*
X25055Y-14757D01*
X25072Y-14724D01*
X25089Y-14707D01*
X25123Y-14690D01*
X25157Y-14690D01*
X25207Y-14707D01*
X25410Y-14909D01*
X25410Y-14690D01*
X25410Y-14521D02*
X25410Y-14454D01*
X25393Y-14420D01*
X25376Y-14403D01*
X25325Y-14369D01*
X25258Y-14352D01*
X25123Y-14352D01*
X25089Y-14369D01*
X25072Y-14386D01*
X25055Y-14420D01*
X25055Y-14487D01*
X25072Y-14521D01*
X25089Y-14538D01*
X25123Y-14555D01*
X25207Y-14555D01*
X25241Y-14538D01*
X25258Y-14521D01*
X25275Y-14487D01*
X25275Y-14420D01*
X25258Y-14386D01*
X25241Y-14369D01*
X25207Y-14352D01*
X27722Y-14610D02*
X27604Y-14441D01*
X27519Y-14610D02*
X27519Y-14255D01*
X27654Y-14255D01*
X27688Y-14272D01*
X27705Y-14289D01*
X27722Y-14323D01*
X27722Y-14374D01*
X27705Y-14407D01*
X27688Y-14424D01*
X27654Y-14441D01*
X27519Y-14441D01*
X27840Y-14255D02*
X28059Y-14255D01*
X27941Y-14390D01*
X27992Y-14390D01*
X28025Y-14407D01*
X28042Y-14424D01*
X28059Y-14458D01*
X28059Y-14542D01*
X28042Y-14576D01*
X28025Y-14593D01*
X27992Y-14610D01*
X27890Y-14610D01*
X27857Y-14593D01*
X27840Y-14576D01*
X28279Y-14255D02*
X28312Y-14255D01*
X28346Y-14272D01*
X28363Y-14289D01*
X28380Y-14323D01*
X28397Y-14390D01*
X28397Y-14475D01*
X28380Y-14542D01*
X28363Y-14576D01*
X28346Y-14593D01*
X28312Y-14610D01*
X28279Y-14610D01*
X28245Y-14593D01*
X28228Y-14576D01*
X28211Y-14542D01*
X28194Y-14475D01*
X28194Y-14390D01*
X28211Y-14323D01*
X28228Y-14289D01*
X28245Y-14272D01*
X28279Y-14255D01*
X26460Y-16427D02*
X26291Y-16545D01*
X26460Y-16630D02*
X26105Y-16630D01*
X26105Y-16495D01*
X26122Y-16461D01*
X26139Y-16444D01*
X26173Y-16427D01*
X26224Y-16427D01*
X26257Y-16444D01*
X26274Y-16461D01*
X26291Y-16495D01*
X26291Y-16630D01*
X26105Y-16309D02*
X26105Y-16090D01*
X26240Y-16208D01*
X26240Y-16157D01*
X26257Y-16124D01*
X26274Y-16107D01*
X26308Y-16090D01*
X26392Y-16090D01*
X26426Y-16107D01*
X26443Y-16124D01*
X26460Y-16157D01*
X26460Y-16259D01*
X26443Y-16292D01*
X26426Y-16309D01*
X26460Y-15752D02*
X26460Y-15955D01*
X26460Y-15854D02*
X26105Y-15854D01*
X26156Y-15887D01*
X26190Y-15921D01*
X26207Y-15955D01*
X29726Y-18527D02*
X29743Y-18544D01*
X29760Y-18595D01*
X29760Y-18629D01*
X29743Y-18679D01*
X29709Y-18713D01*
X29675Y-18730D01*
X29608Y-18747D01*
X29557Y-18747D01*
X29490Y-18730D01*
X29456Y-18713D01*
X29422Y-18679D01*
X29405Y-18629D01*
X29405Y-18595D01*
X29422Y-18544D01*
X29439Y-18527D01*
X29405Y-18409D02*
X29405Y-18190D01*
X29540Y-18308D01*
X29540Y-18257D01*
X29557Y-18224D01*
X29574Y-18207D01*
X29608Y-18190D01*
X29692Y-18190D01*
X29726Y-18207D01*
X29743Y-18224D01*
X29760Y-18257D01*
X29760Y-18359D01*
X29743Y-18392D01*
X29726Y-18409D01*
X29439Y-18055D02*
X29422Y-18038D01*
X29405Y-18004D01*
X29405Y-17920D01*
X29422Y-17886D01*
X29439Y-17869D01*
X29473Y-17852D01*
X29507Y-17852D01*
X29557Y-17869D01*
X29760Y-18072D01*
X29760Y-17852D01*
X33010Y-20909D02*
X33010Y-21077D01*
X32655Y-21077D01*
X32807Y-20740D02*
X32790Y-20774D01*
X32774Y-20790D01*
X32740Y-20807D01*
X32723Y-20807D01*
X32689Y-20790D01*
X32672Y-20774D01*
X32655Y-20740D01*
X32655Y-20672D01*
X32672Y-20639D01*
X32689Y-20622D01*
X32723Y-20605D01*
X32740Y-20605D01*
X32774Y-20622D01*
X32790Y-20639D01*
X32807Y-20672D01*
X32807Y-20740D01*
X32824Y-20774D01*
X32841Y-20790D01*
X32875Y-20807D01*
X32942Y-20807D01*
X32976Y-20790D01*
X32993Y-20774D01*
X33010Y-20740D01*
X33010Y-20672D01*
X32993Y-20639D01*
X32976Y-20622D01*
X32942Y-20605D01*
X32875Y-20605D01*
X32841Y-20622D01*
X32824Y-20639D01*
X32807Y-20672D01*
X40126Y-15227D02*
X40143Y-15244D01*
X40160Y-15295D01*
X40160Y-15329D01*
X40143Y-15379D01*
X40109Y-15413D01*
X40075Y-15430D01*
X40008Y-15447D01*
X39957Y-15447D01*
X39890Y-15430D01*
X39856Y-15413D01*
X39822Y-15379D01*
X39805Y-15329D01*
X39805Y-15295D01*
X39822Y-15244D01*
X39839Y-15227D01*
X39805Y-15109D02*
X39805Y-14890D01*
X39940Y-15008D01*
X39940Y-14957D01*
X39957Y-14924D01*
X39974Y-14907D01*
X40008Y-14890D01*
X40092Y-14890D01*
X40126Y-14907D01*
X40143Y-14924D01*
X40160Y-14957D01*
X40160Y-15059D01*
X40143Y-15092D01*
X40126Y-15109D01*
X39805Y-14569D02*
X39805Y-14738D01*
X39974Y-14755D01*
X39957Y-14738D01*
X39940Y-14704D01*
X39940Y-14620D01*
X39957Y-14586D01*
X39974Y-14569D01*
X40008Y-14552D01*
X40092Y-14552D01*
X40126Y-14569D01*
X40143Y-14586D01*
X40160Y-14620D01*
X40160Y-14704D01*
X40143Y-14738D01*
X40126Y-14755D01*
X39126Y-15227D02*
X39143Y-15244D01*
X39160Y-15295D01*
X39160Y-15329D01*
X39143Y-15379D01*
X39109Y-15413D01*
X39075Y-15430D01*
X39008Y-15447D01*
X38957Y-15447D01*
X38890Y-15430D01*
X38856Y-15413D01*
X38822Y-15379D01*
X38805Y-15329D01*
X38805Y-15295D01*
X38822Y-15244D01*
X38839Y-15227D01*
X38805Y-15109D02*
X38805Y-14890D01*
X38940Y-15008D01*
X38940Y-14957D01*
X38957Y-14924D01*
X38974Y-14907D01*
X39008Y-14890D01*
X39092Y-14890D01*
X39126Y-14907D01*
X39143Y-14924D01*
X39160Y-14957D01*
X39160Y-15059D01*
X39143Y-15092D01*
X39126Y-15109D01*
X38805Y-14586D02*
X38805Y-14654D01*
X38822Y-14687D01*
X38839Y-14704D01*
X38890Y-14738D01*
X38957Y-14755D01*
X39092Y-14755D01*
X39126Y-14738D01*
X39143Y-14721D01*
X39160Y-14687D01*
X39160Y-14620D01*
X39143Y-14586D01*
X39126Y-14569D01*
X39092Y-14552D01*
X39008Y-14552D01*
X38974Y-14569D01*
X38957Y-14586D01*
X38940Y-14620D01*
X38940Y-14687D01*
X38957Y-14721D01*
X38974Y-14738D01*
X39008Y-14755D01*
X43938Y-10360D02*
X43938Y-10005D01*
X44140Y-10360D02*
X43989Y-10157D01*
X44140Y-10005D02*
X43938Y-10208D01*
X44259Y-10005D02*
X44478Y-10005D01*
X44360Y-10140D01*
X44410Y-10140D01*
X44444Y-10157D01*
X44461Y-10174D01*
X44478Y-10208D01*
X44478Y-10292D01*
X44461Y-10326D01*
X44444Y-10343D01*
X44410Y-10360D01*
X44309Y-10360D01*
X44275Y-10343D01*
X44259Y-10326D01*
X37140Y-10760D02*
X36972Y-10760D01*
X36972Y-10405D01*
X37275Y-10760D02*
X37343Y-10760D01*
X37377Y-10743D01*
X37394Y-10726D01*
X37427Y-10675D01*
X37444Y-10608D01*
X37444Y-10473D01*
X37427Y-10439D01*
X37410Y-10422D01*
X37377Y-10405D01*
X37309Y-10405D01*
X37275Y-10422D01*
X37259Y-10439D01*
X37242Y-10473D01*
X37242Y-10557D01*
X37259Y-10591D01*
X37275Y-10608D01*
X37309Y-10625D01*
X37377Y-10625D01*
X37410Y-10608D01*
X37427Y-10591D01*
X37444Y-10557D01*
X27016Y-19694D02*
X26982Y-19677D01*
X26948Y-19643D01*
X26898Y-19592D01*
X26864Y-19575D01*
X26830Y-19575D01*
X26847Y-19660D02*
X26813Y-19643D01*
X26780Y-19609D01*
X26763Y-19542D01*
X26763Y-19424D01*
X26780Y-19356D01*
X26813Y-19322D01*
X26847Y-19305D01*
X26915Y-19305D01*
X26948Y-19322D01*
X26982Y-19356D01*
X26999Y-19424D01*
X26999Y-19542D01*
X26982Y-19609D01*
X26948Y-19643D01*
X26915Y-19660D01*
X26847Y-19660D01*
X27336Y-19660D02*
X27134Y-19660D01*
X27235Y-19660D02*
X27235Y-19305D01*
X27201Y-19356D01*
X27168Y-19390D01*
X27134Y-19407D01*
X23994Y-16533D02*
X23977Y-16567D01*
X23943Y-16601D01*
X23892Y-16651D01*
X23875Y-16685D01*
X23875Y-16719D01*
X23960Y-16702D02*
X23943Y-16736D01*
X23909Y-16769D01*
X23842Y-16786D01*
X23724Y-16786D01*
X23656Y-16769D01*
X23622Y-16736D01*
X23605Y-16702D01*
X23605Y-16634D01*
X23622Y-16601D01*
X23656Y-16567D01*
X23724Y-16550D01*
X23842Y-16550D01*
X23909Y-16567D01*
X23943Y-16601D01*
X23960Y-16634D01*
X23960Y-16702D01*
X23639Y-16415D02*
X23622Y-16398D01*
X23605Y-16365D01*
X23605Y-16280D01*
X23622Y-16246D01*
X23639Y-16230D01*
X23673Y-16213D01*
X23707Y-16213D01*
X23757Y-16230D01*
X23960Y-16432D01*
X23960Y-16213D01*
X28596Y-21203D02*
X28596Y-20849D01*
X28681Y-20849D01*
X28731Y-20866D01*
X28765Y-20899D01*
X28782Y-20933D01*
X28799Y-21001D01*
X28799Y-21051D01*
X28782Y-21119D01*
X28765Y-21152D01*
X28731Y-21186D01*
X28681Y-21203D01*
X28596Y-21203D01*
X28934Y-20883D02*
X28951Y-20866D01*
X28984Y-20849D01*
X29069Y-20849D01*
X29102Y-20866D01*
X29119Y-20883D01*
X29136Y-20916D01*
X29136Y-20950D01*
X29119Y-21001D01*
X28917Y-21203D01*
X29136Y-21203D01*
X38664Y-25970D02*
X38309Y-25970D01*
X38309Y-25885D01*
X38326Y-25835D01*
X38360Y-25801D01*
X38394Y-25784D01*
X38461Y-25767D01*
X38512Y-25767D01*
X38579Y-25784D01*
X38613Y-25801D01*
X38647Y-25835D01*
X38664Y-25885D01*
X38664Y-25970D01*
X38428Y-25464D02*
X38664Y-25464D01*
X38293Y-25548D02*
X38546Y-25632D01*
X38546Y-25413D01*
X60540Y-26526D02*
X60524Y-26543D01*
X60473Y-26560D01*
X60439Y-26560D01*
X60389Y-26543D01*
X60355Y-26509D01*
X60338Y-26475D01*
X60321Y-26408D01*
X60321Y-26357D01*
X60338Y-26290D01*
X60355Y-26256D01*
X60389Y-26222D01*
X60439Y-26205D01*
X60473Y-26205D01*
X60524Y-26222D01*
X60540Y-26239D01*
X60844Y-26324D02*
X60844Y-26560D01*
X60760Y-26189D02*
X60675Y-26442D01*
X60895Y-26442D01*
X56240Y-17460D02*
X56122Y-17291D01*
X56038Y-17460D02*
X56038Y-17105D01*
X56173Y-17105D01*
X56207Y-17122D01*
X56224Y-17139D01*
X56240Y-17173D01*
X56240Y-17224D01*
X56224Y-17257D01*
X56207Y-17274D01*
X56173Y-17291D01*
X56038Y-17291D01*
X56359Y-17105D02*
X56578Y-17105D01*
X56460Y-17240D01*
X56510Y-17240D01*
X56544Y-17257D01*
X56561Y-17274D01*
X56578Y-17308D01*
X56578Y-17392D01*
X56561Y-17426D01*
X56544Y-17443D01*
X56510Y-17460D01*
X56409Y-17460D01*
X56375Y-17443D01*
X56359Y-17426D01*
X54372Y-18860D02*
X54254Y-18691D01*
X54169Y-18860D02*
X54169Y-18505D01*
X54304Y-18505D01*
X54338Y-18522D01*
X54355Y-18539D01*
X54372Y-18573D01*
X54372Y-18624D01*
X54355Y-18657D01*
X54338Y-18674D01*
X54304Y-18691D01*
X54169Y-18691D01*
X54709Y-18860D02*
X54507Y-18860D01*
X54608Y-18860D02*
X54608Y-18505D01*
X54574Y-18556D01*
X54540Y-18590D01*
X54507Y-18607D01*
X55013Y-18624D02*
X55013Y-18860D01*
X54929Y-18489D02*
X54844Y-18742D01*
X55064Y-18742D01*
G54D22*
X60285Y-32971D02*
X60285Y-32371D01*
X60485Y-32800D01*
X60685Y-32371D01*
X60685Y-32971D01*
X60971Y-32971D02*
X60971Y-32371D01*
X60971Y-32657D02*
X61314Y-32657D01*
X61314Y-32971D02*
X61314Y-32371D01*
X24785Y-32971D02*
X24785Y-32371D01*
X24985Y-32800D01*
X25185Y-32371D01*
X25185Y-32971D01*
X25471Y-32971D02*
X25471Y-32371D01*
X25471Y-32657D02*
X25814Y-32657D01*
X25814Y-32971D02*
X25814Y-32371D01*
X24735Y-12871D02*
X24735Y-12271D01*
X24935Y-12700D01*
X25135Y-12271D01*
X25135Y-12871D01*
X25421Y-12871D02*
X25421Y-12271D01*
X25421Y-12557D02*
X25764Y-12557D01*
X25764Y-12871D02*
X25764Y-12271D01*
G54D10*
G36*
X25801Y-31801D02*
X23098Y-31801D01*
X23098Y-27698D01*
X25801Y-27698D01*
X25801Y-31801D01*
X25801Y-31801D01*
G37*
G54D23*
X25801Y-31801D02*
X23098Y-31801D01*
X23098Y-27698D01*
X25801Y-27698D01*
X25801Y-31801D01*
M02*
