%FSLAX34Y34*%
G04 Gerber Fmt 3.4, Leading zero omitted, Abs format*
G04 (created by PCBNEW (2014-03-19 BZR 4756)-product) date Mon 28 Jul 2014 09:33:57 AM AKDT*
%MOIN*%
G01*
G70*
G90*
G04 APERTURE LIST*
%ADD10C,0.005906*%
%ADD11R,0.059000X0.051200*%
%ADD12R,0.063000X0.106000*%
%ADD13R,0.051200X0.059000*%
%ADD14R,0.106000X0.063000*%
%ADD15R,0.121024X0.060000*%
%ADD16R,0.050000X0.092913*%
%ADD17R,0.060000X0.121024*%
%ADD18R,0.200787X0.094488*%
%ADD19R,0.094488X0.200787*%
%ADD20R,0.062992X0.118110*%
%ADD21R,0.263780X0.263780*%
%ADD22R,0.050000X0.025000*%
%ADD23R,0.071000X0.063000*%
%ADD24R,0.062992X0.023622*%
%ADD25R,0.300000X0.078740*%
%ADD26R,0.208700X0.059100*%
%ADD27R,0.267700X0.072800*%
%ADD28R,0.079900X0.104400*%
%ADD29R,0.047200X0.047200*%
%ADD30O,0.059300X0.118700*%
%ADD31O,0.118700X0.059300*%
%ADD32R,0.027600X0.063000*%
%ADD33R,0.027600X0.082700*%
%ADD34R,0.078700X0.108300*%
%ADD35R,0.036000X0.036000*%
%ADD36R,0.137800X0.090600*%
%ADD37R,0.090600X0.137800*%
%ADD38R,0.050000X0.100000*%
%ADD39C,0.019685*%
G04 APERTURE END LIST*
G54D10*
G54D11*
X51100Y-21425D03*
X51100Y-20675D03*
G54D12*
X26500Y-22500D03*
X25400Y-22500D03*
G54D13*
X62375Y-25800D03*
X61625Y-25800D03*
X54225Y-20975D03*
X53475Y-20975D03*
G54D14*
X35700Y-22600D03*
X35700Y-21500D03*
X58700Y-26625D03*
X58700Y-25525D03*
X41250Y-23650D03*
X41250Y-22550D03*
X59100Y-16150D03*
X59100Y-15050D03*
X52584Y-28550D03*
X52584Y-29650D03*
G54D11*
X40150Y-33175D03*
X40150Y-33925D03*
G54D12*
X34100Y-22600D03*
X33000Y-22600D03*
G54D11*
X37050Y-25275D03*
X37050Y-24525D03*
G54D14*
X41300Y-26550D03*
X41300Y-27650D03*
G54D13*
X49409Y-29250D03*
X50159Y-29250D03*
X43875Y-17290D03*
X44625Y-17290D03*
X43905Y-18270D03*
X44655Y-18270D03*
G54D12*
X43965Y-16165D03*
X45065Y-16165D03*
X48100Y-19850D03*
X47000Y-19850D03*
X48100Y-18350D03*
X47000Y-18350D03*
G54D15*
X27500Y-25575D03*
X27500Y-28025D03*
G54D16*
X38498Y-22550D03*
X39601Y-22550D03*
X45151Y-22550D03*
X44048Y-22550D03*
G54D15*
X42900Y-25275D03*
X42900Y-27725D03*
G54D17*
X52559Y-30900D03*
X55009Y-30900D03*
X50109Y-32350D03*
X52559Y-32350D03*
G54D18*
X23500Y-22500D03*
X23500Y-20767D03*
X23500Y-24232D03*
G54D19*
X32775Y-10850D03*
X31042Y-10850D03*
X34507Y-10850D03*
X52584Y-34500D03*
X50851Y-34500D03*
X54316Y-34500D03*
G54D14*
X27500Y-22700D03*
X27500Y-23800D03*
X37100Y-23650D03*
X37100Y-22550D03*
X42750Y-22650D03*
X42750Y-21550D03*
G54D12*
X51284Y-27550D03*
X52384Y-27550D03*
G54D14*
X41250Y-24300D03*
X41250Y-25400D03*
G54D20*
X57594Y-22225D03*
X59405Y-22225D03*
G54D21*
X58500Y-19606D03*
G54D20*
X62705Y-18925D03*
X60894Y-18925D03*
G54D21*
X61800Y-21543D03*
G54D13*
X27355Y-24705D03*
X26605Y-24705D03*
X49409Y-28350D03*
X50159Y-28350D03*
G54D11*
X44100Y-25325D03*
X44100Y-26075D03*
X36150Y-25275D03*
X36150Y-24525D03*
X39800Y-28275D03*
X39800Y-27525D03*
X30200Y-29775D03*
X30200Y-29025D03*
G54D22*
X52000Y-21975D03*
X52000Y-22475D03*
X52000Y-22975D03*
X52000Y-23475D03*
X54200Y-23475D03*
X54200Y-22975D03*
X54200Y-22475D03*
X54200Y-21975D03*
G54D11*
X42350Y-17975D03*
X42350Y-18725D03*
G54D23*
X52300Y-17650D03*
X52300Y-18750D03*
G54D17*
X32825Y-14800D03*
X30375Y-14800D03*
G54D24*
X39187Y-32238D03*
X41312Y-32238D03*
X39187Y-31746D03*
X39187Y-31253D03*
X39187Y-30761D03*
X41312Y-31746D03*
X41312Y-31253D03*
X41312Y-30761D03*
G54D13*
X47875Y-17150D03*
X47125Y-17150D03*
G54D11*
X45950Y-14025D03*
X45950Y-13275D03*
G54D25*
X48087Y-11800D03*
X48087Y-13288D03*
X48087Y-15800D03*
X56512Y-15800D03*
X56512Y-13800D03*
X56512Y-11800D03*
G54D26*
X43950Y-13250D03*
X43950Y-14950D03*
G54D27*
X61500Y-16114D03*
X61500Y-14086D03*
G54D23*
X51100Y-17650D03*
X51100Y-18750D03*
G54D28*
X36900Y-12479D03*
X36900Y-14121D03*
G54D14*
X38900Y-33250D03*
X38900Y-34350D03*
X46950Y-27400D03*
X46950Y-26300D03*
G54D12*
X30850Y-26200D03*
X29750Y-26200D03*
G54D13*
X29725Y-32050D03*
X30475Y-32050D03*
G54D29*
X40400Y-15087D03*
X40400Y-15913D03*
X30413Y-31000D03*
X29587Y-31000D03*
G54D30*
X31800Y-29800D03*
X32800Y-29800D03*
X33800Y-29800D03*
G54D31*
X62100Y-30350D03*
X62100Y-29350D03*
X62100Y-28350D03*
G54D11*
X40400Y-16525D03*
X40400Y-17275D03*
X54650Y-20025D03*
X54650Y-19275D03*
G54D13*
X55525Y-20350D03*
X56275Y-20350D03*
X28025Y-31000D03*
X28775Y-31000D03*
G54D14*
X28050Y-15350D03*
X28050Y-16450D03*
G54D11*
X25200Y-18375D03*
X25200Y-17625D03*
X26000Y-14475D03*
X26000Y-15225D03*
X26950Y-14475D03*
X26950Y-15225D03*
X26950Y-15875D03*
X26950Y-16625D03*
X28900Y-17825D03*
X28900Y-18575D03*
G54D14*
X31950Y-21050D03*
X31950Y-22150D03*
G54D11*
X40000Y-13225D03*
X40000Y-13975D03*
X39000Y-13225D03*
X39000Y-13975D03*
G54D30*
X43200Y-11200D03*
X42200Y-11200D03*
X41200Y-11200D03*
G54D26*
X39000Y-10750D03*
X39000Y-12450D03*
G54D32*
X27541Y-17502D03*
G54D33*
X26950Y-17600D03*
G54D32*
X26359Y-17502D03*
G54D34*
X26950Y-18545D03*
G54D35*
X25200Y-16150D03*
X25200Y-16850D03*
X24400Y-16500D03*
G54D36*
X30763Y-22500D03*
X28637Y-22500D03*
G54D37*
X39800Y-26663D03*
X39800Y-24537D03*
G54D13*
X62375Y-26600D03*
X61625Y-26600D03*
G54D38*
X55300Y-17700D03*
X54100Y-17700D03*
X55500Y-19100D03*
X56700Y-19100D03*
G54D10*
G36*
X59701Y-30451D02*
X55998Y-30451D01*
X55998Y-30280D01*
X57801Y-27648D01*
X57898Y-27648D01*
X59701Y-30280D01*
X59701Y-30451D01*
X59701Y-30451D01*
G37*
G54D39*
X59701Y-30451D02*
X55998Y-30451D01*
X55998Y-30280D01*
X57801Y-27648D01*
X57898Y-27648D01*
X59701Y-30280D01*
X59701Y-30451D01*
M02*
