%FSLAX34Y34*%
G04 Gerber Fmt 3.4, Leading zero omitted, Abs format*
G04 (created by PCBNEW (2014-03-13 BZR 4745)-product) date Mon Apr 14 16:26:34 2014*
%MOIN*%
G01*
G70*
G90*
G04 APERTURE LIST*
%ADD10C,0.005906*%
%ADD11R,0.055000X0.055000*%
%ADD12C,0.055000*%
%ADD13R,0.059000X0.051200*%
%ADD14R,0.063000X0.106000*%
%ADD15R,0.051200X0.059000*%
%ADD16R,0.106000X0.063000*%
%ADD17R,0.121024X0.060000*%
%ADD18R,0.050000X0.092913*%
%ADD19R,0.092913X0.050000*%
%ADD20R,0.060000X0.121024*%
%ADD21R,0.200787X0.094488*%
%ADD22R,0.094488X0.200787*%
%ADD23R,0.062992X0.118110*%
%ADD24R,0.263780X0.263780*%
%ADD25R,0.050000X0.025000*%
%ADD26R,0.063000X0.071000*%
%ADD27C,0.035000*%
%ADD28C,0.019685*%
%ADD29C,0.039370*%
%ADD30C,0.007087*%
%ADD31C,0.010000*%
%ADD32C,0.031496*%
G04 APERTURE END LIST*
G54D10*
G54D11*
X26640Y-14685D03*
G54D12*
X26640Y-15685D03*
X26640Y-16685D03*
G54D11*
X50300Y-18675D03*
G54D12*
X49300Y-18675D03*
X48300Y-18675D03*
G54D13*
X49300Y-21875D03*
X49300Y-21125D03*
G54D14*
X26500Y-22500D03*
X25400Y-22500D03*
G54D13*
X33600Y-25325D03*
X33600Y-24575D03*
G54D15*
X28175Y-31150D03*
X27425Y-31150D03*
X52525Y-20475D03*
X51775Y-20475D03*
G54D16*
X35700Y-22600D03*
X35700Y-21500D03*
X57000Y-26125D03*
X57000Y-25025D03*
G54D13*
X30170Y-31125D03*
X30170Y-31875D03*
G54D16*
X41250Y-23650D03*
X41250Y-22550D03*
X55950Y-16675D03*
X55950Y-15575D03*
X48600Y-28550D03*
X48600Y-29650D03*
G54D13*
X37190Y-31895D03*
X37190Y-31145D03*
G54D15*
X38405Y-31880D03*
X39155Y-31880D03*
X31625Y-26200D03*
X32375Y-26200D03*
G54D14*
X34100Y-22600D03*
X33000Y-22600D03*
G54D15*
X36125Y-26150D03*
X36875Y-26150D03*
G54D13*
X38050Y-25275D03*
X38050Y-24525D03*
G54D16*
X41300Y-26550D03*
X41300Y-27650D03*
G54D13*
X44600Y-28325D03*
X44600Y-27575D03*
G54D15*
X45425Y-29250D03*
X46175Y-29250D03*
X39200Y-27725D03*
X39950Y-27725D03*
G54D13*
X30040Y-14425D03*
X30040Y-13675D03*
X31020Y-14395D03*
X31020Y-13645D03*
G54D16*
X28915Y-14335D03*
X28915Y-13235D03*
X38300Y-18150D03*
X38300Y-17050D03*
X39800Y-18150D03*
X39800Y-17050D03*
G54D17*
X28000Y-25575D03*
X28000Y-28025D03*
G54D18*
X30501Y-22600D03*
X29398Y-22600D03*
X38498Y-22550D03*
X39601Y-22550D03*
G54D19*
X39950Y-25501D03*
X39950Y-24398D03*
G54D18*
X45151Y-22550D03*
X44048Y-22550D03*
G54D17*
X42900Y-25275D03*
X42900Y-27725D03*
G54D20*
X48575Y-30900D03*
X51025Y-30900D03*
X46125Y-32350D03*
X48575Y-32350D03*
G54D21*
X23500Y-22500D03*
X23500Y-20767D03*
X23500Y-24232D03*
G54D22*
X35600Y-10850D03*
X33867Y-10850D03*
X37332Y-10850D03*
X48600Y-34500D03*
X46867Y-34500D03*
X50332Y-34500D03*
G54D11*
X61800Y-31400D03*
G54D12*
X61800Y-32400D03*
X61800Y-33400D03*
G54D16*
X28000Y-22700D03*
X28000Y-23800D03*
X31550Y-23900D03*
X31550Y-22800D03*
X37100Y-23650D03*
X37100Y-22550D03*
X42750Y-22650D03*
X42750Y-21550D03*
G54D14*
X47300Y-27550D03*
X48400Y-27550D03*
G54D16*
X41250Y-24300D03*
X41250Y-25400D03*
G54D23*
X55894Y-21725D03*
X57705Y-21725D03*
G54D24*
X56800Y-19106D03*
G54D23*
X61005Y-18425D03*
X59194Y-18425D03*
G54D24*
X60100Y-21043D03*
G54D15*
X29425Y-30350D03*
X30175Y-30350D03*
X27855Y-24705D03*
X27105Y-24705D03*
X29425Y-32650D03*
X30175Y-32650D03*
X54025Y-21725D03*
X54775Y-21725D03*
G54D13*
X53700Y-23025D03*
X53700Y-23775D03*
G54D15*
X30825Y-29800D03*
X31575Y-29800D03*
X30825Y-33150D03*
X31575Y-33150D03*
G54D13*
X57725Y-23100D03*
X57725Y-23850D03*
X59050Y-23850D03*
X59050Y-23100D03*
G54D15*
X59050Y-25025D03*
X58300Y-25025D03*
X45425Y-28350D03*
X46175Y-28350D03*
G54D13*
X29400Y-28725D03*
X29400Y-29475D03*
X44100Y-25325D03*
X44100Y-26075D03*
X37900Y-28825D03*
X37900Y-29575D03*
G54D14*
X55000Y-19125D03*
X53900Y-19125D03*
G54D15*
X35625Y-29800D03*
X36375Y-29800D03*
X35675Y-33150D03*
X36425Y-33150D03*
X37075Y-30400D03*
X37825Y-30400D03*
X37125Y-32650D03*
X37875Y-32650D03*
G54D13*
X32500Y-25225D03*
X32500Y-24475D03*
X31500Y-25230D03*
X31500Y-24480D03*
X36150Y-25275D03*
X36150Y-24525D03*
X37100Y-25225D03*
X37100Y-24475D03*
G54D15*
X45425Y-27550D03*
X46175Y-27550D03*
G54D13*
X39150Y-26925D03*
X39150Y-26175D03*
X39950Y-26925D03*
X39950Y-26175D03*
X58900Y-31375D03*
X58900Y-32125D03*
X60000Y-32775D03*
X60000Y-33525D03*
G54D25*
X50300Y-21475D03*
X50300Y-21975D03*
X50300Y-22475D03*
X50300Y-22975D03*
X52500Y-22975D03*
X52500Y-22475D03*
X52500Y-21975D03*
X52500Y-21475D03*
X32550Y-30000D03*
X32550Y-30500D03*
X32550Y-31000D03*
X32550Y-31500D03*
X32550Y-32000D03*
X32550Y-32500D03*
X32550Y-33000D03*
X34750Y-33000D03*
X34750Y-32500D03*
X34750Y-32000D03*
X34750Y-31500D03*
X34750Y-31000D03*
X34750Y-30500D03*
X34750Y-30000D03*
G54D11*
X42300Y-17350D03*
G54D12*
X43300Y-17350D03*
X44300Y-17350D03*
X45300Y-17350D03*
X46300Y-17350D03*
X47300Y-17350D03*
X48300Y-17350D03*
X49300Y-17350D03*
X50300Y-17350D03*
X51300Y-17350D03*
X52300Y-17350D03*
X53300Y-17350D03*
X53300Y-11350D03*
X52300Y-11350D03*
X51300Y-11350D03*
X50300Y-11350D03*
X49300Y-11350D03*
X48300Y-11350D03*
X47300Y-11350D03*
X46300Y-11350D03*
X45300Y-11350D03*
X44300Y-11350D03*
X43300Y-11350D03*
X42300Y-11350D03*
G54D15*
X30825Y-28845D03*
X31575Y-28845D03*
X30825Y-34125D03*
X31575Y-34125D03*
X35620Y-28915D03*
X36370Y-28915D03*
X35700Y-34215D03*
X36450Y-34215D03*
G54D13*
X28350Y-16925D03*
X28350Y-17675D03*
X29700Y-16925D03*
X29700Y-17675D03*
G54D15*
X55250Y-12925D03*
X56000Y-12925D03*
G54D26*
X55250Y-13900D03*
X56350Y-13900D03*
G54D20*
X35375Y-18600D03*
X32925Y-18600D03*
G54D27*
X34900Y-33700D03*
X40400Y-34000D03*
X28800Y-30400D03*
X39000Y-33000D03*
X42100Y-33700D03*
X47100Y-30600D03*
X52300Y-30600D03*
X34500Y-34400D03*
X38000Y-34400D03*
X50100Y-29100D03*
X44600Y-29200D03*
X42200Y-31600D03*
X41000Y-31600D03*
X44200Y-21200D03*
X55300Y-25000D03*
X56625Y-12925D03*
X57000Y-13850D03*
X32375Y-18600D03*
X45500Y-30000D03*
X58850Y-32750D03*
X46900Y-33100D03*
X28915Y-12335D03*
X30040Y-12550D03*
X31020Y-12920D03*
X27250Y-31850D03*
X40300Y-31550D03*
X26900Y-28050D03*
X49300Y-20600D03*
X50400Y-23400D03*
X37300Y-12300D03*
X33900Y-12300D03*
X24967Y-24232D03*
X25000Y-20800D03*
X50300Y-33100D03*
X38000Y-25900D03*
X33600Y-26000D03*
X59200Y-17400D03*
X58300Y-26300D03*
X51000Y-32100D03*
X46100Y-31200D03*
X37800Y-31100D03*
X29500Y-31900D03*
X31300Y-32000D03*
X31300Y-31000D03*
X36050Y-31050D03*
X36050Y-31950D03*
X28400Y-18600D03*
X29600Y-18600D03*
X55900Y-14700D03*
X38300Y-16300D03*
X39800Y-16300D03*
X37900Y-28300D03*
X29400Y-28100D03*
X41300Y-28400D03*
X42800Y-28400D03*
X60050Y-32150D03*
X37400Y-18200D03*
X32400Y-15100D03*
X49500Y-24800D03*
X46800Y-24800D03*
X25800Y-25600D03*
X25900Y-19400D03*
X30200Y-21100D03*
X34000Y-27900D03*
X31700Y-27800D03*
X30100Y-24200D03*
G54D28*
X31625Y-29850D02*
X31575Y-29800D01*
X31625Y-26200D02*
X31625Y-26465D01*
X32350Y-27190D02*
X32350Y-30000D01*
X31625Y-26465D02*
X32350Y-27190D01*
X31500Y-25225D02*
X31500Y-26075D01*
X31575Y-28845D02*
X31575Y-29800D01*
X32350Y-29800D02*
X32550Y-30000D01*
X31575Y-29800D02*
X32350Y-29800D01*
X36150Y-25275D02*
X36150Y-26125D01*
X36150Y-26125D02*
X36125Y-26150D01*
X31515Y-34065D02*
X31575Y-34125D01*
X31575Y-34125D02*
X31515Y-34065D01*
X31575Y-33150D02*
X31575Y-34125D01*
X31725Y-33000D02*
X31575Y-33150D01*
X32550Y-33000D02*
X31725Y-33000D01*
X33000Y-33000D02*
X33400Y-32600D01*
X33400Y-32600D02*
X33400Y-27400D01*
X33400Y-27400D02*
X34650Y-26150D01*
X34650Y-26150D02*
X36125Y-26150D01*
X32550Y-33000D02*
X33000Y-33000D01*
G54D29*
X45425Y-28350D02*
X44625Y-28350D01*
X44625Y-28350D02*
X44600Y-28325D01*
G54D28*
X45400Y-28325D02*
X45425Y-28350D01*
G54D30*
X44625Y-28350D02*
X44600Y-28325D01*
G54D28*
X35675Y-34190D02*
X35700Y-34215D01*
X35675Y-33700D02*
X35675Y-34190D01*
X35675Y-33150D02*
X35675Y-33700D01*
X35525Y-33000D02*
X35675Y-33150D01*
X34750Y-33000D02*
X35525Y-33000D01*
X35600Y-33700D02*
X35675Y-33700D01*
X35675Y-33700D02*
X35600Y-33700D01*
X34900Y-33700D02*
X35675Y-33700D01*
X41700Y-32700D02*
X40400Y-34000D01*
X41700Y-30600D02*
X41700Y-32700D01*
X43975Y-28325D02*
X41700Y-30600D01*
X44600Y-28325D02*
X43975Y-28325D01*
X35600Y-33700D02*
X34900Y-33700D01*
X39150Y-26925D02*
X39150Y-27675D01*
X35425Y-30000D02*
X35625Y-29800D01*
X34750Y-30000D02*
X35425Y-30000D01*
X35620Y-29795D02*
X35625Y-29800D01*
X35620Y-28915D02*
X35620Y-29795D01*
X36040Y-27725D02*
X35620Y-28145D01*
X35620Y-28145D02*
X35620Y-28915D01*
X39200Y-27725D02*
X36040Y-27725D01*
X61800Y-31400D02*
X58925Y-31400D01*
X58925Y-31400D02*
X58900Y-31375D01*
X51275Y-21475D02*
X51500Y-21700D01*
X51500Y-21700D02*
X51500Y-25500D01*
X51500Y-25500D02*
X54500Y-28500D01*
X54500Y-29200D02*
X54500Y-30300D01*
X54500Y-28500D02*
X54500Y-29200D01*
X54500Y-30300D02*
X55575Y-31375D01*
X55575Y-31375D02*
X58900Y-31375D01*
X50300Y-21475D02*
X51275Y-21475D01*
X29400Y-30325D02*
X29425Y-30350D01*
X29400Y-29475D02*
X29400Y-30325D01*
X28850Y-30350D02*
X28800Y-30400D01*
X29425Y-30350D02*
X28850Y-30350D01*
X38650Y-32650D02*
X39000Y-33000D01*
X37875Y-32650D02*
X38650Y-32650D01*
X42100Y-33700D02*
X45200Y-30600D01*
X45200Y-30600D02*
X47100Y-30600D01*
X52300Y-30600D02*
X56300Y-34600D01*
X56300Y-34600D02*
X62200Y-34600D01*
X62200Y-34600D02*
X62700Y-34100D01*
X62700Y-34100D02*
X62700Y-32300D01*
X62700Y-32300D02*
X62700Y-31700D01*
X62700Y-31700D02*
X62400Y-31400D01*
X61800Y-31400D02*
X62400Y-31400D01*
X53900Y-29200D02*
X53900Y-31000D01*
X53900Y-31000D02*
X56425Y-33525D01*
X56425Y-33525D02*
X60000Y-33525D01*
X61675Y-33525D02*
X61800Y-33400D01*
X60000Y-33525D02*
X61675Y-33525D01*
X50875Y-21975D02*
X51000Y-22100D01*
X51000Y-22100D02*
X51000Y-25900D01*
X51000Y-25900D02*
X53900Y-28800D01*
X53900Y-28800D02*
X53900Y-29200D01*
X50300Y-21975D02*
X50875Y-21975D01*
X37900Y-30325D02*
X37825Y-30400D01*
X37900Y-29575D02*
X37900Y-30325D01*
X30500Y-34900D02*
X29425Y-33825D01*
X34000Y-34900D02*
X30500Y-34900D01*
X34500Y-34400D02*
X34000Y-34900D01*
X39100Y-34400D02*
X38000Y-34400D01*
X41000Y-32500D02*
X39100Y-34400D01*
X41000Y-31600D02*
X41000Y-32500D01*
X29425Y-33825D02*
X29425Y-32650D01*
X41000Y-31100D02*
X41000Y-31600D01*
X40300Y-30400D02*
X41000Y-31100D01*
X37825Y-30400D02*
X40300Y-30400D01*
X50200Y-29200D02*
X53900Y-29200D01*
X50200Y-29200D02*
X50100Y-29100D01*
X44600Y-29200D02*
X42200Y-31600D01*
G54D29*
X58300Y-25025D02*
X57000Y-25025D01*
X42750Y-21050D02*
X43000Y-20800D01*
X43000Y-20800D02*
X43800Y-20800D01*
X43800Y-20800D02*
X44200Y-21200D01*
X55300Y-25000D02*
X55325Y-25025D01*
X55325Y-25025D02*
X57000Y-25025D01*
X42750Y-21550D02*
X42750Y-21050D01*
X59050Y-22093D02*
X60100Y-21043D01*
X59050Y-23100D02*
X59050Y-22093D01*
X42750Y-22650D02*
X43948Y-22650D01*
X43948Y-22650D02*
X44048Y-22550D01*
X41250Y-22550D02*
X42650Y-22550D01*
X42650Y-22550D02*
X42750Y-22650D01*
G54D31*
X42733Y-22550D02*
X42750Y-22533D01*
G54D29*
X44031Y-22533D02*
X44048Y-22550D01*
X39601Y-22550D02*
X41250Y-22550D01*
X41266Y-22533D02*
X41250Y-22550D01*
X59050Y-23850D02*
X59050Y-25025D01*
G54D28*
X52500Y-22475D02*
X52125Y-22475D01*
X51950Y-20650D02*
X51775Y-20475D01*
X51950Y-22300D02*
X51950Y-20650D01*
X52125Y-22475D02*
X51950Y-22300D01*
G54D31*
X54375Y-22475D02*
X54700Y-22800D01*
X54700Y-22800D02*
X54700Y-23200D01*
X52500Y-22475D02*
X54375Y-22475D01*
G54D32*
X55250Y-23850D02*
X54700Y-23300D01*
X57725Y-23850D02*
X55250Y-23850D01*
X57725Y-23850D02*
X59050Y-23850D01*
G54D29*
X57725Y-23100D02*
X57725Y-21744D01*
X57725Y-21744D02*
X57705Y-21725D01*
G54D28*
X56000Y-12925D02*
X56625Y-12925D01*
X56350Y-13900D02*
X56950Y-13900D01*
X56950Y-13900D02*
X57000Y-13850D01*
G54D32*
X33075Y-18600D02*
X32375Y-18600D01*
X45425Y-29250D02*
X45425Y-29925D01*
X45425Y-29925D02*
X45500Y-30000D01*
G54D28*
X58900Y-32125D02*
X58900Y-32700D01*
X58900Y-32700D02*
X58850Y-32750D01*
G54D32*
X46867Y-33132D02*
X46900Y-33100D01*
X46867Y-33132D02*
X46867Y-34500D01*
G54D28*
X28915Y-13244D02*
X28915Y-12335D01*
X30040Y-13509D02*
X30040Y-12550D01*
X31020Y-13645D02*
X31020Y-12920D01*
X55900Y-15525D02*
X55950Y-15575D01*
X56150Y-15375D02*
X55950Y-15575D01*
X27259Y-31150D02*
X27259Y-31841D01*
X27259Y-31841D02*
X27250Y-31850D01*
X39321Y-31880D02*
X40070Y-31880D01*
X40300Y-31650D02*
X40300Y-31550D01*
X40070Y-31880D02*
X40300Y-31650D01*
X28000Y-28025D02*
X26925Y-28025D01*
X26925Y-28025D02*
X26900Y-28050D01*
X49300Y-21125D02*
X49300Y-20600D01*
X50300Y-22975D02*
X50300Y-23300D01*
X50300Y-23300D02*
X50400Y-23400D01*
G54D32*
X37332Y-12267D02*
X37300Y-12300D01*
X37332Y-12267D02*
X37332Y-10850D01*
X33867Y-10850D02*
X33867Y-12267D01*
X33867Y-12267D02*
X33900Y-12300D01*
X23500Y-24232D02*
X24967Y-24232D01*
X23500Y-20767D02*
X24967Y-20767D01*
X24967Y-20767D02*
X25000Y-20800D01*
X50332Y-34500D02*
X50332Y-33132D01*
X50332Y-33132D02*
X50300Y-33100D01*
X38050Y-25275D02*
X38050Y-25850D01*
X38050Y-25850D02*
X38000Y-25900D01*
X33600Y-25325D02*
X33600Y-26000D01*
G54D29*
X59194Y-18425D02*
X59194Y-17405D01*
X59194Y-17405D02*
X59200Y-17400D01*
X57000Y-26125D02*
X58125Y-26125D01*
X58125Y-26125D02*
X58300Y-26300D01*
G54D28*
X51025Y-30900D02*
X51025Y-32075D01*
X51025Y-32075D02*
X51000Y-32100D01*
X46125Y-32350D02*
X46125Y-31225D01*
X46125Y-31225D02*
X46100Y-31200D01*
X37190Y-31145D02*
X37755Y-31145D01*
X37755Y-31145D02*
X37800Y-31100D01*
X30170Y-31875D02*
X29525Y-31875D01*
X29525Y-31875D02*
X29500Y-31900D01*
X32350Y-32000D02*
X31300Y-32000D01*
X32350Y-31000D02*
X31300Y-31000D01*
X34850Y-31000D02*
X36000Y-31000D01*
X36000Y-31000D02*
X36050Y-31050D01*
X34850Y-32000D02*
X36000Y-32000D01*
X36000Y-32000D02*
X36050Y-31950D01*
G54D32*
X28350Y-18550D02*
X28400Y-18600D01*
X28350Y-17675D02*
X28350Y-18550D01*
X29700Y-18500D02*
X29600Y-18600D01*
X29700Y-17675D02*
X29700Y-18500D01*
G54D29*
X55950Y-14750D02*
X55900Y-14700D01*
X55950Y-15575D02*
X55950Y-14750D01*
X38300Y-17050D02*
X38300Y-16300D01*
X39800Y-17050D02*
X39800Y-16300D01*
G54D28*
X37900Y-28825D02*
X37900Y-28300D01*
X29400Y-28725D02*
X29400Y-28100D01*
X41300Y-27650D02*
X41300Y-28400D01*
X42900Y-28300D02*
X42800Y-28400D01*
X42900Y-27725D02*
X42900Y-28300D01*
X60000Y-32200D02*
X60050Y-32150D01*
X60000Y-32200D02*
X60000Y-32775D01*
G54D29*
X43300Y-11350D02*
X43300Y-14275D01*
X41100Y-16475D02*
X41100Y-18150D01*
X43300Y-14275D02*
X41100Y-16475D01*
G54D32*
X43300Y-11350D02*
X44300Y-11350D01*
G54D28*
X28341Y-31150D02*
X29221Y-31150D01*
X30165Y-31120D02*
X30170Y-31125D01*
X29251Y-31120D02*
X30165Y-31120D01*
X29221Y-31150D02*
X29251Y-31120D01*
X50300Y-22475D02*
X49475Y-22475D01*
X49300Y-22300D02*
X49300Y-21875D01*
X49475Y-22475D02*
X49300Y-22300D01*
X32350Y-31500D02*
X31050Y-31500D01*
X30675Y-31125D02*
X30170Y-31125D01*
X31050Y-31500D02*
X30675Y-31125D01*
G54D32*
X28065Y-14335D02*
X28915Y-14335D01*
X27715Y-14685D02*
X28065Y-14335D01*
X26640Y-14685D02*
X27715Y-14685D01*
X29950Y-14335D02*
X30040Y-14425D01*
X28915Y-14335D02*
X29950Y-14335D01*
X30990Y-14425D02*
X31020Y-14395D01*
X30040Y-14425D02*
X30990Y-14425D01*
X28175Y-30375D02*
X28175Y-31150D01*
X27700Y-29900D02*
X28175Y-30375D01*
X27400Y-29900D02*
X27700Y-29900D01*
X25800Y-28300D02*
X27400Y-29900D01*
X25800Y-27100D02*
X25800Y-28300D01*
X25800Y-25500D02*
X25800Y-27100D01*
X26595Y-24705D02*
X25800Y-25500D01*
X27105Y-24705D02*
X26595Y-24705D01*
G54D29*
X48400Y-21500D02*
X48400Y-20300D01*
X41100Y-18150D02*
X42450Y-18150D01*
X44600Y-20300D02*
X48400Y-20300D01*
X42450Y-18150D02*
X44600Y-20300D01*
X49300Y-21875D02*
X48775Y-21875D01*
X48775Y-21875D02*
X48400Y-21500D01*
X37400Y-18200D02*
X37450Y-18150D01*
X37450Y-18150D02*
X38800Y-18150D01*
X31020Y-14395D02*
X31695Y-14395D01*
X31695Y-14395D02*
X32400Y-15100D01*
X38800Y-18150D02*
X40200Y-18150D01*
X40200Y-18150D02*
X41100Y-18150D01*
G54D28*
X45525Y-26075D02*
X44100Y-26075D01*
X49475Y-22475D02*
X49475Y-24775D01*
X49500Y-24800D02*
X49475Y-24775D01*
X45525Y-26075D02*
X46800Y-24800D01*
G54D29*
X25915Y-14685D02*
X26640Y-14685D01*
X25800Y-25500D02*
X25800Y-25600D01*
X25800Y-19300D02*
X25900Y-19400D01*
X25800Y-14800D02*
X25800Y-19300D01*
X25915Y-14685D02*
X25800Y-14800D01*
X54843Y-19106D02*
X54825Y-19125D01*
X55950Y-16675D02*
X55950Y-18256D01*
X56781Y-19125D02*
X56800Y-19106D01*
X55000Y-19125D02*
X56781Y-19125D01*
G54D28*
X37190Y-31895D02*
X38224Y-31895D01*
X38224Y-31895D02*
X38239Y-31880D01*
X34850Y-31500D02*
X36270Y-31500D01*
X36665Y-31895D02*
X37190Y-31895D01*
X36270Y-31500D02*
X36665Y-31895D01*
G54D32*
X27685Y-16685D02*
X27925Y-16925D01*
X27925Y-16925D02*
X28350Y-16925D01*
X26640Y-16685D02*
X27685Y-16685D01*
X28350Y-16925D02*
X29700Y-16925D01*
G54D28*
X30525Y-16925D02*
X29700Y-16925D01*
X30900Y-17300D02*
X30525Y-16925D01*
X30900Y-20400D02*
X30900Y-17300D01*
X30200Y-21100D02*
X30900Y-20400D01*
X34300Y-31500D02*
X34750Y-31500D01*
X34300Y-31500D02*
X34000Y-31200D01*
X34000Y-31200D02*
X34000Y-27900D01*
X31700Y-27800D02*
X30100Y-26200D01*
X30100Y-26200D02*
X30100Y-24200D01*
G54D29*
X29398Y-22600D02*
X28100Y-22600D01*
X28100Y-22600D02*
X28000Y-22700D01*
X28000Y-22816D02*
X28000Y-22675D01*
X26500Y-22500D02*
X27825Y-22500D01*
X29298Y-22500D02*
X29398Y-22600D01*
X23500Y-22500D02*
X25400Y-22500D01*
G54D32*
X32500Y-24475D02*
X32600Y-24575D01*
G54D28*
X33500Y-24475D02*
X33600Y-24575D01*
G54D32*
X31550Y-23783D02*
X31550Y-24425D01*
X31550Y-24425D02*
X31500Y-24475D01*
X32600Y-24575D02*
X32500Y-24475D01*
X33600Y-24575D02*
X32600Y-24575D01*
X32495Y-24480D02*
X32500Y-24475D01*
X31500Y-24480D02*
X32495Y-24480D01*
G54D28*
X52500Y-21475D02*
X52500Y-20500D01*
X52500Y-20500D02*
X52525Y-20475D01*
G54D29*
X37100Y-22550D02*
X38498Y-22550D01*
X35700Y-22600D02*
X37050Y-22600D01*
X37050Y-22600D02*
X37100Y-22550D01*
G54D30*
X37216Y-22550D02*
X37100Y-22666D01*
G54D29*
X38381Y-22666D02*
X38498Y-22550D01*
X34100Y-22600D02*
X35700Y-22600D01*
G54D32*
X35375Y-18600D02*
X35550Y-18600D01*
X35550Y-18600D02*
X35600Y-18550D01*
X35600Y-18550D02*
X35375Y-18600D01*
G54D29*
X35600Y-10850D02*
X35600Y-21400D01*
X35600Y-21400D02*
X35700Y-21500D01*
X41250Y-24416D02*
X39968Y-24416D01*
X39968Y-24416D02*
X39950Y-24398D01*
X41250Y-23650D02*
X41250Y-24416D01*
X48400Y-27550D02*
X48400Y-28350D01*
X48400Y-28350D02*
X48600Y-28550D01*
X45151Y-22550D02*
X46595Y-22550D01*
X48400Y-24355D02*
X48400Y-27550D01*
X46595Y-22550D02*
X48400Y-24355D01*
X48600Y-29650D02*
X48600Y-30875D01*
X48600Y-30875D02*
X48575Y-30900D01*
X48575Y-30900D02*
X48575Y-32350D01*
X48600Y-34500D02*
X48600Y-32375D01*
X48600Y-32375D02*
X48575Y-32350D01*
G54D30*
X48575Y-29675D02*
X48600Y-29650D01*
G54D28*
X32500Y-25225D02*
X32500Y-26075D01*
X32500Y-26075D02*
X32375Y-26200D01*
G54D29*
X31550Y-22916D02*
X31550Y-22750D01*
X31550Y-22750D02*
X31400Y-22600D01*
X31400Y-22600D02*
X33000Y-22600D01*
X30501Y-22600D02*
X31400Y-22600D01*
G54D28*
X37100Y-25225D02*
X37100Y-25925D01*
X37100Y-25925D02*
X36875Y-26150D01*
X37100Y-25225D02*
X37100Y-25470D01*
G54D30*
X37100Y-25925D02*
X36875Y-26150D01*
G54D28*
X37100Y-23533D02*
X37100Y-24475D01*
X36150Y-24525D02*
X37050Y-24525D01*
X38000Y-24475D02*
X38050Y-24525D01*
G54D32*
X37150Y-24525D02*
X37100Y-24475D01*
X38050Y-24525D02*
X37150Y-24525D01*
G54D28*
X39950Y-25501D02*
X39950Y-26175D01*
X39150Y-26175D02*
X39950Y-26175D01*
X40925Y-26175D02*
X41300Y-26550D01*
X39950Y-26175D02*
X40925Y-26175D01*
G54D29*
X45425Y-27550D02*
X44625Y-27550D01*
X44625Y-27550D02*
X44600Y-27575D01*
G54D30*
X45400Y-27575D02*
X45425Y-27550D01*
G54D28*
X44625Y-27550D02*
X44600Y-27575D01*
X46175Y-28350D02*
X46175Y-29250D01*
X46175Y-27550D02*
X47416Y-27550D01*
G54D32*
X46175Y-27550D02*
X46175Y-28350D01*
G54D28*
X39950Y-26925D02*
X39950Y-27725D01*
X28000Y-23683D02*
X28000Y-25575D01*
X28000Y-24560D02*
X27855Y-24705D01*
X28000Y-23800D02*
X28000Y-24560D01*
G54D29*
X41258Y-25275D02*
X41250Y-25283D01*
G54D30*
X41250Y-25283D02*
X41250Y-25400D01*
G54D28*
X42775Y-25400D02*
X42900Y-25275D01*
X41250Y-25400D02*
X42775Y-25400D01*
X44050Y-25275D02*
X44100Y-25325D01*
X42900Y-25275D02*
X44050Y-25275D01*
G54D29*
X55894Y-21725D02*
X54775Y-21725D01*
X53700Y-25600D02*
X55300Y-27200D01*
X55300Y-27200D02*
X61000Y-27200D01*
X61000Y-27200D02*
X62200Y-26000D01*
X62200Y-26000D02*
X62200Y-17700D01*
X62200Y-17700D02*
X61700Y-17200D01*
X61700Y-17200D02*
X61200Y-17200D01*
X61200Y-17200D02*
X61005Y-17394D01*
X61005Y-17394D02*
X61005Y-18425D01*
X53700Y-23775D02*
X53700Y-25600D01*
G54D28*
X53125Y-21975D02*
X53375Y-21725D01*
X53375Y-21725D02*
X54025Y-21725D01*
X52500Y-21975D02*
X53125Y-21975D01*
X53650Y-22975D02*
X53700Y-23025D01*
X52500Y-22975D02*
X53650Y-22975D01*
G54D32*
X50300Y-17350D02*
X50300Y-11350D01*
X50300Y-17350D02*
X50300Y-18675D01*
X49300Y-11350D02*
X49300Y-17350D01*
X49300Y-17350D02*
X49300Y-18675D01*
G54D28*
X30325Y-30500D02*
X30175Y-30350D01*
X30825Y-30270D02*
X30825Y-29800D01*
X31055Y-30500D02*
X30825Y-30270D01*
X32550Y-30500D02*
X31055Y-30500D01*
X30745Y-30350D02*
X30825Y-30270D01*
X30175Y-30350D02*
X30745Y-30350D01*
X30825Y-28845D02*
X30825Y-29800D01*
X30325Y-32500D02*
X30175Y-32650D01*
X30325Y-32500D02*
X30175Y-32650D01*
X30840Y-32500D02*
X30325Y-32500D01*
X32550Y-32500D02*
X30840Y-32500D01*
X30825Y-32500D02*
X30840Y-32485D01*
X30840Y-32485D02*
X30840Y-32475D01*
X30840Y-32475D02*
X30840Y-32500D01*
X30825Y-33150D02*
X30825Y-32500D01*
X30825Y-33150D02*
X30825Y-34125D01*
X36975Y-30500D02*
X37075Y-30400D01*
X36975Y-30500D02*
X37075Y-30400D01*
X36255Y-30500D02*
X36975Y-30500D01*
X34750Y-30500D02*
X36255Y-30500D01*
X36375Y-30330D02*
X36205Y-30500D01*
X36205Y-30500D02*
X36235Y-30500D01*
X36235Y-30500D02*
X36255Y-30480D01*
X36255Y-30480D02*
X36255Y-30500D01*
X36375Y-29800D02*
X36375Y-30330D01*
X36370Y-29795D02*
X36375Y-29800D01*
X36370Y-28915D02*
X36370Y-29795D01*
X36545Y-32500D02*
X36975Y-32500D01*
X34850Y-32500D02*
X36545Y-32500D01*
X36425Y-34190D02*
X36450Y-34215D01*
X36425Y-33150D02*
X36425Y-34190D01*
X36425Y-32620D02*
X36545Y-32500D01*
X36425Y-33150D02*
X36425Y-32620D01*
X55250Y-13900D02*
X53500Y-13900D01*
X53350Y-13875D02*
X53300Y-13875D01*
X53325Y-13875D02*
X53350Y-13875D01*
X53300Y-13900D02*
X53325Y-13875D01*
X53500Y-13900D02*
X53300Y-13900D01*
X55250Y-12925D02*
X53375Y-12925D01*
X53375Y-12925D02*
X53300Y-12850D01*
G54D32*
X53300Y-11350D02*
X53300Y-12850D01*
X53300Y-12850D02*
X53300Y-13875D01*
X53300Y-13875D02*
X53300Y-17350D01*
X53300Y-17350D02*
X53550Y-17350D01*
X53550Y-17350D02*
X53900Y-17700D01*
X53900Y-17700D02*
X53900Y-19125D01*
G54D28*
X53975Y-19025D02*
X54075Y-19125D01*
M02*
