M48
;DRILL file {Pcbnew (2014-03-13 BZR 4745)-product} date Mon Apr 14 16:24:45 2014
;FORMAT={-:-/ absolute / inch / decimal}
FMAT,2
INCH,TZ
T1C0.025
T2C0.032
%
G90
G05
M72
T1
X2.4968Y-2.4232
X2.5Y-2.08
X2.58Y-2.56
X2.59Y-1.94
X2.69Y-2.805
X2.725Y-3.185
X2.84Y-1.86
X2.88Y-3.04
X2.8915Y-1.2335
X2.94Y-2.81
X2.95Y-3.19
X2.96Y-1.86
X3.004Y-1.255
X3.01Y-2.42
X3.02Y-2.11
X3.102Y-1.292
X3.13Y-3.1
X3.13Y-3.2
X3.17Y-2.78
X3.2375Y-1.86
X3.24Y-1.51
X3.36Y-2.6
X3.39Y-1.23
X3.4Y-2.79
X3.45Y-3.44
X3.49Y-3.37
X3.605Y-3.105
X3.605Y-3.195
X3.73Y-1.23
X3.74Y-1.82
X3.78Y-3.11
X3.79Y-2.83
X3.8Y-2.59
X3.8Y-3.44
X3.83Y-1.63
X3.9Y-3.3
X3.98Y-1.63
X4.03Y-3.155
X4.04Y-3.4
X4.1Y-3.16
X4.13Y-2.84
X4.21Y-3.37
X4.22Y-3.16
X4.28Y-2.84
X4.42Y-2.12
X4.46Y-2.92
X4.55Y-3.
X4.61Y-3.12
X4.68Y-2.48
X4.69Y-3.31
X4.71Y-3.06
X4.93Y-2.06
X4.95Y-2.48
X5.01Y-2.91
X5.03Y-3.31
X5.04Y-2.34
X5.1Y-3.21
X5.23Y-3.06
X5.53Y-2.5
X5.59Y-1.47
X5.6625Y-1.2925
X5.7Y-1.385
X5.83Y-2.63
X5.885Y-3.275
X5.92Y-1.74
X6.005Y-3.215
T2
X2.664Y-1.4685
X2.664Y-1.5685
X2.664Y-1.6685
X4.23Y-1.135
X4.23Y-1.735
X4.33Y-1.135
X4.33Y-1.735
X4.43Y-1.135
X4.43Y-1.735
X4.53Y-1.135
X4.53Y-1.735
X4.63Y-1.135
X4.63Y-1.735
X4.73Y-1.135
X4.73Y-1.735
X4.83Y-1.135
X4.83Y-1.735
X4.83Y-1.8675
X4.93Y-1.135
X4.93Y-1.735
X4.93Y-1.8675
X5.03Y-1.135
X5.03Y-1.735
X5.03Y-1.8675
X5.13Y-1.135
X5.13Y-1.735
X5.23Y-1.135
X5.23Y-1.735
X5.33Y-1.135
X5.33Y-1.735
X6.18Y-3.14
X6.18Y-3.24
X6.18Y-3.34
T0
M30
