M48
;DRILL file {Pcbnew (2014-03-19 BZR 4756)-product} date Tue May 27 14:49:30 2014
;FORMAT={-:-/ absolute / inch / decimal}
FMAT,2
INCH,TZ
T1C0.025
T2C0.039
T3C0.039
T4C0.138
%
G90
G05
M72
T1
X2.4968Y-2.4232
X2.5Y-2.08
X2.515Y-2.57
X2.52Y-1.575
X2.53Y-1.9
X2.62Y-2.7
X2.635Y-2.795
X2.715Y-2.94
X2.76Y-3.14
X2.805Y-1.705
X2.83Y-3.375
X2.885Y-2.65
X2.89Y-1.715
X2.905Y-1.365
X2.91Y-3.2
X2.955Y-1.48
X3.085Y-2.76
X3.1075Y-1.23
X3.4Y-2.595
X3.4475Y-1.23
X3.615Y-2.725
X3.71Y-1.295
X3.715Y-1.39
X3.795Y-3.435
X3.8Y-2.59
X3.85Y-3.175
X4.015Y-3.455
X4.13Y-2.84
X4.21Y-3.045
X4.22Y-3.35
X4.225Y-3.12
X4.275Y-2.03
X4.28Y-2.84
X4.2975Y-1.8725
X4.385Y-2.89
X4.42Y-2.68
X4.538Y-1.827
X4.575Y-1.729
X4.5965Y-1.6165
X4.625Y-1.835
X4.625Y-1.985
X4.655Y-1.71
X4.92Y-1.99
X4.94Y-3.24
X4.9484Y-3.
X5.Y-1.18
X5.Y-3.45
X5.11Y-1.95
X5.11Y-2.015
X5.21Y-2.39
X5.22Y-2.095
X5.23Y-1.95
X5.355Y-1.925
X5.425Y-2.875
X5.43Y-3.31
X5.455Y-2.925
X5.46Y-1.18
X5.4984Y-3.21
X5.51Y-2.11
X5.54Y-2.495
X5.545Y-2.605
X5.635Y-2.1
X5.91Y-1.39
X6.Y-2.68
X6.09Y-1.79
X6.15Y-1.33
X6.27Y-1.76
T2
X3.18Y-2.98
X3.28Y-2.98
X3.38Y-2.98
X4.32Y-1.12
X4.42Y-1.12
X4.52Y-1.12
X6.21Y-2.835
X6.21Y-2.935
X6.21Y-3.035
T3
X3.9Y-1.82
X4.Y-1.82
X4.1Y-1.82
T4
X2.53Y-1.26
X2.53Y-3.27
X6.08Y-3.27
T0
M30
