%FSLAX34Y34*%
G04 Gerber Fmt 3.4, Leading zero omitted, Abs format*
G04 (created by PCBNEW (2014-03-19 BZR 4756)-product) date Tue Sep  2 12:12:39 2014*
%MOIN*%
G01*
G70*
G90*
G04 APERTURE LIST*
%ADD10C,0.005906*%
%ADD11R,0.050000X0.100000*%
%ADD12R,0.100000X0.050000*%
%ADD13R,0.200787X0.094488*%
%ADD14R,0.055000X0.055000*%
%ADD15C,0.055000*%
%ADD16R,0.035000X0.055000*%
%ADD17C,0.035000*%
%ADD18C,0.039370*%
G04 APERTURE END LIST*
G54D10*
G54D11*
X60100Y-41750D03*
X58900Y-41750D03*
G54D12*
X57750Y-41600D03*
X57750Y-40400D03*
G54D13*
X55750Y-41250D03*
X55750Y-39517D03*
X55750Y-42982D03*
G54D14*
X60000Y-43000D03*
G54D15*
X59000Y-43000D03*
G54D11*
X58900Y-40500D03*
X60100Y-40500D03*
G54D16*
X58125Y-39250D03*
X58875Y-39250D03*
G54D17*
X57000Y-39500D03*
X57000Y-43000D03*
X57500Y-39250D03*
G54D18*
X60100Y-41750D02*
X60100Y-40500D01*
X58900Y-41750D02*
X58900Y-42900D01*
X58900Y-42900D02*
X59000Y-43000D01*
X57750Y-41600D02*
X56850Y-41600D01*
X56850Y-41600D02*
X56500Y-41250D01*
X56500Y-41250D02*
X55750Y-41250D01*
X58900Y-40500D02*
X58900Y-39275D01*
X58900Y-39275D02*
X58875Y-39250D01*
X57750Y-40400D02*
X58800Y-40400D01*
X58800Y-40400D02*
X58900Y-40500D01*
X55750Y-39517D02*
X56982Y-39517D01*
X56982Y-39517D02*
X57000Y-39500D01*
X55750Y-42982D02*
X56982Y-42982D01*
X56982Y-42982D02*
X57000Y-43000D01*
X58125Y-39250D02*
X57500Y-39250D01*
M02*
