%FSLAX34Y34*%
G04 Gerber Fmt 3.4, Leading zero omitted, Abs format*
G04 (created by PCBNEW (2014-03-19 BZR 4756)-product) date Tue Sep  2 12:12:39 2014*
%MOIN*%
G01*
G70*
G90*
G04 APERTURE LIST*
%ADD10C,0.005906*%
%ADD11C,0.011811*%
G04 APERTURE END LIST*
G54D10*
G54D11*
X59873Y-41092D02*
X60351Y-41092D01*
X60407Y-41064D01*
X60435Y-41035D01*
X60464Y-40979D01*
X60464Y-40895D01*
X60435Y-40839D01*
X60239Y-41092D02*
X60267Y-41035D01*
X60267Y-40923D01*
X60239Y-40867D01*
X60210Y-40839D01*
X60154Y-40811D01*
X59985Y-40811D01*
X59929Y-40839D01*
X59901Y-40867D01*
X59873Y-40923D01*
X59873Y-41035D01*
X59901Y-41092D01*
X59873Y-41373D02*
X60267Y-41373D01*
X59929Y-41373D02*
X59901Y-41401D01*
X59873Y-41457D01*
X59873Y-41542D01*
X59901Y-41598D01*
X59957Y-41626D01*
X60267Y-41626D01*
X60267Y-42160D02*
X59676Y-42160D01*
X60239Y-42160D02*
X60267Y-42104D01*
X60267Y-41992D01*
X60239Y-41935D01*
X60210Y-41907D01*
X60154Y-41879D01*
X59985Y-41879D01*
X59929Y-41907D01*
X59901Y-41935D01*
X59873Y-41992D01*
X59873Y-42104D01*
X59901Y-42160D01*
X59239Y-39681D02*
X59267Y-39625D01*
X59267Y-39512D01*
X59239Y-39456D01*
X59210Y-39428D01*
X59154Y-39400D01*
X58985Y-39400D01*
X58929Y-39428D01*
X58901Y-39456D01*
X58873Y-39512D01*
X58873Y-39625D01*
X58901Y-39681D01*
X59267Y-40018D02*
X59239Y-39962D01*
X59210Y-39934D01*
X59154Y-39906D01*
X58985Y-39906D01*
X58929Y-39934D01*
X58901Y-39962D01*
X58873Y-40018D01*
X58873Y-40103D01*
X58901Y-40159D01*
X58929Y-40187D01*
X58985Y-40215D01*
X59154Y-40215D01*
X59210Y-40187D01*
X59239Y-40159D01*
X59267Y-40103D01*
X59267Y-40018D01*
X58873Y-40721D02*
X59267Y-40721D01*
X58873Y-40468D02*
X59182Y-40468D01*
X59239Y-40496D01*
X59267Y-40553D01*
X59267Y-40637D01*
X59239Y-40693D01*
X59210Y-40721D01*
X58873Y-41003D02*
X59464Y-41003D01*
X58901Y-41003D02*
X58873Y-41059D01*
X58873Y-41171D01*
X58901Y-41228D01*
X58929Y-41256D01*
X58985Y-41284D01*
X59154Y-41284D01*
X59210Y-41256D01*
X59239Y-41228D01*
X59267Y-41171D01*
X59267Y-41059D01*
X59239Y-41003D01*
X59267Y-41621D02*
X59239Y-41565D01*
X59182Y-41537D01*
X58676Y-41537D01*
X59239Y-42071D02*
X59267Y-42015D01*
X59267Y-41902D01*
X59239Y-41846D01*
X59182Y-41818D01*
X58957Y-41818D01*
X58901Y-41846D01*
X58873Y-41902D01*
X58873Y-42015D01*
X58901Y-42071D01*
X58957Y-42099D01*
X59014Y-42099D01*
X59070Y-41818D01*
M02*
