%FSLAX34Y34*%
G04 Gerber Fmt 3.4, Leading zero omitted, Abs format*
G04 (created by PCBNEW (2014-03-19 BZR 4756)-product) date Tue Sep  2 12:12:39 2014*
%MOIN*%
G01*
G70*
G90*
G04 APERTURE LIST*
%ADD10C,0.005906*%
%ADD11C,0.005000*%
%ADD12C,0.012000*%
%ADD13C,0.003900*%
G04 APERTURE END LIST*
G54D10*
G54D11*
X60520Y-41150D02*
G75*
G03X60520Y-41150I-70J0D01*
G74*
G01*
X59800Y-42300D02*
X60400Y-42300D01*
X60400Y-42300D02*
X60400Y-41200D01*
X60400Y-41200D02*
X59800Y-41200D01*
X59200Y-41200D02*
X58600Y-41200D01*
X58600Y-41200D02*
X58600Y-42300D01*
X58600Y-42300D02*
X59200Y-42300D01*
X58420Y-41950D02*
G75*
G03X58420Y-41950I-70J0D01*
G74*
G01*
X57200Y-41300D02*
X57200Y-41900D01*
X57200Y-41900D02*
X58300Y-41900D01*
X58300Y-41900D02*
X58300Y-41300D01*
X58300Y-40700D02*
X58300Y-40100D01*
X58300Y-40100D02*
X57200Y-40100D01*
X57200Y-40100D02*
X57200Y-40700D01*
G54D12*
X60500Y-42500D02*
X60500Y-43500D01*
X60500Y-43500D02*
X58500Y-43500D01*
X58500Y-43500D02*
X58500Y-42500D01*
X58500Y-42500D02*
X60500Y-42500D01*
G54D11*
X58620Y-41100D02*
G75*
G03X58620Y-41100I-70J0D01*
G74*
G01*
X59200Y-39950D02*
X58600Y-39950D01*
X58600Y-39950D02*
X58600Y-41050D01*
X58600Y-41050D02*
X59200Y-41050D01*
X59800Y-41050D02*
X60400Y-41050D01*
X60400Y-41050D02*
X60400Y-39950D01*
X60400Y-39950D02*
X59800Y-39950D01*
G54D13*
X57900Y-39550D02*
G75*
G03X57900Y-39550I-50J0D01*
G74*
G01*
X58300Y-39550D02*
X57900Y-39550D01*
X57900Y-39550D02*
X57900Y-38950D01*
X57900Y-38950D02*
X58300Y-38950D01*
X58700Y-38950D02*
X59100Y-38950D01*
X59100Y-38950D02*
X59100Y-39550D01*
X59100Y-39550D02*
X58700Y-39550D01*
G54D10*
X57947Y-42362D02*
X57932Y-42377D01*
X57887Y-42392D01*
X57857Y-42392D01*
X57812Y-42377D01*
X57782Y-42347D01*
X57767Y-42317D01*
X57752Y-42257D01*
X57752Y-42212D01*
X57767Y-42152D01*
X57782Y-42122D01*
X57812Y-42092D01*
X57857Y-42077D01*
X57887Y-42077D01*
X57932Y-42092D01*
X57947Y-42107D01*
X58247Y-42392D02*
X58067Y-42392D01*
X58157Y-42392D02*
X58157Y-42077D01*
X58127Y-42122D01*
X58097Y-42152D01*
X58067Y-42167D01*
X57447Y-39862D02*
X57432Y-39877D01*
X57387Y-39892D01*
X57357Y-39892D01*
X57312Y-39877D01*
X57282Y-39847D01*
X57267Y-39817D01*
X57252Y-39757D01*
X57252Y-39712D01*
X57267Y-39652D01*
X57282Y-39622D01*
X57312Y-39592D01*
X57357Y-39577D01*
X57387Y-39577D01*
X57432Y-39592D01*
X57447Y-39607D01*
X57567Y-39607D02*
X57582Y-39592D01*
X57612Y-39577D01*
X57687Y-39577D01*
X57717Y-39592D01*
X57732Y-39607D01*
X57747Y-39637D01*
X57747Y-39667D01*
X57732Y-39712D01*
X57552Y-39892D01*
X57747Y-39892D01*
X57395Y-43077D02*
X57395Y-43302D01*
X57380Y-43347D01*
X57350Y-43377D01*
X57305Y-43392D01*
X57275Y-43392D01*
X57709Y-43392D02*
X57529Y-43392D01*
X57619Y-43392D02*
X57619Y-43077D01*
X57589Y-43122D01*
X57559Y-43152D01*
X57529Y-43167D01*
X57767Y-42892D02*
X57767Y-42577D01*
X57887Y-42577D01*
X57917Y-42592D01*
X57932Y-42607D01*
X57947Y-42637D01*
X57947Y-42682D01*
X57932Y-42712D01*
X57917Y-42727D01*
X57887Y-42742D01*
X57767Y-42742D01*
X58247Y-42892D02*
X58067Y-42892D01*
X58157Y-42892D02*
X58157Y-42577D01*
X58127Y-42622D01*
X58097Y-42652D01*
X58067Y-42667D01*
X60197Y-39642D02*
X60092Y-39492D01*
X60017Y-39642D02*
X60017Y-39327D01*
X60137Y-39327D01*
X60167Y-39342D01*
X60182Y-39357D01*
X60197Y-39387D01*
X60197Y-39432D01*
X60182Y-39462D01*
X60167Y-39477D01*
X60137Y-39492D01*
X60017Y-39492D01*
X60497Y-39642D02*
X60317Y-39642D01*
X60407Y-39642D02*
X60407Y-39327D01*
X60377Y-39372D01*
X60347Y-39402D01*
X60317Y-39417D01*
X59447Y-39392D02*
X59342Y-39242D01*
X59267Y-39392D02*
X59267Y-39077D01*
X59387Y-39077D01*
X59417Y-39092D01*
X59432Y-39107D01*
X59447Y-39137D01*
X59447Y-39182D01*
X59432Y-39212D01*
X59417Y-39227D01*
X59387Y-39242D01*
X59267Y-39242D01*
X59567Y-39107D02*
X59582Y-39092D01*
X59612Y-39077D01*
X59687Y-39077D01*
X59717Y-39092D01*
X59732Y-39107D01*
X59747Y-39137D01*
X59747Y-39167D01*
X59732Y-39212D01*
X59552Y-39392D01*
X59747Y-39392D01*
M02*
