%FSLAX34Y34*%
G04 Gerber Fmt 3.4, Leading zero omitted, Abs format*
G04 (created by PCBNEW (2014-03-19 BZR 4756)-product) date Tue Feb 10 16:32:34 2015*
%MOIN*%
G01*
G70*
G90*
G04 APERTURE LIST*
%ADD10C,0.005906*%
%ADD11R,0.200787X0.094488*%
%ADD12R,0.055000X0.055000*%
%ADD13C,0.055000*%
%ADD14C,0.035000*%
%ADD15C,0.019685*%
G04 APERTURE END LIST*
G54D10*
G54D11*
X55750Y-42982D03*
X55750Y-39517D03*
G54D12*
X60000Y-43000D03*
G54D13*
X59000Y-43000D03*
G54D14*
X57500Y-39250D03*
X57000Y-43000D03*
X57000Y-39500D03*
G54D10*
G36*
X60435Y-43435D02*
X59371Y-43435D01*
X59483Y-43323D01*
X59570Y-43113D01*
X59570Y-42887D01*
X59483Y-42677D01*
X59323Y-42516D01*
X59113Y-42429D01*
X58887Y-42429D01*
X58677Y-42516D01*
X58516Y-42676D01*
X58429Y-42886D01*
X58429Y-43112D01*
X58516Y-43322D01*
X58628Y-43435D01*
X55064Y-43435D01*
X55064Y-39064D01*
X55750Y-39064D01*
X60435Y-39064D01*
X60435Y-43435D01*
X60435Y-43435D01*
G37*
G54D15*
X60435Y-43435D02*
X59371Y-43435D01*
X59483Y-43323D01*
X59570Y-43113D01*
X59570Y-42887D01*
X59483Y-42677D01*
X59323Y-42516D01*
X59113Y-42429D01*
X58887Y-42429D01*
X58677Y-42516D01*
X58516Y-42676D01*
X58429Y-42886D01*
X58429Y-43112D01*
X58516Y-43322D01*
X58628Y-43435D01*
X55064Y-43435D01*
X55064Y-39064D01*
X55750Y-39064D01*
X60435Y-39064D01*
X60435Y-43435D01*
M02*
