999
dxfrw 0.5.10
0
SECTION
2
HEADER
9
$ACADVER
1
AC1021
9
$HANDSEED
5
20000
9
$DWGCODEPAGE
3
ANSI_1252
9
$INSBASE
10
0
20
0
30
0
9
$EXTMIN
10
-10
20
-2.7e-15
30
0
9
$EXTMAX
10
15.18
20
23.25
30
0
9
$LIMMIN
10
0
20
0
9
$LIMMAX
10
15.18
20
23.25
9
$ORTHOMODE
70
1
9
$LTSCALE
40
0.5
9
$TEXTSTYLE
7
TXT
9
$DIMASZ
40
0.18
9
$DIMLFAC
40
1
9
$DIMSCALE
40
1.5
9
$DIMEXO
40
0.063
9
$DIMEXE
40
0.093
9
$DIMTXT
40
0.125
9
$DIMTSZ
40
0
9
$DIMAUNIT
70
0
9
$DIMADEC
70
0
9
$DIMLUNIT
70
2
9
$DIMSTYLE
2
23NSTD
9
$DIMGAP
40
0.09
9
$DIMTIH
70
1
9
$LUNITS
70
2
9
$LUPREC
70
3
9
$AUNITS
70
0
9
$AUPREC
70
0
9
$SPLINESEGS
70
8
9
$GRIDMODE
70
1
9
$SNAPSTYLE
70
0
9
$GRIDUNIT
10
0.01
20
0.01
9
$PINSBASE
10
0
20
0
30
0
9
$PLIMMIN
10
0
20
0
9
$PLIMMAX
10
12.0000014
20
9.0000074
9
$INSUNITS
70
1
9
$PSVPSCALE
40
1
0
ENDSEC
0
SECTION
2
CLASSES
0
ENDSEC
0
SECTION
2
TABLES
0
TABLE
2
VPORT
5
8
330
0
100
AcDbSymbolTable
70
1
0
VPORT
5
31
330
2
100
AcDbSymbolTableRecord
100
AcDbViewportTableRecord
2
*ACTIVE
70
0
10
0
20
0
11
1
21
1
12
-2.31326187717
22
6.78806562174
13
0
23
0
14
10
24
10
15
0.01
25
0.01
16
0
26
0
36
1
17
0
27
0
37
0
40
3.19548563761
41
1.78077373974
42
50
43
0
44
0
50
0
51
0
71
0
72
100
73
1
74
3
75
0
76
1
77
0
78
2
281
0
65
1
110
0
120
0
130
0
111
1
121
0
131
0
112
0
122
1
132
0
79
0
146
0
348
10020
60
3
61
5
292
1
282
1
141
0
142
0
63
250
421
3358443
0
ENDTAB
0
TABLE
2
LTYPE
5
5
330
0
100
AcDbSymbolTable
70
4
0
LTYPE
5
14
330
5
100
AcDbSymbolTableRecord
100
AcDbLinetypeTableRecord
2
ByBlock
70
0
3

72
65
73
0
40
0
0
LTYPE
5
15
330
5
100
AcDbSymbolTableRecord
100
AcDbLinetypeTableRecord
2
ByLayer
70
0
3

72
65
73
0
40
0
0
LTYPE
5
16
330
5
100
AcDbSymbolTableRecord
100
AcDbLinetypeTableRecord
2
Continuous
70
0
3
Solid line
72
65
73
0
40
0
0
LTYPE
5
32
330
5
100
AcDbSymbolTableRecord
100
AcDbLinetypeTableRecord
2
DOT
70
0
3
Dot . . . . . . . . . . . . . . . . . . . . . .
72
65
73
2
40
6.35
49
0
74
0
49
-6.35
74
0
0
LTYPE
5
33
330
5
100
AcDbSymbolTableRecord
100
AcDbLinetypeTableRecord
2
DOT2
70
0
3
Dot (.5x) .....................................
72
65
73
2
40
3.175
49
0
74
0
49
-3.175
74
0
0
LTYPE
5
34
330
5
100
AcDbSymbolTableRecord
100
AcDbLinetypeTableRecord
2
DOTX2
70
0
3
Dot (2x) .  .  .  .  .  .  .  .  .  .  .  .  .
72
65
73
2
40
12.7
49
0
74
0
49
-12.7
74
0
0
LTYPE
5
35
330
5
100
AcDbSymbolTableRecord
100
AcDbLinetypeTableRecord
2
DASHED
70
0
3
Dot . . . . . . . . . . . . . . . . . . . . . .
72
65
73
2
40
19.05
49
12.7
74
0
49
-6.35
74
0
0
LTYPE
5
36
330
5
100
AcDbSymbolTableRecord
100
AcDbLinetypeTableRecord
2
DASHED2
70
0
3
Dashed (.5x) _ _ _ _ _ _ _ _ _ _ _ _ _ _ _ _ _
72
65
73
2
40
9.525
49
6.35
74
0
49
-3.175
74
0
0
LTYPE
5
37
330
5
100
AcDbSymbolTableRecord
100
AcDbLinetypeTableRecord
2
DASHEDX2
70
0
3
Dashed (2x) ____  ____  ____  ____  ____  ___
72
65
73
2
40
38.1
49
25.4
74
0
49
-12.7
74
0
0
LTYPE
5
38
330
5
100
AcDbSymbolTableRecord
100
AcDbLinetypeTableRecord
2
DASHDOT
70
0
3
Dash dot __ . __ . __ . __ . __ . __ . __ . __
72
65
73
4
40
25.4
49
12.7
74
0
49
-6.35
74
0
49
0
74
0
49
-6.35
74
0
0
LTYPE
5
39
330
5
100
AcDbSymbolTableRecord
100
AcDbLinetypeTableRecord
2
DASHDOT2
70
0
3
Dash dot (.5x) _._._._._._._._._._._._._._._.
72
65
73
4
40
12.7
49
6.35
74
0
49
-3.175
74
0
49
0
74
0
49
-3.175
74
0
0
LTYPE
5
3A
330
5
100
AcDbSymbolTableRecord
100
AcDbLinetypeTableRecord
2
DASHDOTX2
70
0
3
Dash dot (2x) ____  .  ____  .  ____  .  ___
72
65
73
4
40
50.8
49
25.4
74
0
49
-12.7
74
0
49
0
74
0
49
-12.7
74
0
0
LTYPE
5
3B
330
5
100
AcDbSymbolTableRecord
100
AcDbLinetypeTableRecord
2
DIVIDE
70
0
3
Divide ____ . . ____ . . ____ . . ____ . . ____
72
65
73
6
40
31.75
49
12.7
74
0
49
-6.35
74
0
49
0
74
0
49
-6.35
74
0
49
0
74
0
49
-6.35
74
0
0
LTYPE
5
3C
330
5
100
AcDbSymbolTableRecord
100
AcDbLinetypeTableRecord
2
DIVIDE2
70
0
3
Divide (.5x) __..__..__..__..__..__..__..__.._
72
65
73
6
40
15.875
49
6.35
74
0
49
-3.175
74
0
49
0
74
0
49
-3.175
74
0
49
0
74
0
49
-3.175
74
0
0
LTYPE
5
3D
330
5
100
AcDbSymbolTableRecord
100
AcDbLinetypeTableRecord
2
DIVIDEX2
70
0
3
Divide (2x) ________  .  .  ________  .  .  _
72
65
73
6
40
63.5
49
25.4
74
0
49
-12.7
74
0
49
0
74
0
49
-12.7
74
0
49
0
74
0
49
-12.7
74
0
0
LTYPE
5
3E
330
5
100
AcDbSymbolTableRecord
100
AcDbLinetypeTableRecord
2
BORDER
70
0
3
Border __ __ . __ __ . __ __ . __ __ . __ __ .
72
65
73
6
40
44.45
49
12.7
74
0
49
-6.35
74
0
49
12.7
74
0
49
-6.35
74
0
49
0
74
0
49
-6.35
74
0
0
LTYPE
5
3F
330
5
100
AcDbSymbolTableRecord
100
AcDbLinetypeTableRecord
2
BORDER2
70
0
3
Border (.5x) __.__.__.__.__.__.__.__.__.__.__.
72
65
73
6
40
22.225
49
6.35
74
0
49
-3.175
74
0
49
6.35
74
0
49
-3.175
74
0
49
0
74
0
49
-3.175
74
0
0
LTYPE
5
40
330
5
100
AcDbSymbolTableRecord
100
AcDbLinetypeTableRecord
2
BORDERX2
70
0
3
Border (2x) ____  ____  .  ____  ____  .  ___
72
65
73
6
40
88.9
49
25.4
74
0
49
-12.7
74
0
49
25.4
74
0
49
-12.7
74
0
49
0
74
0
49
-12.7
74
0
0
LTYPE
5
41
330
5
100
AcDbSymbolTableRecord
100
AcDbLinetypeTableRecord
2
CENTER
70
0
3
Center ____ _ ____ _ ____ _ ____ _ ____ _ ____
72
65
73
4
40
50.8
49
31.75
74
0
49
-6.35
74
0
49
6.35
74
0
49
-6.35
74
0
0
LTYPE
5
42
330
5
100
AcDbSymbolTableRecord
100
AcDbLinetypeTableRecord
2
CENTER2
70
0
3
Center (.5x) ___ _ ___ _ ___ _ ___ _ ___ _ ___
72
65
73
4
40
28.575
49
19.05
74
0
49
-3.175
74
0
49
3.175
74
0
49
-3.175
74
0
0
LTYPE
5
43
330
5
100
AcDbSymbolTableRecord
100
AcDbLinetypeTableRecord
2
CENTERX2
70
0
3
Center (2x) ________  __  ________  __  _____
72
65
73
4
40
101.6
49
63.5
74
0
49
-12.7
74
0
49
12.7
74
0
49
-12.7
74
0
0
ENDTAB
0
TABLE
2
LAYER
5
2
330
0
100
AcDbSymbolTable
70
1
0
LAYER
5
10
330
2
100
AcDbSymbolTableRecord
100
AcDbLayerTableRecord
2
0
70
0
62
7
6
CONTINUOUS
370
-3
390
F
0
LAYER
5
44
330
2
100
AcDbSymbolTableRecord
100
AcDbLayerTableRecord
2
OBJECT
70
0
62
7
6
CONTINUOUS
370
-3
390
F
0
LAYER
5
45
330
2
100
AcDbSymbolTableRecord
100
AcDbLayerTableRecord
2
DIM
70
0
62
7
6
CONTINUOUS
370
-3
390
F
0
LAYER
5
46
330
2
100
AcDbSymbolTableRecord
100
AcDbLayerTableRecord
2
HIDDEN
70
0
62
7
6
DASHED
370
-3
390
F
0
LAYER
5
47
330
2
100
AcDbSymbolTableRecord
100
AcDbLayerTableRecord
2
BEND
70
0
62
7
6
CONTINUOUS
370
-3
390
F
0
LAYER
5
48
330
2
100
AcDbSymbolTableRecord
100
AcDbLayerTableRecord
2
TEXT
70
0
62
7
6
CONTINUOUS
370
-3
390
F
0
LAYER
5
49
330
2
100
AcDbSymbolTableRecord
100
AcDbLayerTableRecord
2
TITLE
70
0
62
7
6
CONTINUOUS
370
-3
390
F
0
LAYER
5
4A
330
2
100
AcDbSymbolTableRecord
100
AcDbLayerTableRecord
2
CENTER
70
0
62
7
6
CENTER
370
-3
390
F
0
LAYER
5
4B
330
2
100
AcDbSymbolTableRecord
100
AcDbLayerTableRecord
2
DEFPOINTS
70
0
62
7
6
CONTINUOUS
370
-3
390
F
0
LAYER
5
4C
330
2
100
AcDbSymbolTableRecord
100
AcDbLayerTableRecord
2
CUSTOM_CUT
70
0
62
7
6
CONTINUOUS
370
0
390
F
0
LAYER
5
4D
330
2
100
AcDbSymbolTableRecord
100
AcDbLayerTableRecord
2
CUSTOM_DIM
70
0
62
7
6
CONTINUOUS
370
0
390
F
0
LAYER
5
4E
330
2
100
AcDbSymbolTableRecord
100
AcDbLayerTableRecord
2
CUSTOM_NOTES
70
0
62
7
6
CONTINUOUS
370
0
390
F
0
ENDTAB
0
TABLE
2
STYLE
5
3
330
0
100
AcDbSymbolTable
70
3
0
STYLE
5
4F
330
2
100
AcDbSymbolTableRecord
100
AcDbTextStyleTableRecord
2
txt
70
0
40
0
41
1
50
0
71
0
42
1
3
txt
4

0
STYLE
5
50
330
2
100
AcDbSymbolTableRecord
100
AcDbTextStyleTableRecord
2
standard
70
0
40
0
41
1
50
0
71
0
42
1
3
standard
4

0
ENDTAB
0
TABLE
2
VIEW
5
6
330
0
100
AcDbSymbolTable
70
0
0
ENDTAB
0
TABLE
2
UCS
5
7
330
0
100
AcDbSymbolTable
70
0
0
ENDTAB
0
TABLE
2
APPID
5
9
330
0
100
AcDbSymbolTable
70
1
0
APPID
5
12
330
9
100
AcDbSymbolTableRecord
100
AcDbRegAppTableRecord
2
ACAD
70
0
0
ENDTAB
0
TABLE
2
DIMSTYLE
5
A
330
0
100
AcDbSymbolTable
70
1
100
AcDbDimStyleTable
71
1
0
DIMSTYLE
105
51
330
A
100
AcDbSymbolTableRecord
100
AcDbDimStyleTableRecord
2
Standard
70
0
40
1
41
0.18
42
0.063
43
0.38
44
0.093
45
0
46
0
47
0
48
0
140
0.125
141
0.09
142
0
143
25.4
144
1
145
0
146
1
147
0.09
148
0
71
0
72
0
73
0
74
1
75
0
76
0
77
0
78
0
79
0
170
0
171
2
172
0
173
0
174
0
175
0
176
0
177
0
178
0
179
0
271
4
272
4
273
2
274
2
275
0
276
0
277
2
278
46
279
0
280
0
281
0
282
0
283
1
284
0
285
0
286
0
288
0
289
3
340
Standard
341

371
-2
372
-2
0
ENDTAB
0
TABLE
2
BLOCK_RECORD
5
1
330
0
100
AcDbSymbolTable
70
2
0
BLOCK_RECORD
5
1F
330
1
100
AcDbSymbolTableRecord
100
AcDbBlockTableRecord
2
*Model_Space
70
0
280
1
281
0
0
BLOCK_RECORD
5
1E
330
1
100
AcDbSymbolTableRecord
100
AcDbBlockTableRecord
2
*Paper_Space
70
0
280
1
281
0
0
BLOCK_RECORD
5
52
330
1
100
AcDbSymbolTableRecord
100
AcDbBlockTableRecord
2
HB
70
0
280
1
281
0
0
BLOCK_RECORD
5
55
330
1
100
AcDbSymbolTableRecord
100
AcDbBlockTableRecord
2
*D1
70
0
280
1
281
0
0
BLOCK_RECORD
5
58
330
1
100
AcDbSymbolTableRecord
100
AcDbBlockTableRecord
2
*D2
70
0
280
1
281
0
0
BLOCK_RECORD
5
5B
330
1
100
AcDbSymbolTableRecord
100
AcDbBlockTableRecord
2
*D3
70
0
280
1
281
0
0
BLOCK_RECORD
5
5E
330
1
100
AcDbSymbolTableRecord
100
AcDbBlockTableRecord
2
*D4
70
0
280
1
281
0
0
BLOCK_RECORD
5
61
330
1
100
AcDbSymbolTableRecord
100
AcDbBlockTableRecord
2
*D5
70
0
280
1
281
0
0
BLOCK_RECORD
5
64
330
1
100
AcDbSymbolTableRecord
100
AcDbBlockTableRecord
2
*D6
70
0
280
1
281
0
0
BLOCK_RECORD
5
67
330
1
100
AcDbSymbolTableRecord
100
AcDbBlockTableRecord
2
*D7
70
0
280
1
281
0
0
BLOCK_RECORD
5
6A
330
1
100
AcDbSymbolTableRecord
100
AcDbBlockTableRecord
2
*D8
70
0
280
1
281
0
0
BLOCK_RECORD
5
6D
330
1
100
AcDbSymbolTableRecord
100
AcDbBlockTableRecord
2
*D9
70
0
280
1
281
0
0
BLOCK_RECORD
5
70
330
1
100
AcDbSymbolTableRecord
100
AcDbBlockTableRecord
2
*D10
70
0
280
1
281
0
0
BLOCK_RECORD
5
73
330
1
100
AcDbSymbolTableRecord
100
AcDbBlockTableRecord
2
*D11
70
0
280
1
281
0
0
ENDTAB
0
ENDSEC
0
SECTION
2
BLOCKS
0
BLOCK
5
20
330
1F
100
AcDbEntity
8
0
100
AcDbBlockBegin
2
*Model_Space
70
0
10
0
20
0
30
0
3
*Model_Space
1

0
ENDBLK
5
21
330
1F
100
AcDbEntity
8
0
100
AcDbBlockEnd
0
BLOCK
5
1C
330
1B
100
AcDbEntity
8
0
100
AcDbBlockBegin
2
*Paper_Space
70
0
10
0
20
0
30
0
3
*Paper_Space
1

0
ENDBLK
5
1D
330
1F
100
AcDbEntity
8
0
100
AcDbBlockEnd
0
BLOCK
5
53
330
52
100
AcDbEntity
8
0
100
AcDbBlockBegin
2
HB
70
0
10
0
20
0
3
HB
1

0
LINE
5
76
100
AcDbEntity
8
TITLE
6
ByLayer
62
256
370
-1
100
AcDbLine
10
0
20
15.5
11
10.12
21
15.5
0
LINE
5
77
100
AcDbEntity
8
TITLE
6
ByLayer
62
256
370
-1
100
AcDbLine
10
10.12
20
-1.8e-15
11
0
21
0
0
LINE
5
78
100
AcDbEntity
8
TITLE
6
ByLayer
62
256
370
-1
100
AcDbLine
10
0.062
20
15.438
11
10.058
21
15.438
0
LINE
5
79
100
AcDbEntity
8
TITLE
6
ByLayer
62
256
370
-1
100
AcDbLine
10
10.058
20
0.062
11
0.062
21
0.062
0
LINE
5
7A
100
AcDbEntity
8
TITLE
6
ByLayer
62
256
370
-1
100
AcDbLine
10
0.062
20
15.02
11
10.058
21
15.02
0
LINE
5
7B
100
AcDbEntity
8
TITLE
6
ByLayer
62
256
370
-1
100
AcDbLine
10
0
20
0
11
0
21
15.5
0
LINE
5
7C
100
AcDbEntity
8
TITLE
6
ByLayer
62
256
370
-1
100
AcDbLine
10
0.062
20
0.062
11
0.062
21
15.438
0
TEXT
5
7D
100
AcDbEntity
8
TEXT
6
ByLayer
62
256
370
-1
100
AcDbText
10
0.437
20
15.268412529
30
0
40
0.125
1
PART
50
0
41
1
51
0
7
txt
71
0
72
1
11
0.437
21
15.268412529
31
0
210
0
220
0
230
1
100
AcDbText
0
TEXT
5
7E
100
AcDbEntity
8
TEXT
6
ByLayer
62
256
370
-1
100
AcDbText
10
0.437
20
15.0600791956
30
0
40
0.125
1
NAME
50
0
41
1
51
0
7
txt
71
0
72
1
11
0.437
21
15.0600791956
31
0
210
0
220
0
230
1
100
AcDbText
0
LINE
5
7F
100
AcDbEntity
8
TITLE
6
ByLayer
62
256
370
-1
100
AcDbLine
10
0.812
20
15.02
11
0.812
21
15.438
0
LINE
5
80
100
AcDbEntity
8
TITLE
6
ByLayer
62
256
370
-1
100
AcDbLine
10
10.12
20
15.5
11
10.12
21
-1.8e-15
0
LINE
5
81
100
AcDbEntity
8
TITLE
6
ByLayer
62
256
370
-1
100
AcDbLine
10
10.058
20
15.438
11
10.058
21
0.062
0
TEXT
5
82
100
AcDbEntity
8
TEXT
6
ByLayer
62
256
370
-1
100
AcDbText
10
4.591
20
15.268412529
30
0
40
0.125
1
PART
50
0
41
1
51
0
7
txt
71
0
72
1
11
4.591
21
15.268412529
31
0
210
0
220
0
230
1
100
AcDbText
0
LINE
5
83
100
AcDbEntity
8
TITLE
6
ByLayer
62
256
370
-1
100
AcDbLine
10
4.154
20
15.438
11
4.154
21
15.02
0
LINE
5
84
100
AcDbEntity
8
TITLE
6
ByLayer
62
256
370
-1
100
AcDbLine
10
4.216
20
15.438
11
4.216
21
15.02
0
TEXT
5
85
100
AcDbEntity
8
TEXT
6
ByLayer
62
256
370
-1
100
AcDbText
10
4.591
20
15.0600791956
30
0
40
0.125
1
No.
50
0
41
1
51
0
7
txt
71
0
72
1
11
4.591
21
15.0600791956
31
0
210
0
220
0
230
1
100
AcDbText
0
LINE
5
86
100
AcDbEntity
8
TITLE
6
ByLayer
62
256
370
-1
100
AcDbLine
10
4.966
20
15.438
11
4.966
21
15.02
0
LINE
5
87
100
AcDbEntity
8
TITLE
6
ByLayer
62
256
370
-1
100
AcDbLine
10
8.308
20
15.438
11
8.308
21
15.02
0
LINE
5
88
100
AcDbEntity
8
TITLE
6
ByLayer
62
256
370
-1
100
AcDbLine
10
8.246
20
15.438
11
8.246
21
15.02
0
TEXT
5
89
100
AcDbEntity
8
TEXT
6
ByLayer
62
256
370
-1
100
AcDbText
10
8.683
20
15.0600791956
30
0
40
0.125
1
DATE
50
0
41
1
51
0
7
txt
71
0
72
1
11
8.683
21
15.0600791956
31
0
210
0
220
0
230
1
100
AcDbText
0
TEXT
5
8A
100
AcDbEntity
8
TEXT
6
ByLayer
62
256
370
-1
100
AcDbText
10
8.683
20
15.268412529
30
0
40
0.125
1
REV.
50
0
41
1
51
0
7
txt
71
0
72
1
11
8.683
21
15.268412529
31
0
210
0
220
0
230
1
100
AcDbText
0
LINE
5
8B
100
AcDbEntity
8
TITLE
6
ByLayer
62
256
370
-1
100
AcDbLine
10
9.058
20
15.438
11
9.058
21
15.02
0
ENDBLK
5
54
330
52
100
AcDbEntity
8
0
100
AcDbBlockEnd
0
BLOCK
5
56
330
55
100
AcDbEntity
8
0
100
AcDbBlockBegin
2
*D1
70
0
10
0
20
0
3
*D1
1

0
LINE
5
8C
100
AcDbEntity
8
DIM
6
ByLayer
62
0
370
-1
100
AcDbLine
10
5.78534775391
20
17.1459518147
11
5.78534775391
21
17.7054744545
0
LINE
5
8D
100
AcDbEntity
8
DIM
6
ByLayer
62
0
370
-1
100
AcDbLine
10
7.81634775391
20
17.1459518147
11
7.81634775391
21
17.7054744545
0
LINE
5
8E
100
AcDbEntity
8
DIM
6
ByLayer
62
0
370
-1
100
AcDbLine
10
6.05534775391
20
17.5659744545
11
6.61897275391
21
17.5659744545
0
LINE
5
8F
100
AcDbEntity
8
DIM
6
ByLayer
62
0
370
-1
100
AcDbLine
10
7.54634775391
20
17.5659744545
11
6.98272275391
21
17.5659744545
0
SOLID
5
90
100
AcDbEntity
8
DIM
6
ByLayer
62
0
370
-1
100
AcDbTrace
10
6.05534775391
20
17.6109744545
30
0
11
6.05534775391
21
17.5209744545
31
0
12
5.78534775391
22
17.5659744545
32
0
13
5.78534775391
23
17.5659744545
33
0
0
SOLID
5
91
100
AcDbEntity
8
DIM
6
ByLayer
62
0
370
-1
100
AcDbTrace
10
7.54634775391
20
17.6109744545
30
0
11
7.54634775391
21
17.5209744545
31
0
12
7.81634775391
22
17.5659744545
32
0
13
7.81634775391
23
17.5659744545
33
0
0
TEXT
5
92
100
AcDbEntity
8
OBJECT
6
ByLayer
62
0
370
-1
100
AcDbText
10
6.75397275391
20
17.4722244545
30
0
40
0.1875
1
G
50
0
41
1
51
0
7
txt
71
0
210
0
220
0
230
1
100
AcDbText
0
POINT
5
93
100
AcDbEntity
8
DEFPOINTS
6
ByLayer
62
0
370
-1
100
AcDbPoint
10
5.78534775391
20
17.0514518147
0
POINT
5
94
100
AcDbEntity
8
DEFPOINTS
6
ByLayer
62
0
370
-1
100
AcDbPoint
10
7.81634775391
20
17.0514518147
0
POINT
5
95
100
AcDbEntity
8
DEFPOINTS
6
ByLayer
62
0
370
-1
100
AcDbPoint
10
7.81634775391
20
17.5659744545
0
ENDBLK
5
57
330
55
100
AcDbEntity
8
0
100
AcDbBlockEnd
0
BLOCK
5
59
330
58
100
AcDbEntity
8
0
100
AcDbBlockBegin
2
*D2
70
0
10
0
20
0
3
*D2
1

0
LINE
5
96
100
AcDbEntity
8
DIM
6
ByLayer
62
0
370
-1
100
AcDbLine
10
5.78534775391
20
7.99412353525
11
5.78534775391
21
7.52766040512
0
LINE
5
97
100
AcDbEntity
8
DIM
6
ByLayer
62
0
370
-1
100
AcDbLine
10
7.91034775391
20
7.99412353525
11
7.91034775391
21
7.52766040512
0
LINE
5
98
100
AcDbEntity
8
DIM
6
ByLayer
62
0
370
-1
100
AcDbLine
10
6.05534775391
20
7.66716040512
11
6.66597275391
21
7.66716040512
0
LINE
5
99
100
AcDbEntity
8
DIM
6
ByLayer
62
0
370
-1
100
AcDbLine
10
7.64034775391
20
7.66716040512
11
7.02972275391
21
7.66716040512
0
SOLID
5
9A
100
AcDbEntity
8
DIM
6
ByLayer
62
0
370
-1
100
AcDbTrace
10
6.05534775391
20
7.71216040512
30
0
11
6.05534775391
21
7.62216040512
31
0
12
5.78534775391
22
7.66716040512
32
0
13
5.78534775391
23
7.66716040512
33
0
0
SOLID
5
9B
100
AcDbEntity
8
DIM
6
ByLayer
62
0
370
-1
100
AcDbTrace
10
7.64034775391
20
7.71216040512
30
0
11
7.64034775391
21
7.62216040512
31
0
12
7.91034775391
22
7.66716040512
32
0
13
7.91034775391
23
7.66716040512
33
0
0
TEXT
5
9C
100
AcDbEntity
8
OBJECT
6
ByLayer
62
0
370
-1
100
AcDbText
10
6.80097275391
20
7.57341040512
30
0
40
0.1875
1
B
50
0
41
1
51
0
7
txt
71
0
210
0
220
0
230
1
100
AcDbText
0
POINT
5
9D
100
AcDbEntity
8
DEFPOINTS
6
ByLayer
62
0
370
-1
100
AcDbPoint
10
5.78534775391
20
8.08862353525
0
POINT
5
9E
100
AcDbEntity
8
DEFPOINTS
6
ByLayer
62
0
370
-1
100
AcDbPoint
10
7.91034775391
20
8.08862353525
0
POINT
5
9F
100
AcDbEntity
8
DEFPOINTS
6
ByLayer
62
0
370
-1
100
AcDbPoint
10
7.91034775391
20
7.66716040512
0
ENDBLK
5
5A
330
58
100
AcDbEntity
8
0
100
AcDbBlockEnd
0
BLOCK
5
5C
330
5B
100
AcDbEntity
8
0
100
AcDbBlockBegin
2
*D3
70
0
10
0
20
0
3
*D3
1

0
LINE
5
A0
100
AcDbEntity
8
DIM
6
ByLayer
62
0
370
-1
100
AcDbLine
10
1.77266623083
20
9.80812353525
11
1.77266623083
21
10.6779564162
0
LINE
5
A1
100
AcDbEntity
8
DIM
6
ByLayer
62
0
370
-1
100
AcDbLine
10
2.14766623083
20
9.80812353525
11
2.14766623083
21
10.6779564162
0
LINE
5
A2
100
AcDbEntity
8
DIM
6
ByLayer
62
0
370
-1
100
AcDbLine
10
1.50266623083
20
10.5384564162
11
1.23266623083
21
10.5384564162
0
LINE
5
A3
100
AcDbEntity
8
DIM
6
ByLayer
62
0
370
-1
100
AcDbLine
10
2.41766623083
20
10.5384564162
11
2.68766623083
21
10.5384564162
0
SOLID
5
A4
100
AcDbEntity
8
DIM
6
ByLayer
62
0
370
-1
100
AcDbTrace
10
1.50266623083
20
10.5834564162
30
0
11
1.50266623083
21
10.4934564162
31
0
12
1.77266623083
22
10.5384564162
32
0
13
1.77266623083
23
10.5384564162
33
0
0
SOLID
5
A5
100
AcDbEntity
8
DIM
6
ByLayer
62
0
370
-1
100
AcDbTrace
10
2.41766623083
20
10.5834564162
30
0
11
2.41766623083
21
10.4934564162
31
0
12
2.14766623083
22
10.5384564162
32
0
13
2.14766623083
23
10.5384564162
33
0
0
TEXT
5
A6
100
AcDbEntity
8
OBJECT
6
ByLayer
62
0
370
-1
100
AcDbText
10
2.82266623083
20
10.4447064162
30
0
40
0.1875
1
0.375
50
0
41
1
51
0
7
txt
71
0
210
0
220
0
230
1
100
AcDbText
0
POINT
5
A7
100
AcDbEntity
8
DEFPOINTS
6
ByLayer
62
0
370
-1
100
AcDbPoint
10
1.77266623083
20
9.71362353525
0
POINT
5
A8
100
AcDbEntity
8
DEFPOINTS
6
ByLayer
62
0
370
-1
100
AcDbPoint
10
2.14766623083
20
9.71362353525
0
POINT
5
A9
100
AcDbEntity
8
DEFPOINTS
6
ByLayer
62
0
370
-1
100
AcDbPoint
10
2.14766623083
20
10.5384564162
0
ENDBLK
5
5D
330
5B
100
AcDbEntity
8
0
100
AcDbBlockEnd
0
BLOCK
5
5F
330
5E
100
AcDbEntity
8
0
100
AcDbBlockBegin
2
*D4
70
0
10
0
20
0
3
*D4
1

0
LINE
5
AA
100
AcDbEntity
8
DIM
6
ByLayer
62
0
370
-1
100
AcDbLine
10
1.77266623083
20
7.99412353525
11
1.77266623083
21
7.52766040512
0
LINE
5
AB
100
AcDbEntity
8
DIM
6
ByLayer
62
0
370
-1
100
AcDbLine
10
4.52266623083
20
7.99412353525
11
4.52266623083
21
7.52766040512
0
LINE
5
AC
100
AcDbEntity
8
DIM
6
ByLayer
62
0
370
-1
100
AcDbLine
10
2.04266623083
20
7.66716040512
11
2.96579123083
21
7.66716040512
0
LINE
5
AD
100
AcDbEntity
8
DIM
6
ByLayer
62
0
370
-1
100
AcDbLine
10
4.25266623083
20
7.66716040512
11
3.32954123083
21
7.66716040512
0
SOLID
5
AE
100
AcDbEntity
8
DIM
6
ByLayer
62
0
370
-1
100
AcDbTrace
10
2.04266623083
20
7.71216040512
30
0
11
2.04266623083
21
7.62216040512
31
0
12
1.77266623083
22
7.66716040512
32
0
13
1.77266623083
23
7.66716040512
33
0
0
SOLID
5
AF
100
AcDbEntity
8
DIM
6
ByLayer
62
0
370
-1
100
AcDbTrace
10
4.25266623083
20
7.71216040512
30
0
11
4.25266623083
21
7.62216040512
31
0
12
4.52266623083
22
7.66716040512
32
0
13
4.52266623083
23
7.66716040512
33
0
0
TEXT
5
B0
100
AcDbEntity
8
OBJECT
6
ByLayer
62
0
370
-1
100
AcDbText
10
3.10079123083
20
7.57341040512
30
0
40
0.1875
1
A
50
0
41
1
51
0
7
txt
71
0
210
0
220
0
230
1
100
AcDbText
0
POINT
5
B1
100
AcDbEntity
8
DEFPOINTS
6
ByLayer
62
0
370
-1
100
AcDbPoint
10
1.77266623083
20
8.08862353525
0
POINT
5
B2
100
AcDbEntity
8
DEFPOINTS
6
ByLayer
62
0
370
-1
100
AcDbPoint
10
4.52266623083
20
8.08862353525
0
POINT
5
B3
100
AcDbEntity
8
DEFPOINTS
6
ByLayer
62
0
370
-1
100
AcDbPoint
10
4.52266623083
20
7.66716040512
0
ENDBLK
5
60
330
5E
100
AcDbEntity
8
0
100
AcDbBlockEnd
0
BLOCK
5
62
330
61
100
AcDbEntity
8
0
100
AcDbBlockBegin
2
*D5
70
0
10
0
20
0
3
*D5
1

0
LINE
5
B4
100
AcDbEntity
8
DIM
6
ByLayer
62
0
370
-1
100
AcDbLine
10
1.67816623083
20
9.71362353525
11
1.14133425848
21
9.71362353525
0
LINE
5
B5
100
AcDbEntity
8
DIM
6
ByLayer
62
0
370
-1
100
AcDbLine
10
1.67816623083
20
8.08862353525
11
1.14133425848
21
8.08862353525
0
LINE
5
B6
100
AcDbEntity
8
DIM
6
ByLayer
62
0
370
-1
100
AcDbLine
10
1.28083425848
20
9.44362353525
11
1.28083425848
21
9.12987353525
0
LINE
5
B7
100
AcDbEntity
8
DIM
6
ByLayer
62
0
370
-1
100
AcDbLine
10
1.28083425848
20
8.35862353525
11
1.28083425848
21
8.67237353525
0
SOLID
5
B8
100
AcDbEntity
8
DIM
6
ByLayer
62
0
370
-1
100
AcDbTrace
10
1.23583425848
20
9.44362353525
30
0
11
1.32583425848
21
9.44362353525
31
0
12
1.28083425848
22
9.71362353525
32
0
13
1.28083425848
23
9.71362353525
33
0
0
SOLID
5
B9
100
AcDbEntity
8
DIM
6
ByLayer
62
0
370
-1
100
AcDbTrace
10
1.23583425848
20
8.35862353525
30
0
11
1.32583425848
21
8.35862353525
31
0
12
1.28083425848
22
8.08862353525
32
0
13
1.28083425848
23
8.08862353525
33
0
0
TEXT
5
BA
100
AcDbEntity
8
OBJECT
6
ByLayer
62
0
370
-1
100
AcDbText
10
1.23395925848
20
8.80737353525
30
0
40
0.1875
1
C
50
0
41
1
51
0
7
txt
71
0
210
0
220
0
230
1
100
AcDbText
0
POINT
5
BB
100
AcDbEntity
8
DEFPOINTS
6
ByLayer
62
0
370
-1
100
AcDbPoint
10
1.77266623083
20
9.71362353525
0
POINT
5
BC
100
AcDbEntity
8
DEFPOINTS
6
ByLayer
62
0
370
-1
100
AcDbPoint
10
1.77266623083
20
8.08862353525
0
POINT
5
BD
100
AcDbEntity
8
DEFPOINTS
6
ByLayer
62
0
370
-1
100
AcDbPoint
10
1.28083425848
20
8.08862353525
0
ENDBLK
5
63
330
61
100
AcDbEntity
8
0
100
AcDbBlockEnd
0
BLOCK
5
65
330
64
100
AcDbEntity
8
0
100
AcDbBlockBegin
2
*D6
70
0
10
0
20
0
3
*D6
1

0
LINE
5
BE
100
AcDbEntity
8
DIM
6
ByLayer
62
0
370
-1
100
AcDbLine
10
4.61716623083
20
9.71362353525
11
5.25994749439
21
9.71362353525
0
LINE
5
BF
100
AcDbEntity
8
DIM
6
ByLayer
62
0
370
-1
100
AcDbLine
10
4.41404123083
20
9.11987353525
11
5.25994749439
21
9.11987353525
0
LINE
5
C0
100
AcDbEntity
8
DIM
6
ByLayer
62
0
370
-1
100
AcDbLine
10
5.12044749439
20
9.98362353525
11
5.12044749439
21
10.2536235352
0
LINE
5
C1
100
AcDbEntity
8
DIM
6
ByLayer
62
0
370
-1
100
AcDbLine
10
5.12044749439
20
8.84987353525
11
5.12044749439
21
8.57987353525
0
SOLID
5
C2
100
AcDbEntity
8
DIM
6
ByLayer
62
0
370
-1
100
AcDbTrace
10
5.07544749439
20
9.98362353525
30
0
11
5.16544749439
21
9.98362353525
31
0
12
5.12044749439
22
9.71362353525
32
0
13
5.12044749439
23
9.71362353525
33
0
0
SOLID
5
C3
100
AcDbEntity
8
DIM
6
ByLayer
62
0
370
-1
100
AcDbTrace
10
5.07544749439
20
8.84987353525
30
0
11
5.16544749439
21
8.84987353525
31
0
12
5.12044749439
22
9.11987353525
32
0
13
5.12044749439
23
9.11987353525
33
0
0
TEXT
5
C4
100
AcDbEntity
8
OBJECT
6
ByLayer
62
0
370
-1
100
AcDbText
10
5.07357249439
20
9.32299853525
30
0
40
0.1875
1
D
50
0
41
1
51
0
7
txt
71
0
210
0
220
0
230
1
100
AcDbText
0
POINT
5
C5
100
AcDbEntity
8
DEFPOINTS
6
ByLayer
62
0
370
-1
100
AcDbPoint
10
4.52266623083
20
9.71362353525
0
POINT
5
C6
100
AcDbEntity
8
DEFPOINTS
6
ByLayer
62
0
370
-1
100
AcDbPoint
10
4.31954123083
20
9.11987353525
0
POINT
5
C7
100
AcDbEntity
8
DEFPOINTS
6
ByLayer
62
0
370
-1
100
AcDbPoint
10
5.12044749439
20
9.11987353525
0
ENDBLK
5
66
330
64
100
AcDbEntity
8
0
100
AcDbBlockEnd
0
BLOCK
5
68
330
67
100
AcDbEntity
8
0
100
AcDbBlockBegin
2
*D7
70
0
10
0
20
0
3
*D7
1

0
LINE
5
C8
100
AcDbEntity
8
DIM
6
ByLayer
62
0
370
-1
100
AcDbLine
10
4.31954123083
20
9.21437353525
11
4.31954123083
21
10.2564564162
0
LINE
5
C9
100
AcDbEntity
8
DIM
6
ByLayer
62
0
370
-1
100
AcDbLine
10
4.14766623083
20
9.80812353525
11
4.14766623083
21
10.2564564162
0
LINE
5
CA
100
AcDbEntity
8
DIM
6
ByLayer
62
0
370
-1
100
AcDbLine
10
4.58954123083
20
10.1169564162
11
4.85954123083
21
10.1169564162
0
LINE
5
CB
100
AcDbEntity
8
DIM
6
ByLayer
62
0
370
-1
100
AcDbLine
10
3.87766623083
20
10.1169564162
11
3.60766623083
21
10.1169564162
0
SOLID
5
CC
100
AcDbEntity
8
DIM
6
ByLayer
62
0
370
-1
100
AcDbTrace
10
4.58954123083
20
10.1619564162
30
0
11
4.58954123083
21
10.0719564162
31
0
12
4.31954123083
22
10.1169564162
32
0
13
4.31954123083
23
10.1169564162
33
0
0
SOLID
5
CD
100
AcDbEntity
8
DIM
6
ByLayer
62
0
370
-1
100
AcDbTrace
10
3.87766623083
20
10.1619564162
30
0
11
3.87766623083
21
10.0719564162
31
0
12
4.14766623083
22
10.1169564162
32
0
13
4.14766623083
23
10.1169564162
33
0
0
TEXT
5
CE
100
AcDbEntity
8
OBJECT
6
ByLayer
62
0
370
-1
100
AcDbText
10
3.37891623083
20
10.0232064162
30
0
40
0.1875
1
E
50
0
41
1
51
0
7
txt
71
0
210
0
220
0
230
1
100
AcDbText
0
POINT
5
CF
100
AcDbEntity
8
DEFPOINTS
6
ByLayer
62
0
370
-1
100
AcDbPoint
10
4.31954123083
20
9.11987353525
0
POINT
5
D0
100
AcDbEntity
8
DEFPOINTS
6
ByLayer
62
0
370
-1
100
AcDbPoint
10
4.14766623083
20
9.71362353525
0
POINT
5
D1
100
AcDbEntity
8
DEFPOINTS
6
ByLayer
62
0
370
-1
100
AcDbPoint
10
4.14766623083
20
10.1169564162
0
ENDBLK
5
69
330
67
100
AcDbEntity
8
0
100
AcDbBlockEnd
0
BLOCK
5
6B
330
6A
100
AcDbEntity
8
0
100
AcDbBlockBegin
2
*D8
70
0
10
0
20
0
3
*D8
1

0
LINE
5
D2
100
AcDbEntity
8
DIM
6
ByLayer
62
0
370
-1
100
AcDbLine
10
4.47566623083
20
17.1459518147
11
4.47566623083
21
17.7054744545
0
LINE
5
D3
100
AcDbEntity
8
DIM
6
ByLayer
62
0
370
-1
100
AcDbLine
10
1.81966623083
20
17.1459518147
11
1.81966623083
21
17.7054744545
0
LINE
5
D4
100
AcDbEntity
8
DIM
6
ByLayer
62
0
370
-1
100
AcDbLine
10
4.20566623083
20
17.5659744545
11
3.32954123083
21
17.5659744545
0
LINE
5
D5
100
AcDbEntity
8
DIM
6
ByLayer
62
0
370
-1
100
AcDbLine
10
2.08966623083
20
17.5659744545
11
2.96579123083
21
17.5659744545
0
SOLID
5
D6
100
AcDbEntity
8
DIM
6
ByLayer
62
0
370
-1
100
AcDbTrace
10
4.20566623083
20
17.6109744545
30
0
11
4.20566623083
21
17.5209744545
31
0
12
4.47566623083
22
17.5659744545
32
0
13
4.47566623083
23
17.5659744545
33
0
0
SOLID
5
D7
100
AcDbEntity
8
DIM
6
ByLayer
62
0
370
-1
100
AcDbTrace
10
2.08966623083
20
17.6109744545
30
0
11
2.08966623083
21
17.5209744545
31
0
12
1.81966623083
22
17.5659744545
32
0
13
1.81966623083
23
17.5659744545
33
0
0
TEXT
5
D8
100
AcDbEntity
8
OBJECT
6
ByLayer
62
0
370
-1
100
AcDbText
10
3.10079123083
20
17.4722244545
30
0
40
0.1875
1
F
50
0
41
1
51
0
7
txt
71
0
210
0
220
0
230
1
100
AcDbText
0
POINT
5
D9
100
AcDbEntity
8
DEFPOINTS
6
ByLayer
62
0
370
-1
100
AcDbPoint
10
4.47566623083
20
17.0514518147
0
POINT
5
DA
100
AcDbEntity
8
DEFPOINTS
6
ByLayer
62
0
370
-1
100
AcDbPoint
10
1.81966623083
20
17.0514518147
0
POINT
5
DB
100
AcDbEntity
8
DEFPOINTS
6
ByLayer
62
0
370
-1
100
AcDbPoint
10
1.81966623083
20
17.5659744545
0
ENDBLK
5
6C
330
6A
100
AcDbEntity
8
0
100
AcDbBlockEnd
0
BLOCK
5
6E
330
6D
100
AcDbEntity
8
0
100
AcDbBlockBegin
2
*D9
70
0
10
0
20
0
3
*D9
1

0
LINE
5
DC
100
AcDbEntity
8
DIM
6
ByLayer
62
0
370
-1
100
AcDbLine
10
1.72516623083
20
15.4894518147
11
1.08401799683
21
15.4894518147
0
LINE
5
DD
100
AcDbEntity
8
DIM
6
ByLayer
62
0
370
-1
100
AcDbLine
10
1.72516623083
20
17.0514518147
11
1.08401799683
21
17.0514518147
0
LINE
5
DE
100
AcDbEntity
8
DIM
6
ByLayer
62
0
370
-1
100
AcDbLine
10
1.22351799683
20
15.7594518147
11
1.22351799683
21
16.0417018147
0
LINE
5
DF
100
AcDbEntity
8
DIM
6
ByLayer
62
0
370
-1
100
AcDbLine
10
1.22351799683
20
16.7814518147
11
1.22351799683
21
16.4992018147
0
SOLID
5
E0
100
AcDbEntity
8
DIM
6
ByLayer
62
0
370
-1
100
AcDbTrace
10
1.17851799683
20
15.7594518147
30
0
11
1.26851799683
21
15.7594518147
31
0
12
1.22351799683
22
15.4894518147
32
0
13
1.22351799683
23
15.4894518147
33
0
0
SOLID
5
E1
100
AcDbEntity
8
DIM
6
ByLayer
62
0
370
-1
100
AcDbTrace
10
1.17851799683
20
16.7814518147
30
0
11
1.26851799683
21
16.7814518147
31
0
12
1.22351799683
22
17.0514518147
32
0
13
1.22351799683
23
17.0514518147
33
0
0
TEXT
5
E2
100
AcDbEntity
8
OBJECT
6
ByLayer
62
0
370
-1
100
AcDbText
10
1.17664299683
20
16.1767018147
30
0
40
0.1875
1
H
50
0
41
1
51
0
7
txt
71
0
210
0
220
0
230
1
100
AcDbText
0
POINT
5
E3
100
AcDbEntity
8
DEFPOINTS
6
ByLayer
62
0
370
-1
100
AcDbPoint
10
1.81966623083
20
15.4894518147
0
POINT
5
E4
100
AcDbEntity
8
DEFPOINTS
6
ByLayer
62
0
370
-1
100
AcDbPoint
10
1.81966623083
20
17.0514518147
0
POINT
5
E5
100
AcDbEntity
8
DEFPOINTS
6
ByLayer
62
0
370
-1
100
AcDbPoint
10
1.22351799683
20
17.0514518147
0
ENDBLK
5
6F
330
6D
100
AcDbEntity
8
0
100
AcDbBlockEnd
0
BLOCK
5
71
330
70
100
AcDbEntity
8
0
100
AcDbBlockBegin
2
*D10
70
0
10
0
20
0
3
*D10
1

0
LINE
5
E6
100
AcDbEntity
8
DIM
6
ByLayer
62
0
370
-1
100
AcDbLine
10
4.41404123083
20
16.4574518147
11
5.25994749439
21
16.4574518147
0
LINE
5
E7
100
AcDbEntity
8
DIM
6
ByLayer
62
0
370
-1
100
AcDbLine
10
4.57016623083
20
15.4894518147
11
5.25994749439
21
15.4894518147
0
LINE
5
E8
100
AcDbEntity
8
DIM
6
ByLayer
62
0
370
-1
100
AcDbLine
10
5.12044749439
20
16.7274518147
11
5.12044749439
21
16.9974518147
0
LINE
5
E9
100
AcDbEntity
8
DIM
6
ByLayer
62
0
370
-1
100
AcDbLine
10
5.12044749439
20
15.2194518147
11
5.12044749439
21
14.9494518147
0
SOLID
5
EA
100
AcDbEntity
8
DIM
6
ByLayer
62
0
370
-1
100
AcDbTrace
10
5.07544749439
20
16.7274518147
30
0
11
5.16544749439
21
16.7274518147
31
0
12
5.12044749439
22
16.4574518147
32
0
13
5.12044749439
23
16.4574518147
33
0
0
SOLID
5
EB
100
AcDbEntity
8
DIM
6
ByLayer
62
0
370
-1
100
AcDbTrace
10
5.07544749439
20
15.2194518147
30
0
11
5.16544749439
21
15.2194518147
31
0
12
5.12044749439
22
15.4894518147
32
0
13
5.12044749439
23
15.4894518147
33
0
0
TEXT
5
EC
100
AcDbEntity
8
OBJECT
6
ByLayer
62
0
370
-1
100
AcDbText
10
5.07357249439
20
15.8797018147
30
0
40
0.1875
1
J
50
0
41
1
51
0
7
txt
71
0
210
0
220
0
230
1
100
AcDbText
0
POINT
5
ED
100
AcDbEntity
8
DEFPOINTS
6
ByLayer
62
0
370
-1
100
AcDbPoint
10
4.31954123083
20
16.4574518147
0
POINT
5
EE
100
AcDbEntity
8
DEFPOINTS
6
ByLayer
62
0
370
-1
100
AcDbPoint
10
4.47566623083
20
15.4894518147
0
POINT
5
EF
100
AcDbEntity
8
DEFPOINTS
6
ByLayer
62
0
370
-1
100
AcDbPoint
10
5.12044749439
20
15.4894518147
0
ENDBLK
5
72
330
70
100
AcDbEntity
8
0
100
AcDbBlockEnd
0
BLOCK
5
74
330
73
100
AcDbEntity
8
0
100
AcDbBlockBegin
2
*D11
70
0
10
0
20
0
3
*D11
1

0
LINE
5
F0
100
AcDbEntity
8
DIM
6
ByLayer
62
0
370
-1
100
AcDbLine
10
4.47566623083
20
15.3949518147
11
4.47566623083
21
14.8125823785
0
LINE
5
F1
100
AcDbEntity
8
DIM
6
ByLayer
62
0
370
-1
100
AcDbLine
10
4.31954123083
20
16.3629518147
11
4.31954123083
21
14.8125823785
0
LINE
5
F2
100
AcDbEntity
8
DIM
6
ByLayer
62
0
370
-1
100
AcDbLine
10
4.74566623083
20
14.9520823785
11
5.01566623083
21
14.9520823785
0
LINE
5
F3
100
AcDbEntity
8
DIM
6
ByLayer
62
0
370
-1
100
AcDbLine
10
4.04954123083
20
14.9520823785
11
3.77954123083
21
14.9520823785
0
SOLID
5
F4
100
AcDbEntity
8
DIM
6
ByLayer
62
0
370
-1
100
AcDbTrace
10
4.74566623083
20
14.9970823785
30
0
11
4.74566623083
21
14.9070823785
31
0
12
4.47566623083
22
14.9520823785
32
0
13
4.47566623083
23
14.9520823785
33
0
0
SOLID
5
F5
100
AcDbEntity
8
DIM
6
ByLayer
62
0
370
-1
100
AcDbTrace
10
4.04954123083
20
14.9970823785
30
0
11
4.04954123083
21
14.9070823785
31
0
12
4.31954123083
22
14.9520823785
32
0
13
4.31954123083
23
14.9520823785
33
0
0
TEXT
5
F6
100
AcDbEntity
8
OBJECT
6
ByLayer
62
0
370
-1
100
AcDbText
10
3.55079123083
20
14.8583323785
30
0
40
0.1875
1
K
50
0
41
1
51
0
7
txt
71
0
210
0
220
0
230
1
100
AcDbText
0
POINT
5
F7
100
AcDbEntity
8
DEFPOINTS
6
ByLayer
62
0
370
-1
100
AcDbPoint
10
4.47566623083
20
15.4894518147
0
POINT
5
F8
100
AcDbEntity
8
DEFPOINTS
6
ByLayer
62
0
370
-1
100
AcDbPoint
10
4.31954123083
20
16.4574518147
0
POINT
5
F9
100
AcDbEntity
8
DEFPOINTS
6
ByLayer
62
0
370
-1
100
AcDbPoint
10
4.31954123083
20
14.9520823785
0
ENDBLK
5
75
330
73
100
AcDbEntity
8
0
100
AcDbBlockEnd
0
ENDSEC
0
SECTION
2
ENTITIES
0
LINE
5
FA
100
AcDbEntity
8
OBJECT
6
ByLayer
62
256
370
-1
100
AcDbLine
10
1.77266623083
20
8.08862353525
11
4.52266623083
21
8.08862353525
0
LINE
5
FB
100
AcDbEntity
8
OBJECT
6
ByLayer
62
256
370
-1
100
AcDbLine
10
4.52266623083
20
8.08862353525
11
4.52266623083
21
9.71362353525
0
LINE
5
FC
100
AcDbEntity
8
OBJECT
6
ByLayer
62
256
370
-1
100
AcDbLine
10
4.52266623083
20
9.71362353525
11
4.14766623083
21
9.71362353525
0
LINE
5
FD
100
AcDbEntity
8
OBJECT
6
ByLayer
62
256
370
-1
100
AcDbLine
10
1.77266623083
20
9.71362353525
11
1.77266623083
21
8.08862353525
0
LINE
5
FE
100
AcDbEntity
8
OBJECT
6
ByLayer
62
256
370
-1
100
AcDbLine
10
7.91034775391
20
9.71362353525
11
5.78534775391
21
9.71362353525
0
LINE
5
FF
100
AcDbEntity
8
OBJECT
6
ByLayer
62
256
370
-1
100
AcDbLine
10
5.78534775391
20
9.71362353525
11
5.78534775391
21
8.08862353525
0
LINE
5
100
100
AcDbEntity
8
OBJECT
6
ByLayer
62
256
370
-1
100
AcDbLine
10
5.78534775391
20
8.08862353525
11
7.91034775391
21
8.08862353525
0
LINE
5
101
100
AcDbEntity
8
OBJECT
6
ByLayer
62
256
370
-1
100
AcDbLine
10
7.91034775391
20
9.71362353525
11
7.91034775391
21
8.08862353525
0
LINE
5
102
100
AcDbEntity
8
OBJECT
6
ByLayer
62
256
370
-1
100
AcDbLine
10
4.52266623083
20
11.1051781201
11
4.52266623083
21
13.2301781201
0
LINE
5
103
100
AcDbEntity
8
OBJECT
6
ByLayer
62
256
370
-1
100
AcDbLine
10
1.77266623083
20
11.1051781201
11
4.52266623083
21
11.1051781201
0
LINE
5
104
100
AcDbEntity
8
OBJECT
6
ByLayer
62
256
370
-1
100
AcDbLine
10
1.77266623083
20
13.2301781201
11
1.77266623083
21
11.1051781201
0
LINE
5
105
100
AcDbEntity
8
OBJECT
6
ByLayer
62
256
370
-1
100
AcDbLine
10
1.77266623083
20
13.2301781201
11
4.52266623083
21
13.2301781201
0
LINE
5
106
100
AcDbEntity
8
OBJECT
6
ByLayer
62
256
370
-1
100
AcDbLine
10
1.81266623083
20
11.1451781201
11
4.48266623083
21
11.1451781201
0
LINE
5
107
100
AcDbEntity
8
OBJECT
6
ByLayer
62
256
370
-1
100
AcDbLine
10
1.81266623083
20
13.1901781201
11
1.81266623083
21
11.1451781201
0
LINE
5
108
100
AcDbEntity
8
OBJECT
6
ByLayer
62
256
370
-1
100
AcDbLine
10
1.81266623083
20
13.1901781201
11
4.48266623083
21
13.1901781201
0
LINE
5
109
100
AcDbEntity
8
OBJECT
6
ByLayer
62
256
370
-1
100
AcDbLine
10
4.48266623083
20
11.1451781201
11
4.48266623083
21
13.1901781201
0
LINE
5
10A
100
AcDbEntity
8
OBJECT
6
ByLayer
62
256
370
-1
100
AcDbLine
10
4.14766623083
20
11.1051781201
11
4.14766623083
21
11.1451781201
0
LINE
5
10B
100
AcDbEntity
8
OBJECT
6
ByLayer
62
256
370
-1
100
AcDbLine
10
2.14766623083
20
13.2301781201
11
2.14766623083
21
13.1901781201
0
LINE
5
10C
100
AcDbEntity
8
OBJECT
6
ByLayer
62
256
370
-1
100
AcDbLine
10
2.14766623083
20
11.1451781201
11
2.14766623083
21
11.1051781201
0
LINE
5
10D
100
AcDbEntity
8
OBJECT
6
ByLayer
62
256
370
-1
100
AcDbLine
10
4.14766623083
20
13.1901781201
11
4.14766623083
21
13.2301781201
0
LINE
5
10E
100
AcDbEntity
8
HIDDEN
6
ByLayer
62
256
370
-1
100
AcDbLine
10
5.82534775391
20
9.71362353525
11
5.82534775391
21
8.12862353525
0
LINE
5
10F
100
AcDbEntity
8
HIDDEN
6
ByLayer
62
256
370
-1
100
AcDbLine
10
7.87034775391
20
9.71362353525
11
7.87034775391
21
8.12862353525
0
LINE
5
110
100
AcDbEntity
8
HIDDEN
6
ByLayer
62
256
370
-1
100
AcDbLine
10
5.82534775391
20
8.12862353525
11
7.87034775391
21
8.12862353525
0
LINE
5
111
100
AcDbEntity
8
HIDDEN
6
ByLayer
62
256
370
-1
100
AcDbLine
10
1.81266623083
20
9.71362353525
11
1.81266623083
21
8.12862353525
0
LINE
5
112
100
AcDbEntity
8
HIDDEN
6
ByLayer
62
256
370
-1
100
AcDbLine
10
1.81266623083
20
8.12862353525
11
4.48266623083
21
8.12862353525
0
LINE
5
113
100
AcDbEntity
8
HIDDEN
6
ByLayer
62
256
370
-1
100
AcDbLine
10
4.48266623083
20
8.12862353525
11
4.48266623083
21
9.71362353525
0
LINE
5
114
100
AcDbEntity
8
OBJECT
6
ByLayer
62
256
370
-1
100
AcDbLine
10
2.14766623083
20
9.71362353525
11
2.14766623083
21
8.47962353525
0
LINE
5
115
100
AcDbEntity
8
OBJECT
6
ByLayer
62
256
370
-1
100
AcDbLine
10
4.14766623083
20
8.47962353525
11
4.14766623083
21
9.71362353525
0
LINE
5
116
100
AcDbEntity
8
OBJECT
6
ByLayer
62
256
370
-1
100
AcDbLine
10
2.16316623083
20
8.46362353525
11
4.13216623083
21
8.46362353525
0
LINE
5
117
100
AcDbEntity
8
OBJECT
6
ByLayer
62
256
370
-1
100
AcDbLine
10
2.16316623083
20
8.46362353525
11
1.78816623083
21
8.08862353525
0
LINE
5
118
100
AcDbEntity
8
OBJECT
6
ByLayer
62
256
370
-1
100
AcDbLine
10
2.14766623083
20
8.47962353525
11
1.77266623083
21
8.10462353525
0
LINE
5
119
100
AcDbEntity
8
OBJECT
6
ByLayer
62
256
370
-1
100
AcDbLine
10
4.14766623083
20
8.47962353525
11
4.52266623083
21
8.10462353525
0
LINE
5
11A
100
AcDbEntity
8
OBJECT
6
ByLayer
62
256
370
-1
100
AcDbLine
10
4.13216623083
20
8.46362353525
11
4.50716623083
21
8.08862353525
0
CIRCLE
5
11B
100
AcDbEntity
8
OBJECT
6
ByLayer
62
256
370
-1
100
AcDbCircle
10
1.97579123083
20
9.11987353525
40
0.109
0
CIRCLE
5
11C
100
AcDbEntity
8
OBJECT
6
ByLayer
62
256
370
-1
100
AcDbCircle
10
4.31954123083
20
9.11987353525
40
0.109
0
TEXT
5
11D
100
AcDbEntity
8
TEXT
6
ByLayer
62
256
370
-1
100
AcDbText
10
9.02918031161
20
21.2299845067
30
0
40
0.1875
1
%%UMATERIAL:
50
0
41
1
51
0
7
standard
71
0
210
0
220
0
230
1
100
AcDbText
0
TEXT
5
11E
100
AcDbEntity
8
TEXT
6
ByLayer
62
256
370
-1
100
AcDbText
10
9.30130535423
20
20.9174845067
30
0
40
0.1875
1
COVER & BASE - 0.040 ALUMINUM
50
0
41
1
51
0
7
standard
71
0
210
0
220
0
230
1
100
AcDbText
0
TEXT
5
11F
100
AcDbEntity
8
TEXT
6
ByLayer
62
256
370
-1
100
AcDbText
10
9.02918031161
20
20.2924845067
30
0
40
0.1875
1
%%UFINISH:
50
0
41
1
51
0
7
standard
71
0
210
0
220
0
230
1
100
AcDbText
0
TEXT
5
120
100
AcDbEntity
8
TEXT
6
ByLayer
62
256
370
-1
100
AcDbText
10
9.30130535423
20
19.9799845067
30
0
40
0.1875
1
COVER & BASE - SUFFIX "A" NATURAL
50
0
41
1
51
0
7
standard
71
0
210
0
220
0
230
1
100
AcDbText
0
DIMENSION
5
121
100
AcDbEntity
8
DIM
6
ByLayer
62
256
370
-1
100
AcDbDimension
10
7.91034775391
20
7.66716040512
30
0
11
6.84784775391
21
7.66716040512
31
0
70
32
1
B
71
5
72
0
3
STANDARD
53
0
210
0
220
0
230
1
100
AcDbAlignedDimension
13
5.78534775391
23
8.08862353525
33
0
14
7.91034775391
24
8.08862353525
34
0
50
180
100
AcDbRotatedDimension
0
DIMENSION
5
122
100
AcDbEntity
8
DIM
6
ByLayer
62
256
370
-1
100
AcDbDimension
10
1.28083425848
20
8.08862353525
30
0
11
1.28083425848
21
8.90112353525
31
0
70
32
1
C
71
5
72
0
3
STANDARD
53
0
210
0
220
0
230
1
100
AcDbAlignedDimension
13
1.77266623083
23
9.71362353525
33
0
14
1.77266623083
24
8.08862353525
34
0
50
270
100
AcDbRotatedDimension
0
DIMENSION
5
123
100
AcDbEntity
8
DIM
6
ByLayer
62
256
370
-1
100
AcDbDimension
10
4.52266623083
20
7.66716040512
30
0
11
3.14766623083
21
7.66716040512
31
0
70
32
1
A
71
5
72
0
3
STANDARD
53
0
210
0
220
0
230
1
100
AcDbAlignedDimension
13
1.77266623083
23
8.08862353525
33
0
14
4.52266623083
24
8.08862353525
34
0
50
180
100
AcDbRotatedDimension
0
LINE
5
124
100
AcDbEntity
8
HIDDEN
6
ByLayer
62
256
370
-1
100
AcDbLine
10
1.81966623083
20
20.0629626588
11
4.47566623083
21
20.0629626588
0
LINE
5
125
100
AcDbEntity
8
OBJECT
6
ByLayer
62
256
370
-1
100
AcDbLine
10
1.81966623083
20
20.1029626588
11
4.47566623083
21
20.1029626588
0
LINE
5
126
100
AcDbEntity
8
HIDDEN
6
ByLayer
62
256
370
-1
100
AcDbLine
10
1.81966623083
20
18.1119626588
11
4.47566623083
21
18.1119626588
0
LINE
5
127
100
AcDbEntity
8
OBJECT
6
ByLayer
62
256
370
-1
100
AcDbLine
10
1.81966623083
20
18.0719626588
11
4.47566623083
21
18.0719626588
0
LINE
5
128
100
AcDbEntity
8
OBJECT
6
ByLayer
62
256
370
-1
100
AcDbLine
10
7.77634775391
20
17.0114518147
11
7.77634775391
21
15.4894518147
0
LINE
5
129
100
AcDbEntity
8
OBJECT
6
ByLayer
62
256
370
-1
100
AcDbLine
10
7.81634775391
20
17.0514518147
11
7.81634775391
21
15.4894518147
0
LINE
5
12A
100
AcDbEntity
8
OBJECT
6
ByLayer
62
256
370
-1
100
AcDbLine
10
5.82534775391
20
17.0114518147
11
5.82534775391
21
15.4894518147
0
LINE
5
12B
100
AcDbEntity
8
OBJECT
6
ByLayer
62
256
370
-1
100
AcDbLine
10
5.78534775391
20
17.0514518147
11
5.78534775391
21
15.4894518147
0
LINE
5
12C
100
AcDbEntity
8
OBJECT
6
ByLayer
62
256
370
-1
100
AcDbLine
10
5.82534775391
20
15.4894518147
11
5.78534775391
21
15.4894518147
0
LINE
5
12D
100
AcDbEntity
8
OBJECT
6
ByLayer
62
256
370
-1
100
AcDbLine
10
7.81634775391
20
15.4894518147
11
7.77634775391
21
15.4894518147
0
LINE
5
12E
100
AcDbEntity
8
OBJECT
6
ByLayer
62
256
370
-1
100
AcDbLine
10
7.77634775391
20
17.0114518147
11
5.82534775391
21
17.0114518147
0
LINE
5
12F
100
AcDbEntity
8
OBJECT
6
ByLayer
62
256
370
-1
100
AcDbLine
10
7.81634775391
20
17.0514518147
11
5.78534775391
21
17.0514518147
0
CIRCLE
5
130
100
AcDbEntity
8
OBJECT
6
ByLayer
62
256
370
-1
100
AcDbCircle
10
1.97579123083
20
16.4574518147
40
0.0680362709314
0
CIRCLE
5
131
100
AcDbEntity
8
OBJECT
6
ByLayer
62
256
370
-1
100
AcDbCircle
10
4.31954123083
20
16.4574518147
40
0.0680362709314
0
LINE
5
132
100
AcDbEntity
8
OBJECT
6
ByLayer
62
256
370
-1
100
AcDbLine
10
1.81966623083
20
17.0514518147
11
4.47566623083
21
17.0514518147
0
LINE
5
133
100
AcDbEntity
8
OBJECT
6
ByLayer
62
256
370
-1
100
AcDbLine
10
1.81966623083
20
15.4894518147
11
4.47566623083
21
15.4894518147
0
LINE
5
134
100
AcDbEntity
8
HIDDEN
6
ByLayer
62
256
370
-1
100
AcDbLine
10
1.81966623083
20
17.0114518147
11
4.47566623083
21
17.0114518147
0
LINE
5
135
100
AcDbEntity
8
OBJECT
6
ByLayer
62
256
370
-1
100
AcDbLine
10
2.14766623083
20
9.71362353525
11
1.77266623083
21
9.71362353525
0
INSERT
5
136
100
AcDbEntity
8
TITLE
6
ByLayer
62
256
370
-1
100
AcDbBlockReference
2
HB
10
0
20
0
30
0
41
1.5
42
1.5
43
0
50
0
70
1
71
1
44
0
45
0
0
LINE
5
137
100
AcDbEntity
8
TITLE
6
ByLayer
62
256
370
-1
100
AcDbLine
10
15.087
20
0.406333333333
11
0.093
21
0.406333333333
0
LINE
5
138
100
AcDbEntity
8
TITLE
6
ByLayer
62
256
370
-1
100
AcDbLine
10
15.087
20
0.719666666667
11
0.093
21
0.719666666667
0
LINE
5
139
100
AcDbEntity
8
TITLE
6
ByLayer
62
256
370
-1
100
AcDbLine
10
15.087
20
1.033
11
0.093
21
1.033
0
LINE
5
13A
100
AcDbEntity
8
TITLE
6
ByLayer
62
256
370
-1
100
AcDbLine
10
15.087
20
1.34633333333
11
0.093
21
1.34633333333
0
LINE
5
13B
100
AcDbEntity
8
TITLE
6
ByLayer
62
256
370
-1
100
AcDbLine
10
15.087
20
1.65966666667
11
0.093
21
1.65966666667
0
LINE
5
13C
100
AcDbEntity
8
TITLE
6
ByLayer
62
256
370
-1
100
AcDbLine
10
15.087
20
1.973
11
0.093
21
1.973
0
LINE
5
13D
100
AcDbEntity
8
TITLE
6
ByLayer
62
256
370
-1
100
AcDbLine
10
15.087
20
2.28633333333
11
0.093
21
2.28633333333
0
LINE
5
13E
100
AcDbEntity
8
TITLE
6
ByLayer
62
256
370
-1
100
AcDbLine
10
15.087
20
2.59966666667
11
0.093
21
2.59966666667
0
LINE
5
13F
100
AcDbEntity
8
TITLE
6
ByLayer
62
256
370
-1
100
AcDbLine
10
15.087
20
2.913
11
0.093
21
2.913
0
LINE
5
140
100
AcDbEntity
8
TITLE
6
ByLayer
62
256
370
-1
100
AcDbLine
10
15.087
20
3.22633333333
11
0.093
21
3.22633333333
0
LINE
5
141
100
AcDbEntity
8
TITLE
6
ByLayer
62
256
370
-1
100
AcDbLine
10
15.087
20
3.53966666667
11
0.093
21
3.53966666667
0
LINE
5
142
100
AcDbEntity
8
TITLE
6
ByLayer
62
256
370
-1
100
AcDbLine
10
15.087
20
3.853
11
0.093
21
3.853
0
LINE
5
143
100
AcDbEntity
8
TITLE
6
ByLayer
62
256
370
-1
100
AcDbLine
10
15.087
20
4.47966666667
11
0.093
21
4.47966666667
0
DIMENSION
5
144
100
AcDbEntity
8
DIM
6
ByLayer
62
256
370
-1
100
AcDbDimension
10
4.31954123083
20
14.9520823785
30
0
11
3.59766623083
21
14.9520823785
31
0
70
32
1
K
71
5
72
0
3
STANDARD
53
0
210
0
220
0
230
1
100
AcDbAlignedDimension
13
4.47566623083
23
15.4894518147
33
0
14
4.31954123083
24
16.4574518147
34
0
50
180
100
AcDbRotatedDimension
0
DIMENSION
5
145
100
AcDbEntity
8
DIM
6
ByLayer
62
256
370
-1
100
AcDbDimension
10
1.81966623083
20
17.5659744545
30
0
11
3.14766623083
21
17.5659744545
31
0
70
32
1
F
71
5
72
0
3
STANDARD
53
0
210
0
220
0
230
1
100
AcDbAlignedDimension
13
4.47566623083
23
17.0514518147
33
0
14
1.81966623083
24
17.0514518147
34
0
50
180
100
AcDbRotatedDimension
0
LINE
5
146
100
AcDbEntity
8
OBJECT
6
ByLayer
62
256
370
-1
100
AcDbLine
10
1.81966623083
20
15.4894518147
11
1.81966623083
21
17.0514518147
0
LINE
5
147
100
AcDbEntity
8
OBJECT
6
ByLayer
62
256
370
-1
100
AcDbLine
10
4.47566623083
20
15.4894518147
11
4.47566623083
21
17.0514518147
0
LINE
5
148
100
AcDbEntity
8
OBJECT
6
ByLayer
62
256
370
-1
100
AcDbLine
10
1.81966623083
20
20.1029626588
11
1.81966623083
21
18.0719626588
0
LINE
5
149
100
AcDbEntity
8
OBJECT
6
ByLayer
62
256
370
-1
100
AcDbLine
10
4.47566623083
20
20.1029626588
11
4.47566623083
21
18.0719626588
0
DIMENSION
5
14A
100
AcDbEntity
8
DIM
6
ByLayer
62
256
370
-1
100
AcDbDimension
10
5.12044749439
20
15.4894518147
30
0
11
5.12044749439
21
15.9734518147
31
0
70
32
1
J
71
5
72
0
3
STANDARD
53
0
210
0
220
0
230
1
100
AcDbAlignedDimension
13
4.31954123083
23
16.4574518147
33
0
14
4.47566623083
24
15.4894518147
34
0
50
90
100
AcDbRotatedDimension
0
DIMENSION
5
14B
100
AcDbEntity
8
DIM
6
ByLayer
62
256
370
-1
100
AcDbDimension
10
1.22351799683
20
17.0514518147
30
0
11
1.22351799683
21
16.2704518147
31
0
70
32
1
H
71
5
72
0
3
STANDARD
53
0
210
0
220
0
230
1
100
AcDbAlignedDimension
13
1.81966623083
23
15.4894518147
33
0
14
1.81966623083
24
17.0514518147
34
0
50
90
100
AcDbRotatedDimension
0
DIMENSION
5
14C
100
AcDbEntity
8
DIM
6
ByLayer
62
256
370
-1
100
AcDbDimension
10
5.12044749439
20
9.11987353525
30
0
11
5.12044749439
21
9.41674853525
31
0
70
32
1
D
71
5
72
0
3
STANDARD
53
0
210
0
220
0
230
1
100
AcDbAlignedDimension
13
4.52266623083
23
9.71362353525
33
0
14
4.31954123083
24
9.11987353525
34
0
50
90
100
AcDbRotatedDimension
0
DIMENSION
5
14D
100
AcDbEntity
8
DIM
6
ByLayer
62
256
370
-1
100
AcDbDimension
10
2.14766623083
20
10.5384564162
30
0
11
3.09219748083
21
10.5384564162
31
0
70
32
1
<>
71
5
72
0
3
STANDARD
53
0
210
0
220
0
230
1
100
AcDbAlignedDimension
13
1.77266623083
23
9.71362353525
33
0
14
2.14766623083
24
9.71362353525
34
0
50
180
100
AcDbRotatedDimension
0
DIMENSION
5
14E
100
AcDbEntity
8
DIM
6
ByLayer
62
256
370
-1
100
AcDbDimension
10
4.14766623083
20
10.1169564162
30
0
11
3.42579123083
21
10.1169564162
31
0
70
32
1
E
71
5
72
0
3
STANDARD
53
0
210
0
220
0
230
1
100
AcDbAlignedDimension
13
4.31954123083
23
9.11987353525
33
0
14
4.14766623083
24
9.71362353525
34
0
50
180
100
AcDbRotatedDimension
0
DIMENSION
5
14F
100
AcDbEntity
8
DIM
6
ByLayer
62
256
370
-1
100
AcDbDimension
10
7.81634775391
20
17.5659744545
30
0
11
6.80084775391
21
17.5659744545
31
0
70
32
1
G
71
5
72
0
3
STANDARD
53
0
210
0
220
0
230
1
100
AcDbAlignedDimension
13
5.78534775391
23
17.0514518147
33
0
14
7.81634775391
24
17.0514518147
34
0
50
180
100
AcDbRotatedDimension
0
LINE
5
150
100
AcDbEntity
8
OBJECT
6
ByLayer
62
256
370
-1
100
AcDbLine
10
11.7279881292
20
10.5643589804
11
12.0527476556
21
10.7518589804
0
LINE
5
151
100
AcDbEntity
8
OBJECT
6
ByLayer
62
256
370
-1
100
AcDbLine
10
14.1095579896
20
11.9393589804
11
12.2692540066
21
13.0018589804
0
LINE
5
152
100
AcDbEntity
8
OBJECT
6
ByLayer
62
256
370
-1
100
AcDbLine
10
12.2692540066
20
13.0018589804
11
11.9444944802
21
12.8143589804
0
LINE
5
153
100
AcDbEntity
8
OBJECT
6
ByLayer
62
256
370
-1
100
AcDbLine
10
9.88768414619
20
11.6268589804
11
11.7279881292
21
10.5643589804
0
LINE
5
154
100
AcDbEntity
8
OBJECT
6
ByLayer
62
256
370
-1
100
AcDbLine
10
11.7279881292
20
10.5643589804
11
11.7279881292
21
8.93935898037
0
LINE
5
155
100
AcDbEntity
8
OBJECT
6
ByLayer
62
256
370
-1
100
AcDbLine
10
11.7279881292
20
8.93935898037
11
14.1095579896
21
10.3143589804
0
LINE
5
156
100
AcDbEntity
8
OBJECT
6
ByLayer
62
256
370
-1
100
AcDbLine
10
14.1095579896
20
10.3143589804
11
14.1095579896
21
11.9393589804
0
LINE
5
157
100
AcDbEntity
8
OBJECT
6
ByLayer
62
256
370
-1
100
AcDbLine
10
9.88768414619
20
11.6268589804
11
9.88768414619
21
10.0018589804
0
LINE
5
158
100
AcDbEntity
8
OBJECT
6
ByLayer
62
256
370
-1
100
AcDbLine
10
9.88768414619
20
10.0018589804
11
11.7279881292
21
8.93935898037
0
LINE
5
159
100
AcDbEntity
8
OBJECT
6
ByLayer
62
256
370
-1
100
AcDbLine
10
12.2692540066
20
12.9618589804
11
12.2692540066
21
11.3768589804
0
LINE
5
15A
100
AcDbEntity
8
OBJECT
6
ByLayer
62
256
370
-1
100
AcDbLine
10
12.2692540066
20
11.3768589804
11
11.3296164435
21
10.8343589804
0
LINE
5
15B
100
AcDbEntity
8
OBJECT
6
ByLayer
62
256
370
-1
100
AcDbLine
10
11.9444944802
20
11.5643589804
11
14.1095579896
21
10.3143589804
0
LINE
5
15C
100
AcDbEntity
8
OBJECT
6
ByLayer
62
256
370
-1
100
AcDbLine
10
10.2124436726
20
11.8143589804
11
9.88768414619
21
11.6268589804
0
LINE
5
15D
100
AcDbEntity
8
OBJECT
6
ByLayer
62
256
370
-1
100
AcDbLine
10
13.7847984632
20
11.7518589804
11
14.1095579896
21
11.9393589804
0
LINE
5
15E
100
AcDbEntity
8
OBJECT
6
ByLayer
62
256
370
-1
100
AcDbLine
10
13.7847984632
20
10.5018589804
11
13.7847984632
21
11.7518589804
0
LINE
5
15F
100
AcDbEntity
8
OBJECT
6
ByLayer
62
256
370
-1
100
AcDbLine
10
12.0527476556
20
10.7518589804
11
12.0527476556
21
9.50185898037
0
LINE
5
160
100
AcDbEntity
8
OBJECT
6
ByLayer
62
256
370
-1
100
AcDbLine
10
11.9444944802
20
12.8143589804
11
11.9444944802
21
11.5643589804
0
LINE
5
161
100
AcDbEntity
8
OBJECT
6
ByLayer
62
256
370
-1
100
AcDbLine
10
11.9444944802
20
11.5643589804
11
11.0048569171
21
11.0218589804
0
LINE
5
162
100
AcDbEntity
8
OBJECT
6
ByLayer
62
256
370
-1
100
AcDbLine
10
12.0527476556
20
9.50185898037
11
13.7847984632
21
10.5018589804
0
LINE
5
163
100
AcDbEntity
8
OBJECT
6
ByLayer
62
256
370
-1
100
AcDbLine
10
10.2124436726
20
11.8143589804
11
10.2470846888
21
11.7943589804
0
LINE
5
164
100
AcDbEntity
8
OBJECT
6
ByLayer
62
256
370
-1
100
AcDbLine
10
11.9444944802
20
12.8143589804
11
11.9791354963
21
12.7943589804
0
LINE
5
165
100
AcDbEntity
8
OBJECT
6
ByLayer
62
256
370
-1
100
AcDbLine
10
12.0527476556
20
9.50185898037
11
11.7279881292
21
8.93935898037
0
LINE
5
166
100
AcDbEntity
8
OBJECT
6
ByLayer
62
256
370
-1
100
AcDbLine
10
12.0527476556
20
9.54185898037
11
13.7501574471
21
10.5218589804
0
LINE
5
167
100
AcDbEntity
8
OBJECT
6
ByLayer
62
256
370
-1
100
AcDbLine
10
13.7501574471
20
11.7718589804
11
14.0402759573
21
11.9393589804
0
LINE
5
168
100
AcDbEntity
8
OBJECT
6
ByLayer
62
256
370
-1
100
AcDbLine
10
12.2692540066
20
12.9618589804
11
11.9791354963
21
12.7943589804
0
LINE
5
169
100
AcDbEntity
8
OBJECT
6
ByLayer
62
256
370
-1
100
AcDbLine
10
11.9791354963
20
12.7943589804
11
11.9791354963
21
11.5443589804
0
LINE
5
16A
100
AcDbEntity
8
OBJECT
6
ByLayer
62
256
370
-1
100
AcDbLine
10
11.9791354963
20
11.5443589804
11
11.0394979332
21
11.0018589804
0
LINE
5
16B
100
AcDbEntity
8
OBJECT
6
ByLayer
62
256
370
-1
100
AcDbLine
10
10.2470846888
20
11.7943589804
11
9.95696617849
21
11.6268589804
0
LINE
5
16C
100
AcDbEntity
8
OBJECT
6
ByLayer
62
256
370
-1
100
AcDbLine
10
11.7279881292
20
10.6043589804
11
12.0181066395
21
10.7718589804
0
LINE
5
16D
100
AcDbEntity
8
OBJECT
6
ByLayer
62
256
370
-1
100
AcDbLine
10
13.7501574471
20
10.5218589804
11
13.7501574471
21
11.7718589804
0
LINE
5
16E
100
AcDbEntity
8
OBJECT
6
ByLayer
62
256
370
-1
100
AcDbLine
10
9.95696617849
20
11.6268589804
11
11.7279881292
21
10.6043589804
0
LINE
5
16F
100
AcDbEntity
8
OBJECT
6
ByLayer
62
256
370
-1
100
AcDbLine
10
14.0402759573
20
11.9393589804
11
12.2692540066
21
12.9618589804
0
LINE
5
170
100
AcDbEntity
8
OBJECT
6
ByLayer
62
256
370
-1
100
AcDbLine
10
12.0181066395
20
10.7718589804
11
12.0527476556
21
10.7518589804
0
LINE
5
171
100
AcDbEntity
8
OBJECT
6
ByLayer
62
256
370
-1
100
AcDbLine
10
10.2470846888
20
11.7943589804
11
10.2470846888
21
11.4593589804
0
LINE
5
172
100
AcDbEntity
8
OBJECT
6
ByLayer
62
256
370
-1
100
AcDbLine
10
13.7501574471
20
11.7718589804
11
13.7847984632
21
11.7518589804
0
LWPOLYLINE
5
173
100
AcDbEntity
8
OBJECT
6
ByLayer
62
256
370
-1
100
AcDbPolyline
90
16
70
1
43
0
10
11.8413292978
20
10.1079214262
42
0.0587518675354
10
11.8213711486
20
10.0615239907
42
0.0723410840577
10
11.815456695
20
10.0208589804
42
0.106617054391
10
11.8235602677
20
9.9832877969
42
0.156851219671
10
11.8413292978
20
9.96367164284
42
0.156851219671
10
11.8672019005
20
9.95809128847
42
0.106617054391
10
11.9037912862
20
9.96985898037
42
0.0723410840576
10
11.9360509914
20
9.99531355256
42
0.0587518675354
10
11.9662532746
20
10.0357965345
42
0.0587518675354
10
11.9862114238
20
10.0821939701
42
0.0723410840577
10
11.9921258774
20
10.1228589804
42
0.106617054391
10
11.9840223047
20
10.1604301638
42
0.156851219671
10
11.9662532746
20
10.1800463179
42
0.156851219671
10
11.9403806719
20
10.1856266723
42
0.106617054391
10
11.9037912862
20
10.1738589804
42
0.0723410840577
10
11.871531581
20
10.1484044082
42
0.0587518675354
0
LWPOLYLINE
5
174
100
AcDbEntity
8
OBJECT
6
ByLayer
62
256
370
-1
100
AcDbPolyline
90
9
70
0
43
0
10
11.8264615184
20
9.97791989355
42
0.0353359386047
10
11.8325608843
20
9.97809128847
42
0.106617054391
10
11.86915027
20
9.98985898037
42
0.0723410840576
10
11.9014099752
20
10.0153135526
42
0.0587518675354
10
11.9316122585
20
10.0557965345
42
0.0587518675354
10
11.9515704077
20
10.1021939701
42
0.0723410840577
10
11.9574848612
20
10.1428589804
42
0.106617054391
10
11.9493812885
20
10.1804301638
42
0.0353359386047
10
11.9464800379
20
10.1857980672
42
0.0353359386047
0
LWPOLYLINE
5
175
100
AcDbEntity
8
OBJECT
6
ByLayer
62
256
370
-1
100
AcDbPolyline
90
9
70
0
43
0
10
13.8564250648
20
11.1499198935
42
0.0353359386047
10
13.8625244308
20
11.1500912885
42
0.106617054391
10
13.8991138165
20
11.1618589804
42
0.0723410840576
10
13.9313735217
20
11.1873135526
42
0.0587518675354
10
13.961575805
20
11.2277965345
42
0.0587518675354
10
13.9815339541
20
11.2741939701
42
0.0723410840577
10
13.9874484077
20
11.3148589804
42
0.106617054391
10
13.979344835
20
11.3524301638
42
0.0353359386047
10
13.9764435843
20
11.3577980672
42
0.0353359386047
0
LWPOLYLINE
5
176
100
AcDbEntity
8
OBJECT
6
ByLayer
62
256
370
-1
100
AcDbPolyline
90
16
70
1
43
0
10
13.8712928442
20
11.2799214262
42
0.0587518675354
10
13.851334695
20
11.2335239907
42
0.0723410840577
10
13.8454202415
20
11.1928589804
42
0.106617054391
10
13.8535238142
20
11.1552877969
42
0.156851219671
10
13.8712928442
20
11.1356716428
42
0.156851219671
10
13.897165447
20
11.1300912885
42
0.106617054391
10
13.9337548327
20
11.1418589804
42
0.0723410840576
10
13.9660145379
20
11.1673135526
42
0.0587518675354
10
13.9962168211
20
11.2077965345
42
0.0587518675354
10
14.0161749703
20
11.2541939701
42
0.0723410840577
10
14.0220894239
20
11.2948589804
42
0.106617054391
10
14.0139858511
20
11.3324301638
42
0.156851219671
10
13.9962168211
20
11.3520463179
42
0.156851219671
10
13.9703442184
20
11.3576266723
42
0.106617054391
10
13.9337548327
20
11.3458589804
42
0.0723410840577
10
13.9014951275
20
11.3204044082
42
0.0587518675354
0
LWPOLYLINE
5
177
100
AcDbEntity
8
OBJECT
6
ByLayer
62
256
370
-1
100
AcDbPolyline
90
16
70
1
43
0
10
12.0656298773
20
12.3224214262
42
0.0587518675354
10
12.0456717282
20
12.2760239907
42
0.0723410840577
10
12.0397572746
20
12.2353589804
42
0.106617054391
10
12.0478608473
20
12.1977877969
42
0.156851219671
10
12.0656298773
20
12.1781716428
42
0.156851219671
10
12.0915024801
20
12.1725912885
42
0.106617054391
10
12.1280918658
20
12.1843589804
42
0.0723410840576
10
12.160351571
20
12.2098135526
42
0.0587518675354
10
12.1905538542
20
12.2502965345
42
0.0587518675354
10
12.2105120034
20
12.2966939701
42
0.0723410840577
10
12.216426457
20
12.3373589804
42
0.106617054391
10
12.2083228842
20
12.3749301638
42
0.156851219671
10
12.1905538542
20
12.3945463179
42
0.156851219671
10
12.1646812515
20
12.4001266723
42
0.106617054391
10
12.1280918658
20
12.3883589804
42
0.0723410840577
10
12.0958321606
20
12.3629044082
42
0.0587518675354
0
LWPOLYLINE
5
178
100
AcDbEntity
8
OBJECT
6
ByLayer
62
256
370
-1
100
AcDbPolyline
90
9
70
0
43
0
10
12.0507620979
20
12.1924198935
42
0.0353359386047
10
12.0568614639
20
12.1925912885
42
0.106617054391
10
12.0934508496
20
12.2043589804
42
0.0723410840576
10
12.1257105548
20
12.2298135526
42
0.0587518675354
10
12.1559128381
20
12.2702965345
42
0.0587518675354
10
12.1758709872
20
12.3166939701
42
0.0723410840577
10
12.1817854408
20
12.3573589804
42
0.106617054391
10
12.1736818681
20
12.3949301638
42
0.0353359386047
10
12.1707806175
20
12.4002980672
42
0.0353359386047
0
LINE
5
179
100
AcDbEntity
8
OBJECT
6
ByLayer
62
256
370
-1
100
AcDbLine
10
11.7279881292
20
14.5254875645
11
14.0281516017
21
15.8534875645
0
LINE
5
17A
100
AcDbEntity
8
OBJECT
6
ByLayer
62
256
370
-1
100
AcDbLine
10
14.0281516017
20
15.8534875645
11
12.2692540066
21
16.8689875645
0
LINE
5
17B
100
AcDbEntity
8
OBJECT
6
ByLayer
62
256
370
-1
100
AcDbLine
10
12.2692540066
20
16.8689875645
11
9.96909053414
21
15.5409875645
0
LINE
5
17C
100
AcDbEntity
8
OBJECT
6
ByLayer
62
256
370
-1
100
AcDbLine
10
9.96909053414
20
15.5409875645
11
11.7279881292
21
14.5254875645
0
LINE
5
17D
100
AcDbEntity
8
OBJECT
6
ByLayer
62
256
370
-1
100
AcDbLine
10
11.7279881292
20
14.5254875645
11
11.7279881292
21
12.9634875645
0
LINE
5
17E
100
AcDbEntity
8
OBJECT
6
ByLayer
62
256
370
-1
100
AcDbLine
10
11.7279881292
20
12.9634875645
11
14.0281516017
21
14.2914875645
0
LINE
5
17F
100
AcDbEntity
8
OBJECT
6
ByLayer
62
256
370
-1
100
AcDbLine
10
14.0281516017
20
14.2914875645
11
14.0281516017
21
15.8534875645
0
LINE
5
180
100
AcDbEntity
8
OBJECT
6
ByLayer
62
256
370
-1
100
AcDbLine
10
9.96909053414
20
15.5409875645
11
9.96909053414
21
13.9789875645
0
LINE
5
181
100
AcDbEntity
8
OBJECT
6
ByLayer
62
256
370
-1
100
AcDbLine
10
9.96909053414
20
13.9789875645
11
10.0037315503
21
13.9589875645
0
LINE
5
182
100
AcDbEntity
8
OBJECT
6
ByLayer
62
256
370
-1
100
AcDbLine
10
11.6933471131
20
14.5054875645
11
11.6933471131
21
12.9834875645
0
LINE
5
183
100
AcDbEntity
8
OBJECT
6
ByLayer
62
256
370
-1
100
AcDbLine
10
10.0037315503
20
15.4809875645
11
10.0037315503
21
13.9589875645
0
LINE
5
184
100
AcDbEntity
8
OBJECT
6
ByLayer
62
256
370
-1
100
AcDbLine
10
10.0037315503
20
15.4809875645
11
11.6933471131
21
14.5054875645
0
LINE
5
185
100
AcDbEntity
8
OBJECT
6
ByLayer
62
256
370
-1
100
AcDbLine
10
10.0037315503
20
13.9589875645
11
11.3218222149
21
14.7199875645
0
LINE
5
186
100
AcDbEntity
8
OBJECT
6
ByLayer
62
256
370
-1
100
AcDbLine
10
11.6933471131
20
12.9834875645
11
11.7279881292
21
12.9634875645
0
LWPOLYLINE
5
187
100
AcDbEntity
8
OBJECT
6
ByLayer
62
256
370
-1
100
AcDbPolyline
90
16
70
1
43
0
10
10.1054572155
20
15.0242562243
42
0.0587518675354
10
10.0947933025
20
14.9994654377
42
0.0723410840576
10
10.0916331288
20
14.9777375645
42
0.106617054391
10
10.0959629789
20
14.9576627655
42
0.156851219671
10
10.1054572155
20
14.9471815852
42
0.156851219671
10
10.1192813023
20
14.9441999252
42
0.106617054391
10
10.1388315133
20
14.9504875645
42
0.0723410840577
10
10.1560683165
20
14.9640882918
42
0.0587518675354
10
10.172205811
20
14.9857189047
42
0.0587518675354
10
10.1828697241
20
15.0105096914
42
0.0723410840576
10
10.1860298978
20
15.0322375645
42
0.106617054391
10
10.1817000477
20
15.0523123635
42
0.156851219671
10
10.172205811
20
15.0627935439
42
0.156851219671
10
10.1583817243
20
15.0657752038
42
0.106617054391
10
10.1388315133
20
15.0594875645
42
0.0723410840577
10
10.12159471
20
15.0458868372
42
0.0587518675354
0
LWPOLYLINE
5
188
100
AcDbEntity
8
OBJECT
6
ByLayer
62
256
370
-1
100
AcDbPolyline
90
7
70
0
43
0
10
10.0931169137
20
14.9658075554
42
0.0619484326924
10
10.1041904971
20
14.9704875645
42
0.0723410840577
10
10.1214273004
20
14.9840882918
42
0.0587518675354
10
10.1375647949
20
15.0057189047
42
0.0587518675354
10
10.1482287079
20
15.0305096914
42
0.0723410840577
10
10.1513888816
20
15.0522375645
42
0.0619484326924
10
10.1499050967
20
15.0641675737
42
0.0619484326924
0
LWPOLYLINE
5
189
100
AcDbEntity
8
OBJECT
6
ByLayer
62
256
370
-1
100
AcDbPolyline
90
7
70
0
43
0
10
11.8173734926
20
13.9703075554
42
0.0619484326924
10
11.8284470761
20
13.9749875645
42
0.0723410840577
10
11.8456838793
20
13.9885882918
42
0.0587518675354
10
11.8618213738
20
14.0102189047
42
0.0587518675354
10
11.8724852869
20
14.0350096914
42
0.0723410840577
10
11.8756454606
20
14.0567375645
42
0.0619484326924
10
11.8741616757
20
14.0686675737
42
0.0619484326924
0
LWPOLYLINE
5
18A
100
AcDbEntity
8
OBJECT
6
ByLayer
62
256
370
-1
100
AcDbPolyline
90
16
70
1
43
0
10
11.8297137945
20
14.0287562243
42
0.0587518675354
10
11.8190498814
20
14.0039654377
42
0.0723410840576
10
11.8158897077
20
13.9822375645
42
0.106617054391
10
11.8202195578
20
13.9621627655
42
0.156851219671
10
11.8297137945
20
13.9516815852
42
0.156851219671
10
11.8435378812
20
13.9486999252
42
0.106617054391
10
11.8630880922
20
13.9549875645
42
0.0723410840577
10
11.8803248955
20
13.9685882918
42
0.0587518675354
10
11.89646239
20
13.9902189047
42
0.0587518675354
10
11.907126303
20
14.0150096914
42
0.0723410840576
10
11.9102864767
20
14.0367375645
42
0.106617054391
10
11.9059566266
20
14.0568123635
42
0.156851219671
10
11.89646239
20
14.0672935439
42
0.156851219671
10
11.8826383032
20
14.0702752038
42
0.106617054391
10
11.8630880922
20
14.0639875645
42
0.0723410840577
10
11.845851289
20
14.0503868372
42
0.0587518675354
0
LWPOLYLINE
5
18B
100
AcDbEntity
8
OBJECT
6
ByLayer
62
256
370
-1
100
AcDbPolyline
90
7
70
0
43
0
10
13.8473370391
20
15.1423075554
42
0.0619484326924
10
13.8584106225
20
15.1469875645
42
0.0723410840577
10
13.8756474258
20
15.1605882918
42
0.0587518675354
10
13.8917849203
20
15.1822189047
42
0.0587518675354
10
13.9024488333
20
15.2070096914
42
0.0723410840577
10
13.905609007
20
15.2287375645
42
0.0619484326924
10
13.9041252221
20
15.2406675737
42
0.0619484326924
0
LWPOLYLINE
5
18C
100
AcDbEntity
8
OBJECT
6
ByLayer
62
256
370
-1
100
AcDbPolyline
90
16
70
1
43
0
10
13.8596773409
20
15.2007562243
42
0.0587518675354
10
13.8490134279
20
15.1759654377
42
0.0723410840576
10
13.8458532542
20
15.1542375645
42
0.106617054391
10
13.8501831043
20
15.1341627655
42
0.156851219671
10
13.8596773409
20
15.1236815852
42
0.156851219671
10
13.8735014277
20
15.1206999252
42
0.106617054391
10
13.8930516387
20
15.1269875645
42
0.0723410840577
10
13.910288442
20
15.1405882918
42
0.0587518675354
10
13.9264259364
20
15.1622189047
42
0.0587518675354
10
13.9370898495
20
15.1870096914
42
0.0723410840576
10
13.9402500232
20
15.2087375645
42
0.106617054391
10
13.9359201731
20
15.2288123635
42
0.156851219671
10
13.9264259364
20
15.2392935439
42
0.156851219671
10
13.9126018497
20
15.2422752038
42
0.106617054391
10
13.8930516387
20
15.2359875645
42
0.0723410840577
10
13.8758148354
20
15.2223868372
42
0.0587518675354
0
TEXT
5
18D
100
AcDbEntity
8
TEXT
6
ByLayer
62
256
370
-1
100
AcDbText
10
11.1622793001
20
19.6674845067
30
0
40
0.1875
1
- SUFFIX "B" SMOOTH GRAY
50
0
41
1
51
0
7
standard
71
0
210
0
220
0
230
1
100
AcDbText
0
TEXT
5
18E
100
AcDbEntity
8
TEXT
6
ByLayer
62
256
370
-1
100
AcDbText
10
9.02918031161
20
19.0391511734
30
0
40
0.188
1
EACH UNIT SLIPS TOGETHER AND MAY BE
50
0
41
1
51
0
7
txt
71
0
210
0
220
0
230
1
100
AcDbText
0
TEXT
5
18F
100
AcDbEntity
8
TEXT
6
ByLayer
62
256
370
-1
100
AcDbText
10
9.02918031161
20
18.72581784
30
0
40
0.188
1
JOINED BY EITHER BUILT-IN SNAP LOCK
50
0
41
1
51
0
7
txt
71
0
210
0
220
0
230
1
100
AcDbText
0
TEXT
5
190
100
AcDbEntity
8
TEXT
6
ByLayer
62
256
370
-1
100
AcDbText
10
9.02918031161
20
18.4124845067
30
0
40
0.188
1
OR #6 SHEET METAL SCREWS (PROVIDED).
50
0
41
1
51
0
7
txt
71
0
210
0
220
0
230
1
100
AcDbText
0
TEXT
5
191
100
AcDbEntity
8
TEXT
6
ByLayer
62
256
370
-1
100
AcDbText
10
3.58130969705
20
6.76884181579
30
0
40
0.25
1
%%uBASE
50
0
41
1
51
0
7
txt
71
0
210
0
220
0
230
1
100
AcDbText
0
TEXT
5
192
100
AcDbEntity
8
TEXT
6
ByLayer
62
256
370
-1
100
AcDbText
10
3.58130969705
20
14.2322294109
30
0
40
0.25
1
%%uCOVER
50
0
41
1
51
0
7
txt
71
0
210
0
220
0
230
1
100
AcDbText
0
LINE
5
193
100
AcDbEntity
8
TITLE
6
ByLayer
62
256
370
-1
100
AcDbLine
10
1.593
20
4.47966666667
11
1.593
21
0.093
0
LINE
5
194
100
AcDbEntity
8
TITLE
6
ByLayer
62
256
370
-1
100
AcDbLine
10
3.093
20
5.10633333333
11
3.093
21
0.093
0
LINE
5
195
100
AcDbEntity
8
TITLE
6
ByLayer
62
256
370
-1
100
AcDbLine
10
9.093
20
5.10633333333
11
9.093
21
0.093
0
LINE
5
196
100
AcDbEntity
8
TITLE
6
ByLayer
62
256
370
-1
100
AcDbLine
10
15.087
20
5.10633333333
11
0.093
21
5.10633333333
0
TEXT
5
197
100
AcDbEntity
8
TEXT
6
ByLayer
62
256
370
-1
100
AcDbText
10
0.843
20
3.69633333333
30
0
40
0.188
1
CU-2100-B
50
0
41
1
51
0
7
txt
71
0
72
4
11
0.843
21
3.69633333333
31
0
210
0
220
0
230
1
100
AcDbText
0
TEXT
5
198
100
AcDbEntity
8
TEXT
6
ByLayer
62
256
370
-1
100
AcDbText
10
2.343
20
3.69633333333
30
0
40
0.188
1
CU-3000-A
50
0
41
1
51
0
7
txt
71
0
72
4
11
2.343
21
3.69633333333
31
0
210
0
220
0
230
1
100
AcDbText
0
TEXT
5
199
100
AcDbEntity
8
TEXT
6
ByLayer
62
256
370
-1
100
AcDbText
10
2.343
20
3.383
30
0
40
0.188
1
CU-3001-A
50
0
41
1
51
0
7
txt
71
0
72
4
11
2.343
21
3.383
31
0
210
0
220
0
230
1
100
AcDbText
0
TEXT
5
19A
100
AcDbEntity
8
TEXT
6
ByLayer
62
256
370
-1
100
AcDbText
10
0.843
20
3.383
30
0
40
0.188
1
CU-2101-B
50
0
41
1
51
0
7
txt
71
0
72
4
11
0.843
21
3.383
31
0
210
0
220
0
230
1
100
AcDbText
0
TEXT
5
19B
100
AcDbEntity
8
TEXT
6
ByLayer
62
256
370
-1
100
AcDbText
10
2.343
20
3.06966666667
30
0
40
0.188
1
CU-3002-A
50
0
41
1
51
0
7
txt
71
0
72
4
11
2.343
21
3.06966666667
31
0
210
0
220
0
230
1
100
AcDbText
0
TEXT
5
19C
100
AcDbEntity
8
TEXT
6
ByLayer
62
256
370
-1
100
AcDbText
10
0.843
20
3.06966666667
30
0
40
0.188
1
CU-2102-B
50
0
41
1
51
0
7
txt
71
0
72
4
11
0.843
21
3.06966666667
31
0
210
0
220
0
230
1
100
AcDbText
0
TEXT
5
19D
100
AcDbEntity
8
TEXT
6
ByLayer
62
256
370
-1
100
AcDbText
10
2.343
20
2.75633333333
30
0
40
0.188
1
CU-3003-A
50
0
41
1
51
0
7
txt
71
0
72
4
11
2.343
21
2.75633333333
31
0
210
0
220
0
230
1
100
AcDbText
0
TEXT
5
19E
100
AcDbEntity
8
TEXT
6
ByLayer
62
256
370
-1
100
AcDbText
10
0.843
20
2.75633333333
30
0
40
0.188
1
CU-2103-B
50
0
41
1
51
0
7
txt
71
0
72
4
11
0.843
21
2.75633333333
31
0
210
0
220
0
230
1
100
AcDbText
0
TEXT
5
19F
100
AcDbEntity
8
TEXT
6
ByLayer
62
256
370
-1
100
AcDbText
10
2.343
20
2.443
30
0
40
0.188
1
CU-3004-A
50
0
41
1
51
0
7
txt
71
0
72
4
11
2.343
21
2.443
31
0
210
0
220
0
230
1
100
AcDbText
0
TEXT
5
1A0
100
AcDbEntity
8
TEXT
6
ByLayer
62
256
370
-1
100
AcDbText
10
0.843
20
2.443
30
0
40
0.188
1
CU-2104-B
50
0
41
1
51
0
7
txt
71
0
72
4
11
0.843
21
2.443
31
0
210
0
220
0
230
1
100
AcDbText
0
TEXT
5
1A1
100
AcDbEntity
8
TEXT
6
ByLayer
62
256
370
-1
100
AcDbText
10
2.343
20
2.12966666667
30
0
40
0.188
1
CU-3005-A
50
0
41
1
51
0
7
txt
71
0
72
4
11
2.343
21
2.12966666667
31
0
210
0
220
0
230
1
100
AcDbText
0
TEXT
5
1A2
100
AcDbEntity
8
TEXT
6
ByLayer
62
256
370
-1
100
AcDbText
10
0.843
20
2.12966666667
30
0
40
0.188
1
CU-2105-B
50
0
41
1
51
0
7
txt
71
0
72
4
11
0.843
21
2.12966666667
31
0
210
0
220
0
230
1
100
AcDbText
0
TEXT
5
1A3
100
AcDbEntity
8
TEXT
6
ByLayer
62
256
370
-1
100
AcDbText
10
2.343
20
1.81633333333
30
0
40
0.188
1
CU-3006-A
50
0
41
1
51
0
7
txt
71
0
72
4
11
2.343
21
1.81633333333
31
0
210
0
220
0
230
1
100
AcDbText
0
TEXT
5
1A4
100
AcDbEntity
8
TEXT
6
ByLayer
62
256
370
-1
100
AcDbText
10
0.843
20
1.81633333333
30
0
40
0.188
1
CU-2106-B
50
0
41
1
51
0
7
txt
71
0
72
4
11
0.843
21
1.81633333333
31
0
210
0
220
0
230
1
100
AcDbText
0
TEXT
5
1A5
100
AcDbEntity
8
TEXT
6
ByLayer
62
256
370
-1
100
AcDbText
10
2.343
20
1.503
30
0
40
0.188
1
CU-3007-A
50
0
41
1
51
0
7
txt
71
0
72
4
11
2.343
21
1.503
31
0
210
0
220
0
230
1
100
AcDbText
0
TEXT
5
1A6
100
AcDbEntity
8
TEXT
6
ByLayer
62
256
370
-1
100
AcDbText
10
0.843
20
1.503
30
0
40
0.188
1
CU-2107-B
50
0
41
1
51
0
7
txt
71
0
72
4
11
0.843
21
1.503
31
0
210
0
220
0
230
1
100
AcDbText
0
TEXT
5
1A7
100
AcDbEntity
8
TEXT
6
ByLayer
62
256
370
-1
100
AcDbText
10
2.343
20
1.18966666667
30
0
40
0.188
1
CU-3008-A
50
0
41
1
51
0
7
txt
71
0
72
4
11
2.343
21
1.18966666667
31
0
210
0
220
0
230
1
100
AcDbText
0
TEXT
5
1A8
100
AcDbEntity
8
TEXT
6
ByLayer
62
256
370
-1
100
AcDbText
10
0.843
20
1.18966666667
30
0
40
0.188
1
CU-2108-B
50
0
41
1
51
0
7
txt
71
0
72
4
11
0.843
21
1.18966666667
31
0
210
0
220
0
230
1
100
AcDbText
0
TEXT
5
1A9
100
AcDbEntity
8
TEXT
6
ByLayer
62
256
370
-1
100
AcDbText
10
2.343
20
0.876333333333
30
0
40
0.188
1
CU-3009-A
50
0
41
1
51
0
7
txt
71
0
72
4
11
2.343
21
0.876333333333
31
0
210
0
220
0
230
1
100
AcDbText
0
TEXT
5
1AA
100
AcDbEntity
8
TEXT
6
ByLayer
62
256
370
-1
100
AcDbText
10
0.843
20
0.876333333333
30
0
40
0.188
1
CU-2109-B
50
0
41
1
51
0
7
txt
71
0
72
4
11
0.843
21
0.876333333333
31
0
210
0
220
0
230
1
100
AcDbText
0
TEXT
5
1AB
100
AcDbEntity
8
TEXT
6
ByLayer
62
256
370
-1
100
AcDbText
10
2.343
20
0.563
30
0
40
0.188
1
CU-3010-A
50
0
41
1
51
0
7
txt
71
0
72
4
11
2.343
21
0.563
31
0
210
0
220
0
230
1
100
AcDbText
0
TEXT
5
1AC
100
AcDbEntity
8
TEXT
6
ByLayer
62
256
370
-1
100
AcDbText
10
0.843
20
0.563
30
0
40
0.188
1
CU-2110-B
50
0
41
1
51
0
7
txt
71
0
72
4
11
0.843
21
0.563
31
0
210
0
220
0
230
1
100
AcDbText
0
TEXT
5
1AD
100
AcDbEntity
8
TEXT
6
ByLayer
62
256
370
-1
100
AcDbText
10
2.343
20
0.249666666667
30
0
40
0.188
1
CU-3011-A
50
0
41
1
51
0
7
txt
71
0
72
4
11
2.343
21
0.249666666667
31
0
210
0
220
0
230
1
100
AcDbText
0
TEXT
5
1AE
100
AcDbEntity
8
TEXT
6
ByLayer
62
256
370
-1
100
AcDbText
10
0.843
20
0.249666666667
30
0
40
0.188
1
CU-2111-B
50
0
41
1
51
0
7
txt
71
0
72
4
11
0.843
21
0.249666666667
31
0
210
0
220
0
230
1
100
AcDbText
0
TEXT
5
1AF
100
AcDbEntity
8
TEXT
6
ByLayer
62
256
370
-1
100
AcDbText
10
0.843
20
4.16633333333
30
0
40
0.188
1
PAINTED
50
0
41
1
51
0
7
txt
71
0
72
4
11
0.843
21
4.16633333333
31
0
210
0
220
0
230
1
100
AcDbText
0
TEXT
5
1B0
100
AcDbEntity
8
TEXT
6
ByLayer
62
256
370
-1
100
AcDbText
10
2.343
20
4.16633333333
30
0
40
0.188
1
NATURAL
50
0
41
1
51
0
7
txt
71
0
72
4
11
2.343
21
4.16633333333
31
0
210
0
220
0
230
1
100
AcDbText
0
TEXT
5
1B1
100
AcDbEntity
8
TEXT
6
ByLayer
62
256
370
-1
100
AcDbText
10
1.593
20
4.793
30
0
40
0.188
1
PART No.
50
0
41
1
51
0
7
txt
71
0
72
4
11
1.593
21
4.793
31
0
210
0
220
0
230
1
100
AcDbText
0
TEXT
5
1B2
100
AcDbEntity
8
TEXT
6
ByLayer
62
256
370
-1
100
AcDbText
10
3.67862109767
20
3.69633333333
30
0
40
0.188
1
2.750
50
0
41
1
51
0
7
txt
71
0
72
4
11
3.67862109767
21
3.69633333333
31
0
210
0
220
0
230
1
100
AcDbText
0
TEXT
5
1B3
100
AcDbEntity
8
TEXT
6
ByLayer
62
256
370
-1
100
AcDbText
10
4.88068429952
20
3.69633333333
30
0
40
0.188
1
2.125
50
0
41
1
51
0
7
txt
71
0
72
4
11
4.88068429952
21
3.69633333333
31
0
210
0
220
0
230
1
100
AcDbText
0
TEXT
5
1B4
100
AcDbEntity
8
TEXT
6
ByLayer
62
256
370
-1
100
AcDbText
10
6.06220006324
20
3.69633333333
30
0
40
0.188
1
1.625
50
0
41
1
51
0
7
txt
71
0
72
4
11
6.06220006324
21
3.69633333333
31
0
210
0
220
0
230
1
100
AcDbText
0
TEXT
5
1B5
100
AcDbEntity
8
TEXT
6
ByLayer
62
256
370
-1
100
AcDbText
10
7.28481060277
20
3.69633333333
30
0
40
0.188
1
0.594
50
0
41
1
51
0
7
txt
71
0
72
4
11
7.28481060277
21
3.69633333333
31
0
210
0
220
0
230
1
100
AcDbText
0
TEXT
5
1B6
100
AcDbEntity
8
TEXT
6
ByLayer
62
256
370
-1
100
AcDbText
10
10.8898129465
20
3.69633333333
30
0
40
0.188
1
2.031
50
0
41
1
51
0
7
txt
71
0
72
4
11
10.8898129465
21
3.69633333333
31
0
210
0
220
0
230
1
100
AcDbText
0
TEXT
5
1B7
100
AcDbEntity
8
TEXT
6
ByLayer
62
256
370
-1
100
AcDbText
10
9.65911646962
20
3.69633333333
30
0
40
0.188
1
2.656
50
0
41
1
51
0
7
txt
71
0
72
4
11
9.65911646962
21
3.69633333333
31
0
210
0
220
0
230
1
100
AcDbText
0
TEXT
5
1B8
100
AcDbEntity
8
TEXT
6
ByLayer
62
256
370
-1
100
AcDbText
10
12.0481622023
20
3.69633333333
30
0
40
0.188
1
1.562
50
0
41
1
51
0
7
txt
71
0
72
4
11
12.0481622023
21
3.69633333333
31
0
210
0
220
0
230
1
100
AcDbText
0
TEXT
5
1B9
100
AcDbEntity
8
TEXT
6
ByLayer
62
256
370
-1
100
AcDbText
10
13.2168644835
20
3.69633333333
30
0
40
0.188
1
0.968
50
0
41
1
51
0
7
txt
71
0
72
4
11
13.2168644835
21
3.69633333333
31
0
210
0
220
0
230
1
100
AcDbText
0
TEXT
5
1BA
100
AcDbEntity
8
TEXT
6
ByLayer
62
256
370
-1
100
AcDbText
10
3.67862109767
20
4.16633333333
30
0
40
0.188
1
A
50
0
41
1
51
0
7
txt
71
0
72
4
11
3.67862109767
21
4.16633333333
31
0
210
0
220
0
230
1
100
AcDbText
0
TEXT
5
1BB
100
AcDbEntity
8
TEXT
6
ByLayer
62
256
370
-1
100
AcDbText
10
4.88068429952
20
4.16633333333
30
0
40
0.188
1
B
50
0
41
1
51
0
7
txt
71
0
72
4
11
4.88068429952
21
4.16633333333
31
0
210
0
220
0
230
1
100
AcDbText
0
TEXT
5
1BC
100
AcDbEntity
8
TEXT
6
ByLayer
62
256
370
-1
100
AcDbText
10
6.06220006324
20
4.16633333333
30
0
40
0.188
1
C
50
0
41
1
51
0
7
txt
71
0
72
4
11
6.06220006324
21
4.16633333333
31
0
210
0
220
0
230
1
100
AcDbText
0
TEXT
5
1BD
100
AcDbEntity
8
TEXT
6
ByLayer
62
256
370
-1
100
AcDbText
10
7.28481060277
20
4.16633333333
30
0
40
0.188
1
D
50
0
41
1
51
0
7
txt
71
0
72
4
11
7.28481060277
21
4.16633333333
31
0
210
0
220
0
230
1
100
AcDbText
0
TEXT
5
1BE
100
AcDbEntity
8
TEXT
6
ByLayer
62
256
370
-1
100
AcDbText
10
8.48687390508
20
4.16633333333
30
0
40
0.188
1
E
50
0
41
1
51
0
7
txt
71
0
72
4
11
8.48687390508
21
4.16633333333
31
0
210
0
220
0
230
1
100
AcDbText
0
TEXT
5
1BF
100
AcDbEntity
8
TEXT
6
ByLayer
62
256
370
-1
100
AcDbText
10
9.69341294655
20
4.16633333333
30
0
40
0.188
1
F
50
0
41
1
51
0
7
txt
71
0
72
4
11
9.69341294655
21
4.16633333333
31
0
210
0
220
0
230
1
100
AcDbText
0
TEXT
5
1C0
100
AcDbEntity
8
TEXT
6
ByLayer
62
256
370
-1
100
AcDbText
10
10.8457622023
20
4.16633333333
30
0
40
0.188
1
G
50
0
41
1
51
0
7
txt
71
0
72
4
11
10.8457622023
21
4.16633333333
31
0
210
0
220
0
230
1
100
AcDbText
0
TEXT
5
1C1
100
AcDbEntity
8
TEXT
6
ByLayer
62
256
370
-1
100
AcDbText
10
12.0144644835
20
4.16633333333
30
0
40
0.188
1
H
50
0
41
1
51
0
7
txt
71
0
72
4
11
12.0144644835
21
4.16633333333
31
0
210
0
220
0
230
1
100
AcDbText
0
TEXT
5
1C2
100
AcDbEntity
8
TEXT
6
ByLayer
62
256
370
-1
100
AcDbText
10
3.67862109767
20
3.383
30
0
40
0.188
1
3.250
50
0
41
1
51
0
7
txt
71
0
72
4
11
3.67862109767
21
3.383
31
0
210
0
220
0
230
1
100
AcDbText
0
TEXT
5
1C3
100
AcDbEntity
8
TEXT
6
ByLayer
62
256
370
-1
100
AcDbText
10
3.67862109767
20
3.06966666667
30
0
40
0.188
1
4.000
50
0
41
1
51
0
7
txt
71
0
72
4
11
3.67862109767
21
3.06966666667
31
0
210
0
220
0
230
1
100
AcDbText
0
TEXT
5
1C4
100
AcDbEntity
8
TEXT
6
ByLayer
62
256
370
-1
100
AcDbText
10
3.67862109767
20
2.75633333333
30
0
40
0.188
1
4.000
50
0
41
1
51
0
7
txt
71
0
72
4
11
3.67862109767
21
2.75633333333
31
0
210
0
220
0
230
1
100
AcDbText
0
TEXT
5
1C5
100
AcDbEntity
8
TEXT
6
ByLayer
62
256
370
-1
100
AcDbText
10
3.67862109767
20
2.443
30
0
40
0.188
1
5.000
50
0
41
1
51
0
7
txt
71
0
72
4
11
3.67862109767
21
2.443
31
0
210
0
220
0
230
1
100
AcDbText
0
TEXT
5
1C6
100
AcDbEntity
8
TEXT
6
ByLayer
62
256
370
-1
100
AcDbText
10
3.67862109767
20
2.12966666667
30
0
40
0.188
1
5.000
50
0
41
1
51
0
7
txt
71
0
72
4
11
3.67862109767
21
2.12966666667
31
0
210
0
220
0
230
1
100
AcDbText
0
TEXT
5
1C7
100
AcDbEntity
8
TEXT
6
ByLayer
62
256
370
-1
100
AcDbText
10
3.67862109767
20
1.81633333333
30
0
40
0.188
1
5.250
50
0
41
1
51
0
7
txt
71
0
72
4
11
3.67862109767
21
1.81633333333
31
0
210
0
220
0
230
1
100
AcDbText
0
TEXT
5
1C8
100
AcDbEntity
8
TEXT
6
ByLayer
62
256
370
-1
100
AcDbText
10
3.67862109767
20
1.503
30
0
40
0.188
1
6.000
50
0
41
1
51
0
7
txt
71
0
72
4
11
3.67862109767
21
1.503
31
0
210
0
220
0
230
1
100
AcDbText
0
TEXT
5
1C9
100
AcDbEntity
8
TEXT
6
ByLayer
62
256
370
-1
100
AcDbText
10
3.67862109767
20
1.18966666667
30
0
40
0.188
1
7.000
50
0
41
1
51
0
7
txt
71
0
72
4
11
3.67862109767
21
1.18966666667
31
0
210
0
220
0
230
1
100
AcDbText
0
TEXT
5
1CA
100
AcDbEntity
8
TEXT
6
ByLayer
62
256
370
-1
100
AcDbText
10
3.67862109767
20
0.876333333333
30
0
40
0.188
1
8.000
50
0
41
1
51
0
7
txt
71
0
72
4
11
3.67862109767
21
0.876333333333
31
0
210
0
220
0
230
1
100
AcDbText
0
TEXT
5
1CB
100
AcDbEntity
8
TEXT
6
ByLayer
62
256
370
-1
100
AcDbText
10
3.67862109767
20
0.563
30
0
40
0.188
1
10.000
50
0
41
1
51
0
7
txt
71
0
72
4
11
3.67862109767
21
0.563
31
0
210
0
220
0
230
1
100
AcDbText
0
TEXT
5
1CC
100
AcDbEntity
8
TEXT
6
ByLayer
62
256
370
-1
100
AcDbText
10
3.67862109767
20
0.249666666667
30
0
40
0.188
1
12.000
50
0
41
1
51
0
7
txt
71
0
72
4
11
3.67862109767
21
0.249666666667
31
0
210
0
220
0
230
1
100
AcDbText
0
TEXT
5
1CD
100
AcDbEntity
8
TEXT
6
ByLayer
62
256
370
-1
100
AcDbText
10
4.88068429952
20
3.383
30
0
40
0.188
1
2.125
50
0
41
1
51
0
7
txt
71
0
72
4
11
4.88068429952
21
3.383
31
0
210
0
220
0
230
1
100
AcDbText
0
TEXT
5
1CE
100
AcDbEntity
8
TEXT
6
ByLayer
62
256
370
-1
100
AcDbText
10
6.06220006324
20
3.383
30
0
40
0.188
1
1.625
50
0
41
1
51
0
7
txt
71
0
72
4
11
6.06220006324
21
3.383
31
0
210
0
220
0
230
1
100
AcDbText
0
TEXT
5
1CF
100
AcDbEntity
8
TEXT
6
ByLayer
62
256
370
-1
100
AcDbText
10
7.28481060277
20
3.383
30
0
40
0.188
1
0.594
50
0
41
1
51
0
7
txt
71
0
72
4
11
7.28481060277
21
3.383
31
0
210
0
220
0
230
1
100
AcDbText
0
TEXT
5
1D0
100
AcDbEntity
8
TEXT
6
ByLayer
62
256
370
-1
100
AcDbText
10
10.8898129465
20
3.383
30
0
40
0.188
1
2.031
50
0
41
1
51
0
7
txt
71
0
72
4
11
10.8898129465
21
3.383
31
0
210
0
220
0
230
1
100
AcDbText
0
TEXT
5
1D1
100
AcDbEntity
8
TEXT
6
ByLayer
62
256
370
-1
100
AcDbText
10
12.0481622023
20
3.383
30
0
40
0.188
1
1.562
50
0
41
1
51
0
7
txt
71
0
72
4
11
12.0481622023
21
3.383
31
0
210
0
220
0
230
1
100
AcDbText
0
TEXT
5
1D2
100
AcDbEntity
8
TEXT
6
ByLayer
62
256
370
-1
100
AcDbText
10
13.2168644835
20
3.383
30
0
40
0.188
1
0.968
50
0
41
1
51
0
7
txt
71
0
72
4
11
13.2168644835
21
3.383
31
0
210
0
220
0
230
1
100
AcDbText
0
TEXT
5
1D3
100
AcDbEntity
8
TEXT
6
ByLayer
62
256
370
-1
100
AcDbText
10
4.88068429952
20
3.06966666667
30
0
40
0.188
1
2.125
50
0
41
1
51
0
7
txt
71
0
72
4
11
4.88068429952
21
3.06966666667
31
0
210
0
220
0
230
1
100
AcDbText
0
TEXT
5
1D4
100
AcDbEntity
8
TEXT
6
ByLayer
62
256
370
-1
100
AcDbText
10
6.06220006324
20
3.06966666667
30
0
40
0.188
1
1.625
50
0
41
1
51
0
7
txt
71
0
72
4
11
6.06220006324
21
3.06966666667
31
0
210
0
220
0
230
1
100
AcDbText
0
TEXT
5
1D5
100
AcDbEntity
8
TEXT
6
ByLayer
62
256
370
-1
100
AcDbText
10
7.28481060277
20
3.06966666667
30
0
40
0.188
1
0.594
50
0
41
1
51
0
7
txt
71
0
72
4
11
7.28481060277
21
3.06966666667
31
0
210
0
220
0
230
1
100
AcDbText
0
TEXT
5
1D6
100
AcDbEntity
8
TEXT
6
ByLayer
62
256
370
-1
100
AcDbText
10
10.8898129465
20
3.06966666667
30
0
40
0.188
1
2.031
50
0
41
1
51
0
7
txt
71
0
72
4
11
10.8898129465
21
3.06966666667
31
0
210
0
220
0
230
1
100
AcDbText
0
TEXT
5
1D7
100
AcDbEntity
8
TEXT
6
ByLayer
62
256
370
-1
100
AcDbText
10
12.0481622023
20
3.06966666667
30
0
40
0.188
1
1.562
50
0
41
1
51
0
7
txt
71
0
72
4
11
12.0481622023
21
3.06966666667
31
0
210
0
220
0
230
1
100
AcDbText
0
TEXT
5
1D8
100
AcDbEntity
8
TEXT
6
ByLayer
62
256
370
-1
100
AcDbText
10
13.2168644835
20
3.06966666667
30
0
40
0.188
1
0.968
50
0
41
1
51
0
7
txt
71
0
72
4
11
13.2168644835
21
3.06966666667
31
0
210
0
220
0
230
1
100
AcDbText
0
TEXT
5
1D9
100
AcDbEntity
8
TEXT
6
ByLayer
62
256
370
-1
100
AcDbText
10
13.2168644835
20
2.75633333333
30
0
40
0.188
1
0.968
50
0
41
1
51
0
7
txt
71
0
72
4
11
13.2168644835
21
2.75633333333
31
0
210
0
220
0
230
1
100
AcDbText
0
TEXT
5
1DA
100
AcDbEntity
8
TEXT
6
ByLayer
62
256
370
-1
100
AcDbText
10
13.2168644835
20
2.443
30
0
40
0.188
1
0.968
50
0
41
1
51
0
7
txt
71
0
72
4
11
13.2168644835
21
2.443
31
0
210
0
220
0
230
1
100
AcDbText
0
TEXT
5
1DB
100
AcDbEntity
8
TEXT
6
ByLayer
62
256
370
-1
100
AcDbText
10
13.2168644835
20
1.81633333333
30
0
40
0.188
1
0.968
50
0
41
1
51
0
7
txt
71
0
72
4
11
13.2168644835
21
1.81633333333
31
0
210
0
220
0
230
1
100
AcDbText
0
TEXT
5
1DC
100
AcDbEntity
8
TEXT
6
ByLayer
62
256
370
-1
100
AcDbText
10
13.2168644835
20
2.12966666667
30
0
40
0.188
1
2.094
50
0
41
1
51
0
7
txt
71
0
72
4
11
13.2168644835
21
2.12966666667
31
0
210
0
220
0
230
1
100
AcDbText
0
TEXT
5
1DD
100
AcDbEntity
8
TEXT
6
ByLayer
62
256
370
-1
100
AcDbText
10
13.2168644835
20
1.503
30
0
40
0.188
1
2.094
50
0
41
1
51
0
7
txt
71
0
72
4
11
13.2168644835
21
1.503
31
0
210
0
220
0
230
1
100
AcDbText
0
TEXT
5
1DE
100
AcDbEntity
8
TEXT
6
ByLayer
62
256
370
-1
100
AcDbText
10
13.2168644835
20
1.18966666667
30
0
40
0.188
1
2.094
50
0
41
1
51
0
7
txt
71
0
72
4
11
13.2168644835
21
1.18966666667
31
0
210
0
220
0
230
1
100
AcDbText
0
TEXT
5
1DF
100
AcDbEntity
8
TEXT
6
ByLayer
62
256
370
-1
100
AcDbText
10
13.2168644835
20
0.876333333333
30
0
40
0.188
1
2.094
50
0
41
1
51
0
7
txt
71
0
72
4
11
13.2168644835
21
0.876333333333
31
0
210
0
220
0
230
1
100
AcDbText
0
TEXT
5
1E0
100
AcDbEntity
8
TEXT
6
ByLayer
62
256
370
-1
100
AcDbText
10
13.2168644835
20
0.563
30
0
40
0.188
1
2.094
50
0
41
1
51
0
7
txt
71
0
72
4
11
13.2168644835
21
0.563
31
0
210
0
220
0
230
1
100
AcDbText
0
TEXT
5
1E1
100
AcDbEntity
8
TEXT
6
ByLayer
62
256
370
-1
100
AcDbText
10
13.2168644835
20
0.249666666667
30
0
40
0.188
1
2.094
50
0
41
1
51
0
7
txt
71
0
72
4
11
13.2168644835
21
0.249666666667
31
0
210
0
220
0
230
1
100
AcDbText
0
TEXT
5
1E2
100
AcDbEntity
8
TEXT
6
ByLayer
62
256
370
-1
100
AcDbText
10
4.88068429952
20
2.75633333333
30
0
40
0.188
1
2.250
50
0
41
1
51
0
7
txt
71
0
72
4
11
4.88068429952
21
2.75633333333
31
0
210
0
220
0
230
1
100
AcDbText
0
TEXT
5
1E3
100
AcDbEntity
8
TEXT
6
ByLayer
62
256
370
-1
100
AcDbText
10
4.88068429952
20
2.443
30
0
40
0.188
1
2.250
50
0
41
1
51
0
7
txt
71
0
72
4
11
4.88068429952
21
2.443
31
0
210
0
220
0
230
1
100
AcDbText
0
TEXT
5
1E4
100
AcDbEntity
8
TEXT
6
ByLayer
62
256
370
-1
100
AcDbText
10
4.88068429952
20
2.12966666667
30
0
40
0.188
1
4.000
50
0
41
1
51
0
7
txt
71
0
72
4
11
4.88068429952
21
2.12966666667
31
0
210
0
220
0
230
1
100
AcDbText
0
TEXT
5
1E5
100
AcDbEntity
8
TEXT
6
ByLayer
62
256
370
-1
100
AcDbText
10
4.88068429952
20
1.81633333333
30
0
40
0.188
1
3.000
50
0
41
1
51
0
7
txt
71
0
72
4
11
4.88068429952
21
1.81633333333
31
0
210
0
220
0
230
1
100
AcDbText
0
TEXT
5
1E6
100
AcDbEntity
8
TEXT
6
ByLayer
62
256
370
-1
100
AcDbText
10
4.88068429952
20
1.503
30
0
40
0.188
1
5.000
50
0
41
1
51
0
7
txt
71
0
72
4
11
4.88068429952
21
1.503
31
0
210
0
220
0
230
1
100
AcDbText
0
TEXT
5
1E7
100
AcDbEntity
8
TEXT
6
ByLayer
62
256
370
-1
100
AcDbText
10
4.88068429952
20
1.18966666667
30
0
40
0.188
1
5.000
50
0
41
1
51
0
7
txt
71
0
72
4
11
4.88068429952
21
1.18966666667
31
0
210
0
220
0
230
1
100
AcDbText
0
TEXT
5
1E8
100
AcDbEntity
8
TEXT
6
ByLayer
62
256
370
-1
100
AcDbText
10
4.88068429952
20
0.876333333333
30
0
40
0.188
1
6.000
50
0
41
1
51
0
7
txt
71
0
72
4
11
4.88068429952
21
0.876333333333
31
0
210
0
220
0
230
1
100
AcDbText
0
TEXT
5
1E9
100
AcDbEntity
8
TEXT
6
ByLayer
62
256
370
-1
100
AcDbText
10
4.88068429952
20
0.563
30
0
40
0.188
1
6.000
50
0
41
1
51
0
7
txt
71
0
72
4
11
4.88068429952
21
0.563
31
0
210
0
220
0
230
1
100
AcDbText
0
TEXT
5
1EA
100
AcDbEntity
8
TEXT
6
ByLayer
62
256
370
-1
100
AcDbText
10
4.88068429952
20
0.249666666667
30
0
40
0.188
1
7.000
50
0
41
1
51
0
7
txt
71
0
72
4
11
4.88068429952
21
0.249666666667
31
0
210
0
220
0
230
1
100
AcDbText
0
TEXT
5
1EB
100
AcDbEntity
8
TEXT
6
ByLayer
62
256
370
-1
100
AcDbText
10
6.06220006324
20
2.75633333333
30
0
40
0.188
1
2.250
50
0
41
1
51
0
7
txt
71
0
72
4
11
6.06220006324
21
2.75633333333
31
0
210
0
220
0
230
1
100
AcDbText
0
TEXT
5
1EC
100
AcDbEntity
8
TEXT
6
ByLayer
62
256
370
-1
100
AcDbText
10
6.06220006324
20
2.443
30
0
40
0.188
1
2.250
50
0
41
1
51
0
7
txt
71
0
72
4
11
6.06220006324
21
2.443
31
0
210
0
220
0
230
1
100
AcDbText
0
TEXT
5
1ED
100
AcDbEntity
8
TEXT
6
ByLayer
62
256
370
-1
100
AcDbText
10
6.06220006324
20
2.12966666667
30
0
40
0.188
1
3.000
50
0
41
1
51
0
7
txt
71
0
72
4
11
6.06220006324
21
2.12966666667
31
0
210
0
220
0
230
1
100
AcDbText
0
TEXT
5
1EE
100
AcDbEntity
8
TEXT
6
ByLayer
62
256
370
-1
100
AcDbText
10
6.06220006324
20
1.81633333333
30
0
40
0.188
1
2.125
50
0
41
1
51
0
7
txt
71
0
72
4
11
6.06220006324
21
1.81633333333
31
0
210
0
220
0
230
1
100
AcDbText
0
TEXT
5
1EF
100
AcDbEntity
8
TEXT
6
ByLayer
62
256
370
-1
100
AcDbText
10
6.06220006324
20
1.503
30
0
40
0.188
1
4.000
50
0
41
1
51
0
7
txt
71
0
72
4
11
6.06220006324
21
1.503
31
0
210
0
220
0
230
1
100
AcDbText
0
TEXT
5
1F0
100
AcDbEntity
8
TEXT
6
ByLayer
62
256
370
-1
100
AcDbText
10
6.06220006324
20
1.18966666667
30
0
40
0.188
1
3.000
50
0
41
1
51
0
7
txt
71
0
72
4
11
6.06220006324
21
1.18966666667
31
0
210
0
220
0
230
1
100
AcDbText
0
TEXT
5
1F1
100
AcDbEntity
8
TEXT
6
ByLayer
62
256
370
-1
100
AcDbText
10
6.06220006324
20
0.876333333333
30
0
40
0.188
1
3.500
50
0
41
1
51
0
7
txt
71
0
72
4
11
6.06220006324
21
0.876333333333
31
0
210
0
220
0
230
1
100
AcDbText
0
TEXT
5
1F2
100
AcDbEntity
8
TEXT
6
ByLayer
62
256
370
-1
100
AcDbText
10
6.06220006324
20
0.563
30
0
40
0.188
1
3.500
50
0
41
1
51
0
7
txt
71
0
72
4
11
6.06220006324
21
0.563
31
0
210
0
220
0
230
1
100
AcDbText
0
TEXT
5
1F3
100
AcDbEntity
8
TEXT
6
ByLayer
62
256
370
-1
100
AcDbText
10
6.06220006324
20
0.249666666667
30
0
40
0.188
1
4.000
50
0
41
1
51
0
7
txt
71
0
72
4
11
6.06220006324
21
0.249666666667
31
0
210
0
220
0
230
1
100
AcDbText
0
TEXT
5
1F4
100
AcDbEntity
8
TEXT
6
ByLayer
62
256
370
-1
100
AcDbText
10
7.28481060277
20
2.75633333333
30
0
40
0.188
1
1.218
50
0
41
1
51
0
7
txt
71
0
72
4
11
7.28481060277
21
2.75633333333
31
0
210
0
220
0
230
1
100
AcDbText
0
TEXT
5
1F5
100
AcDbEntity
8
TEXT
6
ByLayer
62
256
370
-1
100
AcDbText
10
7.28481060277
20
2.443
30
0
40
0.188
1
1.218
50
0
41
1
51
0
7
txt
71
0
72
4
11
7.28481060277
21
2.443
31
0
210
0
220
0
230
1
100
AcDbText
0
TEXT
5
1F6
100
AcDbEntity
8
TEXT
6
ByLayer
62
256
370
-1
100
AcDbText
10
7.28481060277
20
2.12966666667
30
0
40
0.188
1
0.844
50
0
41
1
51
0
7
txt
71
0
72
4
11
7.28481060277
21
2.12966666667
31
0
210
0
220
0
230
1
100
AcDbText
0
TEXT
5
1F7
100
AcDbEntity
8
TEXT
6
ByLayer
62
256
370
-1
100
AcDbText
10
7.28481060277
20
1.81633333333
30
0
40
0.188
1
1.094
50
0
41
1
51
0
7
txt
71
0
72
4
11
7.28481060277
21
1.81633333333
31
0
210
0
220
0
230
1
100
AcDbText
0
TEXT
5
1F8
100
AcDbEntity
8
TEXT
6
ByLayer
62
256
370
-1
100
AcDbText
10
7.28481060277
20
1.503
30
0
40
0.188
1
1.844
50
0
41
1
51
0
7
txt
71
0
72
4
11
7.28481060277
21
1.503
31
0
210
0
220
0
230
1
100
AcDbText
0
TEXT
5
1F9
100
AcDbEntity
8
TEXT
6
ByLayer
62
256
370
-1
100
AcDbText
10
7.28481060277
20
1.18966666667
30
0
40
0.188
1
0.836
50
0
41
1
51
0
7
txt
71
0
72
4
11
7.28481060277
21
1.18966666667
31
0
210
0
220
0
230
1
100
AcDbText
0
TEXT
5
1FA
100
AcDbEntity
8
TEXT
6
ByLayer
62
256
370
-1
100
AcDbText
10
7.28481060277
20
0.876333333333
30
0
40
0.188
1
1.336
50
0
41
1
51
0
7
txt
71
0
72
4
11
7.28481060277
21
0.876333333333
31
0
210
0
220
0
230
1
100
AcDbText
0
TEXT
5
1FB
100
AcDbEntity
8
TEXT
6
ByLayer
62
256
370
-1
100
AcDbText
10
7.28481060277
20
0.563
30
0
40
0.188
1
1.336
50
0
41
1
51
0
7
txt
71
0
72
4
11
7.28481060277
21
0.563
31
0
210
0
220
0
230
1
100
AcDbText
0
TEXT
5
1FC
100
AcDbEntity
8
TEXT
6
ByLayer
62
256
370
-1
100
AcDbText
10
7.28481060277
20
0.249666666667
30
0
40
0.188
1
1.836
50
0
41
1
51
0
7
txt
71
0
72
4
11
7.28481060277
21
0.249666666667
31
0
210
0
220
0
230
1
100
AcDbText
0
TEXT
5
1FD
100
AcDbEntity
8
TEXT
6
ByLayer
62
256
370
-1
100
AcDbText
10
9.65911646962
20
3.383
30
0
40
0.188
1
3.156
50
0
41
1
51
0
7
txt
71
0
72
4
11
9.65911646962
21
3.383
31
0
210
0
220
0
230
1
100
AcDbText
0
TEXT
5
1FE
100
AcDbEntity
8
TEXT
6
ByLayer
62
256
370
-1
100
AcDbText
10
9.65911646962
20
3.06966666667
30
0
40
0.188
1
3.906
50
0
41
1
51
0
7
txt
71
0
72
4
11
9.65911646962
21
3.06966666667
31
0
210
0
220
0
230
1
100
AcDbText
0
TEXT
5
1FF
100
AcDbEntity
8
TEXT
6
ByLayer
62
256
370
-1
100
AcDbText
10
9.65911646962
20
2.75633333333
30
0
40
0.188
1
3.906
50
0
41
1
51
0
7
txt
71
0
72
4
11
9.65911646962
21
2.75633333333
31
0
210
0
220
0
230
1
100
AcDbText
0
TEXT
5
200
100
AcDbEntity
8
TEXT
6
ByLayer
62
256
370
-1
100
AcDbText
10
9.65911646962
20
2.443
30
0
40
0.188
1
4.906
50
0
41
1
51
0
7
txt
71
0
72
4
11
9.65911646962
21
2.443
31
0
210
0
220
0
230
1
100
AcDbText
0
TEXT
5
201
100
AcDbEntity
8
TEXT
6
ByLayer
62
256
370
-1
100
AcDbText
10
9.65911646962
20
2.12966666667
30
0
40
0.188
1
4.906
50
0
41
1
51
0
7
txt
71
0
72
4
11
9.65911646962
21
2.12966666667
31
0
210
0
220
0
230
1
100
AcDbText
0
TEXT
5
202
100
AcDbEntity
8
TEXT
6
ByLayer
62
256
370
-1
100
AcDbText
10
9.65911646962
20
1.81633333333
30
0
40
0.188
1
5.156
50
0
41
1
51
0
7
txt
71
0
72
4
11
9.65911646962
21
1.81633333333
31
0
210
0
220
0
230
1
100
AcDbText
0
TEXT
5
203
100
AcDbEntity
8
TEXT
6
ByLayer
62
256
370
-1
100
AcDbText
10
9.65911646962
20
1.503
30
0
40
0.188
1
5.906
50
0
41
1
51
0
7
txt
71
0
72
4
11
9.65911646962
21
1.503
31
0
210
0
220
0
230
1
100
AcDbText
0
TEXT
5
204
100
AcDbEntity
8
TEXT
6
ByLayer
62
256
370
-1
100
AcDbText
10
9.65911646962
20
1.18966666667
30
0
40
0.188
1
6.875
50
0
41
1
51
0
7
txt
71
0
72
4
11
9.65911646962
21
1.18966666667
31
0
210
0
220
0
230
1
100
AcDbText
0
TEXT
5
205
100
AcDbEntity
8
TEXT
6
ByLayer
62
256
370
-1
100
AcDbText
10
9.65911646962
20
0.876333333333
30
0
40
0.188
1
7.875
50
0
41
1
51
0
7
txt
71
0
72
4
11
9.65911646962
21
0.876333333333
31
0
210
0
220
0
230
1
100
AcDbText
0
TEXT
5
206
100
AcDbEntity
8
TEXT
6
ByLayer
62
256
370
-1
100
AcDbText
10
9.65911646962
20
0.563
30
0
40
0.188
1
9.875
50
0
41
1
51
0
7
txt
71
0
72
4
11
9.65911646962
21
0.563
31
0
210
0
220
0
230
1
100
AcDbText
0
TEXT
5
207
100
AcDbEntity
8
TEXT
6
ByLayer
62
256
370
-1
100
AcDbText
10
9.65911646962
20
0.249666666667
30
0
40
0.188
1
11.875
50
0
41
1
51
0
7
txt
71
0
72
4
11
9.65911646962
21
0.249666666667
31
0
210
0
220
0
230
1
100
AcDbText
0
TEXT
5
208
100
AcDbEntity
8
TEXT
6
ByLayer
62
256
370
-1
100
AcDbText
10
12.0481622023
20
2.75633333333
30
0
40
0.188
1
2.188
50
0
41
1
51
0
7
txt
71
0
72
4
11
12.0481622023
21
2.75633333333
31
0
210
0
220
0
230
1
100
AcDbText
0
TEXT
5
209
100
AcDbEntity
8
TEXT
6
ByLayer
62
256
370
-1
100
AcDbText
10
12.0481622023
20
2.443
30
0
40
0.188
1
2.188
50
0
41
1
51
0
7
txt
71
0
72
4
11
12.0481622023
21
2.443
31
0
210
0
220
0
230
1
100
AcDbText
0
TEXT
5
20A
100
AcDbEntity
8
TEXT
6
ByLayer
62
256
370
-1
100
AcDbText
10
12.0481622023
20
2.12966666667
30
0
40
0.188
1
2.938
50
0
41
1
51
0
7
txt
71
0
72
4
11
12.0481622023
21
2.12966666667
31
0
210
0
220
0
230
1
100
AcDbText
0
TEXT
5
20B
100
AcDbEntity
8
TEXT
6
ByLayer
62
256
370
-1
100
AcDbText
10
12.0481622023
20
1.81633333333
30
0
40
0.188
1
2.062
50
0
41
1
51
0
7
txt
71
0
72
4
11
12.0481622023
21
1.81633333333
31
0
210
0
220
0
230
1
100
AcDbText
0
TEXT
5
20C
100
AcDbEntity
8
TEXT
6
ByLayer
62
256
370
-1
100
AcDbText
10
12.0481622023
20
1.503
30
0
40
0.188
1
3.938
50
0
41
1
51
0
7
txt
71
0
72
4
11
12.0481622023
21
1.503
31
0
210
0
220
0
230
1
100
AcDbText
0
TEXT
5
20D
100
AcDbEntity
8
TEXT
6
ByLayer
62
256
370
-1
100
AcDbText
10
12.0481622023
20
1.18966666667
30
0
40
0.188
1
2.929
50
0
41
1
51
0
7
txt
71
0
72
4
11
12.0481622023
21
1.18966666667
31
0
210
0
220
0
230
1
100
AcDbText
0
TEXT
5
20E
100
AcDbEntity
8
TEXT
6
ByLayer
62
256
370
-1
100
AcDbText
10
12.0481622023
20
0.876333333333
30
0
40
0.188
1
3.429
50
0
41
1
51
0
7
txt
71
0
72
4
11
12.0481622023
21
0.876333333333
31
0
210
0
220
0
230
1
100
AcDbText
0
TEXT
5
20F
100
AcDbEntity
8
TEXT
6
ByLayer
62
256
370
-1
100
AcDbText
10
12.0481622023
20
0.563
30
0
40
0.188
1
3.429
50
0
41
1
51
0
7
txt
71
0
72
4
11
12.0481622023
21
0.563
31
0
210
0
220
0
230
1
100
AcDbText
0
TEXT
5
210
100
AcDbEntity
8
TEXT
6
ByLayer
62
256
370
-1
100
AcDbText
10
12.0481622023
20
0.249666666667
30
0
40
0.188
1
3.929
50
0
41
1
51
0
7
txt
71
0
72
4
11
12.0481622023
21
0.249666666667
31
0
210
0
220
0
230
1
100
AcDbText
0
TEXT
5
211
100
AcDbEntity
8
TEXT
6
ByLayer
62
256
370
-1
100
AcDbText
10
10.8898129465
20
2.75633333333
30
0
40
0.188
1
2.156
50
0
41
1
51
0
7
txt
71
0
72
4
11
10.8898129465
21
2.75633333333
31
0
210
0
220
0
230
1
100
AcDbText
0
TEXT
5
212
100
AcDbEntity
8
TEXT
6
ByLayer
62
256
370
-1
100
AcDbText
10
10.8898129465
20
2.443
30
0
40
0.188
1
2.156
50
0
41
1
51
0
7
txt
71
0
72
4
11
10.8898129465
21
2.443
31
0
210
0
220
0
230
1
100
AcDbText
0
TEXT
5
213
100
AcDbEntity
8
TEXT
6
ByLayer
62
256
370
-1
100
AcDbText
10
10.8898129465
20
2.12966666667
30
0
40
0.188
1
3.906
50
0
41
1
51
0
7
txt
71
0
72
4
11
10.8898129465
21
2.12966666667
31
0
210
0
220
0
230
1
100
AcDbText
0
TEXT
5
214
100
AcDbEntity
8
TEXT
6
ByLayer
62
256
370
-1
100
AcDbText
10
10.8898129465
20
1.81633333333
30
0
40
0.188
1
2.906
50
0
41
1
51
0
7
txt
71
0
72
4
11
10.8898129465
21
1.81633333333
31
0
210
0
220
0
230
1
100
AcDbText
0
TEXT
5
215
100
AcDbEntity
8
TEXT
6
ByLayer
62
256
370
-1
100
AcDbText
10
10.8898129465
20
1.503
30
0
40
0.188
1
4.906
50
0
41
1
51
0
7
txt
71
0
72
4
11
10.8898129465
21
1.503
31
0
210
0
220
0
230
1
100
AcDbText
0
TEXT
5
216
100
AcDbEntity
8
TEXT
6
ByLayer
62
256
370
-1
100
AcDbText
10
10.8898129465
20
1.18966666667
30
0
40
0.188
1
4.875
50
0
41
1
51
0
7
txt
71
0
72
4
11
10.8898129465
21
1.18966666667
31
0
210
0
220
0
230
1
100
AcDbText
0
TEXT
5
217
100
AcDbEntity
8
TEXT
6
ByLayer
62
256
370
-1
100
AcDbText
10
10.8898129465
20
0.876333333333
30
0
40
0.188
1
5.875
50
0
41
1
51
0
7
txt
71
0
72
4
11
10.8898129465
21
0.876333333333
31
0
210
0
220
0
230
1
100
AcDbText
0
TEXT
5
218
100
AcDbEntity
8
TEXT
6
ByLayer
62
256
370
-1
100
AcDbText
10
10.8898129465
20
0.563
30
0
40
0.188
1
5.875
50
0
41
1
51
0
7
txt
71
0
72
4
11
10.8898129465
21
0.563
31
0
210
0
220
0
230
1
100
AcDbText
0
TEXT
5
219
100
AcDbEntity
8
TEXT
6
ByLayer
62
256
370
-1
100
AcDbText
10
10.8898129465
20
0.249666666667
30
0
40
0.188
1
6.875
50
0
41
1
51
0
7
txt
71
0
72
4
11
10.8898129465
21
0.249666666667
31
0
210
0
220
0
230
1
100
AcDbText
0
TEXT
5
21A
100
AcDbEntity
8
TEXT
6
ByLayer
62
256
370
-1
100
AcDbText
10
6.093
20
4.793
30
0
40
0.188
1
BASE
50
0
41
1
51
0
7
txt
71
0
72
4
11
6.093
21
4.793
31
0
210
0
220
0
230
1
100
AcDbText
0
TEXT
5
21B
100
AcDbEntity
8
TEXT
6
ByLayer
62
256
370
-1
100
AcDbText
10
12.093
20
4.793
30
0
40
0.188
1
COVER
50
0
41
1
51
0
7
txt
71
0
72
4
11
12.093
21
4.793
31
0
210
0
220
0
230
1
100
AcDbText
0
TEXT
5
21C
100
AcDbEntity
8
TEXT
6
ByLayer
62
256
370
-1
100
AcDbText
10
3.48928758054
20
22.8435
30
0
40
0.25
1
MINIBOX
50
0
41
1
51
0
7
txt
71
0
72
4
11
3.48928758054
21
22.8435
31
0
210
0
220
0
230
1
100
AcDbText
0
TEXT
5
21D
100
AcDbEntity
8
TEXT
6
ByLayer
62
256
370
-1
100
AcDbText
10
9.86315523626
20
22.8435
30
0
40
0.25
1
CU-2100-B  TO  CU-3011-A
50
0
41
1
51
0
7
txt
71
0
72
4
11
9.86315523626
21
22.8435
31
0
210
0
220
0
230
1
100
AcDbText
0
TEXT
5
21E
100
AcDbEntity
8
TEXT
6
ByLayer
62
256
370
-1
100
AcDbText
10
14.3458744165
20
22.8435
30
0
40
0.25
1
7-11-12
50
0
41
1
51
0
7
txt
71
0
72
4
11
14.3458744165
21
22.8435
31
0
210
0
220
0
230
1
100
AcDbText
0
LINE
5
21F
100
AcDbEntity
8
TITLE
6
ByLayer
62
256
370
-1
100
AcDbLine
10
4.2924
20
4.47966666667
11
4.2924
21
0.093
0
LINE
5
220
100
AcDbEntity
8
TITLE
6
ByLayer
62
256
370
-1
100
AcDbLine
10
5.4918
20
4.47966666667
11
5.4918
21
0.093
0
LINE
5
221
100
AcDbEntity
8
TITLE
6
ByLayer
62
256
370
-1
100
AcDbLine
10
6.6912
20
4.47966666667
11
6.6912
21
0.093
0
LINE
5
222
100
AcDbEntity
8
TITLE
6
ByLayer
62
256
370
-1
100
AcDbLine
10
7.8906
20
4.47966666667
11
7.8906
21
0.093
0
LINE
5
223
100
AcDbEntity
8
TITLE
6
ByLayer
62
256
370
-1
100
AcDbLine
10
10.2894
20
4.47966666667
11
10.2894
21
0.093
0
LINE
5
224
100
AcDbEntity
8
TITLE
6
ByLayer
62
256
370
-1
100
AcDbLine
10
11.4888
20
4.47966666667
11
11.4888
21
0.093
0
LINE
5
225
100
AcDbEntity
8
TITLE
6
ByLayer
62
256
370
-1
100
AcDbLine
10
12.6882
20
4.47966666667
11
12.6882
21
0.093
0
LINE
5
226
100
AcDbEntity
8
TITLE
6
ByLayer
62
256
370
-1
100
AcDbLine
10
13.8876
20
4.47966666667
11
13.8876
21
0.093
0
TEXT
5
227
100
AcDbEntity
8
TEXT
6
ByLayer
62
256
370
-1
100
AcDbText
10
14.4132644835
20
4.16633333333
30
0
40
0.188
1
K
50
0
41
1
51
0
7
txt
71
0
72
4
11
14.4132644835
21
4.16633333333
31
0
210
0
220
0
230
1
100
AcDbText
0
TEXT
5
228
100
AcDbEntity
8
TEXT
6
ByLayer
62
256
370
-1
100
AcDbText
10
13.2445622023
20
4.16633333333
30
0
40
0.188
1
J
50
0
41
1
51
0
7
txt
71
0
72
4
11
13.2445622023
21
4.16633333333
31
0
210
0
220
0
230
1
100
AcDbText
0
TEXT
5
229
100
AcDbEntity
8
TEXT
6
ByLayer
62
256
370
-1
100
AcDbText
10
8.48721060277
20
0.563
30
0
40
0.188
1
0.172
50
0
41
1
51
0
7
txt
71
0
72
4
11
8.48721060277
21
0.563
31
0
210
0
220
0
230
1
100
AcDbText
0
TEXT
5
22A
100
AcDbEntity
8
TEXT
6
ByLayer
62
256
370
-1
100
AcDbText
10
8.48721060277
20
0.249666666667
30
0
40
0.188
1
0.172
50
0
41
1
51
0
7
txt
71
0
72
4
11
8.48721060277
21
0.249666666667
31
0
210
0
220
0
230
1
100
AcDbText
0
TEXT
5
22B
100
AcDbEntity
8
TEXT
6
ByLayer
62
256
370
-1
100
AcDbText
10
8.48721060277
20
1.503
30
0
40
0.188
1
0.172
50
0
41
1
51
0
7
txt
71
0
72
4
11
8.48721060277
21
1.503
31
0
210
0
220
0
230
1
100
AcDbText
0
TEXT
5
22C
100
AcDbEntity
8
TEXT
6
ByLayer
62
256
370
-1
100
AcDbText
10
8.48721060277
20
1.18966666667
30
0
40
0.188
1
0.172
50
0
41
1
51
0
7
txt
71
0
72
4
11
8.48721060277
21
1.18966666667
31
0
210
0
220
0
230
1
100
AcDbText
0
TEXT
5
22D
100
AcDbEntity
8
TEXT
6
ByLayer
62
256
370
-1
100
AcDbText
10
8.48721060277
20
0.876333333333
30
0
40
0.188
1
0.156
50
0
41
1
51
0
7
txt
71
0
72
4
11
8.48721060277
21
0.876333333333
31
0
210
0
220
0
230
1
100
AcDbText
0
TEXT
5
22E
100
AcDbEntity
8
TEXT
6
ByLayer
62
256
370
-1
100
AcDbText
10
8.48721060277
20
2.443
30
0
40
0.188
1
0.172
50
0
41
1
51
0
7
txt
71
0
72
4
11
8.48721060277
21
2.443
31
0
210
0
220
0
230
1
100
AcDbText
0
TEXT
5
22F
100
AcDbEntity
8
TEXT
6
ByLayer
62
256
370
-1
100
AcDbText
10
8.48721060277
20
2.12966666667
30
0
40
0.188
1
0.172
50
0
41
1
51
0
7
txt
71
0
72
4
11
8.48721060277
21
2.12966666667
31
0
210
0
220
0
230
1
100
AcDbText
0
TEXT
5
230
100
AcDbEntity
8
TEXT
6
ByLayer
62
256
370
-1
100
AcDbText
10
8.48721060277
20
1.81633333333
30
0
40
0.188
1
0.172
50
0
41
1
51
0
7
txt
71
0
72
4
11
8.48721060277
21
1.81633333333
31
0
210
0
220
0
230
1
100
AcDbText
0
TEXT
5
231
100
AcDbEntity
8
TEXT
6
ByLayer
62
256
370
-1
100
AcDbText
10
8.48721060277
20
3.383
30
0
40
0.188
1
0.172
50
0
41
1
51
0
7
txt
71
0
72
4
11
8.48721060277
21
3.383
31
0
210
0
220
0
230
1
100
AcDbText
0
TEXT
5
232
100
AcDbEntity
8
TEXT
6
ByLayer
62
256
370
-1
100
AcDbText
10
8.48721060277
20
3.06966666667
30
0
40
0.188
1
0.172
50
0
41
1
51
0
7
txt
71
0
72
4
11
8.48721060277
21
3.06966666667
31
0
210
0
220
0
230
1
100
AcDbText
0
TEXT
5
233
100
AcDbEntity
8
TEXT
6
ByLayer
62
256
370
-1
100
AcDbText
10
8.48721060277
20
2.75633333333
30
0
40
0.188
1
0.172
50
0
41
1
51
0
7
txt
71
0
72
4
11
8.48721060277
21
2.75633333333
31
0
210
0
220
0
230
1
100
AcDbText
0
TEXT
5
234
100
AcDbEntity
8
TEXT
6
ByLayer
62
256
370
-1
100
AcDbText
10
8.48721060277
20
3.69633333333
30
0
40
0.188
1
0.172
50
0
41
1
51
0
7
txt
71
0
72
4
11
8.48721060277
21
3.69633333333
31
0
210
0
220
0
230
1
100
AcDbText
0
TEXT
5
235
100
AcDbEntity
8
TEXT
6
ByLayer
62
256
370
-1
100
AcDbText
10
14.4162644835
20
0.563
30
0
40
0.188
1
0.141
50
0
41
1
51
0
7
txt
71
0
72
4
11
14.4162644835
21
0.563
31
0
210
0
220
0
230
1
100
AcDbText
0
TEXT
5
236
100
AcDbEntity
8
TEXT
6
ByLayer
62
256
370
-1
100
AcDbText
10
14.4162644835
20
0.249666666667
30
0
40
0.188
1
0.141
50
0
41
1
51
0
7
txt
71
0
72
4
11
14.4162644835
21
0.249666666667
31
0
210
0
220
0
230
1
100
AcDbText
0
TEXT
5
237
100
AcDbEntity
8
TEXT
6
ByLayer
62
256
370
-1
100
AcDbText
10
14.4162644835
20
1.503
30
0
40
0.188
1
0.156
50
0
41
1
51
0
7
txt
71
0
72
4
11
14.4162644835
21
1.503
31
0
210
0
220
0
230
1
100
AcDbText
0
TEXT
5
238
100
AcDbEntity
8
TEXT
6
ByLayer
62
256
370
-1
100
AcDbText
10
14.4162644835
20
1.18966666667
30
0
40
0.188
1
0.141
50
0
41
1
51
0
7
txt
71
0
72
4
11
14.4162644835
21
1.18966666667
31
0
210
0
220
0
230
1
100
AcDbText
0
TEXT
5
239
100
AcDbEntity
8
TEXT
6
ByLayer
62
256
370
-1
100
AcDbText
10
14.4162644835
20
0.876333333333
30
0
40
0.188
1
0.156
50
0
41
1
51
0
7
txt
71
0
72
4
11
14.4162644835
21
0.876333333333
31
0
210
0
220
0
230
1
100
AcDbText
0
TEXT
5
23A
100
AcDbEntity
8
TEXT
6
ByLayer
62
256
370
-1
100
AcDbText
10
14.4162644835
20
2.443
30
0
40
0.188
1
0.156
50
0
41
1
51
0
7
txt
71
0
72
4
11
14.4162644835
21
2.443
31
0
210
0
220
0
230
1
100
AcDbText
0
TEXT
5
23B
100
AcDbEntity
8
TEXT
6
ByLayer
62
256
370
-1
100
AcDbText
10
14.4162644835
20
1.81633333333
30
0
40
0.188
1
0.156
50
0
41
1
51
0
7
txt
71
0
72
4
11
14.4162644835
21
1.81633333333
31
0
210
0
220
0
230
1
100
AcDbText
0
TEXT
5
23C
100
AcDbEntity
8
TEXT
6
ByLayer
62
256
370
-1
100
AcDbText
10
14.4162644835
20
2.12966666667
30
0
40
0.188
1
0.156
50
0
41
1
51
0
7
txt
71
0
72
4
11
14.4162644835
21
2.12966666667
31
0
210
0
220
0
230
1
100
AcDbText
0
TEXT
5
23D
100
AcDbEntity
8
TEXT
6
ByLayer
62
256
370
-1
100
AcDbText
10
14.4162644835
20
3.383
30
0
40
0.188
1
0.156
50
0
41
1
51
0
7
txt
71
0
72
4
11
14.4162644835
21
3.383
31
0
210
0
220
0
230
1
100
AcDbText
0
TEXT
5
23E
100
AcDbEntity
8
TEXT
6
ByLayer
62
256
370
-1
100
AcDbText
10
14.4162644835
20
3.06966666667
30
0
40
0.188
1
0.156
50
0
41
1
51
0
7
txt
71
0
72
4
11
14.4162644835
21
3.06966666667
31
0
210
0
220
0
230
1
100
AcDbText
0
TEXT
5
23F
100
AcDbEntity
8
TEXT
6
ByLayer
62
256
370
-1
100
AcDbText
10
14.4162644835
20
2.75633333333
30
0
40
0.188
1
0.156
50
0
41
1
51
0
7
txt
71
0
72
4
11
14.4162644835
21
2.75633333333
31
0
210
0
220
0
230
1
100
AcDbText
0
TEXT
5
240
100
AcDbEntity
8
TEXT
6
ByLayer
62
256
370
-1
100
AcDbText
10
14.4162644835
20
3.69633333333
30
0
40
0.188
1
0.156
50
0
41
1
51
0
7
txt
71
0
72
4
11
14.4162644835
21
3.69633333333
31
0
210
0
220
0
230
1
100
AcDbText
0
LINE
5
241
100
AcDbEntity
8
CUSTOM_CUT
6
ByLayer
62
256
370
-1
100
AcDbLine
10
-7.6675
20
10.899
11
-7.1675
21
10.899
0
LINE
5
242
100
AcDbEntity
8
CUSTOM_CUT
6
ByLayer
62
256
370
-1
100
AcDbLine
10
-7.1675
20
10.899
11
-7.1675
21
11.099
0
LINE
5
243
100
AcDbEntity
8
CUSTOM_CUT
6
ByLayer
62
256
370
-1
100
AcDbLine
10
-7.6675
20
11.099
11
-7.6675
21
10.899
0
LINE
5
244
100
AcDbEntity
8
CUSTOM_CUT
6
ByLayer
62
256
370
-1
100
AcDbLine
10
-6.4575
20
10.899
11
-5.9575
21
10.899
0
LINE
5
245
100
AcDbEntity
8
CUSTOM_CUT
6
ByLayer
62
256
370
-1
100
AcDbLine
10
-6.4575
20
11.099
11
-6.4575
21
10.899
0
LINE
5
246
100
AcDbEntity
8
CUSTOM_CUT
6
ByLayer
62
256
370
-1
100
AcDbLine
10
-5.8875
20
10.899
11
-5.3875
21
10.899
0
LINE
5
247
100
AcDbEntity
8
CUSTOM_CUT
6
ByLayer
62
256
370
-1
100
AcDbLine
10
-5.3875
20
10.899
11
-5.3875
21
11.099
0
CIRCLE
5
248
100
AcDbEntity
8
CUSTOM_CUT
6
ByLayer
62
256
370
-1
100
AcDbCircle
10
-8.5825
20
10.919
40
0.127
0
CIRCLE
5
249
100
AcDbEntity
8
CUSTOM_CUT
6
ByLayer
62
256
370
-1
100
AcDbCircle
10
-9.2475
20
10.919
40
0.127
0
CIRCLE
5
24A
100
AcDbEntity
8
CUSTOM_CUT
6
ByLayer
62
256
370
-1
100
AcDbCircle
10
-6.7875
20
10.919
40
0.127
0
LINE
5
24B
100
AcDbEntity
8
CUSTOM_CUT
6
ByLayer
62
256
370
-1
100
AcDbLine
10
-10
20
10.274
11
-4.845
21
10.274
0
LINE
5
24C
100
AcDbEntity
8
CUSTOM_CUT
6
ByLayer
62
256
370
-1
100
AcDbLine
10
-10
20
10.274
11
-10
21
12.336
0
LINE
5
24D
100
AcDbEntity
8
CUSTOM_CUT
6
ByLayer
62
256
370
-1
100
AcDbLine
10
-4.845
20
10.274
11
-4.845
21
12.336
0
LINE
5
24E
100
AcDbEntity
8
CUSTOM_CUT
6
ByLayer
62
256
370
-1
100
AcDbLine
10
-10
20
12.336
11
-4.845
21
12.336
0
LINE
5
24F
100
AcDbEntity
8
CUSTOM_CUT
6
ByLayer
62
256
370
-1
100
AcDbLine
10
-7.1675
20
11.199
11
-7.6675
21
11.199
0
LINE
5
250
100
AcDbEntity
8
CUSTOM_CUT
6
ByLayer
62
256
370
-1
100
AcDbLine
10
-5.9575
20
11.199
11
-6.4575
21
11.199
0
LINE
5
251
100
AcDbEntity
8
CUSTOM_CUT
6
ByLayer
62
256
370
-1
100
AcDbLine
10
-5.3875
20
11.199
11
-5.8875
21
11.199
0
LINE
5
252
100
AcDbEntity
8
CUSTOM_CUT
6
ByLayer
62
256
370
-1
100
AcDbLine
10
-7.6675
20
11.199
11
-7.6675
21
11.099
0
LINE
5
253
100
AcDbEntity
8
CUSTOM_CUT
6
ByLayer
62
256
370
-1
100
AcDbLine
10
-7.1675
20
11.199
11
-7.1675
21
11.099
0
LINE
5
254
100
AcDbEntity
8
CUSTOM_CUT
6
ByLayer
62
256
370
-1
100
AcDbLine
10
-6.4575
20
11.199
11
-6.4575
21
11.099
0
LINE
5
255
100
AcDbEntity
8
CUSTOM_CUT
6
ByLayer
62
256
370
-1
100
AcDbLine
10
-5.3875
20
11.199
11
-5.3875
21
11.099
0
DIMENSION
5
256
100
AcDbEntity
8
CUSTOM_DIM
6
ByLayer
62
256
370
-1
100
AcDbDimension
10
-8.66380341876
20
11.0165641025
30
0
11
-8.5825
21
10.919
31
0
70
35
71
5
3
Standard
53
0
210
0
220
0
230
1
100
AcDbDiametricDimension
15
-8.50119658124
25
10.8214358975
35
0
40
0
0
DIMENSION
5
257
100
AcDbEntity
8
CUSTOM_DIM
6
ByLayer
62
256
370
-1
100
AcDbDimension
10
-5.1
20
10.9
30
0
11
-5.1
21
11.05
31
0
70
32
71
5
3
Standard
53
0
210
0
220
0
230
1
100
AcDbAlignedDimension
13
-5.5
23
11.2
33
0
14
-5.5
24
10.9
34
0
50
90
100
AcDbRotatedDimension
0
DIMENSION
5
258
100
AcDbEntity
8
CUSTOM_DIM
6
ByLayer
62
256
370
-1
100
AcDbDimension
10
-7.1
20
10.274
30
0
11
-7.1
21
10.5865
31
0
70
32
71
5
3
Standard
53
0
210
0
220
0
230
1
100
AcDbAlignedDimension
13
-7.4175
23
10.899
33
0
14
-7.4225
24
10.274
34
0
50
90
100
AcDbRotatedDimension
0
DIMENSION
5
259
100
AcDbEntity
8
CUSTOM_DIM
6
ByLayer
62
256
370
-1
100
AcDbDimension
10
-9.02
20
10.27
30
0
11
-9.02
21
10.53
31
0
70
32
71
5
3
Standard
53
0
210
0
220
0
230
1
100
AcDbAlignedDimension
13
-9.25
23
10.79
33
0
14
-9.25
24
10.27
34
0
50
90
100
AcDbRotatedDimension
0
LINE
5
25A
100
AcDbEntity
8
CUSTOM_CUT
6
ByLayer
62
256
370
-1
100
AcDbLine
10
-10
20
6.574
11
-4.845
21
6.574
0
LINE
5
25B
100
AcDbEntity
8
CUSTOM_CUT
6
ByLayer
62
256
370
-1
100
AcDbLine
10
-5.2225
20
6.574
11
-9.5725
21
6.574
0
CIRCLE
5
25C
100
AcDbEntity
8
CUSTOM_CUT
6
ByLayer
62
256
370
-1
100
AcDbCircle
10
-9.4225
20
7.529
40
0.069
0
CIRCLE
5
25D
100
AcDbEntity
8
CUSTOM_CUT
6
ByLayer
62
256
370
-1
100
AcDbCircle
10
-9.4225
20
9.139
40
0.069
0
CIRCLE
5
25E
100
AcDbEntity
8
CUSTOM_CUT
6
ByLayer
62
256
370
-1
100
AcDbCircle
10
-5.4625
20
7.529
40
0.069
0
CIRCLE
5
25F
100
AcDbEntity
8
CUSTOM_CUT
6
ByLayer
62
256
370
-1
100
AcDbCircle
10
-5.4625
20
9.139
40
0.069
0
LINE
5
260
100
AcDbEntity
8
CUSTOM_CUT
6
ByLayer
62
256
370
-1
100
AcDbLine
10
-10
20
9.4
11
-4.845
21
9.4
0
LINE
5
261
100
AcDbEntity
8
CUSTOM_CUT
6
ByLayer
62
256
370
-1
100
AcDbLine
10
-10
20
9.4
11
-10
21
6.574
0
LINE
5
262
100
AcDbEntity
8
CUSTOM_CUT
6
ByLayer
62
256
370
-1
100
AcDbLine
10
-4.845
20
9.4
11
-4.845
21
6.574
0
DIMENSION
5
263
100
AcDbEntity
8
CUSTOM_DIM
6
ByLayer
62
256
370
-1
100
AcDbDimension
10
-9.46812109163
20
9.19076597336
30
0
11
-9.4225
21
9.139
31
0
70
35
71
5
3
Standard
53
0
210
0
220
0
230
1
100
AcDbDiametricDimension
15
-9.37687890837
25
9.08723402664
35
0
40
0
0
MTEXT
5
264
100
AcDbEntity
8
CUSTOM_NOTES
6
ByLayer
62
256
370
-1
100
AcDbMText
10
-10
20
6.5
30
0
40
0.1
41
5.06111131683
71
1
72
1
1
The side of the box with holes cutout of the faceplate is on this edge.
7

210
0
220
0
230
1
50
0
73
2
44
1
0
DIMENSION
5
265
100
AcDbEntity
8
CUSTOM_DIM
6
ByLayer
62
256
370
-1
100
AcDbDimension
10
-5.4625
20
8
30
0
11
-7.4425
21
8
31
0
70
32
71
5
3
Standard
53
0
210
0
220
0
230
1
100
AcDbAlignedDimension
13
-9.4225
23
7.529
33
0
14
-5.4625
24
7.529
34
0
100
AcDbRotatedDimension
0
DIMENSION
5
266
100
AcDbEntity
8
CUSTOM_DIM
6
ByLayer
62
256
370
-1
100
AcDbDimension
10
-4
20
7.529
30
0
11
-4
21
8.334
31
0
70
32
71
5
3
Standard
53
0
210
0
220
0
230
1
100
AcDbAlignedDimension
13
-5.4625
23
9.139
33
0
14
-5.4625
24
7.529
34
0
50
90
100
AcDbRotatedDimension
0
DIMENSION
5
267
100
AcDbEntity
8
CUSTOM_DIM
6
ByLayer
62
256
370
-1
100
AcDbDimension
10
-9
20
7.529
30
0
11
-9
21
7.0495
31
0
70
32
71
5
3
Standard
53
0
210
0
220
0
230
1
100
AcDbAlignedDimension
13
-9.42
23
6.57
33
0
14
-9.4225
24
7.529
34
0
50
90
100
AcDbRotatedDimension
0
LINE
5
268
100
AcDbEntity
8
CUSTOM_CUT
6
ByLayer
62
256
370
-1
100
AcDbLine
10
-5.9575
20
11.199
11
-5.8875
21
11.199
0
LINE
5
269
100
AcDbEntity
8
CUSTOM_CUT
6
ByLayer
62
256
370
-1
100
AcDbLine
10
-5.9575
20
10.899
11
-5.8875
21
10.899
0
DIMENSION
5
26A
100
AcDbEntity
8
CUSTOM_DIM
6
ByLayer
62
256
370
-1
100
AcDbDimension
10
-5.3875
20
12
30
0
11
-5.9225
21
12
31
0
70
32
71
5
3
Standard
53
0
210
0
220
0
230
1
100
AcDbAlignedDimension
13
-6.4575
23
11.199
33
0
14
-5.3875
24
11.199
34
0
100
AcDbRotatedDimension
0
DIMENSION
5
26B
100
AcDbEntity
8
CUSTOM_DIM
6
ByLayer
62
256
370
-1
100
AcDbDimension
10
-7.1675
20
11.8
30
0
11
-7.4175
21
11.8
31
0
70
32
71
5
3
Standard
53
0
210
0
220
0
230
1
100
AcDbAlignedDimension
13
-7.6675
23
11.199
33
0
14
-7.1675
24
11.199
34
0
100
AcDbRotatedDimension
0
DIMENSION
5
26C
100
AcDbEntity
8
CUSTOM_DIM
6
ByLayer
62
256
370
-1
100
AcDbDimension
10
-9.2475
20
12.6
30
0
11
-8.915
21
12.6
31
0
70
32
71
5
3
Standard
53
0
210
0
220
0
230
1
100
AcDbAlignedDimension
13
-8.5825
23
10.919
33
0
14
-9.2475
24
10.919
34
0
100
AcDbRotatedDimension
0
DIMENSION
5
26D
100
AcDbEntity
8
CUSTOM_DIM
6
ByLayer
62
256
370
-1
100
AcDbDimension
10
-7.6675
20
13.2
30
0
11
-8.125
21
13.2
31
0
70
32
71
5
3
Standard
53
0
210
0
220
0
230
1
100
AcDbAlignedDimension
13
-8.5825
23
10.919
33
0
14
-7.6675
24
10.999
34
0
100
AcDbRotatedDimension
0
DIMENSION
5
26E
100
AcDbEntity
8
CUSTOM_DIM
6
ByLayer
62
256
370
-1
100
AcDbDimension
10
-6.7875
20
13.1
30
0
11
-6.9775
21
13.1
31
0
70
32
71
5
3
Standard
53
0
210
0
220
0
230
1
100
AcDbAlignedDimension
13
-7.1675
23
11.199
33
0
14
-6.7875
24
10.919
34
0
100
AcDbRotatedDimension
0
DIMENSION
5
26F
100
AcDbEntity
8
CUSTOM_DIM
6
ByLayer
62
256
370
-1
100
AcDbDimension
10
-6.4575
20
12.7
30
0
11
-6.6225
21
12.7
31
0
70
32
71
5
3
Standard
53
0
210
0
220
0
230
1
100
AcDbAlignedDimension
13
-6.7875
23
10.919
33
0
14
-6.4575
24
10.999
34
0
100
AcDbRotatedDimension
0
ENDSEC
0
SECTION
2
OBJECTS
0
DICTIONARY
5
C
330
0
100
AcDbDictionary
281
1
3
ACAD_GROUP
350
D
0
DICTIONARY
5
D
330
C
100
AcDbDictionary
281
1
0
ENDSEC
0
EOF
