G04 #@! TF.FileFunction,Copper,L2,Bot,Signal*
%FSLAX45Y45*%
G04 Gerber Fmt 4.5, Leading zero omitted, Abs format (unit mm)*
G04 Created by KiCad (PCBNEW 4.0.4-1.fc24-product) date Wed Oct 18 11:24:51 2017*
%MOMM*%
%LPD*%
G01*
G04 APERTURE LIST*
%ADD10C,0.150000*%
%ADD11R,1.397000X1.397000*%
%ADD12C,1.397000*%
%ADD13O,2.499360X1.501140*%
%ADD14C,1.600000*%
%ADD15C,1.143000*%
%ADD16R,1.727200X2.032000*%
%ADD17O,1.727200X2.032000*%
%ADD18R,2.032000X1.727200*%
%ADD19O,2.032000X1.727200*%
%ADD20C,0.889000*%
%ADD21C,0.400000*%
%ADD22C,1.000000*%
%ADD23C,0.300000*%
G04 APERTURE END LIST*
D10*
D11*
X8534400Y-6451600D03*
D12*
X8280400Y-6451600D03*
X8026400Y-6451600D03*
X7772400Y-6451600D03*
X7518400Y-6451600D03*
X7264400Y-6451600D03*
X7010400Y-6451600D03*
X6756400Y-6451600D03*
X6502400Y-6451600D03*
X6248400Y-6451600D03*
D13*
X10020300Y-8255000D03*
X10020300Y-8509000D03*
X10020300Y-8001000D03*
D14*
X6505300Y-5917000D03*
X6505300Y-5663000D03*
X6759300Y-5917000D03*
X6759300Y-5663000D03*
X7013300Y-5917000D03*
X7013300Y-5663000D03*
X7267300Y-5917000D03*
X7267300Y-5663000D03*
X7521300Y-5917000D03*
X7521300Y-5663000D03*
X7775300Y-5917000D03*
X7775300Y-5663000D03*
X8029300Y-5917000D03*
X8029300Y-5663000D03*
X8283300Y-5917000D03*
X8283300Y-5663000D03*
D15*
X6019800Y-9042400D03*
D16*
X6959600Y-10541000D03*
D17*
X7213600Y-10541000D03*
X7467600Y-10541000D03*
D16*
X6680200Y-7467600D03*
D17*
X6426200Y-7467600D03*
X6172200Y-7467600D03*
D18*
X5194300Y-9017000D03*
D19*
X5194300Y-9271000D03*
X5194300Y-9525000D03*
D18*
X3924300Y-9017000D03*
D19*
X3924300Y-9271000D03*
X3924300Y-9525000D03*
D18*
X9855200Y-10210800D03*
D19*
X9855200Y-9956800D03*
X9855200Y-9702800D03*
D18*
X9855200Y-6858000D03*
D19*
X9855200Y-6604000D03*
X9855200Y-6350000D03*
D18*
X5194300Y-7747000D03*
D19*
X5194300Y-8001000D03*
X5194300Y-8255000D03*
D18*
X3924300Y-7747000D03*
D19*
X3924300Y-8001000D03*
X3924300Y-8255000D03*
D16*
X5702300Y-10541000D03*
D17*
X5956300Y-10541000D03*
X6210300Y-10541000D03*
D18*
X5194300Y-6477000D03*
D19*
X5194300Y-6731000D03*
X5194300Y-6985000D03*
D18*
X3924300Y-6477000D03*
D19*
X3924300Y-6731000D03*
X3924300Y-6985000D03*
D16*
X8242300Y-10541000D03*
D17*
X8496300Y-10541000D03*
X8750300Y-10541000D03*
D16*
X4432300Y-10541000D03*
D17*
X4686300Y-10541000D03*
X4940300Y-10541000D03*
D16*
X9588500Y-5697220D03*
D17*
X9334500Y-5697220D03*
X9080500Y-5697220D03*
D20*
X5298440Y-6202680D03*
X4556760Y-7900670D03*
X4671060Y-6626860D03*
X7576820Y-7185660D03*
X7203440Y-7096760D03*
X5631180Y-5488940D03*
X5607460Y-9709920D03*
X7917180Y-7830820D03*
X6022340Y-8582660D03*
X4277360Y-7239000D03*
X6070600Y-5486400D03*
X8382000Y-8890000D03*
X8839200Y-6756400D03*
X6146800Y-9271000D03*
X8496300Y-8509000D03*
X7581900Y-7023100D03*
X7734300Y-7556500D03*
X7226300Y-8242300D03*
X6794500Y-9271000D03*
X6540500Y-9271000D03*
X7391400Y-8407400D03*
X7747000Y-8128000D03*
X8001000Y-8559800D03*
X9093200Y-7594600D03*
X7035800Y-9271000D03*
X6959600Y-9042400D03*
X7594600Y-7543800D03*
X8763000Y-7289800D03*
X8229600Y-8280400D03*
X8204200Y-7391400D03*
X8204200Y-9829800D03*
X8382000Y-9626600D03*
X4673600Y-7569200D03*
X6375400Y-9220200D03*
X6375400Y-8636000D03*
X6680200Y-8051800D03*
X7188200Y-9017000D03*
X7797800Y-9042400D03*
X8102600Y-8788400D03*
X8102600Y-9093200D03*
X6007100Y-8102600D03*
X7747000Y-7747000D03*
X4559300Y-8826500D03*
X4559300Y-9334500D03*
X5511800Y-6985000D03*
X5511800Y-7747000D03*
X5511800Y-9017000D03*
X6172200Y-7696200D03*
X8153400Y-7696200D03*
X5976620Y-6868160D03*
X6040120Y-6393180D03*
X7899400Y-8432800D03*
X7213600Y-8382000D03*
X7416800Y-7035800D03*
X7061200Y-7315200D03*
X5603240Y-9225280D03*
X6019800Y-9728200D03*
X5715000Y-7493000D03*
X5816600Y-6705600D03*
X5461000Y-6096000D03*
X7188200Y-9906000D03*
X7188200Y-9601200D03*
X6654800Y-9169400D03*
X6654800Y-10083800D03*
X9245600Y-9906000D03*
X9398000Y-9550400D03*
X9499600Y-8686800D03*
X9499600Y-8229600D03*
D21*
X6375400Y-9220200D02*
X6375400Y-8636000D01*
X6502400Y-8636000D02*
X6375400Y-8636000D01*
X6680200Y-8458200D02*
X6680200Y-8051800D01*
X6502400Y-8636000D02*
X6680200Y-8458200D01*
X7188200Y-9017000D02*
X7467600Y-9017000D01*
X7467600Y-9017000D02*
X7493000Y-8991600D01*
X7493000Y-8991600D02*
X7747000Y-8991600D01*
X7747000Y-8991600D02*
X7797800Y-9042400D01*
X8102600Y-8788400D02*
X8102600Y-9093200D01*
X6007100Y-7932420D02*
X6007100Y-8102600D01*
X6116320Y-7823200D02*
X6007100Y-7932420D01*
X6172200Y-7823200D02*
X6116320Y-7823200D01*
X6172200Y-7823200D02*
X6731000Y-7823200D01*
X6731000Y-7823200D02*
X7670800Y-7823200D01*
X7670800Y-7823200D02*
X7747000Y-7747000D01*
D22*
X4559300Y-9334500D02*
X4559300Y-8826500D01*
X5511800Y-6985000D02*
X5511800Y-7747000D01*
X5511800Y-7747000D02*
X5511800Y-9017000D01*
D21*
X6172200Y-7696200D02*
X6197600Y-7721600D01*
X7391400Y-7721600D02*
X7416800Y-7721600D01*
X6197600Y-7721600D02*
X7391400Y-7721600D01*
X7594600Y-7721600D02*
X7391400Y-7721600D01*
X7670800Y-7645400D02*
X7594600Y-7721600D01*
X7696200Y-7645400D02*
X7670800Y-7645400D01*
X7696200Y-7645400D02*
X8102600Y-7645400D01*
X8102600Y-7645400D02*
X8153400Y-7696200D01*
X6040120Y-6804660D02*
X5976620Y-6868160D01*
X6040120Y-6456042D02*
X6040120Y-6804660D01*
X6040120Y-6393180D02*
X6040120Y-6456042D01*
X7899400Y-8432800D02*
X7747000Y-8280400D01*
X7747000Y-8280400D02*
X7340600Y-8280400D01*
X7340600Y-8280400D02*
X7239000Y-8382000D01*
X7239000Y-8382000D02*
X7213600Y-8382000D01*
X7518400Y-6451600D02*
X7518400Y-5918200D01*
X7416800Y-7035800D02*
X7518400Y-6934200D01*
X7518400Y-6934200D02*
X7518400Y-6451600D01*
X7264400Y-5918200D02*
X7264400Y-6451600D01*
X7239000Y-6477000D02*
X7264400Y-6451600D01*
X7061200Y-7315200D02*
X7061200Y-6832600D01*
X7061200Y-6832600D02*
X7239000Y-6654800D01*
X7239000Y-6654800D02*
X7239000Y-6477000D01*
X6756400Y-6451600D02*
X6756400Y-5918200D01*
X5715000Y-9423400D02*
X5715000Y-9212580D01*
X5715000Y-9212580D02*
X5715000Y-8991600D01*
X5603240Y-9225280D02*
X5666102Y-9225280D01*
X5678802Y-9212580D02*
X5715000Y-9212580D01*
X5666102Y-9225280D02*
X5678802Y-9212580D01*
X6019800Y-9728200D02*
X5715000Y-9423400D01*
X5715000Y-8483600D02*
X5715000Y-8991600D01*
X5715000Y-7493000D02*
X5715000Y-8483600D01*
X5816600Y-6604000D02*
X5816600Y-6705600D01*
X5461000Y-6248400D02*
X5816600Y-6604000D01*
X5461000Y-6096000D02*
X5461000Y-6248400D01*
X7772400Y-6451600D02*
X7772400Y-5918200D01*
X7010400Y-5918200D02*
X7010400Y-6451600D01*
X8280400Y-5918200D02*
X8280400Y-6451600D01*
X7188200Y-9906000D02*
X7188200Y-9601200D01*
X6654800Y-9169400D02*
X6654800Y-10083800D01*
X9245600Y-9702800D02*
X9245600Y-9906000D01*
X9398000Y-9550400D02*
X9245600Y-9702800D01*
X9499600Y-8229600D02*
X9499600Y-8686800D01*
X6502400Y-5918200D02*
X6502400Y-6451600D01*
X8026400Y-5918200D02*
X8026400Y-6451600D01*
D23*
G36*
X10478300Y-11189500D02*
X3339300Y-11189500D01*
X3339300Y-10902070D01*
X3450256Y-10902070D01*
X3483679Y-10982961D01*
X3545514Y-11044903D01*
X3626346Y-11078468D01*
X3713870Y-11078544D01*
X3794761Y-11045121D01*
X3856703Y-10983286D01*
X3890268Y-10902454D01*
X3890268Y-10902070D01*
X9927256Y-10902070D01*
X9960679Y-10982961D01*
X10022514Y-11044903D01*
X10103346Y-11078468D01*
X10190870Y-11078544D01*
X10271761Y-11045121D01*
X10333703Y-10983286D01*
X10367268Y-10902454D01*
X10367344Y-10814930D01*
X10333921Y-10734039D01*
X10272086Y-10672097D01*
X10191254Y-10638532D01*
X10103730Y-10638456D01*
X10022839Y-10671879D01*
X9960897Y-10733714D01*
X9927332Y-10814546D01*
X9927256Y-10902070D01*
X3890268Y-10902070D01*
X3890344Y-10814930D01*
X3856921Y-10734039D01*
X3795086Y-10672097D01*
X3714254Y-10638532D01*
X3626730Y-10638456D01*
X3545839Y-10671879D01*
X3483897Y-10733714D01*
X3450332Y-10814546D01*
X3450256Y-10902070D01*
X3339300Y-10902070D01*
X3339300Y-10522888D01*
X4554940Y-10522888D01*
X4554940Y-10559112D01*
X4564939Y-10609381D01*
X4593415Y-10651998D01*
X4636031Y-10680473D01*
X4686300Y-10690472D01*
X4736569Y-10680473D01*
X4779186Y-10651998D01*
X4807661Y-10609381D01*
X4817660Y-10559112D01*
X4817660Y-10522888D01*
X5824940Y-10522888D01*
X5824940Y-10559112D01*
X5834939Y-10609381D01*
X5863414Y-10651998D01*
X5906031Y-10680473D01*
X5956300Y-10690472D01*
X6006569Y-10680473D01*
X6049185Y-10651998D01*
X6077661Y-10609381D01*
X6083300Y-10581031D01*
X6088939Y-10609381D01*
X6117414Y-10651998D01*
X6160031Y-10680473D01*
X6210300Y-10690472D01*
X6260569Y-10680473D01*
X6303185Y-10651998D01*
X6331661Y-10609381D01*
X6341660Y-10559112D01*
X6341660Y-10522888D01*
X6331661Y-10472619D01*
X6309465Y-10439400D01*
X6827358Y-10439400D01*
X6827358Y-10642600D01*
X6830496Y-10659276D01*
X6840352Y-10674592D01*
X6855389Y-10684867D01*
X6873240Y-10688482D01*
X7045960Y-10688482D01*
X7062636Y-10685344D01*
X7077952Y-10675488D01*
X7088227Y-10660451D01*
X7091842Y-10642600D01*
X7091842Y-10522888D01*
X7336240Y-10522888D01*
X7336240Y-10559112D01*
X7346239Y-10609381D01*
X7374714Y-10651998D01*
X7417331Y-10680473D01*
X7467600Y-10690472D01*
X7517869Y-10680473D01*
X7560485Y-10651998D01*
X7588961Y-10609381D01*
X7598960Y-10559112D01*
X7598960Y-10522888D01*
X7588961Y-10472619D01*
X7566765Y-10439400D01*
X8110058Y-10439400D01*
X8110058Y-10642600D01*
X8113196Y-10659276D01*
X8123052Y-10674592D01*
X8138089Y-10684867D01*
X8155940Y-10688482D01*
X8328660Y-10688482D01*
X8345336Y-10685344D01*
X8360652Y-10675488D01*
X8370927Y-10660451D01*
X8374542Y-10642600D01*
X8374542Y-10607383D01*
X8374939Y-10609381D01*
X8403415Y-10651998D01*
X8446031Y-10680473D01*
X8496300Y-10690472D01*
X8546569Y-10680473D01*
X8589186Y-10651998D01*
X8617661Y-10609381D01*
X8623300Y-10581031D01*
X8628939Y-10609381D01*
X8657415Y-10651998D01*
X8700031Y-10680473D01*
X8750300Y-10690472D01*
X8800569Y-10680473D01*
X8843186Y-10651998D01*
X8871661Y-10609381D01*
X8881660Y-10559112D01*
X8881660Y-10522888D01*
X8871661Y-10472619D01*
X8843186Y-10430002D01*
X8800569Y-10401527D01*
X8750300Y-10391528D01*
X8700031Y-10401527D01*
X8657415Y-10430002D01*
X8628939Y-10472619D01*
X8623300Y-10500969D01*
X8617661Y-10472619D01*
X8589186Y-10430002D01*
X8546569Y-10401527D01*
X8496300Y-10391528D01*
X8446031Y-10401527D01*
X8403415Y-10430002D01*
X8374939Y-10472619D01*
X8374542Y-10474618D01*
X8374542Y-10439400D01*
X8371404Y-10422724D01*
X8361548Y-10407408D01*
X8346510Y-10397133D01*
X8328660Y-10393518D01*
X8155940Y-10393518D01*
X8139264Y-10396656D01*
X8123948Y-10406512D01*
X8113673Y-10421550D01*
X8110058Y-10439400D01*
X7566765Y-10439400D01*
X7560485Y-10430002D01*
X7517869Y-10401527D01*
X7467600Y-10391528D01*
X7417331Y-10401527D01*
X7374714Y-10430002D01*
X7346239Y-10472619D01*
X7336240Y-10522888D01*
X7091842Y-10522888D01*
X7091842Y-10439400D01*
X7088704Y-10422724D01*
X7078848Y-10407408D01*
X7063810Y-10397133D01*
X7045960Y-10393518D01*
X6873240Y-10393518D01*
X6856564Y-10396656D01*
X6841248Y-10406512D01*
X6830973Y-10421550D01*
X6827358Y-10439400D01*
X6309465Y-10439400D01*
X6303185Y-10430002D01*
X6260569Y-10401527D01*
X6210300Y-10391528D01*
X6160031Y-10401527D01*
X6117414Y-10430002D01*
X6088939Y-10472619D01*
X6083300Y-10500969D01*
X6077661Y-10472619D01*
X6049185Y-10430002D01*
X6006569Y-10401527D01*
X5956300Y-10391528D01*
X5906031Y-10401527D01*
X5863414Y-10430002D01*
X5834939Y-10472619D01*
X5824940Y-10522888D01*
X4817660Y-10522888D01*
X4807661Y-10472619D01*
X4779186Y-10430002D01*
X4736569Y-10401527D01*
X4686300Y-10391528D01*
X4636031Y-10401527D01*
X4593415Y-10430002D01*
X4564939Y-10472619D01*
X4554940Y-10522888D01*
X3339300Y-10522888D01*
X3339300Y-9525000D01*
X3774828Y-9525000D01*
X3784827Y-9575269D01*
X3813302Y-9617886D01*
X3855919Y-9646361D01*
X3906188Y-9656360D01*
X3942412Y-9656360D01*
X3992681Y-9646361D01*
X4035298Y-9617886D01*
X4063773Y-9575269D01*
X4073772Y-9525000D01*
X5044828Y-9525000D01*
X5054827Y-9575269D01*
X5083302Y-9617886D01*
X5125919Y-9646361D01*
X5176188Y-9656360D01*
X5212412Y-9656360D01*
X5262681Y-9646361D01*
X5305298Y-9617886D01*
X5333773Y-9575269D01*
X5343772Y-9525000D01*
X5333773Y-9474731D01*
X5305298Y-9432115D01*
X5262681Y-9403639D01*
X5212412Y-9393640D01*
X5176188Y-9393640D01*
X5125919Y-9403639D01*
X5083302Y-9432115D01*
X5054827Y-9474731D01*
X5044828Y-9525000D01*
X4073772Y-9525000D01*
X4063773Y-9474731D01*
X4035298Y-9432115D01*
X3992681Y-9403639D01*
X3942412Y-9393640D01*
X3906188Y-9393640D01*
X3855919Y-9403639D01*
X3813302Y-9432115D01*
X3784827Y-9474731D01*
X3774828Y-9525000D01*
X3339300Y-9525000D01*
X3339300Y-8930640D01*
X3776818Y-8930640D01*
X3776818Y-9103360D01*
X3779956Y-9120036D01*
X3789812Y-9135352D01*
X3804849Y-9145627D01*
X3822700Y-9149242D01*
X4025900Y-9149242D01*
X4042576Y-9146104D01*
X4057892Y-9136248D01*
X4068167Y-9121211D01*
X4071782Y-9103360D01*
X4071782Y-8930640D01*
X4068644Y-8913964D01*
X4058788Y-8898648D01*
X4043750Y-8888373D01*
X4025900Y-8884758D01*
X3822700Y-8884758D01*
X3806024Y-8887896D01*
X3790708Y-8897752D01*
X3780433Y-8912790D01*
X3776818Y-8930640D01*
X3339300Y-8930640D01*
X3339300Y-8826500D01*
X4464300Y-8826500D01*
X4464300Y-9334500D01*
X4471531Y-9370855D01*
X4492125Y-9401675D01*
X4522945Y-9422269D01*
X4559300Y-9429500D01*
X4595655Y-9422269D01*
X4626475Y-9401675D01*
X4647069Y-9370855D01*
X4654300Y-9334500D01*
X4654300Y-9242995D01*
X5513775Y-9242995D01*
X5527364Y-9275883D01*
X5552505Y-9301068D01*
X5585369Y-9314714D01*
X5620955Y-9314746D01*
X5650000Y-9302744D01*
X5650000Y-9423400D01*
X5654127Y-9444148D01*
X5654948Y-9448275D01*
X5669038Y-9469362D01*
X5930348Y-9730672D01*
X5930334Y-9745915D01*
X5943924Y-9778803D01*
X5969064Y-9803988D01*
X6001929Y-9817634D01*
X6037515Y-9817666D01*
X6070403Y-9804076D01*
X6095588Y-9778936D01*
X6109234Y-9746071D01*
X6109265Y-9710485D01*
X6095676Y-9677597D01*
X6070535Y-9652412D01*
X6037671Y-9638766D01*
X6022276Y-9638752D01*
X5780000Y-9396476D01*
X5780000Y-9062630D01*
X5917632Y-9062630D01*
X5933151Y-9100188D01*
X5961861Y-9128948D01*
X5999392Y-9144532D01*
X6040030Y-9144568D01*
X6077588Y-9129049D01*
X6106348Y-9100339D01*
X6121932Y-9062808D01*
X6121968Y-9022170D01*
X6106449Y-8984612D01*
X6077739Y-8955852D01*
X6040208Y-8940268D01*
X5999570Y-8940232D01*
X5962012Y-8955751D01*
X5933252Y-8984461D01*
X5917668Y-9021992D01*
X5917632Y-9062630D01*
X5780000Y-9062630D01*
X5780000Y-8653715D01*
X6285934Y-8653715D01*
X6299524Y-8686603D01*
X6310400Y-8697498D01*
X6310400Y-9158696D01*
X6299612Y-9169465D01*
X6285966Y-9202329D01*
X6285934Y-9237915D01*
X6299524Y-9270803D01*
X6324664Y-9295988D01*
X6357529Y-9309634D01*
X6393115Y-9309666D01*
X6426003Y-9296076D01*
X6451188Y-9270936D01*
X6464834Y-9238071D01*
X6464865Y-9202485D01*
X6458514Y-9187115D01*
X6565334Y-9187115D01*
X6578924Y-9220003D01*
X6589800Y-9230898D01*
X6589800Y-10022296D01*
X6579012Y-10033065D01*
X6565366Y-10065929D01*
X6565334Y-10101515D01*
X6578924Y-10134403D01*
X6604064Y-10159588D01*
X6636929Y-10173234D01*
X6672515Y-10173266D01*
X6705403Y-10159676D01*
X6730588Y-10134536D01*
X6734780Y-10124440D01*
X9707718Y-10124440D01*
X9707718Y-10297160D01*
X9710856Y-10313836D01*
X9720712Y-10329152D01*
X9735750Y-10339427D01*
X9753600Y-10343042D01*
X9956800Y-10343042D01*
X9973476Y-10339904D01*
X9988792Y-10330048D01*
X9999067Y-10315011D01*
X10002682Y-10297160D01*
X10002682Y-10124440D01*
X9999544Y-10107764D01*
X9989688Y-10092448D01*
X9974651Y-10082173D01*
X9956800Y-10078558D01*
X9753600Y-10078558D01*
X9736924Y-10081696D01*
X9721608Y-10091552D01*
X9711333Y-10106590D01*
X9707718Y-10124440D01*
X6734780Y-10124440D01*
X6744234Y-10101671D01*
X6744265Y-10066085D01*
X6730676Y-10033197D01*
X6719800Y-10022302D01*
X6719800Y-9618915D01*
X7098734Y-9618915D01*
X7112324Y-9651803D01*
X7123200Y-9662698D01*
X7123200Y-9844496D01*
X7112412Y-9855265D01*
X7098766Y-9888129D01*
X7098734Y-9923715D01*
X7112324Y-9956603D01*
X7137464Y-9981788D01*
X7170329Y-9995434D01*
X7205915Y-9995466D01*
X7238803Y-9981876D01*
X7263988Y-9956736D01*
X7277634Y-9923871D01*
X7277634Y-9923715D01*
X9156135Y-9923715D01*
X9169724Y-9956603D01*
X9194865Y-9981788D01*
X9227729Y-9995434D01*
X9263315Y-9995466D01*
X9296203Y-9981876D01*
X9321388Y-9956736D01*
X9335034Y-9923871D01*
X9335066Y-9888285D01*
X9321476Y-9855397D01*
X9310600Y-9844502D01*
X9310600Y-9729724D01*
X9337524Y-9702800D01*
X9705728Y-9702800D01*
X9715727Y-9753069D01*
X9744202Y-9795686D01*
X9786819Y-9824161D01*
X9837088Y-9834160D01*
X9873312Y-9834160D01*
X9923581Y-9824161D01*
X9966198Y-9795686D01*
X9994673Y-9753069D01*
X10004672Y-9702800D01*
X9994673Y-9652531D01*
X9966198Y-9609915D01*
X9923581Y-9581439D01*
X9873312Y-9571440D01*
X9837088Y-9571440D01*
X9786819Y-9581439D01*
X9744202Y-9609915D01*
X9715727Y-9652531D01*
X9705728Y-9702800D01*
X9337524Y-9702800D01*
X9400472Y-9639852D01*
X9415715Y-9639866D01*
X9448603Y-9626276D01*
X9473788Y-9601136D01*
X9487434Y-9568271D01*
X9487466Y-9532685D01*
X9473876Y-9499797D01*
X9448736Y-9474612D01*
X9415871Y-9460966D01*
X9380285Y-9460935D01*
X9347397Y-9474524D01*
X9322212Y-9499665D01*
X9308566Y-9532529D01*
X9308552Y-9547924D01*
X9199638Y-9656838D01*
X9185548Y-9677926D01*
X9185548Y-9677926D01*
X9180600Y-9702800D01*
X9180600Y-9844496D01*
X9169812Y-9855265D01*
X9156166Y-9888129D01*
X9156135Y-9923715D01*
X7277634Y-9923715D01*
X7277665Y-9888285D01*
X7264076Y-9855397D01*
X7253200Y-9844502D01*
X7253200Y-9662705D01*
X7263988Y-9651936D01*
X7277634Y-9619071D01*
X7277665Y-9583485D01*
X7264076Y-9550597D01*
X7238935Y-9525412D01*
X7206071Y-9511766D01*
X7170485Y-9511735D01*
X7137597Y-9525324D01*
X7112412Y-9550465D01*
X7098766Y-9583329D01*
X7098734Y-9618915D01*
X6719800Y-9618915D01*
X6719800Y-9230905D01*
X6730588Y-9220136D01*
X6744234Y-9187271D01*
X6744265Y-9151685D01*
X6730676Y-9118797D01*
X6705535Y-9093612D01*
X6672671Y-9079966D01*
X6637085Y-9079935D01*
X6604197Y-9093524D01*
X6579012Y-9118665D01*
X6565366Y-9151529D01*
X6565334Y-9187115D01*
X6458514Y-9187115D01*
X6451276Y-9169597D01*
X6440400Y-9158702D01*
X6440400Y-9034715D01*
X7098734Y-9034715D01*
X7112324Y-9067603D01*
X7137464Y-9092788D01*
X7170329Y-9106434D01*
X7205915Y-9106466D01*
X7238803Y-9092876D01*
X7249698Y-9082000D01*
X7467600Y-9082000D01*
X7488348Y-9077873D01*
X7492474Y-9077052D01*
X7513562Y-9062962D01*
X7519924Y-9056600D01*
X7708338Y-9056600D01*
X7708334Y-9060115D01*
X7721924Y-9093003D01*
X7747064Y-9118188D01*
X7779929Y-9131834D01*
X7815515Y-9131866D01*
X7848403Y-9118276D01*
X7873588Y-9093136D01*
X7887234Y-9060271D01*
X7887265Y-9024685D01*
X7873676Y-8991797D01*
X7848535Y-8966612D01*
X7815671Y-8952966D01*
X7800276Y-8952952D01*
X7792962Y-8945638D01*
X7771874Y-8931548D01*
X7767748Y-8930727D01*
X7747000Y-8926600D01*
X7493000Y-8926600D01*
X7472252Y-8930727D01*
X7468125Y-8931548D01*
X7447038Y-8945638D01*
X7440676Y-8952000D01*
X7249704Y-8952000D01*
X7238935Y-8941212D01*
X7206071Y-8927566D01*
X7170485Y-8927535D01*
X7137597Y-8941124D01*
X7112412Y-8966265D01*
X7098766Y-8999129D01*
X7098734Y-9034715D01*
X6440400Y-9034715D01*
X6440400Y-8806115D01*
X8013134Y-8806115D01*
X8026724Y-8839003D01*
X8037600Y-8849898D01*
X8037600Y-9031696D01*
X8026812Y-9042465D01*
X8013166Y-9075329D01*
X8013134Y-9110915D01*
X8026724Y-9143803D01*
X8051864Y-9168988D01*
X8084729Y-9182634D01*
X8120315Y-9182666D01*
X8153203Y-9169076D01*
X8178388Y-9143936D01*
X8192034Y-9111071D01*
X8192065Y-9075485D01*
X8178476Y-9042597D01*
X8167600Y-9031702D01*
X8167600Y-8849905D01*
X8178388Y-8839136D01*
X8192034Y-8806271D01*
X8192065Y-8770685D01*
X8178476Y-8737797D01*
X8153335Y-8712612D01*
X8120471Y-8698966D01*
X8084885Y-8698935D01*
X8051997Y-8712524D01*
X8026812Y-8737665D01*
X8013166Y-8770529D01*
X8013134Y-8806115D01*
X6440400Y-8806115D01*
X6440400Y-8701000D01*
X6502400Y-8701000D01*
X6523148Y-8696873D01*
X6527274Y-8696052D01*
X6548362Y-8681962D01*
X6726162Y-8504162D01*
X6740252Y-8483074D01*
X6745200Y-8458200D01*
X6745200Y-8399715D01*
X7124134Y-8399715D01*
X7137724Y-8432603D01*
X7162864Y-8457788D01*
X7195729Y-8471434D01*
X7231315Y-8471466D01*
X7264203Y-8457876D01*
X7289388Y-8432736D01*
X7295920Y-8417004D01*
X7367524Y-8345400D01*
X7720076Y-8345400D01*
X7809948Y-8435272D01*
X7809934Y-8450515D01*
X7823524Y-8483403D01*
X7848664Y-8508588D01*
X7881529Y-8522234D01*
X7917115Y-8522266D01*
X7950003Y-8508676D01*
X7975188Y-8483536D01*
X7988834Y-8450671D01*
X7988865Y-8415085D01*
X7975276Y-8382197D01*
X7950135Y-8357012D01*
X7917271Y-8343366D01*
X7901876Y-8343352D01*
X7805838Y-8247315D01*
X9410135Y-8247315D01*
X9423724Y-8280203D01*
X9434600Y-8291098D01*
X9434600Y-8625296D01*
X9423812Y-8636065D01*
X9410166Y-8668929D01*
X9410135Y-8704515D01*
X9423724Y-8737403D01*
X9448865Y-8762588D01*
X9481729Y-8776234D01*
X9517315Y-8776266D01*
X9550203Y-8762676D01*
X9575388Y-8737536D01*
X9589034Y-8704671D01*
X9589066Y-8669085D01*
X9575476Y-8636197D01*
X9564600Y-8625302D01*
X9564600Y-8509000D01*
X9847002Y-8509000D01*
X9856141Y-8554944D01*
X9882166Y-8593893D01*
X9921115Y-8619918D01*
X9967059Y-8629057D01*
X10073541Y-8629057D01*
X10119485Y-8619918D01*
X10158434Y-8593893D01*
X10184459Y-8554944D01*
X10193598Y-8509000D01*
X10184459Y-8463056D01*
X10158434Y-8424107D01*
X10119485Y-8398082D01*
X10073541Y-8388943D01*
X9967059Y-8388943D01*
X9921115Y-8398082D01*
X9882166Y-8424107D01*
X9856141Y-8463056D01*
X9847002Y-8509000D01*
X9564600Y-8509000D01*
X9564600Y-8291104D01*
X9575388Y-8280335D01*
X9589034Y-8247471D01*
X9589066Y-8211885D01*
X9575476Y-8178997D01*
X9550336Y-8153812D01*
X9517471Y-8140166D01*
X9481885Y-8140134D01*
X9448997Y-8153724D01*
X9423812Y-8178864D01*
X9410166Y-8211729D01*
X9410135Y-8247315D01*
X7805838Y-8247315D01*
X7792962Y-8234438D01*
X7771874Y-8220348D01*
X7767748Y-8219527D01*
X7747000Y-8215400D01*
X7340600Y-8215400D01*
X7319852Y-8219527D01*
X7315725Y-8220348D01*
X7294638Y-8234438D01*
X7235032Y-8294044D01*
X7231471Y-8292566D01*
X7195885Y-8292534D01*
X7162997Y-8306124D01*
X7137812Y-8331264D01*
X7124166Y-8364129D01*
X7124134Y-8399715D01*
X6745200Y-8399715D01*
X6745200Y-8113304D01*
X6755988Y-8102535D01*
X6769634Y-8069671D01*
X6769665Y-8034085D01*
X6756076Y-8001197D01*
X6755880Y-8001000D01*
X9847002Y-8001000D01*
X9856141Y-8046944D01*
X9882166Y-8085893D01*
X9921115Y-8111918D01*
X9967059Y-8121057D01*
X10073541Y-8121057D01*
X10119485Y-8111918D01*
X10158434Y-8085893D01*
X10184459Y-8046944D01*
X10193598Y-8001000D01*
X10184459Y-7955056D01*
X10158434Y-7916107D01*
X10119485Y-7890082D01*
X10073541Y-7880943D01*
X9967059Y-7880943D01*
X9921115Y-7890082D01*
X9882166Y-7916107D01*
X9856141Y-7955056D01*
X9847002Y-8001000D01*
X6755880Y-8001000D01*
X6730935Y-7976012D01*
X6698071Y-7962366D01*
X6662485Y-7962334D01*
X6629597Y-7975924D01*
X6604412Y-8001064D01*
X6590766Y-8033929D01*
X6590734Y-8069515D01*
X6604324Y-8102403D01*
X6615200Y-8113298D01*
X6615200Y-8431276D01*
X6475476Y-8571000D01*
X6436904Y-8571000D01*
X6426135Y-8560212D01*
X6393271Y-8546566D01*
X6357685Y-8546535D01*
X6324797Y-8560124D01*
X6299612Y-8585265D01*
X6285966Y-8618129D01*
X6285934Y-8653715D01*
X5780000Y-8653715D01*
X5780000Y-8120315D01*
X5917634Y-8120315D01*
X5931224Y-8153203D01*
X5956364Y-8178388D01*
X5989229Y-8192034D01*
X6024815Y-8192065D01*
X6057703Y-8178476D01*
X6082888Y-8153335D01*
X6096534Y-8120471D01*
X6096565Y-8084885D01*
X6082976Y-8051997D01*
X6072100Y-8041102D01*
X6072100Y-7959344D01*
X6143244Y-7888200D01*
X7670800Y-7888200D01*
X7691548Y-7884073D01*
X7695674Y-7883252D01*
X7716762Y-7869162D01*
X7749472Y-7836452D01*
X7764715Y-7836465D01*
X7797603Y-7822876D01*
X7822788Y-7797735D01*
X7836434Y-7764871D01*
X7836465Y-7729285D01*
X7828662Y-7710400D01*
X8063938Y-7710400D01*
X8063934Y-7713915D01*
X8077524Y-7746803D01*
X8102664Y-7771988D01*
X8135529Y-7785634D01*
X8171115Y-7785665D01*
X8204003Y-7772076D01*
X8229188Y-7746935D01*
X8242834Y-7714071D01*
X8242865Y-7678485D01*
X8229276Y-7645597D01*
X8204135Y-7620412D01*
X8171271Y-7606766D01*
X8155876Y-7606752D01*
X8148562Y-7599438D01*
X8127474Y-7585348D01*
X8123348Y-7584527D01*
X8102600Y-7580400D01*
X7670800Y-7580400D01*
X7645926Y-7585348D01*
X7624838Y-7599438D01*
X7567676Y-7656600D01*
X6252623Y-7656600D01*
X6248076Y-7645597D01*
X6222935Y-7620412D01*
X6201064Y-7611331D01*
X6222469Y-7607073D01*
X6265085Y-7578598D01*
X6293561Y-7535981D01*
X6299200Y-7507631D01*
X6304839Y-7535981D01*
X6333314Y-7578598D01*
X6375931Y-7607073D01*
X6426200Y-7617072D01*
X6476469Y-7607073D01*
X6519085Y-7578598D01*
X6547561Y-7535981D01*
X6547958Y-7533982D01*
X6547958Y-7569200D01*
X6551096Y-7585876D01*
X6560952Y-7601192D01*
X6575989Y-7611467D01*
X6593840Y-7615082D01*
X6766560Y-7615082D01*
X6783236Y-7611944D01*
X6798552Y-7602088D01*
X6808827Y-7587050D01*
X6812442Y-7569200D01*
X6812442Y-7366000D01*
X6809304Y-7349324D01*
X6799448Y-7334008D01*
X6797848Y-7332915D01*
X6971734Y-7332915D01*
X6985324Y-7365803D01*
X7010464Y-7390988D01*
X7043329Y-7404634D01*
X7078915Y-7404665D01*
X7111803Y-7391076D01*
X7136988Y-7365935D01*
X7150634Y-7333071D01*
X7150665Y-7297485D01*
X7137076Y-7264597D01*
X7126200Y-7253702D01*
X7126200Y-7053515D01*
X7327334Y-7053515D01*
X7340924Y-7086403D01*
X7366064Y-7111588D01*
X7398929Y-7125234D01*
X7434515Y-7125265D01*
X7467403Y-7111676D01*
X7492588Y-7086535D01*
X7506234Y-7053671D01*
X7506248Y-7038276D01*
X7564362Y-6980162D01*
X7578452Y-6959074D01*
X7580986Y-6946334D01*
X7583400Y-6934200D01*
X7583400Y-6771640D01*
X9707718Y-6771640D01*
X9707718Y-6944360D01*
X9710856Y-6961036D01*
X9720712Y-6976352D01*
X9735750Y-6986627D01*
X9753600Y-6990242D01*
X9956800Y-6990242D01*
X9973476Y-6987104D01*
X9988792Y-6977248D01*
X9999067Y-6962210D01*
X10002682Y-6944360D01*
X10002682Y-6771640D01*
X9999544Y-6754964D01*
X9989688Y-6739648D01*
X9974651Y-6729373D01*
X9956800Y-6725758D01*
X9753600Y-6725758D01*
X9736924Y-6728896D01*
X9721608Y-6738752D01*
X9711333Y-6753789D01*
X9707718Y-6771640D01*
X7583400Y-6771640D01*
X7583400Y-6548994D01*
X7615708Y-6516742D01*
X7633230Y-6474545D01*
X7633270Y-6428855D01*
X7615822Y-6386628D01*
X7583542Y-6354292D01*
X7583400Y-6354233D01*
X7583400Y-6026591D01*
X7592014Y-6023032D01*
X7627208Y-5987899D01*
X7646278Y-5941973D01*
X7646278Y-5941755D01*
X7650278Y-5941755D01*
X7669268Y-5987714D01*
X7704401Y-6022908D01*
X7707400Y-6024153D01*
X7707400Y-6354206D01*
X7675092Y-6386458D01*
X7657570Y-6428655D01*
X7657530Y-6474345D01*
X7674978Y-6516572D01*
X7707258Y-6548908D01*
X7749455Y-6566430D01*
X7795145Y-6566470D01*
X7837372Y-6549022D01*
X7869708Y-6516742D01*
X7887230Y-6474545D01*
X7887270Y-6428855D01*
X7869822Y-6386628D01*
X7837542Y-6354292D01*
X7837400Y-6354233D01*
X7837400Y-6026591D01*
X7846014Y-6023032D01*
X7881208Y-5987899D01*
X7900278Y-5941973D01*
X7900278Y-5941755D01*
X7904278Y-5941755D01*
X7923268Y-5987714D01*
X7958401Y-6022908D01*
X7961400Y-6024153D01*
X7961400Y-6354206D01*
X7929092Y-6386458D01*
X7911570Y-6428655D01*
X7911530Y-6474345D01*
X7928978Y-6516572D01*
X7961258Y-6548908D01*
X8003455Y-6566430D01*
X8049145Y-6566470D01*
X8091372Y-6549022D01*
X8123708Y-6516742D01*
X8141230Y-6474545D01*
X8141270Y-6428855D01*
X8123822Y-6386628D01*
X8091542Y-6354292D01*
X8091400Y-6354233D01*
X8091400Y-6026591D01*
X8100014Y-6023032D01*
X8135208Y-5987899D01*
X8154278Y-5941973D01*
X8154278Y-5941755D01*
X8158278Y-5941755D01*
X8177268Y-5987714D01*
X8212401Y-6022908D01*
X8215400Y-6024153D01*
X8215400Y-6354206D01*
X8183092Y-6386458D01*
X8165570Y-6428655D01*
X8165530Y-6474345D01*
X8182978Y-6516572D01*
X8215258Y-6548908D01*
X8257455Y-6566430D01*
X8303145Y-6566470D01*
X8345372Y-6549022D01*
X8377708Y-6516742D01*
X8395230Y-6474545D01*
X8395270Y-6428855D01*
X8377822Y-6386628D01*
X8345542Y-6354292D01*
X8345400Y-6354233D01*
X8345400Y-6350000D01*
X9705728Y-6350000D01*
X9715727Y-6400269D01*
X9744202Y-6442885D01*
X9786819Y-6471361D01*
X9837088Y-6481360D01*
X9873312Y-6481360D01*
X9923581Y-6471361D01*
X9966198Y-6442885D01*
X9994673Y-6400269D01*
X10004672Y-6350000D01*
X9994673Y-6299731D01*
X9966198Y-6257114D01*
X9923581Y-6228639D01*
X9873312Y-6218640D01*
X9837088Y-6218640D01*
X9786819Y-6228639D01*
X9744202Y-6257114D01*
X9715727Y-6299731D01*
X9705728Y-6350000D01*
X8345400Y-6350000D01*
X8345400Y-6026591D01*
X8354014Y-6023032D01*
X8389208Y-5987899D01*
X8408278Y-5941973D01*
X8408322Y-5892245D01*
X8389332Y-5846286D01*
X8354199Y-5811092D01*
X8308273Y-5792022D01*
X8258545Y-5791978D01*
X8212586Y-5810968D01*
X8177392Y-5846101D01*
X8158322Y-5892027D01*
X8158278Y-5941755D01*
X8154278Y-5941755D01*
X8154322Y-5892245D01*
X8135332Y-5846286D01*
X8100199Y-5811092D01*
X8054273Y-5792022D01*
X8004545Y-5791978D01*
X7958586Y-5810968D01*
X7923392Y-5846101D01*
X7904322Y-5892027D01*
X7904278Y-5941755D01*
X7900278Y-5941755D01*
X7900322Y-5892245D01*
X7881332Y-5846286D01*
X7846199Y-5811092D01*
X7800273Y-5792022D01*
X7750545Y-5791978D01*
X7704586Y-5810968D01*
X7669392Y-5846101D01*
X7650322Y-5892027D01*
X7650278Y-5941755D01*
X7646278Y-5941755D01*
X7646322Y-5892245D01*
X7627332Y-5846286D01*
X7592199Y-5811092D01*
X7546273Y-5792022D01*
X7496545Y-5791978D01*
X7450586Y-5810968D01*
X7415392Y-5846101D01*
X7396322Y-5892027D01*
X7396278Y-5941755D01*
X7415268Y-5987714D01*
X7450401Y-6022908D01*
X7453400Y-6024153D01*
X7453400Y-6354206D01*
X7421092Y-6386458D01*
X7403570Y-6428655D01*
X7403530Y-6474345D01*
X7420978Y-6516572D01*
X7453258Y-6548908D01*
X7453400Y-6548967D01*
X7453400Y-6907276D01*
X7414328Y-6946348D01*
X7399085Y-6946334D01*
X7366197Y-6959924D01*
X7341012Y-6985064D01*
X7327366Y-7017929D01*
X7327334Y-7053515D01*
X7126200Y-7053515D01*
X7126200Y-6859524D01*
X7284962Y-6700762D01*
X7299052Y-6679674D01*
X7304000Y-6654800D01*
X7304000Y-6559505D01*
X7329372Y-6549022D01*
X7361708Y-6516742D01*
X7379230Y-6474545D01*
X7379270Y-6428855D01*
X7361822Y-6386628D01*
X7329542Y-6354292D01*
X7329400Y-6354233D01*
X7329400Y-6026591D01*
X7338014Y-6023032D01*
X7373208Y-5987899D01*
X7392278Y-5941973D01*
X7392322Y-5892245D01*
X7373332Y-5846286D01*
X7338199Y-5811092D01*
X7292273Y-5792022D01*
X7242545Y-5791978D01*
X7196586Y-5810968D01*
X7161392Y-5846101D01*
X7142322Y-5892027D01*
X7142278Y-5941755D01*
X7161268Y-5987714D01*
X7196401Y-6022908D01*
X7199400Y-6024153D01*
X7199400Y-6354206D01*
X7167092Y-6386458D01*
X7149570Y-6428655D01*
X7149530Y-6474345D01*
X7166978Y-6516572D01*
X7174000Y-6523606D01*
X7174000Y-6627876D01*
X7015238Y-6786638D01*
X7001148Y-6807725D01*
X7001148Y-6807726D01*
X6996200Y-6832600D01*
X6996200Y-7253695D01*
X6985412Y-7264464D01*
X6971766Y-7297329D01*
X6971734Y-7332915D01*
X6797848Y-7332915D01*
X6784410Y-7323733D01*
X6766560Y-7320118D01*
X6593840Y-7320118D01*
X6577164Y-7323256D01*
X6561848Y-7333112D01*
X6551573Y-7348149D01*
X6547958Y-7366000D01*
X6547958Y-7401217D01*
X6547561Y-7399219D01*
X6519085Y-7356602D01*
X6476469Y-7328127D01*
X6426200Y-7318128D01*
X6375931Y-7328127D01*
X6333314Y-7356602D01*
X6304839Y-7399219D01*
X6299200Y-7427569D01*
X6293561Y-7399219D01*
X6265085Y-7356602D01*
X6222469Y-7328127D01*
X6172200Y-7318128D01*
X6121931Y-7328127D01*
X6079314Y-7356602D01*
X6050839Y-7399219D01*
X6040840Y-7449488D01*
X6040840Y-7485712D01*
X6050839Y-7535981D01*
X6079314Y-7578598D01*
X6121931Y-7607073D01*
X6143353Y-7611334D01*
X6121597Y-7620324D01*
X6096412Y-7645464D01*
X6082766Y-7678329D01*
X6082734Y-7713915D01*
X6096324Y-7746803D01*
X6109129Y-7759630D01*
X6095572Y-7762327D01*
X6091445Y-7763148D01*
X6070358Y-7777238D01*
X5961138Y-7886458D01*
X5947048Y-7907545D01*
X5947048Y-7907546D01*
X5942100Y-7932420D01*
X5942100Y-8041095D01*
X5931312Y-8051864D01*
X5917666Y-8084729D01*
X5917634Y-8120315D01*
X5780000Y-8120315D01*
X5780000Y-7554504D01*
X5790788Y-7543735D01*
X5804434Y-7510871D01*
X5804465Y-7475285D01*
X5790876Y-7442397D01*
X5765735Y-7417212D01*
X5732871Y-7403566D01*
X5697285Y-7403534D01*
X5664397Y-7417124D01*
X5639212Y-7442264D01*
X5625566Y-7475129D01*
X5625534Y-7510715D01*
X5639124Y-7543603D01*
X5650000Y-7554498D01*
X5650000Y-9147841D01*
X5621111Y-9135846D01*
X5585525Y-9135815D01*
X5552637Y-9149404D01*
X5527452Y-9174545D01*
X5513806Y-9207409D01*
X5513775Y-9242995D01*
X4654300Y-9242995D01*
X4654300Y-8930640D01*
X5046818Y-8930640D01*
X5046818Y-9103360D01*
X5049956Y-9120036D01*
X5059812Y-9135352D01*
X5074850Y-9145627D01*
X5092700Y-9149242D01*
X5295900Y-9149242D01*
X5312576Y-9146104D01*
X5327892Y-9136248D01*
X5338167Y-9121211D01*
X5341782Y-9103360D01*
X5341782Y-8930640D01*
X5338644Y-8913964D01*
X5328788Y-8898648D01*
X5313751Y-8888373D01*
X5295900Y-8884758D01*
X5092700Y-8884758D01*
X5076024Y-8887896D01*
X5060708Y-8897752D01*
X5050433Y-8912790D01*
X5046818Y-8930640D01*
X4654300Y-8930640D01*
X4654300Y-8826500D01*
X4647069Y-8790145D01*
X4626475Y-8759325D01*
X4595655Y-8738731D01*
X4559300Y-8731500D01*
X4522945Y-8738731D01*
X4492125Y-8759325D01*
X4471531Y-8790145D01*
X4464300Y-8826500D01*
X3339300Y-8826500D01*
X3339300Y-8255000D01*
X3774828Y-8255000D01*
X3784827Y-8305269D01*
X3813302Y-8347885D01*
X3855919Y-8376361D01*
X3906188Y-8386360D01*
X3942412Y-8386360D01*
X3992681Y-8376361D01*
X4035298Y-8347885D01*
X4063773Y-8305269D01*
X4073772Y-8255000D01*
X5044828Y-8255000D01*
X5054827Y-8305269D01*
X5083302Y-8347885D01*
X5125919Y-8376361D01*
X5176188Y-8386360D01*
X5212412Y-8386360D01*
X5262681Y-8376361D01*
X5305298Y-8347885D01*
X5333773Y-8305269D01*
X5343772Y-8255000D01*
X5333773Y-8204731D01*
X5305298Y-8162114D01*
X5262681Y-8133639D01*
X5212412Y-8123640D01*
X5176188Y-8123640D01*
X5125919Y-8133639D01*
X5083302Y-8162114D01*
X5054827Y-8204731D01*
X5044828Y-8255000D01*
X4073772Y-8255000D01*
X4063773Y-8204731D01*
X4035298Y-8162114D01*
X3992681Y-8133639D01*
X3942412Y-8123640D01*
X3906188Y-8123640D01*
X3855919Y-8133639D01*
X3813302Y-8162114D01*
X3784827Y-8204731D01*
X3774828Y-8255000D01*
X3339300Y-8255000D01*
X3339300Y-7660640D01*
X3776818Y-7660640D01*
X3776818Y-7833360D01*
X3779956Y-7850036D01*
X3789812Y-7865352D01*
X3804849Y-7875627D01*
X3822700Y-7879242D01*
X4025900Y-7879242D01*
X4042576Y-7876104D01*
X4057892Y-7866248D01*
X4068167Y-7851210D01*
X4071782Y-7833360D01*
X4071782Y-7660640D01*
X5046818Y-7660640D01*
X5046818Y-7833360D01*
X5049956Y-7850036D01*
X5059812Y-7865352D01*
X5074850Y-7875627D01*
X5092700Y-7879242D01*
X5295900Y-7879242D01*
X5312576Y-7876104D01*
X5327892Y-7866248D01*
X5338167Y-7851210D01*
X5341782Y-7833360D01*
X5341782Y-7660640D01*
X5338644Y-7643964D01*
X5328788Y-7628648D01*
X5313751Y-7618373D01*
X5295900Y-7614758D01*
X5092700Y-7614758D01*
X5076024Y-7617896D01*
X5060708Y-7627752D01*
X5050433Y-7642789D01*
X5046818Y-7660640D01*
X4071782Y-7660640D01*
X4068644Y-7643964D01*
X4058788Y-7628648D01*
X4043750Y-7618373D01*
X4025900Y-7614758D01*
X3822700Y-7614758D01*
X3806024Y-7617896D01*
X3790708Y-7627752D01*
X3780433Y-7642789D01*
X3776818Y-7660640D01*
X3339300Y-7660640D01*
X3339300Y-6985000D01*
X3774828Y-6985000D01*
X3784827Y-7035269D01*
X3813302Y-7077885D01*
X3855919Y-7106361D01*
X3906188Y-7116360D01*
X3942412Y-7116360D01*
X3992681Y-7106361D01*
X4035298Y-7077885D01*
X4063773Y-7035269D01*
X4073772Y-6985000D01*
X5044828Y-6985000D01*
X5054827Y-7035269D01*
X5083302Y-7077885D01*
X5125919Y-7106361D01*
X5176188Y-7116360D01*
X5212412Y-7116360D01*
X5262681Y-7106361D01*
X5305298Y-7077885D01*
X5333773Y-7035269D01*
X5343772Y-6985000D01*
X5416800Y-6985000D01*
X5416800Y-9017000D01*
X5424031Y-9053355D01*
X5444625Y-9084175D01*
X5475445Y-9104769D01*
X5511800Y-9112000D01*
X5548155Y-9104769D01*
X5578975Y-9084175D01*
X5599569Y-9053355D01*
X5606800Y-9017000D01*
X5606800Y-6985000D01*
X5599569Y-6948645D01*
X5578975Y-6917825D01*
X5548155Y-6897231D01*
X5511800Y-6890000D01*
X5475445Y-6897231D01*
X5444625Y-6917825D01*
X5424031Y-6948645D01*
X5416800Y-6985000D01*
X5343772Y-6985000D01*
X5333773Y-6934731D01*
X5305298Y-6892114D01*
X5295959Y-6885875D01*
X5887154Y-6885875D01*
X5900744Y-6918763D01*
X5925884Y-6943948D01*
X5958749Y-6957594D01*
X5994335Y-6957625D01*
X6027223Y-6944036D01*
X6052408Y-6918895D01*
X6066054Y-6886031D01*
X6066068Y-6870636D01*
X6086082Y-6850622D01*
X6100172Y-6829534D01*
X6105120Y-6804660D01*
X6105120Y-6454684D01*
X6115908Y-6443915D01*
X6129554Y-6411051D01*
X6129585Y-6375465D01*
X6115996Y-6342577D01*
X6090855Y-6317392D01*
X6057991Y-6303746D01*
X6022405Y-6303714D01*
X5989517Y-6317304D01*
X5964332Y-6342444D01*
X5950686Y-6375309D01*
X5950654Y-6410895D01*
X5964244Y-6443783D01*
X5975120Y-6454678D01*
X5975120Y-6777736D01*
X5974148Y-6778708D01*
X5958905Y-6778694D01*
X5926017Y-6792284D01*
X5900832Y-6817424D01*
X5887186Y-6850289D01*
X5887154Y-6885875D01*
X5295959Y-6885875D01*
X5262681Y-6863639D01*
X5212412Y-6853640D01*
X5176188Y-6853640D01*
X5125919Y-6863639D01*
X5083302Y-6892114D01*
X5054827Y-6934731D01*
X5044828Y-6985000D01*
X4073772Y-6985000D01*
X4063773Y-6934731D01*
X4035298Y-6892114D01*
X3992681Y-6863639D01*
X3942412Y-6853640D01*
X3906188Y-6853640D01*
X3855919Y-6863639D01*
X3813302Y-6892114D01*
X3784827Y-6934731D01*
X3774828Y-6985000D01*
X3339300Y-6985000D01*
X3339300Y-6390640D01*
X3776818Y-6390640D01*
X3776818Y-6563360D01*
X3779956Y-6580036D01*
X3789812Y-6595352D01*
X3804849Y-6605627D01*
X3822700Y-6609242D01*
X4025900Y-6609242D01*
X4042576Y-6606104D01*
X4057892Y-6596248D01*
X4068167Y-6581210D01*
X4071782Y-6563360D01*
X4071782Y-6390640D01*
X5046818Y-6390640D01*
X5046818Y-6563360D01*
X5049956Y-6580036D01*
X5059812Y-6595352D01*
X5074850Y-6605627D01*
X5092700Y-6609242D01*
X5295900Y-6609242D01*
X5312576Y-6606104D01*
X5327892Y-6596248D01*
X5338167Y-6581210D01*
X5341782Y-6563360D01*
X5341782Y-6390640D01*
X5338644Y-6373964D01*
X5328788Y-6358648D01*
X5313751Y-6348373D01*
X5295900Y-6344758D01*
X5092700Y-6344758D01*
X5076024Y-6347896D01*
X5060708Y-6357752D01*
X5050433Y-6372789D01*
X5046818Y-6390640D01*
X4071782Y-6390640D01*
X4068644Y-6373964D01*
X4058788Y-6358648D01*
X4043750Y-6348373D01*
X4025900Y-6344758D01*
X3822700Y-6344758D01*
X3806024Y-6347896D01*
X3790708Y-6357752D01*
X3780433Y-6372789D01*
X3776818Y-6390640D01*
X3339300Y-6390640D01*
X3339300Y-6113715D01*
X5371535Y-6113715D01*
X5385124Y-6146603D01*
X5396000Y-6157498D01*
X5396000Y-6248400D01*
X5400127Y-6269148D01*
X5400948Y-6273274D01*
X5415038Y-6294362D01*
X5751600Y-6630924D01*
X5751600Y-6644095D01*
X5740812Y-6654864D01*
X5727166Y-6687729D01*
X5727134Y-6723315D01*
X5740724Y-6756203D01*
X5765864Y-6781388D01*
X5798729Y-6795034D01*
X5834315Y-6795065D01*
X5867203Y-6781476D01*
X5892388Y-6756335D01*
X5906034Y-6723471D01*
X5906065Y-6687885D01*
X5892476Y-6654997D01*
X5881600Y-6644102D01*
X5881600Y-6604000D01*
X5876652Y-6579126D01*
X5866118Y-6563360D01*
X5862562Y-6558038D01*
X5526000Y-6221476D01*
X5526000Y-6157504D01*
X5536788Y-6146735D01*
X5550434Y-6113871D01*
X5550466Y-6078285D01*
X5536876Y-6045397D01*
X5511736Y-6020212D01*
X5478871Y-6006566D01*
X5443285Y-6006534D01*
X5410397Y-6020124D01*
X5385212Y-6045264D01*
X5371566Y-6078129D01*
X5371535Y-6113715D01*
X3339300Y-6113715D01*
X3339300Y-5941755D01*
X6380278Y-5941755D01*
X6399268Y-5987714D01*
X6434401Y-6022908D01*
X6437400Y-6024153D01*
X6437400Y-6354206D01*
X6405092Y-6386458D01*
X6387570Y-6428655D01*
X6387530Y-6474345D01*
X6404978Y-6516572D01*
X6437258Y-6548908D01*
X6479455Y-6566430D01*
X6525145Y-6566470D01*
X6567372Y-6549022D01*
X6599708Y-6516742D01*
X6617230Y-6474545D01*
X6617270Y-6428855D01*
X6599822Y-6386628D01*
X6567542Y-6354292D01*
X6567400Y-6354233D01*
X6567400Y-6026591D01*
X6576014Y-6023032D01*
X6611208Y-5987899D01*
X6630278Y-5941973D01*
X6630278Y-5941755D01*
X6634278Y-5941755D01*
X6653268Y-5987714D01*
X6688401Y-6022908D01*
X6691400Y-6024153D01*
X6691400Y-6354206D01*
X6659092Y-6386458D01*
X6641570Y-6428655D01*
X6641530Y-6474345D01*
X6658978Y-6516572D01*
X6691258Y-6548908D01*
X6733455Y-6566430D01*
X6779145Y-6566470D01*
X6821372Y-6549022D01*
X6853708Y-6516742D01*
X6871230Y-6474545D01*
X6871270Y-6428855D01*
X6853822Y-6386628D01*
X6821542Y-6354292D01*
X6821400Y-6354233D01*
X6821400Y-6026591D01*
X6830014Y-6023032D01*
X6865208Y-5987899D01*
X6884278Y-5941973D01*
X6884278Y-5941755D01*
X6888278Y-5941755D01*
X6907268Y-5987714D01*
X6942401Y-6022908D01*
X6945400Y-6024153D01*
X6945400Y-6354206D01*
X6913092Y-6386458D01*
X6895570Y-6428655D01*
X6895530Y-6474345D01*
X6912978Y-6516572D01*
X6945258Y-6548908D01*
X6987455Y-6566430D01*
X7033145Y-6566470D01*
X7075372Y-6549022D01*
X7107708Y-6516742D01*
X7125230Y-6474545D01*
X7125270Y-6428855D01*
X7107822Y-6386628D01*
X7075542Y-6354292D01*
X7075400Y-6354233D01*
X7075400Y-6026591D01*
X7084014Y-6023032D01*
X7119208Y-5987899D01*
X7138278Y-5941973D01*
X7138322Y-5892245D01*
X7119332Y-5846286D01*
X7084199Y-5811092D01*
X7038273Y-5792022D01*
X6988545Y-5791978D01*
X6942586Y-5810968D01*
X6907392Y-5846101D01*
X6888322Y-5892027D01*
X6888278Y-5941755D01*
X6884278Y-5941755D01*
X6884322Y-5892245D01*
X6865332Y-5846286D01*
X6830199Y-5811092D01*
X6784273Y-5792022D01*
X6734545Y-5791978D01*
X6688586Y-5810968D01*
X6653392Y-5846101D01*
X6634322Y-5892027D01*
X6634278Y-5941755D01*
X6630278Y-5941755D01*
X6630322Y-5892245D01*
X6611332Y-5846286D01*
X6576199Y-5811092D01*
X6530273Y-5792022D01*
X6480545Y-5791978D01*
X6434586Y-5810968D01*
X6399392Y-5846101D01*
X6380322Y-5892027D01*
X6380278Y-5941755D01*
X3339300Y-5941755D01*
X3339300Y-5758570D01*
X3450256Y-5758570D01*
X3483679Y-5839461D01*
X3545514Y-5901403D01*
X3626346Y-5934968D01*
X3713870Y-5935044D01*
X3794761Y-5901621D01*
X3856703Y-5839786D01*
X3890268Y-5758954D01*
X3890337Y-5679108D01*
X8949140Y-5679108D01*
X8949140Y-5715332D01*
X8959139Y-5765601D01*
X8987615Y-5808218D01*
X9030231Y-5836693D01*
X9080500Y-5846692D01*
X9130769Y-5836693D01*
X9173386Y-5808218D01*
X9201861Y-5765601D01*
X9211860Y-5715332D01*
X9211860Y-5679108D01*
X9201861Y-5628839D01*
X9179665Y-5595620D01*
X9456258Y-5595620D01*
X9456258Y-5798820D01*
X9459396Y-5815496D01*
X9469252Y-5830812D01*
X9484290Y-5841087D01*
X9502140Y-5844702D01*
X9674860Y-5844702D01*
X9691536Y-5841564D01*
X9706852Y-5831708D01*
X9717127Y-5816670D01*
X9720742Y-5798820D01*
X9720742Y-5758570D01*
X9927256Y-5758570D01*
X9960679Y-5839461D01*
X10022514Y-5901403D01*
X10103346Y-5934968D01*
X10190870Y-5935044D01*
X10271761Y-5901621D01*
X10333703Y-5839786D01*
X10367268Y-5758954D01*
X10367344Y-5671430D01*
X10333921Y-5590539D01*
X10272086Y-5528597D01*
X10191254Y-5495032D01*
X10103730Y-5494956D01*
X10022839Y-5528379D01*
X9960897Y-5590214D01*
X9927332Y-5671046D01*
X9927256Y-5758570D01*
X9720742Y-5758570D01*
X9720742Y-5595620D01*
X9717604Y-5578944D01*
X9707748Y-5563628D01*
X9692711Y-5553353D01*
X9674860Y-5549738D01*
X9502140Y-5549738D01*
X9485464Y-5552876D01*
X9470148Y-5562732D01*
X9459873Y-5577770D01*
X9456258Y-5595620D01*
X9179665Y-5595620D01*
X9173386Y-5586222D01*
X9130769Y-5557747D01*
X9080500Y-5547748D01*
X9030231Y-5557747D01*
X8987615Y-5586222D01*
X8959139Y-5628839D01*
X8949140Y-5679108D01*
X3890337Y-5679108D01*
X3890344Y-5671430D01*
X3856921Y-5590539D01*
X3795086Y-5528597D01*
X3714254Y-5495032D01*
X3626730Y-5494956D01*
X3545839Y-5528379D01*
X3483897Y-5590214D01*
X3450332Y-5671046D01*
X3450256Y-5758570D01*
X3339300Y-5758570D01*
X3339300Y-5384000D01*
X10478300Y-5384000D01*
X10478300Y-11189500D01*
X10478300Y-11189500D01*
G37*
X10478300Y-11189500D02*
X3339300Y-11189500D01*
X3339300Y-10902070D01*
X3450256Y-10902070D01*
X3483679Y-10982961D01*
X3545514Y-11044903D01*
X3626346Y-11078468D01*
X3713870Y-11078544D01*
X3794761Y-11045121D01*
X3856703Y-10983286D01*
X3890268Y-10902454D01*
X3890268Y-10902070D01*
X9927256Y-10902070D01*
X9960679Y-10982961D01*
X10022514Y-11044903D01*
X10103346Y-11078468D01*
X10190870Y-11078544D01*
X10271761Y-11045121D01*
X10333703Y-10983286D01*
X10367268Y-10902454D01*
X10367344Y-10814930D01*
X10333921Y-10734039D01*
X10272086Y-10672097D01*
X10191254Y-10638532D01*
X10103730Y-10638456D01*
X10022839Y-10671879D01*
X9960897Y-10733714D01*
X9927332Y-10814546D01*
X9927256Y-10902070D01*
X3890268Y-10902070D01*
X3890344Y-10814930D01*
X3856921Y-10734039D01*
X3795086Y-10672097D01*
X3714254Y-10638532D01*
X3626730Y-10638456D01*
X3545839Y-10671879D01*
X3483897Y-10733714D01*
X3450332Y-10814546D01*
X3450256Y-10902070D01*
X3339300Y-10902070D01*
X3339300Y-10522888D01*
X4554940Y-10522888D01*
X4554940Y-10559112D01*
X4564939Y-10609381D01*
X4593415Y-10651998D01*
X4636031Y-10680473D01*
X4686300Y-10690472D01*
X4736569Y-10680473D01*
X4779186Y-10651998D01*
X4807661Y-10609381D01*
X4817660Y-10559112D01*
X4817660Y-10522888D01*
X5824940Y-10522888D01*
X5824940Y-10559112D01*
X5834939Y-10609381D01*
X5863414Y-10651998D01*
X5906031Y-10680473D01*
X5956300Y-10690472D01*
X6006569Y-10680473D01*
X6049185Y-10651998D01*
X6077661Y-10609381D01*
X6083300Y-10581031D01*
X6088939Y-10609381D01*
X6117414Y-10651998D01*
X6160031Y-10680473D01*
X6210300Y-10690472D01*
X6260569Y-10680473D01*
X6303185Y-10651998D01*
X6331661Y-10609381D01*
X6341660Y-10559112D01*
X6341660Y-10522888D01*
X6331661Y-10472619D01*
X6309465Y-10439400D01*
X6827358Y-10439400D01*
X6827358Y-10642600D01*
X6830496Y-10659276D01*
X6840352Y-10674592D01*
X6855389Y-10684867D01*
X6873240Y-10688482D01*
X7045960Y-10688482D01*
X7062636Y-10685344D01*
X7077952Y-10675488D01*
X7088227Y-10660451D01*
X7091842Y-10642600D01*
X7091842Y-10522888D01*
X7336240Y-10522888D01*
X7336240Y-10559112D01*
X7346239Y-10609381D01*
X7374714Y-10651998D01*
X7417331Y-10680473D01*
X7467600Y-10690472D01*
X7517869Y-10680473D01*
X7560485Y-10651998D01*
X7588961Y-10609381D01*
X7598960Y-10559112D01*
X7598960Y-10522888D01*
X7588961Y-10472619D01*
X7566765Y-10439400D01*
X8110058Y-10439400D01*
X8110058Y-10642600D01*
X8113196Y-10659276D01*
X8123052Y-10674592D01*
X8138089Y-10684867D01*
X8155940Y-10688482D01*
X8328660Y-10688482D01*
X8345336Y-10685344D01*
X8360652Y-10675488D01*
X8370927Y-10660451D01*
X8374542Y-10642600D01*
X8374542Y-10607383D01*
X8374939Y-10609381D01*
X8403415Y-10651998D01*
X8446031Y-10680473D01*
X8496300Y-10690472D01*
X8546569Y-10680473D01*
X8589186Y-10651998D01*
X8617661Y-10609381D01*
X8623300Y-10581031D01*
X8628939Y-10609381D01*
X8657415Y-10651998D01*
X8700031Y-10680473D01*
X8750300Y-10690472D01*
X8800569Y-10680473D01*
X8843186Y-10651998D01*
X8871661Y-10609381D01*
X8881660Y-10559112D01*
X8881660Y-10522888D01*
X8871661Y-10472619D01*
X8843186Y-10430002D01*
X8800569Y-10401527D01*
X8750300Y-10391528D01*
X8700031Y-10401527D01*
X8657415Y-10430002D01*
X8628939Y-10472619D01*
X8623300Y-10500969D01*
X8617661Y-10472619D01*
X8589186Y-10430002D01*
X8546569Y-10401527D01*
X8496300Y-10391528D01*
X8446031Y-10401527D01*
X8403415Y-10430002D01*
X8374939Y-10472619D01*
X8374542Y-10474618D01*
X8374542Y-10439400D01*
X8371404Y-10422724D01*
X8361548Y-10407408D01*
X8346510Y-10397133D01*
X8328660Y-10393518D01*
X8155940Y-10393518D01*
X8139264Y-10396656D01*
X8123948Y-10406512D01*
X8113673Y-10421550D01*
X8110058Y-10439400D01*
X7566765Y-10439400D01*
X7560485Y-10430002D01*
X7517869Y-10401527D01*
X7467600Y-10391528D01*
X7417331Y-10401527D01*
X7374714Y-10430002D01*
X7346239Y-10472619D01*
X7336240Y-10522888D01*
X7091842Y-10522888D01*
X7091842Y-10439400D01*
X7088704Y-10422724D01*
X7078848Y-10407408D01*
X7063810Y-10397133D01*
X7045960Y-10393518D01*
X6873240Y-10393518D01*
X6856564Y-10396656D01*
X6841248Y-10406512D01*
X6830973Y-10421550D01*
X6827358Y-10439400D01*
X6309465Y-10439400D01*
X6303185Y-10430002D01*
X6260569Y-10401527D01*
X6210300Y-10391528D01*
X6160031Y-10401527D01*
X6117414Y-10430002D01*
X6088939Y-10472619D01*
X6083300Y-10500969D01*
X6077661Y-10472619D01*
X6049185Y-10430002D01*
X6006569Y-10401527D01*
X5956300Y-10391528D01*
X5906031Y-10401527D01*
X5863414Y-10430002D01*
X5834939Y-10472619D01*
X5824940Y-10522888D01*
X4817660Y-10522888D01*
X4807661Y-10472619D01*
X4779186Y-10430002D01*
X4736569Y-10401527D01*
X4686300Y-10391528D01*
X4636031Y-10401527D01*
X4593415Y-10430002D01*
X4564939Y-10472619D01*
X4554940Y-10522888D01*
X3339300Y-10522888D01*
X3339300Y-9525000D01*
X3774828Y-9525000D01*
X3784827Y-9575269D01*
X3813302Y-9617886D01*
X3855919Y-9646361D01*
X3906188Y-9656360D01*
X3942412Y-9656360D01*
X3992681Y-9646361D01*
X4035298Y-9617886D01*
X4063773Y-9575269D01*
X4073772Y-9525000D01*
X5044828Y-9525000D01*
X5054827Y-9575269D01*
X5083302Y-9617886D01*
X5125919Y-9646361D01*
X5176188Y-9656360D01*
X5212412Y-9656360D01*
X5262681Y-9646361D01*
X5305298Y-9617886D01*
X5333773Y-9575269D01*
X5343772Y-9525000D01*
X5333773Y-9474731D01*
X5305298Y-9432115D01*
X5262681Y-9403639D01*
X5212412Y-9393640D01*
X5176188Y-9393640D01*
X5125919Y-9403639D01*
X5083302Y-9432115D01*
X5054827Y-9474731D01*
X5044828Y-9525000D01*
X4073772Y-9525000D01*
X4063773Y-9474731D01*
X4035298Y-9432115D01*
X3992681Y-9403639D01*
X3942412Y-9393640D01*
X3906188Y-9393640D01*
X3855919Y-9403639D01*
X3813302Y-9432115D01*
X3784827Y-9474731D01*
X3774828Y-9525000D01*
X3339300Y-9525000D01*
X3339300Y-8930640D01*
X3776818Y-8930640D01*
X3776818Y-9103360D01*
X3779956Y-9120036D01*
X3789812Y-9135352D01*
X3804849Y-9145627D01*
X3822700Y-9149242D01*
X4025900Y-9149242D01*
X4042576Y-9146104D01*
X4057892Y-9136248D01*
X4068167Y-9121211D01*
X4071782Y-9103360D01*
X4071782Y-8930640D01*
X4068644Y-8913964D01*
X4058788Y-8898648D01*
X4043750Y-8888373D01*
X4025900Y-8884758D01*
X3822700Y-8884758D01*
X3806024Y-8887896D01*
X3790708Y-8897752D01*
X3780433Y-8912790D01*
X3776818Y-8930640D01*
X3339300Y-8930640D01*
X3339300Y-8826500D01*
X4464300Y-8826500D01*
X4464300Y-9334500D01*
X4471531Y-9370855D01*
X4492125Y-9401675D01*
X4522945Y-9422269D01*
X4559300Y-9429500D01*
X4595655Y-9422269D01*
X4626475Y-9401675D01*
X4647069Y-9370855D01*
X4654300Y-9334500D01*
X4654300Y-9242995D01*
X5513775Y-9242995D01*
X5527364Y-9275883D01*
X5552505Y-9301068D01*
X5585369Y-9314714D01*
X5620955Y-9314746D01*
X5650000Y-9302744D01*
X5650000Y-9423400D01*
X5654127Y-9444148D01*
X5654948Y-9448275D01*
X5669038Y-9469362D01*
X5930348Y-9730672D01*
X5930334Y-9745915D01*
X5943924Y-9778803D01*
X5969064Y-9803988D01*
X6001929Y-9817634D01*
X6037515Y-9817666D01*
X6070403Y-9804076D01*
X6095588Y-9778936D01*
X6109234Y-9746071D01*
X6109265Y-9710485D01*
X6095676Y-9677597D01*
X6070535Y-9652412D01*
X6037671Y-9638766D01*
X6022276Y-9638752D01*
X5780000Y-9396476D01*
X5780000Y-9062630D01*
X5917632Y-9062630D01*
X5933151Y-9100188D01*
X5961861Y-9128948D01*
X5999392Y-9144532D01*
X6040030Y-9144568D01*
X6077588Y-9129049D01*
X6106348Y-9100339D01*
X6121932Y-9062808D01*
X6121968Y-9022170D01*
X6106449Y-8984612D01*
X6077739Y-8955852D01*
X6040208Y-8940268D01*
X5999570Y-8940232D01*
X5962012Y-8955751D01*
X5933252Y-8984461D01*
X5917668Y-9021992D01*
X5917632Y-9062630D01*
X5780000Y-9062630D01*
X5780000Y-8653715D01*
X6285934Y-8653715D01*
X6299524Y-8686603D01*
X6310400Y-8697498D01*
X6310400Y-9158696D01*
X6299612Y-9169465D01*
X6285966Y-9202329D01*
X6285934Y-9237915D01*
X6299524Y-9270803D01*
X6324664Y-9295988D01*
X6357529Y-9309634D01*
X6393115Y-9309666D01*
X6426003Y-9296076D01*
X6451188Y-9270936D01*
X6464834Y-9238071D01*
X6464865Y-9202485D01*
X6458514Y-9187115D01*
X6565334Y-9187115D01*
X6578924Y-9220003D01*
X6589800Y-9230898D01*
X6589800Y-10022296D01*
X6579012Y-10033065D01*
X6565366Y-10065929D01*
X6565334Y-10101515D01*
X6578924Y-10134403D01*
X6604064Y-10159588D01*
X6636929Y-10173234D01*
X6672515Y-10173266D01*
X6705403Y-10159676D01*
X6730588Y-10134536D01*
X6734780Y-10124440D01*
X9707718Y-10124440D01*
X9707718Y-10297160D01*
X9710856Y-10313836D01*
X9720712Y-10329152D01*
X9735750Y-10339427D01*
X9753600Y-10343042D01*
X9956800Y-10343042D01*
X9973476Y-10339904D01*
X9988792Y-10330048D01*
X9999067Y-10315011D01*
X10002682Y-10297160D01*
X10002682Y-10124440D01*
X9999544Y-10107764D01*
X9989688Y-10092448D01*
X9974651Y-10082173D01*
X9956800Y-10078558D01*
X9753600Y-10078558D01*
X9736924Y-10081696D01*
X9721608Y-10091552D01*
X9711333Y-10106590D01*
X9707718Y-10124440D01*
X6734780Y-10124440D01*
X6744234Y-10101671D01*
X6744265Y-10066085D01*
X6730676Y-10033197D01*
X6719800Y-10022302D01*
X6719800Y-9618915D01*
X7098734Y-9618915D01*
X7112324Y-9651803D01*
X7123200Y-9662698D01*
X7123200Y-9844496D01*
X7112412Y-9855265D01*
X7098766Y-9888129D01*
X7098734Y-9923715D01*
X7112324Y-9956603D01*
X7137464Y-9981788D01*
X7170329Y-9995434D01*
X7205915Y-9995466D01*
X7238803Y-9981876D01*
X7263988Y-9956736D01*
X7277634Y-9923871D01*
X7277634Y-9923715D01*
X9156135Y-9923715D01*
X9169724Y-9956603D01*
X9194865Y-9981788D01*
X9227729Y-9995434D01*
X9263315Y-9995466D01*
X9296203Y-9981876D01*
X9321388Y-9956736D01*
X9335034Y-9923871D01*
X9335066Y-9888285D01*
X9321476Y-9855397D01*
X9310600Y-9844502D01*
X9310600Y-9729724D01*
X9337524Y-9702800D01*
X9705728Y-9702800D01*
X9715727Y-9753069D01*
X9744202Y-9795686D01*
X9786819Y-9824161D01*
X9837088Y-9834160D01*
X9873312Y-9834160D01*
X9923581Y-9824161D01*
X9966198Y-9795686D01*
X9994673Y-9753069D01*
X10004672Y-9702800D01*
X9994673Y-9652531D01*
X9966198Y-9609915D01*
X9923581Y-9581439D01*
X9873312Y-9571440D01*
X9837088Y-9571440D01*
X9786819Y-9581439D01*
X9744202Y-9609915D01*
X9715727Y-9652531D01*
X9705728Y-9702800D01*
X9337524Y-9702800D01*
X9400472Y-9639852D01*
X9415715Y-9639866D01*
X9448603Y-9626276D01*
X9473788Y-9601136D01*
X9487434Y-9568271D01*
X9487466Y-9532685D01*
X9473876Y-9499797D01*
X9448736Y-9474612D01*
X9415871Y-9460966D01*
X9380285Y-9460935D01*
X9347397Y-9474524D01*
X9322212Y-9499665D01*
X9308566Y-9532529D01*
X9308552Y-9547924D01*
X9199638Y-9656838D01*
X9185548Y-9677926D01*
X9185548Y-9677926D01*
X9180600Y-9702800D01*
X9180600Y-9844496D01*
X9169812Y-9855265D01*
X9156166Y-9888129D01*
X9156135Y-9923715D01*
X7277634Y-9923715D01*
X7277665Y-9888285D01*
X7264076Y-9855397D01*
X7253200Y-9844502D01*
X7253200Y-9662705D01*
X7263988Y-9651936D01*
X7277634Y-9619071D01*
X7277665Y-9583485D01*
X7264076Y-9550597D01*
X7238935Y-9525412D01*
X7206071Y-9511766D01*
X7170485Y-9511735D01*
X7137597Y-9525324D01*
X7112412Y-9550465D01*
X7098766Y-9583329D01*
X7098734Y-9618915D01*
X6719800Y-9618915D01*
X6719800Y-9230905D01*
X6730588Y-9220136D01*
X6744234Y-9187271D01*
X6744265Y-9151685D01*
X6730676Y-9118797D01*
X6705535Y-9093612D01*
X6672671Y-9079966D01*
X6637085Y-9079935D01*
X6604197Y-9093524D01*
X6579012Y-9118665D01*
X6565366Y-9151529D01*
X6565334Y-9187115D01*
X6458514Y-9187115D01*
X6451276Y-9169597D01*
X6440400Y-9158702D01*
X6440400Y-9034715D01*
X7098734Y-9034715D01*
X7112324Y-9067603D01*
X7137464Y-9092788D01*
X7170329Y-9106434D01*
X7205915Y-9106466D01*
X7238803Y-9092876D01*
X7249698Y-9082000D01*
X7467600Y-9082000D01*
X7488348Y-9077873D01*
X7492474Y-9077052D01*
X7513562Y-9062962D01*
X7519924Y-9056600D01*
X7708338Y-9056600D01*
X7708334Y-9060115D01*
X7721924Y-9093003D01*
X7747064Y-9118188D01*
X7779929Y-9131834D01*
X7815515Y-9131866D01*
X7848403Y-9118276D01*
X7873588Y-9093136D01*
X7887234Y-9060271D01*
X7887265Y-9024685D01*
X7873676Y-8991797D01*
X7848535Y-8966612D01*
X7815671Y-8952966D01*
X7800276Y-8952952D01*
X7792962Y-8945638D01*
X7771874Y-8931548D01*
X7767748Y-8930727D01*
X7747000Y-8926600D01*
X7493000Y-8926600D01*
X7472252Y-8930727D01*
X7468125Y-8931548D01*
X7447038Y-8945638D01*
X7440676Y-8952000D01*
X7249704Y-8952000D01*
X7238935Y-8941212D01*
X7206071Y-8927566D01*
X7170485Y-8927535D01*
X7137597Y-8941124D01*
X7112412Y-8966265D01*
X7098766Y-8999129D01*
X7098734Y-9034715D01*
X6440400Y-9034715D01*
X6440400Y-8806115D01*
X8013134Y-8806115D01*
X8026724Y-8839003D01*
X8037600Y-8849898D01*
X8037600Y-9031696D01*
X8026812Y-9042465D01*
X8013166Y-9075329D01*
X8013134Y-9110915D01*
X8026724Y-9143803D01*
X8051864Y-9168988D01*
X8084729Y-9182634D01*
X8120315Y-9182666D01*
X8153203Y-9169076D01*
X8178388Y-9143936D01*
X8192034Y-9111071D01*
X8192065Y-9075485D01*
X8178476Y-9042597D01*
X8167600Y-9031702D01*
X8167600Y-8849905D01*
X8178388Y-8839136D01*
X8192034Y-8806271D01*
X8192065Y-8770685D01*
X8178476Y-8737797D01*
X8153335Y-8712612D01*
X8120471Y-8698966D01*
X8084885Y-8698935D01*
X8051997Y-8712524D01*
X8026812Y-8737665D01*
X8013166Y-8770529D01*
X8013134Y-8806115D01*
X6440400Y-8806115D01*
X6440400Y-8701000D01*
X6502400Y-8701000D01*
X6523148Y-8696873D01*
X6527274Y-8696052D01*
X6548362Y-8681962D01*
X6726162Y-8504162D01*
X6740252Y-8483074D01*
X6745200Y-8458200D01*
X6745200Y-8399715D01*
X7124134Y-8399715D01*
X7137724Y-8432603D01*
X7162864Y-8457788D01*
X7195729Y-8471434D01*
X7231315Y-8471466D01*
X7264203Y-8457876D01*
X7289388Y-8432736D01*
X7295920Y-8417004D01*
X7367524Y-8345400D01*
X7720076Y-8345400D01*
X7809948Y-8435272D01*
X7809934Y-8450515D01*
X7823524Y-8483403D01*
X7848664Y-8508588D01*
X7881529Y-8522234D01*
X7917115Y-8522266D01*
X7950003Y-8508676D01*
X7975188Y-8483536D01*
X7988834Y-8450671D01*
X7988865Y-8415085D01*
X7975276Y-8382197D01*
X7950135Y-8357012D01*
X7917271Y-8343366D01*
X7901876Y-8343352D01*
X7805838Y-8247315D01*
X9410135Y-8247315D01*
X9423724Y-8280203D01*
X9434600Y-8291098D01*
X9434600Y-8625296D01*
X9423812Y-8636065D01*
X9410166Y-8668929D01*
X9410135Y-8704515D01*
X9423724Y-8737403D01*
X9448865Y-8762588D01*
X9481729Y-8776234D01*
X9517315Y-8776266D01*
X9550203Y-8762676D01*
X9575388Y-8737536D01*
X9589034Y-8704671D01*
X9589066Y-8669085D01*
X9575476Y-8636197D01*
X9564600Y-8625302D01*
X9564600Y-8509000D01*
X9847002Y-8509000D01*
X9856141Y-8554944D01*
X9882166Y-8593893D01*
X9921115Y-8619918D01*
X9967059Y-8629057D01*
X10073541Y-8629057D01*
X10119485Y-8619918D01*
X10158434Y-8593893D01*
X10184459Y-8554944D01*
X10193598Y-8509000D01*
X10184459Y-8463056D01*
X10158434Y-8424107D01*
X10119485Y-8398082D01*
X10073541Y-8388943D01*
X9967059Y-8388943D01*
X9921115Y-8398082D01*
X9882166Y-8424107D01*
X9856141Y-8463056D01*
X9847002Y-8509000D01*
X9564600Y-8509000D01*
X9564600Y-8291104D01*
X9575388Y-8280335D01*
X9589034Y-8247471D01*
X9589066Y-8211885D01*
X9575476Y-8178997D01*
X9550336Y-8153812D01*
X9517471Y-8140166D01*
X9481885Y-8140134D01*
X9448997Y-8153724D01*
X9423812Y-8178864D01*
X9410166Y-8211729D01*
X9410135Y-8247315D01*
X7805838Y-8247315D01*
X7792962Y-8234438D01*
X7771874Y-8220348D01*
X7767748Y-8219527D01*
X7747000Y-8215400D01*
X7340600Y-8215400D01*
X7319852Y-8219527D01*
X7315725Y-8220348D01*
X7294638Y-8234438D01*
X7235032Y-8294044D01*
X7231471Y-8292566D01*
X7195885Y-8292534D01*
X7162997Y-8306124D01*
X7137812Y-8331264D01*
X7124166Y-8364129D01*
X7124134Y-8399715D01*
X6745200Y-8399715D01*
X6745200Y-8113304D01*
X6755988Y-8102535D01*
X6769634Y-8069671D01*
X6769665Y-8034085D01*
X6756076Y-8001197D01*
X6755880Y-8001000D01*
X9847002Y-8001000D01*
X9856141Y-8046944D01*
X9882166Y-8085893D01*
X9921115Y-8111918D01*
X9967059Y-8121057D01*
X10073541Y-8121057D01*
X10119485Y-8111918D01*
X10158434Y-8085893D01*
X10184459Y-8046944D01*
X10193598Y-8001000D01*
X10184459Y-7955056D01*
X10158434Y-7916107D01*
X10119485Y-7890082D01*
X10073541Y-7880943D01*
X9967059Y-7880943D01*
X9921115Y-7890082D01*
X9882166Y-7916107D01*
X9856141Y-7955056D01*
X9847002Y-8001000D01*
X6755880Y-8001000D01*
X6730935Y-7976012D01*
X6698071Y-7962366D01*
X6662485Y-7962334D01*
X6629597Y-7975924D01*
X6604412Y-8001064D01*
X6590766Y-8033929D01*
X6590734Y-8069515D01*
X6604324Y-8102403D01*
X6615200Y-8113298D01*
X6615200Y-8431276D01*
X6475476Y-8571000D01*
X6436904Y-8571000D01*
X6426135Y-8560212D01*
X6393271Y-8546566D01*
X6357685Y-8546535D01*
X6324797Y-8560124D01*
X6299612Y-8585265D01*
X6285966Y-8618129D01*
X6285934Y-8653715D01*
X5780000Y-8653715D01*
X5780000Y-8120315D01*
X5917634Y-8120315D01*
X5931224Y-8153203D01*
X5956364Y-8178388D01*
X5989229Y-8192034D01*
X6024815Y-8192065D01*
X6057703Y-8178476D01*
X6082888Y-8153335D01*
X6096534Y-8120471D01*
X6096565Y-8084885D01*
X6082976Y-8051997D01*
X6072100Y-8041102D01*
X6072100Y-7959344D01*
X6143244Y-7888200D01*
X7670800Y-7888200D01*
X7691548Y-7884073D01*
X7695674Y-7883252D01*
X7716762Y-7869162D01*
X7749472Y-7836452D01*
X7764715Y-7836465D01*
X7797603Y-7822876D01*
X7822788Y-7797735D01*
X7836434Y-7764871D01*
X7836465Y-7729285D01*
X7828662Y-7710400D01*
X8063938Y-7710400D01*
X8063934Y-7713915D01*
X8077524Y-7746803D01*
X8102664Y-7771988D01*
X8135529Y-7785634D01*
X8171115Y-7785665D01*
X8204003Y-7772076D01*
X8229188Y-7746935D01*
X8242834Y-7714071D01*
X8242865Y-7678485D01*
X8229276Y-7645597D01*
X8204135Y-7620412D01*
X8171271Y-7606766D01*
X8155876Y-7606752D01*
X8148562Y-7599438D01*
X8127474Y-7585348D01*
X8123348Y-7584527D01*
X8102600Y-7580400D01*
X7670800Y-7580400D01*
X7645926Y-7585348D01*
X7624838Y-7599438D01*
X7567676Y-7656600D01*
X6252623Y-7656600D01*
X6248076Y-7645597D01*
X6222935Y-7620412D01*
X6201064Y-7611331D01*
X6222469Y-7607073D01*
X6265085Y-7578598D01*
X6293561Y-7535981D01*
X6299200Y-7507631D01*
X6304839Y-7535981D01*
X6333314Y-7578598D01*
X6375931Y-7607073D01*
X6426200Y-7617072D01*
X6476469Y-7607073D01*
X6519085Y-7578598D01*
X6547561Y-7535981D01*
X6547958Y-7533982D01*
X6547958Y-7569200D01*
X6551096Y-7585876D01*
X6560952Y-7601192D01*
X6575989Y-7611467D01*
X6593840Y-7615082D01*
X6766560Y-7615082D01*
X6783236Y-7611944D01*
X6798552Y-7602088D01*
X6808827Y-7587050D01*
X6812442Y-7569200D01*
X6812442Y-7366000D01*
X6809304Y-7349324D01*
X6799448Y-7334008D01*
X6797848Y-7332915D01*
X6971734Y-7332915D01*
X6985324Y-7365803D01*
X7010464Y-7390988D01*
X7043329Y-7404634D01*
X7078915Y-7404665D01*
X7111803Y-7391076D01*
X7136988Y-7365935D01*
X7150634Y-7333071D01*
X7150665Y-7297485D01*
X7137076Y-7264597D01*
X7126200Y-7253702D01*
X7126200Y-7053515D01*
X7327334Y-7053515D01*
X7340924Y-7086403D01*
X7366064Y-7111588D01*
X7398929Y-7125234D01*
X7434515Y-7125265D01*
X7467403Y-7111676D01*
X7492588Y-7086535D01*
X7506234Y-7053671D01*
X7506248Y-7038276D01*
X7564362Y-6980162D01*
X7578452Y-6959074D01*
X7580986Y-6946334D01*
X7583400Y-6934200D01*
X7583400Y-6771640D01*
X9707718Y-6771640D01*
X9707718Y-6944360D01*
X9710856Y-6961036D01*
X9720712Y-6976352D01*
X9735750Y-6986627D01*
X9753600Y-6990242D01*
X9956800Y-6990242D01*
X9973476Y-6987104D01*
X9988792Y-6977248D01*
X9999067Y-6962210D01*
X10002682Y-6944360D01*
X10002682Y-6771640D01*
X9999544Y-6754964D01*
X9989688Y-6739648D01*
X9974651Y-6729373D01*
X9956800Y-6725758D01*
X9753600Y-6725758D01*
X9736924Y-6728896D01*
X9721608Y-6738752D01*
X9711333Y-6753789D01*
X9707718Y-6771640D01*
X7583400Y-6771640D01*
X7583400Y-6548994D01*
X7615708Y-6516742D01*
X7633230Y-6474545D01*
X7633270Y-6428855D01*
X7615822Y-6386628D01*
X7583542Y-6354292D01*
X7583400Y-6354233D01*
X7583400Y-6026591D01*
X7592014Y-6023032D01*
X7627208Y-5987899D01*
X7646278Y-5941973D01*
X7646278Y-5941755D01*
X7650278Y-5941755D01*
X7669268Y-5987714D01*
X7704401Y-6022908D01*
X7707400Y-6024153D01*
X7707400Y-6354206D01*
X7675092Y-6386458D01*
X7657570Y-6428655D01*
X7657530Y-6474345D01*
X7674978Y-6516572D01*
X7707258Y-6548908D01*
X7749455Y-6566430D01*
X7795145Y-6566470D01*
X7837372Y-6549022D01*
X7869708Y-6516742D01*
X7887230Y-6474545D01*
X7887270Y-6428855D01*
X7869822Y-6386628D01*
X7837542Y-6354292D01*
X7837400Y-6354233D01*
X7837400Y-6026591D01*
X7846014Y-6023032D01*
X7881208Y-5987899D01*
X7900278Y-5941973D01*
X7900278Y-5941755D01*
X7904278Y-5941755D01*
X7923268Y-5987714D01*
X7958401Y-6022908D01*
X7961400Y-6024153D01*
X7961400Y-6354206D01*
X7929092Y-6386458D01*
X7911570Y-6428655D01*
X7911530Y-6474345D01*
X7928978Y-6516572D01*
X7961258Y-6548908D01*
X8003455Y-6566430D01*
X8049145Y-6566470D01*
X8091372Y-6549022D01*
X8123708Y-6516742D01*
X8141230Y-6474545D01*
X8141270Y-6428855D01*
X8123822Y-6386628D01*
X8091542Y-6354292D01*
X8091400Y-6354233D01*
X8091400Y-6026591D01*
X8100014Y-6023032D01*
X8135208Y-5987899D01*
X8154278Y-5941973D01*
X8154278Y-5941755D01*
X8158278Y-5941755D01*
X8177268Y-5987714D01*
X8212401Y-6022908D01*
X8215400Y-6024153D01*
X8215400Y-6354206D01*
X8183092Y-6386458D01*
X8165570Y-6428655D01*
X8165530Y-6474345D01*
X8182978Y-6516572D01*
X8215258Y-6548908D01*
X8257455Y-6566430D01*
X8303145Y-6566470D01*
X8345372Y-6549022D01*
X8377708Y-6516742D01*
X8395230Y-6474545D01*
X8395270Y-6428855D01*
X8377822Y-6386628D01*
X8345542Y-6354292D01*
X8345400Y-6354233D01*
X8345400Y-6350000D01*
X9705728Y-6350000D01*
X9715727Y-6400269D01*
X9744202Y-6442885D01*
X9786819Y-6471361D01*
X9837088Y-6481360D01*
X9873312Y-6481360D01*
X9923581Y-6471361D01*
X9966198Y-6442885D01*
X9994673Y-6400269D01*
X10004672Y-6350000D01*
X9994673Y-6299731D01*
X9966198Y-6257114D01*
X9923581Y-6228639D01*
X9873312Y-6218640D01*
X9837088Y-6218640D01*
X9786819Y-6228639D01*
X9744202Y-6257114D01*
X9715727Y-6299731D01*
X9705728Y-6350000D01*
X8345400Y-6350000D01*
X8345400Y-6026591D01*
X8354014Y-6023032D01*
X8389208Y-5987899D01*
X8408278Y-5941973D01*
X8408322Y-5892245D01*
X8389332Y-5846286D01*
X8354199Y-5811092D01*
X8308273Y-5792022D01*
X8258545Y-5791978D01*
X8212586Y-5810968D01*
X8177392Y-5846101D01*
X8158322Y-5892027D01*
X8158278Y-5941755D01*
X8154278Y-5941755D01*
X8154322Y-5892245D01*
X8135332Y-5846286D01*
X8100199Y-5811092D01*
X8054273Y-5792022D01*
X8004545Y-5791978D01*
X7958586Y-5810968D01*
X7923392Y-5846101D01*
X7904322Y-5892027D01*
X7904278Y-5941755D01*
X7900278Y-5941755D01*
X7900322Y-5892245D01*
X7881332Y-5846286D01*
X7846199Y-5811092D01*
X7800273Y-5792022D01*
X7750545Y-5791978D01*
X7704586Y-5810968D01*
X7669392Y-5846101D01*
X7650322Y-5892027D01*
X7650278Y-5941755D01*
X7646278Y-5941755D01*
X7646322Y-5892245D01*
X7627332Y-5846286D01*
X7592199Y-5811092D01*
X7546273Y-5792022D01*
X7496545Y-5791978D01*
X7450586Y-5810968D01*
X7415392Y-5846101D01*
X7396322Y-5892027D01*
X7396278Y-5941755D01*
X7415268Y-5987714D01*
X7450401Y-6022908D01*
X7453400Y-6024153D01*
X7453400Y-6354206D01*
X7421092Y-6386458D01*
X7403570Y-6428655D01*
X7403530Y-6474345D01*
X7420978Y-6516572D01*
X7453258Y-6548908D01*
X7453400Y-6548967D01*
X7453400Y-6907276D01*
X7414328Y-6946348D01*
X7399085Y-6946334D01*
X7366197Y-6959924D01*
X7341012Y-6985064D01*
X7327366Y-7017929D01*
X7327334Y-7053515D01*
X7126200Y-7053515D01*
X7126200Y-6859524D01*
X7284962Y-6700762D01*
X7299052Y-6679674D01*
X7304000Y-6654800D01*
X7304000Y-6559505D01*
X7329372Y-6549022D01*
X7361708Y-6516742D01*
X7379230Y-6474545D01*
X7379270Y-6428855D01*
X7361822Y-6386628D01*
X7329542Y-6354292D01*
X7329400Y-6354233D01*
X7329400Y-6026591D01*
X7338014Y-6023032D01*
X7373208Y-5987899D01*
X7392278Y-5941973D01*
X7392322Y-5892245D01*
X7373332Y-5846286D01*
X7338199Y-5811092D01*
X7292273Y-5792022D01*
X7242545Y-5791978D01*
X7196586Y-5810968D01*
X7161392Y-5846101D01*
X7142322Y-5892027D01*
X7142278Y-5941755D01*
X7161268Y-5987714D01*
X7196401Y-6022908D01*
X7199400Y-6024153D01*
X7199400Y-6354206D01*
X7167092Y-6386458D01*
X7149570Y-6428655D01*
X7149530Y-6474345D01*
X7166978Y-6516572D01*
X7174000Y-6523606D01*
X7174000Y-6627876D01*
X7015238Y-6786638D01*
X7001148Y-6807725D01*
X7001148Y-6807726D01*
X6996200Y-6832600D01*
X6996200Y-7253695D01*
X6985412Y-7264464D01*
X6971766Y-7297329D01*
X6971734Y-7332915D01*
X6797848Y-7332915D01*
X6784410Y-7323733D01*
X6766560Y-7320118D01*
X6593840Y-7320118D01*
X6577164Y-7323256D01*
X6561848Y-7333112D01*
X6551573Y-7348149D01*
X6547958Y-7366000D01*
X6547958Y-7401217D01*
X6547561Y-7399219D01*
X6519085Y-7356602D01*
X6476469Y-7328127D01*
X6426200Y-7318128D01*
X6375931Y-7328127D01*
X6333314Y-7356602D01*
X6304839Y-7399219D01*
X6299200Y-7427569D01*
X6293561Y-7399219D01*
X6265085Y-7356602D01*
X6222469Y-7328127D01*
X6172200Y-7318128D01*
X6121931Y-7328127D01*
X6079314Y-7356602D01*
X6050839Y-7399219D01*
X6040840Y-7449488D01*
X6040840Y-7485712D01*
X6050839Y-7535981D01*
X6079314Y-7578598D01*
X6121931Y-7607073D01*
X6143353Y-7611334D01*
X6121597Y-7620324D01*
X6096412Y-7645464D01*
X6082766Y-7678329D01*
X6082734Y-7713915D01*
X6096324Y-7746803D01*
X6109129Y-7759630D01*
X6095572Y-7762327D01*
X6091445Y-7763148D01*
X6070358Y-7777238D01*
X5961138Y-7886458D01*
X5947048Y-7907545D01*
X5947048Y-7907546D01*
X5942100Y-7932420D01*
X5942100Y-8041095D01*
X5931312Y-8051864D01*
X5917666Y-8084729D01*
X5917634Y-8120315D01*
X5780000Y-8120315D01*
X5780000Y-7554504D01*
X5790788Y-7543735D01*
X5804434Y-7510871D01*
X5804465Y-7475285D01*
X5790876Y-7442397D01*
X5765735Y-7417212D01*
X5732871Y-7403566D01*
X5697285Y-7403534D01*
X5664397Y-7417124D01*
X5639212Y-7442264D01*
X5625566Y-7475129D01*
X5625534Y-7510715D01*
X5639124Y-7543603D01*
X5650000Y-7554498D01*
X5650000Y-9147841D01*
X5621111Y-9135846D01*
X5585525Y-9135815D01*
X5552637Y-9149404D01*
X5527452Y-9174545D01*
X5513806Y-9207409D01*
X5513775Y-9242995D01*
X4654300Y-9242995D01*
X4654300Y-8930640D01*
X5046818Y-8930640D01*
X5046818Y-9103360D01*
X5049956Y-9120036D01*
X5059812Y-9135352D01*
X5074850Y-9145627D01*
X5092700Y-9149242D01*
X5295900Y-9149242D01*
X5312576Y-9146104D01*
X5327892Y-9136248D01*
X5338167Y-9121211D01*
X5341782Y-9103360D01*
X5341782Y-8930640D01*
X5338644Y-8913964D01*
X5328788Y-8898648D01*
X5313751Y-8888373D01*
X5295900Y-8884758D01*
X5092700Y-8884758D01*
X5076024Y-8887896D01*
X5060708Y-8897752D01*
X5050433Y-8912790D01*
X5046818Y-8930640D01*
X4654300Y-8930640D01*
X4654300Y-8826500D01*
X4647069Y-8790145D01*
X4626475Y-8759325D01*
X4595655Y-8738731D01*
X4559300Y-8731500D01*
X4522945Y-8738731D01*
X4492125Y-8759325D01*
X4471531Y-8790145D01*
X4464300Y-8826500D01*
X3339300Y-8826500D01*
X3339300Y-8255000D01*
X3774828Y-8255000D01*
X3784827Y-8305269D01*
X3813302Y-8347885D01*
X3855919Y-8376361D01*
X3906188Y-8386360D01*
X3942412Y-8386360D01*
X3992681Y-8376361D01*
X4035298Y-8347885D01*
X4063773Y-8305269D01*
X4073772Y-8255000D01*
X5044828Y-8255000D01*
X5054827Y-8305269D01*
X5083302Y-8347885D01*
X5125919Y-8376361D01*
X5176188Y-8386360D01*
X5212412Y-8386360D01*
X5262681Y-8376361D01*
X5305298Y-8347885D01*
X5333773Y-8305269D01*
X5343772Y-8255000D01*
X5333773Y-8204731D01*
X5305298Y-8162114D01*
X5262681Y-8133639D01*
X5212412Y-8123640D01*
X5176188Y-8123640D01*
X5125919Y-8133639D01*
X5083302Y-8162114D01*
X5054827Y-8204731D01*
X5044828Y-8255000D01*
X4073772Y-8255000D01*
X4063773Y-8204731D01*
X4035298Y-8162114D01*
X3992681Y-8133639D01*
X3942412Y-8123640D01*
X3906188Y-8123640D01*
X3855919Y-8133639D01*
X3813302Y-8162114D01*
X3784827Y-8204731D01*
X3774828Y-8255000D01*
X3339300Y-8255000D01*
X3339300Y-7660640D01*
X3776818Y-7660640D01*
X3776818Y-7833360D01*
X3779956Y-7850036D01*
X3789812Y-7865352D01*
X3804849Y-7875627D01*
X3822700Y-7879242D01*
X4025900Y-7879242D01*
X4042576Y-7876104D01*
X4057892Y-7866248D01*
X4068167Y-7851210D01*
X4071782Y-7833360D01*
X4071782Y-7660640D01*
X5046818Y-7660640D01*
X5046818Y-7833360D01*
X5049956Y-7850036D01*
X5059812Y-7865352D01*
X5074850Y-7875627D01*
X5092700Y-7879242D01*
X5295900Y-7879242D01*
X5312576Y-7876104D01*
X5327892Y-7866248D01*
X5338167Y-7851210D01*
X5341782Y-7833360D01*
X5341782Y-7660640D01*
X5338644Y-7643964D01*
X5328788Y-7628648D01*
X5313751Y-7618373D01*
X5295900Y-7614758D01*
X5092700Y-7614758D01*
X5076024Y-7617896D01*
X5060708Y-7627752D01*
X5050433Y-7642789D01*
X5046818Y-7660640D01*
X4071782Y-7660640D01*
X4068644Y-7643964D01*
X4058788Y-7628648D01*
X4043750Y-7618373D01*
X4025900Y-7614758D01*
X3822700Y-7614758D01*
X3806024Y-7617896D01*
X3790708Y-7627752D01*
X3780433Y-7642789D01*
X3776818Y-7660640D01*
X3339300Y-7660640D01*
X3339300Y-6985000D01*
X3774828Y-6985000D01*
X3784827Y-7035269D01*
X3813302Y-7077885D01*
X3855919Y-7106361D01*
X3906188Y-7116360D01*
X3942412Y-7116360D01*
X3992681Y-7106361D01*
X4035298Y-7077885D01*
X4063773Y-7035269D01*
X4073772Y-6985000D01*
X5044828Y-6985000D01*
X5054827Y-7035269D01*
X5083302Y-7077885D01*
X5125919Y-7106361D01*
X5176188Y-7116360D01*
X5212412Y-7116360D01*
X5262681Y-7106361D01*
X5305298Y-7077885D01*
X5333773Y-7035269D01*
X5343772Y-6985000D01*
X5416800Y-6985000D01*
X5416800Y-9017000D01*
X5424031Y-9053355D01*
X5444625Y-9084175D01*
X5475445Y-9104769D01*
X5511800Y-9112000D01*
X5548155Y-9104769D01*
X5578975Y-9084175D01*
X5599569Y-9053355D01*
X5606800Y-9017000D01*
X5606800Y-6985000D01*
X5599569Y-6948645D01*
X5578975Y-6917825D01*
X5548155Y-6897231D01*
X5511800Y-6890000D01*
X5475445Y-6897231D01*
X5444625Y-6917825D01*
X5424031Y-6948645D01*
X5416800Y-6985000D01*
X5343772Y-6985000D01*
X5333773Y-6934731D01*
X5305298Y-6892114D01*
X5295959Y-6885875D01*
X5887154Y-6885875D01*
X5900744Y-6918763D01*
X5925884Y-6943948D01*
X5958749Y-6957594D01*
X5994335Y-6957625D01*
X6027223Y-6944036D01*
X6052408Y-6918895D01*
X6066054Y-6886031D01*
X6066068Y-6870636D01*
X6086082Y-6850622D01*
X6100172Y-6829534D01*
X6105120Y-6804660D01*
X6105120Y-6454684D01*
X6115908Y-6443915D01*
X6129554Y-6411051D01*
X6129585Y-6375465D01*
X6115996Y-6342577D01*
X6090855Y-6317392D01*
X6057991Y-6303746D01*
X6022405Y-6303714D01*
X5989517Y-6317304D01*
X5964332Y-6342444D01*
X5950686Y-6375309D01*
X5950654Y-6410895D01*
X5964244Y-6443783D01*
X5975120Y-6454678D01*
X5975120Y-6777736D01*
X5974148Y-6778708D01*
X5958905Y-6778694D01*
X5926017Y-6792284D01*
X5900832Y-6817424D01*
X5887186Y-6850289D01*
X5887154Y-6885875D01*
X5295959Y-6885875D01*
X5262681Y-6863639D01*
X5212412Y-6853640D01*
X5176188Y-6853640D01*
X5125919Y-6863639D01*
X5083302Y-6892114D01*
X5054827Y-6934731D01*
X5044828Y-6985000D01*
X4073772Y-6985000D01*
X4063773Y-6934731D01*
X4035298Y-6892114D01*
X3992681Y-6863639D01*
X3942412Y-6853640D01*
X3906188Y-6853640D01*
X3855919Y-6863639D01*
X3813302Y-6892114D01*
X3784827Y-6934731D01*
X3774828Y-6985000D01*
X3339300Y-6985000D01*
X3339300Y-6390640D01*
X3776818Y-6390640D01*
X3776818Y-6563360D01*
X3779956Y-6580036D01*
X3789812Y-6595352D01*
X3804849Y-6605627D01*
X3822700Y-6609242D01*
X4025900Y-6609242D01*
X4042576Y-6606104D01*
X4057892Y-6596248D01*
X4068167Y-6581210D01*
X4071782Y-6563360D01*
X4071782Y-6390640D01*
X5046818Y-6390640D01*
X5046818Y-6563360D01*
X5049956Y-6580036D01*
X5059812Y-6595352D01*
X5074850Y-6605627D01*
X5092700Y-6609242D01*
X5295900Y-6609242D01*
X5312576Y-6606104D01*
X5327892Y-6596248D01*
X5338167Y-6581210D01*
X5341782Y-6563360D01*
X5341782Y-6390640D01*
X5338644Y-6373964D01*
X5328788Y-6358648D01*
X5313751Y-6348373D01*
X5295900Y-6344758D01*
X5092700Y-6344758D01*
X5076024Y-6347896D01*
X5060708Y-6357752D01*
X5050433Y-6372789D01*
X5046818Y-6390640D01*
X4071782Y-6390640D01*
X4068644Y-6373964D01*
X4058788Y-6358648D01*
X4043750Y-6348373D01*
X4025900Y-6344758D01*
X3822700Y-6344758D01*
X3806024Y-6347896D01*
X3790708Y-6357752D01*
X3780433Y-6372789D01*
X3776818Y-6390640D01*
X3339300Y-6390640D01*
X3339300Y-6113715D01*
X5371535Y-6113715D01*
X5385124Y-6146603D01*
X5396000Y-6157498D01*
X5396000Y-6248400D01*
X5400127Y-6269148D01*
X5400948Y-6273274D01*
X5415038Y-6294362D01*
X5751600Y-6630924D01*
X5751600Y-6644095D01*
X5740812Y-6654864D01*
X5727166Y-6687729D01*
X5727134Y-6723315D01*
X5740724Y-6756203D01*
X5765864Y-6781388D01*
X5798729Y-6795034D01*
X5834315Y-6795065D01*
X5867203Y-6781476D01*
X5892388Y-6756335D01*
X5906034Y-6723471D01*
X5906065Y-6687885D01*
X5892476Y-6654997D01*
X5881600Y-6644102D01*
X5881600Y-6604000D01*
X5876652Y-6579126D01*
X5866118Y-6563360D01*
X5862562Y-6558038D01*
X5526000Y-6221476D01*
X5526000Y-6157504D01*
X5536788Y-6146735D01*
X5550434Y-6113871D01*
X5550466Y-6078285D01*
X5536876Y-6045397D01*
X5511736Y-6020212D01*
X5478871Y-6006566D01*
X5443285Y-6006534D01*
X5410397Y-6020124D01*
X5385212Y-6045264D01*
X5371566Y-6078129D01*
X5371535Y-6113715D01*
X3339300Y-6113715D01*
X3339300Y-5941755D01*
X6380278Y-5941755D01*
X6399268Y-5987714D01*
X6434401Y-6022908D01*
X6437400Y-6024153D01*
X6437400Y-6354206D01*
X6405092Y-6386458D01*
X6387570Y-6428655D01*
X6387530Y-6474345D01*
X6404978Y-6516572D01*
X6437258Y-6548908D01*
X6479455Y-6566430D01*
X6525145Y-6566470D01*
X6567372Y-6549022D01*
X6599708Y-6516742D01*
X6617230Y-6474545D01*
X6617270Y-6428855D01*
X6599822Y-6386628D01*
X6567542Y-6354292D01*
X6567400Y-6354233D01*
X6567400Y-6026591D01*
X6576014Y-6023032D01*
X6611208Y-5987899D01*
X6630278Y-5941973D01*
X6630278Y-5941755D01*
X6634278Y-5941755D01*
X6653268Y-5987714D01*
X6688401Y-6022908D01*
X6691400Y-6024153D01*
X6691400Y-6354206D01*
X6659092Y-6386458D01*
X6641570Y-6428655D01*
X6641530Y-6474345D01*
X6658978Y-6516572D01*
X6691258Y-6548908D01*
X6733455Y-6566430D01*
X6779145Y-6566470D01*
X6821372Y-6549022D01*
X6853708Y-6516742D01*
X6871230Y-6474545D01*
X6871270Y-6428855D01*
X6853822Y-6386628D01*
X6821542Y-6354292D01*
X6821400Y-6354233D01*
X6821400Y-6026591D01*
X6830014Y-6023032D01*
X6865208Y-5987899D01*
X6884278Y-5941973D01*
X6884278Y-5941755D01*
X6888278Y-5941755D01*
X6907268Y-5987714D01*
X6942401Y-6022908D01*
X6945400Y-6024153D01*
X6945400Y-6354206D01*
X6913092Y-6386458D01*
X6895570Y-6428655D01*
X6895530Y-6474345D01*
X6912978Y-6516572D01*
X6945258Y-6548908D01*
X6987455Y-6566430D01*
X7033145Y-6566470D01*
X7075372Y-6549022D01*
X7107708Y-6516742D01*
X7125230Y-6474545D01*
X7125270Y-6428855D01*
X7107822Y-6386628D01*
X7075542Y-6354292D01*
X7075400Y-6354233D01*
X7075400Y-6026591D01*
X7084014Y-6023032D01*
X7119208Y-5987899D01*
X7138278Y-5941973D01*
X7138322Y-5892245D01*
X7119332Y-5846286D01*
X7084199Y-5811092D01*
X7038273Y-5792022D01*
X6988545Y-5791978D01*
X6942586Y-5810968D01*
X6907392Y-5846101D01*
X6888322Y-5892027D01*
X6888278Y-5941755D01*
X6884278Y-5941755D01*
X6884322Y-5892245D01*
X6865332Y-5846286D01*
X6830199Y-5811092D01*
X6784273Y-5792022D01*
X6734545Y-5791978D01*
X6688586Y-5810968D01*
X6653392Y-5846101D01*
X6634322Y-5892027D01*
X6634278Y-5941755D01*
X6630278Y-5941755D01*
X6630322Y-5892245D01*
X6611332Y-5846286D01*
X6576199Y-5811092D01*
X6530273Y-5792022D01*
X6480545Y-5791978D01*
X6434586Y-5810968D01*
X6399392Y-5846101D01*
X6380322Y-5892027D01*
X6380278Y-5941755D01*
X3339300Y-5941755D01*
X3339300Y-5758570D01*
X3450256Y-5758570D01*
X3483679Y-5839461D01*
X3545514Y-5901403D01*
X3626346Y-5934968D01*
X3713870Y-5935044D01*
X3794761Y-5901621D01*
X3856703Y-5839786D01*
X3890268Y-5758954D01*
X3890337Y-5679108D01*
X8949140Y-5679108D01*
X8949140Y-5715332D01*
X8959139Y-5765601D01*
X8987615Y-5808218D01*
X9030231Y-5836693D01*
X9080500Y-5846692D01*
X9130769Y-5836693D01*
X9173386Y-5808218D01*
X9201861Y-5765601D01*
X9211860Y-5715332D01*
X9211860Y-5679108D01*
X9201861Y-5628839D01*
X9179665Y-5595620D01*
X9456258Y-5595620D01*
X9456258Y-5798820D01*
X9459396Y-5815496D01*
X9469252Y-5830812D01*
X9484290Y-5841087D01*
X9502140Y-5844702D01*
X9674860Y-5844702D01*
X9691536Y-5841564D01*
X9706852Y-5831708D01*
X9717127Y-5816670D01*
X9720742Y-5798820D01*
X9720742Y-5758570D01*
X9927256Y-5758570D01*
X9960679Y-5839461D01*
X10022514Y-5901403D01*
X10103346Y-5934968D01*
X10190870Y-5935044D01*
X10271761Y-5901621D01*
X10333703Y-5839786D01*
X10367268Y-5758954D01*
X10367344Y-5671430D01*
X10333921Y-5590539D01*
X10272086Y-5528597D01*
X10191254Y-5495032D01*
X10103730Y-5494956D01*
X10022839Y-5528379D01*
X9960897Y-5590214D01*
X9927332Y-5671046D01*
X9927256Y-5758570D01*
X9720742Y-5758570D01*
X9720742Y-5595620D01*
X9717604Y-5578944D01*
X9707748Y-5563628D01*
X9692711Y-5553353D01*
X9674860Y-5549738D01*
X9502140Y-5549738D01*
X9485464Y-5552876D01*
X9470148Y-5562732D01*
X9459873Y-5577770D01*
X9456258Y-5595620D01*
X9179665Y-5595620D01*
X9173386Y-5586222D01*
X9130769Y-5557747D01*
X9080500Y-5547748D01*
X9030231Y-5557747D01*
X8987615Y-5586222D01*
X8959139Y-5628839D01*
X8949140Y-5679108D01*
X3890337Y-5679108D01*
X3890344Y-5671430D01*
X3856921Y-5590539D01*
X3795086Y-5528597D01*
X3714254Y-5495032D01*
X3626730Y-5494956D01*
X3545839Y-5528379D01*
X3483897Y-5590214D01*
X3450332Y-5671046D01*
X3450256Y-5758570D01*
X3339300Y-5758570D01*
X3339300Y-5384000D01*
X10478300Y-5384000D01*
X10478300Y-11189500D01*
M02*
