G04 #@! TF.FileFunction,Legend,Top*
%FSLAX45Y45*%
G04 Gerber Fmt 4.5, Leading zero omitted, Abs format (unit mm)*
G04 Created by KiCad (PCBNEW 4.0.4-1.fc24-product) date Wed Oct 18 11:24:51 2017*
%MOMM*%
%LPD*%
G01*
G04 APERTURE LIST*
%ADD10C,0.150000*%
%ADD11C,0.200000*%
%ADD12C,0.175000*%
%ADD13C,0.250000*%
%ADD14C,0.304800*%
%ADD15C,0.127000*%
%ADD16C,0.381000*%
G04 APERTURE END LIST*
D10*
D11*
X6500000Y-7950000D02*
X6975000Y-7950000D01*
X6775000Y-10200000D02*
X7250000Y-10200000D01*
D12*
X5730000Y-8808750D02*
X5706667Y-8808750D01*
X5706667Y-8845417D02*
X5706667Y-8775417D01*
X5740000Y-8775417D01*
X5800000Y-8845417D02*
X5766667Y-8845417D01*
X5766667Y-8775417D01*
X5813333Y-8775417D02*
X5853333Y-8775417D01*
X5833333Y-8845417D02*
X5833333Y-8775417D01*
X5695000Y-8897917D02*
X5735000Y-8897917D01*
X5715000Y-8967917D02*
X5715000Y-8897917D01*
X5755000Y-8964583D02*
X5765000Y-8967917D01*
X5781667Y-8967917D01*
X5788333Y-8964583D01*
X5791667Y-8961250D01*
X5795000Y-8954583D01*
X5795000Y-8947917D01*
X5791667Y-8941250D01*
X5788333Y-8937917D01*
X5781667Y-8934583D01*
X5768333Y-8931250D01*
X5761667Y-8927917D01*
X5758333Y-8924583D01*
X5755000Y-8917917D01*
X5755000Y-8911250D01*
X5758333Y-8904583D01*
X5761667Y-8901250D01*
X5768333Y-8897917D01*
X5785000Y-8897917D01*
X5795000Y-8901250D01*
X5815000Y-8897917D02*
X5855000Y-8897917D01*
X5835000Y-8967917D02*
X5835000Y-8897917D01*
D13*
X6808019Y-10103638D02*
X6808019Y-10003638D01*
X6808019Y-10098876D02*
X6798495Y-10103638D01*
X6779448Y-10103638D01*
X6769924Y-10098876D01*
X6765162Y-10094114D01*
X6760400Y-10084591D01*
X6760400Y-10056019D01*
X6765162Y-10046495D01*
X6769924Y-10041733D01*
X6779448Y-10036971D01*
X6798495Y-10036971D01*
X6808019Y-10041733D01*
X6855638Y-10103638D02*
X6855638Y-10036971D01*
X6855638Y-10003638D02*
X6850876Y-10008400D01*
X6855638Y-10013162D01*
X6860400Y-10008400D01*
X6855638Y-10003638D01*
X6855638Y-10013162D01*
X6898495Y-10098876D02*
X6908019Y-10103638D01*
X6927067Y-10103638D01*
X6936590Y-10098876D01*
X6941352Y-10089352D01*
X6941352Y-10084591D01*
X6936590Y-10075067D01*
X6927067Y-10070305D01*
X6912781Y-10070305D01*
X6903257Y-10065543D01*
X6898495Y-10056019D01*
X6898495Y-10051257D01*
X6903257Y-10041733D01*
X6912781Y-10036971D01*
X6927067Y-10036971D01*
X6936590Y-10041733D01*
X7027067Y-10103638D02*
X7027067Y-10051257D01*
X7022305Y-10041733D01*
X7012781Y-10036971D01*
X6993733Y-10036971D01*
X6984209Y-10041733D01*
X7027067Y-10098876D02*
X7017543Y-10103638D01*
X6993733Y-10103638D01*
X6984209Y-10098876D01*
X6979448Y-10089352D01*
X6979448Y-10079829D01*
X6984209Y-10070305D01*
X6993733Y-10065543D01*
X7017543Y-10065543D01*
X7027067Y-10060781D01*
X7074686Y-10103638D02*
X7074686Y-10003638D01*
X7074686Y-10041733D02*
X7084209Y-10036971D01*
X7103257Y-10036971D01*
X7112781Y-10041733D01*
X7117543Y-10046495D01*
X7122305Y-10056019D01*
X7122305Y-10084591D01*
X7117543Y-10094114D01*
X7112781Y-10098876D01*
X7103257Y-10103638D01*
X7084209Y-10103638D01*
X7074686Y-10098876D01*
X7179448Y-10103638D02*
X7169924Y-10098876D01*
X7165162Y-10089352D01*
X7165162Y-10003638D01*
X7255638Y-10098876D02*
X7246114Y-10103638D01*
X7227067Y-10103638D01*
X7217543Y-10098876D01*
X7212781Y-10089352D01*
X7212781Y-10051257D01*
X7217543Y-10041733D01*
X7227067Y-10036971D01*
X7246114Y-10036971D01*
X7255638Y-10041733D01*
X7260400Y-10051257D01*
X7260400Y-10060781D01*
X7212781Y-10070305D01*
X6519048Y-7895238D02*
X6519048Y-7795238D01*
X6519048Y-7833333D02*
X6528571Y-7828571D01*
X6547619Y-7828571D01*
X6557143Y-7833333D01*
X6561905Y-7838095D01*
X6566667Y-7847619D01*
X6566667Y-7876190D01*
X6561905Y-7885714D01*
X6557143Y-7890476D01*
X6547619Y-7895238D01*
X6528571Y-7895238D01*
X6519048Y-7890476D01*
X6600000Y-7828571D02*
X6623809Y-7895238D01*
X6647619Y-7828571D02*
X6623809Y-7895238D01*
X6614286Y-7919048D01*
X6609524Y-7923809D01*
X6600000Y-7928571D01*
X6685714Y-7828571D02*
X6685714Y-7928571D01*
X6685714Y-7833333D02*
X6695238Y-7828571D01*
X6714286Y-7828571D01*
X6723810Y-7833333D01*
X6728571Y-7838095D01*
X6733333Y-7847619D01*
X6733333Y-7876190D01*
X6728571Y-7885714D01*
X6723810Y-7890476D01*
X6714286Y-7895238D01*
X6695238Y-7895238D01*
X6685714Y-7890476D01*
X6819048Y-7895238D02*
X6819048Y-7842857D01*
X6814286Y-7833333D01*
X6804762Y-7828571D01*
X6785714Y-7828571D01*
X6776190Y-7833333D01*
X6819048Y-7890476D02*
X6809524Y-7895238D01*
X6785714Y-7895238D01*
X6776190Y-7890476D01*
X6771429Y-7880952D01*
X6771429Y-7871429D01*
X6776190Y-7861905D01*
X6785714Y-7857143D01*
X6809524Y-7857143D01*
X6819048Y-7852381D01*
X6861905Y-7890476D02*
X6871429Y-7895238D01*
X6890476Y-7895238D01*
X6900000Y-7890476D01*
X6904762Y-7880952D01*
X6904762Y-7876190D01*
X6900000Y-7866667D01*
X6890476Y-7861905D01*
X6876190Y-7861905D01*
X6866667Y-7857143D01*
X6861905Y-7847619D01*
X6861905Y-7842857D01*
X6866667Y-7833333D01*
X6876190Y-7828571D01*
X6890476Y-7828571D01*
X6900000Y-7833333D01*
X6942857Y-7890476D02*
X6952381Y-7895238D01*
X6971429Y-7895238D01*
X6980952Y-7890476D01*
X6985714Y-7880952D01*
X6985714Y-7876190D01*
X6980952Y-7866667D01*
X6971429Y-7861905D01*
X6957143Y-7861905D01*
X6947619Y-7857143D01*
X6942857Y-7847619D01*
X6942857Y-7842857D01*
X6947619Y-7833333D01*
X6957143Y-7828571D01*
X6971429Y-7828571D01*
X6980952Y-7833333D01*
D11*
X6756400Y-8001000D02*
X6731000Y-8001000D01*
X7495998Y-9131300D02*
G75*
G03X7495998Y-9131300I-28398J0D01*
G01*
X10408438Y-6940505D02*
X10308438Y-6940505D01*
X10356057Y-6940505D02*
X10356057Y-6883362D01*
X10408438Y-6883362D02*
X10308438Y-6883362D01*
X10408438Y-6835743D02*
X10308438Y-6835743D01*
X10308438Y-6797648D01*
X10313200Y-6788124D01*
X10317962Y-6783362D01*
X10327486Y-6778600D01*
X10341771Y-6778600D01*
X10351295Y-6783362D01*
X10356057Y-6788124D01*
X10360819Y-6797648D01*
X10360819Y-6835743D01*
X10308438Y-6750029D02*
X10308438Y-6692886D01*
X10408438Y-6721457D02*
X10308438Y-6721457D01*
X10408438Y-6602409D02*
X10360819Y-6635743D01*
X10408438Y-6659552D02*
X10308438Y-6659552D01*
X10308438Y-6621457D01*
X10313200Y-6611933D01*
X10317962Y-6607171D01*
X10327486Y-6602409D01*
X10341771Y-6602409D01*
X10351295Y-6607171D01*
X10356057Y-6611933D01*
X10360819Y-6621457D01*
X10360819Y-6659552D01*
X10408438Y-6483362D02*
X10308438Y-6483362D01*
X10308438Y-6445267D01*
X10313200Y-6435743D01*
X10317962Y-6430981D01*
X10327486Y-6426219D01*
X10341771Y-6426219D01*
X10351295Y-6430981D01*
X10356057Y-6435743D01*
X10360819Y-6445267D01*
X10360819Y-6483362D01*
X10308438Y-6392886D02*
X10408438Y-6369076D01*
X10337010Y-6350028D01*
X10408438Y-6330981D01*
X10308438Y-6307171D01*
X10408438Y-6211933D02*
X10360819Y-6245267D01*
X10408438Y-6269076D02*
X10308438Y-6269076D01*
X10308438Y-6230981D01*
X10313200Y-6221457D01*
X10317962Y-6216695D01*
X10327486Y-6211933D01*
X10341771Y-6211933D01*
X10351295Y-6216695D01*
X10356057Y-6221457D01*
X10360819Y-6230981D01*
X10360819Y-6269076D01*
X10408438Y-10107590D02*
X10408438Y-10164733D01*
X10408438Y-10136162D02*
X10308438Y-10136162D01*
X10322724Y-10145686D01*
X10332248Y-10155210D01*
X10337010Y-10164733D01*
X10308438Y-10017114D02*
X10308438Y-10064733D01*
X10356057Y-10069495D01*
X10351295Y-10064733D01*
X10346533Y-10055210D01*
X10346533Y-10031400D01*
X10351295Y-10021876D01*
X10356057Y-10017114D01*
X10365581Y-10012352D01*
X10389391Y-10012352D01*
X10398914Y-10017114D01*
X10403676Y-10021876D01*
X10408438Y-10031400D01*
X10408438Y-10055210D01*
X10403676Y-10064733D01*
X10398914Y-10069495D01*
X10308438Y-9983781D02*
X10408438Y-9950448D01*
X10308438Y-9917114D01*
X10408438Y-9807590D02*
X10308438Y-9807590D01*
X10408438Y-9759971D02*
X10308438Y-9759971D01*
X10408438Y-9702829D01*
X10308438Y-9702829D01*
X6754076Y-11195838D02*
X6754076Y-11095838D01*
X6777886Y-11095838D01*
X6792171Y-11100600D01*
X6801695Y-11110124D01*
X6806457Y-11119648D01*
X6811219Y-11138695D01*
X6811219Y-11152981D01*
X6806457Y-11172029D01*
X6801695Y-11181552D01*
X6792171Y-11191076D01*
X6777886Y-11195838D01*
X6754076Y-11195838D01*
X6854076Y-11195838D02*
X6854076Y-11095838D01*
X6896933Y-11191076D02*
X6911219Y-11195838D01*
X6935029Y-11195838D01*
X6944552Y-11191076D01*
X6949314Y-11186314D01*
X6954076Y-11176791D01*
X6954076Y-11167267D01*
X6949314Y-11157743D01*
X6944552Y-11152981D01*
X6935029Y-11148219D01*
X6915981Y-11143457D01*
X6906457Y-11138695D01*
X6901695Y-11133933D01*
X6896933Y-11124410D01*
X6896933Y-11114886D01*
X6901695Y-11105362D01*
X6906457Y-11100600D01*
X6915981Y-11095838D01*
X6939790Y-11095838D01*
X6954076Y-11100600D01*
X6992171Y-11167267D02*
X7039790Y-11167267D01*
X6982648Y-11195838D02*
X7015981Y-11095838D01*
X7049314Y-11195838D01*
X7115981Y-11143457D02*
X7130267Y-11148219D01*
X7135029Y-11152981D01*
X7139790Y-11162505D01*
X7139790Y-11176791D01*
X7135029Y-11186314D01*
X7130267Y-11191076D01*
X7120743Y-11195838D01*
X7082648Y-11195838D01*
X7082648Y-11095838D01*
X7115981Y-11095838D01*
X7125505Y-11100600D01*
X7130267Y-11105362D01*
X7135029Y-11114886D01*
X7135029Y-11124410D01*
X7130267Y-11133933D01*
X7125505Y-11138695D01*
X7115981Y-11143457D01*
X7082648Y-11143457D01*
X7230267Y-11195838D02*
X7182648Y-11195838D01*
X7182648Y-11095838D01*
X7263600Y-11143457D02*
X7296933Y-11143457D01*
X7311219Y-11195838D02*
X7263600Y-11195838D01*
X7263600Y-11095838D01*
X7311219Y-11095838D01*
X7458838Y-11095838D02*
X7458838Y-11167267D01*
X7454076Y-11181552D01*
X7444552Y-11191076D01*
X7430267Y-11195838D01*
X7420743Y-11195838D01*
X7506457Y-11195838D02*
X7506457Y-11095838D01*
X7539791Y-11167267D01*
X7573124Y-11095838D01*
X7573124Y-11195838D01*
X7620743Y-11195838D02*
X7620743Y-11095838D01*
X7658838Y-11095838D01*
X7668362Y-11100600D01*
X7673124Y-11105362D01*
X7677886Y-11114886D01*
X7677886Y-11129171D01*
X7673124Y-11138695D01*
X7668362Y-11143457D01*
X7658838Y-11148219D01*
X7620743Y-11148219D01*
X4590276Y-11143457D02*
X4556943Y-11143457D01*
X4556943Y-11195838D02*
X4556943Y-11095838D01*
X4604562Y-11095838D01*
X4637895Y-11167267D02*
X4685514Y-11167267D01*
X4628371Y-11195838D02*
X4661705Y-11095838D01*
X4695038Y-11195838D01*
X4728371Y-11095838D02*
X4728371Y-11176791D01*
X4733133Y-11186314D01*
X4737895Y-11191076D01*
X4747419Y-11195838D01*
X4766467Y-11195838D01*
X4775991Y-11191076D01*
X4780752Y-11186314D01*
X4785514Y-11176791D01*
X4785514Y-11095838D01*
X4880752Y-11195838D02*
X4833133Y-11195838D01*
X4833133Y-11095838D01*
X4899800Y-11095838D02*
X4956943Y-11095838D01*
X4928371Y-11195838D02*
X4928371Y-11095838D01*
X4795076Y-8581238D02*
X4852219Y-8581238D01*
X4823648Y-8681238D02*
X4823648Y-8581238D01*
X4942695Y-8681238D02*
X4909362Y-8633619D01*
X4885552Y-8681238D02*
X4885552Y-8581238D01*
X4923648Y-8581238D01*
X4933172Y-8586000D01*
X4937933Y-8590762D01*
X4942695Y-8600286D01*
X4942695Y-8614571D01*
X4937933Y-8624095D01*
X4933172Y-8628857D01*
X4923648Y-8633619D01*
X4885552Y-8633619D01*
X5056981Y-8652667D02*
X5104600Y-8652667D01*
X5047457Y-8681238D02*
X5080791Y-8581238D01*
X5114124Y-8681238D01*
X5147457Y-8581238D02*
X5147457Y-8662191D01*
X5152219Y-8671714D01*
X5156981Y-8676476D01*
X5166505Y-8681238D01*
X5185553Y-8681238D01*
X5195076Y-8676476D01*
X5199838Y-8671714D01*
X5204600Y-8662191D01*
X5204600Y-8581238D01*
X5242695Y-8581238D02*
X5309362Y-8681238D01*
X5309362Y-8581238D02*
X5242695Y-8681238D01*
X3528257Y-7336638D02*
X3585400Y-7336638D01*
X3556828Y-7436638D02*
X3556828Y-7336638D01*
X3675876Y-7436638D02*
X3642543Y-7389019D01*
X3618733Y-7436638D02*
X3618733Y-7336638D01*
X3656829Y-7336638D01*
X3666352Y-7341400D01*
X3671114Y-7346162D01*
X3675876Y-7355686D01*
X3675876Y-7369971D01*
X3671114Y-7379495D01*
X3666352Y-7384257D01*
X3656829Y-7389019D01*
X3618733Y-7389019D01*
X3794924Y-7436638D02*
X3794924Y-7336638D01*
X3794924Y-7384257D02*
X3852067Y-7384257D01*
X3852067Y-7436638D02*
X3852067Y-7336638D01*
X3899686Y-7436638D02*
X3899686Y-7336638D01*
X3937781Y-7336638D01*
X3947305Y-7341400D01*
X3952067Y-7346162D01*
X3956829Y-7355686D01*
X3956829Y-7369971D01*
X3952067Y-7379495D01*
X3947305Y-7384257D01*
X3937781Y-7389019D01*
X3899686Y-7389019D01*
X3985400Y-7336638D02*
X4042543Y-7336638D01*
X4013971Y-7436638D02*
X4013971Y-7336638D01*
X4133019Y-7436638D02*
X4099686Y-7389019D01*
X4075876Y-7436638D02*
X4075876Y-7336638D01*
X4113971Y-7336638D01*
X4123495Y-7341400D01*
X4128257Y-7346162D01*
X4133019Y-7355686D01*
X4133019Y-7369971D01*
X4128257Y-7379495D01*
X4123495Y-7384257D01*
X4113971Y-7389019D01*
X4075876Y-7389019D01*
X4885591Y-7336638D02*
X4942733Y-7336638D01*
X4914162Y-7436638D02*
X4914162Y-7336638D01*
X5033210Y-7436638D02*
X4999876Y-7389019D01*
X4976067Y-7436638D02*
X4976067Y-7336638D01*
X5014162Y-7336638D01*
X5023686Y-7341400D01*
X5028448Y-7346162D01*
X5033210Y-7355686D01*
X5033210Y-7369971D01*
X5028448Y-7379495D01*
X5023686Y-7384257D01*
X5014162Y-7389019D01*
X4976067Y-7389019D01*
X5152257Y-7436638D02*
X5152257Y-7336638D01*
X5190353Y-7336638D01*
X5199876Y-7341400D01*
X5204638Y-7346162D01*
X5209400Y-7355686D01*
X5209400Y-7369971D01*
X5204638Y-7379495D01*
X5199876Y-7384257D01*
X5190353Y-7389019D01*
X5152257Y-7389019D01*
X5242733Y-7336638D02*
X5266543Y-7436638D01*
X5285591Y-7365209D01*
X5304638Y-7436638D01*
X5328448Y-7336638D01*
X5423686Y-7436638D02*
X5390352Y-7389019D01*
X5366543Y-7436638D02*
X5366543Y-7336638D01*
X5404638Y-7336638D01*
X5414162Y-7341400D01*
X5418924Y-7346162D01*
X5423686Y-7355686D01*
X5423686Y-7369971D01*
X5418924Y-7379495D01*
X5414162Y-7384257D01*
X5404638Y-7389019D01*
X5366543Y-7389019D01*
X5542733Y-7436638D02*
X5542733Y-7336638D01*
X5576067Y-7408067D01*
X5609400Y-7336638D01*
X5609400Y-7436638D01*
X5676067Y-7336638D02*
X5695114Y-7336638D01*
X5704638Y-7341400D01*
X5714162Y-7350924D01*
X5718924Y-7369971D01*
X5718924Y-7403305D01*
X5714162Y-7422352D01*
X5704638Y-7431876D01*
X5695114Y-7436638D01*
X5676067Y-7436638D01*
X5666543Y-7431876D01*
X5657019Y-7422352D01*
X5652257Y-7403305D01*
X5652257Y-7369971D01*
X5657019Y-7350924D01*
X5666543Y-7341400D01*
X5676067Y-7336638D01*
X5761781Y-7436638D02*
X5761781Y-7336638D01*
X5818924Y-7436638D01*
X5818924Y-7336638D01*
X4029136Y-6140058D02*
X4029136Y-6040058D01*
X4052945Y-6040058D01*
X4067231Y-6044820D01*
X4076755Y-6054344D01*
X4081517Y-6063868D01*
X4086279Y-6082915D01*
X4086279Y-6097201D01*
X4081517Y-6116249D01*
X4076755Y-6125772D01*
X4067231Y-6135296D01*
X4052945Y-6140058D01*
X4029136Y-6140058D01*
X4186279Y-6140058D02*
X4152945Y-6092439D01*
X4129136Y-6140058D02*
X4129136Y-6040058D01*
X4167231Y-6040058D01*
X4176755Y-6044820D01*
X4181517Y-6049582D01*
X4186279Y-6059106D01*
X4186279Y-6073391D01*
X4181517Y-6082915D01*
X4176755Y-6087677D01*
X4167231Y-6092439D01*
X4129136Y-6092439D01*
X4229136Y-6140058D02*
X4229136Y-6040058D01*
X4262469Y-6040058D02*
X4295802Y-6140058D01*
X4329136Y-6040058D01*
X4362469Y-6087677D02*
X4395802Y-6087677D01*
X4410088Y-6140058D02*
X4362469Y-6140058D01*
X4362469Y-6040058D01*
X4410088Y-6040058D01*
X4510088Y-6140058D02*
X4476755Y-6092439D01*
X4452945Y-6140058D02*
X4452945Y-6040058D01*
X4491041Y-6040058D01*
X4500564Y-6044820D01*
X4505326Y-6049582D01*
X4510088Y-6059106D01*
X4510088Y-6073391D01*
X4505326Y-6082915D01*
X4500564Y-6087677D01*
X4491041Y-6092439D01*
X4452945Y-6092439D01*
X4557707Y-6135296D02*
X4557707Y-6140058D01*
X4552945Y-6149582D01*
X4548183Y-6154344D01*
X4733898Y-6140058D02*
X4700564Y-6092439D01*
X4676755Y-6140058D02*
X4676755Y-6040058D01*
X4714850Y-6040058D01*
X4724374Y-6044820D01*
X4729136Y-6049582D01*
X4733898Y-6059106D01*
X4733898Y-6073391D01*
X4729136Y-6082915D01*
X4724374Y-6087677D01*
X4714850Y-6092439D01*
X4676755Y-6092439D01*
X4767231Y-6040058D02*
X4833898Y-6140058D01*
X4833898Y-6040058D02*
X4767231Y-6140058D01*
X4905326Y-6087677D02*
X4871993Y-6087677D01*
X4871993Y-6140058D02*
X4871993Y-6040058D01*
X4919612Y-6040058D01*
X4957707Y-6087677D02*
X4991041Y-6087677D01*
X5005326Y-6140058D02*
X4957707Y-6140058D01*
X4957707Y-6040058D01*
X5005326Y-6040058D01*
X4245802Y-6210058D02*
X4302945Y-6210058D01*
X4274374Y-6310058D02*
X4274374Y-6210058D01*
X4393422Y-6310058D02*
X4360088Y-6262439D01*
X4336279Y-6310058D02*
X4336279Y-6210058D01*
X4374374Y-6210058D01*
X4383898Y-6214820D01*
X4388660Y-6219582D01*
X4393422Y-6229106D01*
X4393422Y-6243391D01*
X4388660Y-6252915D01*
X4383898Y-6257677D01*
X4374374Y-6262439D01*
X4336279Y-6262439D01*
X4507707Y-6205296D02*
X4421993Y-6333868D01*
X4593422Y-6310058D02*
X4536279Y-6310058D01*
X4564850Y-6310058D02*
X4564850Y-6210058D01*
X4555326Y-6224344D01*
X4545802Y-6233868D01*
X4536279Y-6238629D01*
X4683898Y-6210058D02*
X4636279Y-6210058D01*
X4631517Y-6257677D01*
X4636279Y-6252915D01*
X4645802Y-6248153D01*
X4669612Y-6248153D01*
X4679136Y-6252915D01*
X4683898Y-6257677D01*
X4688660Y-6267201D01*
X4688660Y-6291010D01*
X4683898Y-6300534D01*
X4679136Y-6305296D01*
X4669612Y-6310058D01*
X4645802Y-6310058D01*
X4636279Y-6305296D01*
X4631517Y-6300534D01*
X4717231Y-6210058D02*
X4750564Y-6310058D01*
X4783898Y-6210058D01*
X3525076Y-8581238D02*
X3582219Y-8581238D01*
X3553648Y-8681238D02*
X3553648Y-8581238D01*
X3672695Y-8681238D02*
X3639362Y-8633619D01*
X3615552Y-8681238D02*
X3615552Y-8581238D01*
X3653648Y-8581238D01*
X3663171Y-8586000D01*
X3667933Y-8590762D01*
X3672695Y-8600286D01*
X3672695Y-8614571D01*
X3667933Y-8624095D01*
X3663171Y-8628857D01*
X3653648Y-8633619D01*
X3615552Y-8633619D01*
X3786981Y-8652667D02*
X3834600Y-8652667D01*
X3777457Y-8681238D02*
X3810790Y-8581238D01*
X3844124Y-8681238D01*
X3877457Y-8581238D02*
X3877457Y-8662191D01*
X3882219Y-8671714D01*
X3886981Y-8676476D01*
X3896505Y-8681238D01*
X3915552Y-8681238D01*
X3925076Y-8676476D01*
X3929838Y-8671714D01*
X3934600Y-8662191D01*
X3934600Y-8581238D01*
X3972695Y-8581238D02*
X4039362Y-8681238D01*
X4039362Y-8581238D02*
X3972695Y-8681238D01*
X8222495Y-11195838D02*
X8189162Y-11148219D01*
X8165352Y-11195838D02*
X8165352Y-11095838D01*
X8203448Y-11095838D01*
X8212971Y-11100600D01*
X8217733Y-11105362D01*
X8222495Y-11114886D01*
X8222495Y-11129171D01*
X8217733Y-11138695D01*
X8212971Y-11143457D01*
X8203448Y-11148219D01*
X8165352Y-11148219D01*
X8265352Y-11143457D02*
X8298686Y-11143457D01*
X8312971Y-11195838D02*
X8265352Y-11195838D01*
X8265352Y-11095838D01*
X8312971Y-11095838D01*
X8341543Y-11095838D02*
X8374876Y-11195838D01*
X8408210Y-11095838D01*
X8551067Y-11143457D02*
X8517733Y-11143457D01*
X8517733Y-11195838D02*
X8517733Y-11095838D01*
X8565352Y-11095838D01*
X8598686Y-11167267D02*
X8646305Y-11167267D01*
X8589162Y-11195838D02*
X8622495Y-11095838D01*
X8655829Y-11195838D01*
X8689162Y-11095838D02*
X8689162Y-11176791D01*
X8693924Y-11186314D01*
X8698686Y-11191076D01*
X8708210Y-11195838D01*
X8727257Y-11195838D01*
X8736781Y-11191076D01*
X8741543Y-11186314D01*
X8746305Y-11176791D01*
X8746305Y-11095838D01*
X8841543Y-11195838D02*
X8793924Y-11195838D01*
X8793924Y-11095838D01*
X8860591Y-11095838D02*
X8917733Y-11095838D01*
X8889162Y-11195838D02*
X8889162Y-11095838D01*
D12*
X6201600Y-6794088D02*
X6201600Y-6694088D01*
X6301600Y-6698850D02*
X6292076Y-6694088D01*
X6277790Y-6694088D01*
X6263505Y-6698850D01*
X6253981Y-6708374D01*
X6249219Y-6717898D01*
X6244457Y-6736945D01*
X6244457Y-6751231D01*
X6249219Y-6770279D01*
X6253981Y-6779802D01*
X6263505Y-6789326D01*
X6277790Y-6794088D01*
X6287314Y-6794088D01*
X6301600Y-6789326D01*
X6306362Y-6784564D01*
X6306362Y-6751231D01*
X6287314Y-6751231D01*
X6349219Y-6794088D02*
X6349219Y-6694088D01*
X6406362Y-6794088D01*
X6406362Y-6694088D01*
X6473028Y-6694088D02*
X6492076Y-6694088D01*
X6501600Y-6698850D01*
X6511124Y-6708374D01*
X6515886Y-6727421D01*
X6515886Y-6760755D01*
X6511124Y-6779802D01*
X6501600Y-6789326D01*
X6492076Y-6794088D01*
X6473028Y-6794088D01*
X6463505Y-6789326D01*
X6453981Y-6779802D01*
X6449219Y-6760755D01*
X6449219Y-6727421D01*
X6453981Y-6708374D01*
X6463505Y-6698850D01*
X6473028Y-6694088D01*
X6615886Y-6794088D02*
X6582552Y-6746469D01*
X6558743Y-6794088D02*
X6558743Y-6694088D01*
X6596838Y-6694088D01*
X6606362Y-6698850D01*
X6611124Y-6703612D01*
X6615886Y-6713136D01*
X6615886Y-6727421D01*
X6611124Y-6736945D01*
X6606362Y-6741707D01*
X6596838Y-6746469D01*
X6558743Y-6746469D01*
X6658743Y-6741707D02*
X6692076Y-6741707D01*
X6706362Y-6794088D02*
X6658743Y-6794088D01*
X6658743Y-6694088D01*
X6706362Y-6694088D01*
X6108743Y-6909207D02*
X6075409Y-6909207D01*
X6075409Y-6961588D02*
X6075409Y-6861588D01*
X6123029Y-6861588D01*
X6156362Y-6933017D02*
X6203981Y-6933017D01*
X6146838Y-6961588D02*
X6180171Y-6861588D01*
X6213505Y-6961588D01*
X6246838Y-6861588D02*
X6246838Y-6942540D01*
X6251600Y-6952064D01*
X6256362Y-6956826D01*
X6265886Y-6961588D01*
X6284933Y-6961588D01*
X6294457Y-6956826D01*
X6299219Y-6952064D01*
X6303981Y-6942540D01*
X6303981Y-6861588D01*
X6399219Y-6961588D02*
X6351600Y-6961588D01*
X6351600Y-6861588D01*
X6418267Y-6861588D02*
X6475410Y-6861588D01*
X6446838Y-6961588D02*
X6446838Y-6861588D01*
X6613505Y-6861588D02*
X6613505Y-6933017D01*
X6608743Y-6947302D01*
X6599219Y-6956826D01*
X6584933Y-6961588D01*
X6575410Y-6961588D01*
X6661124Y-6961588D02*
X6661124Y-6861588D01*
X6694457Y-6933017D01*
X6727791Y-6861588D01*
X6727791Y-6961588D01*
X6775410Y-6961588D02*
X6775410Y-6861588D01*
X6813505Y-6861588D01*
X6823029Y-6866350D01*
X6827791Y-6871112D01*
X6832552Y-6880636D01*
X6832552Y-6894921D01*
X6827791Y-6904445D01*
X6823029Y-6909207D01*
X6813505Y-6913969D01*
X6775410Y-6913969D01*
D11*
X7835900Y-9893300D02*
X7962900Y-9893300D01*
X5862667Y-11195838D02*
X5862667Y-11095838D01*
X5862667Y-11143457D02*
X5919810Y-11143457D01*
X5919810Y-11195838D02*
X5919810Y-11095838D01*
X5953143Y-11095838D02*
X5986476Y-11195838D01*
X6019810Y-11095838D01*
X6053143Y-11195838D02*
X6053143Y-11095838D01*
X6086476Y-11167267D01*
X6119810Y-11095838D01*
X6119810Y-11195838D01*
X6186476Y-11095838D02*
X6205524Y-11095838D01*
X6215048Y-11100600D01*
X6224571Y-11110124D01*
X6229333Y-11129171D01*
X6229333Y-11162505D01*
X6224571Y-11181552D01*
X6215048Y-11191076D01*
X6205524Y-11195838D01*
X6186476Y-11195838D01*
X6176952Y-11191076D01*
X6167429Y-11181552D01*
X6162667Y-11162505D01*
X6162667Y-11129171D01*
X6167429Y-11110124D01*
X6176952Y-11100600D01*
X6186476Y-11095838D01*
X6272190Y-11195838D02*
X6272190Y-11095838D01*
X6329333Y-11195838D01*
X6329333Y-11095838D01*
D13*
X4124639Y-5508908D02*
X4124639Y-5408908D01*
X4134163Y-5470813D02*
X4162735Y-5508908D01*
X4162735Y-5442241D02*
X4124639Y-5480337D01*
X4219878Y-5508908D02*
X4210354Y-5504146D01*
X4205592Y-5499384D01*
X4200830Y-5489861D01*
X4200830Y-5461289D01*
X4205592Y-5451765D01*
X4210354Y-5447003D01*
X4219878Y-5442241D01*
X4234163Y-5442241D01*
X4243687Y-5447003D01*
X4248449Y-5451765D01*
X4253211Y-5461289D01*
X4253211Y-5489861D01*
X4248449Y-5499384D01*
X4243687Y-5504146D01*
X4234163Y-5508908D01*
X4219878Y-5508908D01*
X4338925Y-5508908D02*
X4338925Y-5408908D01*
X4338925Y-5504146D02*
X4329402Y-5508908D01*
X4310354Y-5508908D01*
X4300830Y-5504146D01*
X4296068Y-5499384D01*
X4291306Y-5489861D01*
X4291306Y-5461289D01*
X4296068Y-5451765D01*
X4300830Y-5447003D01*
X4310354Y-5442241D01*
X4329402Y-5442241D01*
X4338925Y-5447003D01*
X4386544Y-5508908D02*
X4386544Y-5442241D01*
X4386544Y-5408908D02*
X4381782Y-5413670D01*
X4386544Y-5418432D01*
X4391306Y-5413670D01*
X4386544Y-5408908D01*
X4386544Y-5418432D01*
X4477021Y-5508908D02*
X4477021Y-5456527D01*
X4472259Y-5447003D01*
X4462735Y-5442241D01*
X4443687Y-5442241D01*
X4434163Y-5447003D01*
X4477021Y-5504146D02*
X4467497Y-5508908D01*
X4443687Y-5508908D01*
X4434163Y-5504146D01*
X4429401Y-5494622D01*
X4429401Y-5485099D01*
X4434163Y-5475575D01*
X4443687Y-5470813D01*
X4467497Y-5470813D01*
X4477021Y-5466051D01*
X4524640Y-5508908D02*
X4524640Y-5408908D01*
X4534163Y-5470813D02*
X4562735Y-5508908D01*
X4562735Y-5442241D02*
X4524640Y-5480337D01*
X4724640Y-5504146D02*
X4715116Y-5508908D01*
X4696068Y-5508908D01*
X4686544Y-5504146D01*
X4681782Y-5499384D01*
X4677021Y-5489861D01*
X4677021Y-5461289D01*
X4681782Y-5451765D01*
X4686544Y-5447003D01*
X4696068Y-5442241D01*
X4715116Y-5442241D01*
X4724640Y-5447003D01*
X4781782Y-5508908D02*
X4772259Y-5504146D01*
X4767497Y-5499384D01*
X4762735Y-5489861D01*
X4762735Y-5461289D01*
X4767497Y-5451765D01*
X4772259Y-5447003D01*
X4781782Y-5442241D01*
X4796068Y-5442241D01*
X4805592Y-5447003D01*
X4810354Y-5451765D01*
X4815116Y-5461289D01*
X4815116Y-5489861D01*
X4810354Y-5499384D01*
X4805592Y-5504146D01*
X4796068Y-5508908D01*
X4781782Y-5508908D01*
X4857973Y-5442241D02*
X4857973Y-5508908D01*
X4857973Y-5451765D02*
X4862735Y-5447003D01*
X4872259Y-5442241D01*
X4886544Y-5442241D01*
X4896068Y-5447003D01*
X4900830Y-5456527D01*
X4900830Y-5508908D01*
X4934163Y-5442241D02*
X4972259Y-5442241D01*
X4948449Y-5408908D02*
X4948449Y-5494622D01*
X4953211Y-5504146D01*
X4962735Y-5508908D01*
X4972259Y-5508908D01*
X5005592Y-5508908D02*
X5005592Y-5442241D01*
X5005592Y-5461289D02*
X5010354Y-5451765D01*
X5015116Y-5447003D01*
X5024640Y-5442241D01*
X5034164Y-5442241D01*
X5081783Y-5508908D02*
X5072259Y-5504146D01*
X5067497Y-5499384D01*
X5062735Y-5489861D01*
X5062735Y-5461289D01*
X5067497Y-5451765D01*
X5072259Y-5447003D01*
X5081783Y-5442241D01*
X5096068Y-5442241D01*
X5105592Y-5447003D01*
X5110354Y-5451765D01*
X5115116Y-5461289D01*
X5115116Y-5489861D01*
X5110354Y-5499384D01*
X5105592Y-5504146D01*
X5096068Y-5508908D01*
X5081783Y-5508908D01*
X5172259Y-5508908D02*
X5162735Y-5504146D01*
X5157973Y-5494622D01*
X5157973Y-5408908D01*
X4124639Y-5683908D02*
X4124639Y-5617241D01*
X4124639Y-5636289D02*
X4129401Y-5626765D01*
X4134163Y-5622003D01*
X4143687Y-5617241D01*
X4153211Y-5617241D01*
X4177020Y-5583908D02*
X4238925Y-5583908D01*
X4205592Y-5622003D01*
X4219878Y-5622003D01*
X4229402Y-5626765D01*
X4234163Y-5631527D01*
X4238925Y-5641051D01*
X4238925Y-5664860D01*
X4234163Y-5674384D01*
X4229402Y-5679146D01*
X4219878Y-5683908D01*
X4191306Y-5683908D01*
X4181782Y-5679146D01*
X4177020Y-5674384D01*
X4353211Y-5593432D02*
X4357973Y-5588670D01*
X4367497Y-5583908D01*
X4391306Y-5583908D01*
X4400830Y-5588670D01*
X4405592Y-5593432D01*
X4410354Y-5602956D01*
X4410354Y-5612479D01*
X4405592Y-5626765D01*
X4348449Y-5683908D01*
X4410354Y-5683908D01*
X4472259Y-5583908D02*
X4481783Y-5583908D01*
X4491306Y-5588670D01*
X4496068Y-5593432D01*
X4500830Y-5602956D01*
X4505592Y-5622003D01*
X4505592Y-5645813D01*
X4500830Y-5664860D01*
X4496068Y-5674384D01*
X4491306Y-5679146D01*
X4481783Y-5683908D01*
X4472259Y-5683908D01*
X4462735Y-5679146D01*
X4457973Y-5674384D01*
X4453211Y-5664860D01*
X4448449Y-5645813D01*
X4448449Y-5622003D01*
X4453211Y-5602956D01*
X4457973Y-5593432D01*
X4462735Y-5588670D01*
X4472259Y-5583908D01*
X4600830Y-5683908D02*
X4543687Y-5683908D01*
X4572259Y-5683908D02*
X4572259Y-5583908D01*
X4562735Y-5598194D01*
X4553211Y-5607718D01*
X4543687Y-5612479D01*
X4634163Y-5583908D02*
X4700830Y-5583908D01*
X4657973Y-5683908D01*
D11*
X7470598Y-7874000D02*
G75*
G03X7470598Y-7874000I-28398J0D01*
G01*
D14*
X8661400Y-6324600D02*
X8661400Y-6578600D01*
X8661400Y-6578600D02*
X6121400Y-6578600D01*
X6121400Y-6578600D02*
X6121400Y-6324600D01*
X6121400Y-6324600D02*
X8661400Y-6324600D01*
X8407400Y-6324600D02*
X8407400Y-6578600D01*
D15*
X7524750Y-9188450D02*
X8020050Y-9188450D01*
X8020050Y-9188450D02*
X8020050Y-8794750D01*
X8020050Y-8794750D02*
X7524750Y-8794750D01*
X7524750Y-8794750D02*
X7524750Y-9188450D01*
X7616648Y-9124950D02*
G75*
G03X7616648Y-9124950I-28398J0D01*
G01*
X6083300Y-9613900D02*
X6083300Y-9436100D01*
X6083300Y-9436100D02*
X6388100Y-9436100D01*
X6388100Y-9436100D02*
X6388100Y-9613900D01*
X6388100Y-9613900D02*
X6083300Y-9613900D01*
X7429500Y-7734300D02*
X7378700Y-7810500D01*
X7429500Y-7556500D02*
X7429500Y-7816850D01*
X7429500Y-7816850D02*
X7277100Y-7816850D01*
X7277100Y-7816850D02*
X7277100Y-7556500D01*
X7277100Y-7556500D02*
X7429500Y-7556500D01*
X8229600Y-7886700D02*
X8051800Y-7886700D01*
X8051800Y-7886700D02*
X8051800Y-7581900D01*
X8051800Y-7581900D02*
X8229600Y-7581900D01*
X8229600Y-7581900D02*
X8229600Y-7886700D01*
X7950200Y-7505700D02*
X7772400Y-7505700D01*
X7772400Y-7505700D02*
X7772400Y-7200900D01*
X7772400Y-7200900D02*
X7950200Y-7200900D01*
X7950200Y-7200900D02*
X7950200Y-7505700D01*
D16*
X9715500Y-8407400D02*
X9829800Y-8407400D01*
X9715500Y-8102600D02*
X9829800Y-8102600D01*
X9829800Y-7721600D02*
X10198100Y-7721600D01*
X10198100Y-7721600D02*
X10198100Y-8788400D01*
X10198100Y-8788400D02*
X9829800Y-8788400D01*
X9715500Y-7721600D02*
X9829800Y-7721600D01*
X9829800Y-7721600D02*
X9829800Y-8788400D01*
X9829800Y-8788400D02*
X9715500Y-8788400D01*
X9715500Y-8255000D02*
X9715500Y-8788400D01*
X9715500Y-8255000D02*
X9715500Y-7721600D01*
D10*
X6187800Y-5345500D02*
X6187800Y-6234500D01*
X6187800Y-6234500D02*
X7267300Y-6234500D01*
X7267300Y-6234500D02*
X7267300Y-6171000D01*
X7521300Y-6171000D02*
X7521300Y-6234500D01*
X7521300Y-6234500D02*
X8600800Y-6234500D01*
X8600800Y-6234500D02*
X8600800Y-5409000D01*
X8600800Y-5409000D02*
X8600800Y-5345500D01*
X8600800Y-5345500D02*
X6378300Y-5345500D01*
X6378300Y-5345500D02*
X6187800Y-5345500D01*
X7521300Y-6171000D02*
X7267300Y-6171000D01*
X6251300Y-5409000D02*
X8537300Y-5409000D01*
X8537300Y-5409000D02*
X8537300Y-6171000D01*
X8537300Y-6171000D02*
X6251300Y-6171000D01*
X6251300Y-5409000D02*
X6251300Y-6171000D01*
X5854700Y-5803900D02*
G75*
G03X5854700Y-5803900I-12700J0D01*
G01*
X5842000Y-5918200D02*
X5842000Y-5816600D01*
X5842000Y-5816600D02*
X5994400Y-5816600D01*
X5994400Y-5816600D02*
X5994400Y-5918200D01*
X5994400Y-6019800D02*
X5994400Y-6121400D01*
X5994400Y-6121400D02*
X5842000Y-6121400D01*
X5842000Y-6121400D02*
X5842000Y-6019800D01*
X5753100Y-6134100D02*
G75*
G03X5753100Y-6134100I-12700J0D01*
G01*
X5740400Y-6019800D02*
X5740400Y-6121400D01*
X5740400Y-6121400D02*
X5588000Y-6121400D01*
X5588000Y-6121400D02*
X5588000Y-6019800D01*
X5588000Y-5918200D02*
X5588000Y-5816600D01*
X5588000Y-5816600D02*
X5740400Y-5816600D01*
X5740400Y-5816600D02*
X5740400Y-5918200D01*
D15*
X5981700Y-5651500D02*
X5854700Y-5651500D01*
X5981700Y-5524500D02*
X5857240Y-5524500D01*
X5981700Y-5486400D02*
X5981700Y-5689600D01*
X5981700Y-5689600D02*
X5854700Y-5689600D01*
X5854700Y-5689600D02*
X5854700Y-5486400D01*
X5854700Y-5486400D02*
X5981700Y-5486400D01*
X5803900Y-8445500D02*
X5676900Y-8445500D01*
X5803900Y-8318500D02*
X5679440Y-8318500D01*
X5803900Y-8280400D02*
X5803900Y-8483600D01*
X5803900Y-8483600D02*
X5676900Y-8483600D01*
X5676900Y-8483600D02*
X5676900Y-8280400D01*
X5676900Y-8280400D02*
X5803900Y-8280400D01*
X4737100Y-7404100D02*
X4610100Y-7404100D01*
X4737100Y-7277100D02*
X4612640Y-7277100D01*
X4737100Y-7239000D02*
X4737100Y-7442200D01*
X4737100Y-7442200D02*
X4610100Y-7442200D01*
X4610100Y-7442200D02*
X4610100Y-7239000D01*
X4610100Y-7239000D02*
X4737100Y-7239000D01*
X6464300Y-8470900D02*
X6337300Y-8470900D01*
X6464300Y-8343900D02*
X6339840Y-8343900D01*
X6464300Y-8305800D02*
X6464300Y-8509000D01*
X6464300Y-8509000D02*
X6337300Y-8509000D01*
X6337300Y-8509000D02*
X6337300Y-8305800D01*
X6337300Y-8305800D02*
X6464300Y-8305800D01*
D10*
X8648700Y-9499600D02*
X8648700Y-9321800D01*
X8648700Y-9321800D02*
X8712200Y-9258300D01*
X8712200Y-9258300D02*
X9067800Y-9258300D01*
X9067800Y-9258300D02*
X9131300Y-9321800D01*
X9131300Y-9321800D02*
X9131300Y-9677400D01*
X9131300Y-9677400D02*
X9067800Y-9740900D01*
X9067800Y-9740900D02*
X8712200Y-9740900D01*
X8712200Y-9740900D02*
X8648700Y-9677400D01*
X8648700Y-9677400D02*
X8648700Y-9499600D01*
X6100122Y-9042400D02*
G75*
G03X6100122Y-9042400I-80322J0D01*
G01*
X5934800Y-8332000D02*
X5934800Y-8432000D01*
X6104800Y-8432000D02*
X6104800Y-8332000D01*
X8586800Y-8992500D02*
X8786800Y-8992500D01*
X8786800Y-8787500D02*
X8586800Y-8787500D01*
X8840800Y-7062100D02*
X9040800Y-7062100D01*
X9040800Y-6857100D02*
X8840800Y-6857100D01*
X4479200Y-7390600D02*
X4479200Y-7290600D01*
X4309200Y-7290600D02*
X4309200Y-7390600D01*
X8700300Y-8594000D02*
X8800300Y-8594000D01*
X8800300Y-8424000D02*
X8700300Y-8424000D01*
X8941600Y-7374800D02*
X9041600Y-7374800D01*
X9041600Y-7204800D02*
X8941600Y-7204800D01*
X7860500Y-6938100D02*
X7760500Y-6938100D01*
X7760500Y-7108100D02*
X7860500Y-7108100D01*
X6625500Y-9575000D02*
X6625500Y-9475000D01*
X6455500Y-9475000D02*
X6455500Y-9575000D01*
X8136800Y-8279600D02*
X8136800Y-8179600D01*
X7966800Y-8179600D02*
X7966800Y-8279600D01*
X7306400Y-8586000D02*
X7306400Y-8686000D01*
X7476400Y-8686000D02*
X7476400Y-8586000D01*
X6879500Y-9575000D02*
X6879500Y-9475000D01*
X6709500Y-9475000D02*
X6709500Y-9575000D01*
X7120800Y-9575000D02*
X7120800Y-9475000D01*
X6950800Y-9475000D02*
X6950800Y-9575000D01*
X8119200Y-7112800D02*
X8119200Y-7212800D01*
X8289200Y-7212800D02*
X8289200Y-7112800D01*
X7504900Y-8157300D02*
X7404900Y-8157300D01*
X7404900Y-8327300D02*
X7504900Y-8327300D01*
X5767460Y-9408940D02*
X5767460Y-9218940D01*
X5657460Y-9408940D02*
X5657460Y-9218940D01*
X5712460Y-9318940D02*
X5712460Y-9273940D01*
X5687460Y-9323940D02*
X5737460Y-9323940D01*
X5712460Y-9323940D02*
X5687460Y-9298940D01*
X5687460Y-9298940D02*
X5737460Y-9298940D01*
X5737460Y-9298940D02*
X5712460Y-9323940D01*
X6781800Y-10718800D02*
X7645400Y-10718800D01*
X7645400Y-10795000D02*
X7645400Y-10718800D01*
X6781800Y-10795000D02*
X7645400Y-10795000D01*
X6781800Y-10287000D02*
X6781800Y-10795000D01*
X7645400Y-10287000D02*
X6781800Y-10287000D01*
X7645400Y-10718800D02*
X7645400Y-10287000D01*
X7340600Y-10845800D02*
X7340600Y-10718800D01*
X7086600Y-10845800D02*
X7340600Y-10845800D01*
X7086600Y-10718800D02*
X7086600Y-10845800D01*
X6858000Y-7289800D02*
X5994400Y-7289800D01*
X5994400Y-7213600D02*
X5994400Y-7289800D01*
X6858000Y-7213600D02*
X5994400Y-7213600D01*
X6858000Y-7721600D02*
X6858000Y-7213600D01*
X5994400Y-7721600D02*
X6858000Y-7721600D01*
X5994400Y-7289800D02*
X5994400Y-7721600D01*
X6299200Y-7162800D02*
X6299200Y-7289800D01*
X6553200Y-7162800D02*
X6299200Y-7162800D01*
X6553200Y-7289800D02*
X6553200Y-7162800D01*
X5016500Y-8839200D02*
X5016500Y-9702800D01*
X4940300Y-9702800D02*
X5016500Y-9702800D01*
X4940300Y-8839200D02*
X4940300Y-9702800D01*
X5448300Y-8839200D02*
X4940300Y-8839200D01*
X5448300Y-9702800D02*
X5448300Y-8839200D01*
X5016500Y-9702800D02*
X5448300Y-9702800D01*
X4889500Y-9398000D02*
X5016500Y-9398000D01*
X4889500Y-9144000D02*
X4889500Y-9398000D01*
X5016500Y-9144000D02*
X4889500Y-9144000D01*
X3746500Y-8839200D02*
X3746500Y-9702800D01*
X3670300Y-9702800D02*
X3746500Y-9702800D01*
X3670300Y-8839200D02*
X3670300Y-9702800D01*
X4178300Y-8839200D02*
X3670300Y-8839200D01*
X4178300Y-9702800D02*
X4178300Y-8839200D01*
X3746500Y-9702800D02*
X4178300Y-9702800D01*
X3619500Y-9398000D02*
X3746500Y-9398000D01*
X3619500Y-9144000D02*
X3619500Y-9398000D01*
X3746500Y-9144000D02*
X3619500Y-9144000D01*
X10033000Y-10388600D02*
X10033000Y-9525000D01*
X10109200Y-9525000D02*
X10033000Y-9525000D01*
X10109200Y-10388600D02*
X10109200Y-9525000D01*
X9601200Y-10388600D02*
X10109200Y-10388600D01*
X9601200Y-9525000D02*
X9601200Y-10388600D01*
X10033000Y-9525000D02*
X9601200Y-9525000D01*
X10160000Y-9829800D02*
X10033000Y-9829800D01*
X10160000Y-10083800D02*
X10160000Y-9829800D01*
X10033000Y-10083800D02*
X10160000Y-10083800D01*
X10033000Y-7035800D02*
X10033000Y-6172200D01*
X10109200Y-6172200D02*
X10033000Y-6172200D01*
X10109200Y-7035800D02*
X10109200Y-6172200D01*
X9601200Y-7035800D02*
X10109200Y-7035800D01*
X9601200Y-6172200D02*
X9601200Y-7035800D01*
X10033000Y-6172200D02*
X9601200Y-6172200D01*
X10160000Y-6477000D02*
X10033000Y-6477000D01*
X10160000Y-6731000D02*
X10160000Y-6477000D01*
X10033000Y-6731000D02*
X10160000Y-6731000D01*
X5016500Y-7569200D02*
X5016500Y-8432800D01*
X4940300Y-8432800D02*
X5016500Y-8432800D01*
X4940300Y-7569200D02*
X4940300Y-8432800D01*
X5448300Y-7569200D02*
X4940300Y-7569200D01*
X5448300Y-8432800D02*
X5448300Y-7569200D01*
X5016500Y-8432800D02*
X5448300Y-8432800D01*
X4889500Y-8128000D02*
X5016500Y-8128000D01*
X4889500Y-7874000D02*
X4889500Y-8128000D01*
X5016500Y-7874000D02*
X4889500Y-7874000D01*
X3746500Y-7569200D02*
X3746500Y-8432800D01*
X3670300Y-8432800D02*
X3746500Y-8432800D01*
X3670300Y-7569200D02*
X3670300Y-8432800D01*
X4178300Y-7569200D02*
X3670300Y-7569200D01*
X4178300Y-8432800D02*
X4178300Y-7569200D01*
X3746500Y-8432800D02*
X4178300Y-8432800D01*
X3619500Y-8128000D02*
X3746500Y-8128000D01*
X3619500Y-7874000D02*
X3619500Y-8128000D01*
X3746500Y-7874000D02*
X3619500Y-7874000D01*
X5524500Y-10718800D02*
X6388100Y-10718800D01*
X6388100Y-10795000D02*
X6388100Y-10718800D01*
X5524500Y-10795000D02*
X6388100Y-10795000D01*
X5524500Y-10287000D02*
X5524500Y-10795000D01*
X6388100Y-10287000D02*
X5524500Y-10287000D01*
X6388100Y-10718800D02*
X6388100Y-10287000D01*
X6083300Y-10845800D02*
X6083300Y-10718800D01*
X5829300Y-10845800D02*
X6083300Y-10845800D01*
X5829300Y-10718800D02*
X5829300Y-10845800D01*
X5016500Y-6299200D02*
X5016500Y-7162800D01*
X4940300Y-7162800D02*
X5016500Y-7162800D01*
X4940300Y-6299200D02*
X4940300Y-7162800D01*
X5448300Y-6299200D02*
X4940300Y-6299200D01*
X5448300Y-7162800D02*
X5448300Y-6299200D01*
X5016500Y-7162800D02*
X5448300Y-7162800D01*
X4889500Y-6858000D02*
X5016500Y-6858000D01*
X4889500Y-6604000D02*
X4889500Y-6858000D01*
X5016500Y-6604000D02*
X4889500Y-6604000D01*
X3746500Y-6299200D02*
X3746500Y-7162800D01*
X3670300Y-7162800D02*
X3746500Y-7162800D01*
X3670300Y-6299200D02*
X3670300Y-7162800D01*
X4178300Y-6299200D02*
X3670300Y-6299200D01*
X4178300Y-7162800D02*
X4178300Y-6299200D01*
X3746500Y-7162800D02*
X4178300Y-7162800D01*
X3619500Y-6858000D02*
X3746500Y-6858000D01*
X3619500Y-6604000D02*
X3619500Y-6858000D01*
X3746500Y-6604000D02*
X3619500Y-6604000D01*
X8064500Y-10718800D02*
X8928100Y-10718800D01*
X8928100Y-10795000D02*
X8928100Y-10718800D01*
X8064500Y-10795000D02*
X8928100Y-10795000D01*
X8064500Y-10287000D02*
X8064500Y-10795000D01*
X8928100Y-10287000D02*
X8064500Y-10287000D01*
X8928100Y-10718800D02*
X8928100Y-10287000D01*
X8623300Y-10845800D02*
X8623300Y-10718800D01*
X8369300Y-10845800D02*
X8623300Y-10845800D01*
X8369300Y-10718800D02*
X8369300Y-10845800D01*
X4254500Y-10718800D02*
X5118100Y-10718800D01*
X5118100Y-10795000D02*
X5118100Y-10718800D01*
X4254500Y-10795000D02*
X5118100Y-10795000D01*
X4254500Y-10287000D02*
X4254500Y-10795000D01*
X5118100Y-10287000D02*
X4254500Y-10287000D01*
X5118100Y-10718800D02*
X5118100Y-10287000D01*
X4813300Y-10845800D02*
X4813300Y-10718800D01*
X4559300Y-10845800D02*
X4813300Y-10845800D01*
X4559300Y-10718800D02*
X4559300Y-10845800D01*
X6462900Y-8880800D02*
X6462900Y-9000800D01*
X6287900Y-9000800D02*
X6287900Y-8880800D01*
X9434700Y-7306000D02*
X9434700Y-7426000D01*
X9259700Y-7426000D02*
X9259700Y-7306000D01*
X7915600Y-9742300D02*
X8035600Y-9742300D01*
X8035600Y-9917300D02*
X7915600Y-9917300D01*
X7583300Y-9966000D02*
X7583300Y-9846000D01*
X7758300Y-9846000D02*
X7758300Y-9966000D01*
X7712400Y-9539100D02*
X7832400Y-9539100D01*
X7832400Y-9714100D02*
X7712400Y-9714100D01*
X8093400Y-9539100D02*
X8213400Y-9539100D01*
X8213400Y-9714100D02*
X8093400Y-9714100D01*
X6491100Y-9000800D02*
X6491100Y-8880800D01*
X6666100Y-8880800D02*
X6666100Y-9000800D01*
X6620200Y-8523100D02*
X6740200Y-8523100D01*
X6740200Y-8698100D02*
X6620200Y-8698100D01*
X6894700Y-8880800D02*
X6894700Y-9000800D01*
X6719700Y-9000800D02*
X6719700Y-8880800D01*
X7514900Y-8101200D02*
X7394900Y-8101200D01*
X7394900Y-7926200D02*
X7514900Y-7926200D01*
X9005700Y-8264200D02*
X9005700Y-8144200D01*
X9180700Y-8144200D02*
X9180700Y-8264200D01*
X8777100Y-8086400D02*
X8777100Y-7966400D01*
X8952100Y-7966400D02*
X8952100Y-8086400D01*
X9005700Y-7883200D02*
X9005700Y-7763200D01*
X9180700Y-7763200D02*
X9180700Y-7883200D01*
X7834500Y-8271200D02*
X7834500Y-8391200D01*
X7659500Y-8391200D02*
X7659500Y-8271200D01*
X7133900Y-8126600D02*
X7013900Y-8126600D01*
X7013900Y-7951600D02*
X7133900Y-7951600D01*
X5204590Y-5825800D02*
X5204590Y-5705800D01*
X5379590Y-5705800D02*
X5379590Y-5825800D01*
X5799960Y-9554920D02*
X5799960Y-9674920D01*
X5624960Y-9674920D02*
X5624960Y-9554920D01*
X5691180Y-5677680D02*
X5691180Y-5522680D01*
X5571180Y-5677680D02*
X5571180Y-5522680D01*
X7172320Y-7133280D02*
X7017320Y-7133280D01*
X7172320Y-7253280D02*
X7017320Y-7253280D01*
X7463300Y-7125660D02*
X7308300Y-7125660D01*
X7463300Y-7245660D02*
X7308300Y-7245660D01*
X5355900Y-6091550D02*
X5355900Y-5936550D01*
X5235900Y-6091550D02*
X5235900Y-5936550D01*
X4499300Y-8014340D02*
X4499300Y-8169340D01*
X4619300Y-8014340D02*
X4619300Y-8169340D01*
X4611060Y-6743220D02*
X4611060Y-6898220D01*
X4731060Y-6743220D02*
X4731060Y-6898220D01*
X9766300Y-5519420D02*
X8902700Y-5519420D01*
X8902700Y-5443220D02*
X8902700Y-5519420D01*
X9766300Y-5443220D02*
X8902700Y-5443220D01*
X9766300Y-5951220D02*
X9766300Y-5443220D01*
X8902700Y-5951220D02*
X9766300Y-5951220D01*
X8902700Y-5519420D02*
X8902700Y-5951220D01*
X9207500Y-5392420D02*
X9207500Y-5519420D01*
X9461500Y-5392420D02*
X9207500Y-5392420D01*
X9461500Y-5519420D02*
X9461500Y-5392420D01*
D12*
X8758400Y-6376914D02*
X8758400Y-6441200D01*
X8754114Y-6454057D01*
X8745543Y-6462629D01*
X8732686Y-6466914D01*
X8724114Y-6466914D01*
X8844114Y-6376914D02*
X8801257Y-6376914D01*
X8796972Y-6419771D01*
X8801257Y-6415486D01*
X8809829Y-6411200D01*
X8831257Y-6411200D01*
X8839829Y-6415486D01*
X8844114Y-6419771D01*
X8848400Y-6428343D01*
X8848400Y-6449771D01*
X8844114Y-6458343D01*
X8839829Y-6462629D01*
X8831257Y-6466914D01*
X8809829Y-6466914D01*
X8801257Y-6462629D01*
X8796972Y-6458343D01*
X7349734Y-9344651D02*
X7422591Y-9344651D01*
X7431163Y-9340366D01*
X7435449Y-9336080D01*
X7439734Y-9327509D01*
X7439734Y-9310366D01*
X7435449Y-9301794D01*
X7431163Y-9297509D01*
X7422591Y-9293223D01*
X7349734Y-9293223D01*
X7439734Y-9246080D02*
X7439734Y-9228937D01*
X7435449Y-9220366D01*
X7431163Y-9216080D01*
X7418306Y-9207509D01*
X7401163Y-9203223D01*
X7366877Y-9203223D01*
X7358306Y-9207509D01*
X7354020Y-9211794D01*
X7349734Y-9220366D01*
X7349734Y-9237509D01*
X7354020Y-9246080D01*
X7358306Y-9250366D01*
X7366877Y-9254651D01*
X7388306Y-9254651D01*
X7396877Y-9250366D01*
X7401163Y-9246080D01*
X7405449Y-9237509D01*
X7405449Y-9220366D01*
X7401163Y-9211794D01*
X7396877Y-9207509D01*
X7388306Y-9203223D01*
X6128081Y-9739874D02*
X6128081Y-9812731D01*
X6132367Y-9821303D01*
X6136653Y-9825589D01*
X6145224Y-9829874D01*
X6162367Y-9829874D01*
X6170939Y-9825589D01*
X6175224Y-9821303D01*
X6179510Y-9812731D01*
X6179510Y-9739874D01*
X6269510Y-9829874D02*
X6218081Y-9829874D01*
X6243796Y-9829874D02*
X6243796Y-9739874D01*
X6235224Y-9752731D01*
X6226653Y-9761303D01*
X6218081Y-9765589D01*
X6355224Y-9829874D02*
X6303796Y-9829874D01*
X6329510Y-9829874D02*
X6329510Y-9739874D01*
X6320939Y-9752731D01*
X6312367Y-9761303D01*
X6303796Y-9765589D01*
X7348229Y-7418314D02*
X7348229Y-7491171D01*
X7352514Y-7499743D01*
X7356800Y-7504029D01*
X7365371Y-7508314D01*
X7382514Y-7508314D01*
X7391086Y-7504029D01*
X7395371Y-7499743D01*
X7399657Y-7491171D01*
X7399657Y-7418314D01*
X7433943Y-7418314D02*
X7493943Y-7418314D01*
X7455371Y-7508314D01*
X8135629Y-7926314D02*
X8135629Y-7999171D01*
X8139914Y-8007743D01*
X8144200Y-8012029D01*
X8152771Y-8016314D01*
X8169914Y-8016314D01*
X8178486Y-8012029D01*
X8182771Y-8007743D01*
X8187057Y-7999171D01*
X8187057Y-7926314D01*
X8268486Y-7926314D02*
X8251343Y-7926314D01*
X8242771Y-7930600D01*
X8238486Y-7934886D01*
X8229914Y-7947743D01*
X8225629Y-7964886D01*
X8225629Y-7999171D01*
X8229914Y-8007743D01*
X8234200Y-8012029D01*
X8242771Y-8016314D01*
X8259914Y-8016314D01*
X8268486Y-8012029D01*
X8272771Y-8007743D01*
X8277057Y-7999171D01*
X8277057Y-7977743D01*
X8272771Y-7969171D01*
X8268486Y-7964886D01*
X8259914Y-7960600D01*
X8242771Y-7960600D01*
X8234200Y-7964886D01*
X8229914Y-7969171D01*
X8225629Y-7977743D01*
X8005054Y-7121828D02*
X8077911Y-7121828D01*
X8086483Y-7117543D01*
X8090769Y-7113257D01*
X8095054Y-7104686D01*
X8095054Y-7087543D01*
X8090769Y-7078971D01*
X8086483Y-7074686D01*
X8077911Y-7070400D01*
X8005054Y-7070400D01*
X8095054Y-6980400D02*
X8095054Y-7031828D01*
X8095054Y-7006114D02*
X8005054Y-7006114D01*
X8017911Y-7014686D01*
X8026483Y-7023257D01*
X8030769Y-7031828D01*
X8005054Y-6924686D02*
X8005054Y-6916114D01*
X8009340Y-6907543D01*
X8013626Y-6903257D01*
X8022197Y-6898971D01*
X8039340Y-6894686D01*
X8060769Y-6894686D01*
X8077911Y-6898971D01*
X8086483Y-6903257D01*
X8090769Y-6907543D01*
X8095054Y-6916114D01*
X8095054Y-6924686D01*
X8090769Y-6933257D01*
X8086483Y-6937543D01*
X8077911Y-6941828D01*
X8060769Y-6946114D01*
X8039340Y-6946114D01*
X8022197Y-6941828D01*
X8013626Y-6937543D01*
X8009340Y-6933257D01*
X8005054Y-6924686D01*
X9845372Y-8866114D02*
X9845372Y-8938971D01*
X9849657Y-8947543D01*
X9853943Y-8951829D01*
X9862514Y-8956114D01*
X9879657Y-8956114D01*
X9888229Y-8951829D01*
X9892514Y-8947543D01*
X9896800Y-8938971D01*
X9896800Y-8866114D01*
X9986800Y-8956114D02*
X9935372Y-8956114D01*
X9961086Y-8956114D02*
X9961086Y-8866114D01*
X9952514Y-8878971D01*
X9943943Y-8887543D01*
X9935372Y-8891829D01*
X10021086Y-8874686D02*
X10025372Y-8870400D01*
X10033943Y-8866114D01*
X10055372Y-8866114D01*
X10063943Y-8870400D01*
X10068229Y-8874686D01*
X10072514Y-8883257D01*
X10072514Y-8891829D01*
X10068229Y-8904686D01*
X10016800Y-8956114D01*
X10072514Y-8956114D01*
X6144334Y-5758568D02*
X6054334Y-5758568D01*
X6054334Y-5724283D01*
X6058620Y-5715711D01*
X6062906Y-5711426D01*
X6071477Y-5707140D01*
X6084334Y-5707140D01*
X6092906Y-5711426D01*
X6097191Y-5715711D01*
X6101477Y-5724283D01*
X6101477Y-5758568D01*
X6084334Y-5629997D02*
X6144334Y-5629997D01*
X6050049Y-5651426D02*
X6114334Y-5672854D01*
X6114334Y-5617140D01*
X3614429Y-10911914D02*
X3614429Y-10821914D01*
X3614429Y-10864771D02*
X3665857Y-10864771D01*
X3665857Y-10911914D02*
X3665857Y-10821914D01*
X3755857Y-10911914D02*
X3704429Y-10911914D01*
X3730143Y-10911914D02*
X3730143Y-10821914D01*
X3721571Y-10834771D01*
X3713000Y-10843343D01*
X3704429Y-10847629D01*
X10066029Y-10886514D02*
X10066029Y-10796514D01*
X10066029Y-10839371D02*
X10117457Y-10839371D01*
X10117457Y-10886514D02*
X10117457Y-10796514D01*
X10156029Y-10805086D02*
X10160314Y-10800800D01*
X10168886Y-10796514D01*
X10190314Y-10796514D01*
X10198886Y-10800800D01*
X10203171Y-10805086D01*
X10207457Y-10813657D01*
X10207457Y-10822229D01*
X10203171Y-10835086D01*
X10151743Y-10886514D01*
X10207457Y-10886514D01*
X10066029Y-5730314D02*
X10066029Y-5640314D01*
X10066029Y-5683171D02*
X10117457Y-5683171D01*
X10117457Y-5730314D02*
X10117457Y-5640314D01*
X10151743Y-5640314D02*
X10207457Y-5640314D01*
X10177457Y-5674600D01*
X10190314Y-5674600D01*
X10198886Y-5678886D01*
X10203171Y-5683171D01*
X10207457Y-5691743D01*
X10207457Y-5713171D01*
X10203171Y-5721743D01*
X10198886Y-5726029D01*
X10190314Y-5730314D01*
X10164600Y-5730314D01*
X10156029Y-5726029D01*
X10151743Y-5721743D01*
X3614429Y-5755714D02*
X3614429Y-5665714D01*
X3614429Y-5708571D02*
X3665857Y-5708571D01*
X3665857Y-5755714D02*
X3665857Y-5665714D01*
X3747286Y-5695714D02*
X3747286Y-5755714D01*
X3725857Y-5661429D02*
X3704429Y-5725714D01*
X3760143Y-5725714D01*
X6136714Y-6060200D02*
X6093857Y-6090200D01*
X6136714Y-6111628D02*
X6046714Y-6111628D01*
X6046714Y-6077343D01*
X6051000Y-6068771D01*
X6055286Y-6064486D01*
X6063857Y-6060200D01*
X6076714Y-6060200D01*
X6085286Y-6064486D01*
X6089571Y-6068771D01*
X6093857Y-6077343D01*
X6093857Y-6111628D01*
X6136714Y-5974486D02*
X6136714Y-6025914D01*
X6136714Y-6000200D02*
X6046714Y-6000200D01*
X6059571Y-6008771D01*
X6068143Y-6017343D01*
X6072429Y-6025914D01*
X5649200Y-6273874D02*
X5619200Y-6231017D01*
X5597771Y-6273874D02*
X5597771Y-6183874D01*
X5632057Y-6183874D01*
X5640629Y-6188160D01*
X5644914Y-6192446D01*
X5649200Y-6201017D01*
X5649200Y-6213874D01*
X5644914Y-6222446D01*
X5640629Y-6226731D01*
X5632057Y-6231017D01*
X5597771Y-6231017D01*
X5683486Y-6192446D02*
X5687771Y-6188160D01*
X5696343Y-6183874D01*
X5717771Y-6183874D01*
X5726343Y-6188160D01*
X5730629Y-6192446D01*
X5734914Y-6201017D01*
X5734914Y-6209589D01*
X5730629Y-6222446D01*
X5679200Y-6273874D01*
X5734914Y-6273874D01*
X5811594Y-5493780D02*
X5768737Y-5523780D01*
X5811594Y-5545209D02*
X5721594Y-5545209D01*
X5721594Y-5510923D01*
X5725880Y-5502351D01*
X5730166Y-5498066D01*
X5738737Y-5493780D01*
X5751594Y-5493780D01*
X5760166Y-5498066D01*
X5764451Y-5502351D01*
X5768737Y-5510923D01*
X5768737Y-5545209D01*
X5721594Y-5463780D02*
X5721594Y-5408066D01*
X5755880Y-5438066D01*
X5755880Y-5425209D01*
X5760166Y-5416637D01*
X5764451Y-5412351D01*
X5773023Y-5408066D01*
X5794451Y-5408066D01*
X5803023Y-5412351D01*
X5807309Y-5416637D01*
X5811594Y-5425209D01*
X5811594Y-5450923D01*
X5807309Y-5459494D01*
X5803023Y-5463780D01*
X5755714Y-8115000D02*
X5712857Y-8145000D01*
X5755714Y-8166428D02*
X5665714Y-8166428D01*
X5665714Y-8132143D01*
X5670000Y-8123571D01*
X5674286Y-8119286D01*
X5682857Y-8115000D01*
X5695714Y-8115000D01*
X5704286Y-8119286D01*
X5708571Y-8123571D01*
X5712857Y-8132143D01*
X5712857Y-8166428D01*
X5695714Y-8037857D02*
X5755714Y-8037857D01*
X5661429Y-8059286D02*
X5725714Y-8080714D01*
X5725714Y-8025000D01*
X4714314Y-7090000D02*
X4671457Y-7120000D01*
X4714314Y-7141428D02*
X4624314Y-7141428D01*
X4624314Y-7107143D01*
X4628600Y-7098571D01*
X4632886Y-7094286D01*
X4641457Y-7090000D01*
X4654314Y-7090000D01*
X4662886Y-7094286D01*
X4667171Y-7098571D01*
X4671457Y-7107143D01*
X4671457Y-7141428D01*
X4624314Y-7008571D02*
X4624314Y-7051428D01*
X4667171Y-7055714D01*
X4662886Y-7051428D01*
X4658600Y-7042857D01*
X4658600Y-7021428D01*
X4662886Y-7012857D01*
X4667171Y-7008571D01*
X4675743Y-7004286D01*
X4697171Y-7004286D01*
X4705743Y-7008571D01*
X4710029Y-7012857D01*
X4714314Y-7021428D01*
X4714314Y-7042857D01*
X4710029Y-7051428D01*
X4705743Y-7055714D01*
X6263714Y-8457857D02*
X6220857Y-8487857D01*
X6263714Y-8509286D02*
X6173714Y-8509286D01*
X6173714Y-8475000D01*
X6178000Y-8466429D01*
X6182286Y-8462143D01*
X6190857Y-8457857D01*
X6203714Y-8457857D01*
X6212286Y-8462143D01*
X6216571Y-8466429D01*
X6220857Y-8475000D01*
X6220857Y-8509286D01*
X6263714Y-8372143D02*
X6263714Y-8423571D01*
X6263714Y-8397857D02*
X6173714Y-8397857D01*
X6186571Y-8406429D01*
X6195143Y-8415000D01*
X6199429Y-8423571D01*
X6212286Y-8320714D02*
X6208000Y-8329286D01*
X6203714Y-8333571D01*
X6195143Y-8337857D01*
X6190857Y-8337857D01*
X6182286Y-8333571D01*
X6178000Y-8329286D01*
X6173714Y-8320714D01*
X6173714Y-8303571D01*
X6178000Y-8295000D01*
X6182286Y-8290714D01*
X6190857Y-8286429D01*
X6195143Y-8286429D01*
X6203714Y-8290714D01*
X6208000Y-8295000D01*
X6212286Y-8303571D01*
X6212286Y-8320714D01*
X6216571Y-8329286D01*
X6220857Y-8333571D01*
X6229429Y-8337857D01*
X6246571Y-8337857D01*
X6255143Y-8333571D01*
X6259429Y-8329286D01*
X6263714Y-8320714D01*
X6263714Y-8303571D01*
X6259429Y-8295000D01*
X6255143Y-8290714D01*
X6246571Y-8286429D01*
X6229429Y-8286429D01*
X6220857Y-8290714D01*
X6216571Y-8295000D01*
X6212286Y-8303571D01*
X9014700Y-9172014D02*
X8971843Y-9172014D01*
X8971843Y-9082014D01*
X9091843Y-9172014D02*
X9040414Y-9172014D01*
X9066129Y-9172014D02*
X9066129Y-9082014D01*
X9057557Y-9094871D01*
X9048986Y-9103443D01*
X9040414Y-9107729D01*
X5953371Y-8840714D02*
X5953371Y-8750714D01*
X5987657Y-8750714D01*
X5996229Y-8755000D01*
X6000514Y-8759286D01*
X6004800Y-8767857D01*
X6004800Y-8780714D01*
X6000514Y-8789286D01*
X5996229Y-8793571D01*
X5987657Y-8797857D01*
X5953371Y-8797857D01*
X6047657Y-8840714D02*
X6064800Y-8840714D01*
X6073371Y-8836429D01*
X6077657Y-8832143D01*
X6086229Y-8819286D01*
X6090514Y-8802143D01*
X6090514Y-8767857D01*
X6086229Y-8759286D01*
X6081943Y-8755000D01*
X6073371Y-8750714D01*
X6056229Y-8750714D01*
X6047657Y-8755000D01*
X6043371Y-8759286D01*
X6039086Y-8767857D01*
X6039086Y-8789286D01*
X6043371Y-8797857D01*
X6047657Y-8802143D01*
X6056229Y-8806429D01*
X6073371Y-8806429D01*
X6081943Y-8802143D01*
X6086229Y-8797857D01*
X6090514Y-8789286D01*
X6032143Y-7965000D02*
X6036429Y-7969286D01*
X6040714Y-7982143D01*
X6040714Y-7990714D01*
X6036429Y-8003571D01*
X6027857Y-8012143D01*
X6019286Y-8016428D01*
X6002143Y-8020714D01*
X5989286Y-8020714D01*
X5972143Y-8016428D01*
X5963571Y-8012143D01*
X5955000Y-8003571D01*
X5950714Y-7990714D01*
X5950714Y-7982143D01*
X5955000Y-7969286D01*
X5959286Y-7965000D01*
X6040714Y-7879286D02*
X6040714Y-7930714D01*
X6040714Y-7905000D02*
X5950714Y-7905000D01*
X5963571Y-7913571D01*
X5972143Y-7922143D01*
X5976429Y-7930714D01*
X8671800Y-9152143D02*
X8667514Y-9156429D01*
X8654657Y-9160714D01*
X8646086Y-9160714D01*
X8633229Y-9156429D01*
X8624657Y-9147857D01*
X8620372Y-9139286D01*
X8616086Y-9122143D01*
X8616086Y-9109286D01*
X8620372Y-9092143D01*
X8624657Y-9083571D01*
X8633229Y-9075000D01*
X8646086Y-9070714D01*
X8654657Y-9070714D01*
X8667514Y-9075000D01*
X8671800Y-9079286D01*
X8706086Y-9079286D02*
X8710372Y-9075000D01*
X8718943Y-9070714D01*
X8740372Y-9070714D01*
X8748943Y-9075000D01*
X8753229Y-9079286D01*
X8757514Y-9087857D01*
X8757514Y-9096429D01*
X8753229Y-9109286D01*
X8701800Y-9160714D01*
X8757514Y-9160714D01*
X9233140Y-6993013D02*
X9228854Y-6997299D01*
X9215997Y-7001584D01*
X9207426Y-7001584D01*
X9194569Y-6997299D01*
X9185997Y-6988727D01*
X9181712Y-6980156D01*
X9177426Y-6963013D01*
X9177426Y-6950156D01*
X9181712Y-6933013D01*
X9185997Y-6924441D01*
X9194569Y-6915870D01*
X9207426Y-6911584D01*
X9215997Y-6911584D01*
X9228854Y-6915870D01*
X9233140Y-6920156D01*
X9263140Y-6911584D02*
X9318854Y-6911584D01*
X9288854Y-6945870D01*
X9301712Y-6945870D01*
X9310283Y-6950156D01*
X9314569Y-6954441D01*
X9318854Y-6963013D01*
X9318854Y-6984441D01*
X9314569Y-6993013D01*
X9310283Y-6997299D01*
X9301712Y-7001584D01*
X9275997Y-7001584D01*
X9267426Y-6997299D01*
X9263140Y-6993013D01*
X4407143Y-7090000D02*
X4411429Y-7094286D01*
X4415714Y-7107143D01*
X4415714Y-7115714D01*
X4411429Y-7128571D01*
X4402857Y-7137143D01*
X4394286Y-7141428D01*
X4377143Y-7145714D01*
X4364286Y-7145714D01*
X4347143Y-7141428D01*
X4338571Y-7137143D01*
X4330000Y-7128571D01*
X4325714Y-7115714D01*
X4325714Y-7107143D01*
X4330000Y-7094286D01*
X4334286Y-7090000D01*
X4355714Y-7012857D02*
X4415714Y-7012857D01*
X4321429Y-7034286D02*
X4385714Y-7055714D01*
X4385714Y-7000000D01*
X8735300Y-8716403D02*
X8731014Y-8720689D01*
X8718157Y-8724974D01*
X8709586Y-8724974D01*
X8696729Y-8720689D01*
X8688157Y-8712117D01*
X8683872Y-8703546D01*
X8679586Y-8686403D01*
X8679586Y-8673546D01*
X8683872Y-8656403D01*
X8688157Y-8647831D01*
X8696729Y-8639260D01*
X8709586Y-8634974D01*
X8718157Y-8634974D01*
X8731014Y-8639260D01*
X8735300Y-8643546D01*
X8812443Y-8634974D02*
X8795300Y-8634974D01*
X8786729Y-8639260D01*
X8782443Y-8643546D01*
X8773872Y-8656403D01*
X8769586Y-8673546D01*
X8769586Y-8707831D01*
X8773872Y-8716403D01*
X8778157Y-8720689D01*
X8786729Y-8724974D01*
X8803872Y-8724974D01*
X8812443Y-8720689D01*
X8816729Y-8716403D01*
X8821014Y-8707831D01*
X8821014Y-8686403D01*
X8816729Y-8677831D01*
X8812443Y-8673546D01*
X8803872Y-8669260D01*
X8786729Y-8669260D01*
X8778157Y-8673546D01*
X8773872Y-8677831D01*
X8769586Y-8686403D01*
X8974060Y-7516253D02*
X8969774Y-7520539D01*
X8956917Y-7524824D01*
X8948346Y-7524824D01*
X8935489Y-7520539D01*
X8926917Y-7511967D01*
X8922632Y-7503396D01*
X8918346Y-7486253D01*
X8918346Y-7473396D01*
X8922632Y-7456253D01*
X8926917Y-7447681D01*
X8935489Y-7439110D01*
X8948346Y-7434824D01*
X8956917Y-7434824D01*
X8969774Y-7439110D01*
X8974060Y-7443396D01*
X9004060Y-7434824D02*
X9064060Y-7434824D01*
X9025489Y-7524824D01*
X7780583Y-6849503D02*
X7776297Y-6853789D01*
X7763440Y-6858074D01*
X7754869Y-6858074D01*
X7742011Y-6853789D01*
X7733440Y-6845217D01*
X7729154Y-6836646D01*
X7724869Y-6819503D01*
X7724869Y-6806646D01*
X7729154Y-6789503D01*
X7733440Y-6780931D01*
X7742011Y-6772360D01*
X7754869Y-6768074D01*
X7763440Y-6768074D01*
X7776297Y-6772360D01*
X7780583Y-6776646D01*
X7814869Y-6776646D02*
X7819154Y-6772360D01*
X7827726Y-6768074D01*
X7849154Y-6768074D01*
X7857726Y-6772360D01*
X7862011Y-6776646D01*
X7866297Y-6785217D01*
X7866297Y-6793789D01*
X7862011Y-6806646D01*
X7810583Y-6858074D01*
X7866297Y-6858074D01*
X7952011Y-6858074D02*
X7900583Y-6858074D01*
X7926297Y-6858074D02*
X7926297Y-6768074D01*
X7917726Y-6780931D01*
X7909154Y-6789503D01*
X7900583Y-6793789D01*
X6559943Y-9882577D02*
X6564229Y-9886863D01*
X6568514Y-9899720D01*
X6568514Y-9908291D01*
X6564229Y-9921149D01*
X6555657Y-9929720D01*
X6547086Y-9934006D01*
X6529943Y-9938291D01*
X6517086Y-9938291D01*
X6499943Y-9934006D01*
X6491371Y-9929720D01*
X6482800Y-9921149D01*
X6478514Y-9908291D01*
X6478514Y-9899720D01*
X6482800Y-9886863D01*
X6487086Y-9882577D01*
X6487086Y-9848291D02*
X6482800Y-9844006D01*
X6478514Y-9835434D01*
X6478514Y-9814006D01*
X6482800Y-9805434D01*
X6487086Y-9801149D01*
X6495657Y-9796863D01*
X6504229Y-9796863D01*
X6517086Y-9801149D01*
X6568514Y-9852577D01*
X6568514Y-9796863D01*
X6487086Y-9762577D02*
X6482800Y-9758291D01*
X6478514Y-9749720D01*
X6478514Y-9728291D01*
X6482800Y-9719720D01*
X6487086Y-9715434D01*
X6495657Y-9711149D01*
X6504229Y-9711149D01*
X6517086Y-9715434D01*
X6568514Y-9766863D01*
X6568514Y-9711149D01*
X8217143Y-8182143D02*
X8212857Y-8186429D01*
X8200000Y-8190714D01*
X8191429Y-8190714D01*
X8178571Y-8186429D01*
X8170000Y-8177857D01*
X8165714Y-8169286D01*
X8161429Y-8152143D01*
X8161429Y-8139286D01*
X8165714Y-8122143D01*
X8170000Y-8113571D01*
X8178571Y-8105000D01*
X8191429Y-8100714D01*
X8200000Y-8100714D01*
X8212857Y-8105000D01*
X8217143Y-8109286D01*
X8251429Y-8109286D02*
X8255714Y-8105000D01*
X8264286Y-8100714D01*
X8285714Y-8100714D01*
X8294286Y-8105000D01*
X8298571Y-8109286D01*
X8302857Y-8117857D01*
X8302857Y-8126429D01*
X8298571Y-8139286D01*
X8247143Y-8190714D01*
X8302857Y-8190714D01*
X8354286Y-8139286D02*
X8345714Y-8135000D01*
X8341429Y-8130714D01*
X8337143Y-8122143D01*
X8337143Y-8117857D01*
X8341429Y-8109286D01*
X8345714Y-8105000D01*
X8354286Y-8100714D01*
X8371429Y-8100714D01*
X8380000Y-8105000D01*
X8384286Y-8109286D01*
X8388571Y-8117857D01*
X8388571Y-8122143D01*
X8384286Y-8130714D01*
X8380000Y-8135000D01*
X8371429Y-8139286D01*
X8354286Y-8139286D01*
X8345714Y-8143571D01*
X8341429Y-8147857D01*
X8337143Y-8156429D01*
X8337143Y-8173571D01*
X8341429Y-8182143D01*
X8345714Y-8186429D01*
X8354286Y-8190714D01*
X8371429Y-8190714D01*
X8380000Y-8186429D01*
X8384286Y-8182143D01*
X8388571Y-8173571D01*
X8388571Y-8156429D01*
X8384286Y-8147857D01*
X8380000Y-8143571D01*
X8371429Y-8139286D01*
X7232143Y-8693857D02*
X7236429Y-8698143D01*
X7240714Y-8711000D01*
X7240714Y-8719571D01*
X7236429Y-8732429D01*
X7227857Y-8741000D01*
X7219286Y-8745286D01*
X7202143Y-8749571D01*
X7189286Y-8749571D01*
X7172143Y-8745286D01*
X7163571Y-8741000D01*
X7155000Y-8732429D01*
X7150714Y-8719571D01*
X7150714Y-8711000D01*
X7155000Y-8698143D01*
X7159286Y-8693857D01*
X7159286Y-8659571D02*
X7155000Y-8655286D01*
X7150714Y-8646714D01*
X7150714Y-8625286D01*
X7155000Y-8616714D01*
X7159286Y-8612429D01*
X7167857Y-8608143D01*
X7176429Y-8608143D01*
X7189286Y-8612429D01*
X7240714Y-8663857D01*
X7240714Y-8608143D01*
X7240714Y-8565286D02*
X7240714Y-8548143D01*
X7236429Y-8539571D01*
X7232143Y-8535286D01*
X7219286Y-8526714D01*
X7202143Y-8522429D01*
X7167857Y-8522429D01*
X7159286Y-8526714D01*
X7155000Y-8531000D01*
X7150714Y-8539571D01*
X7150714Y-8556714D01*
X7155000Y-8565286D01*
X7159286Y-8569571D01*
X7167857Y-8573857D01*
X7189286Y-8573857D01*
X7197857Y-8569571D01*
X7202143Y-8565286D01*
X7206429Y-8556714D01*
X7206429Y-8539571D01*
X7202143Y-8531000D01*
X7197857Y-8526714D01*
X7189286Y-8522429D01*
X6819023Y-9885117D02*
X6823309Y-9889403D01*
X6827594Y-9902260D01*
X6827594Y-9910831D01*
X6823309Y-9923689D01*
X6814737Y-9932260D01*
X6806166Y-9936546D01*
X6789023Y-9940831D01*
X6776166Y-9940831D01*
X6759023Y-9936546D01*
X6750451Y-9932260D01*
X6741880Y-9923689D01*
X6737594Y-9910831D01*
X6737594Y-9902260D01*
X6741880Y-9889403D01*
X6746166Y-9885117D01*
X6737594Y-9855117D02*
X6737594Y-9799403D01*
X6771880Y-9829403D01*
X6771880Y-9816546D01*
X6776166Y-9807974D01*
X6780451Y-9803689D01*
X6789023Y-9799403D01*
X6810451Y-9799403D01*
X6819023Y-9803689D01*
X6823309Y-9807974D01*
X6827594Y-9816546D01*
X6827594Y-9842260D01*
X6823309Y-9850831D01*
X6819023Y-9855117D01*
X6737594Y-9743689D02*
X6737594Y-9735117D01*
X6741880Y-9726546D01*
X6746166Y-9722260D01*
X6754737Y-9717974D01*
X6771880Y-9713689D01*
X6793309Y-9713689D01*
X6810451Y-9717974D01*
X6819023Y-9722260D01*
X6823309Y-9726546D01*
X6827594Y-9735117D01*
X6827594Y-9743689D01*
X6823309Y-9752260D01*
X6819023Y-9756546D01*
X6810451Y-9760831D01*
X6793309Y-9765117D01*
X6771880Y-9765117D01*
X6754737Y-9760831D01*
X6746166Y-9756546D01*
X6741880Y-9752260D01*
X6737594Y-9743689D01*
X7071753Y-9867337D02*
X7076039Y-9871623D01*
X7080324Y-9884480D01*
X7080324Y-9893051D01*
X7076039Y-9905909D01*
X7067467Y-9914480D01*
X7058896Y-9918766D01*
X7041753Y-9923051D01*
X7028896Y-9923051D01*
X7011753Y-9918766D01*
X7003181Y-9914480D01*
X6994610Y-9905909D01*
X6990324Y-9893051D01*
X6990324Y-9884480D01*
X6994610Y-9871623D01*
X6998896Y-9867337D01*
X6990324Y-9837337D02*
X6990324Y-9781623D01*
X7024610Y-9811623D01*
X7024610Y-9798766D01*
X7028896Y-9790194D01*
X7033181Y-9785909D01*
X7041753Y-9781623D01*
X7063181Y-9781623D01*
X7071753Y-9785909D01*
X7076039Y-9790194D01*
X7080324Y-9798766D01*
X7080324Y-9824480D01*
X7076039Y-9833051D01*
X7071753Y-9837337D01*
X7080324Y-9695909D02*
X7080324Y-9747337D01*
X7080324Y-9721623D02*
X6990324Y-9721623D01*
X7003181Y-9730194D01*
X7011753Y-9738766D01*
X7016039Y-9747337D01*
X8407143Y-7232857D02*
X8411429Y-7237143D01*
X8415714Y-7250000D01*
X8415714Y-7258571D01*
X8411429Y-7271429D01*
X8402857Y-7280000D01*
X8394286Y-7284286D01*
X8377143Y-7288571D01*
X8364286Y-7288571D01*
X8347143Y-7284286D01*
X8338571Y-7280000D01*
X8330000Y-7271429D01*
X8325714Y-7258571D01*
X8325714Y-7250000D01*
X8330000Y-7237143D01*
X8334286Y-7232857D01*
X8325714Y-7202857D02*
X8325714Y-7147143D01*
X8360000Y-7177143D01*
X8360000Y-7164286D01*
X8364286Y-7155714D01*
X8368571Y-7151429D01*
X8377143Y-7147143D01*
X8398571Y-7147143D01*
X8407143Y-7151429D01*
X8411429Y-7155714D01*
X8415714Y-7164286D01*
X8415714Y-7190000D01*
X8411429Y-7198571D01*
X8407143Y-7202857D01*
X8334286Y-7112857D02*
X8330000Y-7108571D01*
X8325714Y-7100000D01*
X8325714Y-7078571D01*
X8330000Y-7070000D01*
X8334286Y-7065714D01*
X8342857Y-7061429D01*
X8351429Y-7061429D01*
X8364286Y-7065714D01*
X8415714Y-7117143D01*
X8415714Y-7061429D01*
X7307143Y-8107857D02*
X7311429Y-8112143D01*
X7315714Y-8125000D01*
X7315714Y-8133571D01*
X7311429Y-8146429D01*
X7302857Y-8155000D01*
X7294286Y-8159286D01*
X7277143Y-8163571D01*
X7264286Y-8163571D01*
X7247143Y-8159286D01*
X7238571Y-8155000D01*
X7230000Y-8146429D01*
X7225714Y-8133571D01*
X7225714Y-8125000D01*
X7230000Y-8112143D01*
X7234286Y-8107857D01*
X7225714Y-8077857D02*
X7225714Y-8022143D01*
X7260000Y-8052143D01*
X7260000Y-8039286D01*
X7264286Y-8030714D01*
X7268571Y-8026429D01*
X7277143Y-8022143D01*
X7298571Y-8022143D01*
X7307143Y-8026429D01*
X7311429Y-8030714D01*
X7315714Y-8039286D01*
X7315714Y-8065000D01*
X7311429Y-8073571D01*
X7307143Y-8077857D01*
X7225714Y-7992143D02*
X7225714Y-7936429D01*
X7260000Y-7966429D01*
X7260000Y-7953571D01*
X7264286Y-7945000D01*
X7268571Y-7940714D01*
X7277143Y-7936429D01*
X7298571Y-7936429D01*
X7307143Y-7940714D01*
X7311429Y-7945000D01*
X7315714Y-7953571D01*
X7315714Y-7979286D01*
X7311429Y-7987857D01*
X7307143Y-7992143D01*
X5897954Y-9444733D02*
X5807954Y-9444733D01*
X5807954Y-9423304D01*
X5812240Y-9410447D01*
X5820811Y-9401876D01*
X5829383Y-9397590D01*
X5846526Y-9393304D01*
X5859383Y-9393304D01*
X5876526Y-9397590D01*
X5885097Y-9401876D01*
X5893669Y-9410447D01*
X5897954Y-9423304D01*
X5897954Y-9444733D01*
X5897954Y-9307590D02*
X5897954Y-9359019D01*
X5897954Y-9333304D02*
X5807954Y-9333304D01*
X5820811Y-9341876D01*
X5829383Y-9350447D01*
X5833669Y-9359019D01*
X5807954Y-9251876D02*
X5807954Y-9243304D01*
X5812240Y-9234733D01*
X5816526Y-9230447D01*
X5825097Y-9226161D01*
X5842240Y-9221876D01*
X5863669Y-9221876D01*
X5880811Y-9226161D01*
X5889383Y-9230447D01*
X5893669Y-9234733D01*
X5897954Y-9243304D01*
X5897954Y-9251876D01*
X5893669Y-9260447D01*
X5889383Y-9264733D01*
X5880811Y-9269019D01*
X5863669Y-9273304D01*
X5842240Y-9273304D01*
X5825097Y-9269019D01*
X5816526Y-9264733D01*
X5812240Y-9260447D01*
X5807954Y-9251876D01*
X5897954Y-9136161D02*
X5897954Y-9187590D01*
X5897954Y-9161876D02*
X5807954Y-9161876D01*
X5820811Y-9170447D01*
X5829383Y-9179019D01*
X5833669Y-9187590D01*
X6650714Y-10625000D02*
X6715000Y-10625000D01*
X6727857Y-10629286D01*
X6736429Y-10637857D01*
X6740714Y-10650714D01*
X6740714Y-10659286D01*
X6740714Y-10582143D02*
X6650714Y-10582143D01*
X6650714Y-10547857D01*
X6655000Y-10539286D01*
X6659286Y-10535000D01*
X6667857Y-10530714D01*
X6680714Y-10530714D01*
X6689286Y-10535000D01*
X6693571Y-10539286D01*
X6697857Y-10547857D01*
X6697857Y-10582143D01*
X6740714Y-10445000D02*
X6740714Y-10496429D01*
X6740714Y-10470714D02*
X6650714Y-10470714D01*
X6663571Y-10479286D01*
X6672143Y-10487857D01*
X6676429Y-10496429D01*
X5843514Y-7720400D02*
X5907800Y-7720400D01*
X5920657Y-7724686D01*
X5929229Y-7733257D01*
X5933514Y-7746114D01*
X5933514Y-7754686D01*
X5933514Y-7677543D02*
X5843514Y-7677543D01*
X5843514Y-7643257D01*
X5847800Y-7634686D01*
X5852086Y-7630400D01*
X5860657Y-7626114D01*
X5873514Y-7626114D01*
X5882086Y-7630400D01*
X5886371Y-7634686D01*
X5890657Y-7643257D01*
X5890657Y-7677543D01*
X5852086Y-7591828D02*
X5847800Y-7587543D01*
X5843514Y-7578971D01*
X5843514Y-7557543D01*
X5847800Y-7548971D01*
X5852086Y-7544686D01*
X5860657Y-7540400D01*
X5869229Y-7540400D01*
X5882086Y-7544686D01*
X5933514Y-7596114D01*
X5933514Y-7540400D01*
X5127872Y-8547714D02*
X5127872Y-8457714D01*
X5179300Y-8547714D02*
X5140729Y-8496286D01*
X5179300Y-8457714D02*
X5127872Y-8509143D01*
X5265014Y-8547714D02*
X5213586Y-8547714D01*
X5239300Y-8547714D02*
X5239300Y-8457714D01*
X5230729Y-8470571D01*
X5222157Y-8479143D01*
X5213586Y-8483429D01*
X3857871Y-8547714D02*
X3857871Y-8457714D01*
X3909300Y-8547714D02*
X3870729Y-8496286D01*
X3909300Y-8457714D02*
X3857871Y-8509143D01*
X3943586Y-8466286D02*
X3947871Y-8462000D01*
X3956443Y-8457714D01*
X3977871Y-8457714D01*
X3986443Y-8462000D01*
X3990729Y-8466286D01*
X3995014Y-8474857D01*
X3995014Y-8483429D01*
X3990729Y-8496286D01*
X3939300Y-8547714D01*
X3995014Y-8547714D01*
X9515714Y-10366429D02*
X9425714Y-10366429D01*
X9515714Y-10315000D02*
X9464286Y-10353571D01*
X9425714Y-10315000D02*
X9477143Y-10366429D01*
X9425714Y-10285000D02*
X9425714Y-10229286D01*
X9460000Y-10259286D01*
X9460000Y-10246429D01*
X9464286Y-10237857D01*
X9468571Y-10233571D01*
X9477143Y-10229286D01*
X9498571Y-10229286D01*
X9507143Y-10233571D01*
X9511429Y-10237857D01*
X9515714Y-10246429D01*
X9515714Y-10272143D01*
X9511429Y-10280714D01*
X9507143Y-10285000D01*
X9788772Y-7408714D02*
X9788772Y-7318714D01*
X9840200Y-7408714D02*
X9801629Y-7357286D01*
X9840200Y-7318714D02*
X9788772Y-7370143D01*
X9917343Y-7348714D02*
X9917343Y-7408714D01*
X9895914Y-7314429D02*
X9874486Y-7378714D01*
X9930200Y-7378714D01*
X5127872Y-7277714D02*
X5127872Y-7187714D01*
X5179300Y-7277714D02*
X5140729Y-7226286D01*
X5179300Y-7187714D02*
X5127872Y-7239143D01*
X5260729Y-7187714D02*
X5217872Y-7187714D01*
X5213586Y-7230571D01*
X5217872Y-7226286D01*
X5226443Y-7222000D01*
X5247872Y-7222000D01*
X5256443Y-7226286D01*
X5260729Y-7230571D01*
X5265014Y-7239143D01*
X5265014Y-7260571D01*
X5260729Y-7269143D01*
X5256443Y-7273429D01*
X5247872Y-7277714D01*
X5226443Y-7277714D01*
X5217872Y-7273429D01*
X5213586Y-7269143D01*
X3857871Y-7277714D02*
X3857871Y-7187714D01*
X3909300Y-7277714D02*
X3870729Y-7226286D01*
X3909300Y-7187714D02*
X3857871Y-7239143D01*
X3986443Y-7187714D02*
X3969300Y-7187714D01*
X3960729Y-7192000D01*
X3956443Y-7196286D01*
X3947871Y-7209143D01*
X3943586Y-7226286D01*
X3943586Y-7260571D01*
X3947871Y-7269143D01*
X3952157Y-7273429D01*
X3960729Y-7277714D01*
X3977871Y-7277714D01*
X3986443Y-7273429D01*
X3990729Y-7269143D01*
X3995014Y-7260571D01*
X3995014Y-7239143D01*
X3990729Y-7230571D01*
X3986443Y-7226286D01*
X3977871Y-7222000D01*
X3960729Y-7222000D01*
X3952157Y-7226286D01*
X3947871Y-7230571D01*
X3943586Y-7239143D01*
X5465714Y-10616429D02*
X5375714Y-10616429D01*
X5465714Y-10565000D02*
X5414286Y-10603571D01*
X5375714Y-10565000D02*
X5427143Y-10616429D01*
X5375714Y-10535000D02*
X5375714Y-10475000D01*
X5465714Y-10513571D01*
X5580454Y-6831718D02*
X5490454Y-6831718D01*
X5580454Y-6780290D02*
X5529026Y-6818861D01*
X5490454Y-6780290D02*
X5541883Y-6831718D01*
X5529026Y-6728861D02*
X5524740Y-6737433D01*
X5520454Y-6741718D01*
X5511883Y-6746004D01*
X5507597Y-6746004D01*
X5499026Y-6741718D01*
X5494740Y-6737433D01*
X5490454Y-6728861D01*
X5490454Y-6711718D01*
X5494740Y-6703147D01*
X5499026Y-6698861D01*
X5507597Y-6694576D01*
X5511883Y-6694576D01*
X5520454Y-6698861D01*
X5524740Y-6703147D01*
X5529026Y-6711718D01*
X5529026Y-6728861D01*
X5533311Y-6737433D01*
X5537597Y-6741718D01*
X5546169Y-6746004D01*
X5563311Y-6746004D01*
X5571883Y-6741718D01*
X5576169Y-6737433D01*
X5580454Y-6728861D01*
X5580454Y-6711718D01*
X5576169Y-6703147D01*
X5571883Y-6698861D01*
X5563311Y-6694576D01*
X5546169Y-6694576D01*
X5537597Y-6698861D01*
X5533311Y-6703147D01*
X5529026Y-6711718D01*
X3608144Y-6474848D02*
X3518144Y-6474848D01*
X3608144Y-6423420D02*
X3556716Y-6461991D01*
X3518144Y-6423420D02*
X3569573Y-6474848D01*
X3608144Y-6380563D02*
X3608144Y-6363420D01*
X3603859Y-6354848D01*
X3599573Y-6350563D01*
X3586716Y-6341991D01*
X3569573Y-6337706D01*
X3535287Y-6337706D01*
X3526716Y-6341991D01*
X3522430Y-6346277D01*
X3518144Y-6354848D01*
X3518144Y-6371991D01*
X3522430Y-6380563D01*
X3526716Y-6384848D01*
X3535287Y-6389134D01*
X3556716Y-6389134D01*
X3565287Y-6384848D01*
X3569573Y-6380563D01*
X3573859Y-6371991D01*
X3573859Y-6354848D01*
X3569573Y-6346277D01*
X3565287Y-6341991D01*
X3556716Y-6337706D01*
X8015714Y-10650286D02*
X7925714Y-10650286D01*
X8015714Y-10598857D02*
X7964286Y-10637429D01*
X7925714Y-10598857D02*
X7977143Y-10650286D01*
X8015714Y-10513143D02*
X8015714Y-10564571D01*
X8015714Y-10538857D02*
X7925714Y-10538857D01*
X7938571Y-10547429D01*
X7947143Y-10556000D01*
X7951429Y-10564571D01*
X7925714Y-10457429D02*
X7925714Y-10448857D01*
X7930000Y-10440286D01*
X7934286Y-10436000D01*
X7942857Y-10431714D01*
X7960000Y-10427429D01*
X7981429Y-10427429D01*
X7998571Y-10431714D01*
X8007143Y-10436000D01*
X8011429Y-10440286D01*
X8015714Y-10448857D01*
X8015714Y-10457429D01*
X8011429Y-10466000D01*
X8007143Y-10470286D01*
X7998571Y-10474571D01*
X7981429Y-10478857D01*
X7960000Y-10478857D01*
X7942857Y-10474571D01*
X7934286Y-10470286D01*
X7930000Y-10466000D01*
X7925714Y-10457429D01*
X4190714Y-10659286D02*
X4100714Y-10659286D01*
X4190714Y-10607857D02*
X4139286Y-10646429D01*
X4100714Y-10607857D02*
X4152143Y-10659286D01*
X4190714Y-10522143D02*
X4190714Y-10573571D01*
X4190714Y-10547857D02*
X4100714Y-10547857D01*
X4113571Y-10556429D01*
X4122143Y-10565000D01*
X4126429Y-10573571D01*
X4190714Y-10436429D02*
X4190714Y-10487857D01*
X4190714Y-10462143D02*
X4100714Y-10462143D01*
X4113571Y-10470714D01*
X4122143Y-10479286D01*
X4126429Y-10487857D01*
X6251014Y-9001197D02*
X6208157Y-9031197D01*
X6251014Y-9052626D02*
X6161014Y-9052626D01*
X6161014Y-9018340D01*
X6165300Y-9009769D01*
X6169586Y-9005483D01*
X6178157Y-9001197D01*
X6191014Y-9001197D01*
X6199586Y-9005483D01*
X6203871Y-9009769D01*
X6208157Y-9018340D01*
X6208157Y-9052626D01*
X6169586Y-8966911D02*
X6165300Y-8962626D01*
X6161014Y-8954054D01*
X6161014Y-8932626D01*
X6165300Y-8924054D01*
X6169586Y-8919769D01*
X6178157Y-8915483D01*
X6186729Y-8915483D01*
X6199586Y-8919769D01*
X6251014Y-8971197D01*
X6251014Y-8915483D01*
X6161014Y-8885483D02*
X6161014Y-8829769D01*
X6195300Y-8859769D01*
X6195300Y-8846911D01*
X6199586Y-8838340D01*
X6203871Y-8834054D01*
X6212443Y-8829769D01*
X6233871Y-8829769D01*
X6242443Y-8834054D01*
X6246729Y-8838340D01*
X6251014Y-8846911D01*
X6251014Y-8872626D01*
X6246729Y-8881197D01*
X6242443Y-8885483D01*
X9584764Y-7423857D02*
X9541907Y-7453857D01*
X9584764Y-7475286D02*
X9494764Y-7475286D01*
X9494764Y-7441000D01*
X9499050Y-7432429D01*
X9503336Y-7428143D01*
X9511907Y-7423857D01*
X9524764Y-7423857D01*
X9533336Y-7428143D01*
X9537621Y-7432429D01*
X9541907Y-7441000D01*
X9541907Y-7475286D01*
X9503336Y-7389571D02*
X9499050Y-7385286D01*
X9494764Y-7376714D01*
X9494764Y-7355286D01*
X9499050Y-7346714D01*
X9503336Y-7342429D01*
X9511907Y-7338143D01*
X9520479Y-7338143D01*
X9533336Y-7342429D01*
X9584764Y-7393857D01*
X9584764Y-7338143D01*
X9494764Y-7256714D02*
X9494764Y-7299571D01*
X9537621Y-7303857D01*
X9533336Y-7299571D01*
X9529050Y-7291000D01*
X9529050Y-7269571D01*
X9533336Y-7261000D01*
X9537621Y-7256714D01*
X9546193Y-7252429D01*
X9567621Y-7252429D01*
X9576193Y-7256714D01*
X9580479Y-7261000D01*
X9584764Y-7269571D01*
X9584764Y-7291000D01*
X9580479Y-7299571D01*
X9576193Y-7303857D01*
X8391453Y-9875594D02*
X8361453Y-9832737D01*
X8340024Y-9875594D02*
X8340024Y-9785594D01*
X8374310Y-9785594D01*
X8382881Y-9789880D01*
X8387167Y-9794166D01*
X8391453Y-9802737D01*
X8391453Y-9815594D01*
X8387167Y-9824166D01*
X8382881Y-9828451D01*
X8374310Y-9832737D01*
X8340024Y-9832737D01*
X8425739Y-9794166D02*
X8430024Y-9789880D01*
X8438596Y-9785594D01*
X8460024Y-9785594D01*
X8468596Y-9789880D01*
X8472881Y-9794166D01*
X8477167Y-9802737D01*
X8477167Y-9811309D01*
X8472881Y-9824166D01*
X8421453Y-9875594D01*
X8477167Y-9875594D01*
X8554310Y-9785594D02*
X8537167Y-9785594D01*
X8528596Y-9789880D01*
X8524310Y-9794166D01*
X8515739Y-9807023D01*
X8511453Y-9824166D01*
X8511453Y-9858451D01*
X8515739Y-9867023D01*
X8520024Y-9871309D01*
X8528596Y-9875594D01*
X8545739Y-9875594D01*
X8554310Y-9871309D01*
X8558596Y-9867023D01*
X8562881Y-9858451D01*
X8562881Y-9837023D01*
X8558596Y-9828451D01*
X8554310Y-9824166D01*
X8545739Y-9819880D01*
X8528596Y-9819880D01*
X8520024Y-9824166D01*
X8515739Y-9828451D01*
X8511453Y-9837023D01*
X7523554Y-9970207D02*
X7480697Y-10000207D01*
X7523554Y-10021636D02*
X7433554Y-10021636D01*
X7433554Y-9987350D01*
X7437840Y-9978779D01*
X7442126Y-9974493D01*
X7450697Y-9970207D01*
X7463554Y-9970207D01*
X7472126Y-9974493D01*
X7476411Y-9978779D01*
X7480697Y-9987350D01*
X7480697Y-10021636D01*
X7433554Y-9940207D02*
X7433554Y-9884493D01*
X7467840Y-9914493D01*
X7467840Y-9901636D01*
X7472126Y-9893064D01*
X7476411Y-9888779D01*
X7484983Y-9884493D01*
X7506411Y-9884493D01*
X7514983Y-9888779D01*
X7519269Y-9893064D01*
X7523554Y-9901636D01*
X7523554Y-9927350D01*
X7519269Y-9935921D01*
X7514983Y-9940207D01*
X7433554Y-9854493D02*
X7433554Y-9798779D01*
X7467840Y-9828779D01*
X7467840Y-9815921D01*
X7472126Y-9807350D01*
X7476411Y-9803064D01*
X7484983Y-9798779D01*
X7506411Y-9798779D01*
X7514983Y-9803064D01*
X7519269Y-9807350D01*
X7523554Y-9815921D01*
X7523554Y-9841636D01*
X7519269Y-9850207D01*
X7514983Y-9854493D01*
X7442763Y-9663504D02*
X7412763Y-9620647D01*
X7391334Y-9663504D02*
X7391334Y-9573504D01*
X7425620Y-9573504D01*
X7434191Y-9577790D01*
X7438477Y-9582076D01*
X7442763Y-9590647D01*
X7442763Y-9603504D01*
X7438477Y-9612076D01*
X7434191Y-9616361D01*
X7425620Y-9620647D01*
X7391334Y-9620647D01*
X7472763Y-9573504D02*
X7528477Y-9573504D01*
X7498477Y-9607790D01*
X7511334Y-9607790D01*
X7519906Y-9612076D01*
X7524191Y-9616361D01*
X7528477Y-9624933D01*
X7528477Y-9646361D01*
X7524191Y-9654933D01*
X7519906Y-9659219D01*
X7511334Y-9663504D01*
X7485620Y-9663504D01*
X7477049Y-9659219D01*
X7472763Y-9654933D01*
X7605620Y-9603504D02*
X7605620Y-9663504D01*
X7584191Y-9569219D02*
X7562763Y-9633504D01*
X7618477Y-9633504D01*
X8090463Y-9492054D02*
X8060463Y-9449197D01*
X8039034Y-9492054D02*
X8039034Y-9402054D01*
X8073320Y-9402054D01*
X8081891Y-9406340D01*
X8086177Y-9410626D01*
X8090463Y-9419197D01*
X8090463Y-9432054D01*
X8086177Y-9440626D01*
X8081891Y-9444911D01*
X8073320Y-9449197D01*
X8039034Y-9449197D01*
X8120463Y-9402054D02*
X8176177Y-9402054D01*
X8146177Y-9436340D01*
X8159034Y-9436340D01*
X8167606Y-9440626D01*
X8171891Y-9444911D01*
X8176177Y-9453483D01*
X8176177Y-9474911D01*
X8171891Y-9483483D01*
X8167606Y-9487769D01*
X8159034Y-9492054D01*
X8133320Y-9492054D01*
X8124749Y-9487769D01*
X8120463Y-9483483D01*
X8257606Y-9402054D02*
X8214749Y-9402054D01*
X8210463Y-9444911D01*
X8214749Y-9440626D01*
X8223320Y-9436340D01*
X8244749Y-9436340D01*
X8253320Y-9440626D01*
X8257606Y-9444911D01*
X8261891Y-9453483D01*
X8261891Y-9474911D01*
X8257606Y-9483483D01*
X8253320Y-9487769D01*
X8244749Y-9492054D01*
X8223320Y-9492054D01*
X8214749Y-9487769D01*
X8210463Y-9483483D01*
X6425493Y-9191064D02*
X6395493Y-9148207D01*
X6374064Y-9191064D02*
X6374064Y-9101064D01*
X6408350Y-9101064D01*
X6416921Y-9105350D01*
X6421207Y-9109636D01*
X6425493Y-9118207D01*
X6425493Y-9131064D01*
X6421207Y-9139636D01*
X6416921Y-9143921D01*
X6408350Y-9148207D01*
X6374064Y-9148207D01*
X6455493Y-9101064D02*
X6511207Y-9101064D01*
X6481207Y-9135350D01*
X6494064Y-9135350D01*
X6502636Y-9139636D01*
X6506921Y-9143921D01*
X6511207Y-9152493D01*
X6511207Y-9173921D01*
X6506921Y-9182493D01*
X6502636Y-9186779D01*
X6494064Y-9191064D01*
X6468350Y-9191064D01*
X6459779Y-9186779D01*
X6455493Y-9182493D01*
X6588350Y-9101064D02*
X6571207Y-9101064D01*
X6562636Y-9105350D01*
X6558350Y-9109636D01*
X6549779Y-9122493D01*
X6545493Y-9139636D01*
X6545493Y-9173921D01*
X6549779Y-9182493D01*
X6554064Y-9186779D01*
X6562636Y-9191064D01*
X6579779Y-9191064D01*
X6588350Y-9186779D01*
X6592636Y-9182493D01*
X6596921Y-9173921D01*
X6596921Y-9152493D01*
X6592636Y-9143921D01*
X6588350Y-9139636D01*
X6579779Y-9135350D01*
X6562636Y-9135350D01*
X6554064Y-9139636D01*
X6549779Y-9143921D01*
X6545493Y-9152493D01*
X6621073Y-8478594D02*
X6591073Y-8435737D01*
X6569644Y-8478594D02*
X6569644Y-8388594D01*
X6603930Y-8388594D01*
X6612501Y-8392880D01*
X6616787Y-8397166D01*
X6621073Y-8405737D01*
X6621073Y-8418594D01*
X6616787Y-8427166D01*
X6612501Y-8431451D01*
X6603930Y-8435737D01*
X6569644Y-8435737D01*
X6651073Y-8388594D02*
X6706787Y-8388594D01*
X6676787Y-8422880D01*
X6689644Y-8422880D01*
X6698216Y-8427166D01*
X6702501Y-8431451D01*
X6706787Y-8440023D01*
X6706787Y-8461451D01*
X6702501Y-8470023D01*
X6698216Y-8474309D01*
X6689644Y-8478594D01*
X6663930Y-8478594D01*
X6655359Y-8474309D01*
X6651073Y-8470023D01*
X6736787Y-8388594D02*
X6796787Y-8388594D01*
X6758216Y-8478594D01*
X7023174Y-8884357D02*
X6980317Y-8914357D01*
X7023174Y-8935786D02*
X6933174Y-8935786D01*
X6933174Y-8901500D01*
X6937460Y-8892929D01*
X6941746Y-8888643D01*
X6950317Y-8884357D01*
X6963174Y-8884357D01*
X6971746Y-8888643D01*
X6976031Y-8892929D01*
X6980317Y-8901500D01*
X6980317Y-8935786D01*
X6933174Y-8854357D02*
X6933174Y-8798643D01*
X6967460Y-8828643D01*
X6967460Y-8815786D01*
X6971746Y-8807214D01*
X6976031Y-8802929D01*
X6984603Y-8798643D01*
X7006031Y-8798643D01*
X7014603Y-8802929D01*
X7018889Y-8807214D01*
X7023174Y-8815786D01*
X7023174Y-8841500D01*
X7018889Y-8850071D01*
X7014603Y-8854357D01*
X6971746Y-8747214D02*
X6967460Y-8755786D01*
X6963174Y-8760071D01*
X6954603Y-8764357D01*
X6950317Y-8764357D01*
X6941746Y-8760071D01*
X6937460Y-8755786D01*
X6933174Y-8747214D01*
X6933174Y-8730071D01*
X6937460Y-8721500D01*
X6941746Y-8717214D01*
X6950317Y-8712929D01*
X6954603Y-8712929D01*
X6963174Y-8717214D01*
X6967460Y-8721500D01*
X6971746Y-8730071D01*
X6971746Y-8747214D01*
X6976031Y-8755786D01*
X6980317Y-8760071D01*
X6988889Y-8764357D01*
X7006031Y-8764357D01*
X7014603Y-8760071D01*
X7018889Y-8755786D01*
X7023174Y-8747214D01*
X7023174Y-8730071D01*
X7018889Y-8721500D01*
X7014603Y-8717214D01*
X7006031Y-8712929D01*
X6988889Y-8712929D01*
X6980317Y-8717214D01*
X6976031Y-8721500D01*
X6971746Y-8730071D01*
X7692143Y-8040714D02*
X7662143Y-7997857D01*
X7640714Y-8040714D02*
X7640714Y-7950714D01*
X7675000Y-7950714D01*
X7683571Y-7955000D01*
X7687857Y-7959286D01*
X7692143Y-7967857D01*
X7692143Y-7980714D01*
X7687857Y-7989286D01*
X7683571Y-7993571D01*
X7675000Y-7997857D01*
X7640714Y-7997857D01*
X7769286Y-7980714D02*
X7769286Y-8040714D01*
X7747857Y-7946429D02*
X7726429Y-8010714D01*
X7782143Y-8010714D01*
X7863571Y-8040714D02*
X7812143Y-8040714D01*
X7837857Y-8040714D02*
X7837857Y-7950714D01*
X7829286Y-7963571D01*
X7820714Y-7972143D01*
X7812143Y-7976429D01*
X9343914Y-8262057D02*
X9301057Y-8292057D01*
X9343914Y-8313486D02*
X9253914Y-8313486D01*
X9253914Y-8279200D01*
X9258200Y-8270629D01*
X9262486Y-8266343D01*
X9271057Y-8262057D01*
X9283914Y-8262057D01*
X9292486Y-8266343D01*
X9296771Y-8270629D01*
X9301057Y-8279200D01*
X9301057Y-8313486D01*
X9283914Y-8184914D02*
X9343914Y-8184914D01*
X9249629Y-8206343D02*
X9313914Y-8227771D01*
X9313914Y-8172057D01*
X9262486Y-8142057D02*
X9258200Y-8137771D01*
X9253914Y-8129200D01*
X9253914Y-8107771D01*
X9258200Y-8099200D01*
X9262486Y-8094914D01*
X9271057Y-8090629D01*
X9279629Y-8090629D01*
X9292486Y-8094914D01*
X9343914Y-8146343D01*
X9343914Y-8090629D01*
X8726244Y-8082987D02*
X8683387Y-8112987D01*
X8726244Y-8134416D02*
X8636244Y-8134416D01*
X8636244Y-8100130D01*
X8640530Y-8091559D01*
X8644816Y-8087273D01*
X8653387Y-8082987D01*
X8666244Y-8082987D01*
X8674816Y-8087273D01*
X8679101Y-8091559D01*
X8683387Y-8100130D01*
X8683387Y-8134416D01*
X8666244Y-8005844D02*
X8726244Y-8005844D01*
X8631959Y-8027273D02*
X8696244Y-8048701D01*
X8696244Y-7992987D01*
X8636244Y-7967273D02*
X8636244Y-7911559D01*
X8670530Y-7941559D01*
X8670530Y-7928701D01*
X8674816Y-7920130D01*
X8679101Y-7915844D01*
X8687673Y-7911559D01*
X8709101Y-7911559D01*
X8717673Y-7915844D01*
X8721959Y-7920130D01*
X8726244Y-7928701D01*
X8726244Y-7954416D01*
X8721959Y-7962987D01*
X8717673Y-7967273D01*
X9343914Y-7881057D02*
X9301057Y-7911057D01*
X9343914Y-7932486D02*
X9253914Y-7932486D01*
X9253914Y-7898200D01*
X9258200Y-7889629D01*
X9262486Y-7885343D01*
X9271057Y-7881057D01*
X9283914Y-7881057D01*
X9292486Y-7885343D01*
X9296771Y-7889629D01*
X9301057Y-7898200D01*
X9301057Y-7932486D01*
X9283914Y-7803914D02*
X9343914Y-7803914D01*
X9249629Y-7825343D02*
X9313914Y-7846771D01*
X9313914Y-7791057D01*
X9283914Y-7718200D02*
X9343914Y-7718200D01*
X9249629Y-7739629D02*
X9313914Y-7761057D01*
X9313914Y-7705343D01*
X7940714Y-8282857D02*
X7897857Y-8312857D01*
X7940714Y-8334286D02*
X7850714Y-8334286D01*
X7850714Y-8300000D01*
X7855000Y-8291429D01*
X7859286Y-8287143D01*
X7867857Y-8282857D01*
X7880714Y-8282857D01*
X7889286Y-8287143D01*
X7893571Y-8291429D01*
X7897857Y-8300000D01*
X7897857Y-8334286D01*
X7880714Y-8205714D02*
X7940714Y-8205714D01*
X7846429Y-8227143D02*
X7910714Y-8248571D01*
X7910714Y-8192857D01*
X7850714Y-8115714D02*
X7850714Y-8158571D01*
X7893571Y-8162857D01*
X7889286Y-8158571D01*
X7885000Y-8150000D01*
X7885000Y-8128571D01*
X7889286Y-8120000D01*
X7893571Y-8115714D01*
X7902143Y-8111429D01*
X7923571Y-8111429D01*
X7932143Y-8115714D01*
X7936429Y-8120000D01*
X7940714Y-8128571D01*
X7940714Y-8150000D01*
X7936429Y-8158571D01*
X7932143Y-8162857D01*
X6942143Y-8290714D02*
X6912143Y-8247857D01*
X6890714Y-8290714D02*
X6890714Y-8200714D01*
X6925000Y-8200714D01*
X6933571Y-8205000D01*
X6937857Y-8209286D01*
X6942143Y-8217857D01*
X6942143Y-8230714D01*
X6937857Y-8239286D01*
X6933571Y-8243571D01*
X6925000Y-8247857D01*
X6890714Y-8247857D01*
X7019286Y-8230714D02*
X7019286Y-8290714D01*
X6997857Y-8196429D02*
X6976429Y-8260714D01*
X7032143Y-8260714D01*
X7070714Y-8290714D02*
X7087857Y-8290714D01*
X7096429Y-8286429D01*
X7100714Y-8282143D01*
X7109286Y-8269286D01*
X7113571Y-8252143D01*
X7113571Y-8217857D01*
X7109286Y-8209286D01*
X7105000Y-8205000D01*
X7096429Y-8200714D01*
X7079286Y-8200714D01*
X7070714Y-8205000D01*
X7066429Y-8209286D01*
X7062143Y-8217857D01*
X7062143Y-8239286D01*
X7066429Y-8247857D01*
X7070714Y-8252143D01*
X7079286Y-8256429D01*
X7096429Y-8256429D01*
X7105000Y-8252143D01*
X7109286Y-8247857D01*
X7113571Y-8239286D01*
X5176594Y-5838574D02*
X5133737Y-5868574D01*
X5176594Y-5890003D02*
X5086594Y-5890003D01*
X5086594Y-5855717D01*
X5090880Y-5847146D01*
X5095166Y-5842860D01*
X5103737Y-5838574D01*
X5116594Y-5838574D01*
X5125166Y-5842860D01*
X5129451Y-5847146D01*
X5133737Y-5855717D01*
X5133737Y-5890003D01*
X5176594Y-5752860D02*
X5176594Y-5804288D01*
X5176594Y-5778574D02*
X5086594Y-5778574D01*
X5099451Y-5787146D01*
X5108023Y-5795717D01*
X5112309Y-5804288D01*
X5086594Y-5697146D02*
X5086594Y-5688574D01*
X5090880Y-5680003D01*
X5095166Y-5675717D01*
X5103737Y-5671431D01*
X5120880Y-5667146D01*
X5142309Y-5667146D01*
X5159451Y-5671431D01*
X5168023Y-5675717D01*
X5172309Y-5680003D01*
X5176594Y-5688574D01*
X5176594Y-5697146D01*
X5172309Y-5705717D01*
X5168023Y-5710003D01*
X5159451Y-5714288D01*
X5142309Y-5718574D01*
X5120880Y-5718574D01*
X5103737Y-5714288D01*
X5095166Y-5710003D01*
X5090880Y-5705717D01*
X5086594Y-5697146D01*
X5176594Y-5581431D02*
X5176594Y-5632860D01*
X5176594Y-5607146D02*
X5086594Y-5607146D01*
X5099451Y-5615717D01*
X5108023Y-5624288D01*
X5112309Y-5632860D01*
X5753174Y-10054974D02*
X5710317Y-10084974D01*
X5753174Y-10106403D02*
X5663174Y-10106403D01*
X5663174Y-10072117D01*
X5667460Y-10063546D01*
X5671746Y-10059260D01*
X5680317Y-10054974D01*
X5693174Y-10054974D01*
X5701746Y-10059260D01*
X5706031Y-10063546D01*
X5710317Y-10072117D01*
X5710317Y-10106403D01*
X5753174Y-9969260D02*
X5753174Y-10020689D01*
X5753174Y-9994974D02*
X5663174Y-9994974D01*
X5676031Y-10003546D01*
X5684603Y-10012117D01*
X5688889Y-10020689D01*
X5663174Y-9913546D02*
X5663174Y-9904974D01*
X5667460Y-9896403D01*
X5671746Y-9892117D01*
X5680317Y-9887831D01*
X5697460Y-9883546D01*
X5718889Y-9883546D01*
X5736031Y-9887831D01*
X5744603Y-9892117D01*
X5748889Y-9896403D01*
X5753174Y-9904974D01*
X5753174Y-9913546D01*
X5748889Y-9922117D01*
X5744603Y-9926403D01*
X5736031Y-9930689D01*
X5718889Y-9934974D01*
X5697460Y-9934974D01*
X5680317Y-9930689D01*
X5671746Y-9926403D01*
X5667460Y-9922117D01*
X5663174Y-9913546D01*
X5671746Y-9849260D02*
X5667460Y-9844974D01*
X5663174Y-9836403D01*
X5663174Y-9814974D01*
X5667460Y-9806403D01*
X5671746Y-9802117D01*
X5680317Y-9797831D01*
X5688889Y-9797831D01*
X5701746Y-9802117D01*
X5753174Y-9853546D01*
X5753174Y-9797831D01*
X5511874Y-5702043D02*
X5421874Y-5702043D01*
X5421874Y-5680614D01*
X5426160Y-5667757D01*
X5434731Y-5659186D01*
X5443303Y-5654900D01*
X5460446Y-5650614D01*
X5473303Y-5650614D01*
X5490446Y-5654900D01*
X5499017Y-5659186D01*
X5507589Y-5667757D01*
X5511874Y-5680614D01*
X5511874Y-5702043D01*
X5511874Y-5564900D02*
X5511874Y-5616328D01*
X5511874Y-5590614D02*
X5421874Y-5590614D01*
X5434731Y-5599186D01*
X5443303Y-5607757D01*
X5447589Y-5616328D01*
X5421874Y-5509186D02*
X5421874Y-5500614D01*
X5426160Y-5492043D01*
X5430446Y-5487757D01*
X5439017Y-5483471D01*
X5456160Y-5479186D01*
X5477589Y-5479186D01*
X5494731Y-5483471D01*
X5503303Y-5487757D01*
X5507589Y-5492043D01*
X5511874Y-5500614D01*
X5511874Y-5509186D01*
X5507589Y-5517757D01*
X5503303Y-5522043D01*
X5494731Y-5526329D01*
X5477589Y-5530614D01*
X5456160Y-5530614D01*
X5439017Y-5526329D01*
X5430446Y-5522043D01*
X5426160Y-5517757D01*
X5421874Y-5509186D01*
X5430446Y-5444900D02*
X5426160Y-5440614D01*
X5421874Y-5432043D01*
X5421874Y-5410614D01*
X5426160Y-5402043D01*
X5430446Y-5397757D01*
X5439017Y-5393471D01*
X5447589Y-5393471D01*
X5460446Y-5397757D01*
X5511874Y-5449186D01*
X5511874Y-5393471D01*
X6827777Y-7084134D02*
X6827777Y-6994134D01*
X6849206Y-6994134D01*
X6862063Y-6998420D01*
X6870634Y-7006991D01*
X6874920Y-7015563D01*
X6879206Y-7032706D01*
X6879206Y-7045563D01*
X6874920Y-7062706D01*
X6870634Y-7071277D01*
X6862063Y-7079849D01*
X6849206Y-7084134D01*
X6827777Y-7084134D01*
X6964920Y-7084134D02*
X6913491Y-7084134D01*
X6939206Y-7084134D02*
X6939206Y-6994134D01*
X6930634Y-7006991D01*
X6922063Y-7015563D01*
X6913491Y-7019849D01*
X7020634Y-6994134D02*
X7029206Y-6994134D01*
X7037777Y-6998420D01*
X7042063Y-7002706D01*
X7046349Y-7011277D01*
X7050634Y-7028420D01*
X7050634Y-7049849D01*
X7046349Y-7066991D01*
X7042063Y-7075563D01*
X7037777Y-7079849D01*
X7029206Y-7084134D01*
X7020634Y-7084134D01*
X7012063Y-7079849D01*
X7007777Y-7075563D01*
X7003491Y-7066991D01*
X6999206Y-7049849D01*
X6999206Y-7028420D01*
X7003491Y-7011277D01*
X7007777Y-7002706D01*
X7012063Y-6998420D01*
X7020634Y-6994134D01*
X7080634Y-6994134D02*
X7136349Y-6994134D01*
X7106349Y-7028420D01*
X7119206Y-7028420D01*
X7127777Y-7032706D01*
X7132063Y-7036991D01*
X7136349Y-7045563D01*
X7136349Y-7066991D01*
X7132063Y-7075563D01*
X7127777Y-7079849D01*
X7119206Y-7084134D01*
X7093491Y-7084134D01*
X7084920Y-7079849D01*
X7080634Y-7075563D01*
X7271157Y-7376374D02*
X7271157Y-7286374D01*
X7292586Y-7286374D01*
X7305443Y-7290660D01*
X7314014Y-7299231D01*
X7318300Y-7307803D01*
X7322586Y-7324946D01*
X7322586Y-7337803D01*
X7318300Y-7354946D01*
X7314014Y-7363517D01*
X7305443Y-7372089D01*
X7292586Y-7376374D01*
X7271157Y-7376374D01*
X7408300Y-7376374D02*
X7356871Y-7376374D01*
X7382586Y-7376374D02*
X7382586Y-7286374D01*
X7374014Y-7299231D01*
X7365443Y-7307803D01*
X7356871Y-7312089D01*
X7464014Y-7286374D02*
X7472586Y-7286374D01*
X7481157Y-7290660D01*
X7485443Y-7294946D01*
X7489729Y-7303517D01*
X7494014Y-7320660D01*
X7494014Y-7342089D01*
X7489729Y-7359231D01*
X7485443Y-7367803D01*
X7481157Y-7372089D01*
X7472586Y-7376374D01*
X7464014Y-7376374D01*
X7455443Y-7372089D01*
X7451157Y-7367803D01*
X7446871Y-7359231D01*
X7442586Y-7342089D01*
X7442586Y-7320660D01*
X7446871Y-7303517D01*
X7451157Y-7294946D01*
X7455443Y-7290660D01*
X7464014Y-7286374D01*
X7571157Y-7316374D02*
X7571157Y-7376374D01*
X7549729Y-7282089D02*
X7528300Y-7346374D01*
X7584014Y-7346374D01*
X5174054Y-6268463D02*
X5084054Y-6268463D01*
X5084054Y-6247034D01*
X5088340Y-6234177D01*
X5096911Y-6225606D01*
X5105483Y-6221320D01*
X5122626Y-6217034D01*
X5135483Y-6217034D01*
X5152626Y-6221320D01*
X5161197Y-6225606D01*
X5169769Y-6234177D01*
X5174054Y-6247034D01*
X5174054Y-6268463D01*
X5174054Y-6131320D02*
X5174054Y-6182748D01*
X5174054Y-6157034D02*
X5084054Y-6157034D01*
X5096911Y-6165606D01*
X5105483Y-6174177D01*
X5109769Y-6182748D01*
X5084054Y-6075606D02*
X5084054Y-6067034D01*
X5088340Y-6058463D01*
X5092626Y-6054177D01*
X5101197Y-6049891D01*
X5118340Y-6045606D01*
X5139769Y-6045606D01*
X5156911Y-6049891D01*
X5165483Y-6054177D01*
X5169769Y-6058463D01*
X5174054Y-6067034D01*
X5174054Y-6075606D01*
X5169769Y-6084177D01*
X5165483Y-6088463D01*
X5156911Y-6092748D01*
X5139769Y-6097034D01*
X5118340Y-6097034D01*
X5101197Y-6092748D01*
X5092626Y-6088463D01*
X5088340Y-6084177D01*
X5084054Y-6075606D01*
X5084054Y-5964177D02*
X5084054Y-6007034D01*
X5126911Y-6011320D01*
X5122626Y-6007034D01*
X5118340Y-5998463D01*
X5118340Y-5977034D01*
X5122626Y-5968463D01*
X5126911Y-5964177D01*
X5135483Y-5959891D01*
X5156911Y-5959891D01*
X5165483Y-5964177D01*
X5169769Y-5968463D01*
X5174054Y-5977034D01*
X5174054Y-5998463D01*
X5169769Y-6007034D01*
X5165483Y-6011320D01*
X4750014Y-8206483D02*
X4660014Y-8206483D01*
X4660014Y-8185054D01*
X4664300Y-8172197D01*
X4672871Y-8163626D01*
X4681443Y-8159340D01*
X4698586Y-8155054D01*
X4711443Y-8155054D01*
X4728586Y-8159340D01*
X4737157Y-8163626D01*
X4745729Y-8172197D01*
X4750014Y-8185054D01*
X4750014Y-8206483D01*
X4750014Y-8069340D02*
X4750014Y-8120768D01*
X4750014Y-8095054D02*
X4660014Y-8095054D01*
X4672871Y-8103626D01*
X4681443Y-8112197D01*
X4685729Y-8120768D01*
X4660014Y-8013626D02*
X4660014Y-8005054D01*
X4664300Y-7996483D01*
X4668586Y-7992197D01*
X4677157Y-7987911D01*
X4694300Y-7983626D01*
X4715729Y-7983626D01*
X4732871Y-7987911D01*
X4741443Y-7992197D01*
X4745729Y-7996483D01*
X4750014Y-8005054D01*
X4750014Y-8013626D01*
X4745729Y-8022197D01*
X4741443Y-8026483D01*
X4732871Y-8030768D01*
X4715729Y-8035054D01*
X4694300Y-8035054D01*
X4677157Y-8030768D01*
X4668586Y-8026483D01*
X4664300Y-8022197D01*
X4660014Y-8013626D01*
X4660014Y-7906483D02*
X4660014Y-7923626D01*
X4664300Y-7932197D01*
X4668586Y-7936483D01*
X4681443Y-7945054D01*
X4698586Y-7949340D01*
X4732871Y-7949340D01*
X4741443Y-7945054D01*
X4745729Y-7940768D01*
X4750014Y-7932197D01*
X4750014Y-7915054D01*
X4745729Y-7906483D01*
X4741443Y-7902197D01*
X4732871Y-7897911D01*
X4711443Y-7897911D01*
X4702871Y-7902197D01*
X4698586Y-7906483D01*
X4694300Y-7915054D01*
X4694300Y-7932197D01*
X4698586Y-7940768D01*
X4702871Y-7945054D01*
X4711443Y-7949340D01*
X4551754Y-6888223D02*
X4461754Y-6888223D01*
X4461754Y-6866794D01*
X4466040Y-6853937D01*
X4474611Y-6845366D01*
X4483183Y-6841080D01*
X4500326Y-6836794D01*
X4513183Y-6836794D01*
X4530326Y-6841080D01*
X4538897Y-6845366D01*
X4547469Y-6853937D01*
X4551754Y-6866794D01*
X4551754Y-6888223D01*
X4551754Y-6751080D02*
X4551754Y-6802508D01*
X4551754Y-6776794D02*
X4461754Y-6776794D01*
X4474611Y-6785366D01*
X4483183Y-6793937D01*
X4487469Y-6802508D01*
X4461754Y-6695366D02*
X4461754Y-6686794D01*
X4466040Y-6678223D01*
X4470326Y-6673937D01*
X4478897Y-6669651D01*
X4496040Y-6665366D01*
X4517469Y-6665366D01*
X4534611Y-6669651D01*
X4543183Y-6673937D01*
X4547469Y-6678223D01*
X4551754Y-6686794D01*
X4551754Y-6695366D01*
X4547469Y-6703937D01*
X4543183Y-6708223D01*
X4534611Y-6712508D01*
X4517469Y-6716794D01*
X4496040Y-6716794D01*
X4478897Y-6712508D01*
X4470326Y-6708223D01*
X4466040Y-6703937D01*
X4461754Y-6695366D01*
X4461754Y-6635366D02*
X4461754Y-6575366D01*
X4551754Y-6613937D01*
X10139214Y-5849363D02*
X10049214Y-5849363D01*
X10139214Y-5797934D02*
X10087786Y-5836506D01*
X10049214Y-5797934D02*
X10100643Y-5849363D01*
X10139214Y-5712220D02*
X10139214Y-5763648D01*
X10139214Y-5737934D02*
X10049214Y-5737934D01*
X10062071Y-5746506D01*
X10070643Y-5755077D01*
X10074929Y-5763648D01*
X10049214Y-5656506D02*
X10049214Y-5647934D01*
X10053500Y-5639363D01*
X10057786Y-5635077D01*
X10066357Y-5630791D01*
X10083500Y-5626506D01*
X10104929Y-5626506D01*
X10122071Y-5630791D01*
X10130643Y-5635077D01*
X10134929Y-5639363D01*
X10139214Y-5647934D01*
X10139214Y-5656506D01*
X10134929Y-5665077D01*
X10130643Y-5669363D01*
X10122071Y-5673648D01*
X10104929Y-5677934D01*
X10083500Y-5677934D01*
X10066357Y-5673648D01*
X10057786Y-5669363D01*
X10053500Y-5665077D01*
X10049214Y-5656506D01*
X10139214Y-5540791D02*
X10139214Y-5592220D01*
X10139214Y-5566506D02*
X10049214Y-5566506D01*
X10062071Y-5575077D01*
X10070643Y-5583649D01*
X10074929Y-5592220D01*
M02*
