M48
;DRILL file {KiCad 4.0.4-1.fc24-product} date Wed Oct 18 11:24:52 2017
;FORMAT={2:4/ absolute / inch / suppress leading zeros}
FMAT,2
INCH,TZ
T1C0.025
T2C0.032
T3C0.039
T4C0.043
T5C0.045
T6C0.138
%
G90
G05
M72
T1
X16840Y-28500
X17940Y-31105
X17950Y-34750
X17950Y-36750
X18390Y-26090
X18400Y-29800
X20860Y-24420
X21500Y-24000
X21700Y-27500
X21700Y-30500
X21700Y-35500
X22060Y-36320
X22077Y-38228
X22170Y-21610
X22500Y-29500
X22900Y-26400
X23530Y-27040
X23650Y-31900
X23700Y-35600
X23700Y-38300
X23710Y-33790
X23780Y-25170
X23900Y-21600
X24200Y-36500
X24300Y-30300
X25100Y-34000
X25100Y-36300
X25750Y-36500
X26200Y-36100
X26200Y-39700
X26300Y-31700
X26750Y-36500
X27400Y-35600
X27700Y-36500
X27800Y-28800
X28300Y-35500
X28300Y-37800
X28300Y-39000
X28360Y-27940
X28400Y-33000
X28450Y-32450
X29100Y-33100
X29200Y-27700
X29830Y-28290
X29850Y-27650
X29900Y-29700
X30450Y-29750
X30500Y-30500
X30500Y-32000
X30700Y-35600
X31100Y-33200
X31170Y-30830
X31500Y-33700
X31900Y-34600
X31900Y-35800
X32100Y-30300
X32300Y-29100
X32300Y-38700
X32400Y-32600
X33000Y-35000
X33000Y-37900
X33450Y-33500
X34500Y-28700
X34800Y-26600
X35800Y-29900
X36400Y-39000
X37000Y-37600
X37400Y-32400
X37400Y-34200
T2
X24600Y-25400
X25600Y-25400
X26600Y-25400
X27600Y-25400
X28600Y-25400
X29600Y-25400
X30600Y-25400
X31600Y-25400
X32600Y-25400
X33600Y-25400
T3
X39450Y-31500
X39450Y-32500
X39450Y-33500
T4
X15450Y-25500
X15450Y-26500
X15450Y-27500
X15450Y-30500
X15450Y-31500
X15450Y-32500
X15450Y-35500
X15450Y-36500
X15450Y-37500
X17450Y-41500
X18450Y-41500
X19450Y-41500
X20450Y-25500
X20450Y-26500
X20450Y-27500
X20450Y-30500
X20450Y-31500
X20450Y-32500
X20450Y-35500
X20450Y-36500
X20450Y-37500
X22450Y-41500
X23450Y-41500
X24300Y-29400
X24450Y-41500
X25300Y-29400
X26300Y-29400
X27400Y-41500
X28400Y-41500
X29400Y-41500
X32450Y-41500
X33450Y-41500
X34450Y-41500
X35750Y-22430
X36750Y-22430
X37750Y-22430
X38800Y-25000
X38800Y-26000
X38800Y-27000
X38800Y-38200
X38800Y-39200
X38800Y-40200
T5
X25611Y-22295
X25611Y-23295
X26611Y-22295
X26611Y-23295
X27611Y-22295
X27611Y-23295
X28611Y-22295
X28611Y-23295
X29611Y-22295
X29611Y-23295
X30611Y-22295
X30611Y-23295
X31611Y-22295
X31611Y-23295
X32611Y-22295
X32611Y-23295
T6
X14450Y-22500
X14450Y-42750
X39950Y-22500
X39950Y-42750
T0
M30
