  0
SECTION
  2
HEADER
  9
$ACADVER
  1
AC1009
  9
$INSBASE
 10
0.0
 20
0.0
 30
0.0
  9
$EXTMIN
 10
0.0
 20
0.0
 30
0.0
  9
$EXTMAX
 10
0.0
 20
0.0
 30
0.0
  0
ENDSEC
  0
SECTION
  2
TABLES
  0
TABLE
  2
VPORT
 70
0
  0
ENDTAB
  0
TABLE
  2
LTYPE
 70
1
  0
LTYPE
  2
CONTINUOUS
 70
0
  3
Solid line
 72
65
 73
0
 40
0.0
  0
ENDTAB
  0
TABLE
  2
LAYER
 70
1
  0
LAYER
  2
0
 70
64
 62
7
  6
continuous
  0
ENDTAB
  0
TABLE
  2
STYLE
 70
1
  0
STYLE
  2
STANDARD
 70
0
 40
0
 41
1.0
 50
0.0
 71
0
 42
1
 3
ARIAL.TTF
 4

  0
ENDTAB
  0
TABLE
  2
VIEW
 70
0
  0
ENDTAB
  0
ENDSEC
  0
SECTION
  2
BLOCKS
  0
ENDSEC
  0
SECTION
  2
ENTITIES
  0
LINE
  8
mill_out
 62
0
 10
0.960913
 20
5.183
 30
0.0
 11
0.960913
 21
4.669303
 31
0.0
  0
LINE
  8
mill_out
 62
0
 10
1.5
 20
5.183
 30
0.0
 11
1.5
 21
4.669303
 31
0.0
  0
LINE
  8
mill_out
 62
0
 10
9.710913
 20
5.183
 30
0.0
 11
9.710913
 21
4.669303
 31
0.0
  0
LINE
  8
mill_out
 62
0
 10
10.25
 20
5.183
 30
0.0
 11
10.25
 21
4.669303
 31
0.0
  0
POLYLINE
  8
mill_out
 62
0
 70
1
 66
1
 10
0.0
 20
0.0
 30
0.0
  0
VERTEX
  8
mill_out
 10
13.475
 20
3.65764
 30
0.0
  0
VERTEX
  8
mill_out
 10
14.575
 20
3.65764
 30
0.0
  0
VERTEX
  8
mill_out
 10
14.575
 20
3.15764
 30
0.0
  0
VERTEX
  8
mill_out
 10
13.475
 20
3.15764
 30
0.0
  0
SEQEND
  8
mill_out
  0
POLYLINE
  8
mill_out
 62
0
 70
1
 66
1
 10
0.0
 20
0.0
 30
0.0
  0
VERTEX
  8
mill_out
 10
13.475
 20
4.685
 30
0.0
  0
VERTEX
  8
mill_out
 10
14.575
 20
4.685
 30
0.0
  0
VERTEX
  8
mill_out
 10
14.575
 20
4.185
 30
0.0
  0
VERTEX
  8
mill_out
 10
13.475
 20
4.185
 30
0.0
  0
SEQEND
  8
mill_out
  0
POLYLINE
  8
mill_out
 62
0
 70
1
 66
1
 10
0.0
 20
0.0
 30
0.0
  0
VERTEX
  8
mill_out
 10
4.975
 20
4.685
 30
0.0
  0
VERTEX
  8
mill_out
 10
6.075
 20
4.685
 30
0.0
  0
VERTEX
  8
mill_out
 10
6.075
 20
4.185
 30
0.0
  0
VERTEX
  8
mill_out
 10
4.975
 20
4.185
 30
0.0
  0
SEQEND
  8
mill_out
  0
POLYLINE
  8
mill_out
 62
0
 70
1
 66
1
 10
0.0
 20
0.0
 30
0.0
  0
VERTEX
  8
mill_out
 10
4.975
 20
3.65764
 30
0.0
  0
VERTEX
  8
mill_out
 10
6.075
 20
3.65764
 30
0.0
  0
VERTEX
  8
mill_out
 10
6.075
 20
3.15764
 30
0.0
  0
VERTEX
  8
mill_out
 10
4.975
 20
3.15764
 30
0.0
  0
SEQEND
  8
mill_out
  0
POLYLINE
  8
mill_out
 62
0
 70
1
 66
1
 10
0.0
 20
0.0
 30
0.0
  0
VERTEX
  8
mill_out
 10
-1.0
 20
6.0
 30
0.0
  0
VERTEX
  8
mill_out
 10
18.0
 20
6.0
 30
0.0
  0
VERTEX
  8
mill_out
 10
18.0
 20
1.0
 30
0.0
  0
VERTEX
  8
mill_out
 10
-1.0
 20
1.0
 30
0.0
  0
SEQEND
  8
mill_out
  0
POLYLINE
  8
mill_out
 62
0
 70
1
 66
1
 10
0.0
 20
0.0
 30
0.0
  0
VERTEX
  8
mill_out
 10
7.664
 20
5.35
 30
0.0
  0
VERTEX
  8
mill_out
 10
9.0
 20
5.35
 30
0.0
  0
VERTEX
  8
mill_out
 10
9.0
 20
4.512
 30
0.0
  0
VERTEX
  8
mill_out
 10
7.664
 20
4.512
 30
0.0
  0
SEQEND
  8
mill_out
  0
POLYLINE
  8
mill_out
 62
0
 70
1
 66
1
 10
0.0
 20
0.0
 30
0.0
  0
VERTEX
  8
mill_out
 10
7.24
 20
2.75
 30
0.0
  0
VERTEX
  8
mill_out
 10
8.0
 20
2.75
 30
0.0
  0
VERTEX
  8
mill_out
 10
8.0
 20
2.242
 30
0.0
  0
VERTEX
  8
mill_out
 10
7.24
 20
2.242
 30
0.0
  0
SEQEND
  8
mill_out
  0
ARC
  8
mill_out
 62
0
 10
1.230456
 20
4.609151
 30
0.0
 40
0.634
 50
64.84
 51
115.16
  0
ARC
  8
mill_out
 62
0
 10
1.230456
 20
5.243151
 30
0.0
 40
0.634
 50
-115.16
 51
-64.84
  0
ARC
  8
mill_out
 62
0
 10
9.980456
 20
4.609151
 30
0.0
 40
0.634
 50
64.84
 51
115.16
  0
ARC
  8
mill_out
 62
0
 10
9.980456
 20
5.243151
 30
0.0
 40
0.634
 50
-115.16
 51
-64.84
  0
CIRCLE
  8
mill_out
 62
0
 10
7.519
 20
5.466
 30
0.0
 40
0.0465
  0
CIRCLE
  8
mill_out
 62
0
 10
7.519
 20
4.396
 30
0.0
 40
0.0465
  0
CIRCLE
  8
mill_out
 62
0
 10
9.145
 20
4.396
 30
0.0
 40
0.0465
  0
CIRCLE
  8
mill_out
 62
0
 10
9.145
 20
5.466
 30
0.0
 40
0.0465
  0
CIRCLE
  8
mill_out
 62
0
 10
8.8
 20
2.75
 30
0.0
 40
0.252
  0
CIRCLE
  8
mill_out
 62
0
 10
10.0
 20
2.75
 30
0.0
 40
0.252
  0
CIRCLE
  8
mill_out
 62
0
 10
7.3
 20
3.3
 30
0.0
 40
0.078
  0
CIRCLE
  8
mill_out
 62
0
 10
7.925
 20
3.3
 30
0.0
 40
0.078
  0
CIRCLE
  8
mill_out
 62
0
 10
0.0
 20
5.5
 30
0.0
 40
0.068
  0
CIRCLE
  8
mill_out
 62
0
 10
0.0
 20
2.5
 30
0.0
 40
0.068
  0
CIRCLE
  8
mill_out
 62
0
 10
1.3125
 20
2.75
 30
0.0
 40
0.1
  0
CIRCLE
  8
mill_out
 62
0
 10
1.3125
 20
3.5
 30
0.0
 40
0.1
  0
CIRCLE
  8
mill_out
 62
0
 10
2.5
 20
2.5
 30
0.0
 40
0.068
  0
CIRCLE
  8
mill_out
 62
0
 10
2.5
 20
5.35
 30
0.0
 40
0.068
  0
CIRCLE
  8
mill_out
 62
0
 10
6.475
 20
5.35
 30
0.0
 40
0.068
  0
CIRCLE
  8
mill_out
 62
0
 10
6.475
 20
2.5
 30
0.0
 40
0.068
  0
CIRCLE
  8
mill_out
 62
0
 10
11.0
 20
2.5
 30
0.0
 40
0.068
  0
CIRCLE
  8
mill_out
 62
0
 10
11.0
 20
5.35
 30
0.0
 40
0.068
  0
CIRCLE
  8
mill_out
 62
0
 10
14.975
 20
5.35
 30
0.0
 40
0.068
  0
CIRCLE
  8
mill_out
 62
0
 10
14.975
 20
2.5
 30
0.0
 40
0.068
  0
CIRCLE
  8
mill_out
 62
0
 10
15.6875
 20
2.75
 30
0.0
 40
0.1
  0
CIRCLE
  8
mill_out
 62
0
 10
15.6875
 20
3.5
 30
0.0
 40
0.1
  0
CIRCLE
  8
mill_out
 62
0
 10
17.0
 20
2.5
 30
0.0
 40
0.068
  0
CIRCLE
  8
mill_out
 62
0
 10
17.0
 20
5.5
 30
0.0
 40
0.068
  0
POLYLINE
  8
outline
 62
0
 70
1
 66
1
 10
0.0
 20
0.0
 30
0.0
  0
VERTEX
  8
outline
 10
-1.0
 20
6.0
 30
0.0
  0
VERTEX
  8
outline
 10
18.0
 20
6.0
 30
0.0
  0
VERTEX
  8
outline
 10
18.0
 20
1.0
 30
0.0
  0
VERTEX
  8
outline
 10
-1.0
 20
1.0
 30
0.0
  0
SEQEND
  8
outline
  0
CIRCLE
  8
8-32 drill and tap
 62
0
 10
2.5
 20
5.35
 30
0.0
 40
0.068
  0
CIRCLE
  8
8-32 drill and tap
 62
0
 10
6.475
 20
5.35
 30
0.0
 40
0.068
  0
CIRCLE
  8
8-32 drill and tap
 62
0
 10
6.475
 20
2.5
 30
0.0
 40
0.068
  0
CIRCLE
  8
8-32 drill and tap
 62
0
 10
2.5
 20
2.5
 30
0.0
 40
0.068
  0
CIRCLE
  8
8-32 drill and tap
 62
0
 10
11.0
 20
5.35
 30
0.0
 40
0.068
  0
CIRCLE
  8
8-32 drill and tap
 62
0
 10
14.975
 20
5.35
 30
0.0
 40
0.068
  0
CIRCLE
  8
8-32 drill and tap
 62
0
 10
11.0
 20
2.5
 30
0.0
 40
0.068
  0
CIRCLE
  8
8-32 drill and tap
 62
0
 10
14.975
 20
2.5
 30
0.0
 40
0.068
  0
CIRCLE
  8
8-32 drill and tap
 62
0
 10
0.0
 20
5.5
 30
0.0
 40
0.068
  0
CIRCLE
  8
8-32 drill and tap
 62
0
 10
17.0
 20
5.5
 30
0.0
 40
0.068
  0
CIRCLE
  8
8-32 drill and tap
 62
0
 10
17.0
 20
2.5
 30
0.0
 40
0.068
  0
CIRCLE
  8
8-32 drill and tap
 62
0
 10
0.0
 20
2.5
 30
0.0
 40
0.068
  0
CIRCLE
  8
1/4-20 drill and tap
 62
0
 10
1.3125
 20
2.75
 30
0.0
 40
0.1
  0
CIRCLE
  8
1/4-20 drill and tap
 62
0
 10
15.6875
 20
2.75
 30
0.0
 40
0.1
  0
CIRCLE
  8
1/4-20 drill and tap
 62
0
 10
1.3125
 20
3.5
 30
0.0
 40
0.1
  0
CIRCLE
  8
1/4-20 drill and tap
 62
0
 10
15.6875
 20
3.5
 30
0.0
 40
0.1
  0
ENDSEC
  0
EOF
