G04 #@! TF.FileFunction,Copper,L2,Bot,Signal*
%FSLAX46Y46*%
G04 Gerber Fmt 4.6, Leading zero omitted, Abs format (unit mm)*
G04 Created by KiCad (PCBNEW (after 2015-mar-04 BZR unknown)-product) date Mon Jun 22 13:07:46 2015*
%MOMM*%
G01*
G04 APERTURE LIST*
%ADD10C,0.100000*%
%ADD11C,3.000000*%
%ADD12C,1.000000*%
G04 APERTURE END LIST*
D10*
D11*
X150000000Y-99600000D03*
X150000000Y-115400000D03*
X150000000Y-107500000D03*
X255000000Y-99600000D03*
X255000000Y-115400000D03*
X255000000Y-107500000D03*
X240000000Y-99600000D03*
X240000000Y-115400000D03*
X240000000Y-107500000D03*
X210000000Y-99600000D03*
X210000000Y-115400000D03*
X210000000Y-107500000D03*
X195000000Y-99600000D03*
X195000000Y-115400000D03*
X195000000Y-107500000D03*
X225000000Y-99600000D03*
X225000000Y-115400000D03*
X225000000Y-107500000D03*
X165000000Y-99600000D03*
X165000000Y-115400000D03*
X165000000Y-107500000D03*
X135000000Y-99600000D03*
X135000000Y-115400000D03*
X135000000Y-107500000D03*
X120000000Y-99600000D03*
X120000000Y-115400000D03*
X120000000Y-107500000D03*
X105000000Y-99600000D03*
X105000000Y-115400000D03*
X105000000Y-107500000D03*
X90000000Y-103550000D03*
X90000000Y-111450000D03*
X75000000Y-111450000D03*
X75000000Y-103550000D03*
D12*
G36*
X264500000Y-122000000D02*
X258000519Y-122000000D01*
X258000519Y-114805881D01*
X258000519Y-99005881D01*
X257544759Y-97902857D01*
X256701582Y-97058207D01*
X255599355Y-96600522D01*
X254405881Y-96599481D01*
X253302857Y-97055241D01*
X252458207Y-97898418D01*
X252000522Y-99000645D01*
X251999481Y-100194119D01*
X252455241Y-101297143D01*
X253298418Y-102141793D01*
X254400645Y-102599478D01*
X255594119Y-102600519D01*
X256697143Y-102144759D01*
X257541793Y-101301582D01*
X257999478Y-100199355D01*
X258000519Y-99005881D01*
X258000519Y-114805881D01*
X257544759Y-113702857D01*
X256701582Y-112858207D01*
X255599355Y-112400522D01*
X254405881Y-112399481D01*
X253302857Y-112855241D01*
X252458207Y-113698418D01*
X252000522Y-114800645D01*
X251999481Y-115994119D01*
X252455241Y-117097143D01*
X253298418Y-117941793D01*
X254400645Y-118399478D01*
X255594119Y-118400519D01*
X256697143Y-117944759D01*
X257541793Y-117101582D01*
X257999478Y-115999355D01*
X258000519Y-114805881D01*
X258000519Y-122000000D01*
X243000519Y-122000000D01*
X243000519Y-114805881D01*
X243000519Y-99005881D01*
X242544759Y-97902857D01*
X241701582Y-97058207D01*
X240599355Y-96600522D01*
X239405881Y-96599481D01*
X238302857Y-97055241D01*
X237458207Y-97898418D01*
X237000522Y-99000645D01*
X236999481Y-100194119D01*
X237455241Y-101297143D01*
X238298418Y-102141793D01*
X239400645Y-102599478D01*
X240594119Y-102600519D01*
X241697143Y-102144759D01*
X242541793Y-101301582D01*
X242999478Y-100199355D01*
X243000519Y-99005881D01*
X243000519Y-114805881D01*
X242544759Y-113702857D01*
X241701582Y-112858207D01*
X240599355Y-112400522D01*
X239405881Y-112399481D01*
X238302857Y-112855241D01*
X237458207Y-113698418D01*
X237000522Y-114800645D01*
X236999481Y-115994119D01*
X237455241Y-117097143D01*
X238298418Y-117941793D01*
X239400645Y-118399478D01*
X240594119Y-118400519D01*
X241697143Y-117944759D01*
X242541793Y-117101582D01*
X242999478Y-115999355D01*
X243000519Y-114805881D01*
X243000519Y-122000000D01*
X228000519Y-122000000D01*
X228000519Y-114805881D01*
X228000519Y-99005881D01*
X227544759Y-97902857D01*
X226701582Y-97058207D01*
X225599355Y-96600522D01*
X224405881Y-96599481D01*
X223302857Y-97055241D01*
X222458207Y-97898418D01*
X222000522Y-99000645D01*
X221999481Y-100194119D01*
X222455241Y-101297143D01*
X223298418Y-102141793D01*
X224400645Y-102599478D01*
X225594119Y-102600519D01*
X226697143Y-102144759D01*
X227541793Y-101301582D01*
X227999478Y-100199355D01*
X228000519Y-99005881D01*
X228000519Y-114805881D01*
X227544759Y-113702857D01*
X226701582Y-112858207D01*
X225599355Y-112400522D01*
X224405881Y-112399481D01*
X223302857Y-112855241D01*
X222458207Y-113698418D01*
X222000522Y-114800645D01*
X221999481Y-115994119D01*
X222455241Y-117097143D01*
X223298418Y-117941793D01*
X224400645Y-118399478D01*
X225594119Y-118400519D01*
X226697143Y-117944759D01*
X227541793Y-117101582D01*
X227999478Y-115999355D01*
X228000519Y-114805881D01*
X228000519Y-122000000D01*
X213000519Y-122000000D01*
X213000519Y-114805881D01*
X213000519Y-99005881D01*
X212544759Y-97902857D01*
X211701582Y-97058207D01*
X210599355Y-96600522D01*
X209405881Y-96599481D01*
X208302857Y-97055241D01*
X207458207Y-97898418D01*
X207000522Y-99000645D01*
X206999481Y-100194119D01*
X207455241Y-101297143D01*
X208298418Y-102141793D01*
X209400645Y-102599478D01*
X210594119Y-102600519D01*
X211697143Y-102144759D01*
X212541793Y-101301582D01*
X212999478Y-100199355D01*
X213000519Y-99005881D01*
X213000519Y-114805881D01*
X212544759Y-113702857D01*
X211701582Y-112858207D01*
X210599355Y-112400522D01*
X209405881Y-112399481D01*
X208302857Y-112855241D01*
X207458207Y-113698418D01*
X207000522Y-114800645D01*
X206999481Y-115994119D01*
X207455241Y-117097143D01*
X208298418Y-117941793D01*
X209400645Y-118399478D01*
X210594119Y-118400519D01*
X211697143Y-117944759D01*
X212541793Y-117101582D01*
X212999478Y-115999355D01*
X213000519Y-114805881D01*
X213000519Y-122000000D01*
X198000519Y-122000000D01*
X198000519Y-114805881D01*
X198000519Y-99005881D01*
X197544759Y-97902857D01*
X196701582Y-97058207D01*
X195599355Y-96600522D01*
X194405881Y-96599481D01*
X193302857Y-97055241D01*
X192458207Y-97898418D01*
X192000522Y-99000645D01*
X191999481Y-100194119D01*
X192455241Y-101297143D01*
X193298418Y-102141793D01*
X194400645Y-102599478D01*
X195594119Y-102600519D01*
X196697143Y-102144759D01*
X197541793Y-101301582D01*
X197999478Y-100199355D01*
X198000519Y-99005881D01*
X198000519Y-114805881D01*
X197544759Y-113702857D01*
X196701582Y-112858207D01*
X195599355Y-112400522D01*
X194405881Y-112399481D01*
X193302857Y-112855241D01*
X192458207Y-113698418D01*
X192000522Y-114800645D01*
X191999481Y-115994119D01*
X192455241Y-117097143D01*
X193298418Y-117941793D01*
X194400645Y-118399478D01*
X195594119Y-118400519D01*
X196697143Y-117944759D01*
X197541793Y-117101582D01*
X197999478Y-115999355D01*
X198000519Y-114805881D01*
X198000519Y-122000000D01*
X183350580Y-122000000D01*
X183350580Y-114336567D01*
X183350580Y-99336567D01*
X182841647Y-98104857D01*
X181900100Y-97161665D01*
X180669280Y-96650583D01*
X179336567Y-96649420D01*
X178104857Y-97158353D01*
X177161665Y-98099900D01*
X176650583Y-99330720D01*
X176649420Y-100663433D01*
X177158353Y-101895143D01*
X178099900Y-102838335D01*
X179330720Y-103349417D01*
X180663433Y-103350580D01*
X181895143Y-102841647D01*
X182838335Y-101900100D01*
X183349417Y-100669280D01*
X183350580Y-99336567D01*
X183350580Y-114336567D01*
X182841647Y-113104857D01*
X181900100Y-112161665D01*
X180669280Y-111650583D01*
X179336567Y-111649420D01*
X178104857Y-112158353D01*
X177161665Y-113099900D01*
X176650583Y-114330720D01*
X176649420Y-115663433D01*
X177158353Y-116895143D01*
X178099900Y-117838335D01*
X179330720Y-118349417D01*
X180663433Y-118350580D01*
X181895143Y-117841647D01*
X182838335Y-116900100D01*
X183349417Y-115669280D01*
X183350580Y-114336567D01*
X183350580Y-122000000D01*
X168000519Y-122000000D01*
X168000519Y-114805881D01*
X168000519Y-99005881D01*
X167544759Y-97902857D01*
X166701582Y-97058207D01*
X165599355Y-96600522D01*
X164405881Y-96599481D01*
X163302857Y-97055241D01*
X162458207Y-97898418D01*
X162000522Y-99000645D01*
X161999481Y-100194119D01*
X162455241Y-101297143D01*
X163298418Y-102141793D01*
X164400645Y-102599478D01*
X165594119Y-102600519D01*
X166697143Y-102144759D01*
X167541793Y-101301582D01*
X167999478Y-100199355D01*
X168000519Y-99005881D01*
X168000519Y-114805881D01*
X167544759Y-113702857D01*
X166701582Y-112858207D01*
X165599355Y-112400522D01*
X164405881Y-112399481D01*
X163302857Y-112855241D01*
X162458207Y-113698418D01*
X162000522Y-114800645D01*
X161999481Y-115994119D01*
X162455241Y-117097143D01*
X163298418Y-117941793D01*
X164400645Y-118399478D01*
X165594119Y-118400519D01*
X166697143Y-117944759D01*
X167541793Y-117101582D01*
X167999478Y-115999355D01*
X168000519Y-114805881D01*
X168000519Y-122000000D01*
X153000519Y-122000000D01*
X153000519Y-114805881D01*
X153000519Y-99005881D01*
X152544759Y-97902857D01*
X151701582Y-97058207D01*
X150599355Y-96600522D01*
X149405881Y-96599481D01*
X148302857Y-97055241D01*
X147458207Y-97898418D01*
X147000522Y-99000645D01*
X146999481Y-100194119D01*
X147455241Y-101297143D01*
X148298418Y-102141793D01*
X149400645Y-102599478D01*
X150594119Y-102600519D01*
X151697143Y-102144759D01*
X152541793Y-101301582D01*
X152999478Y-100199355D01*
X153000519Y-99005881D01*
X153000519Y-114805881D01*
X152544759Y-113702857D01*
X151701582Y-112858207D01*
X150599355Y-112400522D01*
X149405881Y-112399481D01*
X148302857Y-112855241D01*
X147458207Y-113698418D01*
X147000522Y-114800645D01*
X146999481Y-115994119D01*
X147455241Y-117097143D01*
X148298418Y-117941793D01*
X149400645Y-118399478D01*
X150594119Y-118400519D01*
X151697143Y-117944759D01*
X152541793Y-117101582D01*
X152999478Y-115999355D01*
X153000519Y-114805881D01*
X153000519Y-122000000D01*
X138000519Y-122000000D01*
X138000519Y-114805881D01*
X138000519Y-99005881D01*
X137544759Y-97902857D01*
X136701582Y-97058207D01*
X135599355Y-96600522D01*
X134405881Y-96599481D01*
X133302857Y-97055241D01*
X132458207Y-97898418D01*
X132000522Y-99000645D01*
X131999481Y-100194119D01*
X132455241Y-101297143D01*
X133298418Y-102141793D01*
X134400645Y-102599478D01*
X135594119Y-102600519D01*
X136697143Y-102144759D01*
X137541793Y-101301582D01*
X137999478Y-100199355D01*
X138000519Y-99005881D01*
X138000519Y-114805881D01*
X137544759Y-113702857D01*
X136701582Y-112858207D01*
X135599355Y-112400522D01*
X134405881Y-112399481D01*
X133302857Y-112855241D01*
X132458207Y-113698418D01*
X132000522Y-114800645D01*
X131999481Y-115994119D01*
X132455241Y-117097143D01*
X133298418Y-117941793D01*
X134400645Y-118399478D01*
X135594119Y-118400519D01*
X136697143Y-117944759D01*
X137541793Y-117101582D01*
X137999478Y-115999355D01*
X138000519Y-114805881D01*
X138000519Y-122000000D01*
X123000519Y-122000000D01*
X123000519Y-114805881D01*
X123000519Y-99005881D01*
X122544759Y-97902857D01*
X121701582Y-97058207D01*
X120599355Y-96600522D01*
X119405881Y-96599481D01*
X118302857Y-97055241D01*
X117458207Y-97898418D01*
X117000522Y-99000645D01*
X116999481Y-100194119D01*
X117455241Y-101297143D01*
X118298418Y-102141793D01*
X119400645Y-102599478D01*
X120594119Y-102600519D01*
X121697143Y-102144759D01*
X122541793Y-101301582D01*
X122999478Y-100199355D01*
X123000519Y-99005881D01*
X123000519Y-114805881D01*
X122544759Y-113702857D01*
X121701582Y-112858207D01*
X120599355Y-112400522D01*
X119405881Y-112399481D01*
X118302857Y-112855241D01*
X117458207Y-113698418D01*
X117000522Y-114800645D01*
X116999481Y-115994119D01*
X117455241Y-117097143D01*
X118298418Y-117941793D01*
X119400645Y-118399478D01*
X120594119Y-118400519D01*
X121697143Y-117944759D01*
X122541793Y-117101582D01*
X122999478Y-115999355D01*
X123000519Y-114805881D01*
X123000519Y-122000000D01*
X108000519Y-122000000D01*
X108000519Y-114805881D01*
X108000519Y-99005881D01*
X107544759Y-97902857D01*
X106701582Y-97058207D01*
X105599355Y-96600522D01*
X104405881Y-96599481D01*
X103302857Y-97055241D01*
X102458207Y-97898418D01*
X102000522Y-99000645D01*
X101999481Y-100194119D01*
X102455241Y-101297143D01*
X103298418Y-102141793D01*
X104400645Y-102599478D01*
X105594119Y-102600519D01*
X106697143Y-102144759D01*
X107541793Y-101301582D01*
X107999478Y-100199355D01*
X108000519Y-99005881D01*
X108000519Y-114805881D01*
X107544759Y-113702857D01*
X106701582Y-112858207D01*
X105599355Y-112400522D01*
X104405881Y-112399481D01*
X103302857Y-112855241D01*
X102458207Y-113698418D01*
X102000522Y-114800645D01*
X101999481Y-115994119D01*
X102455241Y-117097143D01*
X103298418Y-117941793D01*
X104400645Y-118399478D01*
X105594119Y-118400519D01*
X106697143Y-117944759D01*
X107541793Y-117101582D01*
X107999478Y-115999355D01*
X108000519Y-114805881D01*
X108000519Y-122000000D01*
X93000519Y-122000000D01*
X93000519Y-102955881D01*
X92544759Y-101852857D01*
X91701582Y-101008207D01*
X90599355Y-100550522D01*
X89405881Y-100549481D01*
X88302857Y-101005241D01*
X87458207Y-101848418D01*
X87000522Y-102950645D01*
X86999481Y-104144119D01*
X87455241Y-105247143D01*
X88298418Y-106091793D01*
X89400645Y-106549478D01*
X90594119Y-106550519D01*
X91697143Y-106094759D01*
X92541793Y-105251582D01*
X92999478Y-104149355D01*
X93000519Y-102955881D01*
X93000519Y-122000000D01*
X78000519Y-122000000D01*
X78000519Y-110855881D01*
X77544759Y-109752857D01*
X76701582Y-108908207D01*
X75599355Y-108450522D01*
X74405881Y-108449481D01*
X73302857Y-108905241D01*
X72458207Y-109748418D01*
X72000522Y-110850645D01*
X71999481Y-112044119D01*
X72455241Y-113147143D01*
X73298418Y-113991793D01*
X74400645Y-114449478D01*
X75594119Y-114450519D01*
X76697143Y-113994759D01*
X77541793Y-113151582D01*
X77999478Y-112049355D01*
X78000519Y-110855881D01*
X78000519Y-122000000D01*
X68000000Y-122000000D01*
X68000000Y-93000000D01*
X264500000Y-93000000D01*
X264500000Y-122000000D01*
X264500000Y-122000000D01*
G37*
X264500000Y-122000000D02*
X258000519Y-122000000D01*
X258000519Y-114805881D01*
X258000519Y-99005881D01*
X257544759Y-97902857D01*
X256701582Y-97058207D01*
X255599355Y-96600522D01*
X254405881Y-96599481D01*
X253302857Y-97055241D01*
X252458207Y-97898418D01*
X252000522Y-99000645D01*
X251999481Y-100194119D01*
X252455241Y-101297143D01*
X253298418Y-102141793D01*
X254400645Y-102599478D01*
X255594119Y-102600519D01*
X256697143Y-102144759D01*
X257541793Y-101301582D01*
X257999478Y-100199355D01*
X258000519Y-99005881D01*
X258000519Y-114805881D01*
X257544759Y-113702857D01*
X256701582Y-112858207D01*
X255599355Y-112400522D01*
X254405881Y-112399481D01*
X253302857Y-112855241D01*
X252458207Y-113698418D01*
X252000522Y-114800645D01*
X251999481Y-115994119D01*
X252455241Y-117097143D01*
X253298418Y-117941793D01*
X254400645Y-118399478D01*
X255594119Y-118400519D01*
X256697143Y-117944759D01*
X257541793Y-117101582D01*
X257999478Y-115999355D01*
X258000519Y-114805881D01*
X258000519Y-122000000D01*
X243000519Y-122000000D01*
X243000519Y-114805881D01*
X243000519Y-99005881D01*
X242544759Y-97902857D01*
X241701582Y-97058207D01*
X240599355Y-96600522D01*
X239405881Y-96599481D01*
X238302857Y-97055241D01*
X237458207Y-97898418D01*
X237000522Y-99000645D01*
X236999481Y-100194119D01*
X237455241Y-101297143D01*
X238298418Y-102141793D01*
X239400645Y-102599478D01*
X240594119Y-102600519D01*
X241697143Y-102144759D01*
X242541793Y-101301582D01*
X242999478Y-100199355D01*
X243000519Y-99005881D01*
X243000519Y-114805881D01*
X242544759Y-113702857D01*
X241701582Y-112858207D01*
X240599355Y-112400522D01*
X239405881Y-112399481D01*
X238302857Y-112855241D01*
X237458207Y-113698418D01*
X237000522Y-114800645D01*
X236999481Y-115994119D01*
X237455241Y-117097143D01*
X238298418Y-117941793D01*
X239400645Y-118399478D01*
X240594119Y-118400519D01*
X241697143Y-117944759D01*
X242541793Y-117101582D01*
X242999478Y-115999355D01*
X243000519Y-114805881D01*
X243000519Y-122000000D01*
X228000519Y-122000000D01*
X228000519Y-114805881D01*
X228000519Y-99005881D01*
X227544759Y-97902857D01*
X226701582Y-97058207D01*
X225599355Y-96600522D01*
X224405881Y-96599481D01*
X223302857Y-97055241D01*
X222458207Y-97898418D01*
X222000522Y-99000645D01*
X221999481Y-100194119D01*
X222455241Y-101297143D01*
X223298418Y-102141793D01*
X224400645Y-102599478D01*
X225594119Y-102600519D01*
X226697143Y-102144759D01*
X227541793Y-101301582D01*
X227999478Y-100199355D01*
X228000519Y-99005881D01*
X228000519Y-114805881D01*
X227544759Y-113702857D01*
X226701582Y-112858207D01*
X225599355Y-112400522D01*
X224405881Y-112399481D01*
X223302857Y-112855241D01*
X222458207Y-113698418D01*
X222000522Y-114800645D01*
X221999481Y-115994119D01*
X222455241Y-117097143D01*
X223298418Y-117941793D01*
X224400645Y-118399478D01*
X225594119Y-118400519D01*
X226697143Y-117944759D01*
X227541793Y-117101582D01*
X227999478Y-115999355D01*
X228000519Y-114805881D01*
X228000519Y-122000000D01*
X213000519Y-122000000D01*
X213000519Y-114805881D01*
X213000519Y-99005881D01*
X212544759Y-97902857D01*
X211701582Y-97058207D01*
X210599355Y-96600522D01*
X209405881Y-96599481D01*
X208302857Y-97055241D01*
X207458207Y-97898418D01*
X207000522Y-99000645D01*
X206999481Y-100194119D01*
X207455241Y-101297143D01*
X208298418Y-102141793D01*
X209400645Y-102599478D01*
X210594119Y-102600519D01*
X211697143Y-102144759D01*
X212541793Y-101301582D01*
X212999478Y-100199355D01*
X213000519Y-99005881D01*
X213000519Y-114805881D01*
X212544759Y-113702857D01*
X211701582Y-112858207D01*
X210599355Y-112400522D01*
X209405881Y-112399481D01*
X208302857Y-112855241D01*
X207458207Y-113698418D01*
X207000522Y-114800645D01*
X206999481Y-115994119D01*
X207455241Y-117097143D01*
X208298418Y-117941793D01*
X209400645Y-118399478D01*
X210594119Y-118400519D01*
X211697143Y-117944759D01*
X212541793Y-117101582D01*
X212999478Y-115999355D01*
X213000519Y-114805881D01*
X213000519Y-122000000D01*
X198000519Y-122000000D01*
X198000519Y-114805881D01*
X198000519Y-99005881D01*
X197544759Y-97902857D01*
X196701582Y-97058207D01*
X195599355Y-96600522D01*
X194405881Y-96599481D01*
X193302857Y-97055241D01*
X192458207Y-97898418D01*
X192000522Y-99000645D01*
X191999481Y-100194119D01*
X192455241Y-101297143D01*
X193298418Y-102141793D01*
X194400645Y-102599478D01*
X195594119Y-102600519D01*
X196697143Y-102144759D01*
X197541793Y-101301582D01*
X197999478Y-100199355D01*
X198000519Y-99005881D01*
X198000519Y-114805881D01*
X197544759Y-113702857D01*
X196701582Y-112858207D01*
X195599355Y-112400522D01*
X194405881Y-112399481D01*
X193302857Y-112855241D01*
X192458207Y-113698418D01*
X192000522Y-114800645D01*
X191999481Y-115994119D01*
X192455241Y-117097143D01*
X193298418Y-117941793D01*
X194400645Y-118399478D01*
X195594119Y-118400519D01*
X196697143Y-117944759D01*
X197541793Y-117101582D01*
X197999478Y-115999355D01*
X198000519Y-114805881D01*
X198000519Y-122000000D01*
X183350580Y-122000000D01*
X183350580Y-114336567D01*
X183350580Y-99336567D01*
X182841647Y-98104857D01*
X181900100Y-97161665D01*
X180669280Y-96650583D01*
X179336567Y-96649420D01*
X178104857Y-97158353D01*
X177161665Y-98099900D01*
X176650583Y-99330720D01*
X176649420Y-100663433D01*
X177158353Y-101895143D01*
X178099900Y-102838335D01*
X179330720Y-103349417D01*
X180663433Y-103350580D01*
X181895143Y-102841647D01*
X182838335Y-101900100D01*
X183349417Y-100669280D01*
X183350580Y-99336567D01*
X183350580Y-114336567D01*
X182841647Y-113104857D01*
X181900100Y-112161665D01*
X180669280Y-111650583D01*
X179336567Y-111649420D01*
X178104857Y-112158353D01*
X177161665Y-113099900D01*
X176650583Y-114330720D01*
X176649420Y-115663433D01*
X177158353Y-116895143D01*
X178099900Y-117838335D01*
X179330720Y-118349417D01*
X180663433Y-118350580D01*
X181895143Y-117841647D01*
X182838335Y-116900100D01*
X183349417Y-115669280D01*
X183350580Y-114336567D01*
X183350580Y-122000000D01*
X168000519Y-122000000D01*
X168000519Y-114805881D01*
X168000519Y-99005881D01*
X167544759Y-97902857D01*
X166701582Y-97058207D01*
X165599355Y-96600522D01*
X164405881Y-96599481D01*
X163302857Y-97055241D01*
X162458207Y-97898418D01*
X162000522Y-99000645D01*
X161999481Y-100194119D01*
X162455241Y-101297143D01*
X163298418Y-102141793D01*
X164400645Y-102599478D01*
X165594119Y-102600519D01*
X166697143Y-102144759D01*
X167541793Y-101301582D01*
X167999478Y-100199355D01*
X168000519Y-99005881D01*
X168000519Y-114805881D01*
X167544759Y-113702857D01*
X166701582Y-112858207D01*
X165599355Y-112400522D01*
X164405881Y-112399481D01*
X163302857Y-112855241D01*
X162458207Y-113698418D01*
X162000522Y-114800645D01*
X161999481Y-115994119D01*
X162455241Y-117097143D01*
X163298418Y-117941793D01*
X164400645Y-118399478D01*
X165594119Y-118400519D01*
X166697143Y-117944759D01*
X167541793Y-117101582D01*
X167999478Y-115999355D01*
X168000519Y-114805881D01*
X168000519Y-122000000D01*
X153000519Y-122000000D01*
X153000519Y-114805881D01*
X153000519Y-99005881D01*
X152544759Y-97902857D01*
X151701582Y-97058207D01*
X150599355Y-96600522D01*
X149405881Y-96599481D01*
X148302857Y-97055241D01*
X147458207Y-97898418D01*
X147000522Y-99000645D01*
X146999481Y-100194119D01*
X147455241Y-101297143D01*
X148298418Y-102141793D01*
X149400645Y-102599478D01*
X150594119Y-102600519D01*
X151697143Y-102144759D01*
X152541793Y-101301582D01*
X152999478Y-100199355D01*
X153000519Y-99005881D01*
X153000519Y-114805881D01*
X152544759Y-113702857D01*
X151701582Y-112858207D01*
X150599355Y-112400522D01*
X149405881Y-112399481D01*
X148302857Y-112855241D01*
X147458207Y-113698418D01*
X147000522Y-114800645D01*
X146999481Y-115994119D01*
X147455241Y-117097143D01*
X148298418Y-117941793D01*
X149400645Y-118399478D01*
X150594119Y-118400519D01*
X151697143Y-117944759D01*
X152541793Y-117101582D01*
X152999478Y-115999355D01*
X153000519Y-114805881D01*
X153000519Y-122000000D01*
X138000519Y-122000000D01*
X138000519Y-114805881D01*
X138000519Y-99005881D01*
X137544759Y-97902857D01*
X136701582Y-97058207D01*
X135599355Y-96600522D01*
X134405881Y-96599481D01*
X133302857Y-97055241D01*
X132458207Y-97898418D01*
X132000522Y-99000645D01*
X131999481Y-100194119D01*
X132455241Y-101297143D01*
X133298418Y-102141793D01*
X134400645Y-102599478D01*
X135594119Y-102600519D01*
X136697143Y-102144759D01*
X137541793Y-101301582D01*
X137999478Y-100199355D01*
X138000519Y-99005881D01*
X138000519Y-114805881D01*
X137544759Y-113702857D01*
X136701582Y-112858207D01*
X135599355Y-112400522D01*
X134405881Y-112399481D01*
X133302857Y-112855241D01*
X132458207Y-113698418D01*
X132000522Y-114800645D01*
X131999481Y-115994119D01*
X132455241Y-117097143D01*
X133298418Y-117941793D01*
X134400645Y-118399478D01*
X135594119Y-118400519D01*
X136697143Y-117944759D01*
X137541793Y-117101582D01*
X137999478Y-115999355D01*
X138000519Y-114805881D01*
X138000519Y-122000000D01*
X123000519Y-122000000D01*
X123000519Y-114805881D01*
X123000519Y-99005881D01*
X122544759Y-97902857D01*
X121701582Y-97058207D01*
X120599355Y-96600522D01*
X119405881Y-96599481D01*
X118302857Y-97055241D01*
X117458207Y-97898418D01*
X117000522Y-99000645D01*
X116999481Y-100194119D01*
X117455241Y-101297143D01*
X118298418Y-102141793D01*
X119400645Y-102599478D01*
X120594119Y-102600519D01*
X121697143Y-102144759D01*
X122541793Y-101301582D01*
X122999478Y-100199355D01*
X123000519Y-99005881D01*
X123000519Y-114805881D01*
X122544759Y-113702857D01*
X121701582Y-112858207D01*
X120599355Y-112400522D01*
X119405881Y-112399481D01*
X118302857Y-112855241D01*
X117458207Y-113698418D01*
X117000522Y-114800645D01*
X116999481Y-115994119D01*
X117455241Y-117097143D01*
X118298418Y-117941793D01*
X119400645Y-118399478D01*
X120594119Y-118400519D01*
X121697143Y-117944759D01*
X122541793Y-117101582D01*
X122999478Y-115999355D01*
X123000519Y-114805881D01*
X123000519Y-122000000D01*
X108000519Y-122000000D01*
X108000519Y-114805881D01*
X108000519Y-99005881D01*
X107544759Y-97902857D01*
X106701582Y-97058207D01*
X105599355Y-96600522D01*
X104405881Y-96599481D01*
X103302857Y-97055241D01*
X102458207Y-97898418D01*
X102000522Y-99000645D01*
X101999481Y-100194119D01*
X102455241Y-101297143D01*
X103298418Y-102141793D01*
X104400645Y-102599478D01*
X105594119Y-102600519D01*
X106697143Y-102144759D01*
X107541793Y-101301582D01*
X107999478Y-100199355D01*
X108000519Y-99005881D01*
X108000519Y-114805881D01*
X107544759Y-113702857D01*
X106701582Y-112858207D01*
X105599355Y-112400522D01*
X104405881Y-112399481D01*
X103302857Y-112855241D01*
X102458207Y-113698418D01*
X102000522Y-114800645D01*
X101999481Y-115994119D01*
X102455241Y-117097143D01*
X103298418Y-117941793D01*
X104400645Y-118399478D01*
X105594119Y-118400519D01*
X106697143Y-117944759D01*
X107541793Y-117101582D01*
X107999478Y-115999355D01*
X108000519Y-114805881D01*
X108000519Y-122000000D01*
X93000519Y-122000000D01*
X93000519Y-102955881D01*
X92544759Y-101852857D01*
X91701582Y-101008207D01*
X90599355Y-100550522D01*
X89405881Y-100549481D01*
X88302857Y-101005241D01*
X87458207Y-101848418D01*
X87000522Y-102950645D01*
X86999481Y-104144119D01*
X87455241Y-105247143D01*
X88298418Y-106091793D01*
X89400645Y-106549478D01*
X90594119Y-106550519D01*
X91697143Y-106094759D01*
X92541793Y-105251582D01*
X92999478Y-104149355D01*
X93000519Y-102955881D01*
X93000519Y-122000000D01*
X78000519Y-122000000D01*
X78000519Y-110855881D01*
X77544759Y-109752857D01*
X76701582Y-108908207D01*
X75599355Y-108450522D01*
X74405881Y-108449481D01*
X73302857Y-108905241D01*
X72458207Y-109748418D01*
X72000522Y-110850645D01*
X71999481Y-112044119D01*
X72455241Y-113147143D01*
X73298418Y-113991793D01*
X74400645Y-114449478D01*
X75594119Y-114450519D01*
X76697143Y-113994759D01*
X77541793Y-113151582D01*
X77999478Y-112049355D01*
X78000519Y-110855881D01*
X78000519Y-122000000D01*
X68000000Y-122000000D01*
X68000000Y-93000000D01*
X264500000Y-93000000D01*
X264500000Y-122000000D01*
M02*
