M48
;DRILL file {kicad (after 2015-mar-04 BZR unknown)-product} date Mon Jun 22 13:07:48 2015
;FORMAT={3:3/ absolute / metric / keep zeros}
FMAT,2
METRIC,TZ
T1C1.800
T2C3.700
%
G90
G05
M71
T1
X075000Y-103550
X075000Y-111450
X090000Y-103550
X090000Y-111450
X105000Y-099600
X105000Y-107500
X105000Y-115400
X120000Y-099600
X120000Y-107500
X120000Y-115400
X135000Y-099600
X135000Y-107500
X135000Y-115400
X150000Y-099600
X150000Y-107500
X150000Y-115400
X165000Y-099600
X165000Y-107500
X165000Y-115400
X195000Y-099600
X195000Y-107500
X195000Y-115400
X210000Y-099600
X210000Y-107500
X210000Y-115400
X225000Y-099600
X225000Y-107500
X225000Y-115400
X240000Y-099600
X240000Y-107500
X240000Y-115400
X255000Y-099600
X255000Y-107500
X255000Y-115400
T2
X060000Y-100000
X060000Y-115000
X180000Y-100000
X180000Y-115000
X270000Y-100000
X270000Y-115000
T0
M30
