%FSLAX34Y34*%
G04 Gerber Fmt 3.4, Leading zero omitted, Abs format*
G04 (created by PCBNEW (2014-03-19 BZR 4756)-product) date Thu 19 Jun 2014 10:11:17 PM AKDT*
%MOIN*%
G01*
G70*
G90*
G04 APERTURE LIST*
%ADD10C,0.005906*%
%ADD11R,0.055000X0.055000*%
%ADD12C,0.055000*%
%ADD13R,0.094488X0.200787*%
%ADD14R,0.200787X0.094488*%
%ADD15C,0.035000*%
%ADD16C,0.039370*%
%ADD17C,0.015748*%
%ADD18C,0.019685*%
G04 APERTURE END LIST*
G54D10*
G54D11*
X46700Y-32300D03*
G54D12*
X47700Y-32300D03*
X48700Y-32300D03*
X49700Y-32300D03*
X50700Y-32300D03*
X51700Y-32300D03*
X52700Y-32300D03*
X53700Y-32300D03*
X54700Y-32300D03*
X55700Y-32300D03*
X56700Y-32300D03*
X57700Y-32300D03*
X58700Y-32300D03*
X59700Y-32300D03*
X59700Y-26300D03*
X58700Y-26300D03*
X57700Y-26300D03*
X56700Y-26300D03*
X55700Y-26300D03*
X54700Y-26300D03*
X53700Y-26300D03*
X52700Y-26300D03*
X51700Y-26300D03*
X50700Y-26300D03*
X49700Y-26300D03*
X48700Y-26300D03*
X47700Y-26300D03*
X46700Y-26300D03*
G54D13*
X50032Y-35300D03*
X46567Y-35300D03*
X52667Y-35300D03*
X56132Y-35300D03*
G54D14*
X76950Y-29982D03*
X76950Y-26517D03*
X76950Y-35382D03*
X76950Y-31917D03*
G54D15*
X74950Y-34450D03*
X72350Y-35550D03*
X71350Y-35050D03*
X70150Y-33150D03*
X70150Y-34950D03*
X67650Y-35150D03*
X70200Y-29450D03*
X70200Y-27850D03*
X71350Y-27550D03*
X64750Y-29100D03*
X65750Y-29100D03*
X67100Y-29250D03*
X66775Y-26650D03*
X64100Y-27400D03*
X62100Y-28300D03*
X65700Y-34600D03*
X66900Y-32200D03*
X74200Y-31800D03*
X74700Y-28900D03*
X75600Y-35400D03*
X75600Y-31900D03*
X75600Y-30000D03*
X75500Y-26500D03*
X64100Y-32000D03*
X63600Y-31500D03*
X63500Y-32000D03*
X62700Y-32600D03*
X64700Y-34400D03*
X62550Y-34950D03*
X62100Y-29700D03*
X62600Y-30300D03*
X45900Y-33800D03*
X49300Y-33700D03*
X51800Y-35300D03*
X52500Y-33900D03*
X61500Y-35400D03*
X56050Y-34025D03*
X48900Y-27475D03*
X48900Y-28975D03*
X58750Y-29725D03*
X60100Y-30275D03*
X58250Y-33225D03*
X56850Y-28275D03*
X64750Y-27525D03*
X62100Y-27425D03*
X65700Y-30275D03*
X65400Y-28575D03*
X64050Y-35775D03*
X60900Y-33725D03*
X62100Y-32275D03*
X65000Y-31625D03*
X60250Y-29175D03*
X64850Y-29675D03*
X64350Y-30575D03*
X60750Y-30975D03*
X63600Y-26275D03*
X63650Y-26725D03*
X60700Y-27225D03*
X72750Y-29625D03*
X72750Y-27825D03*
G54D16*
X48900Y-27475D02*
X48900Y-28975D01*
X58750Y-29725D02*
X59300Y-30275D01*
X59300Y-30275D02*
X60100Y-30275D01*
X58250Y-33225D02*
X58250Y-33125D01*
G54D17*
X58250Y-33125D02*
X58200Y-33075D01*
X58200Y-33075D02*
X58200Y-31425D01*
X58200Y-31425D02*
X56850Y-30075D01*
X56850Y-30075D02*
X56850Y-28275D01*
X64750Y-27525D02*
X64450Y-27825D01*
X64450Y-27825D02*
X63800Y-27825D01*
X63800Y-27825D02*
X63400Y-27425D01*
X63400Y-27425D02*
X62100Y-27425D01*
X65700Y-30275D02*
X66150Y-29825D01*
X66150Y-29825D02*
X66150Y-28925D01*
X66150Y-28925D02*
X65800Y-28575D01*
X65800Y-28575D02*
X65400Y-28575D01*
X64050Y-35775D02*
X63950Y-35875D01*
X63950Y-35875D02*
X62550Y-35875D01*
X62550Y-35875D02*
X60900Y-34225D01*
X60900Y-34225D02*
X60900Y-33725D01*
X62100Y-32275D02*
X62250Y-32125D01*
X62250Y-32125D02*
X62900Y-32125D01*
X62900Y-32125D02*
X63400Y-32625D01*
X63400Y-32625D02*
X64400Y-32625D01*
X64400Y-32625D02*
X65000Y-32025D01*
X65000Y-32025D02*
X65000Y-31625D01*
X60250Y-29175D02*
X62050Y-29175D01*
X62050Y-29175D02*
X62150Y-29275D01*
X62150Y-29275D02*
X63350Y-29275D01*
X63350Y-29275D02*
X63750Y-29675D01*
X63750Y-29675D02*
X64850Y-29675D01*
X64350Y-30575D02*
X63950Y-30975D01*
X63950Y-30975D02*
X60750Y-30975D01*
X63600Y-26275D02*
X63550Y-26325D01*
X63550Y-26325D02*
X60800Y-26325D01*
X60800Y-26325D02*
X60250Y-25775D01*
X60250Y-25775D02*
X54225Y-25775D01*
X54225Y-25775D02*
X53700Y-26300D01*
X61200Y-26725D02*
X63650Y-26725D01*
X60700Y-27225D02*
X61200Y-26725D01*
X72750Y-29625D02*
X72750Y-27825D01*
G54D10*
G36*
X77635Y-35985D02*
X73220Y-35985D01*
X73220Y-29531D01*
X73148Y-29358D01*
X73124Y-29334D01*
X73124Y-28116D01*
X73148Y-28091D01*
X73220Y-27918D01*
X73220Y-27731D01*
X73148Y-27558D01*
X73016Y-27426D01*
X72843Y-27354D01*
X72656Y-27354D01*
X72483Y-27426D01*
X72351Y-27558D01*
X72279Y-27731D01*
X72279Y-27918D01*
X72351Y-28091D01*
X72375Y-28115D01*
X72375Y-29333D01*
X72351Y-29358D01*
X72279Y-29531D01*
X72279Y-29718D01*
X72351Y-29891D01*
X72483Y-30023D01*
X72656Y-30095D01*
X72843Y-30095D01*
X73016Y-30023D01*
X73148Y-29891D01*
X73220Y-29718D01*
X73220Y-29531D01*
X73220Y-35985D01*
X66524Y-35985D01*
X66524Y-29825D01*
X66524Y-28925D01*
X66500Y-28805D01*
X66495Y-28781D01*
X66495Y-28781D01*
X66414Y-28660D01*
X66064Y-28310D01*
X65943Y-28229D01*
X65919Y-28224D01*
X65800Y-28200D01*
X65691Y-28200D01*
X65666Y-28176D01*
X65493Y-28104D01*
X65306Y-28104D01*
X65133Y-28176D01*
X65001Y-28308D01*
X64929Y-28481D01*
X64929Y-28668D01*
X65001Y-28841D01*
X65133Y-28973D01*
X65306Y-29045D01*
X65493Y-29045D01*
X65666Y-28973D01*
X65668Y-28971D01*
X65775Y-29079D01*
X65775Y-29670D01*
X65641Y-29804D01*
X65606Y-29804D01*
X65433Y-29876D01*
X65320Y-29989D01*
X65320Y-29581D01*
X65248Y-29408D01*
X65116Y-29276D01*
X64943Y-29204D01*
X64756Y-29204D01*
X64583Y-29276D01*
X64559Y-29300D01*
X63904Y-29300D01*
X63614Y-29010D01*
X63493Y-28929D01*
X63469Y-28924D01*
X63350Y-28900D01*
X62300Y-28900D01*
X62193Y-28829D01*
X62169Y-28824D01*
X62050Y-28800D01*
X60541Y-28800D01*
X60516Y-28776D01*
X60343Y-28704D01*
X60156Y-28704D01*
X59983Y-28776D01*
X59851Y-28908D01*
X59779Y-29081D01*
X59779Y-29268D01*
X59851Y-29441D01*
X59983Y-29573D01*
X60156Y-29645D01*
X60343Y-29645D01*
X60516Y-29573D01*
X60540Y-29549D01*
X61899Y-29549D01*
X61899Y-29549D01*
X62006Y-29620D01*
X62006Y-29620D01*
X62030Y-29625D01*
X62150Y-29649D01*
X63195Y-29649D01*
X63485Y-29939D01*
X63606Y-30020D01*
X63606Y-30020D01*
X63630Y-30025D01*
X63750Y-30049D01*
X64558Y-30049D01*
X64583Y-30073D01*
X64756Y-30145D01*
X64943Y-30145D01*
X65116Y-30073D01*
X65248Y-29941D01*
X65320Y-29768D01*
X65320Y-29581D01*
X65320Y-29989D01*
X65301Y-30008D01*
X65229Y-30181D01*
X65229Y-30368D01*
X65301Y-30541D01*
X65433Y-30673D01*
X65606Y-30745D01*
X65793Y-30745D01*
X65966Y-30673D01*
X66098Y-30541D01*
X66170Y-30368D01*
X66170Y-30333D01*
X66414Y-30089D01*
X66414Y-30089D01*
X66495Y-29968D01*
X66495Y-29968D01*
X66500Y-29944D01*
X66524Y-29825D01*
X66524Y-29825D01*
X66524Y-35985D01*
X65470Y-35985D01*
X65470Y-31531D01*
X65398Y-31358D01*
X65266Y-31226D01*
X65093Y-31154D01*
X64906Y-31154D01*
X64820Y-31190D01*
X64820Y-30481D01*
X64748Y-30308D01*
X64616Y-30176D01*
X64443Y-30104D01*
X64256Y-30104D01*
X64083Y-30176D01*
X63951Y-30308D01*
X63879Y-30481D01*
X63879Y-30516D01*
X63795Y-30600D01*
X61041Y-30600D01*
X61016Y-30576D01*
X60843Y-30504D01*
X60656Y-30504D01*
X60483Y-30576D01*
X60470Y-30589D01*
X60554Y-30463D01*
X60592Y-30275D01*
X60554Y-30086D01*
X60447Y-29927D01*
X60288Y-29820D01*
X60100Y-29782D01*
X59503Y-29782D01*
X59097Y-29377D01*
X58938Y-29270D01*
X58750Y-29232D01*
X58561Y-29270D01*
X58402Y-29377D01*
X58295Y-29536D01*
X58257Y-29725D01*
X58295Y-29913D01*
X58402Y-30072D01*
X58952Y-30622D01*
X58952Y-30622D01*
X59111Y-30729D01*
X59300Y-30767D01*
X60100Y-30767D01*
X60288Y-30729D01*
X60414Y-30645D01*
X60351Y-30708D01*
X60279Y-30881D01*
X60279Y-31068D01*
X60351Y-31241D01*
X60483Y-31373D01*
X60656Y-31445D01*
X60843Y-31445D01*
X61016Y-31373D01*
X61040Y-31349D01*
X63950Y-31349D01*
X63950Y-31349D01*
X64069Y-31325D01*
X64093Y-31320D01*
X64093Y-31320D01*
X64214Y-31239D01*
X64408Y-31045D01*
X64443Y-31045D01*
X64616Y-30973D01*
X64748Y-30841D01*
X64820Y-30668D01*
X64820Y-30481D01*
X64820Y-31190D01*
X64733Y-31226D01*
X64601Y-31358D01*
X64529Y-31531D01*
X64529Y-31718D01*
X64601Y-31891D01*
X64603Y-31893D01*
X64245Y-32250D01*
X63554Y-32250D01*
X63164Y-31860D01*
X63043Y-31779D01*
X63019Y-31774D01*
X62900Y-31750D01*
X62250Y-31750D01*
X62106Y-31779D01*
X62069Y-31804D01*
X62006Y-31804D01*
X61833Y-31876D01*
X61701Y-32008D01*
X61629Y-32181D01*
X61629Y-32368D01*
X61701Y-32541D01*
X61833Y-32673D01*
X62006Y-32745D01*
X62193Y-32745D01*
X62366Y-32673D01*
X62498Y-32541D01*
X62516Y-32499D01*
X62745Y-32499D01*
X63135Y-32889D01*
X63135Y-32889D01*
X63256Y-32970D01*
X63256Y-32970D01*
X63280Y-32975D01*
X63400Y-32999D01*
X64400Y-32999D01*
X64400Y-32999D01*
X64519Y-32975D01*
X64543Y-32970D01*
X64543Y-32970D01*
X64664Y-32889D01*
X65264Y-32289D01*
X65264Y-32289D01*
X65318Y-32208D01*
X65345Y-32168D01*
X65345Y-32168D01*
X65374Y-32025D01*
X65374Y-32025D01*
X65374Y-31916D01*
X65398Y-31891D01*
X65470Y-31718D01*
X65470Y-31531D01*
X65470Y-35985D01*
X64471Y-35985D01*
X64520Y-35868D01*
X64520Y-35681D01*
X64448Y-35508D01*
X64316Y-35376D01*
X64143Y-35304D01*
X63956Y-35304D01*
X63783Y-35376D01*
X63658Y-35500D01*
X62704Y-35500D01*
X61274Y-34070D01*
X61274Y-34016D01*
X61298Y-33991D01*
X61370Y-33818D01*
X61370Y-33631D01*
X61298Y-33458D01*
X61166Y-33326D01*
X60993Y-33254D01*
X60806Y-33254D01*
X60633Y-33326D01*
X60501Y-33458D01*
X60429Y-33631D01*
X60429Y-33818D01*
X60501Y-33991D01*
X60525Y-34015D01*
X60525Y-34225D01*
X60549Y-34344D01*
X60554Y-34368D01*
X60635Y-34489D01*
X62131Y-35985D01*
X60270Y-35985D01*
X60270Y-32187D01*
X60183Y-31977D01*
X60023Y-31816D01*
X59813Y-31729D01*
X59587Y-31729D01*
X59377Y-31816D01*
X59216Y-31976D01*
X59200Y-32016D01*
X59183Y-31977D01*
X59023Y-31816D01*
X58813Y-31729D01*
X58587Y-31729D01*
X58574Y-31735D01*
X58574Y-31425D01*
X58545Y-31281D01*
X58545Y-31281D01*
X58518Y-31241D01*
X58464Y-31160D01*
X58464Y-31160D01*
X57224Y-29920D01*
X57224Y-28566D01*
X57248Y-28541D01*
X57320Y-28368D01*
X57320Y-28181D01*
X57248Y-28008D01*
X57116Y-27876D01*
X56943Y-27804D01*
X56756Y-27804D01*
X56583Y-27876D01*
X56451Y-28008D01*
X56379Y-28181D01*
X56379Y-28368D01*
X56451Y-28541D01*
X56475Y-28565D01*
X56475Y-30075D01*
X56499Y-30194D01*
X56504Y-30218D01*
X56585Y-30339D01*
X57825Y-31579D01*
X57825Y-31734D01*
X57813Y-31729D01*
X57587Y-31729D01*
X57377Y-31816D01*
X57216Y-31976D01*
X57200Y-32016D01*
X57183Y-31977D01*
X57023Y-31816D01*
X56813Y-31729D01*
X56587Y-31729D01*
X56377Y-31816D01*
X56216Y-31976D01*
X56200Y-32016D01*
X56183Y-31977D01*
X56023Y-31816D01*
X55813Y-31729D01*
X55587Y-31729D01*
X55377Y-31816D01*
X55216Y-31976D01*
X55200Y-32016D01*
X55183Y-31977D01*
X55023Y-31816D01*
X54813Y-31729D01*
X54587Y-31729D01*
X54377Y-31816D01*
X54216Y-31976D01*
X54200Y-32016D01*
X54183Y-31977D01*
X54023Y-31816D01*
X53813Y-31729D01*
X53587Y-31729D01*
X53377Y-31816D01*
X53216Y-31976D01*
X53200Y-32016D01*
X53183Y-31977D01*
X53023Y-31816D01*
X52813Y-31729D01*
X52587Y-31729D01*
X52377Y-31816D01*
X52216Y-31976D01*
X52200Y-32016D01*
X52183Y-31977D01*
X52023Y-31816D01*
X51813Y-31729D01*
X51587Y-31729D01*
X51377Y-31816D01*
X51216Y-31976D01*
X51200Y-32016D01*
X51183Y-31977D01*
X51023Y-31816D01*
X50813Y-31729D01*
X50587Y-31729D01*
X50377Y-31816D01*
X50216Y-31976D01*
X50200Y-32016D01*
X50183Y-31977D01*
X50023Y-31816D01*
X49813Y-31729D01*
X49587Y-31729D01*
X49392Y-31810D01*
X49392Y-28975D01*
X49392Y-27475D01*
X49354Y-27286D01*
X49247Y-27127D01*
X49088Y-27020D01*
X48900Y-26982D01*
X48711Y-27020D01*
X48552Y-27127D01*
X48445Y-27286D01*
X48407Y-27475D01*
X48407Y-28975D01*
X48445Y-29163D01*
X48552Y-29322D01*
X48711Y-29429D01*
X48900Y-29467D01*
X49088Y-29429D01*
X49247Y-29322D01*
X49354Y-29163D01*
X49392Y-28975D01*
X49392Y-31810D01*
X49377Y-31816D01*
X49216Y-31976D01*
X49200Y-32016D01*
X49183Y-31977D01*
X49023Y-31816D01*
X48813Y-31729D01*
X48587Y-31729D01*
X48377Y-31816D01*
X48216Y-31976D01*
X48200Y-32016D01*
X48183Y-31977D01*
X48023Y-31816D01*
X47813Y-31729D01*
X47587Y-31729D01*
X47377Y-31816D01*
X47216Y-31976D01*
X47129Y-32186D01*
X47129Y-32412D01*
X47216Y-32622D01*
X47376Y-32783D01*
X47586Y-32870D01*
X47812Y-32870D01*
X48022Y-32783D01*
X48183Y-32623D01*
X48199Y-32583D01*
X48216Y-32622D01*
X48376Y-32783D01*
X48586Y-32870D01*
X48812Y-32870D01*
X49022Y-32783D01*
X49183Y-32623D01*
X49199Y-32583D01*
X49216Y-32622D01*
X49376Y-32783D01*
X49586Y-32870D01*
X49812Y-32870D01*
X50022Y-32783D01*
X50183Y-32623D01*
X50199Y-32583D01*
X50216Y-32622D01*
X50376Y-32783D01*
X50586Y-32870D01*
X50812Y-32870D01*
X51022Y-32783D01*
X51183Y-32623D01*
X51199Y-32583D01*
X51216Y-32622D01*
X51376Y-32783D01*
X51586Y-32870D01*
X51812Y-32870D01*
X52022Y-32783D01*
X52183Y-32623D01*
X52199Y-32583D01*
X52216Y-32622D01*
X52376Y-32783D01*
X52586Y-32870D01*
X52812Y-32870D01*
X53022Y-32783D01*
X53183Y-32623D01*
X53199Y-32583D01*
X53216Y-32622D01*
X53376Y-32783D01*
X53586Y-32870D01*
X53812Y-32870D01*
X54022Y-32783D01*
X54183Y-32623D01*
X54199Y-32583D01*
X54216Y-32622D01*
X54376Y-32783D01*
X54586Y-32870D01*
X54812Y-32870D01*
X55022Y-32783D01*
X55183Y-32623D01*
X55199Y-32583D01*
X55216Y-32622D01*
X55376Y-32783D01*
X55586Y-32870D01*
X55812Y-32870D01*
X56022Y-32783D01*
X56183Y-32623D01*
X56199Y-32583D01*
X56216Y-32622D01*
X56376Y-32783D01*
X56586Y-32870D01*
X56812Y-32870D01*
X57022Y-32783D01*
X57183Y-32623D01*
X57199Y-32583D01*
X57216Y-32622D01*
X57376Y-32783D01*
X57586Y-32870D01*
X57812Y-32870D01*
X57825Y-32864D01*
X57825Y-32890D01*
X57795Y-32936D01*
X57757Y-33125D01*
X57757Y-33225D01*
X57795Y-33413D01*
X57902Y-33572D01*
X58061Y-33679D01*
X58250Y-33717D01*
X58438Y-33679D01*
X58597Y-33572D01*
X58704Y-33413D01*
X58742Y-33225D01*
X58742Y-33125D01*
X58704Y-32936D01*
X58660Y-32870D01*
X58812Y-32870D01*
X59022Y-32783D01*
X59183Y-32623D01*
X59199Y-32583D01*
X59216Y-32622D01*
X59376Y-32783D01*
X59586Y-32870D01*
X59812Y-32870D01*
X60022Y-32783D01*
X60183Y-32623D01*
X60270Y-32413D01*
X60270Y-32187D01*
X60270Y-35985D01*
X59300Y-35985D01*
X59250Y-35985D01*
X45864Y-35985D01*
X45864Y-25764D01*
X46501Y-25764D01*
X46377Y-25816D01*
X46216Y-25976D01*
X46129Y-26186D01*
X46129Y-26412D01*
X46216Y-26622D01*
X46376Y-26783D01*
X46586Y-26870D01*
X46812Y-26870D01*
X47022Y-26783D01*
X47183Y-26623D01*
X47270Y-26413D01*
X47270Y-26187D01*
X47183Y-25977D01*
X47023Y-25816D01*
X46898Y-25764D01*
X48501Y-25764D01*
X48377Y-25816D01*
X48216Y-25976D01*
X48129Y-26186D01*
X48129Y-26412D01*
X48216Y-26622D01*
X48376Y-26783D01*
X48586Y-26870D01*
X48812Y-26870D01*
X49022Y-26783D01*
X49183Y-26623D01*
X49199Y-26583D01*
X49216Y-26622D01*
X49376Y-26783D01*
X49586Y-26870D01*
X49812Y-26870D01*
X50022Y-26783D01*
X50183Y-26623D01*
X50199Y-26583D01*
X50216Y-26622D01*
X50376Y-26783D01*
X50586Y-26870D01*
X50812Y-26870D01*
X51022Y-26783D01*
X51183Y-26623D01*
X51199Y-26583D01*
X51216Y-26622D01*
X51376Y-26783D01*
X51586Y-26870D01*
X51812Y-26870D01*
X52022Y-26783D01*
X52183Y-26623D01*
X52199Y-26583D01*
X52216Y-26622D01*
X52376Y-26783D01*
X52586Y-26870D01*
X52812Y-26870D01*
X53022Y-26783D01*
X53183Y-26623D01*
X53199Y-26583D01*
X53216Y-26622D01*
X53376Y-26783D01*
X53586Y-26870D01*
X53812Y-26870D01*
X54022Y-26783D01*
X54183Y-26623D01*
X54199Y-26583D01*
X54216Y-26622D01*
X54376Y-26783D01*
X54586Y-26870D01*
X54812Y-26870D01*
X55022Y-26783D01*
X55183Y-26623D01*
X55199Y-26583D01*
X55216Y-26622D01*
X55376Y-26783D01*
X55586Y-26870D01*
X55812Y-26870D01*
X56022Y-26783D01*
X56183Y-26623D01*
X56199Y-26583D01*
X56216Y-26622D01*
X56376Y-26783D01*
X56586Y-26870D01*
X56812Y-26870D01*
X57022Y-26783D01*
X57183Y-26623D01*
X57199Y-26583D01*
X57216Y-26622D01*
X57376Y-26783D01*
X57586Y-26870D01*
X57812Y-26870D01*
X58022Y-26783D01*
X58183Y-26623D01*
X58199Y-26583D01*
X58216Y-26622D01*
X58376Y-26783D01*
X58586Y-26870D01*
X58812Y-26870D01*
X59022Y-26783D01*
X59183Y-26623D01*
X59199Y-26583D01*
X59216Y-26622D01*
X59376Y-26783D01*
X59586Y-26870D01*
X59812Y-26870D01*
X60022Y-26783D01*
X60183Y-26623D01*
X60270Y-26413D01*
X60270Y-26324D01*
X60535Y-26589D01*
X60535Y-26589D01*
X60616Y-26643D01*
X60656Y-26670D01*
X60656Y-26670D01*
X60714Y-26681D01*
X60641Y-26754D01*
X60606Y-26754D01*
X60433Y-26826D01*
X60301Y-26958D01*
X60229Y-27131D01*
X60229Y-27318D01*
X60301Y-27491D01*
X60433Y-27623D01*
X60606Y-27695D01*
X60793Y-27695D01*
X60966Y-27623D01*
X61098Y-27491D01*
X61170Y-27318D01*
X61170Y-27283D01*
X61354Y-27099D01*
X61760Y-27099D01*
X61701Y-27158D01*
X61629Y-27331D01*
X61629Y-27518D01*
X61701Y-27691D01*
X61833Y-27823D01*
X62006Y-27895D01*
X62193Y-27895D01*
X62366Y-27823D01*
X62390Y-27799D01*
X63245Y-27799D01*
X63535Y-28089D01*
X63656Y-28170D01*
X63656Y-28170D01*
X63680Y-28175D01*
X63800Y-28199D01*
X64450Y-28199D01*
X64450Y-28199D01*
X64569Y-28175D01*
X64593Y-28170D01*
X64593Y-28170D01*
X64714Y-28089D01*
X64808Y-27995D01*
X64843Y-27995D01*
X65016Y-27923D01*
X65148Y-27791D01*
X65220Y-27618D01*
X65220Y-27431D01*
X65148Y-27258D01*
X65016Y-27126D01*
X64843Y-27054D01*
X64656Y-27054D01*
X64483Y-27126D01*
X64351Y-27258D01*
X64279Y-27431D01*
X64279Y-27450D01*
X63954Y-27450D01*
X63699Y-27195D01*
X63743Y-27195D01*
X63916Y-27123D01*
X64048Y-26991D01*
X64120Y-26818D01*
X64120Y-26631D01*
X64048Y-26458D01*
X64037Y-26447D01*
X64070Y-26368D01*
X64070Y-26181D01*
X63998Y-26008D01*
X63866Y-25876D01*
X63693Y-25804D01*
X63506Y-25804D01*
X63333Y-25876D01*
X63258Y-25950D01*
X60954Y-25950D01*
X60768Y-25764D01*
X77635Y-25764D01*
X77635Y-35985D01*
X77635Y-35985D01*
G37*
G54D18*
X77635Y-35985D02*
X73220Y-35985D01*
X73220Y-29531D01*
X73148Y-29358D01*
X73124Y-29334D01*
X73124Y-28116D01*
X73148Y-28091D01*
X73220Y-27918D01*
X73220Y-27731D01*
X73148Y-27558D01*
X73016Y-27426D01*
X72843Y-27354D01*
X72656Y-27354D01*
X72483Y-27426D01*
X72351Y-27558D01*
X72279Y-27731D01*
X72279Y-27918D01*
X72351Y-28091D01*
X72375Y-28115D01*
X72375Y-29333D01*
X72351Y-29358D01*
X72279Y-29531D01*
X72279Y-29718D01*
X72351Y-29891D01*
X72483Y-30023D01*
X72656Y-30095D01*
X72843Y-30095D01*
X73016Y-30023D01*
X73148Y-29891D01*
X73220Y-29718D01*
X73220Y-29531D01*
X73220Y-35985D01*
X66524Y-35985D01*
X66524Y-29825D01*
X66524Y-28925D01*
X66500Y-28805D01*
X66495Y-28781D01*
X66495Y-28781D01*
X66414Y-28660D01*
X66064Y-28310D01*
X65943Y-28229D01*
X65919Y-28224D01*
X65800Y-28200D01*
X65691Y-28200D01*
X65666Y-28176D01*
X65493Y-28104D01*
X65306Y-28104D01*
X65133Y-28176D01*
X65001Y-28308D01*
X64929Y-28481D01*
X64929Y-28668D01*
X65001Y-28841D01*
X65133Y-28973D01*
X65306Y-29045D01*
X65493Y-29045D01*
X65666Y-28973D01*
X65668Y-28971D01*
X65775Y-29079D01*
X65775Y-29670D01*
X65641Y-29804D01*
X65606Y-29804D01*
X65433Y-29876D01*
X65320Y-29989D01*
X65320Y-29581D01*
X65248Y-29408D01*
X65116Y-29276D01*
X64943Y-29204D01*
X64756Y-29204D01*
X64583Y-29276D01*
X64559Y-29300D01*
X63904Y-29300D01*
X63614Y-29010D01*
X63493Y-28929D01*
X63469Y-28924D01*
X63350Y-28900D01*
X62300Y-28900D01*
X62193Y-28829D01*
X62169Y-28824D01*
X62050Y-28800D01*
X60541Y-28800D01*
X60516Y-28776D01*
X60343Y-28704D01*
X60156Y-28704D01*
X59983Y-28776D01*
X59851Y-28908D01*
X59779Y-29081D01*
X59779Y-29268D01*
X59851Y-29441D01*
X59983Y-29573D01*
X60156Y-29645D01*
X60343Y-29645D01*
X60516Y-29573D01*
X60540Y-29549D01*
X61899Y-29549D01*
X61899Y-29549D01*
X62006Y-29620D01*
X62006Y-29620D01*
X62030Y-29625D01*
X62150Y-29649D01*
X63195Y-29649D01*
X63485Y-29939D01*
X63606Y-30020D01*
X63606Y-30020D01*
X63630Y-30025D01*
X63750Y-30049D01*
X64558Y-30049D01*
X64583Y-30073D01*
X64756Y-30145D01*
X64943Y-30145D01*
X65116Y-30073D01*
X65248Y-29941D01*
X65320Y-29768D01*
X65320Y-29581D01*
X65320Y-29989D01*
X65301Y-30008D01*
X65229Y-30181D01*
X65229Y-30368D01*
X65301Y-30541D01*
X65433Y-30673D01*
X65606Y-30745D01*
X65793Y-30745D01*
X65966Y-30673D01*
X66098Y-30541D01*
X66170Y-30368D01*
X66170Y-30333D01*
X66414Y-30089D01*
X66414Y-30089D01*
X66495Y-29968D01*
X66495Y-29968D01*
X66500Y-29944D01*
X66524Y-29825D01*
X66524Y-29825D01*
X66524Y-35985D01*
X65470Y-35985D01*
X65470Y-31531D01*
X65398Y-31358D01*
X65266Y-31226D01*
X65093Y-31154D01*
X64906Y-31154D01*
X64820Y-31190D01*
X64820Y-30481D01*
X64748Y-30308D01*
X64616Y-30176D01*
X64443Y-30104D01*
X64256Y-30104D01*
X64083Y-30176D01*
X63951Y-30308D01*
X63879Y-30481D01*
X63879Y-30516D01*
X63795Y-30600D01*
X61041Y-30600D01*
X61016Y-30576D01*
X60843Y-30504D01*
X60656Y-30504D01*
X60483Y-30576D01*
X60470Y-30589D01*
X60554Y-30463D01*
X60592Y-30275D01*
X60554Y-30086D01*
X60447Y-29927D01*
X60288Y-29820D01*
X60100Y-29782D01*
X59503Y-29782D01*
X59097Y-29377D01*
X58938Y-29270D01*
X58750Y-29232D01*
X58561Y-29270D01*
X58402Y-29377D01*
X58295Y-29536D01*
X58257Y-29725D01*
X58295Y-29913D01*
X58402Y-30072D01*
X58952Y-30622D01*
X58952Y-30622D01*
X59111Y-30729D01*
X59300Y-30767D01*
X60100Y-30767D01*
X60288Y-30729D01*
X60414Y-30645D01*
X60351Y-30708D01*
X60279Y-30881D01*
X60279Y-31068D01*
X60351Y-31241D01*
X60483Y-31373D01*
X60656Y-31445D01*
X60843Y-31445D01*
X61016Y-31373D01*
X61040Y-31349D01*
X63950Y-31349D01*
X63950Y-31349D01*
X64069Y-31325D01*
X64093Y-31320D01*
X64093Y-31320D01*
X64214Y-31239D01*
X64408Y-31045D01*
X64443Y-31045D01*
X64616Y-30973D01*
X64748Y-30841D01*
X64820Y-30668D01*
X64820Y-30481D01*
X64820Y-31190D01*
X64733Y-31226D01*
X64601Y-31358D01*
X64529Y-31531D01*
X64529Y-31718D01*
X64601Y-31891D01*
X64603Y-31893D01*
X64245Y-32250D01*
X63554Y-32250D01*
X63164Y-31860D01*
X63043Y-31779D01*
X63019Y-31774D01*
X62900Y-31750D01*
X62250Y-31750D01*
X62106Y-31779D01*
X62069Y-31804D01*
X62006Y-31804D01*
X61833Y-31876D01*
X61701Y-32008D01*
X61629Y-32181D01*
X61629Y-32368D01*
X61701Y-32541D01*
X61833Y-32673D01*
X62006Y-32745D01*
X62193Y-32745D01*
X62366Y-32673D01*
X62498Y-32541D01*
X62516Y-32499D01*
X62745Y-32499D01*
X63135Y-32889D01*
X63135Y-32889D01*
X63256Y-32970D01*
X63256Y-32970D01*
X63280Y-32975D01*
X63400Y-32999D01*
X64400Y-32999D01*
X64400Y-32999D01*
X64519Y-32975D01*
X64543Y-32970D01*
X64543Y-32970D01*
X64664Y-32889D01*
X65264Y-32289D01*
X65264Y-32289D01*
X65318Y-32208D01*
X65345Y-32168D01*
X65345Y-32168D01*
X65374Y-32025D01*
X65374Y-32025D01*
X65374Y-31916D01*
X65398Y-31891D01*
X65470Y-31718D01*
X65470Y-31531D01*
X65470Y-35985D01*
X64471Y-35985D01*
X64520Y-35868D01*
X64520Y-35681D01*
X64448Y-35508D01*
X64316Y-35376D01*
X64143Y-35304D01*
X63956Y-35304D01*
X63783Y-35376D01*
X63658Y-35500D01*
X62704Y-35500D01*
X61274Y-34070D01*
X61274Y-34016D01*
X61298Y-33991D01*
X61370Y-33818D01*
X61370Y-33631D01*
X61298Y-33458D01*
X61166Y-33326D01*
X60993Y-33254D01*
X60806Y-33254D01*
X60633Y-33326D01*
X60501Y-33458D01*
X60429Y-33631D01*
X60429Y-33818D01*
X60501Y-33991D01*
X60525Y-34015D01*
X60525Y-34225D01*
X60549Y-34344D01*
X60554Y-34368D01*
X60635Y-34489D01*
X62131Y-35985D01*
X60270Y-35985D01*
X60270Y-32187D01*
X60183Y-31977D01*
X60023Y-31816D01*
X59813Y-31729D01*
X59587Y-31729D01*
X59377Y-31816D01*
X59216Y-31976D01*
X59200Y-32016D01*
X59183Y-31977D01*
X59023Y-31816D01*
X58813Y-31729D01*
X58587Y-31729D01*
X58574Y-31735D01*
X58574Y-31425D01*
X58545Y-31281D01*
X58545Y-31281D01*
X58518Y-31241D01*
X58464Y-31160D01*
X58464Y-31160D01*
X57224Y-29920D01*
X57224Y-28566D01*
X57248Y-28541D01*
X57320Y-28368D01*
X57320Y-28181D01*
X57248Y-28008D01*
X57116Y-27876D01*
X56943Y-27804D01*
X56756Y-27804D01*
X56583Y-27876D01*
X56451Y-28008D01*
X56379Y-28181D01*
X56379Y-28368D01*
X56451Y-28541D01*
X56475Y-28565D01*
X56475Y-30075D01*
X56499Y-30194D01*
X56504Y-30218D01*
X56585Y-30339D01*
X57825Y-31579D01*
X57825Y-31734D01*
X57813Y-31729D01*
X57587Y-31729D01*
X57377Y-31816D01*
X57216Y-31976D01*
X57200Y-32016D01*
X57183Y-31977D01*
X57023Y-31816D01*
X56813Y-31729D01*
X56587Y-31729D01*
X56377Y-31816D01*
X56216Y-31976D01*
X56200Y-32016D01*
X56183Y-31977D01*
X56023Y-31816D01*
X55813Y-31729D01*
X55587Y-31729D01*
X55377Y-31816D01*
X55216Y-31976D01*
X55200Y-32016D01*
X55183Y-31977D01*
X55023Y-31816D01*
X54813Y-31729D01*
X54587Y-31729D01*
X54377Y-31816D01*
X54216Y-31976D01*
X54200Y-32016D01*
X54183Y-31977D01*
X54023Y-31816D01*
X53813Y-31729D01*
X53587Y-31729D01*
X53377Y-31816D01*
X53216Y-31976D01*
X53200Y-32016D01*
X53183Y-31977D01*
X53023Y-31816D01*
X52813Y-31729D01*
X52587Y-31729D01*
X52377Y-31816D01*
X52216Y-31976D01*
X52200Y-32016D01*
X52183Y-31977D01*
X52023Y-31816D01*
X51813Y-31729D01*
X51587Y-31729D01*
X51377Y-31816D01*
X51216Y-31976D01*
X51200Y-32016D01*
X51183Y-31977D01*
X51023Y-31816D01*
X50813Y-31729D01*
X50587Y-31729D01*
X50377Y-31816D01*
X50216Y-31976D01*
X50200Y-32016D01*
X50183Y-31977D01*
X50023Y-31816D01*
X49813Y-31729D01*
X49587Y-31729D01*
X49392Y-31810D01*
X49392Y-28975D01*
X49392Y-27475D01*
X49354Y-27286D01*
X49247Y-27127D01*
X49088Y-27020D01*
X48900Y-26982D01*
X48711Y-27020D01*
X48552Y-27127D01*
X48445Y-27286D01*
X48407Y-27475D01*
X48407Y-28975D01*
X48445Y-29163D01*
X48552Y-29322D01*
X48711Y-29429D01*
X48900Y-29467D01*
X49088Y-29429D01*
X49247Y-29322D01*
X49354Y-29163D01*
X49392Y-28975D01*
X49392Y-31810D01*
X49377Y-31816D01*
X49216Y-31976D01*
X49200Y-32016D01*
X49183Y-31977D01*
X49023Y-31816D01*
X48813Y-31729D01*
X48587Y-31729D01*
X48377Y-31816D01*
X48216Y-31976D01*
X48200Y-32016D01*
X48183Y-31977D01*
X48023Y-31816D01*
X47813Y-31729D01*
X47587Y-31729D01*
X47377Y-31816D01*
X47216Y-31976D01*
X47129Y-32186D01*
X47129Y-32412D01*
X47216Y-32622D01*
X47376Y-32783D01*
X47586Y-32870D01*
X47812Y-32870D01*
X48022Y-32783D01*
X48183Y-32623D01*
X48199Y-32583D01*
X48216Y-32622D01*
X48376Y-32783D01*
X48586Y-32870D01*
X48812Y-32870D01*
X49022Y-32783D01*
X49183Y-32623D01*
X49199Y-32583D01*
X49216Y-32622D01*
X49376Y-32783D01*
X49586Y-32870D01*
X49812Y-32870D01*
X50022Y-32783D01*
X50183Y-32623D01*
X50199Y-32583D01*
X50216Y-32622D01*
X50376Y-32783D01*
X50586Y-32870D01*
X50812Y-32870D01*
X51022Y-32783D01*
X51183Y-32623D01*
X51199Y-32583D01*
X51216Y-32622D01*
X51376Y-32783D01*
X51586Y-32870D01*
X51812Y-32870D01*
X52022Y-32783D01*
X52183Y-32623D01*
X52199Y-32583D01*
X52216Y-32622D01*
X52376Y-32783D01*
X52586Y-32870D01*
X52812Y-32870D01*
X53022Y-32783D01*
X53183Y-32623D01*
X53199Y-32583D01*
X53216Y-32622D01*
X53376Y-32783D01*
X53586Y-32870D01*
X53812Y-32870D01*
X54022Y-32783D01*
X54183Y-32623D01*
X54199Y-32583D01*
X54216Y-32622D01*
X54376Y-32783D01*
X54586Y-32870D01*
X54812Y-32870D01*
X55022Y-32783D01*
X55183Y-32623D01*
X55199Y-32583D01*
X55216Y-32622D01*
X55376Y-32783D01*
X55586Y-32870D01*
X55812Y-32870D01*
X56022Y-32783D01*
X56183Y-32623D01*
X56199Y-32583D01*
X56216Y-32622D01*
X56376Y-32783D01*
X56586Y-32870D01*
X56812Y-32870D01*
X57022Y-32783D01*
X57183Y-32623D01*
X57199Y-32583D01*
X57216Y-32622D01*
X57376Y-32783D01*
X57586Y-32870D01*
X57812Y-32870D01*
X57825Y-32864D01*
X57825Y-32890D01*
X57795Y-32936D01*
X57757Y-33125D01*
X57757Y-33225D01*
X57795Y-33413D01*
X57902Y-33572D01*
X58061Y-33679D01*
X58250Y-33717D01*
X58438Y-33679D01*
X58597Y-33572D01*
X58704Y-33413D01*
X58742Y-33225D01*
X58742Y-33125D01*
X58704Y-32936D01*
X58660Y-32870D01*
X58812Y-32870D01*
X59022Y-32783D01*
X59183Y-32623D01*
X59199Y-32583D01*
X59216Y-32622D01*
X59376Y-32783D01*
X59586Y-32870D01*
X59812Y-32870D01*
X60022Y-32783D01*
X60183Y-32623D01*
X60270Y-32413D01*
X60270Y-32187D01*
X60270Y-35985D01*
X59300Y-35985D01*
X59250Y-35985D01*
X45864Y-35985D01*
X45864Y-25764D01*
X46501Y-25764D01*
X46377Y-25816D01*
X46216Y-25976D01*
X46129Y-26186D01*
X46129Y-26412D01*
X46216Y-26622D01*
X46376Y-26783D01*
X46586Y-26870D01*
X46812Y-26870D01*
X47022Y-26783D01*
X47183Y-26623D01*
X47270Y-26413D01*
X47270Y-26187D01*
X47183Y-25977D01*
X47023Y-25816D01*
X46898Y-25764D01*
X48501Y-25764D01*
X48377Y-25816D01*
X48216Y-25976D01*
X48129Y-26186D01*
X48129Y-26412D01*
X48216Y-26622D01*
X48376Y-26783D01*
X48586Y-26870D01*
X48812Y-26870D01*
X49022Y-26783D01*
X49183Y-26623D01*
X49199Y-26583D01*
X49216Y-26622D01*
X49376Y-26783D01*
X49586Y-26870D01*
X49812Y-26870D01*
X50022Y-26783D01*
X50183Y-26623D01*
X50199Y-26583D01*
X50216Y-26622D01*
X50376Y-26783D01*
X50586Y-26870D01*
X50812Y-26870D01*
X51022Y-26783D01*
X51183Y-26623D01*
X51199Y-26583D01*
X51216Y-26622D01*
X51376Y-26783D01*
X51586Y-26870D01*
X51812Y-26870D01*
X52022Y-26783D01*
X52183Y-26623D01*
X52199Y-26583D01*
X52216Y-26622D01*
X52376Y-26783D01*
X52586Y-26870D01*
X52812Y-26870D01*
X53022Y-26783D01*
X53183Y-26623D01*
X53199Y-26583D01*
X53216Y-26622D01*
X53376Y-26783D01*
X53586Y-26870D01*
X53812Y-26870D01*
X54022Y-26783D01*
X54183Y-26623D01*
X54199Y-26583D01*
X54216Y-26622D01*
X54376Y-26783D01*
X54586Y-26870D01*
X54812Y-26870D01*
X55022Y-26783D01*
X55183Y-26623D01*
X55199Y-26583D01*
X55216Y-26622D01*
X55376Y-26783D01*
X55586Y-26870D01*
X55812Y-26870D01*
X56022Y-26783D01*
X56183Y-26623D01*
X56199Y-26583D01*
X56216Y-26622D01*
X56376Y-26783D01*
X56586Y-26870D01*
X56812Y-26870D01*
X57022Y-26783D01*
X57183Y-26623D01*
X57199Y-26583D01*
X57216Y-26622D01*
X57376Y-26783D01*
X57586Y-26870D01*
X57812Y-26870D01*
X58022Y-26783D01*
X58183Y-26623D01*
X58199Y-26583D01*
X58216Y-26622D01*
X58376Y-26783D01*
X58586Y-26870D01*
X58812Y-26870D01*
X59022Y-26783D01*
X59183Y-26623D01*
X59199Y-26583D01*
X59216Y-26622D01*
X59376Y-26783D01*
X59586Y-26870D01*
X59812Y-26870D01*
X60022Y-26783D01*
X60183Y-26623D01*
X60270Y-26413D01*
X60270Y-26324D01*
X60535Y-26589D01*
X60535Y-26589D01*
X60616Y-26643D01*
X60656Y-26670D01*
X60656Y-26670D01*
X60714Y-26681D01*
X60641Y-26754D01*
X60606Y-26754D01*
X60433Y-26826D01*
X60301Y-26958D01*
X60229Y-27131D01*
X60229Y-27318D01*
X60301Y-27491D01*
X60433Y-27623D01*
X60606Y-27695D01*
X60793Y-27695D01*
X60966Y-27623D01*
X61098Y-27491D01*
X61170Y-27318D01*
X61170Y-27283D01*
X61354Y-27099D01*
X61760Y-27099D01*
X61701Y-27158D01*
X61629Y-27331D01*
X61629Y-27518D01*
X61701Y-27691D01*
X61833Y-27823D01*
X62006Y-27895D01*
X62193Y-27895D01*
X62366Y-27823D01*
X62390Y-27799D01*
X63245Y-27799D01*
X63535Y-28089D01*
X63656Y-28170D01*
X63656Y-28170D01*
X63680Y-28175D01*
X63800Y-28199D01*
X64450Y-28199D01*
X64450Y-28199D01*
X64569Y-28175D01*
X64593Y-28170D01*
X64593Y-28170D01*
X64714Y-28089D01*
X64808Y-27995D01*
X64843Y-27995D01*
X65016Y-27923D01*
X65148Y-27791D01*
X65220Y-27618D01*
X65220Y-27431D01*
X65148Y-27258D01*
X65016Y-27126D01*
X64843Y-27054D01*
X64656Y-27054D01*
X64483Y-27126D01*
X64351Y-27258D01*
X64279Y-27431D01*
X64279Y-27450D01*
X63954Y-27450D01*
X63699Y-27195D01*
X63743Y-27195D01*
X63916Y-27123D01*
X64048Y-26991D01*
X64120Y-26818D01*
X64120Y-26631D01*
X64048Y-26458D01*
X64037Y-26447D01*
X64070Y-26368D01*
X64070Y-26181D01*
X63998Y-26008D01*
X63866Y-25876D01*
X63693Y-25804D01*
X63506Y-25804D01*
X63333Y-25876D01*
X63258Y-25950D01*
X60954Y-25950D01*
X60768Y-25764D01*
X77635Y-25764D01*
X77635Y-35985D01*
M02*
