%FSLAX34Y34*%
G04 Gerber Fmt 3.4, Leading zero omitted, Abs format*
G04 (created by PCBNEW (2014-03-19 BZR 4756)-product) date Thu 19 Jun 2014 10:11:17 PM AKDT*
%MOIN*%
G01*
G70*
G90*
G04 APERTURE LIST*
%ADD10C,0.005906*%
%ADD11C,0.003937*%
G04 APERTURE END LIST*
G54D10*
G54D11*
G36*
X54923Y-30869D02*
X54900Y-30984D01*
X54889Y-31019D01*
X54884Y-31031D01*
X54884Y-30790D01*
X54869Y-30697D01*
X54831Y-30599D01*
X54769Y-30490D01*
X54678Y-30362D01*
X54599Y-30260D01*
X54491Y-30122D01*
X54410Y-30009D01*
X54352Y-29915D01*
X54312Y-29832D01*
X54287Y-29752D01*
X54274Y-29669D01*
X54271Y-29630D01*
X54271Y-29523D01*
X54288Y-29432D01*
X54327Y-29344D01*
X54392Y-29250D01*
X54479Y-29151D01*
X54540Y-29081D01*
X54577Y-29030D01*
X54594Y-28985D01*
X54599Y-28936D01*
X54599Y-28925D01*
X54592Y-28850D01*
X54566Y-28783D01*
X54518Y-28719D01*
X54443Y-28654D01*
X54336Y-28583D01*
X54193Y-28500D01*
X54180Y-28493D01*
X54052Y-28413D01*
X53929Y-28317D01*
X53822Y-28216D01*
X53740Y-28118D01*
X53706Y-28062D01*
X53681Y-28006D01*
X53646Y-27923D01*
X53609Y-27828D01*
X53598Y-27799D01*
X53520Y-27632D01*
X53429Y-27506D01*
X53321Y-27418D01*
X53272Y-27392D01*
X53221Y-27372D01*
X53174Y-27362D01*
X53117Y-27362D01*
X53036Y-27370D01*
X52986Y-27376D01*
X52817Y-27393D01*
X52678Y-27392D01*
X52559Y-27373D01*
X52449Y-27334D01*
X52405Y-27312D01*
X52274Y-27259D01*
X52153Y-27243D01*
X52037Y-27266D01*
X51919Y-27330D01*
X51808Y-27420D01*
X51707Y-27503D01*
X51613Y-27560D01*
X51513Y-27593D01*
X51398Y-27605D01*
X51255Y-27600D01*
X51186Y-27593D01*
X51076Y-27582D01*
X50997Y-27577D01*
X50936Y-27579D01*
X50880Y-27589D01*
X50815Y-27607D01*
X50783Y-27617D01*
X50666Y-27662D01*
X50587Y-27714D01*
X50535Y-27779D01*
X50510Y-27843D01*
X50495Y-27909D01*
X50491Y-27974D01*
X50499Y-28048D01*
X50520Y-28141D01*
X50556Y-28260D01*
X50580Y-28333D01*
X50632Y-28504D01*
X50662Y-28649D01*
X50672Y-28780D01*
X50661Y-28908D01*
X50633Y-29039D01*
X50581Y-29208D01*
X50511Y-29366D01*
X50419Y-29522D01*
X50299Y-29684D01*
X50147Y-29861D01*
X50145Y-29863D01*
X49999Y-30043D01*
X49896Y-30212D01*
X49834Y-30372D01*
X49815Y-30524D01*
X49837Y-30669D01*
X49861Y-30735D01*
X49902Y-30808D01*
X49960Y-30869D01*
X50042Y-30926D01*
X50159Y-30985D01*
X50171Y-30990D01*
X50226Y-31014D01*
X50278Y-31031D01*
X50337Y-31042D01*
X50412Y-31050D01*
X50513Y-31054D01*
X50622Y-31057D01*
X50767Y-31063D01*
X50888Y-31073D01*
X50994Y-31090D01*
X51098Y-31117D01*
X51210Y-31156D01*
X51339Y-31211D01*
X51484Y-31278D01*
X51608Y-31334D01*
X51722Y-31379D01*
X51840Y-31419D01*
X51976Y-31457D01*
X52122Y-31494D01*
X52182Y-31500D01*
X52276Y-31501D01*
X52392Y-31496D01*
X52520Y-31487D01*
X52648Y-31474D01*
X52766Y-31458D01*
X52844Y-31444D01*
X52964Y-31416D01*
X53093Y-31383D01*
X53208Y-31350D01*
X53233Y-31342D01*
X53519Y-31271D01*
X53821Y-31242D01*
X54137Y-31255D01*
X54222Y-31265D01*
X54400Y-31282D01*
X54542Y-31280D01*
X54652Y-31257D01*
X54736Y-31211D01*
X54798Y-31139D01*
X54842Y-31040D01*
X54856Y-30994D01*
X54879Y-30887D01*
X54884Y-30790D01*
X54884Y-31031D01*
X54855Y-31104D01*
X54815Y-31180D01*
X54782Y-31225D01*
X54693Y-31289D01*
X54580Y-31328D01*
X54455Y-31337D01*
X54396Y-31329D01*
X54332Y-31321D01*
X54235Y-31311D01*
X54119Y-31303D01*
X53995Y-31296D01*
X53981Y-31295D01*
X53811Y-31292D01*
X53655Y-31299D01*
X53503Y-31318D01*
X53341Y-31351D01*
X53156Y-31400D01*
X53066Y-31426D01*
X52792Y-31495D01*
X52530Y-31536D01*
X52285Y-31549D01*
X52064Y-31532D01*
X51944Y-31508D01*
X51833Y-31477D01*
X51727Y-31441D01*
X51615Y-31397D01*
X51485Y-31339D01*
X51354Y-31278D01*
X51212Y-31213D01*
X51086Y-31167D01*
X50963Y-31135D01*
X50830Y-31116D01*
X50674Y-31105D01*
X50573Y-31102D01*
X50269Y-31095D01*
X50096Y-31007D01*
X49970Y-30932D01*
X49880Y-30853D01*
X49822Y-30760D01*
X49787Y-30645D01*
X49780Y-30609D01*
X49774Y-30478D01*
X49797Y-30347D01*
X49851Y-30211D01*
X49938Y-30064D01*
X50060Y-29902D01*
X50147Y-29801D01*
X50289Y-29631D01*
X50401Y-29471D01*
X50491Y-29309D01*
X50565Y-29131D01*
X50578Y-29097D01*
X50616Y-28973D01*
X50636Y-28860D01*
X50638Y-28747D01*
X50621Y-28624D01*
X50585Y-28481D01*
X50532Y-28319D01*
X50486Y-28176D01*
X50460Y-28064D01*
X50452Y-27973D01*
X50463Y-27893D01*
X50493Y-27814D01*
X50523Y-27760D01*
X50582Y-27683D01*
X50664Y-27623D01*
X50776Y-27575D01*
X50850Y-27553D01*
X50897Y-27542D01*
X50946Y-27535D01*
X51003Y-27534D01*
X51079Y-27538D01*
X51180Y-27548D01*
X51317Y-27563D01*
X51336Y-27565D01*
X51415Y-27571D01*
X51479Y-27563D01*
X51551Y-27538D01*
X51591Y-27521D01*
X51679Y-27473D01*
X51765Y-27414D01*
X51811Y-27376D01*
X51929Y-27280D01*
X52047Y-27219D01*
X52157Y-27197D01*
X52163Y-27197D01*
X52232Y-27207D01*
X52325Y-27235D01*
X52419Y-27273D01*
X52511Y-27312D01*
X52592Y-27337D01*
X52673Y-27351D01*
X52766Y-27355D01*
X52884Y-27350D01*
X52983Y-27343D01*
X53084Y-27335D01*
X53155Y-27333D01*
X53208Y-27339D01*
X53255Y-27354D01*
X53312Y-27380D01*
X53319Y-27384D01*
X53398Y-27428D01*
X53461Y-27482D01*
X53517Y-27552D01*
X53569Y-27647D01*
X53624Y-27775D01*
X53645Y-27827D01*
X53700Y-27960D01*
X53753Y-28062D01*
X53811Y-28145D01*
X53840Y-28179D01*
X53911Y-28258D01*
X53969Y-28316D01*
X54025Y-28361D01*
X54092Y-28403D01*
X54181Y-28451D01*
X54232Y-28478D01*
X54327Y-28528D01*
X54413Y-28577D01*
X54480Y-28618D01*
X54503Y-28634D01*
X54586Y-28722D01*
X54631Y-28825D01*
X54638Y-28935D01*
X54608Y-29045D01*
X54541Y-29146D01*
X54484Y-29199D01*
X54397Y-29294D01*
X54336Y-29419D01*
X54306Y-29564D01*
X54304Y-29602D01*
X54305Y-29686D01*
X54317Y-29752D01*
X54346Y-29821D01*
X54375Y-29875D01*
X54419Y-29946D01*
X54483Y-30038D01*
X54558Y-30140D01*
X54628Y-30230D01*
X54748Y-30388D01*
X54836Y-30525D01*
X54893Y-30646D01*
X54921Y-30759D01*
X54923Y-30869D01*
X54923Y-30869D01*
X54923Y-30869D01*
G37*
G36*
X52965Y-28173D02*
X52963Y-28204D01*
X52930Y-28237D01*
X52911Y-28246D01*
X52911Y-28202D01*
X52892Y-28192D01*
X52845Y-28191D01*
X52787Y-28197D01*
X52734Y-28208D01*
X52701Y-28223D01*
X52700Y-28224D01*
X52699Y-28238D01*
X52738Y-28236D01*
X52752Y-28233D01*
X52817Y-28223D01*
X52868Y-28219D01*
X52869Y-28219D01*
X52904Y-28211D01*
X52911Y-28202D01*
X52911Y-28246D01*
X52880Y-28261D01*
X52848Y-28267D01*
X52714Y-28273D01*
X52660Y-28272D01*
X52660Y-28230D01*
X52658Y-28226D01*
X52631Y-28216D01*
X52571Y-28199D01*
X52485Y-28179D01*
X52399Y-28161D01*
X52285Y-28135D01*
X52174Y-28104D01*
X52082Y-28072D01*
X52038Y-28053D01*
X51978Y-28024D01*
X51955Y-28016D01*
X51964Y-28028D01*
X51977Y-28039D01*
X52037Y-28077D01*
X52126Y-28120D01*
X52229Y-28162D01*
X52332Y-28198D01*
X52388Y-28214D01*
X52454Y-28226D01*
X52526Y-28235D01*
X52591Y-28238D01*
X52640Y-28237D01*
X52660Y-28230D01*
X52660Y-28272D01*
X52607Y-28272D01*
X52510Y-28263D01*
X52499Y-28262D01*
X52374Y-28239D01*
X52249Y-28205D01*
X52131Y-28164D01*
X52029Y-28118D01*
X51950Y-28071D01*
X51901Y-28026D01*
X51888Y-27995D01*
X51901Y-27960D01*
X51942Y-27957D01*
X52011Y-27984D01*
X52053Y-28008D01*
X52176Y-28064D01*
X52330Y-28108D01*
X52502Y-28140D01*
X52679Y-28154D01*
X52737Y-28155D01*
X52831Y-28156D01*
X52907Y-28161D01*
X52955Y-28168D01*
X52965Y-28173D01*
X52965Y-28173D01*
X52965Y-28173D01*
G37*
G36*
X52870Y-27963D02*
X52852Y-27989D01*
X52846Y-27992D01*
X52825Y-27982D01*
X52822Y-27963D01*
X52833Y-27936D01*
X52846Y-27934D01*
X52869Y-27957D01*
X52870Y-27963D01*
X52870Y-27963D01*
X52870Y-27963D01*
G37*
G36*
X52044Y-27808D02*
X52030Y-27838D01*
X52000Y-27833D01*
X51993Y-27827D01*
X51988Y-27799D01*
X52011Y-27777D01*
X52023Y-27775D01*
X52042Y-27793D01*
X52044Y-27808D01*
X52044Y-27808D01*
X52044Y-27808D01*
G37*
M02*
