M48
;DRILL file {Pcbnew (2014-03-19 BZR 4756)-product} date Thu 19 Jun 2014 10:07:55 PM AKDT
;FORMAT={-:-/ absolute / inch / decimal}
FMAT,2
INCH,TZ
T1C0.025
T2C0.032
%
G90
G05
M72
T1
X4.59Y-3.38
X4.89Y-2.7475
X4.89Y-2.8975
X4.93Y-3.37
X5.18Y-3.53
X5.25Y-3.39
X5.605Y-3.4025
X5.685Y-2.8275
X5.825Y-3.3225
X5.875Y-2.9725
X6.01Y-3.0275
X6.025Y-2.9175
X6.07Y-2.7225
X6.075Y-3.0975
X6.09Y-3.3725
X6.15Y-3.54
X6.21Y-2.7425
X6.21Y-2.83
X6.21Y-2.97
X6.21Y-3.2275
X6.255Y-3.495
X6.26Y-3.03
X6.27Y-3.26
X6.35Y-3.2
X6.36Y-2.6275
X6.36Y-3.15
X6.365Y-2.6725
X6.405Y-3.5775
X6.41Y-2.74
X6.41Y-3.2
X6.435Y-3.0575
X6.47Y-3.44
X6.475Y-2.7525
X6.475Y-2.91
X6.485Y-2.9675
X6.5Y-3.1625
X6.54Y-2.8575
X6.57Y-3.0275
X6.57Y-3.46
X6.575Y-2.91
X6.6775Y-2.665
X6.69Y-3.22
X6.71Y-2.925
X6.765Y-3.515
X7.015Y-3.315
X7.015Y-3.495
X7.02Y-2.785
X7.02Y-2.945
X7.135Y-2.755
X7.135Y-3.505
X7.235Y-3.555
X7.275Y-2.7825
X7.275Y-2.9625
X7.42Y-3.18
X7.47Y-2.89
X7.495Y-3.445
X7.55Y-2.65
X7.56Y-3.
X7.56Y-3.19
X7.56Y-3.54
T2
X4.67Y-2.63
X4.67Y-3.23
X4.77Y-2.63
X4.77Y-3.23
X4.87Y-2.63
X4.87Y-3.23
X4.97Y-2.63
X4.97Y-3.23
X5.07Y-2.63
X5.07Y-3.23
X5.17Y-2.63
X5.17Y-3.23
X5.27Y-2.63
X5.27Y-3.23
X5.37Y-2.63
X5.37Y-3.23
X5.47Y-2.63
X5.47Y-3.23
X5.57Y-2.63
X5.57Y-3.23
X5.67Y-2.63
X5.67Y-3.23
X5.77Y-2.63
X5.77Y-3.23
X5.87Y-2.63
X5.87Y-3.23
X5.97Y-2.63
X5.97Y-3.23
T0
M30
