M48
;DRILL file {Pcbnew (2014-03-19 BZR 4756)-product} date Mon Jun 30 13:49:02 2014
;FORMAT={-:-/ absolute / inch / decimal}
FMAT,2
INCH,TZ
T1C0.025
T2C0.039
T3C0.138
%
G90
G05
M72
T1
X5.32Y-3.56
X5.32Y-3.92
X5.32Y-4.14
X5.32Y-4.48
X5.56Y-3.5
X5.64Y-4.44
X5.8Y-3.74
X5.82Y-4.56
X5.98Y-4.06
X6.Y-3.68
X6.04Y-4.42
X6.12Y-4.42
X6.14Y-4.04
X6.22Y-3.38
X6.34Y-3.66
X6.34Y-4.26
X6.38Y-4.5
X6.4Y-4.6
X6.46Y-3.76
X6.48Y-4.1
X6.48Y-4.44
X6.5Y-3.56
X6.52Y-4.06
X6.52Y-4.38
X6.66Y-3.56
X6.66Y-3.92
X6.66Y-4.12
X6.66Y-4.48
T2
X5.8Y-4.7
X5.9Y-4.7
X6.Y-4.7
X6.1Y-4.7
X6.2Y-4.7
X6.3Y-4.7
T3
X5.22Y-3.32
X5.22Y-4.72
X6.78Y-3.32
X6.78Y-4.72
T0
M30
