%FSLAX34Y34*%
G04 Gerber Fmt 3.4, Leading zero omitted, Abs format*
G04 (created by PCBNEW (2014-03-19 BZR 4756)-product) date Mon Jun 30 13:49:00 2014*
%MOIN*%
G01*
G70*
G90*
G04 APERTURE LIST*
%ADD10C,0.005906*%
%ADD11R,0.055000X0.035000*%
%ADD12R,0.035000X0.055000*%
%ADD13R,0.200787X0.094488*%
%ADD14O,0.059300X0.118700*%
%ADD15R,0.059055X0.031496*%
%ADD16R,0.039400X0.027600*%
G04 APERTURE END LIST*
G54D10*
G54D11*
X56800Y-35825D03*
X56800Y-36575D03*
G54D12*
X56225Y-35000D03*
X56975Y-35000D03*
X63175Y-36000D03*
X62425Y-36000D03*
X63175Y-37400D03*
X62425Y-37400D03*
X62975Y-42000D03*
X62225Y-42000D03*
X62975Y-43000D03*
X62225Y-43000D03*
X63375Y-45000D03*
X62625Y-45000D03*
X61125Y-45000D03*
X61875Y-45000D03*
X58125Y-45000D03*
X58875Y-45000D03*
X66375Y-36500D03*
X65625Y-36500D03*
X66375Y-42500D03*
X65625Y-42500D03*
X60375Y-45000D03*
X59625Y-45000D03*
G54D13*
X51800Y-43000D03*
X51800Y-41267D03*
X51800Y-44732D03*
X51800Y-37400D03*
X51800Y-35667D03*
X51800Y-39132D03*
X68000Y-37400D03*
X68000Y-35667D03*
X68000Y-39132D03*
X68000Y-43000D03*
X68000Y-41267D03*
X68000Y-44732D03*
G54D14*
X63000Y-47000D03*
X62000Y-47000D03*
X61000Y-47000D03*
X60000Y-47000D03*
X59000Y-47000D03*
X58000Y-47000D03*
G54D12*
X54025Y-43000D03*
X54775Y-43000D03*
X54375Y-37400D03*
X53625Y-37400D03*
G54D11*
X56400Y-43025D03*
X56400Y-43775D03*
X55200Y-38175D03*
X55200Y-37425D03*
G54D12*
X60625Y-43000D03*
X61375Y-43000D03*
X56775Y-37400D03*
X56025Y-37400D03*
X56775Y-39000D03*
X56025Y-39000D03*
X58975Y-39000D03*
X58225Y-39000D03*
G54D11*
X58200Y-40975D03*
X58200Y-40225D03*
G54D12*
X59825Y-39000D03*
X60575Y-39000D03*
X58225Y-42000D03*
X58975Y-42000D03*
G54D11*
X61400Y-39025D03*
X61400Y-39775D03*
X59800Y-41975D03*
X59800Y-41225D03*
G54D12*
X60025Y-34600D03*
X60775Y-34600D03*
X58025Y-36800D03*
X58775Y-36800D03*
G54D11*
X60000Y-36175D03*
X60000Y-35425D03*
G54D12*
X61375Y-42000D03*
X60625Y-42000D03*
G54D11*
X61400Y-37425D03*
X61400Y-38175D03*
X61600Y-34575D03*
X61600Y-33825D03*
X61600Y-35975D03*
X61600Y-35225D03*
G54D15*
X58900Y-34900D03*
X58900Y-35400D03*
X58900Y-35900D03*
X57900Y-35900D03*
X57900Y-34900D03*
G54D16*
X65000Y-36125D03*
X65000Y-36500D03*
X65000Y-36875D03*
X64000Y-36875D03*
X64000Y-36500D03*
X64000Y-36125D03*
X65000Y-42125D03*
X65000Y-42500D03*
X65000Y-42875D03*
X64000Y-42875D03*
X64000Y-42500D03*
X64000Y-42125D03*
M02*
