%FSLAX34Y34*%
G04 Gerber Fmt 3.4, Leading zero omitted, Abs format*
G04 (created by PCBNEW (2014-03-19 BZR 4756)-product) date Mon Jun 30 13:49:00 2014*
%MOIN*%
G01*
G70*
G90*
G04 APERTURE LIST*
%ADD10C,0.005906*%
%ADD11C,0.007874*%
%ADD12C,0.009843*%
%ADD13C,0.011811*%
%ADD14C,0.003900*%
%ADD15C,0.010000*%
%ADD16C,0.005000*%
G04 APERTURE END LIST*
G54D10*
G54D11*
X63800Y-46600D02*
X63800Y-47800D01*
G54D12*
X55409Y-32315D02*
X55409Y-32709D01*
X55409Y-32334D02*
X55447Y-32315D01*
X55522Y-32315D01*
X55559Y-32334D01*
X55578Y-32353D01*
X55597Y-32390D01*
X55597Y-32503D01*
X55578Y-32540D01*
X55559Y-32559D01*
X55522Y-32578D01*
X55447Y-32578D01*
X55409Y-32559D01*
X55822Y-32578D02*
X55784Y-32559D01*
X55765Y-32540D01*
X55747Y-32503D01*
X55747Y-32390D01*
X55765Y-32353D01*
X55784Y-32334D01*
X55822Y-32315D01*
X55878Y-32315D01*
X55915Y-32334D01*
X55934Y-32353D01*
X55953Y-32390D01*
X55953Y-32503D01*
X55934Y-32540D01*
X55915Y-32559D01*
X55878Y-32578D01*
X55822Y-32578D01*
X56178Y-32578D02*
X56140Y-32559D01*
X56122Y-32521D01*
X56122Y-32184D01*
X56497Y-32578D02*
X56497Y-32371D01*
X56478Y-32334D01*
X56440Y-32315D01*
X56365Y-32315D01*
X56328Y-32334D01*
X56497Y-32559D02*
X56459Y-32578D01*
X56365Y-32578D01*
X56328Y-32559D01*
X56309Y-32521D01*
X56309Y-32484D01*
X56328Y-32446D01*
X56365Y-32428D01*
X56459Y-32428D01*
X56497Y-32409D01*
X56684Y-32578D02*
X56684Y-32315D01*
X56684Y-32390D02*
X56703Y-32353D01*
X56722Y-32334D01*
X56759Y-32315D01*
X56797Y-32315D01*
X56928Y-32578D02*
X56928Y-32315D01*
X56928Y-32184D02*
X56909Y-32203D01*
X56928Y-32221D01*
X56947Y-32203D01*
X56928Y-32184D01*
X56928Y-32221D01*
X57078Y-32315D02*
X57284Y-32315D01*
X57078Y-32578D01*
X57284Y-32578D01*
X57603Y-32578D02*
X57603Y-32371D01*
X57584Y-32334D01*
X57546Y-32315D01*
X57471Y-32315D01*
X57434Y-32334D01*
X57603Y-32559D02*
X57565Y-32578D01*
X57471Y-32578D01*
X57434Y-32559D01*
X57415Y-32521D01*
X57415Y-32484D01*
X57434Y-32446D01*
X57471Y-32428D01*
X57565Y-32428D01*
X57603Y-32409D01*
X57734Y-32315D02*
X57884Y-32315D01*
X57790Y-32184D02*
X57790Y-32521D01*
X57809Y-32559D01*
X57846Y-32578D01*
X57884Y-32578D01*
X58015Y-32578D02*
X58015Y-32315D01*
X58015Y-32184D02*
X57996Y-32203D01*
X58015Y-32221D01*
X58034Y-32203D01*
X58015Y-32184D01*
X58015Y-32221D01*
X58259Y-32578D02*
X58221Y-32559D01*
X58203Y-32540D01*
X58184Y-32503D01*
X58184Y-32390D01*
X58203Y-32353D01*
X58221Y-32334D01*
X58259Y-32315D01*
X58315Y-32315D01*
X58353Y-32334D01*
X58371Y-32353D01*
X58390Y-32390D01*
X58390Y-32503D01*
X58371Y-32540D01*
X58353Y-32559D01*
X58315Y-32578D01*
X58259Y-32578D01*
X58559Y-32315D02*
X58559Y-32578D01*
X58559Y-32353D02*
X58578Y-32334D01*
X58615Y-32315D01*
X58671Y-32315D01*
X58709Y-32334D01*
X58728Y-32371D01*
X58728Y-32578D01*
X59196Y-32559D02*
X59234Y-32578D01*
X59309Y-32578D01*
X59346Y-32559D01*
X59365Y-32521D01*
X59365Y-32503D01*
X59346Y-32465D01*
X59309Y-32446D01*
X59253Y-32446D01*
X59215Y-32428D01*
X59196Y-32390D01*
X59196Y-32371D01*
X59215Y-32334D01*
X59253Y-32315D01*
X59309Y-32315D01*
X59346Y-32334D01*
X59684Y-32559D02*
X59646Y-32578D01*
X59571Y-32578D01*
X59534Y-32559D01*
X59515Y-32521D01*
X59515Y-32371D01*
X59534Y-32334D01*
X59571Y-32315D01*
X59646Y-32315D01*
X59684Y-32334D01*
X59702Y-32371D01*
X59702Y-32409D01*
X59515Y-32446D01*
X59927Y-32578D02*
X59890Y-32559D01*
X59871Y-32521D01*
X59871Y-32184D01*
X60227Y-32559D02*
X60190Y-32578D01*
X60115Y-32578D01*
X60077Y-32559D01*
X60059Y-32521D01*
X60059Y-32371D01*
X60077Y-32334D01*
X60115Y-32315D01*
X60190Y-32315D01*
X60227Y-32334D01*
X60246Y-32371D01*
X60246Y-32409D01*
X60059Y-32446D01*
X60584Y-32559D02*
X60546Y-32578D01*
X60471Y-32578D01*
X60434Y-32559D01*
X60415Y-32540D01*
X60396Y-32503D01*
X60396Y-32390D01*
X60415Y-32353D01*
X60434Y-32334D01*
X60471Y-32315D01*
X60546Y-32315D01*
X60584Y-32334D01*
X60696Y-32315D02*
X60846Y-32315D01*
X60752Y-32184D02*
X60752Y-32521D01*
X60771Y-32559D01*
X60809Y-32578D01*
X60846Y-32578D01*
X61034Y-32578D02*
X60996Y-32559D01*
X60977Y-32540D01*
X60959Y-32503D01*
X60959Y-32390D01*
X60977Y-32353D01*
X60996Y-32334D01*
X61034Y-32315D01*
X61090Y-32315D01*
X61127Y-32334D01*
X61146Y-32353D01*
X61165Y-32390D01*
X61165Y-32503D01*
X61146Y-32540D01*
X61127Y-32559D01*
X61090Y-32578D01*
X61034Y-32578D01*
X61334Y-32578D02*
X61334Y-32315D01*
X61334Y-32390D02*
X61352Y-32353D01*
X61371Y-32334D01*
X61408Y-32315D01*
X61446Y-32315D01*
X55381Y-33115D02*
X55381Y-33453D01*
X55362Y-33490D01*
X55325Y-33509D01*
X55306Y-33509D01*
X55381Y-32984D02*
X55362Y-33003D01*
X55381Y-33021D01*
X55400Y-33003D01*
X55381Y-32984D01*
X55381Y-33021D01*
X55625Y-33378D02*
X55587Y-33359D01*
X55569Y-33340D01*
X55550Y-33303D01*
X55550Y-33190D01*
X55569Y-33153D01*
X55587Y-33134D01*
X55625Y-33115D01*
X55681Y-33115D01*
X55719Y-33134D01*
X55737Y-33153D01*
X55756Y-33190D01*
X55756Y-33303D01*
X55737Y-33340D01*
X55719Y-33359D01*
X55681Y-33378D01*
X55625Y-33378D01*
X55925Y-33115D02*
X55925Y-33378D01*
X55925Y-33153D02*
X55944Y-33134D01*
X55981Y-33115D01*
X56037Y-33115D01*
X56075Y-33134D01*
X56094Y-33171D01*
X56094Y-33378D01*
X56581Y-33378D02*
X56581Y-32984D01*
X56619Y-33228D02*
X56731Y-33378D01*
X56731Y-33115D02*
X56581Y-33265D01*
X56956Y-33378D02*
X56919Y-33359D01*
X56900Y-33321D01*
X56900Y-32984D01*
X57256Y-33359D02*
X57218Y-33378D01*
X57143Y-33378D01*
X57106Y-33359D01*
X57087Y-33321D01*
X57087Y-33171D01*
X57106Y-33134D01*
X57143Y-33115D01*
X57218Y-33115D01*
X57256Y-33134D01*
X57275Y-33171D01*
X57275Y-33209D01*
X57087Y-33246D01*
X57443Y-33378D02*
X57443Y-33115D01*
X57443Y-32984D02*
X57425Y-33003D01*
X57443Y-33021D01*
X57462Y-33003D01*
X57443Y-32984D01*
X57443Y-33021D01*
X57631Y-33115D02*
X57631Y-33378D01*
X57631Y-33153D02*
X57650Y-33134D01*
X57687Y-33115D01*
X57743Y-33115D01*
X57781Y-33134D01*
X57800Y-33171D01*
X57800Y-33378D01*
X58456Y-33115D02*
X58456Y-33378D01*
X58287Y-33115D02*
X58287Y-33321D01*
X58306Y-33359D01*
X58343Y-33378D01*
X58400Y-33378D01*
X58437Y-33359D01*
X58456Y-33340D01*
X58812Y-33378D02*
X58812Y-33171D01*
X58793Y-33134D01*
X58756Y-33115D01*
X58681Y-33115D01*
X58643Y-33134D01*
X58812Y-33359D02*
X58775Y-33378D01*
X58681Y-33378D01*
X58643Y-33359D01*
X58625Y-33321D01*
X58625Y-33284D01*
X58643Y-33246D01*
X58681Y-33228D01*
X58775Y-33228D01*
X58812Y-33209D01*
X58943Y-33115D02*
X59093Y-33115D01*
X59000Y-33378D02*
X59000Y-33040D01*
X59018Y-33003D01*
X59056Y-32984D01*
X59093Y-32984D01*
X59693Y-33115D02*
X59693Y-33434D01*
X59674Y-33471D01*
X59656Y-33490D01*
X59618Y-33509D01*
X59562Y-33509D01*
X59524Y-33490D01*
X59693Y-33359D02*
X59656Y-33378D01*
X59581Y-33378D01*
X59543Y-33359D01*
X59524Y-33340D01*
X59506Y-33303D01*
X59506Y-33190D01*
X59524Y-33153D01*
X59543Y-33134D01*
X59581Y-33115D01*
X59656Y-33115D01*
X59693Y-33134D01*
X59881Y-33378D02*
X59881Y-33115D01*
X59881Y-32984D02*
X59862Y-33003D01*
X59881Y-33021D01*
X59899Y-33003D01*
X59881Y-32984D01*
X59881Y-33021D01*
X60349Y-33021D02*
X60368Y-33003D01*
X60406Y-32984D01*
X60499Y-32984D01*
X60537Y-33003D01*
X60556Y-33021D01*
X60574Y-33059D01*
X60574Y-33096D01*
X60556Y-33153D01*
X60331Y-33378D01*
X60574Y-33378D01*
X60818Y-32984D02*
X60856Y-32984D01*
X60893Y-33003D01*
X60912Y-33021D01*
X60931Y-33059D01*
X60949Y-33134D01*
X60949Y-33228D01*
X60931Y-33303D01*
X60912Y-33340D01*
X60893Y-33359D01*
X60856Y-33378D01*
X60818Y-33378D01*
X60781Y-33359D01*
X60762Y-33340D01*
X60743Y-33303D01*
X60724Y-33228D01*
X60724Y-33134D01*
X60743Y-33059D01*
X60762Y-33021D01*
X60781Y-33003D01*
X60818Y-32984D01*
X61324Y-33378D02*
X61099Y-33378D01*
X61212Y-33378D02*
X61212Y-32984D01*
X61174Y-33040D01*
X61137Y-33078D01*
X61099Y-33096D01*
X61662Y-33115D02*
X61662Y-33378D01*
X61568Y-32965D02*
X61474Y-33246D01*
X61718Y-33246D01*
X61868Y-33340D02*
X61887Y-33359D01*
X61868Y-33378D01*
X61849Y-33359D01*
X61868Y-33340D01*
X61868Y-33378D01*
X62130Y-32984D02*
X62168Y-32984D01*
X62205Y-33003D01*
X62224Y-33021D01*
X62243Y-33059D01*
X62262Y-33134D01*
X62262Y-33228D01*
X62243Y-33303D01*
X62224Y-33340D01*
X62205Y-33359D01*
X62168Y-33378D01*
X62130Y-33378D01*
X62093Y-33359D01*
X62074Y-33340D01*
X62055Y-33303D01*
X62037Y-33228D01*
X62037Y-33134D01*
X62055Y-33059D01*
X62074Y-33021D01*
X62093Y-33003D01*
X62130Y-32984D01*
X62599Y-32984D02*
X62524Y-32984D01*
X62487Y-33003D01*
X62468Y-33021D01*
X62430Y-33078D01*
X62412Y-33153D01*
X62412Y-33303D01*
X62430Y-33340D01*
X62449Y-33359D01*
X62487Y-33378D01*
X62562Y-33378D01*
X62599Y-33359D01*
X62618Y-33340D01*
X62637Y-33303D01*
X62637Y-33209D01*
X62618Y-33171D01*
X62599Y-33153D01*
X62562Y-33134D01*
X62487Y-33134D01*
X62449Y-33153D01*
X62430Y-33171D01*
X62412Y-33209D01*
G54D13*
X64637Y-39131D02*
X65012Y-39131D01*
X64562Y-39356D02*
X64825Y-38568D01*
X65087Y-39356D01*
X65499Y-38568D02*
X65574Y-38568D01*
X65649Y-38606D01*
X65687Y-38643D01*
X65724Y-38718D01*
X65762Y-38868D01*
X65762Y-39056D01*
X65724Y-39206D01*
X65687Y-39281D01*
X65649Y-39318D01*
X65574Y-39356D01*
X65499Y-39356D01*
X65424Y-39318D01*
X65387Y-39281D01*
X65349Y-39206D01*
X65312Y-39056D01*
X65312Y-38868D01*
X65349Y-38718D01*
X65387Y-38643D01*
X65424Y-38606D01*
X65499Y-38568D01*
X64837Y-45531D02*
X65212Y-45531D01*
X64762Y-45756D02*
X65025Y-44968D01*
X65287Y-45756D01*
X65962Y-45756D02*
X65512Y-45756D01*
X65737Y-45756D02*
X65737Y-44968D01*
X65662Y-45081D01*
X65587Y-45156D01*
X65512Y-45193D01*
X54299Y-41831D02*
X54224Y-41793D01*
X54149Y-41718D01*
X54037Y-41606D01*
X53962Y-41568D01*
X53887Y-41568D01*
X53925Y-41756D02*
X53850Y-41718D01*
X53775Y-41643D01*
X53737Y-41493D01*
X53737Y-41231D01*
X53775Y-41081D01*
X53850Y-41006D01*
X53925Y-40968D01*
X54074Y-40968D01*
X54149Y-41006D01*
X54224Y-41081D01*
X54262Y-41231D01*
X54262Y-41493D01*
X54224Y-41643D01*
X54149Y-41718D01*
X54074Y-41756D01*
X53925Y-41756D01*
X54000Y-35956D02*
X54000Y-35168D01*
G54D14*
X56550Y-35550D02*
G75*
G03X56550Y-35550I-50J0D01*
G74*
G01*
X56500Y-36000D02*
X56500Y-35600D01*
X56500Y-35600D02*
X57100Y-35600D01*
X57100Y-35600D02*
X57100Y-36000D01*
X57100Y-36400D02*
X57100Y-36800D01*
X57100Y-36800D02*
X56500Y-36800D01*
X56500Y-36800D02*
X56500Y-36400D01*
X56000Y-35300D02*
G75*
G03X56000Y-35300I-50J0D01*
G74*
G01*
X56400Y-35300D02*
X56000Y-35300D01*
X56000Y-35300D02*
X56000Y-34700D01*
X56000Y-34700D02*
X56400Y-34700D01*
X56800Y-34700D02*
X57200Y-34700D01*
X57200Y-34700D02*
X57200Y-35300D01*
X57200Y-35300D02*
X56800Y-35300D01*
X63500Y-35700D02*
G75*
G03X63500Y-35700I-50J0D01*
G74*
G01*
X63000Y-35700D02*
X63400Y-35700D01*
X63400Y-35700D02*
X63400Y-36300D01*
X63400Y-36300D02*
X63000Y-36300D01*
X62600Y-36300D02*
X62200Y-36300D01*
X62200Y-36300D02*
X62200Y-35700D01*
X62200Y-35700D02*
X62600Y-35700D01*
X63500Y-37100D02*
G75*
G03X63500Y-37100I-50J0D01*
G74*
G01*
X63000Y-37100D02*
X63400Y-37100D01*
X63400Y-37100D02*
X63400Y-37700D01*
X63400Y-37700D02*
X63000Y-37700D01*
X62600Y-37700D02*
X62200Y-37700D01*
X62200Y-37700D02*
X62200Y-37100D01*
X62200Y-37100D02*
X62600Y-37100D01*
X63300Y-41700D02*
G75*
G03X63300Y-41700I-50J0D01*
G74*
G01*
X62800Y-41700D02*
X63200Y-41700D01*
X63200Y-41700D02*
X63200Y-42300D01*
X63200Y-42300D02*
X62800Y-42300D01*
X62400Y-42300D02*
X62000Y-42300D01*
X62000Y-42300D02*
X62000Y-41700D01*
X62000Y-41700D02*
X62400Y-41700D01*
X63300Y-42700D02*
G75*
G03X63300Y-42700I-50J0D01*
G74*
G01*
X62800Y-42700D02*
X63200Y-42700D01*
X63200Y-42700D02*
X63200Y-43300D01*
X63200Y-43300D02*
X62800Y-43300D01*
X62400Y-43300D02*
X62000Y-43300D01*
X62000Y-43300D02*
X62000Y-42700D01*
X62000Y-42700D02*
X62400Y-42700D01*
X63700Y-44700D02*
G75*
G03X63700Y-44700I-50J0D01*
G74*
G01*
X63200Y-44700D02*
X63600Y-44700D01*
X63600Y-44700D02*
X63600Y-45300D01*
X63600Y-45300D02*
X63200Y-45300D01*
X62800Y-45300D02*
X62400Y-45300D01*
X62400Y-45300D02*
X62400Y-44700D01*
X62400Y-44700D02*
X62800Y-44700D01*
X60900Y-45300D02*
G75*
G03X60900Y-45300I-50J0D01*
G74*
G01*
X61300Y-45300D02*
X60900Y-45300D01*
X60900Y-45300D02*
X60900Y-44700D01*
X60900Y-44700D02*
X61300Y-44700D01*
X61700Y-44700D02*
X62100Y-44700D01*
X62100Y-44700D02*
X62100Y-45300D01*
X62100Y-45300D02*
X61700Y-45300D01*
X57900Y-45300D02*
G75*
G03X57900Y-45300I-50J0D01*
G74*
G01*
X58300Y-45300D02*
X57900Y-45300D01*
X57900Y-45300D02*
X57900Y-44700D01*
X57900Y-44700D02*
X58300Y-44700D01*
X58700Y-44700D02*
X59100Y-44700D01*
X59100Y-44700D02*
X59100Y-45300D01*
X59100Y-45300D02*
X58700Y-45300D01*
X66700Y-36200D02*
G75*
G03X66700Y-36200I-50J0D01*
G74*
G01*
X66200Y-36200D02*
X66600Y-36200D01*
X66600Y-36200D02*
X66600Y-36800D01*
X66600Y-36800D02*
X66200Y-36800D01*
X65800Y-36800D02*
X65400Y-36800D01*
X65400Y-36800D02*
X65400Y-36200D01*
X65400Y-36200D02*
X65800Y-36200D01*
X66700Y-42200D02*
G75*
G03X66700Y-42200I-50J0D01*
G74*
G01*
X66200Y-42200D02*
X66600Y-42200D01*
X66600Y-42200D02*
X66600Y-42800D01*
X66600Y-42800D02*
X66200Y-42800D01*
X65800Y-42800D02*
X65400Y-42800D01*
X65400Y-42800D02*
X65400Y-42200D01*
X65400Y-42200D02*
X65800Y-42200D01*
X60700Y-44700D02*
G75*
G03X60700Y-44700I-50J0D01*
G74*
G01*
X60200Y-44700D02*
X60600Y-44700D01*
X60600Y-44700D02*
X60600Y-45300D01*
X60600Y-45300D02*
X60200Y-45300D01*
X59800Y-45300D02*
X59400Y-45300D01*
X59400Y-45300D02*
X59400Y-44700D01*
X59400Y-44700D02*
X59800Y-44700D01*
G54D15*
X60500Y-45750D02*
X57500Y-45750D01*
X60500Y-47500D02*
X57500Y-47500D01*
X60500Y-48250D02*
X57500Y-48250D01*
X63500Y-48250D02*
X63500Y-45750D01*
X57500Y-48250D02*
X57500Y-45750D01*
X60500Y-47500D02*
X63500Y-47500D01*
X63500Y-48250D02*
X60500Y-48250D01*
X60500Y-45750D02*
X63500Y-45750D01*
G54D14*
X53800Y-43300D02*
G75*
G03X53800Y-43300I-50J0D01*
G74*
G01*
X54200Y-43300D02*
X53800Y-43300D01*
X53800Y-43300D02*
X53800Y-42700D01*
X53800Y-42700D02*
X54200Y-42700D01*
X54600Y-42700D02*
X55000Y-42700D01*
X55000Y-42700D02*
X55000Y-43300D01*
X55000Y-43300D02*
X54600Y-43300D01*
X54700Y-37100D02*
G75*
G03X54700Y-37100I-50J0D01*
G74*
G01*
X54200Y-37100D02*
X54600Y-37100D01*
X54600Y-37100D02*
X54600Y-37700D01*
X54600Y-37700D02*
X54200Y-37700D01*
X53800Y-37700D02*
X53400Y-37700D01*
X53400Y-37700D02*
X53400Y-37100D01*
X53400Y-37100D02*
X53800Y-37100D01*
X56150Y-42750D02*
G75*
G03X56150Y-42750I-50J0D01*
G74*
G01*
X56100Y-43200D02*
X56100Y-42800D01*
X56100Y-42800D02*
X56700Y-42800D01*
X56700Y-42800D02*
X56700Y-43200D01*
X56700Y-43600D02*
X56700Y-44000D01*
X56700Y-44000D02*
X56100Y-44000D01*
X56100Y-44000D02*
X56100Y-43600D01*
X55550Y-38450D02*
G75*
G03X55550Y-38450I-50J0D01*
G74*
G01*
X55500Y-38000D02*
X55500Y-38400D01*
X55500Y-38400D02*
X54900Y-38400D01*
X54900Y-38400D02*
X54900Y-38000D01*
X54900Y-37600D02*
X54900Y-37200D01*
X54900Y-37200D02*
X55500Y-37200D01*
X55500Y-37200D02*
X55500Y-37600D01*
X60400Y-43300D02*
G75*
G03X60400Y-43300I-50J0D01*
G74*
G01*
X60800Y-43300D02*
X60400Y-43300D01*
X60400Y-43300D02*
X60400Y-42700D01*
X60400Y-42700D02*
X60800Y-42700D01*
X61200Y-42700D02*
X61600Y-42700D01*
X61600Y-42700D02*
X61600Y-43300D01*
X61600Y-43300D02*
X61200Y-43300D01*
X57100Y-37100D02*
G75*
G03X57100Y-37100I-50J0D01*
G74*
G01*
X56600Y-37100D02*
X57000Y-37100D01*
X57000Y-37100D02*
X57000Y-37700D01*
X57000Y-37700D02*
X56600Y-37700D01*
X56200Y-37700D02*
X55800Y-37700D01*
X55800Y-37700D02*
X55800Y-37100D01*
X55800Y-37100D02*
X56200Y-37100D01*
X57100Y-38700D02*
G75*
G03X57100Y-38700I-50J0D01*
G74*
G01*
X56600Y-38700D02*
X57000Y-38700D01*
X57000Y-38700D02*
X57000Y-39300D01*
X57000Y-39300D02*
X56600Y-39300D01*
X56200Y-39300D02*
X55800Y-39300D01*
X55800Y-39300D02*
X55800Y-38700D01*
X55800Y-38700D02*
X56200Y-38700D01*
X59300Y-38700D02*
G75*
G03X59300Y-38700I-50J0D01*
G74*
G01*
X58800Y-38700D02*
X59200Y-38700D01*
X59200Y-38700D02*
X59200Y-39300D01*
X59200Y-39300D02*
X58800Y-39300D01*
X58400Y-39300D02*
X58000Y-39300D01*
X58000Y-39300D02*
X58000Y-38700D01*
X58000Y-38700D02*
X58400Y-38700D01*
X58550Y-41250D02*
G75*
G03X58550Y-41250I-50J0D01*
G74*
G01*
X58500Y-40800D02*
X58500Y-41200D01*
X58500Y-41200D02*
X57900Y-41200D01*
X57900Y-41200D02*
X57900Y-40800D01*
X57900Y-40400D02*
X57900Y-40000D01*
X57900Y-40000D02*
X58500Y-40000D01*
X58500Y-40000D02*
X58500Y-40400D01*
X59600Y-39300D02*
G75*
G03X59600Y-39300I-50J0D01*
G74*
G01*
X60000Y-39300D02*
X59600Y-39300D01*
X59600Y-39300D02*
X59600Y-38700D01*
X59600Y-38700D02*
X60000Y-38700D01*
X60400Y-38700D02*
X60800Y-38700D01*
X60800Y-38700D02*
X60800Y-39300D01*
X60800Y-39300D02*
X60400Y-39300D01*
X58000Y-42300D02*
G75*
G03X58000Y-42300I-50J0D01*
G74*
G01*
X58400Y-42300D02*
X58000Y-42300D01*
X58000Y-42300D02*
X58000Y-41700D01*
X58000Y-41700D02*
X58400Y-41700D01*
X58800Y-41700D02*
X59200Y-41700D01*
X59200Y-41700D02*
X59200Y-42300D01*
X59200Y-42300D02*
X58800Y-42300D01*
X61150Y-38750D02*
G75*
G03X61150Y-38750I-50J0D01*
G74*
G01*
X61100Y-39200D02*
X61100Y-38800D01*
X61100Y-38800D02*
X61700Y-38800D01*
X61700Y-38800D02*
X61700Y-39200D01*
X61700Y-39600D02*
X61700Y-40000D01*
X61700Y-40000D02*
X61100Y-40000D01*
X61100Y-40000D02*
X61100Y-39600D01*
X60150Y-42250D02*
G75*
G03X60150Y-42250I-50J0D01*
G74*
G01*
X60100Y-41800D02*
X60100Y-42200D01*
X60100Y-42200D02*
X59500Y-42200D01*
X59500Y-42200D02*
X59500Y-41800D01*
X59500Y-41400D02*
X59500Y-41000D01*
X59500Y-41000D02*
X60100Y-41000D01*
X60100Y-41000D02*
X60100Y-41400D01*
X59800Y-34900D02*
G75*
G03X59800Y-34900I-50J0D01*
G74*
G01*
X60200Y-34900D02*
X59800Y-34900D01*
X59800Y-34900D02*
X59800Y-34300D01*
X59800Y-34300D02*
X60200Y-34300D01*
X60600Y-34300D02*
X61000Y-34300D01*
X61000Y-34300D02*
X61000Y-34900D01*
X61000Y-34900D02*
X60600Y-34900D01*
X57800Y-37100D02*
G75*
G03X57800Y-37100I-50J0D01*
G74*
G01*
X58200Y-37100D02*
X57800Y-37100D01*
X57800Y-37100D02*
X57800Y-36500D01*
X57800Y-36500D02*
X58200Y-36500D01*
X58600Y-36500D02*
X59000Y-36500D01*
X59000Y-36500D02*
X59000Y-37100D01*
X59000Y-37100D02*
X58600Y-37100D01*
X60350Y-36450D02*
G75*
G03X60350Y-36450I-50J0D01*
G74*
G01*
X60300Y-36000D02*
X60300Y-36400D01*
X60300Y-36400D02*
X59700Y-36400D01*
X59700Y-36400D02*
X59700Y-36000D01*
X59700Y-35600D02*
X59700Y-35200D01*
X59700Y-35200D02*
X60300Y-35200D01*
X60300Y-35200D02*
X60300Y-35600D01*
X61700Y-41700D02*
G75*
G03X61700Y-41700I-50J0D01*
G74*
G01*
X61200Y-41700D02*
X61600Y-41700D01*
X61600Y-41700D02*
X61600Y-42300D01*
X61600Y-42300D02*
X61200Y-42300D01*
X60800Y-42300D02*
X60400Y-42300D01*
X60400Y-42300D02*
X60400Y-41700D01*
X60400Y-41700D02*
X60800Y-41700D01*
X61150Y-37150D02*
G75*
G03X61150Y-37150I-50J0D01*
G74*
G01*
X61100Y-37600D02*
X61100Y-37200D01*
X61100Y-37200D02*
X61700Y-37200D01*
X61700Y-37200D02*
X61700Y-37600D01*
X61700Y-38000D02*
X61700Y-38400D01*
X61700Y-38400D02*
X61100Y-38400D01*
X61100Y-38400D02*
X61100Y-38000D01*
X61950Y-34850D02*
G75*
G03X61950Y-34850I-50J0D01*
G74*
G01*
X61900Y-34400D02*
X61900Y-34800D01*
X61900Y-34800D02*
X61300Y-34800D01*
X61300Y-34800D02*
X61300Y-34400D01*
X61300Y-34000D02*
X61300Y-33600D01*
X61300Y-33600D02*
X61900Y-33600D01*
X61900Y-33600D02*
X61900Y-34000D01*
X61950Y-36250D02*
G75*
G03X61950Y-36250I-50J0D01*
G74*
G01*
X61900Y-35800D02*
X61900Y-36200D01*
X61900Y-36200D02*
X61300Y-36200D01*
X61300Y-36200D02*
X61300Y-35800D01*
X61300Y-35400D02*
X61300Y-35000D01*
X61300Y-35000D02*
X61900Y-35000D01*
X61900Y-35000D02*
X61900Y-35400D01*
G54D16*
X64200Y-36300D02*
X64400Y-36000D01*
X64200Y-37000D02*
X64200Y-35975D01*
X64200Y-35975D02*
X64800Y-35975D01*
X64800Y-35975D02*
X64800Y-37000D01*
X64800Y-37000D02*
X64200Y-37000D01*
X64200Y-42300D02*
X64400Y-42000D01*
X64200Y-43000D02*
X64200Y-41975D01*
X64200Y-41975D02*
X64800Y-41975D01*
X64800Y-41975D02*
X64800Y-43000D01*
X64800Y-43000D02*
X64200Y-43000D01*
G54D10*
X56140Y-36265D02*
X56159Y-36284D01*
X56178Y-36340D01*
X56178Y-36378D01*
X56159Y-36434D01*
X56121Y-36471D01*
X56084Y-36490D01*
X56009Y-36509D01*
X55953Y-36509D01*
X55878Y-36490D01*
X55840Y-36471D01*
X55803Y-36434D01*
X55784Y-36378D01*
X55784Y-36340D01*
X55803Y-36284D01*
X55821Y-36265D01*
X56178Y-35890D02*
X56178Y-36115D01*
X56178Y-36003D02*
X55784Y-36003D01*
X55840Y-36040D01*
X55878Y-36078D01*
X55896Y-36115D01*
X56334Y-34340D02*
X56315Y-34359D01*
X56259Y-34378D01*
X56221Y-34378D01*
X56165Y-34359D01*
X56128Y-34321D01*
X56109Y-34284D01*
X56090Y-34209D01*
X56090Y-34153D01*
X56109Y-34078D01*
X56128Y-34040D01*
X56165Y-34003D01*
X56221Y-33984D01*
X56259Y-33984D01*
X56315Y-34003D01*
X56334Y-34021D01*
X56484Y-34021D02*
X56503Y-34003D01*
X56540Y-33984D01*
X56634Y-33984D01*
X56671Y-34003D01*
X56690Y-34021D01*
X56709Y-34059D01*
X56709Y-34096D01*
X56690Y-34153D01*
X56465Y-34378D01*
X56709Y-34378D01*
X62534Y-35340D02*
X62515Y-35359D01*
X62459Y-35378D01*
X62421Y-35378D01*
X62365Y-35359D01*
X62328Y-35321D01*
X62309Y-35284D01*
X62290Y-35209D01*
X62290Y-35153D01*
X62309Y-35078D01*
X62328Y-35040D01*
X62365Y-35003D01*
X62421Y-34984D01*
X62459Y-34984D01*
X62515Y-35003D01*
X62534Y-35021D01*
X62665Y-34984D02*
X62909Y-34984D01*
X62778Y-35134D01*
X62834Y-35134D01*
X62871Y-35153D01*
X62890Y-35171D01*
X62909Y-35209D01*
X62909Y-35303D01*
X62890Y-35340D01*
X62871Y-35359D01*
X62834Y-35378D01*
X62721Y-35378D01*
X62684Y-35359D01*
X62665Y-35340D01*
X63534Y-38340D02*
X63515Y-38359D01*
X63459Y-38378D01*
X63421Y-38378D01*
X63365Y-38359D01*
X63328Y-38321D01*
X63309Y-38284D01*
X63290Y-38209D01*
X63290Y-38153D01*
X63309Y-38078D01*
X63328Y-38040D01*
X63365Y-38003D01*
X63421Y-37984D01*
X63459Y-37984D01*
X63515Y-38003D01*
X63534Y-38021D01*
X63871Y-38115D02*
X63871Y-38378D01*
X63778Y-37965D02*
X63684Y-38246D01*
X63928Y-38246D01*
X62134Y-41540D02*
X62115Y-41559D01*
X62059Y-41578D01*
X62021Y-41578D01*
X61965Y-41559D01*
X61928Y-41521D01*
X61909Y-41484D01*
X61890Y-41409D01*
X61890Y-41353D01*
X61909Y-41278D01*
X61928Y-41240D01*
X61965Y-41203D01*
X62021Y-41184D01*
X62059Y-41184D01*
X62115Y-41203D01*
X62134Y-41221D01*
X62490Y-41184D02*
X62303Y-41184D01*
X62284Y-41371D01*
X62303Y-41353D01*
X62340Y-41334D01*
X62434Y-41334D01*
X62471Y-41353D01*
X62490Y-41371D01*
X62509Y-41409D01*
X62509Y-41503D01*
X62490Y-41540D01*
X62471Y-41559D01*
X62434Y-41578D01*
X62340Y-41578D01*
X62303Y-41559D01*
X62284Y-41540D01*
X62334Y-43940D02*
X62315Y-43959D01*
X62259Y-43978D01*
X62221Y-43978D01*
X62165Y-43959D01*
X62128Y-43921D01*
X62109Y-43884D01*
X62090Y-43809D01*
X62090Y-43753D01*
X62109Y-43678D01*
X62128Y-43640D01*
X62165Y-43603D01*
X62221Y-43584D01*
X62259Y-43584D01*
X62315Y-43603D01*
X62334Y-43621D01*
X62671Y-43584D02*
X62596Y-43584D01*
X62559Y-43603D01*
X62540Y-43621D01*
X62503Y-43678D01*
X62484Y-43753D01*
X62484Y-43903D01*
X62503Y-43940D01*
X62521Y-43959D01*
X62559Y-43978D01*
X62634Y-43978D01*
X62671Y-43959D01*
X62690Y-43940D01*
X62709Y-43903D01*
X62709Y-43809D01*
X62690Y-43771D01*
X62671Y-43753D01*
X62634Y-43734D01*
X62559Y-43734D01*
X62521Y-43753D01*
X62503Y-43771D01*
X62484Y-43809D01*
X63134Y-44540D02*
X63115Y-44559D01*
X63059Y-44578D01*
X63021Y-44578D01*
X62965Y-44559D01*
X62928Y-44521D01*
X62909Y-44484D01*
X62890Y-44409D01*
X62890Y-44353D01*
X62909Y-44278D01*
X62928Y-44240D01*
X62965Y-44203D01*
X63021Y-44184D01*
X63059Y-44184D01*
X63115Y-44203D01*
X63134Y-44221D01*
X63265Y-44184D02*
X63528Y-44184D01*
X63359Y-44578D01*
X61734Y-44540D02*
X61715Y-44559D01*
X61659Y-44578D01*
X61621Y-44578D01*
X61565Y-44559D01*
X61528Y-44521D01*
X61509Y-44484D01*
X61490Y-44409D01*
X61490Y-44353D01*
X61509Y-44278D01*
X61528Y-44240D01*
X61565Y-44203D01*
X61621Y-44184D01*
X61659Y-44184D01*
X61715Y-44203D01*
X61734Y-44221D01*
X61959Y-44353D02*
X61921Y-44334D01*
X61903Y-44315D01*
X61884Y-44278D01*
X61884Y-44259D01*
X61903Y-44221D01*
X61921Y-44203D01*
X61959Y-44184D01*
X62034Y-44184D01*
X62071Y-44203D01*
X62090Y-44221D01*
X62109Y-44259D01*
X62109Y-44278D01*
X62090Y-44315D01*
X62071Y-44334D01*
X62034Y-44353D01*
X61959Y-44353D01*
X61921Y-44371D01*
X61903Y-44390D01*
X61884Y-44428D01*
X61884Y-44503D01*
X61903Y-44540D01*
X61921Y-44559D01*
X61959Y-44578D01*
X62034Y-44578D01*
X62071Y-44559D01*
X62090Y-44540D01*
X62109Y-44503D01*
X62109Y-44428D01*
X62090Y-44390D01*
X62071Y-44371D01*
X62034Y-44353D01*
X57934Y-44340D02*
X57915Y-44359D01*
X57859Y-44378D01*
X57821Y-44378D01*
X57765Y-44359D01*
X57728Y-44321D01*
X57709Y-44284D01*
X57690Y-44209D01*
X57690Y-44153D01*
X57709Y-44078D01*
X57728Y-44040D01*
X57765Y-44003D01*
X57821Y-43984D01*
X57859Y-43984D01*
X57915Y-44003D01*
X57934Y-44021D01*
X58121Y-44378D02*
X58196Y-44378D01*
X58234Y-44359D01*
X58253Y-44340D01*
X58290Y-44284D01*
X58309Y-44209D01*
X58309Y-44059D01*
X58290Y-44021D01*
X58271Y-44003D01*
X58234Y-43984D01*
X58159Y-43984D01*
X58121Y-44003D01*
X58103Y-44021D01*
X58084Y-44059D01*
X58084Y-44153D01*
X58103Y-44190D01*
X58121Y-44209D01*
X58159Y-44228D01*
X58234Y-44228D01*
X58271Y-44209D01*
X58290Y-44190D01*
X58309Y-44153D01*
X65746Y-37340D02*
X65728Y-37359D01*
X65671Y-37378D01*
X65634Y-37378D01*
X65578Y-37359D01*
X65540Y-37321D01*
X65521Y-37284D01*
X65503Y-37209D01*
X65503Y-37153D01*
X65521Y-37078D01*
X65540Y-37040D01*
X65578Y-37003D01*
X65634Y-36984D01*
X65671Y-36984D01*
X65728Y-37003D01*
X65746Y-37021D01*
X66121Y-37378D02*
X65896Y-37378D01*
X66009Y-37378D02*
X66009Y-36984D01*
X65971Y-37040D01*
X65934Y-37078D01*
X65896Y-37096D01*
X66365Y-36984D02*
X66403Y-36984D01*
X66440Y-37003D01*
X66459Y-37021D01*
X66478Y-37059D01*
X66496Y-37134D01*
X66496Y-37228D01*
X66478Y-37303D01*
X66459Y-37340D01*
X66440Y-37359D01*
X66403Y-37378D01*
X66365Y-37378D01*
X66328Y-37359D01*
X66309Y-37340D01*
X66290Y-37303D01*
X66271Y-37228D01*
X66271Y-37134D01*
X66290Y-37059D01*
X66309Y-37021D01*
X66328Y-37003D01*
X66365Y-36984D01*
X65746Y-42765D02*
X65728Y-42784D01*
X65671Y-42803D01*
X65634Y-42803D01*
X65578Y-42784D01*
X65540Y-42746D01*
X65521Y-42709D01*
X65503Y-42634D01*
X65503Y-42578D01*
X65521Y-42503D01*
X65540Y-42465D01*
X65578Y-42428D01*
X65634Y-42409D01*
X65671Y-42409D01*
X65728Y-42428D01*
X65746Y-42446D01*
X66121Y-42803D02*
X65896Y-42803D01*
X66009Y-42803D02*
X66009Y-42409D01*
X65971Y-42465D01*
X65934Y-42503D01*
X65896Y-42521D01*
X66496Y-42803D02*
X66271Y-42803D01*
X66384Y-42803D02*
X66384Y-42409D01*
X66346Y-42465D01*
X66309Y-42503D01*
X66271Y-42521D01*
X59346Y-44340D02*
X59328Y-44359D01*
X59271Y-44378D01*
X59234Y-44378D01*
X59178Y-44359D01*
X59140Y-44321D01*
X59121Y-44284D01*
X59103Y-44209D01*
X59103Y-44153D01*
X59121Y-44078D01*
X59140Y-44040D01*
X59178Y-44003D01*
X59234Y-43984D01*
X59271Y-43984D01*
X59328Y-44003D01*
X59346Y-44021D01*
X59721Y-44378D02*
X59496Y-44378D01*
X59609Y-44378D02*
X59609Y-43984D01*
X59571Y-44040D01*
X59534Y-44078D01*
X59496Y-44096D01*
X59871Y-44021D02*
X59890Y-44003D01*
X59928Y-43984D01*
X60021Y-43984D01*
X60059Y-44003D01*
X60078Y-44021D01*
X60096Y-44059D01*
X60096Y-44096D01*
X60078Y-44153D01*
X59853Y-44378D01*
X60096Y-44378D01*
X53268Y-45184D02*
X53268Y-45465D01*
X53250Y-45521D01*
X53212Y-45559D01*
X53156Y-45578D01*
X53118Y-45578D01*
X53662Y-45578D02*
X53437Y-45578D01*
X53549Y-45578D02*
X53549Y-45184D01*
X53512Y-45240D01*
X53474Y-45278D01*
X53437Y-45296D01*
X53068Y-39984D02*
X53068Y-40265D01*
X53050Y-40321D01*
X53012Y-40359D01*
X52956Y-40378D01*
X52918Y-40378D01*
X53237Y-40021D02*
X53256Y-40003D01*
X53293Y-39984D01*
X53387Y-39984D01*
X53424Y-40003D01*
X53443Y-40021D01*
X53462Y-40059D01*
X53462Y-40096D01*
X53443Y-40153D01*
X53218Y-40378D01*
X53462Y-40378D01*
X66268Y-34784D02*
X66268Y-35065D01*
X66250Y-35121D01*
X66212Y-35159D01*
X66156Y-35178D01*
X66118Y-35178D01*
X66418Y-34784D02*
X66662Y-34784D01*
X66531Y-34934D01*
X66587Y-34934D01*
X66624Y-34953D01*
X66643Y-34971D01*
X66662Y-35009D01*
X66662Y-35103D01*
X66643Y-35140D01*
X66624Y-35159D01*
X66587Y-35178D01*
X66474Y-35178D01*
X66437Y-35159D01*
X66418Y-35140D01*
X66268Y-40384D02*
X66268Y-40665D01*
X66250Y-40721D01*
X66212Y-40759D01*
X66156Y-40778D01*
X66118Y-40778D01*
X66624Y-40515D02*
X66624Y-40778D01*
X66531Y-40365D02*
X66437Y-40646D01*
X66681Y-40646D01*
X57178Y-47290D02*
X56784Y-47290D01*
X56784Y-47140D01*
X56803Y-47103D01*
X56821Y-47084D01*
X56859Y-47065D01*
X56915Y-47065D01*
X56953Y-47084D01*
X56971Y-47103D01*
X56990Y-47140D01*
X56990Y-47290D01*
X57178Y-46690D02*
X57178Y-46915D01*
X57178Y-46803D02*
X56784Y-46803D01*
X56840Y-46840D01*
X56878Y-46878D01*
X56896Y-46915D01*
X54134Y-42578D02*
X54003Y-42390D01*
X53909Y-42578D02*
X53909Y-42184D01*
X54059Y-42184D01*
X54096Y-42203D01*
X54115Y-42221D01*
X54134Y-42259D01*
X54134Y-42315D01*
X54115Y-42353D01*
X54096Y-42371D01*
X54059Y-42390D01*
X53909Y-42390D01*
X54509Y-42578D02*
X54284Y-42578D01*
X54396Y-42578D02*
X54396Y-42184D01*
X54359Y-42240D01*
X54321Y-42278D01*
X54284Y-42296D01*
X53734Y-36778D02*
X53603Y-36590D01*
X53509Y-36778D02*
X53509Y-36384D01*
X53659Y-36384D01*
X53696Y-36403D01*
X53715Y-36421D01*
X53734Y-36459D01*
X53734Y-36515D01*
X53715Y-36553D01*
X53696Y-36571D01*
X53659Y-36590D01*
X53509Y-36590D01*
X53884Y-36421D02*
X53903Y-36403D01*
X53940Y-36384D01*
X54034Y-36384D01*
X54071Y-36403D01*
X54090Y-36421D01*
X54109Y-36459D01*
X54109Y-36496D01*
X54090Y-36553D01*
X53865Y-36778D01*
X54109Y-36778D01*
X56334Y-42578D02*
X56203Y-42390D01*
X56109Y-42578D02*
X56109Y-42184D01*
X56259Y-42184D01*
X56296Y-42203D01*
X56315Y-42221D01*
X56334Y-42259D01*
X56334Y-42315D01*
X56315Y-42353D01*
X56296Y-42371D01*
X56259Y-42390D01*
X56109Y-42390D01*
X56465Y-42184D02*
X56709Y-42184D01*
X56578Y-42334D01*
X56634Y-42334D01*
X56671Y-42353D01*
X56690Y-42371D01*
X56709Y-42409D01*
X56709Y-42503D01*
X56690Y-42540D01*
X56671Y-42559D01*
X56634Y-42578D01*
X56521Y-42578D01*
X56484Y-42559D01*
X56465Y-42540D01*
X54934Y-36778D02*
X54803Y-36590D01*
X54709Y-36778D02*
X54709Y-36384D01*
X54859Y-36384D01*
X54896Y-36403D01*
X54915Y-36421D01*
X54934Y-36459D01*
X54934Y-36515D01*
X54915Y-36553D01*
X54896Y-36571D01*
X54859Y-36590D01*
X54709Y-36590D01*
X55271Y-36515D02*
X55271Y-36778D01*
X55178Y-36365D02*
X55084Y-36646D01*
X55328Y-36646D01*
X59734Y-43578D02*
X59603Y-43390D01*
X59509Y-43578D02*
X59509Y-43184D01*
X59659Y-43184D01*
X59696Y-43203D01*
X59715Y-43221D01*
X59734Y-43259D01*
X59734Y-43315D01*
X59715Y-43353D01*
X59696Y-43371D01*
X59659Y-43390D01*
X59509Y-43390D01*
X60090Y-43184D02*
X59903Y-43184D01*
X59884Y-43371D01*
X59903Y-43353D01*
X59940Y-43334D01*
X60034Y-43334D01*
X60071Y-43353D01*
X60090Y-43371D01*
X60109Y-43409D01*
X60109Y-43503D01*
X60090Y-43540D01*
X60071Y-43559D01*
X60034Y-43578D01*
X59940Y-43578D01*
X59903Y-43559D01*
X59884Y-43540D01*
X56134Y-38378D02*
X56003Y-38190D01*
X55909Y-38378D02*
X55909Y-37984D01*
X56059Y-37984D01*
X56096Y-38003D01*
X56115Y-38021D01*
X56134Y-38059D01*
X56134Y-38115D01*
X56115Y-38153D01*
X56096Y-38171D01*
X56059Y-38190D01*
X55909Y-38190D01*
X56471Y-37984D02*
X56396Y-37984D01*
X56359Y-38003D01*
X56340Y-38021D01*
X56303Y-38078D01*
X56284Y-38153D01*
X56284Y-38303D01*
X56303Y-38340D01*
X56321Y-38359D01*
X56359Y-38378D01*
X56434Y-38378D01*
X56471Y-38359D01*
X56490Y-38340D01*
X56509Y-38303D01*
X56509Y-38209D01*
X56490Y-38171D01*
X56471Y-38153D01*
X56434Y-38134D01*
X56359Y-38134D01*
X56321Y-38153D01*
X56303Y-38171D01*
X56284Y-38209D01*
X56134Y-39978D02*
X56003Y-39790D01*
X55909Y-39978D02*
X55909Y-39584D01*
X56059Y-39584D01*
X56096Y-39603D01*
X56115Y-39621D01*
X56134Y-39659D01*
X56134Y-39715D01*
X56115Y-39753D01*
X56096Y-39771D01*
X56059Y-39790D01*
X55909Y-39790D01*
X56265Y-39584D02*
X56528Y-39584D01*
X56359Y-39978D01*
X58534Y-38378D02*
X58403Y-38190D01*
X58309Y-38378D02*
X58309Y-37984D01*
X58459Y-37984D01*
X58496Y-38003D01*
X58515Y-38021D01*
X58534Y-38059D01*
X58534Y-38115D01*
X58515Y-38153D01*
X58496Y-38171D01*
X58459Y-38190D01*
X58309Y-38190D01*
X58759Y-38153D02*
X58721Y-38134D01*
X58703Y-38115D01*
X58684Y-38078D01*
X58684Y-38059D01*
X58703Y-38021D01*
X58721Y-38003D01*
X58759Y-37984D01*
X58834Y-37984D01*
X58871Y-38003D01*
X58890Y-38021D01*
X58909Y-38059D01*
X58909Y-38078D01*
X58890Y-38115D01*
X58871Y-38134D01*
X58834Y-38153D01*
X58759Y-38153D01*
X58721Y-38171D01*
X58703Y-38190D01*
X58684Y-38228D01*
X58684Y-38303D01*
X58703Y-38340D01*
X58721Y-38359D01*
X58759Y-38378D01*
X58834Y-38378D01*
X58871Y-38359D01*
X58890Y-38340D01*
X58909Y-38303D01*
X58909Y-38228D01*
X58890Y-38190D01*
X58871Y-38171D01*
X58834Y-38153D01*
X57578Y-40665D02*
X57390Y-40796D01*
X57578Y-40890D02*
X57184Y-40890D01*
X57184Y-40740D01*
X57203Y-40703D01*
X57221Y-40684D01*
X57259Y-40665D01*
X57315Y-40665D01*
X57353Y-40684D01*
X57371Y-40703D01*
X57390Y-40740D01*
X57390Y-40890D01*
X57578Y-40478D02*
X57578Y-40403D01*
X57559Y-40365D01*
X57540Y-40346D01*
X57484Y-40309D01*
X57409Y-40290D01*
X57259Y-40290D01*
X57221Y-40309D01*
X57203Y-40328D01*
X57184Y-40365D01*
X57184Y-40440D01*
X57203Y-40478D01*
X57221Y-40496D01*
X57259Y-40515D01*
X57353Y-40515D01*
X57390Y-40496D01*
X57409Y-40478D01*
X57428Y-40440D01*
X57428Y-40365D01*
X57409Y-40328D01*
X57390Y-40309D01*
X57353Y-40290D01*
X59946Y-38378D02*
X59815Y-38190D01*
X59721Y-38378D02*
X59721Y-37984D01*
X59871Y-37984D01*
X59909Y-38003D01*
X59928Y-38021D01*
X59946Y-38059D01*
X59946Y-38115D01*
X59928Y-38153D01*
X59909Y-38171D01*
X59871Y-38190D01*
X59721Y-38190D01*
X60321Y-38378D02*
X60096Y-38378D01*
X60209Y-38378D02*
X60209Y-37984D01*
X60171Y-38040D01*
X60134Y-38078D01*
X60096Y-38096D01*
X60565Y-37984D02*
X60603Y-37984D01*
X60640Y-38003D01*
X60659Y-38021D01*
X60678Y-38059D01*
X60696Y-38134D01*
X60696Y-38228D01*
X60678Y-38303D01*
X60659Y-38340D01*
X60640Y-38359D01*
X60603Y-38378D01*
X60565Y-38378D01*
X60528Y-38359D01*
X60509Y-38340D01*
X60490Y-38303D01*
X60471Y-38228D01*
X60471Y-38134D01*
X60490Y-38059D01*
X60509Y-38021D01*
X60528Y-38003D01*
X60565Y-37984D01*
X57578Y-42053D02*
X57390Y-42184D01*
X57578Y-42278D02*
X57184Y-42278D01*
X57184Y-42128D01*
X57203Y-42090D01*
X57221Y-42071D01*
X57259Y-42053D01*
X57315Y-42053D01*
X57353Y-42071D01*
X57371Y-42090D01*
X57390Y-42128D01*
X57390Y-42278D01*
X57578Y-41678D02*
X57578Y-41903D01*
X57578Y-41790D02*
X57184Y-41790D01*
X57240Y-41828D01*
X57278Y-41865D01*
X57296Y-41903D01*
X57578Y-41303D02*
X57578Y-41528D01*
X57578Y-41415D02*
X57184Y-41415D01*
X57240Y-41453D01*
X57278Y-41490D01*
X57296Y-41528D01*
X62378Y-39653D02*
X62190Y-39784D01*
X62378Y-39878D02*
X61984Y-39878D01*
X61984Y-39728D01*
X62003Y-39690D01*
X62021Y-39671D01*
X62059Y-39653D01*
X62115Y-39653D01*
X62153Y-39671D01*
X62171Y-39690D01*
X62190Y-39728D01*
X62190Y-39878D01*
X62378Y-39278D02*
X62378Y-39503D01*
X62378Y-39390D02*
X61984Y-39390D01*
X62040Y-39428D01*
X62078Y-39465D01*
X62096Y-39503D01*
X62021Y-39128D02*
X62003Y-39109D01*
X61984Y-39071D01*
X61984Y-38978D01*
X62003Y-38940D01*
X62021Y-38921D01*
X62059Y-38903D01*
X62096Y-38903D01*
X62153Y-38921D01*
X62378Y-39146D01*
X62378Y-38903D01*
X59178Y-41053D02*
X58990Y-41184D01*
X59178Y-41278D02*
X58784Y-41278D01*
X58784Y-41128D01*
X58803Y-41090D01*
X58821Y-41071D01*
X58859Y-41053D01*
X58915Y-41053D01*
X58953Y-41071D01*
X58971Y-41090D01*
X58990Y-41128D01*
X58990Y-41278D01*
X59178Y-40678D02*
X59178Y-40903D01*
X59178Y-40790D02*
X58784Y-40790D01*
X58840Y-40828D01*
X58878Y-40865D01*
X58896Y-40903D01*
X58784Y-40546D02*
X58784Y-40303D01*
X58934Y-40434D01*
X58934Y-40378D01*
X58953Y-40340D01*
X58971Y-40321D01*
X59009Y-40303D01*
X59103Y-40303D01*
X59140Y-40321D01*
X59159Y-40340D01*
X59178Y-40378D01*
X59178Y-40490D01*
X59159Y-40528D01*
X59140Y-40546D01*
X59946Y-33978D02*
X59815Y-33790D01*
X59721Y-33978D02*
X59721Y-33584D01*
X59871Y-33584D01*
X59909Y-33603D01*
X59928Y-33621D01*
X59946Y-33659D01*
X59946Y-33715D01*
X59928Y-33753D01*
X59909Y-33771D01*
X59871Y-33790D01*
X59721Y-33790D01*
X60321Y-33978D02*
X60096Y-33978D01*
X60209Y-33978D02*
X60209Y-33584D01*
X60171Y-33640D01*
X60134Y-33678D01*
X60096Y-33696D01*
X60659Y-33715D02*
X60659Y-33978D01*
X60565Y-33565D02*
X60471Y-33846D01*
X60715Y-33846D01*
X58746Y-37778D02*
X58615Y-37590D01*
X58521Y-37778D02*
X58521Y-37384D01*
X58671Y-37384D01*
X58709Y-37403D01*
X58728Y-37421D01*
X58746Y-37459D01*
X58746Y-37515D01*
X58728Y-37553D01*
X58709Y-37571D01*
X58671Y-37590D01*
X58521Y-37590D01*
X59121Y-37778D02*
X58896Y-37778D01*
X59009Y-37778D02*
X59009Y-37384D01*
X58971Y-37440D01*
X58934Y-37478D01*
X58896Y-37496D01*
X59478Y-37384D02*
X59290Y-37384D01*
X59271Y-37571D01*
X59290Y-37553D01*
X59328Y-37534D01*
X59421Y-37534D01*
X59459Y-37553D01*
X59478Y-37571D01*
X59496Y-37609D01*
X59496Y-37703D01*
X59478Y-37740D01*
X59459Y-37759D01*
X59421Y-37778D01*
X59328Y-37778D01*
X59290Y-37759D01*
X59271Y-37740D01*
X59578Y-36853D02*
X59390Y-36984D01*
X59578Y-37078D02*
X59184Y-37078D01*
X59184Y-36928D01*
X59203Y-36890D01*
X59221Y-36871D01*
X59259Y-36853D01*
X59315Y-36853D01*
X59353Y-36871D01*
X59371Y-36890D01*
X59390Y-36928D01*
X59390Y-37078D01*
X59578Y-36478D02*
X59578Y-36703D01*
X59578Y-36590D02*
X59184Y-36590D01*
X59240Y-36628D01*
X59278Y-36665D01*
X59296Y-36703D01*
X59184Y-36140D02*
X59184Y-36215D01*
X59203Y-36253D01*
X59221Y-36271D01*
X59278Y-36309D01*
X59353Y-36328D01*
X59503Y-36328D01*
X59540Y-36309D01*
X59559Y-36290D01*
X59578Y-36253D01*
X59578Y-36178D01*
X59559Y-36140D01*
X59540Y-36121D01*
X59503Y-36103D01*
X59409Y-36103D01*
X59371Y-36121D01*
X59353Y-36140D01*
X59334Y-36178D01*
X59334Y-36253D01*
X59353Y-36290D01*
X59371Y-36309D01*
X59409Y-36328D01*
X60746Y-41578D02*
X60615Y-41390D01*
X60521Y-41578D02*
X60521Y-41184D01*
X60671Y-41184D01*
X60709Y-41203D01*
X60728Y-41221D01*
X60746Y-41259D01*
X60746Y-41315D01*
X60728Y-41353D01*
X60709Y-41371D01*
X60671Y-41390D01*
X60521Y-41390D01*
X61121Y-41578D02*
X60896Y-41578D01*
X61009Y-41578D02*
X61009Y-41184D01*
X60971Y-41240D01*
X60934Y-41278D01*
X60896Y-41296D01*
X61253Y-41184D02*
X61515Y-41184D01*
X61346Y-41578D01*
X62146Y-38378D02*
X62015Y-38190D01*
X61921Y-38378D02*
X61921Y-37984D01*
X62071Y-37984D01*
X62109Y-38003D01*
X62128Y-38021D01*
X62146Y-38059D01*
X62146Y-38115D01*
X62128Y-38153D01*
X62109Y-38171D01*
X62071Y-38190D01*
X61921Y-38190D01*
X62521Y-38378D02*
X62296Y-38378D01*
X62409Y-38378D02*
X62409Y-37984D01*
X62371Y-38040D01*
X62334Y-38078D01*
X62296Y-38096D01*
X62746Y-38153D02*
X62709Y-38134D01*
X62690Y-38115D01*
X62671Y-38078D01*
X62671Y-38059D01*
X62690Y-38021D01*
X62709Y-38003D01*
X62746Y-37984D01*
X62821Y-37984D01*
X62859Y-38003D01*
X62878Y-38021D01*
X62896Y-38059D01*
X62896Y-38078D01*
X62878Y-38115D01*
X62859Y-38134D01*
X62821Y-38153D01*
X62746Y-38153D01*
X62709Y-38171D01*
X62690Y-38190D01*
X62671Y-38228D01*
X62671Y-38303D01*
X62690Y-38340D01*
X62709Y-38359D01*
X62746Y-38378D01*
X62821Y-38378D01*
X62859Y-38359D01*
X62878Y-38340D01*
X62896Y-38303D01*
X62896Y-38228D01*
X62878Y-38190D01*
X62859Y-38171D01*
X62821Y-38153D01*
X62546Y-34378D02*
X62415Y-34190D01*
X62321Y-34378D02*
X62321Y-33984D01*
X62471Y-33984D01*
X62509Y-34003D01*
X62528Y-34021D01*
X62546Y-34059D01*
X62546Y-34115D01*
X62528Y-34153D01*
X62509Y-34171D01*
X62471Y-34190D01*
X62321Y-34190D01*
X62921Y-34378D02*
X62696Y-34378D01*
X62809Y-34378D02*
X62809Y-33984D01*
X62771Y-34040D01*
X62734Y-34078D01*
X62696Y-34096D01*
X63109Y-34378D02*
X63184Y-34378D01*
X63221Y-34359D01*
X63240Y-34340D01*
X63278Y-34284D01*
X63296Y-34209D01*
X63296Y-34059D01*
X63278Y-34021D01*
X63259Y-34003D01*
X63221Y-33984D01*
X63146Y-33984D01*
X63109Y-34003D01*
X63090Y-34021D01*
X63071Y-34059D01*
X63071Y-34153D01*
X63090Y-34190D01*
X63109Y-34209D01*
X63146Y-34228D01*
X63221Y-34228D01*
X63259Y-34209D01*
X63278Y-34190D01*
X63296Y-34153D01*
X61178Y-36053D02*
X60990Y-36184D01*
X61178Y-36278D02*
X60784Y-36278D01*
X60784Y-36128D01*
X60803Y-36090D01*
X60821Y-36071D01*
X60859Y-36053D01*
X60915Y-36053D01*
X60953Y-36071D01*
X60971Y-36090D01*
X60990Y-36128D01*
X60990Y-36278D01*
X60821Y-35903D02*
X60803Y-35884D01*
X60784Y-35846D01*
X60784Y-35753D01*
X60803Y-35715D01*
X60821Y-35696D01*
X60859Y-35678D01*
X60896Y-35678D01*
X60953Y-35696D01*
X61178Y-35921D01*
X61178Y-35678D01*
X60784Y-35434D02*
X60784Y-35396D01*
X60803Y-35359D01*
X60821Y-35340D01*
X60859Y-35321D01*
X60934Y-35303D01*
X61028Y-35303D01*
X61103Y-35321D01*
X61140Y-35340D01*
X61159Y-35359D01*
X61178Y-35396D01*
X61178Y-35434D01*
X61159Y-35471D01*
X61140Y-35490D01*
X61103Y-35509D01*
X61028Y-35528D01*
X60934Y-35528D01*
X60859Y-35509D01*
X60821Y-35490D01*
X60803Y-35471D01*
X60784Y-35434D01*
X57500Y-33984D02*
X57725Y-33984D01*
X57612Y-34378D02*
X57612Y-33984D01*
X58062Y-34378D02*
X57837Y-34378D01*
X57949Y-34378D02*
X57949Y-33984D01*
X57912Y-34040D01*
X57874Y-34078D01*
X57837Y-34096D01*
X63900Y-35384D02*
X63900Y-35703D01*
X63918Y-35740D01*
X63937Y-35759D01*
X63975Y-35778D01*
X64050Y-35778D01*
X64087Y-35759D01*
X64106Y-35740D01*
X64125Y-35703D01*
X64125Y-35384D01*
X64518Y-35778D02*
X64293Y-35778D01*
X64406Y-35778D02*
X64406Y-35384D01*
X64368Y-35440D01*
X64331Y-35478D01*
X64293Y-35496D01*
X64100Y-43384D02*
X64100Y-43703D01*
X64118Y-43740D01*
X64137Y-43759D01*
X64175Y-43778D01*
X64250Y-43778D01*
X64287Y-43759D01*
X64306Y-43740D01*
X64325Y-43703D01*
X64325Y-43384D01*
X64493Y-43421D02*
X64512Y-43403D01*
X64549Y-43384D01*
X64643Y-43384D01*
X64681Y-43403D01*
X64699Y-43421D01*
X64718Y-43459D01*
X64718Y-43496D01*
X64699Y-43553D01*
X64474Y-43778D01*
X64718Y-43778D01*
X51862Y-33178D02*
X51862Y-32784D01*
X51993Y-33065D01*
X52125Y-32784D01*
X52125Y-33178D01*
X52312Y-33178D02*
X52312Y-32784D01*
X52312Y-32971D02*
X52537Y-32971D01*
X52537Y-33178D02*
X52537Y-32784D01*
X51862Y-47378D02*
X51862Y-46984D01*
X51993Y-47265D01*
X52125Y-46984D01*
X52125Y-47378D01*
X52312Y-47378D02*
X52312Y-46984D01*
X52312Y-47171D02*
X52537Y-47171D01*
X52537Y-47378D02*
X52537Y-46984D01*
X67462Y-45606D02*
X67462Y-45212D01*
X67593Y-45493D01*
X67725Y-45212D01*
X67725Y-45606D01*
X67912Y-45606D02*
X67912Y-45212D01*
X67912Y-45399D02*
X68137Y-45399D01*
X68137Y-45606D02*
X68137Y-45212D01*
X67462Y-33378D02*
X67462Y-32984D01*
X67593Y-33265D01*
X67725Y-32984D01*
X67725Y-33378D01*
X67912Y-33378D02*
X67912Y-32984D01*
X67912Y-33171D02*
X68137Y-33171D01*
X68137Y-33378D02*
X68137Y-32984D01*
M02*
