G04 #@! TF.FileFunction,Soldermask,Bot*
%FSLAX46Y46*%
G04 Gerber Fmt 4.6, Leading zero omitted, Abs format (unit mm)*
G04 Created by KiCad (PCBNEW 4.0.7-e2-6376~58~ubuntu16.04.1) date Fri Jun 29 11:13:25 2018*
%MOMM*%
%LPD*%
G01*
G04 APERTURE LIST*
%ADD10C,0.150000*%
%ADD11R,3.800000X3.800000*%
%ADD12R,3.600120X3.600120*%
%ADD13C,3.910000*%
%ADD14C,1.624000*%
%ADD15R,1.624000X1.624000*%
%ADD16O,2.098980X2.098980*%
%ADD17R,2.098980X2.098980*%
%ADD18C,1.900000*%
%ADD19R,1.827200X2.132000*%
%ADD20O,1.827200X2.132000*%
%ADD21R,2.335200X2.335200*%
%ADD22C,6.600000*%
%ADD23R,1.827200X1.827200*%
%ADD24O,1.827200X1.827200*%
%ADD25R,2.132000X1.827200*%
%ADD26O,2.132000X1.827200*%
%ADD27C,2.300000*%
G04 APERTURE END LIST*
D10*
D11*
X168904860Y-81280000D03*
D12*
X174904340Y-81280000D03*
X171904600Y-76581000D03*
D13*
X55270000Y-98044000D03*
X55270000Y-64516000D03*
D14*
X56540000Y-71628000D03*
X56540000Y-74422000D03*
X56540000Y-77089000D03*
X56540000Y-79883000D03*
X56540000Y-82677000D03*
X56540000Y-85471000D03*
X56540000Y-88138000D03*
D15*
X56540000Y-90932000D03*
D14*
X54000000Y-73202800D03*
X54000000Y-75742800D03*
X54000000Y-78536800D03*
X54000000Y-81280000D03*
X54000000Y-84023200D03*
X54000000Y-86817200D03*
X54000000Y-89560400D03*
D16*
X136144000Y-71882000D03*
D17*
X138684000Y-71882000D03*
D18*
X48000000Y-106000000D03*
X45460000Y-108540000D03*
X45460000Y-103460000D03*
X50540000Y-103460000D03*
X50540000Y-108540000D03*
X48000000Y-121650000D03*
X45460000Y-124190000D03*
X45460000Y-119110000D03*
X50540000Y-119110000D03*
X50540000Y-124190000D03*
X175000000Y-67900000D03*
X177540000Y-65360000D03*
X177540000Y-70440000D03*
X172460000Y-70440000D03*
X172460000Y-65360000D03*
X175000000Y-94500000D03*
X177540000Y-91960000D03*
X177540000Y-97040000D03*
X172460000Y-97040000D03*
X172460000Y-91960000D03*
X175000000Y-41900000D03*
X177540000Y-39360000D03*
X177540000Y-44440000D03*
X172460000Y-44440000D03*
X172460000Y-39360000D03*
X175000000Y-120500000D03*
X177540000Y-117960000D03*
X177540000Y-123040000D03*
X172460000Y-123040000D03*
X172460000Y-117960000D03*
X175000000Y-54900000D03*
X177540000Y-52360000D03*
X177540000Y-57440000D03*
X172460000Y-57440000D03*
X172460000Y-52360000D03*
X175000000Y-107500000D03*
X177540000Y-104960000D03*
X177540000Y-110040000D03*
X172460000Y-110040000D03*
X172460000Y-104960000D03*
X48000000Y-56250000D03*
X45460000Y-58790000D03*
X45460000Y-53710000D03*
X50540000Y-53710000D03*
X50540000Y-58790000D03*
X48000000Y-40600000D03*
X45460000Y-43140000D03*
X45460000Y-38060000D03*
X50540000Y-38060000D03*
X50540000Y-43140000D03*
D19*
X61468000Y-64516000D03*
D20*
X64008000Y-64516000D03*
X66548000Y-64516000D03*
D21*
X70000000Y-50500000D03*
D22*
X66040000Y-120904000D03*
X66040000Y-41529000D03*
X142240000Y-120904000D03*
X142240000Y-41529000D03*
D19*
X81534000Y-68326000D03*
D20*
X84074000Y-68326000D03*
X86614000Y-68326000D03*
D19*
X76708000Y-108966000D03*
D20*
X79248000Y-108966000D03*
X81788000Y-108966000D03*
D23*
X61500000Y-70000000D03*
D24*
X64040000Y-70000000D03*
X61500000Y-72540000D03*
X64040000Y-72540000D03*
X61500000Y-75080000D03*
X64040000Y-75080000D03*
X61500000Y-77620000D03*
X64040000Y-77620000D03*
X61500000Y-80160000D03*
X64040000Y-80160000D03*
X61500000Y-82700000D03*
X64040000Y-82700000D03*
X61500000Y-85240000D03*
X64040000Y-85240000D03*
X61500000Y-87780000D03*
X64040000Y-87780000D03*
X61500000Y-90320000D03*
X64040000Y-90320000D03*
X61500000Y-92860000D03*
X64040000Y-92860000D03*
D19*
X162052000Y-64008000D03*
D20*
X159512000Y-64008000D03*
X156972000Y-64008000D03*
D19*
X162052000Y-73406000D03*
D20*
X159512000Y-73406000D03*
X156972000Y-73406000D03*
D25*
X151003000Y-110363000D03*
D26*
X151003000Y-112903000D03*
X151003000Y-115443000D03*
D25*
X157861000Y-110363000D03*
D26*
X157861000Y-112903000D03*
X157861000Y-115443000D03*
D27*
X162560000Y-49530000D03*
X160020000Y-46990000D03*
X165100000Y-46990000D03*
X165100000Y-52070000D03*
X160020000Y-52070000D03*
X163576000Y-123190000D03*
X161036000Y-120650000D03*
X166116000Y-120650000D03*
X166116000Y-125730000D03*
X161036000Y-125730000D03*
X162090000Y-89150000D03*
X159550000Y-86610000D03*
X164630000Y-86610000D03*
X164630000Y-91690000D03*
X159550000Y-91690000D03*
X162687000Y-103251000D03*
X160147000Y-100711000D03*
X165227000Y-100711000D03*
X165227000Y-105791000D03*
X160147000Y-105791000D03*
M02*
