M48
;DRILL file {KiCad 4.0.7} date Tue Dec  5 10:08:45 2017
;FORMAT={-:-/ absolute / inch / decimal}
FMAT,2
INCH,TZ
T1C0.016
T2C0.039
T3C0.040
T4C0.043
T5C0.043
T6C0.047
T7C0.059
T8C0.063
T9C0.120
T10C0.256
%
G90
G05
M72
T1
X2.37Y-5.07
X2.39Y-3.97
X2.4Y-3.79
X2.41Y-5.06
X2.42Y-2.43
X2.42Y-4.22
X2.44Y-3.89
X2.47Y-4.
X2.495Y-5.0427
X2.495Y-5.0724
X2.508Y-4.0696
X2.52Y-3.89
X2.5376Y-4.07
X2.5673Y-4.0702
X2.57Y-5.1
X2.62Y-4.12
X2.62Y-4.22
X2.65Y-4.1
X2.66Y-4.22
X2.68Y-3.89
X2.69Y-5.04
X2.7Y-4.1
X2.7027Y-3.2518
X2.71Y-3.66
X2.72Y-3.29
X2.7518Y-4.0982
X2.7673Y-3.1873
X2.77Y-2.92
X2.7702Y-2.9773
X2.78Y-2.76
X2.78Y-2.8
X2.78Y-2.88
X2.78Y-3.03
X2.78Y-3.06
X2.78Y-3.12
X2.78Y-4.22
X2.79Y-2.67
X2.79Y-2.7
X2.8Y-2.52
X2.84Y-4.44
X2.85Y-3.93
X2.85Y-4.005
X2.86Y-2.56
X2.86Y-2.77
X2.86Y-2.95
X2.8627Y-3.25
X2.87Y-3.21
X2.9102Y-3.3
X2.9102Y-3.3677
X2.9102Y-3.5772
X2.9102Y-3.8134
X2.9102Y-4.0496
X2.9102Y-4.2898
X2.9102Y-4.526
X2.9102Y-4.7622
X2.9102Y-4.9717
X2.9102Y-5.0394
X2.9116Y-1.3606
X2.9116Y-1.4283
X2.9116Y-1.6378
X2.9116Y-1.874
X2.9116Y-2.1102
X2.9116Y-2.3504
X2.9116Y-2.5866
X2.9116Y-2.8228
X2.9116Y-3.0323
X2.9116Y-3.1
X2.9316Y-3.1755
X2.978Y-3.3
X2.978Y-5.0394
X2.9793Y-1.3606
X2.9793Y-3.1
X2.98Y-3.87
X3.03Y-1.41
X3.03Y-3.34
X3.05Y-2.09
X3.06Y-3.89
X3.06Y-4.01
X3.07Y-3.
X3.07Y-4.92
X3.08Y-1.94
X3.105Y-4.385
X3.16Y-3.
X3.16Y-4.92
X3.18Y-2.27
X3.185Y-4.385
X3.1874Y-3.3
X3.1874Y-5.0394
X3.1888Y-1.3606
X3.1888Y-3.1
X3.2Y-2.535
X3.2Y-3.88
X3.22Y-4.61
X3.23Y-1.41
X3.23Y-3.34
X3.2318Y-3.8273
X3.2338Y-1.914
X3.24Y-1.96
X3.26Y-2.46
X3.33Y-4.57
X3.38Y-2.43
X3.39Y-4.36
X3.42Y-2.785
X3.42Y-2.865
X3.4218Y-1.9073
X3.4236Y-3.3
X3.4236Y-5.0394
X3.425Y-1.3606
X3.425Y-3.1
X3.43Y-1.41
X3.43Y-3.34
X3.4398Y-3.8273
X3.44Y-2.03
X3.44Y-2.43
X3.44Y-3.95
X3.45Y-4.35
X3.47Y-2.01
X3.475Y-3.93
X3.52Y-2.0854
X3.52Y-2.12
X3.525Y-4.0054
X3.525Y-4.04
X3.54Y-2.71
X3.545Y-4.895
X3.55Y-4.63
X3.58Y-4.14
X3.59Y-2.01
X3.6Y-3.93
X3.6Y-4.3
X3.61Y-2.47
X3.63Y-2.36
X3.6339Y-1.9073
X3.6398Y-3.8273
X3.64Y-2.66
X3.6402Y-4.2773
X3.65Y-4.355
X3.6598Y-3.3
X3.6598Y-5.0394
X3.66Y-2.8
X3.6612Y-1.3606
X3.6612Y-3.1
X3.6616Y-3.1973
X3.69Y-2.91
X3.7Y-4.83
X3.72Y-2.2686
X3.7221Y-2.314
X3.725Y-4.125
X3.73Y-2.47
X3.73Y-3.79
X3.73Y-4.17
X3.73Y-4.23
X3.74Y-3.97
X3.74Y-4.38
X3.77Y-2.02
X3.785Y-5.0639
X3.8Y-2.39
X3.8Y-4.31
X3.85Y-2.92
X3.85Y-4.83
X3.8502Y-3.2427
X3.86Y-1.88
X3.86Y-2.86
X3.88Y-2.18
X3.9Y-1.5
X3.9Y-3.3
X3.9Y-5.0394
X3.9014Y-1.3606
X3.9014Y-3.1
X3.905Y-2.49
X3.91Y-2.72
X3.91Y-2.79
X3.91Y-3.42
X3.91Y-4.64
X3.91Y-4.71
X3.93Y-4.34
X3.93Y-4.77
X3.96Y-2.13
X3.96Y-2.39
X3.99Y-1.48
X3.99Y-1.54
X4.Y-3.4
X4.Y-3.46
X4.02Y-1.86
X4.02Y-3.78
X4.03Y-1.92
X4.04Y-3.84
X4.05Y-2.42
X4.05Y-2.48
X4.05Y-2.68
X4.06Y-2.5827
X4.06Y-2.6173
X4.06Y-4.34
X4.06Y-4.4
X4.06Y-4.6
X4.065Y-4.5027
X4.065Y-4.5373
X4.09Y-1.44
X4.1Y-1.96
X4.1Y-1.96
X4.1Y-2.14
X4.1Y-3.02
X4.1Y-3.36
X4.1Y-3.88
X4.11Y-4.94
X4.1102Y-4.0573
X4.12Y-1.76
X4.13Y-2.68
X4.13Y-2.74
X4.13Y-3.23
X4.13Y-3.68
X4.13Y-4.6
X4.1362Y-3.3
X4.1362Y-5.0394
X4.1376Y-1.3606
X4.1376Y-3.1
X4.14Y-4.66
X4.15Y-3.8
X4.15Y-4.285
X4.16Y-1.96
X4.17Y-3.88
X4.18Y-1.6527
X4.18Y-1.6873
X4.18Y-1.92
X4.185Y-3.5727
X4.185Y-3.6073
X4.2Y-1.86
X4.2Y-4.24
X4.21Y-4.12
X4.22Y-2.4
X4.22Y-2.96
X4.2247Y-5.0704
X4.23Y-2.23
X4.24Y-1.96
X4.24Y-2.53
X4.24Y-3.88
X4.24Y-4.15
X4.24Y-4.8505
X4.2402Y-3.7427
X4.25Y-1.76
X4.25Y-3.68
X4.25Y-4.29
X4.26Y-2.32
X4.32Y-2.78
X4.33Y-4.69
X4.35Y-2.2208
X4.35Y-2.27
X4.355Y-4.1408
X4.355Y-4.19
X4.36Y-2.99
X4.3724Y-3.3
X4.3724Y-5.0394
X4.3738Y-1.3606
X4.3738Y-3.1
X4.39Y-2.13
X4.3992Y-2.2208
X4.3992Y-2.27
X4.4Y-4.05
X4.4042Y-4.1408
X4.4042Y-4.19
X4.42Y-1.97
X4.42Y-3.87
X4.42Y-4.41
X4.43Y-2.3827
X4.43Y-2.5051
X4.44Y-1.68
X4.44Y-3.18
X4.4489Y-4.3689
X4.45Y-4.31
X4.4527Y-2.4383
X4.47Y-2.33
X4.481Y-2.2293
X4.49Y-4.14
X4.52Y-2.19
X4.52Y-2.32
X4.53Y-4.11
X4.54Y-1.58
X4.54Y-1.95
X4.54Y-3.87
X4.55Y-2.36
X4.5527Y-3.5097
X4.56Y-4.2
X4.57Y-2.41
X4.57Y-2.47
X4.57Y-2.53
X4.57Y-2.59
X4.57Y-4.33
X4.57Y-4.39
X4.57Y-4.45
X4.57Y-4.51
X4.5819Y-3.3
X4.5819Y-5.0394
X4.5833Y-1.3606
X4.5833Y-3.1
X4.6496Y-3.3
X4.6496Y-3.3677
X4.6496Y-3.5772
X4.6496Y-3.8134
X4.6496Y-4.0496
X4.6496Y-4.2898
X4.6496Y-4.526
X4.6496Y-4.7622
X4.6496Y-4.9717
X4.6496Y-5.0394
X4.651Y-1.3606
X4.651Y-1.4283
X4.651Y-1.6378
X4.651Y-1.874
X4.651Y-2.1102
X4.651Y-2.3504
X4.651Y-2.5866
X4.651Y-2.8228
X4.651Y-3.0323
X4.651Y-3.1
X4.69Y-4.64
X4.72Y-4.8
X4.75Y-4.58
X4.76Y-3.25
X4.77Y-3.03
X4.77Y-3.07
X4.77Y-3.1
X4.78Y-2.45
X4.78Y-2.58
X4.79Y-1.5
X4.79Y-3.81
X4.79Y-4.06
X4.7996Y-3.
X4.8Y-3.3
X4.8Y-3.4
X4.8Y-3.5
X4.8Y-3.6
X4.8Y-3.7
X4.81Y-1.67
X4.8146Y-3.0769
X4.8146Y-3.1074
X4.82Y-3.25
X4.84Y-4.71
X4.85Y-4.59
X4.86Y-1.85
X4.86Y-2.9
X4.86Y-3.81
X4.8634Y-3.0769
X4.8634Y-3.1074
X4.875Y-5.09
X4.88Y-4.11
X4.88Y-4.18
X4.88Y-5.04
X4.9Y-2.45
X4.9Y-3.3
X4.9Y-3.4
X4.9Y-3.5
X4.9Y-3.6
X4.9Y-3.7
X4.9Y-4.35
X4.91Y-3.15
X4.94Y-3.07
X4.94Y-3.11
X4.95Y-1.67
X4.95Y-4.39
X4.96Y-2.75
X4.96Y-2.84
X4.97Y-3.21
X4.99Y-3.07
X4.99Y-3.11
X5.Y-3.5
X5.Y-3.6
X5.Y-3.7
X5.Y-4.43
X5.02Y-4.71
X5.03Y-2.97
X5.03Y-3.03
X5.06Y-3.83
X5.06Y-4.
X5.11Y-4.2
X5.12Y-2.12
X5.12Y-4.38
X5.15Y-4.2
X5.15Y-4.58
X5.17Y-1.37
X5.18Y-2.35
X5.18Y-2.43
X5.24Y-2.63
X5.28Y-2.09
X5.42Y-2.57
X5.59Y-4.45
X5.62Y-3.76
X5.62Y-4.39
X5.87Y-2.66
X5.89Y-2.38
X5.89Y-3.41
X5.89Y-3.98
X5.89Y-4.81
X5.895Y-2.15
X5.9Y-1.86
X5.91Y-3.69
X5.94Y-2.72
X6.06Y-2.5
X6.08Y-2.85
X6.12Y-1.86
X6.12Y-3.75
X6.12Y-3.98
X6.125Y-2.15
X6.13Y-3.41
X6.13Y-4.81
X6.16Y-2.06
X6.17Y-3.65
X6.18Y-2.16
X6.185Y-3.995
X6.2Y-4.77
X6.32Y-1.51
X6.41Y-3.8
X6.76Y-4.02
T3
X2.126Y-2.882
X2.126Y-2.982
X2.126Y-3.092
X2.126Y-3.2
X2.126Y-3.308
X2.126Y-3.418
X2.126Y-3.526
X2.226Y-2.82
X2.226Y-2.93
X2.226Y-3.035
X2.226Y-3.145
X2.226Y-3.255
X2.226Y-3.365
X2.226Y-3.47
X2.226Y-3.58
X2.42Y-2.54
X2.4213Y-2.7559
X2.4213Y-2.8559
X2.4213Y-2.9559
X2.4213Y-3.0559
X2.4213Y-3.1559
X2.4213Y-3.2559
X2.4213Y-3.3559
X2.4213Y-3.4559
X2.4213Y-3.5559
X2.4213Y-3.6559
X2.52Y-2.54
X2.5213Y-2.7559
X2.5213Y-2.8559
X2.5213Y-2.9559
X2.5213Y-3.0559
X2.5213Y-3.1559
X2.5213Y-3.2559
X2.5213Y-3.3559
X2.5213Y-3.4559
X2.5213Y-3.5559
X2.5213Y-3.6559
X2.62Y-2.54
X2.7559Y-1.9882
X3.02Y-4.29
X3.12Y-4.29
X3.21Y-2.69
X3.22Y-4.29
X3.31Y-2.69
X3.41Y-2.69
T4
X5.945Y-4.345
X5.945Y-4.445
X5.945Y-4.545
X6.18Y-2.52
X6.18Y-2.89
X6.215Y-4.345
X6.215Y-4.445
X6.215Y-4.545
X6.28Y-2.52
X6.28Y-2.89
X6.38Y-2.52
X6.38Y-2.89
T5
X5.36Y-2.83
X5.46Y-2.83
T7
X1.7898Y-1.4984
X1.7898Y-1.6984
X1.7898Y-2.1146
X1.7898Y-2.3146
X1.7898Y-4.0732
X1.7898Y-4.2732
X1.7898Y-4.6894
X1.7898Y-4.8894
X1.8898Y-1.5984
X1.8898Y-2.2146
X1.8898Y-4.1732
X1.8898Y-4.7894
X1.9898Y-1.4984
X1.9898Y-1.6984
X1.9898Y-2.1146
X1.9898Y-2.3146
X1.9898Y-4.0732
X1.9898Y-4.2732
X1.9898Y-4.6894
X1.9898Y-4.8894
X6.3815Y-3.5098
X6.4Y-1.95
X6.405Y-4.065
X6.44Y-4.85
X6.7898Y-1.5496
X6.7898Y-1.7496
X6.7898Y-2.0614
X6.7898Y-2.2614
X6.7898Y-2.5732
X6.7898Y-2.7732
X6.7898Y-3.6205
X6.7898Y-3.8205
X6.7898Y-4.1323
X6.7898Y-4.3323
X6.7898Y-4.6441
X6.7898Y-4.8441
X6.8898Y-1.6496
X6.8898Y-2.1614
X6.8898Y-2.6732
X6.8898Y-3.7205
X6.8898Y-4.2323
X6.8898Y-4.7441
X6.9898Y-1.5496
X6.9898Y-1.7496
X6.9898Y-2.0614
X6.9898Y-2.2614
X6.9898Y-2.5732
X6.9898Y-2.7732
X6.9898Y-3.6205
X6.9898Y-3.8205
X6.9898Y-4.1323
X6.9898Y-4.3323
X6.9898Y-4.6441
X6.9898Y-4.8441
T8
X6.2815Y-3.4098
X6.2815Y-3.6098
X6.3Y-1.85
X6.3Y-2.05
X6.305Y-3.965
X6.305Y-4.165
X6.34Y-4.75
X6.34Y-4.95
X6.4815Y-3.4098
X6.4815Y-3.6098
X6.5Y-1.85
X6.5Y-2.05
X6.505Y-3.965
X6.505Y-4.165
X6.54Y-4.75
X6.54Y-4.95
T9
X2.176Y-2.54
X2.176Y-3.86
T10
X2.6Y-1.635
X2.6Y-4.76
X5.6Y-1.635
X5.6Y-4.76
T2
X6.8072Y-3.015G85X6.7285Y-3.015
G05
X6.886Y-3.2393G85X6.886Y-3.1606
G05
T6
X6.6498Y-3.2453G85X6.6498Y-3.1547
G05
T0
M30
