M48
;DRILL file {KiCad 4.0.4-1.fc24-product} date Wed Oct 18 10:53:44 2017
;FORMAT={2:4/ absolute / inch / suppress leading zeros}
FMAT,2
INCH,TZ
T1C0.016
T2C0.039
T3C0.040
T4C0.043
T5C0.043
T6C0.047
T7C0.059
T8C0.063
T9C0.120
T10C0.256
%
G90
G05
M72
T1
X23700Y-50700
X23900Y-39700
X24000Y-37900
X24100Y-50600
X24200Y-24300
X24200Y-42200
X24400Y-38900
X24700Y-40000
X24950Y-50427
X24950Y-50724
X25080Y-40696
X25200Y-38900
X25376Y-40700
X25673Y-40702
X25700Y-51000
X26200Y-41200
X26200Y-42200
X26500Y-41000
X26600Y-42200
X26800Y-38900
X26900Y-50400
X27000Y-41000
X27027Y-32518
X27100Y-36600
X27200Y-32900
X27518Y-40982
X27673Y-31873
X27700Y-29200
X27702Y-29773
X27800Y-27600
X27800Y-28000
X27800Y-28800
X27800Y-30300
X27800Y-30600
X27800Y-31200
X27800Y-42200
X27900Y-26700
X27900Y-27000
X28000Y-25200
X28400Y-44400
X28500Y-39300
X28500Y-40050
X28600Y-25600
X28600Y-27700
X28600Y-29500
X28627Y-32500
X28700Y-32100
X29102Y-33000
X29102Y-33677
X29102Y-35772
X29102Y-38134
X29102Y-40496
X29102Y-42898
X29102Y-45260
X29102Y-47622
X29102Y-49717
X29102Y-50394
X29116Y-13606
X29116Y-14283
X29116Y-16378
X29116Y-18740
X29116Y-21102
X29116Y-23504
X29116Y-25866
X29116Y-28228
X29116Y-30323
X29116Y-31000
X29316Y-31755
X29780Y-33000
X29780Y-50394
X29793Y-13606
X29793Y-31000
X29800Y-38700
X30300Y-14100
X30300Y-33400
X30500Y-20900
X30600Y-38900
X30600Y-40100
X30700Y-30000
X30700Y-49200
X30800Y-19400
X31050Y-43850
X31600Y-30000
X31600Y-49200
X31800Y-22700
X31850Y-43850
X31874Y-33000
X31874Y-50394
X31888Y-13606
X31888Y-31000
X32000Y-25350
X32000Y-38800
X32200Y-46100
X32300Y-14100
X32300Y-33400
X32318Y-38273
X32338Y-19140
X32400Y-19600
X32600Y-24600
X33300Y-45700
X33800Y-24300
X33900Y-43600
X34200Y-27850
X34200Y-28650
X34218Y-19073
X34236Y-33000
X34236Y-50394
X34250Y-13606
X34250Y-31000
X34300Y-14100
X34300Y-33400
X34398Y-38273
X34400Y-20300
X34400Y-24300
X34400Y-39500
X34500Y-43500
X34700Y-20100
X34750Y-39300
X35200Y-20854
X35200Y-21200
X35250Y-40054
X35250Y-40400
X35400Y-27100
X35450Y-48950
X35500Y-46300
X35800Y-41400
X35900Y-20100
X36000Y-39300
X36000Y-43000
X36100Y-24700
X36300Y-23600
X36339Y-19073
X36398Y-38273
X36400Y-26600
X36402Y-42773
X36500Y-43550
X36598Y-33000
X36598Y-50394
X36600Y-28000
X36612Y-13606
X36612Y-31000
X36616Y-31973
X36900Y-29100
X37000Y-48300
X37200Y-22686
X37221Y-23140
X37250Y-41250
X37300Y-24700
X37300Y-37900
X37300Y-41700
X37300Y-42300
X37400Y-39700
X37400Y-43800
X37700Y-20200
X37850Y-50639
X38000Y-23900
X38000Y-43100
X38500Y-29200
X38500Y-48300
X38502Y-32427
X38600Y-18800
X38600Y-28600
X38800Y-21800
X39000Y-15000
X39000Y-33000
X39000Y-50394
X39014Y-13606
X39014Y-31000
X39050Y-24900
X39100Y-27200
X39100Y-27900
X39100Y-34200
X39100Y-46400
X39100Y-47100
X39300Y-43400
X39300Y-47700
X39600Y-21300
X39600Y-23900
X39900Y-14800
X39900Y-15400
X40000Y-34000
X40000Y-34600
X40200Y-18600
X40200Y-37800
X40300Y-19200
X40400Y-38400
X40500Y-24200
X40500Y-24800
X40500Y-26800
X40600Y-25827
X40600Y-26173
X40600Y-43400
X40600Y-44000
X40600Y-46000
X40650Y-45027
X40650Y-45373
X40900Y-14400
X41000Y-19600
X41000Y-19600
X41000Y-21400
X41000Y-30200
X41000Y-33600
X41000Y-38800
X41100Y-49400
X41102Y-40573
X41200Y-17600
X41300Y-26800
X41300Y-27400
X41300Y-32300
X41300Y-36800
X41300Y-46000
X41362Y-33000
X41362Y-50394
X41376Y-13606
X41376Y-31000
X41400Y-46600
X41500Y-38000
X41500Y-42850
X41600Y-19600
X41700Y-38800
X41800Y-16527
X41800Y-16873
X41800Y-19200
X41850Y-35727
X41850Y-36073
X42000Y-18600
X42000Y-42400
X42100Y-41200
X42200Y-24000
X42200Y-29600
X42247Y-50704
X42300Y-22300
X42400Y-19600
X42400Y-25300
X42400Y-38800
X42400Y-41500
X42400Y-48505
X42402Y-37427
X42500Y-17600
X42500Y-36800
X42500Y-42900
X42600Y-23200
X43200Y-27800
X43300Y-46900
X43500Y-22208
X43500Y-22700
X43550Y-41408
X43550Y-41900
X43600Y-29900
X43724Y-33000
X43724Y-50394
X43738Y-13606
X43738Y-31000
X43900Y-21300
X43992Y-22208
X43992Y-22700
X44000Y-40500
X44042Y-41408
X44042Y-41900
X44200Y-19700
X44200Y-38700
X44200Y-44100
X44300Y-23827
X44300Y-25051
X44400Y-16800
X44400Y-31800
X44489Y-43689
X44500Y-43100
X44527Y-24383
X44700Y-23300
X44810Y-22293
X44900Y-41400
X45200Y-21900
X45200Y-23200
X45300Y-41100
X45400Y-15800
X45400Y-19500
X45400Y-38700
X45500Y-23600
X45527Y-35097
X45600Y-42000
X45700Y-24100
X45700Y-24700
X45700Y-25300
X45700Y-25900
X45700Y-43300
X45700Y-43900
X45700Y-44500
X45700Y-45100
X45819Y-33000
X45819Y-50394
X45833Y-13606
X45833Y-31000
X46496Y-33000
X46496Y-33677
X46496Y-35772
X46496Y-38134
X46496Y-40496
X46496Y-42898
X46496Y-45260
X46496Y-47622
X46496Y-49717
X46496Y-50394
X46510Y-13606
X46510Y-14283
X46510Y-16378
X46510Y-18740
X46510Y-21102
X46510Y-23504
X46510Y-25866
X46510Y-28228
X46510Y-30323
X46510Y-31000
X46900Y-46400
X47200Y-48000
X47500Y-45800
X47600Y-32500
X47700Y-30300
X47700Y-30700
X47700Y-31000
X47800Y-24500
X47800Y-25800
X47900Y-15000
X47900Y-38100
X47900Y-40600
X47996Y-30000
X48000Y-33000
X48000Y-34000
X48000Y-35000
X48000Y-36000
X48000Y-37000
X48100Y-16700
X48146Y-30769
X48146Y-31074
X48200Y-32500
X48400Y-47100
X48500Y-45900
X48600Y-18500
X48600Y-29000
X48600Y-38100
X48634Y-30769
X48634Y-31074
X48750Y-50900
X48800Y-41100
X48800Y-41800
X48800Y-50400
X49000Y-24500
X49000Y-33000
X49000Y-34000
X49000Y-35000
X49000Y-36000
X49000Y-37000
X49000Y-43500
X49100Y-31500
X49400Y-30700
X49400Y-31100
X49500Y-16700
X49500Y-43900
X49600Y-27500
X49600Y-28400
X49700Y-32100
X49900Y-30700
X49900Y-31100
X50000Y-35000
X50000Y-36000
X50000Y-37000
X50000Y-44300
X50200Y-47100
X50300Y-29700
X50300Y-30300
X50600Y-38300
X50600Y-40000
X51100Y-42000
X51200Y-21200
X51200Y-43800
X51500Y-42000
X51500Y-45800
X51700Y-13700
X51800Y-23500
X51800Y-24300
X52400Y-26300
X52800Y-20900
X54200Y-25700
X55900Y-44500
X56200Y-37600
X56200Y-43900
X58700Y-26600
X58900Y-23800
X58900Y-34100
X58900Y-39800
X58900Y-48100
X58950Y-21500
X59000Y-18600
X59100Y-36900
X59400Y-27200
X60600Y-25000
X60800Y-28500
X61200Y-18600
X61200Y-37500
X61200Y-39800
X61250Y-21500
X61300Y-34100
X61300Y-48100
X61600Y-20600
X61700Y-36500
X61800Y-21600
X61850Y-39950
X62000Y-47700
X63200Y-15100
X64100Y-38000
X67600Y-40200
T3
X21260Y-28820
X21260Y-29820
X21260Y-30920
X21260Y-32000
X21260Y-33080
X21260Y-34180
X21260Y-35260
X22260Y-28200
X22260Y-29300
X22260Y-30350
X22260Y-31450
X22260Y-32550
X22260Y-33650
X22260Y-34700
X22260Y-35800
X24200Y-25400
X24213Y-27559
X24213Y-28559
X24213Y-29559
X24213Y-30559
X24213Y-31559
X24213Y-32559
X24213Y-33559
X24213Y-34559
X24213Y-35559
X24213Y-36559
X25200Y-25400
X25213Y-27559
X25213Y-28559
X25213Y-29559
X25213Y-30559
X25213Y-31559
X25213Y-32559
X25213Y-33559
X25213Y-34559
X25213Y-35559
X25213Y-36559
X26200Y-25400
X27559Y-19882
X30200Y-42900
X31200Y-42900
X32100Y-26900
X32200Y-42900
X33100Y-26900
X34100Y-26900
T4
X59450Y-43450
X59450Y-44450
X59450Y-45450
X61800Y-25200
X61800Y-28900
X62150Y-43450
X62150Y-44450
X62150Y-45450
X62800Y-25200
X62800Y-28900
X63800Y-25200
X63800Y-28900
T5
X53600Y-28300
X54600Y-28300
T7
X17898Y-14984
X17898Y-16984
X17898Y-21146
X17898Y-23146
X17898Y-40732
X17898Y-42732
X17898Y-46894
X17898Y-48894
X18898Y-15984
X18898Y-22146
X18898Y-41732
X18898Y-47894
X19898Y-14984
X19898Y-16984
X19898Y-21146
X19898Y-23146
X19898Y-40732
X19898Y-42732
X19898Y-46894
X19898Y-48894
X63815Y-35098
X64000Y-19500
X64050Y-40650
X64400Y-48500
X67898Y-15496
X67898Y-17496
X67898Y-20614
X67898Y-22614
X67898Y-25732
X67898Y-27732
X67898Y-36205
X67898Y-38205
X67898Y-41323
X67898Y-43323
X67898Y-46441
X67898Y-48441
X68898Y-16496
X68898Y-21614
X68898Y-26732
X68898Y-37205
X68898Y-42323
X68898Y-47441
X69898Y-15496
X69898Y-17496
X69898Y-20614
X69898Y-22614
X69898Y-25732
X69898Y-27732
X69898Y-36205
X69898Y-38205
X69898Y-41323
X69898Y-43323
X69898Y-46441
X69898Y-48441
T8
X62815Y-34098
X62815Y-36098
X63000Y-18500
X63000Y-20500
X63050Y-39650
X63050Y-41650
X63400Y-47500
X63400Y-49500
X64815Y-34098
X64815Y-36098
X65000Y-18500
X65000Y-20500
X65050Y-39650
X65050Y-41650
X65400Y-47500
X65400Y-49500
T9
X21760Y-25400
X21760Y-38600
T10
X26000Y-16350
X26000Y-47600
X56000Y-16350
X56000Y-47600
T2
X68072Y-30150G85X67285Y-30150
G05
X68860Y-32394G85X68860Y-31607
G05
T6
X66498Y-32453G85X66498Y-31547
G05
T0
M30
