G04 #@! TF.FileFunction,Copper,L1,Top,Signal*
%FSLAX46Y46*%
G04 Gerber Fmt 4.6, Leading zero omitted, Abs format (unit mm)*
G04 Created by KiCad (PCBNEW 4.0.4-1.fc24-product) date Wed Oct 18 10:53:43 2017*
%MOMM*%
%LPD*%
G01*
G04 APERTURE LIST*
%ADD10C,0.150000*%
%ADD11R,0.300000X0.730000*%
%ADD12R,0.730000X0.300000*%
%ADD13R,1.250000X1.250000*%
%ADD14R,0.300000X0.650000*%
%ADD15R,1.240000X0.775000*%
%ADD16R,0.797560X0.797560*%
%ADD17R,1.400000X0.760000*%
%ADD18R,0.800000X0.750000*%
%ADD19R,0.750000X0.800000*%
%ADD20R,0.650000X1.060000*%
%ADD21R,1.300000X0.700000*%
%ADD22R,0.900000X0.500000*%
%ADD23R,0.800100X0.800100*%
%ADD24R,0.700000X1.300000*%
%ADD25R,0.500000X0.900000*%
%ADD26R,0.900000X2.500000*%
%ADD27R,2.500000X0.900000*%
%ADD28R,2.540000X3.810000*%
%ADD29R,1.060000X0.650000*%
%ADD30R,3.700000X3.700000*%
%ADD31R,3.500120X3.500120*%
%ADD32C,3.810000*%
%ADD33C,1.524000*%
%ADD34R,1.524000X1.524000*%
%ADD35O,1.998980X1.998980*%
%ADD36R,1.998980X1.998980*%
%ADD37R,0.900000X0.400000*%
%ADD38R,0.450000X1.450000*%
%ADD39R,1.000000X1.000000*%
%ADD40R,2.440000X1.000000*%
%ADD41R,3.800000X1.000000*%
%ADD42R,1.000000X2.440000*%
%ADD43R,1.000000X3.800000*%
%ADD44C,1.800000*%
%ADD45R,1.600200X3.599180*%
%ADD46R,0.600000X1.500000*%
%ADD47R,1.727200X2.032000*%
%ADD48O,1.727200X2.032000*%
%ADD49R,2.235200X2.235200*%
%ADD50R,2.301240X2.499360*%
%ADD51R,0.600000X0.700000*%
%ADD52R,0.700000X0.600000*%
%ADD53R,0.500000X0.300000*%
%ADD54R,0.900000X0.880000*%
%ADD55R,2.499360X2.301240*%
%ADD56R,1.727200X1.727200*%
%ADD57O,1.727200X1.727200*%
%ADD58R,2.032000X1.727200*%
%ADD59O,2.032000X1.727200*%
%ADD60C,2.200000*%
%ADD61C,0.600000*%
%ADD62C,0.350000*%
%ADD63C,0.250000*%
%ADD64C,1.500000*%
%ADD65C,0.400000*%
%ADD66C,0.254000*%
G04 APERTURE END LIST*
D10*
D11*
X110115000Y-58998000D03*
X110615000Y-58998000D03*
X111115000Y-58998000D03*
X111615000Y-58998000D03*
X112115000Y-58998000D03*
D12*
X113080000Y-58033000D03*
X113080000Y-57533000D03*
X113080000Y-57033000D03*
X113080000Y-56533000D03*
X113080000Y-56033000D03*
D11*
X112115000Y-55068000D03*
X111615000Y-55068000D03*
X111115000Y-55068000D03*
X110615000Y-55068000D03*
X110115000Y-55068000D03*
D12*
X109150000Y-56033000D03*
X109150000Y-56533000D03*
X109150000Y-57033000D03*
X109150000Y-57533000D03*
X109150000Y-58033000D03*
D13*
X111740000Y-56408000D03*
X110490000Y-56408000D03*
X111740000Y-57658000D03*
X110490000Y-57658000D03*
D14*
X121910660Y-80090332D03*
X122410660Y-80090332D03*
X122910660Y-80090332D03*
X123410660Y-80090332D03*
X123910660Y-80090332D03*
X123910660Y-76990332D03*
X123410660Y-76990332D03*
X122910660Y-76990332D03*
X122410660Y-76990332D03*
X121910660Y-76990332D03*
D15*
X123530660Y-78152832D03*
X122290660Y-78152832D03*
X123530660Y-78927832D03*
X122290660Y-78927832D03*
D16*
X139954000Y-95504000D03*
X141452600Y-95504000D03*
D17*
X150876000Y-97790000D03*
X150876000Y-96520000D03*
X150876000Y-95250000D03*
X154376000Y-95250000D03*
X154376000Y-97790000D03*
X150876000Y-57150000D03*
X150876000Y-55880000D03*
X150876000Y-54610000D03*
X154376000Y-54610000D03*
X154376000Y-57150000D03*
D18*
X113931000Y-113030000D03*
X115431000Y-113030000D03*
X113931000Y-111506000D03*
X115431000Y-111506000D03*
X113919000Y-109982000D03*
X115419000Y-109982000D03*
D19*
X109855000Y-111240000D03*
X109855000Y-109740000D03*
D18*
X113931000Y-114554000D03*
X115431000Y-114554000D03*
D20*
X108905000Y-115146000D03*
X109855000Y-115146000D03*
X110805000Y-115146000D03*
X110805000Y-112946000D03*
X108905000Y-112946000D03*
X109855000Y-112946000D03*
D19*
X109855000Y-118352000D03*
X109855000Y-116852000D03*
X111887000Y-116852000D03*
X111887000Y-118352000D03*
D18*
X105803000Y-115062000D03*
X107303000Y-115062000D03*
D19*
X108077000Y-111240000D03*
X108077000Y-109740000D03*
D21*
X92583000Y-104328000D03*
X92583000Y-102428000D03*
D18*
X92531500Y-111379000D03*
X94031500Y-111379000D03*
D19*
X107569000Y-107672000D03*
X107569000Y-106172000D03*
X114935000Y-106668000D03*
X114935000Y-105168000D03*
D18*
X102743000Y-102362000D03*
X104243000Y-102362000D03*
X102755000Y-100838000D03*
X104255000Y-100838000D03*
X109359000Y-101346000D03*
X110859000Y-101346000D03*
D21*
X100711000Y-113096000D03*
X100711000Y-114996000D03*
D18*
X100723000Y-111760000D03*
X102223000Y-111760000D03*
D19*
X104267000Y-116852000D03*
X104267000Y-118352000D03*
X102235000Y-116852000D03*
X102235000Y-118352000D03*
X90170000Y-116828000D03*
X90170000Y-115328000D03*
D18*
X94031500Y-113728500D03*
X92531500Y-113728500D03*
D20*
X89093000Y-113706000D03*
X90043000Y-113706000D03*
X90993000Y-113706000D03*
X90993000Y-111506000D03*
X89093000Y-111506000D03*
X90043000Y-111506000D03*
D18*
X91555000Y-119888000D03*
X90055000Y-119888000D03*
D21*
X96520000Y-115697000D03*
X96520000Y-113797000D03*
D22*
X82677000Y-115304000D03*
X82677000Y-113804000D03*
X84455000Y-113804000D03*
X84455000Y-115304000D03*
D18*
X85991000Y-113792000D03*
X87491000Y-113792000D03*
X87554500Y-111506000D03*
X86054500Y-111506000D03*
D23*
X98536760Y-119695000D03*
X98536760Y-117795000D03*
X96537780Y-118745000D03*
D19*
X100584000Y-116852000D03*
X100584000Y-118352000D03*
X98933000Y-122809000D03*
X98933000Y-121309000D03*
D20*
X102616000Y-119761000D03*
X101666000Y-119761000D03*
X100716000Y-119761000D03*
X100716000Y-121961000D03*
X102616000Y-121961000D03*
X101666000Y-121961000D03*
D18*
X101588000Y-124333000D03*
X100088000Y-124333000D03*
D21*
X78041500Y-123949500D03*
X78041500Y-122049500D03*
D24*
X80261500Y-120205500D03*
X78361500Y-120205500D03*
D21*
X80327500Y-122049500D03*
X80327500Y-123949500D03*
D25*
X81649000Y-118110000D03*
X80149000Y-118110000D03*
D18*
X86717000Y-98806000D03*
X85217000Y-98806000D03*
X86729000Y-101854000D03*
X85229000Y-101854000D03*
X79883000Y-101854000D03*
X78383000Y-101854000D03*
X97472500Y-91440000D03*
X98972500Y-91440000D03*
D26*
X95514500Y-86868000D03*
X98414500Y-86868000D03*
D27*
X96456500Y-93292000D03*
X96456500Y-96192000D03*
D19*
X95694500Y-89928000D03*
X95694500Y-91428000D03*
D28*
X92392500Y-95123000D03*
X92392500Y-86995000D03*
X87312500Y-95123000D03*
X82232500Y-95123000D03*
X82232500Y-86995000D03*
X87312500Y-86995000D03*
X77152500Y-95123000D03*
X77152500Y-86995000D03*
D18*
X92353000Y-105918000D03*
X93853000Y-105918000D03*
X92341000Y-107442000D03*
X93841000Y-107442000D03*
X94627000Y-102362000D03*
X96127000Y-102362000D03*
D19*
X90043000Y-109894500D03*
X90043000Y-108394500D03*
D18*
X95897000Y-100838000D03*
X97397000Y-100838000D03*
X79883000Y-100330000D03*
X78383000Y-100330000D03*
X79871000Y-98806000D03*
X78371000Y-98806000D03*
D29*
X83523000Y-101280000D03*
X83523000Y-100330000D03*
X83523000Y-99380000D03*
X81323000Y-99380000D03*
X81323000Y-101280000D03*
X81323000Y-100330000D03*
D24*
X96581000Y-122682000D03*
X94681000Y-122682000D03*
D21*
X96520000Y-110302000D03*
X96520000Y-112202000D03*
D19*
X104267000Y-123202000D03*
X104267000Y-124702000D03*
D18*
X89039000Y-99822000D03*
X90539000Y-99822000D03*
X86729000Y-100330000D03*
X85229000Y-100330000D03*
D29*
X98849000Y-99888000D03*
X98849000Y-100838000D03*
X98849000Y-101788000D03*
X101049000Y-101788000D03*
X101049000Y-99888000D03*
X101049000Y-100838000D03*
D26*
X99070500Y-94234000D03*
X101970500Y-94234000D03*
D18*
X103798500Y-87884000D03*
X102298500Y-87884000D03*
X103810500Y-86360000D03*
X102310500Y-86360000D03*
X109335000Y-95758000D03*
X107835000Y-95758000D03*
D21*
X103759000Y-89474000D03*
X103759000Y-91374000D03*
D18*
X110085000Y-91440000D03*
X108585000Y-91440000D03*
D23*
X107757000Y-99329240D03*
X105857000Y-99329240D03*
X106807000Y-101328220D03*
D18*
X100532500Y-91440000D03*
X102032500Y-91440000D03*
X102767000Y-99314000D03*
X104267000Y-99314000D03*
X107037000Y-93472000D03*
X105537000Y-93472000D03*
X100723000Y-110236000D03*
X102223000Y-110236000D03*
D29*
X111041000Y-94808000D03*
X111041000Y-95758000D03*
X111041000Y-96708000D03*
X113241000Y-96708000D03*
X113241000Y-94808000D03*
X113241000Y-95758000D03*
D18*
X114693000Y-95758000D03*
X116193000Y-95758000D03*
D19*
X115443000Y-91428000D03*
X115443000Y-89928000D03*
D18*
X113169000Y-98298000D03*
X114669000Y-98298000D03*
D23*
X123632000Y-97678240D03*
X121732000Y-97678240D03*
X122682000Y-99677220D03*
D19*
X64008000Y-96278000D03*
X64008000Y-97778000D03*
X61976000Y-96278000D03*
X61976000Y-97778000D03*
D18*
X122416000Y-81534000D03*
X120916000Y-81534000D03*
X123964000Y-81534000D03*
X125464000Y-81534000D03*
X125488000Y-76962000D03*
X126988000Y-76962000D03*
X125488000Y-75438000D03*
X126988000Y-75438000D03*
X121932000Y-74676000D03*
X123432000Y-74676000D03*
X130060000Y-60505000D03*
X131560000Y-60505000D03*
X92226000Y-57150000D03*
X93726000Y-57150000D03*
X92214000Y-58674000D03*
X93714000Y-58674000D03*
X88912000Y-51054000D03*
X90412000Y-51054000D03*
X106910000Y-44704000D03*
X105410000Y-44704000D03*
X103683500Y-37592000D03*
X102183500Y-37592000D03*
X103671500Y-39116000D03*
X102171500Y-39116000D03*
X102616000Y-53594000D03*
X104116000Y-53594000D03*
X79756000Y-53086000D03*
X78256000Y-53086000D03*
X94500000Y-53594000D03*
X96000000Y-53594000D03*
X86602000Y-53086000D03*
X85102000Y-53086000D03*
X109232000Y-52578000D03*
X110732000Y-52578000D03*
X102628000Y-52070000D03*
X104128000Y-52070000D03*
X95770000Y-52070000D03*
X97270000Y-52070000D03*
X86602000Y-51562000D03*
X85102000Y-51562000D03*
X100405500Y-42672000D03*
X101905500Y-42672000D03*
X109958000Y-42672000D03*
X108458000Y-42672000D03*
X102640000Y-50546000D03*
X104140000Y-50546000D03*
X79744000Y-50038000D03*
X78244000Y-50038000D03*
X79756000Y-51562000D03*
X78256000Y-51562000D03*
X86590000Y-50038000D03*
X85090000Y-50038000D03*
D19*
X115316000Y-42660000D03*
X115316000Y-41160000D03*
D18*
X109208000Y-46990000D03*
X107708000Y-46990000D03*
X114566000Y-46990000D03*
X116066000Y-46990000D03*
X113042000Y-49530000D03*
X114542000Y-49530000D03*
X100596000Y-61468000D03*
X102096000Y-61468000D03*
D19*
X104140000Y-68084000D03*
X104140000Y-69584000D03*
D18*
X100596000Y-62992000D03*
X102096000Y-62992000D03*
D19*
X98806000Y-74041000D03*
X98806000Y-72541000D03*
X107950000Y-62472000D03*
X107950000Y-60972000D03*
D18*
X92404500Y-62611000D03*
X93904500Y-62611000D03*
D19*
X100457000Y-68084000D03*
X100457000Y-69584000D03*
D18*
X105676000Y-66294000D03*
X107176000Y-66294000D03*
X93904500Y-64960500D03*
X92404500Y-64960500D03*
X101461000Y-75565000D03*
X99961000Y-75565000D03*
D19*
X102108000Y-68084000D03*
X102108000Y-69584000D03*
X109728000Y-69584000D03*
X109728000Y-68084000D03*
X109728000Y-62472000D03*
X109728000Y-60972000D03*
X89916000Y-61126500D03*
X89916000Y-59626500D03*
X90043000Y-68060000D03*
X90043000Y-66560000D03*
X104140000Y-74434000D03*
X104140000Y-75934000D03*
D18*
X113804000Y-65786000D03*
X115304000Y-65786000D03*
D19*
X111760000Y-68084000D03*
X111760000Y-69584000D03*
D18*
X87427500Y-62738000D03*
X85927500Y-62738000D03*
X113792000Y-61214000D03*
X115292000Y-61214000D03*
X113804000Y-62738000D03*
X115304000Y-62738000D03*
X113804000Y-64262000D03*
X115304000Y-64262000D03*
D19*
X107442000Y-58904000D03*
X107442000Y-57404000D03*
X114808000Y-57900000D03*
X114808000Y-56400000D03*
D18*
X85864000Y-65024000D03*
X87364000Y-65024000D03*
X91174000Y-75184000D03*
X89674000Y-75184000D03*
D30*
X168904860Y-81280000D03*
D31*
X174904340Y-81280000D03*
X171904600Y-76581000D03*
D16*
X124460000Y-48501300D03*
X124460000Y-47002700D03*
D26*
X137848000Y-80264000D03*
X134948000Y-80264000D03*
D32*
X55270000Y-98044000D03*
X55270000Y-64516000D03*
D33*
X56540000Y-71628000D03*
X56540000Y-74422000D03*
X56540000Y-77089000D03*
X56540000Y-79883000D03*
X56540000Y-82677000D03*
X56540000Y-85471000D03*
X56540000Y-88138000D03*
D34*
X56540000Y-90932000D03*
D33*
X54000000Y-73202800D03*
X54000000Y-75742800D03*
X54000000Y-78536800D03*
X54000000Y-81280000D03*
X54000000Y-84023200D03*
X54000000Y-86817200D03*
X54000000Y-89560400D03*
D26*
X142928000Y-80264000D03*
X140028000Y-80264000D03*
D21*
X92456000Y-55560000D03*
X92456000Y-53660000D03*
X103632000Y-40706000D03*
X103632000Y-42606000D03*
D26*
X95387500Y-38100000D03*
X98287500Y-38100000D03*
D27*
X96329500Y-44524000D03*
X96329500Y-47424000D03*
D26*
X98943500Y-45466000D03*
X101843500Y-45466000D03*
D21*
X100584000Y-64328000D03*
X100584000Y-66228000D03*
D35*
X136144000Y-71882000D03*
D36*
X138684000Y-71882000D03*
D23*
X131760000Y-62679240D03*
X129860000Y-62679240D03*
X130810000Y-64678220D03*
D25*
X131560000Y-55880000D03*
X130060000Y-55880000D03*
D22*
X124460000Y-51538000D03*
X124460000Y-50038000D03*
X139954000Y-92456000D03*
X139954000Y-93956000D03*
D25*
X166104000Y-94996000D03*
X164604000Y-94996000D03*
X164072000Y-36068000D03*
X162572000Y-36068000D03*
X146800000Y-113030000D03*
X145300000Y-113030000D03*
D22*
X84074000Y-63234000D03*
X84074000Y-61734000D03*
X84074000Y-65901000D03*
X84074000Y-64401000D03*
X82296000Y-64401000D03*
X82296000Y-65901000D03*
D37*
X67650000Y-69100000D03*
X67650000Y-69900000D03*
X67650000Y-68300000D03*
X67650000Y-70700000D03*
X69350000Y-68300000D03*
X69350000Y-69100000D03*
X69350000Y-69900000D03*
X69350000Y-70700000D03*
X67650000Y-74100000D03*
X67650000Y-74900000D03*
X67650000Y-73300000D03*
X67650000Y-75700000D03*
X69350000Y-73300000D03*
X69350000Y-74100000D03*
X69350000Y-74900000D03*
X69350000Y-75700000D03*
X67800000Y-78300000D03*
X67800000Y-79100000D03*
X67800000Y-77500000D03*
X67800000Y-79900000D03*
X69500000Y-77500000D03*
X69500000Y-78300000D03*
X69500000Y-79100000D03*
X69500000Y-79900000D03*
D38*
X65995000Y-102645000D03*
X66645000Y-102645000D03*
X67295000Y-102645000D03*
X67945000Y-102645000D03*
X68595000Y-102645000D03*
X69245000Y-102645000D03*
X69895000Y-102645000D03*
X69895000Y-96745000D03*
X69245000Y-96745000D03*
X68595000Y-96745000D03*
X67945000Y-96745000D03*
X67295000Y-96745000D03*
X66645000Y-96745000D03*
X65995000Y-96745000D03*
D29*
X98722000Y-51120000D03*
X98722000Y-52070000D03*
X98722000Y-53020000D03*
X100922000Y-53020000D03*
X100922000Y-51120000D03*
X100922000Y-52070000D03*
X83396000Y-52512000D03*
X83396000Y-51562000D03*
X83396000Y-50612000D03*
X81196000Y-50612000D03*
X81196000Y-52512000D03*
X81196000Y-51562000D03*
D28*
X92265500Y-46355000D03*
X92265500Y-38227000D03*
X87185500Y-46355000D03*
X82105500Y-46355000D03*
X82105500Y-38227000D03*
X87185500Y-38227000D03*
X77025500Y-46355000D03*
X77025500Y-38227000D03*
D23*
X107630000Y-50561240D03*
X105730000Y-50561240D03*
X106680000Y-52560220D03*
X124902000Y-42433240D03*
X123002000Y-42433240D03*
X123952000Y-44432220D03*
D29*
X110914000Y-46040000D03*
X110914000Y-46990000D03*
X110914000Y-47940000D03*
X113114000Y-47940000D03*
X113114000Y-46040000D03*
X113114000Y-46990000D03*
D20*
X102489000Y-70993000D03*
X101539000Y-70993000D03*
X100589000Y-70993000D03*
X100589000Y-73193000D03*
X102489000Y-73193000D03*
X101539000Y-73193000D03*
X108778000Y-66378000D03*
X109728000Y-66378000D03*
X110678000Y-66378000D03*
X110678000Y-64178000D03*
X108778000Y-64178000D03*
X109728000Y-64178000D03*
X88966000Y-64938000D03*
X89916000Y-64938000D03*
X90866000Y-64938000D03*
X90866000Y-62738000D03*
X88966000Y-62738000D03*
X89916000Y-62738000D03*
D23*
X98409760Y-70927000D03*
X98409760Y-69027000D03*
X96410780Y-69977000D03*
D39*
X73955000Y-34560000D03*
X118135000Y-34560000D03*
X118135000Y-78740000D03*
X73955000Y-78740000D03*
D40*
X75675000Y-34560000D03*
X75675000Y-78740000D03*
D41*
X80995000Y-34560000D03*
X80995000Y-78740000D03*
X86995000Y-34560000D03*
X86995000Y-78740000D03*
X92995000Y-34560000D03*
X92995000Y-78740000D03*
X99095000Y-34560000D03*
X99095000Y-78740000D03*
X105095000Y-34560000D03*
X105095000Y-78740000D03*
X111095000Y-34560000D03*
X111095000Y-78740000D03*
D40*
X116415000Y-34560000D03*
X116415000Y-78740000D03*
D42*
X73955000Y-36280000D03*
X118135000Y-36280000D03*
D43*
X73955000Y-41600000D03*
X118135000Y-41600000D03*
X73955000Y-47600000D03*
X118135000Y-47600000D03*
X73955000Y-53600000D03*
X118135000Y-53600000D03*
X73955000Y-59700000D03*
X118135000Y-59700000D03*
X73955000Y-65700000D03*
X118135000Y-65700000D03*
X73955000Y-71700000D03*
X118135000Y-71700000D03*
D42*
X73955000Y-77020000D03*
X118135000Y-77020000D03*
D39*
X73920000Y-83820000D03*
X118100000Y-83820000D03*
X118100000Y-128000000D03*
X73920000Y-128000000D03*
D40*
X75640000Y-83820000D03*
X75640000Y-128000000D03*
D41*
X80960000Y-83820000D03*
X80960000Y-128000000D03*
X86960000Y-83820000D03*
X86960000Y-128000000D03*
X92960000Y-83820000D03*
X92960000Y-128000000D03*
X99060000Y-83820000D03*
X99060000Y-128000000D03*
X105060000Y-83820000D03*
X105060000Y-128000000D03*
X111060000Y-83820000D03*
X111060000Y-128000000D03*
D40*
X116380000Y-83820000D03*
X116380000Y-128000000D03*
D42*
X73920000Y-85540000D03*
X118100000Y-85540000D03*
D43*
X73920000Y-90860000D03*
X118100000Y-90860000D03*
X73920000Y-96860000D03*
X118100000Y-96860000D03*
X73920000Y-102860000D03*
X118100000Y-102860000D03*
X73920000Y-108960000D03*
X118100000Y-108960000D03*
X73920000Y-114960000D03*
X118100000Y-114960000D03*
X73920000Y-120960000D03*
X118100000Y-120960000D03*
D42*
X73920000Y-126280000D03*
X118100000Y-126280000D03*
D44*
X48000000Y-106000000D03*
X45460000Y-108540000D03*
X45460000Y-103460000D03*
X50540000Y-103460000D03*
X50540000Y-108540000D03*
X48000000Y-121650000D03*
X45460000Y-124190000D03*
X45460000Y-119110000D03*
X50540000Y-119110000D03*
X50540000Y-124190000D03*
X175000000Y-67900000D03*
X177540000Y-65360000D03*
X177540000Y-70440000D03*
X172460000Y-70440000D03*
X172460000Y-65360000D03*
X175000000Y-94500000D03*
X177540000Y-91960000D03*
X177540000Y-97040000D03*
X172460000Y-97040000D03*
X172460000Y-91960000D03*
X175000000Y-41900000D03*
X177540000Y-39360000D03*
X177540000Y-44440000D03*
X172460000Y-44440000D03*
X172460000Y-39360000D03*
X175000000Y-120500000D03*
X177540000Y-117960000D03*
X177540000Y-123040000D03*
X172460000Y-123040000D03*
X172460000Y-117960000D03*
X175000000Y-54900000D03*
X177540000Y-52360000D03*
X177540000Y-57440000D03*
X172460000Y-57440000D03*
X172460000Y-52360000D03*
X175000000Y-107500000D03*
X177540000Y-104960000D03*
X177540000Y-110040000D03*
X172460000Y-110040000D03*
X172460000Y-104960000D03*
D19*
X95567500Y-41160000D03*
X95567500Y-42660000D03*
D18*
X97345500Y-42672000D03*
X98845500Y-42672000D03*
D21*
X96393000Y-66929000D03*
X96393000Y-65029000D03*
X96393000Y-61534000D03*
X96393000Y-63434000D03*
D24*
X96454000Y-73914000D03*
X94554000Y-73914000D03*
X80134500Y-71437500D03*
X78234500Y-71437500D03*
D21*
X77914500Y-75181500D03*
X77914500Y-73281500D03*
X80200500Y-73281500D03*
X80200500Y-75181500D03*
D45*
X124460000Y-54399180D03*
X124460000Y-59900820D03*
D44*
X48000000Y-56250000D03*
X45460000Y-58790000D03*
X45460000Y-53710000D03*
X50540000Y-53710000D03*
X50540000Y-58790000D03*
X48000000Y-40600000D03*
X45460000Y-43140000D03*
X45460000Y-38060000D03*
X50540000Y-38060000D03*
X50540000Y-43140000D03*
D19*
X119888000Y-117844000D03*
X119888000Y-116344000D03*
X119888000Y-119646000D03*
X119888000Y-121146000D03*
D18*
X121690000Y-106172000D03*
X123190000Y-106172000D03*
X121690000Y-104394000D03*
X123190000Y-104394000D03*
X129552000Y-120142000D03*
X131052000Y-120142000D03*
D46*
X121920000Y-117680000D03*
X123190000Y-117680000D03*
X124460000Y-117680000D03*
X125730000Y-117680000D03*
X127000000Y-117680000D03*
X128270000Y-117680000D03*
X129540000Y-117680000D03*
X130810000Y-117680000D03*
X130810000Y-108380000D03*
X129540000Y-108380000D03*
X128270000Y-108380000D03*
X127000000Y-108380000D03*
X125730000Y-108380000D03*
X124460000Y-108380000D03*
X123190000Y-108380000D03*
X121920000Y-108380000D03*
D19*
X87630000Y-76696000D03*
X87630000Y-75196000D03*
X90043000Y-123178000D03*
X90043000Y-121678000D03*
D16*
X64516000Y-107962700D03*
X64516000Y-109461300D03*
X67564000Y-107962700D03*
X67564000Y-109461300D03*
X70612000Y-107962700D03*
X70612000Y-109461300D03*
X61468000Y-107962700D03*
X61468000Y-109461300D03*
D47*
X61468000Y-64516000D03*
D48*
X64008000Y-64516000D03*
X66548000Y-64516000D03*
D49*
X70000000Y-50500000D03*
D22*
X60706000Y-103112000D03*
X60706000Y-101612000D03*
D25*
X108470000Y-75946000D03*
X109970000Y-75946000D03*
D22*
X71755000Y-104382000D03*
X71755000Y-102882000D03*
D25*
X66548000Y-92964000D03*
X68048000Y-92964000D03*
X63996000Y-61722000D03*
X62496000Y-61722000D03*
X88670000Y-56388000D03*
X90170000Y-56388000D03*
X106922000Y-38862000D03*
X105422000Y-38862000D03*
D22*
X104140000Y-60730000D03*
X104140000Y-62230000D03*
X64516000Y-112510000D03*
X64516000Y-111010000D03*
X67564000Y-112510000D03*
X67564000Y-111010000D03*
D25*
X87769000Y-104521000D03*
X89269000Y-104521000D03*
D22*
X105918000Y-86372000D03*
X105918000Y-87872000D03*
X105410000Y-109867000D03*
X105410000Y-111367000D03*
X70612000Y-112510000D03*
X70612000Y-111010000D03*
X61468000Y-112510000D03*
X61468000Y-111010000D03*
D17*
X150932000Y-89154000D03*
X150932000Y-87884000D03*
X150932000Y-86614000D03*
X154432000Y-86614000D03*
X154432000Y-89154000D03*
X150876000Y-124714000D03*
X150876000Y-123444000D03*
X150876000Y-122174000D03*
X154376000Y-122174000D03*
X154376000Y-124714000D03*
D50*
X137668000Y-59065160D03*
X137668000Y-63362840D03*
D51*
X133288000Y-53086000D03*
X131888000Y-53086000D03*
D52*
X161798000Y-96458000D03*
X161798000Y-95058000D03*
X160528000Y-37530000D03*
X160528000Y-36130000D03*
X143764000Y-111568000D03*
X143764000Y-112968000D03*
X156972000Y-55688000D03*
X156972000Y-57088000D03*
X156756000Y-91882000D03*
X156756000Y-90482000D03*
D51*
X170880000Y-102108000D03*
X169480000Y-102108000D03*
D52*
X157480000Y-121982000D03*
X157480000Y-123382000D03*
D23*
X103444000Y-48768000D03*
X105344000Y-48768000D03*
X104394000Y-46769020D03*
X103444000Y-97520760D03*
X105344000Y-97520760D03*
X104394000Y-95521780D03*
D53*
X104201000Y-115558000D03*
X104201000Y-115058000D03*
X104201000Y-114558000D03*
X104201000Y-114058000D03*
X102301000Y-114058000D03*
X102301000Y-114558000D03*
X102301000Y-115058000D03*
X102301000Y-115558000D03*
D54*
X103251000Y-114368000D03*
X103251000Y-115248000D03*
D53*
X107249000Y-91936000D03*
X107249000Y-91436000D03*
X107249000Y-90936000D03*
X107249000Y-90436000D03*
X105349000Y-90436000D03*
X105349000Y-90936000D03*
X105349000Y-91436000D03*
X105349000Y-91936000D03*
D54*
X106299000Y-90746000D03*
X106299000Y-91626000D03*
D53*
X88585000Y-101426000D03*
X88585000Y-101926000D03*
X88585000Y-102426000D03*
X88585000Y-102926000D03*
X90485000Y-102926000D03*
X90485000Y-102426000D03*
X90485000Y-101926000D03*
X90485000Y-101426000D03*
D54*
X89535000Y-102616000D03*
X89535000Y-101736000D03*
D53*
X104074000Y-66790000D03*
X104074000Y-66290000D03*
X104074000Y-65790000D03*
X104074000Y-65290000D03*
X102174000Y-65290000D03*
X102174000Y-65790000D03*
X102174000Y-66290000D03*
X102174000Y-66790000D03*
D54*
X103124000Y-65600000D03*
X103124000Y-66480000D03*
D53*
X88458000Y-52658000D03*
X88458000Y-53158000D03*
X88458000Y-53658000D03*
X88458000Y-54158000D03*
X90358000Y-54158000D03*
X90358000Y-53658000D03*
X90358000Y-53158000D03*
X90358000Y-52658000D03*
D54*
X89408000Y-53848000D03*
X89408000Y-52968000D03*
D53*
X107122000Y-43168000D03*
X107122000Y-42668000D03*
X107122000Y-42168000D03*
X107122000Y-41668000D03*
X105222000Y-41668000D03*
X105222000Y-42168000D03*
X105222000Y-42668000D03*
X105222000Y-43168000D03*
D54*
X106172000Y-41978000D03*
X106172000Y-42858000D03*
D50*
X144018000Y-75300840D03*
X144018000Y-71003160D03*
D55*
X146187160Y-80264000D03*
X150484840Y-80264000D03*
D52*
X156464000Y-51246000D03*
X156464000Y-49846000D03*
X157099000Y-102170000D03*
X157099000Y-103570000D03*
D47*
X81534000Y-68326000D03*
D48*
X84074000Y-68326000D03*
X86614000Y-68326000D03*
D47*
X76708000Y-108966000D03*
D48*
X79248000Y-108966000D03*
X81788000Y-108966000D03*
D56*
X61500000Y-70000000D03*
D57*
X64040000Y-70000000D03*
X61500000Y-72540000D03*
X64040000Y-72540000D03*
X61500000Y-75080000D03*
X64040000Y-75080000D03*
X61500000Y-77620000D03*
X64040000Y-77620000D03*
X61500000Y-80160000D03*
X64040000Y-80160000D03*
X61500000Y-82700000D03*
X64040000Y-82700000D03*
X61500000Y-85240000D03*
X64040000Y-85240000D03*
X61500000Y-87780000D03*
X64040000Y-87780000D03*
X61500000Y-90320000D03*
X64040000Y-90320000D03*
X61500000Y-92860000D03*
X64040000Y-92860000D03*
D25*
X78625000Y-62611000D03*
X80125000Y-62611000D03*
D22*
X76327000Y-118098000D03*
X76327000Y-116598000D03*
D17*
X150932000Y-49784000D03*
X150932000Y-48514000D03*
X150932000Y-47244000D03*
X154432000Y-47244000D03*
X154432000Y-49784000D03*
X150876000Y-103505000D03*
X150876000Y-102235000D03*
X150876000Y-100965000D03*
X154376000Y-100965000D03*
X154376000Y-103505000D03*
D23*
X86090760Y-72705000D03*
X86090760Y-70805000D03*
X84091780Y-71755000D03*
X80833000Y-112283240D03*
X78933000Y-112283240D03*
X79883000Y-114282220D03*
D19*
X148590000Y-61964000D03*
X148590000Y-60464000D03*
X149098000Y-70346000D03*
X149098000Y-68846000D03*
D22*
X165354000Y-66548000D03*
X165354000Y-65048000D03*
X148590000Y-65012000D03*
X148590000Y-63512000D03*
X165354000Y-74918000D03*
X165354000Y-73418000D03*
X149098000Y-73394000D03*
X149098000Y-71894000D03*
D29*
X150610000Y-62416000D03*
X150610000Y-63366000D03*
X150610000Y-64316000D03*
X152810000Y-64316000D03*
X152810000Y-62416000D03*
X152810000Y-63366000D03*
X151202000Y-71306000D03*
X151202000Y-72256000D03*
X151202000Y-73206000D03*
X153402000Y-73206000D03*
X153402000Y-71306000D03*
X153402000Y-72256000D03*
D47*
X162052000Y-64008000D03*
D48*
X159512000Y-64008000D03*
X156972000Y-64008000D03*
D47*
X162052000Y-73406000D03*
D48*
X159512000Y-73406000D03*
X156972000Y-73406000D03*
D58*
X151003000Y-110363000D03*
D59*
X151003000Y-112903000D03*
X151003000Y-115443000D03*
D58*
X157861000Y-110363000D03*
D59*
X157861000Y-112903000D03*
X157861000Y-115443000D03*
D60*
X162560000Y-49530000D03*
X160020000Y-46990000D03*
X165100000Y-46990000D03*
X165100000Y-52070000D03*
X160020000Y-52070000D03*
X163576000Y-123190000D03*
X161036000Y-120650000D03*
X166116000Y-120650000D03*
X166116000Y-125730000D03*
X161036000Y-125730000D03*
X162090000Y-89150000D03*
X159550000Y-86610000D03*
X164630000Y-86610000D03*
X164630000Y-91690000D03*
X159550000Y-91690000D03*
X162687000Y-103251000D03*
X160147000Y-100711000D03*
X165227000Y-100711000D03*
X165227000Y-105791000D03*
X160147000Y-105791000D03*
D11*
X110242000Y-107766000D03*
X110742000Y-107766000D03*
X111242000Y-107766000D03*
X111742000Y-107766000D03*
X112242000Y-107766000D03*
D12*
X113207000Y-106801000D03*
X113207000Y-106301000D03*
X113207000Y-105801000D03*
X113207000Y-105301000D03*
X113207000Y-104801000D03*
D11*
X112242000Y-103836000D03*
X111742000Y-103836000D03*
X111242000Y-103836000D03*
X110742000Y-103836000D03*
X110242000Y-103836000D03*
D12*
X109277000Y-104801000D03*
X109277000Y-105301000D03*
X109277000Y-105801000D03*
X109277000Y-106301000D03*
X109277000Y-106801000D03*
D13*
X111867000Y-105176000D03*
X110617000Y-105176000D03*
X111867000Y-106426000D03*
X110617000Y-106426000D03*
D61*
X99187000Y-63246000D03*
X114046000Y-105156000D03*
X60960000Y-96266000D03*
X106680000Y-107696000D03*
X114808000Y-58928000D03*
X122428000Y-82550000D03*
X103886000Y-36576000D03*
X88265000Y-99822000D03*
X104902000Y-68072000D03*
X104140000Y-85344000D03*
X92202000Y-59944000D03*
X119126000Y-117856000D03*
X92460724Y-108642590D03*
X88138000Y-51054000D03*
X107950000Y-93472000D03*
X100584000Y-60706000D03*
X108204000Y-58928000D03*
X113816576Y-56624932D03*
X111506000Y-54102000D03*
X107950000Y-44704000D03*
X104902000Y-116840000D03*
X99822000Y-110236000D03*
X115824000Y-106680000D03*
X111760000Y-102870000D03*
X137668000Y-65278000D03*
X149606000Y-101092000D03*
X149606000Y-86614000D03*
X150114000Y-93726000D03*
X123444000Y-96774000D03*
X121666000Y-96774000D03*
X68834000Y-92964000D03*
X149860000Y-47244000D03*
X149606000Y-122174000D03*
X149733000Y-54610000D03*
X72390000Y-101727000D03*
X82804000Y-62484000D03*
X81280000Y-64389000D03*
X86868000Y-72771000D03*
X86868000Y-70739000D03*
X125730000Y-42418000D03*
X122174000Y-42418000D03*
X106172000Y-48768000D03*
X102362000Y-48768000D03*
X105410000Y-96520000D03*
X102616000Y-97536000D03*
X72136000Y-112776000D03*
X60706000Y-100838000D03*
X110744000Y-75946000D03*
X94488000Y-57621821D03*
X94540492Y-58776632D03*
X86106000Y-110744000D03*
X61468000Y-61722000D03*
X80899000Y-111379000D03*
X78867000Y-111379000D03*
X64008000Y-98806000D03*
X61976000Y-98806000D03*
X121920000Y-83820000D03*
X127000000Y-88900000D03*
X124460000Y-88900000D03*
X124460000Y-91440000D03*
X127000000Y-91440000D03*
X127000000Y-93980000D03*
X124460000Y-93980000D03*
X121920000Y-93980000D03*
X121920000Y-91440000D03*
X121920000Y-88900000D03*
X121920000Y-86360000D03*
X124460000Y-86360000D03*
X124460000Y-83820000D03*
X126746000Y-78994000D03*
X126746000Y-77978000D03*
X121158000Y-76962000D03*
X121158000Y-78740000D03*
X121158000Y-77978000D03*
X125476000Y-78994000D03*
X125476000Y-77978000D03*
X121412000Y-65532000D03*
X121412000Y-62230000D03*
X125984000Y-69850000D03*
X125984000Y-72136000D03*
X82138642Y-48616776D03*
X86912985Y-48444590D03*
X92301709Y-48444590D03*
X115062000Y-104394000D03*
X119888000Y-121920000D03*
X126238000Y-81534000D03*
X120904000Y-82550000D03*
X123444000Y-46990000D03*
X127762000Y-76962000D03*
X127762000Y-75438000D03*
X123444000Y-73660000D03*
X131572000Y-61722000D03*
X131572000Y-59690000D03*
X124460000Y-62230000D03*
X123190000Y-116586000D03*
X130810000Y-116332000D03*
X82086985Y-97212590D03*
X92451276Y-97212590D03*
X87371276Y-97212590D03*
X102870000Y-68072000D03*
X107950000Y-108966000D03*
X118135000Y-53600000D03*
X118135000Y-59700000D03*
X96520000Y-60706000D03*
X120650000Y-116332000D03*
X69895000Y-104095000D03*
X104398724Y-103054590D03*
X107700724Y-95065410D03*
X90170000Y-117602000D03*
X99314000Y-86868000D03*
X115639410Y-89145548D03*
X99060000Y-38100000D03*
X104140000Y-76708000D03*
X93980000Y-122682000D03*
X104394000Y-125476000D03*
X105156000Y-118364000D03*
X91440000Y-99822000D03*
X94742000Y-96266000D03*
X102108000Y-96012000D03*
X115316000Y-98298000D03*
X81788000Y-117094000D03*
X77978000Y-124968000D03*
X80264000Y-124968000D03*
X84582000Y-116078000D03*
X94996000Y-111252000D03*
X96520000Y-109474000D03*
X99822000Y-121158000D03*
X99314000Y-119634000D03*
X99314000Y-117856000D03*
X103124000Y-116840000D03*
X103251000Y-115248000D03*
X103124000Y-111760000D03*
X103124000Y-110236000D03*
X109982000Y-119126000D03*
X116078000Y-114554000D03*
X116078000Y-113030000D03*
X116078000Y-111506000D03*
X116078000Y-109982000D03*
X107696000Y-105410000D03*
X107696000Y-98552000D03*
X105918000Y-98552000D03*
X104140000Y-98552000D03*
X94742000Y-107442000D03*
X94742000Y-105918000D03*
X94996000Y-100838000D03*
X87376000Y-100330000D03*
X106299000Y-91626000D03*
X106299000Y-90746000D03*
X103251000Y-114368000D03*
X110617000Y-106426000D03*
X111867000Y-106426000D03*
X111867000Y-105176000D03*
X110617000Y-105176000D03*
X89535000Y-102616000D03*
X89535000Y-101736000D03*
X104902000Y-93472000D03*
X101600000Y-86360000D03*
X101600000Y-87884000D03*
X92960000Y-83820000D03*
X73920000Y-108960000D03*
X73920000Y-114960000D03*
X73920000Y-120960000D03*
X73920000Y-126280000D03*
X73920000Y-128000000D03*
X75640000Y-128000000D03*
X80960000Y-128000000D03*
X86960000Y-128000000D03*
X92960000Y-128000000D03*
X99060000Y-128000000D03*
X105060000Y-128000000D03*
X111060000Y-128000000D03*
X116380000Y-128000000D03*
X118100000Y-128000000D03*
X118100000Y-126280000D03*
X118100000Y-120960000D03*
X118100000Y-114960000D03*
X118100000Y-108960000D03*
X118100000Y-102860000D03*
X118100000Y-96860000D03*
X118100000Y-90860000D03*
X123530660Y-78152832D03*
X123530660Y-78927832D03*
X122290660Y-78927832D03*
X122290660Y-78152832D03*
X118100000Y-85540000D03*
X118100000Y-83820000D03*
X116380000Y-83820000D03*
X111060000Y-83820000D03*
X105060000Y-83820000D03*
X99060000Y-83820000D03*
X73920000Y-102860000D03*
X73920000Y-96860000D03*
X73920000Y-90860000D03*
X73920000Y-85540000D03*
X73920000Y-83820000D03*
X75640000Y-83820000D03*
X80960000Y-83820000D03*
X86960000Y-83820000D03*
X87122000Y-84836000D03*
X76962000Y-84836000D03*
X82042000Y-84836000D03*
X77724000Y-101854000D03*
X77724000Y-98806000D03*
X118135000Y-47600000D03*
X118135000Y-41600000D03*
X118135000Y-36280000D03*
X118135000Y-34560000D03*
X116415000Y-34560000D03*
X111095000Y-34560000D03*
X105095000Y-34560000D03*
X99095000Y-34560000D03*
X92995000Y-34560000D03*
X86995000Y-34560000D03*
X80995000Y-34560000D03*
X75675000Y-34560000D03*
X73955000Y-34560000D03*
X73955000Y-36280000D03*
X73955000Y-41600000D03*
X73955000Y-47600000D03*
X73955000Y-53600000D03*
X73955000Y-59700000D03*
X73955000Y-65700000D03*
X73955000Y-71700000D03*
X73955000Y-77020000D03*
X73955000Y-78740000D03*
X75675000Y-78740000D03*
X80995000Y-78740000D03*
X86995000Y-78740000D03*
X92995000Y-78740000D03*
X99095000Y-78740000D03*
X105095000Y-78740000D03*
X111095000Y-78740000D03*
X116415000Y-78740000D03*
X118135000Y-78740000D03*
X118135000Y-77020000D03*
X118135000Y-71700000D03*
X118135000Y-65700000D03*
X116078000Y-61214000D03*
X116078000Y-62738000D03*
X116078000Y-64262000D03*
X116078000Y-65786000D03*
X107188000Y-60960000D03*
X89916000Y-68834000D03*
X103124000Y-66480000D03*
X103124000Y-65600000D03*
X114808000Y-55626000D03*
X107442000Y-56642000D03*
X106680000Y-47244000D03*
X106172000Y-42858000D03*
X106172000Y-41978000D03*
X102108000Y-47244000D03*
X98044000Y-47752000D03*
X110490000Y-57658000D03*
X111740000Y-57658000D03*
X111740000Y-56408000D03*
X110490000Y-56408000D03*
X89408000Y-53848000D03*
X89408000Y-52968000D03*
X77978000Y-76200000D03*
X80264000Y-76200000D03*
X85852000Y-61722000D03*
X94742000Y-62738000D03*
X99314000Y-69088000D03*
X99314000Y-70866000D03*
X98044000Y-72644000D03*
X93726000Y-73914000D03*
X102870000Y-62992000D03*
X102870000Y-61468000D03*
X104902000Y-69596000D03*
X109728000Y-70612000D03*
X104140000Y-54356000D03*
X107696000Y-49784000D03*
X105664000Y-49784000D03*
X104140000Y-49784000D03*
X104140000Y-49784000D03*
X91186000Y-51054000D03*
X76962000Y-35814000D03*
X82042000Y-35814000D03*
X87122000Y-35814000D03*
X115316000Y-40132000D03*
X115316000Y-49530000D03*
X104648000Y-44704000D03*
X101346000Y-39116000D03*
X101346000Y-37592000D03*
X95758000Y-51308000D03*
X87376000Y-51562000D03*
X77470000Y-53086000D03*
X78232000Y-49276000D03*
X121910660Y-76200000D03*
X124714000Y-80010000D03*
X100584000Y-54102000D03*
X72644000Y-65024000D03*
X80772000Y-57658000D03*
X66548000Y-104648000D03*
X66548000Y-107188000D03*
X71120000Y-64008000D03*
X82296000Y-49784000D03*
X98552000Y-55372000D03*
X112776000Y-42672000D03*
X92710000Y-110617000D03*
X69088000Y-83566000D03*
X70612000Y-79248000D03*
X72898000Y-81534000D03*
X93004772Y-81210590D03*
X91694000Y-62738000D03*
X92456000Y-67564000D03*
X92964000Y-71120000D03*
X70288590Y-80956590D03*
X74462664Y-80656591D03*
X106934000Y-104648000D03*
X91440000Y-109220000D03*
X87630000Y-110490000D03*
X112776000Y-80772000D03*
X87376000Y-61722000D03*
X112268000Y-50038000D03*
X112268000Y-98298000D03*
X97794724Y-82365410D03*
X107696000Y-64262000D03*
X97790000Y-74168000D03*
X70612000Y-77724000D03*
X67310000Y-104140000D03*
X67564000Y-107188000D03*
X72713401Y-82550000D03*
X107188000Y-75184000D03*
X104902000Y-82042000D03*
X113538000Y-59182000D03*
X70612000Y-71120000D03*
X115570000Y-59944000D03*
X70866000Y-67818000D03*
X112522000Y-60520000D03*
X113099402Y-61934054D03*
X113002709Y-110970709D03*
X70866000Y-68580000D03*
X112268000Y-112014000D03*
X112522000Y-63630000D03*
X90932000Y-105156000D03*
X94615000Y-104775000D03*
X68580000Y-104140000D03*
X70612000Y-107188000D03*
X70362724Y-75622590D03*
X72390000Y-99822000D03*
X81280000Y-98552000D03*
X75692000Y-98298000D03*
X63373000Y-128085410D03*
X64456196Y-103377593D03*
X105410000Y-108839000D03*
X96138704Y-128622947D03*
X97790000Y-122682000D03*
X62738000Y-101600000D03*
X61468000Y-107188000D03*
X63373000Y-128837823D03*
X63703848Y-103367826D03*
X68649410Y-82594985D03*
X70612000Y-76962000D03*
X107307998Y-128789077D03*
X107696000Y-123202000D03*
X72644000Y-70358000D03*
X72644000Y-74930000D03*
X70612000Y-70104000D03*
X113030000Y-109474000D03*
X61214000Y-128524000D03*
X70358000Y-74168000D03*
X70612000Y-73152000D03*
X60198000Y-128778000D03*
X65208590Y-103382724D03*
X127508000Y-119634000D03*
X122936000Y-119634000D03*
X65278000Y-129540000D03*
X68326000Y-128016000D03*
X68072000Y-98806000D03*
X160528000Y-38354000D03*
X171704000Y-102108000D03*
X142748000Y-111506000D03*
X149606000Y-60452000D03*
X149098000Y-67564000D03*
X154432000Y-72390000D03*
X162814000Y-96520000D03*
X142748000Y-95504000D03*
X157480000Y-121158000D03*
X156972000Y-54864000D03*
X156718000Y-92710000D03*
X134112000Y-53086000D03*
X157099000Y-101473000D03*
X155448000Y-101092000D03*
X155448000Y-95250000D03*
X155702000Y-86614000D03*
X153924000Y-63500000D03*
X155702000Y-122174000D03*
X155448000Y-47244000D03*
X156464000Y-52324000D03*
X155575000Y-54610000D03*
X123952000Y-106172000D03*
X123952000Y-104394000D03*
X130810000Y-106680000D03*
X129794000Y-106680000D03*
X130048000Y-53848000D03*
X124460000Y-110490000D03*
X150876000Y-69088000D03*
X128524000Y-101600000D03*
X128524000Y-97282000D03*
X130048000Y-111252000D03*
X131318000Y-34798000D03*
X125730000Y-111506000D03*
X127000000Y-112522000D03*
X141986000Y-113030000D03*
X123825000Y-129286000D03*
X90043000Y-124333000D03*
X121666000Y-38100000D03*
X123952000Y-128016000D03*
X121666000Y-103124000D03*
X133096000Y-66802000D03*
D62*
X99187000Y-63881000D02*
X99187000Y-63246000D01*
X99568000Y-64262000D02*
X99187000Y-63881000D01*
X99568000Y-64312000D02*
X99568000Y-64262000D01*
X100584000Y-64328000D02*
X99584000Y-64328000D01*
X99584000Y-64328000D02*
X99568000Y-64312000D01*
D63*
X113207000Y-105301000D02*
X113901000Y-105301000D01*
X113901000Y-105301000D02*
X114046000Y-105156000D01*
D62*
X88265000Y-99822000D02*
X89039000Y-99822000D01*
X61976000Y-96278000D02*
X60972000Y-96278000D01*
X60972000Y-96278000D02*
X60960000Y-96266000D01*
X64008000Y-96278000D02*
X61976000Y-96278000D01*
X64008000Y-96278000D02*
X64008000Y-95528000D01*
X64008000Y-95528000D02*
X64032000Y-95504000D01*
X64032000Y-95504000D02*
X65829000Y-95504000D01*
X65829000Y-95504000D02*
X65995000Y-95670000D01*
X65995000Y-95670000D02*
X65995000Y-96745000D01*
D63*
X107569000Y-107672000D02*
X106704000Y-107672000D01*
X106704000Y-107672000D02*
X106680000Y-107696000D01*
X114808000Y-57900000D02*
X114808000Y-58928000D01*
D62*
X122416000Y-81534000D02*
X122416000Y-82538000D01*
X122416000Y-82538000D02*
X122428000Y-82550000D01*
X122910660Y-80090332D02*
X122910660Y-80765332D01*
X122910660Y-80765332D02*
X122903992Y-80772000D01*
X122903992Y-80772000D02*
X122410660Y-80772000D01*
X122410660Y-80090332D02*
X122410660Y-80772000D01*
X122410660Y-80772000D02*
X122410660Y-81528660D01*
X121917328Y-80772000D02*
X122410660Y-80772000D01*
X121910660Y-80090332D02*
X121910660Y-80765332D01*
X121910660Y-80765332D02*
X121917328Y-80772000D01*
X122410660Y-81528660D02*
X122416000Y-81534000D01*
D63*
X121920000Y-116680000D02*
X121920000Y-117680000D01*
X122591402Y-116008598D02*
X121920000Y-116680000D01*
X123467154Y-116008598D02*
X122591402Y-116008598D01*
X123536556Y-116078000D02*
X123467154Y-116008598D01*
X128388000Y-116078000D02*
X123536556Y-116078000D01*
X129540000Y-117230000D02*
X128388000Y-116078000D01*
X129540000Y-117680000D02*
X129540000Y-117230000D01*
X129540000Y-117680000D02*
X129540000Y-120130000D01*
X129540000Y-120130000D02*
X129552000Y-120142000D01*
X103683500Y-37592000D02*
X103683500Y-36778500D01*
X103683500Y-36778500D02*
X103886000Y-36576000D01*
X104140000Y-68084000D02*
X104890000Y-68084000D01*
X104890000Y-68084000D02*
X104902000Y-68072000D01*
X103810500Y-86360000D02*
X103810500Y-85673500D01*
X103810500Y-85673500D02*
X104140000Y-85344000D01*
D62*
X92214000Y-58674000D02*
X92214000Y-59932000D01*
X92214000Y-59932000D02*
X92202000Y-59944000D01*
X119888000Y-117844000D02*
X119138000Y-117844000D01*
X119138000Y-117844000D02*
X119126000Y-117856000D01*
X119888000Y-119646000D02*
X119888000Y-117844000D01*
X121920000Y-117680000D02*
X121920000Y-118618000D01*
X121920000Y-118618000D02*
X120892000Y-119646000D01*
X120892000Y-119646000D02*
X119888000Y-119646000D01*
X66040000Y-96700000D02*
X65995000Y-96745000D01*
X92341000Y-107442000D02*
X92341000Y-108522866D01*
X92341000Y-108522866D02*
X92460724Y-108642590D01*
X88912000Y-51054000D02*
X88138000Y-51054000D01*
X107037000Y-93472000D02*
X107950000Y-93472000D01*
X100596000Y-61468000D02*
X100596000Y-60718000D01*
X100596000Y-60718000D02*
X100584000Y-60706000D01*
D63*
X107442000Y-58904000D02*
X108180000Y-58904000D01*
X108180000Y-58904000D02*
X108204000Y-58928000D01*
X113080000Y-56533000D02*
X113724644Y-56533000D01*
X113724644Y-56533000D02*
X113816576Y-56624932D01*
X111115000Y-55068000D02*
X111115000Y-54493000D01*
X111115000Y-54493000D02*
X111506000Y-54102000D01*
D62*
X106910000Y-44704000D02*
X107950000Y-44704000D01*
X104267000Y-116852000D02*
X104890000Y-116852000D01*
X104890000Y-116852000D02*
X104902000Y-116840000D01*
D63*
X104140000Y-115975000D02*
X104151000Y-115964000D01*
X104151000Y-115964000D02*
X104151000Y-115558000D01*
D62*
X104267000Y-116852000D02*
X104267000Y-116102000D01*
X104267000Y-116102000D02*
X104140000Y-115975000D01*
X100723000Y-110236000D02*
X99822000Y-110236000D01*
X100723000Y-111760000D02*
X100723000Y-110236000D01*
X100711000Y-113096000D02*
X100711000Y-111772000D01*
X100711000Y-111772000D02*
X100723000Y-111760000D01*
D63*
X110242000Y-107766000D02*
X107663000Y-107766000D01*
X107663000Y-107766000D02*
X107569000Y-107672000D01*
D62*
X114935000Y-106668000D02*
X115812000Y-106668000D01*
X115812000Y-106668000D02*
X115824000Y-106680000D01*
X114935000Y-106668000D02*
X114210000Y-106668000D01*
X114210000Y-106668000D02*
X114077000Y-106801000D01*
X114077000Y-106801000D02*
X113925000Y-106801000D01*
D63*
X113207000Y-106801000D02*
X113925000Y-106801000D01*
X111242000Y-103836000D02*
X111242000Y-103388000D01*
X111242000Y-103388000D02*
X111760000Y-102870000D01*
D62*
X92353000Y-105918000D02*
X92353000Y-107430000D01*
X92353000Y-107430000D02*
X92341000Y-107442000D01*
X92353000Y-105918000D02*
X92353000Y-104558000D01*
X92353000Y-104558000D02*
X92583000Y-104328000D01*
D63*
X88625000Y-100859000D02*
X88627000Y-100859000D01*
X88627000Y-100859000D02*
X89039000Y-100447000D01*
X89039000Y-100447000D02*
X89039000Y-99822000D01*
X88625000Y-101426000D02*
X88625000Y-100859000D01*
X107199000Y-91936000D02*
X107199000Y-92585000D01*
X107199000Y-92585000D02*
X107188000Y-92596000D01*
D62*
X107037000Y-93472000D02*
X107037000Y-92747000D01*
X107037000Y-92747000D02*
X107188000Y-92596000D01*
X103798500Y-87884000D02*
X103798500Y-89434500D01*
X103798500Y-89434500D02*
X103759000Y-89474000D01*
X103810500Y-86360000D02*
X103810500Y-87872000D01*
X103810500Y-87872000D02*
X103798500Y-87884000D01*
D63*
X104024000Y-66790000D02*
X104024000Y-67218000D01*
X104024000Y-67218000D02*
X104140000Y-67334000D01*
X113080000Y-58033000D02*
X114675000Y-58033000D01*
X114675000Y-58033000D02*
X114808000Y-57900000D01*
X110115000Y-58998000D02*
X110115000Y-59613000D01*
X107442000Y-59554000D02*
X107442000Y-58904000D01*
X110115000Y-59613000D02*
X110038000Y-59690000D01*
X110038000Y-59690000D02*
X107578000Y-59690000D01*
X107578000Y-59690000D02*
X107442000Y-59554000D01*
X88508000Y-52658000D02*
X88508000Y-52258000D01*
X88508000Y-52258000D02*
X88646000Y-52120000D01*
X88646000Y-52120000D02*
X88646000Y-52045000D01*
X107072000Y-43168000D02*
X107072000Y-43603002D01*
D62*
X100596000Y-61468000D02*
X100596000Y-62992000D01*
X100596000Y-64528000D02*
X100584000Y-64516000D01*
X100584000Y-64516000D02*
X100584000Y-64328000D01*
X100596000Y-62992000D02*
X100596000Y-64528000D01*
X104140000Y-68084000D02*
X104140000Y-67334000D01*
X92214000Y-58674000D02*
X92214000Y-57162000D01*
X92214000Y-57162000D02*
X92226000Y-57150000D01*
X92226000Y-57150000D02*
X92226000Y-55790000D01*
X92226000Y-55790000D02*
X92456000Y-55560000D01*
X88912000Y-51054000D02*
X88912000Y-51779000D01*
X88912000Y-51779000D02*
X88646000Y-52045000D01*
X106910000Y-44704000D02*
X106910000Y-43979000D01*
X106910000Y-43979000D02*
X107072000Y-43817000D01*
X107072000Y-43817000D02*
X107072000Y-43603002D01*
X103671500Y-39116000D02*
X103671500Y-40666500D01*
X103671500Y-40666500D02*
X103632000Y-40706000D01*
X103683500Y-37592000D02*
X103683500Y-39104000D01*
X103683500Y-39104000D02*
X103671500Y-39116000D01*
D64*
X137668000Y-63362840D02*
X137668000Y-65278000D01*
D62*
X150876000Y-100965000D02*
X149733000Y-100965000D01*
X149733000Y-100965000D02*
X149606000Y-101092000D01*
X150932000Y-86614000D02*
X149606000Y-86614000D01*
X150876000Y-95250000D02*
X150876000Y-94488000D01*
X150876000Y-94488000D02*
X150114000Y-93726000D01*
X123632000Y-97678240D02*
X123632000Y-96962000D01*
X123632000Y-96962000D02*
X123444000Y-96774000D01*
X121732000Y-97678240D02*
X121732000Y-96840000D01*
X121732000Y-96840000D02*
X121666000Y-96774000D01*
X68048000Y-92964000D02*
X68834000Y-92964000D01*
X150932000Y-47244000D02*
X149860000Y-47244000D01*
X150876000Y-122174000D02*
X149606000Y-122174000D01*
X150876000Y-54610000D02*
X149733000Y-54610000D01*
D63*
X71755000Y-102362000D02*
X72390000Y-101727000D01*
X71755000Y-102882000D02*
X71755000Y-102362000D01*
D62*
X83084000Y-61823000D02*
X82804000Y-62103000D01*
X82804000Y-62103000D02*
X82804000Y-62484000D01*
X83185000Y-61823000D02*
X83084000Y-61823000D01*
X84074000Y-61734000D02*
X83274000Y-61734000D01*
X83274000Y-61734000D02*
X83185000Y-61823000D01*
X82296000Y-64401000D02*
X81292000Y-64401000D01*
X81292000Y-64401000D02*
X81280000Y-64389000D01*
X86090760Y-72705000D02*
X86802000Y-72705000D01*
X86802000Y-72705000D02*
X86868000Y-72771000D01*
X86090760Y-70805000D02*
X86802000Y-70805000D01*
X86802000Y-70805000D02*
X86868000Y-70739000D01*
X124902000Y-42433240D02*
X125714760Y-42433240D01*
X125714760Y-42433240D02*
X125730000Y-42418000D01*
X123002000Y-42433240D02*
X122189240Y-42433240D01*
X122189240Y-42433240D02*
X122174000Y-42418000D01*
X105344000Y-48768000D02*
X106172000Y-48768000D01*
X103444000Y-48768000D02*
X102362000Y-48768000D01*
X105344000Y-97520760D02*
X105344000Y-96586000D01*
X105344000Y-96586000D02*
X105410000Y-96520000D01*
X103444000Y-97520760D02*
X102631240Y-97520760D01*
X102631240Y-97520760D02*
X102616000Y-97536000D01*
D63*
X70612000Y-112510000D02*
X71870000Y-112510000D01*
X71870000Y-112510000D02*
X72136000Y-112776000D01*
X67564000Y-112510000D02*
X70612000Y-112510000D01*
X64516000Y-112510000D02*
X67564000Y-112510000D01*
X61468000Y-112510000D02*
X64516000Y-112510000D01*
X60706000Y-101612000D02*
X60706000Y-100838000D01*
X109970000Y-75946000D02*
X110744000Y-75946000D01*
D62*
X94488000Y-57197557D02*
X94488000Y-57621821D01*
X94488000Y-57162000D02*
X94488000Y-57197557D01*
X94476000Y-57150000D02*
X94488000Y-57162000D01*
X93726000Y-57150000D02*
X94476000Y-57150000D01*
X94540492Y-58750492D02*
X94540492Y-58776632D01*
X93714000Y-58674000D02*
X94464000Y-58674000D01*
X94464000Y-58674000D02*
X94540492Y-58750492D01*
X86054500Y-110795500D02*
X86106000Y-110744000D01*
X86054500Y-111506000D02*
X86054500Y-110795500D01*
D63*
X62496000Y-61722000D02*
X61468000Y-61722000D01*
D62*
X80833000Y-112283240D02*
X80833000Y-111445000D01*
X80833000Y-111445000D02*
X80899000Y-111379000D01*
X78933000Y-112283240D02*
X78933000Y-111445000D01*
X78933000Y-111445000D02*
X78867000Y-111379000D01*
X64008000Y-97778000D02*
X64008000Y-98806000D01*
X61976000Y-97778000D02*
X61976000Y-98806000D01*
D63*
X127000000Y-88900000D02*
X124460000Y-88900000D01*
X124460000Y-88900000D02*
X121920000Y-86360000D01*
X121920000Y-86360000D02*
X121920000Y-83820000D01*
X124460000Y-91440000D02*
X124460000Y-88900000D01*
X127000000Y-93980000D02*
X127000000Y-91440000D01*
X121920000Y-93980000D02*
X124460000Y-93980000D01*
X121920000Y-88900000D02*
X121920000Y-91440000D01*
X124460000Y-86360000D02*
X121920000Y-86360000D01*
X126238000Y-81534000D02*
X126238000Y-82042000D01*
X126238000Y-82042000D02*
X124460000Y-83820000D01*
X125476000Y-77978000D02*
X126746000Y-77978000D01*
X122290660Y-78927832D02*
X121345832Y-78927832D01*
X121345832Y-78927832D02*
X121158000Y-78740000D01*
X123530660Y-78927832D02*
X125409832Y-78927832D01*
X125409832Y-78927832D02*
X125476000Y-78994000D01*
X123530660Y-78152832D02*
X125301168Y-78152832D01*
X125301168Y-78152832D02*
X125476000Y-77978000D01*
X124460000Y-62230000D02*
X121412000Y-62230000D01*
X127762000Y-75438000D02*
X127762000Y-73914000D01*
X127762000Y-73914000D02*
X125984000Y-72136000D01*
D62*
X82105500Y-46355000D02*
X82105500Y-48610000D01*
X82105500Y-48610000D02*
X82112276Y-48616776D01*
X87185500Y-46355000D02*
X86912985Y-46627515D01*
X86912985Y-46627515D02*
X86912985Y-48020326D01*
X82112276Y-48616776D02*
X82138642Y-48616776D01*
X86912985Y-48020326D02*
X86912985Y-48444590D01*
X92301709Y-48020326D02*
X92301709Y-48444590D01*
X92301709Y-46391209D02*
X92301709Y-48020326D01*
X92265500Y-46355000D02*
X92301709Y-46391209D01*
D63*
X114935000Y-105168000D02*
X114935000Y-104521000D01*
X114935000Y-104521000D02*
X115062000Y-104394000D01*
X119888000Y-121146000D02*
X119888000Y-121920000D01*
X125464000Y-81534000D02*
X126238000Y-81534000D01*
D62*
X120916000Y-81534000D02*
X120916000Y-82538000D01*
X120916000Y-82538000D02*
X120904000Y-82550000D01*
X124460000Y-47002700D02*
X123456700Y-47002700D01*
X123456700Y-47002700D02*
X123444000Y-46990000D01*
X126988000Y-76962000D02*
X127762000Y-76962000D01*
X126988000Y-75438000D02*
X127762000Y-75438000D01*
X123432000Y-74422000D02*
X123432000Y-73672000D01*
X123432000Y-73672000D02*
X123444000Y-73660000D01*
X131760000Y-62679240D02*
X131760000Y-61910000D01*
X131760000Y-61910000D02*
X131572000Y-61722000D01*
X131560000Y-60505000D02*
X131560000Y-59702000D01*
X131560000Y-59702000D02*
X131572000Y-59690000D01*
D64*
X124460000Y-59900820D02*
X124460000Y-62230000D01*
D62*
X123190000Y-117680000D02*
X123190000Y-116586000D01*
D63*
X130810000Y-117680000D02*
X130810000Y-116332000D01*
X130810000Y-119126000D02*
X131052000Y-119368000D01*
X131052000Y-119368000D02*
X131052000Y-120142000D01*
X130810000Y-117680000D02*
X130810000Y-119126000D01*
D62*
X82086985Y-96788326D02*
X82086985Y-97212590D01*
X82086985Y-95268515D02*
X82086985Y-96788326D01*
X82232500Y-95123000D02*
X82086985Y-95268515D01*
X87371276Y-96788326D02*
X87371276Y-97212590D01*
X87371276Y-95181776D02*
X87371276Y-96788326D01*
X87312500Y-95123000D02*
X87371276Y-95181776D01*
X92451276Y-95181776D02*
X92451276Y-96788326D01*
X92392500Y-95123000D02*
X92451276Y-95181776D01*
X92451276Y-96788326D02*
X92451276Y-97212590D01*
D63*
X102108000Y-68084000D02*
X102858000Y-68084000D01*
X102858000Y-68084000D02*
X102870000Y-68072000D01*
X108077000Y-109093000D02*
X107950000Y-108966000D01*
X108077000Y-109740000D02*
X108077000Y-109093000D01*
D62*
X96393000Y-61534000D02*
X96393000Y-60833000D01*
X96393000Y-60833000D02*
X96520000Y-60706000D01*
X119888000Y-116344000D02*
X120638000Y-116344000D01*
X120638000Y-116344000D02*
X120650000Y-116332000D01*
X69895000Y-102645000D02*
X69895000Y-104095000D01*
D63*
X104243000Y-102987000D02*
X104310590Y-103054590D01*
X104243000Y-102362000D02*
X104243000Y-102987000D01*
X104310590Y-103054590D02*
X104398724Y-103054590D01*
D62*
X107700724Y-95489674D02*
X107700724Y-95065410D01*
X107700724Y-95623724D02*
X107700724Y-95489674D01*
X107835000Y-95758000D02*
X107700724Y-95623724D01*
X90170000Y-116828000D02*
X90170000Y-117602000D01*
X98414500Y-86868000D02*
X99314000Y-86868000D01*
X115443000Y-89928000D02*
X115443000Y-89178000D01*
X115475452Y-89145548D02*
X115639410Y-89145548D01*
X115443000Y-89178000D02*
X115475452Y-89145548D01*
X98287500Y-38100000D02*
X99060000Y-38100000D01*
X104140000Y-75934000D02*
X104140000Y-76708000D01*
X94681000Y-122682000D02*
X93980000Y-122682000D01*
X104267000Y-124702000D02*
X104267000Y-125349000D01*
X104267000Y-125349000D02*
X104394000Y-125476000D01*
X104267000Y-118352000D02*
X105144000Y-118352000D01*
X105144000Y-118352000D02*
X105156000Y-118364000D01*
X90539000Y-99822000D02*
X91440000Y-99822000D01*
X96456500Y-96192000D02*
X94816000Y-96192000D01*
X94816000Y-96192000D02*
X94742000Y-96266000D01*
X101970500Y-94234000D02*
X101970500Y-95874500D01*
X101970500Y-95874500D02*
X102108000Y-96012000D01*
X114669000Y-98298000D02*
X115316000Y-98298000D01*
X81649000Y-118110000D02*
X81649000Y-117233000D01*
X81649000Y-117233000D02*
X81788000Y-117094000D01*
X78041500Y-123949500D02*
X78041500Y-124904500D01*
X78041500Y-124904500D02*
X77978000Y-124968000D01*
X80327500Y-123949500D02*
X80327500Y-124904500D01*
X80327500Y-124904500D02*
X80264000Y-124968000D01*
X84455000Y-115304000D02*
X84455000Y-115951000D01*
X84455000Y-115951000D02*
X84582000Y-116078000D01*
X94031500Y-111379000D02*
X94869000Y-111379000D01*
X94869000Y-111379000D02*
X94996000Y-111252000D01*
X96520000Y-110302000D02*
X96520000Y-109474000D01*
X98933000Y-121309000D02*
X99671000Y-121309000D01*
X99671000Y-121309000D02*
X99822000Y-121158000D01*
X98536760Y-119695000D02*
X99253000Y-119695000D01*
X99253000Y-119695000D02*
X99314000Y-119634000D01*
X98536760Y-117795000D02*
X99253000Y-117795000D01*
X99253000Y-117795000D02*
X99314000Y-117856000D01*
X102235000Y-116852000D02*
X103112000Y-116852000D01*
X103112000Y-116852000D02*
X103124000Y-116840000D01*
X102223000Y-111760000D02*
X103124000Y-111760000D01*
X102223000Y-110236000D02*
X103124000Y-110236000D01*
X109855000Y-118352000D02*
X109855000Y-118999000D01*
X109855000Y-118999000D02*
X109982000Y-119126000D01*
X115431000Y-114554000D02*
X116078000Y-114554000D01*
X115431000Y-113030000D02*
X116078000Y-113030000D01*
X115431000Y-111506000D02*
X116078000Y-111506000D01*
X115419000Y-109982000D02*
X116078000Y-109982000D01*
X107569000Y-106172000D02*
X107569000Y-105537000D01*
X107569000Y-105537000D02*
X107696000Y-105410000D01*
X107757000Y-99329240D02*
X107757000Y-98613000D01*
X107757000Y-98613000D02*
X107696000Y-98552000D01*
X105857000Y-99329240D02*
X105857000Y-98613000D01*
X105857000Y-98613000D02*
X105918000Y-98552000D01*
X104267000Y-99314000D02*
X104267000Y-98679000D01*
X104267000Y-98679000D02*
X104140000Y-98552000D01*
X93841000Y-107442000D02*
X94742000Y-107442000D01*
X93853000Y-105918000D02*
X94742000Y-105918000D01*
X95897000Y-100838000D02*
X94996000Y-100838000D01*
X86729000Y-100330000D02*
X87376000Y-100330000D01*
D63*
X102351000Y-115558000D02*
X102941000Y-115558000D01*
X102941000Y-115558000D02*
X103251000Y-115248000D01*
X102351000Y-114558000D02*
X103061000Y-114558000D01*
X103061000Y-114558000D02*
X103251000Y-114368000D01*
X104151000Y-114058000D02*
X103561000Y-114058000D01*
X103561000Y-114058000D02*
X103251000Y-114368000D01*
X104151000Y-114558000D02*
X103441000Y-114558000D01*
X103441000Y-114558000D02*
X103251000Y-114368000D01*
X110242000Y-103836000D02*
X110242000Y-104801000D01*
X110242000Y-104801000D02*
X110617000Y-105176000D01*
X112242000Y-103836000D02*
X112242000Y-104801000D01*
X112242000Y-104801000D02*
X111867000Y-105176000D01*
X111742000Y-103836000D02*
X111742000Y-105051000D01*
X111742000Y-105051000D02*
X111867000Y-105176000D01*
X113207000Y-104801000D02*
X112242000Y-104801000D01*
X113207000Y-105801000D02*
X112492000Y-105801000D01*
X112492000Y-105801000D02*
X111867000Y-106426000D01*
X113207000Y-106301000D02*
X111992000Y-106301000D01*
X111992000Y-106301000D02*
X111867000Y-106426000D01*
X109277000Y-106801000D02*
X110242000Y-106801000D01*
X110242000Y-106801000D02*
X110617000Y-106426000D01*
X109277000Y-104801000D02*
X110242000Y-104801000D01*
X109277000Y-105301000D02*
X110492000Y-105301000D01*
X110492000Y-105301000D02*
X110617000Y-105176000D01*
X109277000Y-105801000D02*
X109992000Y-105801000D01*
X109992000Y-105801000D02*
X110617000Y-106426000D01*
X109277000Y-106301000D02*
X110492000Y-106301000D01*
X110492000Y-106301000D02*
X110617000Y-106426000D01*
X88625000Y-102926000D02*
X89225000Y-102926000D01*
X89225000Y-102926000D02*
X89535000Y-102616000D01*
X88625000Y-102426000D02*
X89345000Y-102426000D01*
X89345000Y-102426000D02*
X89535000Y-102616000D01*
X90445000Y-101426000D02*
X89845000Y-101426000D01*
X89845000Y-101426000D02*
X89535000Y-101736000D01*
X90445000Y-102426000D02*
X89725000Y-102426000D01*
X89725000Y-102426000D02*
X89535000Y-102616000D01*
X107199000Y-90936000D02*
X106489000Y-90936000D01*
X106489000Y-90936000D02*
X106299000Y-90746000D01*
X107199000Y-90436000D02*
X106609000Y-90436000D01*
X106609000Y-90436000D02*
X106299000Y-90746000D01*
X105399000Y-90936000D02*
X106109000Y-90936000D01*
X106109000Y-90936000D02*
X106299000Y-90746000D01*
X105399000Y-91936000D02*
X105989000Y-91936000D01*
X105989000Y-91936000D02*
X106299000Y-91626000D01*
D62*
X105537000Y-93472000D02*
X104902000Y-93472000D01*
X102310500Y-86360000D02*
X101600000Y-86360000D01*
X102298500Y-87884000D02*
X101600000Y-87884000D01*
X87312500Y-86995000D02*
X87312500Y-85026500D01*
X87312500Y-85026500D02*
X87122000Y-84836000D01*
X77152500Y-86995000D02*
X77152500Y-85026500D01*
X77152500Y-85026500D02*
X76962000Y-84836000D01*
X82232500Y-86995000D02*
X82232500Y-85026500D01*
X82232500Y-85026500D02*
X82042000Y-84836000D01*
X78383000Y-101854000D02*
X77724000Y-101854000D01*
X78371000Y-98806000D02*
X77724000Y-98806000D01*
X115292000Y-61214000D02*
X116078000Y-61214000D01*
X115304000Y-62738000D02*
X116078000Y-62738000D01*
X115304000Y-64262000D02*
X116078000Y-64262000D01*
X115304000Y-65786000D02*
X116078000Y-65786000D01*
D63*
X104024000Y-65290000D02*
X103434000Y-65290000D01*
X103434000Y-65290000D02*
X103124000Y-65600000D01*
X104024000Y-65790000D02*
X103314000Y-65790000D01*
X103314000Y-65790000D02*
X103124000Y-65600000D01*
X102224000Y-65790000D02*
X102934000Y-65790000D01*
X102934000Y-65790000D02*
X103124000Y-65600000D01*
X102224000Y-66790000D02*
X102814000Y-66790000D01*
X102814000Y-66790000D02*
X103124000Y-66480000D01*
D62*
X107950000Y-60972000D02*
X107200000Y-60972000D01*
X107200000Y-60972000D02*
X107188000Y-60960000D01*
X90043000Y-68060000D02*
X90043000Y-68707000D01*
X90043000Y-68707000D02*
X89916000Y-68834000D01*
D63*
X114808000Y-56400000D02*
X114808000Y-55626000D01*
X107442000Y-57404000D02*
X107442000Y-56642000D01*
D62*
X107708000Y-46990000D02*
X106934000Y-46990000D01*
X106934000Y-46990000D02*
X106680000Y-47244000D01*
X101843500Y-45466000D02*
X101843500Y-46979500D01*
X101843500Y-46979500D02*
X102108000Y-47244000D01*
X96329500Y-47424000D02*
X97716000Y-47424000D01*
X97716000Y-47424000D02*
X98044000Y-47752000D01*
D63*
X105272000Y-43168000D02*
X105862000Y-43168000D01*
X105862000Y-43168000D02*
X106172000Y-42858000D01*
X107072000Y-41668000D02*
X106482000Y-41668000D01*
X106482000Y-41668000D02*
X106172000Y-41978000D01*
X107072000Y-42168000D02*
X106362000Y-42168000D01*
X106362000Y-42168000D02*
X106172000Y-41978000D01*
X105272000Y-42168000D02*
X105982000Y-42168000D01*
X105982000Y-42168000D02*
X106172000Y-41978000D01*
X110115000Y-55068000D02*
X110115000Y-56033000D01*
X110115000Y-56033000D02*
X110490000Y-56408000D01*
X111615000Y-55068000D02*
X111615000Y-56283000D01*
X111615000Y-56283000D02*
X111740000Y-56408000D01*
X112115000Y-55068000D02*
X112115000Y-56033000D01*
X112115000Y-56033000D02*
X111740000Y-56408000D01*
X113080000Y-56033000D02*
X112115000Y-56033000D01*
X113080000Y-57033000D02*
X112365000Y-57033000D01*
X112365000Y-57033000D02*
X111740000Y-56408000D01*
X113080000Y-57533000D02*
X111865000Y-57533000D01*
X111865000Y-57533000D02*
X111740000Y-57658000D01*
X113080000Y-57533000D02*
X110615000Y-57533000D01*
X110615000Y-57533000D02*
X110490000Y-57658000D01*
X109150000Y-58033000D02*
X110115000Y-58033000D01*
X110115000Y-58033000D02*
X110490000Y-57658000D01*
X109150000Y-57533000D02*
X110365000Y-57533000D01*
X110365000Y-57533000D02*
X110490000Y-57658000D01*
X109150000Y-57033000D02*
X109865000Y-57033000D01*
X109865000Y-57033000D02*
X110490000Y-56408000D01*
X109150000Y-56033000D02*
X110115000Y-56033000D01*
X109150000Y-56533000D02*
X110365000Y-56533000D01*
X110365000Y-56533000D02*
X110490000Y-56408000D01*
X111740000Y-56408000D02*
X111740000Y-57658000D01*
X90308000Y-52658000D02*
X89718000Y-52658000D01*
X89718000Y-52658000D02*
X89408000Y-52968000D01*
X89408000Y-53848000D02*
X89598000Y-53658000D01*
X89598000Y-53658000D02*
X90308000Y-53658000D01*
X88508000Y-54158000D02*
X89098000Y-54158000D01*
X89098000Y-54158000D02*
X89408000Y-53848000D01*
X88508000Y-53658000D02*
X89218000Y-53658000D01*
X89218000Y-53658000D02*
X89408000Y-53848000D01*
D62*
X77914500Y-75181500D02*
X77914500Y-76136500D01*
X77914500Y-76136500D02*
X77978000Y-76200000D01*
X80200500Y-75181500D02*
X80200500Y-76136500D01*
X80200500Y-76136500D02*
X80264000Y-76200000D01*
X85927500Y-62738000D02*
X85927500Y-61797500D01*
X85927500Y-61797500D02*
X85852000Y-61722000D01*
X93904500Y-62611000D02*
X94615000Y-62611000D01*
X94615000Y-62611000D02*
X94742000Y-62738000D01*
X98409760Y-69027000D02*
X99253000Y-69027000D01*
X99253000Y-69027000D02*
X99314000Y-69088000D01*
X98409760Y-70927000D02*
X99253000Y-70927000D01*
X99253000Y-70927000D02*
X99314000Y-70866000D01*
X98806000Y-72541000D02*
X98147000Y-72541000D01*
X98147000Y-72541000D02*
X98044000Y-72644000D01*
X94554000Y-73914000D02*
X93726000Y-73914000D01*
X102096000Y-62992000D02*
X102870000Y-62992000D01*
X102096000Y-61468000D02*
X102870000Y-61468000D01*
X104140000Y-69584000D02*
X104890000Y-69584000D01*
X104890000Y-69584000D02*
X104902000Y-69596000D01*
X109728000Y-69584000D02*
X109728000Y-70612000D01*
X104116000Y-53594000D02*
X104116000Y-54332000D01*
X104116000Y-54332000D02*
X104140000Y-54356000D01*
X107630000Y-50561240D02*
X107630000Y-49850000D01*
X107630000Y-49850000D02*
X107696000Y-49784000D01*
X105730000Y-50561240D02*
X105730000Y-49850000D01*
X105730000Y-49850000D02*
X105664000Y-49784000D01*
X104140000Y-50546000D02*
X104140000Y-49784000D01*
X90412000Y-51054000D02*
X91186000Y-51054000D01*
X77025500Y-38227000D02*
X77025500Y-35877500D01*
X77025500Y-35877500D02*
X76962000Y-35814000D01*
X82105500Y-38227000D02*
X82105500Y-35877500D01*
X82105500Y-35877500D02*
X82042000Y-35814000D01*
X87185500Y-38227000D02*
X87185500Y-35877500D01*
X87185500Y-35877500D02*
X87122000Y-35814000D01*
X115316000Y-41160000D02*
X115316000Y-40132000D01*
X114542000Y-49530000D02*
X115316000Y-49530000D01*
X105410000Y-44704000D02*
X104648000Y-44704000D01*
X102171500Y-39116000D02*
X101346000Y-39116000D01*
X102183500Y-37592000D02*
X101346000Y-37592000D01*
X95770000Y-52070000D02*
X95770000Y-51320000D01*
X95770000Y-51320000D02*
X95758000Y-51308000D01*
X86602000Y-51562000D02*
X87376000Y-51562000D01*
X78256000Y-53086000D02*
X77470000Y-53086000D01*
X78244000Y-50038000D02*
X78244000Y-49288000D01*
X78244000Y-49288000D02*
X78232000Y-49276000D01*
X93334500Y-47424000D02*
X92265500Y-46355000D01*
D63*
X123517328Y-80772000D02*
X123827000Y-80772000D01*
X123827000Y-80772000D02*
X123964000Y-80909000D01*
X123964000Y-80909000D02*
X123964000Y-81534000D01*
X123410660Y-80090332D02*
X123410660Y-80665332D01*
X123410660Y-80665332D02*
X123517328Y-80772000D01*
D62*
X123910660Y-76990332D02*
X123415480Y-76990332D01*
X125488000Y-76962000D02*
X123938992Y-76962000D01*
X123938992Y-76962000D02*
X123910660Y-76990332D01*
X123444000Y-75692000D02*
X122910660Y-76225340D01*
X122910660Y-76225340D02*
X122910660Y-76779817D01*
X122910660Y-76779817D02*
X122913070Y-76782227D01*
X122913070Y-76782227D02*
X122913070Y-76990332D01*
X124484000Y-75692000D02*
X123444000Y-75692000D01*
X125488000Y-75438000D02*
X124738000Y-75438000D01*
X124738000Y-75438000D02*
X124484000Y-75692000D01*
D64*
X129860000Y-59502000D02*
X129540000Y-59182000D01*
X133864220Y-57912000D02*
X130810000Y-57912000D01*
X130810000Y-57912000D02*
X129540000Y-59182000D01*
X129540000Y-59182000D02*
X127508000Y-57150000D01*
X137668000Y-59065160D02*
X135017380Y-59065160D01*
X135017380Y-59065160D02*
X133864220Y-57912000D01*
D62*
X124460000Y-51538000D02*
X124460000Y-54399180D01*
X121910660Y-76990332D02*
X121910660Y-76200000D01*
X121910660Y-76200000D02*
X121910660Y-74930000D01*
X123910660Y-80090332D02*
X124633668Y-80090332D01*
X124633668Y-80090332D02*
X124714000Y-80010000D01*
D64*
X121910660Y-73415340D02*
X121910660Y-68728530D01*
X121910660Y-68728530D02*
X127959950Y-62679240D01*
X127959950Y-62679240D02*
X129860000Y-62679240D01*
D62*
X121910660Y-74930000D02*
X121910660Y-74443340D01*
X121910660Y-74930000D02*
X121910660Y-73415340D01*
X121910660Y-74443340D02*
X121932000Y-74422000D01*
X122410660Y-76990332D02*
X121910660Y-76990332D01*
D64*
X129860000Y-62679240D02*
X129860000Y-60452000D01*
X129860000Y-60452000D02*
X129860000Y-59502000D01*
D62*
X130060000Y-60505000D02*
X129913000Y-60505000D01*
X129913000Y-60505000D02*
X129860000Y-60452000D01*
D64*
X127508000Y-57150000D02*
X127508000Y-55147080D01*
X126760100Y-54399180D02*
X124460000Y-54399180D01*
X127508000Y-55147080D02*
X126760100Y-54399180D01*
D63*
X79756000Y-53711000D02*
X82296000Y-56251000D01*
X82296000Y-56251000D02*
X82433000Y-56388000D01*
X80772000Y-57658000D02*
X81071999Y-57358001D01*
X81071999Y-57358001D02*
X81188999Y-57358001D01*
X81188999Y-57358001D02*
X82296000Y-56251000D01*
X79756000Y-53086000D02*
X79756000Y-53711000D01*
X82433000Y-56388000D02*
X83058000Y-56388000D01*
X81196000Y-52512000D02*
X81196000Y-52832000D01*
X79756000Y-53086000D02*
X80942000Y-53086000D01*
X80942000Y-53086000D02*
X81196000Y-52832000D01*
X88670000Y-56388000D02*
X83058000Y-56388000D01*
X101092000Y-53594000D02*
X100584000Y-54102000D01*
X72344001Y-65323999D02*
X72644000Y-65024000D01*
X72066599Y-65601401D02*
X72344001Y-65323999D01*
X66645000Y-102645000D02*
X66645000Y-101670000D01*
X66645000Y-101670000D02*
X68958178Y-99356822D01*
X68958178Y-99356822D02*
X70183368Y-99356822D01*
X72066599Y-97473591D02*
X72066599Y-65601401D01*
X70183368Y-99356822D02*
X72066599Y-97473591D01*
D62*
X101092000Y-53594000D02*
X100922000Y-53424000D01*
X100922000Y-53424000D02*
X100922000Y-53020000D01*
X102616000Y-53594000D02*
X101092000Y-53594000D01*
X80010000Y-53340000D02*
X79756000Y-53086000D01*
D63*
X90308000Y-53158000D02*
X91004000Y-53158000D01*
D62*
X92456000Y-53660000D02*
X94434000Y-53660000D01*
X94434000Y-53660000D02*
X94500000Y-53594000D01*
X91186000Y-53340000D02*
X91004000Y-53158000D01*
X91186000Y-53390000D02*
X91186000Y-53340000D01*
X92456000Y-53660000D02*
X91456000Y-53660000D01*
X91456000Y-53660000D02*
X91186000Y-53390000D01*
X96000000Y-53594000D02*
X96750000Y-53594000D01*
X96750000Y-53594000D02*
X97004000Y-53848000D01*
X97004000Y-53848000D02*
X98569000Y-53848000D01*
X98569000Y-53848000D02*
X98806000Y-53611000D01*
X98806000Y-53611000D02*
X98806000Y-53104000D01*
X98806000Y-53104000D02*
X98722000Y-53020000D01*
D63*
X87882999Y-53086000D02*
X87954999Y-53158000D01*
X87954999Y-53158000D02*
X88508000Y-53158000D01*
D62*
X86602000Y-53086000D02*
X87882999Y-53086000D01*
X84328000Y-53062000D02*
X84328000Y-52564000D01*
X84328000Y-52564000D02*
X84276000Y-52512000D01*
X84276000Y-52512000D02*
X83396000Y-52512000D01*
X85102000Y-53086000D02*
X84352000Y-53086000D01*
X84352000Y-53086000D02*
X84328000Y-53062000D01*
X106680000Y-52560220D02*
X109214220Y-52560220D01*
X109214220Y-52560220D02*
X109232000Y-52578000D01*
X105386000Y-52578000D02*
X105403780Y-52560220D01*
X105403780Y-52560220D02*
X106680000Y-52560220D01*
X104128000Y-52070000D02*
X104878000Y-52070000D01*
X104878000Y-52070000D02*
X105386000Y-52578000D01*
D63*
X110615000Y-54377998D02*
X110615000Y-55068000D01*
D62*
X110732000Y-53860000D02*
X110615000Y-53977000D01*
X110615000Y-53977000D02*
X110615000Y-54377998D01*
X110732000Y-52578000D02*
X110732000Y-53860000D01*
X100922000Y-52070000D02*
X102628000Y-52070000D01*
X97270000Y-52070000D02*
X98722000Y-52070000D01*
X83396000Y-51562000D02*
X85102000Y-51562000D01*
X92265500Y-38227000D02*
X95260500Y-38227000D01*
X95260500Y-38227000D02*
X95387500Y-38100000D01*
X95567500Y-41160000D02*
X95567500Y-38280000D01*
X95567500Y-38280000D02*
X95387500Y-38100000D01*
X95567500Y-42660000D02*
X97333500Y-42660000D01*
X97333500Y-42660000D02*
X97345500Y-42672000D01*
X95758000Y-43688000D02*
X95567500Y-43497500D01*
X95567500Y-43497500D02*
X95567500Y-42660000D01*
X96293500Y-43688000D02*
X95758000Y-43688000D01*
X96329500Y-44524000D02*
X96329500Y-43724000D01*
X96329500Y-43724000D02*
X96293500Y-43688000D01*
X98943500Y-45466000D02*
X98943500Y-42770000D01*
X98943500Y-42770000D02*
X98845500Y-42672000D01*
X100405500Y-42672000D02*
X98845500Y-42672000D01*
X103632000Y-44958000D02*
X104394000Y-45720000D01*
X104394000Y-45720000D02*
X104394000Y-46769020D01*
X103632000Y-42606000D02*
X103632000Y-44958000D01*
D63*
X105272000Y-42668000D02*
X103694000Y-42668000D01*
X103694000Y-42668000D02*
X103632000Y-42606000D01*
D62*
X103632000Y-42606000D02*
X101971500Y-42606000D01*
X101971500Y-42606000D02*
X101905500Y-42672000D01*
X109958000Y-42672000D02*
X110708000Y-42672000D01*
X110708000Y-42672000D02*
X110914000Y-42878000D01*
X110914000Y-45365000D02*
X110914000Y-46040000D01*
X110914000Y-42878000D02*
X110914000Y-45365000D01*
X109975780Y-42654220D02*
X109958000Y-42672000D01*
D63*
X107072000Y-42668000D02*
X107647002Y-42668000D01*
X107647002Y-42668000D02*
X107651002Y-42672000D01*
D62*
X108458000Y-42672000D02*
X107651002Y-42672000D01*
D63*
X66548000Y-104648000D02*
X66248001Y-104348001D01*
X66248001Y-104348001D02*
X65994001Y-104348001D01*
X65994001Y-104348001D02*
X65786000Y-104140000D01*
X64516000Y-107962700D02*
X65773300Y-107962700D01*
X65773300Y-107962700D02*
X66548000Y-107188000D01*
X66188411Y-101512684D02*
X68746684Y-98954411D01*
X71628000Y-97343095D02*
X71628000Y-78232000D01*
X70016684Y-98954411D02*
X71628000Y-97343095D01*
X68746684Y-98954411D02*
X70016684Y-98954411D01*
X66188411Y-101766684D02*
X66188411Y-101512684D01*
X65995000Y-102645000D02*
X65995000Y-101960095D01*
X65995000Y-101960095D02*
X66188411Y-101766684D01*
X65786000Y-104140000D02*
X65995000Y-103931000D01*
X65995000Y-103931000D02*
X65995000Y-102645000D01*
X61234000Y-104140000D02*
X65786000Y-104140000D01*
X60706000Y-103112000D02*
X60706000Y-103612000D01*
X60706000Y-103612000D02*
X61234000Y-104140000D01*
X70201402Y-78301402D02*
X71558598Y-78301402D01*
X70200000Y-78300000D02*
X70201402Y-78301402D01*
X71558598Y-78301402D02*
X71628000Y-78232000D01*
X69500000Y-78300000D02*
X70200000Y-78300000D01*
X71628000Y-78232000D02*
X71628000Y-64516000D01*
X71628000Y-64516000D02*
X71120000Y-64008000D01*
X100922000Y-51120000D02*
X100922000Y-50545000D01*
X100922000Y-50545000D02*
X99399000Y-49022000D01*
X99399000Y-49022000D02*
X82550000Y-49022000D01*
X82296000Y-49276000D02*
X82296000Y-49784000D01*
X82550000Y-49022000D02*
X82296000Y-49276000D01*
X82296000Y-49784000D02*
X81043000Y-49784000D01*
D62*
X101092000Y-50546000D02*
X100922000Y-50716000D01*
X100922000Y-50716000D02*
X100922000Y-51120000D01*
X102640000Y-50546000D02*
X101092000Y-50546000D01*
X100922000Y-51120000D02*
X100922000Y-50970000D01*
X81196000Y-50612000D02*
X81196000Y-49937000D01*
X79998000Y-49784000D02*
X79744000Y-50038000D01*
X81196000Y-49937000D02*
X81043000Y-49784000D01*
X81043000Y-49784000D02*
X79998000Y-49784000D01*
D65*
X79756000Y-51562000D02*
X81196000Y-51562000D01*
D62*
X76962000Y-51308000D02*
X77216000Y-51562000D01*
X77216000Y-51562000D02*
X78256000Y-51562000D01*
X76962000Y-48673500D02*
X76962000Y-51308000D01*
X77025500Y-46355000D02*
X77025500Y-48610000D01*
X77025500Y-48610000D02*
X76962000Y-48673500D01*
X84328000Y-50050000D02*
X84328000Y-50560000D01*
X84328000Y-50560000D02*
X84276000Y-50612000D01*
X84276000Y-50612000D02*
X83396000Y-50612000D01*
X85090000Y-50038000D02*
X84340000Y-50038000D01*
X84340000Y-50038000D02*
X84328000Y-50050000D01*
D63*
X98552000Y-55372000D02*
X98552000Y-56642000D01*
X98552000Y-56642000D02*
X93726000Y-61468000D01*
X93726000Y-61468000D02*
X92922500Y-61468000D01*
X92922500Y-61468000D02*
X92404500Y-61986000D01*
X92404500Y-61986000D02*
X92404500Y-62611000D01*
X113284000Y-42164000D02*
X113780000Y-42660000D01*
X109982000Y-38862000D02*
X113284000Y-42164000D01*
X113284000Y-42164000D02*
X112776000Y-42672000D01*
X113780000Y-42660000D02*
X115316000Y-42660000D01*
X106922000Y-38862000D02*
X109982000Y-38862000D01*
X115443000Y-91428000D02*
X114818000Y-91428000D01*
X114818000Y-91428000D02*
X113241000Y-93005000D01*
X113241000Y-93005000D02*
X113241000Y-94233000D01*
X113241000Y-94233000D02*
X113241000Y-94808000D01*
X107962000Y-86372000D02*
X108458000Y-86868000D01*
X108458000Y-86868000D02*
X108902500Y-86868000D01*
X105918000Y-86372000D02*
X107962000Y-86372000D01*
X63996000Y-61722000D02*
X63996000Y-64504000D01*
X63996000Y-64504000D02*
X64008000Y-64516000D01*
D62*
X92531500Y-111379000D02*
X92531500Y-110795500D01*
X92531500Y-110795500D02*
X92710000Y-110617000D01*
D63*
X69596000Y-94119000D02*
X69596000Y-84074000D01*
X69596000Y-84074000D02*
X69088000Y-83566000D01*
X67945000Y-96745000D02*
X67945000Y-95770000D01*
X67945000Y-95770000D02*
X69596000Y-94119000D01*
X69500000Y-79100000D02*
X70464000Y-79100000D01*
X70464000Y-79100000D02*
X70612000Y-79248000D01*
X92404500Y-62611000D02*
X92429500Y-62611000D01*
X92557097Y-81234001D02*
X92580508Y-81210590D01*
X72898000Y-81534000D02*
X73197999Y-81234001D01*
X92580508Y-81210590D02*
X93004772Y-81210590D01*
X73197999Y-81234001D02*
X92557097Y-81234001D01*
X93304771Y-80910591D02*
X93004772Y-81210590D01*
X108204000Y-84903500D02*
X108204000Y-82804000D01*
X98289684Y-81210590D02*
X97989685Y-80910591D01*
X108902500Y-86868000D02*
X108902500Y-85602000D01*
X97989685Y-80910591D02*
X93304771Y-80910591D01*
X108902500Y-85602000D02*
X108204000Y-84903500D01*
X108204000Y-82804000D02*
X106610590Y-81210590D01*
X106610590Y-81210590D02*
X98289684Y-81210590D01*
X92531500Y-111379000D02*
X92556500Y-111379000D01*
D62*
X90866000Y-62738000D02*
X91694000Y-62738000D01*
X91694000Y-62738000D02*
X92277500Y-62738000D01*
D63*
X92964000Y-71120000D02*
X92964000Y-68072000D01*
X92964000Y-68072000D02*
X92456000Y-67564000D01*
D62*
X108902500Y-86868000D02*
X110268500Y-86868000D01*
X115062000Y-87122000D02*
X116586000Y-88646000D01*
X110268500Y-86868000D02*
X110522500Y-87122000D01*
X110522500Y-87122000D02*
X115062000Y-87122000D01*
X116586000Y-88646000D02*
X116586000Y-91010000D01*
X116586000Y-91010000D02*
X116168000Y-91428000D01*
X116168000Y-91428000D02*
X115443000Y-91428000D01*
X92531500Y-111379000D02*
X91120000Y-111379000D01*
X91120000Y-111379000D02*
X90993000Y-111506000D01*
X92277500Y-62738000D02*
X92404500Y-62611000D01*
X114300000Y-44704000D02*
X115316000Y-43688000D01*
X115316000Y-43688000D02*
X115316000Y-42660000D01*
X114300000Y-45734000D02*
X114300000Y-44704000D01*
X113114000Y-46040000D02*
X113994000Y-46040000D01*
X113994000Y-46040000D02*
X114300000Y-45734000D01*
X110914000Y-46990000D02*
X109208000Y-46990000D01*
X114566000Y-46990000D02*
X113114000Y-46990000D01*
X129522220Y-44432220D02*
X129286000Y-44432220D01*
X129286000Y-44432220D02*
X124702050Y-44432220D01*
X150876000Y-57150000D02*
X143256000Y-57150000D01*
X143256000Y-57150000D02*
X130538220Y-44432220D01*
X130538220Y-44432220D02*
X129286000Y-44432220D01*
X124702050Y-44432220D02*
X123952000Y-44432220D01*
X121920000Y-44450000D02*
X117348000Y-44450000D01*
X121920000Y-44450000D02*
X121937780Y-44432220D01*
X122230000Y-44450000D02*
X121920000Y-44450000D01*
X121937780Y-44432220D02*
X123952000Y-44432220D01*
X117348000Y-44450000D02*
X116066000Y-45732000D01*
X116066000Y-45732000D02*
X116066000Y-46990000D01*
D63*
X69088000Y-95613000D02*
X70288590Y-94412410D01*
X70288590Y-94412410D02*
X70288590Y-80956590D01*
X84720591Y-80656591D02*
X74462664Y-80656591D01*
X84836000Y-80772000D02*
X84720591Y-80656591D01*
X69088000Y-95613000D02*
X68979000Y-95504000D01*
X69245000Y-95770000D02*
X69088000Y-95613000D01*
X69245000Y-96745000D02*
X69245000Y-95770000D01*
X68979000Y-95504000D02*
X68834000Y-95504000D01*
X68834000Y-95504000D02*
X68595000Y-95743000D01*
X68595000Y-95743000D02*
X68595000Y-96745000D01*
X112476001Y-80472001D02*
X112776000Y-80772000D01*
X92890246Y-80472001D02*
X112476001Y-80472001D01*
X92590247Y-80772000D02*
X92890246Y-80472001D01*
X84836000Y-80772000D02*
X92590247Y-80772000D01*
X106680000Y-104394000D02*
X106934000Y-104648000D01*
X103378000Y-104394000D02*
X106680000Y-104394000D01*
X99568000Y-108204000D02*
X103378000Y-104394000D01*
X95504000Y-108204000D02*
X99568000Y-108204000D01*
X94488000Y-109220000D02*
X95504000Y-108204000D01*
X91440000Y-109220000D02*
X94488000Y-109220000D01*
X87554500Y-111506000D02*
X87554500Y-110565500D01*
X87554500Y-110565500D02*
X87630000Y-110490000D01*
X87376000Y-62061500D02*
X87376000Y-61722000D01*
X87427500Y-62738000D02*
X87427500Y-62113000D01*
X87427500Y-62113000D02*
X87376000Y-62061500D01*
X112268000Y-49613736D02*
X112351736Y-49530000D01*
X112351736Y-49530000D02*
X113042000Y-49530000D01*
X112268000Y-50038000D02*
X112268000Y-49613736D01*
D62*
X113169000Y-98298000D02*
X112268000Y-98298000D01*
X89093000Y-111506000D02*
X87554500Y-111506000D01*
X113241000Y-96708000D02*
X113241000Y-98226000D01*
X113241000Y-98226000D02*
X113169000Y-98298000D01*
X88966000Y-62738000D02*
X87427500Y-62738000D01*
X113114000Y-47940000D02*
X113114000Y-49458000D01*
X113114000Y-49458000D02*
X113042000Y-49530000D01*
D63*
X104140000Y-60730000D02*
X104840000Y-60730000D01*
X104840000Y-60730000D02*
X106582000Y-62472000D01*
X106582000Y-62472000D02*
X107325000Y-62472000D01*
X107325000Y-62472000D02*
X107950000Y-62472000D01*
X73752545Y-82365410D02*
X97370460Y-82365410D01*
X97370460Y-82365410D02*
X97794724Y-82365410D01*
X72898001Y-83219954D02*
X73752545Y-82365410D01*
X67945000Y-101670000D02*
X69453356Y-100161644D01*
X72898001Y-97780379D02*
X72898001Y-83219954D01*
X70516736Y-100161644D02*
X72898001Y-97780379D01*
X67945000Y-102645000D02*
X67945000Y-101670000D01*
X69453356Y-100161644D02*
X70516736Y-100161644D01*
D62*
X108778000Y-64178000D02*
X107780000Y-64178000D01*
X107780000Y-64178000D02*
X107696000Y-64262000D01*
X97954000Y-74168000D02*
X97790000Y-74168000D01*
X98806000Y-74041000D02*
X98081000Y-74041000D01*
X98081000Y-74041000D02*
X97954000Y-74168000D01*
X107950000Y-62472000D02*
X108675000Y-62472000D01*
X108675000Y-62472000D02*
X108778000Y-62575000D01*
X108778000Y-62575000D02*
X108778000Y-64178000D01*
X98806000Y-74041000D02*
X99531000Y-74041000D01*
X99822000Y-73285000D02*
X99914000Y-73193000D01*
X99531000Y-74041000D02*
X99822000Y-73750000D01*
X99822000Y-73750000D02*
X99822000Y-73285000D01*
X99914000Y-73193000D02*
X100589000Y-73193000D01*
D63*
X102224000Y-66290000D02*
X101646000Y-66290000D01*
X101646000Y-66290000D02*
X101584000Y-66228000D01*
D62*
X100584000Y-66228000D02*
X101584000Y-66228000D01*
X100584000Y-66228000D02*
X100584000Y-67957000D01*
X100584000Y-67957000D02*
X100457000Y-68084000D01*
X100457000Y-69584000D02*
X100457000Y-70861000D01*
X100457000Y-70861000D02*
X100589000Y-70993000D01*
D63*
X104024000Y-66290000D02*
X104599002Y-66290000D01*
X104599002Y-66290000D02*
X104603002Y-66294000D01*
D62*
X105676000Y-66294000D02*
X104603002Y-66294000D01*
X108778000Y-66378000D02*
X107260000Y-66378000D01*
X107260000Y-66378000D02*
X107176000Y-66294000D01*
X96393000Y-65029000D02*
X93973000Y-65029000D01*
X93973000Y-65029000D02*
X93904500Y-64960500D01*
X96393000Y-65029000D02*
X96393000Y-63434000D01*
X92404500Y-64960500D02*
X90888500Y-64960500D01*
X90888500Y-64960500D02*
X90866000Y-64938000D01*
X101539000Y-73193000D02*
X101539000Y-75487000D01*
X101539000Y-75487000D02*
X101461000Y-75565000D01*
X96410780Y-69977000D02*
X96410780Y-66946780D01*
X96410780Y-66946780D02*
X96393000Y-66929000D01*
X96454000Y-73914000D02*
X96454000Y-70020220D01*
X96454000Y-70020220D02*
X96410780Y-69977000D01*
X96454000Y-73914000D02*
X96454000Y-74914000D01*
X96454000Y-74914000D02*
X97105000Y-75565000D01*
X97105000Y-75565000D02*
X99961000Y-75565000D01*
X101539000Y-70993000D02*
X101539000Y-69657000D01*
X101539000Y-69657000D02*
X101612000Y-69584000D01*
X101612000Y-69584000D02*
X102108000Y-69584000D01*
X109728000Y-66378000D02*
X109728000Y-68084000D01*
X109728000Y-62472000D02*
X109728000Y-64178000D01*
D63*
X110615000Y-58998000D02*
X110615000Y-59688002D01*
D62*
X110478000Y-60972000D02*
X110615000Y-60835000D01*
X110615000Y-60835000D02*
X110615000Y-59688002D01*
X109728000Y-60972000D02*
X110478000Y-60972000D01*
X89916000Y-62738000D02*
X89916000Y-61126500D01*
X77089000Y-56134000D02*
X80581500Y-59626500D01*
X70104000Y-56134000D02*
X77089000Y-56134000D01*
X54610000Y-40640000D02*
X70104000Y-56134000D01*
X48006000Y-40640000D02*
X54610000Y-40640000D01*
X80581500Y-59626500D02*
X89916000Y-59626500D01*
X89852500Y-59563000D02*
X89916000Y-59626500D01*
X89916000Y-64938000D02*
X89916000Y-66433000D01*
X89916000Y-66433000D02*
X90043000Y-66560000D01*
D63*
X72713401Y-82550000D02*
X73475401Y-81788000D01*
X73475401Y-81788000D02*
X104223736Y-81788000D01*
X104223736Y-81788000D02*
X104477736Y-82042000D01*
X104477736Y-82042000D02*
X104902000Y-82042000D01*
X72495590Y-82767811D02*
X72713401Y-82550000D01*
X69500000Y-77500000D02*
X70388000Y-77500000D01*
X70388000Y-77500000D02*
X70612000Y-77724000D01*
X67295000Y-102645000D02*
X67295000Y-104125000D01*
X67295000Y-104125000D02*
X67310000Y-104140000D01*
X67295000Y-101670000D02*
X67295000Y-102645000D01*
X67564000Y-107962700D02*
X67564000Y-107188000D01*
X108470000Y-75946000D02*
X107950000Y-75946000D01*
X107950000Y-75946000D02*
X107188000Y-75184000D01*
X72495590Y-97613695D02*
X72495590Y-82767811D01*
X70350052Y-99759233D02*
X72495590Y-97613695D01*
X69205767Y-99759233D02*
X70350052Y-99759233D01*
X67295000Y-101670000D02*
X69205767Y-99759233D01*
D62*
X110478000Y-74434000D02*
X107188000Y-74434000D01*
X107188000Y-74434000D02*
X104140000Y-74434000D01*
D63*
X107188000Y-75184000D02*
X107188000Y-74434000D01*
D62*
X113804000Y-65786000D02*
X113804000Y-66511000D01*
X113804000Y-66511000D02*
X113792000Y-66523000D01*
X113792000Y-66523000D02*
X113792000Y-71120000D01*
X113792000Y-71120000D02*
X110478000Y-74434000D01*
D63*
X110678000Y-64178000D02*
X111253000Y-64178000D01*
X111253000Y-64178000D02*
X112861000Y-65786000D01*
X112861000Y-65786000D02*
X113804000Y-65786000D01*
D62*
X102489000Y-73193000D02*
X102489000Y-74073000D01*
X102489000Y-74073000D02*
X102850000Y-74434000D01*
X102850000Y-74434000D02*
X104140000Y-74434000D01*
X110678000Y-66378000D02*
X111353000Y-66378000D01*
X111760000Y-66785000D02*
X111760000Y-68084000D01*
X111353000Y-66378000D02*
X111760000Y-66785000D01*
X105410000Y-71882000D02*
X104521000Y-70993000D01*
X104521000Y-70993000D02*
X102489000Y-70993000D01*
X110212000Y-71882000D02*
X105410000Y-71882000D01*
X111760000Y-69584000D02*
X111760000Y-70334000D01*
X111760000Y-70334000D02*
X110212000Y-71882000D01*
D63*
X112776000Y-59874000D02*
X113077000Y-59874000D01*
X113077000Y-59874000D02*
X113792000Y-60589000D01*
X113792000Y-60589000D02*
X113792000Y-61214000D01*
X112115000Y-59213000D02*
X112776000Y-59874000D01*
X113538000Y-59182000D02*
X113238001Y-59481999D01*
X113238001Y-59481999D02*
X113168001Y-59481999D01*
X113168001Y-59481999D02*
X112776000Y-59874000D01*
X112115000Y-58998000D02*
X112115000Y-59213000D01*
X69350000Y-70700000D02*
X70192000Y-70700000D01*
X70192000Y-70700000D02*
X70612000Y-71120000D01*
X70104000Y-68326000D02*
X70612000Y-67818000D01*
X70612000Y-67818000D02*
X70866000Y-67818000D01*
X69626000Y-68326000D02*
X70104000Y-68326000D01*
X69350000Y-68300000D02*
X69600000Y-68300000D01*
X69600000Y-68300000D02*
X69626000Y-68326000D01*
X111615000Y-59613000D02*
X112522000Y-60520000D01*
X112522000Y-60520000D02*
X113099402Y-61097402D01*
X113099402Y-62058402D02*
X113099402Y-61934054D01*
X113779000Y-62738000D02*
X113099402Y-62058402D01*
X113804000Y-62738000D02*
X113779000Y-62738000D01*
X113099402Y-61097402D02*
X113099402Y-61934054D01*
X111615000Y-58998000D02*
X111615000Y-59613000D01*
X113002709Y-110462709D02*
X113002709Y-110970709D01*
X111742000Y-107766000D02*
X111742000Y-109202000D01*
X113002709Y-111227709D02*
X113002709Y-110970709D01*
X113931000Y-111506000D02*
X113281000Y-111506000D01*
X113281000Y-111506000D02*
X113002709Y-111227709D01*
X111742000Y-109202000D02*
X113002709Y-110462709D01*
X69350000Y-69100000D02*
X70346000Y-69100000D01*
X70346000Y-69100000D02*
X70866000Y-68580000D01*
X112268000Y-61214000D02*
X112268000Y-62951736D01*
X112268000Y-112014000D02*
X112268000Y-112522000D01*
X112268000Y-110744000D02*
X112268000Y-112014000D01*
X112268000Y-112522000D02*
X112776000Y-113030000D01*
X112776000Y-113030000D02*
X113931000Y-113030000D01*
X111242000Y-109718000D02*
X112268000Y-110744000D01*
X111242000Y-107766000D02*
X111242000Y-109718000D01*
X112268000Y-62951736D02*
X112522000Y-63205736D01*
X112522000Y-63205736D02*
X112522000Y-63630000D01*
X111189988Y-60135988D02*
X112268000Y-61214000D01*
X111189988Y-59627988D02*
X111189988Y-60135988D01*
X111115000Y-59613000D02*
X111175000Y-59613000D01*
X111175000Y-59613000D02*
X111189988Y-59627988D01*
X111115000Y-59613000D02*
X111115000Y-58998000D01*
X113804000Y-64262000D02*
X113154000Y-64262000D01*
X113154000Y-64262000D02*
X112522000Y-63630000D01*
D62*
X85610000Y-64401000D02*
X85864000Y-64655000D01*
X85864000Y-64655000D02*
X85864000Y-65024000D01*
X84074000Y-64401000D02*
X85610000Y-64401000D01*
X84074000Y-64401000D02*
X84074000Y-63234000D01*
X87364000Y-65024000D02*
X88880000Y-65024000D01*
X88880000Y-65024000D02*
X88966000Y-64938000D01*
X91174000Y-75184000D02*
X92456000Y-75184000D01*
X92456000Y-75184000D02*
X92964000Y-75692000D01*
X92964000Y-75692000D02*
X92964000Y-76454000D01*
X116840000Y-54356000D02*
X114046000Y-51562000D01*
X92964000Y-76454000D02*
X93980000Y-77470000D01*
X93980000Y-77470000D02*
X111760000Y-77470000D01*
X111760000Y-77470000D02*
X116840000Y-72390000D01*
X116840000Y-72390000D02*
X116840000Y-54356000D01*
X114046000Y-51562000D02*
X112268000Y-51562000D01*
X112268000Y-51562000D02*
X110914000Y-50208000D01*
X110914000Y-50208000D02*
X110914000Y-47940000D01*
D63*
X88085000Y-105537000D02*
X90551000Y-105537000D01*
X90551000Y-105537000D02*
X90932000Y-105156000D01*
X87769000Y-104521000D02*
X87769000Y-105221000D01*
X87769000Y-105221000D02*
X88085000Y-105537000D01*
X86487000Y-104140000D02*
X86868000Y-104521000D01*
X86868000Y-104521000D02*
X87769000Y-104521000D01*
X85217000Y-104140000D02*
X79883000Y-104140000D01*
X85356000Y-104140000D02*
X85217000Y-104140000D01*
X85217000Y-104140000D02*
X86487000Y-104140000D01*
X99060000Y-104775000D02*
X94615000Y-104775000D01*
X101202000Y-102633000D02*
X99060000Y-104775000D01*
X101202000Y-102616000D02*
X101202000Y-102633000D01*
X80518000Y-101727000D02*
X80391000Y-101854000D01*
X80391000Y-101854000D02*
X79883000Y-101854000D01*
X80518000Y-101305000D02*
X80518000Y-101727000D01*
X81323000Y-101280000D02*
X80543000Y-101280000D01*
X80543000Y-101280000D02*
X80518000Y-101305000D01*
X79883000Y-104140000D02*
X78099322Y-104140000D01*
X79883000Y-101854000D02*
X79883000Y-104140000D01*
X74543322Y-100584000D02*
X77470000Y-103510678D01*
X78099322Y-104140000D02*
X77470000Y-103510678D01*
X77470000Y-103510678D02*
X77591322Y-103632000D01*
X70850104Y-100966466D02*
X71232570Y-100584000D01*
X71232570Y-100584000D02*
X74543322Y-100584000D01*
X69948534Y-100966466D02*
X70850104Y-100966466D01*
X69245000Y-101670000D02*
X69948534Y-100966466D01*
X69245000Y-102645000D02*
X69245000Y-101670000D01*
X79858000Y-101854000D02*
X79883000Y-101854000D01*
D62*
X101049000Y-101788000D02*
X101049000Y-102463000D01*
X101049000Y-102463000D02*
X101202000Y-102616000D01*
X101202000Y-102616000D02*
X102489000Y-102616000D01*
X102489000Y-102616000D02*
X102743000Y-102362000D01*
X79883000Y-101854000D02*
X80010000Y-101854000D01*
X94627000Y-102362000D02*
X92649000Y-102362000D01*
X92649000Y-102362000D02*
X92583000Y-102428000D01*
X90860000Y-101926000D02*
X91362000Y-102428000D01*
X91362000Y-102428000D02*
X92583000Y-102428000D01*
D63*
X90445000Y-101926000D02*
X90860000Y-101926000D01*
D62*
X96127000Y-102362000D02*
X96877000Y-102362000D01*
X96877000Y-102362000D02*
X97451000Y-101788000D01*
X97451000Y-101788000D02*
X98849000Y-101788000D01*
X86729000Y-101854000D02*
X88138000Y-101854000D01*
X88138000Y-101854000D02*
X88210000Y-101926000D01*
D63*
X88625000Y-101926000D02*
X88210000Y-101926000D01*
D62*
X84582000Y-101346000D02*
X84516000Y-101280000D01*
X84516000Y-101280000D02*
X83523000Y-101280000D01*
X84582000Y-101854000D02*
X84582000Y-101346000D01*
X85229000Y-101854000D02*
X84582000Y-101854000D01*
X106807000Y-101328220D02*
X109341220Y-101328220D01*
X109341220Y-101328220D02*
X109359000Y-101346000D01*
X104255000Y-100838000D02*
X105005000Y-100838000D01*
X105005000Y-100838000D02*
X105495220Y-101328220D01*
X105495220Y-101328220D02*
X106807000Y-101328220D01*
D63*
X110742000Y-103836000D02*
X110742000Y-103126000D01*
X110742000Y-103126000D02*
X110744000Y-103124000D01*
D62*
X110744000Y-102186000D02*
X110744000Y-103124000D01*
X110859000Y-101346000D02*
X110859000Y-102071000D01*
X110859000Y-102071000D02*
X110744000Y-102186000D01*
X102755000Y-100838000D02*
X101049000Y-100838000D01*
X97397000Y-100838000D02*
X98849000Y-100838000D01*
X85229000Y-100330000D02*
X83523000Y-100330000D01*
X92392500Y-86995000D02*
X95387500Y-86995000D01*
X95387500Y-86995000D02*
X95514500Y-86868000D01*
X95694500Y-89928000D02*
X95694500Y-87048000D01*
X95694500Y-87048000D02*
X95514500Y-86868000D01*
X92519500Y-86868000D02*
X92392500Y-86995000D01*
X95758000Y-92456000D02*
X95694500Y-92392500D01*
X95694500Y-92392500D02*
X95694500Y-91428000D01*
X96420500Y-92456000D02*
X95758000Y-92456000D01*
X96456500Y-93292000D02*
X96456500Y-92492000D01*
X96456500Y-92492000D02*
X96420500Y-92456000D01*
X95694500Y-91428000D02*
X97460500Y-91428000D01*
X97460500Y-91428000D02*
X97472500Y-91440000D01*
X98972500Y-91440000D02*
X98972500Y-94136000D01*
X98972500Y-94136000D02*
X99070500Y-94234000D01*
X100532500Y-91440000D02*
X98972500Y-91440000D01*
X103759000Y-94107000D02*
X104394000Y-94742000D01*
X104394000Y-94742000D02*
X104394000Y-95521780D01*
X103759000Y-91374000D02*
X103759000Y-94107000D01*
X103759000Y-91374000D02*
X102098500Y-91374000D01*
X102098500Y-91374000D02*
X102032500Y-91440000D01*
X103759000Y-91374000D02*
X104844000Y-91374000D01*
X104844000Y-91374000D02*
X104906000Y-91436000D01*
D63*
X105399000Y-91436000D02*
X104906000Y-91436000D01*
D62*
X111137000Y-93218000D02*
X110085000Y-92166000D01*
X110085000Y-92166000D02*
X110085000Y-91440000D01*
X110102780Y-91422220D02*
X110085000Y-91440000D01*
X111137000Y-93218000D02*
X111137000Y-94712000D01*
X111137000Y-94712000D02*
X111041000Y-94808000D01*
D63*
X107199000Y-91436000D02*
X107692000Y-91436000D01*
X107692000Y-91436000D02*
X107696000Y-91440000D01*
D62*
X108585000Y-91440000D02*
X107696000Y-91440000D01*
D63*
X71735000Y-104902000D02*
X69342000Y-104902000D01*
X69342000Y-104902000D02*
X68580000Y-104140000D01*
X71755000Y-104382000D02*
X71755000Y-104882000D01*
X71755000Y-104882000D02*
X71735000Y-104902000D01*
X68580000Y-104140000D02*
X68580000Y-102660000D01*
X68580000Y-102660000D02*
X68595000Y-102645000D01*
X70612000Y-107962700D02*
X70612000Y-107188000D01*
X68595000Y-101670000D02*
X69700945Y-100564055D01*
X68595000Y-102645000D02*
X68595000Y-101670000D01*
X71085831Y-100161644D02*
X71532736Y-100161644D01*
X69700945Y-100564055D02*
X70683420Y-100564055D01*
X71532736Y-100161644D02*
X72390000Y-100161644D01*
X70683420Y-100564055D02*
X71085831Y-100161644D01*
X70285314Y-75700000D02*
X70362724Y-75622590D01*
X69350000Y-75700000D02*
X70285314Y-75700000D01*
X72390000Y-100161644D02*
X73828356Y-100161644D01*
X72390000Y-99822000D02*
X72390000Y-100161644D01*
X99526000Y-97790000D02*
X82042000Y-97790000D01*
X82042000Y-97790000D02*
X81280000Y-98552000D01*
X101049000Y-99888000D02*
X101049000Y-99313000D01*
X101049000Y-99313000D02*
X99526000Y-97790000D01*
X73828356Y-100161644D02*
X75692000Y-98298000D01*
X81280000Y-98552000D02*
X81280000Y-99337000D01*
X81280000Y-99337000D02*
X81323000Y-99380000D01*
D62*
X102362000Y-99314000D02*
X102767000Y-99314000D01*
X101788000Y-99888000D02*
X102362000Y-99314000D01*
X101049000Y-99888000D02*
X101788000Y-99888000D01*
X81323000Y-99380000D02*
X80838000Y-99380000D01*
X80838000Y-99380000D02*
X80264000Y-98806000D01*
X80264000Y-98806000D02*
X79871000Y-98806000D01*
X79883000Y-100330000D02*
X81323000Y-100330000D01*
X76708000Y-100076000D02*
X76962000Y-100330000D01*
X76962000Y-100330000D02*
X78383000Y-100330000D01*
X76708000Y-96202500D02*
X76708000Y-100076000D01*
X77152500Y-95123000D02*
X77152500Y-95758000D01*
X77152500Y-95758000D02*
X76708000Y-96202500D01*
X85217000Y-98806000D02*
X84582000Y-98806000D01*
X84582000Y-98806000D02*
X84582000Y-99201000D01*
X84582000Y-99201000D02*
X84403000Y-99380000D01*
X84403000Y-99380000D02*
X83523000Y-99380000D01*
X83523000Y-99380000D02*
X84008000Y-99380000D01*
X111041000Y-95758000D02*
X109335000Y-95758000D01*
X113241000Y-95758000D02*
X114693000Y-95758000D01*
X116193000Y-95758000D02*
X116193000Y-98667000D01*
X116193000Y-98667000D02*
X117203220Y-99677220D01*
X117203220Y-99677220D02*
X122682000Y-99677220D01*
X132224780Y-99677220D02*
X134112000Y-97790000D01*
X134112000Y-97790000D02*
X150876000Y-97790000D01*
X122682000Y-99677220D02*
X132224780Y-99677220D01*
D63*
X95838705Y-128922946D02*
X66123852Y-128922946D01*
X65619317Y-128418411D02*
X65365316Y-128418411D01*
X96138704Y-128622947D02*
X95838705Y-128922946D01*
X66123852Y-128922946D02*
X65619317Y-128418411D01*
X65365316Y-128418411D02*
X65032315Y-128085410D01*
X65032315Y-128085410D02*
X63797264Y-128085410D01*
X63797264Y-128085410D02*
X63373000Y-128085410D01*
X64456196Y-102953329D02*
X64456196Y-103377593D01*
X67295000Y-97720000D02*
X64456196Y-100558804D01*
X67295000Y-96745000D02*
X67295000Y-97720000D01*
X64456196Y-100558804D02*
X64456196Y-102953329D01*
D62*
X105410000Y-109267000D02*
X105410000Y-108839000D01*
X105410000Y-109867000D02*
X105410000Y-109267000D01*
X106807000Y-110998000D02*
X107049000Y-111240000D01*
X107049000Y-111240000D02*
X108077000Y-111240000D01*
X106807000Y-110464000D02*
X106807000Y-110998000D01*
X105410000Y-109867000D02*
X106210000Y-109867000D01*
X106210000Y-109867000D02*
X106807000Y-110464000D01*
X97790000Y-122682000D02*
X98806000Y-122682000D01*
X98806000Y-122682000D02*
X98933000Y-122809000D01*
X108905000Y-112946000D02*
X108905000Y-112066000D01*
X108905000Y-112066000D02*
X108853000Y-112014000D01*
X108853000Y-112014000D02*
X108101000Y-112014000D01*
X108101000Y-112014000D02*
X108077000Y-111990000D01*
X108077000Y-111990000D02*
X108077000Y-111240000D01*
X100584000Y-122682000D02*
X100457000Y-122809000D01*
X100457000Y-122809000D02*
X98933000Y-122809000D01*
X100584000Y-122298000D02*
X100584000Y-122682000D01*
X100716000Y-121961000D02*
X100716000Y-122166000D01*
X100716000Y-122166000D02*
X100584000Y-122298000D01*
X100584000Y-116852000D02*
X100584000Y-115123000D01*
X100584000Y-115123000D02*
X100711000Y-114996000D01*
X101858000Y-115058000D02*
X101796000Y-114996000D01*
X101796000Y-114996000D02*
X100711000Y-114996000D01*
D63*
X102351000Y-115058000D02*
X101858000Y-115058000D01*
D62*
X100584000Y-118352000D02*
X100584000Y-119629000D01*
X100584000Y-119629000D02*
X100716000Y-119761000D01*
D63*
X104151000Y-115058000D02*
X104644000Y-115058000D01*
X104644000Y-115058000D02*
X104648000Y-115062000D01*
D62*
X105803000Y-115062000D02*
X104648000Y-115062000D01*
X107303000Y-115062000D02*
X108821000Y-115062000D01*
X108821000Y-115062000D02*
X108905000Y-115146000D01*
X96520000Y-113797000D02*
X94100000Y-113797000D01*
X94100000Y-113797000D02*
X94031500Y-113728500D01*
X96520000Y-113797000D02*
X96520000Y-112202000D01*
X92531500Y-113728500D02*
X91015500Y-113728500D01*
X91015500Y-113728500D02*
X90993000Y-113706000D01*
X101666000Y-123124000D02*
X101588000Y-123202000D01*
X101588000Y-123202000D02*
X101588000Y-124333000D01*
X101666000Y-121961000D02*
X101666000Y-123124000D01*
X96537780Y-118745000D02*
X96537780Y-115714780D01*
X96537780Y-115714780D02*
X96520000Y-115697000D01*
X96581000Y-122682000D02*
X96581000Y-118788220D01*
X96581000Y-118788220D02*
X96537780Y-118745000D01*
X97028000Y-124206000D02*
X96581000Y-123759000D01*
X96581000Y-123759000D02*
X96581000Y-122682000D01*
X99211000Y-124206000D02*
X97028000Y-124206000D01*
X100088000Y-124333000D02*
X99338000Y-124333000D01*
X99338000Y-124333000D02*
X99211000Y-124206000D01*
X101866000Y-118352000D02*
X101666000Y-118552000D01*
X101666000Y-118552000D02*
X101666000Y-119761000D01*
X102235000Y-118352000D02*
X101866000Y-118352000D01*
X109855000Y-115146000D02*
X109855000Y-116852000D01*
X109855000Y-111240000D02*
X109855000Y-112946000D01*
D63*
X110742000Y-107766000D02*
X110742000Y-108381000D01*
X110742000Y-108381000D02*
X110744000Y-108383000D01*
X110744000Y-108383000D02*
X110744000Y-108458000D01*
D62*
X110744000Y-109576000D02*
X110744000Y-108458000D01*
X109855000Y-109740000D02*
X110580000Y-109740000D01*
X110580000Y-109740000D02*
X110744000Y-109576000D01*
X90043000Y-111506000D02*
X90043000Y-109894500D01*
X47879000Y-105791000D02*
X85979000Y-105791000D01*
X90043000Y-108394500D02*
X89318000Y-108394500D01*
X89318000Y-108394500D02*
X86714500Y-105791000D01*
X86714500Y-105791000D02*
X85979000Y-105791000D01*
X90043000Y-113706000D02*
X90043000Y-115201000D01*
X90043000Y-115201000D02*
X90170000Y-115328000D01*
D63*
X66548000Y-92964000D02*
X66548000Y-92264000D01*
X66548000Y-92264000D02*
X66662395Y-92149605D01*
X66662395Y-92149605D02*
X66662395Y-84582000D01*
X63703848Y-100661152D02*
X63703848Y-101600000D01*
X63703848Y-101600000D02*
X63703848Y-102943562D01*
X62738000Y-101600000D02*
X63703848Y-101600000D01*
X61468000Y-107962700D02*
X61468000Y-107188000D01*
X107307998Y-128789077D02*
X106515719Y-129581356D01*
X106515719Y-129581356D02*
X66213166Y-129581356D01*
X66213166Y-129581356D02*
X65469633Y-128837823D01*
X65469633Y-128837823D02*
X63797264Y-128837823D01*
X63797264Y-128837823D02*
X63373000Y-128837823D01*
X66645000Y-97720000D02*
X63703848Y-100661152D01*
X63703848Y-102943562D02*
X63703848Y-103367826D01*
X66645000Y-96745000D02*
X66645000Y-97720000D01*
X68349411Y-82894984D02*
X68649410Y-82594985D01*
X66662395Y-84582000D02*
X68349411Y-82894984D01*
X66645000Y-95770000D02*
X66548000Y-95673000D01*
X66548000Y-95673000D02*
X66548000Y-92964000D01*
X70612000Y-76962000D02*
X71120000Y-76454000D01*
X71120000Y-76454000D02*
X71120000Y-75184000D01*
X71120000Y-75184000D02*
X70836000Y-74900000D01*
X70836000Y-74900000D02*
X69350000Y-74900000D01*
X66645000Y-96745000D02*
X66645000Y-95770000D01*
X110732000Y-123202000D02*
X107696000Y-123202000D01*
D62*
X110732000Y-123202000D02*
X113931000Y-120003000D01*
X113931000Y-120003000D02*
X113931000Y-114554000D01*
X104267000Y-123202000D02*
X110732000Y-123202000D01*
X104140000Y-122174000D02*
X103927000Y-121961000D01*
X103927000Y-121961000D02*
X102616000Y-121961000D01*
X104140000Y-123050000D02*
X104140000Y-122174000D01*
X104267000Y-123202000D02*
X104267000Y-123177000D01*
X104267000Y-123177000D02*
X104140000Y-123050000D01*
X110805000Y-112946000D02*
X111480000Y-112946000D01*
X111480000Y-112946000D02*
X113088000Y-114554000D01*
X113088000Y-114554000D02*
X113931000Y-114554000D01*
X110805000Y-115146000D02*
X111480000Y-115146000D01*
X111480000Y-115146000D02*
X111887000Y-115553000D01*
X111887000Y-115553000D02*
X111887000Y-116852000D01*
X108966000Y-120142000D02*
X108585000Y-119761000D01*
X108585000Y-119761000D02*
X102616000Y-119761000D01*
X110847000Y-120142000D02*
X108966000Y-120142000D01*
X111887000Y-118352000D02*
X111887000Y-119102000D01*
X111887000Y-119102000D02*
X110847000Y-120142000D01*
D63*
X69350000Y-69900000D02*
X70408000Y-69900000D01*
X70408000Y-69900000D02*
X70612000Y-70104000D01*
X72644000Y-74930000D02*
X72644000Y-70358000D01*
X112242000Y-107766000D02*
X112242000Y-108686000D01*
X112242000Y-108686000D02*
X113030000Y-109474000D01*
X113030000Y-109474000D02*
X113030000Y-109743000D01*
X113030000Y-109743000D02*
X113269000Y-109982000D01*
X113269000Y-109982000D02*
X113919000Y-109982000D01*
D62*
X84455000Y-113804000D02*
X82677000Y-113804000D01*
X85991000Y-113792000D02*
X84467000Y-113792000D01*
X84467000Y-113792000D02*
X84455000Y-113804000D01*
X87491000Y-113792000D02*
X89007000Y-113792000D01*
X89007000Y-113792000D02*
X89093000Y-113706000D01*
X91555000Y-119888000D02*
X92305000Y-119888000D01*
X92305000Y-119888000D02*
X92964000Y-120547000D01*
X111041000Y-98849000D02*
X111041000Y-96708000D01*
X92964000Y-120547000D02*
X92964000Y-124714000D01*
X110998000Y-126492000D02*
X116840000Y-120650000D01*
X92964000Y-124714000D02*
X94742000Y-126492000D01*
X112268000Y-100076000D02*
X111041000Y-98849000D01*
X94742000Y-126492000D02*
X110998000Y-126492000D01*
X116840000Y-120650000D02*
X116840000Y-103124000D01*
X116840000Y-103124000D02*
X113792000Y-100076000D01*
X113792000Y-100076000D02*
X112268000Y-100076000D01*
D64*
X146187160Y-80264000D02*
X142928000Y-80264000D01*
X168904860Y-81280000D02*
X165554860Y-81280000D01*
X165554860Y-81280000D02*
X163522860Y-83312000D01*
X163522860Y-83312000D02*
X146584540Y-83312000D01*
X146584540Y-83312000D02*
X146187160Y-82914620D01*
X146187160Y-82914620D02*
X146187160Y-80264000D01*
D62*
X124460000Y-48501300D02*
X124460000Y-50038000D01*
D63*
X139954000Y-93956000D02*
X139954000Y-95504000D01*
D64*
X140028000Y-80264000D02*
X137848000Y-80264000D01*
X134948000Y-80264000D02*
X132998000Y-80264000D01*
X132998000Y-80264000D02*
X130810000Y-78076000D01*
X130810000Y-78076000D02*
X130810000Y-64678220D01*
D63*
X63097589Y-130788589D02*
X61849000Y-129540000D01*
X61849000Y-129540000D02*
X61722000Y-129413000D01*
X61214000Y-128524000D02*
X61214000Y-128948264D01*
X61214000Y-128948264D02*
X61805736Y-129540000D01*
X61805736Y-129540000D02*
X61849000Y-129540000D01*
X69350000Y-74100000D02*
X70290000Y-74100000D01*
X70290000Y-74100000D02*
X70358000Y-74168000D01*
X125730000Y-117680000D02*
X125730000Y-118680000D01*
X124079000Y-124779906D02*
X118070317Y-130788589D01*
X118070317Y-130788589D02*
X63097589Y-130788589D01*
X125730000Y-118680000D02*
X124079000Y-120331000D01*
X124079000Y-120331000D02*
X124079000Y-124779906D01*
X70358000Y-73406000D02*
X70252000Y-73300000D01*
X70252000Y-73300000D02*
X69350000Y-73300000D01*
X70612000Y-73152000D02*
X70358000Y-73406000D01*
X60452000Y-129032000D02*
X60198000Y-128778000D01*
X60833000Y-129413000D02*
X60452000Y-129032000D01*
X60833000Y-129667000D02*
X60833000Y-129413000D01*
X62357000Y-131191000D02*
X60833000Y-129667000D01*
X62484000Y-131191000D02*
X62357000Y-131191000D01*
X108331000Y-131191000D02*
X62484000Y-131191000D01*
X118237000Y-131191000D02*
X108331000Y-131191000D01*
X124587000Y-124841000D02*
X118237000Y-131191000D01*
X124587000Y-121093000D02*
X124587000Y-124841000D01*
X127000000Y-117680000D02*
X127000000Y-118680000D01*
X127000000Y-118680000D02*
X124587000Y-121093000D01*
D62*
X171259500Y-67627500D02*
X171196000Y-67564000D01*
X171196000Y-67564000D02*
X162814000Y-59182000D01*
X175000000Y-67900000D02*
X171532000Y-67900000D01*
X171532000Y-67900000D02*
X171196000Y-67564000D01*
X138938000Y-55880000D02*
X131560000Y-55880000D01*
X162814000Y-59182000D02*
X142240000Y-59182000D01*
X142240000Y-59182000D02*
X138938000Y-55880000D01*
D63*
X69895000Y-97720000D02*
X69640401Y-97974599D01*
X68048847Y-97974599D02*
X65208590Y-100814856D01*
X69640401Y-97974599D02*
X68048847Y-97974599D01*
X69895000Y-96745000D02*
X69895000Y-97720000D01*
X65208590Y-102958460D02*
X65208590Y-103382724D01*
X65208590Y-100814856D02*
X65208590Y-102958460D01*
X117732139Y-129983767D02*
X122936000Y-124779906D01*
X122936000Y-124779906D02*
X122936000Y-120058264D01*
X122936000Y-120058264D02*
X122936000Y-119634000D01*
X65721767Y-129983767D02*
X117732139Y-129983767D01*
X65278000Y-129540000D02*
X65721767Y-129983767D01*
X127508000Y-119634000D02*
X128270000Y-118872000D01*
X128270000Y-118872000D02*
X128270000Y-117680000D01*
X68326000Y-128016000D02*
X65532000Y-128016000D01*
X65532000Y-128016000D02*
X65024000Y-127508000D01*
X62484000Y-127508000D02*
X62230000Y-127762000D01*
X65024000Y-127508000D02*
X62484000Y-127508000D01*
X62230000Y-127762000D02*
X62230000Y-128778000D01*
X62230000Y-128778000D02*
X62992000Y-129540000D01*
X62992000Y-129540000D02*
X63246000Y-129540000D01*
X68326000Y-98552000D02*
X68072000Y-98806000D01*
X69850000Y-98552000D02*
X68326000Y-98552000D01*
X71120000Y-97282000D02*
X69850000Y-98552000D01*
X71120000Y-80518000D02*
X71120000Y-97282000D01*
X70502000Y-79900000D02*
X71120000Y-80518000D01*
X69500000Y-79900000D02*
X70502000Y-79900000D01*
X63246000Y-129540000D02*
X63119000Y-129540000D01*
X63754000Y-129540000D02*
X63246000Y-129540000D01*
X117898822Y-130386178D02*
X64600178Y-130386178D01*
X64600178Y-130386178D02*
X63754000Y-129540000D01*
X124460000Y-118680000D02*
X123571000Y-119569000D01*
X124460000Y-117680000D02*
X124460000Y-118680000D01*
X123571000Y-124714000D02*
X117898822Y-130386178D01*
X123571000Y-119569000D02*
X123571000Y-124714000D01*
D62*
X75438000Y-62484000D02*
X76835000Y-63881000D01*
X76835000Y-63881000D02*
X78234500Y-65280500D01*
X78625000Y-62611000D02*
X78025000Y-62611000D01*
X78025000Y-62611000D02*
X76835000Y-63801000D01*
X76835000Y-63801000D02*
X76835000Y-63881000D01*
X78234500Y-65280500D02*
X78234500Y-71437500D01*
X70104000Y-62484000D02*
X75438000Y-62484000D01*
X63870000Y-56250000D02*
X70104000Y-62484000D01*
X48000000Y-56250000D02*
X63870000Y-56250000D01*
X78234500Y-71437500D02*
X78234500Y-72961500D01*
X78234500Y-72961500D02*
X77914500Y-73281500D01*
X78117000Y-71320000D02*
X78234500Y-71437500D01*
X48000000Y-121650000D02*
X48899999Y-120750001D01*
X48899999Y-120750001D02*
X54255999Y-120750001D01*
X54255999Y-120750001D02*
X60960000Y-114046000D01*
X69850000Y-114046000D02*
X73914000Y-118110000D01*
X73914000Y-118110000D02*
X74930000Y-118110000D01*
X74942000Y-118098000D02*
X76327000Y-118098000D01*
X60960000Y-114046000D02*
X69850000Y-114046000D01*
X74930000Y-118110000D02*
X74942000Y-118098000D01*
X77839000Y-118098000D02*
X78361500Y-118620500D01*
X78361500Y-118620500D02*
X78361500Y-120205500D01*
X76327000Y-118098000D02*
X77839000Y-118098000D01*
X78361500Y-120205500D02*
X78361500Y-121729500D01*
X78361500Y-121729500D02*
X78041500Y-122049500D01*
X98722000Y-50445000D02*
X98722000Y-51120000D01*
X98315000Y-50038000D02*
X98722000Y-50445000D01*
X86590000Y-50038000D02*
X98315000Y-50038000D01*
X86717000Y-98806000D02*
X98442000Y-98806000D01*
X98442000Y-98806000D02*
X98849000Y-99213000D01*
X98849000Y-99213000D02*
X98849000Y-99888000D01*
X160528000Y-37530000D02*
X160528000Y-38354000D01*
X170880000Y-102108000D02*
X171704000Y-102108000D01*
X143764000Y-111568000D02*
X142810000Y-111568000D01*
X142810000Y-111568000D02*
X142748000Y-111506000D01*
D63*
X148590000Y-60464000D02*
X149594000Y-60464000D01*
X149594000Y-60464000D02*
X149606000Y-60452000D01*
X149098000Y-68846000D02*
X149098000Y-67564000D01*
X153402000Y-72256000D02*
X154298000Y-72256000D01*
X154298000Y-72256000D02*
X154432000Y-72390000D01*
X161798000Y-96458000D02*
X162752000Y-96458000D01*
X162752000Y-96458000D02*
X162814000Y-96520000D01*
X141452600Y-95504000D02*
X142748000Y-95504000D01*
X157480000Y-121982000D02*
X157480000Y-121158000D01*
D62*
X156972000Y-55688000D02*
X156972000Y-54864000D01*
X156756000Y-91882000D02*
X156756000Y-92672000D01*
X156756000Y-92672000D02*
X156718000Y-92710000D01*
X133288000Y-53086000D02*
X134112000Y-53086000D01*
X157099000Y-102170000D02*
X157099000Y-101473000D01*
X154376000Y-100965000D02*
X155321000Y-100965000D01*
X155321000Y-100965000D02*
X155448000Y-101092000D01*
X154376000Y-95250000D02*
X155448000Y-95250000D01*
X154432000Y-86614000D02*
X155702000Y-86614000D01*
X152810000Y-63366000D02*
X153790000Y-63366000D01*
X153790000Y-63366000D02*
X153924000Y-63500000D01*
X154376000Y-122174000D02*
X155702000Y-122174000D01*
X154432000Y-47244000D02*
X155448000Y-47244000D01*
X156464000Y-51246000D02*
X156464000Y-52324000D01*
X154376000Y-54610000D02*
X155575000Y-54610000D01*
X123190000Y-106172000D02*
X123952000Y-106172000D01*
X123190000Y-104394000D02*
X123952000Y-104394000D01*
X130810000Y-108380000D02*
X130810000Y-106680000D01*
X129794000Y-107026000D02*
X129794000Y-106680000D01*
X129540000Y-108380000D02*
X129540000Y-107280000D01*
X129540000Y-107280000D02*
X129794000Y-107026000D01*
D63*
X123190000Y-106172000D02*
X123190000Y-104394000D01*
X123190000Y-108458000D02*
X123190000Y-108380000D01*
X123190000Y-106172000D02*
X123190000Y-108458000D01*
X64040000Y-70000000D02*
X65261314Y-70000000D01*
X65261314Y-70000000D02*
X66161314Y-69100000D01*
X66161314Y-69100000D02*
X67650000Y-69100000D01*
X66548000Y-71882000D02*
X65890000Y-72540000D01*
X65890000Y-72540000D02*
X64040000Y-72540000D01*
X66548000Y-71102000D02*
X66548000Y-71882000D01*
X67650000Y-70700000D02*
X66950000Y-70700000D01*
X66950000Y-70700000D02*
X66548000Y-71102000D01*
X64040000Y-75080000D02*
X65261314Y-75080000D01*
X65261314Y-75080000D02*
X66241314Y-74100000D01*
X66241314Y-74100000D02*
X66950000Y-74100000D01*
X66950000Y-74100000D02*
X67650000Y-74100000D01*
X66548000Y-76708000D02*
X65636000Y-77620000D01*
X65636000Y-77620000D02*
X64040000Y-77620000D01*
X66548000Y-76102000D02*
X66548000Y-76708000D01*
X67650000Y-75700000D02*
X66950000Y-75700000D01*
X66950000Y-75700000D02*
X66548000Y-76102000D01*
X64040000Y-80160000D02*
X65261314Y-80160000D01*
X65261314Y-80160000D02*
X65898000Y-79523314D01*
X65898000Y-79523314D02*
X65898000Y-79502000D01*
X67800000Y-78300000D02*
X67100000Y-78300000D01*
X67100000Y-78300000D02*
X65898000Y-79502000D01*
X67800000Y-79100000D02*
X67100000Y-79100000D01*
X67100000Y-79100000D02*
X64641001Y-81558999D01*
X64641001Y-81558999D02*
X62641001Y-81558999D01*
X62641001Y-81558999D02*
X61500000Y-82700000D01*
X56540000Y-88138000D02*
X58928000Y-85750000D01*
X58928000Y-85750000D02*
X58928000Y-84328000D01*
X58928000Y-84328000D02*
X60556000Y-82700000D01*
X60556000Y-82700000D02*
X61500000Y-82700000D01*
X65278000Y-73914000D02*
X65892000Y-73300000D01*
X65892000Y-73300000D02*
X67650000Y-73300000D01*
X62666000Y-73914000D02*
X65278000Y-73914000D01*
X61500000Y-75080000D02*
X62666000Y-73914000D01*
X54000000Y-78536800D02*
X58043200Y-78536800D01*
X58043200Y-78536800D02*
X61500000Y-75080000D01*
X61500000Y-77620000D02*
X62666000Y-76454000D01*
X62666000Y-76454000D02*
X65024000Y-76454000D01*
X65024000Y-76454000D02*
X66578000Y-74900000D01*
X66578000Y-74900000D02*
X67650000Y-74900000D01*
X54000000Y-81280000D02*
X57840000Y-81280000D01*
X57840000Y-81280000D02*
X61500000Y-77620000D01*
X65606000Y-78994000D02*
X62666000Y-78994000D01*
X62666000Y-78994000D02*
X61500000Y-80160000D01*
X67800000Y-77500000D02*
X67100000Y-77500000D01*
X67100000Y-77500000D02*
X65606000Y-78994000D01*
X54000000Y-84023200D02*
X57636800Y-84023200D01*
X57636800Y-84023200D02*
X61500000Y-80160000D01*
D62*
X130764001Y-53548001D02*
X131226002Y-53086000D01*
X131226002Y-53086000D02*
X131888000Y-53086000D01*
X130048000Y-53848000D02*
X130347999Y-53548001D01*
X130347999Y-53548001D02*
X130764001Y-53548001D01*
X130048000Y-53848000D02*
X130048000Y-55868000D01*
X130048000Y-55868000D02*
X130060000Y-55880000D01*
X124460000Y-108380000D02*
X124460000Y-110490000D01*
D63*
X161798000Y-95058000D02*
X161198000Y-95058000D01*
X161198000Y-95058000D02*
X161136000Y-94996000D01*
X164604000Y-94996000D02*
X161860000Y-94996000D01*
X161860000Y-94996000D02*
X161798000Y-95058000D01*
X161136000Y-94996000D02*
X156972000Y-94996000D01*
X164542000Y-95058000D02*
X164604000Y-94996000D01*
X151638000Y-62664000D02*
X151638000Y-68326000D01*
X151638000Y-68326000D02*
X150876000Y-69088000D01*
X150610000Y-62416000D02*
X151390000Y-62416000D01*
X151390000Y-62416000D02*
X151638000Y-62664000D01*
X151202000Y-71306000D02*
X151202000Y-69414000D01*
X151202000Y-69414000D02*
X150876000Y-69088000D01*
X128270000Y-108380000D02*
X128270000Y-101854000D01*
X128270000Y-101854000D02*
X128524000Y-101600000D01*
X133350000Y-92456000D02*
X128524000Y-97282000D01*
X139254000Y-92456000D02*
X133350000Y-92456000D01*
X139954000Y-92456000D02*
X139254000Y-92456000D01*
X154432000Y-92456000D02*
X139954000Y-92456000D01*
X156972000Y-94996000D02*
X154432000Y-92456000D01*
D62*
X128524000Y-109728000D02*
X130048000Y-111252000D01*
X128518000Y-109728000D02*
X128524000Y-109728000D01*
X128270000Y-108380000D02*
X128270000Y-109480000D01*
X128270000Y-109480000D02*
X128518000Y-109728000D01*
X160528000Y-36130000D02*
X162510000Y-36130000D01*
X162510000Y-36130000D02*
X162572000Y-36068000D01*
X137922000Y-34798000D02*
X152530000Y-34798000D01*
X152530000Y-34798000D02*
X153862000Y-36130000D01*
X153862000Y-36130000D02*
X160528000Y-36130000D01*
X137668000Y-34798000D02*
X137922000Y-34798000D01*
X137922000Y-34798000D02*
X131318000Y-34798000D01*
X125730000Y-111506000D02*
X125730000Y-108380000D01*
X127000000Y-112522000D02*
X127000000Y-110744000D01*
X127000000Y-110744000D02*
X127000000Y-108380000D01*
X143002000Y-113030000D02*
X141986000Y-113030000D01*
X143764000Y-112968000D02*
X143064000Y-112968000D01*
X143064000Y-112968000D02*
X143002000Y-113030000D01*
X143764000Y-112968000D02*
X145238000Y-112968000D01*
X145238000Y-112968000D02*
X145300000Y-113030000D01*
X127254000Y-95250000D02*
X133350000Y-89154000D01*
X133350000Y-89154000D02*
X149882000Y-89154000D01*
X120650000Y-95250000D02*
X127254000Y-95250000D01*
X88367000Y-76708000D02*
X88646000Y-76708000D01*
X88646000Y-76708000D02*
X89662000Y-77724000D01*
X87630000Y-76696000D02*
X88355000Y-76696000D01*
X88355000Y-76696000D02*
X88367000Y-76708000D01*
X89662000Y-78396322D02*
X89662000Y-77724000D01*
X116586000Y-79756000D02*
X91021678Y-79756000D01*
X91021678Y-79756000D02*
X89662000Y-78396322D01*
X119634000Y-82804000D02*
X116586000Y-79756000D01*
X119634000Y-94234000D02*
X119634000Y-82804000D01*
X120650000Y-95250000D02*
X119634000Y-94234000D01*
X150932000Y-89154000D02*
X149882000Y-89154000D01*
X87630000Y-75196000D02*
X89662000Y-75196000D01*
X89662000Y-75196000D02*
X89674000Y-75184000D01*
X80200500Y-73281500D02*
X81663500Y-73281500D01*
X81663500Y-73281500D02*
X83578000Y-75196000D01*
X83578000Y-75196000D02*
X87630000Y-75196000D01*
X80134500Y-71437500D02*
X80134500Y-73215500D01*
X80134500Y-73215500D02*
X80200500Y-73281500D01*
X149352000Y-124714000D02*
X149826000Y-124714000D01*
X144780000Y-129286000D02*
X149352000Y-124714000D01*
X123825000Y-129286000D02*
X144780000Y-129286000D01*
X150876000Y-124714000D02*
X149826000Y-124714000D01*
X90043000Y-123928000D02*
X90043000Y-124333000D01*
X90043000Y-123178000D02*
X90043000Y-123928000D01*
X80261500Y-120205500D02*
X84050000Y-120205500D01*
X84050000Y-120205500D02*
X84301500Y-119954000D01*
X84301500Y-119954000D02*
X87376000Y-119954000D01*
X80327500Y-122049500D02*
X80327500Y-120271500D01*
X80327500Y-120271500D02*
X80261500Y-120205500D01*
X90055000Y-119888000D02*
X90055000Y-121666000D01*
X90055000Y-121666000D02*
X90043000Y-121678000D01*
X88138000Y-119954000D02*
X87376000Y-119954000D01*
X87376000Y-119954000D02*
X87138000Y-119954000D01*
X88138000Y-119954000D02*
X89989000Y-119954000D01*
X89989000Y-119954000D02*
X90055000Y-119888000D01*
D63*
X64516000Y-109461300D02*
X64516000Y-111010000D01*
X67564000Y-109461300D02*
X67564000Y-111010000D01*
X70612000Y-109461300D02*
X70612000Y-111010000D01*
X61468000Y-109461300D02*
X61468000Y-111010000D01*
X90170000Y-54746000D02*
X90170000Y-56388000D01*
X90358000Y-54158000D02*
X90358000Y-54558000D01*
X90358000Y-54558000D02*
X90170000Y-54746000D01*
X105222000Y-40066000D02*
X105422000Y-39866000D01*
X105422000Y-39866000D02*
X105422000Y-38862000D01*
X105222000Y-41668000D02*
X105222000Y-40066000D01*
X105219501Y-41615501D02*
X105272000Y-41668000D01*
X103251000Y-64262000D02*
X104140000Y-63373000D01*
X104140000Y-63373000D02*
X104140000Y-62230000D01*
X102802000Y-64262000D02*
X103251000Y-64262000D01*
X102174000Y-65290000D02*
X102174000Y-64890000D01*
X102174000Y-64890000D02*
X102802000Y-64262000D01*
X89269000Y-104521000D02*
X89769000Y-104521000D01*
X89769000Y-104521000D02*
X90485000Y-103805000D01*
X90485000Y-103805000D02*
X90485000Y-103571000D01*
X90485000Y-103571000D02*
X90485000Y-102926000D01*
X105918000Y-87872000D02*
X105918000Y-88372000D01*
X105918000Y-88372000D02*
X105349000Y-88941000D01*
X105349000Y-88941000D02*
X105349000Y-90436000D01*
D62*
X102489000Y-112903000D02*
X102301000Y-113091000D01*
X102301000Y-113091000D02*
X102301000Y-114058000D01*
X104474000Y-112903000D02*
X102489000Y-112903000D01*
X105410000Y-111367000D02*
X105410000Y-111967000D01*
X105410000Y-111967000D02*
X104474000Y-112903000D01*
X156972000Y-57088000D02*
X158304000Y-57088000D01*
X159958000Y-55434000D02*
X169864000Y-55434000D01*
X158304000Y-57088000D02*
X159958000Y-55434000D01*
X169864000Y-55434000D02*
X170398000Y-54900000D01*
X170398000Y-54900000D02*
X175000000Y-54900000D01*
X156972000Y-57088000D02*
X154438000Y-57088000D01*
X154438000Y-57088000D02*
X154376000Y-57150000D01*
X169418000Y-106426000D02*
X170434000Y-107442000D01*
X170434000Y-107442000D02*
X175006000Y-107442000D01*
X169418000Y-101854000D02*
X169418000Y-106426000D01*
X169418000Y-101854000D02*
X165354000Y-97790000D01*
X165354000Y-97790000D02*
X154376000Y-97790000D01*
X174944000Y-107504000D02*
X175006000Y-107442000D01*
X162090000Y-89150000D02*
X156718000Y-89150000D01*
X156756000Y-90482000D02*
X156756000Y-89188000D01*
X156718000Y-89150000D02*
X154436000Y-89150000D01*
X156756000Y-89188000D02*
X156718000Y-89150000D01*
X154436000Y-89150000D02*
X154432000Y-89154000D01*
X157480000Y-123382000D02*
X157480000Y-124032000D01*
X157480000Y-124032000D02*
X156798000Y-124714000D01*
X156798000Y-124714000D02*
X155426000Y-124714000D01*
X155426000Y-124714000D02*
X154376000Y-124714000D01*
X157480000Y-123382000D02*
X163384000Y-123382000D01*
X163384000Y-123382000D02*
X163576000Y-123190000D01*
D63*
X59944000Y-89154000D02*
X58166000Y-90932000D01*
X58166000Y-90932000D02*
X56540000Y-90932000D01*
X59944000Y-84836000D02*
X59944000Y-89154000D01*
X60938999Y-83841001D02*
X59944000Y-84836000D01*
X64040000Y-82700000D02*
X62898999Y-83841001D01*
X62898999Y-83841001D02*
X60938999Y-83841001D01*
X66548000Y-81788000D02*
X65636000Y-82700000D01*
X65636000Y-82700000D02*
X64040000Y-82700000D01*
X66548000Y-80452000D02*
X66548000Y-81788000D01*
X67800000Y-79900000D02*
X67100000Y-79900000D01*
X67100000Y-79900000D02*
X66548000Y-80452000D01*
D64*
X150484840Y-77332840D02*
X148452840Y-75300840D01*
X148452840Y-75300840D02*
X144018000Y-75300840D01*
X150484840Y-80264000D02*
X150484840Y-77332840D01*
X138684000Y-71882000D02*
X140488540Y-71882000D01*
X140488540Y-71882000D02*
X141367380Y-71003160D01*
X141367380Y-71003160D02*
X144018000Y-71003160D01*
D62*
X156464000Y-49846000D02*
X162244000Y-49846000D01*
X162244000Y-49846000D02*
X162560000Y-49530000D01*
X154432000Y-49784000D02*
X156402000Y-49784000D01*
X156402000Y-49784000D02*
X156464000Y-49846000D01*
X157099000Y-103570000D02*
X162368000Y-103570000D01*
X162368000Y-103570000D02*
X162687000Y-103251000D01*
X154376000Y-103505000D02*
X157034000Y-103505000D01*
X157034000Y-103505000D02*
X157099000Y-103570000D01*
D63*
X67650000Y-68300000D02*
X62086400Y-68300000D01*
X62086400Y-68300000D02*
X61500000Y-68886400D01*
X61500000Y-68886400D02*
X61500000Y-70000000D01*
X56797200Y-73202800D02*
X60000000Y-70000000D01*
X60000000Y-70000000D02*
X61500000Y-70000000D01*
X54000000Y-73202800D02*
X56797200Y-73202800D01*
X64745001Y-71398999D02*
X66244000Y-69900000D01*
X66244000Y-69900000D02*
X67650000Y-69900000D01*
X61500000Y-72540000D02*
X62641001Y-71398999D01*
X62641001Y-71398999D02*
X64745001Y-71398999D01*
X59500000Y-74540000D02*
X61500000Y-72540000D01*
X54000000Y-75742800D02*
X58297200Y-75742800D01*
X58297200Y-75742800D02*
X59500000Y-74540000D01*
D62*
X80137000Y-65278000D02*
X81534000Y-66675000D01*
X81534000Y-66675000D02*
X81534000Y-68326000D01*
X80137000Y-63423000D02*
X80137000Y-65278000D01*
X80125000Y-62611000D02*
X80125000Y-63411000D01*
X80125000Y-63411000D02*
X80137000Y-63423000D01*
X84074000Y-65901000D02*
X82296000Y-65901000D01*
X84074000Y-65901000D02*
X84074000Y-68326000D01*
X84074000Y-68326000D02*
X84074000Y-71737220D01*
X84074000Y-71737220D02*
X84091780Y-71755000D01*
X76327000Y-116598000D02*
X76327000Y-109347000D01*
X76327000Y-109347000D02*
X76708000Y-108966000D01*
X79248000Y-108966000D02*
X79248000Y-110332000D01*
X79248000Y-110332000D02*
X79883000Y-110967000D01*
X79883000Y-110967000D02*
X79883000Y-114282220D01*
X80149000Y-116447000D02*
X80645000Y-115951000D01*
X80645000Y-115951000D02*
X81292000Y-115304000D01*
X79883000Y-114282220D02*
X79883000Y-115032270D01*
X79883000Y-115032270D02*
X80645000Y-115794270D01*
X80645000Y-115794270D02*
X80645000Y-115951000D01*
X81292000Y-115304000D02*
X82677000Y-115304000D01*
X80149000Y-118110000D02*
X80149000Y-116447000D01*
X165354000Y-65048000D02*
X164554000Y-65048000D01*
X164554000Y-65048000D02*
X163514000Y-64008000D01*
X163514000Y-64008000D02*
X162052000Y-64008000D01*
X152810000Y-62416000D02*
X161826000Y-62416000D01*
X161826000Y-62416000D02*
X162052000Y-62642000D01*
X162052000Y-62642000D02*
X162052000Y-64008000D01*
X150932000Y-49784000D02*
X139954000Y-49784000D01*
X139954000Y-49784000D02*
X128270000Y-38100000D01*
X128270000Y-38100000D02*
X124460000Y-38100000D01*
X124460000Y-38100000D02*
X121666000Y-38100000D01*
X134112000Y-110744000D02*
X141224000Y-103632000D01*
X141224000Y-103632000D02*
X147066000Y-103632000D01*
X134112000Y-124206000D02*
X134112000Y-110744000D01*
X130302000Y-128016000D02*
X134112000Y-124206000D01*
X123952000Y-128016000D02*
X130302000Y-128016000D01*
X150429000Y-103632000D02*
X147066000Y-103632000D01*
X150876000Y-103505000D02*
X150556000Y-103505000D01*
X150556000Y-103505000D02*
X150429000Y-103632000D01*
X121690000Y-104394000D02*
X121690000Y-103148000D01*
X121690000Y-103148000D02*
X121666000Y-103124000D01*
X141478000Y-66802000D02*
X133096000Y-66802000D01*
X146292000Y-63512000D02*
X144018000Y-65786000D01*
X144018000Y-65786000D02*
X144018000Y-66802000D01*
X148590000Y-63512000D02*
X146292000Y-63512000D01*
X144018000Y-66802000D02*
X141478000Y-66802000D01*
X147562000Y-70346000D02*
X144018000Y-66802000D01*
X149098000Y-70346000D02*
X147562000Y-70346000D01*
D63*
X148590000Y-61964000D02*
X148590000Y-63512000D01*
X149098000Y-70346000D02*
X149098000Y-71894000D01*
X149740000Y-63366000D02*
X149594000Y-63512000D01*
X149594000Y-63512000D02*
X148590000Y-63512000D01*
X150610000Y-63366000D02*
X149740000Y-63366000D01*
X151202000Y-72256000D02*
X150422000Y-72256000D01*
X150422000Y-72256000D02*
X150060000Y-71894000D01*
X150060000Y-71894000D02*
X149098000Y-71894000D01*
X121690000Y-104394000D02*
X121690000Y-106172000D01*
X121920000Y-107027000D02*
X121920000Y-108380000D01*
X121690000Y-106172000D02*
X121690000Y-106797000D01*
X121690000Y-106797000D02*
X121920000Y-107027000D01*
D62*
X165354000Y-73418000D02*
X162064000Y-73418000D01*
X162064000Y-73418000D02*
X162052000Y-73406000D01*
X161036000Y-69596000D02*
X162052000Y-70612000D01*
X162052000Y-70612000D02*
X162052000Y-73406000D01*
X154437000Y-69596000D02*
X161036000Y-69596000D01*
X153402000Y-71306000D02*
X153402000Y-70631000D01*
X153402000Y-70631000D02*
X154437000Y-69596000D01*
X175006000Y-94488000D02*
X166612000Y-94488000D01*
X166612000Y-94488000D02*
X166104000Y-94996000D01*
X175000000Y-41900000D02*
X171196000Y-41900000D01*
X171196000Y-41900000D02*
X170905000Y-41900000D01*
X167122000Y-41900000D02*
X171196000Y-41900000D01*
X164084000Y-38862000D02*
X167122000Y-41900000D01*
X164084000Y-36280000D02*
X164084000Y-38862000D01*
X164072000Y-36068000D02*
X164072000Y-36268000D01*
X164072000Y-36268000D02*
X164084000Y-36280000D01*
X156972000Y-66036000D02*
X156972000Y-64008000D01*
D63*
X165354000Y-66548000D02*
X156972000Y-66548000D01*
X156972000Y-66548000D02*
X153924000Y-66548000D01*
X156972000Y-66036000D02*
X156972000Y-66548000D01*
X153924000Y-66548000D02*
X152810000Y-65434000D01*
X152810000Y-65434000D02*
X152810000Y-64316000D01*
X150477000Y-65024000D02*
X150465000Y-65012000D01*
X150465000Y-65012000D02*
X148590000Y-65012000D01*
X150610000Y-64316000D02*
X150610000Y-64891000D01*
X150610000Y-64891000D02*
X150477000Y-65024000D01*
D62*
X153402000Y-73206000D02*
X156772000Y-73206000D01*
X156772000Y-73206000D02*
X156972000Y-73406000D01*
X157480000Y-75438000D02*
X156972000Y-74930000D01*
X156972000Y-74930000D02*
X156972000Y-73406000D01*
X164034000Y-75438000D02*
X157480000Y-75438000D01*
X165354000Y-74918000D02*
X164554000Y-74918000D01*
X164554000Y-74918000D02*
X164034000Y-75438000D01*
D63*
X150126000Y-73394000D02*
X150314000Y-73206000D01*
X150314000Y-73206000D02*
X151202000Y-73206000D01*
X149098000Y-73394000D02*
X150126000Y-73394000D01*
D62*
X157861000Y-112903000D02*
X151003000Y-112903000D01*
X174879000Y-116205000D02*
X171577000Y-112903000D01*
X171577000Y-112903000D02*
X157861000Y-112903000D01*
X174879000Y-120523000D02*
X174879000Y-116205000D01*
X146800000Y-113030000D02*
X150876000Y-113030000D01*
X150876000Y-113030000D02*
X151003000Y-112903000D01*
D66*
G36*
X118951000Y-83086908D02*
X118951000Y-94234000D01*
X119002990Y-94495373D01*
X119082922Y-94615000D01*
X117729000Y-94615000D01*
X117729000Y-81864908D01*
X118951000Y-83086908D01*
X118951000Y-83086908D01*
G37*
X118951000Y-83086908D02*
X118951000Y-94234000D01*
X119002990Y-94495373D01*
X119082922Y-94615000D01*
X117729000Y-94615000D01*
X117729000Y-81864908D01*
X118951000Y-83086908D01*
G36*
X123492048Y-50288000D02*
X123527470Y-50476253D01*
X123638728Y-50649153D01*
X123808488Y-50765145D01*
X123918095Y-50787341D01*
X123821747Y-50805470D01*
X123648847Y-50916728D01*
X123532855Y-51086488D01*
X123492048Y-51288000D01*
X123492048Y-51788000D01*
X123527470Y-51976253D01*
X123602262Y-52092483D01*
X123471647Y-52117060D01*
X123298747Y-52228318D01*
X123182755Y-52398078D01*
X123141948Y-52599590D01*
X123141948Y-56198770D01*
X123177370Y-56387023D01*
X123288628Y-56559923D01*
X123458388Y-56675915D01*
X123659900Y-56716722D01*
X125260100Y-56716722D01*
X125448353Y-56681300D01*
X125621253Y-56570042D01*
X125737245Y-56400282D01*
X125778052Y-56198770D01*
X125778052Y-55657180D01*
X126239020Y-55657180D01*
X126250000Y-55668161D01*
X126250000Y-57150000D01*
X126345760Y-57631416D01*
X126541259Y-57924000D01*
X126618460Y-58039540D01*
X128602000Y-60023080D01*
X128602000Y-61421240D01*
X127959950Y-61421240D01*
X127478534Y-61517000D01*
X127113006Y-61761238D01*
X127070410Y-61789700D01*
X121021120Y-67838990D01*
X120748420Y-68247114D01*
X120652660Y-68728530D01*
X120652660Y-73415340D01*
X120748420Y-73896756D01*
X121015090Y-74295855D01*
X121014048Y-74301000D01*
X121014048Y-75051000D01*
X121049470Y-75239253D01*
X121160728Y-75412153D01*
X121227660Y-75457886D01*
X121227660Y-75740120D01*
X121226070Y-75741707D01*
X121102800Y-76038574D01*
X121102520Y-76360016D01*
X121225271Y-76657097D01*
X121227660Y-76659490D01*
X121227660Y-76990332D01*
X121242708Y-77065984D01*
X121242708Y-77315332D01*
X121278130Y-77503585D01*
X121389388Y-77676485D01*
X121559148Y-77792477D01*
X121760660Y-77833284D01*
X122060660Y-77833284D01*
X122164331Y-77813777D01*
X122260660Y-77833284D01*
X122560660Y-77833284D01*
X122664331Y-77813777D01*
X122760660Y-77833284D01*
X123060660Y-77833284D01*
X123164331Y-77813777D01*
X123260660Y-77833284D01*
X123560660Y-77833284D01*
X123664331Y-77813777D01*
X123760660Y-77833284D01*
X124060660Y-77833284D01*
X124248913Y-77797862D01*
X124421813Y-77686604D01*
X124450240Y-77645000D01*
X124682525Y-77645000D01*
X124716728Y-77698153D01*
X124886488Y-77814145D01*
X125088000Y-77854952D01*
X125888000Y-77854952D01*
X126076253Y-77819530D01*
X126249153Y-77708272D01*
X126365145Y-77538512D01*
X126405952Y-77337000D01*
X126405952Y-76587000D01*
X126370530Y-76398747D01*
X126259272Y-76225847D01*
X126223028Y-76201083D01*
X126249153Y-76184272D01*
X126365145Y-76014512D01*
X126405952Y-75813000D01*
X126405952Y-75063000D01*
X126370530Y-74874747D01*
X126259272Y-74701847D01*
X126089512Y-74585855D01*
X125888000Y-74545048D01*
X125088000Y-74545048D01*
X124899747Y-74580470D01*
X124726847Y-74691728D01*
X124675061Y-74767519D01*
X124476627Y-74806990D01*
X124255046Y-74955046D01*
X124201092Y-75009000D01*
X123444000Y-75009000D01*
X123182627Y-75060990D01*
X122961046Y-75209046D01*
X122593660Y-75576432D01*
X122593660Y-75486294D01*
X122693153Y-75422272D01*
X122809145Y-75252512D01*
X122849952Y-75051000D01*
X122849952Y-74301000D01*
X122839590Y-74245929D01*
X123072900Y-73896756D01*
X123168660Y-73415340D01*
X123168660Y-69249610D01*
X128481030Y-63937240D01*
X128651000Y-63937240D01*
X128651000Y-87503000D01*
X128524000Y-87503000D01*
X128474590Y-87513006D01*
X128432965Y-87541447D01*
X128405685Y-87583841D01*
X128397000Y-87630000D01*
X128397000Y-93141092D01*
X126971092Y-94567000D01*
X120932908Y-94567000D01*
X120317000Y-93951092D01*
X120317000Y-82804000D01*
X120265010Y-82542627D01*
X120116954Y-82321046D01*
X117886240Y-80090332D01*
X121227660Y-80090332D01*
X121227660Y-80765332D01*
X121279650Y-81026705D01*
X121427706Y-81248286D01*
X121434374Y-81254954D01*
X121498048Y-81297500D01*
X121498048Y-81909000D01*
X121533470Y-82097253D01*
X121644728Y-82270153D01*
X121663879Y-82283238D01*
X121620140Y-82388574D01*
X121619860Y-82710016D01*
X121742611Y-83007097D01*
X121969707Y-83234590D01*
X122266574Y-83357860D01*
X122588016Y-83358140D01*
X122885097Y-83235389D01*
X123112590Y-83008293D01*
X123235860Y-82711426D01*
X123236140Y-82389984D01*
X123185662Y-82267818D01*
X123188527Y-82263625D01*
X123192728Y-82270153D01*
X123362488Y-82386145D01*
X123564000Y-82426952D01*
X124364000Y-82426952D01*
X124552253Y-82391530D01*
X124725153Y-82280272D01*
X124841145Y-82110512D01*
X124881952Y-81909000D01*
X124881952Y-81159000D01*
X124846530Y-80970747D01*
X124748260Y-80818030D01*
X124874016Y-80818140D01*
X125171097Y-80695389D01*
X125398590Y-80468293D01*
X125521860Y-80171426D01*
X125522140Y-79849984D01*
X125399389Y-79552903D01*
X125172293Y-79325410D01*
X124875426Y-79202140D01*
X124553984Y-79201860D01*
X124293406Y-79309528D01*
X124262172Y-79288187D01*
X124060660Y-79247380D01*
X123760660Y-79247380D01*
X123656989Y-79266887D01*
X123560660Y-79247380D01*
X123260660Y-79247380D01*
X123156989Y-79266887D01*
X123060660Y-79247380D01*
X122760660Y-79247380D01*
X122656989Y-79266887D01*
X122560660Y-79247380D01*
X122260660Y-79247380D01*
X122156989Y-79266887D01*
X122060660Y-79247380D01*
X121760660Y-79247380D01*
X121572407Y-79282802D01*
X121399507Y-79394060D01*
X121283515Y-79563820D01*
X121242708Y-79765332D01*
X121242708Y-80014680D01*
X121227660Y-80090332D01*
X117886240Y-80090332D01*
X117729000Y-79933092D01*
X117729000Y-49911000D01*
X123492048Y-49911000D01*
X123492048Y-50288000D01*
X123492048Y-50288000D01*
G37*
X123492048Y-50288000D02*
X123527470Y-50476253D01*
X123638728Y-50649153D01*
X123808488Y-50765145D01*
X123918095Y-50787341D01*
X123821747Y-50805470D01*
X123648847Y-50916728D01*
X123532855Y-51086488D01*
X123492048Y-51288000D01*
X123492048Y-51788000D01*
X123527470Y-51976253D01*
X123602262Y-52092483D01*
X123471647Y-52117060D01*
X123298747Y-52228318D01*
X123182755Y-52398078D01*
X123141948Y-52599590D01*
X123141948Y-56198770D01*
X123177370Y-56387023D01*
X123288628Y-56559923D01*
X123458388Y-56675915D01*
X123659900Y-56716722D01*
X125260100Y-56716722D01*
X125448353Y-56681300D01*
X125621253Y-56570042D01*
X125737245Y-56400282D01*
X125778052Y-56198770D01*
X125778052Y-55657180D01*
X126239020Y-55657180D01*
X126250000Y-55668161D01*
X126250000Y-57150000D01*
X126345760Y-57631416D01*
X126541259Y-57924000D01*
X126618460Y-58039540D01*
X128602000Y-60023080D01*
X128602000Y-61421240D01*
X127959950Y-61421240D01*
X127478534Y-61517000D01*
X127113006Y-61761238D01*
X127070410Y-61789700D01*
X121021120Y-67838990D01*
X120748420Y-68247114D01*
X120652660Y-68728530D01*
X120652660Y-73415340D01*
X120748420Y-73896756D01*
X121015090Y-74295855D01*
X121014048Y-74301000D01*
X121014048Y-75051000D01*
X121049470Y-75239253D01*
X121160728Y-75412153D01*
X121227660Y-75457886D01*
X121227660Y-75740120D01*
X121226070Y-75741707D01*
X121102800Y-76038574D01*
X121102520Y-76360016D01*
X121225271Y-76657097D01*
X121227660Y-76659490D01*
X121227660Y-76990332D01*
X121242708Y-77065984D01*
X121242708Y-77315332D01*
X121278130Y-77503585D01*
X121389388Y-77676485D01*
X121559148Y-77792477D01*
X121760660Y-77833284D01*
X122060660Y-77833284D01*
X122164331Y-77813777D01*
X122260660Y-77833284D01*
X122560660Y-77833284D01*
X122664331Y-77813777D01*
X122760660Y-77833284D01*
X123060660Y-77833284D01*
X123164331Y-77813777D01*
X123260660Y-77833284D01*
X123560660Y-77833284D01*
X123664331Y-77813777D01*
X123760660Y-77833284D01*
X124060660Y-77833284D01*
X124248913Y-77797862D01*
X124421813Y-77686604D01*
X124450240Y-77645000D01*
X124682525Y-77645000D01*
X124716728Y-77698153D01*
X124886488Y-77814145D01*
X125088000Y-77854952D01*
X125888000Y-77854952D01*
X126076253Y-77819530D01*
X126249153Y-77708272D01*
X126365145Y-77538512D01*
X126405952Y-77337000D01*
X126405952Y-76587000D01*
X126370530Y-76398747D01*
X126259272Y-76225847D01*
X126223028Y-76201083D01*
X126249153Y-76184272D01*
X126365145Y-76014512D01*
X126405952Y-75813000D01*
X126405952Y-75063000D01*
X126370530Y-74874747D01*
X126259272Y-74701847D01*
X126089512Y-74585855D01*
X125888000Y-74545048D01*
X125088000Y-74545048D01*
X124899747Y-74580470D01*
X124726847Y-74691728D01*
X124675061Y-74767519D01*
X124476627Y-74806990D01*
X124255046Y-74955046D01*
X124201092Y-75009000D01*
X123444000Y-75009000D01*
X123182627Y-75060990D01*
X122961046Y-75209046D01*
X122593660Y-75576432D01*
X122593660Y-75486294D01*
X122693153Y-75422272D01*
X122809145Y-75252512D01*
X122849952Y-75051000D01*
X122849952Y-74301000D01*
X122839590Y-74245929D01*
X123072900Y-73896756D01*
X123168660Y-73415340D01*
X123168660Y-69249610D01*
X128481030Y-63937240D01*
X128651000Y-63937240D01*
X128651000Y-87503000D01*
X128524000Y-87503000D01*
X128474590Y-87513006D01*
X128432965Y-87541447D01*
X128405685Y-87583841D01*
X128397000Y-87630000D01*
X128397000Y-93141092D01*
X126971092Y-94567000D01*
X120932908Y-94567000D01*
X120317000Y-93951092D01*
X120317000Y-82804000D01*
X120265010Y-82542627D01*
X120116954Y-82321046D01*
X117886240Y-80090332D01*
X121227660Y-80090332D01*
X121227660Y-80765332D01*
X121279650Y-81026705D01*
X121427706Y-81248286D01*
X121434374Y-81254954D01*
X121498048Y-81297500D01*
X121498048Y-81909000D01*
X121533470Y-82097253D01*
X121644728Y-82270153D01*
X121663879Y-82283238D01*
X121620140Y-82388574D01*
X121619860Y-82710016D01*
X121742611Y-83007097D01*
X121969707Y-83234590D01*
X122266574Y-83357860D01*
X122588016Y-83358140D01*
X122885097Y-83235389D01*
X123112590Y-83008293D01*
X123235860Y-82711426D01*
X123236140Y-82389984D01*
X123185662Y-82267818D01*
X123188527Y-82263625D01*
X123192728Y-82270153D01*
X123362488Y-82386145D01*
X123564000Y-82426952D01*
X124364000Y-82426952D01*
X124552253Y-82391530D01*
X124725153Y-82280272D01*
X124841145Y-82110512D01*
X124881952Y-81909000D01*
X124881952Y-81159000D01*
X124846530Y-80970747D01*
X124748260Y-80818030D01*
X124874016Y-80818140D01*
X125171097Y-80695389D01*
X125398590Y-80468293D01*
X125521860Y-80171426D01*
X125522140Y-79849984D01*
X125399389Y-79552903D01*
X125172293Y-79325410D01*
X124875426Y-79202140D01*
X124553984Y-79201860D01*
X124293406Y-79309528D01*
X124262172Y-79288187D01*
X124060660Y-79247380D01*
X123760660Y-79247380D01*
X123656989Y-79266887D01*
X123560660Y-79247380D01*
X123260660Y-79247380D01*
X123156989Y-79266887D01*
X123060660Y-79247380D01*
X122760660Y-79247380D01*
X122656989Y-79266887D01*
X122560660Y-79247380D01*
X122260660Y-79247380D01*
X122156989Y-79266887D01*
X122060660Y-79247380D01*
X121760660Y-79247380D01*
X121572407Y-79282802D01*
X121399507Y-79394060D01*
X121283515Y-79563820D01*
X121242708Y-79765332D01*
X121242708Y-80014680D01*
X121227660Y-80090332D01*
X117886240Y-80090332D01*
X117729000Y-79933092D01*
X117729000Y-49911000D01*
X123492048Y-49911000D01*
X123492048Y-50288000D01*
M02*
