G04 #@! TF.FileFunction,Soldermask,Top*
%FSLAX46Y46*%
G04 Gerber Fmt 4.6, Leading zero omitted, Abs format (unit mm)*
G04 Created by KiCad (PCBNEW 4.0.4-1.fc24-product) date Wed Oct 18 10:53:43 2017*
%MOMM*%
%LPD*%
G01*
G04 APERTURE LIST*
%ADD10C,0.150000*%
%ADD11R,0.400000X0.830000*%
%ADD12R,0.830000X0.400000*%
%ADD13R,1.350000X1.350000*%
%ADD14R,0.400000X0.750000*%
%ADD15R,1.340000X0.875000*%
%ADD16R,0.897560X0.897560*%
%ADD17R,1.500000X0.860000*%
%ADD18R,0.900000X0.850000*%
%ADD19R,0.850000X0.900000*%
%ADD20R,0.750000X1.160000*%
%ADD21R,1.400000X0.800000*%
%ADD22R,1.000000X0.600000*%
%ADD23R,0.900100X0.900100*%
%ADD24R,0.800000X1.400000*%
%ADD25R,0.600000X1.000000*%
%ADD26R,1.000000X2.600000*%
%ADD27R,2.600000X1.000000*%
%ADD28R,2.640000X3.910000*%
%ADD29R,1.160000X0.750000*%
%ADD30R,3.800000X3.800000*%
%ADD31R,3.600120X3.600120*%
%ADD32C,3.910000*%
%ADD33C,1.624000*%
%ADD34R,1.624000X1.624000*%
%ADD35O,2.098980X2.098980*%
%ADD36R,2.098980X2.098980*%
%ADD37R,1.000000X0.500000*%
%ADD38R,0.550000X1.550000*%
%ADD39R,1.100000X1.100000*%
%ADD40R,2.540000X1.100000*%
%ADD41R,3.900000X1.100000*%
%ADD42R,1.100000X2.540000*%
%ADD43R,1.100000X3.900000*%
%ADD44C,1.900000*%
%ADD45R,1.700200X3.699180*%
%ADD46R,0.700000X1.600000*%
%ADD47R,1.827200X2.132000*%
%ADD48O,1.827200X2.132000*%
%ADD49R,2.335200X2.335200*%
%ADD50R,2.401240X2.599360*%
%ADD51R,0.700000X0.800000*%
%ADD52R,0.800000X0.700000*%
%ADD53R,0.600000X0.400000*%
%ADD54R,1.000000X0.980000*%
%ADD55R,2.599360X2.401240*%
%ADD56C,6.600000*%
%ADD57R,1.827200X1.827200*%
%ADD58O,1.827200X1.827200*%
%ADD59R,2.132000X1.827200*%
%ADD60O,2.132000X1.827200*%
%ADD61C,2.300000*%
G04 APERTURE END LIST*
D10*
D11*
X110115000Y-58998000D03*
X110615000Y-58998000D03*
X111115000Y-58998000D03*
X111615000Y-58998000D03*
X112115000Y-58998000D03*
D12*
X113080000Y-58033000D03*
X113080000Y-57533000D03*
X113080000Y-57033000D03*
X113080000Y-56533000D03*
X113080000Y-56033000D03*
D11*
X112115000Y-55068000D03*
X111615000Y-55068000D03*
X111115000Y-55068000D03*
X110615000Y-55068000D03*
X110115000Y-55068000D03*
D12*
X109150000Y-56033000D03*
X109150000Y-56533000D03*
X109150000Y-57033000D03*
X109150000Y-57533000D03*
X109150000Y-58033000D03*
D13*
X111740000Y-56408000D03*
X110490000Y-56408000D03*
X111740000Y-57658000D03*
X110490000Y-57658000D03*
D14*
X121910660Y-80090332D03*
X122410660Y-80090332D03*
X122910660Y-80090332D03*
X123410660Y-80090332D03*
X123910660Y-80090332D03*
X123910660Y-76990332D03*
X123410660Y-76990332D03*
X122910660Y-76990332D03*
X122410660Y-76990332D03*
X121910660Y-76990332D03*
D15*
X123530660Y-78152832D03*
X122290660Y-78152832D03*
X123530660Y-78927832D03*
X122290660Y-78927832D03*
D16*
X139954000Y-95504000D03*
X141452600Y-95504000D03*
D17*
X150876000Y-97790000D03*
X150876000Y-96520000D03*
X150876000Y-95250000D03*
X154376000Y-95250000D03*
X154376000Y-97790000D03*
X150876000Y-57150000D03*
X150876000Y-55880000D03*
X150876000Y-54610000D03*
X154376000Y-54610000D03*
X154376000Y-57150000D03*
D18*
X113931000Y-113030000D03*
X115431000Y-113030000D03*
X113931000Y-111506000D03*
X115431000Y-111506000D03*
X113919000Y-109982000D03*
X115419000Y-109982000D03*
D19*
X109855000Y-111240000D03*
X109855000Y-109740000D03*
D18*
X113931000Y-114554000D03*
X115431000Y-114554000D03*
D20*
X108905000Y-115146000D03*
X109855000Y-115146000D03*
X110805000Y-115146000D03*
X110805000Y-112946000D03*
X108905000Y-112946000D03*
X109855000Y-112946000D03*
D19*
X109855000Y-118352000D03*
X109855000Y-116852000D03*
X111887000Y-116852000D03*
X111887000Y-118352000D03*
D18*
X105803000Y-115062000D03*
X107303000Y-115062000D03*
D19*
X108077000Y-111240000D03*
X108077000Y-109740000D03*
D21*
X92583000Y-104328000D03*
X92583000Y-102428000D03*
D18*
X92531500Y-111379000D03*
X94031500Y-111379000D03*
D19*
X107569000Y-107672000D03*
X107569000Y-106172000D03*
X114935000Y-106668000D03*
X114935000Y-105168000D03*
D18*
X102743000Y-102362000D03*
X104243000Y-102362000D03*
X102755000Y-100838000D03*
X104255000Y-100838000D03*
X109359000Y-101346000D03*
X110859000Y-101346000D03*
D21*
X100711000Y-113096000D03*
X100711000Y-114996000D03*
D18*
X100723000Y-111760000D03*
X102223000Y-111760000D03*
D19*
X104267000Y-116852000D03*
X104267000Y-118352000D03*
X102235000Y-116852000D03*
X102235000Y-118352000D03*
X90170000Y-116828000D03*
X90170000Y-115328000D03*
D18*
X94031500Y-113728500D03*
X92531500Y-113728500D03*
D20*
X89093000Y-113706000D03*
X90043000Y-113706000D03*
X90993000Y-113706000D03*
X90993000Y-111506000D03*
X89093000Y-111506000D03*
X90043000Y-111506000D03*
D18*
X91555000Y-119888000D03*
X90055000Y-119888000D03*
D21*
X96520000Y-115697000D03*
X96520000Y-113797000D03*
D22*
X82677000Y-115304000D03*
X82677000Y-113804000D03*
X84455000Y-113804000D03*
X84455000Y-115304000D03*
D18*
X85991000Y-113792000D03*
X87491000Y-113792000D03*
X87554500Y-111506000D03*
X86054500Y-111506000D03*
D23*
X98536760Y-119695000D03*
X98536760Y-117795000D03*
X96537780Y-118745000D03*
D19*
X100584000Y-116852000D03*
X100584000Y-118352000D03*
X98933000Y-122809000D03*
X98933000Y-121309000D03*
D20*
X102616000Y-119761000D03*
X101666000Y-119761000D03*
X100716000Y-119761000D03*
X100716000Y-121961000D03*
X102616000Y-121961000D03*
X101666000Y-121961000D03*
D18*
X101588000Y-124333000D03*
X100088000Y-124333000D03*
D21*
X78041500Y-123949500D03*
X78041500Y-122049500D03*
D24*
X80261500Y-120205500D03*
X78361500Y-120205500D03*
D21*
X80327500Y-122049500D03*
X80327500Y-123949500D03*
D25*
X81649000Y-118110000D03*
X80149000Y-118110000D03*
D18*
X86717000Y-98806000D03*
X85217000Y-98806000D03*
X86729000Y-101854000D03*
X85229000Y-101854000D03*
X79883000Y-101854000D03*
X78383000Y-101854000D03*
X97472500Y-91440000D03*
X98972500Y-91440000D03*
D26*
X95514500Y-86868000D03*
X98414500Y-86868000D03*
D27*
X96456500Y-93292000D03*
X96456500Y-96192000D03*
D19*
X95694500Y-89928000D03*
X95694500Y-91428000D03*
D28*
X92392500Y-95123000D03*
X92392500Y-86995000D03*
X87312500Y-95123000D03*
X82232500Y-95123000D03*
X82232500Y-86995000D03*
X87312500Y-86995000D03*
X77152500Y-95123000D03*
X77152500Y-86995000D03*
D18*
X92353000Y-105918000D03*
X93853000Y-105918000D03*
X92341000Y-107442000D03*
X93841000Y-107442000D03*
X94627000Y-102362000D03*
X96127000Y-102362000D03*
D19*
X90043000Y-109894500D03*
X90043000Y-108394500D03*
D18*
X95897000Y-100838000D03*
X97397000Y-100838000D03*
X79883000Y-100330000D03*
X78383000Y-100330000D03*
X79871000Y-98806000D03*
X78371000Y-98806000D03*
D29*
X83523000Y-101280000D03*
X83523000Y-100330000D03*
X83523000Y-99380000D03*
X81323000Y-99380000D03*
X81323000Y-101280000D03*
X81323000Y-100330000D03*
D24*
X96581000Y-122682000D03*
X94681000Y-122682000D03*
D21*
X96520000Y-110302000D03*
X96520000Y-112202000D03*
D19*
X104267000Y-123202000D03*
X104267000Y-124702000D03*
D18*
X89039000Y-99822000D03*
X90539000Y-99822000D03*
X86729000Y-100330000D03*
X85229000Y-100330000D03*
D29*
X98849000Y-99888000D03*
X98849000Y-100838000D03*
X98849000Y-101788000D03*
X101049000Y-101788000D03*
X101049000Y-99888000D03*
X101049000Y-100838000D03*
D26*
X99070500Y-94234000D03*
X101970500Y-94234000D03*
D18*
X103798500Y-87884000D03*
X102298500Y-87884000D03*
X103810500Y-86360000D03*
X102310500Y-86360000D03*
X109335000Y-95758000D03*
X107835000Y-95758000D03*
D21*
X103759000Y-89474000D03*
X103759000Y-91374000D03*
D18*
X110085000Y-91440000D03*
X108585000Y-91440000D03*
D23*
X107757000Y-99329240D03*
X105857000Y-99329240D03*
X106807000Y-101328220D03*
D18*
X100532500Y-91440000D03*
X102032500Y-91440000D03*
X102767000Y-99314000D03*
X104267000Y-99314000D03*
X107037000Y-93472000D03*
X105537000Y-93472000D03*
X100723000Y-110236000D03*
X102223000Y-110236000D03*
D29*
X111041000Y-94808000D03*
X111041000Y-95758000D03*
X111041000Y-96708000D03*
X113241000Y-96708000D03*
X113241000Y-94808000D03*
X113241000Y-95758000D03*
D18*
X114693000Y-95758000D03*
X116193000Y-95758000D03*
D19*
X115443000Y-91428000D03*
X115443000Y-89928000D03*
D18*
X113169000Y-98298000D03*
X114669000Y-98298000D03*
D23*
X123632000Y-97678240D03*
X121732000Y-97678240D03*
X122682000Y-99677220D03*
D19*
X64008000Y-96278000D03*
X64008000Y-97778000D03*
X61976000Y-96278000D03*
X61976000Y-97778000D03*
D18*
X122416000Y-81534000D03*
X120916000Y-81534000D03*
X123964000Y-81534000D03*
X125464000Y-81534000D03*
X125488000Y-76962000D03*
X126988000Y-76962000D03*
X125488000Y-75438000D03*
X126988000Y-75438000D03*
X121932000Y-74676000D03*
X123432000Y-74676000D03*
X130060000Y-60505000D03*
X131560000Y-60505000D03*
X92226000Y-57150000D03*
X93726000Y-57150000D03*
X92214000Y-58674000D03*
X93714000Y-58674000D03*
X88912000Y-51054000D03*
X90412000Y-51054000D03*
X106910000Y-44704000D03*
X105410000Y-44704000D03*
X103683500Y-37592000D03*
X102183500Y-37592000D03*
X103671500Y-39116000D03*
X102171500Y-39116000D03*
X102616000Y-53594000D03*
X104116000Y-53594000D03*
X79756000Y-53086000D03*
X78256000Y-53086000D03*
X94500000Y-53594000D03*
X96000000Y-53594000D03*
X86602000Y-53086000D03*
X85102000Y-53086000D03*
X109232000Y-52578000D03*
X110732000Y-52578000D03*
X102628000Y-52070000D03*
X104128000Y-52070000D03*
X95770000Y-52070000D03*
X97270000Y-52070000D03*
X86602000Y-51562000D03*
X85102000Y-51562000D03*
X100405500Y-42672000D03*
X101905500Y-42672000D03*
X109958000Y-42672000D03*
X108458000Y-42672000D03*
X102640000Y-50546000D03*
X104140000Y-50546000D03*
X79744000Y-50038000D03*
X78244000Y-50038000D03*
X79756000Y-51562000D03*
X78256000Y-51562000D03*
X86590000Y-50038000D03*
X85090000Y-50038000D03*
D19*
X115316000Y-42660000D03*
X115316000Y-41160000D03*
D18*
X109208000Y-46990000D03*
X107708000Y-46990000D03*
X114566000Y-46990000D03*
X116066000Y-46990000D03*
X113042000Y-49530000D03*
X114542000Y-49530000D03*
X100596000Y-61468000D03*
X102096000Y-61468000D03*
D19*
X104140000Y-68084000D03*
X104140000Y-69584000D03*
D18*
X100596000Y-62992000D03*
X102096000Y-62992000D03*
D19*
X98806000Y-74041000D03*
X98806000Y-72541000D03*
X107950000Y-62472000D03*
X107950000Y-60972000D03*
D18*
X92404500Y-62611000D03*
X93904500Y-62611000D03*
D19*
X100457000Y-68084000D03*
X100457000Y-69584000D03*
D18*
X105676000Y-66294000D03*
X107176000Y-66294000D03*
X93904500Y-64960500D03*
X92404500Y-64960500D03*
X101461000Y-75565000D03*
X99961000Y-75565000D03*
D19*
X102108000Y-68084000D03*
X102108000Y-69584000D03*
X109728000Y-69584000D03*
X109728000Y-68084000D03*
X109728000Y-62472000D03*
X109728000Y-60972000D03*
X89916000Y-61126500D03*
X89916000Y-59626500D03*
X90043000Y-68060000D03*
X90043000Y-66560000D03*
X104140000Y-74434000D03*
X104140000Y-75934000D03*
D18*
X113804000Y-65786000D03*
X115304000Y-65786000D03*
D19*
X111760000Y-68084000D03*
X111760000Y-69584000D03*
D18*
X87427500Y-62738000D03*
X85927500Y-62738000D03*
X113792000Y-61214000D03*
X115292000Y-61214000D03*
X113804000Y-62738000D03*
X115304000Y-62738000D03*
X113804000Y-64262000D03*
X115304000Y-64262000D03*
D19*
X107442000Y-58904000D03*
X107442000Y-57404000D03*
X114808000Y-57900000D03*
X114808000Y-56400000D03*
D18*
X85864000Y-65024000D03*
X87364000Y-65024000D03*
X91174000Y-75184000D03*
X89674000Y-75184000D03*
D30*
X168904860Y-81280000D03*
D31*
X174904340Y-81280000D03*
X171904600Y-76581000D03*
D16*
X124460000Y-48501300D03*
X124460000Y-47002700D03*
D26*
X137848000Y-80264000D03*
X134948000Y-80264000D03*
D32*
X55270000Y-98044000D03*
X55270000Y-64516000D03*
D33*
X56540000Y-71628000D03*
X56540000Y-74422000D03*
X56540000Y-77089000D03*
X56540000Y-79883000D03*
X56540000Y-82677000D03*
X56540000Y-85471000D03*
X56540000Y-88138000D03*
D34*
X56540000Y-90932000D03*
D33*
X54000000Y-73202800D03*
X54000000Y-75742800D03*
X54000000Y-78536800D03*
X54000000Y-81280000D03*
X54000000Y-84023200D03*
X54000000Y-86817200D03*
X54000000Y-89560400D03*
D26*
X142928000Y-80264000D03*
X140028000Y-80264000D03*
D21*
X92456000Y-55560000D03*
X92456000Y-53660000D03*
X103632000Y-40706000D03*
X103632000Y-42606000D03*
D26*
X95387500Y-38100000D03*
X98287500Y-38100000D03*
D27*
X96329500Y-44524000D03*
X96329500Y-47424000D03*
D26*
X98943500Y-45466000D03*
X101843500Y-45466000D03*
D21*
X100584000Y-64328000D03*
X100584000Y-66228000D03*
D35*
X136144000Y-71882000D03*
D36*
X138684000Y-71882000D03*
D23*
X131760000Y-62679240D03*
X129860000Y-62679240D03*
X130810000Y-64678220D03*
D25*
X131560000Y-55880000D03*
X130060000Y-55880000D03*
D22*
X124460000Y-51538000D03*
X124460000Y-50038000D03*
X139954000Y-92456000D03*
X139954000Y-93956000D03*
D25*
X166104000Y-94996000D03*
X164604000Y-94996000D03*
X164072000Y-36068000D03*
X162572000Y-36068000D03*
X146800000Y-113030000D03*
X145300000Y-113030000D03*
D22*
X84074000Y-63234000D03*
X84074000Y-61734000D03*
X84074000Y-65901000D03*
X84074000Y-64401000D03*
X82296000Y-64401000D03*
X82296000Y-65901000D03*
D37*
X67650000Y-69100000D03*
X67650000Y-69900000D03*
X67650000Y-68300000D03*
X67650000Y-70700000D03*
X69350000Y-68300000D03*
X69350000Y-69100000D03*
X69350000Y-69900000D03*
X69350000Y-70700000D03*
X67650000Y-74100000D03*
X67650000Y-74900000D03*
X67650000Y-73300000D03*
X67650000Y-75700000D03*
X69350000Y-73300000D03*
X69350000Y-74100000D03*
X69350000Y-74900000D03*
X69350000Y-75700000D03*
X67800000Y-78300000D03*
X67800000Y-79100000D03*
X67800000Y-77500000D03*
X67800000Y-79900000D03*
X69500000Y-77500000D03*
X69500000Y-78300000D03*
X69500000Y-79100000D03*
X69500000Y-79900000D03*
D38*
X65995000Y-102645000D03*
X66645000Y-102645000D03*
X67295000Y-102645000D03*
X67945000Y-102645000D03*
X68595000Y-102645000D03*
X69245000Y-102645000D03*
X69895000Y-102645000D03*
X69895000Y-96745000D03*
X69245000Y-96745000D03*
X68595000Y-96745000D03*
X67945000Y-96745000D03*
X67295000Y-96745000D03*
X66645000Y-96745000D03*
X65995000Y-96745000D03*
D29*
X98722000Y-51120000D03*
X98722000Y-52070000D03*
X98722000Y-53020000D03*
X100922000Y-53020000D03*
X100922000Y-51120000D03*
X100922000Y-52070000D03*
X83396000Y-52512000D03*
X83396000Y-51562000D03*
X83396000Y-50612000D03*
X81196000Y-50612000D03*
X81196000Y-52512000D03*
X81196000Y-51562000D03*
D28*
X92265500Y-46355000D03*
X92265500Y-38227000D03*
X87185500Y-46355000D03*
X82105500Y-46355000D03*
X82105500Y-38227000D03*
X87185500Y-38227000D03*
X77025500Y-46355000D03*
X77025500Y-38227000D03*
D23*
X107630000Y-50561240D03*
X105730000Y-50561240D03*
X106680000Y-52560220D03*
X124902000Y-42433240D03*
X123002000Y-42433240D03*
X123952000Y-44432220D03*
D29*
X110914000Y-46040000D03*
X110914000Y-46990000D03*
X110914000Y-47940000D03*
X113114000Y-47940000D03*
X113114000Y-46040000D03*
X113114000Y-46990000D03*
D20*
X102489000Y-70993000D03*
X101539000Y-70993000D03*
X100589000Y-70993000D03*
X100589000Y-73193000D03*
X102489000Y-73193000D03*
X101539000Y-73193000D03*
X108778000Y-66378000D03*
X109728000Y-66378000D03*
X110678000Y-66378000D03*
X110678000Y-64178000D03*
X108778000Y-64178000D03*
X109728000Y-64178000D03*
X88966000Y-64938000D03*
X89916000Y-64938000D03*
X90866000Y-64938000D03*
X90866000Y-62738000D03*
X88966000Y-62738000D03*
X89916000Y-62738000D03*
D23*
X98409760Y-70927000D03*
X98409760Y-69027000D03*
X96410780Y-69977000D03*
D39*
X73955000Y-34560000D03*
X118135000Y-34560000D03*
X118135000Y-78740000D03*
X73955000Y-78740000D03*
D40*
X75675000Y-34560000D03*
X75675000Y-78740000D03*
D41*
X80995000Y-34560000D03*
X80995000Y-78740000D03*
X86995000Y-34560000D03*
X86995000Y-78740000D03*
X92995000Y-34560000D03*
X92995000Y-78740000D03*
X99095000Y-34560000D03*
X99095000Y-78740000D03*
X105095000Y-34560000D03*
X105095000Y-78740000D03*
X111095000Y-34560000D03*
X111095000Y-78740000D03*
D40*
X116415000Y-34560000D03*
X116415000Y-78740000D03*
D42*
X73955000Y-36280000D03*
X118135000Y-36280000D03*
D43*
X73955000Y-41600000D03*
X118135000Y-41600000D03*
X73955000Y-47600000D03*
X118135000Y-47600000D03*
X73955000Y-53600000D03*
X118135000Y-53600000D03*
X73955000Y-59700000D03*
X118135000Y-59700000D03*
X73955000Y-65700000D03*
X118135000Y-65700000D03*
X73955000Y-71700000D03*
X118135000Y-71700000D03*
D42*
X73955000Y-77020000D03*
X118135000Y-77020000D03*
D39*
X73920000Y-83820000D03*
X118100000Y-83820000D03*
X118100000Y-128000000D03*
X73920000Y-128000000D03*
D40*
X75640000Y-83820000D03*
X75640000Y-128000000D03*
D41*
X80960000Y-83820000D03*
X80960000Y-128000000D03*
X86960000Y-83820000D03*
X86960000Y-128000000D03*
X92960000Y-83820000D03*
X92960000Y-128000000D03*
X99060000Y-83820000D03*
X99060000Y-128000000D03*
X105060000Y-83820000D03*
X105060000Y-128000000D03*
X111060000Y-83820000D03*
X111060000Y-128000000D03*
D40*
X116380000Y-83820000D03*
X116380000Y-128000000D03*
D42*
X73920000Y-85540000D03*
X118100000Y-85540000D03*
D43*
X73920000Y-90860000D03*
X118100000Y-90860000D03*
X73920000Y-96860000D03*
X118100000Y-96860000D03*
X73920000Y-102860000D03*
X118100000Y-102860000D03*
X73920000Y-108960000D03*
X118100000Y-108960000D03*
X73920000Y-114960000D03*
X118100000Y-114960000D03*
X73920000Y-120960000D03*
X118100000Y-120960000D03*
D42*
X73920000Y-126280000D03*
X118100000Y-126280000D03*
D44*
X48000000Y-106000000D03*
X45460000Y-108540000D03*
X45460000Y-103460000D03*
X50540000Y-103460000D03*
X50540000Y-108540000D03*
X48000000Y-121650000D03*
X45460000Y-124190000D03*
X45460000Y-119110000D03*
X50540000Y-119110000D03*
X50540000Y-124190000D03*
X175000000Y-67900000D03*
X177540000Y-65360000D03*
X177540000Y-70440000D03*
X172460000Y-70440000D03*
X172460000Y-65360000D03*
X175000000Y-94500000D03*
X177540000Y-91960000D03*
X177540000Y-97040000D03*
X172460000Y-97040000D03*
X172460000Y-91960000D03*
X175000000Y-41900000D03*
X177540000Y-39360000D03*
X177540000Y-44440000D03*
X172460000Y-44440000D03*
X172460000Y-39360000D03*
X175000000Y-120500000D03*
X177540000Y-117960000D03*
X177540000Y-123040000D03*
X172460000Y-123040000D03*
X172460000Y-117960000D03*
X175000000Y-54900000D03*
X177540000Y-52360000D03*
X177540000Y-57440000D03*
X172460000Y-57440000D03*
X172460000Y-52360000D03*
X175000000Y-107500000D03*
X177540000Y-104960000D03*
X177540000Y-110040000D03*
X172460000Y-110040000D03*
X172460000Y-104960000D03*
D19*
X95567500Y-41160000D03*
X95567500Y-42660000D03*
D18*
X97345500Y-42672000D03*
X98845500Y-42672000D03*
D21*
X96393000Y-66929000D03*
X96393000Y-65029000D03*
X96393000Y-61534000D03*
X96393000Y-63434000D03*
D24*
X96454000Y-73914000D03*
X94554000Y-73914000D03*
X80134500Y-71437500D03*
X78234500Y-71437500D03*
D21*
X77914500Y-75181500D03*
X77914500Y-73281500D03*
X80200500Y-73281500D03*
X80200500Y-75181500D03*
D45*
X124460000Y-54399180D03*
X124460000Y-59900820D03*
D44*
X48000000Y-56250000D03*
X45460000Y-58790000D03*
X45460000Y-53710000D03*
X50540000Y-53710000D03*
X50540000Y-58790000D03*
X48000000Y-40600000D03*
X45460000Y-43140000D03*
X45460000Y-38060000D03*
X50540000Y-38060000D03*
X50540000Y-43140000D03*
D19*
X119888000Y-117844000D03*
X119888000Y-116344000D03*
X119888000Y-119646000D03*
X119888000Y-121146000D03*
D18*
X121690000Y-106172000D03*
X123190000Y-106172000D03*
X121690000Y-104394000D03*
X123190000Y-104394000D03*
X129552000Y-120142000D03*
X131052000Y-120142000D03*
D46*
X121920000Y-117680000D03*
X123190000Y-117680000D03*
X124460000Y-117680000D03*
X125730000Y-117680000D03*
X127000000Y-117680000D03*
X128270000Y-117680000D03*
X129540000Y-117680000D03*
X130810000Y-117680000D03*
X130810000Y-108380000D03*
X129540000Y-108380000D03*
X128270000Y-108380000D03*
X127000000Y-108380000D03*
X125730000Y-108380000D03*
X124460000Y-108380000D03*
X123190000Y-108380000D03*
X121920000Y-108380000D03*
D19*
X87630000Y-76696000D03*
X87630000Y-75196000D03*
X90043000Y-123178000D03*
X90043000Y-121678000D03*
D16*
X64516000Y-107962700D03*
X64516000Y-109461300D03*
X67564000Y-107962700D03*
X67564000Y-109461300D03*
X70612000Y-107962700D03*
X70612000Y-109461300D03*
X61468000Y-107962700D03*
X61468000Y-109461300D03*
D47*
X61468000Y-64516000D03*
D48*
X64008000Y-64516000D03*
X66548000Y-64516000D03*
D49*
X70000000Y-50500000D03*
D22*
X60706000Y-103112000D03*
X60706000Y-101612000D03*
D25*
X108470000Y-75946000D03*
X109970000Y-75946000D03*
D22*
X71755000Y-104382000D03*
X71755000Y-102882000D03*
D25*
X66548000Y-92964000D03*
X68048000Y-92964000D03*
X63996000Y-61722000D03*
X62496000Y-61722000D03*
X88670000Y-56388000D03*
X90170000Y-56388000D03*
X106922000Y-38862000D03*
X105422000Y-38862000D03*
D22*
X104140000Y-60730000D03*
X104140000Y-62230000D03*
X64516000Y-112510000D03*
X64516000Y-111010000D03*
X67564000Y-112510000D03*
X67564000Y-111010000D03*
D25*
X87769000Y-104521000D03*
X89269000Y-104521000D03*
D22*
X105918000Y-86372000D03*
X105918000Y-87872000D03*
X105410000Y-109867000D03*
X105410000Y-111367000D03*
X70612000Y-112510000D03*
X70612000Y-111010000D03*
X61468000Y-112510000D03*
X61468000Y-111010000D03*
D17*
X150932000Y-89154000D03*
X150932000Y-87884000D03*
X150932000Y-86614000D03*
X154432000Y-86614000D03*
X154432000Y-89154000D03*
X150876000Y-124714000D03*
X150876000Y-123444000D03*
X150876000Y-122174000D03*
X154376000Y-122174000D03*
X154376000Y-124714000D03*
D50*
X137668000Y-59065160D03*
X137668000Y-63362840D03*
D51*
X133288000Y-53086000D03*
X131888000Y-53086000D03*
D52*
X161798000Y-96458000D03*
X161798000Y-95058000D03*
X160528000Y-37530000D03*
X160528000Y-36130000D03*
X143764000Y-111568000D03*
X143764000Y-112968000D03*
X156972000Y-55688000D03*
X156972000Y-57088000D03*
X156756000Y-91882000D03*
X156756000Y-90482000D03*
D51*
X170880000Y-102108000D03*
X169480000Y-102108000D03*
D52*
X157480000Y-121982000D03*
X157480000Y-123382000D03*
D23*
X103444000Y-48768000D03*
X105344000Y-48768000D03*
X104394000Y-46769020D03*
X103444000Y-97520760D03*
X105344000Y-97520760D03*
X104394000Y-95521780D03*
D53*
X104201000Y-115558000D03*
X104201000Y-115058000D03*
X104201000Y-114558000D03*
X104201000Y-114058000D03*
X102301000Y-114058000D03*
X102301000Y-114558000D03*
X102301000Y-115058000D03*
X102301000Y-115558000D03*
D54*
X103251000Y-114368000D03*
X103251000Y-115248000D03*
D53*
X107249000Y-91936000D03*
X107249000Y-91436000D03*
X107249000Y-90936000D03*
X107249000Y-90436000D03*
X105349000Y-90436000D03*
X105349000Y-90936000D03*
X105349000Y-91436000D03*
X105349000Y-91936000D03*
D54*
X106299000Y-90746000D03*
X106299000Y-91626000D03*
D53*
X88585000Y-101426000D03*
X88585000Y-101926000D03*
X88585000Y-102426000D03*
X88585000Y-102926000D03*
X90485000Y-102926000D03*
X90485000Y-102426000D03*
X90485000Y-101926000D03*
X90485000Y-101426000D03*
D54*
X89535000Y-102616000D03*
X89535000Y-101736000D03*
D53*
X104074000Y-66790000D03*
X104074000Y-66290000D03*
X104074000Y-65790000D03*
X104074000Y-65290000D03*
X102174000Y-65290000D03*
X102174000Y-65790000D03*
X102174000Y-66290000D03*
X102174000Y-66790000D03*
D54*
X103124000Y-65600000D03*
X103124000Y-66480000D03*
D53*
X88458000Y-52658000D03*
X88458000Y-53158000D03*
X88458000Y-53658000D03*
X88458000Y-54158000D03*
X90358000Y-54158000D03*
X90358000Y-53658000D03*
X90358000Y-53158000D03*
X90358000Y-52658000D03*
D54*
X89408000Y-53848000D03*
X89408000Y-52968000D03*
D53*
X107122000Y-43168000D03*
X107122000Y-42668000D03*
X107122000Y-42168000D03*
X107122000Y-41668000D03*
X105222000Y-41668000D03*
X105222000Y-42168000D03*
X105222000Y-42668000D03*
X105222000Y-43168000D03*
D54*
X106172000Y-41978000D03*
X106172000Y-42858000D03*
D50*
X144018000Y-75300840D03*
X144018000Y-71003160D03*
D55*
X146187160Y-80264000D03*
X150484840Y-80264000D03*
D52*
X156464000Y-51246000D03*
X156464000Y-49846000D03*
X157099000Y-102170000D03*
X157099000Y-103570000D03*
D56*
X66040000Y-120904000D03*
X66040000Y-41529000D03*
X142240000Y-120904000D03*
X142240000Y-41529000D03*
D47*
X81534000Y-68326000D03*
D48*
X84074000Y-68326000D03*
X86614000Y-68326000D03*
D47*
X76708000Y-108966000D03*
D48*
X79248000Y-108966000D03*
X81788000Y-108966000D03*
D57*
X61500000Y-70000000D03*
D58*
X64040000Y-70000000D03*
X61500000Y-72540000D03*
X64040000Y-72540000D03*
X61500000Y-75080000D03*
X64040000Y-75080000D03*
X61500000Y-77620000D03*
X64040000Y-77620000D03*
X61500000Y-80160000D03*
X64040000Y-80160000D03*
X61500000Y-82700000D03*
X64040000Y-82700000D03*
X61500000Y-85240000D03*
X64040000Y-85240000D03*
X61500000Y-87780000D03*
X64040000Y-87780000D03*
X61500000Y-90320000D03*
X64040000Y-90320000D03*
X61500000Y-92860000D03*
X64040000Y-92860000D03*
D25*
X78625000Y-62611000D03*
X80125000Y-62611000D03*
D22*
X76327000Y-118098000D03*
X76327000Y-116598000D03*
D17*
X150932000Y-49784000D03*
X150932000Y-48514000D03*
X150932000Y-47244000D03*
X154432000Y-47244000D03*
X154432000Y-49784000D03*
X150876000Y-103505000D03*
X150876000Y-102235000D03*
X150876000Y-100965000D03*
X154376000Y-100965000D03*
X154376000Y-103505000D03*
D23*
X86090760Y-72705000D03*
X86090760Y-70805000D03*
X84091780Y-71755000D03*
X80833000Y-112283240D03*
X78933000Y-112283240D03*
X79883000Y-114282220D03*
D19*
X148590000Y-61964000D03*
X148590000Y-60464000D03*
X149098000Y-70346000D03*
X149098000Y-68846000D03*
D22*
X165354000Y-66548000D03*
X165354000Y-65048000D03*
X148590000Y-65012000D03*
X148590000Y-63512000D03*
X165354000Y-74918000D03*
X165354000Y-73418000D03*
X149098000Y-73394000D03*
X149098000Y-71894000D03*
D29*
X150610000Y-62416000D03*
X150610000Y-63366000D03*
X150610000Y-64316000D03*
X152810000Y-64316000D03*
X152810000Y-62416000D03*
X152810000Y-63366000D03*
X151202000Y-71306000D03*
X151202000Y-72256000D03*
X151202000Y-73206000D03*
X153402000Y-73206000D03*
X153402000Y-71306000D03*
X153402000Y-72256000D03*
D47*
X162052000Y-64008000D03*
D48*
X159512000Y-64008000D03*
X156972000Y-64008000D03*
D47*
X162052000Y-73406000D03*
D48*
X159512000Y-73406000D03*
X156972000Y-73406000D03*
D59*
X151003000Y-110363000D03*
D60*
X151003000Y-112903000D03*
X151003000Y-115443000D03*
D59*
X157861000Y-110363000D03*
D60*
X157861000Y-112903000D03*
X157861000Y-115443000D03*
D61*
X162560000Y-49530000D03*
X160020000Y-46990000D03*
X165100000Y-46990000D03*
X165100000Y-52070000D03*
X160020000Y-52070000D03*
X163576000Y-123190000D03*
X161036000Y-120650000D03*
X166116000Y-120650000D03*
X166116000Y-125730000D03*
X161036000Y-125730000D03*
X162090000Y-89150000D03*
X159550000Y-86610000D03*
X164630000Y-86610000D03*
X164630000Y-91690000D03*
X159550000Y-91690000D03*
X162687000Y-103251000D03*
X160147000Y-100711000D03*
X165227000Y-100711000D03*
X165227000Y-105791000D03*
X160147000Y-105791000D03*
D11*
X110242000Y-107766000D03*
X110742000Y-107766000D03*
X111242000Y-107766000D03*
X111742000Y-107766000D03*
X112242000Y-107766000D03*
D12*
X113207000Y-106801000D03*
X113207000Y-106301000D03*
X113207000Y-105801000D03*
X113207000Y-105301000D03*
X113207000Y-104801000D03*
D11*
X112242000Y-103836000D03*
X111742000Y-103836000D03*
X111242000Y-103836000D03*
X110742000Y-103836000D03*
X110242000Y-103836000D03*
D12*
X109277000Y-104801000D03*
X109277000Y-105301000D03*
X109277000Y-105801000D03*
X109277000Y-106301000D03*
X109277000Y-106801000D03*
D13*
X111867000Y-105176000D03*
X110617000Y-105176000D03*
X111867000Y-106426000D03*
X110617000Y-106426000D03*
M02*
