G04 #@! TF.FileFunction,Legend,Bot*
%FSLAX46Y46*%
G04 Gerber Fmt 4.6, Leading zero omitted, Abs format (unit mm)*
G04 Created by KiCad (PCBNEW 4.0.7-e2-6376~58~ubuntu16.04.1) date Fri Jun 29 11:13:25 2018*
%MOMM*%
%LPD*%
G01*
G04 APERTURE LIST*
%ADD10C,0.150000*%
%ADD11C,0.300000*%
G04 APERTURE END LIST*
D10*
D11*
X54018571Y-38921715D02*
X53304286Y-38421715D01*
X54018571Y-38064572D02*
X52518571Y-38064572D01*
X52518571Y-38636000D01*
X52590000Y-38778858D01*
X52661429Y-38850286D01*
X52804286Y-38921715D01*
X53018571Y-38921715D01*
X53161429Y-38850286D01*
X53232857Y-38778858D01*
X53304286Y-38636000D01*
X53304286Y-38064572D01*
X52518571Y-39421715D02*
X54018571Y-40421715D01*
X52518571Y-40421715D02*
X54018571Y-39421715D01*
X53590000Y-42064571D02*
X53590000Y-42778857D01*
X54018571Y-41921714D02*
X52518571Y-42421714D01*
X54018571Y-42921714D01*
X52518571Y-53522858D02*
X52518571Y-54380001D01*
X54018571Y-53951430D02*
X52518571Y-53951430D01*
X52518571Y-54737144D02*
X54018571Y-55737144D01*
X52518571Y-55737144D02*
X54018571Y-54737144D01*
X53590000Y-57380000D02*
X53590000Y-58094286D01*
X54018571Y-57237143D02*
X52518571Y-57737143D01*
X54018571Y-58237143D01*
X54018571Y-104346572D02*
X53304286Y-103846572D01*
X54018571Y-103489429D02*
X52518571Y-103489429D01*
X52518571Y-104060857D01*
X52590000Y-104203715D01*
X52661429Y-104275143D01*
X52804286Y-104346572D01*
X53018571Y-104346572D01*
X53161429Y-104275143D01*
X53232857Y-104203715D01*
X53304286Y-104060857D01*
X53304286Y-103489429D01*
X52518571Y-104846572D02*
X54018571Y-105846572D01*
X52518571Y-105846572D02*
X54018571Y-104846572D01*
X53232857Y-108060857D02*
X53304286Y-108275143D01*
X53375714Y-108346571D01*
X53518571Y-108418000D01*
X53732857Y-108418000D01*
X53875714Y-108346571D01*
X53947143Y-108275143D01*
X54018571Y-108132285D01*
X54018571Y-107560857D01*
X52518571Y-107560857D01*
X52518571Y-108060857D01*
X52590000Y-108203714D01*
X52661429Y-108275143D01*
X52804286Y-108346571D01*
X52947143Y-108346571D01*
X53090000Y-108275143D01*
X53161429Y-108203714D01*
X53232857Y-108060857D01*
X53232857Y-107560857D01*
X52518571Y-118693715D02*
X52518571Y-119550858D01*
X54018571Y-119122287D02*
X52518571Y-119122287D01*
X52518571Y-119908001D02*
X54018571Y-120908001D01*
X52518571Y-120908001D02*
X54018571Y-119908001D01*
X53232857Y-123122286D02*
X53304286Y-123336572D01*
X53375714Y-123408000D01*
X53518571Y-123479429D01*
X53732857Y-123479429D01*
X53875714Y-123408000D01*
X53947143Y-123336572D01*
X54018571Y-123193714D01*
X54018571Y-122622286D01*
X52518571Y-122622286D01*
X52518571Y-123122286D01*
X52590000Y-123265143D01*
X52661429Y-123336572D01*
X52804286Y-123408000D01*
X52947143Y-123408000D01*
X53090000Y-123336572D01*
X53161429Y-123265143D01*
X53232857Y-123122286D01*
X53232857Y-122622286D01*
X169922000Y-116963429D02*
X169922000Y-117677715D01*
X170350571Y-116820572D02*
X168850571Y-117320572D01*
X170350571Y-117820572D01*
X168850571Y-118320572D02*
X170064857Y-118320572D01*
X170207714Y-118392000D01*
X170279143Y-118463429D01*
X170350571Y-118606286D01*
X170350571Y-118892000D01*
X170279143Y-119034858D01*
X170207714Y-119106286D01*
X170064857Y-119177715D01*
X168850571Y-119177715D01*
X168850571Y-119749144D02*
X170350571Y-120749144D01*
X168850571Y-120749144D02*
X170350571Y-119749144D01*
X169564857Y-122963429D02*
X169636286Y-123177715D01*
X169707714Y-123249143D01*
X169850571Y-123320572D01*
X170064857Y-123320572D01*
X170207714Y-123249143D01*
X170279143Y-123177715D01*
X170350571Y-123034857D01*
X170350571Y-122463429D01*
X168850571Y-122463429D01*
X168850571Y-122963429D01*
X168922000Y-123106286D01*
X168993429Y-123177715D01*
X169136286Y-123249143D01*
X169279143Y-123249143D01*
X169422000Y-123177715D01*
X169493429Y-123106286D01*
X169564857Y-122963429D01*
X169564857Y-122463429D01*
X168850571Y-103370572D02*
X168850571Y-104227715D01*
X170350571Y-103799144D02*
X168850571Y-103799144D01*
X168850571Y-104584858D02*
X170350571Y-105584858D01*
X168850571Y-105584858D02*
X170350571Y-104584858D01*
X170350571Y-106156286D02*
X168850571Y-106156286D01*
X169922000Y-106656286D01*
X168850571Y-107156286D01*
X170350571Y-107156286D01*
X170350571Y-108727715D02*
X169636286Y-108227715D01*
X170350571Y-107870572D02*
X168850571Y-107870572D01*
X168850571Y-108442000D01*
X168922000Y-108584858D01*
X168993429Y-108656286D01*
X169136286Y-108727715D01*
X169350571Y-108727715D01*
X169493429Y-108656286D01*
X169564857Y-108584858D01*
X169636286Y-108442000D01*
X169636286Y-107870572D01*
X169564857Y-111013429D02*
X169636286Y-111227715D01*
X169707714Y-111299143D01*
X169850571Y-111370572D01*
X170064857Y-111370572D01*
X170207714Y-111299143D01*
X170279143Y-111227715D01*
X170350571Y-111084857D01*
X170350571Y-110513429D01*
X168850571Y-110513429D01*
X168850571Y-111013429D01*
X168922000Y-111156286D01*
X168993429Y-111227715D01*
X169136286Y-111299143D01*
X169279143Y-111299143D01*
X169422000Y-111227715D01*
X169493429Y-111156286D01*
X169564857Y-111013429D01*
X169564857Y-110513429D01*
X168850571Y-93055429D02*
X168850571Y-93912572D01*
X170350571Y-93484001D02*
X168850571Y-93484001D01*
X170350571Y-95269715D02*
X169636286Y-94769715D01*
X170350571Y-94412572D02*
X168850571Y-94412572D01*
X168850571Y-94984000D01*
X168922000Y-95126858D01*
X168993429Y-95198286D01*
X169136286Y-95269715D01*
X169350571Y-95269715D01*
X169493429Y-95198286D01*
X169564857Y-95126858D01*
X169636286Y-94984000D01*
X169636286Y-94412572D01*
X170279143Y-65464857D02*
X170350571Y-65679143D01*
X170350571Y-66036286D01*
X170279143Y-66179143D01*
X170207714Y-66250572D01*
X170064857Y-66322000D01*
X169922000Y-66322000D01*
X169779143Y-66250572D01*
X169707714Y-66179143D01*
X169636286Y-66036286D01*
X169564857Y-65750572D01*
X169493429Y-65607714D01*
X169422000Y-65536286D01*
X169279143Y-65464857D01*
X169136286Y-65464857D01*
X168993429Y-65536286D01*
X168922000Y-65607714D01*
X168850571Y-65750572D01*
X168850571Y-66107714D01*
X168922000Y-66322000D01*
X169636286Y-67250571D02*
X170350571Y-67250571D01*
X168850571Y-66750571D02*
X169636286Y-67250571D01*
X168850571Y-67750571D01*
X170350571Y-68250571D02*
X168850571Y-68250571D01*
X170350571Y-69107714D01*
X168850571Y-69107714D01*
X170207714Y-70679143D02*
X170279143Y-70607714D01*
X170350571Y-70393428D01*
X170350571Y-70250571D01*
X170279143Y-70036286D01*
X170136286Y-69893428D01*
X169993429Y-69822000D01*
X169707714Y-69750571D01*
X169493429Y-69750571D01*
X169207714Y-69822000D01*
X169064857Y-69893428D01*
X168922000Y-70036286D01*
X168850571Y-70250571D01*
X168850571Y-70393428D01*
X168922000Y-70607714D01*
X168993429Y-70679143D01*
X168850571Y-51407715D02*
X168850571Y-52264858D01*
X170350571Y-51836287D02*
X168850571Y-51836287D01*
X168850571Y-52622001D02*
X170350571Y-53622001D01*
X168850571Y-53622001D02*
X170350571Y-52622001D01*
X170350571Y-54193429D02*
X168850571Y-54193429D01*
X169922000Y-54693429D01*
X168850571Y-55193429D01*
X170350571Y-55193429D01*
X170350571Y-56764858D02*
X169636286Y-56264858D01*
X170350571Y-55907715D02*
X168850571Y-55907715D01*
X168850571Y-56479143D01*
X168922000Y-56622001D01*
X168993429Y-56693429D01*
X169136286Y-56764858D01*
X169350571Y-56764858D01*
X169493429Y-56693429D01*
X169564857Y-56622001D01*
X169636286Y-56479143D01*
X169636286Y-55907715D01*
X169922000Y-58479143D02*
X169922000Y-59193429D01*
X170350571Y-58336286D02*
X168850571Y-58836286D01*
X170350571Y-59336286D01*
X169922000Y-38584572D02*
X169922000Y-39298858D01*
X170350571Y-38441715D02*
X168850571Y-38941715D01*
X170350571Y-39441715D01*
X168850571Y-39941715D02*
X170064857Y-39941715D01*
X170207714Y-40013143D01*
X170279143Y-40084572D01*
X170350571Y-40227429D01*
X170350571Y-40513143D01*
X170279143Y-40656001D01*
X170207714Y-40727429D01*
X170064857Y-40798858D01*
X168850571Y-40798858D01*
X168850571Y-41370287D02*
X170350571Y-42370287D01*
X168850571Y-42370287D02*
X170350571Y-41370287D01*
X169922000Y-44013143D02*
X169922000Y-44727429D01*
X170350571Y-43870286D02*
X168850571Y-44370286D01*
X170350571Y-44870286D01*
X88796857Y-76066571D02*
X88796857Y-74566571D01*
X87939714Y-76066571D02*
X88582571Y-75209429D01*
X87939714Y-74566571D02*
X88796857Y-75423714D01*
X87011143Y-74566571D02*
X86725429Y-74566571D01*
X86582571Y-74638000D01*
X86439714Y-74780857D01*
X86368286Y-75066571D01*
X86368286Y-75566571D01*
X86439714Y-75852286D01*
X86582571Y-75995143D01*
X86725429Y-76066571D01*
X87011143Y-76066571D01*
X87154000Y-75995143D01*
X87296857Y-75852286D01*
X87368286Y-75566571D01*
X87368286Y-75066571D01*
X87296857Y-74780857D01*
X87154000Y-74638000D01*
X87011143Y-74566571D01*
X85725428Y-76066571D02*
X85725428Y-74566571D01*
X85368285Y-74566571D01*
X85154000Y-74638000D01*
X85011142Y-74780857D01*
X84939714Y-74923714D01*
X84868285Y-75209429D01*
X84868285Y-75423714D01*
X84939714Y-75709429D01*
X85011142Y-75852286D01*
X85154000Y-75995143D01*
X85368285Y-76066571D01*
X85725428Y-76066571D01*
X83082571Y-75495143D02*
X81939714Y-75495143D01*
X89011143Y-77116571D02*
X88154000Y-77116571D01*
X88582571Y-78616571D02*
X88582571Y-77116571D01*
X87796857Y-77116571D02*
X86796857Y-78616571D01*
X86796857Y-77116571D02*
X87796857Y-78616571D01*
X85296858Y-77616571D02*
X84725429Y-77616571D01*
X85082572Y-77116571D02*
X85082572Y-78402286D01*
X85011144Y-78545143D01*
X84868286Y-78616571D01*
X84725429Y-78616571D01*
X84011143Y-78616571D02*
X84154001Y-78545143D01*
X84225429Y-78473714D01*
X84296858Y-78330857D01*
X84296858Y-77902286D01*
X84225429Y-77759429D01*
X84154001Y-77688000D01*
X84011143Y-77616571D01*
X83796858Y-77616571D01*
X83654001Y-77688000D01*
X83582572Y-77759429D01*
X83511143Y-77902286D01*
X83511143Y-78330857D01*
X83582572Y-78473714D01*
X83654001Y-78545143D01*
X83796858Y-78616571D01*
X84011143Y-78616571D01*
X81725429Y-78616571D02*
X81725429Y-77116571D01*
X81368286Y-77116571D01*
X81154001Y-77188000D01*
X81011143Y-77330857D01*
X80939715Y-77473714D01*
X80868286Y-77759429D01*
X80868286Y-77973714D01*
X80939715Y-78259429D01*
X81011143Y-78402286D01*
X81154001Y-78545143D01*
X81368286Y-78616571D01*
X81725429Y-78616571D01*
X79368286Y-78616571D02*
X79868286Y-77902286D01*
X80225429Y-78616571D02*
X80225429Y-77116571D01*
X79654001Y-77116571D01*
X79511143Y-77188000D01*
X79439715Y-77259429D01*
X79368286Y-77402286D01*
X79368286Y-77616571D01*
X79439715Y-77759429D01*
X79511143Y-77830857D01*
X79654001Y-77902286D01*
X80225429Y-77902286D01*
X78725429Y-78616571D02*
X78725429Y-77116571D01*
X78225429Y-77116571D02*
X77725429Y-78616571D01*
X77225429Y-77116571D01*
X76725429Y-77830857D02*
X76225429Y-77830857D01*
X76011143Y-78616571D02*
X76725429Y-78616571D01*
X76725429Y-77116571D01*
X76011143Y-77116571D01*
X74511143Y-78616571D02*
X75011143Y-77902286D01*
X75368286Y-78616571D02*
X75368286Y-77116571D01*
X74796858Y-77116571D01*
X74654000Y-77188000D01*
X74582572Y-77259429D01*
X74511143Y-77402286D01*
X74511143Y-77616571D01*
X74582572Y-77759429D01*
X74654000Y-77830857D01*
X74796858Y-77902286D01*
X75368286Y-77902286D01*
X72796858Y-78188000D02*
X72082572Y-78188000D01*
X72939715Y-78616571D02*
X72439715Y-77116571D01*
X71939715Y-78616571D01*
X71439715Y-78616571D02*
X71439715Y-77116571D01*
X70939715Y-78188000D01*
X70439715Y-77116571D01*
X70439715Y-78616571D01*
X69725429Y-78616571D02*
X69725429Y-77116571D01*
X69154001Y-77116571D01*
X69011143Y-77188000D01*
X68939715Y-77259429D01*
X68868286Y-77402286D01*
X68868286Y-77616571D01*
X68939715Y-77759429D01*
X69011143Y-77830857D01*
X69154001Y-77902286D01*
X69725429Y-77902286D01*
X87939714Y-81023714D02*
X88011143Y-81095143D01*
X88225429Y-81166571D01*
X88368286Y-81166571D01*
X88582571Y-81095143D01*
X88725429Y-80952286D01*
X88796857Y-80809429D01*
X88868286Y-80523714D01*
X88868286Y-80309429D01*
X88796857Y-80023714D01*
X88725429Y-79880857D01*
X88582571Y-79738000D01*
X88368286Y-79666571D01*
X88225429Y-79666571D01*
X88011143Y-79738000D01*
X87939714Y-79809429D01*
X87296857Y-81166571D02*
X87296857Y-79666571D01*
X86725429Y-79666571D01*
X86582571Y-79738000D01*
X86511143Y-79809429D01*
X86439714Y-79952286D01*
X86439714Y-80166571D01*
X86511143Y-80309429D01*
X86582571Y-80380857D01*
X86725429Y-80452286D01*
X87296857Y-80452286D01*
X85082571Y-81166571D02*
X85796857Y-81166571D01*
X85796857Y-79666571D01*
X83654000Y-80166571D02*
X83082571Y-80166571D01*
X83439714Y-79666571D02*
X83439714Y-80952286D01*
X83368286Y-81095143D01*
X83225428Y-81166571D01*
X83082571Y-81166571D01*
X82368285Y-81166571D02*
X82511143Y-81095143D01*
X82582571Y-81023714D01*
X82654000Y-80880857D01*
X82654000Y-80452286D01*
X82582571Y-80309429D01*
X82511143Y-80238000D01*
X82368285Y-80166571D01*
X82154000Y-80166571D01*
X82011143Y-80238000D01*
X81939714Y-80309429D01*
X81868285Y-80452286D01*
X81868285Y-80880857D01*
X81939714Y-81023714D01*
X82011143Y-81095143D01*
X82154000Y-81166571D01*
X82368285Y-81166571D01*
X79225428Y-81023714D02*
X79296857Y-81095143D01*
X79511143Y-81166571D01*
X79654000Y-81166571D01*
X79868285Y-81095143D01*
X80011143Y-80952286D01*
X80082571Y-80809429D01*
X80154000Y-80523714D01*
X80154000Y-80309429D01*
X80082571Y-80023714D01*
X80011143Y-79880857D01*
X79868285Y-79738000D01*
X79654000Y-79666571D01*
X79511143Y-79666571D01*
X79296857Y-79738000D01*
X79225428Y-79809429D01*
X78296857Y-79666571D02*
X78011143Y-79666571D01*
X77868285Y-79738000D01*
X77725428Y-79880857D01*
X77654000Y-80166571D01*
X77654000Y-80666571D01*
X77725428Y-80952286D01*
X77868285Y-81095143D01*
X78011143Y-81166571D01*
X78296857Y-81166571D01*
X78439714Y-81095143D01*
X78582571Y-80952286D01*
X78654000Y-80666571D01*
X78654000Y-80166571D01*
X78582571Y-79880857D01*
X78439714Y-79738000D01*
X78296857Y-79666571D01*
X77011142Y-79666571D02*
X77011142Y-80880857D01*
X76939714Y-81023714D01*
X76868285Y-81095143D01*
X76725428Y-81166571D01*
X76439714Y-81166571D01*
X76296856Y-81095143D01*
X76225428Y-81023714D01*
X76153999Y-80880857D01*
X76153999Y-79666571D01*
X75439713Y-81166571D02*
X75439713Y-79666571D01*
X74868285Y-79666571D01*
X74725427Y-79738000D01*
X74653999Y-79809429D01*
X74582570Y-79952286D01*
X74582570Y-80166571D01*
X74653999Y-80309429D01*
X74725427Y-80380857D01*
X74868285Y-80452286D01*
X75439713Y-80452286D01*
X73225427Y-81166571D02*
X73939713Y-81166571D01*
X73939713Y-79666571D01*
X72725427Y-80380857D02*
X72225427Y-80380857D01*
X72011141Y-81166571D02*
X72725427Y-81166571D01*
X72725427Y-79666571D01*
X72011141Y-79666571D01*
X70511141Y-81166571D02*
X71011141Y-80452286D01*
X71368284Y-81166571D02*
X71368284Y-79666571D01*
X70796856Y-79666571D01*
X70653998Y-79738000D01*
X70582570Y-79809429D01*
X70511141Y-79952286D01*
X70511141Y-80166571D01*
X70582570Y-80309429D01*
X70653998Y-80380857D01*
X70796856Y-80452286D01*
X71368284Y-80452286D01*
X89011143Y-82216571D02*
X88154000Y-82216571D01*
X88582571Y-83716571D02*
X88582571Y-82216571D01*
X87796857Y-82216571D02*
X86796857Y-83716571D01*
X86796857Y-82216571D02*
X87796857Y-83716571D01*
X86225429Y-83716571D02*
X86225429Y-82216571D01*
X85725429Y-83288000D01*
X85225429Y-82216571D01*
X85225429Y-83716571D01*
X83654000Y-83716571D02*
X84154000Y-83002286D01*
X84511143Y-83716571D02*
X84511143Y-82216571D01*
X83939715Y-82216571D01*
X83796857Y-82288000D01*
X83725429Y-82359429D01*
X83654000Y-82502286D01*
X83654000Y-82716571D01*
X83725429Y-82859429D01*
X83796857Y-82930857D01*
X83939715Y-83002286D01*
X84511143Y-83002286D01*
X82082572Y-82716571D02*
X81511143Y-82716571D01*
X81868286Y-82216571D02*
X81868286Y-83502286D01*
X81796858Y-83645143D01*
X81654000Y-83716571D01*
X81511143Y-83716571D01*
X80796857Y-83716571D02*
X80939715Y-83645143D01*
X81011143Y-83573714D01*
X81082572Y-83430857D01*
X81082572Y-83002286D01*
X81011143Y-82859429D01*
X80939715Y-82788000D01*
X80796857Y-82716571D01*
X80582572Y-82716571D01*
X80439715Y-82788000D01*
X80368286Y-82859429D01*
X80296857Y-83002286D01*
X80296857Y-83430857D01*
X80368286Y-83573714D01*
X80439715Y-83645143D01*
X80582572Y-83716571D01*
X80796857Y-83716571D01*
X78511143Y-83716571D02*
X78511143Y-82216571D01*
X78511143Y-82930857D02*
X77654000Y-82930857D01*
X77654000Y-83716571D02*
X77654000Y-82216571D01*
X76939714Y-83716571D02*
X76939714Y-82216571D01*
X76368286Y-82216571D01*
X76225428Y-82288000D01*
X76154000Y-82359429D01*
X76082571Y-82502286D01*
X76082571Y-82716571D01*
X76154000Y-82859429D01*
X76225428Y-82930857D01*
X76368286Y-83002286D01*
X76939714Y-83002286D01*
X75654000Y-82216571D02*
X74796857Y-82216571D01*
X75225428Y-83716571D02*
X75225428Y-82216571D01*
X73439714Y-83716571D02*
X73939714Y-83002286D01*
X74296857Y-83716571D02*
X74296857Y-82216571D01*
X73725429Y-82216571D01*
X73582571Y-82288000D01*
X73511143Y-82359429D01*
X73439714Y-82502286D01*
X73439714Y-82716571D01*
X73511143Y-82859429D01*
X73582571Y-82930857D01*
X73725429Y-83002286D01*
X74296857Y-83002286D01*
X70796857Y-83716571D02*
X71296857Y-83002286D01*
X71654000Y-83716571D02*
X71654000Y-82216571D01*
X71082572Y-82216571D01*
X70939714Y-82288000D01*
X70868286Y-82359429D01*
X70796857Y-82502286D01*
X70796857Y-82716571D01*
X70868286Y-82859429D01*
X70939714Y-82930857D01*
X71082572Y-83002286D01*
X71654000Y-83002286D01*
X70296857Y-82216571D02*
X69296857Y-83716571D01*
X69296857Y-82216571D02*
X70296857Y-83716571D01*
X88796857Y-86266571D02*
X88796857Y-84766571D01*
X88439714Y-84766571D01*
X88225429Y-84838000D01*
X88082571Y-84980857D01*
X88011143Y-85123714D01*
X87939714Y-85409429D01*
X87939714Y-85623714D01*
X88011143Y-85909429D01*
X88082571Y-86052286D01*
X88225429Y-86195143D01*
X88439714Y-86266571D01*
X88796857Y-86266571D01*
X87296857Y-86266571D02*
X87296857Y-84766571D01*
X86439714Y-86266571D01*
X86439714Y-84766571D01*
X85725428Y-86266571D02*
X85725428Y-84766571D01*
X85154000Y-84766571D01*
X85011142Y-84838000D01*
X84939714Y-84909429D01*
X84868285Y-85052286D01*
X84868285Y-85266571D01*
X84939714Y-85409429D01*
X85011142Y-85480857D01*
X85154000Y-85552286D01*
X85725428Y-85552286D01*
X82225428Y-86123714D02*
X82296857Y-86195143D01*
X82511143Y-86266571D01*
X82654000Y-86266571D01*
X82868285Y-86195143D01*
X83011143Y-86052286D01*
X83082571Y-85909429D01*
X83154000Y-85623714D01*
X83154000Y-85409429D01*
X83082571Y-85123714D01*
X83011143Y-84980857D01*
X82868285Y-84838000D01*
X82654000Y-84766571D01*
X82511143Y-84766571D01*
X82296857Y-84838000D01*
X82225428Y-84909429D01*
X80939714Y-85266571D02*
X80939714Y-86266571D01*
X81296857Y-84695143D02*
X81654000Y-85766571D01*
X80725428Y-85766571D01*
X79439714Y-84766571D02*
X80154000Y-84766571D01*
X80225429Y-85480857D01*
X80154000Y-85409429D01*
X80011143Y-85338000D01*
X79654000Y-85338000D01*
X79511143Y-85409429D01*
X79439714Y-85480857D01*
X79368286Y-85623714D01*
X79368286Y-85980857D01*
X79439714Y-86123714D01*
X79511143Y-86195143D01*
X79654000Y-86266571D01*
X80011143Y-86266571D01*
X80154000Y-86195143D01*
X80225429Y-86123714D01*
X78511143Y-85409429D02*
X78654001Y-85338000D01*
X78725429Y-85266571D01*
X78796858Y-85123714D01*
X78796858Y-85052286D01*
X78725429Y-84909429D01*
X78654001Y-84838000D01*
X78511143Y-84766571D01*
X78225429Y-84766571D01*
X78082572Y-84838000D01*
X78011143Y-84909429D01*
X77939715Y-85052286D01*
X77939715Y-85123714D01*
X78011143Y-85266571D01*
X78082572Y-85338000D01*
X78225429Y-85409429D01*
X78511143Y-85409429D01*
X78654001Y-85480857D01*
X78725429Y-85552286D01*
X78796858Y-85695143D01*
X78796858Y-85980857D01*
X78725429Y-86123714D01*
X78654001Y-86195143D01*
X78511143Y-86266571D01*
X78225429Y-86266571D01*
X78082572Y-86195143D01*
X78011143Y-86123714D01*
X77939715Y-85980857D01*
X77939715Y-85695143D01*
X78011143Y-85552286D01*
X78082572Y-85480857D01*
X78225429Y-85409429D01*
X77225430Y-86195143D02*
X77225430Y-86266571D01*
X77296858Y-86409429D01*
X77368287Y-86480857D01*
X74582572Y-86123714D02*
X74654001Y-86195143D01*
X74868287Y-86266571D01*
X75011144Y-86266571D01*
X75225429Y-86195143D01*
X75368287Y-86052286D01*
X75439715Y-85909429D01*
X75511144Y-85623714D01*
X75511144Y-85409429D01*
X75439715Y-85123714D01*
X75368287Y-84980857D01*
X75225429Y-84838000D01*
X75011144Y-84766571D01*
X74868287Y-84766571D01*
X74654001Y-84838000D01*
X74582572Y-84909429D01*
X73225429Y-84766571D02*
X73939715Y-84766571D01*
X74011144Y-85480857D01*
X73939715Y-85409429D01*
X73796858Y-85338000D01*
X73439715Y-85338000D01*
X73296858Y-85409429D01*
X73225429Y-85480857D01*
X73154001Y-85623714D01*
X73154001Y-85980857D01*
X73225429Y-86123714D01*
X73296858Y-86195143D01*
X73439715Y-86266571D01*
X73796858Y-86266571D01*
X73939715Y-86195143D01*
X74011144Y-86123714D01*
X71796858Y-84766571D02*
X72511144Y-84766571D01*
X72582573Y-85480857D01*
X72511144Y-85409429D01*
X72368287Y-85338000D01*
X72011144Y-85338000D01*
X71868287Y-85409429D01*
X71796858Y-85480857D01*
X71725430Y-85623714D01*
X71725430Y-85980857D01*
X71796858Y-86123714D01*
X71868287Y-86195143D01*
X72011144Y-86266571D01*
X72368287Y-86266571D01*
X72511144Y-86195143D01*
X72582573Y-86123714D01*
X70868287Y-85409429D02*
X71011145Y-85338000D01*
X71082573Y-85266571D01*
X71154002Y-85123714D01*
X71154002Y-85052286D01*
X71082573Y-84909429D01*
X71011145Y-84838000D01*
X70868287Y-84766571D01*
X70582573Y-84766571D01*
X70439716Y-84838000D01*
X70368287Y-84909429D01*
X70296859Y-85052286D01*
X70296859Y-85123714D01*
X70368287Y-85266571D01*
X70439716Y-85338000D01*
X70582573Y-85409429D01*
X70868287Y-85409429D01*
X71011145Y-85480857D01*
X71082573Y-85552286D01*
X71154002Y-85695143D01*
X71154002Y-85980857D01*
X71082573Y-86123714D01*
X71011145Y-86195143D01*
X70868287Y-86266571D01*
X70582573Y-86266571D01*
X70439716Y-86195143D01*
X70368287Y-86123714D01*
X70296859Y-85980857D01*
X70296859Y-85695143D01*
X70368287Y-85552286D01*
X70439716Y-85480857D01*
X70582573Y-85409429D01*
X88368286Y-87316571D02*
X88368286Y-88388000D01*
X88439714Y-88602286D01*
X88582571Y-88745143D01*
X88796857Y-88816571D01*
X88939714Y-88816571D01*
X87654000Y-88816571D02*
X87654000Y-87316571D01*
X87082572Y-87316571D01*
X86939714Y-87388000D01*
X86868286Y-87459429D01*
X86796857Y-87602286D01*
X86796857Y-87816571D01*
X86868286Y-87959429D01*
X86939714Y-88030857D01*
X87082572Y-88102286D01*
X87654000Y-88102286D01*
X85511143Y-87816571D02*
X85511143Y-88816571D01*
X85868286Y-87245143D02*
X86225429Y-88316571D01*
X85296857Y-88316571D01*
X84439715Y-87316571D02*
X84296858Y-87316571D01*
X84154001Y-87388000D01*
X84082572Y-87459429D01*
X84011143Y-87602286D01*
X83939715Y-87888000D01*
X83939715Y-88245143D01*
X84011143Y-88530857D01*
X84082572Y-88673714D01*
X84154001Y-88745143D01*
X84296858Y-88816571D01*
X84439715Y-88816571D01*
X84582572Y-88745143D01*
X84654001Y-88673714D01*
X84725429Y-88530857D01*
X84796858Y-88245143D01*
X84796858Y-87888000D01*
X84725429Y-87602286D01*
X84654001Y-87459429D01*
X84582572Y-87388000D01*
X84439715Y-87316571D01*
X82511144Y-88816571D02*
X83368287Y-88816571D01*
X82939715Y-88816571D02*
X82939715Y-87316571D01*
X83082572Y-87530857D01*
X83225430Y-87673714D01*
X83368287Y-87745143D01*
X80796859Y-87245143D02*
X82082573Y-89173714D01*
X79868287Y-87316571D02*
X79868287Y-88388000D01*
X79939715Y-88602286D01*
X80082572Y-88745143D01*
X80296858Y-88816571D01*
X80439715Y-88816571D01*
X79154001Y-88816571D02*
X79154001Y-87316571D01*
X78582573Y-87316571D01*
X78439715Y-87388000D01*
X78368287Y-87459429D01*
X78296858Y-87602286D01*
X78296858Y-87816571D01*
X78368287Y-87959429D01*
X78439715Y-88030857D01*
X78582573Y-88102286D01*
X79154001Y-88102286D01*
X76939715Y-87316571D02*
X77654001Y-87316571D01*
X77725430Y-88030857D01*
X77654001Y-87959429D01*
X77511144Y-87888000D01*
X77154001Y-87888000D01*
X77011144Y-87959429D01*
X76939715Y-88030857D01*
X76868287Y-88173714D01*
X76868287Y-88530857D01*
X76939715Y-88673714D01*
X77011144Y-88745143D01*
X77154001Y-88816571D01*
X77511144Y-88816571D01*
X77654001Y-88745143D01*
X77725430Y-88673714D01*
X75939716Y-87316571D02*
X75796859Y-87316571D01*
X75654002Y-87388000D01*
X75582573Y-87459429D01*
X75511144Y-87602286D01*
X75439716Y-87888000D01*
X75439716Y-88245143D01*
X75511144Y-88530857D01*
X75582573Y-88673714D01*
X75654002Y-88745143D01*
X75796859Y-88816571D01*
X75939716Y-88816571D01*
X76082573Y-88745143D01*
X76154002Y-88673714D01*
X76225430Y-88530857D01*
X76296859Y-88245143D01*
X76296859Y-87888000D01*
X76225430Y-87602286D01*
X76154002Y-87459429D01*
X76082573Y-87388000D01*
X75939716Y-87316571D01*
X74011145Y-88816571D02*
X74868288Y-88816571D01*
X74439716Y-88816571D02*
X74439716Y-87316571D01*
X74582573Y-87530857D01*
X74725431Y-87673714D01*
X74868288Y-87745143D01*
X72296860Y-87459429D02*
X72225431Y-87388000D01*
X72082574Y-87316571D01*
X71725431Y-87316571D01*
X71582574Y-87388000D01*
X71511145Y-87459429D01*
X71439717Y-87602286D01*
X71439717Y-87745143D01*
X71511145Y-87959429D01*
X72368288Y-88816571D01*
X71439717Y-88816571D01*
X70796860Y-88245143D02*
X69654003Y-88245143D01*
X69082574Y-87316571D02*
X68154003Y-87316571D01*
X68654003Y-87888000D01*
X68439717Y-87888000D01*
X68296860Y-87959429D01*
X68225431Y-88030857D01*
X68154003Y-88173714D01*
X68154003Y-88530857D01*
X68225431Y-88673714D01*
X68296860Y-88745143D01*
X68439717Y-88816571D01*
X68868289Y-88816571D01*
X69011146Y-88745143D01*
X69082574Y-88673714D01*
X88796857Y-93916571D02*
X88796857Y-92416571D01*
X88296857Y-93488000D01*
X87796857Y-92416571D01*
X87796857Y-93916571D01*
X86225428Y-93773714D02*
X86296857Y-93845143D01*
X86511143Y-93916571D01*
X86654000Y-93916571D01*
X86868285Y-93845143D01*
X87011143Y-93702286D01*
X87082571Y-93559429D01*
X87154000Y-93273714D01*
X87154000Y-93059429D01*
X87082571Y-92773714D01*
X87011143Y-92630857D01*
X86868285Y-92488000D01*
X86654000Y-92416571D01*
X86511143Y-92416571D01*
X86296857Y-92488000D01*
X86225428Y-92559429D01*
X85582571Y-93916571D02*
X85582571Y-92416571D01*
X85082571Y-93488000D01*
X84582571Y-92416571D01*
X84582571Y-93916571D01*
X82725428Y-93345143D02*
X81582571Y-93345143D01*
X89011143Y-94966571D02*
X88154000Y-94966571D01*
X88582571Y-96466571D02*
X88582571Y-94966571D01*
X87796857Y-94966571D02*
X86796857Y-96466571D01*
X86796857Y-94966571D02*
X87796857Y-96466571D01*
X86225429Y-96466571D02*
X86225429Y-94966571D01*
X85725429Y-96038000D01*
X85225429Y-94966571D01*
X85225429Y-96466571D01*
X83654000Y-96466571D02*
X84154000Y-95752286D01*
X84511143Y-96466571D02*
X84511143Y-94966571D01*
X83939715Y-94966571D01*
X83796857Y-95038000D01*
X83725429Y-95109429D01*
X83654000Y-95252286D01*
X83654000Y-95466571D01*
X83725429Y-95609429D01*
X83796857Y-95680857D01*
X83939715Y-95752286D01*
X84511143Y-95752286D01*
X82082572Y-95466571D02*
X81511143Y-95466571D01*
X81868286Y-94966571D02*
X81868286Y-96252286D01*
X81796858Y-96395143D01*
X81654000Y-96466571D01*
X81511143Y-96466571D01*
X80796857Y-96466571D02*
X80939715Y-96395143D01*
X81011143Y-96323714D01*
X81082572Y-96180857D01*
X81082572Y-95752286D01*
X81011143Y-95609429D01*
X80939715Y-95538000D01*
X80796857Y-95466571D01*
X80582572Y-95466571D01*
X80439715Y-95538000D01*
X80368286Y-95609429D01*
X80296857Y-95752286D01*
X80296857Y-96180857D01*
X80368286Y-96323714D01*
X80439715Y-96395143D01*
X80582572Y-96466571D01*
X80796857Y-96466571D01*
X78725429Y-94966571D02*
X77868286Y-94966571D01*
X78296857Y-96466571D02*
X78296857Y-94966571D01*
X76511143Y-96466571D02*
X77011143Y-95752286D01*
X77368286Y-96466571D02*
X77368286Y-94966571D01*
X76796858Y-94966571D01*
X76654000Y-95038000D01*
X76582572Y-95109429D01*
X76511143Y-95252286D01*
X76511143Y-95466571D01*
X76582572Y-95609429D01*
X76654000Y-95680857D01*
X76796858Y-95752286D01*
X77368286Y-95752286D01*
X75939715Y-96038000D02*
X75225429Y-96038000D01*
X76082572Y-96466571D02*
X75582572Y-94966571D01*
X75082572Y-96466571D01*
X74582572Y-96466571D02*
X74582572Y-94966571D01*
X73725429Y-96466571D01*
X73725429Y-94966571D01*
X73082572Y-96395143D02*
X72868286Y-96466571D01*
X72511143Y-96466571D01*
X72368286Y-96395143D01*
X72296857Y-96323714D01*
X72225429Y-96180857D01*
X72225429Y-96038000D01*
X72296857Y-95895143D01*
X72368286Y-95823714D01*
X72511143Y-95752286D01*
X72796857Y-95680857D01*
X72939715Y-95609429D01*
X73011143Y-95538000D01*
X73082572Y-95395143D01*
X73082572Y-95252286D01*
X73011143Y-95109429D01*
X72939715Y-95038000D01*
X72796857Y-94966571D01*
X72439715Y-94966571D01*
X72225429Y-95038000D01*
X71582572Y-96466571D02*
X71582572Y-94966571D01*
X71082572Y-96038000D01*
X70582572Y-94966571D01*
X70582572Y-96466571D01*
X69868286Y-96466571D02*
X69868286Y-94966571D01*
X69368286Y-94966571D02*
X68511143Y-94966571D01*
X68939714Y-96466571D02*
X68939714Y-94966571D01*
X68225429Y-94966571D02*
X67368286Y-94966571D01*
X67796857Y-96466571D02*
X67796857Y-94966571D01*
X66868286Y-95680857D02*
X66368286Y-95680857D01*
X66154000Y-96466571D02*
X66868286Y-96466571D01*
X66868286Y-94966571D01*
X66154000Y-94966571D01*
X64654000Y-96466571D02*
X65154000Y-95752286D01*
X65511143Y-96466571D02*
X65511143Y-94966571D01*
X64939715Y-94966571D01*
X64796857Y-95038000D01*
X64725429Y-95109429D01*
X64654000Y-95252286D01*
X64654000Y-95466571D01*
X64725429Y-95609429D01*
X64796857Y-95680857D01*
X64939715Y-95752286D01*
X65511143Y-95752286D01*
X88796857Y-99016571D02*
X88796857Y-97516571D01*
X88439714Y-97516571D01*
X88225429Y-97588000D01*
X88082571Y-97730857D01*
X88011143Y-97873714D01*
X87939714Y-98159429D01*
X87939714Y-98373714D01*
X88011143Y-98659429D01*
X88082571Y-98802286D01*
X88225429Y-98945143D01*
X88439714Y-99016571D01*
X88796857Y-99016571D01*
X87296857Y-99016571D02*
X87296857Y-97516571D01*
X86439714Y-99016571D01*
X86439714Y-97516571D01*
X85725428Y-99016571D02*
X85725428Y-97516571D01*
X85154000Y-97516571D01*
X85011142Y-97588000D01*
X84939714Y-97659429D01*
X84868285Y-97802286D01*
X84868285Y-98016571D01*
X84939714Y-98159429D01*
X85011142Y-98230857D01*
X85154000Y-98302286D01*
X85725428Y-98302286D01*
X82225428Y-98873714D02*
X82296857Y-98945143D01*
X82511143Y-99016571D01*
X82654000Y-99016571D01*
X82868285Y-98945143D01*
X83011143Y-98802286D01*
X83082571Y-98659429D01*
X83154000Y-98373714D01*
X83154000Y-98159429D01*
X83082571Y-97873714D01*
X83011143Y-97730857D01*
X82868285Y-97588000D01*
X82654000Y-97516571D01*
X82511143Y-97516571D01*
X82296857Y-97588000D01*
X82225428Y-97659429D01*
X80939714Y-98016571D02*
X80939714Y-99016571D01*
X81296857Y-97445143D02*
X81654000Y-98516571D01*
X80725428Y-98516571D01*
X79511143Y-98016571D02*
X79511143Y-99016571D01*
X79868286Y-97445143D02*
X80225429Y-98516571D01*
X79296857Y-98516571D01*
X78082572Y-97516571D02*
X78368286Y-97516571D01*
X78511143Y-97588000D01*
X78582572Y-97659429D01*
X78725429Y-97873714D01*
X78796858Y-98159429D01*
X78796858Y-98730857D01*
X78725429Y-98873714D01*
X78654001Y-98945143D01*
X78511143Y-99016571D01*
X78225429Y-99016571D01*
X78082572Y-98945143D01*
X78011143Y-98873714D01*
X77939715Y-98730857D01*
X77939715Y-98373714D01*
X78011143Y-98230857D01*
X78082572Y-98159429D01*
X78225429Y-98088000D01*
X78511143Y-98088000D01*
X78654001Y-98159429D01*
X78725429Y-98230857D01*
X78796858Y-98373714D01*
X77225430Y-98945143D02*
X77225430Y-99016571D01*
X77296858Y-99159429D01*
X77368287Y-99230857D01*
X74582572Y-98873714D02*
X74654001Y-98945143D01*
X74868287Y-99016571D01*
X75011144Y-99016571D01*
X75225429Y-98945143D01*
X75368287Y-98802286D01*
X75439715Y-98659429D01*
X75511144Y-98373714D01*
X75511144Y-98159429D01*
X75439715Y-97873714D01*
X75368287Y-97730857D01*
X75225429Y-97588000D01*
X75011144Y-97516571D01*
X74868287Y-97516571D01*
X74654001Y-97588000D01*
X74582572Y-97659429D01*
X73225429Y-97516571D02*
X73939715Y-97516571D01*
X74011144Y-98230857D01*
X73939715Y-98159429D01*
X73796858Y-98088000D01*
X73439715Y-98088000D01*
X73296858Y-98159429D01*
X73225429Y-98230857D01*
X73154001Y-98373714D01*
X73154001Y-98730857D01*
X73225429Y-98873714D01*
X73296858Y-98945143D01*
X73439715Y-99016571D01*
X73796858Y-99016571D01*
X73939715Y-98945143D01*
X74011144Y-98873714D01*
X71868287Y-98016571D02*
X71868287Y-99016571D01*
X72225430Y-97445143D02*
X72582573Y-98516571D01*
X71654001Y-98516571D01*
X70439716Y-97516571D02*
X70725430Y-97516571D01*
X70868287Y-97588000D01*
X70939716Y-97659429D01*
X71082573Y-97873714D01*
X71154002Y-98159429D01*
X71154002Y-98730857D01*
X71082573Y-98873714D01*
X71011145Y-98945143D01*
X70868287Y-99016571D01*
X70582573Y-99016571D01*
X70439716Y-98945143D01*
X70368287Y-98873714D01*
X70296859Y-98730857D01*
X70296859Y-98373714D01*
X70368287Y-98230857D01*
X70439716Y-98159429D01*
X70582573Y-98088000D01*
X70868287Y-98088000D01*
X71011145Y-98159429D01*
X71082573Y-98230857D01*
X71154002Y-98373714D01*
X88368286Y-100066571D02*
X88368286Y-101138000D01*
X88439714Y-101352286D01*
X88582571Y-101495143D01*
X88796857Y-101566571D01*
X88939714Y-101566571D01*
X87654000Y-101566571D02*
X87654000Y-100066571D01*
X87082572Y-100066571D01*
X86939714Y-100138000D01*
X86868286Y-100209429D01*
X86796857Y-100352286D01*
X86796857Y-100566571D01*
X86868286Y-100709429D01*
X86939714Y-100780857D01*
X87082572Y-100852286D01*
X87654000Y-100852286D01*
X85511143Y-100566571D02*
X85511143Y-101566571D01*
X85868286Y-99995143D02*
X86225429Y-101066571D01*
X85296857Y-101066571D01*
X84439715Y-100066571D02*
X84296858Y-100066571D01*
X84154001Y-100138000D01*
X84082572Y-100209429D01*
X84011143Y-100352286D01*
X83939715Y-100638000D01*
X83939715Y-100995143D01*
X84011143Y-101280857D01*
X84082572Y-101423714D01*
X84154001Y-101495143D01*
X84296858Y-101566571D01*
X84439715Y-101566571D01*
X84582572Y-101495143D01*
X84654001Y-101423714D01*
X84725429Y-101280857D01*
X84796858Y-100995143D01*
X84796858Y-100638000D01*
X84725429Y-100352286D01*
X84654001Y-100209429D01*
X84582572Y-100138000D01*
X84439715Y-100066571D01*
X82511144Y-101566571D02*
X83368287Y-101566571D01*
X82939715Y-101566571D02*
X82939715Y-100066571D01*
X83082572Y-100280857D01*
X83225430Y-100423714D01*
X83368287Y-100495143D01*
X80796859Y-99995143D02*
X82082573Y-101923714D01*
X79868287Y-100066571D02*
X79868287Y-101138000D01*
X79939715Y-101352286D01*
X80082572Y-101495143D01*
X80296858Y-101566571D01*
X80439715Y-101566571D01*
X79154001Y-101566571D02*
X79154001Y-100066571D01*
X78582573Y-100066571D01*
X78439715Y-100138000D01*
X78368287Y-100209429D01*
X78296858Y-100352286D01*
X78296858Y-100566571D01*
X78368287Y-100709429D01*
X78439715Y-100780857D01*
X78582573Y-100852286D01*
X79154001Y-100852286D01*
X76939715Y-100066571D02*
X77654001Y-100066571D01*
X77725430Y-100780857D01*
X77654001Y-100709429D01*
X77511144Y-100638000D01*
X77154001Y-100638000D01*
X77011144Y-100709429D01*
X76939715Y-100780857D01*
X76868287Y-100923714D01*
X76868287Y-101280857D01*
X76939715Y-101423714D01*
X77011144Y-101495143D01*
X77154001Y-101566571D01*
X77511144Y-101566571D01*
X77654001Y-101495143D01*
X77725430Y-101423714D01*
X75939716Y-100066571D02*
X75796859Y-100066571D01*
X75654002Y-100138000D01*
X75582573Y-100209429D01*
X75511144Y-100352286D01*
X75439716Y-100638000D01*
X75439716Y-100995143D01*
X75511144Y-101280857D01*
X75582573Y-101423714D01*
X75654002Y-101495143D01*
X75796859Y-101566571D01*
X75939716Y-101566571D01*
X76082573Y-101495143D01*
X76154002Y-101423714D01*
X76225430Y-101280857D01*
X76296859Y-100995143D01*
X76296859Y-100638000D01*
X76225430Y-100352286D01*
X76154002Y-100209429D01*
X76082573Y-100138000D01*
X75939716Y-100066571D01*
X74011145Y-101566571D02*
X74868288Y-101566571D01*
X74439716Y-101566571D02*
X74439716Y-100066571D01*
X74582573Y-100280857D01*
X74725431Y-100423714D01*
X74868288Y-100495143D01*
X71439717Y-101566571D02*
X72296860Y-101566571D01*
X71868288Y-101566571D02*
X71868288Y-100066571D01*
X72011145Y-100280857D01*
X72154003Y-100423714D01*
X72296860Y-100495143D01*
X70796860Y-100995143D02*
X69654003Y-100995143D01*
X69011146Y-100209429D02*
X68939717Y-100138000D01*
X68796860Y-100066571D01*
X68439717Y-100066571D01*
X68296860Y-100138000D01*
X68225431Y-100209429D01*
X68154003Y-100352286D01*
X68154003Y-100495143D01*
X68225431Y-100709429D01*
X69082574Y-101566571D01*
X68154003Y-101566571D01*
X151809714Y-57315571D02*
X151809714Y-55815571D01*
X151309714Y-56887000D01*
X150809714Y-55815571D01*
X150809714Y-57315571D01*
X150166857Y-56887000D02*
X149452571Y-56887000D01*
X150309714Y-57315571D02*
X149809714Y-55815571D01*
X149309714Y-57315571D01*
X148952571Y-55815571D02*
X147952571Y-57315571D01*
X147952571Y-55815571D02*
X148952571Y-57315571D01*
X146238286Y-57315571D02*
X146238286Y-55815571D01*
X145524000Y-57315571D02*
X145524000Y-55815571D01*
X144666857Y-57315571D01*
X144666857Y-55815571D01*
X143952571Y-57315571D02*
X143952571Y-55815571D01*
X143381143Y-55815571D01*
X143238285Y-55887000D01*
X143166857Y-55958429D01*
X143095428Y-56101286D01*
X143095428Y-56315571D01*
X143166857Y-56458429D01*
X143238285Y-56529857D01*
X143381143Y-56601286D01*
X143952571Y-56601286D01*
X142452571Y-55815571D02*
X142452571Y-57029857D01*
X142381143Y-57172714D01*
X142309714Y-57244143D01*
X142166857Y-57315571D01*
X141881143Y-57315571D01*
X141738285Y-57244143D01*
X141666857Y-57172714D01*
X141595428Y-57029857D01*
X141595428Y-55815571D01*
X141095428Y-55815571D02*
X140238285Y-55815571D01*
X140666856Y-57315571D02*
X140666856Y-55815571D01*
X139666857Y-57244143D02*
X139666857Y-57315571D01*
X139738285Y-57458429D01*
X139809714Y-57529857D01*
X137881142Y-57315571D02*
X137881142Y-55815571D01*
X137023999Y-57315571D01*
X137023999Y-55815571D01*
X136023999Y-55815571D02*
X135738285Y-55815571D01*
X135595427Y-55887000D01*
X135452570Y-56029857D01*
X135381142Y-56315571D01*
X135381142Y-56815571D01*
X135452570Y-57101286D01*
X135595427Y-57244143D01*
X135738285Y-57315571D01*
X136023999Y-57315571D01*
X136166856Y-57244143D01*
X136309713Y-57101286D01*
X136381142Y-56815571D01*
X136381142Y-56315571D01*
X136309713Y-56029857D01*
X136166856Y-55887000D01*
X136023999Y-55815571D01*
X133595427Y-57315571D02*
X133595427Y-55815571D01*
X133238284Y-55815571D01*
X133023999Y-55887000D01*
X132881141Y-56029857D01*
X132809713Y-56172714D01*
X132738284Y-56458429D01*
X132738284Y-56672714D01*
X132809713Y-56958429D01*
X132881141Y-57101286D01*
X133023999Y-57244143D01*
X133238284Y-57315571D01*
X133595427Y-57315571D01*
X132166856Y-56887000D02*
X131452570Y-56887000D01*
X132309713Y-57315571D02*
X131809713Y-55815571D01*
X131309713Y-57315571D01*
X130809713Y-57315571D02*
X130809713Y-55815571D01*
X130309713Y-56887000D01*
X129809713Y-55815571D01*
X129809713Y-57315571D01*
X129166856Y-56887000D02*
X128452570Y-56887000D01*
X129309713Y-57315571D02*
X128809713Y-55815571D01*
X128309713Y-57315571D01*
X127023999Y-55887000D02*
X127166856Y-55815571D01*
X127381142Y-55815571D01*
X127595427Y-55887000D01*
X127738285Y-56029857D01*
X127809713Y-56172714D01*
X127881142Y-56458429D01*
X127881142Y-56672714D01*
X127809713Y-56958429D01*
X127738285Y-57101286D01*
X127595427Y-57244143D01*
X127381142Y-57315571D01*
X127238285Y-57315571D01*
X127023999Y-57244143D01*
X126952570Y-57172714D01*
X126952570Y-56672714D01*
X127238285Y-56672714D01*
X126309713Y-56529857D02*
X125809713Y-56529857D01*
X125595427Y-57315571D02*
X126309713Y-57315571D01*
X126309713Y-55815571D01*
X125595427Y-55815571D01*
X124952570Y-57172714D02*
X124881142Y-57244143D01*
X124952570Y-57315571D01*
X125023999Y-57244143D01*
X124952570Y-57172714D01*
X124952570Y-57315571D01*
X124952570Y-56387000D02*
X124881142Y-56458429D01*
X124952570Y-56529857D01*
X125023999Y-56458429D01*
X124952570Y-56387000D01*
X124952570Y-56529857D01*
X122452570Y-56315571D02*
X122452570Y-57315571D01*
X122809713Y-55744143D02*
X123166856Y-56815571D01*
X122238284Y-56815571D01*
X120738285Y-55815571D02*
X120238285Y-57315571D01*
X119738285Y-55815571D01*
X119238285Y-56315571D02*
X119238285Y-57815571D01*
X119238285Y-56387000D02*
X119095428Y-56315571D01*
X118809714Y-56315571D01*
X118666857Y-56387000D01*
X118595428Y-56458429D01*
X118523999Y-56601286D01*
X118523999Y-57029857D01*
X118595428Y-57172714D01*
X118666857Y-57244143D01*
X118809714Y-57315571D01*
X119095428Y-57315571D01*
X119238285Y-57244143D01*
X117881142Y-56315571D02*
X117881142Y-57815571D01*
X117881142Y-56387000D02*
X117738285Y-56315571D01*
X117452571Y-56315571D01*
X117309714Y-56387000D01*
X117238285Y-56458429D01*
X117166856Y-56601286D01*
X117166856Y-57029857D01*
X117238285Y-57172714D01*
X117309714Y-57244143D01*
X117452571Y-57315571D01*
X117738285Y-57315571D01*
X117881142Y-57244143D01*
X114952571Y-57887000D02*
X115023999Y-57815571D01*
X115166856Y-57601286D01*
X115238285Y-57458429D01*
X115309714Y-57244143D01*
X115381142Y-56887000D01*
X115381142Y-56601286D01*
X115309714Y-56244143D01*
X115238285Y-56029857D01*
X115166856Y-55887000D01*
X115023999Y-55672714D01*
X114952571Y-55601286D01*
X113595428Y-57315571D02*
X114452571Y-57315571D01*
X114023999Y-57315571D02*
X114023999Y-55815571D01*
X114166856Y-56029857D01*
X114309714Y-56172714D01*
X114452571Y-56244143D01*
X112309714Y-55815571D02*
X112595428Y-55815571D01*
X112738285Y-55887000D01*
X112809714Y-55958429D01*
X112952571Y-56172714D01*
X113024000Y-56458429D01*
X113024000Y-57029857D01*
X112952571Y-57172714D01*
X112881143Y-57244143D01*
X112738285Y-57315571D01*
X112452571Y-57315571D01*
X112309714Y-57244143D01*
X112238285Y-57172714D01*
X112166857Y-57029857D01*
X112166857Y-56672714D01*
X112238285Y-56529857D01*
X112309714Y-56458429D01*
X112452571Y-56387000D01*
X112738285Y-56387000D01*
X112881143Y-56458429D01*
X112952571Y-56529857D01*
X113024000Y-56672714D01*
X109738286Y-57315571D02*
X109738286Y-55815571D01*
X109738286Y-57244143D02*
X109881143Y-57315571D01*
X110166857Y-57315571D01*
X110309715Y-57244143D01*
X110381143Y-57172714D01*
X110452572Y-57029857D01*
X110452572Y-56601286D01*
X110381143Y-56458429D01*
X110309715Y-56387000D01*
X110166857Y-56315571D01*
X109881143Y-56315571D01*
X109738286Y-56387000D01*
X108524000Y-56529857D02*
X108309714Y-56601286D01*
X108238286Y-56672714D01*
X108166857Y-56815571D01*
X108166857Y-57029857D01*
X108238286Y-57172714D01*
X108309714Y-57244143D01*
X108452572Y-57315571D01*
X109024000Y-57315571D01*
X109024000Y-55815571D01*
X108524000Y-55815571D01*
X108381143Y-55887000D01*
X108309714Y-55958429D01*
X108238286Y-56101286D01*
X108238286Y-56244143D01*
X108309714Y-56387000D01*
X108381143Y-56458429D01*
X108524000Y-56529857D01*
X109024000Y-56529857D01*
X107524000Y-57315571D02*
X107524000Y-56315571D01*
X107524000Y-56458429D02*
X107452572Y-56387000D01*
X107309714Y-56315571D01*
X107095429Y-56315571D01*
X106952572Y-56387000D01*
X106881143Y-56529857D01*
X106881143Y-57315571D01*
X106881143Y-56529857D02*
X106809714Y-56387000D01*
X106666857Y-56315571D01*
X106452572Y-56315571D01*
X106309714Y-56387000D01*
X106238286Y-56529857D01*
X106238286Y-57315571D01*
X105666857Y-57887000D02*
X105595429Y-57815571D01*
X105452572Y-57601286D01*
X105381143Y-57458429D01*
X105309714Y-57244143D01*
X105238286Y-56887000D01*
X105238286Y-56601286D01*
X105309714Y-56244143D01*
X105381143Y-56029857D01*
X105452572Y-55887000D01*
X105595429Y-55672714D01*
X105666857Y-55601286D01*
X151916858Y-59865571D02*
X151916858Y-58365571D01*
X151416858Y-59437000D01*
X150916858Y-58365571D01*
X150916858Y-59865571D01*
X150274001Y-59437000D02*
X149559715Y-59437000D01*
X150416858Y-59865571D02*
X149916858Y-58365571D01*
X149416858Y-59865571D01*
X149059715Y-58365571D02*
X148059715Y-59865571D01*
X148059715Y-58365571D02*
X149059715Y-59865571D01*
X146345430Y-59865571D02*
X146345430Y-58365571D01*
X145631144Y-59865571D02*
X145631144Y-58365571D01*
X144774001Y-59865571D01*
X144774001Y-58365571D01*
X144059715Y-59865571D02*
X144059715Y-58365571D01*
X143488287Y-58365571D01*
X143345429Y-58437000D01*
X143274001Y-58508429D01*
X143202572Y-58651286D01*
X143202572Y-58865571D01*
X143274001Y-59008429D01*
X143345429Y-59079857D01*
X143488287Y-59151286D01*
X144059715Y-59151286D01*
X142559715Y-58365571D02*
X142559715Y-59579857D01*
X142488287Y-59722714D01*
X142416858Y-59794143D01*
X142274001Y-59865571D01*
X141988287Y-59865571D01*
X141845429Y-59794143D01*
X141774001Y-59722714D01*
X141702572Y-59579857D01*
X141702572Y-58365571D01*
X141202572Y-58365571D02*
X140345429Y-58365571D01*
X140774000Y-59865571D02*
X140774000Y-58365571D01*
X139774001Y-59794143D02*
X139774001Y-59865571D01*
X139845429Y-60008429D01*
X139916858Y-60079857D01*
X137274000Y-59865571D02*
X137988286Y-59865571D01*
X137988286Y-58365571D01*
X136774000Y-59865571D02*
X136774000Y-58365571D01*
X136059714Y-59865571D02*
X136059714Y-58365571D01*
X135202571Y-59865571D01*
X135202571Y-58365571D01*
X134488285Y-59079857D02*
X133988285Y-59079857D01*
X133773999Y-59865571D02*
X134488285Y-59865571D01*
X134488285Y-58365571D01*
X133773999Y-58365571D01*
X133202571Y-59437000D02*
X132488285Y-59437000D01*
X133345428Y-59865571D02*
X132845428Y-58365571D01*
X132345428Y-59865571D01*
X130988285Y-59865571D02*
X131488285Y-59151286D01*
X131845428Y-59865571D02*
X131845428Y-58365571D01*
X131274000Y-58365571D01*
X131131142Y-58437000D01*
X131059714Y-58508429D01*
X130988285Y-58651286D01*
X130988285Y-58865571D01*
X131059714Y-59008429D01*
X131131142Y-59079857D01*
X131274000Y-59151286D01*
X131845428Y-59151286D01*
X128916857Y-58365571D02*
X128631143Y-58365571D01*
X128488285Y-58437000D01*
X128345428Y-58579857D01*
X128274000Y-58865571D01*
X128274000Y-59365571D01*
X128345428Y-59651286D01*
X128488285Y-59794143D01*
X128631143Y-59865571D01*
X128916857Y-59865571D01*
X129059714Y-59794143D01*
X129202571Y-59651286D01*
X129274000Y-59365571D01*
X129274000Y-58865571D01*
X129202571Y-58579857D01*
X129059714Y-58437000D01*
X128916857Y-58365571D01*
X127631142Y-59865571D02*
X127631142Y-58365571D01*
X127059714Y-58365571D01*
X126916856Y-58437000D01*
X126845428Y-58508429D01*
X126773999Y-58651286D01*
X126773999Y-58865571D01*
X126845428Y-59008429D01*
X126916856Y-59079857D01*
X127059714Y-59151286D01*
X127631142Y-59151286D01*
X126131142Y-59079857D02*
X125631142Y-59079857D01*
X125416856Y-59865571D02*
X126131142Y-59865571D01*
X126131142Y-58365571D01*
X125416856Y-58365571D01*
X123916856Y-59865571D02*
X124416856Y-59151286D01*
X124773999Y-59865571D02*
X124773999Y-58365571D01*
X124202571Y-58365571D01*
X124059713Y-58437000D01*
X123988285Y-58508429D01*
X123916856Y-58651286D01*
X123916856Y-58865571D01*
X123988285Y-59008429D01*
X124059713Y-59079857D01*
X124202571Y-59151286D01*
X124773999Y-59151286D01*
X123345428Y-59437000D02*
X122631142Y-59437000D01*
X123488285Y-59865571D02*
X122988285Y-58365571D01*
X122488285Y-59865571D01*
X122202571Y-58365571D02*
X121345428Y-58365571D01*
X121773999Y-59865571D02*
X121773999Y-58365571D01*
X120845428Y-59865571D02*
X120845428Y-58365571D01*
X119845428Y-58365571D02*
X119559714Y-58365571D01*
X119416856Y-58437000D01*
X119273999Y-58579857D01*
X119202571Y-58865571D01*
X119202571Y-59365571D01*
X119273999Y-59651286D01*
X119416856Y-59794143D01*
X119559714Y-59865571D01*
X119845428Y-59865571D01*
X119988285Y-59794143D01*
X120131142Y-59651286D01*
X120202571Y-59365571D01*
X120202571Y-58865571D01*
X120131142Y-58579857D01*
X119988285Y-58437000D01*
X119845428Y-58365571D01*
X118559713Y-59865571D02*
X118559713Y-58365571D01*
X117702570Y-59865571D01*
X117702570Y-58365571D01*
X116988284Y-59722714D02*
X116916856Y-59794143D01*
X116988284Y-59865571D01*
X117059713Y-59794143D01*
X116988284Y-59722714D01*
X116988284Y-59865571D01*
X116988284Y-58937000D02*
X116916856Y-59008429D01*
X116988284Y-59079857D01*
X117059713Y-59008429D01*
X116988284Y-58937000D01*
X116988284Y-59079857D01*
X115131141Y-59294143D02*
X113988284Y-59294143D01*
X112488284Y-59865571D02*
X113345427Y-59865571D01*
X112916855Y-59865571D02*
X112916855Y-58365571D01*
X113059712Y-58579857D01*
X113202570Y-58722714D01*
X113345427Y-58794143D01*
X111559713Y-58365571D02*
X111416856Y-58365571D01*
X111273999Y-58437000D01*
X111202570Y-58508429D01*
X111131141Y-58651286D01*
X111059713Y-58937000D01*
X111059713Y-59294143D01*
X111131141Y-59579857D01*
X111202570Y-59722714D01*
X111273999Y-59794143D01*
X111416856Y-59865571D01*
X111559713Y-59865571D01*
X111702570Y-59794143D01*
X111773999Y-59722714D01*
X111845427Y-59579857D01*
X111916856Y-59294143D01*
X111916856Y-58937000D01*
X111845427Y-58651286D01*
X111773999Y-58508429D01*
X111702570Y-58437000D01*
X111559713Y-58365571D01*
X108631142Y-59865571D02*
X108631142Y-58365571D01*
X108631142Y-59794143D02*
X108773999Y-59865571D01*
X109059713Y-59865571D01*
X109202571Y-59794143D01*
X109273999Y-59722714D01*
X109345428Y-59579857D01*
X109345428Y-59151286D01*
X109273999Y-59008429D01*
X109202571Y-58937000D01*
X109059713Y-58865571D01*
X108773999Y-58865571D01*
X108631142Y-58937000D01*
X107416856Y-59079857D02*
X107202570Y-59151286D01*
X107131142Y-59222714D01*
X107059713Y-59365571D01*
X107059713Y-59579857D01*
X107131142Y-59722714D01*
X107202570Y-59794143D01*
X107345428Y-59865571D01*
X107916856Y-59865571D01*
X107916856Y-58365571D01*
X107416856Y-58365571D01*
X107273999Y-58437000D01*
X107202570Y-58508429D01*
X107131142Y-58651286D01*
X107131142Y-58794143D01*
X107202570Y-58937000D01*
X107273999Y-59008429D01*
X107416856Y-59079857D01*
X107916856Y-59079857D01*
X106416856Y-59865571D02*
X106416856Y-58865571D01*
X106416856Y-59008429D02*
X106345428Y-58937000D01*
X106202570Y-58865571D01*
X105988285Y-58865571D01*
X105845428Y-58937000D01*
X105773999Y-59079857D01*
X105773999Y-59865571D01*
X105773999Y-59079857D02*
X105702570Y-58937000D01*
X105559713Y-58865571D01*
X105345428Y-58865571D01*
X105202570Y-58937000D01*
X105131142Y-59079857D01*
X105131142Y-59865571D01*
D10*
X43840000Y-101092000D02*
X43840000Y-61468000D01*
X42570000Y-101092000D02*
X42570000Y-61468000D01*
X47015000Y-94742000D02*
X47015000Y-67818000D01*
X36855000Y-67818000D02*
X36855000Y-94742000D01*
X42570000Y-94742000D02*
X36855000Y-94742000D01*
X47015000Y-94742000D02*
X43840000Y-94742000D01*
X48920000Y-95377000D02*
X43840000Y-95377000D01*
X48920000Y-93726000D02*
X48920000Y-101092000D01*
X57810000Y-93726000D02*
X48920000Y-93726000D01*
X57810000Y-101092000D02*
X57810000Y-93726000D01*
X57810000Y-101092000D02*
X42570000Y-101092000D01*
X43840000Y-67183000D02*
X48920000Y-67183000D01*
X48920000Y-69088000D02*
X57810000Y-69088000D01*
X57810000Y-61468000D02*
X43840000Y-61468000D01*
X48920000Y-61468000D02*
X48920000Y-69088000D01*
X47015000Y-67818000D02*
X43840000Y-67818000D01*
X36855000Y-67818000D02*
X42570000Y-67818000D01*
X42570000Y-61468000D02*
X43840000Y-61468000D01*
X57810000Y-61468000D02*
X57810000Y-69088000D01*
X39591905Y-80251429D02*
X40163333Y-80251429D01*
X40277619Y-80213333D01*
X40353810Y-80137143D01*
X40391905Y-80022857D01*
X40391905Y-79946667D01*
X39668095Y-80594286D02*
X39630000Y-80632381D01*
X39591905Y-80708572D01*
X39591905Y-80899048D01*
X39630000Y-80975238D01*
X39668095Y-81013334D01*
X39744286Y-81051429D01*
X39820476Y-81051429D01*
X39934762Y-81013334D01*
X40391905Y-80556191D01*
X40391905Y-81051429D01*
X39591905Y-81546667D02*
X39591905Y-81622858D01*
X39630000Y-81699048D01*
X39668095Y-81737143D01*
X39744286Y-81775239D01*
X39896667Y-81813334D01*
X40087143Y-81813334D01*
X40239524Y-81775239D01*
X40315714Y-81737143D01*
X40353810Y-81699048D01*
X40391905Y-81622858D01*
X40391905Y-81546667D01*
X40353810Y-81470477D01*
X40315714Y-81432381D01*
X40239524Y-81394286D01*
X40087143Y-81356191D01*
X39896667Y-81356191D01*
X39744286Y-81394286D01*
X39668095Y-81432381D01*
X39630000Y-81470477D01*
X39591905Y-81546667D01*
X40391905Y-82575239D02*
X40391905Y-82118096D01*
X40391905Y-82346667D02*
X39591905Y-82346667D01*
X39706190Y-82270477D01*
X39782381Y-82194286D01*
X39820476Y-82118096D01*
M02*
