G04 #@! TF.FileFunction,Copper,L4,Bot,Signal*
%FSLAX46Y46*%
G04 Gerber Fmt 4.6, Leading zero omitted, Abs format (unit mm)*
G04 Created by KiCad (PCBNEW 4.0.7-e2-6376~58~ubuntu16.04.1) date Fri Jun 29 11:13:25 2018*
%MOMM*%
%LPD*%
G01*
G04 APERTURE LIST*
%ADD10C,0.150000*%
%ADD11R,3.700000X3.700000*%
%ADD12R,3.500120X3.500120*%
%ADD13C,3.810000*%
%ADD14C,1.524000*%
%ADD15R,1.524000X1.524000*%
%ADD16O,1.998980X1.998980*%
%ADD17R,1.998980X1.998980*%
%ADD18C,1.800000*%
%ADD19R,1.727200X2.032000*%
%ADD20O,1.727200X2.032000*%
%ADD21R,2.235200X2.235200*%
%ADD22R,1.727200X1.727200*%
%ADD23O,1.727200X1.727200*%
%ADD24R,2.032000X1.727200*%
%ADD25O,2.032000X1.727200*%
%ADD26C,2.200000*%
%ADD27C,0.600000*%
%ADD28C,0.250000*%
%ADD29C,0.350000*%
%ADD30C,0.254000*%
G04 APERTURE END LIST*
D10*
D11*
X168904860Y-81280000D03*
D12*
X174904340Y-81280000D03*
X171904600Y-76581000D03*
D13*
X55270000Y-98044000D03*
X55270000Y-64516000D03*
D14*
X56540000Y-71628000D03*
X56540000Y-74422000D03*
X56540000Y-77089000D03*
X56540000Y-79883000D03*
X56540000Y-82677000D03*
X56540000Y-85471000D03*
X56540000Y-88138000D03*
D15*
X56540000Y-90932000D03*
D14*
X54000000Y-73202800D03*
X54000000Y-75742800D03*
X54000000Y-78536800D03*
X54000000Y-81280000D03*
X54000000Y-84023200D03*
X54000000Y-86817200D03*
X54000000Y-89560400D03*
D16*
X136144000Y-71882000D03*
D17*
X138684000Y-71882000D03*
D18*
X48000000Y-106000000D03*
X45460000Y-108540000D03*
X45460000Y-103460000D03*
X50540000Y-103460000D03*
X50540000Y-108540000D03*
X48000000Y-121650000D03*
X45460000Y-124190000D03*
X45460000Y-119110000D03*
X50540000Y-119110000D03*
X50540000Y-124190000D03*
X175000000Y-67900000D03*
X177540000Y-65360000D03*
X177540000Y-70440000D03*
X172460000Y-70440000D03*
X172460000Y-65360000D03*
X175000000Y-94500000D03*
X177540000Y-91960000D03*
X177540000Y-97040000D03*
X172460000Y-97040000D03*
X172460000Y-91960000D03*
X175000000Y-41900000D03*
X177540000Y-39360000D03*
X177540000Y-44440000D03*
X172460000Y-44440000D03*
X172460000Y-39360000D03*
X175000000Y-120500000D03*
X177540000Y-117960000D03*
X177540000Y-123040000D03*
X172460000Y-123040000D03*
X172460000Y-117960000D03*
X175000000Y-54900000D03*
X177540000Y-52360000D03*
X177540000Y-57440000D03*
X172460000Y-57440000D03*
X172460000Y-52360000D03*
X175000000Y-107500000D03*
X177540000Y-104960000D03*
X177540000Y-110040000D03*
X172460000Y-110040000D03*
X172460000Y-104960000D03*
X48000000Y-56250000D03*
X45460000Y-58790000D03*
X45460000Y-53710000D03*
X50540000Y-53710000D03*
X50540000Y-58790000D03*
X48000000Y-40600000D03*
X45460000Y-43140000D03*
X45460000Y-38060000D03*
X50540000Y-38060000D03*
X50540000Y-43140000D03*
D19*
X61468000Y-64516000D03*
D20*
X64008000Y-64516000D03*
X66548000Y-64516000D03*
D21*
X70000000Y-50500000D03*
D19*
X81534000Y-68326000D03*
D20*
X84074000Y-68326000D03*
X86614000Y-68326000D03*
D19*
X76708000Y-108966000D03*
D20*
X79248000Y-108966000D03*
X81788000Y-108966000D03*
D22*
X61500000Y-70000000D03*
D23*
X64040000Y-70000000D03*
X61500000Y-72540000D03*
X64040000Y-72540000D03*
X61500000Y-75080000D03*
X64040000Y-75080000D03*
X61500000Y-77620000D03*
X64040000Y-77620000D03*
X61500000Y-80160000D03*
X64040000Y-80160000D03*
X61500000Y-82700000D03*
X64040000Y-82700000D03*
X61500000Y-85240000D03*
X64040000Y-85240000D03*
X61500000Y-87780000D03*
X64040000Y-87780000D03*
X61500000Y-90320000D03*
X64040000Y-90320000D03*
X61500000Y-92860000D03*
X64040000Y-92860000D03*
D19*
X162052000Y-64008000D03*
D20*
X159512000Y-64008000D03*
X156972000Y-64008000D03*
D19*
X162052000Y-73406000D03*
D20*
X159512000Y-73406000D03*
X156972000Y-73406000D03*
D24*
X151003000Y-110363000D03*
D25*
X151003000Y-112903000D03*
X151003000Y-115443000D03*
D24*
X157861000Y-110363000D03*
D25*
X157861000Y-112903000D03*
X157861000Y-115443000D03*
D26*
X162560000Y-49530000D03*
X160020000Y-46990000D03*
X165100000Y-46990000D03*
X165100000Y-52070000D03*
X160020000Y-52070000D03*
X163576000Y-123190000D03*
X161036000Y-120650000D03*
X166116000Y-120650000D03*
X166116000Y-125730000D03*
X161036000Y-125730000D03*
X162090000Y-89150000D03*
X159550000Y-86610000D03*
X164630000Y-86610000D03*
X164630000Y-91690000D03*
X159550000Y-91690000D03*
X162687000Y-103251000D03*
X160147000Y-100711000D03*
X165227000Y-100711000D03*
X165227000Y-105791000D03*
X160147000Y-105791000D03*
D27*
X99187000Y-63246000D03*
X60960000Y-96266000D03*
X106680000Y-107696000D03*
X114808000Y-58928000D03*
X122428000Y-82550000D03*
X103886000Y-36576000D03*
X88265000Y-99822000D03*
X104902000Y-68072000D03*
X104140000Y-85344000D03*
X92202000Y-59944000D03*
X119126000Y-117856000D03*
X92460724Y-108642590D03*
X88138000Y-51054000D03*
X107950000Y-93472000D03*
X100584000Y-60706000D03*
X108204000Y-58928000D03*
X111506000Y-54102000D03*
X107950000Y-44704000D03*
X104902000Y-116840000D03*
X99822000Y-110236000D03*
X115824000Y-106680000D03*
X111760000Y-102870000D03*
X137668000Y-65278000D03*
X149606000Y-101092000D03*
X149606000Y-86614000D03*
X150114000Y-93726000D03*
X123444000Y-96774000D03*
X121666000Y-96774000D03*
X68834000Y-92964000D03*
X149860000Y-47244000D03*
X149606000Y-122174000D03*
X149733000Y-54610000D03*
X72390000Y-101727000D03*
X82804000Y-62484000D03*
X81280000Y-64389000D03*
X86868000Y-72771000D03*
X86868000Y-70739000D03*
X125730000Y-42418000D03*
X122174000Y-42418000D03*
X106172000Y-48768000D03*
X102362000Y-48768000D03*
X105410000Y-96520000D03*
X102616000Y-97536000D03*
X72136000Y-112776000D03*
X60706000Y-100838000D03*
X110744000Y-75946000D03*
X94488000Y-57621821D03*
X94540492Y-58776632D03*
X86106000Y-110744000D03*
X61468000Y-61722000D03*
X80899000Y-111379000D03*
X78867000Y-111379000D03*
X64008000Y-98806000D03*
X61976000Y-98806000D03*
X121920000Y-83820000D03*
X127000000Y-88900000D03*
X124460000Y-88900000D03*
X124460000Y-91440000D03*
X127000000Y-91440000D03*
X127000000Y-93980000D03*
X124460000Y-93980000D03*
X121920000Y-93980000D03*
X121920000Y-91440000D03*
X121920000Y-88900000D03*
X121920000Y-86360000D03*
X124460000Y-86360000D03*
X124460000Y-83820000D03*
X126746000Y-78994000D03*
X126746000Y-77978000D03*
X121158000Y-76962000D03*
X121158000Y-78740000D03*
X121158000Y-77978000D03*
X125476000Y-78994000D03*
X125476000Y-77978000D03*
X121412000Y-65532000D03*
X121412000Y-62230000D03*
X125984000Y-69850000D03*
X125984000Y-72136000D03*
X82138642Y-48616776D03*
X86912985Y-48444590D03*
X92301709Y-48444590D03*
X119888000Y-121920000D03*
X126238000Y-81534000D03*
X120904000Y-82550000D03*
X123444000Y-46990000D03*
X127762000Y-76962000D03*
X127762000Y-75438000D03*
X123444000Y-73660000D03*
X131572000Y-61722000D03*
X131572000Y-59690000D03*
X124460000Y-62230000D03*
X123190000Y-116586000D03*
X130810000Y-116332000D03*
X82086985Y-97212590D03*
X92451276Y-97212590D03*
X87371276Y-97212590D03*
X102870000Y-68072000D03*
X107950000Y-108966000D03*
X118135000Y-53600000D03*
X118135000Y-59700000D03*
X96520000Y-60706000D03*
X120650000Y-116332000D03*
X69895000Y-104095000D03*
X104398724Y-103054590D03*
X107700724Y-95065410D03*
X90170000Y-117602000D03*
X99314000Y-86868000D03*
X115639410Y-89145548D03*
X99060000Y-38100000D03*
X104140000Y-76708000D03*
X93980000Y-122682000D03*
X104394000Y-125476000D03*
X105156000Y-118364000D03*
X91440000Y-99822000D03*
X94742000Y-96266000D03*
X102108000Y-96012000D03*
X115316000Y-98298000D03*
X81788000Y-117094000D03*
X77978000Y-124968000D03*
X80264000Y-124968000D03*
X84582000Y-116078000D03*
X94996000Y-111252000D03*
X96520000Y-109474000D03*
X99822000Y-121158000D03*
X99314000Y-119634000D03*
X99314000Y-117856000D03*
X103124000Y-116840000D03*
X103251000Y-115248000D03*
X103124000Y-111760000D03*
X103124000Y-110236000D03*
X109982000Y-119126000D03*
X116078000Y-114554000D03*
X116078000Y-113030000D03*
X116078000Y-111506000D03*
X116078000Y-109982000D03*
X107696000Y-105410000D03*
X107696000Y-98552000D03*
X105918000Y-98552000D03*
X104140000Y-98552000D03*
X94742000Y-107442000D03*
X94742000Y-105918000D03*
X94996000Y-100838000D03*
X87376000Y-100330000D03*
X106299000Y-91626000D03*
X106299000Y-90746000D03*
X103251000Y-114368000D03*
X89535000Y-102616000D03*
X89535000Y-101736000D03*
X104902000Y-93472000D03*
X101600000Y-86360000D03*
X101600000Y-87884000D03*
X92960000Y-83820000D03*
X73920000Y-108960000D03*
X73920000Y-114960000D03*
X73920000Y-120960000D03*
X73920000Y-126280000D03*
X73920000Y-128000000D03*
X75640000Y-128000000D03*
X80960000Y-128000000D03*
X86960000Y-128000000D03*
X92960000Y-128000000D03*
X99060000Y-128000000D03*
X105060000Y-128000000D03*
X111060000Y-128000000D03*
X116380000Y-128000000D03*
X118100000Y-128000000D03*
X118100000Y-126280000D03*
X118100000Y-120960000D03*
X118100000Y-114960000D03*
X118100000Y-108960000D03*
X118100000Y-102860000D03*
X118100000Y-96860000D03*
X118100000Y-90860000D03*
X123530660Y-78152832D03*
X123530660Y-78927832D03*
X122290660Y-78927832D03*
X122290660Y-78152832D03*
X118100000Y-85540000D03*
X118100000Y-83820000D03*
X116380000Y-83820000D03*
X111060000Y-83820000D03*
X105060000Y-83820000D03*
X99060000Y-83820000D03*
X73920000Y-102860000D03*
X73920000Y-96860000D03*
X73920000Y-90860000D03*
X73920000Y-85540000D03*
X73920000Y-83820000D03*
X75640000Y-83820000D03*
X80960000Y-83820000D03*
X86960000Y-83820000D03*
X87122000Y-84836000D03*
X76962000Y-84836000D03*
X82042000Y-84836000D03*
X77724000Y-101854000D03*
X77724000Y-98806000D03*
X118135000Y-47600000D03*
X118135000Y-41600000D03*
X118135000Y-36280000D03*
X118135000Y-34560000D03*
X116415000Y-34560000D03*
X111095000Y-34560000D03*
X105095000Y-34560000D03*
X99095000Y-34560000D03*
X92995000Y-34560000D03*
X86995000Y-34560000D03*
X80995000Y-34560000D03*
X75675000Y-34560000D03*
X73955000Y-34560000D03*
X73955000Y-36280000D03*
X73955000Y-41600000D03*
X73955000Y-47600000D03*
X73955000Y-53600000D03*
X73955000Y-59700000D03*
X73955000Y-65700000D03*
X73955000Y-71700000D03*
X73955000Y-77020000D03*
X73955000Y-78740000D03*
X75675000Y-78740000D03*
X80995000Y-78740000D03*
X86995000Y-78740000D03*
X92995000Y-78740000D03*
X99095000Y-78740000D03*
X105095000Y-78740000D03*
X111095000Y-78740000D03*
X116415000Y-78740000D03*
X118135000Y-78740000D03*
X118135000Y-77020000D03*
X118135000Y-71700000D03*
X118135000Y-65700000D03*
X116078000Y-61214000D03*
X116078000Y-62738000D03*
X116078000Y-64262000D03*
X116078000Y-65786000D03*
X107188000Y-60960000D03*
X89916000Y-68834000D03*
X103124000Y-66480000D03*
X103124000Y-65600000D03*
X107442000Y-56642000D03*
X106680000Y-47244000D03*
X106172000Y-42858000D03*
X106172000Y-41978000D03*
X102108000Y-47244000D03*
X98044000Y-47752000D03*
X89408000Y-53848000D03*
X89408000Y-52968000D03*
X77978000Y-76200000D03*
X80264000Y-76200000D03*
X85852000Y-61722000D03*
X94742000Y-62738000D03*
X99314000Y-69088000D03*
X99314000Y-70866000D03*
X98044000Y-72644000D03*
X93726000Y-73914000D03*
X102870000Y-62992000D03*
X102870000Y-61468000D03*
X104902000Y-69596000D03*
X109728000Y-70612000D03*
X104140000Y-54356000D03*
X107696000Y-49784000D03*
X105664000Y-49784000D03*
X104140000Y-49784000D03*
X104140000Y-49784000D03*
X91186000Y-51054000D03*
X76962000Y-35814000D03*
X82042000Y-35814000D03*
X87122000Y-35814000D03*
X115316000Y-40132000D03*
X115316000Y-49530000D03*
X104648000Y-44704000D03*
X101346000Y-39116000D03*
X101346000Y-37592000D03*
X95758000Y-51308000D03*
X87376000Y-51562000D03*
X77470000Y-53086000D03*
X78232000Y-49276000D03*
X110617000Y-106426000D03*
X111867000Y-106426000D03*
X111867000Y-105176000D03*
X110617000Y-105176000D03*
X110490000Y-57658000D03*
X111740000Y-57658000D03*
X111740000Y-56408000D03*
X110490000Y-56408000D03*
X121910660Y-76200000D03*
X124714000Y-80010000D03*
X100584000Y-54102000D03*
X72644000Y-65024000D03*
X80772000Y-57658000D03*
X66548000Y-104648000D03*
X66548000Y-107188000D03*
X71120000Y-64008000D03*
X82296000Y-49784000D03*
X98552000Y-55372000D03*
X112776000Y-42672000D03*
X92710000Y-110617000D03*
X69088000Y-83566000D03*
X70612000Y-79248000D03*
X72898000Y-81534000D03*
X93004772Y-81210590D03*
X91694000Y-62738000D03*
X92456000Y-67564000D03*
X92964000Y-71120000D03*
X70288590Y-80956590D03*
X74462664Y-80656591D03*
X106934000Y-104648000D03*
X91440000Y-109220000D03*
X87630000Y-110490000D03*
X112776000Y-80772000D03*
X87376000Y-61722000D03*
X112268000Y-50038000D03*
X112268000Y-98298000D03*
X97794724Y-82365410D03*
X107696000Y-64262000D03*
X97790000Y-74168000D03*
X70612000Y-77724000D03*
X67310000Y-104140000D03*
X67564000Y-107188000D03*
X72713401Y-82550000D03*
X107188000Y-75184000D03*
X104902000Y-82042000D03*
X113142000Y-59172000D03*
X70612000Y-71120000D03*
X115570000Y-59944000D03*
X70866000Y-67818000D03*
X112522000Y-60520000D03*
X113099402Y-61934054D03*
X113002709Y-110970709D03*
X70866000Y-68580000D03*
X112268000Y-112014000D03*
X112522000Y-63630000D03*
X90932000Y-105156000D03*
X94615000Y-104775000D03*
X68580000Y-104140000D03*
X70612000Y-107188000D03*
X70362724Y-75622590D03*
X72390000Y-99822000D03*
X81280000Y-98552000D03*
X75692000Y-98298000D03*
X63373000Y-128085410D03*
X64456196Y-103377593D03*
X105410000Y-108839000D03*
X96138704Y-128622947D03*
X97790000Y-122682000D03*
X62738000Y-101600000D03*
X61468000Y-107188000D03*
X63373000Y-128837823D03*
X63703848Y-103367826D03*
X68649410Y-82594985D03*
X70612000Y-76962000D03*
X107307998Y-128789077D03*
X107696000Y-123202000D03*
X72644000Y-70358000D03*
X72644000Y-74930000D03*
X70612000Y-70104000D03*
X113030000Y-109474000D03*
X61214000Y-128524000D03*
X70358000Y-74168000D03*
X70612000Y-73152000D03*
X60198000Y-128778000D03*
X65208590Y-103382724D03*
X127508000Y-119634000D03*
X122936000Y-119634000D03*
X65278000Y-129540000D03*
X68326000Y-128016000D03*
X68072000Y-98806000D03*
X160528000Y-38354000D03*
X171704000Y-102108000D03*
X142748000Y-111506000D03*
X149606000Y-60452000D03*
X149098000Y-67564000D03*
X154432000Y-72390000D03*
X162814000Y-96520000D03*
X142748000Y-95504000D03*
X157480000Y-121158000D03*
X156972000Y-54864000D03*
X156718000Y-92710000D03*
X134112000Y-53086000D03*
X157099000Y-101473000D03*
X155448000Y-101092000D03*
X155448000Y-95250000D03*
X155702000Y-86614000D03*
X153924000Y-63500000D03*
X155702000Y-122174000D03*
X155448000Y-47244000D03*
X156464000Y-52324000D03*
X155575000Y-54610000D03*
X123952000Y-106172000D03*
X123952000Y-104394000D03*
X130810000Y-106680000D03*
X129794000Y-106680000D03*
X130048000Y-53848000D03*
X124460000Y-110490000D03*
X150876000Y-69088000D03*
X128524000Y-101600000D03*
X128524000Y-97282000D03*
X130048000Y-111252000D03*
X131318000Y-34798000D03*
X125730000Y-111506000D03*
X127000000Y-112522000D03*
X141986000Y-113030000D03*
X123825000Y-129286000D03*
X90043000Y-124333000D03*
X121666000Y-38100000D03*
X123952000Y-128016000D03*
X121666000Y-103124000D03*
X133096000Y-66802000D03*
X113816576Y-56624932D03*
X114046000Y-105156000D03*
D28*
X124460000Y-88900000D02*
X127000000Y-88900000D01*
X127000000Y-91440000D02*
X124460000Y-91440000D01*
X124460000Y-93980000D02*
X127000000Y-93980000D01*
X121920000Y-91440000D02*
X121920000Y-93980000D01*
X121920000Y-86360000D02*
X121920000Y-88900000D01*
X124460000Y-83820000D02*
X124460000Y-86360000D01*
X125476000Y-78994000D02*
X126746000Y-78994000D01*
X121158000Y-77978000D02*
X121158000Y-76962000D01*
X122290660Y-78152832D02*
X121332832Y-78152832D01*
X121332832Y-78152832D02*
X121158000Y-77978000D01*
X121412000Y-62230000D02*
X121412000Y-65532000D01*
X125984000Y-72136000D02*
X125984000Y-69850000D01*
D29*
X124714000Y-76962000D02*
X123952000Y-76200000D01*
X124714000Y-80010000D02*
X124714000Y-76962000D01*
X123952000Y-76200000D02*
X121910660Y-76200000D01*
D28*
X96774000Y-55880000D02*
X82550000Y-55880000D01*
X82550000Y-55880000D02*
X80772000Y-57658000D01*
X98552000Y-54102000D02*
X96774000Y-55880000D01*
X100584000Y-54102000D02*
X98552000Y-54102000D01*
X74930000Y-64516000D02*
X78277999Y-61168001D01*
X78277999Y-61168001D02*
X78277999Y-60152001D01*
X73314002Y-64516000D02*
X74930000Y-64516000D01*
X73106001Y-64724001D02*
X73314002Y-64516000D01*
X72644000Y-65024000D02*
X72943999Y-64724001D01*
X72943999Y-64724001D02*
X73106001Y-64724001D01*
X78277999Y-60152001D02*
X80772000Y-57658000D01*
X66548000Y-107188000D02*
X66548000Y-104648000D01*
X71120000Y-64008000D02*
X74759736Y-64008000D01*
X74759736Y-64008000D02*
X77724000Y-61043736D01*
X82296000Y-50800000D02*
X82296000Y-49784000D01*
X77724000Y-55372000D02*
X82296000Y-50800000D01*
X77724000Y-61043736D02*
X77724000Y-55372000D01*
X101854000Y-55372000D02*
X98552000Y-55372000D01*
X103886000Y-53340000D02*
X101854000Y-55372000D01*
X105918000Y-53340000D02*
X103886000Y-53340000D01*
X112776000Y-46482000D02*
X105918000Y-53340000D01*
X112776000Y-42672000D02*
X112776000Y-46482000D01*
X93726000Y-109601000D02*
X93726000Y-81931818D01*
X93726000Y-81931818D02*
X93004772Y-81210590D01*
X92710000Y-110617000D02*
X93726000Y-109601000D01*
X73406000Y-82804000D02*
X73406000Y-82042000D01*
X73406000Y-82042000D02*
X72898000Y-81534000D01*
X72898000Y-83312000D02*
X73406000Y-82804000D01*
X72644000Y-83312000D02*
X72898000Y-83312000D01*
X72390000Y-83566000D02*
X72644000Y-83312000D01*
X69088000Y-83566000D02*
X72390000Y-83566000D01*
X75438000Y-80772000D02*
X74676000Y-81534000D01*
X74676000Y-81534000D02*
X72898000Y-81534000D01*
X75438000Y-80264000D02*
X75438000Y-80772000D01*
X74930000Y-79756000D02*
X75438000Y-80264000D01*
X72898000Y-79756000D02*
X74930000Y-79756000D01*
X72390000Y-79248000D02*
X72898000Y-79756000D01*
X70612000Y-79248000D02*
X72390000Y-79248000D01*
X92202000Y-71882000D02*
X92202000Y-80407818D01*
X92964000Y-71120000D02*
X92202000Y-71882000D01*
X92202000Y-80407818D02*
X93004772Y-81210590D01*
X92456000Y-63500000D02*
X91694000Y-62738000D01*
X92456000Y-67564000D02*
X92456000Y-63500000D01*
X111760000Y-60452000D02*
X112452598Y-59759402D01*
X112452598Y-59759402D02*
X113342000Y-59772000D01*
X114115402Y-58904846D02*
X112567999Y-57357443D01*
X112567999Y-50337999D02*
X112268000Y-50038000D01*
X111760000Y-63500000D02*
X111760000Y-60452000D01*
X113342000Y-59772000D02*
X113542000Y-59772000D01*
X113542000Y-59772000D02*
X114115402Y-58904846D01*
X112567999Y-57357443D02*
X112567999Y-50337999D01*
X74162665Y-80956590D02*
X70288590Y-80956590D01*
X74462664Y-80656591D02*
X74162665Y-80956590D01*
X106934000Y-104648000D02*
X108966000Y-102616000D01*
X108966000Y-102616000D02*
X108966000Y-101600000D01*
X108966000Y-101600000D02*
X112268000Y-98298000D01*
X91440000Y-110236000D02*
X91440000Y-109220000D01*
X91186000Y-110490000D02*
X91440000Y-110236000D01*
X87630000Y-110490000D02*
X91186000Y-110490000D01*
X112776000Y-89662000D02*
X112776000Y-80772000D01*
X112776000Y-80772000D02*
X112776000Y-65786000D01*
X111760000Y-64770000D02*
X111760000Y-63500000D01*
X100584000Y-61722000D02*
X102616000Y-63754000D01*
X87376000Y-61722000D02*
X100584000Y-61722000D01*
X102616000Y-63754000D02*
X104784234Y-63754000D01*
X104784234Y-63754000D02*
X105038234Y-63500000D01*
X105038234Y-63500000D02*
X111760000Y-63500000D01*
X112776000Y-65786000D02*
X111760000Y-64770000D01*
X112268000Y-90170000D02*
X112776000Y-89662000D01*
X112268000Y-98298000D02*
X112268000Y-90170000D01*
X97790000Y-74168000D02*
X97790000Y-82360686D01*
X97790000Y-82360686D02*
X97794724Y-82365410D01*
D29*
X106934000Y-74168000D02*
X107696000Y-73406000D01*
X107696000Y-73406000D02*
X107696000Y-64262000D01*
X97790000Y-74168000D02*
X106934000Y-74168000D01*
D28*
X67564000Y-104394000D02*
X67310000Y-104140000D01*
X67564000Y-107188000D02*
X67564000Y-104394000D01*
X69342000Y-78994000D02*
X69342000Y-82042000D01*
X70612000Y-77724000D02*
X69342000Y-78994000D01*
X69342000Y-82042000D02*
X69850000Y-82550000D01*
X69850000Y-82550000D02*
X72713401Y-82550000D01*
X107188000Y-79756000D02*
X107188000Y-75184000D01*
X104902000Y-82042000D02*
X107188000Y-79756000D01*
X95052375Y-57912000D02*
X108458000Y-57912000D01*
X94765153Y-58199222D02*
X95052375Y-57912000D01*
X94210847Y-58199222D02*
X94765153Y-58199222D01*
X93923625Y-57912000D02*
X94210847Y-58199222D01*
X70612000Y-71120000D02*
X69850000Y-70358000D01*
X86106000Y-57912000D02*
X93923625Y-57912000D01*
X108458000Y-57912000D02*
X109728000Y-59182000D01*
X74676000Y-69342000D02*
X86106000Y-57912000D01*
X70104000Y-69342000D02*
X74676000Y-69342000D01*
X69850000Y-69596000D02*
X70104000Y-69342000D01*
X109728000Y-59182000D02*
X113113736Y-59182000D01*
X69850000Y-70358000D02*
X69850000Y-69596000D01*
X113113736Y-59182000D02*
X113142000Y-59172000D01*
X116078000Y-59436000D02*
X115570000Y-59944000D01*
X116078000Y-51816000D02*
X116078000Y-59436000D01*
X113030000Y-48768000D02*
X116078000Y-51816000D01*
X111760000Y-48768000D02*
X113030000Y-48768000D01*
X103886000Y-56642000D02*
X111760000Y-48768000D01*
X85852000Y-56642000D02*
X103886000Y-56642000D01*
X74676000Y-67818000D02*
X85852000Y-56642000D01*
X70866000Y-67818000D02*
X74676000Y-67818000D01*
X114405589Y-63240241D02*
X113099402Y-61934054D01*
X114448411Y-96221505D02*
X114448411Y-67228580D01*
X114405589Y-67185758D02*
X114405589Y-63240241D01*
X115929589Y-104735317D02*
X115929589Y-97702683D01*
X113002709Y-110970709D02*
X114151589Y-109821829D01*
X114448411Y-67228580D02*
X114405589Y-67185758D01*
X114151589Y-109821829D02*
X114151589Y-106513316D01*
X115929589Y-97702683D02*
X114448411Y-96221505D01*
X114151589Y-106513316D02*
X115929589Y-104735317D01*
X104245589Y-57044411D02*
X112014000Y-49276000D01*
X93384683Y-57044411D02*
X104245589Y-57044411D01*
X93279094Y-57150000D02*
X93384683Y-57044411D01*
X86106000Y-57150000D02*
X93279094Y-57150000D01*
X115675589Y-58983855D02*
X113792000Y-60867444D01*
X115675589Y-52490684D02*
X115675589Y-58983855D01*
X112460905Y-49276000D02*
X115675589Y-52490684D01*
X112014000Y-49276000D02*
X112460905Y-49276000D01*
X113792000Y-60867444D02*
X113792000Y-61722000D01*
X74676000Y-68580000D02*
X86106000Y-57150000D01*
X70866000Y-68580000D02*
X74676000Y-68580000D01*
X114808000Y-62738000D02*
X113792000Y-61722000D01*
X113792000Y-61722000D02*
X113284000Y-61214000D01*
X113284000Y-61214000D02*
X112776000Y-61214000D01*
X112776000Y-61214000D02*
X112522000Y-61468000D01*
X114554000Y-106680000D02*
X116332000Y-104902001D01*
X112522000Y-61468000D02*
X112522000Y-63630000D01*
X114554000Y-110236000D02*
X114554000Y-106680000D01*
X116332000Y-97535999D02*
X114850822Y-96054821D01*
X112776000Y-112014000D02*
X114554000Y-110236000D01*
X114850822Y-96054821D02*
X114850822Y-67061896D01*
X114850822Y-67061896D02*
X114808000Y-67019074D01*
X114808000Y-67019074D02*
X114808000Y-62738000D01*
X112268000Y-112014000D02*
X112776000Y-112014000D01*
X116332000Y-104902001D02*
X116332000Y-97535999D01*
X68580000Y-104731736D02*
X68580000Y-104140000D01*
X70612000Y-107188000D02*
X70612000Y-106763736D01*
X70612000Y-106763736D02*
X68580000Y-104731736D01*
X69938460Y-75622590D02*
X70362724Y-75622590D01*
X67606822Y-77954228D02*
X69938460Y-75622590D01*
X72390000Y-99822000D02*
X67606822Y-95038822D01*
X67606822Y-95038822D02*
X67606822Y-77954228D01*
X80726001Y-97998001D02*
X81280000Y-98552000D01*
X75692000Y-98298000D02*
X75991999Y-97998001D01*
X75991999Y-97998001D02*
X80726001Y-97998001D01*
X59795589Y-118722000D02*
X59795589Y-124507999D01*
X60285316Y-118215589D02*
X59795589Y-118722000D01*
X64456196Y-103377593D02*
X64456196Y-114044709D01*
X64456196Y-114044709D02*
X60285316Y-118215589D01*
X59795589Y-118722000D02*
X59795589Y-118722000D01*
X59795589Y-124507999D02*
X63373000Y-128085410D01*
D29*
X106045000Y-118618000D02*
X101981000Y-122682000D01*
X101981000Y-122682000D02*
X97790000Y-122682000D01*
X106045000Y-116205000D02*
X106045000Y-118618000D01*
X105410000Y-115570000D02*
X106045000Y-116205000D01*
X105410000Y-108839000D02*
X105410000Y-115570000D01*
D28*
X97790000Y-126971651D02*
X96138704Y-128622947D01*
X97790000Y-122682000D02*
X97790000Y-126971651D01*
X61468000Y-102870000D02*
X62738000Y-101600000D01*
X61468000Y-107188000D02*
X61468000Y-102870000D01*
X63703848Y-103367826D02*
X63703848Y-114227962D01*
X59393178Y-118522000D02*
X59393178Y-125282265D01*
X59393178Y-125282265D02*
X62948736Y-128837823D01*
X62948736Y-128837823D02*
X63373000Y-128837823D01*
X60118632Y-117813178D02*
X59393178Y-118522000D01*
X63703848Y-114227962D02*
X60118632Y-117813178D01*
X59393178Y-118522000D02*
X59393178Y-118522000D01*
X70612000Y-76962000D02*
X70187736Y-76962000D01*
X70187736Y-76962000D02*
X68649410Y-78500326D01*
X68649410Y-78500326D02*
X68649410Y-82594985D01*
X107696000Y-128401075D02*
X107307998Y-128789077D01*
X107696000Y-123202000D02*
X107696000Y-128401075D01*
X72644000Y-70358000D02*
X70866000Y-70358000D01*
X70866000Y-70358000D02*
X70612000Y-70104000D01*
X71826411Y-74985589D02*
X72588411Y-74985589D01*
X72588411Y-74985589D02*
X72644000Y-74930000D01*
X70612000Y-76200000D02*
X71826411Y-74985589D01*
X109303736Y-106172000D02*
X101854000Y-106172000D01*
X70104000Y-76200000D02*
X70612000Y-76200000D01*
X68072000Y-94488000D02*
X68072000Y-78232000D01*
X77724000Y-104140000D02*
X68072000Y-94488000D01*
X83820000Y-104140000D02*
X77724000Y-104140000D01*
X86868000Y-107188000D02*
X83820000Y-104140000D01*
X87376000Y-112522000D02*
X86868000Y-112014000D01*
X95504000Y-112522000D02*
X87376000Y-112522000D01*
X101854000Y-106172000D02*
X95504000Y-112522000D01*
X86868000Y-112014000D02*
X86868000Y-107188000D01*
X112605736Y-109474000D02*
X109303736Y-106172000D01*
X113030000Y-109474000D02*
X112605736Y-109474000D01*
X68072000Y-78232000D02*
X70104000Y-76200000D01*
X63140411Y-114222304D02*
X59951948Y-117410767D01*
X59951948Y-117410767D02*
X59697948Y-117410767D01*
X59697948Y-117410767D02*
X58990767Y-118117948D01*
X67204411Y-84090600D02*
X67204411Y-99012709D01*
X67204411Y-99012709D02*
X63126447Y-103090673D01*
X63126447Y-103090673D02*
X63126447Y-103644979D01*
X63126447Y-103644979D02*
X63140411Y-103658943D01*
X63140411Y-103658943D02*
X63140411Y-114222304D01*
X70358000Y-74168000D02*
X67204411Y-77321589D01*
X58990767Y-126300767D02*
X61214000Y-128524000D01*
X67013179Y-83899368D02*
X67204411Y-84090600D01*
X67013179Y-82216632D02*
X67013179Y-83899368D01*
X67204411Y-82025400D02*
X67013179Y-82216632D01*
X67204411Y-77321589D02*
X67204411Y-82025400D01*
X58990767Y-118117948D02*
X58990767Y-126300767D01*
X58588356Y-127168356D02*
X58588356Y-117951264D01*
X70187736Y-73152000D02*
X70612000Y-73152000D01*
X66802000Y-76537736D02*
X70187736Y-73152000D01*
X66802000Y-81858716D02*
X66802000Y-76537736D01*
X66610768Y-82049948D02*
X66802000Y-81858716D01*
X66610768Y-84066052D02*
X66610768Y-82049948D01*
X66802000Y-84257284D02*
X66610768Y-84066052D01*
X66802000Y-98806000D02*
X66802000Y-84257284D01*
X62724036Y-102883964D02*
X66802000Y-98806000D01*
X62724036Y-103811663D02*
X62724036Y-102883964D01*
X62738000Y-103825627D02*
X62724036Y-103811663D01*
X58588356Y-117951264D02*
X59531264Y-117008356D01*
X62738000Y-114055620D02*
X62738000Y-103825627D01*
X59785264Y-117008356D02*
X62738000Y-114055620D01*
X60198000Y-128778000D02*
X58588356Y-127168356D01*
X59531264Y-117008356D02*
X59785264Y-117008356D01*
X65208590Y-114046000D02*
X65208590Y-103382724D01*
X60198000Y-123698000D02*
X60198000Y-119056590D01*
X60198000Y-119056590D02*
X65208590Y-114046000D01*
X61976000Y-125476000D02*
X60198000Y-123698000D01*
X62103000Y-125476000D02*
X61976000Y-125476000D01*
X65278000Y-129540000D02*
X65278000Y-128651000D01*
X65278000Y-128651000D02*
X62103000Y-125476000D01*
X122936000Y-119634000D02*
X127508000Y-119634000D01*
X65786000Y-101092000D02*
X65786000Y-113030000D01*
X71628000Y-124968000D02*
X71628000Y-118872000D01*
X68580000Y-128016000D02*
X71628000Y-124968000D01*
X68326000Y-128016000D02*
X68580000Y-128016000D01*
X71628000Y-118872000D02*
X65786000Y-113030000D01*
X68072000Y-98806000D02*
X65786000Y-101092000D01*
D29*
X129794000Y-106680000D02*
X130810000Y-106680000D01*
X130810000Y-106680000D02*
X133096000Y-106680000D01*
D28*
X62738000Y-71374000D02*
X62738000Y-71302000D01*
X62738000Y-71302000D02*
X64040000Y-70000000D01*
X59588000Y-71374000D02*
X62738000Y-71374000D01*
X56540000Y-74422000D02*
X59588000Y-71374000D01*
X57784999Y-76327001D02*
X60430999Y-73681001D01*
X60430999Y-73681001D02*
X62898999Y-73681001D01*
X62898999Y-73681001D02*
X64040000Y-72540000D01*
X56540000Y-77089000D02*
X57301999Y-76327001D01*
X57301999Y-76327001D02*
X57784999Y-76327001D01*
X56540000Y-79883000D02*
X59944001Y-76478999D01*
X59944001Y-76478999D02*
X62641001Y-76478999D01*
X62641001Y-76478999D02*
X64040000Y-75080000D01*
X56540000Y-82677000D02*
X60198001Y-79018999D01*
X60198001Y-79018999D02*
X62641001Y-79018999D01*
X62641001Y-79018999D02*
X64040000Y-77620000D01*
X57301999Y-84430001D02*
X60430999Y-81301001D01*
X60430999Y-81301001D02*
X62898999Y-81301001D01*
X62898999Y-81301001D02*
X64040000Y-80160000D01*
X56540000Y-85471000D02*
X57301999Y-84709001D01*
X57301999Y-84709001D02*
X57301999Y-84430001D01*
D29*
X130048000Y-52578000D02*
X130048000Y-53848000D01*
X129032000Y-51562000D02*
X130048000Y-52578000D01*
X120904000Y-51562000D02*
X129032000Y-51562000D01*
X119888000Y-52578000D02*
X120904000Y-51562000D01*
X119888000Y-97536000D02*
X119888000Y-52578000D01*
X120396000Y-98044000D02*
X119888000Y-97536000D01*
X120396000Y-109474000D02*
X120396000Y-98044000D01*
X121412000Y-110490000D02*
X120396000Y-109474000D01*
X124460000Y-110490000D02*
X121412000Y-110490000D01*
D28*
X150876000Y-72136000D02*
X150876000Y-69088000D01*
X147828000Y-75184000D02*
X150876000Y-72136000D01*
X136144000Y-75184000D02*
X136652000Y-75184000D01*
X131572000Y-75184000D02*
X136144000Y-75184000D01*
X136144000Y-75184000D02*
X147828000Y-75184000D01*
X128524000Y-78232000D02*
X131572000Y-75184000D01*
X128524000Y-97282000D02*
X128524000Y-78232000D01*
X128524000Y-97282000D02*
X128524000Y-101600000D01*
D29*
X131318000Y-34798000D02*
X126746000Y-34798000D01*
X126746000Y-34798000D02*
X119126000Y-42418000D01*
X120396000Y-111506000D02*
X125730000Y-111506000D01*
X119126000Y-110236000D02*
X120396000Y-111506000D01*
X119126000Y-42418000D02*
X119126000Y-110236000D01*
X127508000Y-113030000D02*
X127000000Y-112522000D01*
X141986000Y-113030000D02*
X127508000Y-113030000D01*
X122555000Y-130556000D02*
X123825000Y-129286000D01*
X91440000Y-130556000D02*
X122555000Y-130556000D01*
X90043000Y-129159000D02*
X91440000Y-130556000D01*
X90043000Y-124333000D02*
X90043000Y-129159000D01*
X121666000Y-38100000D02*
X105156000Y-38100000D01*
X105156000Y-38100000D02*
X96774000Y-46482000D01*
X96774000Y-46482000D02*
X82804000Y-46482000D01*
X82804000Y-46482000D02*
X68580000Y-60706000D01*
X73152000Y-74168000D02*
X80924400Y-74168000D01*
X68580000Y-60706000D02*
X68580000Y-71882000D01*
X68580000Y-71882000D02*
X69088000Y-72390000D01*
X71374000Y-72390000D02*
X73152000Y-74168000D01*
X69088000Y-72390000D02*
X71374000Y-72390000D01*
X80924400Y-74168000D02*
X86614000Y-68478400D01*
X86614000Y-68478400D02*
X86614000Y-68326000D01*
X123952000Y-128016000D02*
X122428000Y-129540000D01*
X122428000Y-129540000D02*
X92710000Y-129540000D01*
X92710000Y-129540000D02*
X91186000Y-128016000D01*
X91186000Y-120904000D02*
X81788000Y-111506000D01*
X91186000Y-128016000D02*
X91186000Y-120904000D01*
X81788000Y-111506000D02*
X81788000Y-108966000D01*
D30*
G36*
X178487000Y-128449000D02*
X153416000Y-128449000D01*
X153192896Y-128493378D01*
X153003757Y-128619757D01*
X152877378Y-128808896D01*
X152833000Y-129032000D01*
X152833000Y-130989000D01*
X132461000Y-130989000D01*
X132461000Y-121648233D01*
X138481349Y-121648233D01*
X139052265Y-123029955D01*
X140108484Y-124088020D01*
X141489208Y-124661347D01*
X142984233Y-124662651D01*
X144365955Y-124091735D01*
X144950261Y-123508448D01*
X161967721Y-123508448D01*
X162212009Y-124099669D01*
X162663952Y-124552402D01*
X163254746Y-124797721D01*
X163894448Y-124798279D01*
X164485669Y-124553991D01*
X164938402Y-124102048D01*
X165183721Y-123511254D01*
X165184279Y-122871552D01*
X164939991Y-122280331D01*
X164488048Y-121827598D01*
X163897254Y-121582279D01*
X163257552Y-121581721D01*
X162666331Y-121826009D01*
X162213598Y-122277952D01*
X161968279Y-122868746D01*
X161967721Y-123508448D01*
X144950261Y-123508448D01*
X145424020Y-123035516D01*
X145715308Y-122334016D01*
X148797860Y-122334016D01*
X148920611Y-122631097D01*
X149147707Y-122858590D01*
X149444574Y-122981860D01*
X149766016Y-122982140D01*
X150063097Y-122859389D01*
X150290590Y-122632293D01*
X150413860Y-122335426D01*
X150414140Y-122013984D01*
X150291389Y-121716903D01*
X150064293Y-121489410D01*
X149767426Y-121366140D01*
X149445984Y-121365860D01*
X149148903Y-121488611D01*
X148921410Y-121715707D01*
X148798140Y-122012574D01*
X148797860Y-122334016D01*
X145715308Y-122334016D01*
X145997347Y-121654792D01*
X145998111Y-120778840D01*
X173591756Y-120778840D01*
X173805660Y-121296526D01*
X174201391Y-121692948D01*
X174718703Y-121907755D01*
X175278840Y-121908244D01*
X175796526Y-121694340D01*
X176192948Y-121298609D01*
X176407755Y-120781297D01*
X176408244Y-120221160D01*
X176194340Y-119703474D01*
X175798609Y-119307052D01*
X175281297Y-119092245D01*
X174721160Y-119091756D01*
X174203474Y-119305660D01*
X173807052Y-119701391D01*
X173592245Y-120218703D01*
X173591756Y-120778840D01*
X145998111Y-120778840D01*
X145998651Y-120159767D01*
X145427735Y-118778045D01*
X144371516Y-117719980D01*
X142990792Y-117146653D01*
X141495767Y-117145349D01*
X140114045Y-117716265D01*
X139055980Y-118772484D01*
X138482653Y-120153208D01*
X138481349Y-121648233D01*
X132461000Y-121648233D01*
X132461000Y-113713000D01*
X141526120Y-113713000D01*
X141527707Y-113714590D01*
X141824574Y-113837860D01*
X142146016Y-113838140D01*
X142443097Y-113715389D01*
X142670590Y-113488293D01*
X142793860Y-113191426D01*
X142794111Y-112903000D01*
X149449143Y-112903000D01*
X149553550Y-113427889D01*
X149850875Y-113872868D01*
X150295854Y-114170193D01*
X150820743Y-114274600D01*
X151185257Y-114274600D01*
X151710146Y-114170193D01*
X152155125Y-113872868D01*
X152452450Y-113427889D01*
X152556857Y-112903000D01*
X156307143Y-112903000D01*
X156411550Y-113427889D01*
X156708875Y-113872868D01*
X157153854Y-114170193D01*
X157678743Y-114274600D01*
X158043257Y-114274600D01*
X158568146Y-114170193D01*
X159013125Y-113872868D01*
X159310450Y-113427889D01*
X159414857Y-112903000D01*
X159310450Y-112378111D01*
X159013125Y-111933132D01*
X158730895Y-111744552D01*
X158877000Y-111744552D01*
X159065253Y-111709130D01*
X159238153Y-111597872D01*
X159354145Y-111428112D01*
X159394952Y-111226600D01*
X159394952Y-109499400D01*
X159359530Y-109311147D01*
X159248272Y-109138247D01*
X159078512Y-109022255D01*
X158877000Y-108981448D01*
X156845000Y-108981448D01*
X156656747Y-109016870D01*
X156483847Y-109128128D01*
X156367855Y-109297888D01*
X156327048Y-109499400D01*
X156327048Y-111226600D01*
X156362470Y-111414853D01*
X156473728Y-111587753D01*
X156643488Y-111703745D01*
X156845000Y-111744552D01*
X156991105Y-111744552D01*
X156708875Y-111933132D01*
X156411550Y-112378111D01*
X156307143Y-112903000D01*
X152556857Y-112903000D01*
X152452450Y-112378111D01*
X152155125Y-111933132D01*
X151872895Y-111744552D01*
X152019000Y-111744552D01*
X152207253Y-111709130D01*
X152380153Y-111597872D01*
X152496145Y-111428112D01*
X152536952Y-111226600D01*
X152536952Y-109499400D01*
X152501530Y-109311147D01*
X152390272Y-109138247D01*
X152220512Y-109022255D01*
X152019000Y-108981448D01*
X149987000Y-108981448D01*
X149798747Y-109016870D01*
X149625847Y-109128128D01*
X149509855Y-109297888D01*
X149469048Y-109499400D01*
X149469048Y-111226600D01*
X149504470Y-111414853D01*
X149615728Y-111587753D01*
X149785488Y-111703745D01*
X149987000Y-111744552D01*
X150133105Y-111744552D01*
X149850875Y-111933132D01*
X149553550Y-112378111D01*
X149449143Y-112903000D01*
X142794111Y-112903000D01*
X142794140Y-112869984D01*
X142671389Y-112572903D01*
X142444293Y-112345410D01*
X142147426Y-112222140D01*
X141825984Y-112221860D01*
X141528903Y-112344611D01*
X141526510Y-112347000D01*
X132461000Y-112347000D01*
X132461000Y-107778840D01*
X173591756Y-107778840D01*
X173805660Y-108296526D01*
X174201391Y-108692948D01*
X174718703Y-108907755D01*
X175278840Y-108908244D01*
X175796526Y-108694340D01*
X176192948Y-108298609D01*
X176407755Y-107781297D01*
X176408244Y-107221160D01*
X176194340Y-106703474D01*
X175798609Y-106307052D01*
X175281297Y-106092245D01*
X174721160Y-106091756D01*
X174203474Y-106305660D01*
X173807052Y-106701391D01*
X173592245Y-107218703D01*
X173591756Y-107778840D01*
X132461000Y-107778840D01*
X132461000Y-103569448D01*
X161078721Y-103569448D01*
X161323009Y-104160669D01*
X161774952Y-104613402D01*
X162365746Y-104858721D01*
X163005448Y-104859279D01*
X163596669Y-104614991D01*
X164049402Y-104163048D01*
X164294721Y-103572254D01*
X164295279Y-102932552D01*
X164050991Y-102341331D01*
X163599048Y-101888598D01*
X163008254Y-101643279D01*
X162368552Y-101642721D01*
X161777331Y-101887009D01*
X161324598Y-102338952D01*
X161079279Y-102929746D01*
X161078721Y-103569448D01*
X132461000Y-103569448D01*
X132461000Y-101252016D01*
X148797860Y-101252016D01*
X148920611Y-101549097D01*
X149147707Y-101776590D01*
X149444574Y-101899860D01*
X149766016Y-101900140D01*
X150063097Y-101777389D01*
X150290590Y-101550293D01*
X150413860Y-101253426D01*
X150414140Y-100931984D01*
X150291389Y-100634903D01*
X150064293Y-100407410D01*
X149767426Y-100284140D01*
X149445984Y-100283860D01*
X149148903Y-100406611D01*
X148921410Y-100633707D01*
X148798140Y-100930574D01*
X148797860Y-101252016D01*
X132461000Y-101252016D01*
X132461000Y-94778840D01*
X173591756Y-94778840D01*
X173805660Y-95296526D01*
X174201391Y-95692948D01*
X174718703Y-95907755D01*
X175278840Y-95908244D01*
X175796526Y-95694340D01*
X176192948Y-95298609D01*
X176407755Y-94781297D01*
X176408244Y-94221160D01*
X176194340Y-93703474D01*
X175798609Y-93307052D01*
X175281297Y-93092245D01*
X174721160Y-93091756D01*
X174203474Y-93305660D01*
X173807052Y-93701391D01*
X173592245Y-94218703D01*
X173591756Y-94778840D01*
X132461000Y-94778840D01*
X132461000Y-93886016D01*
X149305860Y-93886016D01*
X149428611Y-94183097D01*
X149655707Y-94410590D01*
X149952574Y-94533860D01*
X150274016Y-94534140D01*
X150571097Y-94411389D01*
X150798590Y-94184293D01*
X150921860Y-93887426D01*
X150922140Y-93565984D01*
X150799389Y-93268903D01*
X150572293Y-93041410D01*
X150275426Y-92918140D01*
X149953984Y-92917860D01*
X149656903Y-93040611D01*
X149429410Y-93267707D01*
X149306140Y-93564574D01*
X149305860Y-93886016D01*
X132461000Y-93886016D01*
X132461000Y-89468448D01*
X160481721Y-89468448D01*
X160726009Y-90059669D01*
X161177952Y-90512402D01*
X161768746Y-90757721D01*
X162408448Y-90758279D01*
X162999669Y-90513991D01*
X163452402Y-90062048D01*
X163697721Y-89471254D01*
X163698279Y-88831552D01*
X163453991Y-88240331D01*
X163002048Y-87787598D01*
X162411254Y-87542279D01*
X161771552Y-87541721D01*
X161180331Y-87786009D01*
X160727598Y-88237952D01*
X160482279Y-88828746D01*
X160481721Y-89468448D01*
X132461000Y-89468448D01*
X132461000Y-86774016D01*
X148797860Y-86774016D01*
X148920611Y-87071097D01*
X149147707Y-87298590D01*
X149444574Y-87421860D01*
X149766016Y-87422140D01*
X150063097Y-87299389D01*
X150290590Y-87072293D01*
X150413860Y-86775426D01*
X150414140Y-86453984D01*
X150291389Y-86156903D01*
X150064293Y-85929410D01*
X149767426Y-85806140D01*
X149445984Y-85805860D01*
X149148903Y-85928611D01*
X148921410Y-86155707D01*
X148798140Y-86452574D01*
X148797860Y-86774016D01*
X132461000Y-86774016D01*
X132461000Y-79430000D01*
X166536908Y-79430000D01*
X166536908Y-83130000D01*
X166572330Y-83318253D01*
X166683588Y-83491153D01*
X166853348Y-83607145D01*
X167054860Y-83647952D01*
X170754860Y-83647952D01*
X170943113Y-83612530D01*
X171116013Y-83501272D01*
X171232005Y-83331512D01*
X171272812Y-83130000D01*
X171272812Y-79529940D01*
X172636328Y-79529940D01*
X172636328Y-83030060D01*
X172671750Y-83218313D01*
X172783008Y-83391213D01*
X172952768Y-83507205D01*
X173154280Y-83548012D01*
X176654400Y-83548012D01*
X176842653Y-83512590D01*
X177015553Y-83401332D01*
X177131545Y-83231572D01*
X177172352Y-83030060D01*
X177172352Y-79529940D01*
X177136930Y-79341687D01*
X177025672Y-79168787D01*
X176855912Y-79052795D01*
X176654400Y-79011988D01*
X173154280Y-79011988D01*
X172966027Y-79047410D01*
X172793127Y-79158668D01*
X172677135Y-79328428D01*
X172636328Y-79529940D01*
X171272812Y-79529940D01*
X171272812Y-79430000D01*
X171237390Y-79241747D01*
X171126132Y-79068847D01*
X170956372Y-78952855D01*
X170754860Y-78912048D01*
X167054860Y-78912048D01*
X166866607Y-78947470D01*
X166693707Y-79058728D01*
X166577715Y-79228488D01*
X166536908Y-79430000D01*
X132461000Y-79430000D01*
X132461000Y-75817000D01*
X147827995Y-75817000D01*
X147828000Y-75817001D01*
X148070239Y-75768816D01*
X148275599Y-75631599D01*
X150683455Y-73223743D01*
X155600400Y-73223743D01*
X155600400Y-73588257D01*
X155704807Y-74113146D01*
X156002132Y-74558125D01*
X156447111Y-74855450D01*
X156972000Y-74959857D01*
X157496889Y-74855450D01*
X157941868Y-74558125D01*
X158239193Y-74113146D01*
X158343600Y-73588257D01*
X158343600Y-73223743D01*
X158239193Y-72698854D01*
X158032824Y-72390000D01*
X160670448Y-72390000D01*
X160670448Y-74422000D01*
X160705870Y-74610253D01*
X160817128Y-74783153D01*
X160986888Y-74899145D01*
X161188400Y-74939952D01*
X162915600Y-74939952D01*
X163103853Y-74904530D01*
X163218215Y-74830940D01*
X169636588Y-74830940D01*
X169636588Y-78331060D01*
X169672010Y-78519313D01*
X169783268Y-78692213D01*
X169953028Y-78808205D01*
X170154540Y-78849012D01*
X173654660Y-78849012D01*
X173842913Y-78813590D01*
X174015813Y-78702332D01*
X174131805Y-78532572D01*
X174172612Y-78331060D01*
X174172612Y-74830940D01*
X174137190Y-74642687D01*
X174025932Y-74469787D01*
X173856172Y-74353795D01*
X173654660Y-74312988D01*
X170154540Y-74312988D01*
X169966287Y-74348410D01*
X169793387Y-74459668D01*
X169677395Y-74629428D01*
X169636588Y-74830940D01*
X163218215Y-74830940D01*
X163276753Y-74793272D01*
X163392745Y-74623512D01*
X163433552Y-74422000D01*
X163433552Y-72390000D01*
X163398130Y-72201747D01*
X163286872Y-72028847D01*
X163117112Y-71912855D01*
X162915600Y-71872048D01*
X161188400Y-71872048D01*
X161000147Y-71907470D01*
X160827247Y-72018728D01*
X160711255Y-72188488D01*
X160670448Y-72390000D01*
X158032824Y-72390000D01*
X157941868Y-72253875D01*
X157496889Y-71956550D01*
X156972000Y-71852143D01*
X156447111Y-71956550D01*
X156002132Y-72253875D01*
X155704807Y-72698854D01*
X155600400Y-73223743D01*
X150683455Y-73223743D01*
X151323599Y-72583599D01*
X151406926Y-72458891D01*
X151460816Y-72378239D01*
X151468810Y-72338048D01*
X151509001Y-72136000D01*
X151509000Y-72135995D01*
X151509000Y-69597793D01*
X151560590Y-69546293D01*
X151683860Y-69249426D01*
X151684140Y-68927984D01*
X151561389Y-68630903D01*
X151334293Y-68403410D01*
X151037426Y-68280140D01*
X150715984Y-68279860D01*
X150418903Y-68402611D01*
X150191410Y-68629707D01*
X150068140Y-68926574D01*
X150067860Y-69248016D01*
X150190611Y-69545097D01*
X150243000Y-69597578D01*
X150243000Y-71873802D01*
X147565802Y-74551000D01*
X132461000Y-74551000D01*
X132461000Y-71882000D01*
X134606977Y-71882000D01*
X134721728Y-72458891D01*
X135048511Y-72947956D01*
X135537576Y-73274739D01*
X136114467Y-73389490D01*
X136173533Y-73389490D01*
X136750424Y-73274739D01*
X137185813Y-72983821D01*
X137201980Y-73069743D01*
X137313238Y-73242643D01*
X137482998Y-73358635D01*
X137684510Y-73399442D01*
X139683490Y-73399442D01*
X139871743Y-73364020D01*
X140044643Y-73252762D01*
X140160635Y-73083002D01*
X140201442Y-72881490D01*
X140201442Y-70882510D01*
X140166020Y-70694257D01*
X140054762Y-70521357D01*
X139885002Y-70405365D01*
X139683490Y-70364558D01*
X137684510Y-70364558D01*
X137496257Y-70399980D01*
X137323357Y-70511238D01*
X137207365Y-70680998D01*
X137187106Y-70781042D01*
X136750424Y-70489261D01*
X136173533Y-70374510D01*
X136114467Y-70374510D01*
X135537576Y-70489261D01*
X135048511Y-70816044D01*
X134721728Y-71305109D01*
X134606977Y-71882000D01*
X132461000Y-71882000D01*
X132461000Y-68178840D01*
X173591756Y-68178840D01*
X173805660Y-68696526D01*
X174201391Y-69092948D01*
X174718703Y-69307755D01*
X175278840Y-69308244D01*
X175796526Y-69094340D01*
X176192948Y-68698609D01*
X176407755Y-68181297D01*
X176408244Y-67621160D01*
X176194340Y-67103474D01*
X175798609Y-66707052D01*
X175281297Y-66492245D01*
X174721160Y-66491756D01*
X174203474Y-66705660D01*
X173807052Y-67101391D01*
X173592245Y-67618703D01*
X173591756Y-68178840D01*
X132461000Y-68178840D01*
X132461000Y-67309574D01*
X132637707Y-67486590D01*
X132934574Y-67609860D01*
X133256016Y-67610140D01*
X133553097Y-67487389D01*
X133780590Y-67260293D01*
X133903860Y-66963426D01*
X133904140Y-66641984D01*
X133781389Y-66344903D01*
X133554293Y-66117410D01*
X133257426Y-65994140D01*
X132935984Y-65993860D01*
X132638903Y-66116611D01*
X132461000Y-66294204D01*
X132461000Y-65438016D01*
X136859860Y-65438016D01*
X136982611Y-65735097D01*
X137209707Y-65962590D01*
X137506574Y-66085860D01*
X137828016Y-66086140D01*
X138125097Y-65963389D01*
X138352590Y-65736293D01*
X138475860Y-65439426D01*
X138476140Y-65117984D01*
X138353389Y-64820903D01*
X138126293Y-64593410D01*
X137829426Y-64470140D01*
X137507984Y-64469860D01*
X137210903Y-64592611D01*
X136983410Y-64819707D01*
X136860140Y-65116574D01*
X136859860Y-65438016D01*
X132461000Y-65438016D01*
X132461000Y-63825743D01*
X155600400Y-63825743D01*
X155600400Y-64190257D01*
X155704807Y-64715146D01*
X156002132Y-65160125D01*
X156447111Y-65457450D01*
X156972000Y-65561857D01*
X157496889Y-65457450D01*
X157941868Y-65160125D01*
X158239193Y-64715146D01*
X158343600Y-64190257D01*
X158343600Y-63825743D01*
X158239193Y-63300854D01*
X158032824Y-62992000D01*
X160670448Y-62992000D01*
X160670448Y-65024000D01*
X160705870Y-65212253D01*
X160817128Y-65385153D01*
X160986888Y-65501145D01*
X161188400Y-65541952D01*
X162915600Y-65541952D01*
X163103853Y-65506530D01*
X163276753Y-65395272D01*
X163392745Y-65225512D01*
X163433552Y-65024000D01*
X163433552Y-62992000D01*
X163398130Y-62803747D01*
X163286872Y-62630847D01*
X163117112Y-62514855D01*
X162915600Y-62474048D01*
X161188400Y-62474048D01*
X161000147Y-62509470D01*
X160827247Y-62620728D01*
X160711255Y-62790488D01*
X160670448Y-62992000D01*
X158032824Y-62992000D01*
X157941868Y-62855875D01*
X157496889Y-62558550D01*
X156972000Y-62454143D01*
X156447111Y-62558550D01*
X156002132Y-62855875D01*
X155704807Y-63300854D01*
X155600400Y-63825743D01*
X132461000Y-63825743D01*
X132461000Y-54770016D01*
X148924860Y-54770016D01*
X149047611Y-55067097D01*
X149274707Y-55294590D01*
X149571574Y-55417860D01*
X149893016Y-55418140D01*
X150190097Y-55295389D01*
X150306849Y-55178840D01*
X173591756Y-55178840D01*
X173805660Y-55696526D01*
X174201391Y-56092948D01*
X174718703Y-56307755D01*
X175278840Y-56308244D01*
X175796526Y-56094340D01*
X176192948Y-55698609D01*
X176407755Y-55181297D01*
X176408244Y-54621160D01*
X176194340Y-54103474D01*
X175798609Y-53707052D01*
X175281297Y-53492245D01*
X174721160Y-53491756D01*
X174203474Y-53705660D01*
X173807052Y-54101391D01*
X173592245Y-54618703D01*
X173591756Y-55178840D01*
X150306849Y-55178840D01*
X150417590Y-55068293D01*
X150540860Y-54771426D01*
X150541140Y-54449984D01*
X150418389Y-54152903D01*
X150191293Y-53925410D01*
X149894426Y-53802140D01*
X149572984Y-53801860D01*
X149275903Y-53924611D01*
X149048410Y-54151707D01*
X148925140Y-54448574D01*
X148924860Y-54770016D01*
X132461000Y-54770016D01*
X132461000Y-49848448D01*
X160951721Y-49848448D01*
X161196009Y-50439669D01*
X161647952Y-50892402D01*
X162238746Y-51137721D01*
X162878448Y-51138279D01*
X163469669Y-50893991D01*
X163922402Y-50442048D01*
X164167721Y-49851254D01*
X164168279Y-49211552D01*
X163923991Y-48620331D01*
X163472048Y-48167598D01*
X162881254Y-47922279D01*
X162241552Y-47921721D01*
X161650331Y-48166009D01*
X161197598Y-48617952D01*
X160952279Y-49208746D01*
X160951721Y-49848448D01*
X132461000Y-49848448D01*
X132461000Y-47404016D01*
X149051860Y-47404016D01*
X149174611Y-47701097D01*
X149401707Y-47928590D01*
X149698574Y-48051860D01*
X150020016Y-48052140D01*
X150317097Y-47929389D01*
X150544590Y-47702293D01*
X150667860Y-47405426D01*
X150668140Y-47083984D01*
X150545389Y-46786903D01*
X150318293Y-46559410D01*
X150021426Y-46436140D01*
X149699984Y-46435860D01*
X149402903Y-46558611D01*
X149175410Y-46785707D01*
X149052140Y-47082574D01*
X149051860Y-47404016D01*
X132461000Y-47404016D01*
X132461000Y-42273233D01*
X138481349Y-42273233D01*
X139052265Y-43654955D01*
X140108484Y-44713020D01*
X141489208Y-45286347D01*
X142984233Y-45287651D01*
X144365955Y-44716735D01*
X145424020Y-43660516D01*
X145997347Y-42279792D01*
X145997435Y-42178840D01*
X173591756Y-42178840D01*
X173805660Y-42696526D01*
X174201391Y-43092948D01*
X174718703Y-43307755D01*
X175278840Y-43308244D01*
X175796526Y-43094340D01*
X176192948Y-42698609D01*
X176407755Y-42181297D01*
X176408244Y-41621160D01*
X176194340Y-41103474D01*
X175798609Y-40707052D01*
X175281297Y-40492245D01*
X174721160Y-40491756D01*
X174203474Y-40705660D01*
X173807052Y-41101391D01*
X173592245Y-41618703D01*
X173591756Y-42178840D01*
X145997435Y-42178840D01*
X145998651Y-40784767D01*
X145427735Y-39403045D01*
X144371516Y-38344980D01*
X142990792Y-37771653D01*
X141495767Y-37770349D01*
X140114045Y-38341265D01*
X139055980Y-39397484D01*
X138482653Y-40778208D01*
X138481349Y-42273233D01*
X132461000Y-42273233D01*
X132461000Y-31571000D01*
X178487000Y-31571000D01*
X178487000Y-128449000D01*
X178487000Y-128449000D01*
G37*
X178487000Y-128449000D02*
X153416000Y-128449000D01*
X153192896Y-128493378D01*
X153003757Y-128619757D01*
X152877378Y-128808896D01*
X152833000Y-129032000D01*
X152833000Y-130989000D01*
X132461000Y-130989000D01*
X132461000Y-121648233D01*
X138481349Y-121648233D01*
X139052265Y-123029955D01*
X140108484Y-124088020D01*
X141489208Y-124661347D01*
X142984233Y-124662651D01*
X144365955Y-124091735D01*
X144950261Y-123508448D01*
X161967721Y-123508448D01*
X162212009Y-124099669D01*
X162663952Y-124552402D01*
X163254746Y-124797721D01*
X163894448Y-124798279D01*
X164485669Y-124553991D01*
X164938402Y-124102048D01*
X165183721Y-123511254D01*
X165184279Y-122871552D01*
X164939991Y-122280331D01*
X164488048Y-121827598D01*
X163897254Y-121582279D01*
X163257552Y-121581721D01*
X162666331Y-121826009D01*
X162213598Y-122277952D01*
X161968279Y-122868746D01*
X161967721Y-123508448D01*
X144950261Y-123508448D01*
X145424020Y-123035516D01*
X145715308Y-122334016D01*
X148797860Y-122334016D01*
X148920611Y-122631097D01*
X149147707Y-122858590D01*
X149444574Y-122981860D01*
X149766016Y-122982140D01*
X150063097Y-122859389D01*
X150290590Y-122632293D01*
X150413860Y-122335426D01*
X150414140Y-122013984D01*
X150291389Y-121716903D01*
X150064293Y-121489410D01*
X149767426Y-121366140D01*
X149445984Y-121365860D01*
X149148903Y-121488611D01*
X148921410Y-121715707D01*
X148798140Y-122012574D01*
X148797860Y-122334016D01*
X145715308Y-122334016D01*
X145997347Y-121654792D01*
X145998111Y-120778840D01*
X173591756Y-120778840D01*
X173805660Y-121296526D01*
X174201391Y-121692948D01*
X174718703Y-121907755D01*
X175278840Y-121908244D01*
X175796526Y-121694340D01*
X176192948Y-121298609D01*
X176407755Y-120781297D01*
X176408244Y-120221160D01*
X176194340Y-119703474D01*
X175798609Y-119307052D01*
X175281297Y-119092245D01*
X174721160Y-119091756D01*
X174203474Y-119305660D01*
X173807052Y-119701391D01*
X173592245Y-120218703D01*
X173591756Y-120778840D01*
X145998111Y-120778840D01*
X145998651Y-120159767D01*
X145427735Y-118778045D01*
X144371516Y-117719980D01*
X142990792Y-117146653D01*
X141495767Y-117145349D01*
X140114045Y-117716265D01*
X139055980Y-118772484D01*
X138482653Y-120153208D01*
X138481349Y-121648233D01*
X132461000Y-121648233D01*
X132461000Y-113713000D01*
X141526120Y-113713000D01*
X141527707Y-113714590D01*
X141824574Y-113837860D01*
X142146016Y-113838140D01*
X142443097Y-113715389D01*
X142670590Y-113488293D01*
X142793860Y-113191426D01*
X142794111Y-112903000D01*
X149449143Y-112903000D01*
X149553550Y-113427889D01*
X149850875Y-113872868D01*
X150295854Y-114170193D01*
X150820743Y-114274600D01*
X151185257Y-114274600D01*
X151710146Y-114170193D01*
X152155125Y-113872868D01*
X152452450Y-113427889D01*
X152556857Y-112903000D01*
X156307143Y-112903000D01*
X156411550Y-113427889D01*
X156708875Y-113872868D01*
X157153854Y-114170193D01*
X157678743Y-114274600D01*
X158043257Y-114274600D01*
X158568146Y-114170193D01*
X159013125Y-113872868D01*
X159310450Y-113427889D01*
X159414857Y-112903000D01*
X159310450Y-112378111D01*
X159013125Y-111933132D01*
X158730895Y-111744552D01*
X158877000Y-111744552D01*
X159065253Y-111709130D01*
X159238153Y-111597872D01*
X159354145Y-111428112D01*
X159394952Y-111226600D01*
X159394952Y-109499400D01*
X159359530Y-109311147D01*
X159248272Y-109138247D01*
X159078512Y-109022255D01*
X158877000Y-108981448D01*
X156845000Y-108981448D01*
X156656747Y-109016870D01*
X156483847Y-109128128D01*
X156367855Y-109297888D01*
X156327048Y-109499400D01*
X156327048Y-111226600D01*
X156362470Y-111414853D01*
X156473728Y-111587753D01*
X156643488Y-111703745D01*
X156845000Y-111744552D01*
X156991105Y-111744552D01*
X156708875Y-111933132D01*
X156411550Y-112378111D01*
X156307143Y-112903000D01*
X152556857Y-112903000D01*
X152452450Y-112378111D01*
X152155125Y-111933132D01*
X151872895Y-111744552D01*
X152019000Y-111744552D01*
X152207253Y-111709130D01*
X152380153Y-111597872D01*
X152496145Y-111428112D01*
X152536952Y-111226600D01*
X152536952Y-109499400D01*
X152501530Y-109311147D01*
X152390272Y-109138247D01*
X152220512Y-109022255D01*
X152019000Y-108981448D01*
X149987000Y-108981448D01*
X149798747Y-109016870D01*
X149625847Y-109128128D01*
X149509855Y-109297888D01*
X149469048Y-109499400D01*
X149469048Y-111226600D01*
X149504470Y-111414853D01*
X149615728Y-111587753D01*
X149785488Y-111703745D01*
X149987000Y-111744552D01*
X150133105Y-111744552D01*
X149850875Y-111933132D01*
X149553550Y-112378111D01*
X149449143Y-112903000D01*
X142794111Y-112903000D01*
X142794140Y-112869984D01*
X142671389Y-112572903D01*
X142444293Y-112345410D01*
X142147426Y-112222140D01*
X141825984Y-112221860D01*
X141528903Y-112344611D01*
X141526510Y-112347000D01*
X132461000Y-112347000D01*
X132461000Y-107778840D01*
X173591756Y-107778840D01*
X173805660Y-108296526D01*
X174201391Y-108692948D01*
X174718703Y-108907755D01*
X175278840Y-108908244D01*
X175796526Y-108694340D01*
X176192948Y-108298609D01*
X176407755Y-107781297D01*
X176408244Y-107221160D01*
X176194340Y-106703474D01*
X175798609Y-106307052D01*
X175281297Y-106092245D01*
X174721160Y-106091756D01*
X174203474Y-106305660D01*
X173807052Y-106701391D01*
X173592245Y-107218703D01*
X173591756Y-107778840D01*
X132461000Y-107778840D01*
X132461000Y-103569448D01*
X161078721Y-103569448D01*
X161323009Y-104160669D01*
X161774952Y-104613402D01*
X162365746Y-104858721D01*
X163005448Y-104859279D01*
X163596669Y-104614991D01*
X164049402Y-104163048D01*
X164294721Y-103572254D01*
X164295279Y-102932552D01*
X164050991Y-102341331D01*
X163599048Y-101888598D01*
X163008254Y-101643279D01*
X162368552Y-101642721D01*
X161777331Y-101887009D01*
X161324598Y-102338952D01*
X161079279Y-102929746D01*
X161078721Y-103569448D01*
X132461000Y-103569448D01*
X132461000Y-101252016D01*
X148797860Y-101252016D01*
X148920611Y-101549097D01*
X149147707Y-101776590D01*
X149444574Y-101899860D01*
X149766016Y-101900140D01*
X150063097Y-101777389D01*
X150290590Y-101550293D01*
X150413860Y-101253426D01*
X150414140Y-100931984D01*
X150291389Y-100634903D01*
X150064293Y-100407410D01*
X149767426Y-100284140D01*
X149445984Y-100283860D01*
X149148903Y-100406611D01*
X148921410Y-100633707D01*
X148798140Y-100930574D01*
X148797860Y-101252016D01*
X132461000Y-101252016D01*
X132461000Y-94778840D01*
X173591756Y-94778840D01*
X173805660Y-95296526D01*
X174201391Y-95692948D01*
X174718703Y-95907755D01*
X175278840Y-95908244D01*
X175796526Y-95694340D01*
X176192948Y-95298609D01*
X176407755Y-94781297D01*
X176408244Y-94221160D01*
X176194340Y-93703474D01*
X175798609Y-93307052D01*
X175281297Y-93092245D01*
X174721160Y-93091756D01*
X174203474Y-93305660D01*
X173807052Y-93701391D01*
X173592245Y-94218703D01*
X173591756Y-94778840D01*
X132461000Y-94778840D01*
X132461000Y-93886016D01*
X149305860Y-93886016D01*
X149428611Y-94183097D01*
X149655707Y-94410590D01*
X149952574Y-94533860D01*
X150274016Y-94534140D01*
X150571097Y-94411389D01*
X150798590Y-94184293D01*
X150921860Y-93887426D01*
X150922140Y-93565984D01*
X150799389Y-93268903D01*
X150572293Y-93041410D01*
X150275426Y-92918140D01*
X149953984Y-92917860D01*
X149656903Y-93040611D01*
X149429410Y-93267707D01*
X149306140Y-93564574D01*
X149305860Y-93886016D01*
X132461000Y-93886016D01*
X132461000Y-89468448D01*
X160481721Y-89468448D01*
X160726009Y-90059669D01*
X161177952Y-90512402D01*
X161768746Y-90757721D01*
X162408448Y-90758279D01*
X162999669Y-90513991D01*
X163452402Y-90062048D01*
X163697721Y-89471254D01*
X163698279Y-88831552D01*
X163453991Y-88240331D01*
X163002048Y-87787598D01*
X162411254Y-87542279D01*
X161771552Y-87541721D01*
X161180331Y-87786009D01*
X160727598Y-88237952D01*
X160482279Y-88828746D01*
X160481721Y-89468448D01*
X132461000Y-89468448D01*
X132461000Y-86774016D01*
X148797860Y-86774016D01*
X148920611Y-87071097D01*
X149147707Y-87298590D01*
X149444574Y-87421860D01*
X149766016Y-87422140D01*
X150063097Y-87299389D01*
X150290590Y-87072293D01*
X150413860Y-86775426D01*
X150414140Y-86453984D01*
X150291389Y-86156903D01*
X150064293Y-85929410D01*
X149767426Y-85806140D01*
X149445984Y-85805860D01*
X149148903Y-85928611D01*
X148921410Y-86155707D01*
X148798140Y-86452574D01*
X148797860Y-86774016D01*
X132461000Y-86774016D01*
X132461000Y-79430000D01*
X166536908Y-79430000D01*
X166536908Y-83130000D01*
X166572330Y-83318253D01*
X166683588Y-83491153D01*
X166853348Y-83607145D01*
X167054860Y-83647952D01*
X170754860Y-83647952D01*
X170943113Y-83612530D01*
X171116013Y-83501272D01*
X171232005Y-83331512D01*
X171272812Y-83130000D01*
X171272812Y-79529940D01*
X172636328Y-79529940D01*
X172636328Y-83030060D01*
X172671750Y-83218313D01*
X172783008Y-83391213D01*
X172952768Y-83507205D01*
X173154280Y-83548012D01*
X176654400Y-83548012D01*
X176842653Y-83512590D01*
X177015553Y-83401332D01*
X177131545Y-83231572D01*
X177172352Y-83030060D01*
X177172352Y-79529940D01*
X177136930Y-79341687D01*
X177025672Y-79168787D01*
X176855912Y-79052795D01*
X176654400Y-79011988D01*
X173154280Y-79011988D01*
X172966027Y-79047410D01*
X172793127Y-79158668D01*
X172677135Y-79328428D01*
X172636328Y-79529940D01*
X171272812Y-79529940D01*
X171272812Y-79430000D01*
X171237390Y-79241747D01*
X171126132Y-79068847D01*
X170956372Y-78952855D01*
X170754860Y-78912048D01*
X167054860Y-78912048D01*
X166866607Y-78947470D01*
X166693707Y-79058728D01*
X166577715Y-79228488D01*
X166536908Y-79430000D01*
X132461000Y-79430000D01*
X132461000Y-75817000D01*
X147827995Y-75817000D01*
X147828000Y-75817001D01*
X148070239Y-75768816D01*
X148275599Y-75631599D01*
X150683455Y-73223743D01*
X155600400Y-73223743D01*
X155600400Y-73588257D01*
X155704807Y-74113146D01*
X156002132Y-74558125D01*
X156447111Y-74855450D01*
X156972000Y-74959857D01*
X157496889Y-74855450D01*
X157941868Y-74558125D01*
X158239193Y-74113146D01*
X158343600Y-73588257D01*
X158343600Y-73223743D01*
X158239193Y-72698854D01*
X158032824Y-72390000D01*
X160670448Y-72390000D01*
X160670448Y-74422000D01*
X160705870Y-74610253D01*
X160817128Y-74783153D01*
X160986888Y-74899145D01*
X161188400Y-74939952D01*
X162915600Y-74939952D01*
X163103853Y-74904530D01*
X163218215Y-74830940D01*
X169636588Y-74830940D01*
X169636588Y-78331060D01*
X169672010Y-78519313D01*
X169783268Y-78692213D01*
X169953028Y-78808205D01*
X170154540Y-78849012D01*
X173654660Y-78849012D01*
X173842913Y-78813590D01*
X174015813Y-78702332D01*
X174131805Y-78532572D01*
X174172612Y-78331060D01*
X174172612Y-74830940D01*
X174137190Y-74642687D01*
X174025932Y-74469787D01*
X173856172Y-74353795D01*
X173654660Y-74312988D01*
X170154540Y-74312988D01*
X169966287Y-74348410D01*
X169793387Y-74459668D01*
X169677395Y-74629428D01*
X169636588Y-74830940D01*
X163218215Y-74830940D01*
X163276753Y-74793272D01*
X163392745Y-74623512D01*
X163433552Y-74422000D01*
X163433552Y-72390000D01*
X163398130Y-72201747D01*
X163286872Y-72028847D01*
X163117112Y-71912855D01*
X162915600Y-71872048D01*
X161188400Y-71872048D01*
X161000147Y-71907470D01*
X160827247Y-72018728D01*
X160711255Y-72188488D01*
X160670448Y-72390000D01*
X158032824Y-72390000D01*
X157941868Y-72253875D01*
X157496889Y-71956550D01*
X156972000Y-71852143D01*
X156447111Y-71956550D01*
X156002132Y-72253875D01*
X155704807Y-72698854D01*
X155600400Y-73223743D01*
X150683455Y-73223743D01*
X151323599Y-72583599D01*
X151406926Y-72458891D01*
X151460816Y-72378239D01*
X151468810Y-72338048D01*
X151509001Y-72136000D01*
X151509000Y-72135995D01*
X151509000Y-69597793D01*
X151560590Y-69546293D01*
X151683860Y-69249426D01*
X151684140Y-68927984D01*
X151561389Y-68630903D01*
X151334293Y-68403410D01*
X151037426Y-68280140D01*
X150715984Y-68279860D01*
X150418903Y-68402611D01*
X150191410Y-68629707D01*
X150068140Y-68926574D01*
X150067860Y-69248016D01*
X150190611Y-69545097D01*
X150243000Y-69597578D01*
X150243000Y-71873802D01*
X147565802Y-74551000D01*
X132461000Y-74551000D01*
X132461000Y-71882000D01*
X134606977Y-71882000D01*
X134721728Y-72458891D01*
X135048511Y-72947956D01*
X135537576Y-73274739D01*
X136114467Y-73389490D01*
X136173533Y-73389490D01*
X136750424Y-73274739D01*
X137185813Y-72983821D01*
X137201980Y-73069743D01*
X137313238Y-73242643D01*
X137482998Y-73358635D01*
X137684510Y-73399442D01*
X139683490Y-73399442D01*
X139871743Y-73364020D01*
X140044643Y-73252762D01*
X140160635Y-73083002D01*
X140201442Y-72881490D01*
X140201442Y-70882510D01*
X140166020Y-70694257D01*
X140054762Y-70521357D01*
X139885002Y-70405365D01*
X139683490Y-70364558D01*
X137684510Y-70364558D01*
X137496257Y-70399980D01*
X137323357Y-70511238D01*
X137207365Y-70680998D01*
X137187106Y-70781042D01*
X136750424Y-70489261D01*
X136173533Y-70374510D01*
X136114467Y-70374510D01*
X135537576Y-70489261D01*
X135048511Y-70816044D01*
X134721728Y-71305109D01*
X134606977Y-71882000D01*
X132461000Y-71882000D01*
X132461000Y-68178840D01*
X173591756Y-68178840D01*
X173805660Y-68696526D01*
X174201391Y-69092948D01*
X174718703Y-69307755D01*
X175278840Y-69308244D01*
X175796526Y-69094340D01*
X176192948Y-68698609D01*
X176407755Y-68181297D01*
X176408244Y-67621160D01*
X176194340Y-67103474D01*
X175798609Y-66707052D01*
X175281297Y-66492245D01*
X174721160Y-66491756D01*
X174203474Y-66705660D01*
X173807052Y-67101391D01*
X173592245Y-67618703D01*
X173591756Y-68178840D01*
X132461000Y-68178840D01*
X132461000Y-67309574D01*
X132637707Y-67486590D01*
X132934574Y-67609860D01*
X133256016Y-67610140D01*
X133553097Y-67487389D01*
X133780590Y-67260293D01*
X133903860Y-66963426D01*
X133904140Y-66641984D01*
X133781389Y-66344903D01*
X133554293Y-66117410D01*
X133257426Y-65994140D01*
X132935984Y-65993860D01*
X132638903Y-66116611D01*
X132461000Y-66294204D01*
X132461000Y-65438016D01*
X136859860Y-65438016D01*
X136982611Y-65735097D01*
X137209707Y-65962590D01*
X137506574Y-66085860D01*
X137828016Y-66086140D01*
X138125097Y-65963389D01*
X138352590Y-65736293D01*
X138475860Y-65439426D01*
X138476140Y-65117984D01*
X138353389Y-64820903D01*
X138126293Y-64593410D01*
X137829426Y-64470140D01*
X137507984Y-64469860D01*
X137210903Y-64592611D01*
X136983410Y-64819707D01*
X136860140Y-65116574D01*
X136859860Y-65438016D01*
X132461000Y-65438016D01*
X132461000Y-63825743D01*
X155600400Y-63825743D01*
X155600400Y-64190257D01*
X155704807Y-64715146D01*
X156002132Y-65160125D01*
X156447111Y-65457450D01*
X156972000Y-65561857D01*
X157496889Y-65457450D01*
X157941868Y-65160125D01*
X158239193Y-64715146D01*
X158343600Y-64190257D01*
X158343600Y-63825743D01*
X158239193Y-63300854D01*
X158032824Y-62992000D01*
X160670448Y-62992000D01*
X160670448Y-65024000D01*
X160705870Y-65212253D01*
X160817128Y-65385153D01*
X160986888Y-65501145D01*
X161188400Y-65541952D01*
X162915600Y-65541952D01*
X163103853Y-65506530D01*
X163276753Y-65395272D01*
X163392745Y-65225512D01*
X163433552Y-65024000D01*
X163433552Y-62992000D01*
X163398130Y-62803747D01*
X163286872Y-62630847D01*
X163117112Y-62514855D01*
X162915600Y-62474048D01*
X161188400Y-62474048D01*
X161000147Y-62509470D01*
X160827247Y-62620728D01*
X160711255Y-62790488D01*
X160670448Y-62992000D01*
X158032824Y-62992000D01*
X157941868Y-62855875D01*
X157496889Y-62558550D01*
X156972000Y-62454143D01*
X156447111Y-62558550D01*
X156002132Y-62855875D01*
X155704807Y-63300854D01*
X155600400Y-63825743D01*
X132461000Y-63825743D01*
X132461000Y-54770016D01*
X148924860Y-54770016D01*
X149047611Y-55067097D01*
X149274707Y-55294590D01*
X149571574Y-55417860D01*
X149893016Y-55418140D01*
X150190097Y-55295389D01*
X150306849Y-55178840D01*
X173591756Y-55178840D01*
X173805660Y-55696526D01*
X174201391Y-56092948D01*
X174718703Y-56307755D01*
X175278840Y-56308244D01*
X175796526Y-56094340D01*
X176192948Y-55698609D01*
X176407755Y-55181297D01*
X176408244Y-54621160D01*
X176194340Y-54103474D01*
X175798609Y-53707052D01*
X175281297Y-53492245D01*
X174721160Y-53491756D01*
X174203474Y-53705660D01*
X173807052Y-54101391D01*
X173592245Y-54618703D01*
X173591756Y-55178840D01*
X150306849Y-55178840D01*
X150417590Y-55068293D01*
X150540860Y-54771426D01*
X150541140Y-54449984D01*
X150418389Y-54152903D01*
X150191293Y-53925410D01*
X149894426Y-53802140D01*
X149572984Y-53801860D01*
X149275903Y-53924611D01*
X149048410Y-54151707D01*
X148925140Y-54448574D01*
X148924860Y-54770016D01*
X132461000Y-54770016D01*
X132461000Y-49848448D01*
X160951721Y-49848448D01*
X161196009Y-50439669D01*
X161647952Y-50892402D01*
X162238746Y-51137721D01*
X162878448Y-51138279D01*
X163469669Y-50893991D01*
X163922402Y-50442048D01*
X164167721Y-49851254D01*
X164168279Y-49211552D01*
X163923991Y-48620331D01*
X163472048Y-48167598D01*
X162881254Y-47922279D01*
X162241552Y-47921721D01*
X161650331Y-48166009D01*
X161197598Y-48617952D01*
X160952279Y-49208746D01*
X160951721Y-49848448D01*
X132461000Y-49848448D01*
X132461000Y-47404016D01*
X149051860Y-47404016D01*
X149174611Y-47701097D01*
X149401707Y-47928590D01*
X149698574Y-48051860D01*
X150020016Y-48052140D01*
X150317097Y-47929389D01*
X150544590Y-47702293D01*
X150667860Y-47405426D01*
X150668140Y-47083984D01*
X150545389Y-46786903D01*
X150318293Y-46559410D01*
X150021426Y-46436140D01*
X149699984Y-46435860D01*
X149402903Y-46558611D01*
X149175410Y-46785707D01*
X149052140Y-47082574D01*
X149051860Y-47404016D01*
X132461000Y-47404016D01*
X132461000Y-42273233D01*
X138481349Y-42273233D01*
X139052265Y-43654955D01*
X140108484Y-44713020D01*
X141489208Y-45286347D01*
X142984233Y-45287651D01*
X144365955Y-44716735D01*
X145424020Y-43660516D01*
X145997347Y-42279792D01*
X145997435Y-42178840D01*
X173591756Y-42178840D01*
X173805660Y-42696526D01*
X174201391Y-43092948D01*
X174718703Y-43307755D01*
X175278840Y-43308244D01*
X175796526Y-43094340D01*
X176192948Y-42698609D01*
X176407755Y-42181297D01*
X176408244Y-41621160D01*
X176194340Y-41103474D01*
X175798609Y-40707052D01*
X175281297Y-40492245D01*
X174721160Y-40491756D01*
X174203474Y-40705660D01*
X173807052Y-41101391D01*
X173592245Y-41618703D01*
X173591756Y-42178840D01*
X145997435Y-42178840D01*
X145998651Y-40784767D01*
X145427735Y-39403045D01*
X144371516Y-38344980D01*
X142990792Y-37771653D01*
X141495767Y-37770349D01*
X140114045Y-38341265D01*
X139055980Y-39397484D01*
X138482653Y-40778208D01*
X138481349Y-42273233D01*
X132461000Y-42273233D01*
X132461000Y-31571000D01*
X178487000Y-31571000D01*
X178487000Y-128449000D01*
G36*
X127891000Y-96772207D02*
X127839410Y-96823707D01*
X127716140Y-97120574D01*
X127715860Y-97442016D01*
X127838611Y-97739097D01*
X127891000Y-97791578D01*
X127891000Y-101090207D01*
X127839410Y-101141707D01*
X127716140Y-101438574D01*
X127715860Y-101760016D01*
X127838611Y-102057097D01*
X128065707Y-102284590D01*
X128362574Y-102407860D01*
X128684016Y-102408140D01*
X128981097Y-102285389D01*
X129208590Y-102058293D01*
X129331860Y-101761426D01*
X129332140Y-101439984D01*
X129209389Y-101142903D01*
X129157000Y-101090422D01*
X129157000Y-97791793D01*
X129208590Y-97740293D01*
X129331860Y-97443426D01*
X129332140Y-97121984D01*
X129209389Y-96824903D01*
X129157000Y-96772422D01*
X129157000Y-96647000D01*
X132463465Y-96647000D01*
X132712485Y-109347000D01*
X122809000Y-109347000D01*
X122809000Y-103505000D01*
X124460000Y-103505000D01*
X124509410Y-103494994D01*
X124551035Y-103466553D01*
X124578315Y-103424159D01*
X124587000Y-103378000D01*
X124587000Y-96647000D01*
X127891000Y-96647000D01*
X127891000Y-96772207D01*
X127891000Y-96772207D01*
G37*
X127891000Y-96772207D02*
X127839410Y-96823707D01*
X127716140Y-97120574D01*
X127715860Y-97442016D01*
X127838611Y-97739097D01*
X127891000Y-97791578D01*
X127891000Y-101090207D01*
X127839410Y-101141707D01*
X127716140Y-101438574D01*
X127715860Y-101760016D01*
X127838611Y-102057097D01*
X128065707Y-102284590D01*
X128362574Y-102407860D01*
X128684016Y-102408140D01*
X128981097Y-102285389D01*
X129208590Y-102058293D01*
X129331860Y-101761426D01*
X129332140Y-101439984D01*
X129209389Y-101142903D01*
X129157000Y-101090422D01*
X129157000Y-97791793D01*
X129208590Y-97740293D01*
X129331860Y-97443426D01*
X129332140Y-97121984D01*
X129209389Y-96824903D01*
X129157000Y-96772422D01*
X129157000Y-96647000D01*
X132463465Y-96647000D01*
X132712485Y-109347000D01*
X122809000Y-109347000D01*
X122809000Y-103505000D01*
X124460000Y-103505000D01*
X124509410Y-103494994D01*
X124551035Y-103466553D01*
X124578315Y-103424159D01*
X124587000Y-103378000D01*
X124587000Y-96647000D01*
X127891000Y-96647000D01*
X127891000Y-96772207D01*
G36*
X128397000Y-77463802D02*
X128076401Y-77784401D01*
X127939184Y-77989761D01*
X127890999Y-78232000D01*
X127891000Y-78232005D01*
X127891000Y-94615000D01*
X120777000Y-94615000D01*
X120777000Y-82710016D01*
X121619860Y-82710016D01*
X121742611Y-83007097D01*
X121969707Y-83234590D01*
X122266574Y-83357860D01*
X122588016Y-83358140D01*
X122885097Y-83235389D01*
X123112590Y-83008293D01*
X123235860Y-82711426D01*
X123236140Y-82389984D01*
X123113389Y-82092903D01*
X122886293Y-81865410D01*
X122589426Y-81742140D01*
X122267984Y-81741860D01*
X121970903Y-81864611D01*
X121743410Y-82091707D01*
X121620140Y-82388574D01*
X121619860Y-82710016D01*
X120777000Y-82710016D01*
X120777000Y-76360016D01*
X121102520Y-76360016D01*
X121225271Y-76657097D01*
X121452367Y-76884590D01*
X121749234Y-77007860D01*
X122070676Y-77008140D01*
X122367757Y-76885389D01*
X122370150Y-76883000D01*
X123669092Y-76883000D01*
X124031000Y-77244908D01*
X124031000Y-79550120D01*
X124029410Y-79551707D01*
X123906140Y-79848574D01*
X123905860Y-80170016D01*
X124028611Y-80467097D01*
X124255707Y-80694590D01*
X124552574Y-80817860D01*
X124874016Y-80818140D01*
X125171097Y-80695389D01*
X125398590Y-80468293D01*
X125521860Y-80171426D01*
X125522140Y-79849984D01*
X125399389Y-79552903D01*
X125397000Y-79550510D01*
X125397000Y-76962000D01*
X125345010Y-76700627D01*
X125196954Y-76479046D01*
X124434954Y-75717046D01*
X124213373Y-75568990D01*
X123952000Y-75517000D01*
X122370540Y-75517000D01*
X122368953Y-75515410D01*
X122072086Y-75392140D01*
X121750644Y-75391860D01*
X121453563Y-75514611D01*
X121226070Y-75741707D01*
X121102800Y-76038574D01*
X121102520Y-76360016D01*
X120777000Y-76360016D01*
X120777000Y-65151000D01*
X128397000Y-65151000D01*
X128397000Y-77463802D01*
X128397000Y-77463802D01*
G37*
X128397000Y-77463802D02*
X128076401Y-77784401D01*
X127939184Y-77989761D01*
X127890999Y-78232000D01*
X127891000Y-78232005D01*
X127891000Y-94615000D01*
X120777000Y-94615000D01*
X120777000Y-82710016D01*
X121619860Y-82710016D01*
X121742611Y-83007097D01*
X121969707Y-83234590D01*
X122266574Y-83357860D01*
X122588016Y-83358140D01*
X122885097Y-83235389D01*
X123112590Y-83008293D01*
X123235860Y-82711426D01*
X123236140Y-82389984D01*
X123113389Y-82092903D01*
X122886293Y-81865410D01*
X122589426Y-81742140D01*
X122267984Y-81741860D01*
X121970903Y-81864611D01*
X121743410Y-82091707D01*
X121620140Y-82388574D01*
X121619860Y-82710016D01*
X120777000Y-82710016D01*
X120777000Y-76360016D01*
X121102520Y-76360016D01*
X121225271Y-76657097D01*
X121452367Y-76884590D01*
X121749234Y-77007860D01*
X122070676Y-77008140D01*
X122367757Y-76885389D01*
X122370150Y-76883000D01*
X123669092Y-76883000D01*
X124031000Y-77244908D01*
X124031000Y-79550120D01*
X124029410Y-79551707D01*
X123906140Y-79848574D01*
X123905860Y-80170016D01*
X124028611Y-80467097D01*
X124255707Y-80694590D01*
X124552574Y-80817860D01*
X124874016Y-80818140D01*
X125171097Y-80695389D01*
X125398590Y-80468293D01*
X125521860Y-80171426D01*
X125522140Y-79849984D01*
X125399389Y-79552903D01*
X125397000Y-79550510D01*
X125397000Y-76962000D01*
X125345010Y-76700627D01*
X125196954Y-76479046D01*
X124434954Y-75717046D01*
X124213373Y-75568990D01*
X123952000Y-75517000D01*
X122370540Y-75517000D01*
X122368953Y-75515410D01*
X122072086Y-75392140D01*
X121750644Y-75391860D01*
X121453563Y-75514611D01*
X121226070Y-75741707D01*
X121102800Y-76038574D01*
X121102520Y-76360016D01*
X120777000Y-76360016D01*
X120777000Y-65151000D01*
X128397000Y-65151000D01*
X128397000Y-77463802D01*
G36*
X118745000Y-41833092D02*
X118643046Y-41935046D01*
X118494990Y-42156627D01*
X118443000Y-42418000D01*
X118443000Y-110236000D01*
X118494990Y-110497373D01*
X118643046Y-110718954D01*
X118745000Y-110820908D01*
X118745000Y-117139168D01*
X118668903Y-117170611D01*
X118441410Y-117397707D01*
X118318140Y-117694574D01*
X118317860Y-118016016D01*
X118440611Y-118313097D01*
X118667707Y-118540590D01*
X118745000Y-118572685D01*
X118745000Y-128857000D01*
X108135272Y-128857000D01*
X108143596Y-128848676D01*
X108143599Y-128848674D01*
X108280816Y-128643314D01*
X108300006Y-128546838D01*
X108329001Y-128401075D01*
X108329000Y-128401070D01*
X108329000Y-123711793D01*
X108380590Y-123660293D01*
X108503860Y-123363426D01*
X108504140Y-123041984D01*
X108381389Y-122744903D01*
X108154293Y-122517410D01*
X107857426Y-122394140D01*
X107535984Y-122393860D01*
X107238903Y-122516611D01*
X107011410Y-122743707D01*
X106888140Y-123040574D01*
X106887860Y-123362016D01*
X107010611Y-123659097D01*
X107063000Y-123711578D01*
X107063000Y-128016051D01*
X106850901Y-128103688D01*
X106623408Y-128330784D01*
X106500138Y-128627651D01*
X106499938Y-128857000D01*
X96916407Y-128857000D01*
X96946564Y-128784373D01*
X96946629Y-128710220D01*
X98237596Y-127419252D01*
X98237599Y-127419250D01*
X98374816Y-127213890D01*
X98423000Y-126971651D01*
X98423000Y-123365000D01*
X101981000Y-123365000D01*
X102242373Y-123313010D01*
X102463954Y-123164954D01*
X106527954Y-119100954D01*
X106676010Y-118879373D01*
X106728000Y-118618000D01*
X106728000Y-116205000D01*
X106676010Y-115943627D01*
X106527954Y-115722046D01*
X106093000Y-115287092D01*
X106093000Y-109298880D01*
X106094590Y-109297293D01*
X106217860Y-109000426D01*
X106218140Y-108678984D01*
X106095389Y-108381903D01*
X105868293Y-108154410D01*
X105571426Y-108031140D01*
X105249984Y-108030860D01*
X104952903Y-108153611D01*
X104725410Y-108380707D01*
X104602140Y-108677574D01*
X104601860Y-108999016D01*
X104724611Y-109296097D01*
X104727000Y-109298490D01*
X104727000Y-115570000D01*
X104778990Y-115831373D01*
X104913051Y-116032009D01*
X104741984Y-116031860D01*
X104444903Y-116154611D01*
X104217410Y-116381707D01*
X104094140Y-116678574D01*
X104093860Y-117000016D01*
X104216611Y-117297097D01*
X104443707Y-117524590D01*
X104740574Y-117647860D01*
X105062016Y-117648140D01*
X105359097Y-117525389D01*
X105362000Y-117522491D01*
X105362000Y-118335092D01*
X101698092Y-121999000D01*
X98249880Y-121999000D01*
X98248293Y-121997410D01*
X97951426Y-121874140D01*
X97629984Y-121873860D01*
X97332903Y-121996611D01*
X97105410Y-122223707D01*
X96982140Y-122520574D01*
X96981860Y-122842016D01*
X97104611Y-123139097D01*
X97157000Y-123191578D01*
X97157000Y-126709454D01*
X96051583Y-127814870D01*
X95978688Y-127814807D01*
X95681607Y-127937558D01*
X95454114Y-128164654D01*
X95330844Y-128461521D01*
X95330564Y-128782963D01*
X95361155Y-128857000D01*
X92992908Y-128857000D01*
X91869000Y-127733092D01*
X91869000Y-120904000D01*
X91817010Y-120642627D01*
X91668954Y-120421046D01*
X82471000Y-111223092D01*
X82471000Y-110309804D01*
X82757868Y-110118125D01*
X83055193Y-109673146D01*
X83159600Y-109148257D01*
X83159600Y-108783743D01*
X83055193Y-108258854D01*
X82757868Y-107813875D01*
X82312889Y-107516550D01*
X81788000Y-107412143D01*
X81263111Y-107516550D01*
X80818132Y-107813875D01*
X80520807Y-108258854D01*
X80518000Y-108272966D01*
X80515193Y-108258854D01*
X80217868Y-107813875D01*
X79772889Y-107516550D01*
X79248000Y-107412143D01*
X78723111Y-107516550D01*
X78278132Y-107813875D01*
X78089552Y-108096105D01*
X78089552Y-107950000D01*
X78054130Y-107761747D01*
X77942872Y-107588847D01*
X77773112Y-107472855D01*
X77571600Y-107432048D01*
X75844400Y-107432048D01*
X75656147Y-107467470D01*
X75483247Y-107578728D01*
X75367255Y-107748488D01*
X75326448Y-107950000D01*
X75326448Y-109982000D01*
X75361870Y-110170253D01*
X75473128Y-110343153D01*
X75642888Y-110459145D01*
X75844400Y-110499952D01*
X77571600Y-110499952D01*
X77759853Y-110464530D01*
X77932753Y-110353272D01*
X78048745Y-110183512D01*
X78089552Y-109982000D01*
X78089552Y-109835895D01*
X78278132Y-110118125D01*
X78723111Y-110415450D01*
X79248000Y-110519857D01*
X79772889Y-110415450D01*
X80217868Y-110118125D01*
X80515193Y-109673146D01*
X80518000Y-109659034D01*
X80520807Y-109673146D01*
X80818132Y-110118125D01*
X81105000Y-110309804D01*
X81105000Y-111506000D01*
X81156990Y-111767373D01*
X81305046Y-111988954D01*
X90503000Y-121186908D01*
X90503000Y-123650120D01*
X90501293Y-123648410D01*
X90204426Y-123525140D01*
X89882984Y-123524860D01*
X89585903Y-123647611D01*
X89358410Y-123874707D01*
X89235140Y-124171574D01*
X89234860Y-124493016D01*
X89357611Y-124790097D01*
X89360000Y-124792490D01*
X89360000Y-129159000D01*
X89411990Y-129420373D01*
X89560046Y-129641954D01*
X90907092Y-130989000D01*
X73279000Y-130989000D01*
X73279000Y-100590197D01*
X77276399Y-104587596D01*
X77276401Y-104587599D01*
X77481761Y-104724816D01*
X77724000Y-104773000D01*
X83557802Y-104773000D01*
X86235000Y-107450198D01*
X86235000Y-112013995D01*
X86234999Y-112014000D01*
X86283184Y-112256239D01*
X86420401Y-112461599D01*
X86928399Y-112969596D01*
X86928401Y-112969599D01*
X87133761Y-113106816D01*
X87376000Y-113155000D01*
X95503995Y-113155000D01*
X95504000Y-113155001D01*
X95746239Y-113106816D01*
X95951599Y-112969599D01*
X99133092Y-109788106D01*
X99014140Y-110074574D01*
X99013860Y-110396016D01*
X99136611Y-110693097D01*
X99363707Y-110920590D01*
X99660574Y-111043860D01*
X99982016Y-111044140D01*
X100279097Y-110921389D01*
X100506590Y-110694293D01*
X100629860Y-110397426D01*
X100630140Y-110075984D01*
X100507389Y-109778903D01*
X100280293Y-109551410D01*
X99983426Y-109428140D01*
X99661984Y-109427860D01*
X99374589Y-109546609D01*
X101065182Y-107856016D01*
X105871860Y-107856016D01*
X105994611Y-108153097D01*
X106221707Y-108380590D01*
X106518574Y-108503860D01*
X106840016Y-108504140D01*
X107137097Y-108381389D01*
X107364590Y-108154293D01*
X107487860Y-107857426D01*
X107488140Y-107535984D01*
X107365389Y-107238903D01*
X107138293Y-107011410D01*
X106841426Y-106888140D01*
X106519984Y-106887860D01*
X106222903Y-107010611D01*
X105995410Y-107237707D01*
X105872140Y-107534574D01*
X105871860Y-107856016D01*
X101065182Y-107856016D01*
X102116198Y-106805000D01*
X109041538Y-106805000D01*
X112158135Y-109921596D01*
X112158137Y-109921599D01*
X112338930Y-110042401D01*
X112363497Y-110058816D01*
X112499016Y-110085772D01*
X112571707Y-110158590D01*
X112711668Y-110216707D01*
X112545612Y-110285320D01*
X112318119Y-110512416D01*
X112194849Y-110809283D01*
X112194569Y-111130725D01*
X112225656Y-111205963D01*
X112107984Y-111205860D01*
X111810903Y-111328611D01*
X111583410Y-111555707D01*
X111460140Y-111852574D01*
X111459860Y-112174016D01*
X111582611Y-112471097D01*
X111809707Y-112698590D01*
X112106574Y-112821860D01*
X112428016Y-112822140D01*
X112725097Y-112699389D01*
X112777969Y-112646609D01*
X113018239Y-112598816D01*
X113223599Y-112461599D01*
X115001596Y-110683601D01*
X115001599Y-110683599D01*
X115138816Y-110478239D01*
X115146810Y-110438048D01*
X115187001Y-110236000D01*
X115187000Y-110235995D01*
X115187000Y-107185571D01*
X115365707Y-107364590D01*
X115662574Y-107487860D01*
X115984016Y-107488140D01*
X116281097Y-107365389D01*
X116508590Y-107138293D01*
X116631860Y-106841426D01*
X116632140Y-106519984D01*
X116509389Y-106222903D01*
X116282293Y-105995410D01*
X116177360Y-105951838D01*
X116779596Y-105349602D01*
X116779599Y-105349600D01*
X116916816Y-105144240D01*
X116946306Y-104995984D01*
X116965001Y-104902001D01*
X116965000Y-104901996D01*
X116965000Y-97536004D01*
X116965001Y-97535999D01*
X116916816Y-97293760D01*
X116779599Y-97088400D01*
X115483822Y-95792623D01*
X115483822Y-67061896D01*
X115441000Y-66846614D01*
X115441000Y-62738005D01*
X115441001Y-62738000D01*
X115392816Y-62495761D01*
X115255599Y-62290401D01*
X114425000Y-61459802D01*
X114425000Y-61129642D01*
X115018961Y-60535681D01*
X115111707Y-60628590D01*
X115408574Y-60751860D01*
X115730016Y-60752140D01*
X116027097Y-60629389D01*
X116254590Y-60402293D01*
X116377860Y-60105426D01*
X116377925Y-60031273D01*
X116525596Y-59883601D01*
X116525599Y-59883599D01*
X116662816Y-59678239D01*
X116711000Y-59436000D01*
X116711000Y-51816005D01*
X116711001Y-51816000D01*
X116662816Y-51573762D01*
X116662816Y-51573761D01*
X116525599Y-51368401D01*
X113477599Y-48320401D01*
X113272239Y-48183184D01*
X113030000Y-48134999D01*
X113029995Y-48135000D01*
X112018197Y-48135000D01*
X113223596Y-46929601D01*
X113223599Y-46929599D01*
X113360816Y-46724239D01*
X113368810Y-46684048D01*
X113409001Y-46482000D01*
X113409000Y-46481995D01*
X113409000Y-43181793D01*
X113460590Y-43130293D01*
X113583860Y-42833426D01*
X113584140Y-42511984D01*
X113461389Y-42214903D01*
X113234293Y-41987410D01*
X112937426Y-41864140D01*
X112615984Y-41863860D01*
X112318903Y-41986611D01*
X112091410Y-42213707D01*
X111968140Y-42510574D01*
X111967860Y-42832016D01*
X112090611Y-43129097D01*
X112143000Y-43181578D01*
X112143000Y-46219803D01*
X105655802Y-52707000D01*
X103886005Y-52707000D01*
X103886000Y-52706999D01*
X103683952Y-52747190D01*
X103643761Y-52755184D01*
X103438401Y-52892401D01*
X101591802Y-54739000D01*
X101089571Y-54739000D01*
X101268590Y-54560293D01*
X101391860Y-54263426D01*
X101392140Y-53941984D01*
X101269389Y-53644903D01*
X101042293Y-53417410D01*
X100745426Y-53294140D01*
X100423984Y-53293860D01*
X100126903Y-53416611D01*
X100074422Y-53469000D01*
X98552005Y-53469000D01*
X98552000Y-53468999D01*
X98349952Y-53509190D01*
X98309761Y-53517184D01*
X98104401Y-53654401D01*
X98104399Y-53654404D01*
X96511802Y-55247000D01*
X82550005Y-55247000D01*
X82550000Y-55246999D01*
X82347952Y-55287190D01*
X82307761Y-55295184D01*
X82102401Y-55432401D01*
X82102399Y-55432404D01*
X80684879Y-56849923D01*
X80611984Y-56849860D01*
X80314903Y-56972611D01*
X80087410Y-57199707D01*
X79964140Y-57496574D01*
X79964075Y-57570727D01*
X78357000Y-59177802D01*
X78357000Y-55634198D01*
X82743596Y-51247601D01*
X82743599Y-51247599D01*
X82766038Y-51214016D01*
X87329860Y-51214016D01*
X87452611Y-51511097D01*
X87679707Y-51738590D01*
X87976574Y-51861860D01*
X88298016Y-51862140D01*
X88595097Y-51739389D01*
X88822590Y-51512293D01*
X88945860Y-51215426D01*
X88946140Y-50893984D01*
X88823389Y-50596903D01*
X88596293Y-50369410D01*
X88299426Y-50246140D01*
X87977984Y-50245860D01*
X87680903Y-50368611D01*
X87453410Y-50595707D01*
X87330140Y-50892574D01*
X87329860Y-51214016D01*
X82766038Y-51214016D01*
X82880816Y-51042239D01*
X82929000Y-50800000D01*
X82929000Y-50293793D01*
X82980590Y-50242293D01*
X83103860Y-49945426D01*
X83104140Y-49623984D01*
X82981389Y-49326903D01*
X82754293Y-49099410D01*
X82457426Y-48976140D01*
X82135984Y-48975860D01*
X81838903Y-49098611D01*
X81611410Y-49325707D01*
X81488140Y-49622574D01*
X81487860Y-49944016D01*
X81610611Y-50241097D01*
X81663000Y-50293578D01*
X81663000Y-50537803D01*
X77276401Y-54924401D01*
X77139184Y-55129761D01*
X77090999Y-55372000D01*
X77091000Y-55372005D01*
X77091000Y-60781539D01*
X74497538Y-63375000D01*
X73279000Y-63375000D01*
X73279000Y-56972908D01*
X83086908Y-47165000D01*
X96774000Y-47165000D01*
X97035373Y-47113010D01*
X97256954Y-46964954D01*
X99357892Y-44864016D01*
X107141860Y-44864016D01*
X107264611Y-45161097D01*
X107491707Y-45388590D01*
X107788574Y-45511860D01*
X108110016Y-45512140D01*
X108407097Y-45389389D01*
X108634590Y-45162293D01*
X108757860Y-44865426D01*
X108758140Y-44543984D01*
X108635389Y-44246903D01*
X108408293Y-44019410D01*
X108111426Y-43896140D01*
X107789984Y-43895860D01*
X107492903Y-44018611D01*
X107265410Y-44245707D01*
X107142140Y-44542574D01*
X107141860Y-44864016D01*
X99357892Y-44864016D01*
X105438908Y-38783000D01*
X118745000Y-38783000D01*
X118745000Y-41833092D01*
X118745000Y-41833092D01*
G37*
X118745000Y-41833092D02*
X118643046Y-41935046D01*
X118494990Y-42156627D01*
X118443000Y-42418000D01*
X118443000Y-110236000D01*
X118494990Y-110497373D01*
X118643046Y-110718954D01*
X118745000Y-110820908D01*
X118745000Y-117139168D01*
X118668903Y-117170611D01*
X118441410Y-117397707D01*
X118318140Y-117694574D01*
X118317860Y-118016016D01*
X118440611Y-118313097D01*
X118667707Y-118540590D01*
X118745000Y-118572685D01*
X118745000Y-128857000D01*
X108135272Y-128857000D01*
X108143596Y-128848676D01*
X108143599Y-128848674D01*
X108280816Y-128643314D01*
X108300006Y-128546838D01*
X108329001Y-128401075D01*
X108329000Y-128401070D01*
X108329000Y-123711793D01*
X108380590Y-123660293D01*
X108503860Y-123363426D01*
X108504140Y-123041984D01*
X108381389Y-122744903D01*
X108154293Y-122517410D01*
X107857426Y-122394140D01*
X107535984Y-122393860D01*
X107238903Y-122516611D01*
X107011410Y-122743707D01*
X106888140Y-123040574D01*
X106887860Y-123362016D01*
X107010611Y-123659097D01*
X107063000Y-123711578D01*
X107063000Y-128016051D01*
X106850901Y-128103688D01*
X106623408Y-128330784D01*
X106500138Y-128627651D01*
X106499938Y-128857000D01*
X96916407Y-128857000D01*
X96946564Y-128784373D01*
X96946629Y-128710220D01*
X98237596Y-127419252D01*
X98237599Y-127419250D01*
X98374816Y-127213890D01*
X98423000Y-126971651D01*
X98423000Y-123365000D01*
X101981000Y-123365000D01*
X102242373Y-123313010D01*
X102463954Y-123164954D01*
X106527954Y-119100954D01*
X106676010Y-118879373D01*
X106728000Y-118618000D01*
X106728000Y-116205000D01*
X106676010Y-115943627D01*
X106527954Y-115722046D01*
X106093000Y-115287092D01*
X106093000Y-109298880D01*
X106094590Y-109297293D01*
X106217860Y-109000426D01*
X106218140Y-108678984D01*
X106095389Y-108381903D01*
X105868293Y-108154410D01*
X105571426Y-108031140D01*
X105249984Y-108030860D01*
X104952903Y-108153611D01*
X104725410Y-108380707D01*
X104602140Y-108677574D01*
X104601860Y-108999016D01*
X104724611Y-109296097D01*
X104727000Y-109298490D01*
X104727000Y-115570000D01*
X104778990Y-115831373D01*
X104913051Y-116032009D01*
X104741984Y-116031860D01*
X104444903Y-116154611D01*
X104217410Y-116381707D01*
X104094140Y-116678574D01*
X104093860Y-117000016D01*
X104216611Y-117297097D01*
X104443707Y-117524590D01*
X104740574Y-117647860D01*
X105062016Y-117648140D01*
X105359097Y-117525389D01*
X105362000Y-117522491D01*
X105362000Y-118335092D01*
X101698092Y-121999000D01*
X98249880Y-121999000D01*
X98248293Y-121997410D01*
X97951426Y-121874140D01*
X97629984Y-121873860D01*
X97332903Y-121996611D01*
X97105410Y-122223707D01*
X96982140Y-122520574D01*
X96981860Y-122842016D01*
X97104611Y-123139097D01*
X97157000Y-123191578D01*
X97157000Y-126709454D01*
X96051583Y-127814870D01*
X95978688Y-127814807D01*
X95681607Y-127937558D01*
X95454114Y-128164654D01*
X95330844Y-128461521D01*
X95330564Y-128782963D01*
X95361155Y-128857000D01*
X92992908Y-128857000D01*
X91869000Y-127733092D01*
X91869000Y-120904000D01*
X91817010Y-120642627D01*
X91668954Y-120421046D01*
X82471000Y-111223092D01*
X82471000Y-110309804D01*
X82757868Y-110118125D01*
X83055193Y-109673146D01*
X83159600Y-109148257D01*
X83159600Y-108783743D01*
X83055193Y-108258854D01*
X82757868Y-107813875D01*
X82312889Y-107516550D01*
X81788000Y-107412143D01*
X81263111Y-107516550D01*
X80818132Y-107813875D01*
X80520807Y-108258854D01*
X80518000Y-108272966D01*
X80515193Y-108258854D01*
X80217868Y-107813875D01*
X79772889Y-107516550D01*
X79248000Y-107412143D01*
X78723111Y-107516550D01*
X78278132Y-107813875D01*
X78089552Y-108096105D01*
X78089552Y-107950000D01*
X78054130Y-107761747D01*
X77942872Y-107588847D01*
X77773112Y-107472855D01*
X77571600Y-107432048D01*
X75844400Y-107432048D01*
X75656147Y-107467470D01*
X75483247Y-107578728D01*
X75367255Y-107748488D01*
X75326448Y-107950000D01*
X75326448Y-109982000D01*
X75361870Y-110170253D01*
X75473128Y-110343153D01*
X75642888Y-110459145D01*
X75844400Y-110499952D01*
X77571600Y-110499952D01*
X77759853Y-110464530D01*
X77932753Y-110353272D01*
X78048745Y-110183512D01*
X78089552Y-109982000D01*
X78089552Y-109835895D01*
X78278132Y-110118125D01*
X78723111Y-110415450D01*
X79248000Y-110519857D01*
X79772889Y-110415450D01*
X80217868Y-110118125D01*
X80515193Y-109673146D01*
X80518000Y-109659034D01*
X80520807Y-109673146D01*
X80818132Y-110118125D01*
X81105000Y-110309804D01*
X81105000Y-111506000D01*
X81156990Y-111767373D01*
X81305046Y-111988954D01*
X90503000Y-121186908D01*
X90503000Y-123650120D01*
X90501293Y-123648410D01*
X90204426Y-123525140D01*
X89882984Y-123524860D01*
X89585903Y-123647611D01*
X89358410Y-123874707D01*
X89235140Y-124171574D01*
X89234860Y-124493016D01*
X89357611Y-124790097D01*
X89360000Y-124792490D01*
X89360000Y-129159000D01*
X89411990Y-129420373D01*
X89560046Y-129641954D01*
X90907092Y-130989000D01*
X73279000Y-130989000D01*
X73279000Y-100590197D01*
X77276399Y-104587596D01*
X77276401Y-104587599D01*
X77481761Y-104724816D01*
X77724000Y-104773000D01*
X83557802Y-104773000D01*
X86235000Y-107450198D01*
X86235000Y-112013995D01*
X86234999Y-112014000D01*
X86283184Y-112256239D01*
X86420401Y-112461599D01*
X86928399Y-112969596D01*
X86928401Y-112969599D01*
X87133761Y-113106816D01*
X87376000Y-113155000D01*
X95503995Y-113155000D01*
X95504000Y-113155001D01*
X95746239Y-113106816D01*
X95951599Y-112969599D01*
X99133092Y-109788106D01*
X99014140Y-110074574D01*
X99013860Y-110396016D01*
X99136611Y-110693097D01*
X99363707Y-110920590D01*
X99660574Y-111043860D01*
X99982016Y-111044140D01*
X100279097Y-110921389D01*
X100506590Y-110694293D01*
X100629860Y-110397426D01*
X100630140Y-110075984D01*
X100507389Y-109778903D01*
X100280293Y-109551410D01*
X99983426Y-109428140D01*
X99661984Y-109427860D01*
X99374589Y-109546609D01*
X101065182Y-107856016D01*
X105871860Y-107856016D01*
X105994611Y-108153097D01*
X106221707Y-108380590D01*
X106518574Y-108503860D01*
X106840016Y-108504140D01*
X107137097Y-108381389D01*
X107364590Y-108154293D01*
X107487860Y-107857426D01*
X107488140Y-107535984D01*
X107365389Y-107238903D01*
X107138293Y-107011410D01*
X106841426Y-106888140D01*
X106519984Y-106887860D01*
X106222903Y-107010611D01*
X105995410Y-107237707D01*
X105872140Y-107534574D01*
X105871860Y-107856016D01*
X101065182Y-107856016D01*
X102116198Y-106805000D01*
X109041538Y-106805000D01*
X112158135Y-109921596D01*
X112158137Y-109921599D01*
X112338930Y-110042401D01*
X112363497Y-110058816D01*
X112499016Y-110085772D01*
X112571707Y-110158590D01*
X112711668Y-110216707D01*
X112545612Y-110285320D01*
X112318119Y-110512416D01*
X112194849Y-110809283D01*
X112194569Y-111130725D01*
X112225656Y-111205963D01*
X112107984Y-111205860D01*
X111810903Y-111328611D01*
X111583410Y-111555707D01*
X111460140Y-111852574D01*
X111459860Y-112174016D01*
X111582611Y-112471097D01*
X111809707Y-112698590D01*
X112106574Y-112821860D01*
X112428016Y-112822140D01*
X112725097Y-112699389D01*
X112777969Y-112646609D01*
X113018239Y-112598816D01*
X113223599Y-112461599D01*
X115001596Y-110683601D01*
X115001599Y-110683599D01*
X115138816Y-110478239D01*
X115146810Y-110438048D01*
X115187001Y-110236000D01*
X115187000Y-110235995D01*
X115187000Y-107185571D01*
X115365707Y-107364590D01*
X115662574Y-107487860D01*
X115984016Y-107488140D01*
X116281097Y-107365389D01*
X116508590Y-107138293D01*
X116631860Y-106841426D01*
X116632140Y-106519984D01*
X116509389Y-106222903D01*
X116282293Y-105995410D01*
X116177360Y-105951838D01*
X116779596Y-105349602D01*
X116779599Y-105349600D01*
X116916816Y-105144240D01*
X116946306Y-104995984D01*
X116965001Y-104902001D01*
X116965000Y-104901996D01*
X116965000Y-97536004D01*
X116965001Y-97535999D01*
X116916816Y-97293760D01*
X116779599Y-97088400D01*
X115483822Y-95792623D01*
X115483822Y-67061896D01*
X115441000Y-66846614D01*
X115441000Y-62738005D01*
X115441001Y-62738000D01*
X115392816Y-62495761D01*
X115255599Y-62290401D01*
X114425000Y-61459802D01*
X114425000Y-61129642D01*
X115018961Y-60535681D01*
X115111707Y-60628590D01*
X115408574Y-60751860D01*
X115730016Y-60752140D01*
X116027097Y-60629389D01*
X116254590Y-60402293D01*
X116377860Y-60105426D01*
X116377925Y-60031273D01*
X116525596Y-59883601D01*
X116525599Y-59883599D01*
X116662816Y-59678239D01*
X116711000Y-59436000D01*
X116711000Y-51816005D01*
X116711001Y-51816000D01*
X116662816Y-51573762D01*
X116662816Y-51573761D01*
X116525599Y-51368401D01*
X113477599Y-48320401D01*
X113272239Y-48183184D01*
X113030000Y-48134999D01*
X113029995Y-48135000D01*
X112018197Y-48135000D01*
X113223596Y-46929601D01*
X113223599Y-46929599D01*
X113360816Y-46724239D01*
X113368810Y-46684048D01*
X113409001Y-46482000D01*
X113409000Y-46481995D01*
X113409000Y-43181793D01*
X113460590Y-43130293D01*
X113583860Y-42833426D01*
X113584140Y-42511984D01*
X113461389Y-42214903D01*
X113234293Y-41987410D01*
X112937426Y-41864140D01*
X112615984Y-41863860D01*
X112318903Y-41986611D01*
X112091410Y-42213707D01*
X111968140Y-42510574D01*
X111967860Y-42832016D01*
X112090611Y-43129097D01*
X112143000Y-43181578D01*
X112143000Y-46219803D01*
X105655802Y-52707000D01*
X103886005Y-52707000D01*
X103886000Y-52706999D01*
X103683952Y-52747190D01*
X103643761Y-52755184D01*
X103438401Y-52892401D01*
X101591802Y-54739000D01*
X101089571Y-54739000D01*
X101268590Y-54560293D01*
X101391860Y-54263426D01*
X101392140Y-53941984D01*
X101269389Y-53644903D01*
X101042293Y-53417410D01*
X100745426Y-53294140D01*
X100423984Y-53293860D01*
X100126903Y-53416611D01*
X100074422Y-53469000D01*
X98552005Y-53469000D01*
X98552000Y-53468999D01*
X98349952Y-53509190D01*
X98309761Y-53517184D01*
X98104401Y-53654401D01*
X98104399Y-53654404D01*
X96511802Y-55247000D01*
X82550005Y-55247000D01*
X82550000Y-55246999D01*
X82347952Y-55287190D01*
X82307761Y-55295184D01*
X82102401Y-55432401D01*
X82102399Y-55432404D01*
X80684879Y-56849923D01*
X80611984Y-56849860D01*
X80314903Y-56972611D01*
X80087410Y-57199707D01*
X79964140Y-57496574D01*
X79964075Y-57570727D01*
X78357000Y-59177802D01*
X78357000Y-55634198D01*
X82743596Y-51247601D01*
X82743599Y-51247599D01*
X82766038Y-51214016D01*
X87329860Y-51214016D01*
X87452611Y-51511097D01*
X87679707Y-51738590D01*
X87976574Y-51861860D01*
X88298016Y-51862140D01*
X88595097Y-51739389D01*
X88822590Y-51512293D01*
X88945860Y-51215426D01*
X88946140Y-50893984D01*
X88823389Y-50596903D01*
X88596293Y-50369410D01*
X88299426Y-50246140D01*
X87977984Y-50245860D01*
X87680903Y-50368611D01*
X87453410Y-50595707D01*
X87330140Y-50892574D01*
X87329860Y-51214016D01*
X82766038Y-51214016D01*
X82880816Y-51042239D01*
X82929000Y-50800000D01*
X82929000Y-50293793D01*
X82980590Y-50242293D01*
X83103860Y-49945426D01*
X83104140Y-49623984D01*
X82981389Y-49326903D01*
X82754293Y-49099410D01*
X82457426Y-48976140D01*
X82135984Y-48975860D01*
X81838903Y-49098611D01*
X81611410Y-49325707D01*
X81488140Y-49622574D01*
X81487860Y-49944016D01*
X81610611Y-50241097D01*
X81663000Y-50293578D01*
X81663000Y-50537803D01*
X77276401Y-54924401D01*
X77139184Y-55129761D01*
X77090999Y-55372000D01*
X77091000Y-55372005D01*
X77091000Y-60781539D01*
X74497538Y-63375000D01*
X73279000Y-63375000D01*
X73279000Y-56972908D01*
X83086908Y-47165000D01*
X96774000Y-47165000D01*
X97035373Y-47113010D01*
X97256954Y-46964954D01*
X99357892Y-44864016D01*
X107141860Y-44864016D01*
X107264611Y-45161097D01*
X107491707Y-45388590D01*
X107788574Y-45511860D01*
X108110016Y-45512140D01*
X108407097Y-45389389D01*
X108634590Y-45162293D01*
X108757860Y-44865426D01*
X108758140Y-44543984D01*
X108635389Y-44246903D01*
X108408293Y-44019410D01*
X108111426Y-43896140D01*
X107789984Y-43895860D01*
X107492903Y-44018611D01*
X107265410Y-44245707D01*
X107142140Y-44542574D01*
X107141860Y-44864016D01*
X99357892Y-44864016D01*
X105438908Y-38783000D01*
X118745000Y-38783000D01*
X118745000Y-41833092D01*
G36*
X93763246Y-58646818D02*
X93763248Y-58646821D01*
X93968608Y-58784038D01*
X94210847Y-58832222D01*
X94765148Y-58832222D01*
X94765153Y-58832223D01*
X95007392Y-58784038D01*
X95212752Y-58646821D01*
X95314573Y-58545000D01*
X107488146Y-58545000D01*
X107396140Y-58766574D01*
X107395860Y-59088016D01*
X107518611Y-59385097D01*
X107745707Y-59612590D01*
X108042574Y-59735860D01*
X108364016Y-59736140D01*
X108661097Y-59613389D01*
X108888590Y-59386293D01*
X108932162Y-59281359D01*
X109280399Y-59629596D01*
X109280401Y-59629599D01*
X109439432Y-59735860D01*
X109485761Y-59766816D01*
X109728000Y-59815000D01*
X111501802Y-59815000D01*
X111312401Y-60004401D01*
X111175184Y-60209761D01*
X111126999Y-60452000D01*
X111127000Y-60452005D01*
X111127000Y-62867000D01*
X105038234Y-62867000D01*
X104795995Y-62915184D01*
X104590635Y-63052401D01*
X104590633Y-63052404D01*
X104522037Y-63121000D01*
X102878198Y-63121000D01*
X101094889Y-61337691D01*
X101268590Y-61164293D01*
X101391860Y-60867426D01*
X101392140Y-60545984D01*
X101269389Y-60248903D01*
X101042293Y-60021410D01*
X100745426Y-59898140D01*
X100423984Y-59897860D01*
X100126903Y-60020611D01*
X99899410Y-60247707D01*
X99776140Y-60544574D01*
X99775860Y-60866016D01*
X99867995Y-61089000D01*
X87885793Y-61089000D01*
X87834293Y-61037410D01*
X87537426Y-60914140D01*
X87215984Y-60913860D01*
X86918903Y-61036611D01*
X86691410Y-61263707D01*
X86568140Y-61560574D01*
X86567860Y-61882016D01*
X86690611Y-62179097D01*
X86917707Y-62406590D01*
X87214574Y-62529860D01*
X87536016Y-62530140D01*
X87833097Y-62407389D01*
X87885578Y-62355000D01*
X90978146Y-62355000D01*
X90886140Y-62576574D01*
X90885860Y-62898016D01*
X91008611Y-63195097D01*
X91235707Y-63422590D01*
X91532574Y-63545860D01*
X91606727Y-63545925D01*
X91823000Y-63762197D01*
X91823000Y-67054207D01*
X91771410Y-67105707D01*
X91648140Y-67402574D01*
X91647860Y-67724016D01*
X91770611Y-68021097D01*
X91997707Y-68248590D01*
X92294574Y-68371860D01*
X92616016Y-68372140D01*
X92913097Y-68249389D01*
X92930500Y-68232016D01*
X104093860Y-68232016D01*
X104216611Y-68529097D01*
X104443707Y-68756590D01*
X104740574Y-68879860D01*
X105062016Y-68880140D01*
X105359097Y-68757389D01*
X105586590Y-68530293D01*
X105709860Y-68233426D01*
X105710140Y-67911984D01*
X105587389Y-67614903D01*
X105360293Y-67387410D01*
X105063426Y-67264140D01*
X104741984Y-67263860D01*
X104444903Y-67386611D01*
X104217410Y-67613707D01*
X104094140Y-67910574D01*
X104093860Y-68232016D01*
X92930500Y-68232016D01*
X93140590Y-68022293D01*
X93263860Y-67725426D01*
X93264140Y-67403984D01*
X93141389Y-67106903D01*
X93089000Y-67054422D01*
X93089000Y-63500005D01*
X93089001Y-63500000D01*
X93070307Y-63406016D01*
X98378860Y-63406016D01*
X98501611Y-63703097D01*
X98728707Y-63930590D01*
X99025574Y-64053860D01*
X99347016Y-64054140D01*
X99644097Y-63931389D01*
X99871590Y-63704293D01*
X99994860Y-63407426D01*
X99995140Y-63085984D01*
X99872389Y-62788903D01*
X99645293Y-62561410D01*
X99348426Y-62438140D01*
X99026984Y-62437860D01*
X98729903Y-62560611D01*
X98502410Y-62787707D01*
X98379140Y-63084574D01*
X98378860Y-63406016D01*
X93070307Y-63406016D01*
X93040816Y-63257762D01*
X93040816Y-63257761D01*
X92903599Y-63052401D01*
X92903596Y-63052399D01*
X92502077Y-62650879D01*
X92502140Y-62577984D01*
X92410005Y-62355000D01*
X100321802Y-62355000D01*
X102168401Y-64201599D01*
X102373761Y-64338816D01*
X102413952Y-64346810D01*
X102616000Y-64387001D01*
X102616005Y-64387000D01*
X104784229Y-64387000D01*
X104784234Y-64387001D01*
X105026473Y-64338816D01*
X105231833Y-64201599D01*
X105300432Y-64133000D01*
X106888112Y-64133000D01*
X106887860Y-64422016D01*
X107010611Y-64719097D01*
X107013000Y-64721490D01*
X107013000Y-73123092D01*
X106651092Y-73485000D01*
X98249880Y-73485000D01*
X98248293Y-73483410D01*
X97951426Y-73360140D01*
X97629984Y-73359860D01*
X97332903Y-73482611D01*
X97105410Y-73709707D01*
X96982140Y-74006574D01*
X96981860Y-74328016D01*
X97104611Y-74625097D01*
X97157000Y-74677578D01*
X97157000Y-81860333D01*
X97110134Y-81907117D01*
X96986864Y-82203984D01*
X96986584Y-82525426D01*
X97109335Y-82822507D01*
X97336431Y-83050000D01*
X97633298Y-83173270D01*
X97954740Y-83173550D01*
X98251821Y-83050799D01*
X98479314Y-82823703D01*
X98602584Y-82526836D01*
X98602864Y-82205394D01*
X98480113Y-81908313D01*
X98423000Y-81851100D01*
X98423000Y-74851000D01*
X106451384Y-74851000D01*
X106380140Y-75022574D01*
X106379860Y-75344016D01*
X106502611Y-75641097D01*
X106555000Y-75693578D01*
X106555000Y-79493803D01*
X104814879Y-81233923D01*
X104741984Y-81233860D01*
X104444903Y-81356611D01*
X104217410Y-81583707D01*
X104094140Y-81880574D01*
X104093860Y-82202016D01*
X104216611Y-82499097D01*
X104443707Y-82726590D01*
X104740574Y-82849860D01*
X105062016Y-82850140D01*
X105359097Y-82727389D01*
X105586590Y-82500293D01*
X105709860Y-82203426D01*
X105709925Y-82129273D01*
X107635596Y-80203601D01*
X107635599Y-80203599D01*
X107772816Y-79998239D01*
X107821000Y-79756000D01*
X107821000Y-75693793D01*
X107872590Y-75642293D01*
X107995860Y-75345426D01*
X107996140Y-75023984D01*
X107873389Y-74726903D01*
X107646293Y-74499410D01*
X107591323Y-74476585D01*
X108178954Y-73888954D01*
X108327010Y-73667373D01*
X108379000Y-73406000D01*
X108379000Y-64721880D01*
X108380590Y-64720293D01*
X108503860Y-64423426D01*
X108504113Y-64133000D01*
X111127000Y-64133000D01*
X111127000Y-64769995D01*
X111126999Y-64770000D01*
X111175184Y-65012239D01*
X111312401Y-65217599D01*
X112143000Y-66048198D01*
X112143000Y-80262207D01*
X112091410Y-80313707D01*
X111968140Y-80610574D01*
X111967860Y-80932016D01*
X112090611Y-81229097D01*
X112143000Y-81281578D01*
X112143000Y-89399803D01*
X111820401Y-89722401D01*
X111683184Y-89927761D01*
X111634999Y-90170000D01*
X111635000Y-90170005D01*
X111635000Y-97788207D01*
X111583410Y-97839707D01*
X111460140Y-98136574D01*
X111460075Y-98210727D01*
X108518401Y-101152401D01*
X108381184Y-101357761D01*
X108332999Y-101600000D01*
X108333000Y-101600005D01*
X108333000Y-102353802D01*
X106846879Y-103839923D01*
X106773984Y-103839860D01*
X106476903Y-103962611D01*
X106249410Y-104189707D01*
X106126140Y-104486574D01*
X106125860Y-104808016D01*
X106248611Y-105105097D01*
X106475707Y-105332590D01*
X106772574Y-105455860D01*
X107094016Y-105456140D01*
X107391097Y-105333389D01*
X107618590Y-105106293D01*
X107741860Y-104809426D01*
X107741925Y-104735273D01*
X109413599Y-103063599D01*
X109436038Y-103030016D01*
X110951860Y-103030016D01*
X111074611Y-103327097D01*
X111301707Y-103554590D01*
X111598574Y-103677860D01*
X111920016Y-103678140D01*
X112217097Y-103555389D01*
X112444590Y-103328293D01*
X112567860Y-103031426D01*
X112568140Y-102709984D01*
X112445389Y-102412903D01*
X112218293Y-102185410D01*
X111921426Y-102062140D01*
X111599984Y-102061860D01*
X111302903Y-102184611D01*
X111075410Y-102411707D01*
X110952140Y-102708574D01*
X110951860Y-103030016D01*
X109436038Y-103030016D01*
X109550816Y-102858239D01*
X109580306Y-102709984D01*
X109599001Y-102616000D01*
X109599000Y-102615995D01*
X109599000Y-101862198D01*
X112355121Y-99106077D01*
X112428016Y-99106140D01*
X112725097Y-98983389D01*
X112952590Y-98756293D01*
X113075860Y-98459426D01*
X113076140Y-98137984D01*
X112953389Y-97840903D01*
X112901000Y-97788422D01*
X112901000Y-90432198D01*
X113223596Y-90109601D01*
X113223599Y-90109599D01*
X113360816Y-89904239D01*
X113409000Y-89662000D01*
X113409000Y-81281793D01*
X113460590Y-81230293D01*
X113583860Y-80933426D01*
X113584140Y-80611984D01*
X113461389Y-80314903D01*
X113409000Y-80262422D01*
X113409000Y-65786005D01*
X113409001Y-65786000D01*
X113360816Y-65543761D01*
X113223599Y-65338401D01*
X112393000Y-64507802D01*
X112393000Y-64437888D01*
X112682016Y-64438140D01*
X112979097Y-64315389D01*
X113206590Y-64088293D01*
X113329860Y-63791426D01*
X113330140Y-63469984D01*
X113207389Y-63172903D01*
X113155000Y-63120422D01*
X113155000Y-62884850D01*
X113772589Y-63502438D01*
X113772589Y-67185753D01*
X113772588Y-67185758D01*
X113815411Y-67401041D01*
X113815411Y-96221500D01*
X113815410Y-96221505D01*
X113863595Y-96463744D01*
X114000812Y-96669104D01*
X115296589Y-97964881D01*
X115296589Y-104473120D01*
X114830628Y-104939081D01*
X114731389Y-104698903D01*
X114504293Y-104471410D01*
X114207426Y-104348140D01*
X113885984Y-104347860D01*
X113588903Y-104470611D01*
X113361410Y-104697707D01*
X113238140Y-104994574D01*
X113237860Y-105316016D01*
X113360611Y-105613097D01*
X113587707Y-105840590D01*
X113828947Y-105940761D01*
X113703993Y-106065715D01*
X113703990Y-106065717D01*
X113566773Y-106271077D01*
X113518588Y-106513316D01*
X113518589Y-106513321D01*
X113518589Y-108819759D01*
X113488293Y-108789410D01*
X113191426Y-108666140D01*
X112869984Y-108665860D01*
X112744600Y-108717667D01*
X109751335Y-105724401D01*
X109545975Y-105587184D01*
X109303736Y-105538999D01*
X109303731Y-105539000D01*
X101854000Y-105539000D01*
X101611761Y-105587184D01*
X101406401Y-105724401D01*
X95241802Y-111889000D01*
X87638197Y-111889000D01*
X87501000Y-111751802D01*
X87501000Y-111297888D01*
X87790016Y-111298140D01*
X88087097Y-111175389D01*
X88139578Y-111123000D01*
X91185995Y-111123000D01*
X91186000Y-111123001D01*
X91428239Y-111074816D01*
X91633599Y-110937599D01*
X91887596Y-110683601D01*
X91887599Y-110683599D01*
X91901960Y-110662106D01*
X91901860Y-110777016D01*
X92024611Y-111074097D01*
X92251707Y-111301590D01*
X92548574Y-111424860D01*
X92870016Y-111425140D01*
X93167097Y-111302389D01*
X93394590Y-111075293D01*
X93517860Y-110778426D01*
X93517925Y-110704273D01*
X94173599Y-110048599D01*
X94310816Y-109843239D01*
X94359001Y-109601000D01*
X94359000Y-109600995D01*
X94359000Y-105543589D01*
X94453574Y-105582860D01*
X94775016Y-105583140D01*
X95072097Y-105460389D01*
X95299590Y-105233293D01*
X95422860Y-104936426D01*
X95423140Y-104614984D01*
X95300389Y-104317903D01*
X95073293Y-104090410D01*
X94776426Y-103967140D01*
X94454984Y-103966860D01*
X94359000Y-104006520D01*
X94359000Y-93632016D01*
X107141860Y-93632016D01*
X107264611Y-93929097D01*
X107491707Y-94156590D01*
X107788574Y-94279860D01*
X108110016Y-94280140D01*
X108407097Y-94157389D01*
X108634590Y-93930293D01*
X108757860Y-93633426D01*
X108758140Y-93311984D01*
X108635389Y-93014903D01*
X108408293Y-92787410D01*
X108111426Y-92664140D01*
X107789984Y-92663860D01*
X107492903Y-92786611D01*
X107265410Y-93013707D01*
X107142140Y-93310574D01*
X107141860Y-93632016D01*
X94359000Y-93632016D01*
X94359000Y-85504016D01*
X103331860Y-85504016D01*
X103454611Y-85801097D01*
X103681707Y-86028590D01*
X103978574Y-86151860D01*
X104300016Y-86152140D01*
X104597097Y-86029389D01*
X104824590Y-85802293D01*
X104947860Y-85505426D01*
X104948140Y-85183984D01*
X104825389Y-84886903D01*
X104598293Y-84659410D01*
X104301426Y-84536140D01*
X103979984Y-84535860D01*
X103682903Y-84658611D01*
X103455410Y-84885707D01*
X103332140Y-85182574D01*
X103331860Y-85504016D01*
X94359000Y-85504016D01*
X94359000Y-81931818D01*
X94310816Y-81689579D01*
X94173599Y-81484219D01*
X94173596Y-81484217D01*
X93812849Y-81123469D01*
X93812912Y-81050574D01*
X93690161Y-80753493D01*
X93463065Y-80526000D01*
X93166198Y-80402730D01*
X93092045Y-80402665D01*
X92835000Y-80145620D01*
X92835000Y-72144198D01*
X93051121Y-71928077D01*
X93124016Y-71928140D01*
X93421097Y-71805389D01*
X93648590Y-71578293D01*
X93771860Y-71281426D01*
X93772140Y-70959984D01*
X93649389Y-70662903D01*
X93422293Y-70435410D01*
X93125426Y-70312140D01*
X92803984Y-70311860D01*
X92506903Y-70434611D01*
X92279410Y-70661707D01*
X92156140Y-70958574D01*
X92156075Y-71032727D01*
X91754401Y-71434401D01*
X91617184Y-71639761D01*
X91568999Y-71882000D01*
X91569000Y-71882005D01*
X91569000Y-80407813D01*
X91568999Y-80407818D01*
X91617184Y-80650057D01*
X91754401Y-80855417D01*
X92196695Y-81297711D01*
X92196632Y-81370606D01*
X92319383Y-81667687D01*
X92546479Y-81895180D01*
X92843346Y-82018450D01*
X92917499Y-82018515D01*
X93093000Y-82194015D01*
X93093000Y-108132287D01*
X92919017Y-107958000D01*
X92622150Y-107834730D01*
X92300708Y-107834450D01*
X92003627Y-107957201D01*
X91776134Y-108184297D01*
X91669746Y-108440509D01*
X91601426Y-108412140D01*
X91279984Y-108411860D01*
X90982903Y-108534611D01*
X90755410Y-108761707D01*
X90632140Y-109058574D01*
X90631860Y-109380016D01*
X90754611Y-109677097D01*
X90807000Y-109729578D01*
X90807000Y-109857000D01*
X88139793Y-109857000D01*
X88088293Y-109805410D01*
X87791426Y-109682140D01*
X87501000Y-109681887D01*
X87501000Y-107188005D01*
X87501001Y-107188000D01*
X87452816Y-106945762D01*
X87452816Y-106945761D01*
X87315599Y-106740401D01*
X85891214Y-105316016D01*
X90123860Y-105316016D01*
X90246611Y-105613097D01*
X90473707Y-105840590D01*
X90770574Y-105963860D01*
X91092016Y-105964140D01*
X91389097Y-105841389D01*
X91616590Y-105614293D01*
X91739860Y-105317426D01*
X91740140Y-104995984D01*
X91617389Y-104698903D01*
X91390293Y-104471410D01*
X91093426Y-104348140D01*
X90771984Y-104347860D01*
X90474903Y-104470611D01*
X90247410Y-104697707D01*
X90124140Y-104994574D01*
X90123860Y-105316016D01*
X85891214Y-105316016D01*
X84267599Y-103692401D01*
X84062239Y-103555184D01*
X83820000Y-103506999D01*
X83819995Y-103507000D01*
X77986197Y-103507000D01*
X74461213Y-99982016D01*
X87456860Y-99982016D01*
X87579611Y-100279097D01*
X87806707Y-100506590D01*
X88103574Y-100629860D01*
X88425016Y-100630140D01*
X88722097Y-100507389D01*
X88949590Y-100280293D01*
X89072860Y-99983426D01*
X89073140Y-99661984D01*
X88950389Y-99364903D01*
X88723293Y-99137410D01*
X88426426Y-99014140D01*
X88104984Y-99013860D01*
X87807903Y-99136611D01*
X87580410Y-99363707D01*
X87457140Y-99660574D01*
X87456860Y-99982016D01*
X74461213Y-99982016D01*
X73279000Y-98799803D01*
X73279000Y-98458016D01*
X74883860Y-98458016D01*
X75006611Y-98755097D01*
X75233707Y-98982590D01*
X75530574Y-99105860D01*
X75852016Y-99106140D01*
X76149097Y-98983389D01*
X76376590Y-98756293D01*
X76428616Y-98631001D01*
X80463803Y-98631001D01*
X80471923Y-98639121D01*
X80471860Y-98712016D01*
X80594611Y-99009097D01*
X80821707Y-99236590D01*
X81118574Y-99359860D01*
X81440016Y-99360140D01*
X81737097Y-99237389D01*
X81964590Y-99010293D01*
X82087860Y-98713426D01*
X82088140Y-98391984D01*
X81965389Y-98094903D01*
X81738293Y-97867410D01*
X81441426Y-97744140D01*
X81367273Y-97744075D01*
X81173600Y-97550402D01*
X80968240Y-97413185D01*
X80726001Y-97365000D01*
X80725996Y-97365001D01*
X75992004Y-97365001D01*
X75991999Y-97365000D01*
X75789951Y-97405191D01*
X75749760Y-97413185D01*
X75634873Y-97489950D01*
X75531984Y-97489860D01*
X75234903Y-97612611D01*
X75007410Y-97839707D01*
X74884140Y-98136574D01*
X74883860Y-98458016D01*
X73279000Y-98458016D01*
X73279000Y-83804099D01*
X73345599Y-83759599D01*
X73853596Y-83251601D01*
X73853599Y-83251599D01*
X73990816Y-83046239D01*
X74039000Y-82804000D01*
X74039000Y-82167000D01*
X74675995Y-82167000D01*
X74676000Y-82167001D01*
X74918239Y-82118816D01*
X75123599Y-81981599D01*
X75885596Y-81219601D01*
X75885599Y-81219599D01*
X76022816Y-81014239D01*
X76039171Y-80932016D01*
X76071001Y-80772000D01*
X76071000Y-80771995D01*
X76071000Y-80264000D01*
X76022816Y-80021761D01*
X75885599Y-79816401D01*
X75885596Y-79816399D01*
X75377599Y-79308401D01*
X75172239Y-79171184D01*
X74930000Y-79122999D01*
X74929995Y-79123000D01*
X73279000Y-79123000D01*
X73279000Y-75437796D01*
X73328590Y-75388293D01*
X73451860Y-75091426D01*
X73452069Y-74851000D01*
X80924400Y-74851000D01*
X81185773Y-74799010D01*
X81407354Y-74650954D01*
X86250713Y-69807595D01*
X86614000Y-69879857D01*
X87138889Y-69775450D01*
X87583868Y-69478125D01*
X87881193Y-69033146D01*
X87985600Y-68508257D01*
X87985600Y-68143743D01*
X87881193Y-67618854D01*
X87583868Y-67173875D01*
X87138889Y-66876550D01*
X86614000Y-66772143D01*
X86089111Y-66876550D01*
X85644132Y-67173875D01*
X85346807Y-67618854D01*
X85344000Y-67632966D01*
X85341193Y-67618854D01*
X85043868Y-67173875D01*
X84598889Y-66876550D01*
X84074000Y-66772143D01*
X83549111Y-66876550D01*
X83104132Y-67173875D01*
X82915552Y-67456105D01*
X82915552Y-67310000D01*
X82880130Y-67121747D01*
X82768872Y-66948847D01*
X82599112Y-66832855D01*
X82397600Y-66792048D01*
X80670400Y-66792048D01*
X80482147Y-66827470D01*
X80309247Y-66938728D01*
X80193255Y-67108488D01*
X80152448Y-67310000D01*
X80152448Y-69342000D01*
X80187870Y-69530253D01*
X80299128Y-69703153D01*
X80468888Y-69819145D01*
X80670400Y-69859952D01*
X82397600Y-69859952D01*
X82585853Y-69824530D01*
X82758753Y-69713272D01*
X82874745Y-69543512D01*
X82915552Y-69342000D01*
X82915552Y-69195895D01*
X83104132Y-69478125D01*
X83549111Y-69775450D01*
X84074000Y-69879857D01*
X84289501Y-69836991D01*
X80641492Y-73485000D01*
X73434908Y-73485000D01*
X73279000Y-73329092D01*
X73279000Y-70865796D01*
X73328590Y-70816293D01*
X73451860Y-70519426D01*
X73452140Y-70197984D01*
X73360005Y-69975000D01*
X74675995Y-69975000D01*
X74676000Y-69975001D01*
X74918239Y-69926816D01*
X75123599Y-69789599D01*
X84809182Y-60104016D01*
X91393860Y-60104016D01*
X91516611Y-60401097D01*
X91743707Y-60628590D01*
X92040574Y-60751860D01*
X92362016Y-60752140D01*
X92659097Y-60629389D01*
X92886590Y-60402293D01*
X93009860Y-60105426D01*
X93010140Y-59783984D01*
X92887389Y-59486903D01*
X92660293Y-59259410D01*
X92363426Y-59136140D01*
X92041984Y-59135860D01*
X91744903Y-59258611D01*
X91517410Y-59485707D01*
X91394140Y-59782574D01*
X91393860Y-60104016D01*
X84809182Y-60104016D01*
X86368198Y-58545000D01*
X93661428Y-58545000D01*
X93763246Y-58646818D01*
X93763246Y-58646818D01*
G37*
X93763246Y-58646818D02*
X93763248Y-58646821D01*
X93968608Y-58784038D01*
X94210847Y-58832222D01*
X94765148Y-58832222D01*
X94765153Y-58832223D01*
X95007392Y-58784038D01*
X95212752Y-58646821D01*
X95314573Y-58545000D01*
X107488146Y-58545000D01*
X107396140Y-58766574D01*
X107395860Y-59088016D01*
X107518611Y-59385097D01*
X107745707Y-59612590D01*
X108042574Y-59735860D01*
X108364016Y-59736140D01*
X108661097Y-59613389D01*
X108888590Y-59386293D01*
X108932162Y-59281359D01*
X109280399Y-59629596D01*
X109280401Y-59629599D01*
X109439432Y-59735860D01*
X109485761Y-59766816D01*
X109728000Y-59815000D01*
X111501802Y-59815000D01*
X111312401Y-60004401D01*
X111175184Y-60209761D01*
X111126999Y-60452000D01*
X111127000Y-60452005D01*
X111127000Y-62867000D01*
X105038234Y-62867000D01*
X104795995Y-62915184D01*
X104590635Y-63052401D01*
X104590633Y-63052404D01*
X104522037Y-63121000D01*
X102878198Y-63121000D01*
X101094889Y-61337691D01*
X101268590Y-61164293D01*
X101391860Y-60867426D01*
X101392140Y-60545984D01*
X101269389Y-60248903D01*
X101042293Y-60021410D01*
X100745426Y-59898140D01*
X100423984Y-59897860D01*
X100126903Y-60020611D01*
X99899410Y-60247707D01*
X99776140Y-60544574D01*
X99775860Y-60866016D01*
X99867995Y-61089000D01*
X87885793Y-61089000D01*
X87834293Y-61037410D01*
X87537426Y-60914140D01*
X87215984Y-60913860D01*
X86918903Y-61036611D01*
X86691410Y-61263707D01*
X86568140Y-61560574D01*
X86567860Y-61882016D01*
X86690611Y-62179097D01*
X86917707Y-62406590D01*
X87214574Y-62529860D01*
X87536016Y-62530140D01*
X87833097Y-62407389D01*
X87885578Y-62355000D01*
X90978146Y-62355000D01*
X90886140Y-62576574D01*
X90885860Y-62898016D01*
X91008611Y-63195097D01*
X91235707Y-63422590D01*
X91532574Y-63545860D01*
X91606727Y-63545925D01*
X91823000Y-63762197D01*
X91823000Y-67054207D01*
X91771410Y-67105707D01*
X91648140Y-67402574D01*
X91647860Y-67724016D01*
X91770611Y-68021097D01*
X91997707Y-68248590D01*
X92294574Y-68371860D01*
X92616016Y-68372140D01*
X92913097Y-68249389D01*
X92930500Y-68232016D01*
X104093860Y-68232016D01*
X104216611Y-68529097D01*
X104443707Y-68756590D01*
X104740574Y-68879860D01*
X105062016Y-68880140D01*
X105359097Y-68757389D01*
X105586590Y-68530293D01*
X105709860Y-68233426D01*
X105710140Y-67911984D01*
X105587389Y-67614903D01*
X105360293Y-67387410D01*
X105063426Y-67264140D01*
X104741984Y-67263860D01*
X104444903Y-67386611D01*
X104217410Y-67613707D01*
X104094140Y-67910574D01*
X104093860Y-68232016D01*
X92930500Y-68232016D01*
X93140590Y-68022293D01*
X93263860Y-67725426D01*
X93264140Y-67403984D01*
X93141389Y-67106903D01*
X93089000Y-67054422D01*
X93089000Y-63500005D01*
X93089001Y-63500000D01*
X93070307Y-63406016D01*
X98378860Y-63406016D01*
X98501611Y-63703097D01*
X98728707Y-63930590D01*
X99025574Y-64053860D01*
X99347016Y-64054140D01*
X99644097Y-63931389D01*
X99871590Y-63704293D01*
X99994860Y-63407426D01*
X99995140Y-63085984D01*
X99872389Y-62788903D01*
X99645293Y-62561410D01*
X99348426Y-62438140D01*
X99026984Y-62437860D01*
X98729903Y-62560611D01*
X98502410Y-62787707D01*
X98379140Y-63084574D01*
X98378860Y-63406016D01*
X93070307Y-63406016D01*
X93040816Y-63257762D01*
X93040816Y-63257761D01*
X92903599Y-63052401D01*
X92903596Y-63052399D01*
X92502077Y-62650879D01*
X92502140Y-62577984D01*
X92410005Y-62355000D01*
X100321802Y-62355000D01*
X102168401Y-64201599D01*
X102373761Y-64338816D01*
X102413952Y-64346810D01*
X102616000Y-64387001D01*
X102616005Y-64387000D01*
X104784229Y-64387000D01*
X104784234Y-64387001D01*
X105026473Y-64338816D01*
X105231833Y-64201599D01*
X105300432Y-64133000D01*
X106888112Y-64133000D01*
X106887860Y-64422016D01*
X107010611Y-64719097D01*
X107013000Y-64721490D01*
X107013000Y-73123092D01*
X106651092Y-73485000D01*
X98249880Y-73485000D01*
X98248293Y-73483410D01*
X97951426Y-73360140D01*
X97629984Y-73359860D01*
X97332903Y-73482611D01*
X97105410Y-73709707D01*
X96982140Y-74006574D01*
X96981860Y-74328016D01*
X97104611Y-74625097D01*
X97157000Y-74677578D01*
X97157000Y-81860333D01*
X97110134Y-81907117D01*
X96986864Y-82203984D01*
X96986584Y-82525426D01*
X97109335Y-82822507D01*
X97336431Y-83050000D01*
X97633298Y-83173270D01*
X97954740Y-83173550D01*
X98251821Y-83050799D01*
X98479314Y-82823703D01*
X98602584Y-82526836D01*
X98602864Y-82205394D01*
X98480113Y-81908313D01*
X98423000Y-81851100D01*
X98423000Y-74851000D01*
X106451384Y-74851000D01*
X106380140Y-75022574D01*
X106379860Y-75344016D01*
X106502611Y-75641097D01*
X106555000Y-75693578D01*
X106555000Y-79493803D01*
X104814879Y-81233923D01*
X104741984Y-81233860D01*
X104444903Y-81356611D01*
X104217410Y-81583707D01*
X104094140Y-81880574D01*
X104093860Y-82202016D01*
X104216611Y-82499097D01*
X104443707Y-82726590D01*
X104740574Y-82849860D01*
X105062016Y-82850140D01*
X105359097Y-82727389D01*
X105586590Y-82500293D01*
X105709860Y-82203426D01*
X105709925Y-82129273D01*
X107635596Y-80203601D01*
X107635599Y-80203599D01*
X107772816Y-79998239D01*
X107821000Y-79756000D01*
X107821000Y-75693793D01*
X107872590Y-75642293D01*
X107995860Y-75345426D01*
X107996140Y-75023984D01*
X107873389Y-74726903D01*
X107646293Y-74499410D01*
X107591323Y-74476585D01*
X108178954Y-73888954D01*
X108327010Y-73667373D01*
X108379000Y-73406000D01*
X108379000Y-64721880D01*
X108380590Y-64720293D01*
X108503860Y-64423426D01*
X108504113Y-64133000D01*
X111127000Y-64133000D01*
X111127000Y-64769995D01*
X111126999Y-64770000D01*
X111175184Y-65012239D01*
X111312401Y-65217599D01*
X112143000Y-66048198D01*
X112143000Y-80262207D01*
X112091410Y-80313707D01*
X111968140Y-80610574D01*
X111967860Y-80932016D01*
X112090611Y-81229097D01*
X112143000Y-81281578D01*
X112143000Y-89399803D01*
X111820401Y-89722401D01*
X111683184Y-89927761D01*
X111634999Y-90170000D01*
X111635000Y-90170005D01*
X111635000Y-97788207D01*
X111583410Y-97839707D01*
X111460140Y-98136574D01*
X111460075Y-98210727D01*
X108518401Y-101152401D01*
X108381184Y-101357761D01*
X108332999Y-101600000D01*
X108333000Y-101600005D01*
X108333000Y-102353802D01*
X106846879Y-103839923D01*
X106773984Y-103839860D01*
X106476903Y-103962611D01*
X106249410Y-104189707D01*
X106126140Y-104486574D01*
X106125860Y-104808016D01*
X106248611Y-105105097D01*
X106475707Y-105332590D01*
X106772574Y-105455860D01*
X107094016Y-105456140D01*
X107391097Y-105333389D01*
X107618590Y-105106293D01*
X107741860Y-104809426D01*
X107741925Y-104735273D01*
X109413599Y-103063599D01*
X109436038Y-103030016D01*
X110951860Y-103030016D01*
X111074611Y-103327097D01*
X111301707Y-103554590D01*
X111598574Y-103677860D01*
X111920016Y-103678140D01*
X112217097Y-103555389D01*
X112444590Y-103328293D01*
X112567860Y-103031426D01*
X112568140Y-102709984D01*
X112445389Y-102412903D01*
X112218293Y-102185410D01*
X111921426Y-102062140D01*
X111599984Y-102061860D01*
X111302903Y-102184611D01*
X111075410Y-102411707D01*
X110952140Y-102708574D01*
X110951860Y-103030016D01*
X109436038Y-103030016D01*
X109550816Y-102858239D01*
X109580306Y-102709984D01*
X109599001Y-102616000D01*
X109599000Y-102615995D01*
X109599000Y-101862198D01*
X112355121Y-99106077D01*
X112428016Y-99106140D01*
X112725097Y-98983389D01*
X112952590Y-98756293D01*
X113075860Y-98459426D01*
X113076140Y-98137984D01*
X112953389Y-97840903D01*
X112901000Y-97788422D01*
X112901000Y-90432198D01*
X113223596Y-90109601D01*
X113223599Y-90109599D01*
X113360816Y-89904239D01*
X113409000Y-89662000D01*
X113409000Y-81281793D01*
X113460590Y-81230293D01*
X113583860Y-80933426D01*
X113584140Y-80611984D01*
X113461389Y-80314903D01*
X113409000Y-80262422D01*
X113409000Y-65786005D01*
X113409001Y-65786000D01*
X113360816Y-65543761D01*
X113223599Y-65338401D01*
X112393000Y-64507802D01*
X112393000Y-64437888D01*
X112682016Y-64438140D01*
X112979097Y-64315389D01*
X113206590Y-64088293D01*
X113329860Y-63791426D01*
X113330140Y-63469984D01*
X113207389Y-63172903D01*
X113155000Y-63120422D01*
X113155000Y-62884850D01*
X113772589Y-63502438D01*
X113772589Y-67185753D01*
X113772588Y-67185758D01*
X113815411Y-67401041D01*
X113815411Y-96221500D01*
X113815410Y-96221505D01*
X113863595Y-96463744D01*
X114000812Y-96669104D01*
X115296589Y-97964881D01*
X115296589Y-104473120D01*
X114830628Y-104939081D01*
X114731389Y-104698903D01*
X114504293Y-104471410D01*
X114207426Y-104348140D01*
X113885984Y-104347860D01*
X113588903Y-104470611D01*
X113361410Y-104697707D01*
X113238140Y-104994574D01*
X113237860Y-105316016D01*
X113360611Y-105613097D01*
X113587707Y-105840590D01*
X113828947Y-105940761D01*
X113703993Y-106065715D01*
X113703990Y-106065717D01*
X113566773Y-106271077D01*
X113518588Y-106513316D01*
X113518589Y-106513321D01*
X113518589Y-108819759D01*
X113488293Y-108789410D01*
X113191426Y-108666140D01*
X112869984Y-108665860D01*
X112744600Y-108717667D01*
X109751335Y-105724401D01*
X109545975Y-105587184D01*
X109303736Y-105538999D01*
X109303731Y-105539000D01*
X101854000Y-105539000D01*
X101611761Y-105587184D01*
X101406401Y-105724401D01*
X95241802Y-111889000D01*
X87638197Y-111889000D01*
X87501000Y-111751802D01*
X87501000Y-111297888D01*
X87790016Y-111298140D01*
X88087097Y-111175389D01*
X88139578Y-111123000D01*
X91185995Y-111123000D01*
X91186000Y-111123001D01*
X91428239Y-111074816D01*
X91633599Y-110937599D01*
X91887596Y-110683601D01*
X91887599Y-110683599D01*
X91901960Y-110662106D01*
X91901860Y-110777016D01*
X92024611Y-111074097D01*
X92251707Y-111301590D01*
X92548574Y-111424860D01*
X92870016Y-111425140D01*
X93167097Y-111302389D01*
X93394590Y-111075293D01*
X93517860Y-110778426D01*
X93517925Y-110704273D01*
X94173599Y-110048599D01*
X94310816Y-109843239D01*
X94359001Y-109601000D01*
X94359000Y-109600995D01*
X94359000Y-105543589D01*
X94453574Y-105582860D01*
X94775016Y-105583140D01*
X95072097Y-105460389D01*
X95299590Y-105233293D01*
X95422860Y-104936426D01*
X95423140Y-104614984D01*
X95300389Y-104317903D01*
X95073293Y-104090410D01*
X94776426Y-103967140D01*
X94454984Y-103966860D01*
X94359000Y-104006520D01*
X94359000Y-93632016D01*
X107141860Y-93632016D01*
X107264611Y-93929097D01*
X107491707Y-94156590D01*
X107788574Y-94279860D01*
X108110016Y-94280140D01*
X108407097Y-94157389D01*
X108634590Y-93930293D01*
X108757860Y-93633426D01*
X108758140Y-93311984D01*
X108635389Y-93014903D01*
X108408293Y-92787410D01*
X108111426Y-92664140D01*
X107789984Y-92663860D01*
X107492903Y-92786611D01*
X107265410Y-93013707D01*
X107142140Y-93310574D01*
X107141860Y-93632016D01*
X94359000Y-93632016D01*
X94359000Y-85504016D01*
X103331860Y-85504016D01*
X103454611Y-85801097D01*
X103681707Y-86028590D01*
X103978574Y-86151860D01*
X104300016Y-86152140D01*
X104597097Y-86029389D01*
X104824590Y-85802293D01*
X104947860Y-85505426D01*
X104948140Y-85183984D01*
X104825389Y-84886903D01*
X104598293Y-84659410D01*
X104301426Y-84536140D01*
X103979984Y-84535860D01*
X103682903Y-84658611D01*
X103455410Y-84885707D01*
X103332140Y-85182574D01*
X103331860Y-85504016D01*
X94359000Y-85504016D01*
X94359000Y-81931818D01*
X94310816Y-81689579D01*
X94173599Y-81484219D01*
X94173596Y-81484217D01*
X93812849Y-81123469D01*
X93812912Y-81050574D01*
X93690161Y-80753493D01*
X93463065Y-80526000D01*
X93166198Y-80402730D01*
X93092045Y-80402665D01*
X92835000Y-80145620D01*
X92835000Y-72144198D01*
X93051121Y-71928077D01*
X93124016Y-71928140D01*
X93421097Y-71805389D01*
X93648590Y-71578293D01*
X93771860Y-71281426D01*
X93772140Y-70959984D01*
X93649389Y-70662903D01*
X93422293Y-70435410D01*
X93125426Y-70312140D01*
X92803984Y-70311860D01*
X92506903Y-70434611D01*
X92279410Y-70661707D01*
X92156140Y-70958574D01*
X92156075Y-71032727D01*
X91754401Y-71434401D01*
X91617184Y-71639761D01*
X91568999Y-71882000D01*
X91569000Y-71882005D01*
X91569000Y-80407813D01*
X91568999Y-80407818D01*
X91617184Y-80650057D01*
X91754401Y-80855417D01*
X92196695Y-81297711D01*
X92196632Y-81370606D01*
X92319383Y-81667687D01*
X92546479Y-81895180D01*
X92843346Y-82018450D01*
X92917499Y-82018515D01*
X93093000Y-82194015D01*
X93093000Y-108132287D01*
X92919017Y-107958000D01*
X92622150Y-107834730D01*
X92300708Y-107834450D01*
X92003627Y-107957201D01*
X91776134Y-108184297D01*
X91669746Y-108440509D01*
X91601426Y-108412140D01*
X91279984Y-108411860D01*
X90982903Y-108534611D01*
X90755410Y-108761707D01*
X90632140Y-109058574D01*
X90631860Y-109380016D01*
X90754611Y-109677097D01*
X90807000Y-109729578D01*
X90807000Y-109857000D01*
X88139793Y-109857000D01*
X88088293Y-109805410D01*
X87791426Y-109682140D01*
X87501000Y-109681887D01*
X87501000Y-107188005D01*
X87501001Y-107188000D01*
X87452816Y-106945762D01*
X87452816Y-106945761D01*
X87315599Y-106740401D01*
X85891214Y-105316016D01*
X90123860Y-105316016D01*
X90246611Y-105613097D01*
X90473707Y-105840590D01*
X90770574Y-105963860D01*
X91092016Y-105964140D01*
X91389097Y-105841389D01*
X91616590Y-105614293D01*
X91739860Y-105317426D01*
X91740140Y-104995984D01*
X91617389Y-104698903D01*
X91390293Y-104471410D01*
X91093426Y-104348140D01*
X90771984Y-104347860D01*
X90474903Y-104470611D01*
X90247410Y-104697707D01*
X90124140Y-104994574D01*
X90123860Y-105316016D01*
X85891214Y-105316016D01*
X84267599Y-103692401D01*
X84062239Y-103555184D01*
X83820000Y-103506999D01*
X83819995Y-103507000D01*
X77986197Y-103507000D01*
X74461213Y-99982016D01*
X87456860Y-99982016D01*
X87579611Y-100279097D01*
X87806707Y-100506590D01*
X88103574Y-100629860D01*
X88425016Y-100630140D01*
X88722097Y-100507389D01*
X88949590Y-100280293D01*
X89072860Y-99983426D01*
X89073140Y-99661984D01*
X88950389Y-99364903D01*
X88723293Y-99137410D01*
X88426426Y-99014140D01*
X88104984Y-99013860D01*
X87807903Y-99136611D01*
X87580410Y-99363707D01*
X87457140Y-99660574D01*
X87456860Y-99982016D01*
X74461213Y-99982016D01*
X73279000Y-98799803D01*
X73279000Y-98458016D01*
X74883860Y-98458016D01*
X75006611Y-98755097D01*
X75233707Y-98982590D01*
X75530574Y-99105860D01*
X75852016Y-99106140D01*
X76149097Y-98983389D01*
X76376590Y-98756293D01*
X76428616Y-98631001D01*
X80463803Y-98631001D01*
X80471923Y-98639121D01*
X80471860Y-98712016D01*
X80594611Y-99009097D01*
X80821707Y-99236590D01*
X81118574Y-99359860D01*
X81440016Y-99360140D01*
X81737097Y-99237389D01*
X81964590Y-99010293D01*
X82087860Y-98713426D01*
X82088140Y-98391984D01*
X81965389Y-98094903D01*
X81738293Y-97867410D01*
X81441426Y-97744140D01*
X81367273Y-97744075D01*
X81173600Y-97550402D01*
X80968240Y-97413185D01*
X80726001Y-97365000D01*
X80725996Y-97365001D01*
X75992004Y-97365001D01*
X75991999Y-97365000D01*
X75789951Y-97405191D01*
X75749760Y-97413185D01*
X75634873Y-97489950D01*
X75531984Y-97489860D01*
X75234903Y-97612611D01*
X75007410Y-97839707D01*
X74884140Y-98136574D01*
X74883860Y-98458016D01*
X73279000Y-98458016D01*
X73279000Y-83804099D01*
X73345599Y-83759599D01*
X73853596Y-83251601D01*
X73853599Y-83251599D01*
X73990816Y-83046239D01*
X74039000Y-82804000D01*
X74039000Y-82167000D01*
X74675995Y-82167000D01*
X74676000Y-82167001D01*
X74918239Y-82118816D01*
X75123599Y-81981599D01*
X75885596Y-81219601D01*
X75885599Y-81219599D01*
X76022816Y-81014239D01*
X76039171Y-80932016D01*
X76071001Y-80772000D01*
X76071000Y-80771995D01*
X76071000Y-80264000D01*
X76022816Y-80021761D01*
X75885599Y-79816401D01*
X75885596Y-79816399D01*
X75377599Y-79308401D01*
X75172239Y-79171184D01*
X74930000Y-79122999D01*
X74929995Y-79123000D01*
X73279000Y-79123000D01*
X73279000Y-75437796D01*
X73328590Y-75388293D01*
X73451860Y-75091426D01*
X73452069Y-74851000D01*
X80924400Y-74851000D01*
X81185773Y-74799010D01*
X81407354Y-74650954D01*
X86250713Y-69807595D01*
X86614000Y-69879857D01*
X87138889Y-69775450D01*
X87583868Y-69478125D01*
X87881193Y-69033146D01*
X87985600Y-68508257D01*
X87985600Y-68143743D01*
X87881193Y-67618854D01*
X87583868Y-67173875D01*
X87138889Y-66876550D01*
X86614000Y-66772143D01*
X86089111Y-66876550D01*
X85644132Y-67173875D01*
X85346807Y-67618854D01*
X85344000Y-67632966D01*
X85341193Y-67618854D01*
X85043868Y-67173875D01*
X84598889Y-66876550D01*
X84074000Y-66772143D01*
X83549111Y-66876550D01*
X83104132Y-67173875D01*
X82915552Y-67456105D01*
X82915552Y-67310000D01*
X82880130Y-67121747D01*
X82768872Y-66948847D01*
X82599112Y-66832855D01*
X82397600Y-66792048D01*
X80670400Y-66792048D01*
X80482147Y-66827470D01*
X80309247Y-66938728D01*
X80193255Y-67108488D01*
X80152448Y-67310000D01*
X80152448Y-69342000D01*
X80187870Y-69530253D01*
X80299128Y-69703153D01*
X80468888Y-69819145D01*
X80670400Y-69859952D01*
X82397600Y-69859952D01*
X82585853Y-69824530D01*
X82758753Y-69713272D01*
X82874745Y-69543512D01*
X82915552Y-69342000D01*
X82915552Y-69195895D01*
X83104132Y-69478125D01*
X83549111Y-69775450D01*
X84074000Y-69879857D01*
X84289501Y-69836991D01*
X80641492Y-73485000D01*
X73434908Y-73485000D01*
X73279000Y-73329092D01*
X73279000Y-70865796D01*
X73328590Y-70816293D01*
X73451860Y-70519426D01*
X73452140Y-70197984D01*
X73360005Y-69975000D01*
X74675995Y-69975000D01*
X74676000Y-69975001D01*
X74918239Y-69926816D01*
X75123599Y-69789599D01*
X84809182Y-60104016D01*
X91393860Y-60104016D01*
X91516611Y-60401097D01*
X91743707Y-60628590D01*
X92040574Y-60751860D01*
X92362016Y-60752140D01*
X92659097Y-60629389D01*
X92886590Y-60402293D01*
X93009860Y-60105426D01*
X93010140Y-59783984D01*
X92887389Y-59486903D01*
X92660293Y-59259410D01*
X92363426Y-59136140D01*
X92041984Y-59135860D01*
X91744903Y-59258611D01*
X91517410Y-59485707D01*
X91394140Y-59782574D01*
X91393860Y-60104016D01*
X84809182Y-60104016D01*
X86368198Y-58545000D01*
X93661428Y-58545000D01*
X93763246Y-58646818D01*
G36*
X74413802Y-67185000D02*
X73279000Y-67185000D01*
X73279000Y-65531796D01*
X73328590Y-65482293D01*
X73420738Y-65260375D01*
X73553600Y-65171600D01*
X73576200Y-65149000D01*
X74929995Y-65149000D01*
X74930000Y-65149001D01*
X75172239Y-65100816D01*
X75377599Y-64963599D01*
X78725595Y-61615602D01*
X78725598Y-61615600D01*
X78862815Y-61410240D01*
X78881751Y-61315043D01*
X78911000Y-61168001D01*
X78910999Y-61167996D01*
X78910999Y-60414199D01*
X80859121Y-58466077D01*
X80932016Y-58466140D01*
X81229097Y-58343389D01*
X81456590Y-58116293D01*
X81579860Y-57819426D01*
X81579925Y-57745273D01*
X82812197Y-56513000D01*
X85085803Y-56513000D01*
X74413802Y-67185000D01*
X74413802Y-67185000D01*
G37*
X74413802Y-67185000D02*
X73279000Y-67185000D01*
X73279000Y-65531796D01*
X73328590Y-65482293D01*
X73420738Y-65260375D01*
X73553600Y-65171600D01*
X73576200Y-65149000D01*
X74929995Y-65149000D01*
X74930000Y-65149001D01*
X75172239Y-65100816D01*
X75377599Y-64963599D01*
X78725595Y-61615602D01*
X78725598Y-61615600D01*
X78862815Y-61410240D01*
X78881751Y-61315043D01*
X78911000Y-61168001D01*
X78910999Y-61167996D01*
X78910999Y-60414199D01*
X80859121Y-58466077D01*
X80932016Y-58466140D01*
X81229097Y-58343389D01*
X81456590Y-58116293D01*
X81579860Y-57819426D01*
X81579925Y-57745273D01*
X82812197Y-56513000D01*
X85085803Y-56513000D01*
X74413802Y-67185000D01*
G36*
X111809707Y-50722590D02*
X111934999Y-50774616D01*
X111934999Y-53405246D01*
X111667426Y-53294140D01*
X111345984Y-53293860D01*
X111048903Y-53416611D01*
X110821410Y-53643707D01*
X110698140Y-53940574D01*
X110697860Y-54262016D01*
X110820611Y-54559097D01*
X111047707Y-54786590D01*
X111344574Y-54909860D01*
X111666016Y-54910140D01*
X111934999Y-54798999D01*
X111934999Y-57357438D01*
X111934998Y-57357443D01*
X111983183Y-57599682D01*
X112120400Y-57805042D01*
X112767741Y-58452383D01*
X112684903Y-58486611D01*
X112622405Y-58549000D01*
X109990197Y-58549000D01*
X108905599Y-57464401D01*
X108700239Y-57327184D01*
X108458000Y-57278999D01*
X108457995Y-57279000D01*
X104906198Y-57279000D01*
X111636309Y-50548888D01*
X111809707Y-50722590D01*
X111809707Y-50722590D01*
G37*
X111809707Y-50722590D02*
X111934999Y-50774616D01*
X111934999Y-53405246D01*
X111667426Y-53294140D01*
X111345984Y-53293860D01*
X111048903Y-53416611D01*
X110821410Y-53643707D01*
X110698140Y-53940574D01*
X110697860Y-54262016D01*
X110820611Y-54559097D01*
X111047707Y-54786590D01*
X111344574Y-54909860D01*
X111666016Y-54910140D01*
X111934999Y-54798999D01*
X111934999Y-57357438D01*
X111934998Y-57357443D01*
X111983183Y-57599682D01*
X112120400Y-57805042D01*
X112767741Y-58452383D01*
X112684903Y-58486611D01*
X112622405Y-58549000D01*
X109990197Y-58549000D01*
X108905599Y-57464401D01*
X108700239Y-57327184D01*
X108458000Y-57278999D01*
X108457995Y-57279000D01*
X104906198Y-57279000D01*
X111636309Y-50548888D01*
X111809707Y-50722590D01*
G36*
X103623802Y-56009000D02*
X99057571Y-56009000D01*
X99061578Y-56005000D01*
X101853995Y-56005000D01*
X101854000Y-56005001D01*
X102096239Y-55956816D01*
X102301599Y-55819599D01*
X104148198Y-53973000D01*
X105659802Y-53973000D01*
X103623802Y-56009000D01*
X103623802Y-56009000D01*
G37*
X103623802Y-56009000D02*
X99057571Y-56009000D01*
X99061578Y-56005000D01*
X101853995Y-56005000D01*
X101854000Y-56005001D01*
X102096239Y-55956816D01*
X102301599Y-55819599D01*
X104148198Y-53973000D01*
X105659802Y-53973000D01*
X103623802Y-56009000D01*
G36*
X118745000Y-37417000D02*
X105156000Y-37417000D01*
X104894627Y-37468990D01*
X104673046Y-37617046D01*
X96491092Y-45799000D01*
X82804000Y-45799000D01*
X82542627Y-45850990D01*
X82321046Y-45999046D01*
X73279000Y-55041092D01*
X73279000Y-36736016D01*
X103077860Y-36736016D01*
X103200611Y-37033097D01*
X103427707Y-37260590D01*
X103724574Y-37383860D01*
X104046016Y-37384140D01*
X104343097Y-37261389D01*
X104570590Y-37034293D01*
X104693860Y-36737426D01*
X104694140Y-36415984D01*
X104571389Y-36118903D01*
X104344293Y-35891410D01*
X104047426Y-35768140D01*
X103725984Y-35767860D01*
X103428903Y-35890611D01*
X103201410Y-36117707D01*
X103078140Y-36414574D01*
X103077860Y-36736016D01*
X73279000Y-36736016D01*
X73279000Y-31571000D01*
X118745000Y-31571000D01*
X118745000Y-37417000D01*
X118745000Y-37417000D01*
G37*
X118745000Y-37417000D02*
X105156000Y-37417000D01*
X104894627Y-37468990D01*
X104673046Y-37617046D01*
X96491092Y-45799000D01*
X82804000Y-45799000D01*
X82542627Y-45850990D01*
X82321046Y-45999046D01*
X73279000Y-55041092D01*
X73279000Y-36736016D01*
X103077860Y-36736016D01*
X103200611Y-37033097D01*
X103427707Y-37260590D01*
X103724574Y-37383860D01*
X104046016Y-37384140D01*
X104343097Y-37261389D01*
X104570590Y-37034293D01*
X104693860Y-36737426D01*
X104694140Y-36415984D01*
X104571389Y-36118903D01*
X104344293Y-35891410D01*
X104047426Y-35768140D01*
X103725984Y-35767860D01*
X103428903Y-35890611D01*
X103201410Y-36117707D01*
X103078140Y-36414574D01*
X103077860Y-36736016D01*
X73279000Y-36736016D01*
X73279000Y-31571000D01*
X118745000Y-31571000D01*
X118745000Y-37417000D01*
M02*
