%FSLAX34Y34*%
G04 Gerber Fmt 3.4, Leading zero omitted, Abs format*
G04 (created by PCBNEW (2014-03-13 BZR 4745)-product) date Fri Apr 11 13:45:18 2014*
%MOIN*%
G01*
G70*
G90*
G04 APERTURE LIST*
%ADD10C,0.005906*%
%ADD11C,0.011811*%
G04 APERTURE END LIST*
G54D10*
G54D11*
X46094Y-35468D02*
X45869Y-35468D01*
X46010Y-35271D02*
X46010Y-35777D01*
X45982Y-35834D01*
X45926Y-35862D01*
X45869Y-35862D01*
X45673Y-35862D02*
X45673Y-35271D01*
X45419Y-35862D02*
X45419Y-35552D01*
X45448Y-35496D01*
X45504Y-35468D01*
X45588Y-35468D01*
X45644Y-35496D01*
X45673Y-35524D01*
X45138Y-35862D02*
X45138Y-35468D01*
X45138Y-35271D02*
X45166Y-35299D01*
X45138Y-35327D01*
X45110Y-35299D01*
X45138Y-35271D01*
X45138Y-35327D01*
X44885Y-35834D02*
X44829Y-35862D01*
X44716Y-35862D01*
X44660Y-35834D01*
X44632Y-35777D01*
X44632Y-35749D01*
X44660Y-35693D01*
X44716Y-35665D01*
X44801Y-35665D01*
X44857Y-35637D01*
X44885Y-35580D01*
X44885Y-35552D01*
X44857Y-35496D01*
X44801Y-35468D01*
X44716Y-35468D01*
X44660Y-35496D01*
X43957Y-35834D02*
X43901Y-35862D01*
X43788Y-35862D01*
X43732Y-35834D01*
X43704Y-35777D01*
X43704Y-35749D01*
X43732Y-35693D01*
X43788Y-35665D01*
X43873Y-35665D01*
X43929Y-35637D01*
X43957Y-35580D01*
X43957Y-35552D01*
X43929Y-35496D01*
X43873Y-35468D01*
X43788Y-35468D01*
X43732Y-35496D01*
X43451Y-35862D02*
X43451Y-35468D01*
X43451Y-35271D02*
X43479Y-35299D01*
X43451Y-35327D01*
X43423Y-35299D01*
X43451Y-35271D01*
X43451Y-35327D01*
X42917Y-35862D02*
X42917Y-35271D01*
X42917Y-35834D02*
X42973Y-35862D01*
X43085Y-35862D01*
X43142Y-35834D01*
X43170Y-35805D01*
X43198Y-35749D01*
X43198Y-35580D01*
X43170Y-35524D01*
X43142Y-35496D01*
X43085Y-35468D01*
X42973Y-35468D01*
X42917Y-35496D01*
X42410Y-35834D02*
X42467Y-35862D01*
X42579Y-35862D01*
X42635Y-35834D01*
X42664Y-35777D01*
X42664Y-35552D01*
X42635Y-35496D01*
X42579Y-35468D01*
X42467Y-35468D01*
X42410Y-35496D01*
X42382Y-35552D01*
X42382Y-35609D01*
X42664Y-35665D01*
X41426Y-35862D02*
X41426Y-35271D01*
X41426Y-35834D02*
X41482Y-35862D01*
X41595Y-35862D01*
X41651Y-35834D01*
X41679Y-35805D01*
X41707Y-35749D01*
X41707Y-35580D01*
X41679Y-35524D01*
X41651Y-35496D01*
X41595Y-35468D01*
X41482Y-35468D01*
X41426Y-35496D01*
X41061Y-35862D02*
X41117Y-35834D01*
X41145Y-35805D01*
X41173Y-35749D01*
X41173Y-35580D01*
X41145Y-35524D01*
X41117Y-35496D01*
X41061Y-35468D01*
X40976Y-35468D01*
X40920Y-35496D01*
X40892Y-35524D01*
X40864Y-35580D01*
X40864Y-35749D01*
X40892Y-35805D01*
X40920Y-35834D01*
X40976Y-35862D01*
X41061Y-35862D01*
X40667Y-35468D02*
X40554Y-35862D01*
X40442Y-35580D01*
X40330Y-35862D01*
X40217Y-35468D01*
X39992Y-35468D02*
X39992Y-35862D01*
X39992Y-35524D02*
X39964Y-35496D01*
X39908Y-35468D01*
X39823Y-35468D01*
X39767Y-35496D01*
X39739Y-35552D01*
X39739Y-35862D01*
M02*
