%FSLAX34Y34*%
G04 Gerber Fmt 3.4, Leading zero omitted, Abs format*
G04 (created by PCBNEW (2014-03-19 BZR 4756)-product) date Fri 19 Dec 2014 02:11:26 PM AKST*
%MOIN*%
G01*
G70*
G90*
G04 APERTURE LIST*
%ADD10C,0.005906*%
%ADD11C,0.035000*%
%ADD12C,0.039370*%
%ADD13C,0.039370*%
%ADD14C,0.010000*%
%ADD15C,0.078740*%
%ADD16C,0.019685*%
G04 APERTURE END LIST*
G54D10*
G54D11*
X44400Y-30800D03*
X43035Y-28114D03*
X33149Y-32125D03*
X64350Y-32480D03*
X60019Y-32480D03*
X53622Y-33622D03*
X52755Y-33622D03*
X53622Y-52992D03*
X52755Y-52992D03*
X70472Y-47795D03*
X66850Y-48818D03*
X61811Y-47795D03*
X46456Y-34251D03*
X45866Y-34251D03*
X45275Y-34251D03*
X47145Y-34251D03*
X47736Y-34251D03*
X47736Y-34842D03*
X47145Y-34842D03*
X46456Y-34842D03*
X45866Y-34842D03*
X45275Y-34842D03*
X45275Y-52362D03*
X45866Y-52362D03*
X46456Y-52362D03*
X47047Y-52362D03*
X47637Y-52362D03*
X47637Y-51771D03*
X47047Y-51771D03*
X46456Y-51771D03*
X45866Y-51771D03*
X45275Y-51771D03*
G54D12*
X45275Y-52854D03*
X47637Y-52854D03*
X47047Y-52854D03*
X45866Y-52854D03*
X47145Y-33759D03*
X47736Y-33759D03*
X45866Y-33759D03*
X45275Y-33759D03*
X68681Y-32559D03*
X39330Y-25275D03*
X65305Y-54970D03*
X35039Y-40944D03*
X34251Y-40551D03*
X40157Y-43307D03*
X46456Y-53543D03*
X46456Y-33070D03*
G54D11*
X42800Y-34400D03*
X70000Y-34700D03*
X70100Y-38200D03*
X32600Y-42400D03*
X30700Y-42400D03*
X30800Y-46200D03*
X32700Y-46200D03*
X32795Y-28267D03*
X68200Y-34700D03*
X68200Y-38100D03*
X31700Y-50100D03*
X35300Y-50100D03*
X58400Y-37100D03*
X63300Y-34500D03*
X58200Y-43300D03*
X58200Y-46100D03*
G54D13*
X43035Y-28114D02*
X43050Y-28100D01*
G54D14*
X45275Y-33759D02*
X45275Y-34251D01*
X45866Y-34251D02*
X46456Y-34251D01*
X46948Y-34251D02*
X47145Y-34251D01*
X47736Y-34251D02*
X47736Y-34842D01*
X47145Y-34842D02*
X46456Y-34842D01*
X45866Y-34842D02*
X45275Y-34842D01*
X45275Y-52362D02*
X45866Y-52362D01*
X46456Y-52362D02*
X47047Y-52362D01*
X47637Y-52362D02*
X47637Y-51771D01*
X47047Y-51771D02*
X46456Y-51771D01*
X45866Y-51771D02*
X45275Y-51771D01*
G54D15*
X46456Y-51771D02*
X46456Y-52460D01*
X46456Y-51771D02*
X46456Y-52460D01*
X46456Y-52460D02*
X47047Y-52854D01*
X46456Y-52460D02*
X45866Y-52854D01*
X47145Y-33759D02*
X47736Y-33759D01*
X45866Y-33759D02*
X45275Y-33759D01*
G54D10*
G36*
X72519Y-55590D02*
X72342Y-55590D01*
X72342Y-54234D01*
X72342Y-26064D01*
X72193Y-25703D01*
X71916Y-25425D01*
X71554Y-25275D01*
X71163Y-25275D01*
X70801Y-25424D01*
X70524Y-25701D01*
X70374Y-26063D01*
X70373Y-26454D01*
X70523Y-26816D01*
X70799Y-27093D01*
X71161Y-27243D01*
X71553Y-27244D01*
X71915Y-27094D01*
X72192Y-26818D01*
X72342Y-26456D01*
X72342Y-26064D01*
X72342Y-54234D01*
X72193Y-53872D01*
X71916Y-53595D01*
X71554Y-53445D01*
X71163Y-53444D01*
X70801Y-53594D01*
X70524Y-53870D01*
X70374Y-54232D01*
X70373Y-54624D01*
X70523Y-54985D01*
X70799Y-55263D01*
X71161Y-55413D01*
X71553Y-55413D01*
X71915Y-55264D01*
X72192Y-54987D01*
X72342Y-54625D01*
X72342Y-54234D01*
X72342Y-55590D01*
X67637Y-55590D01*
X67637Y-47637D01*
X67637Y-47244D01*
X67637Y-46456D01*
X67637Y-40157D01*
X67637Y-39370D01*
X67637Y-38976D01*
X67613Y-38855D01*
X67545Y-38753D01*
X67443Y-38685D01*
X67322Y-38661D01*
X65748Y-38661D01*
X65627Y-38685D01*
X65525Y-38753D01*
X65457Y-38855D01*
X65433Y-38976D01*
X65433Y-39370D01*
X65433Y-40157D01*
X65457Y-40278D01*
X65525Y-40380D01*
X65627Y-40448D01*
X65748Y-40472D01*
X67322Y-40472D01*
X67443Y-40448D01*
X67545Y-40380D01*
X67613Y-40278D01*
X67637Y-40157D01*
X67637Y-46456D01*
X67613Y-46336D01*
X67545Y-46233D01*
X67443Y-46165D01*
X67322Y-46141D01*
X65748Y-46141D01*
X65627Y-46165D01*
X65525Y-46233D01*
X65457Y-46336D01*
X65433Y-46456D01*
X65433Y-47244D01*
X65433Y-47637D01*
X65457Y-47758D01*
X65525Y-47860D01*
X65627Y-47928D01*
X65748Y-47952D01*
X67322Y-47952D01*
X67443Y-47928D01*
X67545Y-47860D01*
X67613Y-47758D01*
X67637Y-47637D01*
X67637Y-55590D01*
X56496Y-55590D01*
X56496Y-52954D01*
X56346Y-52592D01*
X56070Y-52315D01*
X55708Y-52165D01*
X55316Y-52165D01*
X54954Y-52314D01*
X54677Y-52591D01*
X54527Y-52952D01*
X54527Y-53344D01*
X54676Y-53706D01*
X54953Y-53983D01*
X55315Y-54133D01*
X55706Y-54134D01*
X56068Y-53984D01*
X56345Y-53707D01*
X56495Y-53346D01*
X56496Y-52954D01*
X56496Y-55590D01*
X54314Y-55590D01*
X54314Y-30750D01*
X54314Y-25750D01*
X54290Y-25629D01*
X54222Y-25527D01*
X54120Y-25459D01*
X54000Y-25435D01*
X46750Y-25435D01*
X46629Y-25459D01*
X46527Y-25527D01*
X46459Y-25629D01*
X46435Y-25750D01*
X46435Y-30750D01*
X46459Y-30870D01*
X46527Y-30972D01*
X46629Y-31040D01*
X46750Y-31064D01*
X54000Y-31064D01*
X54120Y-31040D01*
X54222Y-30972D01*
X54290Y-30870D01*
X54314Y-30750D01*
X54314Y-55590D01*
X48740Y-55590D01*
X48740Y-50393D01*
X48740Y-36220D01*
X48716Y-36099D01*
X48647Y-35997D01*
X48545Y-35929D01*
X48425Y-35905D01*
X44488Y-35905D01*
X44367Y-35929D01*
X44265Y-35997D01*
X44197Y-36099D01*
X44173Y-36220D01*
X44173Y-50393D01*
X44197Y-50514D01*
X44265Y-50616D01*
X44367Y-50684D01*
X44488Y-50708D01*
X48425Y-50708D01*
X48545Y-50684D01*
X48647Y-50616D01*
X48716Y-50514D01*
X48740Y-50393D01*
X48740Y-55590D01*
X43937Y-55590D01*
X43937Y-33622D01*
X43937Y-31181D01*
X43913Y-31060D01*
X43844Y-30958D01*
X43742Y-30890D01*
X43622Y-30866D01*
X41181Y-30866D01*
X41060Y-30890D01*
X40958Y-30958D01*
X40890Y-31060D01*
X40866Y-31181D01*
X40866Y-33622D01*
X40890Y-33742D01*
X40958Y-33844D01*
X41060Y-33913D01*
X41181Y-33937D01*
X43622Y-33937D01*
X43742Y-33913D01*
X43844Y-33844D01*
X43913Y-33742D01*
X43937Y-33622D01*
X43937Y-55590D01*
X42755Y-55590D01*
X42755Y-39133D01*
X42755Y-35275D01*
X42755Y-35236D01*
X42731Y-35115D01*
X42663Y-35013D01*
X42561Y-34945D01*
X42440Y-34921D01*
X39960Y-34921D01*
X39840Y-34945D01*
X39737Y-35013D01*
X39669Y-35115D01*
X39645Y-35236D01*
X39645Y-39133D01*
X39669Y-39254D01*
X39737Y-39356D01*
X39840Y-39424D01*
X39960Y-39448D01*
X42440Y-39448D01*
X42561Y-39424D01*
X42663Y-39356D01*
X42731Y-39254D01*
X42755Y-39133D01*
X42755Y-55590D01*
X37421Y-55590D01*
X37421Y-32915D01*
X37271Y-32553D01*
X36995Y-32276D01*
X36633Y-32126D01*
X36242Y-32125D01*
X35880Y-32275D01*
X35603Y-32551D01*
X35452Y-32913D01*
X35452Y-33305D01*
X35602Y-33667D01*
X35878Y-33944D01*
X36240Y-34094D01*
X36631Y-34094D01*
X36993Y-33945D01*
X37270Y-33668D01*
X37421Y-33306D01*
X37421Y-32915D01*
X37421Y-55590D01*
X37401Y-55590D01*
X37401Y-52974D01*
X37252Y-52612D01*
X36975Y-52335D01*
X36613Y-52185D01*
X36222Y-52184D01*
X35860Y-52334D01*
X35583Y-52611D01*
X35433Y-52972D01*
X35432Y-53364D01*
X35582Y-53726D01*
X35859Y-54003D01*
X36220Y-54153D01*
X36612Y-54153D01*
X36974Y-54004D01*
X37251Y-53727D01*
X37401Y-53365D01*
X37401Y-52974D01*
X37401Y-55590D01*
X32382Y-55590D01*
X32382Y-54234D01*
X32382Y-26064D01*
X32232Y-25703D01*
X31955Y-25425D01*
X31594Y-25275D01*
X31202Y-25275D01*
X30840Y-25424D01*
X30563Y-25701D01*
X30413Y-26063D01*
X30413Y-26454D01*
X30562Y-26816D01*
X30839Y-27093D01*
X31200Y-27243D01*
X31592Y-27244D01*
X31954Y-27094D01*
X32231Y-26818D01*
X32381Y-26456D01*
X32382Y-26064D01*
X32382Y-54234D01*
X32232Y-53872D01*
X31955Y-53595D01*
X31594Y-53445D01*
X31202Y-53444D01*
X30840Y-53594D01*
X30563Y-53870D01*
X30413Y-54232D01*
X30413Y-54624D01*
X30562Y-54985D01*
X30839Y-55263D01*
X31200Y-55413D01*
X31592Y-55413D01*
X31954Y-55264D01*
X32231Y-54987D01*
X32381Y-54625D01*
X32382Y-54234D01*
X32382Y-55590D01*
X30236Y-55590D01*
X30236Y-28740D01*
X30236Y-25098D01*
X72519Y-25098D01*
X72519Y-28740D01*
X72519Y-55590D01*
X72519Y-55590D01*
G37*
G54D16*
X72519Y-55590D02*
X72342Y-55590D01*
X72342Y-54234D01*
X72342Y-26064D01*
X72193Y-25703D01*
X71916Y-25425D01*
X71554Y-25275D01*
X71163Y-25275D01*
X70801Y-25424D01*
X70524Y-25701D01*
X70374Y-26063D01*
X70373Y-26454D01*
X70523Y-26816D01*
X70799Y-27093D01*
X71161Y-27243D01*
X71553Y-27244D01*
X71915Y-27094D01*
X72192Y-26818D01*
X72342Y-26456D01*
X72342Y-26064D01*
X72342Y-54234D01*
X72193Y-53872D01*
X71916Y-53595D01*
X71554Y-53445D01*
X71163Y-53444D01*
X70801Y-53594D01*
X70524Y-53870D01*
X70374Y-54232D01*
X70373Y-54624D01*
X70523Y-54985D01*
X70799Y-55263D01*
X71161Y-55413D01*
X71553Y-55413D01*
X71915Y-55264D01*
X72192Y-54987D01*
X72342Y-54625D01*
X72342Y-54234D01*
X72342Y-55590D01*
X67637Y-55590D01*
X67637Y-47637D01*
X67637Y-47244D01*
X67637Y-46456D01*
X67637Y-40157D01*
X67637Y-39370D01*
X67637Y-38976D01*
X67613Y-38855D01*
X67545Y-38753D01*
X67443Y-38685D01*
X67322Y-38661D01*
X65748Y-38661D01*
X65627Y-38685D01*
X65525Y-38753D01*
X65457Y-38855D01*
X65433Y-38976D01*
X65433Y-39370D01*
X65433Y-40157D01*
X65457Y-40278D01*
X65525Y-40380D01*
X65627Y-40448D01*
X65748Y-40472D01*
X67322Y-40472D01*
X67443Y-40448D01*
X67545Y-40380D01*
X67613Y-40278D01*
X67637Y-40157D01*
X67637Y-46456D01*
X67613Y-46336D01*
X67545Y-46233D01*
X67443Y-46165D01*
X67322Y-46141D01*
X65748Y-46141D01*
X65627Y-46165D01*
X65525Y-46233D01*
X65457Y-46336D01*
X65433Y-46456D01*
X65433Y-47244D01*
X65433Y-47637D01*
X65457Y-47758D01*
X65525Y-47860D01*
X65627Y-47928D01*
X65748Y-47952D01*
X67322Y-47952D01*
X67443Y-47928D01*
X67545Y-47860D01*
X67613Y-47758D01*
X67637Y-47637D01*
X67637Y-55590D01*
X56496Y-55590D01*
X56496Y-52954D01*
X56346Y-52592D01*
X56070Y-52315D01*
X55708Y-52165D01*
X55316Y-52165D01*
X54954Y-52314D01*
X54677Y-52591D01*
X54527Y-52952D01*
X54527Y-53344D01*
X54676Y-53706D01*
X54953Y-53983D01*
X55315Y-54133D01*
X55706Y-54134D01*
X56068Y-53984D01*
X56345Y-53707D01*
X56495Y-53346D01*
X56496Y-52954D01*
X56496Y-55590D01*
X54314Y-55590D01*
X54314Y-30750D01*
X54314Y-25750D01*
X54290Y-25629D01*
X54222Y-25527D01*
X54120Y-25459D01*
X54000Y-25435D01*
X46750Y-25435D01*
X46629Y-25459D01*
X46527Y-25527D01*
X46459Y-25629D01*
X46435Y-25750D01*
X46435Y-30750D01*
X46459Y-30870D01*
X46527Y-30972D01*
X46629Y-31040D01*
X46750Y-31064D01*
X54000Y-31064D01*
X54120Y-31040D01*
X54222Y-30972D01*
X54290Y-30870D01*
X54314Y-30750D01*
X54314Y-55590D01*
X48740Y-55590D01*
X48740Y-50393D01*
X48740Y-36220D01*
X48716Y-36099D01*
X48647Y-35997D01*
X48545Y-35929D01*
X48425Y-35905D01*
X44488Y-35905D01*
X44367Y-35929D01*
X44265Y-35997D01*
X44197Y-36099D01*
X44173Y-36220D01*
X44173Y-50393D01*
X44197Y-50514D01*
X44265Y-50616D01*
X44367Y-50684D01*
X44488Y-50708D01*
X48425Y-50708D01*
X48545Y-50684D01*
X48647Y-50616D01*
X48716Y-50514D01*
X48740Y-50393D01*
X48740Y-55590D01*
X43937Y-55590D01*
X43937Y-33622D01*
X43937Y-31181D01*
X43913Y-31060D01*
X43844Y-30958D01*
X43742Y-30890D01*
X43622Y-30866D01*
X41181Y-30866D01*
X41060Y-30890D01*
X40958Y-30958D01*
X40890Y-31060D01*
X40866Y-31181D01*
X40866Y-33622D01*
X40890Y-33742D01*
X40958Y-33844D01*
X41060Y-33913D01*
X41181Y-33937D01*
X43622Y-33937D01*
X43742Y-33913D01*
X43844Y-33844D01*
X43913Y-33742D01*
X43937Y-33622D01*
X43937Y-55590D01*
X42755Y-55590D01*
X42755Y-39133D01*
X42755Y-35275D01*
X42755Y-35236D01*
X42731Y-35115D01*
X42663Y-35013D01*
X42561Y-34945D01*
X42440Y-34921D01*
X39960Y-34921D01*
X39840Y-34945D01*
X39737Y-35013D01*
X39669Y-35115D01*
X39645Y-35236D01*
X39645Y-39133D01*
X39669Y-39254D01*
X39737Y-39356D01*
X39840Y-39424D01*
X39960Y-39448D01*
X42440Y-39448D01*
X42561Y-39424D01*
X42663Y-39356D01*
X42731Y-39254D01*
X42755Y-39133D01*
X42755Y-55590D01*
X37421Y-55590D01*
X37421Y-32915D01*
X37271Y-32553D01*
X36995Y-32276D01*
X36633Y-32126D01*
X36242Y-32125D01*
X35880Y-32275D01*
X35603Y-32551D01*
X35452Y-32913D01*
X35452Y-33305D01*
X35602Y-33667D01*
X35878Y-33944D01*
X36240Y-34094D01*
X36631Y-34094D01*
X36993Y-33945D01*
X37270Y-33668D01*
X37421Y-33306D01*
X37421Y-32915D01*
X37421Y-55590D01*
X37401Y-55590D01*
X37401Y-52974D01*
X37252Y-52612D01*
X36975Y-52335D01*
X36613Y-52185D01*
X36222Y-52184D01*
X35860Y-52334D01*
X35583Y-52611D01*
X35433Y-52972D01*
X35432Y-53364D01*
X35582Y-53726D01*
X35859Y-54003D01*
X36220Y-54153D01*
X36612Y-54153D01*
X36974Y-54004D01*
X37251Y-53727D01*
X37401Y-53365D01*
X37401Y-52974D01*
X37401Y-55590D01*
X32382Y-55590D01*
X32382Y-54234D01*
X32382Y-26064D01*
X32232Y-25703D01*
X31955Y-25425D01*
X31594Y-25275D01*
X31202Y-25275D01*
X30840Y-25424D01*
X30563Y-25701D01*
X30413Y-26063D01*
X30413Y-26454D01*
X30562Y-26816D01*
X30839Y-27093D01*
X31200Y-27243D01*
X31592Y-27244D01*
X31954Y-27094D01*
X32231Y-26818D01*
X32381Y-26456D01*
X32382Y-26064D01*
X32382Y-54234D01*
X32232Y-53872D01*
X31955Y-53595D01*
X31594Y-53445D01*
X31202Y-53444D01*
X30840Y-53594D01*
X30563Y-53870D01*
X30413Y-54232D01*
X30413Y-54624D01*
X30562Y-54985D01*
X30839Y-55263D01*
X31200Y-55413D01*
X31592Y-55413D01*
X31954Y-55264D01*
X32231Y-54987D01*
X32381Y-54625D01*
X32382Y-54234D01*
X32382Y-55590D01*
X30236Y-55590D01*
X30236Y-28740D01*
X30236Y-25098D01*
X72519Y-25098D01*
X72519Y-28740D01*
X72519Y-55590D01*
M02*
