M48
;DRILL file {Pcbnew (2014-03-19 BZR 4756)-product} date Thu Jan  8 10:59:19 2015
;FORMAT={-:-/ absolute / inch / decimal}
FMAT,2
INCH,TZ
T1C0.025
T2C0.106
T3C0.138
%
G90
G05
M72
T1
X3.1102Y-4.0059
X3.1275Y-4.505
X3.1275Y-4.895
X3.135Y-2.85
X3.285Y-3.12
X3.3125Y-4.505
X3.315Y-4.895
X3.335Y-2.75
X3.36Y-3.305
X3.38Y-2.71
X3.45Y-2.86
X3.455Y-3.095
X3.46Y-3.05
X3.465Y-3.915
X3.47Y-4.9
X3.48Y-2.75
X3.4975Y-4.35
X3.5039Y-3.7205
X3.505Y-2.945
X3.55Y-3.47
X3.55Y-3.89
X3.5925Y-3.7205
X3.605Y-3.89
X3.61Y-3.845
X3.62Y-2.73
X3.625Y-3.575
X3.635Y-3.46
X3.67Y-2.545
X3.71Y-2.63
X3.71Y-2.67
X3.71Y-3.46
X3.735Y-2.975
X3.77Y-3.955
X3.8Y-3.06
X3.8Y-3.245
X3.8Y-3.46
X3.83Y-4.9
X3.91Y-3.1
X3.91Y-3.2
X3.985Y-3.95
X4.21Y-2.92
X4.3035Y-2.8115
X4.335Y-3.105
X4.5Y-3.4
X4.5Y-3.45
X4.5Y-3.5
X4.5Y-3.55
X4.5Y-5.1
X4.5Y-5.15
X4.5Y-5.2
X4.5Y-5.25
X4.8Y-3.4
X4.8Y-3.45
X4.8Y-3.5
X4.8Y-3.55
X4.8Y-5.1
X4.8Y-5.15
X4.8Y-5.2
X4.8Y-5.25
X5.2756Y-3.3622
X5.2756Y-5.2992
X5.3622Y-3.3622
X5.3622Y-5.2992
X5.805Y-4.6575
X5.82Y-4.33
X5.84Y-3.71
X5.8661Y-4.3307
X5.8661Y-4.6457
X5.9449Y-4.3307
X5.9449Y-4.6457
X6.002Y-3.248
X6.1065Y-2.5751
X6.1811Y-4.7795
X6.33Y-3.45
X6.435Y-3.248
X6.5305Y-5.497
X6.685Y-4.8819
X6.8Y-3.9
X6.8Y-4.
X6.8Y-4.1
X6.8Y-4.2
X6.8Y-4.3
X6.8Y-4.4
X6.8Y-4.5
X6.8Y-4.6
X6.8Y-4.7
X6.82Y-3.47
X6.82Y-3.81
X6.8681Y-3.2559
X6.9Y-3.9
X6.9Y-4.
X6.9Y-4.1
X6.9Y-4.2
X6.9Y-4.3
X6.9Y-4.4
X6.9Y-4.5
X6.9Y-4.6
X6.9Y-4.7
X7.Y-3.47
X7.Y-4.
X7.Y-4.1
X7.Y-4.2
X7.Y-4.3
X7.Y-4.4
X7.Y-4.5
X7.Y-4.6
X7.Y-4.7
X7.0079Y-3.8976
X7.01Y-3.82
X7.0472Y-4.7795
X7.1555Y-2.9035
X7.1555Y-5.1772
X7.1949Y-2.8642
X7.1949Y-2.9035
X7.1949Y-2.9429
X7.1949Y-5.1378
X7.1949Y-5.1772
X7.1949Y-5.2165
X7.2343Y-2.9035
X7.2343Y-5.1772
T2
X4.645Y-3.4825
X4.645Y-5.175
T3
X3.1496Y-2.6339
X3.1496Y-5.4331
X7.122Y-2.6378
X7.126Y-5.4331
T0
M30
