%FSLAX34Y34*%
G04 Gerber Fmt 3.4, Leading zero omitted, Abs format*
G04 (created by PCBNEW (2014-03-19 BZR 4756)-product) date Thu Jan  8 10:59:18 2015*
%MOIN*%
G01*
G70*
G90*
G04 APERTURE LIST*
%ADD10C,0.005906*%
%ADD11C,0.009843*%
G04 APERTURE END LIST*
G54D10*
G54D11*
X60220Y-36239D02*
X60220Y-36389D01*
X60483Y-36295D02*
X60145Y-36295D01*
X60108Y-36314D01*
X60089Y-36351D01*
X60089Y-36389D01*
X60483Y-36576D02*
X60464Y-36539D01*
X60445Y-36520D01*
X60408Y-36501D01*
X60295Y-36501D01*
X60258Y-36520D01*
X60239Y-36539D01*
X60220Y-36576D01*
X60220Y-36632D01*
X60239Y-36670D01*
X60258Y-36689D01*
X60295Y-36707D01*
X60408Y-36707D01*
X60445Y-36689D01*
X60464Y-36670D01*
X60483Y-36632D01*
X60483Y-36576D01*
X60483Y-36876D02*
X60220Y-36876D01*
X60295Y-36876D02*
X60258Y-36895D01*
X60239Y-36914D01*
X60220Y-36951D01*
X60220Y-36989D01*
X60464Y-37401D02*
X60483Y-37439D01*
X60483Y-37514D01*
X60464Y-37551D01*
X60426Y-37570D01*
X60408Y-37570D01*
X60370Y-37551D01*
X60351Y-37514D01*
X60351Y-37457D01*
X60333Y-37420D01*
X60295Y-37401D01*
X60276Y-37401D01*
X60239Y-37420D01*
X60220Y-37457D01*
X60220Y-37514D01*
X60239Y-37551D01*
X60464Y-37907D02*
X60483Y-37870D01*
X60483Y-37795D01*
X60464Y-37757D01*
X60445Y-37739D01*
X60408Y-37720D01*
X60295Y-37720D01*
X60258Y-37739D01*
X60239Y-37757D01*
X60220Y-37795D01*
X60220Y-37870D01*
X60239Y-37907D01*
X60483Y-38076D02*
X60089Y-38076D01*
X60483Y-38245D02*
X60276Y-38245D01*
X60239Y-38226D01*
X60220Y-38188D01*
X60220Y-38132D01*
X60239Y-38095D01*
X60258Y-38076D01*
X60464Y-38582D02*
X60483Y-38545D01*
X60483Y-38470D01*
X60464Y-38432D01*
X60426Y-38413D01*
X60276Y-38413D01*
X60239Y-38432D01*
X60220Y-38470D01*
X60220Y-38545D01*
X60239Y-38582D01*
X60276Y-38601D01*
X60314Y-38601D01*
X60351Y-38413D01*
X60483Y-38770D02*
X60220Y-38770D01*
X60258Y-38770D02*
X60239Y-38788D01*
X60220Y-38826D01*
X60220Y-38882D01*
X60239Y-38920D01*
X60276Y-38938D01*
X60483Y-38938D01*
X60276Y-38938D02*
X60239Y-38957D01*
X60220Y-38995D01*
X60220Y-39051D01*
X60239Y-39088D01*
X60276Y-39107D01*
X60483Y-39107D01*
X60483Y-39463D02*
X60276Y-39463D01*
X60239Y-39445D01*
X60220Y-39407D01*
X60220Y-39332D01*
X60239Y-39295D01*
X60464Y-39463D02*
X60483Y-39426D01*
X60483Y-39332D01*
X60464Y-39295D01*
X60426Y-39276D01*
X60389Y-39276D01*
X60351Y-39295D01*
X60333Y-39332D01*
X60333Y-39426D01*
X60314Y-39463D01*
X60220Y-39595D02*
X60220Y-39745D01*
X60089Y-39651D02*
X60426Y-39651D01*
X60464Y-39670D01*
X60483Y-39707D01*
X60483Y-39745D01*
X60483Y-39876D02*
X60220Y-39876D01*
X60089Y-39876D02*
X60108Y-39857D01*
X60127Y-39876D01*
X60108Y-39895D01*
X60089Y-39876D01*
X60127Y-39876D01*
X60464Y-40232D02*
X60483Y-40194D01*
X60483Y-40119D01*
X60464Y-40082D01*
X60445Y-40063D01*
X60408Y-40044D01*
X60295Y-40044D01*
X60258Y-40063D01*
X60239Y-40082D01*
X60220Y-40119D01*
X60220Y-40194D01*
X60239Y-40232D01*
X60464Y-40382D02*
X60483Y-40419D01*
X60483Y-40494D01*
X60464Y-40532D01*
X60426Y-40551D01*
X60408Y-40551D01*
X60370Y-40532D01*
X60351Y-40494D01*
X60351Y-40438D01*
X60333Y-40401D01*
X60295Y-40382D01*
X60276Y-40382D01*
X60239Y-40401D01*
X60220Y-40438D01*
X60220Y-40494D01*
X60239Y-40532D01*
X60483Y-41188D02*
X60276Y-41188D01*
X60239Y-41169D01*
X60220Y-41132D01*
X60220Y-41057D01*
X60239Y-41019D01*
X60464Y-41188D02*
X60483Y-41151D01*
X60483Y-41057D01*
X60464Y-41019D01*
X60426Y-41001D01*
X60389Y-41001D01*
X60351Y-41019D01*
X60333Y-41057D01*
X60333Y-41151D01*
X60314Y-41188D01*
X60220Y-41376D02*
X60483Y-41376D01*
X60258Y-41376D02*
X60239Y-41394D01*
X60220Y-41432D01*
X60220Y-41488D01*
X60239Y-41526D01*
X60276Y-41544D01*
X60483Y-41544D01*
X60483Y-41901D02*
X60089Y-41901D01*
X60464Y-41901D02*
X60483Y-41863D01*
X60483Y-41788D01*
X60464Y-41751D01*
X60445Y-41732D01*
X60408Y-41713D01*
X60295Y-41713D01*
X60258Y-41732D01*
X60239Y-41751D01*
X60220Y-41788D01*
X60220Y-41863D01*
X60239Y-41901D01*
X60483Y-42388D02*
X60089Y-42388D01*
X60239Y-42388D02*
X60220Y-42425D01*
X60220Y-42500D01*
X60239Y-42538D01*
X60258Y-42557D01*
X60295Y-42575D01*
X60408Y-42575D01*
X60445Y-42557D01*
X60464Y-42538D01*
X60483Y-42500D01*
X60483Y-42425D01*
X60464Y-42388D01*
X60483Y-42800D02*
X60464Y-42763D01*
X60445Y-42744D01*
X60408Y-42725D01*
X60295Y-42725D01*
X60258Y-42744D01*
X60239Y-42763D01*
X60220Y-42800D01*
X60220Y-42857D01*
X60239Y-42894D01*
X60258Y-42913D01*
X60295Y-42932D01*
X60408Y-42932D01*
X60445Y-42913D01*
X60464Y-42894D01*
X60483Y-42857D01*
X60483Y-42800D01*
X60483Y-43269D02*
X60276Y-43269D01*
X60239Y-43250D01*
X60220Y-43213D01*
X60220Y-43138D01*
X60239Y-43100D01*
X60464Y-43269D02*
X60483Y-43232D01*
X60483Y-43138D01*
X60464Y-43100D01*
X60426Y-43082D01*
X60389Y-43082D01*
X60351Y-43100D01*
X60333Y-43138D01*
X60333Y-43232D01*
X60314Y-43269D01*
X60483Y-43457D02*
X60220Y-43457D01*
X60295Y-43457D02*
X60258Y-43475D01*
X60239Y-43494D01*
X60220Y-43532D01*
X60220Y-43569D01*
X60483Y-43869D02*
X60089Y-43869D01*
X60464Y-43869D02*
X60483Y-43832D01*
X60483Y-43757D01*
X60464Y-43719D01*
X60445Y-43700D01*
X60408Y-43682D01*
X60295Y-43682D01*
X60258Y-43700D01*
X60239Y-43719D01*
X60220Y-43757D01*
X60220Y-43832D01*
X60239Y-43869D01*
X60483Y-44413D02*
X60464Y-44375D01*
X60426Y-44356D01*
X60089Y-44356D01*
X60483Y-44731D02*
X60276Y-44731D01*
X60239Y-44713D01*
X60220Y-44675D01*
X60220Y-44600D01*
X60239Y-44563D01*
X60464Y-44731D02*
X60483Y-44694D01*
X60483Y-44600D01*
X60464Y-44563D01*
X60426Y-44544D01*
X60389Y-44544D01*
X60351Y-44563D01*
X60333Y-44600D01*
X60333Y-44694D01*
X60314Y-44731D01*
X60220Y-44881D02*
X60483Y-44975D01*
X60220Y-45069D02*
X60483Y-44975D01*
X60576Y-44938D01*
X60595Y-44919D01*
X60614Y-44881D01*
X60483Y-45275D02*
X60464Y-45238D01*
X60445Y-45219D01*
X60408Y-45200D01*
X60295Y-45200D01*
X60258Y-45219D01*
X60239Y-45238D01*
X60220Y-45275D01*
X60220Y-45331D01*
X60239Y-45369D01*
X60258Y-45388D01*
X60295Y-45406D01*
X60408Y-45406D01*
X60445Y-45388D01*
X60464Y-45369D01*
X60483Y-45331D01*
X60483Y-45275D01*
X60220Y-45744D02*
X60483Y-45744D01*
X60220Y-45575D02*
X60426Y-45575D01*
X60464Y-45594D01*
X60483Y-45631D01*
X60483Y-45688D01*
X60464Y-45725D01*
X60445Y-45744D01*
X60220Y-45875D02*
X60220Y-46025D01*
X60089Y-45931D02*
X60426Y-45931D01*
X60464Y-45950D01*
X60483Y-45988D01*
X60483Y-46025D01*
X60464Y-46137D02*
X60483Y-46175D01*
X60483Y-46250D01*
X60464Y-46287D01*
X60426Y-46306D01*
X60408Y-46306D01*
X60370Y-46287D01*
X60351Y-46250D01*
X60351Y-46194D01*
X60333Y-46156D01*
X60295Y-46137D01*
X60276Y-46137D01*
X60239Y-46156D01*
X60220Y-46194D01*
X60220Y-46250D01*
X60239Y-46287D01*
X60464Y-46494D02*
X60483Y-46494D01*
X60520Y-46475D01*
X60539Y-46456D01*
X60464Y-46944D02*
X60483Y-46981D01*
X60483Y-47056D01*
X60464Y-47094D01*
X60426Y-47112D01*
X60408Y-47112D01*
X60370Y-47094D01*
X60351Y-47056D01*
X60351Y-47000D01*
X60333Y-46962D01*
X60295Y-46944D01*
X60276Y-46944D01*
X60239Y-46962D01*
X60220Y-47000D01*
X60220Y-47056D01*
X60239Y-47094D01*
X60464Y-47431D02*
X60483Y-47394D01*
X60483Y-47319D01*
X60464Y-47281D01*
X60426Y-47262D01*
X60276Y-47262D01*
X60239Y-47281D01*
X60220Y-47319D01*
X60220Y-47394D01*
X60239Y-47431D01*
X60276Y-47450D01*
X60314Y-47450D01*
X60351Y-47262D01*
X60464Y-47769D02*
X60483Y-47731D01*
X60483Y-47656D01*
X60464Y-47619D01*
X60426Y-47600D01*
X60276Y-47600D01*
X60239Y-47619D01*
X60220Y-47656D01*
X60220Y-47731D01*
X60239Y-47769D01*
X60276Y-47787D01*
X60314Y-47787D01*
X60351Y-47600D01*
X60445Y-47956D02*
X60464Y-47975D01*
X60483Y-47956D01*
X60464Y-47937D01*
X60445Y-47956D01*
X60483Y-47956D01*
X60239Y-47956D02*
X60258Y-47975D01*
X60276Y-47956D01*
X60258Y-47937D01*
X60239Y-47956D01*
X60276Y-47956D01*
X61132Y-30755D02*
X60739Y-30755D01*
X61132Y-30924D02*
X60926Y-30924D01*
X60889Y-30905D01*
X60870Y-30868D01*
X60870Y-30811D01*
X60889Y-30774D01*
X60907Y-30755D01*
X60870Y-31055D02*
X60870Y-31205D01*
X60739Y-31111D02*
X61076Y-31111D01*
X61114Y-31130D01*
X61132Y-31167D01*
X61132Y-31205D01*
X60870Y-31280D02*
X60870Y-31430D01*
X60739Y-31336D02*
X61076Y-31336D01*
X61114Y-31355D01*
X61132Y-31392D01*
X61132Y-31430D01*
X60870Y-31561D02*
X61264Y-31561D01*
X60889Y-31561D02*
X60870Y-31599D01*
X60870Y-31674D01*
X60889Y-31711D01*
X60907Y-31730D01*
X60945Y-31749D01*
X61057Y-31749D01*
X61095Y-31730D01*
X61114Y-31711D01*
X61132Y-31674D01*
X61132Y-31599D01*
X61114Y-31561D01*
X61114Y-31899D02*
X61132Y-31936D01*
X61132Y-32011D01*
X61114Y-32049D01*
X61076Y-32067D01*
X61057Y-32067D01*
X61020Y-32049D01*
X61001Y-32011D01*
X61001Y-31955D01*
X60982Y-31917D01*
X60945Y-31899D01*
X60926Y-31899D01*
X60889Y-31917D01*
X60870Y-31955D01*
X60870Y-32011D01*
X60889Y-32049D01*
X61095Y-32236D02*
X61114Y-32255D01*
X61132Y-32236D01*
X61114Y-32217D01*
X61095Y-32236D01*
X61132Y-32236D01*
X60889Y-32236D02*
X60907Y-32255D01*
X60926Y-32236D01*
X60907Y-32217D01*
X60889Y-32236D01*
X60926Y-32236D01*
X60720Y-32705D02*
X61226Y-32367D01*
X60720Y-33117D02*
X61226Y-32780D01*
X60870Y-33417D02*
X61189Y-33417D01*
X61226Y-33398D01*
X61245Y-33380D01*
X61264Y-33342D01*
X61264Y-33286D01*
X61245Y-33248D01*
X61114Y-33417D02*
X61132Y-33380D01*
X61132Y-33305D01*
X61114Y-33267D01*
X61095Y-33248D01*
X61057Y-33230D01*
X60945Y-33230D01*
X60907Y-33248D01*
X60889Y-33267D01*
X60870Y-33305D01*
X60870Y-33380D01*
X60889Y-33417D01*
X61132Y-33605D02*
X60870Y-33605D01*
X60739Y-33605D02*
X60757Y-33586D01*
X60776Y-33605D01*
X60757Y-33623D01*
X60739Y-33605D01*
X60776Y-33605D01*
X60870Y-33736D02*
X60870Y-33886D01*
X60739Y-33792D02*
X61076Y-33792D01*
X61114Y-33811D01*
X61132Y-33848D01*
X61132Y-33886D01*
X61132Y-34017D02*
X60739Y-34017D01*
X61132Y-34186D02*
X60926Y-34186D01*
X60889Y-34167D01*
X60870Y-34130D01*
X60870Y-34073D01*
X60889Y-34036D01*
X60907Y-34017D01*
X60870Y-34542D02*
X61132Y-34542D01*
X60870Y-34373D02*
X61076Y-34373D01*
X61114Y-34392D01*
X61132Y-34430D01*
X61132Y-34486D01*
X61114Y-34523D01*
X61095Y-34542D01*
X61132Y-34730D02*
X60739Y-34730D01*
X60889Y-34730D02*
X60870Y-34767D01*
X60870Y-34842D01*
X60889Y-34880D01*
X60907Y-34898D01*
X60945Y-34917D01*
X61057Y-34917D01*
X61095Y-34898D01*
X61114Y-34880D01*
X61132Y-34842D01*
X61132Y-34767D01*
X61114Y-34730D01*
X61095Y-35086D02*
X61114Y-35104D01*
X61132Y-35086D01*
X61114Y-35067D01*
X61095Y-35086D01*
X61132Y-35086D01*
X61114Y-35442D02*
X61132Y-35404D01*
X61132Y-35329D01*
X61114Y-35292D01*
X61095Y-35273D01*
X61057Y-35254D01*
X60945Y-35254D01*
X60907Y-35273D01*
X60889Y-35292D01*
X60870Y-35329D01*
X60870Y-35404D01*
X60889Y-35442D01*
X61132Y-35667D02*
X61114Y-35629D01*
X61095Y-35611D01*
X61057Y-35592D01*
X60945Y-35592D01*
X60907Y-35611D01*
X60889Y-35629D01*
X60870Y-35667D01*
X60870Y-35723D01*
X60889Y-35761D01*
X60907Y-35779D01*
X60945Y-35798D01*
X61057Y-35798D01*
X61095Y-35779D01*
X61114Y-35761D01*
X61132Y-35723D01*
X61132Y-35667D01*
X61132Y-35967D02*
X60870Y-35967D01*
X60907Y-35967D02*
X60889Y-35986D01*
X60870Y-36023D01*
X60870Y-36079D01*
X60889Y-36117D01*
X60926Y-36136D01*
X61132Y-36136D01*
X60926Y-36136D02*
X60889Y-36154D01*
X60870Y-36192D01*
X60870Y-36248D01*
X60889Y-36286D01*
X60926Y-36304D01*
X61132Y-36304D01*
X60720Y-36773D02*
X61226Y-36436D01*
X61132Y-36961D02*
X61114Y-36923D01*
X61076Y-36904D01*
X60739Y-36904D01*
X61132Y-37167D02*
X61114Y-37129D01*
X61095Y-37110D01*
X61057Y-37092D01*
X60945Y-37092D01*
X60907Y-37110D01*
X60889Y-37129D01*
X60870Y-37167D01*
X60870Y-37223D01*
X60889Y-37260D01*
X60907Y-37279D01*
X60945Y-37298D01*
X61057Y-37298D01*
X61095Y-37279D01*
X61114Y-37260D01*
X61132Y-37223D01*
X61132Y-37167D01*
X61132Y-37429D02*
X60870Y-37635D01*
X60870Y-37429D02*
X61132Y-37635D01*
X61132Y-37842D02*
X61114Y-37804D01*
X61095Y-37785D01*
X61057Y-37767D01*
X60945Y-37767D01*
X60907Y-37785D01*
X60889Y-37804D01*
X60870Y-37842D01*
X60870Y-37898D01*
X60889Y-37935D01*
X60907Y-37954D01*
X60945Y-37973D01*
X61057Y-37973D01*
X61095Y-37954D01*
X61114Y-37935D01*
X61132Y-37898D01*
X61132Y-37842D01*
X61132Y-38310D02*
X60739Y-38310D01*
X61114Y-38310D02*
X61132Y-38273D01*
X61132Y-38198D01*
X61114Y-38160D01*
X61095Y-38142D01*
X61057Y-38123D01*
X60945Y-38123D01*
X60907Y-38142D01*
X60889Y-38160D01*
X60870Y-38198D01*
X60870Y-38273D01*
X60889Y-38310D01*
X61114Y-38648D02*
X61132Y-38610D01*
X61132Y-38535D01*
X61114Y-38498D01*
X61076Y-38479D01*
X60926Y-38479D01*
X60889Y-38498D01*
X60870Y-38535D01*
X60870Y-38610D01*
X60889Y-38648D01*
X60926Y-38667D01*
X60964Y-38667D01*
X61001Y-38479D01*
X61114Y-38817D02*
X61132Y-38854D01*
X61132Y-38929D01*
X61114Y-38967D01*
X61076Y-38985D01*
X61057Y-38985D01*
X61020Y-38967D01*
X61001Y-38929D01*
X61001Y-38873D01*
X60982Y-38835D01*
X60945Y-38817D01*
X60926Y-38817D01*
X60889Y-38835D01*
X60870Y-38873D01*
X60870Y-38929D01*
X60889Y-38967D01*
X60720Y-39435D02*
X61226Y-39098D01*
X61114Y-39548D02*
X61132Y-39604D01*
X61132Y-39698D01*
X61114Y-39735D01*
X61095Y-39754D01*
X61057Y-39773D01*
X61020Y-39773D01*
X60982Y-39754D01*
X60964Y-39735D01*
X60945Y-39698D01*
X60926Y-39623D01*
X60907Y-39585D01*
X60889Y-39566D01*
X60851Y-39548D01*
X60814Y-39548D01*
X60776Y-39566D01*
X60757Y-39585D01*
X60739Y-39623D01*
X60739Y-39716D01*
X60757Y-39773D01*
X60870Y-40110D02*
X61132Y-40110D01*
X60870Y-39941D02*
X61076Y-39941D01*
X61114Y-39960D01*
X61132Y-39998D01*
X61132Y-40054D01*
X61114Y-40091D01*
X61095Y-40110D01*
X60870Y-40298D02*
X61264Y-40298D01*
X60889Y-40298D02*
X60870Y-40335D01*
X60870Y-40410D01*
X60889Y-40448D01*
X60907Y-40466D01*
X60945Y-40485D01*
X61057Y-40485D01*
X61095Y-40466D01*
X61114Y-40448D01*
X61132Y-40410D01*
X61132Y-40335D01*
X61114Y-40298D01*
X61114Y-40804D02*
X61132Y-40766D01*
X61132Y-40691D01*
X61114Y-40654D01*
X61076Y-40635D01*
X60926Y-40635D01*
X60889Y-40654D01*
X60870Y-40691D01*
X60870Y-40766D01*
X60889Y-40804D01*
X60926Y-40823D01*
X60964Y-40823D01*
X61001Y-40635D01*
X61132Y-40991D02*
X60870Y-40991D01*
X60945Y-40991D02*
X60907Y-41010D01*
X60889Y-41029D01*
X60870Y-41066D01*
X60870Y-41104D01*
X61132Y-41235D02*
X60739Y-41235D01*
X60739Y-41329D01*
X60757Y-41385D01*
X60795Y-41422D01*
X60832Y-41441D01*
X60907Y-41460D01*
X60964Y-41460D01*
X61039Y-41441D01*
X61076Y-41422D01*
X61114Y-41385D01*
X61132Y-41329D01*
X61132Y-41235D01*
X61020Y-41610D02*
X61020Y-41797D01*
X61132Y-41572D02*
X60739Y-41704D01*
X61132Y-41835D01*
X61132Y-42191D02*
X60945Y-42060D01*
X61132Y-41966D02*
X60739Y-41966D01*
X60739Y-42116D01*
X60757Y-42154D01*
X60776Y-42172D01*
X60814Y-42191D01*
X60870Y-42191D01*
X60907Y-42172D01*
X60926Y-42154D01*
X60945Y-42116D01*
X60945Y-41966D01*
X61132Y-42360D02*
X60739Y-42360D01*
X61132Y-42585D01*
X60739Y-42585D01*
X61170Y-42679D02*
X61170Y-42979D01*
X60739Y-43016D02*
X60739Y-43241D01*
X61132Y-43128D02*
X60739Y-43128D01*
X61132Y-43372D02*
X60870Y-43372D01*
X60945Y-43372D02*
X60907Y-43391D01*
X60889Y-43410D01*
X60870Y-43447D01*
X60870Y-43485D01*
X61132Y-43785D02*
X60926Y-43785D01*
X60889Y-43766D01*
X60870Y-43728D01*
X60870Y-43653D01*
X60889Y-43616D01*
X61114Y-43785D02*
X61132Y-43747D01*
X61132Y-43653D01*
X61114Y-43616D01*
X61076Y-43597D01*
X61039Y-43597D01*
X61001Y-43616D01*
X60982Y-43653D01*
X60982Y-43747D01*
X60964Y-43785D01*
X60870Y-43972D02*
X61132Y-43972D01*
X60907Y-43972D02*
X60889Y-43991D01*
X60870Y-44028D01*
X60870Y-44085D01*
X60889Y-44122D01*
X60926Y-44141D01*
X61132Y-44141D01*
X61114Y-44310D02*
X61132Y-44347D01*
X61132Y-44422D01*
X61114Y-44460D01*
X61076Y-44478D01*
X61057Y-44478D01*
X61020Y-44460D01*
X61001Y-44422D01*
X61001Y-44366D01*
X60982Y-44328D01*
X60945Y-44310D01*
X60926Y-44310D01*
X60889Y-44328D01*
X60870Y-44366D01*
X60870Y-44422D01*
X60889Y-44460D01*
X61132Y-44647D02*
X60870Y-44647D01*
X60907Y-44647D02*
X60889Y-44666D01*
X60870Y-44703D01*
X60870Y-44760D01*
X60889Y-44797D01*
X60926Y-44816D01*
X61132Y-44816D01*
X60926Y-44816D02*
X60889Y-44835D01*
X60870Y-44872D01*
X60870Y-44928D01*
X60889Y-44966D01*
X60926Y-44985D01*
X61132Y-44985D01*
X61132Y-45172D02*
X60870Y-45172D01*
X60739Y-45172D02*
X60757Y-45153D01*
X60776Y-45172D01*
X60757Y-45191D01*
X60739Y-45172D01*
X60776Y-45172D01*
X60870Y-45303D02*
X60870Y-45453D01*
X60739Y-45359D02*
X61076Y-45359D01*
X61114Y-45378D01*
X61132Y-45416D01*
X61132Y-45453D01*
X60870Y-45528D02*
X60870Y-45678D01*
X60739Y-45584D02*
X61076Y-45584D01*
X61114Y-45603D01*
X61132Y-45641D01*
X61132Y-45678D01*
X61114Y-45959D02*
X61132Y-45922D01*
X61132Y-45847D01*
X61114Y-45809D01*
X61076Y-45791D01*
X60926Y-45791D01*
X60889Y-45809D01*
X60870Y-45847D01*
X60870Y-45922D01*
X60889Y-45959D01*
X60926Y-45978D01*
X60964Y-45978D01*
X61001Y-45791D01*
X61132Y-46147D02*
X60870Y-46147D01*
X60945Y-46147D02*
X60907Y-46166D01*
X60889Y-46184D01*
X60870Y-46222D01*
X60870Y-46259D01*
X60720Y-46672D02*
X61226Y-46334D01*
X60870Y-46747D02*
X60870Y-46897D01*
X60739Y-46803D02*
X61076Y-46803D01*
X61114Y-46822D01*
X61132Y-46859D01*
X61132Y-46897D01*
X61132Y-47028D02*
X60870Y-47028D01*
X60945Y-47028D02*
X60907Y-47047D01*
X60889Y-47065D01*
X60870Y-47103D01*
X60870Y-47140D01*
X61114Y-47422D02*
X61132Y-47384D01*
X61132Y-47309D01*
X61114Y-47272D01*
X61076Y-47253D01*
X60926Y-47253D01*
X60889Y-47272D01*
X60870Y-47309D01*
X60870Y-47384D01*
X60889Y-47422D01*
X60926Y-47440D01*
X60964Y-47440D01*
X61001Y-47253D01*
X61114Y-47759D02*
X61132Y-47722D01*
X61132Y-47647D01*
X61114Y-47609D01*
X61076Y-47590D01*
X60926Y-47590D01*
X60889Y-47609D01*
X60870Y-47647D01*
X60870Y-47722D01*
X60889Y-47759D01*
X60926Y-47778D01*
X60964Y-47778D01*
X61001Y-47590D01*
X60720Y-48228D02*
X61226Y-47890D01*
X61132Y-48359D02*
X60870Y-48359D01*
X60907Y-48359D02*
X60889Y-48378D01*
X60870Y-48415D01*
X60870Y-48472D01*
X60889Y-48509D01*
X60926Y-48528D01*
X61132Y-48528D01*
X60926Y-48528D02*
X60889Y-48547D01*
X60870Y-48584D01*
X60870Y-48640D01*
X60889Y-48678D01*
X60926Y-48697D01*
X61132Y-48697D01*
X61132Y-49053D02*
X60926Y-49053D01*
X60889Y-49034D01*
X60870Y-48997D01*
X60870Y-48922D01*
X60889Y-48884D01*
X61114Y-49053D02*
X61132Y-49015D01*
X61132Y-48922D01*
X61114Y-48884D01*
X61076Y-48865D01*
X61039Y-48865D01*
X61001Y-48884D01*
X60982Y-48922D01*
X60982Y-49015D01*
X60964Y-49053D01*
X61114Y-49221D02*
X61132Y-49259D01*
X61132Y-49334D01*
X61114Y-49371D01*
X61076Y-49390D01*
X61057Y-49390D01*
X61020Y-49371D01*
X61001Y-49334D01*
X61001Y-49278D01*
X60982Y-49240D01*
X60945Y-49221D01*
X60926Y-49221D01*
X60889Y-49240D01*
X60870Y-49278D01*
X60870Y-49334D01*
X60889Y-49371D01*
X60870Y-49503D02*
X60870Y-49653D01*
X60739Y-49559D02*
X61076Y-49559D01*
X61114Y-49578D01*
X61132Y-49615D01*
X61132Y-49653D01*
X61114Y-49934D02*
X61132Y-49896D01*
X61132Y-49821D01*
X61114Y-49784D01*
X61076Y-49765D01*
X60926Y-49765D01*
X60889Y-49784D01*
X60870Y-49821D01*
X60870Y-49896D01*
X60889Y-49934D01*
X60926Y-49953D01*
X60964Y-49953D01*
X61001Y-49765D01*
X61132Y-50121D02*
X60870Y-50121D01*
X60945Y-50121D02*
X60907Y-50140D01*
X60889Y-50159D01*
X60870Y-50196D01*
X60870Y-50234D01*
X60720Y-50646D02*
X61226Y-50309D01*
X61132Y-50946D02*
X60739Y-50946D01*
X61114Y-50946D02*
X61132Y-50909D01*
X61132Y-50834D01*
X61114Y-50796D01*
X61095Y-50778D01*
X61057Y-50759D01*
X60945Y-50759D01*
X60907Y-50778D01*
X60889Y-50796D01*
X60870Y-50834D01*
X60870Y-50909D01*
X60889Y-50946D01*
X61132Y-51134D02*
X60870Y-51134D01*
X60945Y-51134D02*
X60907Y-51152D01*
X60889Y-51171D01*
X60870Y-51209D01*
X60870Y-51246D01*
X61132Y-51377D02*
X60870Y-51377D01*
X60739Y-51377D02*
X60757Y-51359D01*
X60776Y-51377D01*
X60757Y-51396D01*
X60739Y-51377D01*
X60776Y-51377D01*
X60870Y-51527D02*
X61132Y-51621D01*
X60870Y-51715D01*
X61114Y-52015D02*
X61132Y-51977D01*
X61132Y-51902D01*
X61114Y-51865D01*
X61076Y-51846D01*
X60926Y-51846D01*
X60889Y-51865D01*
X60870Y-51902D01*
X60870Y-51977D01*
X60889Y-52015D01*
X60926Y-52034D01*
X60964Y-52034D01*
X61001Y-51846D01*
X61132Y-52202D02*
X60870Y-52202D01*
X60945Y-52202D02*
X60907Y-52221D01*
X60889Y-52240D01*
X60870Y-52277D01*
X60870Y-52315D01*
X61132Y-52615D02*
X60926Y-52615D01*
X60889Y-52596D01*
X60870Y-52559D01*
X60870Y-52484D01*
X60889Y-52446D01*
X61114Y-52615D02*
X61132Y-52577D01*
X61132Y-52484D01*
X61114Y-52446D01*
X61076Y-52427D01*
X61039Y-52427D01*
X61001Y-52446D01*
X60982Y-52484D01*
X60982Y-52577D01*
X60964Y-52615D01*
X61132Y-52802D02*
X60870Y-52802D01*
X60907Y-52802D02*
X60889Y-52821D01*
X60870Y-52859D01*
X60870Y-52915D01*
X60889Y-52952D01*
X60926Y-52971D01*
X61132Y-52971D01*
X60926Y-52971D02*
X60889Y-52990D01*
X60870Y-53027D01*
X60870Y-53083D01*
X60889Y-53121D01*
X60926Y-53140D01*
X61132Y-53140D01*
X60870Y-53327D02*
X61264Y-53327D01*
X60889Y-53327D02*
X60870Y-53365D01*
X60870Y-53440D01*
X60889Y-53477D01*
X60907Y-53496D01*
X60945Y-53515D01*
X61057Y-53515D01*
X61095Y-53496D01*
X61114Y-53477D01*
X61132Y-53440D01*
X61132Y-53365D01*
X61114Y-53327D01*
M02*
