%FSLAX34Y34*%
G04 Gerber Fmt 3.4, Leading zero omitted, Abs format*
G04 (created by PCBNEW (2014-03-19 BZR 4756)-product) date Thu Jan  8 10:59:18 2015*
%MOIN*%
G01*
G70*
G90*
G04 APERTURE LIST*
%ADD10C,0.005906*%
%ADD11C,0.035000*%
%ADD12C,0.039370*%
%ADD13C,0.039370*%
%ADD14C,0.010000*%
%ADD15C,0.019685*%
%ADD16C,0.118110*%
%ADD17C,0.015748*%
G04 APERTURE END LIST*
G54D10*
G54D11*
X31102Y-40059D03*
X45000Y-52500D03*
X45000Y-51000D03*
X45000Y-51500D03*
X45000Y-52000D03*
X48000Y-51000D03*
X48000Y-51500D03*
X48000Y-52000D03*
X48000Y-52500D03*
X48000Y-34000D03*
X48000Y-34500D03*
X48000Y-35000D03*
X48000Y-35500D03*
X45000Y-35500D03*
X45000Y-35000D03*
X45000Y-34500D03*
X45000Y-34000D03*
X52755Y-52992D03*
X43350Y-31050D03*
X58050Y-46575D03*
X33150Y-48950D03*
X31275Y-48950D03*
X33125Y-45050D03*
X31275Y-45050D03*
X34975Y-43500D03*
X61065Y-25750D03*
X39850Y-39500D03*
X37700Y-39550D03*
X36050Y-38900D03*
X36100Y-38450D03*
X34650Y-39150D03*
X35500Y-38900D03*
X36250Y-35750D03*
X35500Y-34700D03*
X36350Y-34600D03*
X37100Y-34600D03*
X38000Y-34600D03*
X35050Y-29450D03*
X37350Y-29750D03*
X42100Y-29200D03*
X34600Y-30500D03*
X34550Y-30950D03*
X33600Y-33050D03*
X31350Y-28500D03*
X32850Y-31200D03*
X36700Y-25450D03*
X37100Y-26700D03*
X37100Y-26300D03*
X36200Y-27300D03*
X34800Y-27500D03*
X33800Y-27100D03*
X43035Y-28114D03*
X64350Y-32480D03*
X60019Y-32480D03*
X70472Y-47795D03*
X66850Y-48818D03*
X61811Y-47795D03*
G54D12*
X68681Y-32559D03*
X65305Y-54970D03*
G54D11*
X70000Y-34700D03*
X68200Y-34700D03*
X68200Y-38100D03*
X34700Y-49000D03*
X38300Y-49000D03*
X58400Y-37100D03*
X63300Y-34500D03*
X53622Y-33622D03*
X52755Y-33622D03*
X53622Y-52992D03*
X68000Y-47000D03*
X69000Y-47000D03*
X70000Y-47000D03*
X70000Y-46000D03*
X69000Y-46000D03*
X68000Y-46000D03*
X68000Y-45000D03*
X69000Y-45000D03*
X70000Y-45000D03*
X70000Y-44000D03*
X69000Y-44000D03*
X68000Y-44000D03*
X68000Y-43000D03*
X69000Y-43000D03*
X70000Y-43000D03*
X70000Y-42000D03*
X69000Y-42000D03*
X68000Y-42000D03*
X68000Y-41000D03*
X69000Y-41000D03*
X70000Y-41000D03*
X70000Y-40000D03*
X69000Y-40000D03*
X68000Y-40000D03*
X68000Y-39000D03*
X69000Y-39000D03*
X70100Y-38200D03*
X70078Y-38976D03*
X59448Y-46456D03*
X58661Y-46456D03*
X59448Y-43307D03*
X58661Y-43307D03*
X58200Y-43300D03*
X39100Y-32000D03*
X39100Y-31000D03*
X71948Y-29035D03*
X71948Y-51771D03*
X71948Y-29429D03*
X71555Y-29035D03*
X71948Y-28641D03*
X72342Y-29035D03*
X72342Y-51771D03*
X71948Y-51377D03*
X71555Y-51771D03*
X71948Y-52165D03*
X34500Y-28600D03*
X33350Y-27500D03*
X38000Y-30600D03*
X38000Y-32450D03*
X35039Y-37204D03*
X35925Y-37204D03*
G54D13*
X46500Y-52000D02*
X46000Y-52000D01*
X46000Y-52000D02*
X45000Y-51000D01*
X45000Y-51500D02*
X45000Y-52000D01*
X46500Y-51500D02*
X47500Y-51500D01*
X47500Y-51500D02*
X48000Y-51000D01*
X48000Y-51500D02*
X48000Y-52000D01*
X46500Y-35000D02*
X47000Y-35000D01*
X47000Y-35000D02*
X48000Y-34000D01*
X48000Y-34500D02*
X48000Y-35000D01*
X48000Y-35500D02*
X48000Y-36000D01*
X45000Y-36000D02*
X45000Y-35500D01*
X45000Y-35000D02*
X45000Y-34500D01*
G54D14*
X37100Y-26300D02*
X37100Y-26700D01*
X37100Y-26600D02*
X37100Y-26300D01*
G54D13*
X43035Y-28114D02*
X43050Y-28100D01*
G54D14*
X70000Y-47000D02*
X69000Y-47000D01*
X69000Y-46000D02*
X70000Y-46000D01*
X68000Y-45000D02*
X68000Y-46000D01*
X70000Y-45000D02*
X69000Y-45000D01*
X69000Y-44000D02*
X70000Y-44000D01*
X68000Y-43000D02*
X68000Y-44000D01*
X70000Y-43000D02*
X69000Y-43000D01*
X69000Y-42000D02*
X70000Y-42000D01*
X68000Y-41000D02*
X68000Y-42000D01*
X70000Y-41000D02*
X69000Y-41000D01*
X69000Y-40000D02*
X70000Y-40000D01*
X68000Y-39000D02*
X68000Y-40000D01*
X70000Y-39000D02*
X69000Y-39000D01*
X70000Y-38267D02*
X70078Y-38188D01*
X70078Y-38188D02*
X70100Y-38200D01*
X70000Y-39000D02*
X70000Y-38267D01*
X58267Y-46456D02*
X58661Y-46456D01*
X58654Y-43300D02*
X58661Y-43307D01*
X58200Y-43300D02*
X58654Y-43300D01*
G54D15*
X39100Y-31900D02*
X39100Y-32000D01*
X39100Y-31000D02*
X39100Y-31900D01*
G54D16*
X71948Y-29035D02*
X71948Y-29035D01*
X71948Y-51771D02*
X71948Y-29035D01*
G54D14*
X71555Y-29035D02*
X71948Y-28641D01*
X72342Y-29035D02*
X71948Y-29035D01*
X71948Y-29035D02*
X71948Y-29429D01*
X72342Y-51771D02*
X71948Y-51377D01*
X71555Y-51771D02*
X71948Y-52165D01*
G54D15*
X34450Y-28600D02*
X34500Y-28600D01*
X33350Y-27500D02*
X34450Y-28600D01*
X38000Y-32450D02*
X38000Y-30600D01*
G54D17*
X35039Y-37204D02*
X35925Y-37204D01*
G54D10*
G36*
X72519Y-55590D02*
X72244Y-55590D01*
X72244Y-54135D01*
X72094Y-53773D01*
X71818Y-53496D01*
X71456Y-53346D01*
X71064Y-53346D01*
X70703Y-53495D01*
X70425Y-53772D01*
X70275Y-54134D01*
X70275Y-54525D01*
X70424Y-54887D01*
X70701Y-55164D01*
X71063Y-55314D01*
X71454Y-55315D01*
X71816Y-55165D01*
X72093Y-54888D01*
X72243Y-54527D01*
X72244Y-54135D01*
X72244Y-55590D01*
X54314Y-55590D01*
X54314Y-30750D01*
X54314Y-25750D01*
X54290Y-25629D01*
X54222Y-25527D01*
X54120Y-25459D01*
X54000Y-25435D01*
X46750Y-25435D01*
X46629Y-25459D01*
X46527Y-25527D01*
X46459Y-25629D01*
X46435Y-25750D01*
X46435Y-30750D01*
X46459Y-30870D01*
X46527Y-30972D01*
X46629Y-31040D01*
X46750Y-31064D01*
X54000Y-31064D01*
X54120Y-31040D01*
X54222Y-30972D01*
X54290Y-30870D01*
X54314Y-30750D01*
X54314Y-55590D01*
X48838Y-55590D01*
X48838Y-50590D01*
X48838Y-50393D01*
X48838Y-50295D01*
X48838Y-36220D01*
X48838Y-36023D01*
X48814Y-35903D01*
X48746Y-35800D01*
X48644Y-35732D01*
X48523Y-35708D01*
X47276Y-35708D01*
X47276Y-34661D01*
X47151Y-34357D01*
X46918Y-34124D01*
X46615Y-33998D01*
X46286Y-33998D01*
X45982Y-34123D01*
X45749Y-34356D01*
X45623Y-34659D01*
X45623Y-34988D01*
X45748Y-35292D01*
X45981Y-35525D01*
X46284Y-35651D01*
X46613Y-35651D01*
X46917Y-35526D01*
X47150Y-35293D01*
X47276Y-34990D01*
X47276Y-34661D01*
X47276Y-35708D01*
X44389Y-35708D01*
X44269Y-35732D01*
X44167Y-35800D01*
X44098Y-35903D01*
X44074Y-36023D01*
X44074Y-36220D01*
X44074Y-50393D01*
X44074Y-50590D01*
X44098Y-50711D01*
X44167Y-50813D01*
X44269Y-50881D01*
X44389Y-50905D01*
X48523Y-50905D01*
X48644Y-50881D01*
X48746Y-50813D01*
X48814Y-50711D01*
X48838Y-50590D01*
X48838Y-55590D01*
X47276Y-55590D01*
X47276Y-51586D01*
X47151Y-51282D01*
X46918Y-51049D01*
X46615Y-50923D01*
X46286Y-50923D01*
X45982Y-51048D01*
X45749Y-51281D01*
X45623Y-51584D01*
X45623Y-51913D01*
X45748Y-52217D01*
X45981Y-52450D01*
X46284Y-52576D01*
X46613Y-52576D01*
X46917Y-52451D01*
X47150Y-52218D01*
X47276Y-51915D01*
X47276Y-51586D01*
X47276Y-55590D01*
X43814Y-55590D01*
X43814Y-38200D01*
X43814Y-34200D01*
X43790Y-34079D01*
X43722Y-33977D01*
X43620Y-33909D01*
X43500Y-33885D01*
X41000Y-33885D01*
X40879Y-33909D01*
X40777Y-33977D01*
X40709Y-34079D01*
X40685Y-34200D01*
X40685Y-38200D01*
X40709Y-38320D01*
X40777Y-38422D01*
X40879Y-38490D01*
X41000Y-38514D01*
X43500Y-38514D01*
X43620Y-38490D01*
X43722Y-38422D01*
X43790Y-38320D01*
X43814Y-38200D01*
X43814Y-55590D01*
X39570Y-55590D01*
X39570Y-31906D01*
X39498Y-31733D01*
X39493Y-31728D01*
X39493Y-31271D01*
X39498Y-31266D01*
X39570Y-31093D01*
X39570Y-30906D01*
X39498Y-30733D01*
X39366Y-30601D01*
X39193Y-30529D01*
X39006Y-30529D01*
X38833Y-30601D01*
X38701Y-30733D01*
X38629Y-30906D01*
X38629Y-31093D01*
X38701Y-31266D01*
X38706Y-31271D01*
X38706Y-31728D01*
X38701Y-31733D01*
X38629Y-31906D01*
X38629Y-32093D01*
X38701Y-32266D01*
X38833Y-32398D01*
X39006Y-32470D01*
X39193Y-32470D01*
X39366Y-32398D01*
X39498Y-32266D01*
X39570Y-32093D01*
X39570Y-31906D01*
X39570Y-55590D01*
X38470Y-55590D01*
X38470Y-32356D01*
X38398Y-32183D01*
X38393Y-32178D01*
X38393Y-30871D01*
X38398Y-30866D01*
X38470Y-30693D01*
X38470Y-30506D01*
X38398Y-30333D01*
X38266Y-30201D01*
X38093Y-30129D01*
X37906Y-30129D01*
X37733Y-30201D01*
X37601Y-30333D01*
X37529Y-30506D01*
X37529Y-30693D01*
X37601Y-30866D01*
X37606Y-30871D01*
X37606Y-32178D01*
X37601Y-32183D01*
X37529Y-32356D01*
X37529Y-32543D01*
X37601Y-32716D01*
X37733Y-32848D01*
X37906Y-32920D01*
X38093Y-32920D01*
X38266Y-32848D01*
X38398Y-32716D01*
X38470Y-32543D01*
X38470Y-32356D01*
X38470Y-55590D01*
X36395Y-55590D01*
X36395Y-37111D01*
X36324Y-36938D01*
X36191Y-36806D01*
X36019Y-36734D01*
X35832Y-36734D01*
X35659Y-36805D01*
X35634Y-36830D01*
X35330Y-36830D01*
X35306Y-36806D01*
X35133Y-36734D01*
X34970Y-36734D01*
X34970Y-28506D01*
X34898Y-28333D01*
X34766Y-28201D01*
X34593Y-28129D01*
X34536Y-28129D01*
X33820Y-27413D01*
X33820Y-27406D01*
X33748Y-27233D01*
X33616Y-27101D01*
X33443Y-27029D01*
X33256Y-27029D01*
X33083Y-27101D01*
X32951Y-27233D01*
X32879Y-27406D01*
X32879Y-27593D01*
X32951Y-27766D01*
X33083Y-27898D01*
X33256Y-27970D01*
X33263Y-27970D01*
X34060Y-28766D01*
X34101Y-28866D01*
X34233Y-28998D01*
X34406Y-29070D01*
X34593Y-29070D01*
X34766Y-28998D01*
X34898Y-28866D01*
X34970Y-28693D01*
X34970Y-28506D01*
X34970Y-36734D01*
X34946Y-36734D01*
X34773Y-36805D01*
X34640Y-36937D01*
X34569Y-37110D01*
X34569Y-37297D01*
X34640Y-37470D01*
X34772Y-37603D01*
X34945Y-37674D01*
X35132Y-37675D01*
X35305Y-37603D01*
X35330Y-37578D01*
X35634Y-37578D01*
X35658Y-37603D01*
X35831Y-37674D01*
X36018Y-37675D01*
X36191Y-37603D01*
X36323Y-37471D01*
X36395Y-37298D01*
X36395Y-37111D01*
X36395Y-55590D01*
X32480Y-55590D01*
X32480Y-54135D01*
X32480Y-26143D01*
X32330Y-25781D01*
X32054Y-25504D01*
X31692Y-25354D01*
X31301Y-25354D01*
X30939Y-25503D01*
X30662Y-25780D01*
X30511Y-26141D01*
X30511Y-26533D01*
X30661Y-26895D01*
X30937Y-27172D01*
X31299Y-27322D01*
X31690Y-27323D01*
X32052Y-27173D01*
X32330Y-26896D01*
X32480Y-26535D01*
X32480Y-26143D01*
X32480Y-54135D01*
X32330Y-53773D01*
X32054Y-53496D01*
X31692Y-53346D01*
X31301Y-53346D01*
X30939Y-53495D01*
X30662Y-53772D01*
X30511Y-54134D01*
X30511Y-54525D01*
X30661Y-54887D01*
X30937Y-55164D01*
X31299Y-55314D01*
X31690Y-55315D01*
X32052Y-55165D01*
X32330Y-54888D01*
X32480Y-54527D01*
X32480Y-54135D01*
X32480Y-55590D01*
X30236Y-55590D01*
X30236Y-28740D01*
X30236Y-25098D01*
X72519Y-25098D01*
X72519Y-28371D01*
X72287Y-28217D01*
X72204Y-28200D01*
X72204Y-26183D01*
X72055Y-25821D01*
X71778Y-25544D01*
X71417Y-25393D01*
X71025Y-25393D01*
X70663Y-25543D01*
X70386Y-25819D01*
X70236Y-26181D01*
X70236Y-26572D01*
X70385Y-26934D01*
X70662Y-27211D01*
X71023Y-27362D01*
X71415Y-27362D01*
X71777Y-27212D01*
X72054Y-26936D01*
X72204Y-26574D01*
X72204Y-26183D01*
X72204Y-28200D01*
X71948Y-28149D01*
X71609Y-28217D01*
X71322Y-28409D01*
X71130Y-28696D01*
X71062Y-29035D01*
X71062Y-51771D01*
X71130Y-52110D01*
X71322Y-52398D01*
X71609Y-52590D01*
X71948Y-52657D01*
X72287Y-52590D01*
X72519Y-52435D01*
X72519Y-55590D01*
X72519Y-55590D01*
G37*
G54D15*
X72519Y-55590D02*
X72244Y-55590D01*
X72244Y-54135D01*
X72094Y-53773D01*
X71818Y-53496D01*
X71456Y-53346D01*
X71064Y-53346D01*
X70703Y-53495D01*
X70425Y-53772D01*
X70275Y-54134D01*
X70275Y-54525D01*
X70424Y-54887D01*
X70701Y-55164D01*
X71063Y-55314D01*
X71454Y-55315D01*
X71816Y-55165D01*
X72093Y-54888D01*
X72243Y-54527D01*
X72244Y-54135D01*
X72244Y-55590D01*
X54314Y-55590D01*
X54314Y-30750D01*
X54314Y-25750D01*
X54290Y-25629D01*
X54222Y-25527D01*
X54120Y-25459D01*
X54000Y-25435D01*
X46750Y-25435D01*
X46629Y-25459D01*
X46527Y-25527D01*
X46459Y-25629D01*
X46435Y-25750D01*
X46435Y-30750D01*
X46459Y-30870D01*
X46527Y-30972D01*
X46629Y-31040D01*
X46750Y-31064D01*
X54000Y-31064D01*
X54120Y-31040D01*
X54222Y-30972D01*
X54290Y-30870D01*
X54314Y-30750D01*
X54314Y-55590D01*
X48838Y-55590D01*
X48838Y-50590D01*
X48838Y-50393D01*
X48838Y-50295D01*
X48838Y-36220D01*
X48838Y-36023D01*
X48814Y-35903D01*
X48746Y-35800D01*
X48644Y-35732D01*
X48523Y-35708D01*
X47276Y-35708D01*
X47276Y-34661D01*
X47151Y-34357D01*
X46918Y-34124D01*
X46615Y-33998D01*
X46286Y-33998D01*
X45982Y-34123D01*
X45749Y-34356D01*
X45623Y-34659D01*
X45623Y-34988D01*
X45748Y-35292D01*
X45981Y-35525D01*
X46284Y-35651D01*
X46613Y-35651D01*
X46917Y-35526D01*
X47150Y-35293D01*
X47276Y-34990D01*
X47276Y-34661D01*
X47276Y-35708D01*
X44389Y-35708D01*
X44269Y-35732D01*
X44167Y-35800D01*
X44098Y-35903D01*
X44074Y-36023D01*
X44074Y-36220D01*
X44074Y-50393D01*
X44074Y-50590D01*
X44098Y-50711D01*
X44167Y-50813D01*
X44269Y-50881D01*
X44389Y-50905D01*
X48523Y-50905D01*
X48644Y-50881D01*
X48746Y-50813D01*
X48814Y-50711D01*
X48838Y-50590D01*
X48838Y-55590D01*
X47276Y-55590D01*
X47276Y-51586D01*
X47151Y-51282D01*
X46918Y-51049D01*
X46615Y-50923D01*
X46286Y-50923D01*
X45982Y-51048D01*
X45749Y-51281D01*
X45623Y-51584D01*
X45623Y-51913D01*
X45748Y-52217D01*
X45981Y-52450D01*
X46284Y-52576D01*
X46613Y-52576D01*
X46917Y-52451D01*
X47150Y-52218D01*
X47276Y-51915D01*
X47276Y-51586D01*
X47276Y-55590D01*
X43814Y-55590D01*
X43814Y-38200D01*
X43814Y-34200D01*
X43790Y-34079D01*
X43722Y-33977D01*
X43620Y-33909D01*
X43500Y-33885D01*
X41000Y-33885D01*
X40879Y-33909D01*
X40777Y-33977D01*
X40709Y-34079D01*
X40685Y-34200D01*
X40685Y-38200D01*
X40709Y-38320D01*
X40777Y-38422D01*
X40879Y-38490D01*
X41000Y-38514D01*
X43500Y-38514D01*
X43620Y-38490D01*
X43722Y-38422D01*
X43790Y-38320D01*
X43814Y-38200D01*
X43814Y-55590D01*
X39570Y-55590D01*
X39570Y-31906D01*
X39498Y-31733D01*
X39493Y-31728D01*
X39493Y-31271D01*
X39498Y-31266D01*
X39570Y-31093D01*
X39570Y-30906D01*
X39498Y-30733D01*
X39366Y-30601D01*
X39193Y-30529D01*
X39006Y-30529D01*
X38833Y-30601D01*
X38701Y-30733D01*
X38629Y-30906D01*
X38629Y-31093D01*
X38701Y-31266D01*
X38706Y-31271D01*
X38706Y-31728D01*
X38701Y-31733D01*
X38629Y-31906D01*
X38629Y-32093D01*
X38701Y-32266D01*
X38833Y-32398D01*
X39006Y-32470D01*
X39193Y-32470D01*
X39366Y-32398D01*
X39498Y-32266D01*
X39570Y-32093D01*
X39570Y-31906D01*
X39570Y-55590D01*
X38470Y-55590D01*
X38470Y-32356D01*
X38398Y-32183D01*
X38393Y-32178D01*
X38393Y-30871D01*
X38398Y-30866D01*
X38470Y-30693D01*
X38470Y-30506D01*
X38398Y-30333D01*
X38266Y-30201D01*
X38093Y-30129D01*
X37906Y-30129D01*
X37733Y-30201D01*
X37601Y-30333D01*
X37529Y-30506D01*
X37529Y-30693D01*
X37601Y-30866D01*
X37606Y-30871D01*
X37606Y-32178D01*
X37601Y-32183D01*
X37529Y-32356D01*
X37529Y-32543D01*
X37601Y-32716D01*
X37733Y-32848D01*
X37906Y-32920D01*
X38093Y-32920D01*
X38266Y-32848D01*
X38398Y-32716D01*
X38470Y-32543D01*
X38470Y-32356D01*
X38470Y-55590D01*
X36395Y-55590D01*
X36395Y-37111D01*
X36324Y-36938D01*
X36191Y-36806D01*
X36019Y-36734D01*
X35832Y-36734D01*
X35659Y-36805D01*
X35634Y-36830D01*
X35330Y-36830D01*
X35306Y-36806D01*
X35133Y-36734D01*
X34970Y-36734D01*
X34970Y-28506D01*
X34898Y-28333D01*
X34766Y-28201D01*
X34593Y-28129D01*
X34536Y-28129D01*
X33820Y-27413D01*
X33820Y-27406D01*
X33748Y-27233D01*
X33616Y-27101D01*
X33443Y-27029D01*
X33256Y-27029D01*
X33083Y-27101D01*
X32951Y-27233D01*
X32879Y-27406D01*
X32879Y-27593D01*
X32951Y-27766D01*
X33083Y-27898D01*
X33256Y-27970D01*
X33263Y-27970D01*
X34060Y-28766D01*
X34101Y-28866D01*
X34233Y-28998D01*
X34406Y-29070D01*
X34593Y-29070D01*
X34766Y-28998D01*
X34898Y-28866D01*
X34970Y-28693D01*
X34970Y-28506D01*
X34970Y-36734D01*
X34946Y-36734D01*
X34773Y-36805D01*
X34640Y-36937D01*
X34569Y-37110D01*
X34569Y-37297D01*
X34640Y-37470D01*
X34772Y-37603D01*
X34945Y-37674D01*
X35132Y-37675D01*
X35305Y-37603D01*
X35330Y-37578D01*
X35634Y-37578D01*
X35658Y-37603D01*
X35831Y-37674D01*
X36018Y-37675D01*
X36191Y-37603D01*
X36323Y-37471D01*
X36395Y-37298D01*
X36395Y-37111D01*
X36395Y-55590D01*
X32480Y-55590D01*
X32480Y-54135D01*
X32480Y-26143D01*
X32330Y-25781D01*
X32054Y-25504D01*
X31692Y-25354D01*
X31301Y-25354D01*
X30939Y-25503D01*
X30662Y-25780D01*
X30511Y-26141D01*
X30511Y-26533D01*
X30661Y-26895D01*
X30937Y-27172D01*
X31299Y-27322D01*
X31690Y-27323D01*
X32052Y-27173D01*
X32330Y-26896D01*
X32480Y-26535D01*
X32480Y-26143D01*
X32480Y-54135D01*
X32330Y-53773D01*
X32054Y-53496D01*
X31692Y-53346D01*
X31301Y-53346D01*
X30939Y-53495D01*
X30662Y-53772D01*
X30511Y-54134D01*
X30511Y-54525D01*
X30661Y-54887D01*
X30937Y-55164D01*
X31299Y-55314D01*
X31690Y-55315D01*
X32052Y-55165D01*
X32330Y-54888D01*
X32480Y-54527D01*
X32480Y-54135D01*
X32480Y-55590D01*
X30236Y-55590D01*
X30236Y-28740D01*
X30236Y-25098D01*
X72519Y-25098D01*
X72519Y-28371D01*
X72287Y-28217D01*
X72204Y-28200D01*
X72204Y-26183D01*
X72055Y-25821D01*
X71778Y-25544D01*
X71417Y-25393D01*
X71025Y-25393D01*
X70663Y-25543D01*
X70386Y-25819D01*
X70236Y-26181D01*
X70236Y-26572D01*
X70385Y-26934D01*
X70662Y-27211D01*
X71023Y-27362D01*
X71415Y-27362D01*
X71777Y-27212D01*
X72054Y-26936D01*
X72204Y-26574D01*
X72204Y-26183D01*
X72204Y-28200D01*
X71948Y-28149D01*
X71609Y-28217D01*
X71322Y-28409D01*
X71130Y-28696D01*
X71062Y-29035D01*
X71062Y-51771D01*
X71130Y-52110D01*
X71322Y-52398D01*
X71609Y-52590D01*
X71948Y-52657D01*
X72287Y-52590D01*
X72519Y-52435D01*
X72519Y-55590D01*
M02*
