M48
;DRILL file {Pcbnew (2014-03-19 BZR 4756)-product} date Tue 24 Jun 2014 07:27:19 PM AKDT
;FORMAT={-:-/ absolute / inch / decimal}
FMAT,2
INCH,TZ
T1C0.025
T2C0.032
T3C0.039
T4C0.039
T5C0.047
T6C0.138
%
G90
G05
M72
T1
X3.1693Y-4.0157
X3.2283Y-3.2677
X3.2677Y-4.252
X3.2677Y-4.6457
X3.3858Y-3.2677
X3.4252Y-4.0551
X3.4449Y-3.4646
X3.5039Y-3.4252
X3.5039Y-3.5236
X3.5039Y-4.0945
X3.6811Y-3.2677
X3.7598Y-2.9331
X3.7598Y-3.1102
X3.7598Y-3.2677
X3.7795Y-2.9921
X3.8976Y-3.3858
X3.937Y-3.5039
X4.0157Y-4.3307
X4.0354Y-3.878
X4.5276Y-3.376
X4.5276Y-3.4252
X4.5276Y-3.4843
X4.5276Y-5.1772
X4.5276Y-5.2362
X4.5276Y-5.2854
X4.5866Y-3.376
X4.5866Y-3.4252
X4.5866Y-3.4843
X4.5866Y-5.1772
X4.5866Y-5.2362
X4.5866Y-5.2854
X4.6457Y-3.3071
X4.6457Y-3.4252
X4.6457Y-3.4843
X4.6457Y-5.1772
X4.6457Y-5.2362
X4.6457Y-5.3543
X4.7047Y-5.1772
X4.7047Y-5.2362
X4.7047Y-5.2854
X4.7146Y-3.376
X4.7146Y-3.4252
X4.7146Y-3.4843
X4.7638Y-5.1772
X4.7638Y-5.2362
X4.7638Y-5.2854
X4.7736Y-3.376
X4.7736Y-3.4252
X4.7736Y-3.4843
X5.7874Y-4.3307
X5.7874Y-4.5669
X5.8268Y-4.3307
X5.8268Y-4.5669
X5.8268Y-4.8425
X5.9449Y-4.8425
X5.9843Y-3.3465
X5.9843Y-3.4646
X5.9843Y-3.5827
X6.063Y-4.8425
X6.2598Y-3.4252
X6.378Y-4.7638
X6.7323Y-3.4252
X6.8504Y-3.5039
X6.8504Y-4.7638
X7.0079Y-3.5039
X7.0079Y-3.8189
X7.126Y-4.8425
T2
X3.9157Y-3.0421
X4.0157Y-2.9421
X4.1157Y-3.0421
T3
X3.1299Y-3.3949
X3.1299Y-3.4949
X5.7374Y-3.0315
X5.8374Y-3.0315
T4
X3.6764Y-3.6614
X3.6764Y-3.9614
X4.1339Y-3.2677
X4.1339Y-3.4646
X5.3937Y-4.985
X5.4087Y-3.6764
X5.6937Y-4.985
X5.6988Y-4.813
X5.7087Y-3.6764
T5
X5.6988Y-3.8288
T6
X3.1299Y-3.0118
X3.1299Y-5.4528
X3.6417Y-5.315
X5.5512Y-3.3071
X5.5512Y-5.315
X7.1457Y-3.0118
X7.1457Y-5.4528
T0
M30
