M48
;DRILL file {Pcbnew (2014-03-19 BZR 4756)-product} date Fri 25 Jul 2014 03:49:53 PM AKDT
;FORMAT={-:-/ absolute / inch / decimal}
FMAT,2
INCH,TZ
T1C0.025
%
G90
G05
M72
T1
X3.07Y-4.24
X3.08Y-4.62
X3.26Y-4.24
X3.27Y-4.62
X3.2795Y-2.8268
X3.315Y-3.2126
X3.4252Y-4.0551
X3.5039Y-4.0945
X3.9331Y-2.5276
X4.0157Y-4.3307
X4.28Y-3.44
X4.5276Y-3.376
X4.5276Y-3.4252
X4.5276Y-3.4843
X4.5276Y-5.1772
X4.5276Y-5.2362
X4.5276Y-5.2854
X4.5866Y-3.376
X4.5866Y-3.4252
X4.5866Y-3.4843
X4.5866Y-5.1772
X4.5866Y-5.2362
X4.5866Y-5.2854
X4.6457Y-3.3071
X4.6457Y-3.4252
X4.6457Y-3.4843
X4.6457Y-5.1772
X4.6457Y-5.2362
X4.6457Y-5.3543
X4.7047Y-5.1772
X4.7047Y-5.2362
X4.7047Y-5.2854
X4.7146Y-3.376
X4.7146Y-3.4252
X4.7146Y-3.4843
X4.7323Y-2.6299
X4.7638Y-5.1772
X4.7638Y-5.2362
X4.7638Y-5.2854
X4.7736Y-3.376
X4.7736Y-3.4252
X4.7736Y-3.4843
X5.1102Y-2.8976
X5.2756Y-3.3622
X5.2756Y-5.2992
X5.3622Y-3.3622
X5.3622Y-5.2992
X5.7874Y-4.3307
X5.7874Y-4.5669
X5.8268Y-4.3307
X5.8268Y-4.5669
X6.002Y-3.248
X6.1811Y-4.7795
X6.435Y-3.248
X6.5305Y-5.497
X6.685Y-4.8819
X6.7104Y-3.4939
X6.8681Y-3.2559
X7.02Y-3.47
X7.02Y-3.81
X7.0472Y-4.7795
X7.2Y-3.47
X7.21Y-3.82
T0
M30
