%FSLAX34Y34*%
G04 Gerber Fmt 3.4, Leading zero omitted, Abs format*
G04 (created by PCBNEW (2014-03-13 BZR 4745)-product) date Fri Apr 11 13:45:18 2014*
%MOIN*%
G01*
G70*
G90*
G04 APERTURE LIST*
%ADD10C,0.005906*%
%ADD11R,0.200787X0.094488*%
%ADD12C,0.060000*%
%ADD13C,0.094488*%
%ADD14R,0.055000X0.055000*%
%ADD15C,0.055000*%
%ADD16R,0.137800X0.137800*%
%ADD17C,0.035000*%
%ADD18C,0.050000*%
%ADD19C,0.039370*%
%ADD20C,0.062992*%
%ADD21C,0.015748*%
%ADD22C,0.019685*%
G04 APERTURE END LIST*
G54D10*
G54D11*
X64500Y-33982D03*
X64500Y-30517D03*
X38500Y-33982D03*
X38500Y-30517D03*
G54D12*
X53365Y-26685D03*
X48365Y-26685D03*
G54D13*
X46691Y-27291D03*
X43908Y-24508D03*
X55395Y-29798D03*
X55395Y-25861D03*
G54D14*
X56700Y-20300D03*
G54D15*
X57700Y-20300D03*
G54D16*
X52200Y-23041D03*
X52200Y-20679D03*
X50350Y-21860D03*
G54D14*
X46450Y-22450D03*
G54D15*
X46450Y-21450D03*
X46450Y-20450D03*
G54D14*
X48550Y-22450D03*
G54D15*
X48550Y-21450D03*
X48550Y-20450D03*
G54D17*
X44600Y-19300D03*
X43800Y-19300D03*
X42300Y-19400D03*
X39300Y-23900D03*
X40250Y-30500D03*
X63000Y-34000D03*
X63000Y-30500D03*
X57100Y-21800D03*
X58000Y-21700D03*
X59000Y-21700D03*
X63100Y-20400D03*
X40250Y-34000D03*
G54D18*
X44580Y-19785D02*
X44580Y-19320D01*
X44580Y-19320D02*
X44600Y-19300D01*
X43800Y-19785D02*
X43800Y-19300D01*
X42930Y-19545D02*
X42445Y-19545D01*
X42445Y-19545D02*
X42300Y-19400D01*
G54D19*
X38500Y-30517D02*
X40232Y-30517D01*
X40232Y-30517D02*
X40250Y-30500D01*
X38500Y-33982D02*
X40232Y-33982D01*
X40232Y-33982D02*
X40250Y-34000D01*
X64500Y-33982D02*
X63017Y-33982D01*
X63017Y-33982D02*
X63000Y-34000D01*
X64500Y-30517D02*
X63017Y-30517D01*
X63017Y-30517D02*
X63000Y-30500D01*
G54D20*
X40232Y-33982D02*
X40250Y-34000D01*
G54D21*
X46450Y-20450D02*
X46450Y-19975D01*
X48550Y-20000D02*
X48500Y-19950D01*
X48550Y-20450D02*
X48550Y-20000D01*
G54D10*
G36*
X65185Y-39185D02*
X57270Y-39185D01*
X57270Y-20633D01*
X57270Y-20516D01*
X57270Y-19966D01*
X57225Y-19857D01*
X57142Y-19774D01*
X57033Y-19729D01*
X56916Y-19729D01*
X56366Y-19729D01*
X56257Y-19774D01*
X56174Y-19857D01*
X56129Y-19966D01*
X56129Y-20083D01*
X56129Y-20633D01*
X56174Y-20742D01*
X56257Y-20825D01*
X56366Y-20870D01*
X56483Y-20870D01*
X57033Y-20870D01*
X57142Y-20825D01*
X57225Y-20742D01*
X57270Y-20633D01*
X57270Y-39185D01*
X56162Y-39185D01*
X56162Y-29646D01*
X56162Y-25709D01*
X56046Y-25427D01*
X55830Y-25211D01*
X55548Y-25093D01*
X55242Y-25093D01*
X54960Y-25210D01*
X54744Y-25426D01*
X54627Y-25708D01*
X54627Y-26013D01*
X54743Y-26295D01*
X54959Y-26511D01*
X55241Y-26629D01*
X55547Y-26629D01*
X55829Y-26512D01*
X56045Y-26296D01*
X56162Y-26014D01*
X56162Y-25709D01*
X56162Y-29646D01*
X56046Y-29364D01*
X55830Y-29148D01*
X55548Y-29030D01*
X55242Y-29030D01*
X54960Y-29147D01*
X54744Y-29363D01*
X54627Y-29645D01*
X54627Y-29950D01*
X54743Y-30232D01*
X54959Y-30448D01*
X55241Y-30566D01*
X55547Y-30566D01*
X55829Y-30449D01*
X56045Y-30233D01*
X56162Y-29951D01*
X56162Y-29646D01*
X56162Y-39185D01*
X53960Y-39185D01*
X53960Y-26567D01*
X53869Y-26348D01*
X53702Y-26180D01*
X53483Y-26089D01*
X53247Y-26089D01*
X53028Y-26180D01*
X52860Y-26347D01*
X52769Y-26566D01*
X52769Y-26802D01*
X52860Y-27021D01*
X53027Y-27189D01*
X53246Y-27280D01*
X53482Y-27280D01*
X53701Y-27189D01*
X53869Y-27022D01*
X53960Y-26803D01*
X53960Y-26567D01*
X53960Y-39185D01*
X48960Y-39185D01*
X48960Y-26567D01*
X48869Y-26348D01*
X48702Y-26180D01*
X48483Y-26089D01*
X48247Y-26089D01*
X48028Y-26180D01*
X47860Y-26347D01*
X47769Y-26566D01*
X47769Y-26802D01*
X47860Y-27021D01*
X48027Y-27189D01*
X48246Y-27280D01*
X48482Y-27280D01*
X48701Y-27189D01*
X48869Y-27022D01*
X48960Y-26803D01*
X48960Y-26567D01*
X48960Y-39185D01*
X47459Y-39185D01*
X47459Y-27139D01*
X47343Y-26857D01*
X47127Y-26641D01*
X46845Y-26524D01*
X46770Y-26524D01*
X46770Y-20733D01*
X46770Y-20616D01*
X46770Y-20066D01*
X46725Y-19957D01*
X46642Y-19874D01*
X46533Y-19829D01*
X46416Y-19829D01*
X45866Y-19829D01*
X45757Y-19874D01*
X45674Y-19957D01*
X45629Y-20066D01*
X45629Y-20183D01*
X45629Y-20733D01*
X45674Y-20842D01*
X45757Y-20925D01*
X45866Y-20970D01*
X45983Y-20970D01*
X46533Y-20970D01*
X46642Y-20925D01*
X46725Y-20842D01*
X46770Y-20733D01*
X46770Y-26524D01*
X46539Y-26524D01*
X46257Y-26640D01*
X46041Y-26856D01*
X45924Y-27138D01*
X45924Y-27443D01*
X46040Y-27726D01*
X46256Y-27942D01*
X46538Y-28059D01*
X46843Y-28059D01*
X47126Y-27943D01*
X47342Y-27727D01*
X47459Y-27445D01*
X47459Y-27139D01*
X47459Y-39185D01*
X44675Y-39185D01*
X44675Y-24356D01*
X44559Y-24073D01*
X44343Y-23857D01*
X44061Y-23740D01*
X43756Y-23740D01*
X43473Y-23856D01*
X43257Y-24072D01*
X43140Y-24354D01*
X43140Y-24660D01*
X43256Y-24942D01*
X43472Y-25158D01*
X43754Y-25275D01*
X44060Y-25275D01*
X44342Y-25159D01*
X44558Y-24943D01*
X44675Y-24661D01*
X44675Y-24356D01*
X44675Y-39185D01*
X37814Y-39185D01*
X37814Y-35500D01*
X37814Y-19314D01*
X65185Y-19314D01*
X65185Y-39185D01*
X65185Y-39185D01*
G37*
G54D22*
X65185Y-39185D02*
X57270Y-39185D01*
X57270Y-20633D01*
X57270Y-20516D01*
X57270Y-19966D01*
X57225Y-19857D01*
X57142Y-19774D01*
X57033Y-19729D01*
X56916Y-19729D01*
X56366Y-19729D01*
X56257Y-19774D01*
X56174Y-19857D01*
X56129Y-19966D01*
X56129Y-20083D01*
X56129Y-20633D01*
X56174Y-20742D01*
X56257Y-20825D01*
X56366Y-20870D01*
X56483Y-20870D01*
X57033Y-20870D01*
X57142Y-20825D01*
X57225Y-20742D01*
X57270Y-20633D01*
X57270Y-39185D01*
X56162Y-39185D01*
X56162Y-29646D01*
X56162Y-25709D01*
X56046Y-25427D01*
X55830Y-25211D01*
X55548Y-25093D01*
X55242Y-25093D01*
X54960Y-25210D01*
X54744Y-25426D01*
X54627Y-25708D01*
X54627Y-26013D01*
X54743Y-26295D01*
X54959Y-26511D01*
X55241Y-26629D01*
X55547Y-26629D01*
X55829Y-26512D01*
X56045Y-26296D01*
X56162Y-26014D01*
X56162Y-25709D01*
X56162Y-29646D01*
X56046Y-29364D01*
X55830Y-29148D01*
X55548Y-29030D01*
X55242Y-29030D01*
X54960Y-29147D01*
X54744Y-29363D01*
X54627Y-29645D01*
X54627Y-29950D01*
X54743Y-30232D01*
X54959Y-30448D01*
X55241Y-30566D01*
X55547Y-30566D01*
X55829Y-30449D01*
X56045Y-30233D01*
X56162Y-29951D01*
X56162Y-29646D01*
X56162Y-39185D01*
X53960Y-39185D01*
X53960Y-26567D01*
X53869Y-26348D01*
X53702Y-26180D01*
X53483Y-26089D01*
X53247Y-26089D01*
X53028Y-26180D01*
X52860Y-26347D01*
X52769Y-26566D01*
X52769Y-26802D01*
X52860Y-27021D01*
X53027Y-27189D01*
X53246Y-27280D01*
X53482Y-27280D01*
X53701Y-27189D01*
X53869Y-27022D01*
X53960Y-26803D01*
X53960Y-26567D01*
X53960Y-39185D01*
X48960Y-39185D01*
X48960Y-26567D01*
X48869Y-26348D01*
X48702Y-26180D01*
X48483Y-26089D01*
X48247Y-26089D01*
X48028Y-26180D01*
X47860Y-26347D01*
X47769Y-26566D01*
X47769Y-26802D01*
X47860Y-27021D01*
X48027Y-27189D01*
X48246Y-27280D01*
X48482Y-27280D01*
X48701Y-27189D01*
X48869Y-27022D01*
X48960Y-26803D01*
X48960Y-26567D01*
X48960Y-39185D01*
X47459Y-39185D01*
X47459Y-27139D01*
X47343Y-26857D01*
X47127Y-26641D01*
X46845Y-26524D01*
X46770Y-26524D01*
X46770Y-20733D01*
X46770Y-20616D01*
X46770Y-20066D01*
X46725Y-19957D01*
X46642Y-19874D01*
X46533Y-19829D01*
X46416Y-19829D01*
X45866Y-19829D01*
X45757Y-19874D01*
X45674Y-19957D01*
X45629Y-20066D01*
X45629Y-20183D01*
X45629Y-20733D01*
X45674Y-20842D01*
X45757Y-20925D01*
X45866Y-20970D01*
X45983Y-20970D01*
X46533Y-20970D01*
X46642Y-20925D01*
X46725Y-20842D01*
X46770Y-20733D01*
X46770Y-26524D01*
X46539Y-26524D01*
X46257Y-26640D01*
X46041Y-26856D01*
X45924Y-27138D01*
X45924Y-27443D01*
X46040Y-27726D01*
X46256Y-27942D01*
X46538Y-28059D01*
X46843Y-28059D01*
X47126Y-27943D01*
X47342Y-27727D01*
X47459Y-27445D01*
X47459Y-27139D01*
X47459Y-39185D01*
X44675Y-39185D01*
X44675Y-24356D01*
X44559Y-24073D01*
X44343Y-23857D01*
X44061Y-23740D01*
X43756Y-23740D01*
X43473Y-23856D01*
X43257Y-24072D01*
X43140Y-24354D01*
X43140Y-24660D01*
X43256Y-24942D01*
X43472Y-25158D01*
X43754Y-25275D01*
X44060Y-25275D01*
X44342Y-25159D01*
X44558Y-24943D01*
X44675Y-24661D01*
X44675Y-24356D01*
X44675Y-39185D01*
X37814Y-39185D01*
X37814Y-35500D01*
X37814Y-19314D01*
X65185Y-19314D01*
X65185Y-39185D01*
M02*
