%FSLAX34Y34*%
G04 Gerber Fmt 3.4, Leading zero omitted, Abs format*
G04 (created by PCBNEW (2014-03-19 BZR 4756)-product) date Mon 28 Jul 2014 10:14:24 AM AKDT*
%MOIN*%
G01*
G70*
G90*
G04 APERTURE LIST*
%ADD10C,0.005906*%
%ADD11R,0.051200X0.059000*%
%ADD12R,0.059000X0.051200*%
%ADD13R,0.094500X0.157500*%
%ADD14R,0.031400X0.031400*%
%ADD15R,0.035000X0.055000*%
%ADD16R,0.062992X0.023622*%
%ADD17R,0.236220X0.157480*%
%ADD18R,0.393701X0.236220*%
%ADD19R,0.070079X0.050000*%
%ADD20R,0.216535X0.118110*%
%ADD21R,0.196850X0.098425*%
%ADD22R,0.150000X0.055000*%
%ADD23R,0.295300X0.118100*%
%ADD24R,0.062992X0.078740*%
%ADD25R,0.062992X0.051181*%
%ADD26R,0.064961X0.135039*%
%ADD27R,0.100000X0.050000*%
%ADD28R,0.135039X0.064961*%
%ADD29R,0.050000X0.100000*%
%ADD30R,0.251968X0.125984*%
%ADD31R,0.062992X0.125984*%
%ADD32R,0.125984X0.062992*%
%ADD33R,0.078700X0.118100*%
%ADD34R,0.420000X0.350000*%
%ADD35R,0.070000X0.090000*%
%ADD36R,0.059843X0.059843*%
%ADD37R,0.075197X0.075197*%
%ADD38R,0.055000X0.035000*%
G04 APERTURE END LIST*
G54D10*
G54D11*
X38995Y-43307D03*
X39745Y-43307D03*
X53404Y-41496D03*
X54154Y-41496D03*
G54D12*
X53779Y-35020D03*
X53779Y-34270D03*
X52913Y-35020D03*
X52913Y-34270D03*
G54D13*
X68681Y-28228D03*
X68681Y-31378D03*
G54D12*
X38740Y-26044D03*
X38740Y-25294D03*
G54D11*
X35571Y-29409D03*
X34821Y-29409D03*
X35571Y-30590D03*
X34821Y-30590D03*
X36595Y-40944D03*
X35845Y-40944D03*
G54D12*
X40944Y-43682D03*
X40944Y-42932D03*
G54D11*
X34475Y-44300D03*
X33725Y-44300D03*
G54D12*
X34251Y-42107D03*
X34251Y-41357D03*
X51968Y-41319D03*
X51968Y-40569D03*
X51968Y-43682D03*
X51968Y-42932D03*
X51968Y-46437D03*
X51968Y-45687D03*
G54D11*
X53404Y-45118D03*
X54154Y-45118D03*
G54D12*
X53622Y-51672D03*
X53622Y-52422D03*
X52755Y-51672D03*
X52755Y-52422D03*
G54D13*
X66141Y-51968D03*
X66141Y-48818D03*
G54D12*
X67103Y-36101D03*
X67103Y-35351D03*
G54D11*
X68125Y-36400D03*
X68875Y-36400D03*
G54D14*
X68749Y-54970D03*
X68159Y-54970D03*
G54D15*
X37380Y-29212D03*
X38130Y-29212D03*
X40375Y-27200D03*
X39625Y-27200D03*
X66861Y-54970D03*
X66111Y-54970D03*
G54D16*
X38622Y-26702D03*
X36496Y-26702D03*
X38622Y-27194D03*
X38622Y-27687D03*
X38622Y-28179D03*
X36496Y-27194D03*
X36496Y-27687D03*
X36496Y-28179D03*
G54D17*
X43307Y-41559D03*
X43307Y-45078D03*
X49606Y-45078D03*
X49606Y-41535D03*
G54D18*
X46456Y-34940D03*
X46456Y-51673D03*
G54D19*
X37795Y-43307D03*
X37795Y-42307D03*
X37795Y-44307D03*
X35433Y-42307D03*
X35433Y-44307D03*
G54D20*
X50787Y-48425D03*
X50787Y-53149D03*
X50787Y-38188D03*
X50787Y-33464D03*
G54D21*
X59448Y-43307D03*
X59448Y-44488D03*
X59448Y-45669D03*
X59448Y-42125D03*
X59448Y-40944D03*
G54D13*
X64350Y-28228D03*
X64350Y-31378D03*
X70472Y-51968D03*
X70472Y-48818D03*
G54D22*
X36600Y-37700D03*
X36600Y-39500D03*
G54D23*
X54000Y-36216D03*
X54000Y-38184D03*
X54000Y-48416D03*
X54000Y-50384D03*
G54D24*
X39209Y-29700D03*
G54D25*
X40390Y-30211D03*
X40390Y-29188D03*
G54D26*
X30944Y-33622D03*
X30944Y-29527D03*
G54D27*
X32204Y-31009D03*
X32204Y-32139D03*
G54D28*
X45826Y-25826D03*
X49921Y-25826D03*
G54D29*
X48438Y-27086D03*
X47309Y-27086D03*
G54D30*
X41200Y-39955D03*
G54D31*
X42026Y-34483D03*
X40373Y-34483D03*
G54D32*
X40392Y-31533D03*
X40392Y-33266D03*
G54D13*
X60019Y-28228D03*
X60019Y-31378D03*
X61811Y-51968D03*
X61811Y-48818D03*
G54D12*
X51102Y-27499D03*
X51102Y-28249D03*
G54D33*
X60019Y-25925D03*
X57657Y-25925D03*
G54D34*
X54330Y-29434D03*
G54D35*
X54330Y-25984D03*
X55330Y-25984D03*
X53330Y-25984D03*
G54D17*
X57519Y-47716D03*
X57519Y-36574D03*
G54D36*
X31700Y-44300D03*
G54D37*
X32633Y-45233D03*
X32633Y-43366D03*
X30766Y-45233D03*
X30766Y-43366D03*
G54D36*
X71100Y-36400D03*
G54D37*
X72033Y-37333D03*
X72033Y-35466D03*
X70166Y-37333D03*
X70166Y-35466D03*
G54D38*
X32795Y-29587D03*
X32795Y-28837D03*
M02*
