%FSLAX34Y34*%
G04 Gerber Fmt 3.4, Leading zero omitted, Abs format*
G04 (created by PCBNEW (2014-03-19 BZR 4756)-product) date Thu Jan  8 10:59:18 2015*
%MOIN*%
G01*
G70*
G90*
G04 APERTURE LIST*
%ADD10C,0.005906*%
%ADD11R,0.196850X0.098425*%
%ADD12R,0.094500X0.157500*%
%ADD13R,0.031400X0.031400*%
%ADD14R,0.035000X0.055000*%
%ADD15R,0.236220X0.157480*%
%ADD16R,0.393701X0.236220*%
%ADD17R,0.216535X0.118110*%
%ADD18R,0.055000X0.150000*%
%ADD19R,0.295300X0.118100*%
%ADD20R,0.135039X0.064961*%
%ADD21R,0.050000X0.100000*%
%ADD22R,0.078700X0.118100*%
%ADD23R,0.059843X0.059843*%
%ADD24R,0.075197X0.075197*%
%ADD25R,0.200000X0.060000*%
%ADD26R,0.100000X0.050000*%
%ADD27R,0.055000X0.035000*%
%ADD28R,0.235039X0.070079*%
%ADD29R,0.047244X0.157480*%
%ADD30R,0.045000X0.025000*%
%ADD31R,0.025000X0.045000*%
%ADD32R,0.030000X0.020000*%
%ADD33R,0.035000X0.016535*%
%ADD34R,0.066142X0.074016*%
%ADD35R,0.110236X0.047244*%
%ADD36R,0.055118X0.029921*%
%ADD37R,0.026000X0.016000*%
%ADD38R,0.070900X0.086600*%
G04 APERTURE END LIST*
G54D10*
G54D11*
X59448Y-43307D03*
X59448Y-44685D03*
X59429Y-46557D03*
X59448Y-41929D03*
X59429Y-40057D03*
G54D12*
X68681Y-28228D03*
X68681Y-31378D03*
X66141Y-51968D03*
X66141Y-48818D03*
G54D13*
X68749Y-54970D03*
X68159Y-54970D03*
G54D14*
X66861Y-54970D03*
X66111Y-54970D03*
G54D15*
X43307Y-41559D03*
X43307Y-45078D03*
X49606Y-45078D03*
X49606Y-41535D03*
G54D16*
X46456Y-34940D03*
X46456Y-51673D03*
G54D17*
X50787Y-48425D03*
X50787Y-53149D03*
X50787Y-38188D03*
X50787Y-33464D03*
G54D12*
X64350Y-28228D03*
X64350Y-31378D03*
X70472Y-51968D03*
X70472Y-48818D03*
G54D18*
X39300Y-41200D03*
X37500Y-41200D03*
G54D19*
X54000Y-36216D03*
X54000Y-38184D03*
X54000Y-48416D03*
X54000Y-50384D03*
G54D20*
X41552Y-25950D03*
X45647Y-25950D03*
G54D21*
X44164Y-27209D03*
X43035Y-27209D03*
G54D12*
X60019Y-28228D03*
X60019Y-31378D03*
X61811Y-51968D03*
X61811Y-48818D03*
G54D22*
X55413Y-33169D03*
X57775Y-33169D03*
G54D23*
X32200Y-47000D03*
G54D24*
X33133Y-47933D03*
X33133Y-46066D03*
X31266Y-47933D03*
X31266Y-46066D03*
G54D23*
X69100Y-36400D03*
G54D24*
X70033Y-37333D03*
X70033Y-35466D03*
X68166Y-37333D03*
X68166Y-35466D03*
G54D25*
X55300Y-29250D03*
X55300Y-28250D03*
X55300Y-27250D03*
G54D26*
X34700Y-47000D03*
X34700Y-48200D03*
G54D21*
X36000Y-47000D03*
X37200Y-47000D03*
G54D26*
X38400Y-47000D03*
X38400Y-48200D03*
X59400Y-38300D03*
X59400Y-37100D03*
X61400Y-38300D03*
X61400Y-37100D03*
X63300Y-36400D03*
X63300Y-35200D03*
G54D27*
X37950Y-33325D03*
X37950Y-34075D03*
G54D28*
X31139Y-38960D03*
X32639Y-39960D03*
X31139Y-40960D03*
X31350Y-29200D03*
X32850Y-30200D03*
X31350Y-31200D03*
G54D29*
X43250Y-32950D03*
X42250Y-32950D03*
X41250Y-32950D03*
G54D30*
X33600Y-34100D03*
X33600Y-33500D03*
X35500Y-38400D03*
X35500Y-37800D03*
G54D31*
X31150Y-32850D03*
X30550Y-32850D03*
G54D30*
X41250Y-30550D03*
X41250Y-29950D03*
G54D31*
X41850Y-31550D03*
X41250Y-31550D03*
X43350Y-31550D03*
X42750Y-31550D03*
X40450Y-31550D03*
X39850Y-31550D03*
X36450Y-38850D03*
X37050Y-38850D03*
X38250Y-37800D03*
X37650Y-37800D03*
G54D14*
X38925Y-37800D03*
X39675Y-37800D03*
G54D27*
X38750Y-33275D03*
X38750Y-32525D03*
G54D30*
X35500Y-25750D03*
X35500Y-26350D03*
X35500Y-26900D03*
X35500Y-27500D03*
X38700Y-26850D03*
X38700Y-26250D03*
X35500Y-36150D03*
X35500Y-36750D03*
G54D32*
X35400Y-30275D03*
X35400Y-31025D03*
X36400Y-30275D03*
X35400Y-30650D03*
X36400Y-31025D03*
G54D33*
X36250Y-26125D03*
X36250Y-26380D03*
X36250Y-26636D03*
X36250Y-26892D03*
X37982Y-26892D03*
X37982Y-26636D03*
X37982Y-26380D03*
X37982Y-26125D03*
G54D34*
X37100Y-26500D03*
G54D27*
X38300Y-38775D03*
X38300Y-39525D03*
X35500Y-33325D03*
X35500Y-34075D03*
X39150Y-38775D03*
X39150Y-39525D03*
X37150Y-33325D03*
X37150Y-34075D03*
G54D14*
X36375Y-29450D03*
X35625Y-29450D03*
G54D27*
X33750Y-25725D03*
X33750Y-26475D03*
X34650Y-25725D03*
X34650Y-26475D03*
G54D14*
X37925Y-25450D03*
X37175Y-25450D03*
G54D27*
X34650Y-37825D03*
X34650Y-38575D03*
G54D14*
X53404Y-41496D03*
X54154Y-41496D03*
G54D27*
X53800Y-35025D03*
X53800Y-34275D03*
X52900Y-35025D03*
X52900Y-34275D03*
X42100Y-30575D03*
X42100Y-29825D03*
X34550Y-32175D03*
X34550Y-31425D03*
X36350Y-33325D03*
X36350Y-34075D03*
X37350Y-31025D03*
X37350Y-30275D03*
X39500Y-43575D03*
X39500Y-42825D03*
G54D14*
X37625Y-45700D03*
X38375Y-45700D03*
G54D27*
X35600Y-42725D03*
X35600Y-43475D03*
X51968Y-41319D03*
X51968Y-40569D03*
X51968Y-43682D03*
X51968Y-42932D03*
X51968Y-46437D03*
X51968Y-45687D03*
G54D14*
X53404Y-45118D03*
X54154Y-45118D03*
G54D27*
X53600Y-51675D03*
X53600Y-52425D03*
X52750Y-51675D03*
X52750Y-52425D03*
G54D14*
X64825Y-36400D03*
X65575Y-36400D03*
X59790Y-25775D03*
X60540Y-25775D03*
G54D35*
X32485Y-36100D03*
X30678Y-35100D03*
X32485Y-34100D03*
G54D36*
X38200Y-42700D03*
X38200Y-43200D03*
X38200Y-43700D03*
X36822Y-43700D03*
X36822Y-42700D03*
G54D37*
X36250Y-37540D03*
X36250Y-38060D03*
X36250Y-37800D03*
X37050Y-38060D03*
X37050Y-37540D03*
X37050Y-37800D03*
G54D30*
X33600Y-36700D03*
X33600Y-36100D03*
X33600Y-35350D03*
X33600Y-34750D03*
X36250Y-36150D03*
X36250Y-36750D03*
G54D27*
X39600Y-32525D03*
X39600Y-33275D03*
X39550Y-27025D03*
X39550Y-26275D03*
G54D38*
X57182Y-25787D03*
X58762Y-25787D03*
M02*
