%FSLAX34Y34*%
G04 Gerber Fmt 3.4, Leading zero omitted, Abs format*
G04 (created by PCBNEW (2014-03-13 BZR 4745)-product) date Fri Apr 11 13:45:18 2014*
%MOIN*%
G01*
G70*
G90*
G04 APERTURE LIST*
%ADD10C,0.005906*%
%ADD11R,0.200787X0.094488*%
%ADD12C,0.060000*%
%ADD13R,0.377953X0.299213*%
%ADD14R,0.106300X0.100400*%
%ADD15R,0.149600X0.100400*%
%ADD16R,0.094500X0.157500*%
%ADD17R,0.059000X0.051200*%
%ADD18R,0.035400X0.039400*%
%ADD19R,0.039400X0.035400*%
%ADD20C,0.094488*%
%ADD21R,0.055000X0.055000*%
%ADD22C,0.055000*%
%ADD23R,0.137800X0.137800*%
%ADD24C,0.035000*%
%ADD25C,0.015748*%
%ADD26C,0.062992*%
%ADD27C,0.039370*%
%ADD28C,0.078740*%
%ADD29C,0.050000*%
%ADD30C,0.010000*%
%ADD31C,0.118110*%
G04 APERTURE END LIST*
G54D10*
G54D11*
X64500Y-32250D03*
X64500Y-30517D03*
X64500Y-33982D03*
X38500Y-32250D03*
X38500Y-30517D03*
X38500Y-33982D03*
G54D12*
X53365Y-26685D03*
X48365Y-26685D03*
G54D13*
X54488Y-32250D03*
X48425Y-32250D03*
G54D14*
X39300Y-20219D03*
G54D15*
X39300Y-22581D03*
G54D16*
X61750Y-23575D03*
X61750Y-20425D03*
G54D17*
X59000Y-23125D03*
X59000Y-22375D03*
X42900Y-20375D03*
X42900Y-19625D03*
G54D18*
X61908Y-32250D03*
X62500Y-32250D03*
G54D19*
X58000Y-23046D03*
X58000Y-22454D03*
X57000Y-23046D03*
X57000Y-22454D03*
X43800Y-20396D03*
X43800Y-19804D03*
X44600Y-20396D03*
X44600Y-19804D03*
X53370Y-28394D03*
X53370Y-28986D03*
G54D18*
X40454Y-32250D03*
X41046Y-32250D03*
G54D20*
X46691Y-27291D03*
X43908Y-24508D03*
X55395Y-29798D03*
X55395Y-25861D03*
G54D21*
X56700Y-20300D03*
G54D22*
X57700Y-20300D03*
G54D23*
X52200Y-23041D03*
X52200Y-20679D03*
X50350Y-21860D03*
G54D21*
X46450Y-22450D03*
G54D22*
X46450Y-21450D03*
X46450Y-20450D03*
G54D21*
X48550Y-22450D03*
G54D22*
X48550Y-21450D03*
X48550Y-20450D03*
G54D24*
X44600Y-19300D03*
X43800Y-19300D03*
X42300Y-19400D03*
X39300Y-23900D03*
X40250Y-30500D03*
X63000Y-34000D03*
X63000Y-30500D03*
X57100Y-21800D03*
X58000Y-21700D03*
X59000Y-21700D03*
X63100Y-20400D03*
X40250Y-34000D03*
G54D25*
X44400Y-20800D02*
X44600Y-20800D01*
X44600Y-20800D02*
X44600Y-20396D01*
X43800Y-20396D02*
X43800Y-20800D01*
X42900Y-20375D02*
X42900Y-20800D01*
X42900Y-20800D02*
X42900Y-21000D01*
X42900Y-21000D02*
X42900Y-20800D01*
G54D26*
X43800Y-20800D02*
X43800Y-24400D01*
X43800Y-24400D02*
X43908Y-24508D01*
X39300Y-20219D02*
X41419Y-20219D01*
X41419Y-20219D02*
X42000Y-20800D01*
X42000Y-20800D02*
X42900Y-20800D01*
X42900Y-20800D02*
X43800Y-20800D01*
X43800Y-20800D02*
X44400Y-20800D01*
G54D27*
X42921Y-20396D02*
X42900Y-20375D01*
X48550Y-21450D02*
X46450Y-21450D01*
X45050Y-21450D02*
X44400Y-20800D01*
X46450Y-21450D02*
X45050Y-21450D01*
G54D26*
X57000Y-23575D02*
X55760Y-23575D01*
X55760Y-23575D02*
X55395Y-23210D01*
X55395Y-25861D02*
X55395Y-23210D01*
X55395Y-23210D02*
X55395Y-21605D01*
X55395Y-21605D02*
X56700Y-20300D01*
G54D28*
X57000Y-23575D02*
X57900Y-23575D01*
G54D25*
X59000Y-23125D02*
X59000Y-23300D01*
X59000Y-23300D02*
X59275Y-23575D01*
X58000Y-23046D02*
X58000Y-23575D01*
X57900Y-23400D02*
X57900Y-23575D01*
X57900Y-23475D02*
X57900Y-23400D01*
X58000Y-23575D02*
X57900Y-23475D01*
X57000Y-23046D02*
X57000Y-23575D01*
X57000Y-23575D02*
X57000Y-23500D01*
X57000Y-23500D02*
X57000Y-23575D01*
G54D28*
X57900Y-23575D02*
X59275Y-23575D01*
X59275Y-23575D02*
X61750Y-23575D01*
G54D25*
X44600Y-19300D02*
X44600Y-19804D01*
X43800Y-19300D02*
X43800Y-19804D01*
X42525Y-19625D02*
X42300Y-19400D01*
X42525Y-19625D02*
X42900Y-19625D01*
G54D26*
X39300Y-22581D02*
X39300Y-23900D01*
G54D27*
X63017Y-33982D02*
X63000Y-34000D01*
X63017Y-33982D02*
X64500Y-33982D01*
X63017Y-30517D02*
X63000Y-30500D01*
X63017Y-30517D02*
X64500Y-30517D01*
G54D25*
X57000Y-22454D02*
X57000Y-21900D01*
X57000Y-21900D02*
X57100Y-21800D01*
X58000Y-22454D02*
X58000Y-21700D01*
X59000Y-22375D02*
X59000Y-21700D01*
G54D26*
X61750Y-20425D02*
X63075Y-20425D01*
X63075Y-20425D02*
X63100Y-20400D01*
X38500Y-30517D02*
X40232Y-30517D01*
X40232Y-33982D02*
X40250Y-34000D01*
X38500Y-33982D02*
X40232Y-33982D01*
X40232Y-30517D02*
X40250Y-30500D01*
X40232Y-30517D02*
X40250Y-30500D01*
X38500Y-30517D02*
X40232Y-30517D01*
G54D27*
X48550Y-20450D02*
X46450Y-20450D01*
G54D25*
X40454Y-32250D02*
X40100Y-32250D01*
X40100Y-32250D02*
X40060Y-32210D01*
X40060Y-32210D02*
X39930Y-32210D01*
X39930Y-32210D02*
X39930Y-32250D01*
G54D29*
X38500Y-32250D02*
X39930Y-32250D01*
X39930Y-32250D02*
X40100Y-32250D01*
X40100Y-32260D02*
X40100Y-32240D01*
X40100Y-32250D02*
X40100Y-32260D01*
G54D26*
X48365Y-26685D02*
X48365Y-27435D01*
X48365Y-27435D02*
X47600Y-28200D01*
G54D27*
X46652Y-27252D02*
X46691Y-27291D01*
G54D28*
X46691Y-27291D02*
X47600Y-28200D01*
X47600Y-28200D02*
X47600Y-31424D01*
X47600Y-31424D02*
X48425Y-32250D01*
G54D26*
X41500Y-32250D02*
X48425Y-32250D01*
G54D25*
X41046Y-32250D02*
X41500Y-32250D01*
G54D30*
X53365Y-28090D02*
X53365Y-28389D01*
X53365Y-28389D02*
X53370Y-28394D01*
G54D26*
X53365Y-26685D02*
X53365Y-28090D01*
X53365Y-28090D02*
X53370Y-28095D01*
G54D29*
X54488Y-32250D02*
X54488Y-31878D01*
X54488Y-31878D02*
X53370Y-30760D01*
X53370Y-30760D02*
X53370Y-29290D01*
G54D30*
X53370Y-28986D02*
X53370Y-29290D01*
X53370Y-29290D02*
X53390Y-29270D01*
G54D26*
X55395Y-29798D02*
X55395Y-31343D01*
X55395Y-31343D02*
X54488Y-32250D01*
X54780Y-31958D02*
X54488Y-32250D01*
G54D25*
X60970Y-32250D02*
X61908Y-32250D01*
G54D28*
X54488Y-32250D02*
X60970Y-32250D01*
X60970Y-32250D02*
X61390Y-32250D01*
G54D31*
X54250Y-32011D02*
X54488Y-32250D01*
G54D28*
X54250Y-32011D02*
X54488Y-32250D01*
G54D25*
X63070Y-32250D02*
X62500Y-32250D01*
G54D29*
X64500Y-32250D02*
X63070Y-32250D01*
X63070Y-32250D02*
X62820Y-32250D01*
G54D27*
X46450Y-22450D02*
X48550Y-22450D01*
M02*
