%FSLAX34Y34*%
G04 Gerber Fmt 3.4, Leading zero omitted, Abs format*
G04 (created by PCBNEW (2014-03-19 BZR 4756)-product) date Fri Dec 19 15:15:21 2014*
%MOIN*%
G01*
G70*
G90*
G04 APERTURE LIST*
%ADD10C,0.005906*%
%ADD11C,0.011811*%
%ADD12C,0.010827*%
%ADD13C,0.007874*%
%ADD14C,0.008858*%
%ADD15C,0.009843*%
%ADD16C,0.005000*%
%ADD17C,0.002600*%
%ADD18C,0.004000*%
%ADD19C,0.003900*%
%ADD20C,0.015000*%
%ADD21C,0.005900*%
%ADD22C,0.010000*%
G04 APERTURE END LIST*
G54D10*
G54D11*
X61697Y-33867D02*
X61697Y-33276D01*
X61838Y-33276D01*
X61922Y-33304D01*
X61978Y-33360D01*
X62006Y-33417D01*
X62034Y-33529D01*
X62034Y-33614D01*
X62006Y-33726D01*
X61978Y-33782D01*
X61922Y-33839D01*
X61838Y-33867D01*
X61697Y-33867D01*
X62625Y-33867D02*
X62428Y-33585D01*
X62288Y-33867D02*
X62288Y-33276D01*
X62513Y-33276D01*
X62569Y-33304D01*
X62597Y-33332D01*
X62625Y-33389D01*
X62625Y-33473D01*
X62597Y-33529D01*
X62569Y-33557D01*
X62513Y-33585D01*
X62288Y-33585D01*
X62878Y-33867D02*
X62878Y-33276D01*
X63075Y-33276D02*
X63272Y-33867D01*
X63469Y-33276D01*
X63666Y-33557D02*
X63862Y-33557D01*
X63947Y-33867D02*
X63666Y-33867D01*
X63666Y-33276D01*
X63947Y-33276D01*
X64537Y-33867D02*
X64340Y-33585D01*
X64200Y-33867D02*
X64200Y-33276D01*
X64425Y-33276D01*
X64481Y-33304D01*
X64509Y-33332D01*
X64537Y-33389D01*
X64537Y-33473D01*
X64509Y-33529D01*
X64481Y-33557D01*
X64425Y-33585D01*
X64200Y-33585D01*
X65353Y-33276D02*
X65465Y-33276D01*
X65522Y-33304D01*
X65578Y-33360D01*
X65606Y-33473D01*
X65606Y-33670D01*
X65578Y-33782D01*
X65522Y-33839D01*
X65465Y-33867D01*
X65353Y-33867D01*
X65297Y-33839D01*
X65240Y-33782D01*
X65212Y-33670D01*
X65212Y-33473D01*
X65240Y-33360D01*
X65297Y-33304D01*
X65353Y-33276D01*
X65859Y-33276D02*
X65859Y-33754D01*
X65887Y-33810D01*
X65915Y-33839D01*
X65971Y-33867D01*
X66084Y-33867D01*
X66140Y-33839D01*
X66168Y-33810D01*
X66196Y-33754D01*
X66196Y-33276D01*
X66393Y-33276D02*
X66731Y-33276D01*
X66562Y-33867D02*
X66562Y-33276D01*
X67378Y-33867D02*
X67378Y-33276D01*
X67574Y-33698D01*
X67771Y-33276D01*
X67771Y-33867D01*
X68024Y-33698D02*
X68306Y-33698D01*
X67968Y-33867D02*
X68165Y-33276D01*
X68362Y-33867D01*
X68502Y-33276D02*
X68896Y-33867D01*
X68896Y-33276D02*
X68502Y-33867D01*
X69880Y-33867D02*
X69543Y-33867D01*
X69712Y-33867D02*
X69712Y-33276D01*
X69655Y-33360D01*
X69599Y-33417D01*
X69543Y-33445D01*
X70246Y-33276D02*
X70302Y-33276D01*
X70358Y-33304D01*
X70387Y-33332D01*
X70415Y-33389D01*
X70443Y-33501D01*
X70443Y-33642D01*
X70415Y-33754D01*
X70387Y-33810D01*
X70358Y-33839D01*
X70302Y-33867D01*
X70246Y-33867D01*
X70190Y-33839D01*
X70162Y-33810D01*
X70133Y-33754D01*
X70105Y-33642D01*
X70105Y-33501D01*
X70133Y-33389D01*
X70162Y-33332D01*
X70190Y-33304D01*
X70246Y-33276D01*
X70808Y-33276D02*
X70865Y-33276D01*
X70921Y-33304D01*
X70949Y-33332D01*
X70977Y-33389D01*
X71005Y-33501D01*
X71005Y-33642D01*
X70977Y-33754D01*
X70949Y-33810D01*
X70921Y-33839D01*
X70865Y-33867D01*
X70808Y-33867D01*
X70752Y-33839D01*
X70724Y-33810D01*
X70696Y-33754D01*
X70668Y-33642D01*
X70668Y-33501D01*
X70696Y-33389D01*
X70724Y-33332D01*
X70752Y-33304D01*
X70808Y-33276D01*
X71652Y-33276D02*
X71793Y-33867D01*
X71905Y-33445D01*
X72018Y-33867D01*
X72158Y-33276D01*
X30507Y-40713D02*
X30237Y-40713D01*
X30372Y-40713D02*
X30372Y-40241D01*
X30327Y-40308D01*
X30282Y-40353D01*
X30237Y-40376D01*
X31025Y-40241D02*
X31137Y-40713D01*
X31227Y-40376D01*
X31317Y-40713D01*
X31430Y-40241D01*
X31969Y-40713D02*
X31969Y-40241D01*
X32127Y-40578D01*
X32284Y-40241D01*
X32284Y-40713D01*
X32487Y-40578D02*
X32712Y-40578D01*
X32442Y-40713D02*
X32599Y-40241D01*
X32757Y-40713D01*
X32869Y-40241D02*
X33184Y-40713D01*
X33184Y-40241D02*
X32869Y-40713D01*
G54D12*
X46963Y-31560D02*
X46942Y-31540D01*
X46901Y-31478D01*
X46880Y-31437D01*
X46860Y-31375D01*
X46839Y-31272D01*
X46839Y-31189D01*
X46860Y-31086D01*
X46880Y-31024D01*
X46901Y-30983D01*
X46942Y-30921D01*
X46963Y-30900D01*
X47334Y-30962D02*
X47128Y-30962D01*
X47107Y-31169D01*
X47128Y-31148D01*
X47169Y-31127D01*
X47272Y-31127D01*
X47313Y-31148D01*
X47334Y-31169D01*
X47355Y-31210D01*
X47355Y-31313D01*
X47334Y-31354D01*
X47313Y-31375D01*
X47272Y-31395D01*
X47169Y-31395D01*
X47128Y-31375D01*
X47107Y-31354D01*
X47623Y-30962D02*
X47664Y-30962D01*
X47705Y-30983D01*
X47726Y-31004D01*
X47746Y-31045D01*
X47767Y-31127D01*
X47767Y-31230D01*
X47746Y-31313D01*
X47726Y-31354D01*
X47705Y-31375D01*
X47664Y-31395D01*
X47623Y-31395D01*
X47581Y-31375D01*
X47561Y-31354D01*
X47540Y-31313D01*
X47520Y-31230D01*
X47520Y-31127D01*
X47540Y-31045D01*
X47561Y-31004D01*
X47581Y-30983D01*
X47623Y-30962D01*
X48035Y-30962D02*
X48076Y-30962D01*
X48118Y-30983D01*
X48138Y-31004D01*
X48159Y-31045D01*
X48179Y-31127D01*
X48179Y-31230D01*
X48159Y-31313D01*
X48138Y-31354D01*
X48118Y-31375D01*
X48076Y-31395D01*
X48035Y-31395D01*
X47994Y-31375D01*
X47973Y-31354D01*
X47953Y-31313D01*
X47932Y-31230D01*
X47932Y-31127D01*
X47953Y-31045D01*
X47973Y-31004D01*
X47994Y-30983D01*
X48035Y-30962D01*
X48695Y-31395D02*
X48695Y-31107D01*
X48695Y-31148D02*
X48716Y-31127D01*
X48757Y-31107D01*
X48819Y-31107D01*
X48860Y-31127D01*
X48881Y-31169D01*
X48881Y-31395D01*
X48881Y-31169D02*
X48901Y-31127D01*
X48943Y-31107D01*
X49004Y-31107D01*
X49046Y-31127D01*
X49066Y-31169D01*
X49066Y-31395D01*
X49252Y-31272D02*
X49458Y-31272D01*
X49211Y-31395D02*
X49355Y-30962D01*
X49499Y-31395D01*
X50159Y-31375D02*
X50118Y-31395D01*
X50035Y-31395D01*
X49994Y-31375D01*
X49974Y-31354D01*
X49953Y-31313D01*
X49953Y-31189D01*
X49974Y-31148D01*
X49994Y-31127D01*
X50035Y-31107D01*
X50118Y-31107D01*
X50159Y-31127D01*
X50530Y-31107D02*
X50530Y-31395D01*
X50345Y-31107D02*
X50345Y-31334D01*
X50365Y-31375D01*
X50407Y-31395D01*
X50469Y-31395D01*
X50510Y-31375D01*
X50530Y-31354D01*
X50737Y-31395D02*
X50737Y-31107D01*
X50737Y-31189D02*
X50757Y-31148D01*
X50778Y-31127D01*
X50819Y-31107D01*
X50860Y-31107D01*
X51005Y-31395D02*
X51005Y-31107D01*
X51005Y-31189D02*
X51025Y-31148D01*
X51046Y-31127D01*
X51087Y-31107D01*
X51128Y-31107D01*
X51438Y-31375D02*
X51397Y-31395D01*
X51314Y-31395D01*
X51273Y-31375D01*
X51252Y-31334D01*
X51252Y-31169D01*
X51273Y-31127D01*
X51314Y-31107D01*
X51397Y-31107D01*
X51438Y-31127D01*
X51458Y-31169D01*
X51458Y-31210D01*
X51252Y-31251D01*
X51644Y-31107D02*
X51644Y-31395D01*
X51644Y-31148D02*
X51665Y-31127D01*
X51706Y-31107D01*
X51768Y-31107D01*
X51809Y-31127D01*
X51830Y-31169D01*
X51830Y-31395D01*
X51974Y-31107D02*
X52139Y-31107D01*
X52036Y-30962D02*
X52036Y-31334D01*
X52056Y-31375D01*
X52098Y-31395D01*
X52139Y-31395D01*
X52675Y-31395D02*
X52634Y-31375D01*
X52613Y-31334D01*
X52613Y-30962D01*
X52840Y-31395D02*
X52840Y-31107D01*
X52840Y-30962D02*
X52820Y-30983D01*
X52840Y-31004D01*
X52861Y-30983D01*
X52840Y-30962D01*
X52840Y-31004D01*
X53046Y-31395D02*
X53046Y-31107D01*
X53046Y-31148D02*
X53067Y-31127D01*
X53108Y-31107D01*
X53170Y-31107D01*
X53211Y-31127D01*
X53232Y-31169D01*
X53232Y-31395D01*
X53232Y-31169D02*
X53253Y-31127D01*
X53294Y-31107D01*
X53356Y-31107D01*
X53397Y-31127D01*
X53418Y-31169D01*
X53418Y-31395D01*
X53624Y-31395D02*
X53624Y-31107D01*
X53624Y-30962D02*
X53603Y-30983D01*
X53624Y-31004D01*
X53644Y-30983D01*
X53624Y-30962D01*
X53624Y-31004D01*
X53768Y-31107D02*
X53933Y-31107D01*
X53830Y-30962D02*
X53830Y-31334D01*
X53851Y-31375D01*
X53892Y-31395D01*
X53933Y-31395D01*
X54036Y-31560D02*
X54057Y-31540D01*
X54098Y-31478D01*
X54119Y-31437D01*
X54139Y-31375D01*
X54160Y-31272D01*
X54160Y-31189D01*
X54139Y-31086D01*
X54119Y-31024D01*
X54098Y-30983D01*
X54057Y-30921D01*
X54036Y-30900D01*
G54D13*
X37758Y-33070D02*
G75*
G03X37758Y-33070I-1340J0D01*
G74*
G01*
X37756Y-53149D02*
G75*
G03X37756Y-53149I-1338J0D01*
G74*
G01*
X56850Y-53149D02*
G75*
G03X56850Y-53149I-1338J0D01*
G74*
G01*
X72750Y-54448D02*
G75*
G03X72750Y-54448I-1391J0D01*
G74*
G01*
X37809Y-53149D02*
G75*
G03X37809Y-53149I-1391J0D01*
G74*
G01*
X48425Y-38976D02*
X48622Y-38976D01*
X48425Y-47637D02*
X48622Y-47637D01*
X44291Y-47637D02*
X44488Y-47637D01*
X44488Y-38976D02*
X44291Y-38976D01*
X36870Y-26062D02*
G75*
G03X36870Y-26062I-98J0D01*
G74*
G01*
G54D14*
X41734Y-29717D02*
X41734Y-29481D01*
X41734Y-29363D02*
X41717Y-29380D01*
X41734Y-29397D01*
X41751Y-29380D01*
X41734Y-29363D01*
X41734Y-29397D01*
X42054Y-29717D02*
X42054Y-29363D01*
X42054Y-29701D02*
X42021Y-29717D01*
X41953Y-29717D01*
X41919Y-29701D01*
X41903Y-29684D01*
X41886Y-29650D01*
X41886Y-29549D01*
X41903Y-29515D01*
X41919Y-29498D01*
X41953Y-29481D01*
X42021Y-29481D01*
X42054Y-29498D01*
X42375Y-29481D02*
X42375Y-29836D01*
X42375Y-29701D02*
X42341Y-29717D01*
X42274Y-29717D01*
X42240Y-29701D01*
X42223Y-29684D01*
X42206Y-29650D01*
X42206Y-29549D01*
X42223Y-29515D01*
X42240Y-29498D01*
X42274Y-29481D01*
X42341Y-29481D01*
X42375Y-29498D01*
X42966Y-29717D02*
X42966Y-29532D01*
X42949Y-29498D01*
X42915Y-29481D01*
X42847Y-29481D01*
X42814Y-29498D01*
X42966Y-29701D02*
X42932Y-29717D01*
X42847Y-29717D01*
X42814Y-29701D01*
X42797Y-29667D01*
X42797Y-29633D01*
X42814Y-29599D01*
X42847Y-29582D01*
X42932Y-29582D01*
X42966Y-29566D01*
X43286Y-29717D02*
X43286Y-29363D01*
X43286Y-29701D02*
X43252Y-29717D01*
X43185Y-29717D01*
X43151Y-29701D01*
X43134Y-29684D01*
X43117Y-29650D01*
X43117Y-29549D01*
X43134Y-29515D01*
X43151Y-29498D01*
X43185Y-29481D01*
X43252Y-29481D01*
X43286Y-29498D01*
X43455Y-29481D02*
X43455Y-29785D01*
X43438Y-29819D01*
X43404Y-29836D01*
X43387Y-29836D01*
X43455Y-29363D02*
X43438Y-29380D01*
X43455Y-29397D01*
X43472Y-29380D01*
X43455Y-29363D01*
X43455Y-29397D01*
X41700Y-29948D02*
X41919Y-29948D01*
X41801Y-30083D01*
X41852Y-30083D01*
X41886Y-30100D01*
X41903Y-30117D01*
X41919Y-30150D01*
X41919Y-30235D01*
X41903Y-30268D01*
X41886Y-30285D01*
X41852Y-30302D01*
X41751Y-30302D01*
X41717Y-30285D01*
X41700Y-30268D01*
X42139Y-29948D02*
X42173Y-29948D01*
X42206Y-29965D01*
X42223Y-29982D01*
X42240Y-30015D01*
X42257Y-30083D01*
X42257Y-30167D01*
X42240Y-30235D01*
X42223Y-30268D01*
X42206Y-30285D01*
X42173Y-30302D01*
X42139Y-30302D01*
X42105Y-30285D01*
X42088Y-30268D01*
X42071Y-30235D01*
X42054Y-30167D01*
X42054Y-30083D01*
X42071Y-30015D01*
X42088Y-29982D01*
X42105Y-29965D01*
X42139Y-29948D01*
X42476Y-29948D02*
X42510Y-29948D01*
X42544Y-29965D01*
X42561Y-29982D01*
X42578Y-30015D01*
X42594Y-30083D01*
X42594Y-30167D01*
X42578Y-30235D01*
X42561Y-30268D01*
X42544Y-30285D01*
X42510Y-30302D01*
X42476Y-30302D01*
X42443Y-30285D01*
X42426Y-30268D01*
X42409Y-30235D01*
X42392Y-30167D01*
X42392Y-30083D01*
X42409Y-30015D01*
X42426Y-29982D01*
X42443Y-29965D01*
X42476Y-29948D01*
X43016Y-30302D02*
X43016Y-30066D01*
X43016Y-30100D02*
X43033Y-30083D01*
X43067Y-30066D01*
X43117Y-30066D01*
X43151Y-30083D01*
X43168Y-30117D01*
X43168Y-30302D01*
X43168Y-30117D02*
X43185Y-30083D01*
X43219Y-30066D01*
X43269Y-30066D01*
X43303Y-30083D01*
X43320Y-30117D01*
X43320Y-30302D01*
X43472Y-30201D02*
X43641Y-30201D01*
X43438Y-30302D02*
X43556Y-29948D01*
X43674Y-30302D01*
X44062Y-30066D02*
X44062Y-30302D01*
X44062Y-30100D02*
X44079Y-30083D01*
X44113Y-30066D01*
X44164Y-30066D01*
X44197Y-30083D01*
X44214Y-30117D01*
X44214Y-30302D01*
X44434Y-30302D02*
X44400Y-30285D01*
X44383Y-30268D01*
X44366Y-30235D01*
X44366Y-30133D01*
X44383Y-30100D01*
X44400Y-30083D01*
X44434Y-30066D01*
X44484Y-30066D01*
X44518Y-30083D01*
X44535Y-30100D01*
X44552Y-30133D01*
X44552Y-30235D01*
X44535Y-30268D01*
X44518Y-30285D01*
X44484Y-30302D01*
X44434Y-30302D01*
X44703Y-30302D02*
X44703Y-30066D01*
X44703Y-30100D02*
X44720Y-30083D01*
X44754Y-30066D01*
X44805Y-30066D01*
X44838Y-30083D01*
X44855Y-30117D01*
X44855Y-30302D01*
X44855Y-30117D02*
X44872Y-30083D01*
X44906Y-30066D01*
X44957Y-30066D01*
X44990Y-30083D01*
X45007Y-30117D01*
X45007Y-30302D01*
X45176Y-30302D02*
X45176Y-30066D01*
X45176Y-29948D02*
X45159Y-29965D01*
X45176Y-29982D01*
X45193Y-29965D01*
X45176Y-29948D01*
X45176Y-29982D01*
X45345Y-30066D02*
X45345Y-30302D01*
X45345Y-30100D02*
X45362Y-30083D01*
X45395Y-30066D01*
X45446Y-30066D01*
X45480Y-30083D01*
X45497Y-30117D01*
X45497Y-30302D01*
X45817Y-30302D02*
X45817Y-30117D01*
X45800Y-30083D01*
X45766Y-30066D01*
X45699Y-30066D01*
X45665Y-30083D01*
X45817Y-30285D02*
X45783Y-30302D01*
X45699Y-30302D01*
X45665Y-30285D01*
X45648Y-30251D01*
X45648Y-30218D01*
X45665Y-30184D01*
X45699Y-30167D01*
X45783Y-30167D01*
X45817Y-30150D01*
X46036Y-30302D02*
X46003Y-30285D01*
X45986Y-30251D01*
X45986Y-29948D01*
G54D15*
X41953Y-28149D02*
X41934Y-28187D01*
X41934Y-28243D01*
X41953Y-28299D01*
X41990Y-28337D01*
X42028Y-28356D01*
X42103Y-28374D01*
X42159Y-28374D01*
X42234Y-28356D01*
X42271Y-28337D01*
X42309Y-28299D01*
X42328Y-28243D01*
X42328Y-28206D01*
X42309Y-28149D01*
X42290Y-28131D01*
X42159Y-28131D01*
X42159Y-28206D01*
X42328Y-27962D02*
X41934Y-27962D01*
X42328Y-27737D01*
X41934Y-27737D01*
X42328Y-27550D02*
X41934Y-27550D01*
X41934Y-27456D01*
X41953Y-27400D01*
X41990Y-27362D01*
X42028Y-27343D01*
X42103Y-27325D01*
X42159Y-27325D01*
X42234Y-27343D01*
X42271Y-27362D01*
X42309Y-27400D01*
X42328Y-27456D01*
X42328Y-27550D01*
X44884Y-28462D02*
X44884Y-28649D01*
X45071Y-28668D01*
X45053Y-28649D01*
X45034Y-28612D01*
X45034Y-28518D01*
X45053Y-28481D01*
X45071Y-28462D01*
X45109Y-28443D01*
X45203Y-28443D01*
X45240Y-28462D01*
X45259Y-28481D01*
X45278Y-28518D01*
X45278Y-28612D01*
X45259Y-28649D01*
X45240Y-28668D01*
X44884Y-28199D02*
X44884Y-28162D01*
X44903Y-28124D01*
X44921Y-28106D01*
X44959Y-28087D01*
X45034Y-28068D01*
X45128Y-28068D01*
X45203Y-28087D01*
X45240Y-28106D01*
X45259Y-28124D01*
X45278Y-28162D01*
X45278Y-28199D01*
X45259Y-28237D01*
X45240Y-28256D01*
X45203Y-28274D01*
X45128Y-28293D01*
X45034Y-28293D01*
X44959Y-28274D01*
X44921Y-28256D01*
X44903Y-28237D01*
X44884Y-28199D01*
X44884Y-27656D02*
X45278Y-27525D01*
X44884Y-27393D01*
G54D11*
X30554Y-39867D02*
X30357Y-39585D01*
X30217Y-39867D02*
X30217Y-39276D01*
X30442Y-39276D01*
X30498Y-39304D01*
X30526Y-39332D01*
X30554Y-39389D01*
X30554Y-39473D01*
X30526Y-39529D01*
X30498Y-39557D01*
X30442Y-39585D01*
X30217Y-39585D01*
X31004Y-39557D02*
X30807Y-39557D01*
X30807Y-39867D02*
X30807Y-39276D01*
X31089Y-39276D01*
X31764Y-39867D02*
X31764Y-39276D01*
X32045Y-39867D02*
X32045Y-39276D01*
X32382Y-39867D01*
X32382Y-39276D01*
G54D15*
X32619Y-35221D02*
X32225Y-35221D01*
X32225Y-35127D01*
X32244Y-35071D01*
X32281Y-35033D01*
X32319Y-35014D01*
X32394Y-34996D01*
X32450Y-34996D01*
X32525Y-35014D01*
X32562Y-35033D01*
X32600Y-35071D01*
X32619Y-35127D01*
X32619Y-35221D01*
X32619Y-34827D02*
X32225Y-34827D01*
X32600Y-34658D02*
X32619Y-34602D01*
X32619Y-34508D01*
X32600Y-34471D01*
X32581Y-34452D01*
X32544Y-34433D01*
X32506Y-34433D01*
X32469Y-34452D01*
X32450Y-34471D01*
X32431Y-34508D01*
X32412Y-34583D01*
X32394Y-34621D01*
X32375Y-34640D01*
X32337Y-34658D01*
X32300Y-34658D01*
X32262Y-34640D01*
X32244Y-34621D01*
X32225Y-34583D01*
X32225Y-34490D01*
X32244Y-34433D01*
X32506Y-34283D02*
X32506Y-34096D01*
X32619Y-34321D02*
X32225Y-34190D01*
X32619Y-34058D01*
X32412Y-33796D02*
X32431Y-33740D01*
X32450Y-33721D01*
X32487Y-33702D01*
X32544Y-33702D01*
X32581Y-33721D01*
X32600Y-33740D01*
X32619Y-33777D01*
X32619Y-33927D01*
X32225Y-33927D01*
X32225Y-33796D01*
X32244Y-33758D01*
X32262Y-33740D01*
X32300Y-33721D01*
X32337Y-33721D01*
X32375Y-33740D01*
X32394Y-33758D01*
X32412Y-33796D01*
X32412Y-33927D01*
X32619Y-33346D02*
X32619Y-33533D01*
X32225Y-33533D01*
X32412Y-33215D02*
X32412Y-33083D01*
X32619Y-33027D02*
X32619Y-33215D01*
X32225Y-33215D01*
X32225Y-33027D01*
G54D11*
X37840Y-47556D02*
X37840Y-48062D01*
X37812Y-48118D01*
X37756Y-48146D01*
X37728Y-48146D01*
X37840Y-47359D02*
X37812Y-47387D01*
X37840Y-47415D01*
X37868Y-47387D01*
X37840Y-47359D01*
X37840Y-47415D01*
X38206Y-47949D02*
X38149Y-47921D01*
X38121Y-47893D01*
X38093Y-47837D01*
X38093Y-47668D01*
X38121Y-47612D01*
X38149Y-47584D01*
X38206Y-47556D01*
X38290Y-47556D01*
X38346Y-47584D01*
X38374Y-47612D01*
X38403Y-47668D01*
X38403Y-47837D01*
X38374Y-47893D01*
X38346Y-47921D01*
X38290Y-47949D01*
X38206Y-47949D01*
X38656Y-47556D02*
X38656Y-47949D01*
X38656Y-47612D02*
X38684Y-47584D01*
X38740Y-47556D01*
X38824Y-47556D01*
X38881Y-47584D01*
X38909Y-47640D01*
X38909Y-47949D01*
X39640Y-47949D02*
X39640Y-47359D01*
X39696Y-47724D02*
X39865Y-47949D01*
X39865Y-47556D02*
X39640Y-47781D01*
X40202Y-47949D02*
X40146Y-47921D01*
X40118Y-47865D01*
X40118Y-47359D01*
X40652Y-47921D02*
X40596Y-47949D01*
X40484Y-47949D01*
X40427Y-47921D01*
X40399Y-47865D01*
X40399Y-47640D01*
X40427Y-47584D01*
X40484Y-47556D01*
X40596Y-47556D01*
X40652Y-47584D01*
X40680Y-47640D01*
X40680Y-47696D01*
X40399Y-47752D01*
X40933Y-47949D02*
X40933Y-47556D01*
X40933Y-47359D02*
X40905Y-47387D01*
X40933Y-47415D01*
X40962Y-47387D01*
X40933Y-47359D01*
X40933Y-47415D01*
X41215Y-47556D02*
X41215Y-47949D01*
X41215Y-47612D02*
X41243Y-47584D01*
X41299Y-47556D01*
X41383Y-47556D01*
X41440Y-47584D01*
X41468Y-47640D01*
X41468Y-47949D01*
X38093Y-48501D02*
X38093Y-48894D01*
X37840Y-48501D02*
X37840Y-48810D01*
X37868Y-48866D01*
X37924Y-48894D01*
X38009Y-48894D01*
X38065Y-48866D01*
X38093Y-48838D01*
X38628Y-48894D02*
X38628Y-48585D01*
X38599Y-48529D01*
X38543Y-48501D01*
X38431Y-48501D01*
X38374Y-48529D01*
X38628Y-48866D02*
X38571Y-48894D01*
X38431Y-48894D01*
X38374Y-48866D01*
X38346Y-48810D01*
X38346Y-48754D01*
X38374Y-48697D01*
X38431Y-48669D01*
X38571Y-48669D01*
X38628Y-48641D01*
X38824Y-48501D02*
X39049Y-48501D01*
X38909Y-48894D02*
X38909Y-48388D01*
X38937Y-48332D01*
X38993Y-48304D01*
X39049Y-48304D01*
X39949Y-48501D02*
X39949Y-48979D01*
X39921Y-49035D01*
X39893Y-49063D01*
X39837Y-49091D01*
X39752Y-49091D01*
X39696Y-49063D01*
X39949Y-48866D02*
X39893Y-48894D01*
X39780Y-48894D01*
X39724Y-48866D01*
X39696Y-48838D01*
X39668Y-48782D01*
X39668Y-48613D01*
X39696Y-48557D01*
X39724Y-48529D01*
X39780Y-48501D01*
X39893Y-48501D01*
X39949Y-48529D01*
X40230Y-48894D02*
X40230Y-48501D01*
X40230Y-48304D02*
X40202Y-48332D01*
X40230Y-48360D01*
X40259Y-48332D01*
X40230Y-48304D01*
X40230Y-48360D01*
X37812Y-49305D02*
X37840Y-49277D01*
X37896Y-49249D01*
X38037Y-49249D01*
X38093Y-49277D01*
X38121Y-49305D01*
X38149Y-49361D01*
X38149Y-49417D01*
X38121Y-49502D01*
X37784Y-49839D01*
X38149Y-49839D01*
X38515Y-49249D02*
X38571Y-49249D01*
X38628Y-49277D01*
X38656Y-49305D01*
X38684Y-49361D01*
X38712Y-49474D01*
X38712Y-49614D01*
X38684Y-49727D01*
X38656Y-49783D01*
X38628Y-49811D01*
X38571Y-49839D01*
X38515Y-49839D01*
X38459Y-49811D01*
X38431Y-49783D01*
X38403Y-49727D01*
X38374Y-49614D01*
X38374Y-49474D01*
X38403Y-49361D01*
X38431Y-49305D01*
X38459Y-49277D01*
X38515Y-49249D01*
X39274Y-49839D02*
X38937Y-49839D01*
X39106Y-49839D02*
X39106Y-49249D01*
X39049Y-49333D01*
X38993Y-49389D01*
X38937Y-49417D01*
X39780Y-49445D02*
X39780Y-49839D01*
X39640Y-49220D02*
X39499Y-49642D01*
X39865Y-49642D01*
X40090Y-49783D02*
X40118Y-49811D01*
X40090Y-49839D01*
X40062Y-49811D01*
X40090Y-49783D01*
X40090Y-49839D01*
X40680Y-49839D02*
X40343Y-49839D01*
X40512Y-49839D02*
X40512Y-49249D01*
X40455Y-49333D01*
X40399Y-49389D01*
X40343Y-49417D01*
X40905Y-49305D02*
X40933Y-49277D01*
X40990Y-49249D01*
X41130Y-49249D01*
X41187Y-49277D01*
X41215Y-49305D01*
X41243Y-49361D01*
X41243Y-49417D01*
X41215Y-49502D01*
X40877Y-49839D01*
X41243Y-49839D01*
X38093Y-50784D02*
X38093Y-50193D01*
X38093Y-50756D02*
X38037Y-50784D01*
X37924Y-50784D01*
X37868Y-50756D01*
X37840Y-50728D01*
X37812Y-50671D01*
X37812Y-50503D01*
X37840Y-50447D01*
X37868Y-50418D01*
X37924Y-50390D01*
X38037Y-50390D01*
X38093Y-50418D01*
X38374Y-50784D02*
X38374Y-50390D01*
X38374Y-50503D02*
X38403Y-50447D01*
X38431Y-50418D01*
X38487Y-50390D01*
X38543Y-50390D01*
X38740Y-50784D02*
X38740Y-50390D01*
X38740Y-50193D02*
X38712Y-50222D01*
X38740Y-50250D01*
X38768Y-50222D01*
X38740Y-50193D01*
X38740Y-50250D01*
X38965Y-50390D02*
X39106Y-50784D01*
X39246Y-50390D01*
X39696Y-50756D02*
X39640Y-50784D01*
X39527Y-50784D01*
X39471Y-50756D01*
X39443Y-50700D01*
X39443Y-50475D01*
X39471Y-50418D01*
X39527Y-50390D01*
X39640Y-50390D01*
X39696Y-50418D01*
X39724Y-50475D01*
X39724Y-50531D01*
X39443Y-50587D01*
X39977Y-50784D02*
X39977Y-50390D01*
X39977Y-50503D02*
X40005Y-50447D01*
X40034Y-50418D01*
X40090Y-50390D01*
X40146Y-50390D01*
X41046Y-50784D02*
X41046Y-50475D01*
X41018Y-50418D01*
X40962Y-50390D01*
X40849Y-50390D01*
X40793Y-50418D01*
X41046Y-50756D02*
X40990Y-50784D01*
X40849Y-50784D01*
X40793Y-50756D01*
X40765Y-50700D01*
X40765Y-50643D01*
X40793Y-50587D01*
X40849Y-50559D01*
X40990Y-50559D01*
X41046Y-50531D01*
X41327Y-50784D02*
X41327Y-50390D01*
X41327Y-50447D02*
X41355Y-50418D01*
X41412Y-50390D01*
X41496Y-50390D01*
X41552Y-50418D01*
X41580Y-50475D01*
X41580Y-50784D01*
X41580Y-50475D02*
X41608Y-50418D01*
X41665Y-50390D01*
X41749Y-50390D01*
X41805Y-50418D01*
X41833Y-50475D01*
X41833Y-50784D01*
X42115Y-50390D02*
X42115Y-50981D01*
X42115Y-50418D02*
X42171Y-50390D01*
X42283Y-50390D01*
X42340Y-50418D01*
X42368Y-50447D01*
X42396Y-50503D01*
X42396Y-50671D01*
X42368Y-50728D01*
X42340Y-50756D01*
X42283Y-50784D01*
X42171Y-50784D01*
X42115Y-50756D01*
X43099Y-50784D02*
X43099Y-50390D01*
X43099Y-50503D02*
X43127Y-50447D01*
X43155Y-50418D01*
X43211Y-50390D01*
X43268Y-50390D01*
X43717Y-50390D02*
X43717Y-50784D01*
X43577Y-50165D02*
X43436Y-50587D01*
X43802Y-50587D01*
G54D10*
X61220Y-42125D02*
X61023Y-42322D01*
X61023Y-42322D02*
X60826Y-42125D01*
X60826Y-42125D02*
X61220Y-42125D01*
X61220Y-44488D02*
X61023Y-44685D01*
X61023Y-44685D02*
X60826Y-44488D01*
X60826Y-44488D02*
X61220Y-44488D01*
X60826Y-40748D02*
X61220Y-40354D01*
X61220Y-40748D02*
X60826Y-40354D01*
X60826Y-46259D02*
X61220Y-45866D01*
X61220Y-46259D02*
X60826Y-45866D01*
X65255Y-43405D02*
X65551Y-43110D01*
X65551Y-43405D02*
X65255Y-43110D01*
X65551Y-44389D02*
X65354Y-44586D01*
X65354Y-44586D02*
X65157Y-44389D01*
X65157Y-44389D02*
X65551Y-44389D01*
X66535Y-43307D02*
X65748Y-43307D01*
X68503Y-44094D02*
X66929Y-44094D01*
X66929Y-44094D02*
X66535Y-44488D01*
X66535Y-44488D02*
X65748Y-44488D01*
X67716Y-43307D02*
X66535Y-43307D01*
X69685Y-44094D02*
X69685Y-42519D01*
X69685Y-42519D02*
X67716Y-42519D01*
X67716Y-42519D02*
X67716Y-44094D01*
X67716Y-44094D02*
X69685Y-44094D01*
X63385Y-44488D02*
X63385Y-42125D01*
X62204Y-45669D02*
X61811Y-45669D01*
X64173Y-44488D02*
X64173Y-45669D01*
X64173Y-45669D02*
X62204Y-45669D01*
X63779Y-44094D02*
X64173Y-43700D01*
X64173Y-43700D02*
X63779Y-43307D01*
X63779Y-43307D02*
X64173Y-42913D01*
X64173Y-42913D02*
X63779Y-42519D01*
X63779Y-42519D02*
X64173Y-42125D01*
X64173Y-42125D02*
X64173Y-40944D01*
X64173Y-40944D02*
X61811Y-40944D01*
X64173Y-44488D02*
X63779Y-44094D01*
X62992Y-44488D02*
X62992Y-42125D01*
X62598Y-42125D02*
X61811Y-42125D01*
X62598Y-44488D02*
X61811Y-44488D01*
X62204Y-43307D02*
X61811Y-43307D01*
X62598Y-44488D02*
X62204Y-44094D01*
X62204Y-44094D02*
X62598Y-43700D01*
X62598Y-43700D02*
X62204Y-43307D01*
X62204Y-43307D02*
X62598Y-42913D01*
X62598Y-42913D02*
X62204Y-42519D01*
X62204Y-42519D02*
X62598Y-42125D01*
X66929Y-46062D02*
X72440Y-46062D01*
X72440Y-46062D02*
X72440Y-40551D01*
X72440Y-40551D02*
X61417Y-40551D01*
X61417Y-40551D02*
X61417Y-46062D01*
X61417Y-46062D02*
X66929Y-46062D01*
G54D16*
X39120Y-43557D02*
X39120Y-43057D01*
X39620Y-43557D02*
X39620Y-43067D01*
X39770Y-43557D02*
X38970Y-43557D01*
X38970Y-43557D02*
X38970Y-43057D01*
X38970Y-43057D02*
X39770Y-43057D01*
X39770Y-43057D02*
X39770Y-43557D01*
X53529Y-41746D02*
X53529Y-41246D01*
X54029Y-41746D02*
X54029Y-41256D01*
X54179Y-41746D02*
X53379Y-41746D01*
X53379Y-41746D02*
X53379Y-41246D01*
X53379Y-41246D02*
X54179Y-41246D01*
X54179Y-41246D02*
X54179Y-41746D01*
X54029Y-34895D02*
X53529Y-34895D01*
X54029Y-34395D02*
X53539Y-34395D01*
X54029Y-34245D02*
X54029Y-35045D01*
X54029Y-35045D02*
X53529Y-35045D01*
X53529Y-35045D02*
X53529Y-34245D01*
X53529Y-34245D02*
X54029Y-34245D01*
X53163Y-34895D02*
X52663Y-34895D01*
X53163Y-34395D02*
X52673Y-34395D01*
X53163Y-34245D02*
X53163Y-35045D01*
X53163Y-35045D02*
X52663Y-35045D01*
X52663Y-35045D02*
X52663Y-34245D01*
X52663Y-34245D02*
X53163Y-34245D01*
X69081Y-31703D02*
X68281Y-31703D01*
X68131Y-31653D02*
X69281Y-31653D01*
X69381Y-31603D02*
X67981Y-31603D01*
X67831Y-31553D02*
X69531Y-31553D01*
X69631Y-31503D02*
X67731Y-31503D01*
X67681Y-31453D02*
X69681Y-31453D01*
X70631Y-29803D02*
G75*
G03X70631Y-29803I-1950J0D01*
G74*
G01*
X66631Y-31853D02*
X70731Y-31853D01*
X70731Y-31853D02*
X70731Y-28053D01*
X70731Y-28053D02*
X70431Y-27753D01*
X70431Y-27753D02*
X66931Y-27753D01*
X66931Y-27753D02*
X66631Y-28053D01*
X66631Y-28053D02*
X66631Y-31853D01*
X68681Y-28003D02*
X68681Y-28303D01*
X68531Y-28153D02*
X68831Y-28153D01*
X38990Y-25919D02*
X38490Y-25919D01*
X38990Y-25419D02*
X38500Y-25419D01*
X38990Y-25269D02*
X38990Y-26069D01*
X38990Y-26069D02*
X38490Y-26069D01*
X38490Y-26069D02*
X38490Y-25269D01*
X38490Y-25269D02*
X38990Y-25269D01*
X35446Y-29159D02*
X35446Y-29659D01*
X34946Y-29159D02*
X34946Y-29649D01*
X34796Y-29159D02*
X35596Y-29159D01*
X35596Y-29159D02*
X35596Y-29659D01*
X35596Y-29659D02*
X34796Y-29659D01*
X34796Y-29659D02*
X34796Y-29159D01*
X35446Y-30340D02*
X35446Y-30840D01*
X34946Y-30340D02*
X34946Y-30830D01*
X34796Y-30340D02*
X35596Y-30340D01*
X35596Y-30340D02*
X35596Y-30840D01*
X35596Y-30840D02*
X34796Y-30840D01*
X34796Y-30840D02*
X34796Y-30340D01*
X36470Y-40694D02*
X36470Y-41194D01*
X35970Y-40694D02*
X35970Y-41184D01*
X35820Y-40694D02*
X36620Y-40694D01*
X36620Y-40694D02*
X36620Y-41194D01*
X36620Y-41194D02*
X35820Y-41194D01*
X35820Y-41194D02*
X35820Y-40694D01*
X41194Y-43557D02*
X40694Y-43557D01*
X41194Y-43057D02*
X40704Y-43057D01*
X41194Y-42907D02*
X41194Y-43707D01*
X41194Y-43707D02*
X40694Y-43707D01*
X40694Y-43707D02*
X40694Y-42907D01*
X40694Y-42907D02*
X41194Y-42907D01*
X35150Y-46350D02*
X35650Y-46350D01*
X35150Y-46850D02*
X35640Y-46850D01*
X35150Y-47000D02*
X35150Y-46200D01*
X35150Y-46200D02*
X35650Y-46200D01*
X35650Y-46200D02*
X35650Y-47000D01*
X35650Y-47000D02*
X35150Y-47000D01*
X34501Y-41982D02*
X34001Y-41982D01*
X34501Y-41482D02*
X34011Y-41482D01*
X34501Y-41332D02*
X34501Y-42132D01*
X34501Y-42132D02*
X34001Y-42132D01*
X34001Y-42132D02*
X34001Y-41332D01*
X34001Y-41332D02*
X34501Y-41332D01*
X52218Y-41194D02*
X51718Y-41194D01*
X52218Y-40694D02*
X51728Y-40694D01*
X52218Y-40544D02*
X52218Y-41344D01*
X52218Y-41344D02*
X51718Y-41344D01*
X51718Y-41344D02*
X51718Y-40544D01*
X51718Y-40544D02*
X52218Y-40544D01*
X52218Y-43557D02*
X51718Y-43557D01*
X52218Y-43057D02*
X51728Y-43057D01*
X52218Y-42907D02*
X52218Y-43707D01*
X52218Y-43707D02*
X51718Y-43707D01*
X51718Y-43707D02*
X51718Y-42907D01*
X51718Y-42907D02*
X52218Y-42907D01*
X52218Y-46312D02*
X51718Y-46312D01*
X52218Y-45812D02*
X51728Y-45812D01*
X52218Y-45662D02*
X52218Y-46462D01*
X52218Y-46462D02*
X51718Y-46462D01*
X51718Y-46462D02*
X51718Y-45662D01*
X51718Y-45662D02*
X52218Y-45662D01*
X53529Y-45368D02*
X53529Y-44868D01*
X54029Y-45368D02*
X54029Y-44878D01*
X54179Y-45368D02*
X53379Y-45368D01*
X53379Y-45368D02*
X53379Y-44868D01*
X53379Y-44868D02*
X54179Y-44868D01*
X54179Y-44868D02*
X54179Y-45368D01*
X53372Y-51797D02*
X53872Y-51797D01*
X53372Y-52297D02*
X53862Y-52297D01*
X53372Y-52447D02*
X53372Y-51647D01*
X53372Y-51647D02*
X53872Y-51647D01*
X53872Y-51647D02*
X53872Y-52447D01*
X53872Y-52447D02*
X53372Y-52447D01*
X52505Y-51797D02*
X53005Y-51797D01*
X52505Y-52297D02*
X52995Y-52297D01*
X52505Y-52447D02*
X52505Y-51647D01*
X52505Y-51647D02*
X53005Y-51647D01*
X53005Y-51647D02*
X53005Y-52447D01*
X53005Y-52447D02*
X52505Y-52447D01*
X65741Y-48493D02*
X66541Y-48493D01*
X66691Y-48543D02*
X65541Y-48543D01*
X65441Y-48593D02*
X66841Y-48593D01*
X66991Y-48643D02*
X65291Y-48643D01*
X65191Y-48693D02*
X67091Y-48693D01*
X67141Y-48743D02*
X65141Y-48743D01*
X68091Y-50393D02*
G75*
G03X68091Y-50393I-1950J0D01*
G74*
G01*
X68191Y-48343D02*
X64091Y-48343D01*
X64091Y-48343D02*
X64091Y-52143D01*
X64091Y-52143D02*
X64391Y-52443D01*
X64391Y-52443D02*
X67891Y-52443D01*
X67891Y-52443D02*
X68191Y-52143D01*
X68191Y-52143D02*
X68191Y-48343D01*
X66141Y-52193D02*
X66141Y-51893D01*
X66291Y-52043D02*
X65991Y-52043D01*
X64950Y-36650D02*
X64950Y-36150D01*
X65450Y-36650D02*
X65450Y-36160D01*
X65600Y-36650D02*
X64800Y-36650D01*
X64800Y-36650D02*
X64800Y-36150D01*
X64800Y-36150D02*
X65600Y-36150D01*
X65600Y-36150D02*
X65600Y-36650D01*
G54D17*
X68277Y-55147D02*
X68277Y-54793D01*
X68277Y-54793D02*
X68120Y-54793D01*
X68120Y-55147D02*
X68120Y-54793D01*
X68277Y-55147D02*
X68120Y-55147D01*
X68788Y-55147D02*
X68788Y-54793D01*
X68788Y-54793D02*
X68631Y-54793D01*
X68631Y-55147D02*
X68631Y-54793D01*
X68788Y-55147D02*
X68631Y-55147D01*
X68454Y-55147D02*
X68454Y-55088D01*
X68454Y-55088D02*
X68336Y-55088D01*
X68336Y-55147D02*
X68336Y-55088D01*
X68454Y-55147D02*
X68336Y-55147D01*
X68454Y-54852D02*
X68454Y-54793D01*
X68454Y-54793D02*
X68336Y-54793D01*
X68336Y-54852D02*
X68336Y-54793D01*
X68454Y-54852D02*
X68336Y-54852D01*
X68454Y-55029D02*
X68454Y-54911D01*
X68454Y-54911D02*
X68336Y-54911D01*
X68336Y-55029D02*
X68336Y-54911D01*
X68454Y-55029D02*
X68336Y-55029D01*
G54D18*
X68277Y-55127D02*
X68631Y-55127D01*
X68277Y-54813D02*
X68631Y-54813D01*
G54D19*
X37155Y-29512D02*
G75*
G03X37155Y-29512I-50J0D01*
G74*
G01*
X37555Y-29512D02*
X37155Y-29512D01*
X37155Y-29512D02*
X37155Y-28912D01*
X37155Y-28912D02*
X37555Y-28912D01*
X37955Y-28912D02*
X38355Y-28912D01*
X38355Y-28912D02*
X38355Y-29512D01*
X38355Y-29512D02*
X37955Y-29512D01*
X40700Y-26900D02*
G75*
G03X40700Y-26900I-50J0D01*
G74*
G01*
X40200Y-26900D02*
X40600Y-26900D01*
X40600Y-26900D02*
X40600Y-27500D01*
X40600Y-27500D02*
X40200Y-27500D01*
X39800Y-27500D02*
X39400Y-27500D01*
X39400Y-27500D02*
X39400Y-26900D01*
X39400Y-26900D02*
X39800Y-26900D01*
X67186Y-54670D02*
G75*
G03X67186Y-54670I-50J0D01*
G74*
G01*
X66686Y-54670D02*
X67086Y-54670D01*
X67086Y-54670D02*
X67086Y-55270D01*
X67086Y-55270D02*
X66686Y-55270D01*
X66286Y-55270D02*
X65886Y-55270D01*
X65886Y-55270D02*
X65886Y-54670D01*
X65886Y-54670D02*
X66286Y-54670D01*
G54D16*
X36859Y-26390D02*
X36809Y-26390D01*
X36809Y-26390D02*
X36809Y-28490D01*
X38309Y-28490D02*
X38309Y-26390D01*
X38309Y-26390D02*
X36859Y-26390D01*
X37759Y-26390D02*
X37759Y-26590D01*
X37759Y-26590D02*
X37359Y-26590D01*
X37359Y-26590D02*
X37359Y-26390D01*
X38309Y-28490D02*
X36809Y-28490D01*
G54D10*
X51082Y-44094D02*
X50984Y-43996D01*
X50984Y-43996D02*
X51181Y-44192D01*
X51082Y-40452D02*
X50984Y-40354D01*
X50984Y-40354D02*
X51181Y-40551D01*
X46358Y-50393D02*
X44488Y-50393D01*
X44488Y-50393D02*
X44488Y-47637D01*
X46358Y-50393D02*
X48425Y-50393D01*
X48425Y-50393D02*
X48425Y-47637D01*
X46456Y-36220D02*
X44488Y-36220D01*
X44488Y-36220D02*
X44488Y-38976D01*
X46456Y-36220D02*
X48326Y-36220D01*
X48326Y-36220D02*
X48425Y-36220D01*
X48425Y-36220D02*
X48425Y-38976D01*
X44488Y-38976D02*
X44488Y-39173D01*
X48425Y-38976D02*
X48425Y-39173D01*
X48425Y-47440D02*
X48425Y-47637D01*
X44488Y-47440D02*
X44488Y-47637D01*
X44488Y-43307D02*
X44488Y-47440D01*
X44488Y-47637D02*
X48425Y-47637D01*
X48425Y-47440D02*
X48425Y-39173D01*
X48425Y-38976D02*
X46456Y-38976D01*
X46456Y-38976D02*
X44488Y-38976D01*
X44488Y-39173D02*
X44488Y-43307D01*
X37795Y-41929D02*
X37795Y-41732D01*
X37795Y-41732D02*
X35393Y-41732D01*
X35393Y-41732D02*
X35393Y-41929D01*
X35393Y-44685D02*
X35393Y-44881D01*
X35393Y-44881D02*
X37795Y-44881D01*
X37795Y-44881D02*
X37795Y-44685D01*
X35393Y-42677D02*
X35393Y-43937D01*
X37795Y-43661D02*
X37795Y-43937D01*
X37795Y-42913D02*
X37795Y-42952D01*
X37795Y-42677D02*
X37795Y-42913D01*
X51968Y-48720D02*
X52066Y-48720D01*
X52066Y-48720D02*
X52066Y-52854D01*
X52066Y-52854D02*
X51968Y-52854D01*
X49606Y-52854D02*
X49507Y-52854D01*
X49507Y-52854D02*
X49507Y-48917D01*
X49507Y-48917D02*
X49507Y-48720D01*
X49507Y-48720D02*
X49606Y-48720D01*
X49606Y-37893D02*
X49507Y-37893D01*
X49507Y-37893D02*
X49507Y-33759D01*
X49507Y-33759D02*
X49606Y-33759D01*
X51968Y-33759D02*
X52066Y-33759D01*
X52066Y-33759D02*
X52066Y-37696D01*
X52066Y-37696D02*
X52066Y-37893D01*
X52066Y-37893D02*
X51968Y-37893D01*
G54D16*
X64750Y-31703D02*
X63950Y-31703D01*
X63800Y-31653D02*
X64950Y-31653D01*
X65050Y-31603D02*
X63650Y-31603D01*
X63500Y-31553D02*
X65200Y-31553D01*
X65300Y-31503D02*
X63400Y-31503D01*
X63350Y-31453D02*
X65350Y-31453D01*
X66300Y-29803D02*
G75*
G03X66300Y-29803I-1950J0D01*
G74*
G01*
X62300Y-31853D02*
X66400Y-31853D01*
X66400Y-31853D02*
X66400Y-28053D01*
X66400Y-28053D02*
X66100Y-27753D01*
X66100Y-27753D02*
X62600Y-27753D01*
X62600Y-27753D02*
X62300Y-28053D01*
X62300Y-28053D02*
X62300Y-31853D01*
X64350Y-28003D02*
X64350Y-28303D01*
X64200Y-28153D02*
X64500Y-28153D01*
X70072Y-48493D02*
X70872Y-48493D01*
X71022Y-48543D02*
X69872Y-48543D01*
X69772Y-48593D02*
X71172Y-48593D01*
X71322Y-48643D02*
X69622Y-48643D01*
X69522Y-48693D02*
X71422Y-48693D01*
X71472Y-48743D02*
X69472Y-48743D01*
X72422Y-50393D02*
G75*
G03X72422Y-50393I-1950J0D01*
G74*
G01*
X72522Y-48343D02*
X68422Y-48343D01*
X68422Y-48343D02*
X68422Y-52143D01*
X68422Y-52143D02*
X68722Y-52443D01*
X68722Y-52443D02*
X72222Y-52443D01*
X72222Y-52443D02*
X72522Y-52143D01*
X72522Y-52143D02*
X72522Y-48343D01*
X70472Y-52193D02*
X70472Y-51893D01*
X70622Y-52043D02*
X70322Y-52043D01*
X35820Y-37300D02*
G75*
G03X35820Y-37300I-70J0D01*
G74*
G01*
X35800Y-39200D02*
X35800Y-39850D01*
X35800Y-39850D02*
X37400Y-39850D01*
X37400Y-39850D02*
X37400Y-39200D01*
X37400Y-38000D02*
X37400Y-37350D01*
X37400Y-37350D02*
X35800Y-37350D01*
X35800Y-37350D02*
X35800Y-38000D01*
G54D20*
X52504Y-37043D02*
X52504Y-37357D01*
X55496Y-37043D02*
X55496Y-37377D01*
X52504Y-49243D02*
X52504Y-49557D01*
X55496Y-49243D02*
X55496Y-49577D01*
G54D10*
X39051Y-30684D02*
X39051Y-30133D01*
X40587Y-30605D02*
X40587Y-30566D01*
X40587Y-30684D02*
X40587Y-30605D01*
X40469Y-28715D02*
X40587Y-28715D01*
X40587Y-28715D02*
X40587Y-28873D01*
X39051Y-28912D02*
X39051Y-28715D01*
X40587Y-29936D02*
X40587Y-29463D01*
X40587Y-30487D02*
X40587Y-30566D01*
X39051Y-30684D02*
X40587Y-30684D01*
X39051Y-28912D02*
X39051Y-29266D01*
X39051Y-28715D02*
X40469Y-28715D01*
X32165Y-29921D02*
X32165Y-30393D01*
X31811Y-30669D02*
X31811Y-29606D01*
X31811Y-29606D02*
X31377Y-29606D01*
X31811Y-31456D02*
X31811Y-31377D01*
X31811Y-31456D02*
X31811Y-31417D01*
X31811Y-31771D02*
X31811Y-31417D01*
X31417Y-33543D02*
X31811Y-33543D01*
X31811Y-33543D02*
X31811Y-32519D01*
X30511Y-29606D02*
X30314Y-29606D01*
X30314Y-29606D02*
X30118Y-29606D01*
X30118Y-29606D02*
X30118Y-33543D01*
X30118Y-33543D02*
X30472Y-33543D01*
X45253Y-27170D02*
X44781Y-27170D01*
X44505Y-26816D02*
X45568Y-26816D01*
X45568Y-26816D02*
X45568Y-26383D01*
X43718Y-26816D02*
X43796Y-26816D01*
X43718Y-26816D02*
X43757Y-26816D01*
X43403Y-26816D02*
X43757Y-26816D01*
X41631Y-26422D02*
X41631Y-26816D01*
X41631Y-26816D02*
X42655Y-26816D01*
X45568Y-25516D02*
X45568Y-25320D01*
X45568Y-25320D02*
X45568Y-25123D01*
X45568Y-25123D02*
X41631Y-25123D01*
X41631Y-25123D02*
X41631Y-25477D01*
X39940Y-39168D02*
X42459Y-39168D01*
X41829Y-35231D02*
X42459Y-35231D01*
X39940Y-35231D02*
X40570Y-35231D01*
X42656Y-35585D02*
X43089Y-35585D01*
X39231Y-38696D02*
X39703Y-38696D01*
X42459Y-37200D02*
X42459Y-39168D01*
X39940Y-39168D02*
X39940Y-35231D01*
X40570Y-35231D02*
X41829Y-35231D01*
X42459Y-35231D02*
X42459Y-37200D01*
X43659Y-33659D02*
X41140Y-33659D01*
X41140Y-31140D02*
X42400Y-31140D01*
X42400Y-31140D02*
X43659Y-31140D01*
X41140Y-33659D02*
X41140Y-31770D01*
X43659Y-33659D02*
X43659Y-31140D01*
X41140Y-31770D02*
X41140Y-31140D01*
G54D16*
X60419Y-31703D02*
X59619Y-31703D01*
X59469Y-31653D02*
X60619Y-31653D01*
X60719Y-31603D02*
X59319Y-31603D01*
X59169Y-31553D02*
X60869Y-31553D01*
X60969Y-31503D02*
X59069Y-31503D01*
X59019Y-31453D02*
X61019Y-31453D01*
X61969Y-29803D02*
G75*
G03X61969Y-29803I-1950J0D01*
G74*
G01*
X57969Y-31853D02*
X62069Y-31853D01*
X62069Y-31853D02*
X62069Y-28053D01*
X62069Y-28053D02*
X61769Y-27753D01*
X61769Y-27753D02*
X58269Y-27753D01*
X58269Y-27753D02*
X57969Y-28053D01*
X57969Y-28053D02*
X57969Y-31853D01*
X60019Y-28003D02*
X60019Y-28303D01*
X59869Y-28153D02*
X60169Y-28153D01*
X61411Y-48493D02*
X62211Y-48493D01*
X62361Y-48543D02*
X61211Y-48543D01*
X61111Y-48593D02*
X62511Y-48593D01*
X62661Y-48643D02*
X60961Y-48643D01*
X60861Y-48693D02*
X62761Y-48693D01*
X62811Y-48743D02*
X60811Y-48743D01*
X63761Y-50393D02*
G75*
G03X63761Y-50393I-1950J0D01*
G74*
G01*
X63861Y-48343D02*
X59761Y-48343D01*
X59761Y-48343D02*
X59761Y-52143D01*
X59761Y-52143D02*
X60061Y-52443D01*
X60061Y-52443D02*
X63561Y-52443D01*
X63561Y-52443D02*
X63861Y-52143D01*
X63861Y-52143D02*
X63861Y-48343D01*
X61811Y-52193D02*
X61811Y-51893D01*
X61961Y-52043D02*
X61661Y-52043D01*
X43950Y-28800D02*
X44450Y-28800D01*
X43950Y-29300D02*
X44440Y-29300D01*
X43950Y-29450D02*
X43950Y-28650D01*
X43950Y-28650D02*
X44450Y-28650D01*
X44450Y-28650D02*
X44450Y-29450D01*
X44450Y-29450D02*
X43950Y-29450D01*
G54D21*
X57573Y-35574D02*
X59227Y-35574D01*
X57573Y-35693D02*
X59227Y-35693D01*
X57573Y-32307D02*
X59227Y-32307D01*
X59229Y-33214D02*
X59229Y-32314D01*
X57571Y-32314D02*
X57571Y-33214D01*
X57571Y-34787D02*
X57571Y-35687D01*
X59229Y-35686D02*
X59229Y-34786D01*
G54D10*
X30243Y-42803D02*
X30282Y-42803D01*
X30282Y-42803D02*
X30203Y-42803D01*
X30243Y-42803D02*
X33196Y-42803D01*
X33196Y-42803D02*
X33196Y-45796D01*
X33196Y-45796D02*
X30203Y-45796D01*
X30203Y-45796D02*
X30203Y-42803D01*
X67643Y-34903D02*
X67682Y-34903D01*
X67682Y-34903D02*
X67603Y-34903D01*
X67643Y-34903D02*
X70596Y-34903D01*
X70596Y-34903D02*
X70596Y-37896D01*
X70596Y-37896D02*
X67603Y-37896D01*
X67603Y-37896D02*
X67603Y-34903D01*
G54D19*
X33145Y-29862D02*
G75*
G03X33145Y-29862I-50J0D01*
G74*
G01*
X33095Y-29412D02*
X33095Y-29812D01*
X33095Y-29812D02*
X32495Y-29812D01*
X32495Y-29812D02*
X32495Y-29412D01*
X32495Y-29012D02*
X32495Y-28612D01*
X32495Y-28612D02*
X33095Y-28612D01*
X33095Y-28612D02*
X33095Y-29012D01*
G54D20*
X49389Y-28250D02*
G75*
G03X49389Y-28250I-989J0D01*
G74*
G01*
X53550Y-29250D02*
X54250Y-29250D01*
X53550Y-28250D02*
X54250Y-28250D01*
X53550Y-27250D02*
X54250Y-27250D01*
X50200Y-26150D02*
X47050Y-26150D01*
X47050Y-26150D02*
X47050Y-30350D01*
X47050Y-30350D02*
X50200Y-30350D01*
X53550Y-26150D02*
X50200Y-26150D01*
X50200Y-26150D02*
X50200Y-30350D01*
X50200Y-30350D02*
X53550Y-30350D01*
X53550Y-28250D02*
X53550Y-30350D01*
X53550Y-28250D02*
X53550Y-26150D01*
G54D10*
X31170Y-47750D02*
G75*
G03X31170Y-47750I-70J0D01*
G74*
G01*
X32250Y-48400D02*
X32250Y-47800D01*
X32250Y-47800D02*
X31150Y-47800D01*
X31150Y-47800D02*
X31150Y-48400D01*
X31150Y-49000D02*
X31150Y-49600D01*
X31150Y-49600D02*
X32250Y-49600D01*
X32250Y-49600D02*
X32250Y-49000D01*
X32720Y-48700D02*
G75*
G03X32720Y-48700I-70J0D01*
G74*
G01*
X33300Y-47550D02*
X32700Y-47550D01*
X32700Y-47550D02*
X32700Y-48650D01*
X32700Y-48650D02*
X33300Y-48650D01*
X33900Y-48650D02*
X34500Y-48650D01*
X34500Y-48650D02*
X34500Y-47550D01*
X34500Y-47550D02*
X33900Y-47550D01*
X34870Y-47750D02*
G75*
G03X34870Y-47750I-70J0D01*
G74*
G01*
X35950Y-48400D02*
X35950Y-47800D01*
X35950Y-47800D02*
X34850Y-47800D01*
X34850Y-47800D02*
X34850Y-48400D01*
X34850Y-49000D02*
X34850Y-49600D01*
X34850Y-49600D02*
X35950Y-49600D01*
X35950Y-49600D02*
X35950Y-49000D01*
X60070Y-38650D02*
G75*
G03X60070Y-38650I-70J0D01*
G74*
G01*
X58850Y-38000D02*
X58850Y-38600D01*
X58850Y-38600D02*
X59950Y-38600D01*
X59950Y-38600D02*
X59950Y-38000D01*
X59950Y-37400D02*
X59950Y-36800D01*
X59950Y-36800D02*
X58850Y-36800D01*
X58850Y-36800D02*
X58850Y-37400D01*
X62070Y-38650D02*
G75*
G03X62070Y-38650I-70J0D01*
G74*
G01*
X60850Y-38000D02*
X60850Y-38600D01*
X60850Y-38600D02*
X61950Y-38600D01*
X61950Y-38600D02*
X61950Y-38000D01*
X61950Y-37400D02*
X61950Y-36800D01*
X61950Y-36800D02*
X60850Y-36800D01*
X60850Y-36800D02*
X60850Y-37400D01*
X63970Y-36750D02*
G75*
G03X63970Y-36750I-70J0D01*
G74*
G01*
X62750Y-36100D02*
X62750Y-36700D01*
X62750Y-36700D02*
X63850Y-36700D01*
X63850Y-36700D02*
X63850Y-36100D01*
X63850Y-35500D02*
X63850Y-34900D01*
X63850Y-34900D02*
X62750Y-34900D01*
X62750Y-34900D02*
X62750Y-35500D01*
X35450Y-37950D02*
G75*
G03X35450Y-37950I-50J0D01*
G74*
G01*
X35400Y-37500D02*
X35400Y-37900D01*
X35400Y-37900D02*
X34800Y-37900D01*
X34800Y-37900D02*
X34800Y-37500D01*
X34800Y-37100D02*
X34800Y-36700D01*
X34800Y-36700D02*
X35400Y-36700D01*
X35400Y-36700D02*
X35400Y-37100D01*
G54D14*
X70989Y-46459D02*
X71192Y-46459D01*
X71091Y-46813D02*
X71091Y-46459D01*
X71293Y-46493D02*
X71310Y-46476D01*
X71344Y-46459D01*
X71428Y-46459D01*
X71462Y-46476D01*
X71479Y-46493D01*
X71496Y-46526D01*
X71496Y-46560D01*
X71479Y-46611D01*
X71276Y-46813D01*
X71496Y-46813D01*
X38622Y-42744D02*
X38605Y-42761D01*
X38554Y-42778D01*
X38520Y-42778D01*
X38470Y-42761D01*
X38436Y-42727D01*
X38419Y-42694D01*
X38402Y-42626D01*
X38402Y-42575D01*
X38419Y-42508D01*
X38436Y-42474D01*
X38470Y-42440D01*
X38520Y-42424D01*
X38554Y-42424D01*
X38605Y-42440D01*
X38622Y-42457D01*
X38942Y-42424D02*
X38773Y-42424D01*
X38757Y-42592D01*
X38773Y-42575D01*
X38807Y-42559D01*
X38892Y-42559D01*
X38925Y-42575D01*
X38942Y-42592D01*
X38959Y-42626D01*
X38959Y-42710D01*
X38942Y-42744D01*
X38925Y-42761D01*
X38892Y-42778D01*
X38807Y-42778D01*
X38773Y-42761D01*
X38757Y-42744D01*
X54114Y-42410D02*
X54097Y-42426D01*
X54046Y-42443D01*
X54012Y-42443D01*
X53962Y-42426D01*
X53928Y-42393D01*
X53911Y-42359D01*
X53894Y-42291D01*
X53894Y-42241D01*
X53911Y-42173D01*
X53928Y-42140D01*
X53962Y-42106D01*
X54012Y-42089D01*
X54046Y-42089D01*
X54097Y-42106D01*
X54114Y-42123D01*
X54232Y-42089D02*
X54468Y-42089D01*
X54316Y-42443D01*
X54826Y-34959D02*
X54843Y-34975D01*
X54860Y-35026D01*
X54860Y-35060D01*
X54843Y-35110D01*
X54809Y-35144D01*
X54775Y-35161D01*
X54708Y-35178D01*
X54657Y-35178D01*
X54590Y-35161D01*
X54556Y-35144D01*
X54522Y-35110D01*
X54505Y-35060D01*
X54505Y-35026D01*
X54522Y-34975D01*
X54539Y-34959D01*
X54657Y-34756D02*
X54640Y-34790D01*
X54624Y-34807D01*
X54590Y-34824D01*
X54573Y-34824D01*
X54539Y-34807D01*
X54522Y-34790D01*
X54505Y-34756D01*
X54505Y-34689D01*
X54522Y-34655D01*
X54539Y-34638D01*
X54573Y-34621D01*
X54590Y-34621D01*
X54624Y-34638D01*
X54640Y-34655D01*
X54657Y-34689D01*
X54657Y-34756D01*
X54674Y-34790D01*
X54691Y-34807D01*
X54725Y-34824D01*
X54792Y-34824D01*
X54826Y-34807D01*
X54843Y-34790D01*
X54860Y-34756D01*
X54860Y-34689D01*
X54843Y-34655D01*
X54826Y-34638D01*
X54792Y-34621D01*
X54725Y-34621D01*
X54691Y-34638D01*
X54674Y-34655D01*
X54657Y-34689D01*
X52882Y-33129D02*
X52899Y-33146D01*
X52916Y-33197D01*
X52916Y-33231D01*
X52899Y-33281D01*
X52865Y-33315D01*
X52831Y-33332D01*
X52764Y-33349D01*
X52713Y-33349D01*
X52646Y-33332D01*
X52612Y-33315D01*
X52578Y-33281D01*
X52561Y-33231D01*
X52561Y-33197D01*
X52578Y-33146D01*
X52595Y-33129D01*
X52916Y-32961D02*
X52916Y-32893D01*
X52899Y-32859D01*
X52882Y-32843D01*
X52831Y-32809D01*
X52764Y-32792D01*
X52629Y-32792D01*
X52595Y-32809D01*
X52578Y-32826D01*
X52561Y-32859D01*
X52561Y-32927D01*
X52578Y-32961D01*
X52595Y-32978D01*
X52629Y-32994D01*
X52713Y-32994D01*
X52747Y-32978D01*
X52764Y-32961D01*
X52781Y-32927D01*
X52781Y-32859D01*
X52764Y-32826D01*
X52747Y-32809D01*
X52713Y-32792D01*
X68315Y-26976D02*
X68298Y-26993D01*
X68248Y-27010D01*
X68214Y-27010D01*
X68163Y-26993D01*
X68129Y-26960D01*
X68113Y-26926D01*
X68096Y-26858D01*
X68096Y-26808D01*
X68113Y-26740D01*
X68129Y-26706D01*
X68163Y-26673D01*
X68214Y-26656D01*
X68248Y-26656D01*
X68298Y-26673D01*
X68315Y-26690D01*
X68652Y-27010D02*
X68450Y-27010D01*
X68551Y-27010D02*
X68551Y-26656D01*
X68517Y-26706D01*
X68484Y-26740D01*
X68450Y-26757D01*
X68990Y-27010D02*
X68787Y-27010D01*
X68889Y-27010D02*
X68889Y-26656D01*
X68855Y-26706D01*
X68821Y-26740D01*
X68787Y-26757D01*
X37429Y-25402D02*
X37412Y-25419D01*
X37362Y-25435D01*
X37328Y-25435D01*
X37277Y-25419D01*
X37244Y-25385D01*
X37227Y-25351D01*
X37210Y-25284D01*
X37210Y-25233D01*
X37227Y-25165D01*
X37244Y-25132D01*
X37277Y-25098D01*
X37328Y-25081D01*
X37362Y-25081D01*
X37412Y-25098D01*
X37429Y-25115D01*
X37767Y-25435D02*
X37564Y-25435D01*
X37665Y-25435D02*
X37665Y-25081D01*
X37632Y-25132D01*
X37598Y-25165D01*
X37564Y-25182D01*
X37902Y-25115D02*
X37919Y-25098D01*
X37952Y-25081D01*
X38037Y-25081D01*
X38070Y-25098D01*
X38087Y-25115D01*
X38104Y-25149D01*
X38104Y-25182D01*
X38087Y-25233D01*
X37885Y-25435D01*
X38104Y-25435D01*
X34575Y-28748D02*
X34558Y-28765D01*
X34507Y-28782D01*
X34474Y-28782D01*
X34423Y-28765D01*
X34389Y-28731D01*
X34372Y-28697D01*
X34356Y-28630D01*
X34356Y-28579D01*
X34372Y-28512D01*
X34389Y-28478D01*
X34423Y-28444D01*
X34474Y-28428D01*
X34507Y-28428D01*
X34558Y-28444D01*
X34575Y-28461D01*
X34912Y-28782D02*
X34710Y-28782D01*
X34811Y-28782D02*
X34811Y-28428D01*
X34777Y-28478D01*
X34744Y-28512D01*
X34710Y-28529D01*
X35030Y-28428D02*
X35250Y-28428D01*
X35132Y-28562D01*
X35182Y-28562D01*
X35216Y-28579D01*
X35233Y-28596D01*
X35250Y-28630D01*
X35250Y-28714D01*
X35233Y-28748D01*
X35216Y-28765D01*
X35182Y-28782D01*
X35081Y-28782D01*
X35047Y-28765D01*
X35030Y-28748D01*
X34772Y-31602D02*
X34755Y-31619D01*
X34704Y-31636D01*
X34670Y-31636D01*
X34620Y-31619D01*
X34586Y-31586D01*
X34569Y-31552D01*
X34552Y-31484D01*
X34552Y-31434D01*
X34569Y-31366D01*
X34586Y-31332D01*
X34620Y-31299D01*
X34670Y-31282D01*
X34704Y-31282D01*
X34755Y-31299D01*
X34772Y-31316D01*
X35109Y-31636D02*
X34907Y-31636D01*
X35008Y-31636D02*
X35008Y-31282D01*
X34974Y-31332D01*
X34940Y-31366D01*
X34907Y-31383D01*
X35413Y-31400D02*
X35413Y-31636D01*
X35329Y-31265D02*
X35244Y-31518D01*
X35464Y-31518D01*
X35598Y-40382D02*
X35582Y-40399D01*
X35531Y-40416D01*
X35497Y-40416D01*
X35447Y-40399D01*
X35413Y-40365D01*
X35396Y-40331D01*
X35379Y-40264D01*
X35379Y-40213D01*
X35396Y-40146D01*
X35413Y-40112D01*
X35447Y-40078D01*
X35497Y-40061D01*
X35531Y-40061D01*
X35582Y-40078D01*
X35598Y-40095D01*
X35936Y-40416D02*
X35733Y-40416D01*
X35835Y-40416D02*
X35835Y-40061D01*
X35801Y-40112D01*
X35767Y-40146D01*
X35733Y-40163D01*
X36240Y-40061D02*
X36172Y-40061D01*
X36138Y-40078D01*
X36122Y-40095D01*
X36088Y-40146D01*
X36071Y-40213D01*
X36071Y-40348D01*
X36088Y-40382D01*
X36105Y-40399D01*
X36138Y-40416D01*
X36206Y-40416D01*
X36240Y-40399D01*
X36257Y-40382D01*
X36273Y-40348D01*
X36273Y-40264D01*
X36257Y-40230D01*
X36240Y-40213D01*
X36206Y-40196D01*
X36138Y-40196D01*
X36105Y-40213D01*
X36088Y-40230D01*
X36071Y-40264D01*
X41858Y-43534D02*
X41875Y-43551D01*
X41892Y-43602D01*
X41892Y-43636D01*
X41875Y-43686D01*
X41841Y-43720D01*
X41808Y-43737D01*
X41740Y-43754D01*
X41690Y-43754D01*
X41622Y-43737D01*
X41588Y-43720D01*
X41555Y-43686D01*
X41538Y-43636D01*
X41538Y-43602D01*
X41555Y-43551D01*
X41571Y-43534D01*
X41892Y-43197D02*
X41892Y-43399D01*
X41892Y-43298D02*
X41538Y-43298D01*
X41588Y-43332D01*
X41622Y-43366D01*
X41639Y-43399D01*
X41538Y-43079D02*
X41538Y-42843D01*
X41892Y-42994D01*
X34726Y-46627D02*
X34743Y-46644D01*
X34760Y-46695D01*
X34760Y-46729D01*
X34743Y-46779D01*
X34709Y-46813D01*
X34675Y-46830D01*
X34608Y-46847D01*
X34557Y-46847D01*
X34490Y-46830D01*
X34456Y-46813D01*
X34422Y-46779D01*
X34405Y-46729D01*
X34405Y-46695D01*
X34422Y-46644D01*
X34439Y-46627D01*
X34760Y-46290D02*
X34760Y-46492D01*
X34760Y-46391D02*
X34405Y-46391D01*
X34456Y-46425D01*
X34490Y-46459D01*
X34507Y-46492D01*
X34557Y-46087D02*
X34540Y-46121D01*
X34524Y-46138D01*
X34490Y-46155D01*
X34473Y-46155D01*
X34439Y-46138D01*
X34422Y-46121D01*
X34405Y-46087D01*
X34405Y-46020D01*
X34422Y-45986D01*
X34439Y-45969D01*
X34473Y-45952D01*
X34490Y-45952D01*
X34524Y-45969D01*
X34540Y-45986D01*
X34557Y-46020D01*
X34557Y-46087D01*
X34574Y-46121D01*
X34591Y-46138D01*
X34625Y-46155D01*
X34692Y-46155D01*
X34726Y-46138D01*
X34743Y-46121D01*
X34760Y-46087D01*
X34760Y-46020D01*
X34743Y-45986D01*
X34726Y-45969D01*
X34692Y-45952D01*
X34625Y-45952D01*
X34591Y-45969D01*
X34574Y-45986D01*
X34557Y-46020D01*
X33689Y-42058D02*
X33706Y-42075D01*
X33723Y-42125D01*
X33723Y-42159D01*
X33706Y-42210D01*
X33672Y-42244D01*
X33638Y-42260D01*
X33571Y-42277D01*
X33520Y-42277D01*
X33453Y-42260D01*
X33419Y-42244D01*
X33385Y-42210D01*
X33368Y-42159D01*
X33368Y-42125D01*
X33385Y-42075D01*
X33402Y-42058D01*
X33723Y-41721D02*
X33723Y-41923D01*
X33723Y-41822D02*
X33368Y-41822D01*
X33419Y-41856D01*
X33453Y-41889D01*
X33470Y-41923D01*
X33723Y-41552D02*
X33723Y-41484D01*
X33706Y-41451D01*
X33689Y-41434D01*
X33638Y-41400D01*
X33571Y-41383D01*
X33436Y-41383D01*
X33402Y-41400D01*
X33385Y-41417D01*
X33368Y-41451D01*
X33368Y-41518D01*
X33385Y-41552D01*
X33402Y-41569D01*
X33436Y-41586D01*
X33520Y-41586D01*
X33554Y-41569D01*
X33571Y-41552D01*
X33588Y-41518D01*
X33588Y-41451D01*
X33571Y-41417D01*
X33554Y-41400D01*
X33520Y-41383D01*
X52980Y-41074D02*
X52997Y-41091D01*
X53014Y-41141D01*
X53014Y-41175D01*
X52997Y-41226D01*
X52964Y-41259D01*
X52930Y-41276D01*
X52862Y-41293D01*
X52812Y-41293D01*
X52744Y-41276D01*
X52710Y-41259D01*
X52677Y-41226D01*
X52660Y-41175D01*
X52660Y-41141D01*
X52677Y-41091D01*
X52694Y-41074D01*
X52694Y-40939D02*
X52677Y-40922D01*
X52660Y-40888D01*
X52660Y-40804D01*
X52677Y-40770D01*
X52694Y-40753D01*
X52727Y-40736D01*
X52761Y-40736D01*
X52812Y-40753D01*
X53014Y-40956D01*
X53014Y-40736D01*
X52660Y-40517D02*
X52660Y-40483D01*
X52677Y-40449D01*
X52694Y-40433D01*
X52727Y-40416D01*
X52795Y-40399D01*
X52879Y-40399D01*
X52947Y-40416D01*
X52980Y-40433D01*
X52997Y-40449D01*
X53014Y-40483D01*
X53014Y-40517D01*
X52997Y-40551D01*
X52980Y-40568D01*
X52947Y-40584D01*
X52879Y-40601D01*
X52795Y-40601D01*
X52727Y-40584D01*
X52694Y-40568D01*
X52677Y-40551D01*
X52660Y-40517D01*
X52980Y-43534D02*
X52997Y-43551D01*
X53014Y-43602D01*
X53014Y-43636D01*
X52997Y-43686D01*
X52964Y-43720D01*
X52930Y-43737D01*
X52862Y-43754D01*
X52812Y-43754D01*
X52744Y-43737D01*
X52710Y-43720D01*
X52677Y-43686D01*
X52660Y-43636D01*
X52660Y-43602D01*
X52677Y-43551D01*
X52694Y-43534D01*
X52694Y-43399D02*
X52677Y-43383D01*
X52660Y-43349D01*
X52660Y-43264D01*
X52677Y-43231D01*
X52694Y-43214D01*
X52727Y-43197D01*
X52761Y-43197D01*
X52812Y-43214D01*
X53014Y-43416D01*
X53014Y-43197D01*
X53014Y-42859D02*
X53014Y-43062D01*
X53014Y-42961D02*
X52660Y-42961D01*
X52710Y-42994D01*
X52744Y-43028D01*
X52761Y-43062D01*
X52980Y-46290D02*
X52997Y-46307D01*
X53014Y-46358D01*
X53014Y-46392D01*
X52997Y-46442D01*
X52964Y-46476D01*
X52930Y-46493D01*
X52862Y-46510D01*
X52812Y-46510D01*
X52744Y-46493D01*
X52710Y-46476D01*
X52677Y-46442D01*
X52660Y-46392D01*
X52660Y-46358D01*
X52677Y-46307D01*
X52694Y-46290D01*
X52694Y-46155D02*
X52677Y-46138D01*
X52660Y-46105D01*
X52660Y-46020D01*
X52677Y-45987D01*
X52694Y-45970D01*
X52727Y-45953D01*
X52761Y-45953D01*
X52812Y-45970D01*
X53014Y-46172D01*
X53014Y-45953D01*
X52694Y-45818D02*
X52677Y-45801D01*
X52660Y-45767D01*
X52660Y-45683D01*
X52677Y-45649D01*
X52694Y-45632D01*
X52727Y-45615D01*
X52761Y-45615D01*
X52812Y-45632D01*
X53014Y-45835D01*
X53014Y-45615D01*
X53945Y-46032D02*
X53928Y-46048D01*
X53877Y-46065D01*
X53844Y-46065D01*
X53793Y-46048D01*
X53759Y-46015D01*
X53742Y-45981D01*
X53726Y-45913D01*
X53726Y-45863D01*
X53742Y-45795D01*
X53759Y-45762D01*
X53793Y-45728D01*
X53844Y-45711D01*
X53877Y-45711D01*
X53928Y-45728D01*
X53945Y-45745D01*
X54080Y-45745D02*
X54097Y-45728D01*
X54131Y-45711D01*
X54215Y-45711D01*
X54249Y-45728D01*
X54266Y-45745D01*
X54282Y-45778D01*
X54282Y-45812D01*
X54266Y-45863D01*
X54063Y-46065D01*
X54282Y-46065D01*
X54603Y-45711D02*
X54434Y-45711D01*
X54417Y-45880D01*
X54434Y-45863D01*
X54468Y-45846D01*
X54552Y-45846D01*
X54586Y-45863D01*
X54603Y-45880D01*
X54620Y-45913D01*
X54620Y-45998D01*
X54603Y-46032D01*
X54586Y-46048D01*
X54552Y-46065D01*
X54468Y-46065D01*
X54434Y-46048D01*
X54417Y-46032D01*
X53669Y-54086D02*
X53686Y-54102D01*
X53703Y-54153D01*
X53703Y-54187D01*
X53686Y-54237D01*
X53652Y-54271D01*
X53619Y-54288D01*
X53551Y-54305D01*
X53501Y-54305D01*
X53433Y-54288D01*
X53399Y-54271D01*
X53366Y-54237D01*
X53349Y-54187D01*
X53349Y-54153D01*
X53366Y-54102D01*
X53383Y-54086D01*
X53383Y-53951D02*
X53366Y-53934D01*
X53349Y-53900D01*
X53349Y-53816D01*
X53366Y-53782D01*
X53383Y-53765D01*
X53416Y-53748D01*
X53450Y-53748D01*
X53501Y-53765D01*
X53703Y-53967D01*
X53703Y-53748D01*
X53349Y-53630D02*
X53349Y-53394D01*
X53703Y-53546D01*
X52803Y-54086D02*
X52820Y-54102D01*
X52837Y-54153D01*
X52837Y-54187D01*
X52820Y-54237D01*
X52786Y-54271D01*
X52753Y-54288D01*
X52685Y-54305D01*
X52634Y-54305D01*
X52567Y-54288D01*
X52533Y-54271D01*
X52500Y-54237D01*
X52483Y-54187D01*
X52483Y-54153D01*
X52500Y-54102D01*
X52516Y-54086D01*
X52516Y-53951D02*
X52500Y-53934D01*
X52483Y-53900D01*
X52483Y-53816D01*
X52500Y-53782D01*
X52516Y-53765D01*
X52550Y-53748D01*
X52584Y-53748D01*
X52634Y-53765D01*
X52837Y-53967D01*
X52837Y-53748D01*
X52634Y-53546D02*
X52618Y-53579D01*
X52601Y-53596D01*
X52567Y-53613D01*
X52550Y-53613D01*
X52516Y-53596D01*
X52500Y-53579D01*
X52483Y-53546D01*
X52483Y-53478D01*
X52500Y-53444D01*
X52516Y-53428D01*
X52550Y-53411D01*
X52567Y-53411D01*
X52601Y-53428D01*
X52618Y-53444D01*
X52634Y-53478D01*
X52634Y-53546D01*
X52651Y-53579D01*
X52668Y-53596D01*
X52702Y-53613D01*
X52769Y-53613D01*
X52803Y-53596D01*
X52820Y-53579D01*
X52837Y-53546D01*
X52837Y-53478D01*
X52820Y-53444D01*
X52803Y-53428D01*
X52769Y-53411D01*
X52702Y-53411D01*
X52668Y-53428D01*
X52651Y-53444D01*
X52634Y-53478D01*
X65717Y-53473D02*
X65700Y-53489D01*
X65649Y-53506D01*
X65615Y-53506D01*
X65565Y-53489D01*
X65531Y-53456D01*
X65514Y-53422D01*
X65497Y-53354D01*
X65497Y-53304D01*
X65514Y-53236D01*
X65531Y-53203D01*
X65565Y-53169D01*
X65615Y-53152D01*
X65649Y-53152D01*
X65700Y-53169D01*
X65717Y-53186D01*
X65835Y-53152D02*
X66054Y-53152D01*
X65936Y-53287D01*
X65987Y-53287D01*
X66020Y-53304D01*
X66037Y-53321D01*
X66054Y-53354D01*
X66054Y-53439D01*
X66037Y-53473D01*
X66020Y-53489D01*
X65987Y-53506D01*
X65885Y-53506D01*
X65852Y-53489D01*
X65835Y-53473D01*
X66273Y-53152D02*
X66307Y-53152D01*
X66341Y-53169D01*
X66358Y-53186D01*
X66375Y-53219D01*
X66392Y-53287D01*
X66392Y-53371D01*
X66375Y-53439D01*
X66358Y-53473D01*
X66341Y-53489D01*
X66307Y-53506D01*
X66273Y-53506D01*
X66240Y-53489D01*
X66223Y-53473D01*
X66206Y-53439D01*
X66189Y-53371D01*
X66189Y-53287D01*
X66206Y-53219D01*
X66223Y-53186D01*
X66240Y-53169D01*
X66273Y-53152D01*
X64972Y-35626D02*
X64955Y-35643D01*
X64904Y-35660D01*
X64870Y-35660D01*
X64820Y-35643D01*
X64786Y-35609D01*
X64769Y-35575D01*
X64752Y-35508D01*
X64752Y-35457D01*
X64769Y-35390D01*
X64786Y-35356D01*
X64820Y-35322D01*
X64870Y-35305D01*
X64904Y-35305D01*
X64955Y-35322D01*
X64972Y-35339D01*
X65090Y-35305D02*
X65309Y-35305D01*
X65191Y-35440D01*
X65242Y-35440D01*
X65275Y-35457D01*
X65292Y-35474D01*
X65309Y-35508D01*
X65309Y-35592D01*
X65292Y-35626D01*
X65275Y-35643D01*
X65242Y-35660D01*
X65140Y-35660D01*
X65107Y-35643D01*
X65090Y-35626D01*
X65444Y-35339D02*
X65461Y-35322D01*
X65495Y-35305D01*
X65579Y-35305D01*
X65613Y-35322D01*
X65630Y-35339D01*
X65647Y-35373D01*
X65647Y-35407D01*
X65630Y-35457D01*
X65427Y-35660D01*
X65647Y-35660D01*
X68193Y-54441D02*
X68193Y-54087D01*
X68277Y-54087D01*
X68328Y-54104D01*
X68361Y-54138D01*
X68378Y-54171D01*
X68395Y-54239D01*
X68395Y-54289D01*
X68378Y-54357D01*
X68361Y-54391D01*
X68328Y-54424D01*
X68277Y-54441D01*
X68193Y-54441D01*
X68513Y-54087D02*
X68733Y-54087D01*
X68615Y-54222D01*
X68665Y-54222D01*
X68699Y-54239D01*
X68716Y-54256D01*
X68733Y-54289D01*
X68733Y-54374D01*
X68716Y-54408D01*
X68699Y-54424D01*
X68665Y-54441D01*
X68564Y-54441D01*
X68530Y-54424D01*
X68513Y-54408D01*
X36318Y-29274D02*
X36200Y-29105D01*
X36116Y-29274D02*
X36116Y-28920D01*
X36251Y-28920D01*
X36285Y-28937D01*
X36302Y-28953D01*
X36318Y-28987D01*
X36318Y-29038D01*
X36302Y-29071D01*
X36285Y-29088D01*
X36251Y-29105D01*
X36116Y-29105D01*
X36453Y-28953D02*
X36470Y-28937D01*
X36504Y-28920D01*
X36588Y-28920D01*
X36622Y-28937D01*
X36639Y-28953D01*
X36656Y-28987D01*
X36656Y-29021D01*
X36639Y-29071D01*
X36437Y-29274D01*
X36656Y-29274D01*
X40039Y-28049D02*
X39921Y-27880D01*
X39836Y-28049D02*
X39836Y-27694D01*
X39971Y-27694D01*
X40005Y-27711D01*
X40022Y-27728D01*
X40039Y-27762D01*
X40039Y-27813D01*
X40022Y-27846D01*
X40005Y-27863D01*
X39971Y-27880D01*
X39836Y-27880D01*
X40157Y-27694D02*
X40376Y-27694D01*
X40258Y-27829D01*
X40309Y-27829D01*
X40343Y-27846D01*
X40359Y-27863D01*
X40376Y-27897D01*
X40376Y-27981D01*
X40359Y-28015D01*
X40343Y-28032D01*
X40309Y-28049D01*
X40208Y-28049D01*
X40174Y-28032D01*
X40157Y-28015D01*
X66427Y-54441D02*
X66309Y-54273D01*
X66224Y-54441D02*
X66224Y-54087D01*
X66359Y-54087D01*
X66393Y-54104D01*
X66410Y-54121D01*
X66427Y-54154D01*
X66427Y-54205D01*
X66410Y-54239D01*
X66393Y-54256D01*
X66359Y-54273D01*
X66224Y-54273D01*
X66747Y-54087D02*
X66579Y-54087D01*
X66562Y-54256D01*
X66579Y-54239D01*
X66612Y-54222D01*
X66697Y-54222D01*
X66730Y-54239D01*
X66747Y-54256D01*
X66764Y-54289D01*
X66764Y-54374D01*
X66747Y-54408D01*
X66730Y-54424D01*
X66697Y-54441D01*
X66612Y-54441D01*
X66579Y-54424D01*
X66562Y-54408D01*
X37485Y-25868D02*
X37485Y-26155D01*
X37502Y-26189D01*
X37519Y-26206D01*
X37553Y-26223D01*
X37620Y-26223D01*
X37654Y-26206D01*
X37671Y-26189D01*
X37688Y-26155D01*
X37688Y-25868D01*
X38042Y-26223D02*
X37840Y-26223D01*
X37941Y-26223D02*
X37941Y-25868D01*
X37907Y-25919D01*
X37874Y-25953D01*
X37840Y-25970D01*
X43130Y-47905D02*
X43130Y-48192D01*
X43146Y-48226D01*
X43163Y-48243D01*
X43197Y-48260D01*
X43265Y-48260D01*
X43298Y-48243D01*
X43315Y-48226D01*
X43332Y-48192D01*
X43332Y-47905D01*
X43484Y-47939D02*
X43501Y-47922D01*
X43534Y-47905D01*
X43619Y-47905D01*
X43653Y-47922D01*
X43669Y-47939D01*
X43686Y-47973D01*
X43686Y-48007D01*
X43669Y-48057D01*
X43467Y-48260D01*
X43686Y-48260D01*
X35458Y-45081D02*
X35660Y-45081D01*
X35559Y-45435D02*
X35559Y-45081D01*
X35964Y-45435D02*
X35762Y-45435D01*
X35863Y-45435D02*
X35863Y-45081D01*
X35829Y-45132D01*
X35795Y-45165D01*
X35762Y-45182D01*
X49274Y-51437D02*
X49105Y-51555D01*
X49274Y-51639D02*
X48920Y-51639D01*
X48920Y-51504D01*
X48937Y-51470D01*
X48953Y-51453D01*
X48987Y-51437D01*
X49038Y-51437D01*
X49071Y-51453D01*
X49088Y-51470D01*
X49105Y-51504D01*
X49105Y-51639D01*
X49274Y-51099D02*
X49274Y-51302D01*
X49274Y-51200D02*
X48920Y-51200D01*
X48970Y-51234D01*
X49004Y-51268D01*
X49021Y-51302D01*
X49215Y-33366D02*
X49046Y-33484D01*
X49215Y-33568D02*
X48861Y-33568D01*
X48861Y-33433D01*
X48877Y-33399D01*
X48894Y-33383D01*
X48928Y-33366D01*
X48979Y-33366D01*
X49012Y-33383D01*
X49029Y-33399D01*
X49046Y-33433D01*
X49046Y-33568D01*
X48979Y-33062D02*
X49215Y-33062D01*
X48844Y-33146D02*
X49097Y-33231D01*
X49097Y-33011D01*
X64063Y-26976D02*
X64046Y-26993D01*
X63996Y-27010D01*
X63962Y-27010D01*
X63911Y-26993D01*
X63877Y-26960D01*
X63861Y-26926D01*
X63844Y-26858D01*
X63844Y-26808D01*
X63861Y-26740D01*
X63877Y-26706D01*
X63911Y-26673D01*
X63962Y-26656D01*
X63996Y-26656D01*
X64046Y-26673D01*
X64063Y-26690D01*
X64181Y-26656D02*
X64401Y-26656D01*
X64282Y-26791D01*
X64333Y-26791D01*
X64367Y-26808D01*
X64384Y-26825D01*
X64401Y-26858D01*
X64401Y-26943D01*
X64384Y-26976D01*
X64367Y-26993D01*
X64333Y-27010D01*
X64232Y-27010D01*
X64198Y-26993D01*
X64181Y-26976D01*
X64519Y-26656D02*
X64738Y-26656D01*
X64620Y-26791D01*
X64670Y-26791D01*
X64704Y-26808D01*
X64721Y-26825D01*
X64738Y-26858D01*
X64738Y-26943D01*
X64721Y-26976D01*
X64704Y-26993D01*
X64670Y-27010D01*
X64569Y-27010D01*
X64535Y-26993D01*
X64519Y-26976D01*
X68965Y-53374D02*
X68948Y-53391D01*
X68897Y-53408D01*
X68863Y-53408D01*
X68813Y-53391D01*
X68779Y-53357D01*
X68762Y-53323D01*
X68745Y-53256D01*
X68745Y-53205D01*
X68762Y-53138D01*
X68779Y-53104D01*
X68813Y-53070D01*
X68863Y-53053D01*
X68897Y-53053D01*
X68948Y-53070D01*
X68965Y-53087D01*
X69083Y-53053D02*
X69302Y-53053D01*
X69184Y-53188D01*
X69235Y-53188D01*
X69268Y-53205D01*
X69285Y-53222D01*
X69302Y-53256D01*
X69302Y-53340D01*
X69285Y-53374D01*
X69268Y-53391D01*
X69235Y-53408D01*
X69133Y-53408D01*
X69100Y-53391D01*
X69083Y-53374D01*
X69606Y-53172D02*
X69606Y-53408D01*
X69521Y-53037D02*
X69437Y-53290D01*
X69656Y-53290D01*
X37940Y-37760D02*
X37772Y-37760D01*
X37772Y-37405D01*
X38244Y-37760D02*
X38042Y-37760D01*
X38143Y-37760D02*
X38143Y-37405D01*
X38109Y-37456D01*
X38075Y-37490D01*
X38042Y-37507D01*
X56160Y-37259D02*
X56160Y-37427D01*
X55805Y-37427D01*
X55839Y-37157D02*
X55822Y-37140D01*
X55805Y-37107D01*
X55805Y-37022D01*
X55822Y-36989D01*
X55839Y-36972D01*
X55873Y-36955D01*
X55907Y-36955D01*
X55957Y-36972D01*
X56160Y-37174D01*
X56160Y-36955D01*
X56160Y-49459D02*
X56160Y-49627D01*
X55805Y-49627D01*
X55805Y-49374D02*
X55805Y-49155D01*
X55940Y-49273D01*
X55940Y-49222D01*
X55957Y-49189D01*
X55974Y-49172D01*
X56008Y-49155D01*
X56092Y-49155D01*
X56126Y-49172D01*
X56143Y-49189D01*
X56160Y-49222D01*
X56160Y-49324D01*
X56143Y-49357D01*
X56126Y-49374D01*
X41415Y-29543D02*
X41246Y-29661D01*
X41415Y-29745D02*
X41061Y-29745D01*
X41061Y-29610D01*
X41077Y-29576D01*
X41094Y-29560D01*
X41128Y-29543D01*
X41179Y-29543D01*
X41212Y-29560D01*
X41229Y-29576D01*
X41246Y-29610D01*
X41246Y-29745D01*
X41061Y-29441D02*
X41415Y-29323D01*
X41061Y-29205D01*
X41415Y-28902D02*
X41415Y-29104D01*
X41415Y-29003D02*
X41061Y-29003D01*
X41111Y-29037D01*
X41145Y-29070D01*
X41162Y-29104D01*
X31065Y-35143D02*
X30711Y-35143D01*
X30711Y-35008D01*
X30728Y-34974D01*
X30745Y-34957D01*
X30778Y-34940D01*
X30829Y-34940D01*
X30863Y-34957D01*
X30880Y-34974D01*
X30897Y-35008D01*
X30897Y-35143D01*
X31065Y-34603D02*
X31065Y-34805D01*
X31065Y-34704D02*
X30711Y-34704D01*
X30762Y-34738D01*
X30795Y-34772D01*
X30812Y-34805D01*
X40038Y-26110D02*
X40038Y-25755D01*
X40173Y-25755D01*
X40207Y-25772D01*
X40224Y-25789D01*
X40240Y-25823D01*
X40240Y-25874D01*
X40224Y-25907D01*
X40207Y-25924D01*
X40173Y-25941D01*
X40038Y-25941D01*
X40375Y-25789D02*
X40392Y-25772D01*
X40426Y-25755D01*
X40510Y-25755D01*
X40544Y-25772D01*
X40561Y-25789D01*
X40578Y-25823D01*
X40578Y-25857D01*
X40561Y-25907D01*
X40359Y-26110D01*
X40578Y-26110D01*
X39560Y-37461D02*
X39205Y-37461D01*
X39205Y-37377D01*
X39222Y-37326D01*
X39256Y-37292D01*
X39290Y-37275D01*
X39357Y-37259D01*
X39408Y-37259D01*
X39475Y-37275D01*
X39509Y-37292D01*
X39543Y-37326D01*
X39560Y-37377D01*
X39560Y-37461D01*
X39560Y-36921D02*
X39560Y-37124D01*
X39560Y-37022D02*
X39205Y-37022D01*
X39256Y-37056D01*
X39290Y-37090D01*
X39307Y-37124D01*
X41944Y-30505D02*
X42146Y-30505D01*
X42045Y-30860D02*
X42045Y-30505D01*
X42265Y-30860D02*
X42265Y-30505D01*
X42265Y-30674D02*
X42467Y-30674D01*
X42467Y-30860D02*
X42467Y-30505D01*
X42821Y-30860D02*
X42619Y-30860D01*
X42720Y-30860D02*
X42720Y-30505D01*
X42686Y-30556D01*
X42653Y-30590D01*
X42619Y-30607D01*
X57846Y-29862D02*
X57863Y-29879D01*
X57879Y-29929D01*
X57879Y-29963D01*
X57863Y-30014D01*
X57829Y-30047D01*
X57795Y-30064D01*
X57728Y-30081D01*
X57677Y-30081D01*
X57610Y-30064D01*
X57576Y-30047D01*
X57542Y-30014D01*
X57525Y-29963D01*
X57525Y-29929D01*
X57542Y-29879D01*
X57559Y-29862D01*
X57525Y-29558D02*
X57525Y-29625D01*
X57542Y-29659D01*
X57559Y-29676D01*
X57610Y-29710D01*
X57677Y-29727D01*
X57812Y-29727D01*
X57846Y-29710D01*
X57863Y-29693D01*
X57879Y-29659D01*
X57879Y-29592D01*
X57863Y-29558D01*
X57846Y-29541D01*
X57812Y-29524D01*
X57728Y-29524D01*
X57694Y-29541D01*
X57677Y-29558D01*
X57660Y-29592D01*
X57660Y-29659D01*
X57677Y-29693D01*
X57694Y-29710D01*
X57728Y-29727D01*
X62921Y-53433D02*
X62904Y-53450D01*
X62854Y-53467D01*
X62820Y-53467D01*
X62769Y-53450D01*
X62736Y-53416D01*
X62719Y-53383D01*
X62702Y-53315D01*
X62702Y-53264D01*
X62719Y-53197D01*
X62736Y-53163D01*
X62769Y-53129D01*
X62820Y-53113D01*
X62854Y-53113D01*
X62904Y-53129D01*
X62921Y-53146D01*
X63259Y-53467D02*
X63056Y-53467D01*
X63158Y-53467D02*
X63158Y-53113D01*
X63124Y-53163D01*
X63090Y-53197D01*
X63056Y-53214D01*
X63579Y-53113D02*
X63411Y-53113D01*
X63394Y-53281D01*
X63411Y-53264D01*
X63444Y-53248D01*
X63529Y-53248D01*
X63562Y-53264D01*
X63579Y-53281D01*
X63596Y-53315D01*
X63596Y-53399D01*
X63579Y-53433D01*
X63562Y-53450D01*
X63529Y-53467D01*
X63444Y-53467D01*
X63411Y-53450D01*
X63394Y-53433D01*
X45022Y-29576D02*
X45005Y-29593D01*
X44954Y-29610D01*
X44920Y-29610D01*
X44870Y-29593D01*
X44836Y-29559D01*
X44819Y-29525D01*
X44802Y-29458D01*
X44802Y-29407D01*
X44819Y-29340D01*
X44836Y-29306D01*
X44870Y-29272D01*
X44920Y-29255D01*
X44954Y-29255D01*
X45005Y-29272D01*
X45022Y-29289D01*
X45140Y-29255D02*
X45359Y-29255D01*
X45241Y-29390D01*
X45292Y-29390D01*
X45325Y-29407D01*
X45342Y-29424D01*
X45359Y-29458D01*
X45359Y-29542D01*
X45342Y-29576D01*
X45325Y-29593D01*
X45292Y-29610D01*
X45190Y-29610D01*
X45157Y-29593D01*
X45140Y-29576D01*
X45680Y-29255D02*
X45511Y-29255D01*
X45494Y-29424D01*
X45511Y-29407D01*
X45545Y-29390D01*
X45629Y-29390D01*
X45663Y-29407D01*
X45680Y-29424D01*
X45697Y-29458D01*
X45697Y-29542D01*
X45680Y-29576D01*
X45663Y-29593D01*
X45629Y-29610D01*
X45545Y-29610D01*
X45511Y-29593D01*
X45494Y-29576D01*
X58340Y-34475D02*
X58222Y-34306D01*
X58138Y-34475D02*
X58138Y-34120D01*
X58273Y-34120D01*
X58307Y-34137D01*
X58324Y-34154D01*
X58340Y-34188D01*
X58340Y-34239D01*
X58324Y-34272D01*
X58307Y-34289D01*
X58273Y-34306D01*
X58138Y-34306D01*
X58459Y-34120D02*
X58695Y-34120D01*
X58543Y-34475D01*
X59331Y-35945D02*
X59331Y-35676D01*
X59466Y-35811D02*
X59196Y-35811D01*
X31542Y-42294D02*
X31542Y-42548D01*
X31525Y-42598D01*
X31491Y-42632D01*
X31441Y-42649D01*
X31407Y-42649D01*
X31896Y-42649D02*
X31694Y-42649D01*
X31795Y-42649D02*
X31795Y-42294D01*
X31761Y-42345D01*
X31728Y-42379D01*
X31694Y-42396D01*
X68942Y-34394D02*
X68942Y-34648D01*
X68925Y-34698D01*
X68891Y-34732D01*
X68841Y-34749D01*
X68807Y-34749D01*
X69094Y-34428D02*
X69111Y-34411D01*
X69144Y-34394D01*
X69229Y-34394D01*
X69263Y-34411D01*
X69279Y-34428D01*
X69296Y-34462D01*
X69296Y-34496D01*
X69279Y-34546D01*
X69077Y-34749D01*
X69296Y-34749D01*
X32207Y-28996D02*
X32038Y-29114D01*
X32207Y-29198D02*
X31853Y-29198D01*
X31853Y-29063D01*
X31870Y-29029D01*
X31886Y-29012D01*
X31920Y-28996D01*
X31971Y-28996D01*
X32005Y-29012D01*
X32021Y-29029D01*
X32038Y-29063D01*
X32038Y-29198D01*
X32005Y-28793D02*
X31988Y-28827D01*
X31971Y-28844D01*
X31937Y-28861D01*
X31920Y-28861D01*
X31886Y-28844D01*
X31870Y-28827D01*
X31853Y-28793D01*
X31853Y-28726D01*
X31870Y-28692D01*
X31886Y-28675D01*
X31920Y-28658D01*
X31937Y-28658D01*
X31971Y-28675D01*
X31988Y-28692D01*
X32005Y-28726D01*
X32005Y-28793D01*
X32021Y-28827D01*
X32038Y-28844D01*
X32072Y-28861D01*
X32140Y-28861D01*
X32173Y-28844D01*
X32190Y-28827D01*
X32207Y-28793D01*
X32207Y-28726D01*
X32190Y-28692D01*
X32173Y-28675D01*
X32140Y-28658D01*
X32072Y-28658D01*
X32038Y-28675D01*
X32021Y-28692D01*
X32005Y-28726D01*
X31113Y-26459D02*
X31113Y-26105D01*
X31231Y-26358D01*
X31349Y-26105D01*
X31349Y-26459D01*
X31518Y-26459D02*
X31518Y-26105D01*
X31518Y-26273D02*
X31721Y-26273D01*
X31721Y-26459D02*
X31721Y-26105D01*
X31074Y-54589D02*
X31074Y-54235D01*
X31192Y-54488D01*
X31310Y-54235D01*
X31310Y-54589D01*
X31479Y-54589D02*
X31479Y-54235D01*
X31479Y-54403D02*
X31681Y-54403D01*
X31681Y-54589D02*
X31681Y-54235D01*
X71054Y-54589D02*
X71054Y-54235D01*
X71172Y-54488D01*
X71290Y-54235D01*
X71290Y-54589D01*
X71459Y-54589D02*
X71459Y-54235D01*
X71459Y-54403D02*
X71661Y-54403D01*
X71661Y-54589D02*
X71661Y-54235D01*
X71034Y-26420D02*
X71034Y-26065D01*
X71152Y-26318D01*
X71271Y-26065D01*
X71271Y-26420D01*
X71439Y-26420D02*
X71439Y-26065D01*
X71439Y-26234D02*
X71642Y-26234D01*
X71642Y-26420D02*
X71642Y-26065D01*
X36133Y-33270D02*
X36133Y-32916D01*
X36251Y-33169D01*
X36369Y-32916D01*
X36369Y-33270D01*
X36538Y-33270D02*
X36538Y-32916D01*
X36538Y-33084D02*
X36740Y-33084D01*
X36740Y-33270D02*
X36740Y-32916D01*
X36133Y-53329D02*
X36133Y-52975D01*
X36251Y-53228D01*
X36369Y-52975D01*
X36369Y-53329D01*
X36538Y-53329D02*
X36538Y-52975D01*
X36538Y-53143D02*
X36740Y-53143D01*
X36740Y-53329D02*
X36740Y-52975D01*
X55208Y-53329D02*
X55208Y-52975D01*
X55326Y-53228D01*
X55444Y-52975D01*
X55444Y-53329D01*
X55613Y-53329D02*
X55613Y-52975D01*
X55613Y-53143D02*
X55815Y-53143D01*
X55815Y-53329D02*
X55815Y-52975D01*
X55830Y-26155D02*
X55830Y-26442D01*
X55846Y-26476D01*
X55863Y-26493D01*
X55897Y-26510D01*
X55965Y-26510D01*
X55998Y-26493D01*
X56015Y-26476D01*
X56032Y-26442D01*
X56032Y-26155D01*
X56167Y-26155D02*
X56386Y-26155D01*
X56268Y-26290D01*
X56319Y-26290D01*
X56353Y-26307D01*
X56369Y-26324D01*
X56386Y-26358D01*
X56386Y-26442D01*
X56369Y-26476D01*
X56353Y-26493D01*
X56319Y-26510D01*
X56218Y-26510D01*
X56184Y-26493D01*
X56167Y-26476D01*
X31640Y-47426D02*
X31624Y-47443D01*
X31573Y-47460D01*
X31539Y-47460D01*
X31489Y-47443D01*
X31455Y-47409D01*
X31438Y-47375D01*
X31421Y-47308D01*
X31421Y-47257D01*
X31438Y-47190D01*
X31455Y-47156D01*
X31489Y-47122D01*
X31539Y-47105D01*
X31573Y-47105D01*
X31624Y-47122D01*
X31640Y-47139D01*
X31978Y-47460D02*
X31775Y-47460D01*
X31877Y-47460D02*
X31877Y-47105D01*
X31843Y-47156D01*
X31809Y-47190D01*
X31775Y-47207D01*
X33040Y-49326D02*
X33024Y-49343D01*
X32973Y-49360D01*
X32939Y-49360D01*
X32889Y-49343D01*
X32855Y-49309D01*
X32838Y-49275D01*
X32821Y-49208D01*
X32821Y-49157D01*
X32838Y-49090D01*
X32855Y-49056D01*
X32889Y-49022D01*
X32939Y-49005D01*
X32973Y-49005D01*
X33024Y-49022D01*
X33040Y-49039D01*
X33175Y-49039D02*
X33192Y-49022D01*
X33226Y-49005D01*
X33310Y-49005D01*
X33344Y-49022D01*
X33361Y-49039D01*
X33378Y-49073D01*
X33378Y-49107D01*
X33361Y-49157D01*
X33159Y-49360D01*
X33378Y-49360D01*
X36626Y-49359D02*
X36643Y-49375D01*
X36660Y-49426D01*
X36660Y-49460D01*
X36643Y-49510D01*
X36609Y-49544D01*
X36575Y-49561D01*
X36508Y-49578D01*
X36457Y-49578D01*
X36390Y-49561D01*
X36356Y-49544D01*
X36322Y-49510D01*
X36305Y-49460D01*
X36305Y-49426D01*
X36322Y-49375D01*
X36339Y-49359D01*
X36305Y-49240D02*
X36305Y-49021D01*
X36440Y-49139D01*
X36440Y-49089D01*
X36457Y-49055D01*
X36474Y-49038D01*
X36508Y-49021D01*
X36592Y-49021D01*
X36626Y-49038D01*
X36643Y-49055D01*
X36660Y-49089D01*
X36660Y-49190D01*
X36643Y-49224D01*
X36626Y-49240D01*
X58426Y-38359D02*
X58443Y-38375D01*
X58460Y-38426D01*
X58460Y-38460D01*
X58443Y-38510D01*
X58409Y-38544D01*
X58375Y-38561D01*
X58308Y-38578D01*
X58257Y-38578D01*
X58190Y-38561D01*
X58156Y-38544D01*
X58122Y-38510D01*
X58105Y-38460D01*
X58105Y-38426D01*
X58122Y-38375D01*
X58139Y-38359D01*
X58224Y-38055D02*
X58460Y-38055D01*
X58089Y-38139D02*
X58342Y-38224D01*
X58342Y-38004D01*
X62626Y-38327D02*
X62643Y-38344D01*
X62660Y-38395D01*
X62660Y-38429D01*
X62643Y-38479D01*
X62609Y-38513D01*
X62575Y-38530D01*
X62508Y-38547D01*
X62457Y-38547D01*
X62390Y-38530D01*
X62356Y-38513D01*
X62322Y-38479D01*
X62305Y-38429D01*
X62305Y-38395D01*
X62322Y-38344D01*
X62339Y-38327D01*
X62660Y-37990D02*
X62660Y-38192D01*
X62660Y-38091D02*
X62305Y-38091D01*
X62356Y-38125D01*
X62390Y-38159D01*
X62407Y-38192D01*
X62305Y-37770D02*
X62305Y-37737D01*
X62322Y-37703D01*
X62339Y-37686D01*
X62373Y-37669D01*
X62440Y-37652D01*
X62525Y-37652D01*
X62592Y-37669D01*
X62626Y-37686D01*
X62643Y-37703D01*
X62660Y-37737D01*
X62660Y-37770D01*
X62643Y-37804D01*
X62626Y-37821D01*
X62592Y-37838D01*
X62525Y-37855D01*
X62440Y-37855D01*
X62373Y-37838D01*
X62339Y-37821D01*
X62322Y-37804D01*
X62305Y-37770D01*
X62426Y-35227D02*
X62443Y-35244D01*
X62460Y-35295D01*
X62460Y-35329D01*
X62443Y-35379D01*
X62409Y-35413D01*
X62375Y-35430D01*
X62308Y-35447D01*
X62257Y-35447D01*
X62190Y-35430D01*
X62156Y-35413D01*
X62122Y-35379D01*
X62105Y-35329D01*
X62105Y-35295D01*
X62122Y-35244D01*
X62139Y-35227D01*
X62105Y-35109D02*
X62105Y-34890D01*
X62240Y-35008D01*
X62240Y-34957D01*
X62257Y-34924D01*
X62274Y-34907D01*
X62308Y-34890D01*
X62392Y-34890D01*
X62426Y-34907D01*
X62443Y-34924D01*
X62460Y-34957D01*
X62460Y-35059D01*
X62443Y-35092D01*
X62426Y-35109D01*
X62460Y-34552D02*
X62460Y-34755D01*
X62460Y-34654D02*
X62105Y-34654D01*
X62156Y-34687D01*
X62190Y-34721D01*
X62207Y-34755D01*
X34426Y-37327D02*
X34443Y-37344D01*
X34460Y-37395D01*
X34460Y-37429D01*
X34443Y-37479D01*
X34409Y-37513D01*
X34375Y-37530D01*
X34308Y-37547D01*
X34257Y-37547D01*
X34190Y-37530D01*
X34156Y-37513D01*
X34122Y-37479D01*
X34105Y-37429D01*
X34105Y-37395D01*
X34122Y-37344D01*
X34139Y-37327D01*
X34139Y-37192D02*
X34122Y-37175D01*
X34105Y-37142D01*
X34105Y-37057D01*
X34122Y-37024D01*
X34139Y-37007D01*
X34173Y-36990D01*
X34207Y-36990D01*
X34257Y-37007D01*
X34460Y-37209D01*
X34460Y-36990D01*
X34105Y-36872D02*
X34105Y-36652D01*
X34240Y-36770D01*
X34240Y-36720D01*
X34257Y-36686D01*
X34274Y-36669D01*
X34308Y-36652D01*
X34392Y-36652D01*
X34426Y-36669D01*
X34443Y-36686D01*
X34460Y-36720D01*
X34460Y-36821D01*
X34443Y-36855D01*
X34426Y-36872D01*
G54D10*
G36*
X42174Y-55363D02*
X38927Y-55363D01*
X38927Y-51427D01*
X42174Y-51427D01*
X42174Y-55363D01*
X42174Y-55363D01*
G37*
G54D22*
X42174Y-55363D02*
X38927Y-55363D01*
X38927Y-51427D01*
X42174Y-51427D01*
X42174Y-55363D01*
M02*
