%FSLAX34Y34*%
G04 Gerber Fmt 3.4, Leading zero omitted, Abs format*
G04 (created by PCBNEW (2014-03-19 BZR 4756)-product) date Thu Jan  8 10:59:18 2015*
%MOIN*%
G01*
G70*
G90*
G04 APERTURE LIST*
%ADD10C,0.005906*%
%ADD11R,0.196850X0.098425*%
%ADD12R,0.094500X0.157500*%
%ADD13R,0.031400X0.031400*%
%ADD14R,0.035000X0.055000*%
%ADD15R,0.236220X0.157480*%
%ADD16R,0.393701X0.236220*%
%ADD17R,0.216535X0.118110*%
%ADD18R,0.055000X0.150000*%
%ADD19R,0.295300X0.118100*%
%ADD20R,0.135039X0.064961*%
%ADD21R,0.050000X0.100000*%
%ADD22R,0.078700X0.118100*%
%ADD23R,0.059843X0.059843*%
%ADD24R,0.075197X0.075197*%
%ADD25R,0.200000X0.060000*%
%ADD26R,0.100000X0.050000*%
%ADD27R,0.055000X0.035000*%
%ADD28R,0.235039X0.070079*%
%ADD29R,0.047244X0.157480*%
%ADD30R,0.045000X0.025000*%
%ADD31R,0.025000X0.045000*%
%ADD32R,0.030000X0.020000*%
%ADD33R,0.035000X0.016535*%
%ADD34R,0.066142X0.074016*%
%ADD35R,0.110236X0.047244*%
%ADD36R,0.055118X0.029921*%
%ADD37R,0.026000X0.016000*%
%ADD38R,0.070900X0.086600*%
%ADD39C,0.035000*%
%ADD40C,0.039370*%
%ADD41C,0.019685*%
%ADD42C,0.039370*%
%ADD43C,0.015748*%
%ADD44C,0.078740*%
%ADD45C,0.010000*%
%ADD46C,0.118110*%
G04 APERTURE END LIST*
G54D10*
G54D11*
X59448Y-43307D03*
X59448Y-44685D03*
X59429Y-46557D03*
X59448Y-41929D03*
X59429Y-40057D03*
G54D12*
X68681Y-28228D03*
X68681Y-31378D03*
X66141Y-51968D03*
X66141Y-48818D03*
G54D13*
X68749Y-54970D03*
X68159Y-54970D03*
G54D14*
X66861Y-54970D03*
X66111Y-54970D03*
G54D15*
X43307Y-41559D03*
X43307Y-45078D03*
X49606Y-45078D03*
X49606Y-41535D03*
G54D16*
X46456Y-34940D03*
X46456Y-51673D03*
G54D17*
X50787Y-48425D03*
X50787Y-53149D03*
X50787Y-38188D03*
X50787Y-33464D03*
G54D12*
X64350Y-28228D03*
X64350Y-31378D03*
X70472Y-51968D03*
X70472Y-48818D03*
G54D18*
X39300Y-41200D03*
X37500Y-41200D03*
G54D19*
X54000Y-36216D03*
X54000Y-38184D03*
X54000Y-48416D03*
X54000Y-50384D03*
G54D20*
X41552Y-25950D03*
X45647Y-25950D03*
G54D21*
X44164Y-27209D03*
X43035Y-27209D03*
G54D12*
X60019Y-28228D03*
X60019Y-31378D03*
X61811Y-51968D03*
X61811Y-48818D03*
G54D22*
X55413Y-33169D03*
X57775Y-33169D03*
G54D23*
X32200Y-47000D03*
G54D24*
X33133Y-47933D03*
X33133Y-46066D03*
X31266Y-47933D03*
X31266Y-46066D03*
G54D23*
X69100Y-36400D03*
G54D24*
X70033Y-37333D03*
X70033Y-35466D03*
X68166Y-37333D03*
X68166Y-35466D03*
G54D25*
X55300Y-29250D03*
X55300Y-28250D03*
X55300Y-27250D03*
G54D26*
X34700Y-47000D03*
X34700Y-48200D03*
G54D21*
X36000Y-47000D03*
X37200Y-47000D03*
G54D26*
X38400Y-47000D03*
X38400Y-48200D03*
X59400Y-38300D03*
X59400Y-37100D03*
X61400Y-38300D03*
X61400Y-37100D03*
X63300Y-36400D03*
X63300Y-35200D03*
G54D27*
X37950Y-33325D03*
X37950Y-34075D03*
G54D28*
X31139Y-38960D03*
X32639Y-39960D03*
X31139Y-40960D03*
X31350Y-29200D03*
X32850Y-30200D03*
X31350Y-31200D03*
G54D29*
X43250Y-32950D03*
X42250Y-32950D03*
X41250Y-32950D03*
G54D30*
X33600Y-34100D03*
X33600Y-33500D03*
X35500Y-38400D03*
X35500Y-37800D03*
G54D31*
X31150Y-32850D03*
X30550Y-32850D03*
G54D30*
X41250Y-30550D03*
X41250Y-29950D03*
G54D31*
X41850Y-31550D03*
X41250Y-31550D03*
X43350Y-31550D03*
X42750Y-31550D03*
X40450Y-31550D03*
X39850Y-31550D03*
X36450Y-38850D03*
X37050Y-38850D03*
X38250Y-37800D03*
X37650Y-37800D03*
G54D14*
X38925Y-37800D03*
X39675Y-37800D03*
G54D27*
X38750Y-33275D03*
X38750Y-32525D03*
G54D30*
X35500Y-25750D03*
X35500Y-26350D03*
X35500Y-26900D03*
X35500Y-27500D03*
X38700Y-26850D03*
X38700Y-26250D03*
X35500Y-36150D03*
X35500Y-36750D03*
G54D32*
X35400Y-30275D03*
X35400Y-31025D03*
X36400Y-30275D03*
X35400Y-30650D03*
X36400Y-31025D03*
G54D33*
X36250Y-26125D03*
X36250Y-26380D03*
X36250Y-26636D03*
X36250Y-26892D03*
X37982Y-26892D03*
X37982Y-26636D03*
X37982Y-26380D03*
X37982Y-26125D03*
G54D34*
X37100Y-26500D03*
G54D27*
X38300Y-38775D03*
X38300Y-39525D03*
X35500Y-33325D03*
X35500Y-34075D03*
X39150Y-38775D03*
X39150Y-39525D03*
X37150Y-33325D03*
X37150Y-34075D03*
G54D14*
X36375Y-29450D03*
X35625Y-29450D03*
G54D27*
X33750Y-25725D03*
X33750Y-26475D03*
X34650Y-25725D03*
X34650Y-26475D03*
G54D14*
X37925Y-25450D03*
X37175Y-25450D03*
G54D27*
X34650Y-37825D03*
X34650Y-38575D03*
G54D14*
X53404Y-41496D03*
X54154Y-41496D03*
G54D27*
X53800Y-35025D03*
X53800Y-34275D03*
X52900Y-35025D03*
X52900Y-34275D03*
X42100Y-30575D03*
X42100Y-29825D03*
X34550Y-32175D03*
X34550Y-31425D03*
X36350Y-33325D03*
X36350Y-34075D03*
X37350Y-31025D03*
X37350Y-30275D03*
X39500Y-43575D03*
X39500Y-42825D03*
G54D14*
X37625Y-45700D03*
X38375Y-45700D03*
G54D27*
X35600Y-42725D03*
X35600Y-43475D03*
X51968Y-41319D03*
X51968Y-40569D03*
X51968Y-43682D03*
X51968Y-42932D03*
X51968Y-46437D03*
X51968Y-45687D03*
G54D14*
X53404Y-45118D03*
X54154Y-45118D03*
G54D27*
X53600Y-51675D03*
X53600Y-52425D03*
X52750Y-51675D03*
X52750Y-52425D03*
G54D14*
X64825Y-36400D03*
X65575Y-36400D03*
X59790Y-25775D03*
X60540Y-25775D03*
G54D35*
X32485Y-36100D03*
X30678Y-35100D03*
X32485Y-34100D03*
G54D36*
X38200Y-42700D03*
X38200Y-43200D03*
X38200Y-43700D03*
X36822Y-43700D03*
X36822Y-42700D03*
G54D37*
X36250Y-37540D03*
X36250Y-38060D03*
X36250Y-37800D03*
X37050Y-38060D03*
X37050Y-37540D03*
X37050Y-37800D03*
G54D30*
X33600Y-36700D03*
X33600Y-36100D03*
X33600Y-35350D03*
X33600Y-34750D03*
X36250Y-36150D03*
X36250Y-36750D03*
G54D27*
X39600Y-32525D03*
X39600Y-33275D03*
X39550Y-27025D03*
X39550Y-26275D03*
G54D38*
X57182Y-25787D03*
X58762Y-25787D03*
G54D39*
X31102Y-40059D03*
X45000Y-52500D03*
X45000Y-51000D03*
X45000Y-51500D03*
X45000Y-52000D03*
X48000Y-51000D03*
X48000Y-51500D03*
X48000Y-52000D03*
X48000Y-52500D03*
X48000Y-34000D03*
X48000Y-34500D03*
X48000Y-35000D03*
X48000Y-35500D03*
X45000Y-35500D03*
X45000Y-35000D03*
X45000Y-34500D03*
X45000Y-34000D03*
X52755Y-52992D03*
X43350Y-31050D03*
X58050Y-46575D03*
X33150Y-48950D03*
X31275Y-48950D03*
X33125Y-45050D03*
X31275Y-45050D03*
X34975Y-43500D03*
X61065Y-25750D03*
X39850Y-39500D03*
X37700Y-39550D03*
X36050Y-38900D03*
X36100Y-38450D03*
X34650Y-39150D03*
X35500Y-38900D03*
X36250Y-35750D03*
X35500Y-34700D03*
X36350Y-34600D03*
X37100Y-34600D03*
X38000Y-34600D03*
X35050Y-29450D03*
X37350Y-29750D03*
X42100Y-29200D03*
X34600Y-30500D03*
X34550Y-30950D03*
X33600Y-33050D03*
X31350Y-28500D03*
X32850Y-31200D03*
X36700Y-25450D03*
X37100Y-26700D03*
X37100Y-26300D03*
X36200Y-27300D03*
X34800Y-27500D03*
X33800Y-27100D03*
X43035Y-28114D03*
X64350Y-32480D03*
X60019Y-32480D03*
X70472Y-47795D03*
X66850Y-48818D03*
X61811Y-47795D03*
G54D40*
X68681Y-32559D03*
X65305Y-54970D03*
G54D39*
X70000Y-34700D03*
X68200Y-34700D03*
X68200Y-38100D03*
X34700Y-49000D03*
X38300Y-49000D03*
X58400Y-37100D03*
X63300Y-34500D03*
X53622Y-33622D03*
X52755Y-33622D03*
X53622Y-52992D03*
X68000Y-47000D03*
X69000Y-47000D03*
X70000Y-47000D03*
X70000Y-46000D03*
X69000Y-46000D03*
X68000Y-46000D03*
X68000Y-45000D03*
X69000Y-45000D03*
X70000Y-45000D03*
X70000Y-44000D03*
X69000Y-44000D03*
X68000Y-44000D03*
X68000Y-43000D03*
X69000Y-43000D03*
X70000Y-43000D03*
X70000Y-42000D03*
X69000Y-42000D03*
X68000Y-42000D03*
X68000Y-41000D03*
X69000Y-41000D03*
X70000Y-41000D03*
X70000Y-40000D03*
X69000Y-40000D03*
X68000Y-40000D03*
X68000Y-39000D03*
X69000Y-39000D03*
X70100Y-38200D03*
X70078Y-38976D03*
X59448Y-46456D03*
X58661Y-46456D03*
X59448Y-43307D03*
X58661Y-43307D03*
X58200Y-43300D03*
X39100Y-32000D03*
X39100Y-31000D03*
X71948Y-29035D03*
X71948Y-51771D03*
X71948Y-29429D03*
X71555Y-29035D03*
X71948Y-28641D03*
X72342Y-29035D03*
X72342Y-51771D03*
X71948Y-51377D03*
X71555Y-51771D03*
X71948Y-52165D03*
X34500Y-28600D03*
X33350Y-27500D03*
X38000Y-30600D03*
X38000Y-32450D03*
X35039Y-37204D03*
X35925Y-37204D03*
G54D41*
X32639Y-39960D02*
X31200Y-39960D01*
X31200Y-39960D02*
X31102Y-40059D01*
G54D42*
X46456Y-51673D02*
X45826Y-51673D01*
X45826Y-51673D02*
X45000Y-52500D01*
X45000Y-51000D02*
X45000Y-51500D01*
X45000Y-52000D02*
X45000Y-52500D01*
X45000Y-52500D02*
X46456Y-51673D01*
X48000Y-51000D02*
X48000Y-51500D01*
X48000Y-52000D02*
X48000Y-52500D01*
X48000Y-34000D02*
X48000Y-34500D01*
X48000Y-35000D02*
X48000Y-35500D01*
X45000Y-35500D02*
X45000Y-35000D01*
X45000Y-34500D02*
X45000Y-34000D01*
X52755Y-52422D02*
X52755Y-52992D01*
G54D43*
X43350Y-31550D02*
X43350Y-31050D01*
X43250Y-32950D02*
X43250Y-32050D01*
X43350Y-31950D02*
X43350Y-31550D01*
X43250Y-32050D02*
X43350Y-31950D01*
X43350Y-32850D02*
X43250Y-32950D01*
G54D44*
X59429Y-46557D02*
X58067Y-46557D01*
X58067Y-46557D02*
X58050Y-46575D01*
G54D42*
X33133Y-47933D02*
X33133Y-48933D01*
X33133Y-48933D02*
X33150Y-48950D01*
X31266Y-47933D02*
X31266Y-48941D01*
X31266Y-48941D02*
X31275Y-48950D01*
X33133Y-46066D02*
X33133Y-45058D01*
X33133Y-45058D02*
X33125Y-45050D01*
X31266Y-46066D02*
X31266Y-45058D01*
X31266Y-45058D02*
X31275Y-45050D01*
G54D41*
X35600Y-43475D02*
X35000Y-43475D01*
X35000Y-43475D02*
X34975Y-43500D01*
X60540Y-25775D02*
X61040Y-25775D01*
X61040Y-25775D02*
X61065Y-25750D01*
G54D43*
X39150Y-39525D02*
X39825Y-39525D01*
X39825Y-39525D02*
X39850Y-39500D01*
X38300Y-39525D02*
X37725Y-39525D01*
X37725Y-39525D02*
X37700Y-39550D01*
G54D45*
X36450Y-38850D02*
X36100Y-38850D01*
X36100Y-38850D02*
X36050Y-38900D01*
X36250Y-38060D02*
X36250Y-38300D01*
X36250Y-38300D02*
X36100Y-38450D01*
G54D43*
X34650Y-38575D02*
X34650Y-39150D01*
X35500Y-38400D02*
X35500Y-38900D01*
G54D45*
X36250Y-36150D02*
X36250Y-35750D01*
G54D41*
X35500Y-34075D02*
X35500Y-34700D01*
X36350Y-34075D02*
X36350Y-34600D01*
X37150Y-34075D02*
X37150Y-34550D01*
X37150Y-34550D02*
X37100Y-34600D01*
X37950Y-34075D02*
X37950Y-34550D01*
X37950Y-34550D02*
X38000Y-34600D01*
X35625Y-29450D02*
X35050Y-29450D01*
G54D43*
X37350Y-30275D02*
X37350Y-29750D01*
X42100Y-29825D02*
X42100Y-29200D01*
X43350Y-32850D02*
X43250Y-32950D01*
G54D45*
X35400Y-30650D02*
X34750Y-30650D01*
X34750Y-30650D02*
X34600Y-30500D01*
G54D41*
X34550Y-31425D02*
X34550Y-30950D01*
X33600Y-33500D02*
X33600Y-33050D01*
X31350Y-29200D02*
X31350Y-28500D01*
X31350Y-31200D02*
X32850Y-31200D01*
G54D43*
X37175Y-25450D02*
X36700Y-25450D01*
G54D45*
X37100Y-26700D02*
X37100Y-26500D01*
X36250Y-26892D02*
X36250Y-27250D01*
X36250Y-27250D02*
X36200Y-27300D01*
G54D43*
X35500Y-27500D02*
X34800Y-27500D01*
X33750Y-26475D02*
X33750Y-27050D01*
X33750Y-27050D02*
X33800Y-27100D01*
G54D42*
X43035Y-27209D02*
X43035Y-28114D01*
X43035Y-28114D02*
X43000Y-28150D01*
X64350Y-31378D02*
X64350Y-32480D01*
X60019Y-31378D02*
X60019Y-32480D01*
X70472Y-48818D02*
X70472Y-47795D01*
X66141Y-48818D02*
X66850Y-48818D01*
X66850Y-48818D02*
X66850Y-48818D01*
X66141Y-48267D02*
X66141Y-48818D01*
X61811Y-48818D02*
X61811Y-47795D01*
X68681Y-31378D02*
X68681Y-32559D01*
G54D41*
X66111Y-54970D02*
X65305Y-54970D01*
G54D42*
X70033Y-34733D02*
X70000Y-34700D01*
X70033Y-35466D02*
X70033Y-34733D01*
X70033Y-37333D02*
X70033Y-38000D01*
X68166Y-34733D02*
X68200Y-34700D01*
X68166Y-35466D02*
X68166Y-34733D01*
X68166Y-38066D02*
X68200Y-38100D01*
X68166Y-37333D02*
X68166Y-38066D01*
X34700Y-48200D02*
X34700Y-49000D01*
X38400Y-48900D02*
X38300Y-49000D01*
X38400Y-48200D02*
X38400Y-48900D01*
X59400Y-37100D02*
X58400Y-37100D01*
X63300Y-35200D02*
X63300Y-34500D01*
X53779Y-34270D02*
X53779Y-33779D01*
X53779Y-33779D02*
X53622Y-33622D01*
X52913Y-34270D02*
X52913Y-33779D01*
X52913Y-33779D02*
X52755Y-33622D01*
X53622Y-52422D02*
X53622Y-52992D01*
X48000Y-36000D02*
X45000Y-36000D01*
G54D45*
X69000Y-47000D02*
X68000Y-47000D01*
X70000Y-46000D02*
X70000Y-47000D01*
X68000Y-46000D02*
X69000Y-46000D01*
X69000Y-45000D02*
X68000Y-45000D01*
X70000Y-44000D02*
X70000Y-45000D01*
X68000Y-44000D02*
X69000Y-44000D01*
X69000Y-43000D02*
X68000Y-43000D01*
X70000Y-42000D02*
X70000Y-43000D01*
X68000Y-42000D02*
X69000Y-42000D01*
X69000Y-41000D02*
X68000Y-41000D01*
X70000Y-40000D02*
X70000Y-41000D01*
X68000Y-40000D02*
X69000Y-40000D01*
X69000Y-39000D02*
X68000Y-39000D01*
G54D42*
X70033Y-38133D02*
X70033Y-38000D01*
X70033Y-38133D02*
X70100Y-38200D01*
G54D45*
X58661Y-46456D02*
X59448Y-46456D01*
X58661Y-43307D02*
X59448Y-43307D01*
G54D44*
X58207Y-43307D02*
X58200Y-43300D01*
X59448Y-43307D02*
X58207Y-43307D01*
G54D41*
X39100Y-32000D02*
X39400Y-32000D01*
X39600Y-32200D02*
X39600Y-32525D01*
X39400Y-32000D02*
X39600Y-32200D01*
X37350Y-31025D02*
X39075Y-31025D01*
X38750Y-32150D02*
X38750Y-32525D01*
X38850Y-32050D02*
X38750Y-32150D01*
X39050Y-32050D02*
X38850Y-32050D01*
X39100Y-32000D02*
X39050Y-32050D01*
X39075Y-31025D02*
X39100Y-31000D01*
G54D43*
X36400Y-31025D02*
X37350Y-31025D01*
X35400Y-30275D02*
X35675Y-30275D01*
X36025Y-31025D02*
X36400Y-31025D01*
X35900Y-30900D02*
X36025Y-31025D01*
X35900Y-30500D02*
X35900Y-30900D01*
X35675Y-30275D02*
X35900Y-30500D01*
G54D42*
X39500Y-42825D02*
X39925Y-42825D01*
X41190Y-41559D02*
X43307Y-41559D01*
X39925Y-42825D02*
X41190Y-41559D01*
G54D41*
X38200Y-42700D02*
X38725Y-42700D01*
X38850Y-42825D02*
X39500Y-42825D01*
X38725Y-42700D02*
X38850Y-42825D01*
G54D42*
X43307Y-39492D02*
X44000Y-38800D01*
X43307Y-41559D02*
X43307Y-39492D01*
X50787Y-32187D02*
X50787Y-33464D01*
X50600Y-32000D02*
X50787Y-32187D01*
X45400Y-32000D02*
X50600Y-32000D01*
X44000Y-33400D02*
X45400Y-32000D01*
X44000Y-38800D02*
X44000Y-33400D01*
X53404Y-41496D02*
X52014Y-41496D01*
X52014Y-41496D02*
X51975Y-41535D01*
X51968Y-41319D02*
X51968Y-41535D01*
X51968Y-41535D02*
X52125Y-41535D01*
X52125Y-41535D02*
X51968Y-41535D01*
X51968Y-41535D02*
X51975Y-41541D01*
X51975Y-41541D02*
X51975Y-41675D01*
X51975Y-41675D02*
X51975Y-41535D01*
X54000Y-38184D02*
X54000Y-39000D01*
X53404Y-39595D02*
X53404Y-41496D01*
X54000Y-39000D02*
X53404Y-39595D01*
G54D44*
X49606Y-41535D02*
X51975Y-41535D01*
X51975Y-41535D02*
X52874Y-41535D01*
G54D42*
X52913Y-41496D02*
X52874Y-41535D01*
G54D44*
X52874Y-41535D02*
X53031Y-41535D01*
X53031Y-41535D02*
X53070Y-41496D01*
G54D42*
X51968Y-42932D02*
X51968Y-41319D01*
X53404Y-41496D02*
X52913Y-41496D01*
G54D46*
X70472Y-51968D02*
X71751Y-51968D01*
X69566Y-28228D02*
X68681Y-28228D01*
X70275Y-28937D02*
X69566Y-28228D01*
X71850Y-28937D02*
X70275Y-28937D01*
X71948Y-29035D02*
X71850Y-28937D01*
X71948Y-51771D02*
X71948Y-51771D01*
X71751Y-51968D02*
X71948Y-51771D01*
G54D42*
X52900Y-35025D02*
X53800Y-35025D01*
X52755Y-51672D02*
X52755Y-50078D01*
X53622Y-51672D02*
X53622Y-50761D01*
X53779Y-35020D02*
X53779Y-35995D01*
X59997Y-28250D02*
X60019Y-28228D01*
X53061Y-50384D02*
X54000Y-50384D01*
G54D41*
X68749Y-54970D02*
X68749Y-51968D01*
X68740Y-52283D02*
X68740Y-51968D01*
X68740Y-51978D02*
X68740Y-52283D01*
X68749Y-51968D02*
X68740Y-51978D01*
G54D44*
X54000Y-50384D02*
X57598Y-50384D01*
X57598Y-50384D02*
X59045Y-50384D01*
X60630Y-51968D02*
X61811Y-51968D01*
X59045Y-50384D02*
X60630Y-51968D01*
G54D46*
X66141Y-51968D02*
X61811Y-51968D01*
X70472Y-51968D02*
X68740Y-51968D01*
X68740Y-51968D02*
X66141Y-51968D01*
G54D44*
X60019Y-28228D02*
X60019Y-28228D01*
X62100Y-28228D02*
X60019Y-28228D01*
X64350Y-28228D02*
X62100Y-28228D01*
X60098Y-28149D02*
X60019Y-28228D01*
X68681Y-28228D02*
X64350Y-28228D01*
G54D42*
X53538Y-36216D02*
X54000Y-36216D01*
G54D44*
X70472Y-51968D02*
X70931Y-51968D01*
X55984Y-36216D02*
X56397Y-35802D01*
X54000Y-36216D02*
X55984Y-36216D01*
X62100Y-32600D02*
X62100Y-28228D01*
X59519Y-35181D02*
X62100Y-32600D01*
X57019Y-35181D02*
X58400Y-35181D01*
X56397Y-35802D02*
X57019Y-35181D01*
X58400Y-35181D02*
X59519Y-35181D01*
G54D42*
X55300Y-31677D02*
X55413Y-31791D01*
X55413Y-31791D02*
X55413Y-33169D01*
X55300Y-29250D02*
X55300Y-31677D01*
X55413Y-34645D02*
X56483Y-35716D01*
X56483Y-35716D02*
X56483Y-35617D01*
X56483Y-35617D02*
X56397Y-35531D01*
X56397Y-35531D02*
X56397Y-35802D01*
X55413Y-33169D02*
X55413Y-34645D01*
G54D41*
X41001Y-27025D02*
X44980Y-31003D01*
X44980Y-31003D02*
X53937Y-31003D01*
X53937Y-31003D02*
X54611Y-31677D01*
X54611Y-31677D02*
X55300Y-31677D01*
X39550Y-27025D02*
X41001Y-27025D01*
G54D45*
X71948Y-29429D02*
X71555Y-29035D01*
X71948Y-28641D02*
X72342Y-29035D01*
X71948Y-51377D02*
X71555Y-51771D01*
X71948Y-52165D02*
X71948Y-51771D01*
X71948Y-51771D02*
X72342Y-51771D01*
G54D43*
X39850Y-31550D02*
X38600Y-31550D01*
X38300Y-31850D02*
X35400Y-31850D01*
X38600Y-31550D02*
X38300Y-31850D01*
G54D45*
X35400Y-31025D02*
X35400Y-31850D01*
X35075Y-32175D02*
X34550Y-32175D01*
X35400Y-31850D02*
X35075Y-32175D01*
G54D41*
X31150Y-32850D02*
X32850Y-32850D01*
X34550Y-32500D02*
X34550Y-32175D01*
X34400Y-32650D02*
X34550Y-32500D01*
X33050Y-32650D02*
X34400Y-32650D01*
X32850Y-32850D02*
X33050Y-32650D01*
G54D42*
X38375Y-45700D02*
X38375Y-46975D01*
X38375Y-46975D02*
X38400Y-47000D01*
X37200Y-47000D02*
X38400Y-47000D01*
X51968Y-40569D02*
X51968Y-40118D01*
X50787Y-38937D02*
X50787Y-38188D01*
X51968Y-40118D02*
X50787Y-38937D01*
X53404Y-45118D02*
X52007Y-45118D01*
X52007Y-45118D02*
X51968Y-45078D01*
X51968Y-45687D02*
X51968Y-45078D01*
X52025Y-45300D02*
X51968Y-45300D01*
X51968Y-43682D02*
X51968Y-45300D01*
X51968Y-45078D02*
X52025Y-45135D01*
X52025Y-45135D02*
X52025Y-45300D01*
X53404Y-45118D02*
X53404Y-46429D01*
X54000Y-47025D02*
X54000Y-48416D01*
X53404Y-46429D02*
X54000Y-47025D01*
G54D44*
X49606Y-45078D02*
X52559Y-45078D01*
G54D42*
X53955Y-48371D02*
X54000Y-48416D01*
X52598Y-45118D02*
X52559Y-45078D01*
G54D44*
X52559Y-45078D02*
X53031Y-45078D01*
X53031Y-45078D02*
X53070Y-45039D01*
G54D42*
X53404Y-45118D02*
X52598Y-45118D01*
X51968Y-46437D02*
X51968Y-46881D01*
X50787Y-47287D02*
X50787Y-48425D01*
X50900Y-47175D02*
X50787Y-47287D01*
X51675Y-47175D02*
X50900Y-47175D01*
X51968Y-46881D02*
X51675Y-47175D01*
X66875Y-36400D02*
X69100Y-36400D01*
X65575Y-36400D02*
X66875Y-36400D01*
G54D41*
X68159Y-54970D02*
X66861Y-54970D01*
X36822Y-43700D02*
X36822Y-44222D01*
X37625Y-45025D02*
X37625Y-45700D01*
X36822Y-44222D02*
X37625Y-45025D01*
X36822Y-42700D02*
X35625Y-42700D01*
X35625Y-42700D02*
X35600Y-42725D01*
G54D42*
X39500Y-43575D02*
X39650Y-43575D01*
X39650Y-43575D02*
X39675Y-43600D01*
X39675Y-43600D02*
X39500Y-43575D01*
X43307Y-45078D02*
X41853Y-45078D01*
X39650Y-43575D02*
X39675Y-43600D01*
X39675Y-43600D02*
X39900Y-43600D01*
X41378Y-45078D02*
X41853Y-45078D01*
X39900Y-43600D02*
X41378Y-45078D01*
G54D41*
X38200Y-43700D02*
X38650Y-43700D01*
X38775Y-43575D02*
X39500Y-43575D01*
X38650Y-43700D02*
X38775Y-43575D01*
G54D42*
X44800Y-54800D02*
X50400Y-54800D01*
X43307Y-45078D02*
X43307Y-46907D01*
X50787Y-54412D02*
X50787Y-53149D01*
X44000Y-54000D02*
X44800Y-54800D01*
X44000Y-47600D02*
X44000Y-54000D01*
X43307Y-46907D02*
X44000Y-47600D01*
X50400Y-54800D02*
X50787Y-54412D01*
X57775Y-29232D02*
X56793Y-28250D01*
X56793Y-28250D02*
X55300Y-28250D01*
X57775Y-33169D02*
X57775Y-29232D01*
G54D44*
X54881Y-41496D02*
X54566Y-41496D01*
G54D42*
X54154Y-41496D02*
X54881Y-41496D01*
G54D44*
X56596Y-41496D02*
X54881Y-41496D01*
X57029Y-41929D02*
X56596Y-41496D01*
X59448Y-41929D02*
X57029Y-41929D01*
G54D42*
X54154Y-45118D02*
X54960Y-45118D01*
G54D44*
X54960Y-45118D02*
X54566Y-45118D01*
X56881Y-45118D02*
X54960Y-45118D01*
X57314Y-44685D02*
X56881Y-45118D01*
X59448Y-44685D02*
X57314Y-44685D01*
G54D42*
X58762Y-26769D02*
X58281Y-27250D01*
X58281Y-27250D02*
X55300Y-27250D01*
X58762Y-25787D02*
X58762Y-26769D01*
X59778Y-25787D02*
X59790Y-25775D01*
X58762Y-25787D02*
X59778Y-25787D01*
X61400Y-36600D02*
X61600Y-36400D01*
X61600Y-36400D02*
X63300Y-36400D01*
X61400Y-37100D02*
X61400Y-36600D01*
X63300Y-36400D02*
X64825Y-36400D01*
X32200Y-47000D02*
X34700Y-47000D01*
X34700Y-47000D02*
X36000Y-47000D01*
X59400Y-38300D02*
X59400Y-40027D01*
X59400Y-40027D02*
X59429Y-40057D01*
X59448Y-38348D02*
X59400Y-38300D01*
X59400Y-38300D02*
X61400Y-38300D01*
G54D43*
X35500Y-37800D02*
X35500Y-36750D01*
X34650Y-37825D02*
X35475Y-37825D01*
X35475Y-37825D02*
X35500Y-37800D01*
G54D45*
X34675Y-37800D02*
X34650Y-37825D01*
X36250Y-37800D02*
X35500Y-37800D01*
G54D43*
X40450Y-31550D02*
X41250Y-31550D01*
X42100Y-30575D02*
X41275Y-30575D01*
X41275Y-30575D02*
X41250Y-30550D01*
X41250Y-30550D02*
X41250Y-31550D01*
X41250Y-31550D02*
X41250Y-32950D01*
G54D45*
X37050Y-37540D02*
X37050Y-36875D01*
G54D41*
X38750Y-34800D02*
X37075Y-36475D01*
X37075Y-36475D02*
X37075Y-36850D01*
X38750Y-34800D02*
X38750Y-33275D01*
G54D45*
X37050Y-36875D02*
X37075Y-36850D01*
G54D41*
X36350Y-33325D02*
X35500Y-33325D01*
X37150Y-33325D02*
X36350Y-33325D01*
X37950Y-33325D02*
X37150Y-33325D01*
X37950Y-33325D02*
X38700Y-33325D01*
X38700Y-33325D02*
X38750Y-33275D01*
G54D45*
X37982Y-26892D02*
X37982Y-27467D01*
G54D43*
X32850Y-28400D02*
X33250Y-28000D01*
X33250Y-28000D02*
X37550Y-28000D01*
X37550Y-28000D02*
X37950Y-27600D01*
X37950Y-27600D02*
X37950Y-27500D01*
X32850Y-28400D02*
X32850Y-30200D01*
G54D45*
X37982Y-27467D02*
X37950Y-27500D01*
X37982Y-26892D02*
X38657Y-26892D01*
X38657Y-26892D02*
X38700Y-26850D01*
G54D43*
X39550Y-26275D02*
X38725Y-26275D01*
X38725Y-26275D02*
X38700Y-26250D01*
G54D45*
X37925Y-25450D02*
X37925Y-26067D01*
X37925Y-26067D02*
X37982Y-26125D01*
X37982Y-26125D02*
X38575Y-26125D01*
X38575Y-26125D02*
X38700Y-26250D01*
G54D43*
X41850Y-31550D02*
X42250Y-31550D01*
X42250Y-31550D02*
X42250Y-32950D01*
X42750Y-31550D02*
X41850Y-31550D01*
G54D41*
X41250Y-29950D02*
X38125Y-29950D01*
X38125Y-29950D02*
X38000Y-29825D01*
X33750Y-25725D02*
X33275Y-25725D01*
X34625Y-28725D02*
X36375Y-28725D01*
X34500Y-28600D02*
X34625Y-28725D01*
X33100Y-27250D02*
X33350Y-27500D01*
X33100Y-25900D02*
X33100Y-27250D01*
X33275Y-25725D02*
X33100Y-25900D01*
X36400Y-32500D02*
X37950Y-32500D01*
X34300Y-36200D02*
X34300Y-33450D01*
X34300Y-33450D02*
X35250Y-32500D01*
X35250Y-32500D02*
X36400Y-32500D01*
X38000Y-30600D02*
X38000Y-29825D01*
X37950Y-32500D02*
X38000Y-32450D01*
X38000Y-29825D02*
X38000Y-29400D01*
X36400Y-28700D02*
X36375Y-28725D01*
X37300Y-28700D02*
X36400Y-28700D01*
X38000Y-29400D02*
X37300Y-28700D01*
X36375Y-28725D02*
X36375Y-29450D01*
X35500Y-36150D02*
X34350Y-36150D01*
X34350Y-36150D02*
X34300Y-36200D01*
X33600Y-36700D02*
X33950Y-36700D01*
X34300Y-36350D02*
X34300Y-36200D01*
X33950Y-36700D02*
X34300Y-36350D01*
G54D45*
X36375Y-29450D02*
X36375Y-30250D01*
X36375Y-30250D02*
X36400Y-30275D01*
X36250Y-26125D02*
X36250Y-25850D01*
X36150Y-25750D02*
X35500Y-25750D01*
X36250Y-25850D02*
X36150Y-25750D01*
G54D41*
X34650Y-25725D02*
X35475Y-25725D01*
X35475Y-25725D02*
X35500Y-25750D01*
X33750Y-25725D02*
X34650Y-25725D01*
X33600Y-36100D02*
X33600Y-35350D01*
X32485Y-36100D02*
X33600Y-36100D01*
X33600Y-34100D02*
X32485Y-34100D01*
X33600Y-34750D02*
X33600Y-34100D01*
X30550Y-32850D02*
X30550Y-34971D01*
X30550Y-34971D02*
X30678Y-35100D01*
G54D45*
X37050Y-38060D02*
X37050Y-38850D01*
G54D43*
X38300Y-38775D02*
X39150Y-38775D01*
X38250Y-37800D02*
X38250Y-38725D01*
X38250Y-38725D02*
X38300Y-38775D01*
X38250Y-37800D02*
X38925Y-37800D01*
G54D45*
X37050Y-37800D02*
X37650Y-37800D01*
G54D41*
X35500Y-26350D02*
X35500Y-26900D01*
X34650Y-26475D02*
X35025Y-26475D01*
X35150Y-26350D02*
X35500Y-26350D01*
X35025Y-26475D02*
X35150Y-26350D01*
G54D45*
X36250Y-26380D02*
X35530Y-26380D01*
X35530Y-26380D02*
X35500Y-26350D01*
G54D43*
X39675Y-37800D02*
X40150Y-37800D01*
X39900Y-41200D02*
X39300Y-41200D01*
X40450Y-40650D02*
X39900Y-41200D01*
X40450Y-38100D02*
X40450Y-40650D01*
X40150Y-37800D02*
X40450Y-38100D01*
X39675Y-37800D02*
X39675Y-33350D01*
X39675Y-33350D02*
X39600Y-33275D01*
G54D41*
X38200Y-43200D02*
X37650Y-43200D01*
X37500Y-43050D02*
X37500Y-41200D01*
X37650Y-43200D02*
X37500Y-43050D01*
G54D43*
X36250Y-37204D02*
X35925Y-37204D01*
X31139Y-40960D02*
X33744Y-40960D01*
X33744Y-40960D02*
X34055Y-40649D01*
X34055Y-40649D02*
X34055Y-39370D01*
X34055Y-39370D02*
X33562Y-38877D01*
X33562Y-38877D02*
X33562Y-37598D01*
X33562Y-37598D02*
X33956Y-37204D01*
X33956Y-37204D02*
X35039Y-37204D01*
X35925Y-37204D02*
X35925Y-37204D01*
X36250Y-36750D02*
X36250Y-36879D01*
X36250Y-36879D02*
X36220Y-36909D01*
X36220Y-36909D02*
X36250Y-36909D01*
G54D45*
X36250Y-36750D02*
X36250Y-36909D01*
X36250Y-36909D02*
X36250Y-37204D01*
X36250Y-37204D02*
X36250Y-37204D01*
X36250Y-37204D02*
X36250Y-37540D01*
G54D42*
X44164Y-25520D02*
X44488Y-25196D01*
X44488Y-25196D02*
X54724Y-25196D01*
X54724Y-25196D02*
X55314Y-25787D01*
X55314Y-25787D02*
X57182Y-25787D01*
X44164Y-27209D02*
X44164Y-25520D01*
G54D10*
G36*
X72519Y-47342D02*
X67421Y-47342D01*
X67421Y-38681D01*
X72519Y-38681D01*
X72519Y-47342D01*
X72519Y-47342D01*
G37*
G54D41*
X72519Y-47342D02*
X67421Y-47342D01*
X67421Y-38681D01*
X72519Y-38681D01*
X72519Y-47342D01*
M02*
