M48
INCH,TZ
T1C0.025
T2C0.106
T3C0.138
%
G90
G05
T1
X030512Y-042992
X030630Y-037008
X031299Y-037874
X031600Y-049200
X031600Y-052200
X031750Y-039950
X032000Y-029250
X032000Y-031250
X032500Y-042500
X033071Y-045945
X033400Y-049200
X033400Y-052200
X033600Y-033050
X033700Y-038100
X034000Y-026500
X034000Y-027000
X034000Y-027500
X034000Y-028000
X034300Y-037200
X034500Y-026500
X034500Y-027000
X034500Y-027500
X034500Y-028000
X034550Y-030950
X034600Y-030500
X034650Y-039150
X034975Y-043500
X035000Y-026500
X035000Y-027000
X035000Y-027500
X035000Y-028000
X035000Y-048800
X035000Y-049200
X035000Y-049600
X035000Y-050000
X035050Y-029450
X035400Y-041200
X035400Y-048800
X035400Y-049200
X035400Y-049600
X035400Y-050000
X035500Y-026500
X035500Y-027000
X035500Y-027500
X035500Y-028000
X035500Y-034700
X035600Y-038300
X035800Y-028800
X035800Y-048800
X035800Y-049200
X035800Y-049600
X035800Y-050000
X036050Y-038900
X036200Y-048800
X036200Y-050000
X036350Y-034600
X036600Y-048800
X036600Y-050000
X037100Y-034600
X037350Y-029750
X037900Y-027300
X037900Y-028300
X038000Y-030600
X038000Y-032450
X038000Y-034600
X038300Y-025600
X038500Y-031000
X038500Y-032500
X038625Y-036275
X038675Y-038425
X039700Y-029100
X040000Y-032500
X040000Y-037500
X040200Y-025500
X040500Y-033000
X040750Y-037250
X042008Y-037244
X042100Y-029200
X043035Y-028115
X043350Y-031050
X045000Y-034000
X045000Y-034500
X045000Y-035000
X045000Y-035500
X045000Y-051000
X045000Y-051500
X045000Y-052000
X045000Y-052500
X048000Y-034000
X048000Y-034500
X048000Y-035000
X048000Y-035500
X048000Y-051000
X048000Y-051500
X048000Y-052000
X048000Y-052500
X053622Y-033622
X053622Y-052992
X058050Y-046575
X058200Y-043300
X058661Y-043307
X058661Y-046457
X059400Y-036600
X059449Y-043307
X059449Y-046457
X060020Y-032480
X061065Y-025751
X061811Y-047795
X063300Y-034500
X064350Y-032480
X065305Y-054970
X066850Y-048819
X068000Y-039000
X068000Y-040000
X068000Y-041000
X068000Y-042000
X068000Y-043000
X068000Y-044000
X068000Y-045000
X068000Y-046000
X068000Y-047000
X068200Y-034700
X068200Y-038100
X068681Y-032559
X069000Y-039000
X069000Y-040000
X069000Y-041000
X069000Y-042000
X069000Y-043000
X069000Y-044000
X069000Y-045000
X069000Y-046000
X069000Y-047000
X070000Y-034700
X070000Y-040000
X070000Y-041000
X070000Y-042000
X070000Y-043000
X070000Y-044000
X070000Y-045000
X070000Y-046000
X070000Y-047000
X070079Y-038976
X070100Y-038200
X070472Y-047795
X071555Y-029035
X071555Y-051772
X071949Y-028642
X071949Y-029035
X071949Y-029429
X071949Y-051378
X071949Y-051772
X071949Y-052165
X072343Y-029035
X072343Y-051772
T2
X046450Y-034825
X046450Y-051750
T3
X031496Y-026339
X031496Y-054331
X071220Y-026378
X071260Y-054331
T0
M30
