M48
;DRILL file {Pcbnew (2014-03-13 BZR 4745)-product} date Fri Apr 11 13:40:43 2014
;FORMAT={-:-/ absolute / inch / decimal}
FMAT,2
INCH,TZ
T1C0.025
T2C0.032
T3C0.039
T4C0.055
%
G90
G05
M72
T1
X3.93Y-2.39
X4.025Y-3.05
X4.025Y-3.4
X4.23Y-1.94
X4.38Y-1.93
X4.46Y-1.93
X5.71Y-2.18
X5.8Y-2.17
X5.9Y-2.17
X6.3Y-3.05
X6.3Y-3.4
X6.31Y-2.04
T2
X4.645Y-2.045
X4.645Y-2.145
X4.645Y-2.245
X4.8365Y-2.6685
X4.855Y-2.045
X4.855Y-2.145
X4.855Y-2.245
X5.3365Y-2.6685
X5.67Y-2.03
X5.77Y-2.03
T4
X4.3908Y-2.4508
X4.6692Y-2.7292
X5.5395Y-2.5861
X5.5395Y-2.9799
T3
X5.035Y-2.1467G85X5.035Y-2.2254
G05
X5.2593Y-2.0679G85X5.1806Y-2.0679
G05
X5.2593Y-2.3041G85X5.1806Y-2.3041
G05
T0
M30
