%FSLAX34Y34*%
G04 Gerber Fmt 3.4, Leading zero omitted, Abs format*
G04 (created by PCBNEW (2014-03-19 BZR 4756)-product) date Fri 19 Dec 2014 02:11:26 PM AKST*
%MOIN*%
G01*
G70*
G90*
G04 APERTURE LIST*
%ADD10C,0.005906*%
%ADD11C,0.009843*%
%ADD12C,0.011811*%
G04 APERTURE END LIST*
G54D10*
G54D11*
X60811Y-36239D02*
X60811Y-36389D01*
X61073Y-36295D02*
X60736Y-36295D01*
X60698Y-36314D01*
X60680Y-36351D01*
X60680Y-36389D01*
X61073Y-36576D02*
X61055Y-36539D01*
X61036Y-36520D01*
X60998Y-36501D01*
X60886Y-36501D01*
X60848Y-36520D01*
X60830Y-36539D01*
X60811Y-36576D01*
X60811Y-36632D01*
X60830Y-36670D01*
X60848Y-36689D01*
X60886Y-36707D01*
X60998Y-36707D01*
X61036Y-36689D01*
X61055Y-36670D01*
X61073Y-36632D01*
X61073Y-36576D01*
X61073Y-36876D02*
X60811Y-36876D01*
X60886Y-36876D02*
X60848Y-36895D01*
X60830Y-36914D01*
X60811Y-36951D01*
X60811Y-36989D01*
X61055Y-37401D02*
X61073Y-37439D01*
X61073Y-37514D01*
X61055Y-37551D01*
X61017Y-37570D01*
X60998Y-37570D01*
X60961Y-37551D01*
X60942Y-37514D01*
X60942Y-37457D01*
X60923Y-37420D01*
X60886Y-37401D01*
X60867Y-37401D01*
X60830Y-37420D01*
X60811Y-37457D01*
X60811Y-37514D01*
X60830Y-37551D01*
X61055Y-37907D02*
X61073Y-37870D01*
X61073Y-37795D01*
X61055Y-37757D01*
X61036Y-37739D01*
X60998Y-37720D01*
X60886Y-37720D01*
X60848Y-37739D01*
X60830Y-37757D01*
X60811Y-37795D01*
X60811Y-37870D01*
X60830Y-37907D01*
X61073Y-38076D02*
X60680Y-38076D01*
X61073Y-38245D02*
X60867Y-38245D01*
X60830Y-38226D01*
X60811Y-38188D01*
X60811Y-38132D01*
X60830Y-38095D01*
X60848Y-38076D01*
X61055Y-38582D02*
X61073Y-38545D01*
X61073Y-38470D01*
X61055Y-38432D01*
X61017Y-38413D01*
X60867Y-38413D01*
X60830Y-38432D01*
X60811Y-38470D01*
X60811Y-38545D01*
X60830Y-38582D01*
X60867Y-38601D01*
X60905Y-38601D01*
X60942Y-38413D01*
X61073Y-38770D02*
X60811Y-38770D01*
X60848Y-38770D02*
X60830Y-38788D01*
X60811Y-38826D01*
X60811Y-38882D01*
X60830Y-38920D01*
X60867Y-38938D01*
X61073Y-38938D01*
X60867Y-38938D02*
X60830Y-38957D01*
X60811Y-38995D01*
X60811Y-39051D01*
X60830Y-39088D01*
X60867Y-39107D01*
X61073Y-39107D01*
X61073Y-39463D02*
X60867Y-39463D01*
X60830Y-39445D01*
X60811Y-39407D01*
X60811Y-39332D01*
X60830Y-39295D01*
X61055Y-39463D02*
X61073Y-39426D01*
X61073Y-39332D01*
X61055Y-39295D01*
X61017Y-39276D01*
X60980Y-39276D01*
X60942Y-39295D01*
X60923Y-39332D01*
X60923Y-39426D01*
X60905Y-39463D01*
X60811Y-39595D02*
X60811Y-39745D01*
X60680Y-39651D02*
X61017Y-39651D01*
X61055Y-39670D01*
X61073Y-39707D01*
X61073Y-39745D01*
X61073Y-39876D02*
X60811Y-39876D01*
X60680Y-39876D02*
X60698Y-39857D01*
X60717Y-39876D01*
X60698Y-39895D01*
X60680Y-39876D01*
X60717Y-39876D01*
X61055Y-40232D02*
X61073Y-40194D01*
X61073Y-40119D01*
X61055Y-40082D01*
X61036Y-40063D01*
X60998Y-40044D01*
X60886Y-40044D01*
X60848Y-40063D01*
X60830Y-40082D01*
X60811Y-40119D01*
X60811Y-40194D01*
X60830Y-40232D01*
X61055Y-40382D02*
X61073Y-40419D01*
X61073Y-40494D01*
X61055Y-40532D01*
X61017Y-40551D01*
X60998Y-40551D01*
X60961Y-40532D01*
X60942Y-40494D01*
X60942Y-40438D01*
X60923Y-40401D01*
X60886Y-40382D01*
X60867Y-40382D01*
X60830Y-40401D01*
X60811Y-40438D01*
X60811Y-40494D01*
X60830Y-40532D01*
X61073Y-41188D02*
X60867Y-41188D01*
X60830Y-41169D01*
X60811Y-41132D01*
X60811Y-41057D01*
X60830Y-41019D01*
X61055Y-41188D02*
X61073Y-41151D01*
X61073Y-41057D01*
X61055Y-41019D01*
X61017Y-41001D01*
X60980Y-41001D01*
X60942Y-41019D01*
X60923Y-41057D01*
X60923Y-41151D01*
X60905Y-41188D01*
X60811Y-41376D02*
X61073Y-41376D01*
X60848Y-41376D02*
X60830Y-41394D01*
X60811Y-41432D01*
X60811Y-41488D01*
X60830Y-41526D01*
X60867Y-41544D01*
X61073Y-41544D01*
X61073Y-41901D02*
X60680Y-41901D01*
X61055Y-41901D02*
X61073Y-41863D01*
X61073Y-41788D01*
X61055Y-41751D01*
X61036Y-41732D01*
X60998Y-41713D01*
X60886Y-41713D01*
X60848Y-41732D01*
X60830Y-41751D01*
X60811Y-41788D01*
X60811Y-41863D01*
X60830Y-41901D01*
X61073Y-42388D02*
X60680Y-42388D01*
X60830Y-42388D02*
X60811Y-42425D01*
X60811Y-42500D01*
X60830Y-42538D01*
X60848Y-42557D01*
X60886Y-42575D01*
X60998Y-42575D01*
X61036Y-42557D01*
X61055Y-42538D01*
X61073Y-42500D01*
X61073Y-42425D01*
X61055Y-42388D01*
X61073Y-42800D02*
X61055Y-42763D01*
X61036Y-42744D01*
X60998Y-42725D01*
X60886Y-42725D01*
X60848Y-42744D01*
X60830Y-42763D01*
X60811Y-42800D01*
X60811Y-42857D01*
X60830Y-42894D01*
X60848Y-42913D01*
X60886Y-42932D01*
X60998Y-42932D01*
X61036Y-42913D01*
X61055Y-42894D01*
X61073Y-42857D01*
X61073Y-42800D01*
X61073Y-43269D02*
X60867Y-43269D01*
X60830Y-43250D01*
X60811Y-43213D01*
X60811Y-43138D01*
X60830Y-43100D01*
X61055Y-43269D02*
X61073Y-43232D01*
X61073Y-43138D01*
X61055Y-43100D01*
X61017Y-43082D01*
X60980Y-43082D01*
X60942Y-43100D01*
X60923Y-43138D01*
X60923Y-43232D01*
X60905Y-43269D01*
X61073Y-43457D02*
X60811Y-43457D01*
X60886Y-43457D02*
X60848Y-43475D01*
X60830Y-43494D01*
X60811Y-43532D01*
X60811Y-43569D01*
X61073Y-43869D02*
X60680Y-43869D01*
X61055Y-43869D02*
X61073Y-43832D01*
X61073Y-43757D01*
X61055Y-43719D01*
X61036Y-43700D01*
X60998Y-43682D01*
X60886Y-43682D01*
X60848Y-43700D01*
X60830Y-43719D01*
X60811Y-43757D01*
X60811Y-43832D01*
X60830Y-43869D01*
X61073Y-44413D02*
X61055Y-44375D01*
X61017Y-44356D01*
X60680Y-44356D01*
X61073Y-44731D02*
X60867Y-44731D01*
X60830Y-44713D01*
X60811Y-44675D01*
X60811Y-44600D01*
X60830Y-44563D01*
X61055Y-44731D02*
X61073Y-44694D01*
X61073Y-44600D01*
X61055Y-44563D01*
X61017Y-44544D01*
X60980Y-44544D01*
X60942Y-44563D01*
X60923Y-44600D01*
X60923Y-44694D01*
X60905Y-44731D01*
X60811Y-44881D02*
X61073Y-44975D01*
X60811Y-45069D02*
X61073Y-44975D01*
X61167Y-44938D01*
X61186Y-44919D01*
X61205Y-44881D01*
X61073Y-45275D02*
X61055Y-45238D01*
X61036Y-45219D01*
X60998Y-45200D01*
X60886Y-45200D01*
X60848Y-45219D01*
X60830Y-45238D01*
X60811Y-45275D01*
X60811Y-45331D01*
X60830Y-45369D01*
X60848Y-45388D01*
X60886Y-45406D01*
X60998Y-45406D01*
X61036Y-45388D01*
X61055Y-45369D01*
X61073Y-45331D01*
X61073Y-45275D01*
X60811Y-45744D02*
X61073Y-45744D01*
X60811Y-45575D02*
X61017Y-45575D01*
X61055Y-45594D01*
X61073Y-45631D01*
X61073Y-45688D01*
X61055Y-45725D01*
X61036Y-45744D01*
X60811Y-45875D02*
X60811Y-46025D01*
X60680Y-45931D02*
X61017Y-45931D01*
X61055Y-45950D01*
X61073Y-45988D01*
X61073Y-46025D01*
X61055Y-46137D02*
X61073Y-46175D01*
X61073Y-46250D01*
X61055Y-46287D01*
X61017Y-46306D01*
X60998Y-46306D01*
X60961Y-46287D01*
X60942Y-46250D01*
X60942Y-46194D01*
X60923Y-46156D01*
X60886Y-46137D01*
X60867Y-46137D01*
X60830Y-46156D01*
X60811Y-46194D01*
X60811Y-46250D01*
X60830Y-46287D01*
X61055Y-46494D02*
X61073Y-46494D01*
X61111Y-46475D01*
X61130Y-46456D01*
X61055Y-46944D02*
X61073Y-46981D01*
X61073Y-47056D01*
X61055Y-47094D01*
X61017Y-47112D01*
X60998Y-47112D01*
X60961Y-47094D01*
X60942Y-47056D01*
X60942Y-47000D01*
X60923Y-46962D01*
X60886Y-46944D01*
X60867Y-46944D01*
X60830Y-46962D01*
X60811Y-47000D01*
X60811Y-47056D01*
X60830Y-47094D01*
X61055Y-47431D02*
X61073Y-47394D01*
X61073Y-47319D01*
X61055Y-47281D01*
X61017Y-47262D01*
X60867Y-47262D01*
X60830Y-47281D01*
X60811Y-47319D01*
X60811Y-47394D01*
X60830Y-47431D01*
X60867Y-47450D01*
X60905Y-47450D01*
X60942Y-47262D01*
X61055Y-47769D02*
X61073Y-47731D01*
X61073Y-47656D01*
X61055Y-47619D01*
X61017Y-47600D01*
X60867Y-47600D01*
X60830Y-47619D01*
X60811Y-47656D01*
X60811Y-47731D01*
X60830Y-47769D01*
X60867Y-47787D01*
X60905Y-47787D01*
X60942Y-47600D01*
X61036Y-47956D02*
X61055Y-47975D01*
X61073Y-47956D01*
X61055Y-47937D01*
X61036Y-47956D01*
X61073Y-47956D01*
X60830Y-47956D02*
X60848Y-47975D01*
X60867Y-47956D01*
X60848Y-47937D01*
X60830Y-47956D01*
X60867Y-47956D01*
X61723Y-30755D02*
X61329Y-30755D01*
X61723Y-30924D02*
X61517Y-30924D01*
X61479Y-30905D01*
X61460Y-30868D01*
X61460Y-30811D01*
X61479Y-30774D01*
X61498Y-30755D01*
X61460Y-31055D02*
X61460Y-31205D01*
X61329Y-31111D02*
X61667Y-31111D01*
X61704Y-31130D01*
X61723Y-31167D01*
X61723Y-31205D01*
X61460Y-31280D02*
X61460Y-31430D01*
X61329Y-31336D02*
X61667Y-31336D01*
X61704Y-31355D01*
X61723Y-31392D01*
X61723Y-31430D01*
X61460Y-31561D02*
X61854Y-31561D01*
X61479Y-31561D02*
X61460Y-31599D01*
X61460Y-31674D01*
X61479Y-31711D01*
X61498Y-31730D01*
X61535Y-31749D01*
X61648Y-31749D01*
X61685Y-31730D01*
X61704Y-31711D01*
X61723Y-31674D01*
X61723Y-31599D01*
X61704Y-31561D01*
X61704Y-31899D02*
X61723Y-31936D01*
X61723Y-32011D01*
X61704Y-32049D01*
X61667Y-32067D01*
X61648Y-32067D01*
X61610Y-32049D01*
X61592Y-32011D01*
X61592Y-31955D01*
X61573Y-31917D01*
X61535Y-31899D01*
X61517Y-31899D01*
X61479Y-31917D01*
X61460Y-31955D01*
X61460Y-32011D01*
X61479Y-32049D01*
X61685Y-32236D02*
X61704Y-32255D01*
X61723Y-32236D01*
X61704Y-32217D01*
X61685Y-32236D01*
X61723Y-32236D01*
X61479Y-32236D02*
X61498Y-32255D01*
X61517Y-32236D01*
X61498Y-32217D01*
X61479Y-32236D01*
X61517Y-32236D01*
X61310Y-32705D02*
X61817Y-32367D01*
X61310Y-33117D02*
X61817Y-32780D01*
X61460Y-33417D02*
X61779Y-33417D01*
X61817Y-33398D01*
X61835Y-33380D01*
X61854Y-33342D01*
X61854Y-33286D01*
X61835Y-33248D01*
X61704Y-33417D02*
X61723Y-33380D01*
X61723Y-33305D01*
X61704Y-33267D01*
X61685Y-33248D01*
X61648Y-33230D01*
X61535Y-33230D01*
X61498Y-33248D01*
X61479Y-33267D01*
X61460Y-33305D01*
X61460Y-33380D01*
X61479Y-33417D01*
X61723Y-33605D02*
X61460Y-33605D01*
X61329Y-33605D02*
X61348Y-33586D01*
X61367Y-33605D01*
X61348Y-33623D01*
X61329Y-33605D01*
X61367Y-33605D01*
X61460Y-33736D02*
X61460Y-33886D01*
X61329Y-33792D02*
X61667Y-33792D01*
X61704Y-33811D01*
X61723Y-33848D01*
X61723Y-33886D01*
X61723Y-34017D02*
X61329Y-34017D01*
X61723Y-34186D02*
X61517Y-34186D01*
X61479Y-34167D01*
X61460Y-34130D01*
X61460Y-34073D01*
X61479Y-34036D01*
X61498Y-34017D01*
X61460Y-34542D02*
X61723Y-34542D01*
X61460Y-34373D02*
X61667Y-34373D01*
X61704Y-34392D01*
X61723Y-34430D01*
X61723Y-34486D01*
X61704Y-34523D01*
X61685Y-34542D01*
X61723Y-34730D02*
X61329Y-34730D01*
X61479Y-34730D02*
X61460Y-34767D01*
X61460Y-34842D01*
X61479Y-34880D01*
X61498Y-34898D01*
X61535Y-34917D01*
X61648Y-34917D01*
X61685Y-34898D01*
X61704Y-34880D01*
X61723Y-34842D01*
X61723Y-34767D01*
X61704Y-34730D01*
X61685Y-35086D02*
X61704Y-35104D01*
X61723Y-35086D01*
X61704Y-35067D01*
X61685Y-35086D01*
X61723Y-35086D01*
X61704Y-35442D02*
X61723Y-35404D01*
X61723Y-35329D01*
X61704Y-35292D01*
X61685Y-35273D01*
X61648Y-35254D01*
X61535Y-35254D01*
X61498Y-35273D01*
X61479Y-35292D01*
X61460Y-35329D01*
X61460Y-35404D01*
X61479Y-35442D01*
X61723Y-35667D02*
X61704Y-35629D01*
X61685Y-35611D01*
X61648Y-35592D01*
X61535Y-35592D01*
X61498Y-35611D01*
X61479Y-35629D01*
X61460Y-35667D01*
X61460Y-35723D01*
X61479Y-35761D01*
X61498Y-35779D01*
X61535Y-35798D01*
X61648Y-35798D01*
X61685Y-35779D01*
X61704Y-35761D01*
X61723Y-35723D01*
X61723Y-35667D01*
X61723Y-35967D02*
X61460Y-35967D01*
X61498Y-35967D02*
X61479Y-35986D01*
X61460Y-36023D01*
X61460Y-36079D01*
X61479Y-36117D01*
X61517Y-36136D01*
X61723Y-36136D01*
X61517Y-36136D02*
X61479Y-36154D01*
X61460Y-36192D01*
X61460Y-36248D01*
X61479Y-36286D01*
X61517Y-36304D01*
X61723Y-36304D01*
X61310Y-36773D02*
X61817Y-36436D01*
X61723Y-36961D02*
X61704Y-36923D01*
X61667Y-36904D01*
X61329Y-36904D01*
X61723Y-37167D02*
X61704Y-37129D01*
X61685Y-37110D01*
X61648Y-37092D01*
X61535Y-37092D01*
X61498Y-37110D01*
X61479Y-37129D01*
X61460Y-37167D01*
X61460Y-37223D01*
X61479Y-37260D01*
X61498Y-37279D01*
X61535Y-37298D01*
X61648Y-37298D01*
X61685Y-37279D01*
X61704Y-37260D01*
X61723Y-37223D01*
X61723Y-37167D01*
X61723Y-37429D02*
X61460Y-37635D01*
X61460Y-37429D02*
X61723Y-37635D01*
X61723Y-37842D02*
X61704Y-37804D01*
X61685Y-37785D01*
X61648Y-37767D01*
X61535Y-37767D01*
X61498Y-37785D01*
X61479Y-37804D01*
X61460Y-37842D01*
X61460Y-37898D01*
X61479Y-37935D01*
X61498Y-37954D01*
X61535Y-37973D01*
X61648Y-37973D01*
X61685Y-37954D01*
X61704Y-37935D01*
X61723Y-37898D01*
X61723Y-37842D01*
X61723Y-38310D02*
X61329Y-38310D01*
X61704Y-38310D02*
X61723Y-38273D01*
X61723Y-38198D01*
X61704Y-38160D01*
X61685Y-38142D01*
X61648Y-38123D01*
X61535Y-38123D01*
X61498Y-38142D01*
X61479Y-38160D01*
X61460Y-38198D01*
X61460Y-38273D01*
X61479Y-38310D01*
X61704Y-38648D02*
X61723Y-38610D01*
X61723Y-38535D01*
X61704Y-38498D01*
X61667Y-38479D01*
X61517Y-38479D01*
X61479Y-38498D01*
X61460Y-38535D01*
X61460Y-38610D01*
X61479Y-38648D01*
X61517Y-38667D01*
X61554Y-38667D01*
X61592Y-38479D01*
X61704Y-38817D02*
X61723Y-38854D01*
X61723Y-38929D01*
X61704Y-38967D01*
X61667Y-38985D01*
X61648Y-38985D01*
X61610Y-38967D01*
X61592Y-38929D01*
X61592Y-38873D01*
X61573Y-38835D01*
X61535Y-38817D01*
X61517Y-38817D01*
X61479Y-38835D01*
X61460Y-38873D01*
X61460Y-38929D01*
X61479Y-38967D01*
X61310Y-39435D02*
X61817Y-39098D01*
X61704Y-39548D02*
X61723Y-39604D01*
X61723Y-39698D01*
X61704Y-39735D01*
X61685Y-39754D01*
X61648Y-39773D01*
X61610Y-39773D01*
X61573Y-39754D01*
X61554Y-39735D01*
X61535Y-39698D01*
X61517Y-39623D01*
X61498Y-39585D01*
X61479Y-39566D01*
X61442Y-39548D01*
X61404Y-39548D01*
X61367Y-39566D01*
X61348Y-39585D01*
X61329Y-39623D01*
X61329Y-39716D01*
X61348Y-39773D01*
X61460Y-40110D02*
X61723Y-40110D01*
X61460Y-39941D02*
X61667Y-39941D01*
X61704Y-39960D01*
X61723Y-39998D01*
X61723Y-40054D01*
X61704Y-40091D01*
X61685Y-40110D01*
X61460Y-40298D02*
X61854Y-40298D01*
X61479Y-40298D02*
X61460Y-40335D01*
X61460Y-40410D01*
X61479Y-40448D01*
X61498Y-40466D01*
X61535Y-40485D01*
X61648Y-40485D01*
X61685Y-40466D01*
X61704Y-40448D01*
X61723Y-40410D01*
X61723Y-40335D01*
X61704Y-40298D01*
X61704Y-40804D02*
X61723Y-40766D01*
X61723Y-40691D01*
X61704Y-40654D01*
X61667Y-40635D01*
X61517Y-40635D01*
X61479Y-40654D01*
X61460Y-40691D01*
X61460Y-40766D01*
X61479Y-40804D01*
X61517Y-40823D01*
X61554Y-40823D01*
X61592Y-40635D01*
X61723Y-40991D02*
X61460Y-40991D01*
X61535Y-40991D02*
X61498Y-41010D01*
X61479Y-41029D01*
X61460Y-41066D01*
X61460Y-41104D01*
X61723Y-41235D02*
X61329Y-41235D01*
X61329Y-41329D01*
X61348Y-41385D01*
X61385Y-41422D01*
X61423Y-41441D01*
X61498Y-41460D01*
X61554Y-41460D01*
X61629Y-41441D01*
X61667Y-41422D01*
X61704Y-41385D01*
X61723Y-41329D01*
X61723Y-41235D01*
X61610Y-41610D02*
X61610Y-41797D01*
X61723Y-41572D02*
X61329Y-41704D01*
X61723Y-41835D01*
X61723Y-42191D02*
X61535Y-42060D01*
X61723Y-41966D02*
X61329Y-41966D01*
X61329Y-42116D01*
X61348Y-42154D01*
X61367Y-42172D01*
X61404Y-42191D01*
X61460Y-42191D01*
X61498Y-42172D01*
X61517Y-42154D01*
X61535Y-42116D01*
X61535Y-41966D01*
X61723Y-42360D02*
X61329Y-42360D01*
X61723Y-42585D01*
X61329Y-42585D01*
X61760Y-42679D02*
X61760Y-42979D01*
X61329Y-43016D02*
X61329Y-43241D01*
X61723Y-43128D02*
X61329Y-43128D01*
X61723Y-43372D02*
X61460Y-43372D01*
X61535Y-43372D02*
X61498Y-43391D01*
X61479Y-43410D01*
X61460Y-43447D01*
X61460Y-43485D01*
X61723Y-43785D02*
X61517Y-43785D01*
X61479Y-43766D01*
X61460Y-43728D01*
X61460Y-43653D01*
X61479Y-43616D01*
X61704Y-43785D02*
X61723Y-43747D01*
X61723Y-43653D01*
X61704Y-43616D01*
X61667Y-43597D01*
X61629Y-43597D01*
X61592Y-43616D01*
X61573Y-43653D01*
X61573Y-43747D01*
X61554Y-43785D01*
X61460Y-43972D02*
X61723Y-43972D01*
X61498Y-43972D02*
X61479Y-43991D01*
X61460Y-44028D01*
X61460Y-44085D01*
X61479Y-44122D01*
X61517Y-44141D01*
X61723Y-44141D01*
X61704Y-44310D02*
X61723Y-44347D01*
X61723Y-44422D01*
X61704Y-44460D01*
X61667Y-44478D01*
X61648Y-44478D01*
X61610Y-44460D01*
X61592Y-44422D01*
X61592Y-44366D01*
X61573Y-44328D01*
X61535Y-44310D01*
X61517Y-44310D01*
X61479Y-44328D01*
X61460Y-44366D01*
X61460Y-44422D01*
X61479Y-44460D01*
X61723Y-44647D02*
X61460Y-44647D01*
X61498Y-44647D02*
X61479Y-44666D01*
X61460Y-44703D01*
X61460Y-44760D01*
X61479Y-44797D01*
X61517Y-44816D01*
X61723Y-44816D01*
X61517Y-44816D02*
X61479Y-44835D01*
X61460Y-44872D01*
X61460Y-44928D01*
X61479Y-44966D01*
X61517Y-44985D01*
X61723Y-44985D01*
X61723Y-45172D02*
X61460Y-45172D01*
X61329Y-45172D02*
X61348Y-45153D01*
X61367Y-45172D01*
X61348Y-45191D01*
X61329Y-45172D01*
X61367Y-45172D01*
X61460Y-45303D02*
X61460Y-45453D01*
X61329Y-45359D02*
X61667Y-45359D01*
X61704Y-45378D01*
X61723Y-45416D01*
X61723Y-45453D01*
X61460Y-45528D02*
X61460Y-45678D01*
X61329Y-45584D02*
X61667Y-45584D01*
X61704Y-45603D01*
X61723Y-45641D01*
X61723Y-45678D01*
X61704Y-45959D02*
X61723Y-45922D01*
X61723Y-45847D01*
X61704Y-45809D01*
X61667Y-45791D01*
X61517Y-45791D01*
X61479Y-45809D01*
X61460Y-45847D01*
X61460Y-45922D01*
X61479Y-45959D01*
X61517Y-45978D01*
X61554Y-45978D01*
X61592Y-45791D01*
X61723Y-46147D02*
X61460Y-46147D01*
X61535Y-46147D02*
X61498Y-46166D01*
X61479Y-46184D01*
X61460Y-46222D01*
X61460Y-46259D01*
X61310Y-46672D02*
X61817Y-46334D01*
X61460Y-46747D02*
X61460Y-46897D01*
X61329Y-46803D02*
X61667Y-46803D01*
X61704Y-46822D01*
X61723Y-46859D01*
X61723Y-46897D01*
X61723Y-47028D02*
X61460Y-47028D01*
X61535Y-47028D02*
X61498Y-47047D01*
X61479Y-47065D01*
X61460Y-47103D01*
X61460Y-47140D01*
X61704Y-47422D02*
X61723Y-47384D01*
X61723Y-47309D01*
X61704Y-47272D01*
X61667Y-47253D01*
X61517Y-47253D01*
X61479Y-47272D01*
X61460Y-47309D01*
X61460Y-47384D01*
X61479Y-47422D01*
X61517Y-47440D01*
X61554Y-47440D01*
X61592Y-47253D01*
X61704Y-47759D02*
X61723Y-47722D01*
X61723Y-47647D01*
X61704Y-47609D01*
X61667Y-47590D01*
X61517Y-47590D01*
X61479Y-47609D01*
X61460Y-47647D01*
X61460Y-47722D01*
X61479Y-47759D01*
X61517Y-47778D01*
X61554Y-47778D01*
X61592Y-47590D01*
X61310Y-48228D02*
X61817Y-47890D01*
X61723Y-48359D02*
X61460Y-48359D01*
X61498Y-48359D02*
X61479Y-48378D01*
X61460Y-48415D01*
X61460Y-48472D01*
X61479Y-48509D01*
X61517Y-48528D01*
X61723Y-48528D01*
X61517Y-48528D02*
X61479Y-48547D01*
X61460Y-48584D01*
X61460Y-48640D01*
X61479Y-48678D01*
X61517Y-48697D01*
X61723Y-48697D01*
X61723Y-49053D02*
X61517Y-49053D01*
X61479Y-49034D01*
X61460Y-48997D01*
X61460Y-48922D01*
X61479Y-48884D01*
X61704Y-49053D02*
X61723Y-49015D01*
X61723Y-48922D01*
X61704Y-48884D01*
X61667Y-48865D01*
X61629Y-48865D01*
X61592Y-48884D01*
X61573Y-48922D01*
X61573Y-49015D01*
X61554Y-49053D01*
X61704Y-49221D02*
X61723Y-49259D01*
X61723Y-49334D01*
X61704Y-49371D01*
X61667Y-49390D01*
X61648Y-49390D01*
X61610Y-49371D01*
X61592Y-49334D01*
X61592Y-49278D01*
X61573Y-49240D01*
X61535Y-49221D01*
X61517Y-49221D01*
X61479Y-49240D01*
X61460Y-49278D01*
X61460Y-49334D01*
X61479Y-49371D01*
X61460Y-49503D02*
X61460Y-49653D01*
X61329Y-49559D02*
X61667Y-49559D01*
X61704Y-49578D01*
X61723Y-49615D01*
X61723Y-49653D01*
X61704Y-49934D02*
X61723Y-49896D01*
X61723Y-49821D01*
X61704Y-49784D01*
X61667Y-49765D01*
X61517Y-49765D01*
X61479Y-49784D01*
X61460Y-49821D01*
X61460Y-49896D01*
X61479Y-49934D01*
X61517Y-49953D01*
X61554Y-49953D01*
X61592Y-49765D01*
X61723Y-50121D02*
X61460Y-50121D01*
X61535Y-50121D02*
X61498Y-50140D01*
X61479Y-50159D01*
X61460Y-50196D01*
X61460Y-50234D01*
X61310Y-50646D02*
X61817Y-50309D01*
X61723Y-50946D02*
X61329Y-50946D01*
X61704Y-50946D02*
X61723Y-50909D01*
X61723Y-50834D01*
X61704Y-50796D01*
X61685Y-50778D01*
X61648Y-50759D01*
X61535Y-50759D01*
X61498Y-50778D01*
X61479Y-50796D01*
X61460Y-50834D01*
X61460Y-50909D01*
X61479Y-50946D01*
X61723Y-51134D02*
X61460Y-51134D01*
X61535Y-51134D02*
X61498Y-51152D01*
X61479Y-51171D01*
X61460Y-51209D01*
X61460Y-51246D01*
X61723Y-51377D02*
X61460Y-51377D01*
X61329Y-51377D02*
X61348Y-51359D01*
X61367Y-51377D01*
X61348Y-51396D01*
X61329Y-51377D01*
X61367Y-51377D01*
X61460Y-51527D02*
X61723Y-51621D01*
X61460Y-51715D01*
X61704Y-52015D02*
X61723Y-51977D01*
X61723Y-51902D01*
X61704Y-51865D01*
X61667Y-51846D01*
X61517Y-51846D01*
X61479Y-51865D01*
X61460Y-51902D01*
X61460Y-51977D01*
X61479Y-52015D01*
X61517Y-52034D01*
X61554Y-52034D01*
X61592Y-51846D01*
X61723Y-52202D02*
X61460Y-52202D01*
X61535Y-52202D02*
X61498Y-52221D01*
X61479Y-52240D01*
X61460Y-52277D01*
X61460Y-52315D01*
X61723Y-52615D02*
X61517Y-52615D01*
X61479Y-52596D01*
X61460Y-52559D01*
X61460Y-52484D01*
X61479Y-52446D01*
X61704Y-52615D02*
X61723Y-52577D01*
X61723Y-52484D01*
X61704Y-52446D01*
X61667Y-52427D01*
X61629Y-52427D01*
X61592Y-52446D01*
X61573Y-52484D01*
X61573Y-52577D01*
X61554Y-52615D01*
X61723Y-52802D02*
X61460Y-52802D01*
X61498Y-52802D02*
X61479Y-52821D01*
X61460Y-52859D01*
X61460Y-52915D01*
X61479Y-52952D01*
X61517Y-52971D01*
X61723Y-52971D01*
X61517Y-52971D02*
X61479Y-52990D01*
X61460Y-53027D01*
X61460Y-53083D01*
X61479Y-53121D01*
X61517Y-53140D01*
X61723Y-53140D01*
X61460Y-53327D02*
X61854Y-53327D01*
X61479Y-53327D02*
X61460Y-53365D01*
X61460Y-53440D01*
X61479Y-53477D01*
X61498Y-53496D01*
X61535Y-53515D01*
X61648Y-53515D01*
X61685Y-53496D01*
X61704Y-53477D01*
X61723Y-53440D01*
X61723Y-53365D01*
X61704Y-53327D01*
G54D12*
X49803Y-34673D02*
X49803Y-34955D01*
X49971Y-34617D02*
X49381Y-34814D01*
X49971Y-35011D01*
X49578Y-35123D02*
X49578Y-35348D01*
X49381Y-35208D02*
X49887Y-35208D01*
X49943Y-35236D01*
X49971Y-35292D01*
X49971Y-35348D01*
X49578Y-35461D02*
X49578Y-35686D01*
X49381Y-35545D02*
X49887Y-35545D01*
X49943Y-35573D01*
X49971Y-35629D01*
X49971Y-35686D01*
X49971Y-36136D02*
X49662Y-36136D01*
X49606Y-36107D01*
X49578Y-36051D01*
X49578Y-35939D01*
X49606Y-35883D01*
X49943Y-36136D02*
X49971Y-36079D01*
X49971Y-35939D01*
X49943Y-35883D01*
X49887Y-35854D01*
X49831Y-35854D01*
X49775Y-35883D01*
X49746Y-35939D01*
X49746Y-36079D01*
X49718Y-36136D01*
X49943Y-36670D02*
X49971Y-36614D01*
X49971Y-36501D01*
X49943Y-36445D01*
X49915Y-36417D01*
X49859Y-36389D01*
X49690Y-36389D01*
X49634Y-36417D01*
X49606Y-36445D01*
X49578Y-36501D01*
X49578Y-36614D01*
X49606Y-36670D01*
X49971Y-36923D02*
X49381Y-36923D01*
X49971Y-37176D02*
X49662Y-37176D01*
X49606Y-37148D01*
X49578Y-37092D01*
X49578Y-37007D01*
X49606Y-36951D01*
X49634Y-36923D01*
X49381Y-37823D02*
X49971Y-38020D01*
X49381Y-38217D01*
X49971Y-38413D02*
X49381Y-38413D01*
X49662Y-38413D02*
X49662Y-38751D01*
X49971Y-38751D02*
X49381Y-38751D01*
X49943Y-39004D02*
X49971Y-39088D01*
X49971Y-39229D01*
X49943Y-39285D01*
X49915Y-39313D01*
X49859Y-39341D01*
X49803Y-39341D01*
X49746Y-39313D01*
X49718Y-39285D01*
X49690Y-39229D01*
X49662Y-39116D01*
X49634Y-39060D01*
X49606Y-39032D01*
X49550Y-39004D01*
X49493Y-39004D01*
X49437Y-39032D01*
X49409Y-39060D01*
X49381Y-39116D01*
X49381Y-39257D01*
X49409Y-39341D01*
X49746Y-39595D02*
X49746Y-40044D01*
X49971Y-40354D02*
X49971Y-40466D01*
X49943Y-40523D01*
X49915Y-40551D01*
X49831Y-40607D01*
X49718Y-40635D01*
X49493Y-40635D01*
X49437Y-40607D01*
X49409Y-40579D01*
X49381Y-40523D01*
X49381Y-40410D01*
X49409Y-40354D01*
X49437Y-40326D01*
X49493Y-40298D01*
X49634Y-40298D01*
X49690Y-40326D01*
X49718Y-40354D01*
X49746Y-40410D01*
X49746Y-40523D01*
X49718Y-40579D01*
X49690Y-40607D01*
X49634Y-40635D01*
X49381Y-41169D02*
X49381Y-40888D01*
X49662Y-40860D01*
X49634Y-40888D01*
X49606Y-40944D01*
X49606Y-41085D01*
X49634Y-41141D01*
X49662Y-41169D01*
X49718Y-41197D01*
X49859Y-41197D01*
X49915Y-41169D01*
X49943Y-41141D01*
X49971Y-41085D01*
X49971Y-40944D01*
X49943Y-40888D01*
X49915Y-40860D01*
X49971Y-41901D02*
X49381Y-41901D01*
X49971Y-42154D02*
X49662Y-42154D01*
X49606Y-42125D01*
X49578Y-42069D01*
X49578Y-41985D01*
X49606Y-41929D01*
X49634Y-41901D01*
X49943Y-42660D02*
X49971Y-42604D01*
X49971Y-42491D01*
X49943Y-42435D01*
X49887Y-42407D01*
X49662Y-42407D01*
X49606Y-42435D01*
X49578Y-42491D01*
X49578Y-42604D01*
X49606Y-42660D01*
X49662Y-42688D01*
X49718Y-42688D01*
X49775Y-42407D01*
X49971Y-43194D02*
X49662Y-43194D01*
X49606Y-43166D01*
X49578Y-43110D01*
X49578Y-42997D01*
X49606Y-42941D01*
X49943Y-43194D02*
X49971Y-43138D01*
X49971Y-42997D01*
X49943Y-42941D01*
X49887Y-42913D01*
X49831Y-42913D01*
X49775Y-42941D01*
X49746Y-42997D01*
X49746Y-43138D01*
X49718Y-43194D01*
X49578Y-43391D02*
X49578Y-43616D01*
X49381Y-43475D02*
X49887Y-43475D01*
X49943Y-43503D01*
X49971Y-43560D01*
X49971Y-43616D01*
X49943Y-43785D02*
X49971Y-43841D01*
X49971Y-43953D01*
X49943Y-44010D01*
X49887Y-44038D01*
X49859Y-44038D01*
X49803Y-44010D01*
X49775Y-43953D01*
X49775Y-43869D01*
X49746Y-43813D01*
X49690Y-43785D01*
X49662Y-43785D01*
X49606Y-43813D01*
X49578Y-43869D01*
X49578Y-43953D01*
X49606Y-44010D01*
X49971Y-44291D02*
X49578Y-44291D01*
X49381Y-44291D02*
X49409Y-44263D01*
X49437Y-44291D01*
X49409Y-44319D01*
X49381Y-44291D01*
X49437Y-44291D01*
X49578Y-44572D02*
X49971Y-44572D01*
X49634Y-44572D02*
X49606Y-44600D01*
X49578Y-44656D01*
X49578Y-44741D01*
X49606Y-44797D01*
X49662Y-44825D01*
X49971Y-44825D01*
X49971Y-45106D02*
X49381Y-45106D01*
X49746Y-45163D02*
X49971Y-45331D01*
X49578Y-45331D02*
X49803Y-45106D01*
X49578Y-45950D02*
X49578Y-46175D01*
X49381Y-46034D02*
X49887Y-46034D01*
X49943Y-46062D01*
X49971Y-46119D01*
X49971Y-46175D01*
X49971Y-46456D02*
X49943Y-46400D01*
X49915Y-46372D01*
X49859Y-46344D01*
X49690Y-46344D01*
X49634Y-46372D01*
X49606Y-46400D01*
X49578Y-46456D01*
X49578Y-46541D01*
X49606Y-46597D01*
X49634Y-46625D01*
X49690Y-46653D01*
X49859Y-46653D01*
X49915Y-46625D01*
X49943Y-46597D01*
X49971Y-46541D01*
X49971Y-46456D01*
X49971Y-47356D02*
X49381Y-47356D01*
X49606Y-47356D02*
X49578Y-47412D01*
X49578Y-47525D01*
X49606Y-47581D01*
X49634Y-47609D01*
X49690Y-47637D01*
X49859Y-47637D01*
X49915Y-47609D01*
X49943Y-47581D01*
X49971Y-47525D01*
X49971Y-47412D01*
X49943Y-47356D01*
X49971Y-47975D02*
X49943Y-47919D01*
X49915Y-47890D01*
X49859Y-47862D01*
X49690Y-47862D01*
X49634Y-47890D01*
X49606Y-47919D01*
X49578Y-47975D01*
X49578Y-48059D01*
X49606Y-48115D01*
X49634Y-48143D01*
X49690Y-48172D01*
X49859Y-48172D01*
X49915Y-48143D01*
X49943Y-48115D01*
X49971Y-48059D01*
X49971Y-47975D01*
X49578Y-48340D02*
X49578Y-48565D01*
X49381Y-48425D02*
X49887Y-48425D01*
X49943Y-48453D01*
X49971Y-48509D01*
X49971Y-48565D01*
X49578Y-48678D02*
X49578Y-48903D01*
X49381Y-48762D02*
X49887Y-48762D01*
X49943Y-48790D01*
X49971Y-48847D01*
X49971Y-48903D01*
X49971Y-49184D02*
X49943Y-49128D01*
X49915Y-49100D01*
X49859Y-49071D01*
X49690Y-49071D01*
X49634Y-49100D01*
X49606Y-49128D01*
X49578Y-49184D01*
X49578Y-49268D01*
X49606Y-49325D01*
X49634Y-49353D01*
X49690Y-49381D01*
X49859Y-49381D01*
X49915Y-49353D01*
X49943Y-49325D01*
X49971Y-49268D01*
X49971Y-49184D01*
X49971Y-49634D02*
X49578Y-49634D01*
X49634Y-49634D02*
X49606Y-49662D01*
X49578Y-49718D01*
X49578Y-49803D01*
X49606Y-49859D01*
X49662Y-49887D01*
X49971Y-49887D01*
X49662Y-49887D02*
X49606Y-49915D01*
X49578Y-49971D01*
X49578Y-50056D01*
X49606Y-50112D01*
X49662Y-50140D01*
X49971Y-50140D01*
M02*
