%FSLAX34Y34*%
G04 Gerber Fmt 3.4, Leading zero omitted, Abs format*
G04 (created by PCBNEW (2014-03-13 BZR 4745)-product) date Fri Apr 11 13:45:18 2014*
%MOIN*%
G01*
G70*
G90*
G04 APERTURE LIST*
%ADD10C,0.005906*%
%ADD11R,0.200787X0.094488*%
%ADD12C,0.060000*%
%ADD13R,0.377953X0.299213*%
%ADD14R,0.196850X0.787402*%
%ADD15R,0.106300X0.100400*%
%ADD16R,0.149600X0.100400*%
%ADD17R,0.094500X0.157500*%
%ADD18R,0.059000X0.051200*%
%ADD19R,0.035400X0.039400*%
%ADD20R,0.039400X0.035400*%
%ADD21C,0.094488*%
%ADD22R,0.055000X0.055000*%
%ADD23C,0.055000*%
%ADD24R,0.137800X0.137800*%
G04 APERTURE END LIST*
G54D10*
G54D11*
X64500Y-32250D03*
X64500Y-30517D03*
X64500Y-33982D03*
X38500Y-32250D03*
X38500Y-30517D03*
X38500Y-33982D03*
G54D12*
X53365Y-26685D03*
X48365Y-26685D03*
G54D13*
X54488Y-32250D03*
X48425Y-32250D03*
G54D14*
X51456Y-32250D03*
G54D15*
X39300Y-20219D03*
G54D16*
X39300Y-22581D03*
G54D17*
X61750Y-23575D03*
X61750Y-20425D03*
G54D18*
X59000Y-23125D03*
X59000Y-22375D03*
X42900Y-20375D03*
X42900Y-19625D03*
G54D19*
X61908Y-32250D03*
X62500Y-32250D03*
G54D20*
X58000Y-23046D03*
X58000Y-22454D03*
X57000Y-23046D03*
X57000Y-22454D03*
X43800Y-20396D03*
X43800Y-19804D03*
X44600Y-20396D03*
X44600Y-19804D03*
X53370Y-28394D03*
X53370Y-28986D03*
G54D19*
X40454Y-32250D03*
X41046Y-32250D03*
G54D21*
X46691Y-27291D03*
X43908Y-24508D03*
X55395Y-29798D03*
X55395Y-25861D03*
G54D22*
X56700Y-20300D03*
G54D23*
X57700Y-20300D03*
G54D24*
X52200Y-23041D03*
X52200Y-20679D03*
X50350Y-21860D03*
G54D22*
X46450Y-22450D03*
G54D23*
X46450Y-21450D03*
X46450Y-20450D03*
G54D22*
X48550Y-22450D03*
G54D23*
X48550Y-21450D03*
X48550Y-20450D03*
M02*
