%FSLAX34Y34*%
G04 Gerber Fmt 3.4, Leading zero omitted, Abs format*
G04 (created by PCBNEW (2014-03-19 BZR 4756)-product) date Tue 24 Jun 2014 07:27:18 PM AKDT*
%MOIN*%
G01*
G70*
G90*
G04 APERTURE LIST*
%ADD10C,0.005906*%
%ADD11R,0.063000X0.106000*%
%ADD12R,0.051200X0.059000*%
%ADD13R,0.094500X0.157500*%
%ADD14R,0.059000X0.051200*%
%ADD15R,0.090600X0.137800*%
%ADD16R,0.031400X0.031400*%
%ADD17R,0.200787X0.094488*%
%ADD18C,0.078700*%
%ADD19O,0.118700X0.059300*%
%ADD20O,0.059300X0.118700*%
%ADD21R,0.035000X0.055000*%
%ADD22R,0.055000X0.035000*%
%ADD23C,0.060000*%
%ADD24R,0.062992X0.023622*%
%ADD25R,0.236220X0.157480*%
%ADD26R,0.393701X0.236220*%
%ADD27R,0.070079X0.050000*%
%ADD28R,0.216535X0.118110*%
%ADD29R,0.196850X0.098425*%
%ADD30C,0.090600*%
G04 APERTURE END LIST*
G54D10*
G54D11*
X37442Y-35039D03*
X38542Y-35039D03*
G54D12*
X37420Y-33858D03*
X38170Y-33858D03*
X36398Y-35236D03*
X35648Y-35236D03*
X36398Y-34251D03*
X35648Y-34251D03*
X38995Y-43307D03*
X39745Y-43307D03*
X40138Y-42125D03*
X39388Y-42125D03*
X53955Y-41732D03*
X54705Y-41732D03*
X58680Y-35826D03*
X59430Y-35826D03*
X58680Y-33464D03*
X59430Y-33464D03*
X58680Y-34645D03*
X59430Y-34645D03*
G54D13*
X67322Y-29921D03*
X67322Y-33071D03*
G54D14*
X37007Y-30099D03*
X37007Y-29349D03*
G54D12*
X33839Y-33464D03*
X33089Y-33464D03*
X33839Y-34645D03*
X33089Y-34645D03*
X40138Y-44488D03*
X39388Y-44488D03*
X36595Y-40944D03*
X35845Y-40944D03*
G54D14*
X40944Y-43682D03*
X40944Y-42932D03*
G54D12*
X33839Y-44488D03*
X33089Y-44488D03*
G54D14*
X34251Y-42107D03*
X34251Y-41357D03*
X51968Y-41319D03*
X51968Y-40569D03*
X51968Y-43682D03*
X51968Y-42932D03*
X51968Y-46437D03*
X51968Y-45687D03*
G54D12*
X53955Y-40944D03*
X54705Y-40944D03*
X53955Y-44881D03*
X54705Y-44881D03*
X53955Y-45669D03*
X54705Y-45669D03*
G54D14*
X56692Y-43682D03*
X56692Y-42932D03*
X59448Y-49981D03*
X59448Y-49231D03*
X60629Y-49981D03*
X60629Y-49231D03*
X58267Y-49981D03*
X58267Y-49231D03*
G54D13*
X63779Y-51968D03*
X63779Y-48818D03*
G54D14*
X68503Y-36201D03*
X68503Y-35451D03*
G54D12*
X69310Y-36614D03*
X70060Y-36614D03*
G54D15*
X41338Y-36535D03*
X41338Y-38661D03*
X31692Y-38858D03*
X31692Y-36732D03*
G54D16*
X71259Y-51869D03*
X71259Y-51279D03*
G54D17*
X31102Y-44488D03*
X31102Y-42755D03*
X31102Y-46220D03*
X71653Y-36614D03*
X71653Y-34881D03*
X71653Y-38346D03*
G54D18*
X36763Y-36614D03*
X36763Y-39614D03*
X57086Y-36763D03*
X54086Y-36763D03*
X53937Y-49850D03*
X56937Y-49850D03*
G54D19*
X31299Y-33948D03*
X31299Y-34948D03*
G54D20*
X58374Y-30314D03*
X57374Y-30314D03*
G54D21*
X35648Y-33267D03*
X36398Y-33267D03*
X38957Y-31889D03*
X38207Y-31889D03*
G54D22*
X71259Y-49981D03*
X71259Y-49231D03*
G54D23*
X40157Y-29421D03*
X41157Y-30421D03*
X39157Y-30421D03*
G54D18*
X41338Y-32677D03*
X41338Y-34646D03*
G54D24*
X36889Y-30757D03*
X34763Y-30757D03*
X36889Y-31250D03*
X36889Y-31742D03*
X36889Y-32234D03*
X34763Y-31250D03*
X34763Y-31742D03*
X34763Y-32234D03*
G54D25*
X43307Y-41559D03*
X43307Y-45078D03*
X49606Y-45078D03*
X49606Y-41535D03*
G54D26*
X46456Y-34940D03*
X46456Y-51673D03*
G54D27*
X37795Y-43307D03*
X37795Y-42307D03*
X37795Y-44307D03*
X35433Y-42307D03*
X35433Y-44307D03*
G54D28*
X50787Y-48425D03*
X50787Y-53149D03*
X50787Y-38188D03*
X50787Y-33464D03*
G54D29*
X59448Y-43307D03*
X59448Y-44488D03*
X59448Y-45669D03*
X59448Y-42125D03*
X59448Y-40944D03*
G54D13*
X62598Y-29921D03*
X62598Y-33071D03*
X68503Y-51968D03*
X68503Y-48818D03*
G54D18*
X56988Y-48129D03*
G54D30*
X56988Y-38287D03*
M02*
