%FSLAX34Y34*%
G04 Gerber Fmt 3.4, Leading zero omitted, Abs format*
G04 (created by PCBNEW (2014-03-19 BZR 4756)-product) date Fri Feb  6 13:16:01 2015*
%MOIN*%
G01*
G70*
G90*
G04 APERTURE LIST*
%ADD10C,0.005906*%
%ADD11C,0.157480*%
%ADD12R,0.216535X0.118110*%
%ADD13R,0.200000X0.060000*%
%ADD14R,0.196850X0.098425*%
%ADD15R,0.236220X0.157480*%
%ADD16R,0.393701X0.236220*%
%ADD17R,0.094500X0.157500*%
%ADD18R,0.031400X0.031400*%
%ADD19R,0.035000X0.055000*%
%ADD20R,0.055000X0.150000*%
%ADD21R,0.295300X0.118100*%
%ADD22R,0.135039X0.064961*%
%ADD23R,0.050000X0.100000*%
%ADD24R,0.078700X0.118100*%
%ADD25R,0.059843X0.059843*%
%ADD26R,0.075197X0.075197*%
%ADD27R,0.100000X0.050000*%
%ADD28R,0.055000X0.035000*%
%ADD29R,0.045000X0.025000*%
%ADD30R,0.025000X0.045000*%
%ADD31R,0.030000X0.020000*%
%ADD32R,0.110236X0.047244*%
%ADD33R,0.055118X0.029921*%
%ADD34R,0.070900X0.086600*%
%ADD35R,0.059100X0.039400*%
%ADD36R,0.118100X0.078700*%
%ADD37R,0.150000X0.055000*%
%ADD38R,0.125197X0.050000*%
%ADD39R,0.039400X0.027600*%
%ADD40R,0.086614X0.031496*%
%ADD41R,0.251968X0.228346*%
G04 APERTURE END LIST*
G54D10*
G54D11*
X66550Y-26950D03*
G54D12*
X50787Y-38188D03*
X50787Y-33464D03*
G54D10*
G36*
X42032Y-37563D02*
X42366Y-37228D01*
X43479Y-38342D01*
X43145Y-38676D01*
X42032Y-37563D01*
X42032Y-37563D01*
G37*
G36*
X41324Y-38270D02*
X41659Y-37936D01*
X42772Y-39049D01*
X42438Y-39383D01*
X41324Y-38270D01*
X41324Y-38270D01*
G37*
G36*
X40617Y-38977D02*
X40951Y-38643D01*
X42065Y-39756D01*
X41731Y-40090D01*
X40617Y-38977D01*
X40617Y-38977D01*
G37*
G54D13*
X55300Y-29250D03*
X55300Y-28250D03*
X55300Y-27250D03*
G54D14*
X59448Y-43307D03*
X59448Y-44685D03*
X59429Y-46557D03*
X59448Y-41929D03*
X59429Y-40057D03*
G54D15*
X43307Y-41559D03*
X43307Y-45078D03*
X49606Y-45078D03*
X49606Y-41535D03*
G54D16*
X46456Y-34940D03*
X46456Y-51673D03*
G54D17*
X68681Y-28228D03*
X68681Y-31378D03*
X66141Y-51968D03*
X66141Y-48818D03*
G54D18*
X68749Y-54970D03*
X68159Y-54970D03*
G54D19*
X66861Y-54970D03*
X66111Y-54970D03*
G54D12*
X50787Y-48425D03*
X50787Y-53149D03*
G54D17*
X64350Y-28228D03*
X64350Y-31378D03*
X70472Y-51968D03*
X70472Y-48818D03*
G54D20*
X39300Y-41200D03*
X37500Y-41200D03*
G54D21*
X54000Y-36216D03*
X54000Y-38184D03*
X54000Y-48416D03*
X54000Y-50384D03*
G54D22*
X41552Y-25950D03*
X45647Y-25950D03*
G54D23*
X44164Y-27209D03*
X43035Y-27209D03*
G54D17*
X60019Y-28228D03*
X60019Y-31378D03*
X61811Y-51968D03*
X61811Y-48818D03*
G54D24*
X55413Y-33169D03*
X57775Y-33169D03*
G54D25*
X32480Y-50708D03*
G54D26*
X33413Y-51641D03*
X33413Y-49775D03*
X31547Y-51641D03*
X31547Y-49775D03*
G54D25*
X69100Y-36400D03*
G54D26*
X70033Y-37333D03*
X70033Y-35466D03*
X68166Y-37333D03*
X68166Y-35466D03*
G54D27*
X61400Y-38300D03*
X61400Y-37100D03*
X63300Y-36400D03*
X63300Y-35200D03*
G54D28*
X37950Y-33325D03*
X37950Y-34075D03*
G54D29*
X33600Y-34100D03*
X33600Y-33500D03*
G54D30*
X31150Y-32850D03*
X30550Y-32850D03*
G54D29*
X41250Y-30550D03*
X41250Y-29950D03*
G54D30*
X41850Y-31550D03*
X41250Y-31550D03*
X43350Y-31550D03*
X42750Y-31550D03*
X40450Y-31550D03*
X39850Y-31550D03*
X36450Y-38850D03*
X37050Y-38850D03*
G54D29*
X39250Y-39800D03*
X39250Y-39200D03*
G54D31*
X35400Y-30275D03*
X35400Y-31025D03*
X36400Y-30275D03*
X35400Y-30650D03*
X36400Y-31025D03*
G54D19*
X37900Y-37825D03*
X38650Y-37825D03*
G54D28*
X35500Y-33325D03*
X35500Y-34075D03*
G54D19*
X37900Y-36975D03*
X38650Y-36975D03*
G54D28*
X37150Y-33325D03*
X37150Y-34075D03*
G54D19*
X36375Y-29450D03*
X35625Y-29450D03*
X35575Y-25400D03*
X34825Y-25400D03*
G54D28*
X40300Y-28325D03*
X40300Y-29075D03*
X34650Y-37825D03*
X34650Y-38575D03*
G54D19*
X53404Y-41496D03*
X54154Y-41496D03*
G54D28*
X53800Y-35025D03*
X53800Y-34275D03*
X42100Y-30575D03*
X42100Y-29825D03*
X34550Y-32175D03*
X34550Y-31425D03*
X36350Y-33325D03*
X36350Y-34075D03*
X37350Y-31025D03*
X37350Y-30275D03*
X39500Y-43575D03*
X39500Y-42825D03*
G54D19*
X36869Y-45393D03*
X37619Y-45393D03*
G54D28*
X35600Y-42725D03*
X35600Y-43475D03*
X51968Y-41319D03*
X51968Y-40569D03*
X51968Y-43682D03*
X51968Y-42932D03*
X51968Y-46437D03*
X51968Y-45687D03*
G54D19*
X53404Y-45118D03*
X54154Y-45118D03*
G54D28*
X53600Y-51675D03*
X53600Y-52425D03*
G54D19*
X64825Y-36400D03*
X65575Y-36400D03*
X59790Y-25775D03*
X60540Y-25775D03*
G54D32*
X32485Y-36100D03*
X30678Y-35100D03*
X32485Y-34100D03*
G54D33*
X38200Y-42700D03*
X38200Y-43200D03*
X38200Y-43700D03*
X36822Y-43700D03*
X36822Y-42700D03*
G54D29*
X33600Y-36700D03*
X33600Y-36100D03*
X33600Y-35350D03*
X33600Y-34750D03*
G54D30*
X33000Y-42500D03*
X33600Y-42500D03*
G54D34*
X57182Y-25787D03*
X58762Y-25787D03*
G54D19*
X35875Y-41200D03*
X36625Y-41200D03*
G54D11*
X36500Y-53550D03*
X59400Y-53550D03*
G54D20*
X35792Y-47480D03*
X37592Y-47480D03*
G54D35*
X37579Y-49961D03*
X37579Y-49370D03*
X37579Y-48779D03*
G54D36*
X36417Y-49370D03*
G54D10*
G36*
X36997Y-48976D02*
X37292Y-49173D01*
X37292Y-49567D01*
X36997Y-49764D01*
X36997Y-48976D01*
X36997Y-48976D01*
G37*
G54D19*
X35729Y-50708D03*
X34979Y-50708D03*
X31829Y-45944D03*
X32579Y-45944D03*
X39025Y-25500D03*
X39775Y-25500D03*
G54D24*
X34173Y-47480D03*
X31811Y-47480D03*
G54D37*
X39000Y-26500D03*
X39000Y-28300D03*
G54D27*
X59400Y-38300D03*
X59400Y-37100D03*
G54D38*
X40412Y-33750D03*
X42070Y-34750D03*
X40412Y-35750D03*
X31052Y-38960D03*
X32709Y-39960D03*
X31052Y-40960D03*
G54D39*
X37150Y-37425D03*
X37150Y-37800D03*
X37150Y-38175D03*
X36150Y-38175D03*
X36150Y-37800D03*
X36150Y-37425D03*
G54D38*
X31062Y-29300D03*
X32720Y-30300D03*
X31062Y-31300D03*
G54D40*
X37200Y-28300D03*
X37200Y-27800D03*
X37200Y-27300D03*
X37200Y-26800D03*
X37200Y-26300D03*
G54D41*
X34640Y-27300D03*
M02*
