%FSLAX34Y34*%
G04 Gerber Fmt 3.4, Leading zero omitted, Abs format*
G04 (created by PCBNEW (2014-03-19 BZR 4756)-product) date Tue 24 Jun 2014 07:27:18 PM AKDT*
%MOIN*%
G01*
G70*
G90*
G04 APERTURE LIST*
%ADD10C,0.005906*%
%ADD11R,0.063000X0.106000*%
%ADD12R,0.051200X0.059000*%
%ADD13R,0.094500X0.157500*%
%ADD14R,0.059000X0.051200*%
%ADD15R,0.090600X0.137800*%
%ADD16R,0.031400X0.031400*%
%ADD17R,0.200787X0.094488*%
%ADD18C,0.078700*%
%ADD19O,0.118700X0.059300*%
%ADD20O,0.059300X0.118700*%
%ADD21R,0.035000X0.055000*%
%ADD22R,0.055000X0.035000*%
%ADD23C,0.060000*%
%ADD24R,0.062992X0.023622*%
%ADD25R,0.236220X0.157480*%
%ADD26R,0.393701X0.236220*%
%ADD27R,0.070079X0.050000*%
%ADD28R,0.216535X0.118110*%
%ADD29R,0.196850X0.098425*%
%ADD30C,0.090600*%
%ADD31C,0.039370*%
%ADD32C,0.035000*%
%ADD33C,0.019685*%
%ADD34C,0.039370*%
%ADD35C,0.010000*%
%ADD36C,0.078740*%
%ADD37C,0.015748*%
G04 APERTURE END LIST*
G54D10*
G54D11*
X37442Y-35039D03*
X38542Y-35039D03*
G54D12*
X37420Y-33858D03*
X38170Y-33858D03*
X36398Y-35236D03*
X35648Y-35236D03*
X36398Y-34251D03*
X35648Y-34251D03*
X38995Y-43307D03*
X39745Y-43307D03*
X40138Y-42125D03*
X39388Y-42125D03*
X53955Y-41732D03*
X54705Y-41732D03*
X58680Y-35826D03*
X59430Y-35826D03*
X58680Y-33464D03*
X59430Y-33464D03*
X58680Y-34645D03*
X59430Y-34645D03*
G54D13*
X67322Y-29921D03*
X67322Y-33071D03*
G54D14*
X37007Y-30099D03*
X37007Y-29349D03*
G54D12*
X33839Y-33464D03*
X33089Y-33464D03*
X33839Y-34645D03*
X33089Y-34645D03*
X40138Y-44488D03*
X39388Y-44488D03*
X36595Y-40944D03*
X35845Y-40944D03*
G54D14*
X40944Y-43682D03*
X40944Y-42932D03*
G54D12*
X33839Y-44488D03*
X33089Y-44488D03*
G54D14*
X34251Y-42107D03*
X34251Y-41357D03*
X51968Y-41319D03*
X51968Y-40569D03*
X51968Y-43682D03*
X51968Y-42932D03*
X51968Y-46437D03*
X51968Y-45687D03*
G54D12*
X53955Y-40944D03*
X54705Y-40944D03*
X53955Y-44881D03*
X54705Y-44881D03*
X53955Y-45669D03*
X54705Y-45669D03*
G54D14*
X56692Y-43682D03*
X56692Y-42932D03*
X59448Y-49981D03*
X59448Y-49231D03*
X60629Y-49981D03*
X60629Y-49231D03*
X58267Y-49981D03*
X58267Y-49231D03*
G54D13*
X63779Y-51968D03*
X63779Y-48818D03*
G54D14*
X68503Y-36201D03*
X68503Y-35451D03*
G54D12*
X69310Y-36614D03*
X70060Y-36614D03*
G54D15*
X41338Y-36535D03*
X41338Y-38661D03*
X31692Y-38858D03*
X31692Y-36732D03*
G54D16*
X71259Y-51869D03*
X71259Y-51279D03*
G54D17*
X31102Y-44488D03*
X31102Y-42755D03*
X31102Y-46220D03*
X71653Y-36614D03*
X71653Y-34881D03*
X71653Y-38346D03*
G54D18*
X36763Y-36614D03*
X36763Y-39614D03*
X57086Y-36763D03*
X54086Y-36763D03*
X53937Y-49850D03*
X56937Y-49850D03*
G54D19*
X31299Y-33948D03*
X31299Y-34948D03*
G54D20*
X58374Y-30314D03*
X57374Y-30314D03*
G54D21*
X35648Y-33267D03*
X36398Y-33267D03*
X38957Y-31889D03*
X38207Y-31889D03*
G54D22*
X71259Y-49981D03*
X71259Y-49231D03*
G54D23*
X40157Y-29421D03*
X41157Y-30421D03*
X39157Y-30421D03*
G54D18*
X41338Y-32677D03*
X41338Y-34646D03*
G54D24*
X36889Y-30757D03*
X34763Y-30757D03*
X36889Y-31250D03*
X36889Y-31742D03*
X36889Y-32234D03*
X34763Y-31250D03*
X34763Y-31742D03*
X34763Y-32234D03*
G54D25*
X43307Y-41559D03*
X43307Y-45078D03*
X49606Y-45078D03*
X49606Y-41535D03*
G54D26*
X46456Y-34940D03*
X46456Y-51673D03*
G54D27*
X37795Y-43307D03*
X37795Y-42307D03*
X37795Y-44307D03*
X35433Y-42307D03*
X35433Y-44307D03*
G54D28*
X50787Y-48425D03*
X50787Y-53149D03*
X50787Y-38188D03*
X50787Y-33464D03*
G54D29*
X59448Y-43307D03*
X59448Y-44488D03*
X59448Y-45669D03*
X59448Y-42125D03*
X59448Y-40944D03*
G54D13*
X62598Y-29921D03*
X62598Y-33071D03*
X68503Y-51968D03*
X68503Y-48818D03*
G54D18*
X56988Y-48129D03*
G54D30*
X56988Y-38287D03*
G54D31*
X37598Y-31102D03*
X37598Y-32677D03*
X57874Y-45669D03*
G54D32*
X58267Y-45669D03*
G54D31*
X57874Y-43307D03*
G54D32*
X58267Y-43307D03*
X46456Y-34251D03*
X45866Y-34251D03*
X45275Y-34251D03*
X47145Y-34251D03*
X47736Y-34251D03*
X47736Y-34842D03*
X47145Y-34842D03*
X46456Y-34842D03*
X45866Y-34842D03*
X45275Y-34842D03*
X45275Y-52362D03*
X45866Y-52362D03*
X46456Y-52362D03*
X47047Y-52362D03*
X47637Y-52362D03*
X47637Y-51771D03*
X47047Y-51771D03*
X46456Y-51771D03*
X45866Y-51771D03*
X45275Y-51771D03*
G54D31*
X45275Y-52854D03*
X47637Y-52854D03*
X47047Y-52854D03*
X45866Y-52854D03*
X47145Y-33759D03*
X47736Y-33759D03*
X45866Y-33759D03*
X45275Y-33759D03*
X67322Y-34251D03*
X62598Y-34251D03*
X39370Y-35039D03*
X38976Y-33858D03*
X31692Y-40157D03*
X40354Y-38779D03*
X37598Y-29330D03*
X35039Y-34251D03*
X35039Y-35236D03*
X59842Y-35826D03*
X59842Y-34645D03*
X59842Y-33464D03*
X60629Y-48425D03*
X59448Y-48425D03*
X58267Y-48425D03*
X71259Y-48425D03*
X68503Y-47637D03*
X63779Y-47637D03*
X35039Y-40944D03*
X34251Y-40551D03*
X32677Y-46456D03*
X32677Y-42519D03*
X70078Y-38188D03*
X70078Y-35039D03*
X68503Y-35039D03*
X40157Y-43307D03*
X46456Y-53543D03*
X46456Y-33070D03*
X37795Y-29921D03*
X33858Y-32677D03*
X32283Y-32677D03*
X34448Y-34645D03*
X36811Y-32677D03*
G54D33*
X37420Y-33858D02*
X37420Y-32855D01*
X39279Y-29421D02*
X40157Y-29421D01*
X37598Y-31102D02*
X39279Y-29421D01*
X37420Y-32855D02*
X37598Y-32677D01*
G54D34*
X31692Y-36732D02*
X36645Y-36732D01*
X36645Y-36732D02*
X36763Y-36614D01*
X37420Y-33858D02*
X36614Y-33858D01*
X36614Y-33858D02*
X36398Y-34073D01*
X36398Y-34073D02*
X36398Y-34251D01*
X37442Y-35039D02*
X36595Y-35039D01*
X36595Y-35039D02*
X36398Y-35236D01*
X36398Y-34251D02*
X36398Y-33267D01*
X36398Y-35236D02*
X36398Y-34251D01*
X36763Y-36614D02*
X36763Y-36173D01*
X36398Y-35808D02*
X36398Y-35236D01*
X36763Y-36173D02*
X36398Y-35808D01*
G54D35*
X58267Y-45669D02*
X57874Y-45669D01*
G54D36*
X57874Y-45669D02*
X59448Y-45669D01*
X58267Y-43307D02*
X57874Y-43307D01*
X59448Y-43307D02*
X58267Y-43307D01*
G54D35*
X45275Y-34251D02*
X45866Y-34251D01*
X46456Y-34251D02*
X47047Y-34251D01*
X47047Y-34251D02*
X46948Y-34251D01*
X47145Y-34251D02*
X47736Y-34251D01*
X47736Y-34842D02*
X47145Y-34842D01*
X46456Y-34842D02*
X45866Y-34842D01*
X45275Y-34842D02*
X46456Y-34940D01*
X46456Y-51673D02*
X45964Y-51673D01*
X45964Y-51673D02*
X45275Y-52362D01*
X45866Y-52362D02*
X46456Y-52362D01*
X47047Y-52362D02*
X47637Y-52362D01*
X47637Y-51771D02*
X47047Y-51771D01*
X46456Y-51771D02*
X45866Y-51771D01*
X45275Y-51771D02*
X45275Y-51279D01*
G54D36*
X46456Y-51673D02*
X46456Y-52263D01*
X46456Y-52263D02*
X45866Y-52854D01*
X45866Y-52854D02*
X47047Y-52854D01*
X47047Y-52854D02*
X46456Y-51673D01*
X46456Y-51673D02*
X46456Y-52460D01*
X46456Y-52460D02*
X47047Y-52854D01*
X47047Y-52854D02*
X47637Y-52854D01*
X47047Y-52854D02*
X46456Y-52460D01*
X46456Y-51673D02*
X46456Y-51870D01*
X46456Y-51870D02*
X45275Y-52854D01*
X45866Y-52854D02*
X45275Y-52854D01*
X45275Y-52854D02*
X46456Y-51673D01*
X46456Y-34940D02*
X45275Y-33759D01*
X45275Y-33759D02*
X45866Y-33759D01*
X45866Y-33759D02*
X46456Y-34940D01*
X46456Y-34940D02*
X46456Y-34448D01*
X46456Y-34448D02*
X47145Y-33759D01*
X47145Y-33759D02*
X46456Y-34940D01*
X46456Y-34940D02*
X46456Y-34350D01*
X46456Y-34350D02*
X45866Y-33759D01*
X45866Y-33759D02*
X46456Y-34940D01*
X46456Y-34350D02*
X45866Y-33759D01*
X45866Y-33759D02*
X46456Y-34940D01*
X46456Y-34448D02*
X47145Y-33759D01*
X47736Y-33759D02*
X45866Y-33759D01*
X45275Y-33759D02*
X46456Y-34940D01*
G54D34*
X67322Y-33071D02*
X67322Y-34251D01*
X62598Y-33071D02*
X62598Y-34251D01*
G54D33*
X38542Y-35039D02*
X39370Y-35039D01*
X38170Y-33858D02*
X38976Y-33858D01*
G54D34*
X31692Y-38858D02*
X31692Y-40157D01*
X41338Y-38661D02*
X40472Y-38661D01*
X40472Y-38661D02*
X40354Y-38779D01*
G54D33*
X37007Y-29349D02*
X37579Y-29349D01*
X37579Y-29349D02*
X37598Y-29330D01*
G54D34*
X35648Y-34251D02*
X35039Y-34251D01*
X35648Y-35236D02*
X35039Y-35236D01*
X59430Y-35826D02*
X59842Y-35826D01*
X59430Y-34645D02*
X59842Y-34645D01*
X59430Y-33464D02*
X59842Y-33464D01*
G54D33*
X60629Y-49231D02*
X60629Y-48425D01*
X59448Y-49231D02*
X59448Y-48425D01*
X58267Y-49231D02*
X58267Y-48425D01*
X71259Y-49231D02*
X71259Y-48425D01*
G54D34*
X68503Y-48818D02*
X68503Y-47637D01*
X63779Y-48818D02*
X63779Y-47637D01*
X35845Y-40944D02*
X35039Y-40944D01*
X34251Y-41357D02*
X34251Y-40551D01*
X31102Y-46220D02*
X32440Y-46220D01*
X32440Y-46220D02*
X32677Y-46456D01*
X31102Y-42755D02*
X32440Y-42755D01*
X32440Y-42755D02*
X32677Y-42519D01*
X71653Y-38346D02*
X70236Y-38346D01*
X70236Y-38346D02*
X70078Y-38188D01*
X71653Y-34881D02*
X70236Y-34881D01*
X70236Y-34881D02*
X70078Y-35039D01*
X68503Y-35451D02*
X68503Y-35039D01*
X39745Y-43307D02*
X40157Y-43307D01*
G54D36*
X46456Y-51673D02*
X46456Y-53543D01*
X46456Y-34940D02*
X46456Y-33070D01*
G54D34*
X36595Y-40944D02*
X36595Y-39782D01*
X36595Y-39782D02*
X36763Y-39614D01*
X36595Y-40944D02*
X36595Y-41319D01*
X37007Y-43307D02*
X36614Y-42913D01*
X36614Y-42913D02*
X36614Y-41338D01*
X37007Y-43307D02*
X37795Y-43307D01*
X36595Y-41319D02*
X36614Y-41338D01*
X38995Y-43307D02*
X37795Y-43307D01*
G54D33*
X40138Y-42125D02*
X40748Y-42125D01*
X40748Y-42125D02*
X40944Y-42322D01*
X40944Y-42932D02*
X40944Y-42125D01*
X40944Y-42125D02*
X40944Y-42322D01*
G54D34*
X50787Y-33464D02*
X50787Y-32283D01*
X43307Y-32677D02*
X43307Y-41559D01*
X44488Y-31496D02*
X43307Y-32677D01*
X50000Y-31496D02*
X44488Y-31496D01*
X50787Y-32283D02*
X50000Y-31496D01*
X40944Y-42932D02*
X40944Y-42322D01*
X40944Y-42322D02*
X40944Y-42125D01*
G54D36*
X43307Y-41559D02*
X41511Y-41559D01*
X41511Y-41559D02*
X40944Y-42125D01*
X40944Y-42125D02*
X40551Y-42125D01*
G54D34*
X53955Y-40944D02*
X53955Y-36894D01*
X53955Y-36894D02*
X54086Y-36763D01*
X53955Y-40944D02*
X53937Y-40944D01*
X53937Y-40944D02*
X53543Y-41338D01*
X53955Y-40944D02*
X53955Y-41713D01*
X53955Y-41713D02*
X53937Y-41732D01*
X53937Y-41732D02*
X53955Y-41732D01*
X53955Y-41732D02*
X53937Y-41732D01*
X53937Y-41732D02*
X53543Y-41338D01*
X51968Y-41319D02*
X51968Y-41535D01*
X51968Y-42932D02*
X51968Y-41535D01*
X51968Y-41535D02*
X51968Y-41732D01*
X51968Y-41732D02*
X51968Y-41535D01*
G54D36*
X49606Y-41535D02*
X51968Y-41535D01*
X51968Y-41535D02*
X52952Y-41535D01*
X53149Y-41338D02*
X53543Y-41338D01*
X52952Y-41535D02*
X53149Y-41338D01*
G54D34*
X54705Y-40944D02*
X54705Y-41732D01*
X55118Y-41338D02*
X55099Y-41338D01*
X55099Y-41338D02*
X54705Y-40944D01*
X54705Y-41732D02*
X54724Y-41732D01*
X54724Y-41732D02*
X55118Y-41338D01*
X56692Y-42932D02*
X56692Y-42125D01*
G54D36*
X59448Y-42125D02*
X56692Y-42125D01*
X55905Y-41338D02*
X55118Y-41338D01*
X56692Y-42125D02*
X55905Y-41338D01*
X56988Y-36862D02*
X57086Y-36763D01*
X62598Y-29921D02*
X59645Y-29921D01*
X59251Y-30314D02*
X58374Y-30314D01*
X59645Y-29921D02*
X59251Y-30314D01*
X67322Y-29921D02*
X62598Y-29921D01*
G54D33*
X37007Y-30099D02*
X37617Y-30099D01*
X37617Y-30099D02*
X37795Y-29921D01*
X36889Y-30757D02*
X36889Y-30217D01*
X36889Y-30217D02*
X37007Y-30099D01*
G54D34*
X58374Y-30314D02*
X58374Y-31208D01*
X58680Y-31514D02*
X58680Y-33464D01*
X58374Y-31208D02*
X58680Y-31514D01*
X58680Y-34645D02*
X58680Y-33464D01*
X58680Y-35826D02*
X58680Y-34645D01*
X57086Y-36763D02*
X57086Y-36614D01*
X57086Y-36614D02*
X57874Y-35826D01*
X57874Y-35826D02*
X58680Y-35826D01*
G54D36*
X56988Y-38287D02*
X56988Y-36862D01*
G54D37*
X34763Y-30757D02*
X33218Y-30757D01*
G54D33*
X33839Y-32695D02*
X33839Y-33464D01*
X33858Y-32677D02*
X33839Y-32695D01*
G54D37*
X32283Y-31889D02*
X32283Y-32677D01*
X32677Y-31496D02*
X32283Y-31889D01*
X32677Y-31299D02*
X32677Y-31496D01*
X33218Y-30757D02*
X32677Y-31299D01*
G54D33*
X33858Y-33445D02*
X33839Y-33464D01*
G54D34*
X33839Y-33464D02*
X34251Y-33464D01*
X34448Y-33267D02*
X35648Y-33267D01*
X34251Y-33464D02*
X34448Y-33267D01*
X33839Y-34645D02*
X33839Y-33464D01*
G54D33*
X41338Y-34646D02*
X41338Y-34645D01*
X41338Y-34645D02*
X39566Y-32874D01*
X38207Y-32695D02*
X38207Y-31889D01*
X38385Y-32874D02*
X38207Y-32695D01*
X39566Y-32874D02*
X38385Y-32874D01*
X36889Y-31742D02*
X37450Y-31742D01*
X37598Y-31889D02*
X38207Y-31889D01*
X37450Y-31742D02*
X37598Y-31889D01*
G54D34*
X41338Y-34646D02*
X41338Y-36535D01*
G54D33*
X34763Y-31742D02*
X33415Y-31742D01*
X33089Y-32067D02*
X33089Y-33464D01*
X33415Y-31742D02*
X33089Y-32067D01*
X36889Y-31742D02*
X36889Y-31250D01*
X36889Y-31742D02*
X34763Y-31742D01*
X34763Y-31250D02*
X36889Y-31250D01*
X34763Y-31742D02*
X34763Y-31250D01*
G54D34*
X33089Y-33464D02*
X33089Y-34645D01*
X40138Y-44488D02*
X40944Y-44488D01*
X40944Y-43682D02*
X40944Y-44488D01*
G54D36*
X43307Y-45078D02*
X41929Y-45078D01*
X41338Y-44488D02*
X40944Y-44488D01*
X40944Y-44488D02*
X40551Y-44488D01*
X41929Y-45078D02*
X41338Y-44488D01*
G54D34*
X50787Y-53149D02*
X50787Y-54330D01*
X43307Y-54330D02*
X43307Y-45078D01*
X43700Y-54724D02*
X43307Y-54330D01*
X50393Y-54724D02*
X43700Y-54724D01*
X50787Y-54330D02*
X50393Y-54724D01*
X31102Y-44488D02*
X33089Y-44488D01*
X51968Y-40569D02*
X51968Y-40157D01*
X50787Y-39370D02*
X50787Y-38188D01*
X51181Y-39763D02*
X50787Y-39370D01*
X51574Y-39763D02*
X51181Y-39763D01*
X51968Y-40157D02*
X51574Y-39763D01*
X53955Y-45669D02*
X53955Y-49831D01*
X53955Y-49831D02*
X53937Y-49850D01*
X53955Y-44881D02*
X53955Y-45669D01*
X53955Y-44881D02*
X53937Y-44881D01*
X53937Y-44881D02*
X53543Y-45275D01*
X53955Y-45669D02*
X53937Y-45669D01*
X53937Y-45669D02*
X53543Y-45275D01*
X51968Y-45687D02*
X51968Y-45078D01*
X51968Y-43682D02*
X51968Y-45078D01*
X51968Y-45078D02*
X51968Y-45275D01*
X51968Y-45275D02*
X51968Y-45078D01*
G54D36*
X49606Y-45078D02*
X51968Y-45078D01*
X51968Y-45078D02*
X52952Y-45078D01*
X53149Y-45275D02*
X53543Y-45275D01*
X52952Y-45078D02*
X53149Y-45275D01*
G54D34*
X51968Y-46437D02*
X51968Y-46850D01*
X50787Y-47637D02*
X50787Y-48425D01*
X51181Y-47244D02*
X50787Y-47637D01*
X51574Y-47244D02*
X51181Y-47244D01*
X51968Y-46850D02*
X51574Y-47244D01*
X56692Y-43682D02*
X56692Y-44488D01*
X54705Y-45669D02*
X54724Y-45669D01*
X54724Y-45669D02*
X55118Y-45275D01*
X54705Y-44881D02*
X54724Y-44881D01*
X54724Y-44881D02*
X55118Y-45275D01*
G54D36*
X56692Y-44488D02*
X55905Y-45275D01*
X55905Y-45275D02*
X55118Y-45275D01*
X59448Y-44488D02*
X56692Y-44488D01*
G54D34*
X54705Y-44881D02*
X54705Y-45669D01*
X69310Y-36614D02*
X68503Y-36614D01*
X68503Y-36201D02*
X68503Y-36614D01*
G54D36*
X59448Y-40944D02*
X59448Y-38976D01*
X61811Y-36614D02*
X68503Y-36614D01*
X68503Y-36614D02*
X68897Y-36614D01*
X59448Y-38976D02*
X61811Y-36614D01*
G54D34*
X70060Y-36614D02*
X71653Y-36614D01*
G54D33*
X71259Y-51279D02*
X71259Y-49981D01*
X36889Y-32234D02*
X36889Y-32598D01*
X31980Y-33948D02*
X31299Y-33948D01*
X32283Y-34251D02*
X31980Y-33948D01*
X32283Y-35236D02*
X32283Y-34251D01*
X32677Y-35629D02*
X32283Y-35236D01*
X34251Y-35629D02*
X32677Y-35629D01*
X34448Y-35433D02*
X34251Y-35629D01*
X34448Y-34645D02*
X34448Y-35433D01*
X36889Y-32598D02*
X36811Y-32677D01*
X38957Y-31889D02*
X39141Y-31889D01*
X39141Y-31889D02*
X39157Y-31874D01*
G54D34*
X39157Y-30421D02*
X39157Y-31874D01*
X40551Y-31889D02*
X39173Y-31889D01*
X40551Y-31889D02*
X41338Y-32677D01*
X39157Y-31874D02*
X39173Y-31889D01*
X41338Y-32677D02*
X41338Y-32677D01*
X37795Y-42307D02*
X38401Y-42307D01*
X38582Y-42125D02*
X39388Y-42125D01*
X38401Y-42307D02*
X38582Y-42125D01*
X37795Y-44307D02*
X38401Y-44307D01*
X38582Y-44488D02*
X39388Y-44488D01*
X38401Y-44307D02*
X38582Y-44488D01*
X35433Y-44307D02*
X34826Y-44307D01*
X34645Y-44488D02*
X33839Y-44488D01*
X34826Y-44307D02*
X34645Y-44488D01*
X35433Y-42307D02*
X34451Y-42307D01*
X34451Y-42307D02*
X34251Y-42107D01*
G54D33*
X71259Y-51869D02*
X70571Y-51869D01*
X70571Y-51869D02*
X70472Y-51968D01*
G54D36*
X56937Y-48180D02*
X56988Y-48129D01*
X56937Y-49850D02*
X56937Y-48180D01*
G54D33*
X70472Y-51968D02*
X68503Y-51968D01*
G54D34*
X63779Y-51968D02*
X68503Y-51968D01*
X60629Y-49981D02*
X60629Y-50787D01*
X61811Y-51968D02*
X63779Y-51968D01*
X60629Y-50787D02*
X61811Y-51968D01*
X59448Y-49981D02*
X60629Y-49981D01*
X58267Y-49981D02*
X57067Y-49981D01*
X57067Y-49981D02*
X56937Y-49850D01*
X59448Y-49981D02*
X58267Y-49981D01*
G54D10*
G36*
X36318Y-32578D02*
X35334Y-32578D01*
X35334Y-32506D01*
X35374Y-32411D01*
X35374Y-32293D01*
X35374Y-32057D01*
X35334Y-31962D01*
X35334Y-31791D01*
X33366Y-31791D01*
X33366Y-31397D01*
X33464Y-31397D01*
X35334Y-31397D01*
X35334Y-31029D01*
X35374Y-30934D01*
X35374Y-30817D01*
X35374Y-30581D01*
X35334Y-30485D01*
X35334Y-29625D01*
X36318Y-29625D01*
X36318Y-30485D01*
X36279Y-30581D01*
X36279Y-30698D01*
X36279Y-30934D01*
X36318Y-31029D01*
X36318Y-31962D01*
X36279Y-32057D01*
X36279Y-32174D01*
X36279Y-32411D01*
X36318Y-32506D01*
X36318Y-32578D01*
X36318Y-32578D01*
G37*
G54D33*
X36318Y-32578D02*
X35334Y-32578D01*
X35334Y-32506D01*
X35374Y-32411D01*
X35374Y-32293D01*
X35374Y-32057D01*
X35334Y-31962D01*
X35334Y-31791D01*
X33366Y-31791D01*
X33366Y-31397D01*
X33464Y-31397D01*
X35334Y-31397D01*
X35334Y-31029D01*
X35374Y-30934D01*
X35374Y-30817D01*
X35374Y-30581D01*
X35334Y-30485D01*
X35334Y-29625D01*
X36318Y-29625D01*
X36318Y-30485D01*
X36279Y-30581D01*
X36279Y-30698D01*
X36279Y-30934D01*
X36318Y-31029D01*
X36318Y-31962D01*
X36279Y-32057D01*
X36279Y-32174D01*
X36279Y-32411D01*
X36318Y-32506D01*
X36318Y-32578D01*
M02*
