%FSLAX34Y34*%
G04 Gerber Fmt 3.4, Leading zero omitted, Abs format*
G04 (created by PCBNEW (2014-03-19 BZR 4756)-product) date Thu Jan  8 10:59:18 2015*
%MOIN*%
G01*
G70*
G90*
G04 APERTURE LIST*
%ADD10C,0.005906*%
%ADD11C,0.007874*%
%ADD12C,0.009843*%
%ADD13C,0.011811*%
%ADD14C,0.010827*%
%ADD15C,0.008858*%
%ADD16C,0.005000*%
%ADD17C,0.002600*%
%ADD18C,0.004000*%
%ADD19C,0.003900*%
%ADD20C,0.015000*%
%ADD21C,0.005900*%
%ADD22C,0.010000*%
G04 APERTURE END LIST*
G54D10*
G54D11*
X49025Y-48800D02*
X49025Y-48825D01*
X48650Y-48800D02*
X49025Y-48800D01*
X49050Y-37775D02*
X49050Y-37800D01*
X48700Y-37775D02*
X49050Y-37775D01*
G54D12*
X33736Y-41319D02*
X33961Y-41319D01*
X33848Y-41713D02*
X33848Y-41319D01*
X34373Y-41301D02*
X34036Y-41807D01*
X34730Y-41713D02*
X34598Y-41526D01*
X34505Y-41713D02*
X34505Y-41319D01*
X34655Y-41319D01*
X34692Y-41338D01*
X34711Y-41357D01*
X34730Y-41394D01*
X34730Y-41451D01*
X34711Y-41488D01*
X34692Y-41507D01*
X34655Y-41526D01*
X34505Y-41526D01*
G54D13*
X61697Y-33867D02*
X61697Y-33276D01*
X61838Y-33276D01*
X61922Y-33304D01*
X61978Y-33360D01*
X62006Y-33417D01*
X62034Y-33529D01*
X62034Y-33614D01*
X62006Y-33726D01*
X61978Y-33782D01*
X61922Y-33839D01*
X61838Y-33867D01*
X61697Y-33867D01*
X62625Y-33867D02*
X62428Y-33585D01*
X62288Y-33867D02*
X62288Y-33276D01*
X62513Y-33276D01*
X62569Y-33304D01*
X62597Y-33332D01*
X62625Y-33389D01*
X62625Y-33473D01*
X62597Y-33529D01*
X62569Y-33557D01*
X62513Y-33585D01*
X62288Y-33585D01*
X62878Y-33867D02*
X62878Y-33276D01*
X63075Y-33276D02*
X63272Y-33867D01*
X63469Y-33276D01*
X63666Y-33557D02*
X63862Y-33557D01*
X63947Y-33867D02*
X63666Y-33867D01*
X63666Y-33276D01*
X63947Y-33276D01*
X64537Y-33867D02*
X64340Y-33585D01*
X64200Y-33867D02*
X64200Y-33276D01*
X64425Y-33276D01*
X64481Y-33304D01*
X64509Y-33332D01*
X64537Y-33389D01*
X64537Y-33473D01*
X64509Y-33529D01*
X64481Y-33557D01*
X64425Y-33585D01*
X64200Y-33585D01*
X65353Y-33276D02*
X65465Y-33276D01*
X65522Y-33304D01*
X65578Y-33360D01*
X65606Y-33473D01*
X65606Y-33670D01*
X65578Y-33782D01*
X65522Y-33839D01*
X65465Y-33867D01*
X65353Y-33867D01*
X65297Y-33839D01*
X65240Y-33782D01*
X65212Y-33670D01*
X65212Y-33473D01*
X65240Y-33360D01*
X65297Y-33304D01*
X65353Y-33276D01*
X65859Y-33276D02*
X65859Y-33754D01*
X65887Y-33810D01*
X65915Y-33839D01*
X65971Y-33867D01*
X66084Y-33867D01*
X66140Y-33839D01*
X66168Y-33810D01*
X66196Y-33754D01*
X66196Y-33276D01*
X66393Y-33276D02*
X66731Y-33276D01*
X66562Y-33867D02*
X66562Y-33276D01*
X67378Y-33867D02*
X67378Y-33276D01*
X67574Y-33698D01*
X67771Y-33276D01*
X67771Y-33867D01*
X68024Y-33698D02*
X68306Y-33698D01*
X67968Y-33867D02*
X68165Y-33276D01*
X68362Y-33867D01*
X68502Y-33276D02*
X68896Y-33867D01*
X68896Y-33276D02*
X68502Y-33867D01*
X69880Y-33867D02*
X69543Y-33867D01*
X69712Y-33867D02*
X69712Y-33276D01*
X69655Y-33360D01*
X69599Y-33417D01*
X69543Y-33445D01*
X70246Y-33276D02*
X70302Y-33276D01*
X70358Y-33304D01*
X70387Y-33332D01*
X70415Y-33389D01*
X70443Y-33501D01*
X70443Y-33642D01*
X70415Y-33754D01*
X70387Y-33810D01*
X70358Y-33839D01*
X70302Y-33867D01*
X70246Y-33867D01*
X70190Y-33839D01*
X70162Y-33810D01*
X70133Y-33754D01*
X70105Y-33642D01*
X70105Y-33501D01*
X70133Y-33389D01*
X70162Y-33332D01*
X70190Y-33304D01*
X70246Y-33276D01*
X70808Y-33276D02*
X70865Y-33276D01*
X70921Y-33304D01*
X70949Y-33332D01*
X70977Y-33389D01*
X71005Y-33501D01*
X71005Y-33642D01*
X70977Y-33754D01*
X70949Y-33810D01*
X70921Y-33839D01*
X70865Y-33867D01*
X70808Y-33867D01*
X70752Y-33839D01*
X70724Y-33810D01*
X70696Y-33754D01*
X70668Y-33642D01*
X70668Y-33501D01*
X70696Y-33389D01*
X70724Y-33332D01*
X70752Y-33304D01*
X70808Y-33276D01*
X71652Y-33276D02*
X71793Y-33867D01*
X71905Y-33445D01*
X72018Y-33867D01*
X72158Y-33276D01*
X31050Y-50346D02*
X31072Y-50324D01*
X31117Y-50301D01*
X31230Y-50301D01*
X31275Y-50324D01*
X31297Y-50346D01*
X31320Y-50391D01*
X31320Y-50436D01*
X31297Y-50503D01*
X31027Y-50773D01*
X31320Y-50773D01*
X31747Y-50301D02*
X31522Y-50301D01*
X31500Y-50526D01*
X31522Y-50503D01*
X31567Y-50481D01*
X31680Y-50481D01*
X31725Y-50503D01*
X31747Y-50526D01*
X31770Y-50571D01*
X31770Y-50683D01*
X31747Y-50728D01*
X31725Y-50751D01*
X31680Y-50773D01*
X31567Y-50773D01*
X31522Y-50751D01*
X31500Y-50728D01*
X32062Y-50301D02*
X32107Y-50301D01*
X32152Y-50324D01*
X32175Y-50346D01*
X32197Y-50391D01*
X32220Y-50481D01*
X32220Y-50593D01*
X32197Y-50683D01*
X32175Y-50728D01*
X32152Y-50751D01*
X32107Y-50773D01*
X32062Y-50773D01*
X32017Y-50751D01*
X31995Y-50728D01*
X31972Y-50683D01*
X31950Y-50593D01*
X31950Y-50481D01*
X31972Y-50391D01*
X31995Y-50346D01*
X32017Y-50324D01*
X32062Y-50301D01*
X32782Y-50773D02*
X32782Y-50458D01*
X32782Y-50503D02*
X32804Y-50481D01*
X32849Y-50458D01*
X32917Y-50458D01*
X32962Y-50481D01*
X32984Y-50526D01*
X32984Y-50773D01*
X32984Y-50526D02*
X33007Y-50481D01*
X33052Y-50458D01*
X33119Y-50458D01*
X33164Y-50481D01*
X33187Y-50526D01*
X33187Y-50773D01*
X33367Y-50301D02*
X33479Y-50773D01*
X33569Y-50436D01*
X33659Y-50773D01*
X33772Y-50301D01*
X31815Y-51553D02*
X31815Y-51081D01*
X31972Y-51418D01*
X32130Y-51081D01*
X32130Y-51553D01*
X32332Y-51418D02*
X32557Y-51418D01*
X32287Y-51553D02*
X32444Y-51081D01*
X32602Y-51553D01*
X32714Y-51081D02*
X33029Y-51553D01*
X33029Y-51081D02*
X32714Y-51553D01*
G54D14*
X46963Y-31560D02*
X46942Y-31540D01*
X46901Y-31478D01*
X46880Y-31437D01*
X46860Y-31375D01*
X46839Y-31272D01*
X46839Y-31189D01*
X46860Y-31086D01*
X46880Y-31024D01*
X46901Y-30983D01*
X46942Y-30921D01*
X46963Y-30900D01*
X47334Y-30962D02*
X47128Y-30962D01*
X47107Y-31169D01*
X47128Y-31148D01*
X47169Y-31127D01*
X47272Y-31127D01*
X47313Y-31148D01*
X47334Y-31169D01*
X47355Y-31210D01*
X47355Y-31313D01*
X47334Y-31354D01*
X47313Y-31375D01*
X47272Y-31395D01*
X47169Y-31395D01*
X47128Y-31375D01*
X47107Y-31354D01*
X47623Y-30962D02*
X47664Y-30962D01*
X47705Y-30983D01*
X47726Y-31004D01*
X47746Y-31045D01*
X47767Y-31127D01*
X47767Y-31230D01*
X47746Y-31313D01*
X47726Y-31354D01*
X47705Y-31375D01*
X47664Y-31395D01*
X47623Y-31395D01*
X47581Y-31375D01*
X47561Y-31354D01*
X47540Y-31313D01*
X47520Y-31230D01*
X47520Y-31127D01*
X47540Y-31045D01*
X47561Y-31004D01*
X47581Y-30983D01*
X47623Y-30962D01*
X48035Y-30962D02*
X48076Y-30962D01*
X48118Y-30983D01*
X48138Y-31004D01*
X48159Y-31045D01*
X48179Y-31127D01*
X48179Y-31230D01*
X48159Y-31313D01*
X48138Y-31354D01*
X48118Y-31375D01*
X48076Y-31395D01*
X48035Y-31395D01*
X47994Y-31375D01*
X47973Y-31354D01*
X47953Y-31313D01*
X47932Y-31230D01*
X47932Y-31127D01*
X47953Y-31045D01*
X47973Y-31004D01*
X47994Y-30983D01*
X48035Y-30962D01*
X48695Y-31395D02*
X48695Y-31107D01*
X48695Y-31148D02*
X48716Y-31127D01*
X48757Y-31107D01*
X48819Y-31107D01*
X48860Y-31127D01*
X48881Y-31169D01*
X48881Y-31395D01*
X48881Y-31169D02*
X48901Y-31127D01*
X48943Y-31107D01*
X49004Y-31107D01*
X49046Y-31127D01*
X49066Y-31169D01*
X49066Y-31395D01*
X49252Y-31272D02*
X49458Y-31272D01*
X49211Y-31395D02*
X49355Y-30962D01*
X49499Y-31395D01*
X50159Y-31375D02*
X50118Y-31395D01*
X50035Y-31395D01*
X49994Y-31375D01*
X49974Y-31354D01*
X49953Y-31313D01*
X49953Y-31189D01*
X49974Y-31148D01*
X49994Y-31127D01*
X50035Y-31107D01*
X50118Y-31107D01*
X50159Y-31127D01*
X50530Y-31107D02*
X50530Y-31395D01*
X50345Y-31107D02*
X50345Y-31334D01*
X50365Y-31375D01*
X50407Y-31395D01*
X50469Y-31395D01*
X50510Y-31375D01*
X50530Y-31354D01*
X50737Y-31395D02*
X50737Y-31107D01*
X50737Y-31189D02*
X50757Y-31148D01*
X50778Y-31127D01*
X50819Y-31107D01*
X50860Y-31107D01*
X51005Y-31395D02*
X51005Y-31107D01*
X51005Y-31189D02*
X51025Y-31148D01*
X51046Y-31127D01*
X51087Y-31107D01*
X51128Y-31107D01*
X51438Y-31375D02*
X51397Y-31395D01*
X51314Y-31395D01*
X51273Y-31375D01*
X51252Y-31334D01*
X51252Y-31169D01*
X51273Y-31127D01*
X51314Y-31107D01*
X51397Y-31107D01*
X51438Y-31127D01*
X51458Y-31169D01*
X51458Y-31210D01*
X51252Y-31251D01*
X51644Y-31107D02*
X51644Y-31395D01*
X51644Y-31148D02*
X51665Y-31127D01*
X51706Y-31107D01*
X51768Y-31107D01*
X51809Y-31127D01*
X51830Y-31169D01*
X51830Y-31395D01*
X51974Y-31107D02*
X52139Y-31107D01*
X52036Y-30962D02*
X52036Y-31334D01*
X52056Y-31375D01*
X52098Y-31395D01*
X52139Y-31395D01*
X52675Y-31395D02*
X52634Y-31375D01*
X52613Y-31334D01*
X52613Y-30962D01*
X52840Y-31395D02*
X52840Y-31107D01*
X52840Y-30962D02*
X52820Y-30983D01*
X52840Y-31004D01*
X52861Y-30983D01*
X52840Y-30962D01*
X52840Y-31004D01*
X53046Y-31395D02*
X53046Y-31107D01*
X53046Y-31148D02*
X53067Y-31127D01*
X53108Y-31107D01*
X53170Y-31107D01*
X53211Y-31127D01*
X53232Y-31169D01*
X53232Y-31395D01*
X53232Y-31169D02*
X53253Y-31127D01*
X53294Y-31107D01*
X53356Y-31107D01*
X53397Y-31127D01*
X53418Y-31169D01*
X53418Y-31395D01*
X53624Y-31395D02*
X53624Y-31107D01*
X53624Y-30962D02*
X53603Y-30983D01*
X53624Y-31004D01*
X53644Y-30983D01*
X53624Y-30962D01*
X53624Y-31004D01*
X53768Y-31107D02*
X53933Y-31107D01*
X53830Y-30962D02*
X53830Y-31334D01*
X53851Y-31375D01*
X53892Y-31395D01*
X53933Y-31395D01*
X54036Y-31560D02*
X54057Y-31540D01*
X54098Y-31478D01*
X54119Y-31437D01*
X54139Y-31375D01*
X54160Y-31272D01*
X54160Y-31189D01*
X54139Y-31086D01*
X54119Y-31024D01*
X54098Y-30983D01*
X54057Y-30921D01*
X54036Y-30900D01*
G54D11*
X48425Y-38976D02*
X48622Y-38976D01*
X48425Y-47637D02*
X48622Y-47637D01*
X44291Y-47637D02*
X44488Y-47637D01*
X44488Y-38976D02*
X44291Y-38976D01*
G54D15*
X30793Y-37365D02*
X30793Y-37128D01*
X30793Y-37010D02*
X30776Y-37027D01*
X30793Y-37044D01*
X30809Y-37027D01*
X30793Y-37010D01*
X30793Y-37044D01*
X31113Y-37365D02*
X31113Y-37010D01*
X31113Y-37348D02*
X31079Y-37365D01*
X31012Y-37365D01*
X30978Y-37348D01*
X30961Y-37331D01*
X30944Y-37297D01*
X30944Y-37196D01*
X30961Y-37162D01*
X30978Y-37145D01*
X31012Y-37128D01*
X31079Y-37128D01*
X31113Y-37145D01*
X31434Y-37128D02*
X31434Y-37483D01*
X31434Y-37348D02*
X31400Y-37365D01*
X31332Y-37365D01*
X31299Y-37348D01*
X31282Y-37331D01*
X31265Y-37297D01*
X31265Y-37196D01*
X31282Y-37162D01*
X31299Y-37145D01*
X31332Y-37128D01*
X31400Y-37128D01*
X31434Y-37145D01*
X32024Y-37365D02*
X32024Y-37179D01*
X32007Y-37145D01*
X31974Y-37128D01*
X31906Y-37128D01*
X31872Y-37145D01*
X32024Y-37348D02*
X31991Y-37365D01*
X31906Y-37365D01*
X31872Y-37348D01*
X31856Y-37314D01*
X31856Y-37280D01*
X31872Y-37246D01*
X31906Y-37230D01*
X31991Y-37230D01*
X32024Y-37213D01*
X32345Y-37365D02*
X32345Y-37010D01*
X32345Y-37348D02*
X32311Y-37365D01*
X32244Y-37365D01*
X32210Y-37348D01*
X32193Y-37331D01*
X32176Y-37297D01*
X32176Y-37196D01*
X32193Y-37162D01*
X32210Y-37145D01*
X32244Y-37128D01*
X32311Y-37128D01*
X32345Y-37145D01*
X32514Y-37128D02*
X32514Y-37432D01*
X32497Y-37466D01*
X32463Y-37483D01*
X32446Y-37483D01*
X32514Y-37010D02*
X32497Y-37027D01*
X32514Y-37044D01*
X32530Y-37027D01*
X32514Y-37010D01*
X32514Y-37044D01*
G54D12*
X41953Y-28149D02*
X41934Y-28187D01*
X41934Y-28243D01*
X41953Y-28299D01*
X41990Y-28337D01*
X42028Y-28356D01*
X42103Y-28374D01*
X42159Y-28374D01*
X42234Y-28356D01*
X42271Y-28337D01*
X42309Y-28299D01*
X42328Y-28243D01*
X42328Y-28206D01*
X42309Y-28149D01*
X42290Y-28131D01*
X42159Y-28131D01*
X42159Y-28206D01*
X42328Y-27962D02*
X41934Y-27962D01*
X42328Y-27737D01*
X41934Y-27737D01*
X42328Y-27550D02*
X41934Y-27550D01*
X41934Y-27456D01*
X41953Y-27400D01*
X41990Y-27362D01*
X42028Y-27343D01*
X42103Y-27325D01*
X42159Y-27325D01*
X42234Y-27343D01*
X42271Y-27362D01*
X42309Y-27400D01*
X42328Y-27456D01*
X42328Y-27550D01*
X44884Y-28462D02*
X44884Y-28649D01*
X45071Y-28668D01*
X45053Y-28649D01*
X45034Y-28612D01*
X45034Y-28518D01*
X45053Y-28481D01*
X45071Y-28462D01*
X45109Y-28443D01*
X45203Y-28443D01*
X45240Y-28462D01*
X45259Y-28481D01*
X45278Y-28518D01*
X45278Y-28612D01*
X45259Y-28649D01*
X45240Y-28668D01*
X44884Y-28199D02*
X44884Y-28162D01*
X44903Y-28124D01*
X44921Y-28106D01*
X44959Y-28087D01*
X45034Y-28068D01*
X45128Y-28068D01*
X45203Y-28087D01*
X45240Y-28106D01*
X45259Y-28124D01*
X45278Y-28162D01*
X45278Y-28199D01*
X45259Y-28237D01*
X45240Y-28256D01*
X45203Y-28274D01*
X45128Y-28293D01*
X45034Y-28293D01*
X44959Y-28274D01*
X44921Y-28256D01*
X44903Y-28237D01*
X44884Y-28199D01*
X44884Y-27656D02*
X45278Y-27525D01*
X44884Y-27393D01*
G54D13*
X31404Y-49917D02*
X31207Y-49635D01*
X31067Y-49917D02*
X31067Y-49326D01*
X31292Y-49326D01*
X31348Y-49354D01*
X31376Y-49382D01*
X31404Y-49439D01*
X31404Y-49523D01*
X31376Y-49579D01*
X31348Y-49607D01*
X31292Y-49635D01*
X31067Y-49635D01*
X31854Y-49607D02*
X31657Y-49607D01*
X31657Y-49917D02*
X31657Y-49326D01*
X31939Y-49326D01*
X32614Y-49917D02*
X32614Y-49326D01*
X32895Y-49917D02*
X32895Y-49326D01*
X33232Y-49917D01*
X33232Y-49326D01*
G54D12*
X34936Y-28721D02*
X34936Y-28327D01*
X35029Y-28327D01*
X35086Y-28346D01*
X35123Y-28383D01*
X35142Y-28421D01*
X35161Y-28496D01*
X35161Y-28552D01*
X35142Y-28627D01*
X35123Y-28665D01*
X35086Y-28702D01*
X35029Y-28721D01*
X34936Y-28721D01*
X35329Y-28721D02*
X35329Y-28327D01*
X35498Y-28702D02*
X35554Y-28721D01*
X35648Y-28721D01*
X35686Y-28702D01*
X35704Y-28683D01*
X35723Y-28646D01*
X35723Y-28608D01*
X35704Y-28571D01*
X35686Y-28552D01*
X35648Y-28533D01*
X35573Y-28515D01*
X35536Y-28496D01*
X35517Y-28477D01*
X35498Y-28440D01*
X35498Y-28402D01*
X35517Y-28365D01*
X35536Y-28346D01*
X35573Y-28327D01*
X35667Y-28327D01*
X35723Y-28346D01*
X35873Y-28608D02*
X36061Y-28608D01*
X35836Y-28721D02*
X35967Y-28327D01*
X36098Y-28721D01*
X36361Y-28515D02*
X36417Y-28533D01*
X36436Y-28552D01*
X36454Y-28590D01*
X36454Y-28646D01*
X36436Y-28683D01*
X36417Y-28702D01*
X36379Y-28721D01*
X36229Y-28721D01*
X36229Y-28327D01*
X36361Y-28327D01*
X36398Y-28346D01*
X36417Y-28365D01*
X36436Y-28402D01*
X36436Y-28440D01*
X36417Y-28477D01*
X36398Y-28496D01*
X36361Y-28515D01*
X36229Y-28515D01*
X36811Y-28721D02*
X36623Y-28721D01*
X36623Y-28327D01*
X36942Y-28515D02*
X37073Y-28515D01*
X37129Y-28721D02*
X36942Y-28721D01*
X36942Y-28327D01*
X37129Y-28327D01*
G54D13*
X35640Y-51656D02*
X35640Y-52162D01*
X35612Y-52218D01*
X35556Y-52246D01*
X35528Y-52246D01*
X35640Y-51459D02*
X35612Y-51487D01*
X35640Y-51515D01*
X35668Y-51487D01*
X35640Y-51459D01*
X35640Y-51515D01*
X36006Y-52049D02*
X35949Y-52021D01*
X35921Y-51993D01*
X35893Y-51937D01*
X35893Y-51768D01*
X35921Y-51712D01*
X35949Y-51684D01*
X36006Y-51656D01*
X36090Y-51656D01*
X36146Y-51684D01*
X36174Y-51712D01*
X36203Y-51768D01*
X36203Y-51937D01*
X36174Y-51993D01*
X36146Y-52021D01*
X36090Y-52049D01*
X36006Y-52049D01*
X36456Y-51656D02*
X36456Y-52049D01*
X36456Y-51712D02*
X36484Y-51684D01*
X36540Y-51656D01*
X36624Y-51656D01*
X36681Y-51684D01*
X36709Y-51740D01*
X36709Y-52049D01*
X37440Y-52049D02*
X37440Y-51459D01*
X37496Y-51824D02*
X37665Y-52049D01*
X37665Y-51656D02*
X37440Y-51881D01*
X38002Y-52049D02*
X37946Y-52021D01*
X37918Y-51965D01*
X37918Y-51459D01*
X38452Y-52021D02*
X38396Y-52049D01*
X38284Y-52049D01*
X38227Y-52021D01*
X38199Y-51965D01*
X38199Y-51740D01*
X38227Y-51684D01*
X38284Y-51656D01*
X38396Y-51656D01*
X38452Y-51684D01*
X38480Y-51740D01*
X38480Y-51796D01*
X38199Y-51852D01*
X38733Y-52049D02*
X38733Y-51656D01*
X38733Y-51459D02*
X38705Y-51487D01*
X38733Y-51515D01*
X38762Y-51487D01*
X38733Y-51459D01*
X38733Y-51515D01*
X39015Y-51656D02*
X39015Y-52049D01*
X39015Y-51712D02*
X39043Y-51684D01*
X39099Y-51656D01*
X39183Y-51656D01*
X39240Y-51684D01*
X39268Y-51740D01*
X39268Y-52049D01*
X35893Y-52601D02*
X35893Y-52994D01*
X35640Y-52601D02*
X35640Y-52910D01*
X35668Y-52966D01*
X35724Y-52994D01*
X35809Y-52994D01*
X35865Y-52966D01*
X35893Y-52938D01*
X36428Y-52994D02*
X36428Y-52685D01*
X36399Y-52629D01*
X36343Y-52601D01*
X36231Y-52601D01*
X36174Y-52629D01*
X36428Y-52966D02*
X36371Y-52994D01*
X36231Y-52994D01*
X36174Y-52966D01*
X36146Y-52910D01*
X36146Y-52854D01*
X36174Y-52797D01*
X36231Y-52769D01*
X36371Y-52769D01*
X36428Y-52741D01*
X36624Y-52601D02*
X36849Y-52601D01*
X36709Y-52994D02*
X36709Y-52488D01*
X36737Y-52432D01*
X36793Y-52404D01*
X36849Y-52404D01*
X37749Y-52601D02*
X37749Y-53079D01*
X37721Y-53135D01*
X37693Y-53163D01*
X37637Y-53191D01*
X37552Y-53191D01*
X37496Y-53163D01*
X37749Y-52966D02*
X37693Y-52994D01*
X37580Y-52994D01*
X37524Y-52966D01*
X37496Y-52938D01*
X37468Y-52882D01*
X37468Y-52713D01*
X37496Y-52657D01*
X37524Y-52629D01*
X37580Y-52601D01*
X37693Y-52601D01*
X37749Y-52629D01*
X38030Y-52994D02*
X38030Y-52601D01*
X38030Y-52404D02*
X38002Y-52432D01*
X38030Y-52460D01*
X38059Y-52432D01*
X38030Y-52404D01*
X38030Y-52460D01*
X35612Y-53405D02*
X35640Y-53377D01*
X35696Y-53349D01*
X35837Y-53349D01*
X35893Y-53377D01*
X35921Y-53405D01*
X35949Y-53461D01*
X35949Y-53517D01*
X35921Y-53602D01*
X35584Y-53939D01*
X35949Y-53939D01*
X36315Y-53349D02*
X36371Y-53349D01*
X36428Y-53377D01*
X36456Y-53405D01*
X36484Y-53461D01*
X36512Y-53574D01*
X36512Y-53714D01*
X36484Y-53827D01*
X36456Y-53883D01*
X36428Y-53911D01*
X36371Y-53939D01*
X36315Y-53939D01*
X36259Y-53911D01*
X36231Y-53883D01*
X36203Y-53827D01*
X36174Y-53714D01*
X36174Y-53574D01*
X36203Y-53461D01*
X36231Y-53405D01*
X36259Y-53377D01*
X36315Y-53349D01*
X37074Y-53939D02*
X36737Y-53939D01*
X36906Y-53939D02*
X36906Y-53349D01*
X36849Y-53433D01*
X36793Y-53489D01*
X36737Y-53517D01*
X37609Y-53349D02*
X37327Y-53349D01*
X37299Y-53630D01*
X37327Y-53602D01*
X37384Y-53574D01*
X37524Y-53574D01*
X37580Y-53602D01*
X37609Y-53630D01*
X37637Y-53686D01*
X37637Y-53827D01*
X37609Y-53883D01*
X37580Y-53911D01*
X37524Y-53939D01*
X37384Y-53939D01*
X37327Y-53911D01*
X37299Y-53883D01*
X37890Y-53883D02*
X37918Y-53911D01*
X37890Y-53939D01*
X37862Y-53911D01*
X37890Y-53883D01*
X37890Y-53939D01*
X38284Y-53349D02*
X38340Y-53349D01*
X38396Y-53377D01*
X38424Y-53405D01*
X38452Y-53461D01*
X38480Y-53574D01*
X38480Y-53714D01*
X38452Y-53827D01*
X38424Y-53883D01*
X38396Y-53911D01*
X38340Y-53939D01*
X38284Y-53939D01*
X38227Y-53911D01*
X38199Y-53883D01*
X38171Y-53827D01*
X38143Y-53714D01*
X38143Y-53574D01*
X38171Y-53461D01*
X38199Y-53405D01*
X38227Y-53377D01*
X38284Y-53349D01*
X39043Y-53939D02*
X38705Y-53939D01*
X38874Y-53939D02*
X38874Y-53349D01*
X38818Y-53433D01*
X38762Y-53489D01*
X38705Y-53517D01*
X35893Y-54884D02*
X35893Y-54293D01*
X35893Y-54856D02*
X35837Y-54884D01*
X35724Y-54884D01*
X35668Y-54856D01*
X35640Y-54828D01*
X35612Y-54771D01*
X35612Y-54603D01*
X35640Y-54547D01*
X35668Y-54518D01*
X35724Y-54490D01*
X35837Y-54490D01*
X35893Y-54518D01*
X36174Y-54884D02*
X36174Y-54490D01*
X36174Y-54603D02*
X36203Y-54547D01*
X36231Y-54518D01*
X36287Y-54490D01*
X36343Y-54490D01*
X36540Y-54884D02*
X36540Y-54490D01*
X36540Y-54293D02*
X36512Y-54322D01*
X36540Y-54350D01*
X36568Y-54322D01*
X36540Y-54293D01*
X36540Y-54350D01*
X36765Y-54490D02*
X36906Y-54884D01*
X37046Y-54490D01*
X37496Y-54856D02*
X37440Y-54884D01*
X37327Y-54884D01*
X37271Y-54856D01*
X37243Y-54800D01*
X37243Y-54575D01*
X37271Y-54518D01*
X37327Y-54490D01*
X37440Y-54490D01*
X37496Y-54518D01*
X37524Y-54575D01*
X37524Y-54631D01*
X37243Y-54687D01*
X37777Y-54884D02*
X37777Y-54490D01*
X37777Y-54603D02*
X37805Y-54547D01*
X37834Y-54518D01*
X37890Y-54490D01*
X37946Y-54490D01*
X38846Y-54884D02*
X38846Y-54575D01*
X38818Y-54518D01*
X38762Y-54490D01*
X38649Y-54490D01*
X38593Y-54518D01*
X38846Y-54856D02*
X38790Y-54884D01*
X38649Y-54884D01*
X38593Y-54856D01*
X38565Y-54800D01*
X38565Y-54743D01*
X38593Y-54687D01*
X38649Y-54659D01*
X38790Y-54659D01*
X38846Y-54631D01*
X39127Y-54884D02*
X39127Y-54490D01*
X39127Y-54547D02*
X39155Y-54518D01*
X39212Y-54490D01*
X39296Y-54490D01*
X39352Y-54518D01*
X39380Y-54575D01*
X39380Y-54884D01*
X39380Y-54575D02*
X39408Y-54518D01*
X39465Y-54490D01*
X39549Y-54490D01*
X39605Y-54518D01*
X39633Y-54575D01*
X39633Y-54884D01*
X39915Y-54490D02*
X39915Y-55081D01*
X39915Y-54518D02*
X39971Y-54490D01*
X40083Y-54490D01*
X40140Y-54518D01*
X40168Y-54547D01*
X40196Y-54603D01*
X40196Y-54771D01*
X40168Y-54828D01*
X40140Y-54856D01*
X40083Y-54884D01*
X39971Y-54884D01*
X39915Y-54856D01*
X40899Y-54884D02*
X40899Y-54490D01*
X40899Y-54603D02*
X40927Y-54547D01*
X40955Y-54518D01*
X41011Y-54490D01*
X41068Y-54490D01*
X41546Y-54293D02*
X41264Y-54293D01*
X41236Y-54575D01*
X41264Y-54547D01*
X41321Y-54518D01*
X41461Y-54518D01*
X41517Y-54547D01*
X41546Y-54575D01*
X41574Y-54631D01*
X41574Y-54771D01*
X41546Y-54828D01*
X41517Y-54856D01*
X41461Y-54884D01*
X41321Y-54884D01*
X41264Y-54856D01*
X41236Y-54828D01*
G54D10*
X61220Y-42125D02*
X61023Y-42322D01*
X61023Y-42322D02*
X60826Y-42125D01*
X60826Y-42125D02*
X61220Y-42125D01*
X61220Y-44488D02*
X61023Y-44685D01*
X61023Y-44685D02*
X60826Y-44488D01*
X60826Y-44488D02*
X61220Y-44488D01*
X60826Y-40748D02*
X61220Y-40354D01*
X61220Y-40748D02*
X60826Y-40354D01*
X60826Y-46259D02*
X61220Y-45866D01*
X61220Y-46259D02*
X60826Y-45866D01*
X65255Y-43405D02*
X65551Y-43110D01*
X65551Y-43405D02*
X65255Y-43110D01*
X65551Y-44389D02*
X65354Y-44586D01*
X65354Y-44586D02*
X65157Y-44389D01*
X65157Y-44389D02*
X65551Y-44389D01*
X66535Y-43307D02*
X65748Y-43307D01*
X68503Y-44094D02*
X66929Y-44094D01*
X66929Y-44094D02*
X66535Y-44488D01*
X66535Y-44488D02*
X65748Y-44488D01*
X67716Y-43307D02*
X66535Y-43307D01*
X69685Y-44094D02*
X69685Y-42519D01*
X69685Y-42519D02*
X67716Y-42519D01*
X67716Y-42519D02*
X67716Y-44094D01*
X67716Y-44094D02*
X69685Y-44094D01*
X63385Y-44488D02*
X63385Y-42125D01*
X62204Y-45669D02*
X61811Y-45669D01*
X64173Y-44488D02*
X64173Y-45669D01*
X64173Y-45669D02*
X62204Y-45669D01*
X63779Y-44094D02*
X64173Y-43700D01*
X64173Y-43700D02*
X63779Y-43307D01*
X63779Y-43307D02*
X64173Y-42913D01*
X64173Y-42913D02*
X63779Y-42519D01*
X63779Y-42519D02*
X64173Y-42125D01*
X64173Y-42125D02*
X64173Y-40944D01*
X64173Y-40944D02*
X61811Y-40944D01*
X64173Y-44488D02*
X63779Y-44094D01*
X62992Y-44488D02*
X62992Y-42125D01*
X62598Y-42125D02*
X61811Y-42125D01*
X62598Y-44488D02*
X61811Y-44488D01*
X62204Y-43307D02*
X61811Y-43307D01*
X62598Y-44488D02*
X62204Y-44094D01*
X62204Y-44094D02*
X62598Y-43700D01*
X62598Y-43700D02*
X62204Y-43307D01*
X62204Y-43307D02*
X62598Y-42913D01*
X62598Y-42913D02*
X62204Y-42519D01*
X62204Y-42519D02*
X62598Y-42125D01*
X66929Y-46062D02*
X72440Y-46062D01*
X72440Y-46062D02*
X72440Y-40551D01*
X72440Y-40551D02*
X61417Y-40551D01*
X61417Y-40551D02*
X61417Y-46062D01*
X61417Y-46062D02*
X66929Y-46062D01*
G54D16*
X69081Y-31703D02*
X68281Y-31703D01*
X68131Y-31653D02*
X69281Y-31653D01*
X69381Y-31603D02*
X67981Y-31603D01*
X67831Y-31553D02*
X69531Y-31553D01*
X69631Y-31503D02*
X67731Y-31503D01*
X67681Y-31453D02*
X69681Y-31453D01*
X70631Y-29803D02*
G75*
G03X70631Y-29803I-1950J0D01*
G74*
G01*
X66631Y-31853D02*
X70731Y-31853D01*
X70731Y-31853D02*
X70731Y-28053D01*
X70731Y-28053D02*
X70431Y-27753D01*
X70431Y-27753D02*
X66931Y-27753D01*
X66931Y-27753D02*
X66631Y-28053D01*
X66631Y-28053D02*
X66631Y-31853D01*
X68681Y-28003D02*
X68681Y-28303D01*
X68531Y-28153D02*
X68831Y-28153D01*
X65741Y-48493D02*
X66541Y-48493D01*
X66691Y-48543D02*
X65541Y-48543D01*
X65441Y-48593D02*
X66841Y-48593D01*
X66991Y-48643D02*
X65291Y-48643D01*
X65191Y-48693D02*
X67091Y-48693D01*
X67141Y-48743D02*
X65141Y-48743D01*
X68091Y-50393D02*
G75*
G03X68091Y-50393I-1950J0D01*
G74*
G01*
X68191Y-48343D02*
X64091Y-48343D01*
X64091Y-48343D02*
X64091Y-52143D01*
X64091Y-52143D02*
X64391Y-52443D01*
X64391Y-52443D02*
X67891Y-52443D01*
X67891Y-52443D02*
X68191Y-52143D01*
X68191Y-52143D02*
X68191Y-48343D01*
X66141Y-52193D02*
X66141Y-51893D01*
X66291Y-52043D02*
X65991Y-52043D01*
G54D17*
X68277Y-55147D02*
X68277Y-54793D01*
X68277Y-54793D02*
X68120Y-54793D01*
X68120Y-55147D02*
X68120Y-54793D01*
X68277Y-55147D02*
X68120Y-55147D01*
X68788Y-55147D02*
X68788Y-54793D01*
X68788Y-54793D02*
X68631Y-54793D01*
X68631Y-55147D02*
X68631Y-54793D01*
X68788Y-55147D02*
X68631Y-55147D01*
X68454Y-55147D02*
X68454Y-55088D01*
X68454Y-55088D02*
X68336Y-55088D01*
X68336Y-55147D02*
X68336Y-55088D01*
X68454Y-55147D02*
X68336Y-55147D01*
X68454Y-54852D02*
X68454Y-54793D01*
X68454Y-54793D02*
X68336Y-54793D01*
X68336Y-54852D02*
X68336Y-54793D01*
X68454Y-54852D02*
X68336Y-54852D01*
X68454Y-55029D02*
X68454Y-54911D01*
X68454Y-54911D02*
X68336Y-54911D01*
X68336Y-55029D02*
X68336Y-54911D01*
X68454Y-55029D02*
X68336Y-55029D01*
G54D18*
X68277Y-55127D02*
X68631Y-55127D01*
X68277Y-54813D02*
X68631Y-54813D01*
G54D19*
X67186Y-54670D02*
G75*
G03X67186Y-54670I-50J0D01*
G74*
G01*
X66686Y-54670D02*
X67086Y-54670D01*
X67086Y-54670D02*
X67086Y-55270D01*
X67086Y-55270D02*
X66686Y-55270D01*
X66286Y-55270D02*
X65886Y-55270D01*
X65886Y-55270D02*
X65886Y-54670D01*
X65886Y-54670D02*
X66286Y-54670D01*
G54D10*
X51082Y-44094D02*
X50984Y-43996D01*
X50984Y-43996D02*
X51181Y-44192D01*
X51082Y-40452D02*
X50984Y-40354D01*
X50984Y-40354D02*
X51181Y-40551D01*
X46358Y-50393D02*
X44488Y-50393D01*
X44488Y-50393D02*
X44488Y-47637D01*
X46358Y-50393D02*
X48425Y-50393D01*
X48425Y-50393D02*
X48425Y-47637D01*
X46456Y-36220D02*
X44488Y-36220D01*
X44488Y-36220D02*
X44488Y-38976D01*
X46456Y-36220D02*
X48326Y-36220D01*
X48326Y-36220D02*
X48425Y-36220D01*
X48425Y-36220D02*
X48425Y-38976D01*
X44488Y-38976D02*
X44488Y-39173D01*
X48425Y-38976D02*
X48425Y-39173D01*
X48425Y-47440D02*
X48425Y-47637D01*
X44488Y-47440D02*
X44488Y-47637D01*
X44488Y-43307D02*
X44488Y-47440D01*
X44488Y-47637D02*
X48425Y-47637D01*
X48425Y-47440D02*
X48425Y-39173D01*
X48425Y-38976D02*
X46456Y-38976D01*
X46456Y-38976D02*
X44488Y-38976D01*
X44488Y-39173D02*
X44488Y-43307D01*
X51968Y-48720D02*
X52066Y-48720D01*
X52066Y-48720D02*
X52066Y-52854D01*
X52066Y-52854D02*
X51968Y-52854D01*
X49606Y-52854D02*
X49507Y-52854D01*
X49507Y-52854D02*
X49507Y-48917D01*
X49507Y-48917D02*
X49507Y-48720D01*
X49507Y-48720D02*
X49606Y-48720D01*
X49606Y-37893D02*
X49507Y-37893D01*
X49507Y-37893D02*
X49507Y-33759D01*
X49507Y-33759D02*
X49606Y-33759D01*
X51968Y-33759D02*
X52066Y-33759D01*
X52066Y-33759D02*
X52066Y-37696D01*
X52066Y-37696D02*
X52066Y-37893D01*
X52066Y-37893D02*
X51968Y-37893D01*
G54D16*
X64750Y-31703D02*
X63950Y-31703D01*
X63800Y-31653D02*
X64950Y-31653D01*
X65050Y-31603D02*
X63650Y-31603D01*
X63500Y-31553D02*
X65200Y-31553D01*
X65300Y-31503D02*
X63400Y-31503D01*
X63350Y-31453D02*
X65350Y-31453D01*
X66300Y-29803D02*
G75*
G03X66300Y-29803I-1950J0D01*
G74*
G01*
X62300Y-31853D02*
X66400Y-31853D01*
X66400Y-31853D02*
X66400Y-28053D01*
X66400Y-28053D02*
X66100Y-27753D01*
X66100Y-27753D02*
X62600Y-27753D01*
X62600Y-27753D02*
X62300Y-28053D01*
X62300Y-28053D02*
X62300Y-31853D01*
X64350Y-28003D02*
X64350Y-28303D01*
X64200Y-28153D02*
X64500Y-28153D01*
X70072Y-48493D02*
X70872Y-48493D01*
X71022Y-48543D02*
X69872Y-48543D01*
X69772Y-48593D02*
X71172Y-48593D01*
X71322Y-48643D02*
X69622Y-48643D01*
X69522Y-48693D02*
X71422Y-48693D01*
X71472Y-48743D02*
X69472Y-48743D01*
X72422Y-50393D02*
G75*
G03X72422Y-50393I-1950J0D01*
G74*
G01*
X72522Y-48343D02*
X68422Y-48343D01*
X68422Y-48343D02*
X68422Y-52143D01*
X68422Y-52143D02*
X68722Y-52443D01*
X68722Y-52443D02*
X72222Y-52443D01*
X72222Y-52443D02*
X72522Y-52143D01*
X72522Y-52143D02*
X72522Y-48343D01*
X70472Y-52193D02*
X70472Y-51893D01*
X70622Y-52043D02*
X70322Y-52043D01*
X39770Y-40350D02*
G75*
G03X39770Y-40350I-70J0D01*
G74*
G01*
X37800Y-40400D02*
X37150Y-40400D01*
X37150Y-40400D02*
X37150Y-42000D01*
X37150Y-42000D02*
X37800Y-42000D01*
X39000Y-42000D02*
X39650Y-42000D01*
X39650Y-42000D02*
X39650Y-40400D01*
X39650Y-40400D02*
X39000Y-40400D01*
G54D20*
X52504Y-37043D02*
X52504Y-37357D01*
X55496Y-37043D02*
X55496Y-37377D01*
X52504Y-49243D02*
X52504Y-49557D01*
X55496Y-49243D02*
X55496Y-49577D01*
G54D10*
X45253Y-27170D02*
X44781Y-27170D01*
X44505Y-26816D02*
X45568Y-26816D01*
X45568Y-26816D02*
X45568Y-26383D01*
X43718Y-26816D02*
X43796Y-26816D01*
X43718Y-26816D02*
X43757Y-26816D01*
X43403Y-26816D02*
X43757Y-26816D01*
X41631Y-26422D02*
X41631Y-26816D01*
X41631Y-26816D02*
X42655Y-26816D01*
X45568Y-25516D02*
X45568Y-25320D01*
X45568Y-25320D02*
X45568Y-25123D01*
X45568Y-25123D02*
X41631Y-25123D01*
X41631Y-25123D02*
X41631Y-25477D01*
G54D16*
X60419Y-31703D02*
X59619Y-31703D01*
X59469Y-31653D02*
X60619Y-31653D01*
X60719Y-31603D02*
X59319Y-31603D01*
X59169Y-31553D02*
X60869Y-31553D01*
X60969Y-31503D02*
X59069Y-31503D01*
X59019Y-31453D02*
X61019Y-31453D01*
X61969Y-29803D02*
G75*
G03X61969Y-29803I-1950J0D01*
G74*
G01*
X57969Y-31853D02*
X62069Y-31853D01*
X62069Y-31853D02*
X62069Y-28053D01*
X62069Y-28053D02*
X61769Y-27753D01*
X61769Y-27753D02*
X58269Y-27753D01*
X58269Y-27753D02*
X57969Y-28053D01*
X57969Y-28053D02*
X57969Y-31853D01*
X60019Y-28003D02*
X60019Y-28303D01*
X59869Y-28153D02*
X60169Y-28153D01*
X61411Y-48493D02*
X62211Y-48493D01*
X62361Y-48543D02*
X61211Y-48543D01*
X61111Y-48593D02*
X62511Y-48593D01*
X62661Y-48643D02*
X60961Y-48643D01*
X60861Y-48693D02*
X62761Y-48693D01*
X62811Y-48743D02*
X60811Y-48743D01*
X63761Y-50393D02*
G75*
G03X63761Y-50393I-1950J0D01*
G74*
G01*
X63861Y-48343D02*
X59761Y-48343D01*
X59761Y-48343D02*
X59761Y-52143D01*
X59761Y-52143D02*
X60061Y-52443D01*
X60061Y-52443D02*
X63561Y-52443D01*
X63561Y-52443D02*
X63861Y-52143D01*
X63861Y-52143D02*
X63861Y-48343D01*
X61811Y-52193D02*
X61811Y-51893D01*
X61961Y-52043D02*
X61661Y-52043D01*
G54D21*
X55019Y-32342D02*
X55019Y-33996D01*
X54901Y-32342D02*
X54901Y-33996D01*
X58287Y-32342D02*
X58287Y-33996D01*
X57380Y-33998D02*
X58280Y-33998D01*
X58280Y-32340D02*
X57380Y-32340D01*
X55807Y-32340D02*
X54907Y-32340D01*
X54908Y-33998D02*
X55808Y-33998D01*
G54D10*
X30743Y-45503D02*
X30782Y-45503D01*
X30782Y-45503D02*
X30703Y-45503D01*
X30743Y-45503D02*
X33696Y-45503D01*
X33696Y-45503D02*
X33696Y-48496D01*
X33696Y-48496D02*
X30703Y-48496D01*
X30703Y-48496D02*
X30703Y-45503D01*
X67643Y-34903D02*
X67682Y-34903D01*
X67682Y-34903D02*
X67603Y-34903D01*
X67643Y-34903D02*
X70596Y-34903D01*
X70596Y-34903D02*
X70596Y-37896D01*
X70596Y-37896D02*
X67603Y-37896D01*
X67603Y-37896D02*
X67603Y-34903D01*
G54D20*
X49389Y-28250D02*
G75*
G03X49389Y-28250I-989J0D01*
G74*
G01*
X53550Y-29250D02*
X54250Y-29250D01*
X53550Y-28250D02*
X54250Y-28250D01*
X53550Y-27250D02*
X54250Y-27250D01*
X50200Y-26150D02*
X47050Y-26150D01*
X47050Y-26150D02*
X47050Y-30350D01*
X47050Y-30350D02*
X50200Y-30350D01*
X53550Y-26150D02*
X50200Y-26150D01*
X50200Y-26150D02*
X50200Y-30350D01*
X50200Y-30350D02*
X53550Y-30350D01*
X53550Y-28250D02*
X53550Y-30350D01*
X53550Y-28250D02*
X53550Y-26150D01*
G54D10*
X34170Y-46650D02*
G75*
G03X34170Y-46650I-70J0D01*
G74*
G01*
X35250Y-47300D02*
X35250Y-46700D01*
X35250Y-46700D02*
X34150Y-46700D01*
X34150Y-46700D02*
X34150Y-47300D01*
X34150Y-47900D02*
X34150Y-48500D01*
X34150Y-48500D02*
X35250Y-48500D01*
X35250Y-48500D02*
X35250Y-47900D01*
X35720Y-47600D02*
G75*
G03X35720Y-47600I-70J0D01*
G74*
G01*
X36300Y-46450D02*
X35700Y-46450D01*
X35700Y-46450D02*
X35700Y-47550D01*
X35700Y-47550D02*
X36300Y-47550D01*
X36900Y-47550D02*
X37500Y-47550D01*
X37500Y-47550D02*
X37500Y-46450D01*
X37500Y-46450D02*
X36900Y-46450D01*
X37870Y-46650D02*
G75*
G03X37870Y-46650I-70J0D01*
G74*
G01*
X38950Y-47300D02*
X38950Y-46700D01*
X38950Y-46700D02*
X37850Y-46700D01*
X37850Y-46700D02*
X37850Y-47300D01*
X37850Y-47900D02*
X37850Y-48500D01*
X37850Y-48500D02*
X38950Y-48500D01*
X38950Y-48500D02*
X38950Y-47900D01*
X60070Y-38650D02*
G75*
G03X60070Y-38650I-70J0D01*
G74*
G01*
X58850Y-38000D02*
X58850Y-38600D01*
X58850Y-38600D02*
X59950Y-38600D01*
X59950Y-38600D02*
X59950Y-38000D01*
X59950Y-37400D02*
X59950Y-36800D01*
X59950Y-36800D02*
X58850Y-36800D01*
X58850Y-36800D02*
X58850Y-37400D01*
X62070Y-38650D02*
G75*
G03X62070Y-38650I-70J0D01*
G74*
G01*
X60850Y-38000D02*
X60850Y-38600D01*
X60850Y-38600D02*
X61950Y-38600D01*
X61950Y-38600D02*
X61950Y-38000D01*
X61950Y-37400D02*
X61950Y-36800D01*
X61950Y-36800D02*
X60850Y-36800D01*
X60850Y-36800D02*
X60850Y-37400D01*
X63970Y-36750D02*
G75*
G03X63970Y-36750I-70J0D01*
G74*
G01*
X62750Y-36100D02*
X62750Y-36700D01*
X62750Y-36700D02*
X63850Y-36700D01*
X63850Y-36700D02*
X63850Y-36100D01*
X63850Y-35500D02*
X63850Y-34900D01*
X63850Y-34900D02*
X62750Y-34900D01*
X62750Y-34900D02*
X62750Y-35500D01*
X37700Y-33050D02*
G75*
G03X37700Y-33050I-50J0D01*
G74*
G01*
X37650Y-33500D02*
X37650Y-33100D01*
X37650Y-33100D02*
X38250Y-33100D01*
X38250Y-33100D02*
X38250Y-33500D01*
X38250Y-33900D02*
X38250Y-34300D01*
X38250Y-34300D02*
X37650Y-34300D01*
X37650Y-34300D02*
X37650Y-33900D01*
X33389Y-39460D02*
X33389Y-37960D01*
X33389Y-37960D02*
X31389Y-37960D01*
X30389Y-41460D02*
X30389Y-41960D01*
X30389Y-41960D02*
X33389Y-41960D01*
X33389Y-41960D02*
X33389Y-40460D01*
X30389Y-39460D02*
X30389Y-40460D01*
X31389Y-37960D02*
X30389Y-37960D01*
X30389Y-37960D02*
X30389Y-38460D01*
X33600Y-29700D02*
X33600Y-28200D01*
X33600Y-28200D02*
X31600Y-28200D01*
X30600Y-31700D02*
X30600Y-32200D01*
X30600Y-32200D02*
X33600Y-32200D01*
X33600Y-32200D02*
X33600Y-30700D01*
X30600Y-29700D02*
X30600Y-30700D01*
X31600Y-28200D02*
X30600Y-28200D01*
X30600Y-28200D02*
X30600Y-28700D01*
X43500Y-34200D02*
X41000Y-34200D01*
X41000Y-34200D02*
X41000Y-38200D01*
X41000Y-38200D02*
X43500Y-38200D01*
X43500Y-38200D02*
X43500Y-34200D01*
X33350Y-34250D02*
X33350Y-33350D01*
X33350Y-33350D02*
X33850Y-33350D01*
X33850Y-33350D02*
X33850Y-34250D01*
X33850Y-34250D02*
X33350Y-34250D01*
X35250Y-38550D02*
X35250Y-37650D01*
X35250Y-37650D02*
X35750Y-37650D01*
X35750Y-37650D02*
X35750Y-38550D01*
X35750Y-38550D02*
X35250Y-38550D01*
X31300Y-33100D02*
X30400Y-33100D01*
X30400Y-33100D02*
X30400Y-32600D01*
X30400Y-32600D02*
X31300Y-32600D01*
X31300Y-32600D02*
X31300Y-33100D01*
X41000Y-30700D02*
X41000Y-29800D01*
X41000Y-29800D02*
X41500Y-29800D01*
X41500Y-29800D02*
X41500Y-30700D01*
X41500Y-30700D02*
X41000Y-30700D01*
X42000Y-31800D02*
X41100Y-31800D01*
X41100Y-31800D02*
X41100Y-31300D01*
X41100Y-31300D02*
X42000Y-31300D01*
X42000Y-31300D02*
X42000Y-31800D01*
X43500Y-31800D02*
X42600Y-31800D01*
X42600Y-31800D02*
X42600Y-31300D01*
X42600Y-31300D02*
X43500Y-31300D01*
X43500Y-31300D02*
X43500Y-31800D01*
X40600Y-31800D02*
X39700Y-31800D01*
X39700Y-31800D02*
X39700Y-31300D01*
X39700Y-31300D02*
X40600Y-31300D01*
X40600Y-31300D02*
X40600Y-31800D01*
X36300Y-38600D02*
X37200Y-38600D01*
X37200Y-38600D02*
X37200Y-39100D01*
X37200Y-39100D02*
X36300Y-39100D01*
X36300Y-39100D02*
X36300Y-38600D01*
X38400Y-38050D02*
X37500Y-38050D01*
X37500Y-38050D02*
X37500Y-37550D01*
X37500Y-37550D02*
X38400Y-37550D01*
X38400Y-37550D02*
X38400Y-38050D01*
X38700Y-38100D02*
G75*
G03X38700Y-38100I-50J0D01*
G74*
G01*
X39100Y-38100D02*
X38700Y-38100D01*
X38700Y-38100D02*
X38700Y-37500D01*
X38700Y-37500D02*
X39100Y-37500D01*
X39500Y-37500D02*
X39900Y-37500D01*
X39900Y-37500D02*
X39900Y-38100D01*
X39900Y-38100D02*
X39500Y-38100D01*
X39100Y-33550D02*
G75*
G03X39100Y-33550I-50J0D01*
G74*
G01*
X39050Y-33100D02*
X39050Y-33500D01*
X39050Y-33500D02*
X38450Y-33500D01*
X38450Y-33500D02*
X38450Y-33100D01*
X38450Y-32700D02*
X38450Y-32300D01*
X38450Y-32300D02*
X39050Y-32300D01*
X39050Y-32300D02*
X39050Y-32700D01*
X35750Y-25600D02*
X35750Y-26500D01*
X35750Y-26500D02*
X35250Y-26500D01*
X35250Y-26500D02*
X35250Y-25600D01*
X35250Y-25600D02*
X35750Y-25600D01*
X35750Y-26750D02*
X35750Y-27650D01*
X35750Y-27650D02*
X35250Y-27650D01*
X35250Y-27650D02*
X35250Y-26750D01*
X35250Y-26750D02*
X35750Y-26750D01*
X38450Y-27000D02*
X38450Y-26100D01*
X38450Y-26100D02*
X38950Y-26100D01*
X38950Y-26100D02*
X38950Y-27000D01*
X38950Y-27000D02*
X38450Y-27000D01*
X35750Y-36000D02*
X35750Y-36900D01*
X35750Y-36900D02*
X35250Y-36900D01*
X35250Y-36900D02*
X35250Y-36000D01*
X35250Y-36000D02*
X35750Y-36000D01*
X36250Y-31250D02*
X35550Y-31250D01*
X35550Y-31250D02*
X35550Y-30050D01*
X35550Y-30050D02*
X36250Y-30050D01*
X36250Y-30050D02*
X36250Y-31250D01*
X36600Y-25675D02*
G75*
G03X36600Y-25675I-50J0D01*
G74*
G01*
X38050Y-38500D02*
G75*
G03X38050Y-38500I-50J0D01*
G74*
G01*
X38000Y-38950D02*
X38000Y-38550D01*
X38000Y-38550D02*
X38600Y-38550D01*
X38600Y-38550D02*
X38600Y-38950D01*
X38600Y-39350D02*
X38600Y-39750D01*
X38600Y-39750D02*
X38000Y-39750D01*
X38000Y-39750D02*
X38000Y-39350D01*
X35250Y-33050D02*
G75*
G03X35250Y-33050I-50J0D01*
G74*
G01*
X35200Y-33500D02*
X35200Y-33100D01*
X35200Y-33100D02*
X35800Y-33100D01*
X35800Y-33100D02*
X35800Y-33500D01*
X35800Y-33900D02*
X35800Y-34300D01*
X35800Y-34300D02*
X35200Y-34300D01*
X35200Y-34300D02*
X35200Y-33900D01*
X38900Y-38500D02*
G75*
G03X38900Y-38500I-50J0D01*
G74*
G01*
X38850Y-38950D02*
X38850Y-38550D01*
X38850Y-38550D02*
X39450Y-38550D01*
X39450Y-38550D02*
X39450Y-38950D01*
X39450Y-39350D02*
X39450Y-39750D01*
X39450Y-39750D02*
X38850Y-39750D01*
X38850Y-39750D02*
X38850Y-39350D01*
X36900Y-33050D02*
G75*
G03X36900Y-33050I-50J0D01*
G74*
G01*
X36850Y-33500D02*
X36850Y-33100D01*
X36850Y-33100D02*
X37450Y-33100D01*
X37450Y-33100D02*
X37450Y-33500D01*
X37450Y-33900D02*
X37450Y-34300D01*
X37450Y-34300D02*
X36850Y-34300D01*
X36850Y-34300D02*
X36850Y-33900D01*
X36700Y-29150D02*
G75*
G03X36700Y-29150I-50J0D01*
G74*
G01*
X36200Y-29150D02*
X36600Y-29150D01*
X36600Y-29150D02*
X36600Y-29750D01*
X36600Y-29750D02*
X36200Y-29750D01*
X35800Y-29750D02*
X35400Y-29750D01*
X35400Y-29750D02*
X35400Y-29150D01*
X35400Y-29150D02*
X35800Y-29150D01*
X33500Y-25450D02*
G75*
G03X33500Y-25450I-50J0D01*
G74*
G01*
X33450Y-25900D02*
X33450Y-25500D01*
X33450Y-25500D02*
X34050Y-25500D01*
X34050Y-25500D02*
X34050Y-25900D01*
X34050Y-26300D02*
X34050Y-26700D01*
X34050Y-26700D02*
X33450Y-26700D01*
X33450Y-26700D02*
X33450Y-26300D01*
X34400Y-25450D02*
G75*
G03X34400Y-25450I-50J0D01*
G74*
G01*
X34350Y-25900D02*
X34350Y-25500D01*
X34350Y-25500D02*
X34950Y-25500D01*
X34950Y-25500D02*
X34950Y-25900D01*
X34950Y-26300D02*
X34950Y-26700D01*
X34950Y-26700D02*
X34350Y-26700D01*
X34350Y-26700D02*
X34350Y-26300D01*
X38250Y-25150D02*
G75*
G03X38250Y-25150I-50J0D01*
G74*
G01*
X37750Y-25150D02*
X38150Y-25150D01*
X38150Y-25150D02*
X38150Y-25750D01*
X38150Y-25750D02*
X37750Y-25750D01*
X37350Y-25750D02*
X36950Y-25750D01*
X36950Y-25750D02*
X36950Y-25150D01*
X36950Y-25150D02*
X37350Y-25150D01*
X34400Y-37550D02*
G75*
G03X34400Y-37550I-50J0D01*
G74*
G01*
X34350Y-38000D02*
X34350Y-37600D01*
X34350Y-37600D02*
X34950Y-37600D01*
X34950Y-37600D02*
X34950Y-38000D01*
X34950Y-38400D02*
X34950Y-38800D01*
X34950Y-38800D02*
X34350Y-38800D01*
X34350Y-38800D02*
X34350Y-38400D01*
X53179Y-41796D02*
G75*
G03X53179Y-41796I-50J0D01*
G74*
G01*
X53579Y-41796D02*
X53179Y-41796D01*
X53179Y-41796D02*
X53179Y-41196D01*
X53179Y-41196D02*
X53579Y-41196D01*
X53979Y-41196D02*
X54379Y-41196D01*
X54379Y-41196D02*
X54379Y-41796D01*
X54379Y-41796D02*
X53979Y-41796D01*
X54150Y-35300D02*
G75*
G03X54150Y-35300I-50J0D01*
G74*
G01*
X54100Y-34850D02*
X54100Y-35250D01*
X54100Y-35250D02*
X53500Y-35250D01*
X53500Y-35250D02*
X53500Y-34850D01*
X53500Y-34450D02*
X53500Y-34050D01*
X53500Y-34050D02*
X54100Y-34050D01*
X54100Y-34050D02*
X54100Y-34450D01*
X53250Y-35300D02*
G75*
G03X53250Y-35300I-50J0D01*
G74*
G01*
X53200Y-34850D02*
X53200Y-35250D01*
X53200Y-35250D02*
X52600Y-35250D01*
X52600Y-35250D02*
X52600Y-34850D01*
X52600Y-34450D02*
X52600Y-34050D01*
X52600Y-34050D02*
X53200Y-34050D01*
X53200Y-34050D02*
X53200Y-34450D01*
X42450Y-30850D02*
G75*
G03X42450Y-30850I-50J0D01*
G74*
G01*
X42400Y-30400D02*
X42400Y-30800D01*
X42400Y-30800D02*
X41800Y-30800D01*
X41800Y-30800D02*
X41800Y-30400D01*
X41800Y-30000D02*
X41800Y-29600D01*
X41800Y-29600D02*
X42400Y-29600D01*
X42400Y-29600D02*
X42400Y-30000D01*
X34900Y-32450D02*
G75*
G03X34900Y-32450I-50J0D01*
G74*
G01*
X34850Y-32000D02*
X34850Y-32400D01*
X34850Y-32400D02*
X34250Y-32400D01*
X34250Y-32400D02*
X34250Y-32000D01*
X34250Y-31600D02*
X34250Y-31200D01*
X34250Y-31200D02*
X34850Y-31200D01*
X34850Y-31200D02*
X34850Y-31600D01*
X36100Y-33050D02*
G75*
G03X36100Y-33050I-50J0D01*
G74*
G01*
X36050Y-33500D02*
X36050Y-33100D01*
X36050Y-33100D02*
X36650Y-33100D01*
X36650Y-33100D02*
X36650Y-33500D01*
X36650Y-33900D02*
X36650Y-34300D01*
X36650Y-34300D02*
X36050Y-34300D01*
X36050Y-34300D02*
X36050Y-33900D01*
X37700Y-31300D02*
G75*
G03X37700Y-31300I-50J0D01*
G74*
G01*
X37650Y-30850D02*
X37650Y-31250D01*
X37650Y-31250D02*
X37050Y-31250D01*
X37050Y-31250D02*
X37050Y-30850D01*
X37050Y-30450D02*
X37050Y-30050D01*
X37050Y-30050D02*
X37650Y-30050D01*
X37650Y-30050D02*
X37650Y-30450D01*
X39850Y-43850D02*
G75*
G03X39850Y-43850I-50J0D01*
G74*
G01*
X39800Y-43400D02*
X39800Y-43800D01*
X39800Y-43800D02*
X39200Y-43800D01*
X39200Y-43800D02*
X39200Y-43400D01*
X39200Y-43000D02*
X39200Y-42600D01*
X39200Y-42600D02*
X39800Y-42600D01*
X39800Y-42600D02*
X39800Y-43000D01*
X37400Y-46000D02*
G75*
G03X37400Y-46000I-50J0D01*
G74*
G01*
X37800Y-46000D02*
X37400Y-46000D01*
X37400Y-46000D02*
X37400Y-45400D01*
X37400Y-45400D02*
X37800Y-45400D01*
X38200Y-45400D02*
X38600Y-45400D01*
X38600Y-45400D02*
X38600Y-46000D01*
X38600Y-46000D02*
X38200Y-46000D01*
X35350Y-42450D02*
G75*
G03X35350Y-42450I-50J0D01*
G74*
G01*
X35300Y-42900D02*
X35300Y-42500D01*
X35300Y-42500D02*
X35900Y-42500D01*
X35900Y-42500D02*
X35900Y-42900D01*
X35900Y-43300D02*
X35900Y-43700D01*
X35900Y-43700D02*
X35300Y-43700D01*
X35300Y-43700D02*
X35300Y-43300D01*
X52318Y-41594D02*
G75*
G03X52318Y-41594I-50J0D01*
G74*
G01*
X52268Y-41144D02*
X52268Y-41544D01*
X52268Y-41544D02*
X51668Y-41544D01*
X51668Y-41544D02*
X51668Y-41144D01*
X51668Y-40744D02*
X51668Y-40344D01*
X51668Y-40344D02*
X52268Y-40344D01*
X52268Y-40344D02*
X52268Y-40744D01*
X52318Y-43957D02*
G75*
G03X52318Y-43957I-50J0D01*
G74*
G01*
X52268Y-43507D02*
X52268Y-43907D01*
X52268Y-43907D02*
X51668Y-43907D01*
X51668Y-43907D02*
X51668Y-43507D01*
X51668Y-43107D02*
X51668Y-42707D01*
X51668Y-42707D02*
X52268Y-42707D01*
X52268Y-42707D02*
X52268Y-43107D01*
X52318Y-46712D02*
G75*
G03X52318Y-46712I-50J0D01*
G74*
G01*
X52268Y-46262D02*
X52268Y-46662D01*
X52268Y-46662D02*
X51668Y-46662D01*
X51668Y-46662D02*
X51668Y-46262D01*
X51668Y-45862D02*
X51668Y-45462D01*
X51668Y-45462D02*
X52268Y-45462D01*
X52268Y-45462D02*
X52268Y-45862D01*
X53179Y-45418D02*
G75*
G03X53179Y-45418I-50J0D01*
G74*
G01*
X53579Y-45418D02*
X53179Y-45418D01*
X53179Y-45418D02*
X53179Y-44818D01*
X53179Y-44818D02*
X53579Y-44818D01*
X53979Y-44818D02*
X54379Y-44818D01*
X54379Y-44818D02*
X54379Y-45418D01*
X54379Y-45418D02*
X53979Y-45418D01*
X53350Y-51400D02*
G75*
G03X53350Y-51400I-50J0D01*
G74*
G01*
X53300Y-51850D02*
X53300Y-51450D01*
X53300Y-51450D02*
X53900Y-51450D01*
X53900Y-51450D02*
X53900Y-51850D01*
X53900Y-52250D02*
X53900Y-52650D01*
X53900Y-52650D02*
X53300Y-52650D01*
X53300Y-52650D02*
X53300Y-52250D01*
X52500Y-51400D02*
G75*
G03X52500Y-51400I-50J0D01*
G74*
G01*
X52450Y-51850D02*
X52450Y-51450D01*
X52450Y-51450D02*
X53050Y-51450D01*
X53050Y-51450D02*
X53050Y-51850D01*
X53050Y-52250D02*
X53050Y-52650D01*
X53050Y-52650D02*
X52450Y-52650D01*
X52450Y-52650D02*
X52450Y-52250D01*
X64600Y-36700D02*
G75*
G03X64600Y-36700I-50J0D01*
G74*
G01*
X65000Y-36700D02*
X64600Y-36700D01*
X64600Y-36700D02*
X64600Y-36100D01*
X64600Y-36100D02*
X65000Y-36100D01*
X65400Y-36100D02*
X65800Y-36100D01*
X65800Y-36100D02*
X65800Y-36700D01*
X65800Y-36700D02*
X65400Y-36700D01*
X59565Y-26075D02*
G75*
G03X59565Y-26075I-50J0D01*
G74*
G01*
X59965Y-26075D02*
X59565Y-26075D01*
X59565Y-26075D02*
X59565Y-25475D01*
X59565Y-25475D02*
X59965Y-25475D01*
X60365Y-25475D02*
X60765Y-25475D01*
X60765Y-25475D02*
X60765Y-26075D01*
X60765Y-26075D02*
X60365Y-26075D01*
X30694Y-35454D02*
X30694Y-36556D01*
X30694Y-36556D02*
X30694Y-36635D01*
X30694Y-36635D02*
X32466Y-36635D01*
X32466Y-36635D02*
X32466Y-36477D01*
X32466Y-34509D02*
X32466Y-35651D01*
X30694Y-34745D02*
X30694Y-33564D01*
X30694Y-33564D02*
X32466Y-33564D01*
X32466Y-33564D02*
X32466Y-33722D01*
X36861Y-44223D02*
G75*
G03X36861Y-44223I-39J0D01*
G74*
G01*
X38239Y-44223D02*
G75*
G03X38239Y-44223I-39J0D01*
G74*
G01*
X36625Y-42924D02*
X36625Y-43475D01*
X36625Y-43908D02*
X36625Y-44026D01*
X36625Y-44026D02*
X38396Y-44026D01*
X38396Y-44026D02*
X38396Y-43908D01*
X38396Y-42491D02*
X38396Y-42373D01*
X38396Y-42373D02*
X36940Y-42373D01*
X36940Y-42373D02*
X36625Y-42373D01*
X36625Y-42373D02*
X36625Y-42491D01*
X36531Y-37366D02*
X36531Y-37485D01*
X36531Y-37485D02*
X36413Y-37485D01*
X36413Y-38233D02*
X36886Y-38233D01*
X36886Y-37366D02*
X36413Y-37366D01*
X36413Y-37366D02*
X36413Y-38233D01*
X36886Y-38233D02*
X36886Y-37366D01*
X33350Y-36850D02*
X33350Y-35950D01*
X33350Y-35950D02*
X33850Y-35950D01*
X33850Y-35950D02*
X33850Y-36850D01*
X33850Y-36850D02*
X33350Y-36850D01*
X33350Y-35500D02*
X33350Y-34600D01*
X33350Y-34600D02*
X33850Y-34600D01*
X33850Y-34600D02*
X33850Y-35500D01*
X33850Y-35500D02*
X33350Y-35500D01*
X36500Y-36000D02*
X36500Y-36900D01*
X36500Y-36900D02*
X36000Y-36900D01*
X36000Y-36900D02*
X36000Y-36000D01*
X36000Y-36000D02*
X36500Y-36000D01*
X39350Y-32250D02*
G75*
G03X39350Y-32250I-50J0D01*
G74*
G01*
X39300Y-32700D02*
X39300Y-32300D01*
X39300Y-32300D02*
X39900Y-32300D01*
X39900Y-32300D02*
X39900Y-32700D01*
X39900Y-33100D02*
X39900Y-33500D01*
X39900Y-33500D02*
X39300Y-33500D01*
X39300Y-33500D02*
X39300Y-33100D01*
X39900Y-27300D02*
G75*
G03X39900Y-27300I-50J0D01*
G74*
G01*
X39850Y-26850D02*
X39850Y-27250D01*
X39850Y-27250D02*
X39250Y-27250D01*
X39250Y-27250D02*
X39250Y-26850D01*
X39250Y-26450D02*
X39250Y-26050D01*
X39250Y-26050D02*
X39850Y-26050D01*
X39850Y-26050D02*
X39850Y-26450D01*
X57672Y-25787D02*
X57592Y-25787D01*
X57072Y-25037D02*
X58872Y-25037D01*
X58872Y-25037D02*
X58872Y-25287D01*
X58232Y-26537D02*
X58232Y-25037D01*
X58362Y-26537D02*
X58362Y-25037D01*
X57072Y-26287D02*
X57072Y-26537D01*
X57072Y-26537D02*
X58872Y-26537D01*
X58872Y-26537D02*
X58872Y-26287D01*
X57072Y-25287D02*
X57072Y-25037D01*
X57922Y-25787D02*
X57672Y-25600D01*
X57672Y-25600D02*
X57672Y-25787D01*
X57672Y-25787D02*
X57672Y-25974D01*
X57672Y-25974D02*
X57922Y-25787D01*
X57922Y-25787D02*
X57922Y-25662D01*
X57922Y-25662D02*
X57860Y-25600D01*
X57922Y-25787D02*
X57922Y-25912D01*
X57922Y-25912D02*
X57984Y-25974D01*
X57922Y-25787D02*
X58359Y-25787D01*
G54D15*
X70989Y-46459D02*
X71192Y-46459D01*
X71091Y-46813D02*
X71091Y-46459D01*
X71293Y-46493D02*
X71310Y-46476D01*
X71344Y-46459D01*
X71428Y-46459D01*
X71462Y-46476D01*
X71479Y-46493D01*
X71496Y-46526D01*
X71496Y-46560D01*
X71479Y-46611D01*
X71276Y-46813D01*
X71496Y-46813D01*
X68315Y-26976D02*
X68298Y-26993D01*
X68248Y-27010D01*
X68214Y-27010D01*
X68163Y-26993D01*
X68129Y-26960D01*
X68113Y-26926D01*
X68096Y-26858D01*
X68096Y-26808D01*
X68113Y-26740D01*
X68129Y-26706D01*
X68163Y-26673D01*
X68214Y-26656D01*
X68248Y-26656D01*
X68298Y-26673D01*
X68315Y-26690D01*
X68652Y-27010D02*
X68450Y-27010D01*
X68551Y-27010D02*
X68551Y-26656D01*
X68517Y-26706D01*
X68484Y-26740D01*
X68450Y-26757D01*
X68990Y-27010D02*
X68787Y-27010D01*
X68889Y-27010D02*
X68889Y-26656D01*
X68855Y-26706D01*
X68821Y-26740D01*
X68787Y-26757D01*
X65717Y-53473D02*
X65700Y-53489D01*
X65649Y-53506D01*
X65615Y-53506D01*
X65565Y-53489D01*
X65531Y-53456D01*
X65514Y-53422D01*
X65497Y-53354D01*
X65497Y-53304D01*
X65514Y-53236D01*
X65531Y-53203D01*
X65565Y-53169D01*
X65615Y-53152D01*
X65649Y-53152D01*
X65700Y-53169D01*
X65717Y-53186D01*
X65835Y-53152D02*
X66054Y-53152D01*
X65936Y-53287D01*
X65987Y-53287D01*
X66020Y-53304D01*
X66037Y-53321D01*
X66054Y-53354D01*
X66054Y-53439D01*
X66037Y-53473D01*
X66020Y-53489D01*
X65987Y-53506D01*
X65885Y-53506D01*
X65852Y-53489D01*
X65835Y-53473D01*
X66273Y-53152D02*
X66307Y-53152D01*
X66341Y-53169D01*
X66358Y-53186D01*
X66375Y-53219D01*
X66392Y-53287D01*
X66392Y-53371D01*
X66375Y-53439D01*
X66358Y-53473D01*
X66341Y-53489D01*
X66307Y-53506D01*
X66273Y-53506D01*
X66240Y-53489D01*
X66223Y-53473D01*
X66206Y-53439D01*
X66189Y-53371D01*
X66189Y-53287D01*
X66206Y-53219D01*
X66223Y-53186D01*
X66240Y-53169D01*
X66273Y-53152D01*
X68193Y-54441D02*
X68193Y-54087D01*
X68277Y-54087D01*
X68328Y-54104D01*
X68361Y-54138D01*
X68378Y-54171D01*
X68395Y-54239D01*
X68395Y-54289D01*
X68378Y-54357D01*
X68361Y-54391D01*
X68328Y-54424D01*
X68277Y-54441D01*
X68193Y-54441D01*
X68513Y-54087D02*
X68733Y-54087D01*
X68615Y-54222D01*
X68665Y-54222D01*
X68699Y-54239D01*
X68716Y-54256D01*
X68733Y-54289D01*
X68733Y-54374D01*
X68716Y-54408D01*
X68699Y-54424D01*
X68665Y-54441D01*
X68564Y-54441D01*
X68530Y-54424D01*
X68513Y-54408D01*
X66427Y-54441D02*
X66309Y-54273D01*
X66224Y-54441D02*
X66224Y-54087D01*
X66359Y-54087D01*
X66393Y-54104D01*
X66410Y-54121D01*
X66427Y-54154D01*
X66427Y-54205D01*
X66410Y-54239D01*
X66393Y-54256D01*
X66359Y-54273D01*
X66224Y-54273D01*
X66747Y-54087D02*
X66579Y-54087D01*
X66562Y-54256D01*
X66579Y-54239D01*
X66612Y-54222D01*
X66697Y-54222D01*
X66730Y-54239D01*
X66747Y-54256D01*
X66764Y-54289D01*
X66764Y-54374D01*
X66747Y-54408D01*
X66730Y-54424D01*
X66697Y-54441D01*
X66612Y-54441D01*
X66579Y-54424D01*
X66562Y-54408D01*
X43037Y-47837D02*
X43037Y-48124D01*
X43053Y-48158D01*
X43070Y-48174D01*
X43104Y-48191D01*
X43172Y-48191D01*
X43205Y-48174D01*
X43222Y-48158D01*
X43239Y-48124D01*
X43239Y-47837D01*
X43391Y-47871D02*
X43408Y-47854D01*
X43442Y-47837D01*
X43526Y-47837D01*
X43560Y-47854D01*
X43577Y-47871D01*
X43593Y-47904D01*
X43593Y-47938D01*
X43577Y-47989D01*
X43374Y-48191D01*
X43593Y-48191D01*
X49274Y-51437D02*
X49105Y-51555D01*
X49274Y-51639D02*
X48920Y-51639D01*
X48920Y-51504D01*
X48937Y-51470D01*
X48953Y-51453D01*
X48987Y-51437D01*
X49038Y-51437D01*
X49071Y-51453D01*
X49088Y-51470D01*
X49105Y-51504D01*
X49105Y-51639D01*
X49274Y-51099D02*
X49274Y-51302D01*
X49274Y-51200D02*
X48920Y-51200D01*
X48970Y-51234D01*
X49004Y-51268D01*
X49021Y-51302D01*
X49215Y-33366D02*
X49046Y-33484D01*
X49215Y-33568D02*
X48861Y-33568D01*
X48861Y-33433D01*
X48877Y-33399D01*
X48894Y-33383D01*
X48928Y-33366D01*
X48979Y-33366D01*
X49012Y-33383D01*
X49029Y-33399D01*
X49046Y-33433D01*
X49046Y-33568D01*
X48979Y-33062D02*
X49215Y-33062D01*
X48844Y-33146D02*
X49097Y-33231D01*
X49097Y-33011D01*
X64063Y-26976D02*
X64046Y-26993D01*
X63996Y-27010D01*
X63962Y-27010D01*
X63911Y-26993D01*
X63877Y-26960D01*
X63861Y-26926D01*
X63844Y-26858D01*
X63844Y-26808D01*
X63861Y-26740D01*
X63877Y-26706D01*
X63911Y-26673D01*
X63962Y-26656D01*
X63996Y-26656D01*
X64046Y-26673D01*
X64063Y-26690D01*
X64181Y-26656D02*
X64401Y-26656D01*
X64282Y-26791D01*
X64333Y-26791D01*
X64367Y-26808D01*
X64384Y-26825D01*
X64401Y-26858D01*
X64401Y-26943D01*
X64384Y-26976D01*
X64367Y-26993D01*
X64333Y-27010D01*
X64232Y-27010D01*
X64198Y-26993D01*
X64181Y-26976D01*
X64519Y-26656D02*
X64738Y-26656D01*
X64620Y-26791D01*
X64670Y-26791D01*
X64704Y-26808D01*
X64721Y-26825D01*
X64738Y-26858D01*
X64738Y-26943D01*
X64721Y-26976D01*
X64704Y-26993D01*
X64670Y-27010D01*
X64569Y-27010D01*
X64535Y-26993D01*
X64519Y-26976D01*
X68965Y-53374D02*
X68948Y-53391D01*
X68897Y-53408D01*
X68863Y-53408D01*
X68813Y-53391D01*
X68779Y-53357D01*
X68762Y-53323D01*
X68745Y-53256D01*
X68745Y-53205D01*
X68762Y-53138D01*
X68779Y-53104D01*
X68813Y-53070D01*
X68863Y-53053D01*
X68897Y-53053D01*
X68948Y-53070D01*
X68965Y-53087D01*
X69083Y-53053D02*
X69302Y-53053D01*
X69184Y-53188D01*
X69235Y-53188D01*
X69268Y-53205D01*
X69285Y-53222D01*
X69302Y-53256D01*
X69302Y-53340D01*
X69285Y-53374D01*
X69268Y-53391D01*
X69235Y-53408D01*
X69133Y-53408D01*
X69100Y-53391D01*
X69083Y-53374D01*
X69606Y-53172D02*
X69606Y-53408D01*
X69521Y-53037D02*
X69437Y-53290D01*
X69656Y-53290D01*
X36555Y-40908D02*
X36386Y-40908D01*
X36386Y-40553D01*
X36858Y-40908D02*
X36656Y-40908D01*
X36757Y-40908D02*
X36757Y-40553D01*
X36723Y-40604D01*
X36690Y-40638D01*
X36656Y-40655D01*
X56160Y-37259D02*
X56160Y-37427D01*
X55805Y-37427D01*
X55839Y-37157D02*
X55822Y-37140D01*
X55805Y-37107D01*
X55805Y-37022D01*
X55822Y-36989D01*
X55839Y-36972D01*
X55873Y-36955D01*
X55907Y-36955D01*
X55957Y-36972D01*
X56160Y-37174D01*
X56160Y-36955D01*
X56160Y-49459D02*
X56160Y-49627D01*
X55805Y-49627D01*
X55805Y-49374D02*
X55805Y-49155D01*
X55940Y-49273D01*
X55940Y-49222D01*
X55957Y-49189D01*
X55974Y-49172D01*
X56008Y-49155D01*
X56092Y-49155D01*
X56126Y-49172D01*
X56143Y-49189D01*
X56160Y-49222D01*
X56160Y-49324D01*
X56143Y-49357D01*
X56126Y-49374D01*
X40683Y-27128D02*
X40683Y-26774D01*
X40818Y-26774D01*
X40852Y-26791D01*
X40868Y-26808D01*
X40885Y-26841D01*
X40885Y-26892D01*
X40868Y-26926D01*
X40852Y-26943D01*
X40818Y-26960D01*
X40683Y-26960D01*
X41020Y-26808D02*
X41037Y-26791D01*
X41071Y-26774D01*
X41155Y-26774D01*
X41189Y-26791D01*
X41206Y-26808D01*
X41223Y-26841D01*
X41223Y-26875D01*
X41206Y-26926D01*
X41003Y-27128D01*
X41223Y-27128D01*
X59980Y-26898D02*
X59963Y-26915D01*
X59912Y-26931D01*
X59879Y-26931D01*
X59828Y-26915D01*
X59794Y-26881D01*
X59777Y-26847D01*
X59760Y-26780D01*
X59760Y-26729D01*
X59777Y-26661D01*
X59794Y-26628D01*
X59828Y-26594D01*
X59879Y-26577D01*
X59912Y-26577D01*
X59963Y-26594D01*
X59980Y-26611D01*
X60284Y-26577D02*
X60216Y-26577D01*
X60182Y-26594D01*
X60165Y-26611D01*
X60132Y-26661D01*
X60115Y-26729D01*
X60115Y-26864D01*
X60132Y-26898D01*
X60149Y-26915D01*
X60182Y-26931D01*
X60250Y-26931D01*
X60284Y-26915D01*
X60300Y-26898D01*
X60317Y-26864D01*
X60317Y-26780D01*
X60300Y-26746D01*
X60284Y-26729D01*
X60250Y-26712D01*
X60182Y-26712D01*
X60149Y-26729D01*
X60132Y-26746D01*
X60115Y-26780D01*
X62921Y-53433D02*
X62904Y-53450D01*
X62854Y-53467D01*
X62820Y-53467D01*
X62769Y-53450D01*
X62736Y-53416D01*
X62719Y-53383D01*
X62702Y-53315D01*
X62702Y-53264D01*
X62719Y-53197D01*
X62736Y-53163D01*
X62769Y-53129D01*
X62820Y-53113D01*
X62854Y-53113D01*
X62904Y-53129D01*
X62921Y-53146D01*
X63259Y-53467D02*
X63056Y-53467D01*
X63158Y-53467D02*
X63158Y-53113D01*
X63124Y-53163D01*
X63090Y-53197D01*
X63056Y-53214D01*
X63579Y-53113D02*
X63411Y-53113D01*
X63394Y-53281D01*
X63411Y-53264D01*
X63444Y-53248D01*
X63529Y-53248D01*
X63562Y-53264D01*
X63579Y-53281D01*
X63596Y-53315D01*
X63596Y-53399D01*
X63579Y-53433D01*
X63562Y-53450D01*
X63529Y-53467D01*
X63444Y-53467D01*
X63411Y-53450D01*
X63394Y-53433D01*
X56439Y-33228D02*
X56271Y-33346D01*
X56439Y-33430D02*
X56085Y-33430D01*
X56085Y-33295D01*
X56102Y-33262D01*
X56119Y-33245D01*
X56152Y-33228D01*
X56203Y-33228D01*
X56237Y-33245D01*
X56254Y-33262D01*
X56271Y-33295D01*
X56271Y-33430D01*
X56085Y-33110D02*
X56085Y-32874D01*
X56439Y-33025D01*
X54648Y-34100D02*
X54918Y-34100D01*
X54783Y-34235D02*
X54783Y-33965D01*
X32165Y-44687D02*
X32165Y-44940D01*
X32148Y-44991D01*
X32114Y-45025D01*
X32064Y-45042D01*
X32030Y-45042D01*
X32519Y-45042D02*
X32317Y-45042D01*
X32418Y-45042D02*
X32418Y-44687D01*
X32384Y-44738D01*
X32350Y-44772D01*
X32317Y-44789D01*
X68942Y-34394D02*
X68942Y-34648D01*
X68925Y-34698D01*
X68891Y-34732D01*
X68841Y-34749D01*
X68807Y-34749D01*
X69094Y-34428D02*
X69111Y-34411D01*
X69144Y-34394D01*
X69229Y-34394D01*
X69263Y-34411D01*
X69279Y-34428D01*
X69296Y-34462D01*
X69296Y-34496D01*
X69279Y-34546D01*
X69077Y-34749D01*
X69296Y-34749D01*
X55830Y-26155D02*
X55830Y-26442D01*
X55846Y-26476D01*
X55863Y-26493D01*
X55897Y-26510D01*
X55965Y-26510D01*
X55998Y-26493D01*
X56015Y-26476D01*
X56032Y-26442D01*
X56032Y-26155D01*
X56167Y-26155D02*
X56386Y-26155D01*
X56268Y-26290D01*
X56319Y-26290D01*
X56353Y-26307D01*
X56369Y-26324D01*
X56386Y-26358D01*
X56386Y-26442D01*
X56369Y-26476D01*
X56353Y-26493D01*
X56319Y-26510D01*
X56218Y-26510D01*
X56184Y-26493D01*
X56167Y-26476D01*
X34586Y-46189D02*
X34569Y-46206D01*
X34519Y-46223D01*
X34485Y-46223D01*
X34434Y-46206D01*
X34401Y-46172D01*
X34384Y-46138D01*
X34367Y-46071D01*
X34367Y-46020D01*
X34384Y-45953D01*
X34401Y-45919D01*
X34434Y-45885D01*
X34485Y-45868D01*
X34519Y-45868D01*
X34569Y-45885D01*
X34586Y-45902D01*
X34924Y-46223D02*
X34721Y-46223D01*
X34822Y-46223D02*
X34822Y-45868D01*
X34789Y-45919D01*
X34755Y-45953D01*
X34721Y-45970D01*
X35767Y-46189D02*
X35750Y-46206D01*
X35700Y-46223D01*
X35666Y-46223D01*
X35615Y-46206D01*
X35582Y-46172D01*
X35565Y-46138D01*
X35548Y-46071D01*
X35548Y-46020D01*
X35565Y-45953D01*
X35582Y-45919D01*
X35615Y-45885D01*
X35666Y-45868D01*
X35700Y-45868D01*
X35750Y-45885D01*
X35767Y-45902D01*
X35902Y-45902D02*
X35919Y-45885D01*
X35953Y-45868D01*
X36037Y-45868D01*
X36071Y-45885D01*
X36088Y-45902D01*
X36105Y-45936D01*
X36105Y-45970D01*
X36088Y-46020D01*
X35885Y-46223D01*
X36105Y-46223D01*
X39507Y-46976D02*
X39491Y-46993D01*
X39440Y-47010D01*
X39406Y-47010D01*
X39356Y-46993D01*
X39322Y-46960D01*
X39305Y-46926D01*
X39288Y-46858D01*
X39288Y-46808D01*
X39305Y-46740D01*
X39322Y-46706D01*
X39356Y-46673D01*
X39406Y-46656D01*
X39440Y-46656D01*
X39491Y-46673D01*
X39507Y-46690D01*
X39625Y-46656D02*
X39845Y-46656D01*
X39727Y-46791D01*
X39777Y-46791D01*
X39811Y-46808D01*
X39828Y-46825D01*
X39845Y-46858D01*
X39845Y-46943D01*
X39828Y-46976D01*
X39811Y-46993D01*
X39777Y-47010D01*
X39676Y-47010D01*
X39642Y-46993D01*
X39625Y-46976D01*
X58426Y-38359D02*
X58443Y-38375D01*
X58460Y-38426D01*
X58460Y-38460D01*
X58443Y-38510D01*
X58409Y-38544D01*
X58375Y-38561D01*
X58308Y-38578D01*
X58257Y-38578D01*
X58190Y-38561D01*
X58156Y-38544D01*
X58122Y-38510D01*
X58105Y-38460D01*
X58105Y-38426D01*
X58122Y-38375D01*
X58139Y-38359D01*
X58224Y-38055D02*
X58460Y-38055D01*
X58089Y-38139D02*
X58342Y-38224D01*
X58342Y-38004D01*
X62626Y-38327D02*
X62643Y-38344D01*
X62660Y-38395D01*
X62660Y-38429D01*
X62643Y-38479D01*
X62609Y-38513D01*
X62575Y-38530D01*
X62508Y-38547D01*
X62457Y-38547D01*
X62390Y-38530D01*
X62356Y-38513D01*
X62322Y-38479D01*
X62305Y-38429D01*
X62305Y-38395D01*
X62322Y-38344D01*
X62339Y-38327D01*
X62660Y-37990D02*
X62660Y-38192D01*
X62660Y-38091D02*
X62305Y-38091D01*
X62356Y-38125D01*
X62390Y-38159D01*
X62407Y-38192D01*
X62305Y-37770D02*
X62305Y-37737D01*
X62322Y-37703D01*
X62339Y-37686D01*
X62373Y-37669D01*
X62440Y-37652D01*
X62525Y-37652D01*
X62592Y-37669D01*
X62626Y-37686D01*
X62643Y-37703D01*
X62660Y-37737D01*
X62660Y-37770D01*
X62643Y-37804D01*
X62626Y-37821D01*
X62592Y-37838D01*
X62525Y-37855D01*
X62440Y-37855D01*
X62373Y-37838D01*
X62339Y-37821D01*
X62322Y-37804D01*
X62305Y-37770D01*
X62426Y-35227D02*
X62443Y-35244D01*
X62460Y-35295D01*
X62460Y-35329D01*
X62443Y-35379D01*
X62409Y-35413D01*
X62375Y-35430D01*
X62308Y-35447D01*
X62257Y-35447D01*
X62190Y-35430D01*
X62156Y-35413D01*
X62122Y-35379D01*
X62105Y-35329D01*
X62105Y-35295D01*
X62122Y-35244D01*
X62139Y-35227D01*
X62105Y-35109D02*
X62105Y-34890D01*
X62240Y-35008D01*
X62240Y-34957D01*
X62257Y-34924D01*
X62274Y-34907D01*
X62308Y-34890D01*
X62392Y-34890D01*
X62426Y-34907D01*
X62443Y-34924D01*
X62460Y-34957D01*
X62460Y-35059D01*
X62443Y-35092D01*
X62426Y-35109D01*
X62460Y-34552D02*
X62460Y-34755D01*
X62460Y-34654D02*
X62105Y-34654D01*
X62156Y-34687D01*
X62190Y-34721D01*
X62207Y-34755D01*
X38906Y-34676D02*
X38922Y-34693D01*
X38939Y-34744D01*
X38939Y-34777D01*
X38922Y-34828D01*
X38889Y-34862D01*
X38855Y-34879D01*
X38787Y-34895D01*
X38737Y-34895D01*
X38669Y-34879D01*
X38636Y-34862D01*
X38602Y-34828D01*
X38585Y-34777D01*
X38585Y-34744D01*
X38602Y-34693D01*
X38619Y-34676D01*
X38619Y-34541D02*
X38602Y-34524D01*
X38585Y-34491D01*
X38585Y-34406D01*
X38602Y-34372D01*
X38619Y-34356D01*
X38652Y-34339D01*
X38686Y-34339D01*
X38737Y-34356D01*
X38939Y-34558D01*
X38939Y-34339D01*
X38585Y-34221D02*
X38585Y-34001D01*
X38720Y-34119D01*
X38720Y-34069D01*
X38737Y-34035D01*
X38754Y-34018D01*
X38787Y-34001D01*
X38872Y-34001D01*
X38906Y-34018D01*
X38922Y-34035D01*
X38939Y-34069D01*
X38939Y-34170D01*
X38922Y-34204D01*
X38906Y-34221D01*
X30643Y-42679D02*
X30643Y-42325D01*
X30846Y-42679D02*
X30694Y-42477D01*
X30846Y-42325D02*
X30643Y-42528D01*
X31183Y-42679D02*
X30981Y-42679D01*
X31082Y-42679D02*
X31082Y-42325D01*
X31048Y-42376D01*
X31015Y-42410D01*
X30981Y-42426D01*
X34215Y-29395D02*
X33861Y-29395D01*
X34215Y-29192D02*
X34012Y-29344D01*
X33861Y-29192D02*
X34063Y-29395D01*
X33894Y-29057D02*
X33877Y-29041D01*
X33861Y-29007D01*
X33861Y-28922D01*
X33877Y-28889D01*
X33894Y-28872D01*
X33928Y-28855D01*
X33962Y-28855D01*
X34012Y-28872D01*
X34215Y-29074D01*
X34215Y-28855D01*
X40745Y-35663D02*
X40728Y-35697D01*
X40694Y-35731D01*
X40643Y-35781D01*
X40627Y-35815D01*
X40627Y-35849D01*
X40711Y-35832D02*
X40694Y-35866D01*
X40660Y-35899D01*
X40593Y-35916D01*
X40475Y-35916D01*
X40407Y-35899D01*
X40374Y-35866D01*
X40357Y-35832D01*
X40357Y-35764D01*
X40374Y-35731D01*
X40407Y-35697D01*
X40475Y-35680D01*
X40593Y-35680D01*
X40660Y-35697D01*
X40694Y-35731D01*
X40711Y-35764D01*
X40711Y-35832D01*
X40711Y-35343D02*
X40711Y-35545D01*
X40711Y-35444D02*
X40357Y-35444D01*
X40407Y-35478D01*
X40441Y-35511D01*
X40458Y-35545D01*
X34412Y-33917D02*
X34243Y-34035D01*
X34412Y-34119D02*
X34057Y-34119D01*
X34057Y-33984D01*
X34074Y-33951D01*
X34091Y-33934D01*
X34125Y-33917D01*
X34176Y-33917D01*
X34209Y-33934D01*
X34226Y-33951D01*
X34243Y-33984D01*
X34243Y-34119D01*
X34057Y-33613D02*
X34057Y-33681D01*
X34074Y-33714D01*
X34091Y-33731D01*
X34142Y-33765D01*
X34209Y-33782D01*
X34344Y-33782D01*
X34378Y-33765D01*
X34395Y-33748D01*
X34412Y-33714D01*
X34412Y-33647D01*
X34395Y-33613D01*
X34378Y-33596D01*
X34344Y-33579D01*
X34260Y-33579D01*
X34226Y-33596D01*
X34209Y-33613D01*
X34192Y-33647D01*
X34192Y-33714D01*
X34209Y-33748D01*
X34226Y-33765D01*
X34260Y-33782D01*
X35593Y-39822D02*
X35424Y-39940D01*
X35593Y-40025D02*
X35239Y-40025D01*
X35239Y-39890D01*
X35255Y-39856D01*
X35272Y-39839D01*
X35306Y-39822D01*
X35357Y-39822D01*
X35390Y-39839D01*
X35407Y-39856D01*
X35424Y-39890D01*
X35424Y-40025D01*
X35593Y-39654D02*
X35593Y-39586D01*
X35576Y-39552D01*
X35559Y-39535D01*
X35508Y-39502D01*
X35441Y-39485D01*
X35306Y-39485D01*
X35272Y-39502D01*
X35255Y-39519D01*
X35239Y-39552D01*
X35239Y-39620D01*
X35255Y-39654D01*
X35272Y-39670D01*
X35306Y-39687D01*
X35390Y-39687D01*
X35424Y-39670D01*
X35441Y-39654D01*
X35458Y-39620D01*
X35458Y-39552D01*
X35441Y-39519D01*
X35424Y-39502D01*
X35390Y-39485D01*
X31858Y-33034D02*
X31740Y-32865D01*
X31656Y-33034D02*
X31656Y-32679D01*
X31791Y-32679D01*
X31825Y-32696D01*
X31841Y-32713D01*
X31858Y-32747D01*
X31858Y-32798D01*
X31841Y-32831D01*
X31825Y-32848D01*
X31791Y-32865D01*
X31656Y-32865D01*
X32196Y-33034D02*
X31993Y-33034D01*
X32095Y-33034D02*
X32095Y-32679D01*
X32061Y-32730D01*
X32027Y-32764D01*
X31993Y-32781D01*
X32415Y-32679D02*
X32449Y-32679D01*
X32483Y-32696D01*
X32500Y-32713D01*
X32516Y-32747D01*
X32533Y-32814D01*
X32533Y-32899D01*
X32516Y-32966D01*
X32500Y-33000D01*
X32483Y-33017D01*
X32449Y-33034D01*
X32415Y-33034D01*
X32381Y-33017D01*
X32365Y-33000D01*
X32348Y-32966D01*
X32331Y-32899D01*
X32331Y-32814D01*
X32348Y-32747D01*
X32365Y-32713D01*
X32381Y-32696D01*
X32415Y-32679D01*
X41498Y-28574D02*
X41330Y-28692D01*
X41498Y-28776D02*
X41144Y-28776D01*
X41144Y-28641D01*
X41161Y-28607D01*
X41178Y-28591D01*
X41212Y-28574D01*
X41262Y-28574D01*
X41296Y-28591D01*
X41313Y-28607D01*
X41330Y-28641D01*
X41330Y-28776D01*
X41498Y-28236D02*
X41498Y-28439D01*
X41498Y-28338D02*
X41144Y-28338D01*
X41195Y-28371D01*
X41228Y-28405D01*
X41245Y-28439D01*
X41498Y-27899D02*
X41498Y-28101D01*
X41498Y-28000D02*
X41144Y-28000D01*
X41195Y-28034D01*
X41228Y-28068D01*
X41245Y-28101D01*
X40711Y-32806D02*
X40542Y-32924D01*
X40711Y-33008D02*
X40357Y-33008D01*
X40357Y-32874D01*
X40374Y-32840D01*
X40390Y-32823D01*
X40424Y-32806D01*
X40475Y-32806D01*
X40508Y-32823D01*
X40525Y-32840D01*
X40542Y-32874D01*
X40542Y-33008D01*
X40711Y-32469D02*
X40711Y-32671D01*
X40711Y-32570D02*
X40357Y-32570D01*
X40407Y-32604D01*
X40441Y-32637D01*
X40458Y-32671D01*
X40390Y-32334D02*
X40374Y-32317D01*
X40357Y-32283D01*
X40357Y-32199D01*
X40374Y-32165D01*
X40390Y-32148D01*
X40424Y-32131D01*
X40458Y-32131D01*
X40508Y-32148D01*
X40711Y-32350D01*
X40711Y-32131D01*
X44063Y-31656D02*
X43945Y-31487D01*
X43861Y-31656D02*
X43861Y-31302D01*
X43996Y-31302D01*
X44029Y-31318D01*
X44046Y-31335D01*
X44063Y-31369D01*
X44063Y-31420D01*
X44046Y-31453D01*
X44029Y-31470D01*
X43996Y-31487D01*
X43861Y-31487D01*
X44401Y-31656D02*
X44198Y-31656D01*
X44299Y-31656D02*
X44299Y-31302D01*
X44266Y-31352D01*
X44232Y-31386D01*
X44198Y-31403D01*
X44519Y-31302D02*
X44738Y-31302D01*
X44620Y-31437D01*
X44670Y-31437D01*
X44704Y-31453D01*
X44721Y-31470D01*
X44738Y-31504D01*
X44738Y-31588D01*
X44721Y-31622D01*
X44704Y-31639D01*
X44670Y-31656D01*
X44569Y-31656D01*
X44535Y-31639D01*
X44519Y-31622D01*
X39732Y-31065D02*
X39614Y-30897D01*
X39530Y-31065D02*
X39530Y-30711D01*
X39665Y-30711D01*
X39699Y-30728D01*
X39715Y-30745D01*
X39732Y-30778D01*
X39732Y-30829D01*
X39715Y-30863D01*
X39699Y-30880D01*
X39665Y-30897D01*
X39530Y-30897D01*
X40070Y-31065D02*
X39867Y-31065D01*
X39969Y-31065D02*
X39969Y-30711D01*
X39935Y-30762D01*
X39901Y-30795D01*
X39867Y-30812D01*
X40374Y-30829D02*
X40374Y-31065D01*
X40289Y-30694D02*
X40205Y-30947D01*
X40424Y-30947D01*
X36386Y-39924D02*
X36268Y-39755D01*
X36183Y-39924D02*
X36183Y-39569D01*
X36318Y-39569D01*
X36352Y-39586D01*
X36369Y-39603D01*
X36386Y-39637D01*
X36386Y-39687D01*
X36369Y-39721D01*
X36352Y-39738D01*
X36318Y-39755D01*
X36183Y-39755D01*
X36723Y-39924D02*
X36521Y-39924D01*
X36622Y-39924D02*
X36622Y-39569D01*
X36588Y-39620D01*
X36555Y-39654D01*
X36521Y-39670D01*
X37044Y-39569D02*
X36875Y-39569D01*
X36858Y-39738D01*
X36875Y-39721D01*
X36909Y-39704D01*
X36993Y-39704D01*
X37027Y-39721D01*
X37044Y-39738D01*
X37061Y-39772D01*
X37061Y-39856D01*
X37044Y-39890D01*
X37027Y-39907D01*
X36993Y-39924D01*
X36909Y-39924D01*
X36875Y-39907D01*
X36858Y-39890D01*
X37961Y-37168D02*
X37843Y-36999D01*
X37758Y-37168D02*
X37758Y-36813D01*
X37893Y-36813D01*
X37927Y-36830D01*
X37944Y-36847D01*
X37961Y-36881D01*
X37961Y-36931D01*
X37944Y-36965D01*
X37927Y-36982D01*
X37893Y-36999D01*
X37758Y-36999D01*
X38298Y-37168D02*
X38096Y-37168D01*
X38197Y-37168D02*
X38197Y-36813D01*
X38163Y-36864D01*
X38129Y-36898D01*
X38096Y-36915D01*
X38602Y-36813D02*
X38534Y-36813D01*
X38501Y-36830D01*
X38484Y-36847D01*
X38450Y-36898D01*
X38433Y-36965D01*
X38433Y-37100D01*
X38450Y-37134D01*
X38467Y-37151D01*
X38501Y-37168D01*
X38568Y-37168D01*
X38602Y-37151D01*
X38619Y-37134D01*
X38636Y-37100D01*
X38636Y-37016D01*
X38619Y-36982D01*
X38602Y-36965D01*
X38568Y-36948D01*
X38501Y-36948D01*
X38467Y-36965D01*
X38450Y-36982D01*
X38433Y-37016D01*
X39339Y-37168D02*
X39221Y-36999D01*
X39136Y-37168D02*
X39136Y-36813D01*
X39271Y-36813D01*
X39305Y-36830D01*
X39322Y-36847D01*
X39339Y-36881D01*
X39339Y-36931D01*
X39322Y-36965D01*
X39305Y-36982D01*
X39271Y-36999D01*
X39136Y-36999D01*
X39676Y-37168D02*
X39474Y-37168D01*
X39575Y-37168D02*
X39575Y-36813D01*
X39541Y-36864D01*
X39507Y-36898D01*
X39474Y-36915D01*
X39794Y-36813D02*
X40030Y-36813D01*
X39879Y-37168D01*
X38546Y-31920D02*
X38377Y-32038D01*
X38546Y-32123D02*
X38191Y-32123D01*
X38191Y-31988D01*
X38208Y-31954D01*
X38225Y-31937D01*
X38259Y-31920D01*
X38309Y-31920D01*
X38343Y-31937D01*
X38360Y-31954D01*
X38377Y-31988D01*
X38377Y-32123D01*
X38546Y-31583D02*
X38546Y-31785D01*
X38546Y-31684D02*
X38191Y-31684D01*
X38242Y-31718D01*
X38276Y-31751D01*
X38293Y-31785D01*
X38343Y-31380D02*
X38326Y-31414D01*
X38309Y-31431D01*
X38276Y-31448D01*
X38259Y-31448D01*
X38225Y-31431D01*
X38208Y-31414D01*
X38191Y-31380D01*
X38191Y-31313D01*
X38208Y-31279D01*
X38225Y-31262D01*
X38259Y-31245D01*
X38276Y-31245D01*
X38309Y-31262D01*
X38326Y-31279D01*
X38343Y-31313D01*
X38343Y-31380D01*
X38360Y-31414D01*
X38377Y-31431D01*
X38411Y-31448D01*
X38478Y-31448D01*
X38512Y-31431D01*
X38529Y-31414D01*
X38546Y-31380D01*
X38546Y-31313D01*
X38529Y-31279D01*
X38512Y-31262D01*
X38478Y-31245D01*
X38411Y-31245D01*
X38377Y-31262D01*
X38360Y-31279D01*
X38343Y-31313D01*
X35598Y-25357D02*
X35480Y-25188D01*
X35396Y-25357D02*
X35396Y-25002D01*
X35531Y-25002D01*
X35565Y-25019D01*
X35582Y-25036D01*
X35598Y-25070D01*
X35598Y-25120D01*
X35582Y-25154D01*
X35565Y-25171D01*
X35531Y-25188D01*
X35396Y-25188D01*
X35733Y-25036D02*
X35750Y-25019D01*
X35784Y-25002D01*
X35868Y-25002D01*
X35902Y-25019D01*
X35919Y-25036D01*
X35936Y-25070D01*
X35936Y-25104D01*
X35919Y-25154D01*
X35717Y-25357D01*
X35936Y-25357D01*
X36155Y-25002D02*
X36189Y-25002D01*
X36223Y-25019D01*
X36240Y-25036D01*
X36257Y-25070D01*
X36273Y-25137D01*
X36273Y-25222D01*
X36257Y-25289D01*
X36240Y-25323D01*
X36223Y-25340D01*
X36189Y-25357D01*
X36155Y-25357D01*
X36122Y-25340D01*
X36105Y-25323D01*
X36088Y-25289D01*
X36071Y-25222D01*
X36071Y-25137D01*
X36088Y-25070D01*
X36105Y-25036D01*
X36122Y-25019D01*
X36155Y-25002D01*
X35598Y-28113D02*
X35480Y-27944D01*
X35396Y-28113D02*
X35396Y-27758D01*
X35531Y-27758D01*
X35565Y-27775D01*
X35582Y-27792D01*
X35598Y-27826D01*
X35598Y-27876D01*
X35582Y-27910D01*
X35565Y-27927D01*
X35531Y-27944D01*
X35396Y-27944D01*
X35733Y-27792D02*
X35750Y-27775D01*
X35784Y-27758D01*
X35868Y-27758D01*
X35902Y-27775D01*
X35919Y-27792D01*
X35936Y-27826D01*
X35936Y-27859D01*
X35919Y-27910D01*
X35717Y-28113D01*
X35936Y-28113D01*
X36273Y-28113D02*
X36071Y-28113D01*
X36172Y-28113D02*
X36172Y-27758D01*
X36138Y-27809D01*
X36105Y-27843D01*
X36071Y-27859D01*
X38860Y-27877D02*
X38691Y-27995D01*
X38860Y-28080D02*
X38505Y-28080D01*
X38505Y-27945D01*
X38522Y-27911D01*
X38539Y-27894D01*
X38573Y-27877D01*
X38624Y-27877D01*
X38657Y-27894D01*
X38674Y-27911D01*
X38691Y-27945D01*
X38691Y-28080D01*
X38539Y-27742D02*
X38522Y-27725D01*
X38505Y-27692D01*
X38505Y-27607D01*
X38522Y-27574D01*
X38539Y-27557D01*
X38573Y-27540D01*
X38607Y-27540D01*
X38657Y-27557D01*
X38860Y-27759D01*
X38860Y-27540D01*
X38539Y-27405D02*
X38522Y-27388D01*
X38505Y-27354D01*
X38505Y-27270D01*
X38522Y-27236D01*
X38539Y-27219D01*
X38573Y-27202D01*
X38607Y-27202D01*
X38657Y-27219D01*
X38860Y-27422D01*
X38860Y-27202D01*
X35002Y-36645D02*
X34834Y-36763D01*
X35002Y-36847D02*
X34648Y-36847D01*
X34648Y-36712D01*
X34665Y-36678D01*
X34682Y-36661D01*
X34715Y-36645D01*
X34766Y-36645D01*
X34800Y-36661D01*
X34817Y-36678D01*
X34834Y-36712D01*
X34834Y-36847D01*
X34682Y-36510D02*
X34665Y-36493D01*
X34648Y-36459D01*
X34648Y-36375D01*
X34665Y-36341D01*
X34682Y-36324D01*
X34715Y-36307D01*
X34749Y-36307D01*
X34800Y-36324D01*
X35002Y-36526D01*
X35002Y-36307D01*
X34648Y-36189D02*
X34648Y-35970D01*
X34783Y-36088D01*
X34783Y-36037D01*
X34800Y-36003D01*
X34817Y-35987D01*
X34850Y-35970D01*
X34935Y-35970D01*
X34969Y-35987D01*
X34985Y-36003D01*
X35002Y-36037D01*
X35002Y-36138D01*
X34985Y-36172D01*
X34969Y-36189D01*
X35556Y-31498D02*
X35556Y-31785D01*
X35573Y-31819D01*
X35590Y-31836D01*
X35624Y-31853D01*
X35691Y-31853D01*
X35725Y-31836D01*
X35742Y-31819D01*
X35759Y-31785D01*
X35759Y-31498D01*
X36079Y-31616D02*
X36079Y-31853D01*
X35995Y-31482D02*
X35911Y-31735D01*
X36130Y-31735D01*
X37328Y-27365D02*
X37328Y-27651D01*
X37345Y-27685D01*
X37362Y-27702D01*
X37395Y-27719D01*
X37463Y-27719D01*
X37497Y-27702D01*
X37514Y-27685D01*
X37530Y-27651D01*
X37530Y-27365D01*
X37868Y-27365D02*
X37699Y-27365D01*
X37682Y-27533D01*
X37699Y-27516D01*
X37733Y-27500D01*
X37817Y-27500D01*
X37851Y-27516D01*
X37868Y-27533D01*
X37885Y-27567D01*
X37885Y-27651D01*
X37868Y-27685D01*
X37851Y-27702D01*
X37817Y-27719D01*
X37733Y-27719D01*
X37699Y-27702D01*
X37682Y-27685D01*
X37724Y-39007D02*
X37741Y-39024D01*
X37758Y-39074D01*
X37758Y-39108D01*
X37741Y-39159D01*
X37708Y-39192D01*
X37674Y-39209D01*
X37606Y-39226D01*
X37556Y-39226D01*
X37488Y-39209D01*
X37455Y-39192D01*
X37421Y-39159D01*
X37404Y-39108D01*
X37404Y-39074D01*
X37421Y-39024D01*
X37438Y-39007D01*
X37438Y-38872D02*
X37421Y-38855D01*
X37404Y-38821D01*
X37404Y-38737D01*
X37421Y-38703D01*
X37438Y-38686D01*
X37471Y-38669D01*
X37505Y-38669D01*
X37556Y-38686D01*
X37758Y-38889D01*
X37758Y-38669D01*
X37522Y-38366D02*
X37758Y-38366D01*
X37387Y-38450D02*
X37640Y-38534D01*
X37640Y-38315D01*
X35651Y-32702D02*
X35668Y-32719D01*
X35685Y-32770D01*
X35685Y-32804D01*
X35668Y-32854D01*
X35634Y-32888D01*
X35600Y-32905D01*
X35533Y-32922D01*
X35482Y-32922D01*
X35415Y-32905D01*
X35381Y-32888D01*
X35347Y-32854D01*
X35330Y-32804D01*
X35330Y-32770D01*
X35347Y-32719D01*
X35364Y-32702D01*
X35364Y-32567D02*
X35347Y-32550D01*
X35330Y-32517D01*
X35330Y-32432D01*
X35347Y-32399D01*
X35364Y-32382D01*
X35398Y-32365D01*
X35432Y-32365D01*
X35482Y-32382D01*
X35685Y-32584D01*
X35685Y-32365D01*
X35330Y-32061D02*
X35330Y-32129D01*
X35347Y-32162D01*
X35364Y-32179D01*
X35415Y-32213D01*
X35482Y-32230D01*
X35617Y-32230D01*
X35651Y-32213D01*
X35668Y-32196D01*
X35685Y-32162D01*
X35685Y-32095D01*
X35668Y-32061D01*
X35651Y-32044D01*
X35617Y-32027D01*
X35533Y-32027D01*
X35499Y-32044D01*
X35482Y-32061D01*
X35465Y-32095D01*
X35465Y-32162D01*
X35482Y-32196D01*
X35499Y-32213D01*
X35533Y-32230D01*
X39929Y-39102D02*
X39912Y-39119D01*
X39862Y-39136D01*
X39828Y-39136D01*
X39777Y-39119D01*
X39744Y-39086D01*
X39727Y-39052D01*
X39710Y-38984D01*
X39710Y-38934D01*
X39727Y-38866D01*
X39744Y-38832D01*
X39777Y-38799D01*
X39828Y-38782D01*
X39862Y-38782D01*
X39912Y-38799D01*
X39929Y-38816D01*
X40064Y-38816D02*
X40081Y-38799D01*
X40115Y-38782D01*
X40199Y-38782D01*
X40233Y-38799D01*
X40250Y-38816D01*
X40267Y-38849D01*
X40267Y-38883D01*
X40250Y-38934D01*
X40047Y-39136D01*
X40267Y-39136D01*
X40435Y-39136D02*
X40503Y-39136D01*
X40537Y-39119D01*
X40553Y-39102D01*
X40587Y-39052D01*
X40604Y-38984D01*
X40604Y-38849D01*
X40587Y-38816D01*
X40570Y-38799D01*
X40537Y-38782D01*
X40469Y-38782D01*
X40435Y-38799D01*
X40419Y-38816D01*
X40402Y-38849D01*
X40402Y-38934D01*
X40419Y-38967D01*
X40435Y-38984D01*
X40469Y-39001D01*
X40537Y-39001D01*
X40570Y-38984D01*
X40587Y-38967D01*
X40604Y-38934D01*
X37301Y-32677D02*
X37318Y-32694D01*
X37335Y-32745D01*
X37335Y-32779D01*
X37318Y-32829D01*
X37284Y-32863D01*
X37250Y-32880D01*
X37183Y-32897D01*
X37132Y-32897D01*
X37065Y-32880D01*
X37031Y-32863D01*
X36997Y-32829D01*
X36980Y-32779D01*
X36980Y-32745D01*
X36997Y-32694D01*
X37014Y-32677D01*
X36980Y-32559D02*
X36980Y-32340D01*
X37115Y-32458D01*
X37115Y-32407D01*
X37132Y-32374D01*
X37149Y-32357D01*
X37183Y-32340D01*
X37267Y-32340D01*
X37301Y-32357D01*
X37318Y-32374D01*
X37335Y-32407D01*
X37335Y-32509D01*
X37318Y-32542D01*
X37301Y-32559D01*
X36980Y-32036D02*
X36980Y-32104D01*
X36997Y-32137D01*
X37014Y-32154D01*
X37065Y-32188D01*
X37132Y-32205D01*
X37267Y-32205D01*
X37301Y-32188D01*
X37318Y-32171D01*
X37335Y-32137D01*
X37335Y-32070D01*
X37318Y-32036D01*
X37301Y-32019D01*
X37267Y-32002D01*
X37183Y-32002D01*
X37149Y-32019D01*
X37132Y-32036D01*
X37115Y-32070D01*
X37115Y-32137D01*
X37132Y-32171D01*
X37149Y-32188D01*
X37183Y-32205D01*
X37173Y-29260D02*
X37156Y-29277D01*
X37106Y-29294D01*
X37072Y-29294D01*
X37021Y-29277D01*
X36988Y-29243D01*
X36971Y-29209D01*
X36954Y-29142D01*
X36954Y-29091D01*
X36971Y-29024D01*
X36988Y-28990D01*
X37021Y-28956D01*
X37072Y-28939D01*
X37106Y-28939D01*
X37156Y-28956D01*
X37173Y-28973D01*
X37291Y-28939D02*
X37511Y-28939D01*
X37393Y-29074D01*
X37443Y-29074D01*
X37477Y-29091D01*
X37494Y-29108D01*
X37511Y-29142D01*
X37511Y-29226D01*
X37494Y-29260D01*
X37477Y-29277D01*
X37443Y-29294D01*
X37342Y-29294D01*
X37308Y-29277D01*
X37291Y-29260D01*
X37629Y-28939D02*
X37865Y-28939D01*
X37713Y-29294D01*
X33039Y-25323D02*
X33023Y-25340D01*
X32972Y-25357D01*
X32938Y-25357D01*
X32888Y-25340D01*
X32854Y-25306D01*
X32837Y-25272D01*
X32820Y-25205D01*
X32820Y-25154D01*
X32837Y-25087D01*
X32854Y-25053D01*
X32888Y-25019D01*
X32938Y-25002D01*
X32972Y-25002D01*
X33023Y-25019D01*
X33039Y-25036D01*
X33158Y-25002D02*
X33377Y-25002D01*
X33259Y-25137D01*
X33309Y-25137D01*
X33343Y-25154D01*
X33360Y-25171D01*
X33377Y-25205D01*
X33377Y-25289D01*
X33360Y-25323D01*
X33343Y-25340D01*
X33309Y-25357D01*
X33208Y-25357D01*
X33174Y-25340D01*
X33158Y-25323D01*
X33579Y-25154D02*
X33546Y-25137D01*
X33529Y-25120D01*
X33512Y-25087D01*
X33512Y-25070D01*
X33529Y-25036D01*
X33546Y-25019D01*
X33579Y-25002D01*
X33647Y-25002D01*
X33681Y-25019D01*
X33697Y-25036D01*
X33714Y-25070D01*
X33714Y-25087D01*
X33697Y-25120D01*
X33681Y-25137D01*
X33647Y-25154D01*
X33579Y-25154D01*
X33546Y-25171D01*
X33529Y-25188D01*
X33512Y-25222D01*
X33512Y-25289D01*
X33529Y-25323D01*
X33546Y-25340D01*
X33579Y-25357D01*
X33647Y-25357D01*
X33681Y-25340D01*
X33697Y-25323D01*
X33714Y-25289D01*
X33714Y-25222D01*
X33697Y-25188D01*
X33681Y-25171D01*
X33647Y-25154D01*
X34417Y-25323D02*
X34401Y-25340D01*
X34350Y-25357D01*
X34316Y-25357D01*
X34266Y-25340D01*
X34232Y-25306D01*
X34215Y-25272D01*
X34198Y-25205D01*
X34198Y-25154D01*
X34215Y-25087D01*
X34232Y-25053D01*
X34266Y-25019D01*
X34316Y-25002D01*
X34350Y-25002D01*
X34401Y-25019D01*
X34417Y-25036D01*
X34535Y-25002D02*
X34755Y-25002D01*
X34637Y-25137D01*
X34687Y-25137D01*
X34721Y-25154D01*
X34738Y-25171D01*
X34755Y-25205D01*
X34755Y-25289D01*
X34738Y-25323D01*
X34721Y-25340D01*
X34687Y-25357D01*
X34586Y-25357D01*
X34552Y-25340D01*
X34535Y-25323D01*
X34924Y-25357D02*
X34991Y-25357D01*
X35025Y-25340D01*
X35042Y-25323D01*
X35075Y-25272D01*
X35092Y-25205D01*
X35092Y-25070D01*
X35075Y-25036D01*
X35059Y-25019D01*
X35025Y-25002D01*
X34957Y-25002D01*
X34924Y-25019D01*
X34907Y-25036D01*
X34890Y-25070D01*
X34890Y-25154D01*
X34907Y-25188D01*
X34924Y-25205D01*
X34957Y-25222D01*
X35025Y-25222D01*
X35059Y-25205D01*
X35075Y-25188D01*
X35092Y-25154D01*
X38748Y-25520D02*
X38731Y-25537D01*
X38681Y-25553D01*
X38647Y-25553D01*
X38596Y-25537D01*
X38562Y-25503D01*
X38546Y-25469D01*
X38529Y-25402D01*
X38529Y-25351D01*
X38546Y-25284D01*
X38562Y-25250D01*
X38596Y-25216D01*
X38647Y-25199D01*
X38681Y-25199D01*
X38731Y-25216D01*
X38748Y-25233D01*
X39052Y-25317D02*
X39052Y-25553D01*
X38967Y-25182D02*
X38883Y-25435D01*
X39102Y-25435D01*
X39305Y-25199D02*
X39339Y-25199D01*
X39372Y-25216D01*
X39389Y-25233D01*
X39406Y-25267D01*
X39423Y-25334D01*
X39423Y-25419D01*
X39406Y-25486D01*
X39389Y-25520D01*
X39372Y-25537D01*
X39339Y-25553D01*
X39305Y-25553D01*
X39271Y-25537D01*
X39254Y-25520D01*
X39237Y-25486D01*
X39221Y-25419D01*
X39221Y-25334D01*
X39237Y-25267D01*
X39254Y-25233D01*
X39271Y-25216D01*
X39305Y-25199D01*
X34772Y-39822D02*
X34789Y-39839D01*
X34805Y-39890D01*
X34805Y-39924D01*
X34789Y-39974D01*
X34755Y-40008D01*
X34721Y-40025D01*
X34654Y-40042D01*
X34603Y-40042D01*
X34535Y-40025D01*
X34502Y-40008D01*
X34468Y-39974D01*
X34451Y-39924D01*
X34451Y-39890D01*
X34468Y-39839D01*
X34485Y-39822D01*
X34451Y-39502D02*
X34451Y-39670D01*
X34620Y-39687D01*
X34603Y-39670D01*
X34586Y-39637D01*
X34586Y-39552D01*
X34603Y-39519D01*
X34620Y-39502D01*
X34654Y-39485D01*
X34738Y-39485D01*
X34772Y-39502D01*
X34789Y-39519D01*
X34805Y-39552D01*
X34805Y-39637D01*
X34789Y-39670D01*
X34772Y-39687D01*
X53484Y-42449D02*
X53467Y-42466D01*
X53416Y-42483D01*
X53383Y-42483D01*
X53332Y-42466D01*
X53298Y-42432D01*
X53281Y-42398D01*
X53264Y-42331D01*
X53264Y-42280D01*
X53281Y-42213D01*
X53298Y-42179D01*
X53332Y-42145D01*
X53383Y-42128D01*
X53416Y-42128D01*
X53467Y-42145D01*
X53484Y-42162D01*
X53602Y-42128D02*
X53838Y-42128D01*
X53686Y-42483D01*
X53866Y-32933D02*
X53883Y-32949D01*
X53900Y-33000D01*
X53900Y-33034D01*
X53883Y-33084D01*
X53849Y-33118D01*
X53816Y-33135D01*
X53748Y-33152D01*
X53697Y-33152D01*
X53630Y-33135D01*
X53596Y-33118D01*
X53562Y-33084D01*
X53546Y-33034D01*
X53546Y-33000D01*
X53562Y-32949D01*
X53579Y-32933D01*
X53697Y-32730D02*
X53681Y-32764D01*
X53664Y-32781D01*
X53630Y-32798D01*
X53613Y-32798D01*
X53579Y-32781D01*
X53562Y-32764D01*
X53546Y-32730D01*
X53546Y-32663D01*
X53562Y-32629D01*
X53579Y-32612D01*
X53613Y-32595D01*
X53630Y-32595D01*
X53664Y-32612D01*
X53681Y-32629D01*
X53697Y-32663D01*
X53697Y-32730D01*
X53714Y-32764D01*
X53731Y-32781D01*
X53765Y-32798D01*
X53832Y-32798D01*
X53866Y-32781D01*
X53883Y-32764D01*
X53900Y-32730D01*
X53900Y-32663D01*
X53883Y-32629D01*
X53866Y-32612D01*
X53832Y-32595D01*
X53765Y-32595D01*
X53731Y-32612D01*
X53714Y-32629D01*
X53697Y-32663D01*
X52882Y-32933D02*
X52899Y-32949D01*
X52916Y-33000D01*
X52916Y-33034D01*
X52899Y-33084D01*
X52865Y-33118D01*
X52831Y-33135D01*
X52764Y-33152D01*
X52713Y-33152D01*
X52646Y-33135D01*
X52612Y-33118D01*
X52578Y-33084D01*
X52561Y-33034D01*
X52561Y-33000D01*
X52578Y-32949D01*
X52595Y-32933D01*
X52916Y-32764D02*
X52916Y-32696D01*
X52899Y-32663D01*
X52882Y-32646D01*
X52831Y-32612D01*
X52764Y-32595D01*
X52629Y-32595D01*
X52595Y-32612D01*
X52578Y-32629D01*
X52561Y-32663D01*
X52561Y-32730D01*
X52578Y-32764D01*
X52595Y-32781D01*
X52629Y-32798D01*
X52713Y-32798D01*
X52747Y-32781D01*
X52764Y-32764D01*
X52781Y-32730D01*
X52781Y-32663D01*
X52764Y-32629D01*
X52747Y-32612D01*
X52713Y-32595D01*
X42976Y-30677D02*
X42993Y-30694D01*
X43010Y-30745D01*
X43010Y-30779D01*
X42993Y-30829D01*
X42959Y-30863D01*
X42925Y-30880D01*
X42858Y-30897D01*
X42807Y-30897D01*
X42740Y-30880D01*
X42706Y-30863D01*
X42672Y-30829D01*
X42655Y-30779D01*
X42655Y-30745D01*
X42672Y-30694D01*
X42689Y-30677D01*
X43010Y-30340D02*
X43010Y-30542D01*
X43010Y-30441D02*
X42655Y-30441D01*
X42706Y-30475D01*
X42740Y-30509D01*
X42757Y-30542D01*
X42689Y-30205D02*
X42672Y-30188D01*
X42655Y-30154D01*
X42655Y-30070D01*
X42672Y-30036D01*
X42689Y-30019D01*
X42723Y-30002D01*
X42757Y-30002D01*
X42807Y-30019D01*
X43010Y-30222D01*
X43010Y-30002D01*
X34221Y-33000D02*
X34204Y-33017D01*
X34153Y-33034D01*
X34119Y-33034D01*
X34069Y-33017D01*
X34035Y-32983D01*
X34018Y-32949D01*
X34001Y-32882D01*
X34001Y-32831D01*
X34018Y-32764D01*
X34035Y-32730D01*
X34069Y-32696D01*
X34119Y-32679D01*
X34153Y-32679D01*
X34204Y-32696D01*
X34221Y-32713D01*
X34558Y-33034D02*
X34356Y-33034D01*
X34457Y-33034D02*
X34457Y-32679D01*
X34423Y-32730D01*
X34389Y-32764D01*
X34356Y-32781D01*
X34676Y-32679D02*
X34895Y-32679D01*
X34777Y-32814D01*
X34828Y-32814D01*
X34862Y-32831D01*
X34879Y-32848D01*
X34895Y-32882D01*
X34895Y-32966D01*
X34879Y-33000D01*
X34862Y-33017D01*
X34828Y-33034D01*
X34727Y-33034D01*
X34693Y-33017D01*
X34676Y-33000D01*
X36501Y-32702D02*
X36518Y-32719D01*
X36535Y-32770D01*
X36535Y-32804D01*
X36518Y-32854D01*
X36484Y-32888D01*
X36450Y-32905D01*
X36383Y-32922D01*
X36332Y-32922D01*
X36265Y-32905D01*
X36231Y-32888D01*
X36197Y-32854D01*
X36180Y-32804D01*
X36180Y-32770D01*
X36197Y-32719D01*
X36214Y-32702D01*
X36535Y-32365D02*
X36535Y-32567D01*
X36535Y-32466D02*
X36180Y-32466D01*
X36231Y-32500D01*
X36265Y-32534D01*
X36282Y-32567D01*
X36299Y-32061D02*
X36535Y-32061D01*
X36164Y-32145D02*
X36417Y-32230D01*
X36417Y-32010D01*
X38158Y-30047D02*
X38141Y-30064D01*
X38090Y-30081D01*
X38056Y-30081D01*
X38006Y-30064D01*
X37972Y-30030D01*
X37955Y-29997D01*
X37938Y-29929D01*
X37938Y-29879D01*
X37955Y-29811D01*
X37972Y-29777D01*
X38006Y-29744D01*
X38056Y-29727D01*
X38090Y-29727D01*
X38141Y-29744D01*
X38158Y-29760D01*
X38495Y-30081D02*
X38293Y-30081D01*
X38394Y-30081D02*
X38394Y-29727D01*
X38360Y-29777D01*
X38326Y-29811D01*
X38293Y-29828D01*
X38799Y-29727D02*
X38731Y-29727D01*
X38697Y-29744D01*
X38681Y-29760D01*
X38647Y-29811D01*
X38630Y-29879D01*
X38630Y-30014D01*
X38647Y-30047D01*
X38664Y-30064D01*
X38697Y-30081D01*
X38765Y-30081D01*
X38799Y-30064D01*
X38816Y-30047D01*
X38832Y-30014D01*
X38832Y-29929D01*
X38816Y-29895D01*
X38799Y-29879D01*
X38765Y-29862D01*
X38697Y-29862D01*
X38664Y-29879D01*
X38647Y-29895D01*
X38630Y-29929D01*
X39339Y-44417D02*
X39322Y-44434D01*
X39271Y-44451D01*
X39237Y-44451D01*
X39187Y-44434D01*
X39153Y-44401D01*
X39136Y-44367D01*
X39119Y-44299D01*
X39119Y-44249D01*
X39136Y-44181D01*
X39153Y-44147D01*
X39187Y-44114D01*
X39237Y-44097D01*
X39271Y-44097D01*
X39322Y-44114D01*
X39339Y-44131D01*
X39676Y-44451D02*
X39474Y-44451D01*
X39575Y-44451D02*
X39575Y-44097D01*
X39541Y-44147D01*
X39507Y-44181D01*
X39474Y-44198D01*
X39794Y-44097D02*
X40030Y-44097D01*
X39879Y-44451D01*
X39339Y-45795D02*
X39322Y-45812D01*
X39271Y-45829D01*
X39237Y-45829D01*
X39187Y-45812D01*
X39153Y-45778D01*
X39136Y-45745D01*
X39119Y-45677D01*
X39119Y-45627D01*
X39136Y-45559D01*
X39153Y-45525D01*
X39187Y-45492D01*
X39237Y-45475D01*
X39271Y-45475D01*
X39322Y-45492D01*
X39339Y-45508D01*
X39676Y-45829D02*
X39474Y-45829D01*
X39575Y-45829D02*
X39575Y-45475D01*
X39541Y-45525D01*
X39507Y-45559D01*
X39474Y-45576D01*
X39879Y-45627D02*
X39845Y-45610D01*
X39828Y-45593D01*
X39811Y-45559D01*
X39811Y-45542D01*
X39828Y-45508D01*
X39845Y-45492D01*
X39879Y-45475D01*
X39946Y-45475D01*
X39980Y-45492D01*
X39997Y-45508D01*
X40014Y-45542D01*
X40014Y-45559D01*
X39997Y-45593D01*
X39980Y-45610D01*
X39946Y-45627D01*
X39879Y-45627D01*
X39845Y-45643D01*
X39828Y-45660D01*
X39811Y-45694D01*
X39811Y-45762D01*
X39828Y-45795D01*
X39845Y-45812D01*
X39879Y-45829D01*
X39946Y-45829D01*
X39980Y-45812D01*
X39997Y-45795D01*
X40014Y-45762D01*
X40014Y-45694D01*
X39997Y-45660D01*
X39980Y-45643D01*
X39946Y-45627D01*
X35205Y-44221D02*
X35188Y-44237D01*
X35137Y-44254D01*
X35104Y-44254D01*
X35053Y-44237D01*
X35019Y-44204D01*
X35002Y-44170D01*
X34985Y-44102D01*
X34985Y-44052D01*
X35002Y-43984D01*
X35019Y-43951D01*
X35053Y-43917D01*
X35104Y-43900D01*
X35137Y-43900D01*
X35188Y-43917D01*
X35205Y-43934D01*
X35542Y-44254D02*
X35340Y-44254D01*
X35441Y-44254D02*
X35441Y-43900D01*
X35407Y-43951D01*
X35374Y-43984D01*
X35340Y-44001D01*
X35711Y-44254D02*
X35778Y-44254D01*
X35812Y-44237D01*
X35829Y-44221D01*
X35863Y-44170D01*
X35880Y-44102D01*
X35880Y-43967D01*
X35863Y-43934D01*
X35846Y-43917D01*
X35812Y-43900D01*
X35745Y-43900D01*
X35711Y-43917D01*
X35694Y-43934D01*
X35677Y-43967D01*
X35677Y-44052D01*
X35694Y-44086D01*
X35711Y-44102D01*
X35745Y-44119D01*
X35812Y-44119D01*
X35846Y-44102D01*
X35863Y-44086D01*
X35880Y-44052D01*
X52882Y-41172D02*
X52899Y-41189D01*
X52916Y-41240D01*
X52916Y-41273D01*
X52899Y-41324D01*
X52865Y-41358D01*
X52831Y-41375D01*
X52764Y-41392D01*
X52713Y-41392D01*
X52646Y-41375D01*
X52612Y-41358D01*
X52578Y-41324D01*
X52561Y-41273D01*
X52561Y-41240D01*
X52578Y-41189D01*
X52595Y-41172D01*
X52595Y-41037D02*
X52578Y-41020D01*
X52561Y-40987D01*
X52561Y-40902D01*
X52578Y-40868D01*
X52595Y-40852D01*
X52629Y-40835D01*
X52663Y-40835D01*
X52713Y-40852D01*
X52916Y-41054D01*
X52916Y-40835D01*
X52561Y-40615D02*
X52561Y-40582D01*
X52578Y-40548D01*
X52595Y-40531D01*
X52629Y-40514D01*
X52696Y-40497D01*
X52781Y-40497D01*
X52848Y-40514D01*
X52882Y-40531D01*
X52899Y-40548D01*
X52916Y-40582D01*
X52916Y-40615D01*
X52899Y-40649D01*
X52882Y-40666D01*
X52848Y-40683D01*
X52781Y-40700D01*
X52696Y-40700D01*
X52629Y-40683D01*
X52595Y-40666D01*
X52578Y-40649D01*
X52561Y-40615D01*
X52882Y-43534D02*
X52899Y-43551D01*
X52916Y-43602D01*
X52916Y-43636D01*
X52899Y-43686D01*
X52865Y-43720D01*
X52831Y-43737D01*
X52764Y-43754D01*
X52713Y-43754D01*
X52646Y-43737D01*
X52612Y-43720D01*
X52578Y-43686D01*
X52561Y-43636D01*
X52561Y-43602D01*
X52578Y-43551D01*
X52595Y-43534D01*
X52595Y-43399D02*
X52578Y-43383D01*
X52561Y-43349D01*
X52561Y-43264D01*
X52578Y-43231D01*
X52595Y-43214D01*
X52629Y-43197D01*
X52663Y-43197D01*
X52713Y-43214D01*
X52916Y-43416D01*
X52916Y-43197D01*
X52916Y-42859D02*
X52916Y-43062D01*
X52916Y-42961D02*
X52561Y-42961D01*
X52612Y-42994D01*
X52646Y-43028D01*
X52663Y-43062D01*
X52882Y-46290D02*
X52899Y-46307D01*
X52916Y-46358D01*
X52916Y-46392D01*
X52899Y-46442D01*
X52865Y-46476D01*
X52831Y-46493D01*
X52764Y-46510D01*
X52713Y-46510D01*
X52646Y-46493D01*
X52612Y-46476D01*
X52578Y-46442D01*
X52561Y-46392D01*
X52561Y-46358D01*
X52578Y-46307D01*
X52595Y-46290D01*
X52595Y-46155D02*
X52578Y-46138D01*
X52561Y-46105D01*
X52561Y-46020D01*
X52578Y-45987D01*
X52595Y-45970D01*
X52629Y-45953D01*
X52663Y-45953D01*
X52713Y-45970D01*
X52916Y-46172D01*
X52916Y-45953D01*
X52595Y-45818D02*
X52578Y-45801D01*
X52561Y-45767D01*
X52561Y-45683D01*
X52578Y-45649D01*
X52595Y-45632D01*
X52629Y-45615D01*
X52663Y-45615D01*
X52713Y-45632D01*
X52916Y-45835D01*
X52916Y-45615D01*
X53512Y-44417D02*
X53495Y-44434D01*
X53444Y-44451D01*
X53411Y-44451D01*
X53360Y-44434D01*
X53326Y-44401D01*
X53309Y-44367D01*
X53293Y-44299D01*
X53293Y-44249D01*
X53309Y-44181D01*
X53326Y-44147D01*
X53360Y-44114D01*
X53411Y-44097D01*
X53444Y-44097D01*
X53495Y-44114D01*
X53512Y-44131D01*
X53647Y-44131D02*
X53664Y-44114D01*
X53697Y-44097D01*
X53782Y-44097D01*
X53816Y-44114D01*
X53832Y-44131D01*
X53849Y-44164D01*
X53849Y-44198D01*
X53832Y-44249D01*
X53630Y-44451D01*
X53849Y-44451D01*
X54170Y-44097D02*
X54001Y-44097D01*
X53984Y-44266D01*
X54001Y-44249D01*
X54035Y-44232D01*
X54119Y-44232D01*
X54153Y-44249D01*
X54170Y-44266D01*
X54187Y-44299D01*
X54187Y-44384D01*
X54170Y-44417D01*
X54153Y-44434D01*
X54119Y-44451D01*
X54035Y-44451D01*
X54001Y-44434D01*
X53984Y-44417D01*
X53866Y-54164D02*
X53883Y-54181D01*
X53900Y-54232D01*
X53900Y-54266D01*
X53883Y-54316D01*
X53849Y-54350D01*
X53816Y-54367D01*
X53748Y-54384D01*
X53697Y-54384D01*
X53630Y-54367D01*
X53596Y-54350D01*
X53562Y-54316D01*
X53546Y-54266D01*
X53546Y-54232D01*
X53562Y-54181D01*
X53579Y-54164D01*
X53579Y-54029D02*
X53562Y-54012D01*
X53546Y-53979D01*
X53546Y-53894D01*
X53562Y-53861D01*
X53579Y-53844D01*
X53613Y-53827D01*
X53647Y-53827D01*
X53697Y-53844D01*
X53900Y-54046D01*
X53900Y-53827D01*
X53546Y-53709D02*
X53546Y-53473D01*
X53900Y-53624D01*
X52882Y-54164D02*
X52899Y-54181D01*
X52916Y-54232D01*
X52916Y-54266D01*
X52899Y-54316D01*
X52865Y-54350D01*
X52831Y-54367D01*
X52764Y-54384D01*
X52713Y-54384D01*
X52646Y-54367D01*
X52612Y-54350D01*
X52578Y-54316D01*
X52561Y-54266D01*
X52561Y-54232D01*
X52578Y-54181D01*
X52595Y-54164D01*
X52595Y-54029D02*
X52578Y-54012D01*
X52561Y-53979D01*
X52561Y-53894D01*
X52578Y-53861D01*
X52595Y-53844D01*
X52629Y-53827D01*
X52663Y-53827D01*
X52713Y-53844D01*
X52916Y-54046D01*
X52916Y-53827D01*
X52713Y-53624D02*
X52696Y-53658D01*
X52679Y-53675D01*
X52646Y-53692D01*
X52629Y-53692D01*
X52595Y-53675D01*
X52578Y-53658D01*
X52561Y-53624D01*
X52561Y-53557D01*
X52578Y-53523D01*
X52595Y-53506D01*
X52629Y-53489D01*
X52646Y-53489D01*
X52679Y-53506D01*
X52696Y-53523D01*
X52713Y-53557D01*
X52713Y-53624D01*
X52730Y-53658D01*
X52747Y-53675D01*
X52781Y-53692D01*
X52848Y-53692D01*
X52882Y-53675D01*
X52899Y-53658D01*
X52916Y-53624D01*
X52916Y-53557D01*
X52899Y-53523D01*
X52882Y-53506D01*
X52848Y-53489D01*
X52781Y-53489D01*
X52747Y-53506D01*
X52730Y-53523D01*
X52713Y-53557D01*
X64929Y-35756D02*
X64912Y-35773D01*
X64862Y-35790D01*
X64828Y-35790D01*
X64777Y-35773D01*
X64744Y-35739D01*
X64727Y-35705D01*
X64710Y-35638D01*
X64710Y-35587D01*
X64727Y-35520D01*
X64744Y-35486D01*
X64777Y-35452D01*
X64828Y-35435D01*
X64862Y-35435D01*
X64912Y-35452D01*
X64929Y-35469D01*
X65047Y-35435D02*
X65267Y-35435D01*
X65149Y-35570D01*
X65199Y-35570D01*
X65233Y-35587D01*
X65250Y-35604D01*
X65267Y-35638D01*
X65267Y-35722D01*
X65250Y-35756D01*
X65233Y-35773D01*
X65199Y-35790D01*
X65098Y-35790D01*
X65064Y-35773D01*
X65047Y-35756D01*
X65402Y-35469D02*
X65419Y-35452D01*
X65452Y-35435D01*
X65537Y-35435D01*
X65570Y-35452D01*
X65587Y-35469D01*
X65604Y-35503D01*
X65604Y-35537D01*
X65587Y-35587D01*
X65385Y-35790D01*
X65604Y-35790D01*
X61878Y-25913D02*
X61861Y-25930D01*
X61811Y-25947D01*
X61777Y-25947D01*
X61726Y-25930D01*
X61692Y-25897D01*
X61676Y-25863D01*
X61659Y-25795D01*
X61659Y-25745D01*
X61676Y-25677D01*
X61692Y-25643D01*
X61726Y-25610D01*
X61777Y-25593D01*
X61811Y-25593D01*
X61861Y-25610D01*
X61878Y-25627D01*
X61996Y-25593D02*
X62215Y-25593D01*
X62097Y-25728D01*
X62148Y-25728D01*
X62182Y-25745D01*
X62199Y-25762D01*
X62215Y-25795D01*
X62215Y-25880D01*
X62199Y-25913D01*
X62182Y-25930D01*
X62148Y-25947D01*
X62047Y-25947D01*
X62013Y-25930D01*
X61996Y-25913D01*
X62536Y-25593D02*
X62367Y-25593D01*
X62350Y-25762D01*
X62367Y-25745D01*
X62401Y-25728D01*
X62485Y-25728D01*
X62519Y-25745D01*
X62536Y-25762D01*
X62553Y-25795D01*
X62553Y-25880D01*
X62536Y-25913D01*
X62519Y-25930D01*
X62485Y-25947D01*
X62401Y-25947D01*
X62367Y-25930D01*
X62350Y-25913D01*
X30460Y-36410D02*
X30291Y-36529D01*
X30460Y-36613D02*
X30105Y-36613D01*
X30105Y-36478D01*
X30122Y-36444D01*
X30139Y-36427D01*
X30173Y-36410D01*
X30224Y-36410D01*
X30257Y-36427D01*
X30274Y-36444D01*
X30291Y-36478D01*
X30291Y-36613D01*
X30105Y-36309D02*
X30460Y-36191D01*
X30105Y-36073D01*
X30460Y-35769D02*
X30460Y-35972D01*
X30460Y-35870D02*
X30105Y-35870D01*
X30156Y-35904D01*
X30190Y-35938D01*
X30207Y-35972D01*
X36344Y-41735D02*
X36546Y-41735D01*
X36445Y-42089D02*
X36445Y-41735D01*
X36850Y-42089D02*
X36647Y-42089D01*
X36749Y-42089D02*
X36749Y-41735D01*
X36715Y-41785D01*
X36681Y-41819D01*
X36647Y-41836D01*
X36830Y-36805D02*
X36830Y-37092D01*
X36846Y-37126D01*
X36863Y-37143D01*
X36897Y-37160D01*
X36965Y-37160D01*
X36998Y-37143D01*
X37015Y-37126D01*
X37032Y-37092D01*
X37032Y-36805D01*
X37386Y-37160D02*
X37184Y-37160D01*
X37285Y-37160D02*
X37285Y-36805D01*
X37251Y-36856D01*
X37218Y-36890D01*
X37184Y-36907D01*
X31126Y-54341D02*
X31126Y-53986D01*
X31126Y-54155D02*
X31328Y-54155D01*
X31328Y-54341D02*
X31328Y-53986D01*
X31682Y-54341D02*
X31480Y-54341D01*
X31581Y-54341D02*
X31581Y-53986D01*
X31547Y-54037D01*
X31514Y-54071D01*
X31480Y-54087D01*
X31107Y-26616D02*
X31107Y-26262D01*
X31107Y-26431D02*
X31310Y-26431D01*
X31310Y-26616D02*
X31310Y-26262D01*
X31462Y-26296D02*
X31479Y-26279D01*
X31512Y-26262D01*
X31597Y-26262D01*
X31631Y-26279D01*
X31647Y-26296D01*
X31664Y-26330D01*
X31664Y-26363D01*
X31647Y-26414D01*
X31445Y-26616D01*
X31664Y-26616D01*
X71029Y-54648D02*
X71029Y-54294D01*
X71029Y-54462D02*
X71231Y-54462D01*
X71231Y-54648D02*
X71231Y-54294D01*
X71366Y-54294D02*
X71586Y-54294D01*
X71467Y-54429D01*
X71518Y-54429D01*
X71552Y-54446D01*
X71569Y-54462D01*
X71586Y-54496D01*
X71586Y-54580D01*
X71569Y-54614D01*
X71552Y-54631D01*
X71518Y-54648D01*
X71417Y-54648D01*
X71383Y-54631D01*
X71366Y-54614D01*
X70871Y-26459D02*
X70871Y-26105D01*
X70871Y-26273D02*
X71074Y-26273D01*
X71074Y-26459D02*
X71074Y-26105D01*
X71394Y-26223D02*
X71394Y-26459D01*
X71310Y-26088D02*
X71226Y-26341D01*
X71445Y-26341D01*
X46186Y-35002D02*
X46186Y-34648D01*
X46186Y-34817D02*
X46389Y-34817D01*
X46389Y-35002D02*
X46389Y-34648D01*
X46726Y-34648D02*
X46557Y-34648D01*
X46541Y-34817D01*
X46557Y-34800D01*
X46591Y-34783D01*
X46676Y-34783D01*
X46709Y-34800D01*
X46726Y-34817D01*
X46743Y-34850D01*
X46743Y-34935D01*
X46726Y-34969D01*
X46709Y-34985D01*
X46676Y-35002D01*
X46591Y-35002D01*
X46557Y-34985D01*
X46541Y-34969D01*
X46186Y-51931D02*
X46186Y-51577D01*
X46186Y-51746D02*
X46389Y-51746D01*
X46389Y-51931D02*
X46389Y-51577D01*
X46709Y-51577D02*
X46642Y-51577D01*
X46608Y-51594D01*
X46591Y-51611D01*
X46557Y-51661D01*
X46541Y-51729D01*
X46541Y-51864D01*
X46557Y-51898D01*
X46574Y-51915D01*
X46608Y-51931D01*
X46676Y-51931D01*
X46709Y-51915D01*
X46726Y-51898D01*
X46743Y-51864D01*
X46743Y-51780D01*
X46726Y-51746D01*
X46709Y-51729D01*
X46676Y-51712D01*
X46608Y-51712D01*
X46574Y-51729D01*
X46557Y-51746D01*
X46541Y-51780D01*
X34412Y-36673D02*
X34243Y-36791D01*
X34412Y-36875D02*
X34057Y-36875D01*
X34057Y-36740D01*
X34074Y-36706D01*
X34091Y-36690D01*
X34125Y-36673D01*
X34176Y-36673D01*
X34209Y-36690D01*
X34226Y-36706D01*
X34243Y-36740D01*
X34243Y-36875D01*
X34091Y-36538D02*
X34074Y-36521D01*
X34057Y-36487D01*
X34057Y-36403D01*
X34074Y-36369D01*
X34091Y-36352D01*
X34125Y-36335D01*
X34159Y-36335D01*
X34209Y-36352D01*
X34412Y-36555D01*
X34412Y-36335D01*
X34412Y-35098D02*
X34243Y-35216D01*
X34412Y-35300D02*
X34057Y-35300D01*
X34057Y-35165D01*
X34074Y-35132D01*
X34091Y-35115D01*
X34125Y-35098D01*
X34176Y-35098D01*
X34209Y-35115D01*
X34226Y-35132D01*
X34243Y-35165D01*
X34243Y-35300D01*
X34057Y-34980D02*
X34057Y-34760D01*
X34192Y-34879D01*
X34192Y-34828D01*
X34209Y-34794D01*
X34226Y-34777D01*
X34260Y-34760D01*
X34344Y-34760D01*
X34378Y-34777D01*
X34395Y-34794D01*
X34412Y-34828D01*
X34412Y-34929D01*
X34395Y-34963D01*
X34378Y-34980D01*
X37168Y-36082D02*
X36999Y-36200D01*
X37168Y-36285D02*
X36813Y-36285D01*
X36813Y-36150D01*
X36830Y-36116D01*
X36847Y-36099D01*
X36881Y-36082D01*
X36931Y-36082D01*
X36965Y-36099D01*
X36982Y-36116D01*
X36999Y-36150D01*
X36999Y-36285D01*
X36965Y-35880D02*
X36948Y-35913D01*
X36931Y-35930D01*
X36898Y-35947D01*
X36881Y-35947D01*
X36847Y-35930D01*
X36830Y-35913D01*
X36813Y-35880D01*
X36813Y-35812D01*
X36830Y-35778D01*
X36847Y-35762D01*
X36881Y-35745D01*
X36898Y-35745D01*
X36931Y-35762D01*
X36948Y-35778D01*
X36965Y-35812D01*
X36965Y-35880D01*
X36982Y-35913D01*
X36999Y-35930D01*
X37033Y-35947D01*
X37100Y-35947D01*
X37134Y-35930D01*
X37151Y-35913D01*
X37168Y-35880D01*
X37168Y-35812D01*
X37151Y-35778D01*
X37134Y-35762D01*
X37100Y-35745D01*
X37033Y-35745D01*
X36999Y-35762D01*
X36982Y-35778D01*
X36965Y-35812D01*
X39727Y-34676D02*
X39558Y-34794D01*
X39727Y-34879D02*
X39372Y-34879D01*
X39372Y-34744D01*
X39389Y-34710D01*
X39406Y-34693D01*
X39440Y-34676D01*
X39491Y-34676D01*
X39524Y-34693D01*
X39541Y-34710D01*
X39558Y-34744D01*
X39558Y-34879D01*
X39727Y-34339D02*
X39727Y-34541D01*
X39727Y-34440D02*
X39372Y-34440D01*
X39423Y-34474D01*
X39457Y-34507D01*
X39474Y-34541D01*
X39727Y-34170D02*
X39727Y-34102D01*
X39710Y-34069D01*
X39693Y-34052D01*
X39642Y-34018D01*
X39575Y-34001D01*
X39440Y-34001D01*
X39406Y-34018D01*
X39389Y-34035D01*
X39372Y-34069D01*
X39372Y-34136D01*
X39389Y-34170D01*
X39406Y-34187D01*
X39440Y-34204D01*
X39524Y-34204D01*
X39558Y-34187D01*
X39575Y-34170D01*
X39592Y-34136D01*
X39592Y-34069D01*
X39575Y-34035D01*
X39558Y-34018D01*
X39524Y-34001D01*
X39727Y-27814D02*
X39727Y-27983D01*
X39372Y-27983D01*
X39491Y-27544D02*
X39727Y-27544D01*
X39356Y-27629D02*
X39609Y-27713D01*
X39609Y-27494D01*
X55939Y-25455D02*
X55939Y-25101D01*
X56023Y-25101D01*
X56074Y-25118D01*
X56107Y-25151D01*
X56124Y-25185D01*
X56141Y-25253D01*
X56141Y-25303D01*
X56124Y-25371D01*
X56107Y-25404D01*
X56074Y-25438D01*
X56023Y-25455D01*
X55939Y-25455D01*
X56479Y-25455D02*
X56276Y-25455D01*
X56377Y-25455D02*
X56377Y-25101D01*
X56344Y-25151D01*
X56310Y-25185D01*
X56276Y-25202D01*
G54D10*
G36*
X43174Y-53663D02*
X39927Y-53663D01*
X39927Y-49727D01*
X43174Y-49727D01*
X43174Y-53663D01*
X43174Y-53663D01*
G37*
G54D22*
X43174Y-53663D02*
X39927Y-53663D01*
X39927Y-49727D01*
X43174Y-49727D01*
X43174Y-53663D01*
M02*
