%FSLAX34Y34*%
G04 Gerber Fmt 3.4, Leading zero omitted, Abs format*
G04 (created by PCBNEW (2014-03-19 BZR 4756)-product) date Thu May 22 10:07:56 2014*
%MOIN*%
G01*
G70*
G90*
G04 APERTURE LIST*
%ADD10C,0.005906*%
%ADD11R,0.200787X0.094488*%
%ADD12R,0.094488X0.200787*%
%ADD13R,0.055000X0.055000*%
%ADD14C,0.055000*%
%ADD15C,0.045000*%
%ADD16C,0.060000*%
%ADD17O,0.100000X0.080000*%
%ADD18C,0.035000*%
%ADD19C,0.039370*%
%ADD20C,0.007874*%
%ADD21C,0.078740*%
%ADD22C,0.015748*%
%ADD23C,0.031496*%
%ADD24C,0.019685*%
G04 APERTURE END LIST*
G54D10*
G54D11*
X14000Y-38732D03*
X14000Y-35267D03*
G54D12*
X21017Y-14000D03*
X24482Y-14000D03*
G54D11*
X40500Y-38732D03*
X40500Y-35267D03*
X40500Y-21482D03*
X40500Y-18017D03*
G54D13*
X14250Y-18000D03*
G54D14*
X14250Y-19000D03*
X14250Y-20000D03*
G54D13*
X40500Y-27250D03*
G54D14*
X40500Y-26250D03*
X40500Y-25250D03*
G54D13*
X14250Y-26500D03*
G54D14*
X14250Y-25500D03*
X14250Y-24500D03*
G54D15*
X21750Y-23250D03*
G54D13*
X40500Y-44000D03*
G54D14*
X40500Y-43000D03*
X40500Y-42000D03*
X40500Y-41000D03*
G54D13*
X40500Y-49000D03*
G54D14*
X40500Y-48000D03*
X40500Y-47000D03*
X40500Y-46000D03*
G54D13*
X14250Y-33500D03*
G54D14*
X14250Y-32500D03*
X14250Y-31500D03*
X14250Y-30500D03*
G54D16*
X24000Y-58750D03*
X25000Y-58750D03*
X23000Y-58750D03*
G54D13*
X17000Y-47250D03*
G54D14*
X18000Y-47250D03*
X19000Y-47250D03*
X20000Y-47250D03*
X21000Y-47250D03*
X22000Y-47250D03*
X23000Y-47250D03*
X24000Y-47250D03*
X25000Y-47250D03*
X26000Y-47250D03*
X27000Y-47250D03*
X28000Y-47250D03*
X28000Y-41250D03*
X27000Y-41250D03*
X26000Y-41250D03*
X25000Y-41250D03*
X24000Y-41250D03*
X23000Y-41250D03*
X22000Y-41250D03*
X21000Y-41250D03*
X20000Y-41250D03*
X19000Y-41250D03*
X18000Y-41250D03*
X17000Y-41250D03*
G54D13*
X17000Y-56250D03*
G54D14*
X18000Y-56250D03*
X19000Y-56250D03*
X20000Y-56250D03*
X21000Y-56250D03*
X22000Y-56250D03*
X23000Y-56250D03*
X24000Y-56250D03*
X25000Y-56250D03*
X26000Y-56250D03*
X27000Y-56250D03*
X28000Y-56250D03*
X28000Y-50250D03*
X27000Y-50250D03*
X26000Y-50250D03*
X25000Y-50250D03*
X24000Y-50250D03*
X23000Y-50250D03*
X22000Y-50250D03*
X21000Y-50250D03*
X20000Y-50250D03*
X19000Y-50250D03*
X18000Y-50250D03*
X17000Y-50250D03*
G54D13*
X32250Y-59250D03*
G54D14*
X31250Y-59250D03*
X30250Y-59250D03*
X29250Y-59250D03*
G54D13*
X27250Y-14000D03*
G54D14*
X28250Y-14000D03*
X29250Y-14000D03*
G54D13*
X31250Y-14000D03*
G54D14*
X32250Y-14000D03*
X33250Y-14000D03*
G54D13*
X35250Y-14000D03*
G54D14*
X36250Y-14000D03*
X37250Y-14000D03*
G54D17*
X39750Y-31000D03*
X39750Y-32000D03*
X39750Y-30000D03*
G54D18*
X35750Y-25750D03*
X28500Y-35250D03*
X28500Y-34250D03*
X22500Y-38500D03*
X38500Y-21250D03*
X36000Y-21250D03*
X31250Y-31750D03*
X31250Y-31250D03*
X30750Y-31250D03*
X30750Y-31750D03*
X30750Y-32250D03*
X31250Y-32250D03*
X31250Y-32750D03*
X30750Y-32750D03*
X33750Y-32750D03*
X33250Y-32750D03*
X33250Y-32250D03*
X33750Y-32250D03*
X33750Y-31750D03*
X33250Y-31750D03*
X33250Y-31250D03*
X33750Y-31250D03*
X34250Y-31250D03*
X34750Y-31250D03*
X34750Y-31750D03*
X34750Y-32250D03*
X34750Y-32750D03*
X34750Y-33250D03*
X34750Y-33750D03*
X29750Y-33750D03*
X29750Y-33250D03*
X29750Y-32750D03*
X29750Y-32250D03*
X29750Y-31750D03*
X29750Y-31250D03*
X34250Y-31750D03*
X34250Y-32250D03*
X34250Y-32750D03*
X34250Y-33250D03*
X34250Y-33750D03*
X30250Y-33750D03*
X30250Y-33250D03*
X30250Y-32750D03*
X30250Y-32250D03*
X30250Y-31750D03*
X30250Y-31250D03*
X23000Y-34250D03*
X25500Y-34750D03*
X25000Y-34750D03*
X24500Y-34750D03*
X24000Y-34750D03*
X24000Y-35250D03*
X24500Y-35250D03*
X25000Y-35250D03*
X25500Y-35250D03*
X26000Y-35250D03*
X26000Y-35750D03*
X25000Y-35750D03*
X24500Y-35750D03*
X24000Y-33250D03*
X24500Y-33250D03*
X25000Y-33250D03*
X25500Y-33250D03*
X26000Y-33250D03*
X26000Y-33750D03*
X25500Y-33750D03*
X25000Y-33750D03*
X24500Y-33750D03*
X24000Y-33750D03*
X24000Y-34250D03*
X24500Y-34250D03*
X25000Y-34250D03*
X25500Y-34250D03*
X26000Y-34250D03*
X26000Y-34750D03*
X25500Y-36545D03*
X25500Y-36000D03*
X35500Y-29250D03*
X37000Y-28750D03*
X37000Y-29500D03*
X38250Y-30500D03*
X22000Y-20250D03*
X15500Y-38750D03*
X15500Y-35500D03*
X21000Y-25000D03*
X21000Y-15500D03*
X24500Y-15500D03*
X39000Y-21500D03*
X38750Y-18000D03*
X31250Y-39500D03*
X33500Y-39500D03*
X32000Y-43000D03*
X33750Y-42750D03*
X37250Y-43250D03*
X38000Y-42750D03*
X37000Y-42750D03*
X36250Y-42750D03*
X35500Y-42750D03*
X34750Y-42750D03*
X29750Y-19500D03*
X32250Y-20250D03*
X17250Y-34750D03*
X17250Y-28250D03*
X17750Y-30500D03*
X17750Y-34000D03*
X20250Y-34500D03*
X20000Y-34000D03*
X20500Y-29500D03*
X23000Y-33500D03*
X18000Y-26750D03*
X19500Y-21000D03*
X20250Y-23750D03*
X22750Y-24250D03*
X17000Y-25500D03*
X26500Y-21750D03*
X29750Y-21250D03*
X31000Y-17000D03*
X31000Y-18000D03*
X14500Y-47500D03*
X14000Y-44500D03*
X33750Y-25500D03*
X32750Y-26250D03*
X29250Y-30250D03*
X28250Y-29250D03*
X32000Y-37500D03*
X31250Y-37500D03*
X32500Y-37250D03*
X20000Y-38500D03*
X29250Y-33000D03*
X38500Y-46750D03*
X39250Y-44500D03*
X39000Y-35250D03*
X39000Y-38750D03*
X38500Y-41000D03*
X40000Y-45000D03*
X32750Y-21750D03*
X33000Y-17500D03*
X23250Y-35500D03*
X22000Y-28250D03*
X38000Y-38750D03*
X38000Y-35000D03*
X37000Y-33500D03*
X25250Y-30250D03*
X35500Y-35250D03*
X34250Y-39750D03*
X15250Y-34000D03*
X17000Y-35250D03*
X29250Y-22750D03*
X33500Y-22750D03*
X38500Y-47500D03*
X38500Y-44750D03*
X37275Y-48375D03*
X34075Y-48375D03*
X37875Y-45375D03*
X33075Y-46675D03*
X36475Y-47875D03*
X34075Y-47875D03*
X36475Y-45575D03*
X33375Y-45875D03*
X35675Y-47275D03*
X34075Y-47275D03*
X35675Y-45175D03*
X33675Y-45175D03*
X34750Y-37750D03*
X30500Y-14000D03*
X18750Y-36000D03*
X31250Y-26000D03*
X32500Y-25750D03*
X24750Y-26000D03*
X24750Y-25000D03*
X24250Y-19500D03*
X29250Y-38000D03*
X30000Y-15500D03*
X34250Y-36000D03*
X18250Y-34000D03*
X24000Y-21250D03*
X29500Y-35750D03*
G54D19*
X18000Y-41250D02*
X19000Y-41250D01*
X18625Y-40625D02*
X18625Y-40875D01*
X18625Y-40875D02*
X19000Y-41250D01*
G54D20*
X18000Y-41250D02*
X18500Y-41250D01*
G54D21*
X19750Y-39500D02*
X18625Y-40625D01*
X18625Y-40625D02*
X18500Y-40750D01*
X20500Y-39500D02*
X19750Y-39500D01*
X21250Y-38750D02*
X20500Y-39500D01*
X21250Y-32500D02*
X21250Y-38750D01*
X26000Y-27750D02*
X21250Y-32500D01*
X34750Y-27750D02*
X26000Y-27750D01*
X35750Y-26750D02*
X34750Y-27750D01*
X35750Y-25750D02*
X35750Y-26750D01*
G54D20*
X30250Y-31250D02*
X30750Y-31250D01*
X31250Y-31250D02*
X31250Y-31750D01*
X30750Y-31750D02*
X30750Y-32250D01*
X31250Y-32250D02*
X31250Y-32750D01*
X30750Y-32750D02*
X33750Y-32750D01*
X33250Y-32750D02*
X33250Y-32250D01*
X33750Y-32250D02*
X33750Y-31750D01*
X33250Y-31750D02*
X33250Y-31250D01*
X32250Y-29250D02*
X32250Y-31250D01*
X34750Y-31250D02*
X34250Y-31250D01*
X34750Y-32250D02*
X34750Y-31750D01*
X34750Y-33250D02*
X34750Y-32750D01*
X29750Y-33750D02*
X34750Y-33750D01*
X29750Y-32750D02*
X29750Y-33250D01*
X29750Y-31750D02*
X29750Y-32250D01*
X32250Y-31250D02*
X29750Y-31250D01*
X34250Y-31750D02*
X34250Y-32250D01*
X34250Y-32750D02*
X34250Y-33250D01*
X34250Y-33750D02*
X30250Y-33750D01*
X30250Y-33250D02*
X30250Y-32750D01*
X30250Y-32250D02*
X30250Y-31750D01*
X30250Y-31250D02*
X30500Y-31500D01*
X30500Y-31500D02*
X30500Y-33750D01*
G54D22*
X25500Y-34750D02*
X25000Y-34750D01*
X24500Y-34750D02*
X24000Y-34750D01*
X24000Y-35250D02*
X24500Y-35250D01*
X25000Y-35250D02*
X25500Y-35250D01*
X26000Y-35250D02*
X26000Y-35750D01*
X25000Y-35750D02*
X24500Y-35750D01*
X24000Y-33250D02*
X24500Y-33250D01*
X25000Y-33250D02*
X25500Y-33250D01*
X26000Y-33250D02*
X26000Y-33750D01*
X25500Y-33750D02*
X25000Y-33750D01*
X24500Y-33750D02*
X24000Y-33750D01*
X24000Y-34250D02*
X24500Y-34250D01*
X25000Y-34250D02*
X25500Y-34250D01*
X26000Y-34250D02*
X26000Y-34750D01*
X25500Y-36545D02*
X25500Y-36000D01*
X39750Y-42250D02*
X38500Y-41000D01*
X39750Y-44750D02*
X39750Y-42250D01*
X40000Y-45000D02*
X39750Y-44750D01*
G54D23*
X32750Y-21750D02*
X33000Y-21500D01*
X33000Y-21500D02*
X33000Y-17500D01*
G54D19*
X37000Y-33500D02*
X36250Y-34250D01*
X36250Y-34250D02*
X35250Y-34250D01*
X35250Y-34250D02*
X34500Y-35000D01*
X34500Y-35000D02*
X30000Y-35000D01*
X30000Y-35000D02*
X27250Y-32250D01*
X27250Y-32250D02*
X26000Y-32250D01*
X26000Y-32250D02*
X25250Y-31500D01*
X25250Y-31500D02*
X25250Y-30250D01*
G54D23*
X14250Y-33500D02*
X14750Y-33500D01*
X14750Y-30500D02*
X14250Y-30500D01*
X15250Y-31000D02*
X14750Y-30500D01*
X15250Y-33000D02*
X15250Y-31000D01*
X14750Y-33500D02*
X15250Y-33000D01*
G54D22*
X15250Y-34250D02*
X15250Y-34000D01*
X16250Y-35250D02*
X15250Y-34250D01*
X17000Y-35250D02*
X16250Y-35250D01*
G54D23*
X29250Y-22750D02*
X33500Y-22750D01*
G54D22*
X38500Y-47500D02*
X39250Y-46750D01*
X39250Y-46750D02*
X39250Y-46500D01*
X39250Y-46500D02*
X38500Y-45750D01*
X38500Y-45750D02*
X38500Y-44750D01*
X34075Y-48375D02*
X37275Y-48375D01*
X37475Y-45375D02*
X37875Y-45375D01*
X37175Y-45675D02*
X37475Y-45375D01*
X37175Y-46175D02*
X37175Y-45675D01*
X37175Y-46475D02*
X37175Y-46175D01*
X36975Y-46675D02*
X37175Y-46475D01*
X33075Y-46675D02*
X36975Y-46675D01*
X34075Y-47875D02*
X36475Y-47875D01*
X36175Y-45875D02*
X36475Y-45575D01*
X33375Y-45875D02*
X36175Y-45875D01*
X34075Y-47275D02*
X35675Y-47275D01*
X33675Y-45175D02*
X35675Y-45175D01*
X25750Y-14000D02*
X27250Y-14000D01*
G54D10*
G36*
X41185Y-59935D02*
X41070Y-59935D01*
X41070Y-47887D01*
X40983Y-47677D01*
X40823Y-47516D01*
X40783Y-47500D01*
X40822Y-47483D01*
X40983Y-47323D01*
X41070Y-47113D01*
X41070Y-46887D01*
X40983Y-46677D01*
X40823Y-46516D01*
X40783Y-46500D01*
X40822Y-46483D01*
X40983Y-46323D01*
X41070Y-46113D01*
X41070Y-45887D01*
X41070Y-42887D01*
X40983Y-42677D01*
X40823Y-42516D01*
X40783Y-42500D01*
X40822Y-42483D01*
X40983Y-42323D01*
X41070Y-42113D01*
X41070Y-41887D01*
X40983Y-41677D01*
X40823Y-41516D01*
X40783Y-41500D01*
X40822Y-41483D01*
X40983Y-41323D01*
X41070Y-41113D01*
X41070Y-40887D01*
X40983Y-40677D01*
X40823Y-40516D01*
X40613Y-40429D01*
X40401Y-40429D01*
X40401Y-39573D01*
X40401Y-38830D01*
X40401Y-38633D01*
X40401Y-37890D01*
X40401Y-36109D01*
X40401Y-35366D01*
X40401Y-35169D01*
X40401Y-34426D01*
X40278Y-34303D01*
X39398Y-34303D01*
X39217Y-34378D01*
X39078Y-34516D01*
X39003Y-34697D01*
X39003Y-34893D01*
X39003Y-35046D01*
X39126Y-35169D01*
X40401Y-35169D01*
X40401Y-35366D01*
X39126Y-35366D01*
X39003Y-35489D01*
X39003Y-35642D01*
X39003Y-35838D01*
X39078Y-36018D01*
X39217Y-36157D01*
X39398Y-36232D01*
X40278Y-36232D01*
X40401Y-36109D01*
X40401Y-37890D01*
X40278Y-37767D01*
X39398Y-37767D01*
X39217Y-37842D01*
X39078Y-37981D01*
X39003Y-38161D01*
X39003Y-38357D01*
X39003Y-38510D01*
X39126Y-38633D01*
X40401Y-38633D01*
X40401Y-38830D01*
X39126Y-38830D01*
X39003Y-38953D01*
X39003Y-39106D01*
X39003Y-39302D01*
X39078Y-39483D01*
X39217Y-39621D01*
X39398Y-39696D01*
X40278Y-39696D01*
X40401Y-39573D01*
X40401Y-40429D01*
X40387Y-40429D01*
X40177Y-40516D01*
X40016Y-40676D01*
X39929Y-40886D01*
X39929Y-41112D01*
X40016Y-41322D01*
X40176Y-41483D01*
X40216Y-41499D01*
X40177Y-41516D01*
X40016Y-41676D01*
X39929Y-41886D01*
X39929Y-41900D01*
X38970Y-40941D01*
X38970Y-40906D01*
X38898Y-40733D01*
X38766Y-40601D01*
X38593Y-40529D01*
X38470Y-40529D01*
X38470Y-38656D01*
X38470Y-34906D01*
X38398Y-34733D01*
X38266Y-34601D01*
X38093Y-34529D01*
X37906Y-34529D01*
X37820Y-34565D01*
X37820Y-13887D01*
X37733Y-13677D01*
X37573Y-13516D01*
X37363Y-13429D01*
X37137Y-13429D01*
X36927Y-13516D01*
X36830Y-13613D01*
X36780Y-13608D01*
X36389Y-14000D01*
X36780Y-14391D01*
X36830Y-14386D01*
X36926Y-14483D01*
X37136Y-14570D01*
X37362Y-14570D01*
X37572Y-14483D01*
X37733Y-14323D01*
X37820Y-14113D01*
X37820Y-13887D01*
X37820Y-34565D01*
X37733Y-34601D01*
X37601Y-34733D01*
X37529Y-34906D01*
X37529Y-35093D01*
X37601Y-35266D01*
X37733Y-35398D01*
X37906Y-35470D01*
X38093Y-35470D01*
X38266Y-35398D01*
X38398Y-35266D01*
X38470Y-35093D01*
X38470Y-34906D01*
X38470Y-38656D01*
X38398Y-38483D01*
X38266Y-38351D01*
X38093Y-38279D01*
X37906Y-38279D01*
X37733Y-38351D01*
X37601Y-38483D01*
X37529Y-38656D01*
X37529Y-38843D01*
X37601Y-39016D01*
X37733Y-39148D01*
X37906Y-39220D01*
X38093Y-39220D01*
X38266Y-39148D01*
X38398Y-39016D01*
X38470Y-38843D01*
X38470Y-38656D01*
X38470Y-40529D01*
X38406Y-40529D01*
X38233Y-40601D01*
X38101Y-40733D01*
X38029Y-40906D01*
X38029Y-41093D01*
X38101Y-41266D01*
X38233Y-41398D01*
X38406Y-41470D01*
X38441Y-41470D01*
X39375Y-42404D01*
X39375Y-44750D01*
X39399Y-44869D01*
X39404Y-44893D01*
X39485Y-45014D01*
X39529Y-45058D01*
X39529Y-45093D01*
X39601Y-45266D01*
X39733Y-45398D01*
X39906Y-45470D01*
X40093Y-45470D01*
X40266Y-45398D01*
X40398Y-45266D01*
X40470Y-45093D01*
X40470Y-44906D01*
X40398Y-44733D01*
X40266Y-44601D01*
X40191Y-44570D01*
X40283Y-44570D01*
X40833Y-44570D01*
X40942Y-44525D01*
X41025Y-44442D01*
X41070Y-44333D01*
X41070Y-44216D01*
X41070Y-43666D01*
X41025Y-43557D01*
X40942Y-43474D01*
X40864Y-43442D01*
X40983Y-43323D01*
X41070Y-43113D01*
X41070Y-42887D01*
X41070Y-45887D01*
X40983Y-45677D01*
X40823Y-45516D01*
X40613Y-45429D01*
X40387Y-45429D01*
X40177Y-45516D01*
X40016Y-45676D01*
X39929Y-45886D01*
X39929Y-46112D01*
X40016Y-46322D01*
X40176Y-46483D01*
X40216Y-46499D01*
X40177Y-46516D01*
X40016Y-46676D01*
X39929Y-46886D01*
X39929Y-47112D01*
X40016Y-47322D01*
X40176Y-47483D01*
X40216Y-47499D01*
X40177Y-47516D01*
X40016Y-47676D01*
X39929Y-47886D01*
X39929Y-48112D01*
X40016Y-48322D01*
X40135Y-48442D01*
X40057Y-48474D01*
X39974Y-48557D01*
X39929Y-48666D01*
X39929Y-48783D01*
X39929Y-49333D01*
X39974Y-49442D01*
X40057Y-49525D01*
X40166Y-49570D01*
X40283Y-49570D01*
X40833Y-49570D01*
X40942Y-49525D01*
X41025Y-49442D01*
X41070Y-49333D01*
X41070Y-49216D01*
X41070Y-48666D01*
X41025Y-48557D01*
X40942Y-48474D01*
X40864Y-48442D01*
X40983Y-48323D01*
X41070Y-48113D01*
X41070Y-47887D01*
X41070Y-59935D01*
X40484Y-59935D01*
X40484Y-58055D01*
X40334Y-57693D01*
X40058Y-57416D01*
X39696Y-57265D01*
X39624Y-57265D01*
X39624Y-46750D01*
X39624Y-46500D01*
X39600Y-46380D01*
X39595Y-46356D01*
X39595Y-46356D01*
X39514Y-46235D01*
X38874Y-45595D01*
X38874Y-45041D01*
X38898Y-45016D01*
X38970Y-44843D01*
X38970Y-44656D01*
X38898Y-44483D01*
X38766Y-44351D01*
X38593Y-44279D01*
X38406Y-44279D01*
X38233Y-44351D01*
X38101Y-44483D01*
X38029Y-44656D01*
X38029Y-44843D01*
X38072Y-44947D01*
X37968Y-44904D01*
X37781Y-44904D01*
X37608Y-44976D01*
X37584Y-45000D01*
X37492Y-45000D01*
X37492Y-33500D01*
X37454Y-33311D01*
X37347Y-33152D01*
X37188Y-33045D01*
X37000Y-33007D01*
X36811Y-33045D01*
X36652Y-33152D01*
X36641Y-33162D01*
X36641Y-14530D01*
X36250Y-14139D01*
X36110Y-14278D01*
X36110Y-14000D01*
X35820Y-13709D01*
X35820Y-13666D01*
X35775Y-13557D01*
X35692Y-13474D01*
X35583Y-13429D01*
X35466Y-13429D01*
X34916Y-13429D01*
X34807Y-13474D01*
X34724Y-13557D01*
X34679Y-13666D01*
X34679Y-13783D01*
X34679Y-14333D01*
X34724Y-14442D01*
X34807Y-14525D01*
X34916Y-14570D01*
X35033Y-14570D01*
X35583Y-14570D01*
X35692Y-14525D01*
X35775Y-14442D01*
X35820Y-14333D01*
X35820Y-14290D01*
X36110Y-14000D01*
X36110Y-14278D01*
X35858Y-14530D01*
X35873Y-14685D01*
X36164Y-14777D01*
X36468Y-14750D01*
X36626Y-14685D01*
X36641Y-14530D01*
X36641Y-33162D01*
X36046Y-33757D01*
X35250Y-33757D01*
X35061Y-33795D01*
X34902Y-33902D01*
X34296Y-34507D01*
X30203Y-34507D01*
X27597Y-31902D01*
X27438Y-31795D01*
X27250Y-31757D01*
X26203Y-31757D01*
X25742Y-31296D01*
X25742Y-30250D01*
X25704Y-30061D01*
X25597Y-29902D01*
X25438Y-29795D01*
X25250Y-29757D01*
X25061Y-29795D01*
X24902Y-29902D01*
X24795Y-30061D01*
X24757Y-30250D01*
X24757Y-31500D01*
X24795Y-31688D01*
X24902Y-31847D01*
X25652Y-32597D01*
X25811Y-32704D01*
X26000Y-32742D01*
X27046Y-32742D01*
X29583Y-35279D01*
X29406Y-35279D01*
X29233Y-35351D01*
X29101Y-35483D01*
X29029Y-35656D01*
X29029Y-35843D01*
X29101Y-36016D01*
X29233Y-36148D01*
X29406Y-36220D01*
X29593Y-36220D01*
X29766Y-36148D01*
X29898Y-36016D01*
X29970Y-35843D01*
X29970Y-35656D01*
X29898Y-35483D01*
X29884Y-35469D01*
X30000Y-35492D01*
X34500Y-35492D01*
X34500Y-35492D01*
X34688Y-35454D01*
X34847Y-35347D01*
X35029Y-35166D01*
X35029Y-35343D01*
X35101Y-35516D01*
X35233Y-35648D01*
X35406Y-35720D01*
X35593Y-35720D01*
X35766Y-35648D01*
X35898Y-35516D01*
X35970Y-35343D01*
X35970Y-35156D01*
X35898Y-34983D01*
X35766Y-34851D01*
X35593Y-34779D01*
X35416Y-34779D01*
X35453Y-34742D01*
X36250Y-34742D01*
X36250Y-34742D01*
X36438Y-34704D01*
X36597Y-34597D01*
X37347Y-33847D01*
X37454Y-33688D01*
X37492Y-33500D01*
X37492Y-45000D01*
X37475Y-45000D01*
X37331Y-45029D01*
X37210Y-45110D01*
X36914Y-45406D01*
X36873Y-45308D01*
X36741Y-45176D01*
X36568Y-45104D01*
X36381Y-45104D01*
X36208Y-45176D01*
X36145Y-45239D01*
X36145Y-45081D01*
X36073Y-44908D01*
X35941Y-44776D01*
X35768Y-44704D01*
X35581Y-44704D01*
X35408Y-44776D01*
X35384Y-44800D01*
X35220Y-44800D01*
X35220Y-37656D01*
X35148Y-37483D01*
X35016Y-37351D01*
X34843Y-37279D01*
X34720Y-37279D01*
X34720Y-35906D01*
X34648Y-35733D01*
X34516Y-35601D01*
X34343Y-35529D01*
X34156Y-35529D01*
X33983Y-35601D01*
X33851Y-35733D01*
X33779Y-35906D01*
X33779Y-36093D01*
X33851Y-36266D01*
X33983Y-36398D01*
X34156Y-36470D01*
X34343Y-36470D01*
X34516Y-36398D01*
X34648Y-36266D01*
X34720Y-36093D01*
X34720Y-35906D01*
X34720Y-37279D01*
X34656Y-37279D01*
X34483Y-37351D01*
X34351Y-37483D01*
X34279Y-37656D01*
X34279Y-37843D01*
X34351Y-38016D01*
X34483Y-38148D01*
X34656Y-38220D01*
X34843Y-38220D01*
X35016Y-38148D01*
X35148Y-38016D01*
X35220Y-37843D01*
X35220Y-37656D01*
X35220Y-44800D01*
X34720Y-44800D01*
X34720Y-39656D01*
X34648Y-39483D01*
X34516Y-39351D01*
X34343Y-39279D01*
X34156Y-39279D01*
X33983Y-39351D01*
X33851Y-39483D01*
X33779Y-39656D01*
X33779Y-39843D01*
X33851Y-40016D01*
X33983Y-40148D01*
X34156Y-40220D01*
X34343Y-40220D01*
X34516Y-40148D01*
X34648Y-40016D01*
X34720Y-39843D01*
X34720Y-39656D01*
X34720Y-44800D01*
X33966Y-44800D01*
X33941Y-44776D01*
X33768Y-44704D01*
X33581Y-44704D01*
X33408Y-44776D01*
X33276Y-44908D01*
X33204Y-45081D01*
X33204Y-45268D01*
X33264Y-45411D01*
X33108Y-45476D01*
X32976Y-45608D01*
X32904Y-45781D01*
X32904Y-45968D01*
X32976Y-46141D01*
X33039Y-46204D01*
X32981Y-46204D01*
X32808Y-46276D01*
X32676Y-46408D01*
X32604Y-46581D01*
X32604Y-46768D01*
X32676Y-46941D01*
X32808Y-47073D01*
X32981Y-47145D01*
X33168Y-47145D01*
X33341Y-47073D01*
X33365Y-47049D01*
X33659Y-47049D01*
X33604Y-47181D01*
X33604Y-47368D01*
X33676Y-47541D01*
X33709Y-47574D01*
X33676Y-47608D01*
X33604Y-47781D01*
X33604Y-47968D01*
X33669Y-48125D01*
X33604Y-48281D01*
X33604Y-48468D01*
X33676Y-48641D01*
X33808Y-48773D01*
X33981Y-48845D01*
X34168Y-48845D01*
X34341Y-48773D01*
X34365Y-48749D01*
X36983Y-48749D01*
X37008Y-48773D01*
X37181Y-48845D01*
X37368Y-48845D01*
X37541Y-48773D01*
X37673Y-48641D01*
X37745Y-48468D01*
X37745Y-48281D01*
X37673Y-48108D01*
X37541Y-47976D01*
X37368Y-47904D01*
X37181Y-47904D01*
X37008Y-47976D01*
X36984Y-48000D01*
X36931Y-48000D01*
X36945Y-47968D01*
X36945Y-47781D01*
X36873Y-47608D01*
X36741Y-47476D01*
X36568Y-47404D01*
X36381Y-47404D01*
X36208Y-47476D01*
X36184Y-47500D01*
X36090Y-47500D01*
X36145Y-47368D01*
X36145Y-47181D01*
X36090Y-47049D01*
X36975Y-47049D01*
X36975Y-47049D01*
X37094Y-47025D01*
X37118Y-47020D01*
X37118Y-47020D01*
X37239Y-46939D01*
X37439Y-46739D01*
X37439Y-46739D01*
X37493Y-46658D01*
X37520Y-46618D01*
X37520Y-46618D01*
X37549Y-46475D01*
X37549Y-46475D01*
X37549Y-46175D01*
X37549Y-45829D01*
X37606Y-45772D01*
X37608Y-45773D01*
X37781Y-45845D01*
X37968Y-45845D01*
X38131Y-45777D01*
X38149Y-45869D01*
X38154Y-45893D01*
X38235Y-46014D01*
X38846Y-46625D01*
X38441Y-47029D01*
X38406Y-47029D01*
X38233Y-47101D01*
X38101Y-47233D01*
X38029Y-47406D01*
X38029Y-47593D01*
X38101Y-47766D01*
X38233Y-47898D01*
X38406Y-47970D01*
X38593Y-47970D01*
X38766Y-47898D01*
X38898Y-47766D01*
X38970Y-47593D01*
X38970Y-47558D01*
X39514Y-47014D01*
X39514Y-47014D01*
X39595Y-46893D01*
X39595Y-46893D01*
X39600Y-46869D01*
X39624Y-46750D01*
X39624Y-46750D01*
X39624Y-57265D01*
X39305Y-57265D01*
X38943Y-57415D01*
X38666Y-57691D01*
X38515Y-58053D01*
X38515Y-58444D01*
X38665Y-58806D01*
X38941Y-59083D01*
X39303Y-59234D01*
X39694Y-59234D01*
X40056Y-59084D01*
X40333Y-58808D01*
X40484Y-58446D01*
X40484Y-58055D01*
X40484Y-59935D01*
X32810Y-59935D01*
X32942Y-59803D01*
X33017Y-59622D01*
X33017Y-59471D01*
X33017Y-59028D01*
X33017Y-58877D01*
X32942Y-58696D01*
X32803Y-58557D01*
X32622Y-58482D01*
X32471Y-58482D01*
X32348Y-58605D01*
X32348Y-59151D01*
X32894Y-59151D01*
X33017Y-59028D01*
X33017Y-59471D01*
X32894Y-59348D01*
X32348Y-59348D01*
X32348Y-59356D01*
X32151Y-59356D01*
X32151Y-59348D01*
X32143Y-59348D01*
X32143Y-59151D01*
X32151Y-59151D01*
X32151Y-58605D01*
X32028Y-58482D01*
X31946Y-58482D01*
X31946Y-57553D01*
X30946Y-57553D01*
X30946Y-46418D01*
X30196Y-45668D01*
X30196Y-41168D01*
X29720Y-40691D01*
X29720Y-37906D01*
X29648Y-37733D01*
X29516Y-37601D01*
X29343Y-37529D01*
X29156Y-37529D01*
X28983Y-37601D01*
X28851Y-37733D01*
X28779Y-37906D01*
X28779Y-38093D01*
X28851Y-38266D01*
X28983Y-38398D01*
X29156Y-38470D01*
X29343Y-38470D01*
X29516Y-38398D01*
X29648Y-38266D01*
X29720Y-38093D01*
X29720Y-37906D01*
X29720Y-40691D01*
X29331Y-40303D01*
X23720Y-40303D01*
X23720Y-35406D01*
X23648Y-35233D01*
X23516Y-35101D01*
X23343Y-35029D01*
X23156Y-35029D01*
X22983Y-35101D01*
X22851Y-35233D01*
X22779Y-35406D01*
X22779Y-35593D01*
X22851Y-35766D01*
X22983Y-35898D01*
X23156Y-35970D01*
X23343Y-35970D01*
X23516Y-35898D01*
X23648Y-35766D01*
X23720Y-35593D01*
X23720Y-35406D01*
X23720Y-40303D01*
X23303Y-40303D01*
X23303Y-40758D01*
X23113Y-40679D01*
X22887Y-40679D01*
X22677Y-40766D01*
X22516Y-40926D01*
X22500Y-40966D01*
X22483Y-40927D01*
X22323Y-40766D01*
X22113Y-40679D01*
X21887Y-40679D01*
X21677Y-40766D01*
X21516Y-40926D01*
X21500Y-40966D01*
X21483Y-40927D01*
X21323Y-40766D01*
X21113Y-40679D01*
X20887Y-40679D01*
X20677Y-40766D01*
X20516Y-40926D01*
X20500Y-40966D01*
X20483Y-40927D01*
X20323Y-40766D01*
X20113Y-40679D01*
X19887Y-40679D01*
X19677Y-40766D01*
X19516Y-40926D01*
X19500Y-40966D01*
X19483Y-40927D01*
X19390Y-40833D01*
X20035Y-40188D01*
X20500Y-40188D01*
X20763Y-40136D01*
X20987Y-39987D01*
X21737Y-39237D01*
X21886Y-39013D01*
X21938Y-38750D01*
X21938Y-32785D01*
X26285Y-28438D01*
X34750Y-28438D01*
X35013Y-28386D01*
X35237Y-28237D01*
X36237Y-27237D01*
X36386Y-27013D01*
X36438Y-26750D01*
X36438Y-25750D01*
X36386Y-25486D01*
X36237Y-25262D01*
X36013Y-25113D01*
X35750Y-25061D01*
X35486Y-25113D01*
X35262Y-25262D01*
X35113Y-25486D01*
X35061Y-25750D01*
X35061Y-26464D01*
X34464Y-27061D01*
X33970Y-27061D01*
X33970Y-22656D01*
X33898Y-22483D01*
X33820Y-22405D01*
X33820Y-13887D01*
X33733Y-13677D01*
X33573Y-13516D01*
X33363Y-13429D01*
X33137Y-13429D01*
X32927Y-13516D01*
X32830Y-13613D01*
X32780Y-13608D01*
X32389Y-14000D01*
X32780Y-14391D01*
X32830Y-14386D01*
X32926Y-14483D01*
X33136Y-14570D01*
X33362Y-14570D01*
X33572Y-14483D01*
X33733Y-14323D01*
X33820Y-14113D01*
X33820Y-13887D01*
X33820Y-22405D01*
X33766Y-22351D01*
X33593Y-22279D01*
X33470Y-22279D01*
X33470Y-17406D01*
X33398Y-17233D01*
X33266Y-17101D01*
X33093Y-17029D01*
X32906Y-17029D01*
X32733Y-17101D01*
X32641Y-17193D01*
X32641Y-14530D01*
X32250Y-14139D01*
X32110Y-14278D01*
X32110Y-14000D01*
X31820Y-13709D01*
X31820Y-13666D01*
X31775Y-13557D01*
X31692Y-13474D01*
X31583Y-13429D01*
X31466Y-13429D01*
X30916Y-13429D01*
X30807Y-13474D01*
X30724Y-13557D01*
X30715Y-13580D01*
X30593Y-13529D01*
X30406Y-13529D01*
X30233Y-13601D01*
X30101Y-13733D01*
X30029Y-13906D01*
X30029Y-14093D01*
X30101Y-14266D01*
X30233Y-14398D01*
X30406Y-14470D01*
X30593Y-14470D01*
X30715Y-14419D01*
X30724Y-14442D01*
X30807Y-14525D01*
X30916Y-14570D01*
X31033Y-14570D01*
X31583Y-14570D01*
X31692Y-14525D01*
X31775Y-14442D01*
X31820Y-14333D01*
X31820Y-14290D01*
X32110Y-14000D01*
X32110Y-14278D01*
X31858Y-14530D01*
X31873Y-14685D01*
X32164Y-14777D01*
X32468Y-14750D01*
X32626Y-14685D01*
X32641Y-14530D01*
X32641Y-17193D01*
X32601Y-17233D01*
X32529Y-17406D01*
X32529Y-17593D01*
X32547Y-17635D01*
X32547Y-21312D01*
X32525Y-21333D01*
X32483Y-21351D01*
X32351Y-21483D01*
X32279Y-21656D01*
X32279Y-21843D01*
X32351Y-22016D01*
X32483Y-22148D01*
X32656Y-22220D01*
X32843Y-22220D01*
X33016Y-22148D01*
X33148Y-22016D01*
X33166Y-21974D01*
X33320Y-21820D01*
X33418Y-21673D01*
X33418Y-21673D01*
X33424Y-21644D01*
X33452Y-21500D01*
X33452Y-21500D01*
X33452Y-21499D01*
X33452Y-17635D01*
X33470Y-17593D01*
X33470Y-17406D01*
X33470Y-22279D01*
X33406Y-22279D01*
X33364Y-22297D01*
X30470Y-22297D01*
X30470Y-15406D01*
X30398Y-15233D01*
X30266Y-15101D01*
X30093Y-15029D01*
X29906Y-15029D01*
X29820Y-15065D01*
X29820Y-13887D01*
X29733Y-13677D01*
X29573Y-13516D01*
X29363Y-13429D01*
X29137Y-13429D01*
X28927Y-13516D01*
X28830Y-13613D01*
X28780Y-13608D01*
X28389Y-14000D01*
X28780Y-14391D01*
X28830Y-14386D01*
X28926Y-14483D01*
X29136Y-14570D01*
X29362Y-14570D01*
X29572Y-14483D01*
X29733Y-14323D01*
X29820Y-14113D01*
X29820Y-13887D01*
X29820Y-15065D01*
X29733Y-15101D01*
X29601Y-15233D01*
X29529Y-15406D01*
X29529Y-15593D01*
X29601Y-15766D01*
X29733Y-15898D01*
X29906Y-15970D01*
X30093Y-15970D01*
X30266Y-15898D01*
X30398Y-15766D01*
X30470Y-15593D01*
X30470Y-15406D01*
X30470Y-22297D01*
X29385Y-22297D01*
X29343Y-22279D01*
X29156Y-22279D01*
X28983Y-22351D01*
X28851Y-22483D01*
X28779Y-22656D01*
X28779Y-22843D01*
X28851Y-23016D01*
X28983Y-23148D01*
X29156Y-23220D01*
X29343Y-23220D01*
X29385Y-23202D01*
X33364Y-23202D01*
X33406Y-23220D01*
X33593Y-23220D01*
X33766Y-23148D01*
X33898Y-23016D01*
X33970Y-22843D01*
X33970Y-22656D01*
X33970Y-27061D01*
X32970Y-27061D01*
X32970Y-25656D01*
X32898Y-25483D01*
X32766Y-25351D01*
X32593Y-25279D01*
X32406Y-25279D01*
X32233Y-25351D01*
X32101Y-25483D01*
X32029Y-25656D01*
X32029Y-25843D01*
X32101Y-26016D01*
X32233Y-26148D01*
X32406Y-26220D01*
X32593Y-26220D01*
X32766Y-26148D01*
X32898Y-26016D01*
X32970Y-25843D01*
X32970Y-25656D01*
X32970Y-27061D01*
X31720Y-27061D01*
X31720Y-25906D01*
X31648Y-25733D01*
X31516Y-25601D01*
X31343Y-25529D01*
X31156Y-25529D01*
X30983Y-25601D01*
X30851Y-25733D01*
X30779Y-25906D01*
X30779Y-26093D01*
X30851Y-26266D01*
X30983Y-26398D01*
X31156Y-26470D01*
X31343Y-26470D01*
X31516Y-26398D01*
X31648Y-26266D01*
X31720Y-26093D01*
X31720Y-25906D01*
X31720Y-27061D01*
X28641Y-27061D01*
X28641Y-14530D01*
X28250Y-14139D01*
X28110Y-14278D01*
X27858Y-14530D01*
X27873Y-14685D01*
X28164Y-14777D01*
X28468Y-14750D01*
X28626Y-14685D01*
X28641Y-14530D01*
X28641Y-27061D01*
X26000Y-27061D01*
X25736Y-27113D01*
X25512Y-27262D01*
X25446Y-27328D01*
X25220Y-27555D01*
X25220Y-25906D01*
X25220Y-24906D01*
X25148Y-24733D01*
X25016Y-24601D01*
X24843Y-24529D01*
X24720Y-24529D01*
X24720Y-19406D01*
X24648Y-19233D01*
X24516Y-19101D01*
X24383Y-19046D01*
X24383Y-15373D01*
X24383Y-14098D01*
X23640Y-14098D01*
X23517Y-14221D01*
X23517Y-15101D01*
X23592Y-15282D01*
X23731Y-15421D01*
X23911Y-15496D01*
X24107Y-15496D01*
X24260Y-15496D01*
X24383Y-15373D01*
X24383Y-19046D01*
X24343Y-19029D01*
X24156Y-19029D01*
X23983Y-19101D01*
X23851Y-19233D01*
X23779Y-19406D01*
X23779Y-19593D01*
X23851Y-19766D01*
X23983Y-19898D01*
X24156Y-19970D01*
X24343Y-19970D01*
X24516Y-19898D01*
X24648Y-19766D01*
X24720Y-19593D01*
X24720Y-19406D01*
X24720Y-24529D01*
X24656Y-24529D01*
X24483Y-24601D01*
X24470Y-24614D01*
X24470Y-21156D01*
X24398Y-20983D01*
X24266Y-20851D01*
X24093Y-20779D01*
X23906Y-20779D01*
X23733Y-20851D01*
X23601Y-20983D01*
X23529Y-21156D01*
X23529Y-21343D01*
X23601Y-21516D01*
X23733Y-21648D01*
X23906Y-21720D01*
X24093Y-21720D01*
X24266Y-21648D01*
X24398Y-21516D01*
X24470Y-21343D01*
X24470Y-21156D01*
X24470Y-24614D01*
X24351Y-24733D01*
X24279Y-24906D01*
X24279Y-25093D01*
X24351Y-25266D01*
X24483Y-25398D01*
X24656Y-25470D01*
X24843Y-25470D01*
X25016Y-25398D01*
X25148Y-25266D01*
X25220Y-25093D01*
X25220Y-24906D01*
X25220Y-25906D01*
X25148Y-25733D01*
X25016Y-25601D01*
X24843Y-25529D01*
X24656Y-25529D01*
X24483Y-25601D01*
X24351Y-25733D01*
X24279Y-25906D01*
X24279Y-26093D01*
X24351Y-26266D01*
X24483Y-26398D01*
X24656Y-26470D01*
X24843Y-26470D01*
X25016Y-26398D01*
X25148Y-26266D01*
X25220Y-26093D01*
X25220Y-25906D01*
X25220Y-27555D01*
X22470Y-30305D01*
X22470Y-28156D01*
X22398Y-27983D01*
X22270Y-27855D01*
X22270Y-23146D01*
X22191Y-22955D01*
X22045Y-22809D01*
X21982Y-22783D01*
X21982Y-15101D01*
X21982Y-14221D01*
X21859Y-14098D01*
X21116Y-14098D01*
X21116Y-15373D01*
X21239Y-15496D01*
X21392Y-15496D01*
X21588Y-15496D01*
X21768Y-15421D01*
X21907Y-15282D01*
X21982Y-15101D01*
X21982Y-22783D01*
X21853Y-22729D01*
X21646Y-22729D01*
X21455Y-22808D01*
X21309Y-22954D01*
X21229Y-23146D01*
X21229Y-23353D01*
X21308Y-23544D01*
X21454Y-23690D01*
X21646Y-23770D01*
X21853Y-23770D01*
X22044Y-23691D01*
X22190Y-23545D01*
X22270Y-23353D01*
X22270Y-23146D01*
X22270Y-27855D01*
X22266Y-27851D01*
X22093Y-27779D01*
X21906Y-27779D01*
X21733Y-27851D01*
X21601Y-27983D01*
X21529Y-28156D01*
X21529Y-28343D01*
X21601Y-28516D01*
X21733Y-28648D01*
X21906Y-28720D01*
X22093Y-28720D01*
X22266Y-28648D01*
X22398Y-28516D01*
X22470Y-28343D01*
X22470Y-28156D01*
X22470Y-30305D01*
X20919Y-31856D01*
X20919Y-15373D01*
X20919Y-14098D01*
X20176Y-14098D01*
X20053Y-14221D01*
X20053Y-15101D01*
X20128Y-15282D01*
X20266Y-15421D01*
X20447Y-15496D01*
X20643Y-15496D01*
X20796Y-15496D01*
X20919Y-15373D01*
X20919Y-31856D01*
X20762Y-32012D01*
X20613Y-32236D01*
X20561Y-32500D01*
X20561Y-38464D01*
X20214Y-38811D01*
X19750Y-38811D01*
X19486Y-38863D01*
X19262Y-39012D01*
X19220Y-39055D01*
X19220Y-35906D01*
X19148Y-35733D01*
X19016Y-35601D01*
X18843Y-35529D01*
X18720Y-35529D01*
X18720Y-33906D01*
X18648Y-33733D01*
X18516Y-33601D01*
X18343Y-33529D01*
X18156Y-33529D01*
X17983Y-33601D01*
X17851Y-33733D01*
X17779Y-33906D01*
X17779Y-34093D01*
X17851Y-34266D01*
X17983Y-34398D01*
X18156Y-34470D01*
X18343Y-34470D01*
X18516Y-34398D01*
X18648Y-34266D01*
X18720Y-34093D01*
X18720Y-33906D01*
X18720Y-35529D01*
X18656Y-35529D01*
X18483Y-35601D01*
X18351Y-35733D01*
X18279Y-35906D01*
X18279Y-36093D01*
X18351Y-36266D01*
X18483Y-36398D01*
X18656Y-36470D01*
X18843Y-36470D01*
X19016Y-36398D01*
X19148Y-36266D01*
X19220Y-36093D01*
X19220Y-35906D01*
X19220Y-39055D01*
X18137Y-40137D01*
X18012Y-40262D01*
X17863Y-40486D01*
X17819Y-40707D01*
X17677Y-40766D01*
X17516Y-40926D01*
X17500Y-40966D01*
X17483Y-40927D01*
X17470Y-40913D01*
X17470Y-35156D01*
X17398Y-34983D01*
X17266Y-34851D01*
X17093Y-34779D01*
X16906Y-34779D01*
X16733Y-34851D01*
X16709Y-34875D01*
X16404Y-34875D01*
X15984Y-34455D01*
X15984Y-14805D01*
X15834Y-14443D01*
X15558Y-14166D01*
X15196Y-14015D01*
X14805Y-14015D01*
X14443Y-14165D01*
X14166Y-14441D01*
X14015Y-14803D01*
X14015Y-15194D01*
X14165Y-15556D01*
X14441Y-15833D01*
X14803Y-15984D01*
X15194Y-15984D01*
X15556Y-15834D01*
X15833Y-15558D01*
X15984Y-15196D01*
X15984Y-14805D01*
X15984Y-34455D01*
X15691Y-34162D01*
X15720Y-34093D01*
X15720Y-33906D01*
X15648Y-33733D01*
X15516Y-33601D01*
X15355Y-33534D01*
X15570Y-33320D01*
X15668Y-33173D01*
X15702Y-33000D01*
X15702Y-31000D01*
X15668Y-30826D01*
X15570Y-30679D01*
X15070Y-30179D01*
X15027Y-30151D01*
X15027Y-25585D01*
X15027Y-19085D01*
X15000Y-18781D01*
X14935Y-18623D01*
X14820Y-18612D01*
X14820Y-18333D01*
X14820Y-18216D01*
X14820Y-17666D01*
X14775Y-17557D01*
X14692Y-17474D01*
X14583Y-17429D01*
X14466Y-17429D01*
X13916Y-17429D01*
X13807Y-17474D01*
X13724Y-17557D01*
X13679Y-17666D01*
X13679Y-17783D01*
X13679Y-18333D01*
X13724Y-18442D01*
X13807Y-18525D01*
X13916Y-18570D01*
X13959Y-18570D01*
X14250Y-18860D01*
X14540Y-18570D01*
X14583Y-18570D01*
X14692Y-18525D01*
X14775Y-18442D01*
X14820Y-18333D01*
X14820Y-18612D01*
X14780Y-18608D01*
X14389Y-19000D01*
X14780Y-19391D01*
X14935Y-19376D01*
X15027Y-19085D01*
X15027Y-25585D01*
X15000Y-25281D01*
X14935Y-25123D01*
X14820Y-25112D01*
X14820Y-24387D01*
X14820Y-19887D01*
X14733Y-19677D01*
X14636Y-19580D01*
X14641Y-19530D01*
X14250Y-19139D01*
X14110Y-19278D01*
X14110Y-19000D01*
X13719Y-18608D01*
X13564Y-18623D01*
X13472Y-18914D01*
X13499Y-19218D01*
X13564Y-19376D01*
X13719Y-19391D01*
X14110Y-19000D01*
X14110Y-19278D01*
X13858Y-19530D01*
X13863Y-19580D01*
X13766Y-19676D01*
X13679Y-19886D01*
X13679Y-20112D01*
X13766Y-20322D01*
X13926Y-20483D01*
X14136Y-20570D01*
X14362Y-20570D01*
X14572Y-20483D01*
X14733Y-20323D01*
X14820Y-20113D01*
X14820Y-19887D01*
X14820Y-24387D01*
X14733Y-24177D01*
X14573Y-24016D01*
X14363Y-23929D01*
X14137Y-23929D01*
X13927Y-24016D01*
X13766Y-24176D01*
X13679Y-24386D01*
X13679Y-24612D01*
X13766Y-24822D01*
X13863Y-24919D01*
X13858Y-24969D01*
X14250Y-25360D01*
X14641Y-24969D01*
X14636Y-24919D01*
X14733Y-24823D01*
X14820Y-24613D01*
X14820Y-24387D01*
X14820Y-25112D01*
X14780Y-25108D01*
X14389Y-25500D01*
X14780Y-25891D01*
X14935Y-25876D01*
X15027Y-25585D01*
X15027Y-30151D01*
X14923Y-30081D01*
X14820Y-30061D01*
X14820Y-26833D01*
X14820Y-26716D01*
X14820Y-26166D01*
X14775Y-26057D01*
X14692Y-25974D01*
X14583Y-25929D01*
X14540Y-25929D01*
X14250Y-25639D01*
X14110Y-25778D01*
X14110Y-25500D01*
X13719Y-25108D01*
X13564Y-25123D01*
X13472Y-25414D01*
X13499Y-25718D01*
X13564Y-25876D01*
X13719Y-25891D01*
X14110Y-25500D01*
X14110Y-25778D01*
X13959Y-25929D01*
X13916Y-25929D01*
X13807Y-25974D01*
X13724Y-26057D01*
X13679Y-26166D01*
X13679Y-26283D01*
X13679Y-26833D01*
X13724Y-26942D01*
X13807Y-27025D01*
X13916Y-27070D01*
X14033Y-27070D01*
X14583Y-27070D01*
X14692Y-27025D01*
X14775Y-26942D01*
X14820Y-26833D01*
X14820Y-30061D01*
X14750Y-30047D01*
X14603Y-30047D01*
X14573Y-30016D01*
X14363Y-29929D01*
X14137Y-29929D01*
X13927Y-30016D01*
X13766Y-30176D01*
X13679Y-30386D01*
X13679Y-30612D01*
X13766Y-30822D01*
X13926Y-30983D01*
X13966Y-30999D01*
X13927Y-31016D01*
X13766Y-31176D01*
X13679Y-31386D01*
X13679Y-31612D01*
X13766Y-31822D01*
X13926Y-31983D01*
X13966Y-31999D01*
X13927Y-32016D01*
X13766Y-32176D01*
X13679Y-32386D01*
X13679Y-32612D01*
X13766Y-32822D01*
X13885Y-32942D01*
X13807Y-32974D01*
X13724Y-33057D01*
X13679Y-33166D01*
X13679Y-33283D01*
X13679Y-33833D01*
X13724Y-33942D01*
X13807Y-34025D01*
X13916Y-34070D01*
X14033Y-34070D01*
X14583Y-34070D01*
X14692Y-34025D01*
X14768Y-33949D01*
X14779Y-33946D01*
X14779Y-34093D01*
X14851Y-34266D01*
X14886Y-34301D01*
X14886Y-34303D01*
X14221Y-34303D01*
X14098Y-34426D01*
X14098Y-35169D01*
X15373Y-35169D01*
X15496Y-35046D01*
X15496Y-35025D01*
X15985Y-35514D01*
X15985Y-35514D01*
X16066Y-35568D01*
X16106Y-35595D01*
X16106Y-35595D01*
X16250Y-35624D01*
X16708Y-35624D01*
X16733Y-35648D01*
X16906Y-35720D01*
X17093Y-35720D01*
X17266Y-35648D01*
X17398Y-35516D01*
X17470Y-35343D01*
X17470Y-35156D01*
X17470Y-40913D01*
X17323Y-40766D01*
X17113Y-40679D01*
X16887Y-40679D01*
X16677Y-40766D01*
X16516Y-40926D01*
X16429Y-41136D01*
X16429Y-41362D01*
X16516Y-41572D01*
X16676Y-41733D01*
X16886Y-41820D01*
X17112Y-41820D01*
X17322Y-41733D01*
X17483Y-41573D01*
X17499Y-41533D01*
X17516Y-41572D01*
X17676Y-41733D01*
X17886Y-41820D01*
X18112Y-41820D01*
X18302Y-41742D01*
X18698Y-41742D01*
X18886Y-41820D01*
X19112Y-41820D01*
X19322Y-41733D01*
X19483Y-41573D01*
X19499Y-41533D01*
X19516Y-41572D01*
X19676Y-41733D01*
X19886Y-41820D01*
X20112Y-41820D01*
X20322Y-41733D01*
X20483Y-41573D01*
X20499Y-41533D01*
X20516Y-41572D01*
X20676Y-41733D01*
X20886Y-41820D01*
X21112Y-41820D01*
X21322Y-41733D01*
X21483Y-41573D01*
X21499Y-41533D01*
X21516Y-41572D01*
X21676Y-41733D01*
X21886Y-41820D01*
X22112Y-41820D01*
X22322Y-41733D01*
X22483Y-41573D01*
X22499Y-41533D01*
X22516Y-41572D01*
X22676Y-41733D01*
X22886Y-41820D01*
X23112Y-41820D01*
X23303Y-41741D01*
X23303Y-46758D01*
X23113Y-46679D01*
X22887Y-46679D01*
X22677Y-46766D01*
X22516Y-46926D01*
X22500Y-46966D01*
X22483Y-46927D01*
X22323Y-46766D01*
X22113Y-46679D01*
X21887Y-46679D01*
X21677Y-46766D01*
X21516Y-46926D01*
X21500Y-46966D01*
X21483Y-46927D01*
X21323Y-46766D01*
X21113Y-46679D01*
X20887Y-46679D01*
X20677Y-46766D01*
X20516Y-46926D01*
X20500Y-46966D01*
X20483Y-46927D01*
X20323Y-46766D01*
X20113Y-46679D01*
X19887Y-46679D01*
X19677Y-46766D01*
X19580Y-46863D01*
X19530Y-46858D01*
X19391Y-46997D01*
X19391Y-46719D01*
X19376Y-46564D01*
X19085Y-46472D01*
X18781Y-46499D01*
X18623Y-46564D01*
X18608Y-46719D01*
X19000Y-47110D01*
X19391Y-46719D01*
X19391Y-46997D01*
X19139Y-47250D01*
X19530Y-47641D01*
X19580Y-47636D01*
X19676Y-47733D01*
X19886Y-47820D01*
X20112Y-47820D01*
X20322Y-47733D01*
X20483Y-47573D01*
X20499Y-47533D01*
X20516Y-47572D01*
X20676Y-47733D01*
X20886Y-47820D01*
X21112Y-47820D01*
X21322Y-47733D01*
X21483Y-47573D01*
X21499Y-47533D01*
X21516Y-47572D01*
X21676Y-47733D01*
X21886Y-47820D01*
X22112Y-47820D01*
X22322Y-47733D01*
X22483Y-47573D01*
X22499Y-47533D01*
X22516Y-47572D01*
X22676Y-47733D01*
X22886Y-47820D01*
X23112Y-47820D01*
X23303Y-47741D01*
X23303Y-48581D01*
X24168Y-49446D01*
X27168Y-49446D01*
X27303Y-49581D01*
X27303Y-49758D01*
X27113Y-49679D01*
X26887Y-49679D01*
X26677Y-49766D01*
X26580Y-49863D01*
X26530Y-49858D01*
X26391Y-49997D01*
X26391Y-49719D01*
X26376Y-49564D01*
X26085Y-49472D01*
X25781Y-49499D01*
X25623Y-49564D01*
X25608Y-49719D01*
X26000Y-50110D01*
X26391Y-49719D01*
X26391Y-49997D01*
X26139Y-50250D01*
X26530Y-50641D01*
X26580Y-50636D01*
X26676Y-50733D01*
X26886Y-50820D01*
X27112Y-50820D01*
X27303Y-50741D01*
X27303Y-55758D01*
X27113Y-55679D01*
X26887Y-55679D01*
X26677Y-55766D01*
X26580Y-55863D01*
X26530Y-55858D01*
X26391Y-55997D01*
X26391Y-55719D01*
X26391Y-50780D01*
X26000Y-50389D01*
X25860Y-50528D01*
X25860Y-50250D01*
X25469Y-49858D01*
X25419Y-49863D01*
X25323Y-49766D01*
X25113Y-49679D01*
X24887Y-49679D01*
X24677Y-49766D01*
X24516Y-49926D01*
X24500Y-49966D01*
X24483Y-49927D01*
X24323Y-49766D01*
X24113Y-49679D01*
X23887Y-49679D01*
X23677Y-49766D01*
X23516Y-49926D01*
X23500Y-49966D01*
X23483Y-49927D01*
X23323Y-49766D01*
X23113Y-49679D01*
X22887Y-49679D01*
X22677Y-49766D01*
X22516Y-49926D01*
X22500Y-49966D01*
X22483Y-49927D01*
X22323Y-49766D01*
X22113Y-49679D01*
X21887Y-49679D01*
X21677Y-49766D01*
X21516Y-49926D01*
X21500Y-49966D01*
X21483Y-49927D01*
X21323Y-49766D01*
X21113Y-49679D01*
X20887Y-49679D01*
X20677Y-49766D01*
X20516Y-49926D01*
X20500Y-49966D01*
X20483Y-49927D01*
X20323Y-49766D01*
X20113Y-49679D01*
X19887Y-49679D01*
X19677Y-49766D01*
X19516Y-49926D01*
X19500Y-49966D01*
X19483Y-49927D01*
X19391Y-49834D01*
X19391Y-47780D01*
X19000Y-47389D01*
X18860Y-47528D01*
X18860Y-47250D01*
X18761Y-47150D01*
X18750Y-47031D01*
X18685Y-46873D01*
X18530Y-46858D01*
X18499Y-46889D01*
X18469Y-46858D01*
X18391Y-46866D01*
X18391Y-46719D01*
X18376Y-46564D01*
X18085Y-46472D01*
X17781Y-46499D01*
X17623Y-46564D01*
X17608Y-46719D01*
X18000Y-47110D01*
X18391Y-46719D01*
X18391Y-46866D01*
X18314Y-46873D01*
X18222Y-47164D01*
X18222Y-47166D01*
X18139Y-47250D01*
X18238Y-47349D01*
X18249Y-47468D01*
X18314Y-47626D01*
X18469Y-47641D01*
X18500Y-47610D01*
X18530Y-47641D01*
X18685Y-47626D01*
X18777Y-47335D01*
X18777Y-47333D01*
X18860Y-47250D01*
X18860Y-47528D01*
X18608Y-47780D01*
X18623Y-47935D01*
X18914Y-48027D01*
X19218Y-48000D01*
X19376Y-47935D01*
X19391Y-47780D01*
X19391Y-49834D01*
X19323Y-49766D01*
X19113Y-49679D01*
X18887Y-49679D01*
X18677Y-49766D01*
X18516Y-49926D01*
X18500Y-49966D01*
X18483Y-49927D01*
X18391Y-49834D01*
X18391Y-47780D01*
X18000Y-47389D01*
X17860Y-47528D01*
X17860Y-47250D01*
X17570Y-46959D01*
X17570Y-46916D01*
X17525Y-46807D01*
X17442Y-46724D01*
X17333Y-46679D01*
X17216Y-46679D01*
X16666Y-46679D01*
X16557Y-46724D01*
X16474Y-46807D01*
X16429Y-46916D01*
X16429Y-47033D01*
X16429Y-47583D01*
X16474Y-47692D01*
X16557Y-47775D01*
X16666Y-47820D01*
X16783Y-47820D01*
X17333Y-47820D01*
X17442Y-47775D01*
X17525Y-47692D01*
X17570Y-47583D01*
X17570Y-47540D01*
X17860Y-47250D01*
X17860Y-47528D01*
X17608Y-47780D01*
X17623Y-47935D01*
X17914Y-48027D01*
X18218Y-48000D01*
X18376Y-47935D01*
X18391Y-47780D01*
X18391Y-49834D01*
X18323Y-49766D01*
X18113Y-49679D01*
X17887Y-49679D01*
X17677Y-49766D01*
X17516Y-49926D01*
X17500Y-49966D01*
X17483Y-49927D01*
X17323Y-49766D01*
X17113Y-49679D01*
X16887Y-49679D01*
X16677Y-49766D01*
X16516Y-49926D01*
X16429Y-50136D01*
X16429Y-50362D01*
X16516Y-50572D01*
X16676Y-50733D01*
X16886Y-50820D01*
X17112Y-50820D01*
X17322Y-50733D01*
X17483Y-50573D01*
X17499Y-50533D01*
X17516Y-50572D01*
X17676Y-50733D01*
X17886Y-50820D01*
X18112Y-50820D01*
X18322Y-50733D01*
X18483Y-50573D01*
X18499Y-50533D01*
X18516Y-50572D01*
X18676Y-50733D01*
X18886Y-50820D01*
X19112Y-50820D01*
X19322Y-50733D01*
X19483Y-50573D01*
X19499Y-50533D01*
X19516Y-50572D01*
X19676Y-50733D01*
X19886Y-50820D01*
X20112Y-50820D01*
X20322Y-50733D01*
X20483Y-50573D01*
X20499Y-50533D01*
X20516Y-50572D01*
X20676Y-50733D01*
X20886Y-50820D01*
X21112Y-50820D01*
X21322Y-50733D01*
X21483Y-50573D01*
X21499Y-50533D01*
X21516Y-50572D01*
X21676Y-50733D01*
X21886Y-50820D01*
X22112Y-50820D01*
X22322Y-50733D01*
X22483Y-50573D01*
X22499Y-50533D01*
X22516Y-50572D01*
X22676Y-50733D01*
X22886Y-50820D01*
X23112Y-50820D01*
X23322Y-50733D01*
X23483Y-50573D01*
X23499Y-50533D01*
X23516Y-50572D01*
X23676Y-50733D01*
X23886Y-50820D01*
X24112Y-50820D01*
X24322Y-50733D01*
X24483Y-50573D01*
X24499Y-50533D01*
X24516Y-50572D01*
X24676Y-50733D01*
X24886Y-50820D01*
X25112Y-50820D01*
X25322Y-50733D01*
X25419Y-50636D01*
X25469Y-50641D01*
X25860Y-50250D01*
X25860Y-50528D01*
X25608Y-50780D01*
X25623Y-50935D01*
X25914Y-51027D01*
X26218Y-51000D01*
X26376Y-50935D01*
X26391Y-50780D01*
X26391Y-55719D01*
X26376Y-55564D01*
X26085Y-55472D01*
X25781Y-55499D01*
X25623Y-55564D01*
X25608Y-55719D01*
X26000Y-56110D01*
X26391Y-55719D01*
X26391Y-55997D01*
X26139Y-56250D01*
X26530Y-56641D01*
X26580Y-56636D01*
X26676Y-56733D01*
X26886Y-56820D01*
X27112Y-56820D01*
X27303Y-56741D01*
X27303Y-57331D01*
X28418Y-58446D01*
X29553Y-58446D01*
X29553Y-58541D01*
X29335Y-58472D01*
X29031Y-58499D01*
X28873Y-58564D01*
X28858Y-58719D01*
X29250Y-59110D01*
X29255Y-59105D01*
X29394Y-59244D01*
X29389Y-59250D01*
X29394Y-59255D01*
X29255Y-59394D01*
X29250Y-59389D01*
X29110Y-59528D01*
X29110Y-59250D01*
X28719Y-58858D01*
X28564Y-58873D01*
X28472Y-59164D01*
X28499Y-59468D01*
X28564Y-59626D01*
X28719Y-59641D01*
X29110Y-59250D01*
X29110Y-59528D01*
X28858Y-59780D01*
X28873Y-59935D01*
X26391Y-59935D01*
X26391Y-56780D01*
X26000Y-56389D01*
X25860Y-56528D01*
X25860Y-56250D01*
X25469Y-55858D01*
X25419Y-55863D01*
X25323Y-55766D01*
X25113Y-55679D01*
X24887Y-55679D01*
X24677Y-55766D01*
X24516Y-55926D01*
X24500Y-55966D01*
X24483Y-55927D01*
X24323Y-55766D01*
X24113Y-55679D01*
X23887Y-55679D01*
X23677Y-55766D01*
X23516Y-55926D01*
X23500Y-55966D01*
X23483Y-55927D01*
X23323Y-55766D01*
X23113Y-55679D01*
X22887Y-55679D01*
X22677Y-55766D01*
X22516Y-55926D01*
X22500Y-55966D01*
X22483Y-55927D01*
X22323Y-55766D01*
X22113Y-55679D01*
X21887Y-55679D01*
X21677Y-55766D01*
X21516Y-55926D01*
X21500Y-55966D01*
X21483Y-55927D01*
X21323Y-55766D01*
X21113Y-55679D01*
X20887Y-55679D01*
X20677Y-55766D01*
X20516Y-55926D01*
X20500Y-55966D01*
X20483Y-55927D01*
X20323Y-55766D01*
X20113Y-55679D01*
X19887Y-55679D01*
X19677Y-55766D01*
X19580Y-55863D01*
X19530Y-55858D01*
X19391Y-55997D01*
X19391Y-55719D01*
X19376Y-55564D01*
X19085Y-55472D01*
X18781Y-55499D01*
X18623Y-55564D01*
X18608Y-55719D01*
X19000Y-56110D01*
X19391Y-55719D01*
X19391Y-55997D01*
X19139Y-56250D01*
X19530Y-56641D01*
X19580Y-56636D01*
X19676Y-56733D01*
X19886Y-56820D01*
X20112Y-56820D01*
X20322Y-56733D01*
X20483Y-56573D01*
X20499Y-56533D01*
X20516Y-56572D01*
X20676Y-56733D01*
X20886Y-56820D01*
X21112Y-56820D01*
X21322Y-56733D01*
X21483Y-56573D01*
X21499Y-56533D01*
X21516Y-56572D01*
X21676Y-56733D01*
X21886Y-56820D01*
X22112Y-56820D01*
X22322Y-56733D01*
X22483Y-56573D01*
X22499Y-56533D01*
X22516Y-56572D01*
X22676Y-56733D01*
X22886Y-56820D01*
X23112Y-56820D01*
X23322Y-56733D01*
X23483Y-56573D01*
X23499Y-56533D01*
X23516Y-56572D01*
X23676Y-56733D01*
X23886Y-56820D01*
X24112Y-56820D01*
X24322Y-56733D01*
X24483Y-56573D01*
X24499Y-56533D01*
X24516Y-56572D01*
X24676Y-56733D01*
X24886Y-56820D01*
X25112Y-56820D01*
X25322Y-56733D01*
X25419Y-56636D01*
X25469Y-56641D01*
X25860Y-56250D01*
X25860Y-56528D01*
X25608Y-56780D01*
X25623Y-56935D01*
X25914Y-57027D01*
X26218Y-57000D01*
X26376Y-56935D01*
X26391Y-56780D01*
X26391Y-59935D01*
X25595Y-59935D01*
X25595Y-58632D01*
X25504Y-58413D01*
X25337Y-58245D01*
X25118Y-58154D01*
X24882Y-58154D01*
X24663Y-58245D01*
X24499Y-58408D01*
X24337Y-58245D01*
X24118Y-58154D01*
X23882Y-58154D01*
X23663Y-58245D01*
X23565Y-58342D01*
X23548Y-58340D01*
X23409Y-58479D01*
X23409Y-58201D01*
X23391Y-58043D01*
X23091Y-57947D01*
X22777Y-57973D01*
X22608Y-58043D01*
X22590Y-58201D01*
X23000Y-58610D01*
X23409Y-58201D01*
X23409Y-58479D01*
X23139Y-58750D01*
X23548Y-59159D01*
X23565Y-59157D01*
X23662Y-59254D01*
X23881Y-59345D01*
X24117Y-59345D01*
X24336Y-59254D01*
X24500Y-59091D01*
X24662Y-59254D01*
X24881Y-59345D01*
X25117Y-59345D01*
X25336Y-59254D01*
X25504Y-59087D01*
X25595Y-58868D01*
X25595Y-58632D01*
X25595Y-59935D01*
X23409Y-59935D01*
X23409Y-59298D01*
X23000Y-58889D01*
X22860Y-59028D01*
X22860Y-58750D01*
X22451Y-58340D01*
X22293Y-58358D01*
X22197Y-58658D01*
X22223Y-58972D01*
X22293Y-59141D01*
X22451Y-59159D01*
X22860Y-58750D01*
X22860Y-59028D01*
X22590Y-59298D01*
X22608Y-59456D01*
X22908Y-59552D01*
X23222Y-59526D01*
X23391Y-59456D01*
X23409Y-59298D01*
X23409Y-59935D01*
X19391Y-59935D01*
X19391Y-56780D01*
X19000Y-56389D01*
X18860Y-56528D01*
X18860Y-56250D01*
X18761Y-56150D01*
X18750Y-56031D01*
X18685Y-55873D01*
X18530Y-55858D01*
X18499Y-55889D01*
X18469Y-55858D01*
X18391Y-55866D01*
X18391Y-55719D01*
X18376Y-55564D01*
X18085Y-55472D01*
X17781Y-55499D01*
X17623Y-55564D01*
X17608Y-55719D01*
X18000Y-56110D01*
X18391Y-55719D01*
X18391Y-55866D01*
X18314Y-55873D01*
X18222Y-56164D01*
X18222Y-56166D01*
X18139Y-56250D01*
X18238Y-56349D01*
X18249Y-56468D01*
X18314Y-56626D01*
X18469Y-56641D01*
X18500Y-56610D01*
X18530Y-56641D01*
X18685Y-56626D01*
X18777Y-56335D01*
X18777Y-56333D01*
X18860Y-56250D01*
X18860Y-56528D01*
X18608Y-56780D01*
X18623Y-56935D01*
X18914Y-57027D01*
X19218Y-57000D01*
X19376Y-56935D01*
X19391Y-56780D01*
X19391Y-59935D01*
X18391Y-59935D01*
X18391Y-56780D01*
X18000Y-56389D01*
X17860Y-56528D01*
X17860Y-56250D01*
X17570Y-55959D01*
X17570Y-55916D01*
X17525Y-55807D01*
X17442Y-55724D01*
X17333Y-55679D01*
X17216Y-55679D01*
X16666Y-55679D01*
X16557Y-55724D01*
X16474Y-55807D01*
X16429Y-55916D01*
X16429Y-56033D01*
X16429Y-56583D01*
X16474Y-56692D01*
X16557Y-56775D01*
X16666Y-56820D01*
X16783Y-56820D01*
X17333Y-56820D01*
X17442Y-56775D01*
X17525Y-56692D01*
X17570Y-56583D01*
X17570Y-56540D01*
X17860Y-56250D01*
X17860Y-56528D01*
X17608Y-56780D01*
X17623Y-56935D01*
X17914Y-57027D01*
X18218Y-57000D01*
X18376Y-56935D01*
X18391Y-56780D01*
X18391Y-59935D01*
X15984Y-59935D01*
X15984Y-58055D01*
X15834Y-57693D01*
X15558Y-57416D01*
X15496Y-57390D01*
X15496Y-39302D01*
X15496Y-39106D01*
X15496Y-38953D01*
X15496Y-38510D01*
X15496Y-38357D01*
X15496Y-38161D01*
X15496Y-35838D01*
X15496Y-35642D01*
X15496Y-35489D01*
X15373Y-35366D01*
X14098Y-35366D01*
X14098Y-36109D01*
X14221Y-36232D01*
X15101Y-36232D01*
X15282Y-36157D01*
X15421Y-36018D01*
X15496Y-35838D01*
X15496Y-38161D01*
X15421Y-37981D01*
X15282Y-37842D01*
X15101Y-37767D01*
X14221Y-37767D01*
X14098Y-37890D01*
X14098Y-38633D01*
X15373Y-38633D01*
X15496Y-38510D01*
X15496Y-38953D01*
X15373Y-38830D01*
X14098Y-38830D01*
X14098Y-39573D01*
X14221Y-39696D01*
X15101Y-39696D01*
X15282Y-39621D01*
X15421Y-39483D01*
X15496Y-39302D01*
X15496Y-57390D01*
X15196Y-57265D01*
X14805Y-57265D01*
X14443Y-57415D01*
X14166Y-57691D01*
X14015Y-58053D01*
X14015Y-58444D01*
X14165Y-58806D01*
X14441Y-59083D01*
X14803Y-59234D01*
X15194Y-59234D01*
X15556Y-59084D01*
X15833Y-58808D01*
X15984Y-58446D01*
X15984Y-58055D01*
X15984Y-59935D01*
X13314Y-59935D01*
X13314Y-42500D01*
X13314Y-39696D01*
X13778Y-39696D01*
X13901Y-39573D01*
X13901Y-38830D01*
X13893Y-38830D01*
X13893Y-38633D01*
X13901Y-38633D01*
X13901Y-37890D01*
X13778Y-37767D01*
X13314Y-37767D01*
X13314Y-36232D01*
X13778Y-36232D01*
X13901Y-36109D01*
X13901Y-35366D01*
X13893Y-35366D01*
X13893Y-35169D01*
X13901Y-35169D01*
X13901Y-34426D01*
X13778Y-34303D01*
X13314Y-34303D01*
X13314Y-13314D01*
X20053Y-13314D01*
X20053Y-13778D01*
X20176Y-13901D01*
X20919Y-13901D01*
X20919Y-13893D01*
X21116Y-13893D01*
X21116Y-13901D01*
X21859Y-13901D01*
X21982Y-13778D01*
X21982Y-13314D01*
X23517Y-13314D01*
X23517Y-13778D01*
X23640Y-13901D01*
X24383Y-13901D01*
X24383Y-13893D01*
X24580Y-13893D01*
X24580Y-13901D01*
X24588Y-13901D01*
X24588Y-14098D01*
X24580Y-14098D01*
X24580Y-15373D01*
X24703Y-15496D01*
X24856Y-15496D01*
X25052Y-15496D01*
X25233Y-15421D01*
X25371Y-15282D01*
X25446Y-15101D01*
X25446Y-14221D01*
X25323Y-14098D01*
X25395Y-14098D01*
X25404Y-14143D01*
X25485Y-14264D01*
X25606Y-14345D01*
X25750Y-14374D01*
X26696Y-14374D01*
X26724Y-14442D01*
X26807Y-14525D01*
X26916Y-14570D01*
X27033Y-14570D01*
X27583Y-14570D01*
X27692Y-14525D01*
X27775Y-14442D01*
X27820Y-14333D01*
X27820Y-14290D01*
X28110Y-14000D01*
X27820Y-13709D01*
X27820Y-13666D01*
X27775Y-13557D01*
X27692Y-13474D01*
X27583Y-13429D01*
X27466Y-13429D01*
X26916Y-13429D01*
X26807Y-13474D01*
X26724Y-13557D01*
X26696Y-13625D01*
X25750Y-13625D01*
X25606Y-13654D01*
X25485Y-13735D01*
X25404Y-13856D01*
X25395Y-13901D01*
X25323Y-13901D01*
X25446Y-13778D01*
X25446Y-13314D01*
X27873Y-13314D01*
X27858Y-13469D01*
X28250Y-13860D01*
X28641Y-13469D01*
X28626Y-13314D01*
X31873Y-13314D01*
X31858Y-13469D01*
X32250Y-13860D01*
X32641Y-13469D01*
X32626Y-13314D01*
X35873Y-13314D01*
X35858Y-13469D01*
X36250Y-13860D01*
X36641Y-13469D01*
X36626Y-13314D01*
X41185Y-13314D01*
X41185Y-17053D01*
X40721Y-17053D01*
X40598Y-17176D01*
X40598Y-17919D01*
X40606Y-17919D01*
X40606Y-18116D01*
X40598Y-18116D01*
X40598Y-18859D01*
X40721Y-18982D01*
X41185Y-18982D01*
X41185Y-20517D01*
X40721Y-20517D01*
X40598Y-20640D01*
X40598Y-21383D01*
X40606Y-21383D01*
X40606Y-21580D01*
X40598Y-21580D01*
X40598Y-22323D01*
X40721Y-22446D01*
X41185Y-22446D01*
X41185Y-25873D01*
X41070Y-25862D01*
X41070Y-25137D01*
X40983Y-24927D01*
X40823Y-24766D01*
X40613Y-24679D01*
X40484Y-24679D01*
X40484Y-14805D01*
X40334Y-14443D01*
X40058Y-14166D01*
X39696Y-14015D01*
X39305Y-14015D01*
X38943Y-14165D01*
X38666Y-14441D01*
X38515Y-14803D01*
X38515Y-15194D01*
X38665Y-15556D01*
X38941Y-15833D01*
X39303Y-15984D01*
X39694Y-15984D01*
X40056Y-15834D01*
X40333Y-15558D01*
X40484Y-15196D01*
X40484Y-14805D01*
X40484Y-24679D01*
X40401Y-24679D01*
X40401Y-22323D01*
X40401Y-21580D01*
X40401Y-21383D01*
X40401Y-20640D01*
X40401Y-18859D01*
X40401Y-18116D01*
X40401Y-17919D01*
X40401Y-17176D01*
X40278Y-17053D01*
X39398Y-17053D01*
X39217Y-17128D01*
X39078Y-17266D01*
X39003Y-17447D01*
X39003Y-17643D01*
X39003Y-17796D01*
X39126Y-17919D01*
X40401Y-17919D01*
X40401Y-18116D01*
X39126Y-18116D01*
X39003Y-18239D01*
X39003Y-18392D01*
X39003Y-18588D01*
X39078Y-18768D01*
X39217Y-18907D01*
X39398Y-18982D01*
X40278Y-18982D01*
X40401Y-18859D01*
X40401Y-20640D01*
X40278Y-20517D01*
X39398Y-20517D01*
X39217Y-20592D01*
X39078Y-20731D01*
X39003Y-20911D01*
X39003Y-21107D01*
X39003Y-21260D01*
X39126Y-21383D01*
X40401Y-21383D01*
X40401Y-21580D01*
X39126Y-21580D01*
X39003Y-21703D01*
X39003Y-21856D01*
X39003Y-22052D01*
X39078Y-22233D01*
X39217Y-22371D01*
X39398Y-22446D01*
X40278Y-22446D01*
X40401Y-22323D01*
X40401Y-24679D01*
X40387Y-24679D01*
X40177Y-24766D01*
X40016Y-24926D01*
X39929Y-25136D01*
X39929Y-25362D01*
X40016Y-25572D01*
X40113Y-25669D01*
X40108Y-25719D01*
X40500Y-26110D01*
X40891Y-25719D01*
X40886Y-25669D01*
X40983Y-25573D01*
X41070Y-25363D01*
X41070Y-25137D01*
X41070Y-25862D01*
X41030Y-25858D01*
X40639Y-26250D01*
X41030Y-26641D01*
X41185Y-26626D01*
X41185Y-34303D01*
X41070Y-34303D01*
X41070Y-27583D01*
X41070Y-27466D01*
X41070Y-26916D01*
X41025Y-26807D01*
X40942Y-26724D01*
X40833Y-26679D01*
X40790Y-26679D01*
X40500Y-26389D01*
X40360Y-26528D01*
X40360Y-26250D01*
X39969Y-25858D01*
X39814Y-25873D01*
X39722Y-26164D01*
X39749Y-26468D01*
X39814Y-26626D01*
X39969Y-26641D01*
X40360Y-26250D01*
X40360Y-26528D01*
X40209Y-26679D01*
X40166Y-26679D01*
X40057Y-26724D01*
X39974Y-26807D01*
X39929Y-26916D01*
X39929Y-27033D01*
X39929Y-27583D01*
X39974Y-27692D01*
X40057Y-27775D01*
X40166Y-27820D01*
X40283Y-27820D01*
X40833Y-27820D01*
X40942Y-27775D01*
X41025Y-27692D01*
X41070Y-27583D01*
X41070Y-34303D01*
X40721Y-34303D01*
X40710Y-34314D01*
X40710Y-31235D01*
X40710Y-30764D01*
X40570Y-30474D01*
X40445Y-30359D01*
X40507Y-30266D01*
X40560Y-30000D01*
X40507Y-29733D01*
X40357Y-29508D01*
X40131Y-29357D01*
X39865Y-29304D01*
X39634Y-29304D01*
X39368Y-29357D01*
X39142Y-29508D01*
X38992Y-29733D01*
X38939Y-30000D01*
X38992Y-30266D01*
X39054Y-30359D01*
X38929Y-30474D01*
X38789Y-30764D01*
X38887Y-30901D01*
X39651Y-30901D01*
X39651Y-30893D01*
X39848Y-30893D01*
X39848Y-30901D01*
X40612Y-30901D01*
X40710Y-30764D01*
X40710Y-31235D01*
X40612Y-31098D01*
X39848Y-31098D01*
X39848Y-31106D01*
X39651Y-31106D01*
X39651Y-31098D01*
X38887Y-31098D01*
X38789Y-31235D01*
X38929Y-31525D01*
X39054Y-31640D01*
X38992Y-31733D01*
X38939Y-32000D01*
X38992Y-32266D01*
X39142Y-32491D01*
X39368Y-32642D01*
X39634Y-32695D01*
X39865Y-32695D01*
X40131Y-32642D01*
X40357Y-32491D01*
X40507Y-32266D01*
X40560Y-32000D01*
X40507Y-31733D01*
X40445Y-31640D01*
X40570Y-31525D01*
X40710Y-31235D01*
X40710Y-34314D01*
X40598Y-34426D01*
X40598Y-35169D01*
X40606Y-35169D01*
X40606Y-35366D01*
X40598Y-35366D01*
X40598Y-36109D01*
X40721Y-36232D01*
X41185Y-36232D01*
X41185Y-37767D01*
X40721Y-37767D01*
X40598Y-37890D01*
X40598Y-38633D01*
X40606Y-38633D01*
X40606Y-38830D01*
X40598Y-38830D01*
X40598Y-39573D01*
X40721Y-39696D01*
X41185Y-39696D01*
X41185Y-59935D01*
X41185Y-59935D01*
G37*
G54D24*
X41185Y-59935D02*
X41070Y-59935D01*
X41070Y-47887D01*
X40983Y-47677D01*
X40823Y-47516D01*
X40783Y-47500D01*
X40822Y-47483D01*
X40983Y-47323D01*
X41070Y-47113D01*
X41070Y-46887D01*
X40983Y-46677D01*
X40823Y-46516D01*
X40783Y-46500D01*
X40822Y-46483D01*
X40983Y-46323D01*
X41070Y-46113D01*
X41070Y-45887D01*
X41070Y-42887D01*
X40983Y-42677D01*
X40823Y-42516D01*
X40783Y-42500D01*
X40822Y-42483D01*
X40983Y-42323D01*
X41070Y-42113D01*
X41070Y-41887D01*
X40983Y-41677D01*
X40823Y-41516D01*
X40783Y-41500D01*
X40822Y-41483D01*
X40983Y-41323D01*
X41070Y-41113D01*
X41070Y-40887D01*
X40983Y-40677D01*
X40823Y-40516D01*
X40613Y-40429D01*
X40401Y-40429D01*
X40401Y-39573D01*
X40401Y-38830D01*
X40401Y-38633D01*
X40401Y-37890D01*
X40401Y-36109D01*
X40401Y-35366D01*
X40401Y-35169D01*
X40401Y-34426D01*
X40278Y-34303D01*
X39398Y-34303D01*
X39217Y-34378D01*
X39078Y-34516D01*
X39003Y-34697D01*
X39003Y-34893D01*
X39003Y-35046D01*
X39126Y-35169D01*
X40401Y-35169D01*
X40401Y-35366D01*
X39126Y-35366D01*
X39003Y-35489D01*
X39003Y-35642D01*
X39003Y-35838D01*
X39078Y-36018D01*
X39217Y-36157D01*
X39398Y-36232D01*
X40278Y-36232D01*
X40401Y-36109D01*
X40401Y-37890D01*
X40278Y-37767D01*
X39398Y-37767D01*
X39217Y-37842D01*
X39078Y-37981D01*
X39003Y-38161D01*
X39003Y-38357D01*
X39003Y-38510D01*
X39126Y-38633D01*
X40401Y-38633D01*
X40401Y-38830D01*
X39126Y-38830D01*
X39003Y-38953D01*
X39003Y-39106D01*
X39003Y-39302D01*
X39078Y-39483D01*
X39217Y-39621D01*
X39398Y-39696D01*
X40278Y-39696D01*
X40401Y-39573D01*
X40401Y-40429D01*
X40387Y-40429D01*
X40177Y-40516D01*
X40016Y-40676D01*
X39929Y-40886D01*
X39929Y-41112D01*
X40016Y-41322D01*
X40176Y-41483D01*
X40216Y-41499D01*
X40177Y-41516D01*
X40016Y-41676D01*
X39929Y-41886D01*
X39929Y-41900D01*
X38970Y-40941D01*
X38970Y-40906D01*
X38898Y-40733D01*
X38766Y-40601D01*
X38593Y-40529D01*
X38470Y-40529D01*
X38470Y-38656D01*
X38470Y-34906D01*
X38398Y-34733D01*
X38266Y-34601D01*
X38093Y-34529D01*
X37906Y-34529D01*
X37820Y-34565D01*
X37820Y-13887D01*
X37733Y-13677D01*
X37573Y-13516D01*
X37363Y-13429D01*
X37137Y-13429D01*
X36927Y-13516D01*
X36830Y-13613D01*
X36780Y-13608D01*
X36389Y-14000D01*
X36780Y-14391D01*
X36830Y-14386D01*
X36926Y-14483D01*
X37136Y-14570D01*
X37362Y-14570D01*
X37572Y-14483D01*
X37733Y-14323D01*
X37820Y-14113D01*
X37820Y-13887D01*
X37820Y-34565D01*
X37733Y-34601D01*
X37601Y-34733D01*
X37529Y-34906D01*
X37529Y-35093D01*
X37601Y-35266D01*
X37733Y-35398D01*
X37906Y-35470D01*
X38093Y-35470D01*
X38266Y-35398D01*
X38398Y-35266D01*
X38470Y-35093D01*
X38470Y-34906D01*
X38470Y-38656D01*
X38398Y-38483D01*
X38266Y-38351D01*
X38093Y-38279D01*
X37906Y-38279D01*
X37733Y-38351D01*
X37601Y-38483D01*
X37529Y-38656D01*
X37529Y-38843D01*
X37601Y-39016D01*
X37733Y-39148D01*
X37906Y-39220D01*
X38093Y-39220D01*
X38266Y-39148D01*
X38398Y-39016D01*
X38470Y-38843D01*
X38470Y-38656D01*
X38470Y-40529D01*
X38406Y-40529D01*
X38233Y-40601D01*
X38101Y-40733D01*
X38029Y-40906D01*
X38029Y-41093D01*
X38101Y-41266D01*
X38233Y-41398D01*
X38406Y-41470D01*
X38441Y-41470D01*
X39375Y-42404D01*
X39375Y-44750D01*
X39399Y-44869D01*
X39404Y-44893D01*
X39485Y-45014D01*
X39529Y-45058D01*
X39529Y-45093D01*
X39601Y-45266D01*
X39733Y-45398D01*
X39906Y-45470D01*
X40093Y-45470D01*
X40266Y-45398D01*
X40398Y-45266D01*
X40470Y-45093D01*
X40470Y-44906D01*
X40398Y-44733D01*
X40266Y-44601D01*
X40191Y-44570D01*
X40283Y-44570D01*
X40833Y-44570D01*
X40942Y-44525D01*
X41025Y-44442D01*
X41070Y-44333D01*
X41070Y-44216D01*
X41070Y-43666D01*
X41025Y-43557D01*
X40942Y-43474D01*
X40864Y-43442D01*
X40983Y-43323D01*
X41070Y-43113D01*
X41070Y-42887D01*
X41070Y-45887D01*
X40983Y-45677D01*
X40823Y-45516D01*
X40613Y-45429D01*
X40387Y-45429D01*
X40177Y-45516D01*
X40016Y-45676D01*
X39929Y-45886D01*
X39929Y-46112D01*
X40016Y-46322D01*
X40176Y-46483D01*
X40216Y-46499D01*
X40177Y-46516D01*
X40016Y-46676D01*
X39929Y-46886D01*
X39929Y-47112D01*
X40016Y-47322D01*
X40176Y-47483D01*
X40216Y-47499D01*
X40177Y-47516D01*
X40016Y-47676D01*
X39929Y-47886D01*
X39929Y-48112D01*
X40016Y-48322D01*
X40135Y-48442D01*
X40057Y-48474D01*
X39974Y-48557D01*
X39929Y-48666D01*
X39929Y-48783D01*
X39929Y-49333D01*
X39974Y-49442D01*
X40057Y-49525D01*
X40166Y-49570D01*
X40283Y-49570D01*
X40833Y-49570D01*
X40942Y-49525D01*
X41025Y-49442D01*
X41070Y-49333D01*
X41070Y-49216D01*
X41070Y-48666D01*
X41025Y-48557D01*
X40942Y-48474D01*
X40864Y-48442D01*
X40983Y-48323D01*
X41070Y-48113D01*
X41070Y-47887D01*
X41070Y-59935D01*
X40484Y-59935D01*
X40484Y-58055D01*
X40334Y-57693D01*
X40058Y-57416D01*
X39696Y-57265D01*
X39624Y-57265D01*
X39624Y-46750D01*
X39624Y-46500D01*
X39600Y-46380D01*
X39595Y-46356D01*
X39595Y-46356D01*
X39514Y-46235D01*
X38874Y-45595D01*
X38874Y-45041D01*
X38898Y-45016D01*
X38970Y-44843D01*
X38970Y-44656D01*
X38898Y-44483D01*
X38766Y-44351D01*
X38593Y-44279D01*
X38406Y-44279D01*
X38233Y-44351D01*
X38101Y-44483D01*
X38029Y-44656D01*
X38029Y-44843D01*
X38072Y-44947D01*
X37968Y-44904D01*
X37781Y-44904D01*
X37608Y-44976D01*
X37584Y-45000D01*
X37492Y-45000D01*
X37492Y-33500D01*
X37454Y-33311D01*
X37347Y-33152D01*
X37188Y-33045D01*
X37000Y-33007D01*
X36811Y-33045D01*
X36652Y-33152D01*
X36641Y-33162D01*
X36641Y-14530D01*
X36250Y-14139D01*
X36110Y-14278D01*
X36110Y-14000D01*
X35820Y-13709D01*
X35820Y-13666D01*
X35775Y-13557D01*
X35692Y-13474D01*
X35583Y-13429D01*
X35466Y-13429D01*
X34916Y-13429D01*
X34807Y-13474D01*
X34724Y-13557D01*
X34679Y-13666D01*
X34679Y-13783D01*
X34679Y-14333D01*
X34724Y-14442D01*
X34807Y-14525D01*
X34916Y-14570D01*
X35033Y-14570D01*
X35583Y-14570D01*
X35692Y-14525D01*
X35775Y-14442D01*
X35820Y-14333D01*
X35820Y-14290D01*
X36110Y-14000D01*
X36110Y-14278D01*
X35858Y-14530D01*
X35873Y-14685D01*
X36164Y-14777D01*
X36468Y-14750D01*
X36626Y-14685D01*
X36641Y-14530D01*
X36641Y-33162D01*
X36046Y-33757D01*
X35250Y-33757D01*
X35061Y-33795D01*
X34902Y-33902D01*
X34296Y-34507D01*
X30203Y-34507D01*
X27597Y-31902D01*
X27438Y-31795D01*
X27250Y-31757D01*
X26203Y-31757D01*
X25742Y-31296D01*
X25742Y-30250D01*
X25704Y-30061D01*
X25597Y-29902D01*
X25438Y-29795D01*
X25250Y-29757D01*
X25061Y-29795D01*
X24902Y-29902D01*
X24795Y-30061D01*
X24757Y-30250D01*
X24757Y-31500D01*
X24795Y-31688D01*
X24902Y-31847D01*
X25652Y-32597D01*
X25811Y-32704D01*
X26000Y-32742D01*
X27046Y-32742D01*
X29583Y-35279D01*
X29406Y-35279D01*
X29233Y-35351D01*
X29101Y-35483D01*
X29029Y-35656D01*
X29029Y-35843D01*
X29101Y-36016D01*
X29233Y-36148D01*
X29406Y-36220D01*
X29593Y-36220D01*
X29766Y-36148D01*
X29898Y-36016D01*
X29970Y-35843D01*
X29970Y-35656D01*
X29898Y-35483D01*
X29884Y-35469D01*
X30000Y-35492D01*
X34500Y-35492D01*
X34500Y-35492D01*
X34688Y-35454D01*
X34847Y-35347D01*
X35029Y-35166D01*
X35029Y-35343D01*
X35101Y-35516D01*
X35233Y-35648D01*
X35406Y-35720D01*
X35593Y-35720D01*
X35766Y-35648D01*
X35898Y-35516D01*
X35970Y-35343D01*
X35970Y-35156D01*
X35898Y-34983D01*
X35766Y-34851D01*
X35593Y-34779D01*
X35416Y-34779D01*
X35453Y-34742D01*
X36250Y-34742D01*
X36250Y-34742D01*
X36438Y-34704D01*
X36597Y-34597D01*
X37347Y-33847D01*
X37454Y-33688D01*
X37492Y-33500D01*
X37492Y-45000D01*
X37475Y-45000D01*
X37331Y-45029D01*
X37210Y-45110D01*
X36914Y-45406D01*
X36873Y-45308D01*
X36741Y-45176D01*
X36568Y-45104D01*
X36381Y-45104D01*
X36208Y-45176D01*
X36145Y-45239D01*
X36145Y-45081D01*
X36073Y-44908D01*
X35941Y-44776D01*
X35768Y-44704D01*
X35581Y-44704D01*
X35408Y-44776D01*
X35384Y-44800D01*
X35220Y-44800D01*
X35220Y-37656D01*
X35148Y-37483D01*
X35016Y-37351D01*
X34843Y-37279D01*
X34720Y-37279D01*
X34720Y-35906D01*
X34648Y-35733D01*
X34516Y-35601D01*
X34343Y-35529D01*
X34156Y-35529D01*
X33983Y-35601D01*
X33851Y-35733D01*
X33779Y-35906D01*
X33779Y-36093D01*
X33851Y-36266D01*
X33983Y-36398D01*
X34156Y-36470D01*
X34343Y-36470D01*
X34516Y-36398D01*
X34648Y-36266D01*
X34720Y-36093D01*
X34720Y-35906D01*
X34720Y-37279D01*
X34656Y-37279D01*
X34483Y-37351D01*
X34351Y-37483D01*
X34279Y-37656D01*
X34279Y-37843D01*
X34351Y-38016D01*
X34483Y-38148D01*
X34656Y-38220D01*
X34843Y-38220D01*
X35016Y-38148D01*
X35148Y-38016D01*
X35220Y-37843D01*
X35220Y-37656D01*
X35220Y-44800D01*
X34720Y-44800D01*
X34720Y-39656D01*
X34648Y-39483D01*
X34516Y-39351D01*
X34343Y-39279D01*
X34156Y-39279D01*
X33983Y-39351D01*
X33851Y-39483D01*
X33779Y-39656D01*
X33779Y-39843D01*
X33851Y-40016D01*
X33983Y-40148D01*
X34156Y-40220D01*
X34343Y-40220D01*
X34516Y-40148D01*
X34648Y-40016D01*
X34720Y-39843D01*
X34720Y-39656D01*
X34720Y-44800D01*
X33966Y-44800D01*
X33941Y-44776D01*
X33768Y-44704D01*
X33581Y-44704D01*
X33408Y-44776D01*
X33276Y-44908D01*
X33204Y-45081D01*
X33204Y-45268D01*
X33264Y-45411D01*
X33108Y-45476D01*
X32976Y-45608D01*
X32904Y-45781D01*
X32904Y-45968D01*
X32976Y-46141D01*
X33039Y-46204D01*
X32981Y-46204D01*
X32808Y-46276D01*
X32676Y-46408D01*
X32604Y-46581D01*
X32604Y-46768D01*
X32676Y-46941D01*
X32808Y-47073D01*
X32981Y-47145D01*
X33168Y-47145D01*
X33341Y-47073D01*
X33365Y-47049D01*
X33659Y-47049D01*
X33604Y-47181D01*
X33604Y-47368D01*
X33676Y-47541D01*
X33709Y-47574D01*
X33676Y-47608D01*
X33604Y-47781D01*
X33604Y-47968D01*
X33669Y-48125D01*
X33604Y-48281D01*
X33604Y-48468D01*
X33676Y-48641D01*
X33808Y-48773D01*
X33981Y-48845D01*
X34168Y-48845D01*
X34341Y-48773D01*
X34365Y-48749D01*
X36983Y-48749D01*
X37008Y-48773D01*
X37181Y-48845D01*
X37368Y-48845D01*
X37541Y-48773D01*
X37673Y-48641D01*
X37745Y-48468D01*
X37745Y-48281D01*
X37673Y-48108D01*
X37541Y-47976D01*
X37368Y-47904D01*
X37181Y-47904D01*
X37008Y-47976D01*
X36984Y-48000D01*
X36931Y-48000D01*
X36945Y-47968D01*
X36945Y-47781D01*
X36873Y-47608D01*
X36741Y-47476D01*
X36568Y-47404D01*
X36381Y-47404D01*
X36208Y-47476D01*
X36184Y-47500D01*
X36090Y-47500D01*
X36145Y-47368D01*
X36145Y-47181D01*
X36090Y-47049D01*
X36975Y-47049D01*
X36975Y-47049D01*
X37094Y-47025D01*
X37118Y-47020D01*
X37118Y-47020D01*
X37239Y-46939D01*
X37439Y-46739D01*
X37439Y-46739D01*
X37493Y-46658D01*
X37520Y-46618D01*
X37520Y-46618D01*
X37549Y-46475D01*
X37549Y-46475D01*
X37549Y-46175D01*
X37549Y-45829D01*
X37606Y-45772D01*
X37608Y-45773D01*
X37781Y-45845D01*
X37968Y-45845D01*
X38131Y-45777D01*
X38149Y-45869D01*
X38154Y-45893D01*
X38235Y-46014D01*
X38846Y-46625D01*
X38441Y-47029D01*
X38406Y-47029D01*
X38233Y-47101D01*
X38101Y-47233D01*
X38029Y-47406D01*
X38029Y-47593D01*
X38101Y-47766D01*
X38233Y-47898D01*
X38406Y-47970D01*
X38593Y-47970D01*
X38766Y-47898D01*
X38898Y-47766D01*
X38970Y-47593D01*
X38970Y-47558D01*
X39514Y-47014D01*
X39514Y-47014D01*
X39595Y-46893D01*
X39595Y-46893D01*
X39600Y-46869D01*
X39624Y-46750D01*
X39624Y-46750D01*
X39624Y-57265D01*
X39305Y-57265D01*
X38943Y-57415D01*
X38666Y-57691D01*
X38515Y-58053D01*
X38515Y-58444D01*
X38665Y-58806D01*
X38941Y-59083D01*
X39303Y-59234D01*
X39694Y-59234D01*
X40056Y-59084D01*
X40333Y-58808D01*
X40484Y-58446D01*
X40484Y-58055D01*
X40484Y-59935D01*
X32810Y-59935D01*
X32942Y-59803D01*
X33017Y-59622D01*
X33017Y-59471D01*
X33017Y-59028D01*
X33017Y-58877D01*
X32942Y-58696D01*
X32803Y-58557D01*
X32622Y-58482D01*
X32471Y-58482D01*
X32348Y-58605D01*
X32348Y-59151D01*
X32894Y-59151D01*
X33017Y-59028D01*
X33017Y-59471D01*
X32894Y-59348D01*
X32348Y-59348D01*
X32348Y-59356D01*
X32151Y-59356D01*
X32151Y-59348D01*
X32143Y-59348D01*
X32143Y-59151D01*
X32151Y-59151D01*
X32151Y-58605D01*
X32028Y-58482D01*
X31946Y-58482D01*
X31946Y-57553D01*
X30946Y-57553D01*
X30946Y-46418D01*
X30196Y-45668D01*
X30196Y-41168D01*
X29720Y-40691D01*
X29720Y-37906D01*
X29648Y-37733D01*
X29516Y-37601D01*
X29343Y-37529D01*
X29156Y-37529D01*
X28983Y-37601D01*
X28851Y-37733D01*
X28779Y-37906D01*
X28779Y-38093D01*
X28851Y-38266D01*
X28983Y-38398D01*
X29156Y-38470D01*
X29343Y-38470D01*
X29516Y-38398D01*
X29648Y-38266D01*
X29720Y-38093D01*
X29720Y-37906D01*
X29720Y-40691D01*
X29331Y-40303D01*
X23720Y-40303D01*
X23720Y-35406D01*
X23648Y-35233D01*
X23516Y-35101D01*
X23343Y-35029D01*
X23156Y-35029D01*
X22983Y-35101D01*
X22851Y-35233D01*
X22779Y-35406D01*
X22779Y-35593D01*
X22851Y-35766D01*
X22983Y-35898D01*
X23156Y-35970D01*
X23343Y-35970D01*
X23516Y-35898D01*
X23648Y-35766D01*
X23720Y-35593D01*
X23720Y-35406D01*
X23720Y-40303D01*
X23303Y-40303D01*
X23303Y-40758D01*
X23113Y-40679D01*
X22887Y-40679D01*
X22677Y-40766D01*
X22516Y-40926D01*
X22500Y-40966D01*
X22483Y-40927D01*
X22323Y-40766D01*
X22113Y-40679D01*
X21887Y-40679D01*
X21677Y-40766D01*
X21516Y-40926D01*
X21500Y-40966D01*
X21483Y-40927D01*
X21323Y-40766D01*
X21113Y-40679D01*
X20887Y-40679D01*
X20677Y-40766D01*
X20516Y-40926D01*
X20500Y-40966D01*
X20483Y-40927D01*
X20323Y-40766D01*
X20113Y-40679D01*
X19887Y-40679D01*
X19677Y-40766D01*
X19516Y-40926D01*
X19500Y-40966D01*
X19483Y-40927D01*
X19390Y-40833D01*
X20035Y-40188D01*
X20500Y-40188D01*
X20763Y-40136D01*
X20987Y-39987D01*
X21737Y-39237D01*
X21886Y-39013D01*
X21938Y-38750D01*
X21938Y-32785D01*
X26285Y-28438D01*
X34750Y-28438D01*
X35013Y-28386D01*
X35237Y-28237D01*
X36237Y-27237D01*
X36386Y-27013D01*
X36438Y-26750D01*
X36438Y-25750D01*
X36386Y-25486D01*
X36237Y-25262D01*
X36013Y-25113D01*
X35750Y-25061D01*
X35486Y-25113D01*
X35262Y-25262D01*
X35113Y-25486D01*
X35061Y-25750D01*
X35061Y-26464D01*
X34464Y-27061D01*
X33970Y-27061D01*
X33970Y-22656D01*
X33898Y-22483D01*
X33820Y-22405D01*
X33820Y-13887D01*
X33733Y-13677D01*
X33573Y-13516D01*
X33363Y-13429D01*
X33137Y-13429D01*
X32927Y-13516D01*
X32830Y-13613D01*
X32780Y-13608D01*
X32389Y-14000D01*
X32780Y-14391D01*
X32830Y-14386D01*
X32926Y-14483D01*
X33136Y-14570D01*
X33362Y-14570D01*
X33572Y-14483D01*
X33733Y-14323D01*
X33820Y-14113D01*
X33820Y-13887D01*
X33820Y-22405D01*
X33766Y-22351D01*
X33593Y-22279D01*
X33470Y-22279D01*
X33470Y-17406D01*
X33398Y-17233D01*
X33266Y-17101D01*
X33093Y-17029D01*
X32906Y-17029D01*
X32733Y-17101D01*
X32641Y-17193D01*
X32641Y-14530D01*
X32250Y-14139D01*
X32110Y-14278D01*
X32110Y-14000D01*
X31820Y-13709D01*
X31820Y-13666D01*
X31775Y-13557D01*
X31692Y-13474D01*
X31583Y-13429D01*
X31466Y-13429D01*
X30916Y-13429D01*
X30807Y-13474D01*
X30724Y-13557D01*
X30715Y-13580D01*
X30593Y-13529D01*
X30406Y-13529D01*
X30233Y-13601D01*
X30101Y-13733D01*
X30029Y-13906D01*
X30029Y-14093D01*
X30101Y-14266D01*
X30233Y-14398D01*
X30406Y-14470D01*
X30593Y-14470D01*
X30715Y-14419D01*
X30724Y-14442D01*
X30807Y-14525D01*
X30916Y-14570D01*
X31033Y-14570D01*
X31583Y-14570D01*
X31692Y-14525D01*
X31775Y-14442D01*
X31820Y-14333D01*
X31820Y-14290D01*
X32110Y-14000D01*
X32110Y-14278D01*
X31858Y-14530D01*
X31873Y-14685D01*
X32164Y-14777D01*
X32468Y-14750D01*
X32626Y-14685D01*
X32641Y-14530D01*
X32641Y-17193D01*
X32601Y-17233D01*
X32529Y-17406D01*
X32529Y-17593D01*
X32547Y-17635D01*
X32547Y-21312D01*
X32525Y-21333D01*
X32483Y-21351D01*
X32351Y-21483D01*
X32279Y-21656D01*
X32279Y-21843D01*
X32351Y-22016D01*
X32483Y-22148D01*
X32656Y-22220D01*
X32843Y-22220D01*
X33016Y-22148D01*
X33148Y-22016D01*
X33166Y-21974D01*
X33320Y-21820D01*
X33418Y-21673D01*
X33418Y-21673D01*
X33424Y-21644D01*
X33452Y-21500D01*
X33452Y-21500D01*
X33452Y-21499D01*
X33452Y-17635D01*
X33470Y-17593D01*
X33470Y-17406D01*
X33470Y-22279D01*
X33406Y-22279D01*
X33364Y-22297D01*
X30470Y-22297D01*
X30470Y-15406D01*
X30398Y-15233D01*
X30266Y-15101D01*
X30093Y-15029D01*
X29906Y-15029D01*
X29820Y-15065D01*
X29820Y-13887D01*
X29733Y-13677D01*
X29573Y-13516D01*
X29363Y-13429D01*
X29137Y-13429D01*
X28927Y-13516D01*
X28830Y-13613D01*
X28780Y-13608D01*
X28389Y-14000D01*
X28780Y-14391D01*
X28830Y-14386D01*
X28926Y-14483D01*
X29136Y-14570D01*
X29362Y-14570D01*
X29572Y-14483D01*
X29733Y-14323D01*
X29820Y-14113D01*
X29820Y-13887D01*
X29820Y-15065D01*
X29733Y-15101D01*
X29601Y-15233D01*
X29529Y-15406D01*
X29529Y-15593D01*
X29601Y-15766D01*
X29733Y-15898D01*
X29906Y-15970D01*
X30093Y-15970D01*
X30266Y-15898D01*
X30398Y-15766D01*
X30470Y-15593D01*
X30470Y-15406D01*
X30470Y-22297D01*
X29385Y-22297D01*
X29343Y-22279D01*
X29156Y-22279D01*
X28983Y-22351D01*
X28851Y-22483D01*
X28779Y-22656D01*
X28779Y-22843D01*
X28851Y-23016D01*
X28983Y-23148D01*
X29156Y-23220D01*
X29343Y-23220D01*
X29385Y-23202D01*
X33364Y-23202D01*
X33406Y-23220D01*
X33593Y-23220D01*
X33766Y-23148D01*
X33898Y-23016D01*
X33970Y-22843D01*
X33970Y-22656D01*
X33970Y-27061D01*
X32970Y-27061D01*
X32970Y-25656D01*
X32898Y-25483D01*
X32766Y-25351D01*
X32593Y-25279D01*
X32406Y-25279D01*
X32233Y-25351D01*
X32101Y-25483D01*
X32029Y-25656D01*
X32029Y-25843D01*
X32101Y-26016D01*
X32233Y-26148D01*
X32406Y-26220D01*
X32593Y-26220D01*
X32766Y-26148D01*
X32898Y-26016D01*
X32970Y-25843D01*
X32970Y-25656D01*
X32970Y-27061D01*
X31720Y-27061D01*
X31720Y-25906D01*
X31648Y-25733D01*
X31516Y-25601D01*
X31343Y-25529D01*
X31156Y-25529D01*
X30983Y-25601D01*
X30851Y-25733D01*
X30779Y-25906D01*
X30779Y-26093D01*
X30851Y-26266D01*
X30983Y-26398D01*
X31156Y-26470D01*
X31343Y-26470D01*
X31516Y-26398D01*
X31648Y-26266D01*
X31720Y-26093D01*
X31720Y-25906D01*
X31720Y-27061D01*
X28641Y-27061D01*
X28641Y-14530D01*
X28250Y-14139D01*
X28110Y-14278D01*
X27858Y-14530D01*
X27873Y-14685D01*
X28164Y-14777D01*
X28468Y-14750D01*
X28626Y-14685D01*
X28641Y-14530D01*
X28641Y-27061D01*
X26000Y-27061D01*
X25736Y-27113D01*
X25512Y-27262D01*
X25446Y-27328D01*
X25220Y-27555D01*
X25220Y-25906D01*
X25220Y-24906D01*
X25148Y-24733D01*
X25016Y-24601D01*
X24843Y-24529D01*
X24720Y-24529D01*
X24720Y-19406D01*
X24648Y-19233D01*
X24516Y-19101D01*
X24383Y-19046D01*
X24383Y-15373D01*
X24383Y-14098D01*
X23640Y-14098D01*
X23517Y-14221D01*
X23517Y-15101D01*
X23592Y-15282D01*
X23731Y-15421D01*
X23911Y-15496D01*
X24107Y-15496D01*
X24260Y-15496D01*
X24383Y-15373D01*
X24383Y-19046D01*
X24343Y-19029D01*
X24156Y-19029D01*
X23983Y-19101D01*
X23851Y-19233D01*
X23779Y-19406D01*
X23779Y-19593D01*
X23851Y-19766D01*
X23983Y-19898D01*
X24156Y-19970D01*
X24343Y-19970D01*
X24516Y-19898D01*
X24648Y-19766D01*
X24720Y-19593D01*
X24720Y-19406D01*
X24720Y-24529D01*
X24656Y-24529D01*
X24483Y-24601D01*
X24470Y-24614D01*
X24470Y-21156D01*
X24398Y-20983D01*
X24266Y-20851D01*
X24093Y-20779D01*
X23906Y-20779D01*
X23733Y-20851D01*
X23601Y-20983D01*
X23529Y-21156D01*
X23529Y-21343D01*
X23601Y-21516D01*
X23733Y-21648D01*
X23906Y-21720D01*
X24093Y-21720D01*
X24266Y-21648D01*
X24398Y-21516D01*
X24470Y-21343D01*
X24470Y-21156D01*
X24470Y-24614D01*
X24351Y-24733D01*
X24279Y-24906D01*
X24279Y-25093D01*
X24351Y-25266D01*
X24483Y-25398D01*
X24656Y-25470D01*
X24843Y-25470D01*
X25016Y-25398D01*
X25148Y-25266D01*
X25220Y-25093D01*
X25220Y-24906D01*
X25220Y-25906D01*
X25148Y-25733D01*
X25016Y-25601D01*
X24843Y-25529D01*
X24656Y-25529D01*
X24483Y-25601D01*
X24351Y-25733D01*
X24279Y-25906D01*
X24279Y-26093D01*
X24351Y-26266D01*
X24483Y-26398D01*
X24656Y-26470D01*
X24843Y-26470D01*
X25016Y-26398D01*
X25148Y-26266D01*
X25220Y-26093D01*
X25220Y-25906D01*
X25220Y-27555D01*
X22470Y-30305D01*
X22470Y-28156D01*
X22398Y-27983D01*
X22270Y-27855D01*
X22270Y-23146D01*
X22191Y-22955D01*
X22045Y-22809D01*
X21982Y-22783D01*
X21982Y-15101D01*
X21982Y-14221D01*
X21859Y-14098D01*
X21116Y-14098D01*
X21116Y-15373D01*
X21239Y-15496D01*
X21392Y-15496D01*
X21588Y-15496D01*
X21768Y-15421D01*
X21907Y-15282D01*
X21982Y-15101D01*
X21982Y-22783D01*
X21853Y-22729D01*
X21646Y-22729D01*
X21455Y-22808D01*
X21309Y-22954D01*
X21229Y-23146D01*
X21229Y-23353D01*
X21308Y-23544D01*
X21454Y-23690D01*
X21646Y-23770D01*
X21853Y-23770D01*
X22044Y-23691D01*
X22190Y-23545D01*
X22270Y-23353D01*
X22270Y-23146D01*
X22270Y-27855D01*
X22266Y-27851D01*
X22093Y-27779D01*
X21906Y-27779D01*
X21733Y-27851D01*
X21601Y-27983D01*
X21529Y-28156D01*
X21529Y-28343D01*
X21601Y-28516D01*
X21733Y-28648D01*
X21906Y-28720D01*
X22093Y-28720D01*
X22266Y-28648D01*
X22398Y-28516D01*
X22470Y-28343D01*
X22470Y-28156D01*
X22470Y-30305D01*
X20919Y-31856D01*
X20919Y-15373D01*
X20919Y-14098D01*
X20176Y-14098D01*
X20053Y-14221D01*
X20053Y-15101D01*
X20128Y-15282D01*
X20266Y-15421D01*
X20447Y-15496D01*
X20643Y-15496D01*
X20796Y-15496D01*
X20919Y-15373D01*
X20919Y-31856D01*
X20762Y-32012D01*
X20613Y-32236D01*
X20561Y-32500D01*
X20561Y-38464D01*
X20214Y-38811D01*
X19750Y-38811D01*
X19486Y-38863D01*
X19262Y-39012D01*
X19220Y-39055D01*
X19220Y-35906D01*
X19148Y-35733D01*
X19016Y-35601D01*
X18843Y-35529D01*
X18720Y-35529D01*
X18720Y-33906D01*
X18648Y-33733D01*
X18516Y-33601D01*
X18343Y-33529D01*
X18156Y-33529D01*
X17983Y-33601D01*
X17851Y-33733D01*
X17779Y-33906D01*
X17779Y-34093D01*
X17851Y-34266D01*
X17983Y-34398D01*
X18156Y-34470D01*
X18343Y-34470D01*
X18516Y-34398D01*
X18648Y-34266D01*
X18720Y-34093D01*
X18720Y-33906D01*
X18720Y-35529D01*
X18656Y-35529D01*
X18483Y-35601D01*
X18351Y-35733D01*
X18279Y-35906D01*
X18279Y-36093D01*
X18351Y-36266D01*
X18483Y-36398D01*
X18656Y-36470D01*
X18843Y-36470D01*
X19016Y-36398D01*
X19148Y-36266D01*
X19220Y-36093D01*
X19220Y-35906D01*
X19220Y-39055D01*
X18137Y-40137D01*
X18012Y-40262D01*
X17863Y-40486D01*
X17819Y-40707D01*
X17677Y-40766D01*
X17516Y-40926D01*
X17500Y-40966D01*
X17483Y-40927D01*
X17470Y-40913D01*
X17470Y-35156D01*
X17398Y-34983D01*
X17266Y-34851D01*
X17093Y-34779D01*
X16906Y-34779D01*
X16733Y-34851D01*
X16709Y-34875D01*
X16404Y-34875D01*
X15984Y-34455D01*
X15984Y-14805D01*
X15834Y-14443D01*
X15558Y-14166D01*
X15196Y-14015D01*
X14805Y-14015D01*
X14443Y-14165D01*
X14166Y-14441D01*
X14015Y-14803D01*
X14015Y-15194D01*
X14165Y-15556D01*
X14441Y-15833D01*
X14803Y-15984D01*
X15194Y-15984D01*
X15556Y-15834D01*
X15833Y-15558D01*
X15984Y-15196D01*
X15984Y-14805D01*
X15984Y-34455D01*
X15691Y-34162D01*
X15720Y-34093D01*
X15720Y-33906D01*
X15648Y-33733D01*
X15516Y-33601D01*
X15355Y-33534D01*
X15570Y-33320D01*
X15668Y-33173D01*
X15702Y-33000D01*
X15702Y-31000D01*
X15668Y-30826D01*
X15570Y-30679D01*
X15070Y-30179D01*
X15027Y-30151D01*
X15027Y-25585D01*
X15027Y-19085D01*
X15000Y-18781D01*
X14935Y-18623D01*
X14820Y-18612D01*
X14820Y-18333D01*
X14820Y-18216D01*
X14820Y-17666D01*
X14775Y-17557D01*
X14692Y-17474D01*
X14583Y-17429D01*
X14466Y-17429D01*
X13916Y-17429D01*
X13807Y-17474D01*
X13724Y-17557D01*
X13679Y-17666D01*
X13679Y-17783D01*
X13679Y-18333D01*
X13724Y-18442D01*
X13807Y-18525D01*
X13916Y-18570D01*
X13959Y-18570D01*
X14250Y-18860D01*
X14540Y-18570D01*
X14583Y-18570D01*
X14692Y-18525D01*
X14775Y-18442D01*
X14820Y-18333D01*
X14820Y-18612D01*
X14780Y-18608D01*
X14389Y-19000D01*
X14780Y-19391D01*
X14935Y-19376D01*
X15027Y-19085D01*
X15027Y-25585D01*
X15000Y-25281D01*
X14935Y-25123D01*
X14820Y-25112D01*
X14820Y-24387D01*
X14820Y-19887D01*
X14733Y-19677D01*
X14636Y-19580D01*
X14641Y-19530D01*
X14250Y-19139D01*
X14110Y-19278D01*
X14110Y-19000D01*
X13719Y-18608D01*
X13564Y-18623D01*
X13472Y-18914D01*
X13499Y-19218D01*
X13564Y-19376D01*
X13719Y-19391D01*
X14110Y-19000D01*
X14110Y-19278D01*
X13858Y-19530D01*
X13863Y-19580D01*
X13766Y-19676D01*
X13679Y-19886D01*
X13679Y-20112D01*
X13766Y-20322D01*
X13926Y-20483D01*
X14136Y-20570D01*
X14362Y-20570D01*
X14572Y-20483D01*
X14733Y-20323D01*
X14820Y-20113D01*
X14820Y-19887D01*
X14820Y-24387D01*
X14733Y-24177D01*
X14573Y-24016D01*
X14363Y-23929D01*
X14137Y-23929D01*
X13927Y-24016D01*
X13766Y-24176D01*
X13679Y-24386D01*
X13679Y-24612D01*
X13766Y-24822D01*
X13863Y-24919D01*
X13858Y-24969D01*
X14250Y-25360D01*
X14641Y-24969D01*
X14636Y-24919D01*
X14733Y-24823D01*
X14820Y-24613D01*
X14820Y-24387D01*
X14820Y-25112D01*
X14780Y-25108D01*
X14389Y-25500D01*
X14780Y-25891D01*
X14935Y-25876D01*
X15027Y-25585D01*
X15027Y-30151D01*
X14923Y-30081D01*
X14820Y-30061D01*
X14820Y-26833D01*
X14820Y-26716D01*
X14820Y-26166D01*
X14775Y-26057D01*
X14692Y-25974D01*
X14583Y-25929D01*
X14540Y-25929D01*
X14250Y-25639D01*
X14110Y-25778D01*
X14110Y-25500D01*
X13719Y-25108D01*
X13564Y-25123D01*
X13472Y-25414D01*
X13499Y-25718D01*
X13564Y-25876D01*
X13719Y-25891D01*
X14110Y-25500D01*
X14110Y-25778D01*
X13959Y-25929D01*
X13916Y-25929D01*
X13807Y-25974D01*
X13724Y-26057D01*
X13679Y-26166D01*
X13679Y-26283D01*
X13679Y-26833D01*
X13724Y-26942D01*
X13807Y-27025D01*
X13916Y-27070D01*
X14033Y-27070D01*
X14583Y-27070D01*
X14692Y-27025D01*
X14775Y-26942D01*
X14820Y-26833D01*
X14820Y-30061D01*
X14750Y-30047D01*
X14603Y-30047D01*
X14573Y-30016D01*
X14363Y-29929D01*
X14137Y-29929D01*
X13927Y-30016D01*
X13766Y-30176D01*
X13679Y-30386D01*
X13679Y-30612D01*
X13766Y-30822D01*
X13926Y-30983D01*
X13966Y-30999D01*
X13927Y-31016D01*
X13766Y-31176D01*
X13679Y-31386D01*
X13679Y-31612D01*
X13766Y-31822D01*
X13926Y-31983D01*
X13966Y-31999D01*
X13927Y-32016D01*
X13766Y-32176D01*
X13679Y-32386D01*
X13679Y-32612D01*
X13766Y-32822D01*
X13885Y-32942D01*
X13807Y-32974D01*
X13724Y-33057D01*
X13679Y-33166D01*
X13679Y-33283D01*
X13679Y-33833D01*
X13724Y-33942D01*
X13807Y-34025D01*
X13916Y-34070D01*
X14033Y-34070D01*
X14583Y-34070D01*
X14692Y-34025D01*
X14768Y-33949D01*
X14779Y-33946D01*
X14779Y-34093D01*
X14851Y-34266D01*
X14886Y-34301D01*
X14886Y-34303D01*
X14221Y-34303D01*
X14098Y-34426D01*
X14098Y-35169D01*
X15373Y-35169D01*
X15496Y-35046D01*
X15496Y-35025D01*
X15985Y-35514D01*
X15985Y-35514D01*
X16066Y-35568D01*
X16106Y-35595D01*
X16106Y-35595D01*
X16250Y-35624D01*
X16708Y-35624D01*
X16733Y-35648D01*
X16906Y-35720D01*
X17093Y-35720D01*
X17266Y-35648D01*
X17398Y-35516D01*
X17470Y-35343D01*
X17470Y-35156D01*
X17470Y-40913D01*
X17323Y-40766D01*
X17113Y-40679D01*
X16887Y-40679D01*
X16677Y-40766D01*
X16516Y-40926D01*
X16429Y-41136D01*
X16429Y-41362D01*
X16516Y-41572D01*
X16676Y-41733D01*
X16886Y-41820D01*
X17112Y-41820D01*
X17322Y-41733D01*
X17483Y-41573D01*
X17499Y-41533D01*
X17516Y-41572D01*
X17676Y-41733D01*
X17886Y-41820D01*
X18112Y-41820D01*
X18302Y-41742D01*
X18698Y-41742D01*
X18886Y-41820D01*
X19112Y-41820D01*
X19322Y-41733D01*
X19483Y-41573D01*
X19499Y-41533D01*
X19516Y-41572D01*
X19676Y-41733D01*
X19886Y-41820D01*
X20112Y-41820D01*
X20322Y-41733D01*
X20483Y-41573D01*
X20499Y-41533D01*
X20516Y-41572D01*
X20676Y-41733D01*
X20886Y-41820D01*
X21112Y-41820D01*
X21322Y-41733D01*
X21483Y-41573D01*
X21499Y-41533D01*
X21516Y-41572D01*
X21676Y-41733D01*
X21886Y-41820D01*
X22112Y-41820D01*
X22322Y-41733D01*
X22483Y-41573D01*
X22499Y-41533D01*
X22516Y-41572D01*
X22676Y-41733D01*
X22886Y-41820D01*
X23112Y-41820D01*
X23303Y-41741D01*
X23303Y-46758D01*
X23113Y-46679D01*
X22887Y-46679D01*
X22677Y-46766D01*
X22516Y-46926D01*
X22500Y-46966D01*
X22483Y-46927D01*
X22323Y-46766D01*
X22113Y-46679D01*
X21887Y-46679D01*
X21677Y-46766D01*
X21516Y-46926D01*
X21500Y-46966D01*
X21483Y-46927D01*
X21323Y-46766D01*
X21113Y-46679D01*
X20887Y-46679D01*
X20677Y-46766D01*
X20516Y-46926D01*
X20500Y-46966D01*
X20483Y-46927D01*
X20323Y-46766D01*
X20113Y-46679D01*
X19887Y-46679D01*
X19677Y-46766D01*
X19580Y-46863D01*
X19530Y-46858D01*
X19391Y-46997D01*
X19391Y-46719D01*
X19376Y-46564D01*
X19085Y-46472D01*
X18781Y-46499D01*
X18623Y-46564D01*
X18608Y-46719D01*
X19000Y-47110D01*
X19391Y-46719D01*
X19391Y-46997D01*
X19139Y-47250D01*
X19530Y-47641D01*
X19580Y-47636D01*
X19676Y-47733D01*
X19886Y-47820D01*
X20112Y-47820D01*
X20322Y-47733D01*
X20483Y-47573D01*
X20499Y-47533D01*
X20516Y-47572D01*
X20676Y-47733D01*
X20886Y-47820D01*
X21112Y-47820D01*
X21322Y-47733D01*
X21483Y-47573D01*
X21499Y-47533D01*
X21516Y-47572D01*
X21676Y-47733D01*
X21886Y-47820D01*
X22112Y-47820D01*
X22322Y-47733D01*
X22483Y-47573D01*
X22499Y-47533D01*
X22516Y-47572D01*
X22676Y-47733D01*
X22886Y-47820D01*
X23112Y-47820D01*
X23303Y-47741D01*
X23303Y-48581D01*
X24168Y-49446D01*
X27168Y-49446D01*
X27303Y-49581D01*
X27303Y-49758D01*
X27113Y-49679D01*
X26887Y-49679D01*
X26677Y-49766D01*
X26580Y-49863D01*
X26530Y-49858D01*
X26391Y-49997D01*
X26391Y-49719D01*
X26376Y-49564D01*
X26085Y-49472D01*
X25781Y-49499D01*
X25623Y-49564D01*
X25608Y-49719D01*
X26000Y-50110D01*
X26391Y-49719D01*
X26391Y-49997D01*
X26139Y-50250D01*
X26530Y-50641D01*
X26580Y-50636D01*
X26676Y-50733D01*
X26886Y-50820D01*
X27112Y-50820D01*
X27303Y-50741D01*
X27303Y-55758D01*
X27113Y-55679D01*
X26887Y-55679D01*
X26677Y-55766D01*
X26580Y-55863D01*
X26530Y-55858D01*
X26391Y-55997D01*
X26391Y-55719D01*
X26391Y-50780D01*
X26000Y-50389D01*
X25860Y-50528D01*
X25860Y-50250D01*
X25469Y-49858D01*
X25419Y-49863D01*
X25323Y-49766D01*
X25113Y-49679D01*
X24887Y-49679D01*
X24677Y-49766D01*
X24516Y-49926D01*
X24500Y-49966D01*
X24483Y-49927D01*
X24323Y-49766D01*
X24113Y-49679D01*
X23887Y-49679D01*
X23677Y-49766D01*
X23516Y-49926D01*
X23500Y-49966D01*
X23483Y-49927D01*
X23323Y-49766D01*
X23113Y-49679D01*
X22887Y-49679D01*
X22677Y-49766D01*
X22516Y-49926D01*
X22500Y-49966D01*
X22483Y-49927D01*
X22323Y-49766D01*
X22113Y-49679D01*
X21887Y-49679D01*
X21677Y-49766D01*
X21516Y-49926D01*
X21500Y-49966D01*
X21483Y-49927D01*
X21323Y-49766D01*
X21113Y-49679D01*
X20887Y-49679D01*
X20677Y-49766D01*
X20516Y-49926D01*
X20500Y-49966D01*
X20483Y-49927D01*
X20323Y-49766D01*
X20113Y-49679D01*
X19887Y-49679D01*
X19677Y-49766D01*
X19516Y-49926D01*
X19500Y-49966D01*
X19483Y-49927D01*
X19391Y-49834D01*
X19391Y-47780D01*
X19000Y-47389D01*
X18860Y-47528D01*
X18860Y-47250D01*
X18761Y-47150D01*
X18750Y-47031D01*
X18685Y-46873D01*
X18530Y-46858D01*
X18499Y-46889D01*
X18469Y-46858D01*
X18391Y-46866D01*
X18391Y-46719D01*
X18376Y-46564D01*
X18085Y-46472D01*
X17781Y-46499D01*
X17623Y-46564D01*
X17608Y-46719D01*
X18000Y-47110D01*
X18391Y-46719D01*
X18391Y-46866D01*
X18314Y-46873D01*
X18222Y-47164D01*
X18222Y-47166D01*
X18139Y-47250D01*
X18238Y-47349D01*
X18249Y-47468D01*
X18314Y-47626D01*
X18469Y-47641D01*
X18500Y-47610D01*
X18530Y-47641D01*
X18685Y-47626D01*
X18777Y-47335D01*
X18777Y-47333D01*
X18860Y-47250D01*
X18860Y-47528D01*
X18608Y-47780D01*
X18623Y-47935D01*
X18914Y-48027D01*
X19218Y-48000D01*
X19376Y-47935D01*
X19391Y-47780D01*
X19391Y-49834D01*
X19323Y-49766D01*
X19113Y-49679D01*
X18887Y-49679D01*
X18677Y-49766D01*
X18516Y-49926D01*
X18500Y-49966D01*
X18483Y-49927D01*
X18391Y-49834D01*
X18391Y-47780D01*
X18000Y-47389D01*
X17860Y-47528D01*
X17860Y-47250D01*
X17570Y-46959D01*
X17570Y-46916D01*
X17525Y-46807D01*
X17442Y-46724D01*
X17333Y-46679D01*
X17216Y-46679D01*
X16666Y-46679D01*
X16557Y-46724D01*
X16474Y-46807D01*
X16429Y-46916D01*
X16429Y-47033D01*
X16429Y-47583D01*
X16474Y-47692D01*
X16557Y-47775D01*
X16666Y-47820D01*
X16783Y-47820D01*
X17333Y-47820D01*
X17442Y-47775D01*
X17525Y-47692D01*
X17570Y-47583D01*
X17570Y-47540D01*
X17860Y-47250D01*
X17860Y-47528D01*
X17608Y-47780D01*
X17623Y-47935D01*
X17914Y-48027D01*
X18218Y-48000D01*
X18376Y-47935D01*
X18391Y-47780D01*
X18391Y-49834D01*
X18323Y-49766D01*
X18113Y-49679D01*
X17887Y-49679D01*
X17677Y-49766D01*
X17516Y-49926D01*
X17500Y-49966D01*
X17483Y-49927D01*
X17323Y-49766D01*
X17113Y-49679D01*
X16887Y-49679D01*
X16677Y-49766D01*
X16516Y-49926D01*
X16429Y-50136D01*
X16429Y-50362D01*
X16516Y-50572D01*
X16676Y-50733D01*
X16886Y-50820D01*
X17112Y-50820D01*
X17322Y-50733D01*
X17483Y-50573D01*
X17499Y-50533D01*
X17516Y-50572D01*
X17676Y-50733D01*
X17886Y-50820D01*
X18112Y-50820D01*
X18322Y-50733D01*
X18483Y-50573D01*
X18499Y-50533D01*
X18516Y-50572D01*
X18676Y-50733D01*
X18886Y-50820D01*
X19112Y-50820D01*
X19322Y-50733D01*
X19483Y-50573D01*
X19499Y-50533D01*
X19516Y-50572D01*
X19676Y-50733D01*
X19886Y-50820D01*
X20112Y-50820D01*
X20322Y-50733D01*
X20483Y-50573D01*
X20499Y-50533D01*
X20516Y-50572D01*
X20676Y-50733D01*
X20886Y-50820D01*
X21112Y-50820D01*
X21322Y-50733D01*
X21483Y-50573D01*
X21499Y-50533D01*
X21516Y-50572D01*
X21676Y-50733D01*
X21886Y-50820D01*
X22112Y-50820D01*
X22322Y-50733D01*
X22483Y-50573D01*
X22499Y-50533D01*
X22516Y-50572D01*
X22676Y-50733D01*
X22886Y-50820D01*
X23112Y-50820D01*
X23322Y-50733D01*
X23483Y-50573D01*
X23499Y-50533D01*
X23516Y-50572D01*
X23676Y-50733D01*
X23886Y-50820D01*
X24112Y-50820D01*
X24322Y-50733D01*
X24483Y-50573D01*
X24499Y-50533D01*
X24516Y-50572D01*
X24676Y-50733D01*
X24886Y-50820D01*
X25112Y-50820D01*
X25322Y-50733D01*
X25419Y-50636D01*
X25469Y-50641D01*
X25860Y-50250D01*
X25860Y-50528D01*
X25608Y-50780D01*
X25623Y-50935D01*
X25914Y-51027D01*
X26218Y-51000D01*
X26376Y-50935D01*
X26391Y-50780D01*
X26391Y-55719D01*
X26376Y-55564D01*
X26085Y-55472D01*
X25781Y-55499D01*
X25623Y-55564D01*
X25608Y-55719D01*
X26000Y-56110D01*
X26391Y-55719D01*
X26391Y-55997D01*
X26139Y-56250D01*
X26530Y-56641D01*
X26580Y-56636D01*
X26676Y-56733D01*
X26886Y-56820D01*
X27112Y-56820D01*
X27303Y-56741D01*
X27303Y-57331D01*
X28418Y-58446D01*
X29553Y-58446D01*
X29553Y-58541D01*
X29335Y-58472D01*
X29031Y-58499D01*
X28873Y-58564D01*
X28858Y-58719D01*
X29250Y-59110D01*
X29255Y-59105D01*
X29394Y-59244D01*
X29389Y-59250D01*
X29394Y-59255D01*
X29255Y-59394D01*
X29250Y-59389D01*
X29110Y-59528D01*
X29110Y-59250D01*
X28719Y-58858D01*
X28564Y-58873D01*
X28472Y-59164D01*
X28499Y-59468D01*
X28564Y-59626D01*
X28719Y-59641D01*
X29110Y-59250D01*
X29110Y-59528D01*
X28858Y-59780D01*
X28873Y-59935D01*
X26391Y-59935D01*
X26391Y-56780D01*
X26000Y-56389D01*
X25860Y-56528D01*
X25860Y-56250D01*
X25469Y-55858D01*
X25419Y-55863D01*
X25323Y-55766D01*
X25113Y-55679D01*
X24887Y-55679D01*
X24677Y-55766D01*
X24516Y-55926D01*
X24500Y-55966D01*
X24483Y-55927D01*
X24323Y-55766D01*
X24113Y-55679D01*
X23887Y-55679D01*
X23677Y-55766D01*
X23516Y-55926D01*
X23500Y-55966D01*
X23483Y-55927D01*
X23323Y-55766D01*
X23113Y-55679D01*
X22887Y-55679D01*
X22677Y-55766D01*
X22516Y-55926D01*
X22500Y-55966D01*
X22483Y-55927D01*
X22323Y-55766D01*
X22113Y-55679D01*
X21887Y-55679D01*
X21677Y-55766D01*
X21516Y-55926D01*
X21500Y-55966D01*
X21483Y-55927D01*
X21323Y-55766D01*
X21113Y-55679D01*
X20887Y-55679D01*
X20677Y-55766D01*
X20516Y-55926D01*
X20500Y-55966D01*
X20483Y-55927D01*
X20323Y-55766D01*
X20113Y-55679D01*
X19887Y-55679D01*
X19677Y-55766D01*
X19580Y-55863D01*
X19530Y-55858D01*
X19391Y-55997D01*
X19391Y-55719D01*
X19376Y-55564D01*
X19085Y-55472D01*
X18781Y-55499D01*
X18623Y-55564D01*
X18608Y-55719D01*
X19000Y-56110D01*
X19391Y-55719D01*
X19391Y-55997D01*
X19139Y-56250D01*
X19530Y-56641D01*
X19580Y-56636D01*
X19676Y-56733D01*
X19886Y-56820D01*
X20112Y-56820D01*
X20322Y-56733D01*
X20483Y-56573D01*
X20499Y-56533D01*
X20516Y-56572D01*
X20676Y-56733D01*
X20886Y-56820D01*
X21112Y-56820D01*
X21322Y-56733D01*
X21483Y-56573D01*
X21499Y-56533D01*
X21516Y-56572D01*
X21676Y-56733D01*
X21886Y-56820D01*
X22112Y-56820D01*
X22322Y-56733D01*
X22483Y-56573D01*
X22499Y-56533D01*
X22516Y-56572D01*
X22676Y-56733D01*
X22886Y-56820D01*
X23112Y-56820D01*
X23322Y-56733D01*
X23483Y-56573D01*
X23499Y-56533D01*
X23516Y-56572D01*
X23676Y-56733D01*
X23886Y-56820D01*
X24112Y-56820D01*
X24322Y-56733D01*
X24483Y-56573D01*
X24499Y-56533D01*
X24516Y-56572D01*
X24676Y-56733D01*
X24886Y-56820D01*
X25112Y-56820D01*
X25322Y-56733D01*
X25419Y-56636D01*
X25469Y-56641D01*
X25860Y-56250D01*
X25860Y-56528D01*
X25608Y-56780D01*
X25623Y-56935D01*
X25914Y-57027D01*
X26218Y-57000D01*
X26376Y-56935D01*
X26391Y-56780D01*
X26391Y-59935D01*
X25595Y-59935D01*
X25595Y-58632D01*
X25504Y-58413D01*
X25337Y-58245D01*
X25118Y-58154D01*
X24882Y-58154D01*
X24663Y-58245D01*
X24499Y-58408D01*
X24337Y-58245D01*
X24118Y-58154D01*
X23882Y-58154D01*
X23663Y-58245D01*
X23565Y-58342D01*
X23548Y-58340D01*
X23409Y-58479D01*
X23409Y-58201D01*
X23391Y-58043D01*
X23091Y-57947D01*
X22777Y-57973D01*
X22608Y-58043D01*
X22590Y-58201D01*
X23000Y-58610D01*
X23409Y-58201D01*
X23409Y-58479D01*
X23139Y-58750D01*
X23548Y-59159D01*
X23565Y-59157D01*
X23662Y-59254D01*
X23881Y-59345D01*
X24117Y-59345D01*
X24336Y-59254D01*
X24500Y-59091D01*
X24662Y-59254D01*
X24881Y-59345D01*
X25117Y-59345D01*
X25336Y-59254D01*
X25504Y-59087D01*
X25595Y-58868D01*
X25595Y-58632D01*
X25595Y-59935D01*
X23409Y-59935D01*
X23409Y-59298D01*
X23000Y-58889D01*
X22860Y-59028D01*
X22860Y-58750D01*
X22451Y-58340D01*
X22293Y-58358D01*
X22197Y-58658D01*
X22223Y-58972D01*
X22293Y-59141D01*
X22451Y-59159D01*
X22860Y-58750D01*
X22860Y-59028D01*
X22590Y-59298D01*
X22608Y-59456D01*
X22908Y-59552D01*
X23222Y-59526D01*
X23391Y-59456D01*
X23409Y-59298D01*
X23409Y-59935D01*
X19391Y-59935D01*
X19391Y-56780D01*
X19000Y-56389D01*
X18860Y-56528D01*
X18860Y-56250D01*
X18761Y-56150D01*
X18750Y-56031D01*
X18685Y-55873D01*
X18530Y-55858D01*
X18499Y-55889D01*
X18469Y-55858D01*
X18391Y-55866D01*
X18391Y-55719D01*
X18376Y-55564D01*
X18085Y-55472D01*
X17781Y-55499D01*
X17623Y-55564D01*
X17608Y-55719D01*
X18000Y-56110D01*
X18391Y-55719D01*
X18391Y-55866D01*
X18314Y-55873D01*
X18222Y-56164D01*
X18222Y-56166D01*
X18139Y-56250D01*
X18238Y-56349D01*
X18249Y-56468D01*
X18314Y-56626D01*
X18469Y-56641D01*
X18500Y-56610D01*
X18530Y-56641D01*
X18685Y-56626D01*
X18777Y-56335D01*
X18777Y-56333D01*
X18860Y-56250D01*
X18860Y-56528D01*
X18608Y-56780D01*
X18623Y-56935D01*
X18914Y-57027D01*
X19218Y-57000D01*
X19376Y-56935D01*
X19391Y-56780D01*
X19391Y-59935D01*
X18391Y-59935D01*
X18391Y-56780D01*
X18000Y-56389D01*
X17860Y-56528D01*
X17860Y-56250D01*
X17570Y-55959D01*
X17570Y-55916D01*
X17525Y-55807D01*
X17442Y-55724D01*
X17333Y-55679D01*
X17216Y-55679D01*
X16666Y-55679D01*
X16557Y-55724D01*
X16474Y-55807D01*
X16429Y-55916D01*
X16429Y-56033D01*
X16429Y-56583D01*
X16474Y-56692D01*
X16557Y-56775D01*
X16666Y-56820D01*
X16783Y-56820D01*
X17333Y-56820D01*
X17442Y-56775D01*
X17525Y-56692D01*
X17570Y-56583D01*
X17570Y-56540D01*
X17860Y-56250D01*
X17860Y-56528D01*
X17608Y-56780D01*
X17623Y-56935D01*
X17914Y-57027D01*
X18218Y-57000D01*
X18376Y-56935D01*
X18391Y-56780D01*
X18391Y-59935D01*
X15984Y-59935D01*
X15984Y-58055D01*
X15834Y-57693D01*
X15558Y-57416D01*
X15496Y-57390D01*
X15496Y-39302D01*
X15496Y-39106D01*
X15496Y-38953D01*
X15496Y-38510D01*
X15496Y-38357D01*
X15496Y-38161D01*
X15496Y-35838D01*
X15496Y-35642D01*
X15496Y-35489D01*
X15373Y-35366D01*
X14098Y-35366D01*
X14098Y-36109D01*
X14221Y-36232D01*
X15101Y-36232D01*
X15282Y-36157D01*
X15421Y-36018D01*
X15496Y-35838D01*
X15496Y-38161D01*
X15421Y-37981D01*
X15282Y-37842D01*
X15101Y-37767D01*
X14221Y-37767D01*
X14098Y-37890D01*
X14098Y-38633D01*
X15373Y-38633D01*
X15496Y-38510D01*
X15496Y-38953D01*
X15373Y-38830D01*
X14098Y-38830D01*
X14098Y-39573D01*
X14221Y-39696D01*
X15101Y-39696D01*
X15282Y-39621D01*
X15421Y-39483D01*
X15496Y-39302D01*
X15496Y-57390D01*
X15196Y-57265D01*
X14805Y-57265D01*
X14443Y-57415D01*
X14166Y-57691D01*
X14015Y-58053D01*
X14015Y-58444D01*
X14165Y-58806D01*
X14441Y-59083D01*
X14803Y-59234D01*
X15194Y-59234D01*
X15556Y-59084D01*
X15833Y-58808D01*
X15984Y-58446D01*
X15984Y-58055D01*
X15984Y-59935D01*
X13314Y-59935D01*
X13314Y-42500D01*
X13314Y-39696D01*
X13778Y-39696D01*
X13901Y-39573D01*
X13901Y-38830D01*
X13893Y-38830D01*
X13893Y-38633D01*
X13901Y-38633D01*
X13901Y-37890D01*
X13778Y-37767D01*
X13314Y-37767D01*
X13314Y-36232D01*
X13778Y-36232D01*
X13901Y-36109D01*
X13901Y-35366D01*
X13893Y-35366D01*
X13893Y-35169D01*
X13901Y-35169D01*
X13901Y-34426D01*
X13778Y-34303D01*
X13314Y-34303D01*
X13314Y-13314D01*
X20053Y-13314D01*
X20053Y-13778D01*
X20176Y-13901D01*
X20919Y-13901D01*
X20919Y-13893D01*
X21116Y-13893D01*
X21116Y-13901D01*
X21859Y-13901D01*
X21982Y-13778D01*
X21982Y-13314D01*
X23517Y-13314D01*
X23517Y-13778D01*
X23640Y-13901D01*
X24383Y-13901D01*
X24383Y-13893D01*
X24580Y-13893D01*
X24580Y-13901D01*
X24588Y-13901D01*
X24588Y-14098D01*
X24580Y-14098D01*
X24580Y-15373D01*
X24703Y-15496D01*
X24856Y-15496D01*
X25052Y-15496D01*
X25233Y-15421D01*
X25371Y-15282D01*
X25446Y-15101D01*
X25446Y-14221D01*
X25323Y-14098D01*
X25395Y-14098D01*
X25404Y-14143D01*
X25485Y-14264D01*
X25606Y-14345D01*
X25750Y-14374D01*
X26696Y-14374D01*
X26724Y-14442D01*
X26807Y-14525D01*
X26916Y-14570D01*
X27033Y-14570D01*
X27583Y-14570D01*
X27692Y-14525D01*
X27775Y-14442D01*
X27820Y-14333D01*
X27820Y-14290D01*
X28110Y-14000D01*
X27820Y-13709D01*
X27820Y-13666D01*
X27775Y-13557D01*
X27692Y-13474D01*
X27583Y-13429D01*
X27466Y-13429D01*
X26916Y-13429D01*
X26807Y-13474D01*
X26724Y-13557D01*
X26696Y-13625D01*
X25750Y-13625D01*
X25606Y-13654D01*
X25485Y-13735D01*
X25404Y-13856D01*
X25395Y-13901D01*
X25323Y-13901D01*
X25446Y-13778D01*
X25446Y-13314D01*
X27873Y-13314D01*
X27858Y-13469D01*
X28250Y-13860D01*
X28641Y-13469D01*
X28626Y-13314D01*
X31873Y-13314D01*
X31858Y-13469D01*
X32250Y-13860D01*
X32641Y-13469D01*
X32626Y-13314D01*
X35873Y-13314D01*
X35858Y-13469D01*
X36250Y-13860D01*
X36641Y-13469D01*
X36626Y-13314D01*
X41185Y-13314D01*
X41185Y-17053D01*
X40721Y-17053D01*
X40598Y-17176D01*
X40598Y-17919D01*
X40606Y-17919D01*
X40606Y-18116D01*
X40598Y-18116D01*
X40598Y-18859D01*
X40721Y-18982D01*
X41185Y-18982D01*
X41185Y-20517D01*
X40721Y-20517D01*
X40598Y-20640D01*
X40598Y-21383D01*
X40606Y-21383D01*
X40606Y-21580D01*
X40598Y-21580D01*
X40598Y-22323D01*
X40721Y-22446D01*
X41185Y-22446D01*
X41185Y-25873D01*
X41070Y-25862D01*
X41070Y-25137D01*
X40983Y-24927D01*
X40823Y-24766D01*
X40613Y-24679D01*
X40484Y-24679D01*
X40484Y-14805D01*
X40334Y-14443D01*
X40058Y-14166D01*
X39696Y-14015D01*
X39305Y-14015D01*
X38943Y-14165D01*
X38666Y-14441D01*
X38515Y-14803D01*
X38515Y-15194D01*
X38665Y-15556D01*
X38941Y-15833D01*
X39303Y-15984D01*
X39694Y-15984D01*
X40056Y-15834D01*
X40333Y-15558D01*
X40484Y-15196D01*
X40484Y-14805D01*
X40484Y-24679D01*
X40401Y-24679D01*
X40401Y-22323D01*
X40401Y-21580D01*
X40401Y-21383D01*
X40401Y-20640D01*
X40401Y-18859D01*
X40401Y-18116D01*
X40401Y-17919D01*
X40401Y-17176D01*
X40278Y-17053D01*
X39398Y-17053D01*
X39217Y-17128D01*
X39078Y-17266D01*
X39003Y-17447D01*
X39003Y-17643D01*
X39003Y-17796D01*
X39126Y-17919D01*
X40401Y-17919D01*
X40401Y-18116D01*
X39126Y-18116D01*
X39003Y-18239D01*
X39003Y-18392D01*
X39003Y-18588D01*
X39078Y-18768D01*
X39217Y-18907D01*
X39398Y-18982D01*
X40278Y-18982D01*
X40401Y-18859D01*
X40401Y-20640D01*
X40278Y-20517D01*
X39398Y-20517D01*
X39217Y-20592D01*
X39078Y-20731D01*
X39003Y-20911D01*
X39003Y-21107D01*
X39003Y-21260D01*
X39126Y-21383D01*
X40401Y-21383D01*
X40401Y-21580D01*
X39126Y-21580D01*
X39003Y-21703D01*
X39003Y-21856D01*
X39003Y-22052D01*
X39078Y-22233D01*
X39217Y-22371D01*
X39398Y-22446D01*
X40278Y-22446D01*
X40401Y-22323D01*
X40401Y-24679D01*
X40387Y-24679D01*
X40177Y-24766D01*
X40016Y-24926D01*
X39929Y-25136D01*
X39929Y-25362D01*
X40016Y-25572D01*
X40113Y-25669D01*
X40108Y-25719D01*
X40500Y-26110D01*
X40891Y-25719D01*
X40886Y-25669D01*
X40983Y-25573D01*
X41070Y-25363D01*
X41070Y-25137D01*
X41070Y-25862D01*
X41030Y-25858D01*
X40639Y-26250D01*
X41030Y-26641D01*
X41185Y-26626D01*
X41185Y-34303D01*
X41070Y-34303D01*
X41070Y-27583D01*
X41070Y-27466D01*
X41070Y-26916D01*
X41025Y-26807D01*
X40942Y-26724D01*
X40833Y-26679D01*
X40790Y-26679D01*
X40500Y-26389D01*
X40360Y-26528D01*
X40360Y-26250D01*
X39969Y-25858D01*
X39814Y-25873D01*
X39722Y-26164D01*
X39749Y-26468D01*
X39814Y-26626D01*
X39969Y-26641D01*
X40360Y-26250D01*
X40360Y-26528D01*
X40209Y-26679D01*
X40166Y-26679D01*
X40057Y-26724D01*
X39974Y-26807D01*
X39929Y-26916D01*
X39929Y-27033D01*
X39929Y-27583D01*
X39974Y-27692D01*
X40057Y-27775D01*
X40166Y-27820D01*
X40283Y-27820D01*
X40833Y-27820D01*
X40942Y-27775D01*
X41025Y-27692D01*
X41070Y-27583D01*
X41070Y-34303D01*
X40721Y-34303D01*
X40710Y-34314D01*
X40710Y-31235D01*
X40710Y-30764D01*
X40570Y-30474D01*
X40445Y-30359D01*
X40507Y-30266D01*
X40560Y-30000D01*
X40507Y-29733D01*
X40357Y-29508D01*
X40131Y-29357D01*
X39865Y-29304D01*
X39634Y-29304D01*
X39368Y-29357D01*
X39142Y-29508D01*
X38992Y-29733D01*
X38939Y-30000D01*
X38992Y-30266D01*
X39054Y-30359D01*
X38929Y-30474D01*
X38789Y-30764D01*
X38887Y-30901D01*
X39651Y-30901D01*
X39651Y-30893D01*
X39848Y-30893D01*
X39848Y-30901D01*
X40612Y-30901D01*
X40710Y-30764D01*
X40710Y-31235D01*
X40612Y-31098D01*
X39848Y-31098D01*
X39848Y-31106D01*
X39651Y-31106D01*
X39651Y-31098D01*
X38887Y-31098D01*
X38789Y-31235D01*
X38929Y-31525D01*
X39054Y-31640D01*
X38992Y-31733D01*
X38939Y-32000D01*
X38992Y-32266D01*
X39142Y-32491D01*
X39368Y-32642D01*
X39634Y-32695D01*
X39865Y-32695D01*
X40131Y-32642D01*
X40357Y-32491D01*
X40507Y-32266D01*
X40560Y-32000D01*
X40507Y-31733D01*
X40445Y-31640D01*
X40570Y-31525D01*
X40710Y-31235D01*
X40710Y-34314D01*
X40598Y-34426D01*
X40598Y-35169D01*
X40606Y-35169D01*
X40606Y-35366D01*
X40598Y-35366D01*
X40598Y-36109D01*
X40721Y-36232D01*
X41185Y-36232D01*
X41185Y-37767D01*
X40721Y-37767D01*
X40598Y-37890D01*
X40598Y-38633D01*
X40606Y-38633D01*
X40606Y-38830D01*
X40598Y-38830D01*
X40598Y-39573D01*
X40721Y-39696D01*
X41185Y-39696D01*
X41185Y-59935D01*
M02*
