%FSLAX34Y34*%
G04 Gerber Fmt 3.4, Leading zero omitted, Abs format*
G04 (created by PCBNEW (2014-03-19 BZR 4756)-product) date Thu May 22 10:07:56 2014*
%MOIN*%
G01*
G70*
G90*
G04 APERTURE LIST*
%ADD10C,0.005906*%
%ADD11R,0.055000X0.055000*%
%ADD12C,0.055000*%
%ADD13C,0.045000*%
%ADD14C,0.060000*%
%ADD15O,0.100000X0.080000*%
%ADD16C,0.035000*%
%ADD17C,0.039370*%
%ADD18C,0.015748*%
G04 APERTURE END LIST*
G54D10*
G54D11*
X14250Y-18000D03*
G54D12*
X14250Y-19000D03*
X14250Y-20000D03*
G54D11*
X40500Y-27250D03*
G54D12*
X40500Y-26250D03*
X40500Y-25250D03*
G54D11*
X14250Y-26500D03*
G54D12*
X14250Y-25500D03*
X14250Y-24500D03*
G54D13*
X21750Y-23250D03*
G54D11*
X40500Y-44000D03*
G54D12*
X40500Y-43000D03*
X40500Y-42000D03*
X40500Y-41000D03*
G54D11*
X40500Y-49000D03*
G54D12*
X40500Y-48000D03*
X40500Y-47000D03*
X40500Y-46000D03*
G54D11*
X14250Y-33500D03*
G54D12*
X14250Y-32500D03*
X14250Y-31500D03*
X14250Y-30500D03*
G54D14*
X24000Y-58750D03*
X25000Y-58750D03*
X23000Y-58750D03*
G54D11*
X17000Y-47250D03*
G54D12*
X18000Y-47250D03*
X19000Y-47250D03*
X20000Y-47250D03*
X21000Y-47250D03*
X22000Y-47250D03*
X23000Y-47250D03*
X24000Y-47250D03*
X25000Y-47250D03*
X26000Y-47250D03*
X27000Y-47250D03*
X28000Y-47250D03*
X28000Y-41250D03*
X27000Y-41250D03*
X26000Y-41250D03*
X25000Y-41250D03*
X24000Y-41250D03*
X23000Y-41250D03*
X22000Y-41250D03*
X21000Y-41250D03*
X20000Y-41250D03*
X19000Y-41250D03*
X18000Y-41250D03*
X17000Y-41250D03*
G54D11*
X17000Y-56250D03*
G54D12*
X18000Y-56250D03*
X19000Y-56250D03*
X20000Y-56250D03*
X21000Y-56250D03*
X22000Y-56250D03*
X23000Y-56250D03*
X24000Y-56250D03*
X25000Y-56250D03*
X26000Y-56250D03*
X27000Y-56250D03*
X28000Y-56250D03*
X28000Y-50250D03*
X27000Y-50250D03*
X26000Y-50250D03*
X25000Y-50250D03*
X24000Y-50250D03*
X23000Y-50250D03*
X22000Y-50250D03*
X21000Y-50250D03*
X20000Y-50250D03*
X19000Y-50250D03*
X18000Y-50250D03*
X17000Y-50250D03*
G54D11*
X32250Y-59250D03*
G54D12*
X31250Y-59250D03*
X30250Y-59250D03*
X29250Y-59250D03*
G54D11*
X27250Y-14000D03*
G54D12*
X28250Y-14000D03*
X29250Y-14000D03*
G54D11*
X31250Y-14000D03*
G54D12*
X32250Y-14000D03*
X33250Y-14000D03*
G54D11*
X35250Y-14000D03*
G54D12*
X36250Y-14000D03*
X37250Y-14000D03*
G54D15*
X39750Y-31000D03*
X39750Y-32000D03*
X39750Y-30000D03*
G54D16*
X35750Y-25750D03*
X28500Y-35250D03*
X28500Y-34250D03*
X22500Y-38500D03*
X38500Y-21250D03*
X36000Y-21250D03*
X31250Y-31750D03*
X31250Y-31250D03*
X30750Y-31250D03*
X30750Y-31750D03*
X30750Y-32250D03*
X31250Y-32250D03*
X31250Y-32750D03*
X30750Y-32750D03*
X33750Y-32750D03*
X33250Y-32750D03*
X33250Y-32250D03*
X33750Y-32250D03*
X33750Y-31750D03*
X33250Y-31750D03*
X33250Y-31250D03*
X33750Y-31250D03*
X34250Y-31250D03*
X34750Y-31250D03*
X34750Y-31750D03*
X34750Y-32250D03*
X34750Y-32750D03*
X34750Y-33250D03*
X34750Y-33750D03*
X29750Y-33750D03*
X29750Y-33250D03*
X29750Y-32750D03*
X29750Y-32250D03*
X29750Y-31750D03*
X29750Y-31250D03*
X34250Y-31750D03*
X34250Y-32250D03*
X34250Y-32750D03*
X34250Y-33250D03*
X34250Y-33750D03*
X30250Y-33750D03*
X30250Y-33250D03*
X30250Y-32750D03*
X30250Y-32250D03*
X30250Y-31750D03*
X30250Y-31250D03*
X23000Y-34250D03*
X25500Y-34750D03*
X25000Y-34750D03*
X24500Y-34750D03*
X24000Y-34750D03*
X24000Y-35250D03*
X24500Y-35250D03*
X25000Y-35250D03*
X25500Y-35250D03*
X26000Y-35250D03*
X26000Y-35750D03*
X25000Y-35750D03*
X24500Y-35750D03*
X24000Y-33250D03*
X24500Y-33250D03*
X25000Y-33250D03*
X25500Y-33250D03*
X26000Y-33250D03*
X26000Y-33750D03*
X25500Y-33750D03*
X25000Y-33750D03*
X24500Y-33750D03*
X24000Y-33750D03*
X24000Y-34250D03*
X24500Y-34250D03*
X25000Y-34250D03*
X25500Y-34250D03*
X26000Y-34250D03*
X26000Y-34750D03*
X25500Y-36545D03*
X25500Y-36000D03*
X35500Y-29250D03*
X37000Y-28750D03*
X37000Y-29500D03*
X38250Y-30500D03*
X22000Y-20250D03*
X15500Y-38750D03*
X15500Y-35500D03*
X21000Y-25000D03*
X21000Y-15500D03*
X24500Y-15500D03*
X39000Y-21500D03*
X38750Y-18000D03*
X31250Y-39500D03*
X33500Y-39500D03*
X32000Y-43000D03*
X33750Y-42750D03*
X37250Y-43250D03*
X38000Y-42750D03*
X37000Y-42750D03*
X36250Y-42750D03*
X35500Y-42750D03*
X34750Y-42750D03*
X29750Y-19500D03*
X32250Y-20250D03*
X17250Y-34750D03*
X17250Y-28250D03*
X17750Y-30500D03*
X17750Y-34000D03*
X20250Y-34500D03*
X20000Y-34000D03*
X20500Y-29500D03*
X23000Y-33500D03*
X18000Y-26750D03*
X19500Y-21000D03*
X20250Y-23750D03*
X22750Y-24250D03*
X17000Y-25500D03*
X26500Y-21750D03*
X29750Y-21250D03*
X31000Y-17000D03*
X31000Y-18000D03*
X14500Y-47500D03*
X14000Y-44500D03*
X33750Y-25500D03*
X32750Y-26250D03*
X29250Y-30250D03*
X28250Y-29250D03*
X32000Y-37500D03*
X31250Y-37500D03*
X32500Y-37250D03*
X20000Y-38500D03*
X29250Y-33000D03*
X38500Y-46750D03*
X39250Y-44500D03*
X39000Y-35250D03*
X39000Y-38750D03*
X38500Y-41000D03*
X40000Y-45000D03*
X32750Y-21750D03*
X33000Y-17500D03*
X23250Y-35500D03*
X22000Y-28250D03*
X38000Y-38750D03*
X38000Y-35000D03*
X37000Y-33500D03*
X25250Y-30250D03*
X35500Y-35250D03*
X34250Y-39750D03*
X15250Y-34000D03*
X17000Y-35250D03*
X29250Y-22750D03*
X33500Y-22750D03*
X38500Y-47500D03*
X38500Y-44750D03*
X37275Y-48375D03*
X34075Y-48375D03*
X37875Y-45375D03*
X33075Y-46675D03*
X36475Y-47875D03*
X34075Y-47875D03*
X36475Y-45575D03*
X33375Y-45875D03*
X35675Y-47275D03*
X34075Y-47275D03*
X35675Y-45175D03*
X33675Y-45175D03*
X34750Y-37750D03*
X30500Y-14000D03*
X18750Y-36000D03*
X31250Y-26000D03*
X32500Y-25750D03*
X24750Y-26000D03*
X24750Y-25000D03*
X24250Y-19500D03*
X29250Y-38000D03*
X30000Y-15500D03*
X34250Y-36000D03*
X18250Y-34000D03*
X24000Y-21250D03*
X29500Y-35750D03*
G54D17*
X29250Y-58500D02*
X29500Y-58250D01*
X29500Y-58250D02*
X32000Y-58250D01*
X32000Y-58250D02*
X32250Y-58500D01*
X32250Y-58500D02*
X32250Y-59250D01*
X29250Y-59250D02*
X29250Y-58500D01*
G54D18*
X23250Y-35500D02*
X23250Y-35750D01*
X23250Y-35750D02*
X22000Y-34500D01*
X22000Y-34500D02*
X22000Y-28250D01*
X38000Y-38750D02*
X38000Y-35000D01*
X35500Y-35250D02*
X35500Y-38750D01*
X35500Y-38750D02*
X34500Y-39750D01*
X34500Y-39750D02*
X34250Y-39750D01*
X34750Y-37750D02*
X34750Y-35250D01*
X34750Y-35250D02*
X32750Y-33250D01*
X32750Y-33250D02*
X32750Y-28250D01*
X32750Y-28250D02*
X34500Y-26500D01*
X34500Y-26500D02*
X34500Y-25250D01*
X33750Y-24500D02*
X31500Y-22250D01*
X34500Y-25250D02*
X33750Y-24500D01*
X31500Y-22250D02*
X31500Y-19250D01*
X31500Y-19250D02*
X30500Y-18250D01*
X30500Y-18250D02*
X30500Y-14000D01*
X18750Y-36000D02*
X19500Y-35250D01*
X19500Y-35250D02*
X19500Y-28000D01*
X19500Y-28000D02*
X21500Y-26000D01*
X24750Y-26000D02*
X31250Y-26000D01*
X21500Y-26000D02*
X24750Y-26000D01*
X32500Y-25750D02*
X33750Y-24500D01*
X24750Y-20000D02*
X24750Y-25000D01*
X24250Y-19500D02*
X24750Y-20000D01*
X29250Y-38000D02*
X34250Y-38000D01*
X34250Y-38000D02*
X34500Y-37750D01*
X34500Y-37750D02*
X34750Y-37750D01*
X30000Y-18250D02*
X30000Y-15500D01*
X31000Y-19250D02*
X30000Y-18250D01*
X31000Y-22500D02*
X31000Y-19250D01*
X32000Y-23500D02*
X31000Y-22500D01*
X32000Y-25500D02*
X32000Y-23500D01*
X32000Y-33750D02*
X32000Y-25500D01*
X34250Y-36000D02*
X32000Y-33750D01*
X18250Y-34000D02*
X19000Y-33250D01*
X19000Y-33250D02*
X19000Y-27750D01*
X19000Y-27750D02*
X21250Y-25500D01*
X24000Y-25500D02*
X32000Y-25500D01*
X21250Y-25500D02*
X24000Y-25500D01*
X24000Y-21250D02*
X24000Y-25500D01*
X29500Y-35750D02*
X31500Y-33750D01*
X31500Y-33750D02*
X32000Y-33750D01*
M02*
