%FSLAX34Y34*%
G04 Gerber Fmt 3.4, Leading zero omitted, Abs format*
G04 (created by PCBNEW (2014-03-19 BZR 4756)-product) date Wed May 28 16:29:02 2014*
%MOIN*%
G01*
G70*
G90*
G04 APERTURE LIST*
%ADD10C,0.005906*%
%ADD11R,0.200787X0.094488*%
%ADD12R,0.094488X0.200787*%
%ADD13R,0.055000X0.055000*%
%ADD14C,0.055000*%
%ADD15C,0.045000*%
%ADD16O,0.098400X0.059100*%
%ADD17C,0.035000*%
%ADD18C,0.015748*%
%ADD19C,0.039370*%
%ADD20C,0.031496*%
G04 APERTURE END LIST*
G54D10*
G54D11*
X14000Y-38732D03*
X14000Y-35267D03*
G54D12*
X21017Y-14000D03*
X24482Y-14000D03*
G54D11*
X40500Y-38732D03*
X40500Y-35267D03*
X40500Y-21482D03*
X40500Y-18017D03*
G54D13*
X14250Y-18000D03*
G54D14*
X14250Y-19000D03*
X14250Y-20000D03*
G54D13*
X40500Y-25500D03*
G54D14*
X40500Y-24500D03*
X40500Y-23500D03*
G54D13*
X14250Y-26500D03*
G54D14*
X14250Y-25500D03*
X14250Y-24500D03*
G54D15*
X21750Y-23250D03*
G54D13*
X33850Y-43750D03*
G54D14*
X34850Y-43750D03*
X35850Y-43750D03*
X36850Y-43750D03*
G54D13*
X26650Y-43750D03*
G54D14*
X27650Y-43750D03*
X28650Y-43750D03*
X29650Y-43750D03*
G54D13*
X14250Y-33500D03*
G54D14*
X14250Y-32500D03*
X14250Y-31500D03*
X14250Y-30500D03*
G54D13*
X27250Y-14000D03*
G54D14*
X28250Y-14000D03*
X29250Y-14000D03*
G54D13*
X31250Y-14000D03*
G54D14*
X32250Y-14000D03*
X33250Y-14000D03*
G54D13*
X35250Y-14000D03*
G54D14*
X36250Y-14000D03*
X37250Y-14000D03*
G54D13*
X24550Y-43750D03*
G54D14*
X23550Y-43750D03*
X22550Y-43750D03*
G54D16*
X39500Y-28600D03*
X39500Y-27600D03*
X39500Y-29600D03*
G54D17*
X34750Y-31250D03*
X34750Y-31750D03*
X34750Y-32250D03*
X34750Y-32750D03*
X34750Y-33250D03*
X34750Y-33750D03*
X29750Y-33750D03*
X29750Y-33250D03*
X29750Y-32750D03*
X29750Y-32250D03*
X29750Y-31750D03*
X29750Y-31250D03*
X36350Y-35550D03*
X24550Y-38750D03*
X33750Y-32750D03*
X30750Y-32750D03*
X24500Y-15500D03*
X21000Y-15500D03*
X39000Y-21500D03*
X38750Y-18000D03*
X39000Y-35250D03*
X39000Y-38750D03*
X15500Y-38750D03*
X15500Y-35500D03*
X28500Y-35250D03*
X28500Y-34250D03*
X22500Y-38500D03*
X38500Y-21250D03*
X36000Y-21250D03*
X31250Y-31750D03*
X31250Y-31250D03*
X30750Y-31250D03*
X30750Y-31750D03*
X30750Y-32250D03*
X31250Y-32250D03*
X31250Y-32750D03*
X33250Y-32750D03*
X33250Y-32250D03*
X33750Y-32250D03*
X33750Y-31750D03*
X33250Y-31750D03*
X33250Y-31250D03*
X33750Y-31250D03*
X34250Y-31250D03*
X34250Y-31750D03*
X34250Y-32250D03*
X34250Y-32750D03*
X34250Y-33250D03*
X34250Y-33750D03*
X30250Y-33750D03*
X30250Y-33250D03*
X30250Y-32750D03*
X30250Y-32250D03*
X30250Y-31750D03*
X30250Y-31250D03*
X23000Y-34250D03*
X25500Y-34750D03*
X25000Y-34750D03*
X24500Y-34750D03*
X24000Y-34750D03*
X24000Y-35250D03*
X24500Y-35250D03*
X25000Y-35250D03*
X25500Y-35250D03*
X26000Y-35250D03*
X26000Y-35750D03*
X25000Y-35750D03*
X24500Y-35750D03*
X24000Y-33250D03*
X24500Y-33250D03*
X25000Y-33250D03*
X25500Y-33250D03*
X26000Y-33250D03*
X26000Y-33750D03*
X25500Y-33750D03*
X25000Y-33750D03*
X24500Y-33750D03*
X24000Y-33750D03*
X24000Y-34250D03*
X24500Y-34250D03*
X25000Y-34250D03*
X25500Y-34250D03*
X26000Y-34250D03*
X26000Y-34750D03*
X25500Y-36545D03*
X25500Y-36000D03*
X35500Y-29250D03*
X36600Y-28700D03*
X22000Y-20250D03*
X21000Y-25000D03*
X29750Y-19500D03*
X32250Y-20250D03*
X17250Y-34750D03*
X17250Y-28250D03*
X17750Y-30500D03*
X17750Y-34000D03*
X20250Y-34500D03*
X20000Y-34000D03*
X20500Y-29500D03*
X23000Y-33500D03*
X18000Y-26750D03*
X19500Y-21000D03*
X20250Y-23750D03*
X22750Y-24250D03*
X17000Y-25500D03*
X26500Y-21750D03*
X29750Y-21250D03*
X31000Y-17000D03*
X31000Y-18000D03*
X33750Y-25500D03*
X32750Y-26250D03*
X29250Y-30250D03*
X28250Y-29250D03*
X32000Y-37500D03*
X31250Y-37500D03*
X32500Y-37250D03*
X20000Y-38500D03*
X29250Y-33000D03*
X36650Y-31000D03*
X40450Y-32750D03*
X35050Y-39850D03*
X32750Y-40650D03*
X30550Y-42550D03*
X28150Y-38950D03*
X21150Y-43050D03*
X22050Y-39550D03*
X17450Y-39750D03*
X17450Y-40550D03*
X18850Y-41350D03*
X18850Y-42450D03*
X33000Y-17500D03*
X32750Y-21750D03*
X37950Y-25550D03*
X22000Y-28250D03*
X22950Y-41250D03*
X22850Y-35150D03*
X30550Y-43050D03*
X23350Y-40550D03*
X34450Y-29250D03*
X15250Y-34000D03*
X17000Y-35250D03*
X35050Y-42650D03*
X36050Y-40350D03*
X29250Y-22750D03*
X33500Y-22750D03*
X26250Y-41750D03*
X26250Y-39450D03*
X26950Y-39850D03*
X26750Y-41250D03*
X34750Y-37750D03*
X30500Y-14000D03*
X18750Y-36000D03*
X31250Y-26000D03*
X32500Y-25750D03*
X24750Y-26000D03*
X24750Y-25000D03*
X24250Y-19500D03*
X29250Y-38000D03*
X30000Y-15500D03*
X34250Y-36000D03*
X18250Y-34000D03*
X24000Y-21250D03*
X29500Y-35750D03*
G54D18*
X36350Y-35550D02*
X36350Y-38550D01*
X36350Y-38550D02*
X35950Y-38950D01*
X35950Y-38950D02*
X28950Y-38950D01*
X28950Y-38950D02*
X28450Y-38450D01*
X28450Y-38450D02*
X27650Y-38450D01*
X27650Y-38450D02*
X25150Y-38450D01*
X25150Y-38450D02*
X24850Y-38750D01*
X24850Y-38750D02*
X24550Y-38750D01*
G54D19*
X24482Y-14000D02*
X24482Y-15482D01*
X24482Y-15482D02*
X24500Y-15500D01*
X21017Y-14000D02*
X21017Y-15482D01*
X21017Y-15482D02*
X21000Y-15500D01*
X40500Y-21482D02*
X39017Y-21482D01*
X39017Y-21482D02*
X39000Y-21500D01*
X40500Y-18017D02*
X38767Y-18017D01*
X38767Y-18017D02*
X38750Y-18000D01*
X40500Y-35267D02*
X39017Y-35267D01*
X39017Y-35267D02*
X39000Y-35250D01*
X40500Y-38732D02*
X39017Y-38732D01*
X39017Y-38732D02*
X39000Y-38750D01*
X14000Y-38732D02*
X15482Y-38732D01*
X15482Y-38732D02*
X15500Y-38750D01*
X14000Y-35267D02*
X15267Y-35267D01*
X15267Y-35267D02*
X15500Y-35500D01*
G54D18*
X25500Y-34750D02*
X25000Y-34750D01*
X24500Y-34750D02*
X24000Y-34750D01*
X24000Y-35250D02*
X24500Y-35250D01*
X25000Y-35250D02*
X25500Y-35250D01*
X26000Y-35250D02*
X26000Y-35750D01*
X25000Y-35750D02*
X24500Y-35750D01*
X24000Y-33250D02*
X24500Y-33250D01*
X25000Y-33250D02*
X25500Y-33250D01*
X26000Y-33250D02*
X26000Y-33750D01*
X25500Y-33750D02*
X25000Y-33750D01*
X24500Y-33750D02*
X24000Y-33750D01*
X24000Y-34250D02*
X24500Y-34250D01*
X25000Y-34250D02*
X25500Y-34250D01*
X26000Y-34250D02*
X26000Y-34750D01*
X25500Y-36545D02*
X25500Y-36000D01*
G54D20*
X33000Y-21500D02*
X33000Y-17500D01*
X32750Y-21750D02*
X33000Y-21500D01*
X37950Y-25550D02*
X37950Y-23350D01*
X37950Y-23350D02*
X36950Y-22350D01*
X36950Y-22350D02*
X34600Y-22350D01*
X34600Y-22350D02*
X34000Y-21750D01*
X34000Y-21750D02*
X32750Y-21750D01*
X14250Y-33500D02*
X14750Y-33500D01*
X14750Y-30500D02*
X14250Y-30500D01*
X15250Y-31000D02*
X14750Y-30500D01*
X15250Y-33000D02*
X15250Y-31000D01*
X14750Y-33500D02*
X15250Y-33000D01*
G54D18*
X15250Y-34250D02*
X15250Y-34000D01*
X16250Y-35250D02*
X15250Y-34250D01*
X17000Y-35250D02*
X16250Y-35250D01*
X36850Y-43550D02*
X36850Y-43750D01*
X33850Y-43250D02*
X34450Y-42650D01*
X34450Y-42650D02*
X35050Y-42650D01*
X33850Y-43750D02*
X33850Y-43250D01*
X34850Y-43750D02*
X35850Y-43750D01*
X35850Y-40450D02*
X35950Y-40350D01*
X35950Y-40350D02*
X36050Y-40350D01*
X35850Y-43750D02*
X35850Y-40450D01*
X29250Y-43150D02*
X26850Y-43150D01*
X26850Y-43150D02*
X26650Y-43350D01*
X26650Y-43350D02*
X26650Y-43750D01*
X29650Y-43550D02*
X29250Y-43150D01*
X29650Y-43750D02*
X29650Y-43550D01*
X27650Y-43750D02*
X28650Y-43750D01*
G54D20*
X29250Y-22750D02*
X33500Y-22750D01*
G54D18*
X26250Y-41750D02*
X26250Y-39450D01*
X26950Y-39850D02*
X26750Y-40050D01*
X26750Y-40050D02*
X26750Y-41250D01*
M02*
