%FSLAX34Y34*%
G04 Gerber Fmt 3.4, Leading zero omitted, Abs format*
G04 (created by PCBNEW (2014-03-19 BZR 4756)-product) date Wed May 28 16:29:02 2014*
%MOIN*%
G01*
G70*
G90*
G04 APERTURE LIST*
%ADD10C,0.005906*%
%ADD11R,0.035000X0.055000*%
%ADD12R,0.080000X0.060000*%
%ADD13R,0.055000X0.035000*%
%ADD14R,0.060000X0.080000*%
%ADD15R,0.047200X0.047200*%
%ADD16R,0.090600X0.137800*%
%ADD17R,0.200787X0.094488*%
%ADD18R,0.094488X0.200787*%
%ADD19R,0.055000X0.055000*%
%ADD20C,0.055000*%
%ADD21C,0.045000*%
%ADD22R,0.042000X0.090000*%
%ADD23R,0.420000X0.350000*%
%ADD24R,0.039400X0.098500*%
%ADD25R,0.078700X0.157500*%
%ADD26R,0.039400X0.027600*%
%ADD27R,0.059100X0.015700*%
%ADD28R,0.055118X0.015748*%
%ADD29R,0.020000X0.030000*%
%ADD30R,0.059055X0.023622*%
%ADD31R,0.208700X0.059100*%
%ADD32O,0.098400X0.059100*%
G04 APERTURE END LIST*
G54D10*
G54D11*
X23375Y-37000D03*
X24125Y-37000D03*
G54D12*
X35500Y-27350D03*
X35500Y-28650D03*
G54D13*
X32750Y-27625D03*
X32750Y-26875D03*
G54D12*
X33750Y-27650D03*
X33750Y-26350D03*
G54D13*
X36600Y-27325D03*
X36600Y-28075D03*
G54D11*
X27875Y-37000D03*
X28625Y-37000D03*
G54D12*
X29250Y-28100D03*
X29250Y-29400D03*
G54D14*
X27100Y-33000D03*
X28400Y-33000D03*
G54D13*
X22750Y-19125D03*
X22750Y-18375D03*
X22750Y-22125D03*
X22750Y-21375D03*
X28250Y-27875D03*
X28250Y-28625D03*
G54D11*
X27125Y-34250D03*
X27875Y-34250D03*
X27125Y-35250D03*
X27875Y-35250D03*
X31625Y-36500D03*
X32375Y-36500D03*
X24875Y-20250D03*
X25625Y-20250D03*
G54D13*
X26500Y-21125D03*
X26500Y-20375D03*
G54D11*
X35375Y-37000D03*
X36125Y-37000D03*
G54D13*
X30500Y-21875D03*
X30500Y-21125D03*
G54D11*
X31625Y-17000D03*
X32375Y-17000D03*
X31625Y-18000D03*
X32375Y-18000D03*
X34375Y-19750D03*
X35125Y-19750D03*
X21925Y-42450D03*
X21175Y-42450D03*
X20325Y-42450D03*
X19575Y-42450D03*
G54D13*
X17750Y-32625D03*
X17750Y-33375D03*
X19000Y-30125D03*
X19000Y-30875D03*
X22250Y-34375D03*
X22250Y-35125D03*
G54D11*
X21125Y-29500D03*
X21875Y-29500D03*
G54D13*
X24000Y-30875D03*
X24000Y-30125D03*
G54D15*
X14087Y-27750D03*
X14913Y-27750D03*
X14250Y-22337D03*
X14250Y-23163D03*
X19537Y-39750D03*
X20363Y-39750D03*
X19537Y-40550D03*
X20363Y-40550D03*
G54D16*
X16250Y-28437D03*
X16250Y-30563D03*
X16250Y-34563D03*
X16250Y-32437D03*
G54D17*
X14000Y-37000D03*
X14000Y-35267D03*
X14000Y-38732D03*
G54D18*
X22750Y-14000D03*
X24482Y-14000D03*
X21017Y-14000D03*
G54D17*
X40500Y-37000D03*
X40500Y-35267D03*
X40500Y-38732D03*
X40500Y-19750D03*
X40500Y-18017D03*
X40500Y-21482D03*
G54D19*
X14250Y-18000D03*
G54D20*
X14250Y-19000D03*
X14250Y-20000D03*
G54D19*
X40500Y-25500D03*
G54D20*
X40500Y-24500D03*
X40500Y-23500D03*
G54D19*
X14250Y-26500D03*
G54D20*
X14250Y-25500D03*
X14250Y-24500D03*
G54D13*
X27000Y-36125D03*
X27000Y-36875D03*
G54D11*
X29125Y-20250D03*
X28375Y-20250D03*
G54D13*
X32500Y-18875D03*
X32500Y-19625D03*
G54D21*
X21750Y-23250D03*
G54D19*
X33850Y-43750D03*
G54D20*
X34850Y-43750D03*
X35850Y-43750D03*
X36850Y-43750D03*
G54D19*
X26650Y-43750D03*
G54D20*
X27650Y-43750D03*
X28650Y-43750D03*
X29650Y-43750D03*
G54D19*
X14250Y-33500D03*
G54D20*
X14250Y-32500D03*
X14250Y-31500D03*
X14250Y-30500D03*
G54D13*
X20000Y-37875D03*
X20000Y-37125D03*
G54D11*
X20875Y-37000D03*
X21625Y-37000D03*
G54D13*
X22500Y-37875D03*
X22500Y-37125D03*
G54D14*
X15100Y-22250D03*
X16400Y-22250D03*
X17600Y-21000D03*
X18900Y-21000D03*
X15850Y-26750D03*
X17150Y-26750D03*
G54D12*
X17500Y-23650D03*
X17500Y-22350D03*
X16000Y-24350D03*
X16000Y-25650D03*
G54D13*
X20250Y-23125D03*
X20250Y-22375D03*
G54D12*
X27000Y-30600D03*
X27000Y-31900D03*
G54D11*
X21125Y-22250D03*
X21875Y-22250D03*
G54D13*
X22750Y-23625D03*
X22750Y-22875D03*
G54D11*
X31375Y-38250D03*
X30625Y-38250D03*
X32375Y-38250D03*
X33125Y-38250D03*
G54D13*
X27500Y-20375D03*
X27500Y-21125D03*
X31500Y-21875D03*
X31500Y-21125D03*
X33500Y-19875D03*
X33500Y-20625D03*
X36000Y-20625D03*
X36000Y-19875D03*
X32650Y-43725D03*
X32650Y-42975D03*
X33650Y-41175D03*
X33650Y-41925D03*
X31350Y-43725D03*
X31350Y-42975D03*
G54D11*
X30025Y-42550D03*
X29275Y-42550D03*
X37625Y-19750D03*
X36875Y-19750D03*
G54D13*
X36850Y-42625D03*
X36850Y-41875D03*
X36850Y-40375D03*
X36850Y-41125D03*
X27750Y-41925D03*
X27750Y-41175D03*
X28650Y-41925D03*
X28650Y-41175D03*
X38500Y-20625D03*
X38500Y-19875D03*
X35850Y-41175D03*
X35850Y-41925D03*
X34950Y-41925D03*
X34950Y-41175D03*
G54D11*
X35025Y-40450D03*
X34275Y-40450D03*
G54D13*
X30450Y-41175D03*
X30450Y-41925D03*
X31550Y-41925D03*
X31550Y-41175D03*
X32750Y-41175D03*
X32750Y-41925D03*
G54D11*
X23725Y-39250D03*
X22975Y-39250D03*
G54D13*
X25550Y-39175D03*
X25550Y-39925D03*
G54D11*
X27625Y-38950D03*
X26875Y-38950D03*
X20325Y-41350D03*
X19575Y-41350D03*
X18175Y-39750D03*
X18925Y-39750D03*
X18175Y-40550D03*
X18925Y-40550D03*
G54D13*
X19000Y-29375D03*
X19000Y-28625D03*
X17750Y-31125D03*
X17750Y-31875D03*
G54D11*
X19625Y-35250D03*
X18875Y-35250D03*
G54D13*
X18750Y-33125D03*
X18750Y-33875D03*
X23000Y-30875D03*
X23000Y-30125D03*
X23000Y-32875D03*
X23000Y-32125D03*
G54D22*
X33590Y-29250D03*
G54D23*
X32250Y-32700D03*
G54D22*
X32250Y-29250D03*
X32920Y-29250D03*
X31580Y-29250D03*
X30910Y-29250D03*
G54D24*
X24909Y-37176D03*
X25500Y-37176D03*
X26091Y-37176D03*
G54D25*
X25500Y-35620D03*
G54D10*
G36*
X25894Y-36397D02*
X25697Y-36692D01*
X25303Y-36692D01*
X25106Y-36397D01*
X25894Y-36397D01*
X25894Y-36397D01*
G37*
G54D26*
X29500Y-37375D03*
X29500Y-37000D03*
X29500Y-36625D03*
X30500Y-36625D03*
X30500Y-37000D03*
X30500Y-37375D03*
X23750Y-19875D03*
X23750Y-20250D03*
X23750Y-20625D03*
X22750Y-20625D03*
X22750Y-20250D03*
X22750Y-19875D03*
X34250Y-36625D03*
X34250Y-37000D03*
X34250Y-37375D03*
X33250Y-37375D03*
X33250Y-37000D03*
X33250Y-36625D03*
G54D27*
X30476Y-19744D03*
X30476Y-20000D03*
X30476Y-20256D03*
X31524Y-20256D03*
X31524Y-20000D03*
X31524Y-19744D03*
G54D28*
X24252Y-40875D03*
X24252Y-40625D03*
X24252Y-40375D03*
X24252Y-40125D03*
X22047Y-41625D03*
X24252Y-41625D03*
X24252Y-41375D03*
X24252Y-41125D03*
X22047Y-39875D03*
X22047Y-40125D03*
X22047Y-40375D03*
X22047Y-40625D03*
X22047Y-40875D03*
X22047Y-41125D03*
X24252Y-39875D03*
X22047Y-41375D03*
G54D29*
X21375Y-34250D03*
X20625Y-34250D03*
X21375Y-35250D03*
X21000Y-34250D03*
X20625Y-35250D03*
G54D30*
X19937Y-30500D03*
X19937Y-31000D03*
X19937Y-31500D03*
X19937Y-32000D03*
X19937Y-32500D03*
X19937Y-33000D03*
X19937Y-33500D03*
X22062Y-33500D03*
X22062Y-33000D03*
X22062Y-32500D03*
X22062Y-32000D03*
X22062Y-31500D03*
X22062Y-31000D03*
X22062Y-30500D03*
G54D14*
X20150Y-25000D03*
X18850Y-25000D03*
G54D12*
X19000Y-22350D03*
X19000Y-23650D03*
G54D31*
X35500Y-24500D03*
X35500Y-26200D03*
G54D19*
X27250Y-14000D03*
G54D20*
X28250Y-14000D03*
X29250Y-14000D03*
G54D19*
X31250Y-14000D03*
G54D20*
X32250Y-14000D03*
X33250Y-14000D03*
G54D19*
X35250Y-14000D03*
G54D20*
X36250Y-14000D03*
X37250Y-14000D03*
G54D13*
X18000Y-35375D03*
X18000Y-34625D03*
G54D12*
X39500Y-31450D03*
X39500Y-32750D03*
G54D13*
X36600Y-29625D03*
X36600Y-30375D03*
G54D19*
X24550Y-43750D03*
G54D20*
X23550Y-43750D03*
X22550Y-43750D03*
G54D32*
X39500Y-28600D03*
X39500Y-27600D03*
X39500Y-29600D03*
M02*
