%FSLAX34Y34*%
G04 Gerber Fmt 3.4, Leading zero omitted, Abs format*
G04 (created by PCBNEW (2014-03-19 BZR 4756)-product) date Wed May 28 16:29:02 2014*
%MOIN*%
G01*
G70*
G90*
G04 APERTURE LIST*
%ADD10C,0.005906*%
%ADD11C,0.007874*%
%ADD12C,0.011811*%
%ADD13C,0.006890*%
%ADD14C,0.003900*%
%ADD15C,0.005000*%
%ADD16C,0.002600*%
%ADD17C,0.004000*%
%ADD18C,0.002000*%
%ADD19C,0.015000*%
%ADD20C,0.012000*%
%ADD21C,0.008000*%
G04 APERTURE END LIST*
G54D10*
G54D11*
X23750Y-41900D02*
G75*
G03X23750Y-41900I-50J0D01*
G74*
G01*
G54D12*
X19047Y-43963D02*
X19047Y-43491D01*
X19047Y-43716D02*
X19317Y-43716D01*
X19317Y-43963D02*
X19317Y-43491D01*
X19475Y-43491D02*
X19632Y-43963D01*
X19790Y-43491D01*
X19947Y-43963D02*
X19947Y-43491D01*
X20105Y-43828D01*
X20262Y-43491D01*
X20262Y-43963D01*
X20577Y-43491D02*
X20667Y-43491D01*
X20712Y-43513D01*
X20757Y-43558D01*
X20779Y-43648D01*
X20779Y-43806D01*
X20757Y-43896D01*
X20712Y-43941D01*
X20667Y-43963D01*
X20577Y-43963D01*
X20532Y-43941D01*
X20487Y-43896D01*
X20464Y-43806D01*
X20464Y-43648D01*
X20487Y-43558D01*
X20532Y-43513D01*
X20577Y-43491D01*
X20982Y-43963D02*
X20982Y-43491D01*
X21252Y-43963D01*
X21252Y-43491D01*
G54D10*
X33273Y-42799D02*
X33363Y-42799D01*
X33307Y-42956D02*
X33307Y-42754D01*
X33318Y-42731D01*
X33341Y-42720D01*
X33363Y-42720D01*
X33420Y-42799D02*
X33465Y-42956D01*
X33510Y-42844D01*
X33555Y-42956D01*
X33600Y-42799D01*
X33791Y-42956D02*
X33791Y-42720D01*
X33791Y-42945D02*
X33768Y-42956D01*
X33723Y-42956D01*
X33701Y-42945D01*
X33690Y-42934D01*
X33678Y-42911D01*
X33678Y-42844D01*
X33690Y-42821D01*
X33701Y-42810D01*
X33723Y-42799D01*
X33768Y-42799D01*
X33791Y-42810D01*
X34050Y-42799D02*
X34139Y-42799D01*
X34083Y-42956D02*
X34083Y-42754D01*
X34094Y-42731D01*
X34117Y-42720D01*
X34139Y-42720D01*
X34319Y-42956D02*
X34319Y-42833D01*
X34308Y-42810D01*
X34286Y-42799D01*
X34241Y-42799D01*
X34218Y-42810D01*
X34319Y-42945D02*
X34297Y-42956D01*
X34241Y-42956D01*
X34218Y-42945D01*
X34207Y-42923D01*
X34207Y-42900D01*
X34218Y-42878D01*
X34241Y-42866D01*
X34297Y-42866D01*
X34319Y-42855D01*
X34533Y-42799D02*
X34533Y-42956D01*
X34432Y-42799D02*
X34432Y-42923D01*
X34443Y-42945D01*
X34466Y-42956D01*
X34499Y-42956D01*
X34522Y-42945D01*
X34533Y-42934D01*
X34679Y-42956D02*
X34657Y-42945D01*
X34646Y-42923D01*
X34646Y-42720D01*
X34736Y-42799D02*
X34826Y-42799D01*
X34769Y-42720D02*
X34769Y-42923D01*
X34781Y-42945D01*
X34803Y-42956D01*
X34826Y-42956D01*
G54D12*
X25612Y-22979D02*
X25612Y-23384D01*
X25589Y-23429D01*
X25544Y-23451D01*
X25522Y-23451D01*
X25612Y-22821D02*
X25589Y-22844D01*
X25612Y-22866D01*
X25634Y-22844D01*
X25612Y-22821D01*
X25612Y-22866D01*
X25904Y-23294D02*
X25859Y-23271D01*
X25837Y-23249D01*
X25814Y-23204D01*
X25814Y-23069D01*
X25837Y-23024D01*
X25859Y-23001D01*
X25904Y-22979D01*
X25972Y-22979D01*
X26017Y-23001D01*
X26039Y-23024D01*
X26062Y-23069D01*
X26062Y-23204D01*
X26039Y-23249D01*
X26017Y-23271D01*
X25972Y-23294D01*
X25904Y-23294D01*
X26264Y-22979D02*
X26264Y-23294D01*
X26264Y-23024D02*
X26287Y-23001D01*
X26332Y-22979D01*
X26399Y-22979D01*
X26444Y-23001D01*
X26467Y-23046D01*
X26467Y-23294D01*
X27052Y-23294D02*
X27052Y-22821D01*
X27097Y-23114D02*
X27232Y-23294D01*
X27232Y-22979D02*
X27052Y-23159D01*
X27502Y-23294D02*
X27457Y-23271D01*
X27434Y-23226D01*
X27434Y-22821D01*
X27862Y-23271D02*
X27817Y-23294D01*
X27727Y-23294D01*
X27682Y-23271D01*
X27659Y-23226D01*
X27659Y-23046D01*
X27682Y-23001D01*
X27727Y-22979D01*
X27817Y-22979D01*
X27862Y-23001D01*
X27884Y-23046D01*
X27884Y-23091D01*
X27659Y-23136D01*
X28087Y-23294D02*
X28087Y-22979D01*
X28087Y-22821D02*
X28064Y-22844D01*
X28087Y-22866D01*
X28109Y-22844D01*
X28087Y-22821D01*
X28087Y-22866D01*
X28312Y-22979D02*
X28312Y-23294D01*
X28312Y-23024D02*
X28334Y-23001D01*
X28379Y-22979D01*
X28447Y-22979D01*
X28492Y-23001D01*
X28514Y-23046D01*
X28514Y-23294D01*
X25612Y-23758D02*
X25612Y-24163D01*
X25589Y-24208D01*
X25544Y-24231D01*
X25522Y-24231D01*
X25612Y-23601D02*
X25589Y-23624D01*
X25612Y-23646D01*
X25634Y-23624D01*
X25612Y-23601D01*
X25612Y-23646D01*
X25769Y-23758D02*
X25949Y-23758D01*
X25837Y-23601D02*
X25837Y-24006D01*
X25859Y-24051D01*
X25904Y-24073D01*
X25949Y-24073D01*
X26107Y-24073D02*
X26107Y-23601D01*
X26152Y-23893D02*
X26287Y-24073D01*
X26287Y-23758D02*
X26107Y-23938D01*
X26557Y-24073D02*
X26512Y-24051D01*
X26489Y-24006D01*
X26489Y-23601D01*
X26917Y-24051D02*
X26872Y-24073D01*
X26782Y-24073D01*
X26737Y-24051D01*
X26714Y-24006D01*
X26714Y-23826D01*
X26737Y-23781D01*
X26782Y-23758D01*
X26872Y-23758D01*
X26917Y-23781D01*
X26939Y-23826D01*
X26939Y-23871D01*
X26714Y-23916D01*
X27142Y-24073D02*
X27142Y-23758D01*
X27142Y-23601D02*
X27119Y-23624D01*
X27142Y-23646D01*
X27164Y-23624D01*
X27142Y-23601D01*
X27142Y-23646D01*
X27367Y-23758D02*
X27367Y-24073D01*
X27367Y-23803D02*
X27389Y-23781D01*
X27434Y-23758D01*
X27502Y-23758D01*
X27547Y-23781D01*
X27569Y-23826D01*
X27569Y-24073D01*
X28087Y-23848D02*
X28064Y-23826D01*
X28019Y-23803D01*
X27974Y-23803D01*
X27929Y-23826D01*
X27907Y-23848D01*
X27884Y-23893D01*
X27884Y-23938D01*
X27907Y-23983D01*
X27929Y-24006D01*
X27974Y-24028D01*
X28019Y-24028D01*
X28064Y-24006D01*
X28087Y-23983D01*
X28087Y-23803D02*
X28087Y-23983D01*
X28109Y-24006D01*
X28132Y-24006D01*
X28177Y-23983D01*
X28199Y-23938D01*
X28199Y-23826D01*
X28154Y-23758D01*
X28087Y-23714D01*
X27997Y-23691D01*
X27907Y-23714D01*
X27839Y-23758D01*
X27794Y-23826D01*
X27772Y-23916D01*
X27794Y-24006D01*
X27839Y-24073D01*
X27907Y-24118D01*
X27997Y-24141D01*
X28087Y-24118D01*
X28154Y-24073D01*
X28604Y-24073D02*
X28604Y-23826D01*
X28582Y-23781D01*
X28537Y-23758D01*
X28447Y-23758D01*
X28402Y-23781D01*
X28604Y-24051D02*
X28559Y-24073D01*
X28447Y-24073D01*
X28402Y-24051D01*
X28379Y-24006D01*
X28379Y-23961D01*
X28402Y-23916D01*
X28447Y-23893D01*
X28559Y-23893D01*
X28604Y-23871D01*
X28897Y-24073D02*
X28852Y-24051D01*
X28829Y-24006D01*
X28829Y-23601D01*
X29279Y-24073D02*
X29279Y-23826D01*
X29257Y-23781D01*
X29212Y-23758D01*
X29122Y-23758D01*
X29077Y-23781D01*
X29279Y-24051D02*
X29234Y-24073D01*
X29122Y-24073D01*
X29077Y-24051D01*
X29054Y-24006D01*
X29054Y-23961D01*
X29077Y-23916D01*
X29122Y-23893D01*
X29234Y-23893D01*
X29279Y-23871D01*
X29482Y-24051D02*
X29526Y-24073D01*
X29616Y-24073D01*
X29661Y-24051D01*
X29684Y-24006D01*
X29684Y-23983D01*
X29661Y-23938D01*
X29616Y-23916D01*
X29549Y-23916D01*
X29504Y-23893D01*
X29482Y-23848D01*
X29482Y-23826D01*
X29504Y-23781D01*
X29549Y-23758D01*
X29616Y-23758D01*
X29661Y-23781D01*
X29886Y-24073D02*
X29886Y-23601D01*
X29931Y-23893D02*
X30066Y-24073D01*
X30066Y-23758D02*
X29886Y-23938D01*
X30471Y-24073D02*
X30471Y-23826D01*
X30449Y-23781D01*
X30404Y-23758D01*
X30314Y-23758D01*
X30269Y-23781D01*
X30471Y-24051D02*
X30426Y-24073D01*
X30314Y-24073D01*
X30269Y-24051D01*
X30246Y-24006D01*
X30246Y-23961D01*
X30269Y-23916D01*
X30314Y-23893D01*
X30426Y-23893D01*
X30471Y-23871D01*
X30696Y-24028D02*
X30719Y-24051D01*
X30696Y-24073D01*
X30674Y-24051D01*
X30696Y-24028D01*
X30696Y-24073D01*
X31101Y-24051D02*
X31056Y-24073D01*
X30966Y-24073D01*
X30921Y-24051D01*
X30899Y-24006D01*
X30899Y-23826D01*
X30921Y-23781D01*
X30966Y-23758D01*
X31056Y-23758D01*
X31101Y-23781D01*
X31124Y-23826D01*
X31124Y-23871D01*
X30899Y-23916D01*
X31529Y-24073D02*
X31529Y-23601D01*
X31529Y-24051D02*
X31484Y-24073D01*
X31394Y-24073D01*
X31349Y-24051D01*
X31326Y-24028D01*
X31304Y-23983D01*
X31304Y-23848D01*
X31326Y-23803D01*
X31349Y-23781D01*
X31394Y-23758D01*
X31484Y-23758D01*
X31529Y-23781D01*
X31956Y-23758D02*
X31956Y-24073D01*
X31754Y-23758D02*
X31754Y-24006D01*
X31776Y-24051D01*
X31821Y-24073D01*
X31889Y-24073D01*
X31934Y-24051D01*
X31956Y-24028D01*
X25612Y-24853D02*
X25612Y-24381D01*
X25657Y-24673D02*
X25792Y-24853D01*
X25792Y-24538D02*
X25612Y-24718D01*
X26062Y-24853D02*
X26017Y-24830D01*
X25994Y-24808D01*
X25972Y-24763D01*
X25972Y-24628D01*
X25994Y-24583D01*
X26017Y-24561D01*
X26062Y-24538D01*
X26129Y-24538D01*
X26174Y-24561D01*
X26197Y-24583D01*
X26219Y-24628D01*
X26219Y-24763D01*
X26197Y-24808D01*
X26174Y-24830D01*
X26129Y-24853D01*
X26062Y-24853D01*
X26624Y-24853D02*
X26624Y-24381D01*
X26624Y-24830D02*
X26579Y-24853D01*
X26489Y-24853D01*
X26444Y-24830D01*
X26422Y-24808D01*
X26399Y-24763D01*
X26399Y-24628D01*
X26422Y-24583D01*
X26444Y-24561D01*
X26489Y-24538D01*
X26579Y-24538D01*
X26624Y-24561D01*
X26849Y-24853D02*
X26849Y-24538D01*
X26849Y-24381D02*
X26827Y-24403D01*
X26849Y-24426D01*
X26872Y-24403D01*
X26849Y-24381D01*
X26849Y-24426D01*
X27277Y-24853D02*
X27277Y-24606D01*
X27254Y-24561D01*
X27209Y-24538D01*
X27119Y-24538D01*
X27074Y-24561D01*
X27277Y-24830D02*
X27232Y-24853D01*
X27119Y-24853D01*
X27074Y-24830D01*
X27052Y-24785D01*
X27052Y-24741D01*
X27074Y-24696D01*
X27119Y-24673D01*
X27232Y-24673D01*
X27277Y-24651D01*
X27502Y-24853D02*
X27502Y-24381D01*
X27547Y-24673D02*
X27682Y-24853D01*
X27682Y-24538D02*
X27502Y-24718D01*
X28222Y-24381D02*
X28222Y-24471D01*
X28402Y-24381D02*
X28402Y-24471D01*
X28807Y-24853D02*
X28807Y-24606D01*
X28784Y-24561D01*
X28739Y-24538D01*
X28649Y-24538D01*
X28604Y-24561D01*
X28807Y-24830D02*
X28762Y-24853D01*
X28649Y-24853D01*
X28604Y-24830D01*
X28582Y-24785D01*
X28582Y-24741D01*
X28604Y-24696D01*
X28649Y-24673D01*
X28762Y-24673D01*
X28807Y-24651D01*
X29234Y-24538D02*
X29234Y-24920D01*
X29212Y-24965D01*
X29189Y-24988D01*
X29144Y-25010D01*
X29077Y-25010D01*
X29032Y-24988D01*
X29234Y-24830D02*
X29189Y-24853D01*
X29099Y-24853D01*
X29054Y-24830D01*
X29032Y-24808D01*
X29009Y-24763D01*
X29009Y-24628D01*
X29032Y-24583D01*
X29054Y-24561D01*
X29099Y-24538D01*
X29189Y-24538D01*
X29234Y-24561D01*
X29661Y-24830D02*
X29616Y-24853D01*
X29526Y-24853D01*
X29482Y-24830D01*
X29459Y-24808D01*
X29437Y-24763D01*
X29437Y-24628D01*
X29459Y-24583D01*
X29482Y-24561D01*
X29526Y-24538D01*
X29616Y-24538D01*
X29661Y-24561D01*
X29841Y-24381D02*
X29841Y-24471D01*
X30021Y-24381D02*
X30021Y-24471D01*
X30584Y-24853D02*
X30584Y-24538D01*
X30584Y-24628D02*
X30606Y-24583D01*
X30629Y-24561D01*
X30674Y-24538D01*
X30719Y-24538D01*
X30966Y-24381D02*
X31011Y-24381D01*
X31056Y-24403D01*
X31079Y-24426D01*
X31101Y-24471D01*
X31124Y-24561D01*
X31124Y-24673D01*
X31101Y-24763D01*
X31079Y-24808D01*
X31056Y-24830D01*
X31011Y-24853D01*
X30966Y-24853D01*
X30921Y-24830D01*
X30899Y-24808D01*
X30876Y-24763D01*
X30854Y-24673D01*
X30854Y-24561D01*
X30876Y-24471D01*
X30899Y-24426D01*
X30921Y-24403D01*
X30966Y-24381D01*
X25589Y-25205D02*
X25612Y-25183D01*
X25657Y-25160D01*
X25769Y-25160D01*
X25814Y-25183D01*
X25837Y-25205D01*
X25859Y-25250D01*
X25859Y-25295D01*
X25837Y-25363D01*
X25567Y-25633D01*
X25859Y-25633D01*
X26152Y-25160D02*
X26197Y-25160D01*
X26242Y-25183D01*
X26264Y-25205D01*
X26287Y-25250D01*
X26309Y-25340D01*
X26309Y-25453D01*
X26287Y-25543D01*
X26264Y-25588D01*
X26242Y-25610D01*
X26197Y-25633D01*
X26152Y-25633D01*
X26107Y-25610D01*
X26084Y-25588D01*
X26062Y-25543D01*
X26039Y-25453D01*
X26039Y-25340D01*
X26062Y-25250D01*
X26084Y-25205D01*
X26107Y-25183D01*
X26152Y-25160D01*
X26759Y-25633D02*
X26489Y-25633D01*
X26624Y-25633D02*
X26624Y-25160D01*
X26579Y-25228D01*
X26534Y-25273D01*
X26489Y-25295D01*
X27164Y-25318D02*
X27164Y-25633D01*
X27052Y-25138D02*
X26939Y-25475D01*
X27232Y-25475D01*
X27412Y-25588D02*
X27434Y-25610D01*
X27412Y-25633D01*
X27389Y-25610D01*
X27412Y-25588D01*
X27412Y-25633D01*
X27727Y-25160D02*
X27772Y-25160D01*
X27817Y-25183D01*
X27839Y-25205D01*
X27862Y-25250D01*
X27884Y-25340D01*
X27884Y-25453D01*
X27862Y-25543D01*
X27839Y-25588D01*
X27817Y-25610D01*
X27772Y-25633D01*
X27727Y-25633D01*
X27682Y-25610D01*
X27659Y-25588D01*
X27637Y-25543D01*
X27614Y-25453D01*
X27614Y-25340D01*
X27637Y-25250D01*
X27659Y-25205D01*
X27682Y-25183D01*
X27727Y-25160D01*
X28312Y-25160D02*
X28087Y-25160D01*
X28064Y-25385D01*
X28087Y-25363D01*
X28132Y-25340D01*
X28244Y-25340D01*
X28289Y-25363D01*
X28312Y-25385D01*
X28334Y-25430D01*
X28334Y-25543D01*
X28312Y-25588D01*
X28289Y-25610D01*
X28244Y-25633D01*
X28132Y-25633D01*
X28087Y-25610D01*
X28064Y-25588D01*
G54D11*
X16012Y-39128D02*
X16012Y-38865D01*
X16012Y-38734D02*
X15994Y-38753D01*
X16012Y-38771D01*
X16031Y-38753D01*
X16012Y-38734D01*
X16012Y-38771D01*
X16200Y-38865D02*
X16200Y-39128D01*
X16200Y-38903D02*
X16218Y-38884D01*
X16256Y-38865D01*
X16312Y-38865D01*
X16350Y-38884D01*
X16368Y-38921D01*
X16368Y-39128D01*
X16556Y-38865D02*
X16556Y-39259D01*
X16556Y-38884D02*
X16593Y-38865D01*
X16668Y-38865D01*
X16706Y-38884D01*
X16725Y-38903D01*
X16743Y-38940D01*
X16743Y-39053D01*
X16725Y-39090D01*
X16706Y-39109D01*
X16668Y-39128D01*
X16593Y-39128D01*
X16556Y-39109D01*
X17081Y-38865D02*
X17081Y-39128D01*
X16912Y-38865D02*
X16912Y-39071D01*
X16931Y-39109D01*
X16968Y-39128D01*
X17025Y-39128D01*
X17062Y-39109D01*
X17081Y-39090D01*
X17212Y-38865D02*
X17362Y-38865D01*
X17268Y-38734D02*
X17268Y-39071D01*
X17287Y-39109D01*
X17325Y-39128D01*
X17362Y-39128D01*
X17737Y-38865D02*
X17887Y-38865D01*
X17793Y-39128D02*
X17793Y-38790D01*
X17812Y-38753D01*
X17850Y-38734D01*
X17887Y-38734D01*
X18018Y-39128D02*
X18018Y-38865D01*
X18018Y-38940D02*
X18037Y-38903D01*
X18056Y-38884D01*
X18093Y-38865D01*
X18131Y-38865D01*
X18318Y-39128D02*
X18281Y-39109D01*
X18262Y-39090D01*
X18243Y-39053D01*
X18243Y-38940D01*
X18262Y-38903D01*
X18281Y-38884D01*
X18318Y-38865D01*
X18374Y-38865D01*
X18412Y-38884D01*
X18431Y-38903D01*
X18449Y-38940D01*
X18449Y-39053D01*
X18431Y-39090D01*
X18412Y-39109D01*
X18374Y-39128D01*
X18318Y-39128D01*
X18618Y-39128D02*
X18618Y-38865D01*
X18618Y-38903D02*
X18637Y-38884D01*
X18674Y-38865D01*
X18731Y-38865D01*
X18768Y-38884D01*
X18787Y-38921D01*
X18787Y-39128D01*
X18787Y-38921D02*
X18806Y-38884D01*
X18843Y-38865D01*
X18899Y-38865D01*
X18937Y-38884D01*
X18956Y-38921D01*
X18956Y-39128D01*
X19612Y-39128D02*
X19612Y-38734D01*
X19612Y-39109D02*
X19574Y-39128D01*
X19499Y-39128D01*
X19462Y-39109D01*
X19443Y-39090D01*
X19424Y-39053D01*
X19424Y-38940D01*
X19443Y-38903D01*
X19462Y-38884D01*
X19499Y-38865D01*
X19574Y-38865D01*
X19612Y-38884D01*
X19968Y-39128D02*
X19968Y-38734D01*
X19968Y-39109D02*
X19931Y-39128D01*
X19856Y-39128D01*
X19818Y-39109D01*
X19799Y-39090D01*
X19781Y-39053D01*
X19781Y-38940D01*
X19799Y-38903D01*
X19818Y-38884D01*
X19856Y-38865D01*
X19931Y-38865D01*
X19968Y-38884D01*
X20137Y-39109D02*
X20174Y-39128D01*
X20249Y-39128D01*
X20287Y-39109D01*
X20305Y-39071D01*
X20305Y-39053D01*
X20287Y-39015D01*
X20249Y-38996D01*
X20193Y-38996D01*
X20155Y-38978D01*
X20137Y-38940D01*
X20137Y-38921D01*
X20155Y-38884D01*
X20193Y-38865D01*
X20249Y-38865D01*
X20287Y-38884D01*
X13165Y-32574D02*
X13165Y-32424D01*
X13034Y-32518D02*
X13371Y-32518D01*
X13409Y-32499D01*
X13428Y-32462D01*
X13428Y-32424D01*
X13015Y-32012D02*
X13521Y-32349D01*
X13428Y-31881D02*
X13165Y-31881D01*
X13240Y-31881D02*
X13203Y-31862D01*
X13184Y-31843D01*
X13165Y-31806D01*
X13165Y-31768D01*
X13428Y-31337D02*
X13165Y-31337D01*
X13034Y-31337D02*
X13053Y-31356D01*
X13071Y-31337D01*
X13053Y-31318D01*
X13034Y-31337D01*
X13071Y-31337D01*
X13165Y-31150D02*
X13428Y-31150D01*
X13203Y-31150D02*
X13184Y-31131D01*
X13165Y-31093D01*
X13165Y-31037D01*
X13184Y-31000D01*
X13221Y-30981D01*
X13428Y-30981D01*
X15409Y-26952D02*
X15428Y-26990D01*
X15428Y-27065D01*
X15409Y-27102D01*
X15390Y-27121D01*
X15353Y-27140D01*
X15240Y-27140D01*
X15203Y-27121D01*
X15184Y-27102D01*
X15165Y-27065D01*
X15165Y-26990D01*
X15184Y-26952D01*
X15428Y-26727D02*
X15409Y-26765D01*
X15390Y-26784D01*
X15353Y-26802D01*
X15240Y-26802D01*
X15203Y-26784D01*
X15184Y-26765D01*
X15165Y-26727D01*
X15165Y-26671D01*
X15184Y-26634D01*
X15203Y-26615D01*
X15240Y-26596D01*
X15353Y-26596D01*
X15390Y-26615D01*
X15409Y-26634D01*
X15428Y-26671D01*
X15428Y-26727D01*
X15165Y-26259D02*
X15428Y-26259D01*
X15165Y-26428D02*
X15371Y-26428D01*
X15409Y-26409D01*
X15428Y-26371D01*
X15428Y-26315D01*
X15409Y-26278D01*
X15390Y-26259D01*
X15165Y-26071D02*
X15559Y-26071D01*
X15184Y-26071D02*
X15165Y-26034D01*
X15165Y-25959D01*
X15184Y-25921D01*
X15203Y-25903D01*
X15240Y-25884D01*
X15353Y-25884D01*
X15390Y-25903D01*
X15409Y-25921D01*
X15428Y-25959D01*
X15428Y-26034D01*
X15409Y-26071D01*
X15428Y-25659D02*
X15409Y-25696D01*
X15371Y-25715D01*
X15034Y-25715D01*
X15409Y-25359D02*
X15428Y-25396D01*
X15428Y-25471D01*
X15409Y-25509D01*
X15371Y-25528D01*
X15221Y-25528D01*
X15184Y-25509D01*
X15165Y-25471D01*
X15165Y-25396D01*
X15184Y-25359D01*
X15221Y-25340D01*
X15259Y-25340D01*
X15296Y-25528D01*
X15428Y-25171D02*
X15165Y-25171D01*
X15240Y-25171D02*
X15203Y-25153D01*
X15184Y-25134D01*
X15165Y-25096D01*
X15165Y-25059D01*
X15428Y-24571D02*
X15409Y-24609D01*
X15390Y-24628D01*
X15353Y-24646D01*
X15240Y-24646D01*
X15203Y-24628D01*
X15184Y-24609D01*
X15165Y-24571D01*
X15165Y-24515D01*
X15184Y-24478D01*
X15203Y-24459D01*
X15240Y-24440D01*
X15353Y-24440D01*
X15390Y-24459D01*
X15409Y-24478D01*
X15428Y-24515D01*
X15428Y-24571D01*
X15165Y-24103D02*
X15428Y-24103D01*
X15165Y-24272D02*
X15371Y-24272D01*
X15409Y-24253D01*
X15428Y-24215D01*
X15428Y-24159D01*
X15409Y-24122D01*
X15390Y-24103D01*
X15165Y-23972D02*
X15165Y-23822D01*
X15034Y-23915D02*
X15371Y-23915D01*
X15409Y-23897D01*
X15428Y-23859D01*
X15428Y-23822D01*
X15409Y-20256D02*
X15428Y-20293D01*
X15428Y-20368D01*
X15409Y-20406D01*
X15390Y-20424D01*
X15353Y-20443D01*
X15240Y-20443D01*
X15203Y-20424D01*
X15184Y-20406D01*
X15165Y-20368D01*
X15165Y-20293D01*
X15184Y-20256D01*
X15428Y-20031D02*
X15409Y-20068D01*
X15390Y-20087D01*
X15353Y-20106D01*
X15240Y-20106D01*
X15203Y-20087D01*
X15184Y-20068D01*
X15165Y-20031D01*
X15165Y-19974D01*
X15184Y-19937D01*
X15203Y-19918D01*
X15240Y-19899D01*
X15353Y-19899D01*
X15390Y-19918D01*
X15409Y-19937D01*
X15428Y-19974D01*
X15428Y-20031D01*
X15165Y-19562D02*
X15428Y-19562D01*
X15165Y-19731D02*
X15371Y-19731D01*
X15409Y-19712D01*
X15428Y-19674D01*
X15428Y-19618D01*
X15409Y-19581D01*
X15390Y-19562D01*
X15165Y-19374D02*
X15559Y-19374D01*
X15184Y-19374D02*
X15165Y-19337D01*
X15165Y-19262D01*
X15184Y-19224D01*
X15203Y-19206D01*
X15240Y-19187D01*
X15353Y-19187D01*
X15390Y-19206D01*
X15409Y-19224D01*
X15428Y-19262D01*
X15428Y-19337D01*
X15409Y-19374D01*
X15428Y-18962D02*
X15409Y-19000D01*
X15371Y-19018D01*
X15034Y-19018D01*
X15409Y-18662D02*
X15428Y-18700D01*
X15428Y-18775D01*
X15409Y-18812D01*
X15371Y-18831D01*
X15221Y-18831D01*
X15184Y-18812D01*
X15165Y-18775D01*
X15165Y-18700D01*
X15184Y-18662D01*
X15221Y-18643D01*
X15259Y-18643D01*
X15296Y-18831D01*
X15428Y-18475D02*
X15165Y-18475D01*
X15240Y-18475D02*
X15203Y-18456D01*
X15184Y-18437D01*
X15165Y-18400D01*
X15165Y-18362D01*
X15428Y-17931D02*
X15165Y-17931D01*
X15034Y-17931D02*
X15053Y-17950D01*
X15071Y-17931D01*
X15053Y-17912D01*
X15034Y-17931D01*
X15071Y-17931D01*
X15165Y-17743D02*
X15428Y-17743D01*
X15203Y-17743D02*
X15184Y-17725D01*
X15165Y-17687D01*
X15165Y-17631D01*
X15184Y-17593D01*
X15221Y-17575D01*
X15428Y-17575D01*
X19915Y-15215D02*
X19915Y-15065D01*
X19784Y-15159D02*
X20121Y-15159D01*
X20159Y-15140D01*
X20178Y-15103D01*
X20178Y-15065D01*
X20178Y-14878D02*
X20159Y-14915D01*
X20140Y-14934D01*
X20103Y-14953D01*
X19990Y-14953D01*
X19953Y-14934D01*
X19934Y-14915D01*
X19915Y-14878D01*
X19915Y-14821D01*
X19934Y-14784D01*
X19953Y-14765D01*
X19990Y-14746D01*
X20103Y-14746D01*
X20140Y-14765D01*
X20159Y-14784D01*
X20178Y-14821D01*
X20178Y-14878D01*
X20178Y-14278D02*
X19915Y-14278D01*
X19990Y-14278D02*
X19953Y-14259D01*
X19934Y-14240D01*
X19915Y-14203D01*
X19915Y-14165D01*
X20159Y-13865D02*
X20178Y-13903D01*
X20178Y-13978D01*
X20159Y-14015D01*
X20140Y-14034D01*
X20103Y-14053D01*
X19990Y-14053D01*
X19953Y-14034D01*
X19934Y-14015D01*
X19915Y-13978D01*
X19915Y-13903D01*
X19934Y-13865D01*
X19915Y-13734D02*
X20178Y-13640D01*
X19915Y-13546D01*
X20178Y-13396D02*
X19915Y-13396D01*
X19990Y-13396D02*
X19953Y-13378D01*
X19934Y-13359D01*
X19915Y-13321D01*
X19915Y-13284D01*
X39640Y-22678D02*
X39640Y-22415D01*
X39640Y-22490D02*
X39659Y-22453D01*
X39678Y-22434D01*
X39715Y-22415D01*
X39753Y-22415D01*
X39846Y-22678D02*
X40053Y-22415D01*
X39846Y-22415D02*
X40053Y-22678D01*
X40503Y-22678D02*
X40503Y-22415D01*
X40503Y-22284D02*
X40484Y-22303D01*
X40503Y-22321D01*
X40521Y-22303D01*
X40503Y-22284D01*
X40503Y-22321D01*
X40690Y-22415D02*
X40690Y-22678D01*
X40690Y-22453D02*
X40709Y-22434D01*
X40746Y-22415D01*
X40803Y-22415D01*
X40840Y-22434D01*
X40859Y-22471D01*
X40859Y-22678D01*
X40275Y-24428D02*
X40050Y-24428D01*
X40162Y-24428D02*
X40162Y-24034D01*
X40125Y-24090D01*
X40087Y-24128D01*
X40050Y-24146D01*
X40631Y-24034D02*
X40443Y-24034D01*
X40425Y-24221D01*
X40443Y-24203D01*
X40481Y-24184D01*
X40574Y-24184D01*
X40612Y-24203D01*
X40631Y-24221D01*
X40649Y-24259D01*
X40649Y-24353D01*
X40631Y-24390D01*
X40612Y-24409D01*
X40574Y-24428D01*
X40481Y-24428D01*
X40443Y-24409D01*
X40425Y-24390D01*
X40781Y-24165D02*
X40874Y-24428D01*
X40968Y-24165D01*
X38512Y-33965D02*
X38662Y-33965D01*
X38568Y-33834D02*
X38568Y-34171D01*
X38587Y-34209D01*
X38625Y-34228D01*
X38662Y-34228D01*
X38850Y-34228D02*
X38812Y-34209D01*
X38793Y-34190D01*
X38775Y-34153D01*
X38775Y-34040D01*
X38793Y-34003D01*
X38812Y-33984D01*
X38850Y-33965D01*
X38906Y-33965D01*
X38943Y-33984D01*
X38962Y-34003D01*
X38981Y-34040D01*
X38981Y-34153D01*
X38962Y-34190D01*
X38943Y-34209D01*
X38906Y-34228D01*
X38850Y-34228D01*
X39618Y-34228D02*
X39618Y-33834D01*
X39618Y-34209D02*
X39581Y-34228D01*
X39506Y-34228D01*
X39468Y-34209D01*
X39450Y-34190D01*
X39431Y-34153D01*
X39431Y-34040D01*
X39450Y-34003D01*
X39468Y-33984D01*
X39506Y-33965D01*
X39581Y-33965D01*
X39618Y-33984D01*
X39806Y-34228D02*
X39806Y-33965D01*
X39806Y-34040D02*
X39824Y-34003D01*
X39843Y-33984D01*
X39881Y-33965D01*
X39918Y-33965D01*
X40049Y-34228D02*
X40049Y-33965D01*
X40049Y-33834D02*
X40031Y-33853D01*
X40049Y-33871D01*
X40068Y-33853D01*
X40049Y-33834D01*
X40049Y-33871D01*
X40199Y-33965D02*
X40293Y-34228D01*
X40387Y-33965D01*
X40687Y-34209D02*
X40649Y-34228D01*
X40574Y-34228D01*
X40537Y-34209D01*
X40518Y-34171D01*
X40518Y-34021D01*
X40537Y-33984D01*
X40574Y-33965D01*
X40649Y-33965D01*
X40687Y-33984D01*
X40706Y-34021D01*
X40706Y-34059D01*
X40518Y-34096D01*
X40874Y-34228D02*
X40874Y-33965D01*
X40874Y-34040D02*
X40893Y-34003D01*
X40912Y-33984D01*
X40949Y-33965D01*
X40987Y-33965D01*
G54D13*
X26123Y-42874D02*
X26123Y-42690D01*
X26123Y-42743D02*
X26136Y-42717D01*
X26149Y-42704D01*
X26175Y-42690D01*
X26201Y-42690D01*
X26398Y-42861D02*
X26372Y-42874D01*
X26320Y-42874D01*
X26293Y-42861D01*
X26280Y-42835D01*
X26280Y-42730D01*
X26293Y-42704D01*
X26320Y-42690D01*
X26372Y-42690D01*
X26398Y-42704D01*
X26411Y-42730D01*
X26411Y-42756D01*
X26280Y-42782D01*
X26503Y-42690D02*
X26569Y-42874D01*
X26635Y-42690D01*
X26910Y-42690D02*
X27015Y-42690D01*
X26950Y-42874D02*
X26950Y-42638D01*
X26963Y-42612D01*
X26989Y-42599D01*
X27015Y-42599D01*
X27225Y-42874D02*
X27225Y-42730D01*
X27212Y-42704D01*
X27186Y-42690D01*
X27133Y-42690D01*
X27107Y-42704D01*
X27225Y-42861D02*
X27199Y-42874D01*
X27133Y-42874D01*
X27107Y-42861D01*
X27094Y-42835D01*
X27094Y-42809D01*
X27107Y-42782D01*
X27133Y-42769D01*
X27199Y-42769D01*
X27225Y-42756D01*
X27474Y-42690D02*
X27474Y-42874D01*
X27356Y-42690D02*
X27356Y-42835D01*
X27369Y-42861D01*
X27396Y-42874D01*
X27435Y-42874D01*
X27461Y-42861D01*
X27474Y-42848D01*
X27645Y-42874D02*
X27619Y-42861D01*
X27606Y-42835D01*
X27606Y-42599D01*
X27711Y-42690D02*
X27816Y-42690D01*
X27750Y-42599D02*
X27750Y-42835D01*
X27763Y-42861D01*
X27789Y-42874D01*
X27816Y-42874D01*
G54D11*
X30100Y-19250D02*
G75*
G03X30100Y-19250I-50J0D01*
G74*
G01*
X23120Y-19500D02*
G75*
G03X23120Y-19500I-70J0D01*
G74*
G01*
X21820Y-34250D02*
G75*
G03X21820Y-34250I-70J0D01*
G74*
G01*
X30450Y-37750D02*
G75*
G03X30450Y-37750I-50J0D01*
G74*
G01*
X33500Y-36250D02*
G75*
G03X33500Y-36250I-50J0D01*
G74*
G01*
X20261Y-29950D02*
G75*
G03X20261Y-29950I-111J0D01*
G74*
G01*
G54D14*
X23150Y-37300D02*
G75*
G03X23150Y-37300I-50J0D01*
G74*
G01*
X23550Y-37300D02*
X23150Y-37300D01*
X23150Y-37300D02*
X23150Y-36700D01*
X23150Y-36700D02*
X23550Y-36700D01*
X23950Y-36700D02*
X24350Y-36700D01*
X24350Y-36700D02*
X24350Y-37300D01*
X24350Y-37300D02*
X23950Y-37300D01*
G54D15*
X35950Y-27000D02*
X35950Y-26900D01*
X35950Y-26900D02*
X35050Y-26900D01*
X35050Y-26900D02*
X35050Y-27000D01*
X35950Y-27000D02*
X35050Y-27000D01*
X35050Y-27000D02*
X35050Y-27650D01*
X35950Y-28350D02*
X35950Y-29000D01*
X35950Y-29000D02*
X35050Y-29000D01*
X35050Y-29000D02*
X35050Y-28350D01*
X35950Y-27650D02*
X35950Y-27000D01*
G54D14*
X33100Y-27900D02*
G75*
G03X33100Y-27900I-50J0D01*
G74*
G01*
X33050Y-27450D02*
X33050Y-27850D01*
X33050Y-27850D02*
X32450Y-27850D01*
X32450Y-27850D02*
X32450Y-27450D01*
X32450Y-27050D02*
X32450Y-26650D01*
X32450Y-26650D02*
X33050Y-26650D01*
X33050Y-26650D02*
X33050Y-27050D01*
G54D15*
X33300Y-28000D02*
X33300Y-28100D01*
X33300Y-28100D02*
X34200Y-28100D01*
X34200Y-28100D02*
X34200Y-28000D01*
X33300Y-28000D02*
X34200Y-28000D01*
X34200Y-28000D02*
X34200Y-27350D01*
X33300Y-26650D02*
X33300Y-26000D01*
X33300Y-26000D02*
X34200Y-26000D01*
X34200Y-26000D02*
X34200Y-26650D01*
X33300Y-27350D02*
X33300Y-28000D01*
G54D14*
X36350Y-27050D02*
G75*
G03X36350Y-27050I-50J0D01*
G74*
G01*
X36300Y-27500D02*
X36300Y-27100D01*
X36300Y-27100D02*
X36900Y-27100D01*
X36900Y-27100D02*
X36900Y-27500D01*
X36900Y-27900D02*
X36900Y-28300D01*
X36900Y-28300D02*
X36300Y-28300D01*
X36300Y-28300D02*
X36300Y-27900D01*
X27650Y-37300D02*
G75*
G03X27650Y-37300I-50J0D01*
G74*
G01*
X28050Y-37300D02*
X27650Y-37300D01*
X27650Y-37300D02*
X27650Y-36700D01*
X27650Y-36700D02*
X28050Y-36700D01*
X28450Y-36700D02*
X28850Y-36700D01*
X28850Y-36700D02*
X28850Y-37300D01*
X28850Y-37300D02*
X28450Y-37300D01*
G54D15*
X29700Y-27750D02*
X29700Y-27650D01*
X29700Y-27650D02*
X28800Y-27650D01*
X28800Y-27650D02*
X28800Y-27750D01*
X29700Y-27750D02*
X28800Y-27750D01*
X28800Y-27750D02*
X28800Y-28400D01*
X29700Y-29100D02*
X29700Y-29750D01*
X29700Y-29750D02*
X28800Y-29750D01*
X28800Y-29750D02*
X28800Y-29100D01*
X29700Y-28400D02*
X29700Y-27750D01*
X26750Y-32550D02*
X26650Y-32550D01*
X26650Y-32550D02*
X26650Y-33450D01*
X26650Y-33450D02*
X26750Y-33450D01*
X26750Y-32550D02*
X26750Y-33450D01*
X26750Y-33450D02*
X27400Y-33450D01*
X28100Y-32550D02*
X28750Y-32550D01*
X28750Y-32550D02*
X28750Y-33450D01*
X28750Y-33450D02*
X28100Y-33450D01*
X27400Y-32550D02*
X26750Y-32550D01*
G54D14*
X23100Y-19400D02*
G75*
G03X23100Y-19400I-50J0D01*
G74*
G01*
X23050Y-18950D02*
X23050Y-19350D01*
X23050Y-19350D02*
X22450Y-19350D01*
X22450Y-19350D02*
X22450Y-18950D01*
X22450Y-18550D02*
X22450Y-18150D01*
X22450Y-18150D02*
X23050Y-18150D01*
X23050Y-18150D02*
X23050Y-18550D01*
X23100Y-22400D02*
G75*
G03X23100Y-22400I-50J0D01*
G74*
G01*
X23050Y-21950D02*
X23050Y-22350D01*
X23050Y-22350D02*
X22450Y-22350D01*
X22450Y-22350D02*
X22450Y-21950D01*
X22450Y-21550D02*
X22450Y-21150D01*
X22450Y-21150D02*
X23050Y-21150D01*
X23050Y-21150D02*
X23050Y-21550D01*
X28000Y-27600D02*
G75*
G03X28000Y-27600I-50J0D01*
G74*
G01*
X27950Y-28050D02*
X27950Y-27650D01*
X27950Y-27650D02*
X28550Y-27650D01*
X28550Y-27650D02*
X28550Y-28050D01*
X28550Y-28450D02*
X28550Y-28850D01*
X28550Y-28850D02*
X27950Y-28850D01*
X27950Y-28850D02*
X27950Y-28450D01*
X26900Y-34550D02*
G75*
G03X26900Y-34550I-50J0D01*
G74*
G01*
X27300Y-34550D02*
X26900Y-34550D01*
X26900Y-34550D02*
X26900Y-33950D01*
X26900Y-33950D02*
X27300Y-33950D01*
X27700Y-33950D02*
X28100Y-33950D01*
X28100Y-33950D02*
X28100Y-34550D01*
X28100Y-34550D02*
X27700Y-34550D01*
X26900Y-35550D02*
G75*
G03X26900Y-35550I-50J0D01*
G74*
G01*
X27300Y-35550D02*
X26900Y-35550D01*
X26900Y-35550D02*
X26900Y-34950D01*
X26900Y-34950D02*
X27300Y-34950D01*
X27700Y-34950D02*
X28100Y-34950D01*
X28100Y-34950D02*
X28100Y-35550D01*
X28100Y-35550D02*
X27700Y-35550D01*
X31400Y-36800D02*
G75*
G03X31400Y-36800I-50J0D01*
G74*
G01*
X31800Y-36800D02*
X31400Y-36800D01*
X31400Y-36800D02*
X31400Y-36200D01*
X31400Y-36200D02*
X31800Y-36200D01*
X32200Y-36200D02*
X32600Y-36200D01*
X32600Y-36200D02*
X32600Y-36800D01*
X32600Y-36800D02*
X32200Y-36800D01*
X24650Y-20550D02*
G75*
G03X24650Y-20550I-50J0D01*
G74*
G01*
X25050Y-20550D02*
X24650Y-20550D01*
X24650Y-20550D02*
X24650Y-19950D01*
X24650Y-19950D02*
X25050Y-19950D01*
X25450Y-19950D02*
X25850Y-19950D01*
X25850Y-19950D02*
X25850Y-20550D01*
X25850Y-20550D02*
X25450Y-20550D01*
X26850Y-21400D02*
G75*
G03X26850Y-21400I-50J0D01*
G74*
G01*
X26800Y-20950D02*
X26800Y-21350D01*
X26800Y-21350D02*
X26200Y-21350D01*
X26200Y-21350D02*
X26200Y-20950D01*
X26200Y-20550D02*
X26200Y-20150D01*
X26200Y-20150D02*
X26800Y-20150D01*
X26800Y-20150D02*
X26800Y-20550D01*
X35150Y-37300D02*
G75*
G03X35150Y-37300I-50J0D01*
G74*
G01*
X35550Y-37300D02*
X35150Y-37300D01*
X35150Y-37300D02*
X35150Y-36700D01*
X35150Y-36700D02*
X35550Y-36700D01*
X35950Y-36700D02*
X36350Y-36700D01*
X36350Y-36700D02*
X36350Y-37300D01*
X36350Y-37300D02*
X35950Y-37300D01*
X30850Y-22150D02*
G75*
G03X30850Y-22150I-50J0D01*
G74*
G01*
X30800Y-21700D02*
X30800Y-22100D01*
X30800Y-22100D02*
X30200Y-22100D01*
X30200Y-22100D02*
X30200Y-21700D01*
X30200Y-21300D02*
X30200Y-20900D01*
X30200Y-20900D02*
X30800Y-20900D01*
X30800Y-20900D02*
X30800Y-21300D01*
X31400Y-17300D02*
G75*
G03X31400Y-17300I-50J0D01*
G74*
G01*
X31800Y-17300D02*
X31400Y-17300D01*
X31400Y-17300D02*
X31400Y-16700D01*
X31400Y-16700D02*
X31800Y-16700D01*
X32200Y-16700D02*
X32600Y-16700D01*
X32600Y-16700D02*
X32600Y-17300D01*
X32600Y-17300D02*
X32200Y-17300D01*
X31400Y-18300D02*
G75*
G03X31400Y-18300I-50J0D01*
G74*
G01*
X31800Y-18300D02*
X31400Y-18300D01*
X31400Y-18300D02*
X31400Y-17700D01*
X31400Y-17700D02*
X31800Y-17700D01*
X32200Y-17700D02*
X32600Y-17700D01*
X32600Y-17700D02*
X32600Y-18300D01*
X32600Y-18300D02*
X32200Y-18300D01*
X34150Y-20050D02*
G75*
G03X34150Y-20050I-50J0D01*
G74*
G01*
X34550Y-20050D02*
X34150Y-20050D01*
X34150Y-20050D02*
X34150Y-19450D01*
X34150Y-19450D02*
X34550Y-19450D01*
X34950Y-19450D02*
X35350Y-19450D01*
X35350Y-19450D02*
X35350Y-20050D01*
X35350Y-20050D02*
X34950Y-20050D01*
X22250Y-42150D02*
G75*
G03X22250Y-42150I-50J0D01*
G74*
G01*
X21750Y-42150D02*
X22150Y-42150D01*
X22150Y-42150D02*
X22150Y-42750D01*
X22150Y-42750D02*
X21750Y-42750D01*
X21350Y-42750D02*
X20950Y-42750D01*
X20950Y-42750D02*
X20950Y-42150D01*
X20950Y-42150D02*
X21350Y-42150D01*
X20650Y-42150D02*
G75*
G03X20650Y-42150I-50J0D01*
G74*
G01*
X20150Y-42150D02*
X20550Y-42150D01*
X20550Y-42150D02*
X20550Y-42750D01*
X20550Y-42750D02*
X20150Y-42750D01*
X19750Y-42750D02*
X19350Y-42750D01*
X19350Y-42750D02*
X19350Y-42150D01*
X19350Y-42150D02*
X19750Y-42150D01*
X17500Y-32350D02*
G75*
G03X17500Y-32350I-50J0D01*
G74*
G01*
X17450Y-32800D02*
X17450Y-32400D01*
X17450Y-32400D02*
X18050Y-32400D01*
X18050Y-32400D02*
X18050Y-32800D01*
X18050Y-33200D02*
X18050Y-33600D01*
X18050Y-33600D02*
X17450Y-33600D01*
X17450Y-33600D02*
X17450Y-33200D01*
X18750Y-29850D02*
G75*
G03X18750Y-29850I-50J0D01*
G74*
G01*
X18700Y-30300D02*
X18700Y-29900D01*
X18700Y-29900D02*
X19300Y-29900D01*
X19300Y-29900D02*
X19300Y-30300D01*
X19300Y-30700D02*
X19300Y-31100D01*
X19300Y-31100D02*
X18700Y-31100D01*
X18700Y-31100D02*
X18700Y-30700D01*
X22000Y-34100D02*
G75*
G03X22000Y-34100I-50J0D01*
G74*
G01*
X21950Y-34550D02*
X21950Y-34150D01*
X21950Y-34150D02*
X22550Y-34150D01*
X22550Y-34150D02*
X22550Y-34550D01*
X22550Y-34950D02*
X22550Y-35350D01*
X22550Y-35350D02*
X21950Y-35350D01*
X21950Y-35350D02*
X21950Y-34950D01*
X20900Y-29800D02*
G75*
G03X20900Y-29800I-50J0D01*
G74*
G01*
X21300Y-29800D02*
X20900Y-29800D01*
X20900Y-29800D02*
X20900Y-29200D01*
X20900Y-29200D02*
X21300Y-29200D01*
X21700Y-29200D02*
X22100Y-29200D01*
X22100Y-29200D02*
X22100Y-29800D01*
X22100Y-29800D02*
X21700Y-29800D01*
X24350Y-31150D02*
G75*
G03X24350Y-31150I-50J0D01*
G74*
G01*
X24300Y-30700D02*
X24300Y-31100D01*
X24300Y-31100D02*
X23700Y-31100D01*
X23700Y-31100D02*
X23700Y-30700D01*
X23700Y-30300D02*
X23700Y-29900D01*
X23700Y-29900D02*
X24300Y-29900D01*
X24300Y-29900D02*
X24300Y-30300D01*
G54D16*
X14696Y-27868D02*
X14696Y-27996D01*
X14696Y-27996D02*
X14893Y-27996D01*
X14893Y-27868D02*
X14893Y-27996D01*
X14696Y-27868D02*
X14893Y-27868D01*
X14696Y-27623D02*
X14696Y-27682D01*
X14696Y-27682D02*
X14795Y-27682D01*
X14795Y-27623D02*
X14795Y-27682D01*
X14696Y-27623D02*
X14795Y-27623D01*
X14696Y-27818D02*
X14696Y-27877D01*
X14696Y-27877D02*
X14795Y-27877D01*
X14795Y-27818D02*
X14795Y-27877D01*
X14696Y-27818D02*
X14795Y-27818D01*
X14696Y-27672D02*
X14696Y-27828D01*
X14696Y-27828D02*
X14765Y-27828D01*
X14765Y-27672D02*
X14765Y-27828D01*
X14696Y-27672D02*
X14765Y-27672D01*
X14107Y-27868D02*
X14107Y-27996D01*
X14107Y-27996D02*
X14304Y-27996D01*
X14304Y-27868D02*
X14304Y-27996D01*
X14107Y-27868D02*
X14304Y-27868D01*
X14107Y-27504D02*
X14107Y-27632D01*
X14107Y-27632D02*
X14304Y-27632D01*
X14304Y-27504D02*
X14304Y-27632D01*
X14107Y-27504D02*
X14304Y-27504D01*
X14205Y-27818D02*
X14205Y-27877D01*
X14205Y-27877D02*
X14304Y-27877D01*
X14304Y-27818D02*
X14304Y-27877D01*
X14205Y-27818D02*
X14304Y-27818D01*
X14205Y-27623D02*
X14205Y-27682D01*
X14205Y-27682D02*
X14304Y-27682D01*
X14304Y-27623D02*
X14304Y-27682D01*
X14205Y-27623D02*
X14304Y-27623D01*
X14235Y-27672D02*
X14235Y-27828D01*
X14235Y-27828D02*
X14304Y-27828D01*
X14304Y-27672D02*
X14304Y-27828D01*
X14235Y-27672D02*
X14304Y-27672D01*
X14500Y-27711D02*
X14500Y-27789D01*
X14500Y-27789D02*
X14578Y-27789D01*
X14578Y-27711D02*
X14578Y-27789D01*
X14500Y-27711D02*
X14578Y-27711D01*
X14696Y-27514D02*
X14696Y-27632D01*
X14696Y-27632D02*
X14814Y-27632D01*
X14814Y-27514D02*
X14814Y-27632D01*
X14696Y-27514D02*
X14814Y-27514D01*
X14864Y-27504D02*
X14864Y-27593D01*
X14864Y-27593D02*
X14893Y-27593D01*
X14893Y-27504D02*
X14893Y-27593D01*
X14864Y-27504D02*
X14893Y-27504D01*
G54D17*
X14706Y-27976D02*
X14294Y-27976D01*
X14304Y-27524D02*
X14864Y-27524D01*
G54D18*
X14862Y-27573D02*
G75*
G03X14862Y-27573I-28J0D01*
G74*
G01*
G54D17*
X14893Y-27613D02*
G75*
G03X14893Y-27887I0J-137D01*
G74*
G01*
X14107Y-27887D02*
G75*
G03X14107Y-27613I0J137D01*
G74*
G01*
G54D16*
X14132Y-22946D02*
X14004Y-22946D01*
X14004Y-22946D02*
X14004Y-23143D01*
X14132Y-23143D02*
X14004Y-23143D01*
X14132Y-22946D02*
X14132Y-23143D01*
X14377Y-22946D02*
X14318Y-22946D01*
X14318Y-22946D02*
X14318Y-23045D01*
X14377Y-23045D02*
X14318Y-23045D01*
X14377Y-22946D02*
X14377Y-23045D01*
X14182Y-22946D02*
X14123Y-22946D01*
X14123Y-22946D02*
X14123Y-23045D01*
X14182Y-23045D02*
X14123Y-23045D01*
X14182Y-22946D02*
X14182Y-23045D01*
X14328Y-22946D02*
X14172Y-22946D01*
X14172Y-22946D02*
X14172Y-23015D01*
X14328Y-23015D02*
X14172Y-23015D01*
X14328Y-22946D02*
X14328Y-23015D01*
X14132Y-22357D02*
X14004Y-22357D01*
X14004Y-22357D02*
X14004Y-22554D01*
X14132Y-22554D02*
X14004Y-22554D01*
X14132Y-22357D02*
X14132Y-22554D01*
X14496Y-22357D02*
X14368Y-22357D01*
X14368Y-22357D02*
X14368Y-22554D01*
X14496Y-22554D02*
X14368Y-22554D01*
X14496Y-22357D02*
X14496Y-22554D01*
X14182Y-22455D02*
X14123Y-22455D01*
X14123Y-22455D02*
X14123Y-22554D01*
X14182Y-22554D02*
X14123Y-22554D01*
X14182Y-22455D02*
X14182Y-22554D01*
X14377Y-22455D02*
X14318Y-22455D01*
X14318Y-22455D02*
X14318Y-22554D01*
X14377Y-22554D02*
X14318Y-22554D01*
X14377Y-22455D02*
X14377Y-22554D01*
X14328Y-22485D02*
X14172Y-22485D01*
X14172Y-22485D02*
X14172Y-22554D01*
X14328Y-22554D02*
X14172Y-22554D01*
X14328Y-22485D02*
X14328Y-22554D01*
X14289Y-22750D02*
X14211Y-22750D01*
X14211Y-22750D02*
X14211Y-22828D01*
X14289Y-22828D02*
X14211Y-22828D01*
X14289Y-22750D02*
X14289Y-22828D01*
X14486Y-22946D02*
X14368Y-22946D01*
X14368Y-22946D02*
X14368Y-23064D01*
X14486Y-23064D02*
X14368Y-23064D01*
X14486Y-22946D02*
X14486Y-23064D01*
X14496Y-23114D02*
X14407Y-23114D01*
X14407Y-23114D02*
X14407Y-23143D01*
X14496Y-23143D02*
X14407Y-23143D01*
X14496Y-23114D02*
X14496Y-23143D01*
G54D17*
X14024Y-22956D02*
X14024Y-22544D01*
X14476Y-22554D02*
X14476Y-23114D01*
G54D18*
X14455Y-23084D02*
G75*
G03X14455Y-23084I-28J0D01*
G74*
G01*
G54D17*
X14387Y-23143D02*
G75*
G03X14113Y-23143I-137J0D01*
G74*
G01*
X14113Y-22357D02*
G75*
G03X14387Y-22357I137J0D01*
G74*
G01*
G54D16*
X20146Y-39868D02*
X20146Y-39996D01*
X20146Y-39996D02*
X20343Y-39996D01*
X20343Y-39868D02*
X20343Y-39996D01*
X20146Y-39868D02*
X20343Y-39868D01*
X20146Y-39623D02*
X20146Y-39682D01*
X20146Y-39682D02*
X20245Y-39682D01*
X20245Y-39623D02*
X20245Y-39682D01*
X20146Y-39623D02*
X20245Y-39623D01*
X20146Y-39818D02*
X20146Y-39877D01*
X20146Y-39877D02*
X20245Y-39877D01*
X20245Y-39818D02*
X20245Y-39877D01*
X20146Y-39818D02*
X20245Y-39818D01*
X20146Y-39672D02*
X20146Y-39828D01*
X20146Y-39828D02*
X20215Y-39828D01*
X20215Y-39672D02*
X20215Y-39828D01*
X20146Y-39672D02*
X20215Y-39672D01*
X19557Y-39868D02*
X19557Y-39996D01*
X19557Y-39996D02*
X19754Y-39996D01*
X19754Y-39868D02*
X19754Y-39996D01*
X19557Y-39868D02*
X19754Y-39868D01*
X19557Y-39504D02*
X19557Y-39632D01*
X19557Y-39632D02*
X19754Y-39632D01*
X19754Y-39504D02*
X19754Y-39632D01*
X19557Y-39504D02*
X19754Y-39504D01*
X19655Y-39818D02*
X19655Y-39877D01*
X19655Y-39877D02*
X19754Y-39877D01*
X19754Y-39818D02*
X19754Y-39877D01*
X19655Y-39818D02*
X19754Y-39818D01*
X19655Y-39623D02*
X19655Y-39682D01*
X19655Y-39682D02*
X19754Y-39682D01*
X19754Y-39623D02*
X19754Y-39682D01*
X19655Y-39623D02*
X19754Y-39623D01*
X19685Y-39672D02*
X19685Y-39828D01*
X19685Y-39828D02*
X19754Y-39828D01*
X19754Y-39672D02*
X19754Y-39828D01*
X19685Y-39672D02*
X19754Y-39672D01*
X19950Y-39711D02*
X19950Y-39789D01*
X19950Y-39789D02*
X20028Y-39789D01*
X20028Y-39711D02*
X20028Y-39789D01*
X19950Y-39711D02*
X20028Y-39711D01*
X20146Y-39514D02*
X20146Y-39632D01*
X20146Y-39632D02*
X20264Y-39632D01*
X20264Y-39514D02*
X20264Y-39632D01*
X20146Y-39514D02*
X20264Y-39514D01*
X20314Y-39504D02*
X20314Y-39593D01*
X20314Y-39593D02*
X20343Y-39593D01*
X20343Y-39504D02*
X20343Y-39593D01*
X20314Y-39504D02*
X20343Y-39504D01*
G54D17*
X20156Y-39976D02*
X19744Y-39976D01*
X19754Y-39524D02*
X20314Y-39524D01*
G54D18*
X20312Y-39573D02*
G75*
G03X20312Y-39573I-28J0D01*
G74*
G01*
G54D17*
X20343Y-39613D02*
G75*
G03X20343Y-39887I0J-137D01*
G74*
G01*
X19557Y-39887D02*
G75*
G03X19557Y-39613I0J137D01*
G74*
G01*
G54D16*
X20146Y-40668D02*
X20146Y-40796D01*
X20146Y-40796D02*
X20343Y-40796D01*
X20343Y-40668D02*
X20343Y-40796D01*
X20146Y-40668D02*
X20343Y-40668D01*
X20146Y-40423D02*
X20146Y-40482D01*
X20146Y-40482D02*
X20245Y-40482D01*
X20245Y-40423D02*
X20245Y-40482D01*
X20146Y-40423D02*
X20245Y-40423D01*
X20146Y-40618D02*
X20146Y-40677D01*
X20146Y-40677D02*
X20245Y-40677D01*
X20245Y-40618D02*
X20245Y-40677D01*
X20146Y-40618D02*
X20245Y-40618D01*
X20146Y-40472D02*
X20146Y-40628D01*
X20146Y-40628D02*
X20215Y-40628D01*
X20215Y-40472D02*
X20215Y-40628D01*
X20146Y-40472D02*
X20215Y-40472D01*
X19557Y-40668D02*
X19557Y-40796D01*
X19557Y-40796D02*
X19754Y-40796D01*
X19754Y-40668D02*
X19754Y-40796D01*
X19557Y-40668D02*
X19754Y-40668D01*
X19557Y-40304D02*
X19557Y-40432D01*
X19557Y-40432D02*
X19754Y-40432D01*
X19754Y-40304D02*
X19754Y-40432D01*
X19557Y-40304D02*
X19754Y-40304D01*
X19655Y-40618D02*
X19655Y-40677D01*
X19655Y-40677D02*
X19754Y-40677D01*
X19754Y-40618D02*
X19754Y-40677D01*
X19655Y-40618D02*
X19754Y-40618D01*
X19655Y-40423D02*
X19655Y-40482D01*
X19655Y-40482D02*
X19754Y-40482D01*
X19754Y-40423D02*
X19754Y-40482D01*
X19655Y-40423D02*
X19754Y-40423D01*
X19685Y-40472D02*
X19685Y-40628D01*
X19685Y-40628D02*
X19754Y-40628D01*
X19754Y-40472D02*
X19754Y-40628D01*
X19685Y-40472D02*
X19754Y-40472D01*
X19950Y-40511D02*
X19950Y-40589D01*
X19950Y-40589D02*
X20028Y-40589D01*
X20028Y-40511D02*
X20028Y-40589D01*
X19950Y-40511D02*
X20028Y-40511D01*
X20146Y-40314D02*
X20146Y-40432D01*
X20146Y-40432D02*
X20264Y-40432D01*
X20264Y-40314D02*
X20264Y-40432D01*
X20146Y-40314D02*
X20264Y-40314D01*
X20314Y-40304D02*
X20314Y-40393D01*
X20314Y-40393D02*
X20343Y-40393D01*
X20343Y-40304D02*
X20343Y-40393D01*
X20314Y-40304D02*
X20343Y-40304D01*
G54D17*
X20156Y-40776D02*
X19744Y-40776D01*
X19754Y-40324D02*
X20314Y-40324D01*
G54D18*
X20312Y-40373D02*
G75*
G03X20312Y-40373I-28J0D01*
G74*
G01*
G54D17*
X20343Y-40413D02*
G75*
G03X20343Y-40687I0J-137D01*
G74*
G01*
X19557Y-40687D02*
G75*
G03X19557Y-40413I0J137D01*
G74*
G01*
G54D19*
X16250Y-29677D02*
X16644Y-29343D01*
X16644Y-29343D02*
X15856Y-29343D01*
X15856Y-29343D02*
X16250Y-29677D01*
X16250Y-29677D02*
X15856Y-29677D01*
X16250Y-29677D02*
X16644Y-29677D01*
X15561Y-28594D02*
X15620Y-28594D01*
X15561Y-30268D02*
X15600Y-30268D01*
X15561Y-30406D02*
X15600Y-30406D01*
X16939Y-28594D02*
X16900Y-28594D01*
X16939Y-30268D02*
X16900Y-30268D01*
X16939Y-30406D02*
X16900Y-30406D01*
X15463Y-30268D02*
X15541Y-30268D01*
X17037Y-30268D02*
X16959Y-30268D01*
X15464Y-30404D02*
X15542Y-30404D01*
X15464Y-28592D02*
X15464Y-30404D01*
X15464Y-28592D02*
X15542Y-28592D01*
X17037Y-28594D02*
X16959Y-28594D01*
X17037Y-28594D02*
X17037Y-30406D01*
X17037Y-30406D02*
X16959Y-30406D01*
X16250Y-33323D02*
X15856Y-33657D01*
X15856Y-33657D02*
X16644Y-33657D01*
X16644Y-33657D02*
X16250Y-33323D01*
X16250Y-33323D02*
X16644Y-33323D01*
X16250Y-33323D02*
X15856Y-33323D01*
X16939Y-34406D02*
X16880Y-34406D01*
X16939Y-32732D02*
X16900Y-32732D01*
X16939Y-32594D02*
X16900Y-32594D01*
X15561Y-34406D02*
X15600Y-34406D01*
X15561Y-32732D02*
X15600Y-32732D01*
X15561Y-32594D02*
X15600Y-32594D01*
X17037Y-32732D02*
X16959Y-32732D01*
X15463Y-32732D02*
X15541Y-32732D01*
X17036Y-32596D02*
X16958Y-32596D01*
X17036Y-34408D02*
X17036Y-32596D01*
X17036Y-34408D02*
X16958Y-34408D01*
X15463Y-34406D02*
X15541Y-34406D01*
X15463Y-34406D02*
X15463Y-32594D01*
X15463Y-32594D02*
X15541Y-32594D01*
G54D20*
X13750Y-17500D02*
X14750Y-17500D01*
X14750Y-17500D02*
X14750Y-20500D01*
X14750Y-20500D02*
X13750Y-20500D01*
X13750Y-20500D02*
X13750Y-17500D01*
X14750Y-18500D02*
X13750Y-18500D01*
X41000Y-26000D02*
X40000Y-26000D01*
X40000Y-26000D02*
X40000Y-23000D01*
X40000Y-23000D02*
X41000Y-23000D01*
X41000Y-23000D02*
X41000Y-26000D01*
X40000Y-25000D02*
X41000Y-25000D01*
X14750Y-27000D02*
X13750Y-27000D01*
X13750Y-27000D02*
X13750Y-24000D01*
X13750Y-24000D02*
X14750Y-24000D01*
X14750Y-24000D02*
X14750Y-27000D01*
X13750Y-26000D02*
X14750Y-26000D01*
G54D14*
X26750Y-35850D02*
G75*
G03X26750Y-35850I-50J0D01*
G74*
G01*
X26700Y-36300D02*
X26700Y-35900D01*
X26700Y-35900D02*
X27300Y-35900D01*
X27300Y-35900D02*
X27300Y-36300D01*
X27300Y-36700D02*
X27300Y-37100D01*
X27300Y-37100D02*
X26700Y-37100D01*
X26700Y-37100D02*
X26700Y-36700D01*
X29450Y-19950D02*
G75*
G03X29450Y-19950I-50J0D01*
G74*
G01*
X28950Y-19950D02*
X29350Y-19950D01*
X29350Y-19950D02*
X29350Y-20550D01*
X29350Y-20550D02*
X28950Y-20550D01*
X28550Y-20550D02*
X28150Y-20550D01*
X28150Y-20550D02*
X28150Y-19950D01*
X28150Y-19950D02*
X28550Y-19950D01*
X32250Y-18600D02*
G75*
G03X32250Y-18600I-50J0D01*
G74*
G01*
X32200Y-19050D02*
X32200Y-18650D01*
X32200Y-18650D02*
X32800Y-18650D01*
X32800Y-18650D02*
X32800Y-19050D01*
X32800Y-19450D02*
X32800Y-19850D01*
X32800Y-19850D02*
X32200Y-19850D01*
X32200Y-19850D02*
X32200Y-19450D01*
G54D15*
X22066Y-23250D02*
G75*
G03X22066Y-23250I-316J0D01*
G74*
G01*
G54D20*
X33350Y-43250D02*
X33350Y-43250D01*
X33350Y-44250D02*
X33350Y-43250D01*
X33350Y-43250D02*
X33350Y-43250D01*
X33350Y-43250D02*
X37350Y-43250D01*
X37350Y-43250D02*
X37350Y-44250D01*
X37350Y-44250D02*
X33350Y-44250D01*
X34350Y-44250D02*
X34350Y-43250D01*
X26150Y-43250D02*
X26150Y-43250D01*
X26150Y-44250D02*
X26150Y-43250D01*
X26150Y-43250D02*
X26150Y-43250D01*
X26150Y-43250D02*
X30150Y-43250D01*
X30150Y-43250D02*
X30150Y-44250D01*
X30150Y-44250D02*
X26150Y-44250D01*
X27150Y-44250D02*
X27150Y-43250D01*
X13750Y-34000D02*
X13750Y-34000D01*
X14750Y-34000D02*
X13750Y-34000D01*
X13750Y-34000D02*
X13750Y-34000D01*
X13750Y-34000D02*
X13750Y-30000D01*
X13750Y-30000D02*
X14750Y-30000D01*
X14750Y-30000D02*
X14750Y-34000D01*
X14750Y-33000D02*
X13750Y-33000D01*
G54D14*
X20350Y-38150D02*
G75*
G03X20350Y-38150I-50J0D01*
G74*
G01*
X20300Y-37700D02*
X20300Y-38100D01*
X20300Y-38100D02*
X19700Y-38100D01*
X19700Y-38100D02*
X19700Y-37700D01*
X19700Y-37300D02*
X19700Y-36900D01*
X19700Y-36900D02*
X20300Y-36900D01*
X20300Y-36900D02*
X20300Y-37300D01*
X20650Y-37300D02*
G75*
G03X20650Y-37300I-50J0D01*
G74*
G01*
X21050Y-37300D02*
X20650Y-37300D01*
X20650Y-37300D02*
X20650Y-36700D01*
X20650Y-36700D02*
X21050Y-36700D01*
X21450Y-36700D02*
X21850Y-36700D01*
X21850Y-36700D02*
X21850Y-37300D01*
X21850Y-37300D02*
X21450Y-37300D01*
X22850Y-38150D02*
G75*
G03X22850Y-38150I-50J0D01*
G74*
G01*
X22800Y-37700D02*
X22800Y-38100D01*
X22800Y-38100D02*
X22200Y-38100D01*
X22200Y-38100D02*
X22200Y-37700D01*
X22200Y-37300D02*
X22200Y-36900D01*
X22200Y-36900D02*
X22800Y-36900D01*
X22800Y-36900D02*
X22800Y-37300D01*
G54D15*
X14750Y-21800D02*
X14750Y-22700D01*
X14750Y-22700D02*
X15400Y-22700D01*
X16100Y-21800D02*
X16750Y-21800D01*
X16750Y-21800D02*
X16750Y-22700D01*
X16750Y-22700D02*
X16100Y-22700D01*
X15400Y-21800D02*
X14750Y-21800D01*
X17250Y-20550D02*
X17250Y-21450D01*
X17250Y-21450D02*
X17900Y-21450D01*
X18600Y-20550D02*
X19250Y-20550D01*
X19250Y-20550D02*
X19250Y-21450D01*
X19250Y-21450D02*
X18600Y-21450D01*
X17900Y-20550D02*
X17250Y-20550D01*
X15500Y-26300D02*
X15500Y-27200D01*
X15500Y-27200D02*
X16150Y-27200D01*
X16850Y-26300D02*
X17500Y-26300D01*
X17500Y-26300D02*
X17500Y-27200D01*
X17500Y-27200D02*
X16850Y-27200D01*
X16150Y-26300D02*
X15500Y-26300D01*
X17050Y-24000D02*
X17950Y-24000D01*
X17950Y-24000D02*
X17950Y-23350D01*
X17050Y-22650D02*
X17050Y-22000D01*
X17050Y-22000D02*
X17950Y-22000D01*
X17950Y-22000D02*
X17950Y-22650D01*
X17050Y-23350D02*
X17050Y-24000D01*
X16450Y-24000D02*
X15550Y-24000D01*
X15550Y-24000D02*
X15550Y-24650D01*
X16450Y-25350D02*
X16450Y-26000D01*
X16450Y-26000D02*
X15550Y-26000D01*
X15550Y-26000D02*
X15550Y-25350D01*
X16450Y-24650D02*
X16450Y-24000D01*
G54D14*
X20600Y-23400D02*
G75*
G03X20600Y-23400I-50J0D01*
G74*
G01*
X20550Y-22950D02*
X20550Y-23350D01*
X20550Y-23350D02*
X19950Y-23350D01*
X19950Y-23350D02*
X19950Y-22950D01*
X19950Y-22550D02*
X19950Y-22150D01*
X19950Y-22150D02*
X20550Y-22150D01*
X20550Y-22150D02*
X20550Y-22550D01*
G54D15*
X27450Y-30250D02*
X26550Y-30250D01*
X26550Y-30250D02*
X26550Y-30900D01*
X27450Y-31600D02*
X27450Y-32250D01*
X27450Y-32250D02*
X26550Y-32250D01*
X26550Y-32250D02*
X26550Y-31600D01*
X27450Y-30900D02*
X27450Y-30250D01*
G54D14*
X20900Y-22550D02*
G75*
G03X20900Y-22550I-50J0D01*
G74*
G01*
X21300Y-22550D02*
X20900Y-22550D01*
X20900Y-22550D02*
X20900Y-21950D01*
X20900Y-21950D02*
X21300Y-21950D01*
X21700Y-21950D02*
X22100Y-21950D01*
X22100Y-21950D02*
X22100Y-22550D01*
X22100Y-22550D02*
X21700Y-22550D01*
X23100Y-23900D02*
G75*
G03X23100Y-23900I-50J0D01*
G74*
G01*
X23050Y-23450D02*
X23050Y-23850D01*
X23050Y-23850D02*
X22450Y-23850D01*
X22450Y-23850D02*
X22450Y-23450D01*
X22450Y-23050D02*
X22450Y-22650D01*
X22450Y-22650D02*
X23050Y-22650D01*
X23050Y-22650D02*
X23050Y-23050D01*
X31700Y-37950D02*
G75*
G03X31700Y-37950I-50J0D01*
G74*
G01*
X31200Y-37950D02*
X31600Y-37950D01*
X31600Y-37950D02*
X31600Y-38550D01*
X31600Y-38550D02*
X31200Y-38550D01*
X30800Y-38550D02*
X30400Y-38550D01*
X30400Y-38550D02*
X30400Y-37950D01*
X30400Y-37950D02*
X30800Y-37950D01*
X32150Y-38550D02*
G75*
G03X32150Y-38550I-50J0D01*
G74*
G01*
X32550Y-38550D02*
X32150Y-38550D01*
X32150Y-38550D02*
X32150Y-37950D01*
X32150Y-37950D02*
X32550Y-37950D01*
X32950Y-37950D02*
X33350Y-37950D01*
X33350Y-37950D02*
X33350Y-38550D01*
X33350Y-38550D02*
X32950Y-38550D01*
X27250Y-20100D02*
G75*
G03X27250Y-20100I-50J0D01*
G74*
G01*
X27200Y-20550D02*
X27200Y-20150D01*
X27200Y-20150D02*
X27800Y-20150D01*
X27800Y-20150D02*
X27800Y-20550D01*
X27800Y-20950D02*
X27800Y-21350D01*
X27800Y-21350D02*
X27200Y-21350D01*
X27200Y-21350D02*
X27200Y-20950D01*
X31850Y-22150D02*
G75*
G03X31850Y-22150I-50J0D01*
G74*
G01*
X31800Y-21700D02*
X31800Y-22100D01*
X31800Y-22100D02*
X31200Y-22100D01*
X31200Y-22100D02*
X31200Y-21700D01*
X31200Y-21300D02*
X31200Y-20900D01*
X31200Y-20900D02*
X31800Y-20900D01*
X31800Y-20900D02*
X31800Y-21300D01*
X33250Y-19600D02*
G75*
G03X33250Y-19600I-50J0D01*
G74*
G01*
X33200Y-20050D02*
X33200Y-19650D01*
X33200Y-19650D02*
X33800Y-19650D01*
X33800Y-19650D02*
X33800Y-20050D01*
X33800Y-20450D02*
X33800Y-20850D01*
X33800Y-20850D02*
X33200Y-20850D01*
X33200Y-20850D02*
X33200Y-20450D01*
X36350Y-20900D02*
G75*
G03X36350Y-20900I-50J0D01*
G74*
G01*
X36300Y-20450D02*
X36300Y-20850D01*
X36300Y-20850D02*
X35700Y-20850D01*
X35700Y-20850D02*
X35700Y-20450D01*
X35700Y-20050D02*
X35700Y-19650D01*
X35700Y-19650D02*
X36300Y-19650D01*
X36300Y-19650D02*
X36300Y-20050D01*
X33000Y-44000D02*
G75*
G03X33000Y-44000I-50J0D01*
G74*
G01*
X32950Y-43550D02*
X32950Y-43950D01*
X32950Y-43950D02*
X32350Y-43950D01*
X32350Y-43950D02*
X32350Y-43550D01*
X32350Y-43150D02*
X32350Y-42750D01*
X32350Y-42750D02*
X32950Y-42750D01*
X32950Y-42750D02*
X32950Y-43150D01*
X33400Y-40900D02*
G75*
G03X33400Y-40900I-50J0D01*
G74*
G01*
X33350Y-41350D02*
X33350Y-40950D01*
X33350Y-40950D02*
X33950Y-40950D01*
X33950Y-40950D02*
X33950Y-41350D01*
X33950Y-41750D02*
X33950Y-42150D01*
X33950Y-42150D02*
X33350Y-42150D01*
X33350Y-42150D02*
X33350Y-41750D01*
X31700Y-44000D02*
G75*
G03X31700Y-44000I-50J0D01*
G74*
G01*
X31650Y-43550D02*
X31650Y-43950D01*
X31650Y-43950D02*
X31050Y-43950D01*
X31050Y-43950D02*
X31050Y-43550D01*
X31050Y-43150D02*
X31050Y-42750D01*
X31050Y-42750D02*
X31650Y-42750D01*
X31650Y-42750D02*
X31650Y-43150D01*
X30350Y-42250D02*
G75*
G03X30350Y-42250I-50J0D01*
G74*
G01*
X29850Y-42250D02*
X30250Y-42250D01*
X30250Y-42250D02*
X30250Y-42850D01*
X30250Y-42850D02*
X29850Y-42850D01*
X29450Y-42850D02*
X29050Y-42850D01*
X29050Y-42850D02*
X29050Y-42250D01*
X29050Y-42250D02*
X29450Y-42250D01*
X37950Y-19450D02*
G75*
G03X37950Y-19450I-50J0D01*
G74*
G01*
X37450Y-19450D02*
X37850Y-19450D01*
X37850Y-19450D02*
X37850Y-20050D01*
X37850Y-20050D02*
X37450Y-20050D01*
X37050Y-20050D02*
X36650Y-20050D01*
X36650Y-20050D02*
X36650Y-19450D01*
X36650Y-19450D02*
X37050Y-19450D01*
X37200Y-42900D02*
G75*
G03X37200Y-42900I-50J0D01*
G74*
G01*
X37150Y-42450D02*
X37150Y-42850D01*
X37150Y-42850D02*
X36550Y-42850D01*
X36550Y-42850D02*
X36550Y-42450D01*
X36550Y-42050D02*
X36550Y-41650D01*
X36550Y-41650D02*
X37150Y-41650D01*
X37150Y-41650D02*
X37150Y-42050D01*
X36600Y-40100D02*
G75*
G03X36600Y-40100I-50J0D01*
G74*
G01*
X36550Y-40550D02*
X36550Y-40150D01*
X36550Y-40150D02*
X37150Y-40150D01*
X37150Y-40150D02*
X37150Y-40550D01*
X37150Y-40950D02*
X37150Y-41350D01*
X37150Y-41350D02*
X36550Y-41350D01*
X36550Y-41350D02*
X36550Y-40950D01*
X28100Y-42200D02*
G75*
G03X28100Y-42200I-50J0D01*
G74*
G01*
X28050Y-41750D02*
X28050Y-42150D01*
X28050Y-42150D02*
X27450Y-42150D01*
X27450Y-42150D02*
X27450Y-41750D01*
X27450Y-41350D02*
X27450Y-40950D01*
X27450Y-40950D02*
X28050Y-40950D01*
X28050Y-40950D02*
X28050Y-41350D01*
X29000Y-42200D02*
G75*
G03X29000Y-42200I-50J0D01*
G74*
G01*
X28950Y-41750D02*
X28950Y-42150D01*
X28950Y-42150D02*
X28350Y-42150D01*
X28350Y-42150D02*
X28350Y-41750D01*
X28350Y-41350D02*
X28350Y-40950D01*
X28350Y-40950D02*
X28950Y-40950D01*
X28950Y-40950D02*
X28950Y-41350D01*
X38850Y-20900D02*
G75*
G03X38850Y-20900I-50J0D01*
G74*
G01*
X38800Y-20450D02*
X38800Y-20850D01*
X38800Y-20850D02*
X38200Y-20850D01*
X38200Y-20850D02*
X38200Y-20450D01*
X38200Y-20050D02*
X38200Y-19650D01*
X38200Y-19650D02*
X38800Y-19650D01*
X38800Y-19650D02*
X38800Y-20050D01*
X35600Y-40900D02*
G75*
G03X35600Y-40900I-50J0D01*
G74*
G01*
X35550Y-41350D02*
X35550Y-40950D01*
X35550Y-40950D02*
X36150Y-40950D01*
X36150Y-40950D02*
X36150Y-41350D01*
X36150Y-41750D02*
X36150Y-42150D01*
X36150Y-42150D02*
X35550Y-42150D01*
X35550Y-42150D02*
X35550Y-41750D01*
X35300Y-42200D02*
G75*
G03X35300Y-42200I-50J0D01*
G74*
G01*
X35250Y-41750D02*
X35250Y-42150D01*
X35250Y-42150D02*
X34650Y-42150D01*
X34650Y-42150D02*
X34650Y-41750D01*
X34650Y-41350D02*
X34650Y-40950D01*
X34650Y-40950D02*
X35250Y-40950D01*
X35250Y-40950D02*
X35250Y-41350D01*
X35350Y-40150D02*
G75*
G03X35350Y-40150I-50J0D01*
G74*
G01*
X34850Y-40150D02*
X35250Y-40150D01*
X35250Y-40150D02*
X35250Y-40750D01*
X35250Y-40750D02*
X34850Y-40750D01*
X34450Y-40750D02*
X34050Y-40750D01*
X34050Y-40750D02*
X34050Y-40150D01*
X34050Y-40150D02*
X34450Y-40150D01*
X30200Y-40900D02*
G75*
G03X30200Y-40900I-50J0D01*
G74*
G01*
X30150Y-41350D02*
X30150Y-40950D01*
X30150Y-40950D02*
X30750Y-40950D01*
X30750Y-40950D02*
X30750Y-41350D01*
X30750Y-41750D02*
X30750Y-42150D01*
X30750Y-42150D02*
X30150Y-42150D01*
X30150Y-42150D02*
X30150Y-41750D01*
X31900Y-42200D02*
G75*
G03X31900Y-42200I-50J0D01*
G74*
G01*
X31850Y-41750D02*
X31850Y-42150D01*
X31850Y-42150D02*
X31250Y-42150D01*
X31250Y-42150D02*
X31250Y-41750D01*
X31250Y-41350D02*
X31250Y-40950D01*
X31250Y-40950D02*
X31850Y-40950D01*
X31850Y-40950D02*
X31850Y-41350D01*
X32500Y-40900D02*
G75*
G03X32500Y-40900I-50J0D01*
G74*
G01*
X32450Y-41350D02*
X32450Y-40950D01*
X32450Y-40950D02*
X33050Y-40950D01*
X33050Y-40950D02*
X33050Y-41350D01*
X33050Y-41750D02*
X33050Y-42150D01*
X33050Y-42150D02*
X32450Y-42150D01*
X32450Y-42150D02*
X32450Y-41750D01*
X24050Y-38950D02*
G75*
G03X24050Y-38950I-50J0D01*
G74*
G01*
X23550Y-38950D02*
X23950Y-38950D01*
X23950Y-38950D02*
X23950Y-39550D01*
X23950Y-39550D02*
X23550Y-39550D01*
X23150Y-39550D02*
X22750Y-39550D01*
X22750Y-39550D02*
X22750Y-38950D01*
X22750Y-38950D02*
X23150Y-38950D01*
X25300Y-38900D02*
G75*
G03X25300Y-38900I-50J0D01*
G74*
G01*
X25250Y-39350D02*
X25250Y-38950D01*
X25250Y-38950D02*
X25850Y-38950D01*
X25850Y-38950D02*
X25850Y-39350D01*
X25850Y-39750D02*
X25850Y-40150D01*
X25850Y-40150D02*
X25250Y-40150D01*
X25250Y-40150D02*
X25250Y-39750D01*
X27950Y-38650D02*
G75*
G03X27950Y-38650I-50J0D01*
G74*
G01*
X27450Y-38650D02*
X27850Y-38650D01*
X27850Y-38650D02*
X27850Y-39250D01*
X27850Y-39250D02*
X27450Y-39250D01*
X27050Y-39250D02*
X26650Y-39250D01*
X26650Y-39250D02*
X26650Y-38650D01*
X26650Y-38650D02*
X27050Y-38650D01*
X20650Y-41050D02*
G75*
G03X20650Y-41050I-50J0D01*
G74*
G01*
X20150Y-41050D02*
X20550Y-41050D01*
X20550Y-41050D02*
X20550Y-41650D01*
X20550Y-41650D02*
X20150Y-41650D01*
X19750Y-41650D02*
X19350Y-41650D01*
X19350Y-41650D02*
X19350Y-41050D01*
X19350Y-41050D02*
X19750Y-41050D01*
X17950Y-40050D02*
G75*
G03X17950Y-40050I-50J0D01*
G74*
G01*
X18350Y-40050D02*
X17950Y-40050D01*
X17950Y-40050D02*
X17950Y-39450D01*
X17950Y-39450D02*
X18350Y-39450D01*
X18750Y-39450D02*
X19150Y-39450D01*
X19150Y-39450D02*
X19150Y-40050D01*
X19150Y-40050D02*
X18750Y-40050D01*
X17950Y-40850D02*
G75*
G03X17950Y-40850I-50J0D01*
G74*
G01*
X18350Y-40850D02*
X17950Y-40850D01*
X17950Y-40850D02*
X17950Y-40250D01*
X17950Y-40250D02*
X18350Y-40250D01*
X18750Y-40250D02*
X19150Y-40250D01*
X19150Y-40250D02*
X19150Y-40850D01*
X19150Y-40850D02*
X18750Y-40850D01*
X19350Y-29650D02*
G75*
G03X19350Y-29650I-50J0D01*
G74*
G01*
X19300Y-29200D02*
X19300Y-29600D01*
X19300Y-29600D02*
X18700Y-29600D01*
X18700Y-29600D02*
X18700Y-29200D01*
X18700Y-28800D02*
X18700Y-28400D01*
X18700Y-28400D02*
X19300Y-28400D01*
X19300Y-28400D02*
X19300Y-28800D01*
X17500Y-30850D02*
G75*
G03X17500Y-30850I-50J0D01*
G74*
G01*
X17450Y-31300D02*
X17450Y-30900D01*
X17450Y-30900D02*
X18050Y-30900D01*
X18050Y-30900D02*
X18050Y-31300D01*
X18050Y-31700D02*
X18050Y-32100D01*
X18050Y-32100D02*
X17450Y-32100D01*
X17450Y-32100D02*
X17450Y-31700D01*
X19950Y-34950D02*
G75*
G03X19950Y-34950I-50J0D01*
G74*
G01*
X19450Y-34950D02*
X19850Y-34950D01*
X19850Y-34950D02*
X19850Y-35550D01*
X19850Y-35550D02*
X19450Y-35550D01*
X19050Y-35550D02*
X18650Y-35550D01*
X18650Y-35550D02*
X18650Y-34950D01*
X18650Y-34950D02*
X19050Y-34950D01*
X18500Y-32850D02*
G75*
G03X18500Y-32850I-50J0D01*
G74*
G01*
X18450Y-33300D02*
X18450Y-32900D01*
X18450Y-32900D02*
X19050Y-32900D01*
X19050Y-32900D02*
X19050Y-33300D01*
X19050Y-33700D02*
X19050Y-34100D01*
X19050Y-34100D02*
X18450Y-34100D01*
X18450Y-34100D02*
X18450Y-33700D01*
X23350Y-31150D02*
G75*
G03X23350Y-31150I-50J0D01*
G74*
G01*
X23300Y-30700D02*
X23300Y-31100D01*
X23300Y-31100D02*
X22700Y-31100D01*
X22700Y-31100D02*
X22700Y-30700D01*
X22700Y-30300D02*
X22700Y-29900D01*
X22700Y-29900D02*
X23300Y-29900D01*
X23300Y-29900D02*
X23300Y-30300D01*
X23350Y-33150D02*
G75*
G03X23350Y-33150I-50J0D01*
G74*
G01*
X23300Y-32700D02*
X23300Y-33100D01*
X23300Y-33100D02*
X22700Y-33100D01*
X22700Y-33100D02*
X22700Y-32700D01*
X22700Y-32300D02*
X22700Y-31900D01*
X22700Y-31900D02*
X23300Y-31900D01*
X23300Y-31900D02*
X23300Y-32300D01*
G54D15*
X31150Y-30200D02*
X31150Y-28750D01*
X31150Y-28750D02*
X30650Y-28750D01*
X30650Y-28750D02*
X30650Y-30200D01*
X31800Y-30200D02*
X31800Y-28750D01*
X31800Y-28750D02*
X31300Y-28750D01*
X31300Y-28750D02*
X31300Y-30200D01*
X32500Y-30200D02*
X32500Y-28750D01*
X32500Y-28750D02*
X32000Y-28750D01*
X32000Y-28750D02*
X32000Y-30200D01*
X33150Y-30200D02*
X33150Y-28750D01*
X33150Y-28750D02*
X32700Y-28750D01*
X32700Y-28750D02*
X32650Y-28750D01*
X32650Y-28750D02*
X32650Y-30200D01*
X33850Y-30200D02*
X33850Y-28750D01*
X33850Y-28750D02*
X33350Y-28750D01*
X33350Y-28750D02*
X33350Y-30200D01*
X34350Y-30200D02*
X30150Y-30200D01*
X30150Y-30200D02*
X30150Y-34200D01*
X30150Y-34200D02*
X34350Y-34200D01*
X34350Y-34200D02*
X34350Y-30200D01*
G54D19*
X24752Y-36329D02*
X24850Y-36211D01*
X24850Y-36211D02*
X24890Y-36152D01*
X24890Y-36152D02*
X24890Y-36486D01*
X24614Y-35738D02*
X24614Y-36447D01*
X24614Y-35738D02*
X24870Y-35738D01*
X26386Y-35738D02*
X26386Y-36447D01*
X26386Y-35738D02*
X26130Y-35738D01*
G54D15*
X30300Y-37200D02*
X30100Y-37500D01*
X30300Y-36500D02*
X30300Y-37525D01*
X30300Y-37525D02*
X29700Y-37525D01*
X29700Y-37525D02*
X29700Y-36500D01*
X29700Y-36500D02*
X30300Y-36500D01*
X22950Y-20050D02*
X23150Y-19750D01*
X22950Y-20750D02*
X22950Y-19725D01*
X22950Y-19725D02*
X23550Y-19725D01*
X23550Y-19725D02*
X23550Y-20750D01*
X23550Y-20750D02*
X22950Y-20750D01*
X33450Y-36800D02*
X33650Y-36500D01*
X33450Y-37500D02*
X33450Y-36475D01*
X33450Y-36475D02*
X34050Y-36475D01*
X34050Y-36475D02*
X34050Y-37500D01*
X34050Y-37500D02*
X33450Y-37500D01*
G54D19*
X30221Y-19480D02*
X29997Y-19480D01*
X29997Y-19480D02*
X29997Y-19642D01*
G54D15*
X23925Y-41725D02*
X23925Y-39775D01*
X23925Y-39775D02*
X22375Y-39775D01*
X22375Y-39775D02*
X22375Y-41725D01*
X22375Y-41725D02*
X23925Y-41725D01*
X23786Y-41475D02*
G75*
G03X23786Y-41475I-111J0D01*
G74*
G01*
X20400Y-35100D02*
X20400Y-34400D01*
X20400Y-34400D02*
X21600Y-34400D01*
X21600Y-34400D02*
X21600Y-35100D01*
X21600Y-35100D02*
X20400Y-35100D01*
G54D11*
X20763Y-30188D02*
X20291Y-30188D01*
X21708Y-30188D02*
X21236Y-30188D01*
X20763Y-30188D02*
G75*
G03X21000Y-30425I236J0D01*
G74*
G01*
X21000Y-30425D02*
G75*
G03X21236Y-30188I0J236D01*
G74*
G01*
X21708Y-30188D02*
X21708Y-33811D01*
X21708Y-33811D02*
X20291Y-33811D01*
X20291Y-33811D02*
X20291Y-30188D01*
G54D15*
X20500Y-25450D02*
X20500Y-24550D01*
X20500Y-24550D02*
X19850Y-24550D01*
X19150Y-25450D02*
X18500Y-25450D01*
X18500Y-25450D02*
X18500Y-24550D01*
X18500Y-24550D02*
X19150Y-24550D01*
X19850Y-25450D02*
X20500Y-25450D01*
X19450Y-22000D02*
X18550Y-22000D01*
X18550Y-22000D02*
X18550Y-22650D01*
X19450Y-23350D02*
X19450Y-24000D01*
X19450Y-24000D02*
X18550Y-24000D01*
X18550Y-24000D02*
X18550Y-23350D01*
X19450Y-22650D02*
X19450Y-22000D01*
G54D21*
X36450Y-25350D02*
X36450Y-26050D01*
X36450Y-26050D02*
X36200Y-26300D01*
X36200Y-26300D02*
X34800Y-26300D01*
X34800Y-26300D02*
X34550Y-26050D01*
X34550Y-26050D02*
X34550Y-24650D01*
X34550Y-24650D02*
X34800Y-24400D01*
X34800Y-24400D02*
X36200Y-24400D01*
X36200Y-24400D02*
X36450Y-24650D01*
X36450Y-24650D02*
X36450Y-25350D01*
G54D20*
X26750Y-14500D02*
X26750Y-13500D01*
X26750Y-13500D02*
X29750Y-13500D01*
X29750Y-13500D02*
X29750Y-14500D01*
X29750Y-14500D02*
X26750Y-14500D01*
X27750Y-13500D02*
X27750Y-14500D01*
X30750Y-14500D02*
X30750Y-13500D01*
X30750Y-13500D02*
X33750Y-13500D01*
X33750Y-13500D02*
X33750Y-14500D01*
X33750Y-14500D02*
X30750Y-14500D01*
X31750Y-13500D02*
X31750Y-14500D01*
X34750Y-14500D02*
X34750Y-13500D01*
X34750Y-13500D02*
X37750Y-13500D01*
X37750Y-13500D02*
X37750Y-14500D01*
X37750Y-14500D02*
X34750Y-14500D01*
X35750Y-13500D02*
X35750Y-14500D01*
G54D14*
X18350Y-35650D02*
G75*
G03X18350Y-35650I-50J0D01*
G74*
G01*
X18300Y-35200D02*
X18300Y-35600D01*
X18300Y-35600D02*
X17700Y-35600D01*
X17700Y-35600D02*
X17700Y-35200D01*
X17700Y-34800D02*
X17700Y-34400D01*
X17700Y-34400D02*
X18300Y-34400D01*
X18300Y-34400D02*
X18300Y-34800D01*
G54D15*
X39950Y-31100D02*
X39950Y-31000D01*
X39950Y-31000D02*
X39050Y-31000D01*
X39050Y-31000D02*
X39050Y-31100D01*
X39950Y-31100D02*
X39050Y-31100D01*
X39050Y-31100D02*
X39050Y-31750D01*
X39950Y-32450D02*
X39950Y-33100D01*
X39950Y-33100D02*
X39050Y-33100D01*
X39050Y-33100D02*
X39050Y-32450D01*
X39950Y-31750D02*
X39950Y-31100D01*
G54D14*
X36350Y-29350D02*
G75*
G03X36350Y-29350I-50J0D01*
G74*
G01*
X36300Y-29800D02*
X36300Y-29400D01*
X36300Y-29400D02*
X36900Y-29400D01*
X36900Y-29400D02*
X36900Y-29800D01*
X36900Y-30200D02*
X36900Y-30600D01*
X36900Y-30600D02*
X36300Y-30600D01*
X36300Y-30600D02*
X36300Y-30200D01*
G54D20*
X25050Y-43250D02*
X25050Y-44250D01*
X25050Y-44250D02*
X22050Y-44250D01*
X22050Y-44250D02*
X22050Y-43250D01*
X22050Y-43250D02*
X25050Y-43250D01*
X24050Y-44250D02*
X24050Y-43250D01*
G54D19*
X40700Y-28000D02*
X40250Y-28000D01*
X40700Y-29200D02*
X40250Y-29200D01*
X40250Y-30700D02*
X38800Y-30700D01*
X38800Y-30700D02*
X38800Y-26500D01*
X38800Y-26500D02*
X40250Y-26500D01*
X40700Y-30700D02*
X40250Y-30700D01*
X40250Y-30700D02*
X40250Y-26500D01*
X40250Y-26500D02*
X40700Y-26500D01*
X40700Y-28600D02*
X40700Y-26500D01*
X40700Y-28600D02*
X40700Y-30700D01*
G54D13*
X23454Y-36348D02*
X23440Y-36361D01*
X23401Y-36374D01*
X23375Y-36374D01*
X23335Y-36361D01*
X23309Y-36335D01*
X23296Y-36309D01*
X23283Y-36256D01*
X23283Y-36217D01*
X23296Y-36164D01*
X23309Y-36138D01*
X23335Y-36112D01*
X23375Y-36099D01*
X23401Y-36099D01*
X23440Y-36112D01*
X23454Y-36125D01*
X23716Y-36374D02*
X23559Y-36374D01*
X23637Y-36374D02*
X23637Y-36099D01*
X23611Y-36138D01*
X23585Y-36164D01*
X23559Y-36177D01*
X34848Y-28795D02*
X34861Y-28809D01*
X34874Y-28848D01*
X34874Y-28874D01*
X34861Y-28914D01*
X34835Y-28940D01*
X34809Y-28953D01*
X34756Y-28966D01*
X34717Y-28966D01*
X34664Y-28953D01*
X34638Y-28940D01*
X34612Y-28914D01*
X34599Y-28874D01*
X34599Y-28848D01*
X34612Y-28809D01*
X34625Y-28795D01*
X34625Y-28690D02*
X34612Y-28677D01*
X34599Y-28651D01*
X34599Y-28585D01*
X34612Y-28559D01*
X34625Y-28546D01*
X34651Y-28533D01*
X34677Y-28533D01*
X34717Y-28546D01*
X34874Y-28704D01*
X34874Y-28533D01*
X32098Y-27295D02*
X32111Y-27309D01*
X32124Y-27348D01*
X32124Y-27374D01*
X32111Y-27414D01*
X32085Y-27440D01*
X32059Y-27453D01*
X32006Y-27466D01*
X31967Y-27466D01*
X31914Y-27453D01*
X31888Y-27440D01*
X31862Y-27414D01*
X31849Y-27374D01*
X31849Y-27348D01*
X31862Y-27309D01*
X31875Y-27295D01*
X31940Y-27059D02*
X32124Y-27059D01*
X31835Y-27125D02*
X32032Y-27190D01*
X32032Y-27020D01*
X34598Y-26295D02*
X34611Y-26309D01*
X34624Y-26348D01*
X34624Y-26374D01*
X34611Y-26414D01*
X34585Y-26440D01*
X34559Y-26453D01*
X34506Y-26466D01*
X34467Y-26466D01*
X34414Y-26453D01*
X34388Y-26440D01*
X34362Y-26414D01*
X34349Y-26374D01*
X34349Y-26348D01*
X34362Y-26309D01*
X34375Y-26295D01*
X34349Y-26046D02*
X34349Y-26177D01*
X34480Y-26190D01*
X34467Y-26177D01*
X34454Y-26151D01*
X34454Y-26085D01*
X34467Y-26059D01*
X34480Y-26046D01*
X34506Y-26033D01*
X34572Y-26033D01*
X34598Y-26046D01*
X34611Y-26059D01*
X34624Y-26085D01*
X34624Y-26151D01*
X34611Y-26177D01*
X34598Y-26190D01*
X37448Y-27995D02*
X37461Y-28009D01*
X37474Y-28048D01*
X37474Y-28074D01*
X37461Y-28114D01*
X37435Y-28140D01*
X37409Y-28153D01*
X37356Y-28166D01*
X37317Y-28166D01*
X37264Y-28153D01*
X37238Y-28140D01*
X37212Y-28114D01*
X37199Y-28074D01*
X37199Y-28048D01*
X37212Y-28009D01*
X37225Y-27995D01*
X37199Y-27759D02*
X37199Y-27812D01*
X37212Y-27838D01*
X37225Y-27851D01*
X37264Y-27877D01*
X37317Y-27890D01*
X37422Y-27890D01*
X37448Y-27877D01*
X37461Y-27864D01*
X37474Y-27838D01*
X37474Y-27785D01*
X37461Y-27759D01*
X37448Y-27746D01*
X37422Y-27733D01*
X37356Y-27733D01*
X37330Y-27746D01*
X37317Y-27759D01*
X37304Y-27785D01*
X37304Y-27838D01*
X37317Y-27864D01*
X37330Y-27877D01*
X37356Y-27890D01*
X28454Y-37848D02*
X28440Y-37861D01*
X28401Y-37874D01*
X28375Y-37874D01*
X28335Y-37861D01*
X28309Y-37835D01*
X28296Y-37809D01*
X28283Y-37756D01*
X28283Y-37717D01*
X28296Y-37664D01*
X28309Y-37638D01*
X28335Y-37612D01*
X28375Y-37599D01*
X28401Y-37599D01*
X28440Y-37612D01*
X28454Y-37625D01*
X28611Y-37717D02*
X28585Y-37704D01*
X28572Y-37690D01*
X28559Y-37664D01*
X28559Y-37651D01*
X28572Y-37625D01*
X28585Y-37612D01*
X28611Y-37599D01*
X28664Y-37599D01*
X28690Y-37612D01*
X28703Y-37625D01*
X28716Y-37651D01*
X28716Y-37664D01*
X28703Y-37690D01*
X28690Y-37704D01*
X28664Y-37717D01*
X28611Y-37717D01*
X28585Y-37730D01*
X28572Y-37743D01*
X28559Y-37769D01*
X28559Y-37822D01*
X28572Y-37848D01*
X28585Y-37861D01*
X28611Y-37874D01*
X28664Y-37874D01*
X28690Y-37861D01*
X28703Y-37848D01*
X28716Y-37822D01*
X28716Y-37769D01*
X28703Y-37743D01*
X28690Y-37730D01*
X28664Y-37717D01*
X30098Y-28295D02*
X30111Y-28309D01*
X30124Y-28348D01*
X30124Y-28374D01*
X30111Y-28414D01*
X30085Y-28440D01*
X30059Y-28453D01*
X30006Y-28466D01*
X29967Y-28466D01*
X29914Y-28453D01*
X29888Y-28440D01*
X29862Y-28414D01*
X29849Y-28374D01*
X29849Y-28348D01*
X29862Y-28309D01*
X29875Y-28295D01*
X30124Y-28164D02*
X30124Y-28112D01*
X30111Y-28085D01*
X30098Y-28072D01*
X30059Y-28046D01*
X30006Y-28033D01*
X29901Y-28033D01*
X29875Y-28046D01*
X29862Y-28059D01*
X29849Y-28085D01*
X29849Y-28138D01*
X29862Y-28164D01*
X29875Y-28177D01*
X29901Y-28190D01*
X29967Y-28190D01*
X29993Y-28177D01*
X30006Y-28164D01*
X30019Y-28138D01*
X30019Y-28085D01*
X30006Y-28059D01*
X29993Y-28046D01*
X29967Y-28033D01*
X28322Y-32098D02*
X28309Y-32111D01*
X28270Y-32124D01*
X28244Y-32124D01*
X28204Y-32111D01*
X28178Y-32085D01*
X28165Y-32059D01*
X28152Y-32006D01*
X28152Y-31967D01*
X28165Y-31914D01*
X28178Y-31888D01*
X28204Y-31862D01*
X28244Y-31849D01*
X28270Y-31849D01*
X28309Y-31862D01*
X28322Y-31875D01*
X28585Y-32124D02*
X28427Y-32124D01*
X28506Y-32124D02*
X28506Y-31849D01*
X28480Y-31888D01*
X28454Y-31914D01*
X28427Y-31927D01*
X28755Y-31849D02*
X28782Y-31849D01*
X28808Y-31862D01*
X28821Y-31875D01*
X28834Y-31901D01*
X28847Y-31954D01*
X28847Y-32019D01*
X28834Y-32072D01*
X28821Y-32098D01*
X28808Y-32111D01*
X28782Y-32124D01*
X28755Y-32124D01*
X28729Y-32111D01*
X28716Y-32098D01*
X28703Y-32072D01*
X28690Y-32019D01*
X28690Y-31954D01*
X28703Y-31901D01*
X28716Y-31875D01*
X28729Y-31862D01*
X28755Y-31849D01*
X22098Y-18927D02*
X22111Y-18940D01*
X22124Y-18979D01*
X22124Y-19005D01*
X22111Y-19045D01*
X22085Y-19071D01*
X22059Y-19084D01*
X22006Y-19097D01*
X21967Y-19097D01*
X21914Y-19084D01*
X21888Y-19071D01*
X21862Y-19045D01*
X21849Y-19005D01*
X21849Y-18979D01*
X21862Y-18940D01*
X21875Y-18927D01*
X22124Y-18664D02*
X22124Y-18822D01*
X22124Y-18743D02*
X21849Y-18743D01*
X21888Y-18769D01*
X21914Y-18795D01*
X21927Y-18822D01*
X22124Y-18402D02*
X22124Y-18559D01*
X22124Y-18480D02*
X21849Y-18480D01*
X21888Y-18507D01*
X21914Y-18533D01*
X21927Y-18559D01*
X23598Y-21927D02*
X23611Y-21940D01*
X23624Y-21979D01*
X23624Y-22005D01*
X23611Y-22045D01*
X23585Y-22071D01*
X23559Y-22084D01*
X23506Y-22097D01*
X23467Y-22097D01*
X23414Y-22084D01*
X23388Y-22071D01*
X23362Y-22045D01*
X23349Y-22005D01*
X23349Y-21979D01*
X23362Y-21940D01*
X23375Y-21927D01*
X23624Y-21664D02*
X23624Y-21822D01*
X23624Y-21743D02*
X23349Y-21743D01*
X23388Y-21769D01*
X23414Y-21795D01*
X23427Y-21822D01*
X23375Y-21559D02*
X23362Y-21546D01*
X23349Y-21520D01*
X23349Y-21454D01*
X23362Y-21428D01*
X23375Y-21415D01*
X23401Y-21402D01*
X23427Y-21402D01*
X23467Y-21415D01*
X23624Y-21572D01*
X23624Y-21402D01*
X27598Y-28677D02*
X27611Y-28690D01*
X27624Y-28729D01*
X27624Y-28755D01*
X27611Y-28795D01*
X27585Y-28821D01*
X27559Y-28834D01*
X27506Y-28847D01*
X27467Y-28847D01*
X27414Y-28834D01*
X27388Y-28821D01*
X27362Y-28795D01*
X27349Y-28755D01*
X27349Y-28729D01*
X27362Y-28690D01*
X27375Y-28677D01*
X27624Y-28414D02*
X27624Y-28572D01*
X27624Y-28493D02*
X27349Y-28493D01*
X27388Y-28519D01*
X27414Y-28545D01*
X27427Y-28572D01*
X27349Y-28322D02*
X27349Y-28152D01*
X27454Y-28244D01*
X27454Y-28204D01*
X27467Y-28178D01*
X27480Y-28165D01*
X27506Y-28152D01*
X27572Y-28152D01*
X27598Y-28165D01*
X27611Y-28178D01*
X27624Y-28204D01*
X27624Y-28283D01*
X27611Y-28309D01*
X27598Y-28322D01*
X29072Y-34348D02*
X29059Y-34361D01*
X29020Y-34374D01*
X28994Y-34374D01*
X28954Y-34361D01*
X28928Y-34335D01*
X28915Y-34309D01*
X28902Y-34256D01*
X28902Y-34217D01*
X28915Y-34164D01*
X28928Y-34138D01*
X28954Y-34112D01*
X28994Y-34099D01*
X29020Y-34099D01*
X29059Y-34112D01*
X29072Y-34125D01*
X29335Y-34374D02*
X29177Y-34374D01*
X29256Y-34374D02*
X29256Y-34099D01*
X29230Y-34138D01*
X29204Y-34164D01*
X29177Y-34177D01*
X29571Y-34190D02*
X29571Y-34374D01*
X29505Y-34085D02*
X29440Y-34282D01*
X29610Y-34282D01*
X29072Y-35348D02*
X29059Y-35361D01*
X29020Y-35374D01*
X28994Y-35374D01*
X28954Y-35361D01*
X28928Y-35335D01*
X28915Y-35309D01*
X28902Y-35256D01*
X28902Y-35217D01*
X28915Y-35164D01*
X28928Y-35138D01*
X28954Y-35112D01*
X28994Y-35099D01*
X29020Y-35099D01*
X29059Y-35112D01*
X29072Y-35125D01*
X29335Y-35374D02*
X29177Y-35374D01*
X29256Y-35374D02*
X29256Y-35099D01*
X29230Y-35138D01*
X29204Y-35164D01*
X29177Y-35177D01*
X29584Y-35099D02*
X29453Y-35099D01*
X29440Y-35230D01*
X29453Y-35217D01*
X29479Y-35204D01*
X29545Y-35204D01*
X29571Y-35217D01*
X29584Y-35230D01*
X29597Y-35256D01*
X29597Y-35322D01*
X29584Y-35348D01*
X29571Y-35361D01*
X29545Y-35374D01*
X29479Y-35374D01*
X29453Y-35361D01*
X29440Y-35348D01*
X31572Y-35848D02*
X31559Y-35861D01*
X31520Y-35874D01*
X31494Y-35874D01*
X31454Y-35861D01*
X31428Y-35835D01*
X31415Y-35809D01*
X31402Y-35756D01*
X31402Y-35717D01*
X31415Y-35664D01*
X31428Y-35638D01*
X31454Y-35612D01*
X31494Y-35599D01*
X31520Y-35599D01*
X31559Y-35612D01*
X31572Y-35625D01*
X31835Y-35874D02*
X31677Y-35874D01*
X31756Y-35874D02*
X31756Y-35599D01*
X31730Y-35638D01*
X31704Y-35664D01*
X31677Y-35677D01*
X31927Y-35599D02*
X32110Y-35599D01*
X31992Y-35874D01*
X25072Y-19598D02*
X25059Y-19611D01*
X25020Y-19624D01*
X24994Y-19624D01*
X24954Y-19611D01*
X24928Y-19585D01*
X24915Y-19559D01*
X24902Y-19506D01*
X24902Y-19467D01*
X24915Y-19414D01*
X24928Y-19388D01*
X24954Y-19362D01*
X24994Y-19349D01*
X25020Y-19349D01*
X25059Y-19362D01*
X25072Y-19375D01*
X25335Y-19624D02*
X25177Y-19624D01*
X25256Y-19624D02*
X25256Y-19349D01*
X25230Y-19388D01*
X25204Y-19414D01*
X25177Y-19427D01*
X25466Y-19624D02*
X25519Y-19624D01*
X25545Y-19611D01*
X25558Y-19598D01*
X25584Y-19559D01*
X25597Y-19506D01*
X25597Y-19401D01*
X25584Y-19375D01*
X25571Y-19362D01*
X25545Y-19349D01*
X25492Y-19349D01*
X25466Y-19362D01*
X25453Y-19375D01*
X25440Y-19401D01*
X25440Y-19467D01*
X25453Y-19493D01*
X25466Y-19506D01*
X25492Y-19519D01*
X25545Y-19519D01*
X25571Y-19506D01*
X25584Y-19493D01*
X25597Y-19467D01*
X25848Y-21427D02*
X25861Y-21440D01*
X25874Y-21479D01*
X25874Y-21505D01*
X25861Y-21545D01*
X25835Y-21571D01*
X25809Y-21584D01*
X25756Y-21597D01*
X25717Y-21597D01*
X25664Y-21584D01*
X25638Y-21571D01*
X25612Y-21545D01*
X25599Y-21505D01*
X25599Y-21479D01*
X25612Y-21440D01*
X25625Y-21427D01*
X25625Y-21322D02*
X25612Y-21309D01*
X25599Y-21282D01*
X25599Y-21217D01*
X25612Y-21190D01*
X25625Y-21177D01*
X25651Y-21164D01*
X25677Y-21164D01*
X25717Y-21177D01*
X25874Y-21335D01*
X25874Y-21164D01*
X25599Y-20994D02*
X25599Y-20967D01*
X25612Y-20941D01*
X25625Y-20928D01*
X25651Y-20915D01*
X25704Y-20902D01*
X25769Y-20902D01*
X25822Y-20915D01*
X25848Y-20928D01*
X25861Y-20941D01*
X25874Y-20967D01*
X25874Y-20994D01*
X25861Y-21020D01*
X25848Y-21033D01*
X25822Y-21046D01*
X25769Y-21059D01*
X25704Y-21059D01*
X25651Y-21046D01*
X25625Y-21033D01*
X25612Y-21020D01*
X25599Y-20994D01*
X35572Y-37848D02*
X35559Y-37861D01*
X35520Y-37874D01*
X35494Y-37874D01*
X35454Y-37861D01*
X35428Y-37835D01*
X35415Y-37809D01*
X35402Y-37756D01*
X35402Y-37717D01*
X35415Y-37664D01*
X35428Y-37638D01*
X35454Y-37612D01*
X35494Y-37599D01*
X35520Y-37599D01*
X35559Y-37612D01*
X35572Y-37625D01*
X35677Y-37625D02*
X35690Y-37612D01*
X35717Y-37599D01*
X35782Y-37599D01*
X35809Y-37612D01*
X35822Y-37625D01*
X35835Y-37651D01*
X35835Y-37677D01*
X35822Y-37717D01*
X35664Y-37874D01*
X35835Y-37874D01*
X35927Y-37599D02*
X36097Y-37599D01*
X36005Y-37704D01*
X36045Y-37704D01*
X36071Y-37717D01*
X36084Y-37730D01*
X36097Y-37756D01*
X36097Y-37822D01*
X36084Y-37848D01*
X36071Y-37861D01*
X36045Y-37874D01*
X35966Y-37874D01*
X35940Y-37861D01*
X35927Y-37848D01*
X29848Y-22427D02*
X29861Y-22440D01*
X29874Y-22479D01*
X29874Y-22505D01*
X29861Y-22545D01*
X29835Y-22571D01*
X29809Y-22584D01*
X29756Y-22597D01*
X29717Y-22597D01*
X29664Y-22584D01*
X29638Y-22571D01*
X29612Y-22545D01*
X29599Y-22505D01*
X29599Y-22479D01*
X29612Y-22440D01*
X29625Y-22427D01*
X29625Y-22322D02*
X29612Y-22309D01*
X29599Y-22282D01*
X29599Y-22217D01*
X29612Y-22190D01*
X29625Y-22177D01*
X29651Y-22164D01*
X29677Y-22164D01*
X29717Y-22177D01*
X29874Y-22335D01*
X29874Y-22164D01*
X29690Y-21928D02*
X29874Y-21928D01*
X29585Y-21994D02*
X29782Y-22059D01*
X29782Y-21889D01*
X33072Y-17098D02*
X33059Y-17111D01*
X33020Y-17124D01*
X32994Y-17124D01*
X32954Y-17111D01*
X32928Y-17085D01*
X32915Y-17059D01*
X32902Y-17006D01*
X32902Y-16967D01*
X32915Y-16914D01*
X32928Y-16888D01*
X32954Y-16862D01*
X32994Y-16849D01*
X33020Y-16849D01*
X33059Y-16862D01*
X33072Y-16875D01*
X33177Y-16875D02*
X33190Y-16862D01*
X33217Y-16849D01*
X33282Y-16849D01*
X33309Y-16862D01*
X33322Y-16875D01*
X33335Y-16901D01*
X33335Y-16927D01*
X33322Y-16967D01*
X33164Y-17124D01*
X33335Y-17124D01*
X33584Y-16849D02*
X33453Y-16849D01*
X33440Y-16980D01*
X33453Y-16967D01*
X33479Y-16954D01*
X33545Y-16954D01*
X33571Y-16967D01*
X33584Y-16980D01*
X33597Y-17006D01*
X33597Y-17072D01*
X33584Y-17098D01*
X33571Y-17111D01*
X33545Y-17124D01*
X33479Y-17124D01*
X33453Y-17111D01*
X33440Y-17098D01*
X33072Y-18098D02*
X33059Y-18111D01*
X33020Y-18124D01*
X32994Y-18124D01*
X32954Y-18111D01*
X32928Y-18085D01*
X32915Y-18059D01*
X32902Y-18006D01*
X32902Y-17967D01*
X32915Y-17914D01*
X32928Y-17888D01*
X32954Y-17862D01*
X32994Y-17849D01*
X33020Y-17849D01*
X33059Y-17862D01*
X33072Y-17875D01*
X33177Y-17875D02*
X33190Y-17862D01*
X33217Y-17849D01*
X33282Y-17849D01*
X33309Y-17862D01*
X33322Y-17875D01*
X33335Y-17901D01*
X33335Y-17927D01*
X33322Y-17967D01*
X33164Y-18124D01*
X33335Y-18124D01*
X33571Y-17849D02*
X33519Y-17849D01*
X33492Y-17862D01*
X33479Y-17875D01*
X33453Y-17914D01*
X33440Y-17967D01*
X33440Y-18072D01*
X33453Y-18098D01*
X33466Y-18111D01*
X33492Y-18124D01*
X33545Y-18124D01*
X33571Y-18111D01*
X33584Y-18098D01*
X33597Y-18072D01*
X33597Y-18006D01*
X33584Y-17980D01*
X33571Y-17967D01*
X33545Y-17954D01*
X33492Y-17954D01*
X33466Y-17967D01*
X33453Y-17980D01*
X33440Y-18006D01*
X34572Y-19098D02*
X34559Y-19111D01*
X34520Y-19124D01*
X34494Y-19124D01*
X34454Y-19111D01*
X34428Y-19085D01*
X34415Y-19059D01*
X34402Y-19006D01*
X34402Y-18967D01*
X34415Y-18914D01*
X34428Y-18888D01*
X34454Y-18862D01*
X34494Y-18849D01*
X34520Y-18849D01*
X34559Y-18862D01*
X34572Y-18875D01*
X34677Y-18875D02*
X34690Y-18862D01*
X34717Y-18849D01*
X34782Y-18849D01*
X34809Y-18862D01*
X34822Y-18875D01*
X34835Y-18901D01*
X34835Y-18927D01*
X34822Y-18967D01*
X34664Y-19124D01*
X34835Y-19124D01*
X34927Y-18849D02*
X35110Y-18849D01*
X34992Y-19124D01*
X21247Y-42023D02*
X21234Y-42036D01*
X21195Y-42049D01*
X21169Y-42049D01*
X21129Y-42036D01*
X21103Y-42010D01*
X21090Y-41984D01*
X21077Y-41931D01*
X21077Y-41892D01*
X21090Y-41839D01*
X21103Y-41813D01*
X21129Y-41787D01*
X21169Y-41774D01*
X21195Y-41774D01*
X21234Y-41787D01*
X21247Y-41800D01*
X21352Y-41800D02*
X21365Y-41787D01*
X21392Y-41774D01*
X21457Y-41774D01*
X21484Y-41787D01*
X21497Y-41800D01*
X21510Y-41826D01*
X21510Y-41852D01*
X21497Y-41892D01*
X21339Y-42049D01*
X21510Y-42049D01*
X21667Y-41892D02*
X21641Y-41879D01*
X21628Y-41865D01*
X21615Y-41839D01*
X21615Y-41826D01*
X21628Y-41800D01*
X21641Y-41787D01*
X21667Y-41774D01*
X21720Y-41774D01*
X21746Y-41787D01*
X21759Y-41800D01*
X21772Y-41826D01*
X21772Y-41839D01*
X21759Y-41865D01*
X21746Y-41879D01*
X21720Y-41892D01*
X21667Y-41892D01*
X21641Y-41905D01*
X21628Y-41918D01*
X21615Y-41944D01*
X21615Y-41997D01*
X21628Y-42023D01*
X21641Y-42036D01*
X21667Y-42049D01*
X21720Y-42049D01*
X21746Y-42036D01*
X21759Y-42023D01*
X21772Y-41997D01*
X21772Y-41944D01*
X21759Y-41918D01*
X21746Y-41905D01*
X21720Y-41892D01*
X17872Y-42548D02*
X17859Y-42561D01*
X17820Y-42574D01*
X17794Y-42574D01*
X17754Y-42561D01*
X17728Y-42535D01*
X17715Y-42509D01*
X17702Y-42456D01*
X17702Y-42417D01*
X17715Y-42364D01*
X17728Y-42338D01*
X17754Y-42312D01*
X17794Y-42299D01*
X17820Y-42299D01*
X17859Y-42312D01*
X17872Y-42325D01*
X17977Y-42325D02*
X17990Y-42312D01*
X18017Y-42299D01*
X18082Y-42299D01*
X18109Y-42312D01*
X18122Y-42325D01*
X18135Y-42351D01*
X18135Y-42377D01*
X18122Y-42417D01*
X17964Y-42574D01*
X18135Y-42574D01*
X18266Y-42574D02*
X18319Y-42574D01*
X18345Y-42561D01*
X18358Y-42548D01*
X18384Y-42509D01*
X18397Y-42456D01*
X18397Y-42351D01*
X18384Y-42325D01*
X18371Y-42312D01*
X18345Y-42299D01*
X18292Y-42299D01*
X18266Y-42312D01*
X18253Y-42325D01*
X18240Y-42351D01*
X18240Y-42417D01*
X18253Y-42443D01*
X18266Y-42456D01*
X18292Y-42469D01*
X18345Y-42469D01*
X18371Y-42456D01*
X18384Y-42443D01*
X18397Y-42417D01*
X18322Y-32598D02*
X18309Y-32611D01*
X18270Y-32624D01*
X18244Y-32624D01*
X18204Y-32611D01*
X18178Y-32585D01*
X18165Y-32559D01*
X18152Y-32506D01*
X18152Y-32467D01*
X18165Y-32414D01*
X18178Y-32388D01*
X18204Y-32362D01*
X18244Y-32349D01*
X18270Y-32349D01*
X18309Y-32362D01*
X18322Y-32375D01*
X18414Y-32349D02*
X18585Y-32349D01*
X18493Y-32454D01*
X18532Y-32454D01*
X18559Y-32467D01*
X18572Y-32480D01*
X18585Y-32506D01*
X18585Y-32572D01*
X18572Y-32598D01*
X18559Y-32611D01*
X18532Y-32624D01*
X18454Y-32624D01*
X18427Y-32611D01*
X18414Y-32598D01*
X18755Y-32349D02*
X18782Y-32349D01*
X18808Y-32362D01*
X18821Y-32375D01*
X18834Y-32401D01*
X18847Y-32454D01*
X18847Y-32519D01*
X18834Y-32572D01*
X18821Y-32598D01*
X18808Y-32611D01*
X18782Y-32624D01*
X18755Y-32624D01*
X18729Y-32611D01*
X18716Y-32598D01*
X18703Y-32572D01*
X18690Y-32519D01*
X18690Y-32454D01*
X18703Y-32401D01*
X18716Y-32375D01*
X18729Y-32362D01*
X18755Y-32349D01*
X18348Y-30177D02*
X18361Y-30190D01*
X18374Y-30229D01*
X18374Y-30255D01*
X18361Y-30295D01*
X18335Y-30321D01*
X18309Y-30334D01*
X18256Y-30347D01*
X18217Y-30347D01*
X18164Y-30334D01*
X18138Y-30321D01*
X18112Y-30295D01*
X18099Y-30255D01*
X18099Y-30229D01*
X18112Y-30190D01*
X18125Y-30177D01*
X18099Y-30085D02*
X18099Y-29914D01*
X18204Y-30006D01*
X18204Y-29967D01*
X18217Y-29940D01*
X18230Y-29927D01*
X18256Y-29914D01*
X18322Y-29914D01*
X18348Y-29927D01*
X18361Y-29940D01*
X18374Y-29967D01*
X18374Y-30045D01*
X18361Y-30072D01*
X18348Y-30085D01*
X18374Y-29652D02*
X18374Y-29809D01*
X18374Y-29730D02*
X18099Y-29730D01*
X18138Y-29757D01*
X18164Y-29783D01*
X18177Y-29809D01*
X22072Y-35848D02*
X22059Y-35861D01*
X22020Y-35874D01*
X21994Y-35874D01*
X21954Y-35861D01*
X21928Y-35835D01*
X21915Y-35809D01*
X21902Y-35756D01*
X21902Y-35717D01*
X21915Y-35664D01*
X21928Y-35638D01*
X21954Y-35612D01*
X21994Y-35599D01*
X22020Y-35599D01*
X22059Y-35612D01*
X22072Y-35625D01*
X22164Y-35599D02*
X22335Y-35599D01*
X22243Y-35704D01*
X22282Y-35704D01*
X22309Y-35717D01*
X22322Y-35730D01*
X22335Y-35756D01*
X22335Y-35822D01*
X22322Y-35848D01*
X22309Y-35861D01*
X22282Y-35874D01*
X22204Y-35874D01*
X22177Y-35861D01*
X22164Y-35848D01*
X22440Y-35625D02*
X22453Y-35612D01*
X22479Y-35599D01*
X22545Y-35599D01*
X22571Y-35612D01*
X22584Y-35625D01*
X22597Y-35651D01*
X22597Y-35677D01*
X22584Y-35717D01*
X22427Y-35874D01*
X22597Y-35874D01*
X21072Y-28848D02*
X21059Y-28861D01*
X21020Y-28874D01*
X20994Y-28874D01*
X20954Y-28861D01*
X20928Y-28835D01*
X20915Y-28809D01*
X20902Y-28756D01*
X20902Y-28717D01*
X20915Y-28664D01*
X20928Y-28638D01*
X20954Y-28612D01*
X20994Y-28599D01*
X21020Y-28599D01*
X21059Y-28612D01*
X21072Y-28625D01*
X21164Y-28599D02*
X21335Y-28599D01*
X21243Y-28704D01*
X21282Y-28704D01*
X21309Y-28717D01*
X21322Y-28730D01*
X21335Y-28756D01*
X21335Y-28822D01*
X21322Y-28848D01*
X21309Y-28861D01*
X21282Y-28874D01*
X21204Y-28874D01*
X21177Y-28861D01*
X21164Y-28848D01*
X21427Y-28599D02*
X21597Y-28599D01*
X21505Y-28704D01*
X21545Y-28704D01*
X21571Y-28717D01*
X21584Y-28730D01*
X21597Y-28756D01*
X21597Y-28822D01*
X21584Y-28848D01*
X21571Y-28861D01*
X21545Y-28874D01*
X21466Y-28874D01*
X21440Y-28861D01*
X21427Y-28848D01*
X24848Y-30677D02*
X24861Y-30690D01*
X24874Y-30729D01*
X24874Y-30755D01*
X24861Y-30795D01*
X24835Y-30821D01*
X24809Y-30834D01*
X24756Y-30847D01*
X24717Y-30847D01*
X24664Y-30834D01*
X24638Y-30821D01*
X24612Y-30795D01*
X24599Y-30755D01*
X24599Y-30729D01*
X24612Y-30690D01*
X24625Y-30677D01*
X24599Y-30585D02*
X24599Y-30414D01*
X24704Y-30506D01*
X24704Y-30467D01*
X24717Y-30440D01*
X24730Y-30427D01*
X24756Y-30414D01*
X24822Y-30414D01*
X24848Y-30427D01*
X24861Y-30440D01*
X24874Y-30467D01*
X24874Y-30545D01*
X24861Y-30572D01*
X24848Y-30585D01*
X24690Y-30178D02*
X24874Y-30178D01*
X24585Y-30244D02*
X24782Y-30309D01*
X24782Y-30139D01*
X13846Y-28474D02*
X13846Y-28199D01*
X13912Y-28199D01*
X13951Y-28212D01*
X13977Y-28238D01*
X13990Y-28264D01*
X14004Y-28317D01*
X14004Y-28356D01*
X13990Y-28409D01*
X13977Y-28435D01*
X13951Y-28461D01*
X13912Y-28474D01*
X13846Y-28474D01*
X14266Y-28474D02*
X14109Y-28474D01*
X14187Y-28474D02*
X14187Y-28199D01*
X14161Y-28238D01*
X14135Y-28264D01*
X14109Y-28277D01*
X15024Y-23403D02*
X14749Y-23403D01*
X14749Y-23337D01*
X14762Y-23298D01*
X14788Y-23272D01*
X14814Y-23259D01*
X14867Y-23245D01*
X14906Y-23245D01*
X14959Y-23259D01*
X14985Y-23272D01*
X15011Y-23298D01*
X15024Y-23337D01*
X15024Y-23403D01*
X14775Y-23140D02*
X14762Y-23127D01*
X14749Y-23101D01*
X14749Y-23035D01*
X14762Y-23009D01*
X14775Y-22996D01*
X14801Y-22983D01*
X14827Y-22983D01*
X14867Y-22996D01*
X15024Y-23154D01*
X15024Y-22983D01*
X20846Y-39874D02*
X20846Y-39599D01*
X20912Y-39599D01*
X20951Y-39612D01*
X20977Y-39638D01*
X20990Y-39664D01*
X21004Y-39717D01*
X21004Y-39756D01*
X20990Y-39809D01*
X20977Y-39835D01*
X20951Y-39861D01*
X20912Y-39874D01*
X20846Y-39874D01*
X21095Y-39599D02*
X21266Y-39599D01*
X21174Y-39704D01*
X21214Y-39704D01*
X21240Y-39717D01*
X21253Y-39730D01*
X21266Y-39756D01*
X21266Y-39822D01*
X21253Y-39848D01*
X21240Y-39861D01*
X21214Y-39874D01*
X21135Y-39874D01*
X21109Y-39861D01*
X21095Y-39848D01*
X20846Y-40674D02*
X20846Y-40399D01*
X20912Y-40399D01*
X20951Y-40412D01*
X20977Y-40438D01*
X20990Y-40464D01*
X21004Y-40517D01*
X21004Y-40556D01*
X20990Y-40609D01*
X20977Y-40635D01*
X20951Y-40661D01*
X20912Y-40674D01*
X20846Y-40674D01*
X21240Y-40490D02*
X21240Y-40674D01*
X21174Y-40385D02*
X21109Y-40582D01*
X21279Y-40582D01*
X15124Y-29453D02*
X14849Y-29453D01*
X14849Y-29387D01*
X14862Y-29348D01*
X14888Y-29322D01*
X14914Y-29309D01*
X14967Y-29295D01*
X15006Y-29295D01*
X15059Y-29309D01*
X15085Y-29322D01*
X15111Y-29348D01*
X15124Y-29387D01*
X15124Y-29453D01*
X14849Y-29046D02*
X14849Y-29177D01*
X14980Y-29190D01*
X14967Y-29177D01*
X14954Y-29151D01*
X14954Y-29085D01*
X14967Y-29059D01*
X14980Y-29046D01*
X15006Y-29033D01*
X15072Y-29033D01*
X15098Y-29046D01*
X15111Y-29059D01*
X15124Y-29085D01*
X15124Y-29151D01*
X15111Y-29177D01*
X15098Y-29190D01*
X15374Y-32203D02*
X15099Y-32203D01*
X15099Y-32137D01*
X15112Y-32098D01*
X15138Y-32072D01*
X15164Y-32059D01*
X15217Y-32045D01*
X15256Y-32045D01*
X15309Y-32059D01*
X15335Y-32072D01*
X15361Y-32098D01*
X15374Y-32137D01*
X15374Y-32203D01*
X15099Y-31809D02*
X15099Y-31862D01*
X15112Y-31888D01*
X15125Y-31901D01*
X15164Y-31927D01*
X15217Y-31940D01*
X15322Y-31940D01*
X15348Y-31927D01*
X15361Y-31914D01*
X15374Y-31888D01*
X15374Y-31835D01*
X15361Y-31809D01*
X15348Y-31796D01*
X15322Y-31783D01*
X15256Y-31783D01*
X15230Y-31796D01*
X15217Y-31809D01*
X15204Y-31835D01*
X15204Y-31888D01*
X15217Y-31914D01*
X15230Y-31927D01*
X15256Y-31940D01*
X13158Y-34099D02*
X13158Y-34295D01*
X13145Y-34335D01*
X13118Y-34361D01*
X13079Y-34374D01*
X13053Y-34374D01*
X13433Y-34374D02*
X13276Y-34374D01*
X13354Y-34374D02*
X13354Y-34099D01*
X13328Y-34138D01*
X13302Y-34164D01*
X13276Y-34177D01*
X25599Y-13591D02*
X25795Y-13591D01*
X25835Y-13604D01*
X25861Y-13631D01*
X25874Y-13670D01*
X25874Y-13696D01*
X25625Y-13473D02*
X25612Y-13460D01*
X25599Y-13434D01*
X25599Y-13368D01*
X25612Y-13342D01*
X25625Y-13329D01*
X25651Y-13316D01*
X25677Y-13316D01*
X25717Y-13329D01*
X25874Y-13486D01*
X25874Y-13316D01*
X38408Y-37849D02*
X38408Y-38045D01*
X38395Y-38085D01*
X38368Y-38111D01*
X38329Y-38124D01*
X38303Y-38124D01*
X38513Y-37849D02*
X38683Y-37849D01*
X38591Y-37954D01*
X38631Y-37954D01*
X38657Y-37967D01*
X38670Y-37980D01*
X38683Y-38006D01*
X38683Y-38072D01*
X38670Y-38098D01*
X38657Y-38111D01*
X38631Y-38124D01*
X38552Y-38124D01*
X38526Y-38111D01*
X38513Y-38098D01*
X39908Y-16599D02*
X39908Y-16795D01*
X39895Y-16835D01*
X39868Y-16861D01*
X39829Y-16874D01*
X39803Y-16874D01*
X40157Y-16690D02*
X40157Y-16874D01*
X40091Y-16585D02*
X40026Y-16782D01*
X40196Y-16782D01*
X13546Y-17124D02*
X13546Y-16849D01*
X13704Y-17124D02*
X13585Y-16967D01*
X13704Y-16849D02*
X13546Y-17006D01*
X13809Y-16875D02*
X13822Y-16862D01*
X13848Y-16849D01*
X13914Y-16849D01*
X13940Y-16862D01*
X13953Y-16875D01*
X13966Y-16901D01*
X13966Y-16927D01*
X13953Y-16967D01*
X13795Y-17124D01*
X13966Y-17124D01*
X39724Y-25153D02*
X39449Y-25153D01*
X39724Y-24995D02*
X39567Y-25114D01*
X39449Y-24995D02*
X39606Y-25153D01*
X39449Y-24904D02*
X39449Y-24733D01*
X39554Y-24825D01*
X39554Y-24785D01*
X39567Y-24759D01*
X39580Y-24746D01*
X39606Y-24733D01*
X39672Y-24733D01*
X39698Y-24746D01*
X39711Y-24759D01*
X39724Y-24785D01*
X39724Y-24864D01*
X39711Y-24890D01*
X39698Y-24904D01*
X13374Y-25703D02*
X13099Y-25703D01*
X13374Y-25545D02*
X13217Y-25664D01*
X13099Y-25545D02*
X13256Y-25703D01*
X13190Y-25309D02*
X13374Y-25309D01*
X13085Y-25375D02*
X13282Y-25440D01*
X13282Y-25270D01*
X27249Y-36545D02*
X27249Y-36677D01*
X26974Y-36677D01*
X26974Y-36480D02*
X26974Y-36309D01*
X27079Y-36401D01*
X27079Y-36362D01*
X27092Y-36335D01*
X27105Y-36322D01*
X27131Y-36309D01*
X27197Y-36309D01*
X27223Y-36322D01*
X27236Y-36335D01*
X27249Y-36362D01*
X27249Y-36440D01*
X27236Y-36467D01*
X27223Y-36480D01*
X28704Y-20499D02*
X28572Y-20499D01*
X28572Y-20224D01*
X28914Y-20315D02*
X28914Y-20499D01*
X28848Y-20210D02*
X28782Y-20407D01*
X28953Y-20407D01*
X32874Y-20295D02*
X32874Y-20427D01*
X32599Y-20427D01*
X32599Y-20072D02*
X32599Y-20204D01*
X32730Y-20217D01*
X32717Y-20204D01*
X32704Y-20177D01*
X32704Y-20112D01*
X32717Y-20085D01*
X32730Y-20072D01*
X32756Y-20059D01*
X32822Y-20059D01*
X32848Y-20072D01*
X32861Y-20085D01*
X32874Y-20112D01*
X32874Y-20177D01*
X32861Y-20204D01*
X32848Y-20217D01*
X21546Y-24124D02*
X21546Y-23849D01*
X21651Y-23849D01*
X21677Y-23862D01*
X21690Y-23875D01*
X21704Y-23901D01*
X21704Y-23940D01*
X21690Y-23967D01*
X21677Y-23980D01*
X21651Y-23993D01*
X21546Y-23993D01*
X21966Y-24124D02*
X21809Y-24124D01*
X21887Y-24124D02*
X21887Y-23849D01*
X21861Y-23888D01*
X21835Y-23914D01*
X21809Y-23927D01*
X37874Y-44153D02*
X37599Y-44153D01*
X37599Y-44048D01*
X37612Y-44022D01*
X37625Y-44009D01*
X37651Y-43995D01*
X37690Y-43995D01*
X37717Y-44009D01*
X37730Y-44022D01*
X37743Y-44048D01*
X37743Y-44153D01*
X37625Y-43890D02*
X37612Y-43877D01*
X37599Y-43851D01*
X37599Y-43785D01*
X37612Y-43759D01*
X37625Y-43746D01*
X37651Y-43733D01*
X37677Y-43733D01*
X37717Y-43746D01*
X37874Y-43904D01*
X37874Y-43733D01*
X30674Y-44053D02*
X30399Y-44053D01*
X30399Y-43948D01*
X30412Y-43922D01*
X30425Y-43909D01*
X30451Y-43895D01*
X30490Y-43895D01*
X30517Y-43909D01*
X30530Y-43922D01*
X30543Y-43948D01*
X30543Y-44053D01*
X30399Y-43804D02*
X30399Y-43633D01*
X30504Y-43725D01*
X30504Y-43685D01*
X30517Y-43659D01*
X30530Y-43646D01*
X30556Y-43633D01*
X30622Y-43633D01*
X30648Y-43646D01*
X30661Y-43659D01*
X30674Y-43685D01*
X30674Y-43764D01*
X30661Y-43790D01*
X30648Y-43804D01*
X14046Y-29874D02*
X14046Y-29599D01*
X14151Y-29599D01*
X14177Y-29612D01*
X14190Y-29625D01*
X14204Y-29651D01*
X14204Y-29690D01*
X14190Y-29717D01*
X14177Y-29730D01*
X14151Y-29743D01*
X14046Y-29743D01*
X14440Y-29690D02*
X14440Y-29874D01*
X14374Y-29585D02*
X14309Y-29782D01*
X14479Y-29782D01*
X19374Y-38045D02*
X19243Y-38137D01*
X19374Y-38203D02*
X19099Y-38203D01*
X19099Y-38098D01*
X19112Y-38072D01*
X19125Y-38059D01*
X19151Y-38045D01*
X19190Y-38045D01*
X19217Y-38059D01*
X19230Y-38072D01*
X19243Y-38098D01*
X19243Y-38203D01*
X19374Y-37783D02*
X19374Y-37940D01*
X19374Y-37862D02*
X19099Y-37862D01*
X19138Y-37888D01*
X19164Y-37914D01*
X19177Y-37940D01*
X21204Y-36374D02*
X21112Y-36243D01*
X21046Y-36374D02*
X21046Y-36099D01*
X21151Y-36099D01*
X21177Y-36112D01*
X21190Y-36125D01*
X21204Y-36151D01*
X21204Y-36190D01*
X21190Y-36217D01*
X21177Y-36230D01*
X21151Y-36243D01*
X21046Y-36243D01*
X21309Y-36125D02*
X21322Y-36112D01*
X21348Y-36099D01*
X21414Y-36099D01*
X21440Y-36112D01*
X21453Y-36125D01*
X21466Y-36151D01*
X21466Y-36177D01*
X21453Y-36217D01*
X21295Y-36374D01*
X21466Y-36374D01*
X21874Y-38045D02*
X21743Y-38137D01*
X21874Y-38203D02*
X21599Y-38203D01*
X21599Y-38098D01*
X21612Y-38072D01*
X21625Y-38059D01*
X21651Y-38045D01*
X21690Y-38045D01*
X21717Y-38059D01*
X21730Y-38072D01*
X21743Y-38098D01*
X21743Y-38203D01*
X21599Y-37954D02*
X21599Y-37783D01*
X21704Y-37875D01*
X21704Y-37835D01*
X21717Y-37809D01*
X21730Y-37796D01*
X21756Y-37783D01*
X21822Y-37783D01*
X21848Y-37796D01*
X21861Y-37809D01*
X21874Y-37835D01*
X21874Y-37914D01*
X21861Y-37940D01*
X21848Y-37954D01*
X14954Y-21624D02*
X14862Y-21493D01*
X14796Y-21624D02*
X14796Y-21349D01*
X14901Y-21349D01*
X14927Y-21362D01*
X14940Y-21375D01*
X14954Y-21401D01*
X14954Y-21440D01*
X14940Y-21467D01*
X14927Y-21480D01*
X14901Y-21493D01*
X14796Y-21493D01*
X15190Y-21440D02*
X15190Y-21624D01*
X15124Y-21335D02*
X15059Y-21532D01*
X15229Y-21532D01*
X17454Y-20374D02*
X17362Y-20243D01*
X17296Y-20374D02*
X17296Y-20099D01*
X17401Y-20099D01*
X17427Y-20112D01*
X17440Y-20125D01*
X17454Y-20151D01*
X17454Y-20190D01*
X17440Y-20217D01*
X17427Y-20230D01*
X17401Y-20243D01*
X17296Y-20243D01*
X17703Y-20099D02*
X17572Y-20099D01*
X17559Y-20230D01*
X17572Y-20217D01*
X17598Y-20204D01*
X17664Y-20204D01*
X17690Y-20217D01*
X17703Y-20230D01*
X17716Y-20256D01*
X17716Y-20322D01*
X17703Y-20348D01*
X17690Y-20361D01*
X17664Y-20374D01*
X17598Y-20374D01*
X17572Y-20361D01*
X17559Y-20348D01*
X16454Y-26874D02*
X16362Y-26743D01*
X16296Y-26874D02*
X16296Y-26599D01*
X16401Y-26599D01*
X16427Y-26612D01*
X16440Y-26625D01*
X16454Y-26651D01*
X16454Y-26690D01*
X16440Y-26717D01*
X16427Y-26730D01*
X16401Y-26743D01*
X16296Y-26743D01*
X16690Y-26599D02*
X16637Y-26599D01*
X16611Y-26612D01*
X16598Y-26625D01*
X16572Y-26664D01*
X16559Y-26717D01*
X16559Y-26822D01*
X16572Y-26848D01*
X16585Y-26861D01*
X16611Y-26874D01*
X16664Y-26874D01*
X16690Y-26861D01*
X16703Y-26848D01*
X16716Y-26822D01*
X16716Y-26756D01*
X16703Y-26730D01*
X16690Y-26717D01*
X16664Y-26704D01*
X16611Y-26704D01*
X16585Y-26717D01*
X16572Y-26730D01*
X16559Y-26756D01*
X16874Y-23795D02*
X16743Y-23887D01*
X16874Y-23953D02*
X16599Y-23953D01*
X16599Y-23848D01*
X16612Y-23822D01*
X16625Y-23809D01*
X16651Y-23795D01*
X16690Y-23795D01*
X16717Y-23809D01*
X16730Y-23822D01*
X16743Y-23848D01*
X16743Y-23953D01*
X16599Y-23704D02*
X16599Y-23520D01*
X16874Y-23638D01*
X16874Y-24545D02*
X16743Y-24637D01*
X16874Y-24703D02*
X16599Y-24703D01*
X16599Y-24598D01*
X16612Y-24572D01*
X16625Y-24559D01*
X16651Y-24545D01*
X16690Y-24545D01*
X16717Y-24559D01*
X16730Y-24572D01*
X16743Y-24598D01*
X16743Y-24703D01*
X16717Y-24388D02*
X16704Y-24414D01*
X16690Y-24427D01*
X16664Y-24440D01*
X16651Y-24440D01*
X16625Y-24427D01*
X16612Y-24414D01*
X16599Y-24388D01*
X16599Y-24335D01*
X16612Y-24309D01*
X16625Y-24296D01*
X16651Y-24283D01*
X16664Y-24283D01*
X16690Y-24296D01*
X16704Y-24309D01*
X16717Y-24335D01*
X16717Y-24388D01*
X16730Y-24414D01*
X16743Y-24427D01*
X16769Y-24440D01*
X16822Y-24440D01*
X16848Y-24427D01*
X16861Y-24414D01*
X16874Y-24388D01*
X16874Y-24335D01*
X16861Y-24309D01*
X16848Y-24296D01*
X16822Y-24283D01*
X16769Y-24283D01*
X16743Y-24296D01*
X16730Y-24309D01*
X16717Y-24335D01*
X21124Y-23427D02*
X20993Y-23519D01*
X21124Y-23584D02*
X20849Y-23584D01*
X20849Y-23479D01*
X20862Y-23453D01*
X20875Y-23440D01*
X20901Y-23427D01*
X20940Y-23427D01*
X20967Y-23440D01*
X20980Y-23453D01*
X20993Y-23479D01*
X20993Y-23584D01*
X21124Y-23164D02*
X21124Y-23322D01*
X21124Y-23243D02*
X20849Y-23243D01*
X20888Y-23269D01*
X20914Y-23295D01*
X20927Y-23322D01*
X21124Y-22902D02*
X21124Y-23059D01*
X21124Y-22980D02*
X20849Y-22980D01*
X20888Y-23007D01*
X20914Y-23033D01*
X20927Y-23059D01*
X26374Y-31427D02*
X26243Y-31519D01*
X26374Y-31584D02*
X26099Y-31584D01*
X26099Y-31479D01*
X26112Y-31453D01*
X26125Y-31440D01*
X26151Y-31427D01*
X26190Y-31427D01*
X26217Y-31440D01*
X26230Y-31453D01*
X26243Y-31479D01*
X26243Y-31584D01*
X26374Y-31164D02*
X26374Y-31322D01*
X26374Y-31243D02*
X26099Y-31243D01*
X26138Y-31269D01*
X26164Y-31295D01*
X26177Y-31322D01*
X26125Y-31059D02*
X26112Y-31046D01*
X26099Y-31020D01*
X26099Y-30954D01*
X26112Y-30928D01*
X26125Y-30915D01*
X26151Y-30902D01*
X26177Y-30902D01*
X26217Y-30915D01*
X26374Y-31072D01*
X26374Y-30902D01*
X21322Y-21624D02*
X21230Y-21493D01*
X21165Y-21624D02*
X21165Y-21349D01*
X21270Y-21349D01*
X21296Y-21362D01*
X21309Y-21375D01*
X21322Y-21401D01*
X21322Y-21440D01*
X21309Y-21467D01*
X21296Y-21480D01*
X21270Y-21493D01*
X21165Y-21493D01*
X21585Y-21624D02*
X21427Y-21624D01*
X21506Y-21624D02*
X21506Y-21349D01*
X21480Y-21388D01*
X21454Y-21414D01*
X21427Y-21427D01*
X21677Y-21349D02*
X21847Y-21349D01*
X21755Y-21454D01*
X21795Y-21454D01*
X21821Y-21467D01*
X21834Y-21480D01*
X21847Y-21506D01*
X21847Y-21572D01*
X21834Y-21598D01*
X21821Y-21611D01*
X21795Y-21624D01*
X21716Y-21624D01*
X21690Y-21611D01*
X21677Y-21598D01*
X23624Y-23427D02*
X23493Y-23519D01*
X23624Y-23584D02*
X23349Y-23584D01*
X23349Y-23479D01*
X23362Y-23453D01*
X23375Y-23440D01*
X23401Y-23427D01*
X23440Y-23427D01*
X23467Y-23440D01*
X23480Y-23453D01*
X23493Y-23479D01*
X23493Y-23584D01*
X23624Y-23164D02*
X23624Y-23322D01*
X23624Y-23243D02*
X23349Y-23243D01*
X23388Y-23269D01*
X23414Y-23295D01*
X23427Y-23322D01*
X23440Y-22928D02*
X23624Y-22928D01*
X23335Y-22994D02*
X23532Y-23059D01*
X23532Y-22889D01*
X30124Y-38677D02*
X29993Y-38769D01*
X30124Y-38834D02*
X29849Y-38834D01*
X29849Y-38729D01*
X29862Y-38703D01*
X29875Y-38690D01*
X29901Y-38677D01*
X29940Y-38677D01*
X29967Y-38690D01*
X29980Y-38703D01*
X29993Y-38729D01*
X29993Y-38834D01*
X30124Y-38414D02*
X30124Y-38572D01*
X30124Y-38493D02*
X29849Y-38493D01*
X29888Y-38519D01*
X29914Y-38545D01*
X29927Y-38572D01*
X29849Y-38165D02*
X29849Y-38296D01*
X29980Y-38309D01*
X29967Y-38296D01*
X29954Y-38270D01*
X29954Y-38204D01*
X29967Y-38178D01*
X29980Y-38165D01*
X30006Y-38152D01*
X30072Y-38152D01*
X30098Y-38165D01*
X30111Y-38178D01*
X30124Y-38204D01*
X30124Y-38270D01*
X30111Y-38296D01*
X30098Y-38309D01*
X33822Y-38624D02*
X33730Y-38493D01*
X33665Y-38624D02*
X33665Y-38349D01*
X33770Y-38349D01*
X33796Y-38362D01*
X33809Y-38375D01*
X33822Y-38401D01*
X33822Y-38440D01*
X33809Y-38467D01*
X33796Y-38480D01*
X33770Y-38493D01*
X33665Y-38493D01*
X34085Y-38624D02*
X33927Y-38624D01*
X34006Y-38624D02*
X34006Y-38349D01*
X33980Y-38388D01*
X33954Y-38414D01*
X33927Y-38427D01*
X34321Y-38349D02*
X34269Y-38349D01*
X34242Y-38362D01*
X34229Y-38375D01*
X34203Y-38414D01*
X34190Y-38467D01*
X34190Y-38572D01*
X34203Y-38598D01*
X34216Y-38611D01*
X34242Y-38624D01*
X34295Y-38624D01*
X34321Y-38611D01*
X34334Y-38598D01*
X34347Y-38572D01*
X34347Y-38506D01*
X34334Y-38480D01*
X34321Y-38467D01*
X34295Y-38454D01*
X34242Y-38454D01*
X34216Y-38467D01*
X34203Y-38480D01*
X34190Y-38506D01*
X28374Y-21427D02*
X28243Y-21519D01*
X28374Y-21584D02*
X28099Y-21584D01*
X28099Y-21479D01*
X28112Y-21453D01*
X28125Y-21440D01*
X28151Y-21427D01*
X28190Y-21427D01*
X28217Y-21440D01*
X28230Y-21453D01*
X28243Y-21479D01*
X28243Y-21584D01*
X28374Y-21164D02*
X28374Y-21322D01*
X28374Y-21243D02*
X28099Y-21243D01*
X28138Y-21269D01*
X28164Y-21295D01*
X28177Y-21322D01*
X28099Y-21072D02*
X28099Y-20889D01*
X28374Y-21007D01*
X32374Y-21927D02*
X32243Y-22019D01*
X32374Y-22084D02*
X32099Y-22084D01*
X32099Y-21979D01*
X32112Y-21953D01*
X32125Y-21940D01*
X32151Y-21927D01*
X32190Y-21927D01*
X32217Y-21940D01*
X32230Y-21953D01*
X32243Y-21979D01*
X32243Y-22084D01*
X32125Y-21822D02*
X32112Y-21809D01*
X32099Y-21782D01*
X32099Y-21717D01*
X32112Y-21690D01*
X32125Y-21677D01*
X32151Y-21664D01*
X32177Y-21664D01*
X32217Y-21677D01*
X32374Y-21835D01*
X32374Y-21664D01*
X32099Y-21494D02*
X32099Y-21467D01*
X32112Y-21441D01*
X32125Y-21428D01*
X32151Y-21415D01*
X32204Y-21402D01*
X32269Y-21402D01*
X32322Y-21415D01*
X32348Y-21428D01*
X32361Y-21441D01*
X32374Y-21467D01*
X32374Y-21494D01*
X32361Y-21520D01*
X32348Y-21533D01*
X32322Y-21546D01*
X32269Y-21559D01*
X32204Y-21559D01*
X32151Y-21546D01*
X32125Y-21533D01*
X32112Y-21520D01*
X32099Y-21494D01*
X33322Y-19124D02*
X33230Y-18993D01*
X33165Y-19124D02*
X33165Y-18849D01*
X33270Y-18849D01*
X33296Y-18862D01*
X33309Y-18875D01*
X33322Y-18901D01*
X33322Y-18940D01*
X33309Y-18967D01*
X33296Y-18980D01*
X33270Y-18993D01*
X33165Y-18993D01*
X33427Y-18875D02*
X33440Y-18862D01*
X33467Y-18849D01*
X33532Y-18849D01*
X33559Y-18862D01*
X33572Y-18875D01*
X33585Y-18901D01*
X33585Y-18927D01*
X33572Y-18967D01*
X33414Y-19124D01*
X33585Y-19124D01*
X33847Y-19124D02*
X33690Y-19124D01*
X33769Y-19124D02*
X33769Y-18849D01*
X33742Y-18888D01*
X33716Y-18914D01*
X33690Y-18927D01*
X35822Y-19124D02*
X35730Y-18993D01*
X35665Y-19124D02*
X35665Y-18849D01*
X35770Y-18849D01*
X35796Y-18862D01*
X35809Y-18875D01*
X35822Y-18901D01*
X35822Y-18940D01*
X35809Y-18967D01*
X35796Y-18980D01*
X35770Y-18993D01*
X35665Y-18993D01*
X35927Y-18875D02*
X35940Y-18862D01*
X35967Y-18849D01*
X36032Y-18849D01*
X36059Y-18862D01*
X36072Y-18875D01*
X36085Y-18901D01*
X36085Y-18927D01*
X36072Y-18967D01*
X35914Y-19124D01*
X36085Y-19124D01*
X36190Y-18875D02*
X36203Y-18862D01*
X36229Y-18849D01*
X36295Y-18849D01*
X36321Y-18862D01*
X36334Y-18875D01*
X36347Y-18901D01*
X36347Y-18927D01*
X36334Y-18967D01*
X36177Y-19124D01*
X36347Y-19124D01*
X32472Y-42574D02*
X32380Y-42443D01*
X32315Y-42574D02*
X32315Y-42299D01*
X32420Y-42299D01*
X32446Y-42312D01*
X32459Y-42325D01*
X32472Y-42351D01*
X32472Y-42390D01*
X32459Y-42417D01*
X32446Y-42430D01*
X32420Y-42443D01*
X32315Y-42443D01*
X32577Y-42325D02*
X32590Y-42312D01*
X32617Y-42299D01*
X32682Y-42299D01*
X32709Y-42312D01*
X32722Y-42325D01*
X32735Y-42351D01*
X32735Y-42377D01*
X32722Y-42417D01*
X32564Y-42574D01*
X32735Y-42574D01*
X32827Y-42299D02*
X32997Y-42299D01*
X32905Y-42404D01*
X32945Y-42404D01*
X32971Y-42417D01*
X32984Y-42430D01*
X32997Y-42456D01*
X32997Y-42522D01*
X32984Y-42548D01*
X32971Y-42561D01*
X32945Y-42574D01*
X32866Y-42574D01*
X32840Y-42561D01*
X32827Y-42548D01*
X33674Y-40627D02*
X33543Y-40719D01*
X33674Y-40784D02*
X33399Y-40784D01*
X33399Y-40679D01*
X33412Y-40653D01*
X33425Y-40640D01*
X33451Y-40627D01*
X33490Y-40627D01*
X33517Y-40640D01*
X33530Y-40653D01*
X33543Y-40679D01*
X33543Y-40784D01*
X33425Y-40522D02*
X33412Y-40509D01*
X33399Y-40482D01*
X33399Y-40417D01*
X33412Y-40390D01*
X33425Y-40377D01*
X33451Y-40364D01*
X33477Y-40364D01*
X33517Y-40377D01*
X33674Y-40535D01*
X33674Y-40364D01*
X33490Y-40128D02*
X33674Y-40128D01*
X33385Y-40194D02*
X33582Y-40259D01*
X33582Y-40089D01*
X31172Y-42574D02*
X31080Y-42443D01*
X31015Y-42574D02*
X31015Y-42299D01*
X31120Y-42299D01*
X31146Y-42312D01*
X31159Y-42325D01*
X31172Y-42351D01*
X31172Y-42390D01*
X31159Y-42417D01*
X31146Y-42430D01*
X31120Y-42443D01*
X31015Y-42443D01*
X31277Y-42325D02*
X31290Y-42312D01*
X31317Y-42299D01*
X31382Y-42299D01*
X31409Y-42312D01*
X31422Y-42325D01*
X31435Y-42351D01*
X31435Y-42377D01*
X31422Y-42417D01*
X31264Y-42574D01*
X31435Y-42574D01*
X31684Y-42299D02*
X31553Y-42299D01*
X31540Y-42430D01*
X31553Y-42417D01*
X31579Y-42404D01*
X31645Y-42404D01*
X31671Y-42417D01*
X31684Y-42430D01*
X31697Y-42456D01*
X31697Y-42522D01*
X31684Y-42548D01*
X31671Y-42561D01*
X31645Y-42574D01*
X31579Y-42574D01*
X31553Y-42561D01*
X31540Y-42548D01*
X29272Y-42074D02*
X29180Y-41943D01*
X29115Y-42074D02*
X29115Y-41799D01*
X29220Y-41799D01*
X29246Y-41812D01*
X29259Y-41825D01*
X29272Y-41851D01*
X29272Y-41890D01*
X29259Y-41917D01*
X29246Y-41930D01*
X29220Y-41943D01*
X29115Y-41943D01*
X29377Y-41825D02*
X29390Y-41812D01*
X29417Y-41799D01*
X29482Y-41799D01*
X29509Y-41812D01*
X29522Y-41825D01*
X29535Y-41851D01*
X29535Y-41877D01*
X29522Y-41917D01*
X29364Y-42074D01*
X29535Y-42074D01*
X29771Y-41799D02*
X29719Y-41799D01*
X29692Y-41812D01*
X29679Y-41825D01*
X29653Y-41864D01*
X29640Y-41917D01*
X29640Y-42022D01*
X29653Y-42048D01*
X29666Y-42061D01*
X29692Y-42074D01*
X29745Y-42074D01*
X29771Y-42061D01*
X29784Y-42048D01*
X29797Y-42022D01*
X29797Y-41956D01*
X29784Y-41930D01*
X29771Y-41917D01*
X29745Y-41904D01*
X29692Y-41904D01*
X29666Y-41917D01*
X29653Y-41930D01*
X29640Y-41956D01*
X37072Y-19124D02*
X36980Y-18993D01*
X36915Y-19124D02*
X36915Y-18849D01*
X37020Y-18849D01*
X37046Y-18862D01*
X37059Y-18875D01*
X37072Y-18901D01*
X37072Y-18940D01*
X37059Y-18967D01*
X37046Y-18980D01*
X37020Y-18993D01*
X36915Y-18993D01*
X37177Y-18875D02*
X37190Y-18862D01*
X37217Y-18849D01*
X37282Y-18849D01*
X37309Y-18862D01*
X37322Y-18875D01*
X37335Y-18901D01*
X37335Y-18927D01*
X37322Y-18967D01*
X37164Y-19124D01*
X37335Y-19124D01*
X37427Y-18849D02*
X37610Y-18849D01*
X37492Y-19124D01*
X37674Y-42727D02*
X37543Y-42819D01*
X37674Y-42884D02*
X37399Y-42884D01*
X37399Y-42779D01*
X37412Y-42753D01*
X37425Y-42740D01*
X37451Y-42727D01*
X37490Y-42727D01*
X37517Y-42740D01*
X37530Y-42753D01*
X37543Y-42779D01*
X37543Y-42884D01*
X37425Y-42622D02*
X37412Y-42609D01*
X37399Y-42582D01*
X37399Y-42517D01*
X37412Y-42490D01*
X37425Y-42477D01*
X37451Y-42464D01*
X37477Y-42464D01*
X37517Y-42477D01*
X37674Y-42635D01*
X37674Y-42464D01*
X37517Y-42307D02*
X37504Y-42333D01*
X37490Y-42346D01*
X37464Y-42359D01*
X37451Y-42359D01*
X37425Y-42346D01*
X37412Y-42333D01*
X37399Y-42307D01*
X37399Y-42254D01*
X37412Y-42228D01*
X37425Y-42215D01*
X37451Y-42202D01*
X37464Y-42202D01*
X37490Y-42215D01*
X37504Y-42228D01*
X37517Y-42254D01*
X37517Y-42307D01*
X37530Y-42333D01*
X37543Y-42346D01*
X37569Y-42359D01*
X37622Y-42359D01*
X37648Y-42346D01*
X37661Y-42333D01*
X37674Y-42307D01*
X37674Y-42254D01*
X37661Y-42228D01*
X37648Y-42215D01*
X37622Y-42202D01*
X37569Y-42202D01*
X37543Y-42215D01*
X37530Y-42228D01*
X37517Y-42254D01*
X37674Y-41227D02*
X37543Y-41319D01*
X37674Y-41384D02*
X37399Y-41384D01*
X37399Y-41279D01*
X37412Y-41253D01*
X37425Y-41240D01*
X37451Y-41227D01*
X37490Y-41227D01*
X37517Y-41240D01*
X37530Y-41253D01*
X37543Y-41279D01*
X37543Y-41384D01*
X37425Y-41122D02*
X37412Y-41109D01*
X37399Y-41082D01*
X37399Y-41017D01*
X37412Y-40990D01*
X37425Y-40977D01*
X37451Y-40964D01*
X37477Y-40964D01*
X37517Y-40977D01*
X37674Y-41135D01*
X37674Y-40964D01*
X37674Y-40833D02*
X37674Y-40780D01*
X37661Y-40754D01*
X37648Y-40741D01*
X37609Y-40715D01*
X37556Y-40702D01*
X37451Y-40702D01*
X37425Y-40715D01*
X37412Y-40728D01*
X37399Y-40754D01*
X37399Y-40807D01*
X37412Y-40833D01*
X37425Y-40846D01*
X37451Y-40859D01*
X37517Y-40859D01*
X37543Y-40846D01*
X37556Y-40833D01*
X37569Y-40807D01*
X37569Y-40754D01*
X37556Y-40728D01*
X37543Y-40715D01*
X37517Y-40702D01*
X27874Y-40627D02*
X27743Y-40719D01*
X27874Y-40784D02*
X27599Y-40784D01*
X27599Y-40679D01*
X27612Y-40653D01*
X27625Y-40640D01*
X27651Y-40627D01*
X27690Y-40627D01*
X27717Y-40640D01*
X27730Y-40653D01*
X27743Y-40679D01*
X27743Y-40784D01*
X27599Y-40535D02*
X27599Y-40364D01*
X27704Y-40456D01*
X27704Y-40417D01*
X27717Y-40390D01*
X27730Y-40377D01*
X27756Y-40364D01*
X27822Y-40364D01*
X27848Y-40377D01*
X27861Y-40390D01*
X27874Y-40417D01*
X27874Y-40495D01*
X27861Y-40522D01*
X27848Y-40535D01*
X27599Y-40194D02*
X27599Y-40167D01*
X27612Y-40141D01*
X27625Y-40128D01*
X27651Y-40115D01*
X27704Y-40102D01*
X27769Y-40102D01*
X27822Y-40115D01*
X27848Y-40128D01*
X27861Y-40141D01*
X27874Y-40167D01*
X27874Y-40194D01*
X27861Y-40220D01*
X27848Y-40233D01*
X27822Y-40246D01*
X27769Y-40259D01*
X27704Y-40259D01*
X27651Y-40246D01*
X27625Y-40233D01*
X27612Y-40220D01*
X27599Y-40194D01*
X28774Y-40627D02*
X28643Y-40719D01*
X28774Y-40784D02*
X28499Y-40784D01*
X28499Y-40679D01*
X28512Y-40653D01*
X28525Y-40640D01*
X28551Y-40627D01*
X28590Y-40627D01*
X28617Y-40640D01*
X28630Y-40653D01*
X28643Y-40679D01*
X28643Y-40784D01*
X28499Y-40535D02*
X28499Y-40364D01*
X28604Y-40456D01*
X28604Y-40417D01*
X28617Y-40390D01*
X28630Y-40377D01*
X28656Y-40364D01*
X28722Y-40364D01*
X28748Y-40377D01*
X28761Y-40390D01*
X28774Y-40417D01*
X28774Y-40495D01*
X28761Y-40522D01*
X28748Y-40535D01*
X28774Y-40102D02*
X28774Y-40259D01*
X28774Y-40180D02*
X28499Y-40180D01*
X28538Y-40207D01*
X28564Y-40233D01*
X28577Y-40259D01*
X38322Y-19124D02*
X38230Y-18993D01*
X38165Y-19124D02*
X38165Y-18849D01*
X38270Y-18849D01*
X38296Y-18862D01*
X38309Y-18875D01*
X38322Y-18901D01*
X38322Y-18940D01*
X38309Y-18967D01*
X38296Y-18980D01*
X38270Y-18993D01*
X38165Y-18993D01*
X38414Y-18849D02*
X38585Y-18849D01*
X38493Y-18954D01*
X38532Y-18954D01*
X38559Y-18967D01*
X38572Y-18980D01*
X38585Y-19006D01*
X38585Y-19072D01*
X38572Y-19098D01*
X38559Y-19111D01*
X38532Y-19124D01*
X38454Y-19124D01*
X38427Y-19111D01*
X38414Y-19098D01*
X38690Y-18875D02*
X38703Y-18862D01*
X38729Y-18849D01*
X38795Y-18849D01*
X38821Y-18862D01*
X38834Y-18875D01*
X38847Y-18901D01*
X38847Y-18927D01*
X38834Y-18967D01*
X38677Y-19124D01*
X38847Y-19124D01*
X35674Y-40427D02*
X35543Y-40519D01*
X35674Y-40584D02*
X35399Y-40584D01*
X35399Y-40479D01*
X35412Y-40453D01*
X35425Y-40440D01*
X35451Y-40427D01*
X35490Y-40427D01*
X35517Y-40440D01*
X35530Y-40453D01*
X35543Y-40479D01*
X35543Y-40584D01*
X35399Y-40335D02*
X35399Y-40164D01*
X35504Y-40256D01*
X35504Y-40217D01*
X35517Y-40190D01*
X35530Y-40177D01*
X35556Y-40164D01*
X35622Y-40164D01*
X35648Y-40177D01*
X35661Y-40190D01*
X35674Y-40217D01*
X35674Y-40295D01*
X35661Y-40322D01*
X35648Y-40335D01*
X35399Y-40072D02*
X35399Y-39902D01*
X35504Y-39994D01*
X35504Y-39954D01*
X35517Y-39928D01*
X35530Y-39915D01*
X35556Y-39902D01*
X35622Y-39902D01*
X35648Y-39915D01*
X35661Y-39928D01*
X35674Y-39954D01*
X35674Y-40033D01*
X35661Y-40059D01*
X35648Y-40072D01*
X34374Y-41927D02*
X34243Y-42019D01*
X34374Y-42084D02*
X34099Y-42084D01*
X34099Y-41979D01*
X34112Y-41953D01*
X34125Y-41940D01*
X34151Y-41927D01*
X34190Y-41927D01*
X34217Y-41940D01*
X34230Y-41953D01*
X34243Y-41979D01*
X34243Y-42084D01*
X34099Y-41835D02*
X34099Y-41664D01*
X34204Y-41756D01*
X34204Y-41717D01*
X34217Y-41690D01*
X34230Y-41677D01*
X34256Y-41664D01*
X34322Y-41664D01*
X34348Y-41677D01*
X34361Y-41690D01*
X34374Y-41717D01*
X34374Y-41795D01*
X34361Y-41822D01*
X34348Y-41835D01*
X34190Y-41428D02*
X34374Y-41428D01*
X34085Y-41494D02*
X34282Y-41559D01*
X34282Y-41389D01*
X34172Y-39874D02*
X34080Y-39743D01*
X34015Y-39874D02*
X34015Y-39599D01*
X34120Y-39599D01*
X34146Y-39612D01*
X34159Y-39625D01*
X34172Y-39651D01*
X34172Y-39690D01*
X34159Y-39717D01*
X34146Y-39730D01*
X34120Y-39743D01*
X34015Y-39743D01*
X34264Y-39599D02*
X34435Y-39599D01*
X34343Y-39704D01*
X34382Y-39704D01*
X34409Y-39717D01*
X34422Y-39730D01*
X34435Y-39756D01*
X34435Y-39822D01*
X34422Y-39848D01*
X34409Y-39861D01*
X34382Y-39874D01*
X34304Y-39874D01*
X34277Y-39861D01*
X34264Y-39848D01*
X34684Y-39599D02*
X34553Y-39599D01*
X34540Y-39730D01*
X34553Y-39717D01*
X34579Y-39704D01*
X34645Y-39704D01*
X34671Y-39717D01*
X34684Y-39730D01*
X34697Y-39756D01*
X34697Y-39822D01*
X34684Y-39848D01*
X34671Y-39861D01*
X34645Y-39874D01*
X34579Y-39874D01*
X34553Y-39861D01*
X34540Y-39848D01*
X30474Y-40627D02*
X30343Y-40719D01*
X30474Y-40784D02*
X30199Y-40784D01*
X30199Y-40679D01*
X30212Y-40653D01*
X30225Y-40640D01*
X30251Y-40627D01*
X30290Y-40627D01*
X30317Y-40640D01*
X30330Y-40653D01*
X30343Y-40679D01*
X30343Y-40784D01*
X30199Y-40535D02*
X30199Y-40364D01*
X30304Y-40456D01*
X30304Y-40417D01*
X30317Y-40390D01*
X30330Y-40377D01*
X30356Y-40364D01*
X30422Y-40364D01*
X30448Y-40377D01*
X30461Y-40390D01*
X30474Y-40417D01*
X30474Y-40495D01*
X30461Y-40522D01*
X30448Y-40535D01*
X30199Y-40128D02*
X30199Y-40180D01*
X30212Y-40207D01*
X30225Y-40220D01*
X30264Y-40246D01*
X30317Y-40259D01*
X30422Y-40259D01*
X30448Y-40246D01*
X30461Y-40233D01*
X30474Y-40207D01*
X30474Y-40154D01*
X30461Y-40128D01*
X30448Y-40115D01*
X30422Y-40102D01*
X30356Y-40102D01*
X30330Y-40115D01*
X30317Y-40128D01*
X30304Y-40154D01*
X30304Y-40207D01*
X30317Y-40233D01*
X30330Y-40246D01*
X30356Y-40259D01*
X31574Y-40627D02*
X31443Y-40719D01*
X31574Y-40784D02*
X31299Y-40784D01*
X31299Y-40679D01*
X31312Y-40653D01*
X31325Y-40640D01*
X31351Y-40627D01*
X31390Y-40627D01*
X31417Y-40640D01*
X31430Y-40653D01*
X31443Y-40679D01*
X31443Y-40784D01*
X31299Y-40535D02*
X31299Y-40364D01*
X31404Y-40456D01*
X31404Y-40417D01*
X31417Y-40390D01*
X31430Y-40377D01*
X31456Y-40364D01*
X31522Y-40364D01*
X31548Y-40377D01*
X31561Y-40390D01*
X31574Y-40417D01*
X31574Y-40495D01*
X31561Y-40522D01*
X31548Y-40535D01*
X31299Y-40272D02*
X31299Y-40089D01*
X31574Y-40207D01*
X32874Y-40227D02*
X32743Y-40319D01*
X32874Y-40384D02*
X32599Y-40384D01*
X32599Y-40279D01*
X32612Y-40253D01*
X32625Y-40240D01*
X32651Y-40227D01*
X32690Y-40227D01*
X32717Y-40240D01*
X32730Y-40253D01*
X32743Y-40279D01*
X32743Y-40384D01*
X32599Y-40135D02*
X32599Y-39964D01*
X32704Y-40056D01*
X32704Y-40017D01*
X32717Y-39990D01*
X32730Y-39977D01*
X32756Y-39964D01*
X32822Y-39964D01*
X32848Y-39977D01*
X32861Y-39990D01*
X32874Y-40017D01*
X32874Y-40095D01*
X32861Y-40122D01*
X32848Y-40135D01*
X32717Y-39807D02*
X32704Y-39833D01*
X32690Y-39846D01*
X32664Y-39859D01*
X32651Y-39859D01*
X32625Y-39846D01*
X32612Y-39833D01*
X32599Y-39807D01*
X32599Y-39754D01*
X32612Y-39728D01*
X32625Y-39715D01*
X32651Y-39702D01*
X32664Y-39702D01*
X32690Y-39715D01*
X32704Y-39728D01*
X32717Y-39754D01*
X32717Y-39807D01*
X32730Y-39833D01*
X32743Y-39846D01*
X32769Y-39859D01*
X32822Y-39859D01*
X32848Y-39846D01*
X32861Y-39833D01*
X32874Y-39807D01*
X32874Y-39754D01*
X32861Y-39728D01*
X32848Y-39715D01*
X32822Y-39702D01*
X32769Y-39702D01*
X32743Y-39715D01*
X32730Y-39728D01*
X32717Y-39754D01*
X23172Y-38674D02*
X23080Y-38543D01*
X23015Y-38674D02*
X23015Y-38399D01*
X23120Y-38399D01*
X23146Y-38412D01*
X23159Y-38425D01*
X23172Y-38451D01*
X23172Y-38490D01*
X23159Y-38517D01*
X23146Y-38530D01*
X23120Y-38543D01*
X23015Y-38543D01*
X23409Y-38490D02*
X23409Y-38674D01*
X23343Y-38385D02*
X23277Y-38582D01*
X23448Y-38582D01*
X23540Y-38425D02*
X23553Y-38412D01*
X23579Y-38399D01*
X23645Y-38399D01*
X23671Y-38412D01*
X23684Y-38425D01*
X23697Y-38451D01*
X23697Y-38477D01*
X23684Y-38517D01*
X23527Y-38674D01*
X23697Y-38674D01*
X25099Y-39952D02*
X24968Y-40044D01*
X25099Y-40109D02*
X24824Y-40109D01*
X24824Y-40004D01*
X24837Y-39978D01*
X24850Y-39965D01*
X24876Y-39952D01*
X24915Y-39952D01*
X24942Y-39965D01*
X24955Y-39978D01*
X24968Y-40004D01*
X24968Y-40109D01*
X24915Y-39715D02*
X25099Y-39715D01*
X24810Y-39781D02*
X25007Y-39847D01*
X25007Y-39676D01*
X24824Y-39597D02*
X24824Y-39427D01*
X24929Y-39519D01*
X24929Y-39479D01*
X24942Y-39453D01*
X24955Y-39440D01*
X24981Y-39427D01*
X25047Y-39427D01*
X25073Y-39440D01*
X25086Y-39453D01*
X25099Y-39479D01*
X25099Y-39558D01*
X25086Y-39584D01*
X25073Y-39597D01*
X26947Y-38449D02*
X26855Y-38318D01*
X26790Y-38449D02*
X26790Y-38174D01*
X26895Y-38174D01*
X26921Y-38187D01*
X26934Y-38200D01*
X26947Y-38226D01*
X26947Y-38265D01*
X26934Y-38292D01*
X26921Y-38305D01*
X26895Y-38318D01*
X26790Y-38318D01*
X27184Y-38265D02*
X27184Y-38449D01*
X27118Y-38160D02*
X27052Y-38357D01*
X27223Y-38357D01*
X27446Y-38265D02*
X27446Y-38449D01*
X27380Y-38160D02*
X27315Y-38357D01*
X27485Y-38357D01*
X17772Y-41474D02*
X17680Y-41343D01*
X17615Y-41474D02*
X17615Y-41199D01*
X17720Y-41199D01*
X17746Y-41212D01*
X17759Y-41225D01*
X17772Y-41251D01*
X17772Y-41290D01*
X17759Y-41317D01*
X17746Y-41330D01*
X17720Y-41343D01*
X17615Y-41343D01*
X18009Y-41290D02*
X18009Y-41474D01*
X17943Y-41185D02*
X17877Y-41382D01*
X18048Y-41382D01*
X18284Y-41199D02*
X18153Y-41199D01*
X18140Y-41330D01*
X18153Y-41317D01*
X18179Y-41304D01*
X18245Y-41304D01*
X18271Y-41317D01*
X18284Y-41330D01*
X18297Y-41356D01*
X18297Y-41422D01*
X18284Y-41448D01*
X18271Y-41461D01*
X18245Y-41474D01*
X18179Y-41474D01*
X18153Y-41461D01*
X18140Y-41448D01*
X16472Y-39874D02*
X16380Y-39743D01*
X16315Y-39874D02*
X16315Y-39599D01*
X16420Y-39599D01*
X16446Y-39612D01*
X16459Y-39625D01*
X16472Y-39651D01*
X16472Y-39690D01*
X16459Y-39717D01*
X16446Y-39730D01*
X16420Y-39743D01*
X16315Y-39743D01*
X16709Y-39690D02*
X16709Y-39874D01*
X16643Y-39585D02*
X16577Y-39782D01*
X16748Y-39782D01*
X16971Y-39599D02*
X16919Y-39599D01*
X16892Y-39612D01*
X16879Y-39625D01*
X16853Y-39664D01*
X16840Y-39717D01*
X16840Y-39822D01*
X16853Y-39848D01*
X16866Y-39861D01*
X16892Y-39874D01*
X16945Y-39874D01*
X16971Y-39861D01*
X16984Y-39848D01*
X16997Y-39822D01*
X16997Y-39756D01*
X16984Y-39730D01*
X16971Y-39717D01*
X16945Y-39704D01*
X16892Y-39704D01*
X16866Y-39717D01*
X16853Y-39730D01*
X16840Y-39756D01*
X16472Y-40674D02*
X16380Y-40543D01*
X16315Y-40674D02*
X16315Y-40399D01*
X16420Y-40399D01*
X16446Y-40412D01*
X16459Y-40425D01*
X16472Y-40451D01*
X16472Y-40490D01*
X16459Y-40517D01*
X16446Y-40530D01*
X16420Y-40543D01*
X16315Y-40543D01*
X16709Y-40490D02*
X16709Y-40674D01*
X16643Y-40385D02*
X16577Y-40582D01*
X16748Y-40582D01*
X16827Y-40399D02*
X17010Y-40399D01*
X16892Y-40674D01*
X18374Y-29177D02*
X18243Y-29269D01*
X18374Y-29334D02*
X18099Y-29334D01*
X18099Y-29229D01*
X18112Y-29203D01*
X18125Y-29190D01*
X18151Y-29177D01*
X18190Y-29177D01*
X18217Y-29190D01*
X18230Y-29203D01*
X18243Y-29229D01*
X18243Y-29334D01*
X18190Y-28940D02*
X18374Y-28940D01*
X18085Y-29006D02*
X18282Y-29072D01*
X18282Y-28901D01*
X18217Y-28757D02*
X18204Y-28783D01*
X18190Y-28796D01*
X18164Y-28809D01*
X18151Y-28809D01*
X18125Y-28796D01*
X18112Y-28783D01*
X18099Y-28757D01*
X18099Y-28704D01*
X18112Y-28678D01*
X18125Y-28665D01*
X18151Y-28652D01*
X18164Y-28652D01*
X18190Y-28665D01*
X18204Y-28678D01*
X18217Y-28704D01*
X18217Y-28757D01*
X18230Y-28783D01*
X18243Y-28796D01*
X18269Y-28809D01*
X18322Y-28809D01*
X18348Y-28796D01*
X18361Y-28783D01*
X18374Y-28757D01*
X18374Y-28704D01*
X18361Y-28678D01*
X18348Y-28665D01*
X18322Y-28652D01*
X18269Y-28652D01*
X18243Y-28665D01*
X18230Y-28678D01*
X18217Y-28704D01*
X18322Y-31874D02*
X18230Y-31743D01*
X18165Y-31874D02*
X18165Y-31599D01*
X18270Y-31599D01*
X18296Y-31612D01*
X18309Y-31625D01*
X18322Y-31651D01*
X18322Y-31690D01*
X18309Y-31717D01*
X18296Y-31730D01*
X18270Y-31743D01*
X18165Y-31743D01*
X18559Y-31690D02*
X18559Y-31874D01*
X18493Y-31585D02*
X18427Y-31782D01*
X18598Y-31782D01*
X18716Y-31874D02*
X18769Y-31874D01*
X18795Y-31861D01*
X18808Y-31848D01*
X18834Y-31809D01*
X18847Y-31756D01*
X18847Y-31651D01*
X18834Y-31625D01*
X18821Y-31612D01*
X18795Y-31599D01*
X18742Y-31599D01*
X18716Y-31612D01*
X18703Y-31625D01*
X18690Y-31651D01*
X18690Y-31717D01*
X18703Y-31743D01*
X18716Y-31756D01*
X18742Y-31769D01*
X18795Y-31769D01*
X18821Y-31756D01*
X18834Y-31743D01*
X18847Y-31717D01*
X19072Y-36124D02*
X18980Y-35993D01*
X18915Y-36124D02*
X18915Y-35849D01*
X19020Y-35849D01*
X19046Y-35862D01*
X19059Y-35875D01*
X19072Y-35901D01*
X19072Y-35940D01*
X19059Y-35967D01*
X19046Y-35980D01*
X19020Y-35993D01*
X18915Y-35993D01*
X19322Y-35849D02*
X19190Y-35849D01*
X19177Y-35980D01*
X19190Y-35967D01*
X19217Y-35954D01*
X19282Y-35954D01*
X19309Y-35967D01*
X19322Y-35980D01*
X19335Y-36006D01*
X19335Y-36072D01*
X19322Y-36098D01*
X19309Y-36111D01*
X19282Y-36124D01*
X19217Y-36124D01*
X19190Y-36111D01*
X19177Y-36098D01*
X19505Y-35849D02*
X19532Y-35849D01*
X19558Y-35862D01*
X19571Y-35875D01*
X19584Y-35901D01*
X19597Y-35954D01*
X19597Y-36019D01*
X19584Y-36072D01*
X19571Y-36098D01*
X19558Y-36111D01*
X19532Y-36124D01*
X19505Y-36124D01*
X19479Y-36111D01*
X19466Y-36098D01*
X19453Y-36072D01*
X19440Y-36019D01*
X19440Y-35954D01*
X19453Y-35901D01*
X19466Y-35875D01*
X19479Y-35862D01*
X19505Y-35849D01*
X19624Y-34427D02*
X19493Y-34519D01*
X19624Y-34584D02*
X19349Y-34584D01*
X19349Y-34479D01*
X19362Y-34453D01*
X19375Y-34440D01*
X19401Y-34427D01*
X19440Y-34427D01*
X19467Y-34440D01*
X19480Y-34453D01*
X19493Y-34479D01*
X19493Y-34584D01*
X19349Y-34177D02*
X19349Y-34309D01*
X19480Y-34322D01*
X19467Y-34309D01*
X19454Y-34282D01*
X19454Y-34217D01*
X19467Y-34190D01*
X19480Y-34177D01*
X19506Y-34164D01*
X19572Y-34164D01*
X19598Y-34177D01*
X19611Y-34190D01*
X19624Y-34217D01*
X19624Y-34282D01*
X19611Y-34309D01*
X19598Y-34322D01*
X19624Y-33902D02*
X19624Y-34059D01*
X19624Y-33980D02*
X19349Y-33980D01*
X19388Y-34007D01*
X19414Y-34033D01*
X19427Y-34059D01*
X22822Y-29624D02*
X22730Y-29493D01*
X22665Y-29624D02*
X22665Y-29349D01*
X22770Y-29349D01*
X22796Y-29362D01*
X22809Y-29375D01*
X22822Y-29401D01*
X22822Y-29440D01*
X22809Y-29467D01*
X22796Y-29480D01*
X22770Y-29493D01*
X22665Y-29493D01*
X23072Y-29349D02*
X22940Y-29349D01*
X22927Y-29480D01*
X22940Y-29467D01*
X22967Y-29454D01*
X23032Y-29454D01*
X23059Y-29467D01*
X23072Y-29480D01*
X23085Y-29506D01*
X23085Y-29572D01*
X23072Y-29598D01*
X23059Y-29611D01*
X23032Y-29624D01*
X22967Y-29624D01*
X22940Y-29611D01*
X22927Y-29598D01*
X23190Y-29375D02*
X23203Y-29362D01*
X23229Y-29349D01*
X23295Y-29349D01*
X23321Y-29362D01*
X23334Y-29375D01*
X23347Y-29401D01*
X23347Y-29427D01*
X23334Y-29467D01*
X23177Y-29624D01*
X23347Y-29624D01*
X23874Y-32427D02*
X23743Y-32519D01*
X23874Y-32584D02*
X23599Y-32584D01*
X23599Y-32479D01*
X23612Y-32453D01*
X23625Y-32440D01*
X23651Y-32427D01*
X23690Y-32427D01*
X23717Y-32440D01*
X23730Y-32453D01*
X23743Y-32479D01*
X23743Y-32584D01*
X23599Y-32177D02*
X23599Y-32309D01*
X23730Y-32322D01*
X23717Y-32309D01*
X23704Y-32282D01*
X23704Y-32217D01*
X23717Y-32190D01*
X23730Y-32177D01*
X23756Y-32164D01*
X23822Y-32164D01*
X23848Y-32177D01*
X23861Y-32190D01*
X23874Y-32217D01*
X23874Y-32282D01*
X23861Y-32309D01*
X23848Y-32322D01*
X23599Y-32072D02*
X23599Y-31902D01*
X23704Y-31994D01*
X23704Y-31954D01*
X23717Y-31928D01*
X23730Y-31915D01*
X23756Y-31902D01*
X23822Y-31902D01*
X23848Y-31915D01*
X23861Y-31928D01*
X23874Y-31954D01*
X23874Y-32033D01*
X23861Y-32059D01*
X23848Y-32072D01*
X30540Y-28099D02*
X30540Y-28322D01*
X30553Y-28348D01*
X30566Y-28361D01*
X30592Y-28374D01*
X30645Y-28374D01*
X30671Y-28361D01*
X30684Y-28348D01*
X30697Y-28322D01*
X30697Y-28099D01*
X30973Y-28374D02*
X30815Y-28374D01*
X30894Y-28374D02*
X30894Y-28099D01*
X30868Y-28138D01*
X30841Y-28164D01*
X30815Y-28177D01*
X24790Y-38099D02*
X24790Y-38322D01*
X24803Y-38348D01*
X24816Y-38361D01*
X24842Y-38374D01*
X24895Y-38374D01*
X24921Y-38361D01*
X24934Y-38348D01*
X24947Y-38322D01*
X24947Y-38099D01*
X25065Y-38125D02*
X25078Y-38112D01*
X25104Y-38099D01*
X25170Y-38099D01*
X25196Y-38112D01*
X25209Y-38125D01*
X25223Y-38151D01*
X25223Y-38177D01*
X25209Y-38217D01*
X25052Y-38374D01*
X25223Y-38374D01*
X29790Y-36062D02*
X29790Y-36285D01*
X29803Y-36311D01*
X29816Y-36324D01*
X29842Y-36337D01*
X29895Y-36337D01*
X29921Y-36324D01*
X29934Y-36311D01*
X29947Y-36285D01*
X29947Y-36062D01*
X30052Y-36062D02*
X30223Y-36062D01*
X30131Y-36167D01*
X30170Y-36167D01*
X30196Y-36180D01*
X30209Y-36193D01*
X30223Y-36219D01*
X30223Y-36285D01*
X30209Y-36311D01*
X30196Y-36324D01*
X30170Y-36337D01*
X30091Y-36337D01*
X30065Y-36324D01*
X30052Y-36311D01*
X23290Y-19099D02*
X23290Y-19322D01*
X23303Y-19348D01*
X23316Y-19361D01*
X23342Y-19374D01*
X23395Y-19374D01*
X23421Y-19361D01*
X23434Y-19348D01*
X23447Y-19322D01*
X23447Y-19099D01*
X23696Y-19190D02*
X23696Y-19374D01*
X23631Y-19085D02*
X23565Y-19282D01*
X23736Y-19282D01*
X33040Y-35849D02*
X33040Y-36072D01*
X33053Y-36098D01*
X33066Y-36111D01*
X33092Y-36124D01*
X33145Y-36124D01*
X33171Y-36111D01*
X33184Y-36098D01*
X33197Y-36072D01*
X33197Y-35849D01*
X33459Y-35849D02*
X33328Y-35849D01*
X33315Y-35980D01*
X33328Y-35967D01*
X33354Y-35954D01*
X33420Y-35954D01*
X33446Y-35967D01*
X33459Y-35980D01*
X33473Y-36006D01*
X33473Y-36072D01*
X33459Y-36098D01*
X33446Y-36111D01*
X33420Y-36124D01*
X33354Y-36124D01*
X33328Y-36111D01*
X33315Y-36098D01*
X30790Y-18849D02*
X30790Y-19072D01*
X30803Y-19098D01*
X30816Y-19111D01*
X30842Y-19124D01*
X30895Y-19124D01*
X30921Y-19111D01*
X30934Y-19098D01*
X30947Y-19072D01*
X30947Y-18849D01*
X31118Y-18967D02*
X31091Y-18954D01*
X31078Y-18940D01*
X31065Y-18914D01*
X31065Y-18901D01*
X31078Y-18875D01*
X31091Y-18862D01*
X31118Y-18849D01*
X31170Y-18849D01*
X31196Y-18862D01*
X31209Y-18875D01*
X31223Y-18901D01*
X31223Y-18914D01*
X31209Y-18940D01*
X31196Y-18954D01*
X31170Y-18967D01*
X31118Y-18967D01*
X31091Y-18980D01*
X31078Y-18993D01*
X31065Y-19019D01*
X31065Y-19072D01*
X31078Y-19098D01*
X31091Y-19111D01*
X31118Y-19124D01*
X31170Y-19124D01*
X31196Y-19111D01*
X31209Y-19098D01*
X31223Y-19072D01*
X31223Y-19019D01*
X31209Y-18993D01*
X31196Y-18980D01*
X31170Y-18967D01*
X24040Y-41999D02*
X24040Y-42222D01*
X24053Y-42248D01*
X24066Y-42261D01*
X24092Y-42274D01*
X24145Y-42274D01*
X24171Y-42261D01*
X24184Y-42248D01*
X24197Y-42222D01*
X24197Y-41999D01*
X24341Y-42274D02*
X24394Y-42274D01*
X24420Y-42261D01*
X24433Y-42248D01*
X24459Y-42209D01*
X24473Y-42156D01*
X24473Y-42051D01*
X24459Y-42025D01*
X24446Y-42012D01*
X24420Y-41999D01*
X24368Y-41999D01*
X24341Y-42012D01*
X24328Y-42025D01*
X24315Y-42051D01*
X24315Y-42117D01*
X24328Y-42143D01*
X24341Y-42156D01*
X24368Y-42169D01*
X24420Y-42169D01*
X24446Y-42156D01*
X24459Y-42143D01*
X24473Y-42117D01*
X20158Y-35849D02*
X20158Y-36072D01*
X20171Y-36098D01*
X20185Y-36111D01*
X20211Y-36124D01*
X20263Y-36124D01*
X20290Y-36111D01*
X20303Y-36098D01*
X20316Y-36072D01*
X20316Y-35849D01*
X20591Y-36124D02*
X20434Y-36124D01*
X20513Y-36124D02*
X20513Y-35849D01*
X20486Y-35888D01*
X20460Y-35914D01*
X20434Y-35927D01*
X20762Y-35849D02*
X20788Y-35849D01*
X20814Y-35862D01*
X20828Y-35875D01*
X20841Y-35901D01*
X20854Y-35954D01*
X20854Y-36019D01*
X20841Y-36072D01*
X20828Y-36098D01*
X20814Y-36111D01*
X20788Y-36124D01*
X20762Y-36124D01*
X20736Y-36111D01*
X20723Y-36098D01*
X20709Y-36072D01*
X20696Y-36019D01*
X20696Y-35954D01*
X20709Y-35901D01*
X20723Y-35875D01*
X20736Y-35862D01*
X20762Y-35849D01*
X19849Y-29591D02*
X20072Y-29591D01*
X20098Y-29578D01*
X20111Y-29564D01*
X20124Y-29538D01*
X20124Y-29486D01*
X20111Y-29459D01*
X20098Y-29446D01*
X20072Y-29433D01*
X19849Y-29433D01*
X20124Y-29158D02*
X20124Y-29315D01*
X20124Y-29236D02*
X19849Y-29236D01*
X19888Y-29263D01*
X19914Y-29289D01*
X19927Y-29315D01*
X20124Y-28895D02*
X20124Y-29053D01*
X20124Y-28974D02*
X19849Y-28974D01*
X19888Y-29000D01*
X19914Y-29026D01*
X19927Y-29053D01*
X18374Y-25045D02*
X18243Y-25137D01*
X18374Y-25203D02*
X18099Y-25203D01*
X18099Y-25098D01*
X18112Y-25072D01*
X18125Y-25059D01*
X18151Y-25045D01*
X18190Y-25045D01*
X18217Y-25059D01*
X18230Y-25072D01*
X18243Y-25098D01*
X18243Y-25203D01*
X18374Y-24914D02*
X18374Y-24862D01*
X18361Y-24835D01*
X18348Y-24822D01*
X18309Y-24796D01*
X18256Y-24783D01*
X18151Y-24783D01*
X18125Y-24796D01*
X18112Y-24809D01*
X18099Y-24835D01*
X18099Y-24888D01*
X18112Y-24914D01*
X18125Y-24927D01*
X18151Y-24940D01*
X18217Y-24940D01*
X18243Y-24927D01*
X18256Y-24914D01*
X18269Y-24888D01*
X18269Y-24835D01*
X18256Y-24809D01*
X18243Y-24796D01*
X18217Y-24783D01*
X18374Y-23677D02*
X18243Y-23769D01*
X18374Y-23834D02*
X18099Y-23834D01*
X18099Y-23729D01*
X18112Y-23703D01*
X18125Y-23690D01*
X18151Y-23677D01*
X18190Y-23677D01*
X18217Y-23690D01*
X18230Y-23703D01*
X18243Y-23729D01*
X18243Y-23834D01*
X18374Y-23414D02*
X18374Y-23572D01*
X18374Y-23493D02*
X18099Y-23493D01*
X18138Y-23519D01*
X18164Y-23545D01*
X18177Y-23572D01*
X18099Y-23244D02*
X18099Y-23217D01*
X18112Y-23191D01*
X18125Y-23178D01*
X18151Y-23165D01*
X18204Y-23152D01*
X18269Y-23152D01*
X18322Y-23165D01*
X18348Y-23178D01*
X18361Y-23191D01*
X18374Y-23217D01*
X18374Y-23244D01*
X18361Y-23270D01*
X18348Y-23283D01*
X18322Y-23296D01*
X18269Y-23309D01*
X18204Y-23309D01*
X18151Y-23296D01*
X18125Y-23283D01*
X18112Y-23270D01*
X18099Y-23244D01*
X34124Y-24895D02*
X34124Y-25027D01*
X33849Y-25027D01*
X34124Y-24659D02*
X34124Y-24817D01*
X34124Y-24738D02*
X33849Y-24738D01*
X33888Y-24764D01*
X33914Y-24790D01*
X33927Y-24817D01*
X26374Y-14203D02*
X26099Y-14203D01*
X26374Y-14045D02*
X26217Y-14164D01*
X26099Y-14045D02*
X26256Y-14203D01*
X26374Y-13783D02*
X26374Y-13940D01*
X26374Y-13862D02*
X26099Y-13862D01*
X26138Y-13888D01*
X26164Y-13914D01*
X26177Y-13940D01*
X30124Y-14203D02*
X29849Y-14203D01*
X30124Y-14045D02*
X29967Y-14164D01*
X29849Y-14045D02*
X30006Y-14203D01*
X29849Y-13796D02*
X29849Y-13927D01*
X29980Y-13940D01*
X29967Y-13927D01*
X29954Y-13901D01*
X29954Y-13835D01*
X29967Y-13809D01*
X29980Y-13796D01*
X30006Y-13783D01*
X30072Y-13783D01*
X30098Y-13796D01*
X30111Y-13809D01*
X30124Y-13835D01*
X30124Y-13901D01*
X30111Y-13927D01*
X30098Y-13940D01*
X34374Y-14203D02*
X34099Y-14203D01*
X34374Y-14045D02*
X34217Y-14164D01*
X34099Y-14045D02*
X34256Y-14203D01*
X34099Y-13809D02*
X34099Y-13862D01*
X34112Y-13888D01*
X34125Y-13901D01*
X34164Y-13927D01*
X34217Y-13940D01*
X34322Y-13940D01*
X34348Y-13927D01*
X34361Y-13914D01*
X34374Y-13888D01*
X34374Y-13835D01*
X34361Y-13809D01*
X34348Y-13796D01*
X34322Y-13783D01*
X34256Y-13783D01*
X34230Y-13796D01*
X34217Y-13809D01*
X34204Y-13835D01*
X34204Y-13888D01*
X34217Y-13914D01*
X34230Y-13927D01*
X34256Y-13940D01*
X17822Y-36124D02*
X17730Y-35993D01*
X17665Y-36124D02*
X17665Y-35849D01*
X17770Y-35849D01*
X17796Y-35862D01*
X17809Y-35875D01*
X17822Y-35901D01*
X17822Y-35940D01*
X17809Y-35967D01*
X17796Y-35980D01*
X17770Y-35993D01*
X17665Y-35993D01*
X18072Y-35849D02*
X17940Y-35849D01*
X17927Y-35980D01*
X17940Y-35967D01*
X17967Y-35954D01*
X18032Y-35954D01*
X18059Y-35967D01*
X18072Y-35980D01*
X18085Y-36006D01*
X18085Y-36072D01*
X18072Y-36098D01*
X18059Y-36111D01*
X18032Y-36124D01*
X17967Y-36124D01*
X17940Y-36111D01*
X17927Y-36098D01*
X18321Y-35940D02*
X18321Y-36124D01*
X18255Y-35835D02*
X18190Y-36032D01*
X18360Y-36032D01*
X39598Y-30645D02*
X39611Y-30659D01*
X39624Y-30698D01*
X39624Y-30724D01*
X39611Y-30764D01*
X39585Y-30790D01*
X39559Y-30803D01*
X39506Y-30816D01*
X39467Y-30816D01*
X39414Y-30803D01*
X39388Y-30790D01*
X39362Y-30764D01*
X39349Y-30724D01*
X39349Y-30698D01*
X39362Y-30659D01*
X39375Y-30645D01*
X39349Y-30554D02*
X39349Y-30383D01*
X39454Y-30475D01*
X39454Y-30435D01*
X39467Y-30409D01*
X39480Y-30396D01*
X39506Y-30383D01*
X39572Y-30383D01*
X39598Y-30396D01*
X39611Y-30409D01*
X39624Y-30435D01*
X39624Y-30514D01*
X39611Y-30540D01*
X39598Y-30554D01*
X36698Y-29045D02*
X36711Y-29059D01*
X36724Y-29098D01*
X36724Y-29124D01*
X36711Y-29164D01*
X36685Y-29190D01*
X36659Y-29203D01*
X36606Y-29216D01*
X36567Y-29216D01*
X36514Y-29203D01*
X36488Y-29190D01*
X36462Y-29164D01*
X36449Y-29124D01*
X36449Y-29098D01*
X36462Y-29059D01*
X36475Y-29045D01*
X36449Y-28954D02*
X36449Y-28770D01*
X36724Y-28888D01*
X21874Y-43953D02*
X21599Y-43953D01*
X21874Y-43795D02*
X21717Y-43914D01*
X21599Y-43795D02*
X21756Y-43953D01*
X21599Y-43704D02*
X21599Y-43520D01*
X21874Y-43638D01*
X39213Y-40702D02*
X39213Y-40427D01*
X39305Y-40623D01*
X39397Y-40427D01*
X39397Y-40702D01*
X39528Y-40702D02*
X39528Y-40427D01*
X39528Y-40558D02*
X39686Y-40558D01*
X39686Y-40702D02*
X39686Y-40427D01*
X14713Y-13302D02*
X14713Y-13027D01*
X14805Y-13223D01*
X14897Y-13027D01*
X14897Y-13302D01*
X15028Y-13302D02*
X15028Y-13027D01*
X15028Y-13158D02*
X15186Y-13158D01*
X15186Y-13302D02*
X15186Y-13027D01*
X39313Y-13302D02*
X39313Y-13027D01*
X39405Y-13223D01*
X39497Y-13027D01*
X39497Y-13302D01*
X39628Y-13302D02*
X39628Y-13027D01*
X39628Y-13158D02*
X39786Y-13158D01*
X39786Y-13302D02*
X39786Y-13027D01*
X14713Y-40702D02*
X14713Y-40427D01*
X14805Y-40623D01*
X14897Y-40427D01*
X14897Y-40702D01*
X15028Y-40702D02*
X15028Y-40427D01*
X15028Y-40558D02*
X15186Y-40558D01*
X15186Y-40702D02*
X15186Y-40427D01*
X40899Y-30141D02*
X41122Y-30141D01*
X41148Y-30128D01*
X41161Y-30114D01*
X41174Y-30088D01*
X41174Y-30036D01*
X41161Y-30009D01*
X41148Y-29996D01*
X41122Y-29983D01*
X40899Y-29983D01*
X41174Y-29708D02*
X41174Y-29865D01*
X41174Y-29786D02*
X40899Y-29786D01*
X40938Y-29813D01*
X40964Y-29839D01*
X40977Y-29865D01*
X40925Y-29603D02*
X40912Y-29590D01*
X40899Y-29563D01*
X40899Y-29498D01*
X40912Y-29471D01*
X40925Y-29458D01*
X40951Y-29445D01*
X40977Y-29445D01*
X41017Y-29458D01*
X41174Y-29616D01*
X41174Y-29445D01*
M02*
