%FSLAX34Y34*%
G04 Gerber Fmt 3.4, Leading zero omitted, Abs format*
G04 (created by PCBNEW (2014-03-19 BZR 4756)-product) date Wed May 28 16:29:02 2014*
%MOIN*%
G01*
G70*
G90*
G04 APERTURE LIST*
%ADD10C,0.005906*%
%ADD11R,0.200787X0.094488*%
%ADD12R,0.094488X0.200787*%
%ADD13R,0.055000X0.055000*%
%ADD14C,0.055000*%
%ADD15C,0.045000*%
%ADD16O,0.098400X0.059100*%
G04 APERTURE END LIST*
G54D10*
G54D11*
X14000Y-38732D03*
X14000Y-35267D03*
G54D12*
X21017Y-14000D03*
X24482Y-14000D03*
G54D11*
X40500Y-38732D03*
X40500Y-35267D03*
X40500Y-21482D03*
X40500Y-18017D03*
G54D13*
X14250Y-18000D03*
G54D14*
X14250Y-19000D03*
X14250Y-20000D03*
G54D13*
X40500Y-25500D03*
G54D14*
X40500Y-24500D03*
X40500Y-23500D03*
G54D13*
X14250Y-26500D03*
G54D14*
X14250Y-25500D03*
X14250Y-24500D03*
G54D15*
X21750Y-23250D03*
G54D13*
X33850Y-43750D03*
G54D14*
X34850Y-43750D03*
X35850Y-43750D03*
X36850Y-43750D03*
G54D13*
X26650Y-43750D03*
G54D14*
X27650Y-43750D03*
X28650Y-43750D03*
X29650Y-43750D03*
G54D13*
X14250Y-33500D03*
G54D14*
X14250Y-32500D03*
X14250Y-31500D03*
X14250Y-30500D03*
G54D13*
X27250Y-14000D03*
G54D14*
X28250Y-14000D03*
X29250Y-14000D03*
G54D13*
X31250Y-14000D03*
G54D14*
X32250Y-14000D03*
X33250Y-14000D03*
G54D13*
X35250Y-14000D03*
G54D14*
X36250Y-14000D03*
X37250Y-14000D03*
G54D13*
X24550Y-43750D03*
G54D14*
X23550Y-43750D03*
X22550Y-43750D03*
G54D16*
X39500Y-28600D03*
X39500Y-27600D03*
X39500Y-29600D03*
M02*
