%FSLAX34Y34*%
G04 Gerber Fmt 3.4, Leading zero omitted, Abs format*
G04 (created by PCBNEW (2014-03-19 BZR 4756)-product) date Thu May 22 10:07:56 2014*
%MOIN*%
G01*
G70*
G90*
G04 APERTURE LIST*
%ADD10C,0.005906*%
%ADD11C,0.011811*%
%ADD12C,0.007874*%
%ADD13C,0.003900*%
%ADD14C,0.005000*%
%ADD15C,0.002600*%
%ADD16C,0.004000*%
%ADD17C,0.002000*%
%ADD18C,0.015000*%
%ADD19C,0.012000*%
%ADD20C,0.008000*%
%ADD21C,0.006890*%
G04 APERTURE END LIST*
G54D10*
X39723Y-40199D02*
X39813Y-40199D01*
X39757Y-40356D02*
X39757Y-40154D01*
X39768Y-40131D01*
X39791Y-40120D01*
X39813Y-40120D01*
X39870Y-40199D02*
X39915Y-40356D01*
X39960Y-40244D01*
X40005Y-40356D01*
X40050Y-40199D01*
X40241Y-40356D02*
X40241Y-40120D01*
X40241Y-40345D02*
X40218Y-40356D01*
X40173Y-40356D01*
X40151Y-40345D01*
X40140Y-40334D01*
X40128Y-40311D01*
X40128Y-40244D01*
X40140Y-40221D01*
X40151Y-40210D01*
X40173Y-40199D01*
X40218Y-40199D01*
X40241Y-40210D01*
X40500Y-40199D02*
X40589Y-40199D01*
X40533Y-40356D02*
X40533Y-40154D01*
X40544Y-40131D01*
X40567Y-40120D01*
X40589Y-40120D01*
X40769Y-40356D02*
X40769Y-40233D01*
X40758Y-40210D01*
X40736Y-40199D01*
X40691Y-40199D01*
X40668Y-40210D01*
X40769Y-40345D02*
X40747Y-40356D01*
X40691Y-40356D01*
X40668Y-40345D01*
X40657Y-40323D01*
X40657Y-40300D01*
X40668Y-40278D01*
X40691Y-40266D01*
X40747Y-40266D01*
X40769Y-40255D01*
X40983Y-40199D02*
X40983Y-40356D01*
X40882Y-40199D02*
X40882Y-40323D01*
X40893Y-40345D01*
X40916Y-40356D01*
X40949Y-40356D01*
X40972Y-40345D01*
X40983Y-40334D01*
X41129Y-40356D02*
X41107Y-40345D01*
X41096Y-40323D01*
X41096Y-40120D01*
X41186Y-40199D02*
X41276Y-40199D01*
X41219Y-40120D02*
X41219Y-40323D01*
X41231Y-40345D01*
X41253Y-40356D01*
X41276Y-40356D01*
G54D11*
X25612Y-22979D02*
X25612Y-23384D01*
X25589Y-23429D01*
X25544Y-23451D01*
X25522Y-23451D01*
X25612Y-22821D02*
X25589Y-22844D01*
X25612Y-22866D01*
X25634Y-22844D01*
X25612Y-22821D01*
X25612Y-22866D01*
X25904Y-23294D02*
X25859Y-23271D01*
X25837Y-23249D01*
X25814Y-23204D01*
X25814Y-23069D01*
X25837Y-23024D01*
X25859Y-23001D01*
X25904Y-22979D01*
X25972Y-22979D01*
X26017Y-23001D01*
X26039Y-23024D01*
X26062Y-23069D01*
X26062Y-23204D01*
X26039Y-23249D01*
X26017Y-23271D01*
X25972Y-23294D01*
X25904Y-23294D01*
X26264Y-22979D02*
X26264Y-23294D01*
X26264Y-23024D02*
X26287Y-23001D01*
X26332Y-22979D01*
X26399Y-22979D01*
X26444Y-23001D01*
X26467Y-23046D01*
X26467Y-23294D01*
X27052Y-23294D02*
X27052Y-22821D01*
X27097Y-23114D02*
X27232Y-23294D01*
X27232Y-22979D02*
X27052Y-23159D01*
X27502Y-23294D02*
X27457Y-23271D01*
X27434Y-23226D01*
X27434Y-22821D01*
X27862Y-23271D02*
X27817Y-23294D01*
X27727Y-23294D01*
X27682Y-23271D01*
X27659Y-23226D01*
X27659Y-23046D01*
X27682Y-23001D01*
X27727Y-22979D01*
X27817Y-22979D01*
X27862Y-23001D01*
X27884Y-23046D01*
X27884Y-23091D01*
X27659Y-23136D01*
X28087Y-23294D02*
X28087Y-22979D01*
X28087Y-22821D02*
X28064Y-22844D01*
X28087Y-22866D01*
X28109Y-22844D01*
X28087Y-22821D01*
X28087Y-22866D01*
X28312Y-22979D02*
X28312Y-23294D01*
X28312Y-23024D02*
X28334Y-23001D01*
X28379Y-22979D01*
X28447Y-22979D01*
X28492Y-23001D01*
X28514Y-23046D01*
X28514Y-23294D01*
X25612Y-23758D02*
X25612Y-24163D01*
X25589Y-24208D01*
X25544Y-24231D01*
X25522Y-24231D01*
X25612Y-23601D02*
X25589Y-23624D01*
X25612Y-23646D01*
X25634Y-23624D01*
X25612Y-23601D01*
X25612Y-23646D01*
X25769Y-23758D02*
X25949Y-23758D01*
X25837Y-23601D02*
X25837Y-24006D01*
X25859Y-24051D01*
X25904Y-24073D01*
X25949Y-24073D01*
X26107Y-24073D02*
X26107Y-23601D01*
X26152Y-23893D02*
X26287Y-24073D01*
X26287Y-23758D02*
X26107Y-23938D01*
X26557Y-24073D02*
X26512Y-24051D01*
X26489Y-24006D01*
X26489Y-23601D01*
X26917Y-24051D02*
X26872Y-24073D01*
X26782Y-24073D01*
X26737Y-24051D01*
X26714Y-24006D01*
X26714Y-23826D01*
X26737Y-23781D01*
X26782Y-23758D01*
X26872Y-23758D01*
X26917Y-23781D01*
X26939Y-23826D01*
X26939Y-23871D01*
X26714Y-23916D01*
X27142Y-24073D02*
X27142Y-23758D01*
X27142Y-23601D02*
X27119Y-23624D01*
X27142Y-23646D01*
X27164Y-23624D01*
X27142Y-23601D01*
X27142Y-23646D01*
X27367Y-23758D02*
X27367Y-24073D01*
X27367Y-23803D02*
X27389Y-23781D01*
X27434Y-23758D01*
X27502Y-23758D01*
X27547Y-23781D01*
X27569Y-23826D01*
X27569Y-24073D01*
X28087Y-23848D02*
X28064Y-23826D01*
X28019Y-23803D01*
X27974Y-23803D01*
X27929Y-23826D01*
X27907Y-23848D01*
X27884Y-23893D01*
X27884Y-23938D01*
X27907Y-23983D01*
X27929Y-24006D01*
X27974Y-24028D01*
X28019Y-24028D01*
X28064Y-24006D01*
X28087Y-23983D01*
X28087Y-23803D02*
X28087Y-23983D01*
X28109Y-24006D01*
X28132Y-24006D01*
X28177Y-23983D01*
X28199Y-23938D01*
X28199Y-23826D01*
X28154Y-23758D01*
X28087Y-23714D01*
X27997Y-23691D01*
X27907Y-23714D01*
X27839Y-23758D01*
X27794Y-23826D01*
X27772Y-23916D01*
X27794Y-24006D01*
X27839Y-24073D01*
X27907Y-24118D01*
X27997Y-24141D01*
X28087Y-24118D01*
X28154Y-24073D01*
X28604Y-24073D02*
X28604Y-23826D01*
X28582Y-23781D01*
X28537Y-23758D01*
X28447Y-23758D01*
X28402Y-23781D01*
X28604Y-24051D02*
X28559Y-24073D01*
X28447Y-24073D01*
X28402Y-24051D01*
X28379Y-24006D01*
X28379Y-23961D01*
X28402Y-23916D01*
X28447Y-23893D01*
X28559Y-23893D01*
X28604Y-23871D01*
X28897Y-24073D02*
X28852Y-24051D01*
X28829Y-24006D01*
X28829Y-23601D01*
X29279Y-24073D02*
X29279Y-23826D01*
X29257Y-23781D01*
X29212Y-23758D01*
X29122Y-23758D01*
X29077Y-23781D01*
X29279Y-24051D02*
X29234Y-24073D01*
X29122Y-24073D01*
X29077Y-24051D01*
X29054Y-24006D01*
X29054Y-23961D01*
X29077Y-23916D01*
X29122Y-23893D01*
X29234Y-23893D01*
X29279Y-23871D01*
X29482Y-24051D02*
X29526Y-24073D01*
X29616Y-24073D01*
X29661Y-24051D01*
X29684Y-24006D01*
X29684Y-23983D01*
X29661Y-23938D01*
X29616Y-23916D01*
X29549Y-23916D01*
X29504Y-23893D01*
X29482Y-23848D01*
X29482Y-23826D01*
X29504Y-23781D01*
X29549Y-23758D01*
X29616Y-23758D01*
X29661Y-23781D01*
X29886Y-24073D02*
X29886Y-23601D01*
X29931Y-23893D02*
X30066Y-24073D01*
X30066Y-23758D02*
X29886Y-23938D01*
X30471Y-24073D02*
X30471Y-23826D01*
X30449Y-23781D01*
X30404Y-23758D01*
X30314Y-23758D01*
X30269Y-23781D01*
X30471Y-24051D02*
X30426Y-24073D01*
X30314Y-24073D01*
X30269Y-24051D01*
X30246Y-24006D01*
X30246Y-23961D01*
X30269Y-23916D01*
X30314Y-23893D01*
X30426Y-23893D01*
X30471Y-23871D01*
X30696Y-24028D02*
X30719Y-24051D01*
X30696Y-24073D01*
X30674Y-24051D01*
X30696Y-24028D01*
X30696Y-24073D01*
X31101Y-24051D02*
X31056Y-24073D01*
X30966Y-24073D01*
X30921Y-24051D01*
X30899Y-24006D01*
X30899Y-23826D01*
X30921Y-23781D01*
X30966Y-23758D01*
X31056Y-23758D01*
X31101Y-23781D01*
X31124Y-23826D01*
X31124Y-23871D01*
X30899Y-23916D01*
X31529Y-24073D02*
X31529Y-23601D01*
X31529Y-24051D02*
X31484Y-24073D01*
X31394Y-24073D01*
X31349Y-24051D01*
X31326Y-24028D01*
X31304Y-23983D01*
X31304Y-23848D01*
X31326Y-23803D01*
X31349Y-23781D01*
X31394Y-23758D01*
X31484Y-23758D01*
X31529Y-23781D01*
X31956Y-23758D02*
X31956Y-24073D01*
X31754Y-23758D02*
X31754Y-24006D01*
X31776Y-24051D01*
X31821Y-24073D01*
X31889Y-24073D01*
X31934Y-24051D01*
X31956Y-24028D01*
X25612Y-24853D02*
X25612Y-24381D01*
X25657Y-24673D02*
X25792Y-24853D01*
X25792Y-24538D02*
X25612Y-24718D01*
X26062Y-24853D02*
X26017Y-24830D01*
X25994Y-24808D01*
X25972Y-24763D01*
X25972Y-24628D01*
X25994Y-24583D01*
X26017Y-24561D01*
X26062Y-24538D01*
X26129Y-24538D01*
X26174Y-24561D01*
X26197Y-24583D01*
X26219Y-24628D01*
X26219Y-24763D01*
X26197Y-24808D01*
X26174Y-24830D01*
X26129Y-24853D01*
X26062Y-24853D01*
X26624Y-24853D02*
X26624Y-24381D01*
X26624Y-24830D02*
X26579Y-24853D01*
X26489Y-24853D01*
X26444Y-24830D01*
X26422Y-24808D01*
X26399Y-24763D01*
X26399Y-24628D01*
X26422Y-24583D01*
X26444Y-24561D01*
X26489Y-24538D01*
X26579Y-24538D01*
X26624Y-24561D01*
X26849Y-24853D02*
X26849Y-24538D01*
X26849Y-24381D02*
X26827Y-24403D01*
X26849Y-24426D01*
X26872Y-24403D01*
X26849Y-24381D01*
X26849Y-24426D01*
X27277Y-24853D02*
X27277Y-24606D01*
X27254Y-24561D01*
X27209Y-24538D01*
X27119Y-24538D01*
X27074Y-24561D01*
X27277Y-24830D02*
X27232Y-24853D01*
X27119Y-24853D01*
X27074Y-24830D01*
X27052Y-24785D01*
X27052Y-24741D01*
X27074Y-24696D01*
X27119Y-24673D01*
X27232Y-24673D01*
X27277Y-24651D01*
X27502Y-24853D02*
X27502Y-24381D01*
X27547Y-24673D02*
X27682Y-24853D01*
X27682Y-24538D02*
X27502Y-24718D01*
X28222Y-24381D02*
X28222Y-24471D01*
X28402Y-24381D02*
X28402Y-24471D01*
X28807Y-24853D02*
X28807Y-24606D01*
X28784Y-24561D01*
X28739Y-24538D01*
X28649Y-24538D01*
X28604Y-24561D01*
X28807Y-24830D02*
X28762Y-24853D01*
X28649Y-24853D01*
X28604Y-24830D01*
X28582Y-24785D01*
X28582Y-24741D01*
X28604Y-24696D01*
X28649Y-24673D01*
X28762Y-24673D01*
X28807Y-24651D01*
X29234Y-24538D02*
X29234Y-24920D01*
X29212Y-24965D01*
X29189Y-24988D01*
X29144Y-25010D01*
X29077Y-25010D01*
X29032Y-24988D01*
X29234Y-24830D02*
X29189Y-24853D01*
X29099Y-24853D01*
X29054Y-24830D01*
X29032Y-24808D01*
X29009Y-24763D01*
X29009Y-24628D01*
X29032Y-24583D01*
X29054Y-24561D01*
X29099Y-24538D01*
X29189Y-24538D01*
X29234Y-24561D01*
X29661Y-24830D02*
X29616Y-24853D01*
X29526Y-24853D01*
X29482Y-24830D01*
X29459Y-24808D01*
X29437Y-24763D01*
X29437Y-24628D01*
X29459Y-24583D01*
X29482Y-24561D01*
X29526Y-24538D01*
X29616Y-24538D01*
X29661Y-24561D01*
X29841Y-24381D02*
X29841Y-24471D01*
X30021Y-24381D02*
X30021Y-24471D01*
X30584Y-24853D02*
X30584Y-24538D01*
X30584Y-24628D02*
X30606Y-24583D01*
X30629Y-24561D01*
X30674Y-24538D01*
X30719Y-24538D01*
X30966Y-24381D02*
X31011Y-24381D01*
X31056Y-24403D01*
X31079Y-24426D01*
X31101Y-24471D01*
X31124Y-24561D01*
X31124Y-24673D01*
X31101Y-24763D01*
X31079Y-24808D01*
X31056Y-24830D01*
X31011Y-24853D01*
X30966Y-24853D01*
X30921Y-24830D01*
X30899Y-24808D01*
X30876Y-24763D01*
X30854Y-24673D01*
X30854Y-24561D01*
X30876Y-24471D01*
X30899Y-24426D01*
X30921Y-24403D01*
X30966Y-24381D01*
X25589Y-25205D02*
X25612Y-25183D01*
X25657Y-25160D01*
X25769Y-25160D01*
X25814Y-25183D01*
X25837Y-25205D01*
X25859Y-25250D01*
X25859Y-25295D01*
X25837Y-25363D01*
X25567Y-25633D01*
X25859Y-25633D01*
X26152Y-25160D02*
X26197Y-25160D01*
X26242Y-25183D01*
X26264Y-25205D01*
X26287Y-25250D01*
X26309Y-25340D01*
X26309Y-25453D01*
X26287Y-25543D01*
X26264Y-25588D01*
X26242Y-25610D01*
X26197Y-25633D01*
X26152Y-25633D01*
X26107Y-25610D01*
X26084Y-25588D01*
X26062Y-25543D01*
X26039Y-25453D01*
X26039Y-25340D01*
X26062Y-25250D01*
X26084Y-25205D01*
X26107Y-25183D01*
X26152Y-25160D01*
X26759Y-25633D02*
X26489Y-25633D01*
X26624Y-25633D02*
X26624Y-25160D01*
X26579Y-25228D01*
X26534Y-25273D01*
X26489Y-25295D01*
X27164Y-25318D02*
X27164Y-25633D01*
X27052Y-25138D02*
X26939Y-25475D01*
X27232Y-25475D01*
X27412Y-25588D02*
X27434Y-25610D01*
X27412Y-25633D01*
X27389Y-25610D01*
X27412Y-25588D01*
X27412Y-25633D01*
X27727Y-25160D02*
X27772Y-25160D01*
X27817Y-25183D01*
X27839Y-25205D01*
X27862Y-25250D01*
X27884Y-25340D01*
X27884Y-25453D01*
X27862Y-25543D01*
X27839Y-25588D01*
X27817Y-25610D01*
X27772Y-25633D01*
X27727Y-25633D01*
X27682Y-25610D01*
X27659Y-25588D01*
X27637Y-25543D01*
X27614Y-25453D01*
X27614Y-25340D01*
X27637Y-25250D01*
X27659Y-25205D01*
X27682Y-25183D01*
X27727Y-25160D01*
X28312Y-25160D02*
X28087Y-25160D01*
X28064Y-25385D01*
X28087Y-25363D01*
X28132Y-25340D01*
X28244Y-25340D01*
X28289Y-25363D01*
X28312Y-25385D01*
X28334Y-25430D01*
X28334Y-25543D01*
X28312Y-25588D01*
X28289Y-25610D01*
X28244Y-25633D01*
X28132Y-25633D01*
X28087Y-25610D01*
X28064Y-25588D01*
G54D12*
X13362Y-39928D02*
X13362Y-39665D01*
X13362Y-39534D02*
X13344Y-39553D01*
X13362Y-39571D01*
X13381Y-39553D01*
X13362Y-39534D01*
X13362Y-39571D01*
X13550Y-39665D02*
X13550Y-39928D01*
X13550Y-39703D02*
X13568Y-39684D01*
X13606Y-39665D01*
X13662Y-39665D01*
X13700Y-39684D01*
X13718Y-39721D01*
X13718Y-39928D01*
X13906Y-39665D02*
X13906Y-40059D01*
X13906Y-39684D02*
X13943Y-39665D01*
X14018Y-39665D01*
X14056Y-39684D01*
X14075Y-39703D01*
X14093Y-39740D01*
X14093Y-39853D01*
X14075Y-39890D01*
X14056Y-39909D01*
X14018Y-39928D01*
X13943Y-39928D01*
X13906Y-39909D01*
X14431Y-39665D02*
X14431Y-39928D01*
X14262Y-39665D02*
X14262Y-39871D01*
X14281Y-39909D01*
X14318Y-39928D01*
X14375Y-39928D01*
X14412Y-39909D01*
X14431Y-39890D01*
X14562Y-39665D02*
X14712Y-39665D01*
X14618Y-39534D02*
X14618Y-39871D01*
X14637Y-39909D01*
X14675Y-39928D01*
X14712Y-39928D01*
X15087Y-39665D02*
X15237Y-39665D01*
X15143Y-39928D02*
X15143Y-39590D01*
X15162Y-39553D01*
X15200Y-39534D01*
X15237Y-39534D01*
X15368Y-39928D02*
X15368Y-39665D01*
X15368Y-39740D02*
X15387Y-39703D01*
X15406Y-39684D01*
X15443Y-39665D01*
X15481Y-39665D01*
X15668Y-39928D02*
X15631Y-39909D01*
X15612Y-39890D01*
X15593Y-39853D01*
X15593Y-39740D01*
X15612Y-39703D01*
X15631Y-39684D01*
X15668Y-39665D01*
X15724Y-39665D01*
X15762Y-39684D01*
X15781Y-39703D01*
X15799Y-39740D01*
X15799Y-39853D01*
X15781Y-39890D01*
X15762Y-39909D01*
X15724Y-39928D01*
X15668Y-39928D01*
X15968Y-39928D02*
X15968Y-39665D01*
X15968Y-39703D02*
X15987Y-39684D01*
X16024Y-39665D01*
X16081Y-39665D01*
X16118Y-39684D01*
X16137Y-39721D01*
X16137Y-39928D01*
X16137Y-39721D02*
X16156Y-39684D01*
X16193Y-39665D01*
X16249Y-39665D01*
X16287Y-39684D01*
X16306Y-39721D01*
X16306Y-39928D01*
X16962Y-39928D02*
X16962Y-39534D01*
X16962Y-39909D02*
X16924Y-39928D01*
X16849Y-39928D01*
X16812Y-39909D01*
X16793Y-39890D01*
X16774Y-39853D01*
X16774Y-39740D01*
X16793Y-39703D01*
X16812Y-39684D01*
X16849Y-39665D01*
X16924Y-39665D01*
X16962Y-39684D01*
X17318Y-39928D02*
X17318Y-39534D01*
X17318Y-39909D02*
X17281Y-39928D01*
X17206Y-39928D01*
X17168Y-39909D01*
X17149Y-39890D01*
X17131Y-39853D01*
X17131Y-39740D01*
X17149Y-39703D01*
X17168Y-39684D01*
X17206Y-39665D01*
X17281Y-39665D01*
X17318Y-39684D01*
X17487Y-39909D02*
X17524Y-39928D01*
X17599Y-39928D01*
X17637Y-39909D01*
X17655Y-39871D01*
X17655Y-39853D01*
X17637Y-39815D01*
X17599Y-39796D01*
X17543Y-39796D01*
X17505Y-39778D01*
X17487Y-39740D01*
X17487Y-39721D01*
X17505Y-39684D01*
X17543Y-39665D01*
X17599Y-39665D01*
X17637Y-39684D01*
X13165Y-32574D02*
X13165Y-32424D01*
X13034Y-32518D02*
X13371Y-32518D01*
X13409Y-32499D01*
X13428Y-32462D01*
X13428Y-32424D01*
X13015Y-32012D02*
X13521Y-32349D01*
X13428Y-31881D02*
X13165Y-31881D01*
X13240Y-31881D02*
X13203Y-31862D01*
X13184Y-31843D01*
X13165Y-31806D01*
X13165Y-31768D01*
X13428Y-31337D02*
X13165Y-31337D01*
X13034Y-31337D02*
X13053Y-31356D01*
X13071Y-31337D01*
X13053Y-31318D01*
X13034Y-31337D01*
X13071Y-31337D01*
X13165Y-31150D02*
X13428Y-31150D01*
X13203Y-31150D02*
X13184Y-31131D01*
X13165Y-31093D01*
X13165Y-31037D01*
X13184Y-31000D01*
X13221Y-30981D01*
X13428Y-30981D01*
X15409Y-26952D02*
X15428Y-26990D01*
X15428Y-27065D01*
X15409Y-27102D01*
X15390Y-27121D01*
X15353Y-27140D01*
X15240Y-27140D01*
X15203Y-27121D01*
X15184Y-27102D01*
X15165Y-27065D01*
X15165Y-26990D01*
X15184Y-26952D01*
X15428Y-26727D02*
X15409Y-26765D01*
X15390Y-26784D01*
X15353Y-26802D01*
X15240Y-26802D01*
X15203Y-26784D01*
X15184Y-26765D01*
X15165Y-26727D01*
X15165Y-26671D01*
X15184Y-26634D01*
X15203Y-26615D01*
X15240Y-26596D01*
X15353Y-26596D01*
X15390Y-26615D01*
X15409Y-26634D01*
X15428Y-26671D01*
X15428Y-26727D01*
X15165Y-26259D02*
X15428Y-26259D01*
X15165Y-26428D02*
X15371Y-26428D01*
X15409Y-26409D01*
X15428Y-26371D01*
X15428Y-26315D01*
X15409Y-26278D01*
X15390Y-26259D01*
X15165Y-26071D02*
X15559Y-26071D01*
X15184Y-26071D02*
X15165Y-26034D01*
X15165Y-25959D01*
X15184Y-25921D01*
X15203Y-25903D01*
X15240Y-25884D01*
X15353Y-25884D01*
X15390Y-25903D01*
X15409Y-25921D01*
X15428Y-25959D01*
X15428Y-26034D01*
X15409Y-26071D01*
X15428Y-25659D02*
X15409Y-25696D01*
X15371Y-25715D01*
X15034Y-25715D01*
X15409Y-25359D02*
X15428Y-25396D01*
X15428Y-25471D01*
X15409Y-25509D01*
X15371Y-25528D01*
X15221Y-25528D01*
X15184Y-25509D01*
X15165Y-25471D01*
X15165Y-25396D01*
X15184Y-25359D01*
X15221Y-25340D01*
X15259Y-25340D01*
X15296Y-25528D01*
X15428Y-25171D02*
X15165Y-25171D01*
X15240Y-25171D02*
X15203Y-25153D01*
X15184Y-25134D01*
X15165Y-25096D01*
X15165Y-25059D01*
X15428Y-24571D02*
X15409Y-24609D01*
X15390Y-24628D01*
X15353Y-24646D01*
X15240Y-24646D01*
X15203Y-24628D01*
X15184Y-24609D01*
X15165Y-24571D01*
X15165Y-24515D01*
X15184Y-24478D01*
X15203Y-24459D01*
X15240Y-24440D01*
X15353Y-24440D01*
X15390Y-24459D01*
X15409Y-24478D01*
X15428Y-24515D01*
X15428Y-24571D01*
X15165Y-24103D02*
X15428Y-24103D01*
X15165Y-24272D02*
X15371Y-24272D01*
X15409Y-24253D01*
X15428Y-24215D01*
X15428Y-24159D01*
X15409Y-24122D01*
X15390Y-24103D01*
X15165Y-23972D02*
X15165Y-23822D01*
X15034Y-23915D02*
X15371Y-23915D01*
X15409Y-23897D01*
X15428Y-23859D01*
X15428Y-23822D01*
X15409Y-20256D02*
X15428Y-20293D01*
X15428Y-20368D01*
X15409Y-20406D01*
X15390Y-20424D01*
X15353Y-20443D01*
X15240Y-20443D01*
X15203Y-20424D01*
X15184Y-20406D01*
X15165Y-20368D01*
X15165Y-20293D01*
X15184Y-20256D01*
X15428Y-20031D02*
X15409Y-20068D01*
X15390Y-20087D01*
X15353Y-20106D01*
X15240Y-20106D01*
X15203Y-20087D01*
X15184Y-20068D01*
X15165Y-20031D01*
X15165Y-19974D01*
X15184Y-19937D01*
X15203Y-19918D01*
X15240Y-19899D01*
X15353Y-19899D01*
X15390Y-19918D01*
X15409Y-19937D01*
X15428Y-19974D01*
X15428Y-20031D01*
X15165Y-19562D02*
X15428Y-19562D01*
X15165Y-19731D02*
X15371Y-19731D01*
X15409Y-19712D01*
X15428Y-19674D01*
X15428Y-19618D01*
X15409Y-19581D01*
X15390Y-19562D01*
X15165Y-19374D02*
X15559Y-19374D01*
X15184Y-19374D02*
X15165Y-19337D01*
X15165Y-19262D01*
X15184Y-19224D01*
X15203Y-19206D01*
X15240Y-19187D01*
X15353Y-19187D01*
X15390Y-19206D01*
X15409Y-19224D01*
X15428Y-19262D01*
X15428Y-19337D01*
X15409Y-19374D01*
X15428Y-18962D02*
X15409Y-19000D01*
X15371Y-19018D01*
X15034Y-19018D01*
X15409Y-18662D02*
X15428Y-18700D01*
X15428Y-18775D01*
X15409Y-18812D01*
X15371Y-18831D01*
X15221Y-18831D01*
X15184Y-18812D01*
X15165Y-18775D01*
X15165Y-18700D01*
X15184Y-18662D01*
X15221Y-18643D01*
X15259Y-18643D01*
X15296Y-18831D01*
X15428Y-18475D02*
X15165Y-18475D01*
X15240Y-18475D02*
X15203Y-18456D01*
X15184Y-18437D01*
X15165Y-18400D01*
X15165Y-18362D01*
X15428Y-17931D02*
X15165Y-17931D01*
X15034Y-17931D02*
X15053Y-17950D01*
X15071Y-17931D01*
X15053Y-17912D01*
X15034Y-17931D01*
X15071Y-17931D01*
X15165Y-17743D02*
X15428Y-17743D01*
X15203Y-17743D02*
X15184Y-17725D01*
X15165Y-17687D01*
X15165Y-17631D01*
X15184Y-17593D01*
X15221Y-17575D01*
X15428Y-17575D01*
X19915Y-15215D02*
X19915Y-15065D01*
X19784Y-15159D02*
X20121Y-15159D01*
X20159Y-15140D01*
X20178Y-15103D01*
X20178Y-15065D01*
X20178Y-14878D02*
X20159Y-14915D01*
X20140Y-14934D01*
X20103Y-14953D01*
X19990Y-14953D01*
X19953Y-14934D01*
X19934Y-14915D01*
X19915Y-14878D01*
X19915Y-14821D01*
X19934Y-14784D01*
X19953Y-14765D01*
X19990Y-14746D01*
X20103Y-14746D01*
X20140Y-14765D01*
X20159Y-14784D01*
X20178Y-14821D01*
X20178Y-14878D01*
X20178Y-14278D02*
X19915Y-14278D01*
X19990Y-14278D02*
X19953Y-14259D01*
X19934Y-14240D01*
X19915Y-14203D01*
X19915Y-14165D01*
X20159Y-13865D02*
X20178Y-13903D01*
X20178Y-13978D01*
X20159Y-14015D01*
X20140Y-14034D01*
X20103Y-14053D01*
X19990Y-14053D01*
X19953Y-14034D01*
X19934Y-14015D01*
X19915Y-13978D01*
X19915Y-13903D01*
X19934Y-13865D01*
X19915Y-13734D02*
X20178Y-13640D01*
X19915Y-13546D01*
X20178Y-13396D02*
X19915Y-13396D01*
X19990Y-13396D02*
X19953Y-13378D01*
X19934Y-13359D01*
X19915Y-13321D01*
X19915Y-13284D01*
X39640Y-22678D02*
X39640Y-22415D01*
X39640Y-22490D02*
X39659Y-22453D01*
X39678Y-22434D01*
X39715Y-22415D01*
X39753Y-22415D01*
X39846Y-22678D02*
X40053Y-22415D01*
X39846Y-22415D02*
X40053Y-22678D01*
X40503Y-22678D02*
X40503Y-22415D01*
X40503Y-22284D02*
X40484Y-22303D01*
X40503Y-22321D01*
X40521Y-22303D01*
X40503Y-22284D01*
X40503Y-22321D01*
X40690Y-22415D02*
X40690Y-22678D01*
X40690Y-22453D02*
X40709Y-22434D01*
X40746Y-22415D01*
X40803Y-22415D01*
X40840Y-22434D01*
X40859Y-22471D01*
X40859Y-22678D01*
X40275Y-24428D02*
X40050Y-24428D01*
X40162Y-24428D02*
X40162Y-24034D01*
X40125Y-24090D01*
X40087Y-24128D01*
X40050Y-24146D01*
X40631Y-24034D02*
X40443Y-24034D01*
X40425Y-24221D01*
X40443Y-24203D01*
X40481Y-24184D01*
X40574Y-24184D01*
X40612Y-24203D01*
X40631Y-24221D01*
X40649Y-24259D01*
X40649Y-24353D01*
X40631Y-24390D01*
X40612Y-24409D01*
X40574Y-24428D01*
X40481Y-24428D01*
X40443Y-24409D01*
X40425Y-24390D01*
X40781Y-24165D02*
X40874Y-24428D01*
X40968Y-24165D01*
X38762Y-34165D02*
X38912Y-34165D01*
X38818Y-34034D02*
X38818Y-34371D01*
X38837Y-34409D01*
X38875Y-34428D01*
X38912Y-34428D01*
X39100Y-34428D02*
X39062Y-34409D01*
X39043Y-34390D01*
X39025Y-34353D01*
X39025Y-34240D01*
X39043Y-34203D01*
X39062Y-34184D01*
X39100Y-34165D01*
X39156Y-34165D01*
X39193Y-34184D01*
X39212Y-34203D01*
X39231Y-34240D01*
X39231Y-34353D01*
X39212Y-34390D01*
X39193Y-34409D01*
X39156Y-34428D01*
X39100Y-34428D01*
X39868Y-34428D02*
X39868Y-34034D01*
X39868Y-34409D02*
X39831Y-34428D01*
X39756Y-34428D01*
X39718Y-34409D01*
X39700Y-34390D01*
X39681Y-34353D01*
X39681Y-34240D01*
X39700Y-34203D01*
X39718Y-34184D01*
X39756Y-34165D01*
X39831Y-34165D01*
X39868Y-34184D01*
X40056Y-34428D02*
X40056Y-34165D01*
X40056Y-34240D02*
X40074Y-34203D01*
X40093Y-34184D01*
X40131Y-34165D01*
X40168Y-34165D01*
X40299Y-34428D02*
X40299Y-34165D01*
X40299Y-34034D02*
X40281Y-34053D01*
X40299Y-34071D01*
X40318Y-34053D01*
X40299Y-34034D01*
X40299Y-34071D01*
X40449Y-34165D02*
X40543Y-34428D01*
X40637Y-34165D01*
X40937Y-34409D02*
X40899Y-34428D01*
X40824Y-34428D01*
X40787Y-34409D01*
X40768Y-34371D01*
X40768Y-34221D01*
X40787Y-34184D01*
X40824Y-34165D01*
X40899Y-34165D01*
X40937Y-34184D01*
X40956Y-34221D01*
X40956Y-34259D01*
X40768Y-34296D01*
X41124Y-34428D02*
X41124Y-34165D01*
X41124Y-34240D02*
X41143Y-34203D01*
X41162Y-34184D01*
X41199Y-34165D01*
X41237Y-34165D01*
X41178Y-52931D02*
X40915Y-52931D01*
X40990Y-52931D02*
X40953Y-52912D01*
X40934Y-52893D01*
X40915Y-52856D01*
X40915Y-52818D01*
X41159Y-52537D02*
X41178Y-52574D01*
X41178Y-52649D01*
X41159Y-52687D01*
X41121Y-52706D01*
X40971Y-52706D01*
X40934Y-52687D01*
X40915Y-52649D01*
X40915Y-52574D01*
X40934Y-52537D01*
X40971Y-52518D01*
X41009Y-52518D01*
X41046Y-52706D01*
X40915Y-52387D02*
X41178Y-52293D01*
X40915Y-52199D01*
X40915Y-51806D02*
X40915Y-51656D01*
X41178Y-51750D02*
X40840Y-51750D01*
X40803Y-51731D01*
X40784Y-51693D01*
X40784Y-51656D01*
X41178Y-51356D02*
X40971Y-51356D01*
X40934Y-51375D01*
X40915Y-51412D01*
X40915Y-51487D01*
X40934Y-51525D01*
X41159Y-51356D02*
X41178Y-51393D01*
X41178Y-51487D01*
X41159Y-51525D01*
X41121Y-51543D01*
X41084Y-51543D01*
X41046Y-51525D01*
X41028Y-51487D01*
X41028Y-51393D01*
X41009Y-51356D01*
X40915Y-51000D02*
X41178Y-51000D01*
X40915Y-51168D02*
X41121Y-51168D01*
X41159Y-51150D01*
X41178Y-51112D01*
X41178Y-51056D01*
X41159Y-51018D01*
X41140Y-51000D01*
X41178Y-50756D02*
X41159Y-50793D01*
X41121Y-50812D01*
X40784Y-50812D01*
X40915Y-50662D02*
X40915Y-50512D01*
X40784Y-50606D02*
X41121Y-50606D01*
X41159Y-50587D01*
X41178Y-50550D01*
X41178Y-50512D01*
X22915Y-57428D02*
X22915Y-57034D01*
X23084Y-57428D02*
X23084Y-57221D01*
X23065Y-57184D01*
X23028Y-57165D01*
X22971Y-57165D01*
X22934Y-57184D01*
X22915Y-57203D01*
X23234Y-57165D02*
X23328Y-57428D01*
X23421Y-57165D01*
X24040Y-57428D02*
X24040Y-57221D01*
X24021Y-57184D01*
X23984Y-57165D01*
X23909Y-57165D01*
X23871Y-57184D01*
X24040Y-57409D02*
X24003Y-57428D01*
X23909Y-57428D01*
X23871Y-57409D01*
X23853Y-57371D01*
X23853Y-57334D01*
X23871Y-57296D01*
X23909Y-57278D01*
X24003Y-57278D01*
X24040Y-57259D01*
X24396Y-57428D02*
X24396Y-57034D01*
X24396Y-57409D02*
X24359Y-57428D01*
X24284Y-57428D01*
X24246Y-57409D01*
X24228Y-57390D01*
X24209Y-57353D01*
X24209Y-57240D01*
X24228Y-57203D01*
X24246Y-57184D01*
X24284Y-57165D01*
X24359Y-57165D01*
X24396Y-57184D01*
X24584Y-57165D02*
X24584Y-57503D01*
X24565Y-57540D01*
X24528Y-57559D01*
X24509Y-57559D01*
X24584Y-57034D02*
X24565Y-57053D01*
X24584Y-57071D01*
X24603Y-57053D01*
X24584Y-57034D01*
X24584Y-57071D01*
X30050Y-58165D02*
X30050Y-58428D01*
X29956Y-58015D02*
X29862Y-58296D01*
X30106Y-58296D01*
X30331Y-58034D02*
X30368Y-58034D01*
X30406Y-58053D01*
X30425Y-58071D01*
X30443Y-58109D01*
X30462Y-58184D01*
X30462Y-58278D01*
X30443Y-58353D01*
X30425Y-58390D01*
X30406Y-58409D01*
X30368Y-58428D01*
X30331Y-58428D01*
X30293Y-58409D01*
X30275Y-58390D01*
X30256Y-58353D01*
X30237Y-58278D01*
X30237Y-58184D01*
X30256Y-58109D01*
X30275Y-58071D01*
X30293Y-58053D01*
X30331Y-58034D01*
X30706Y-58034D02*
X30743Y-58034D01*
X30781Y-58053D01*
X30799Y-58071D01*
X30818Y-58109D01*
X30837Y-58184D01*
X30837Y-58278D01*
X30818Y-58353D01*
X30799Y-58390D01*
X30781Y-58409D01*
X30743Y-58428D01*
X30706Y-58428D01*
X30668Y-58409D01*
X30649Y-58390D01*
X30631Y-58353D01*
X30612Y-58278D01*
X30612Y-58184D01*
X30631Y-58109D01*
X30649Y-58071D01*
X30668Y-58053D01*
X30706Y-58034D01*
X30968Y-58165D02*
X31062Y-58428D01*
X31156Y-58165D01*
X33228Y-59165D02*
X33228Y-59484D01*
X33209Y-59521D01*
X33190Y-59540D01*
X33153Y-59559D01*
X33096Y-59559D01*
X33059Y-59540D01*
X33228Y-59409D02*
X33190Y-59428D01*
X33115Y-59428D01*
X33078Y-59409D01*
X33059Y-59390D01*
X33040Y-59353D01*
X33040Y-59240D01*
X33059Y-59203D01*
X33078Y-59184D01*
X33115Y-59165D01*
X33190Y-59165D01*
X33228Y-59184D01*
X33415Y-59165D02*
X33415Y-59428D01*
X33415Y-59203D02*
X33434Y-59184D01*
X33471Y-59165D01*
X33528Y-59165D01*
X33565Y-59184D01*
X33584Y-59221D01*
X33584Y-59428D01*
X33940Y-59428D02*
X33940Y-59034D01*
X33940Y-59409D02*
X33903Y-59428D01*
X33828Y-59428D01*
X33790Y-59409D01*
X33771Y-59390D01*
X33753Y-59353D01*
X33753Y-59240D01*
X33771Y-59203D01*
X33790Y-59184D01*
X33828Y-59165D01*
X33903Y-59165D01*
X33940Y-59184D01*
X27478Y-59165D02*
X27478Y-59484D01*
X27459Y-59521D01*
X27440Y-59540D01*
X27403Y-59559D01*
X27346Y-59559D01*
X27309Y-59540D01*
X27478Y-59409D02*
X27440Y-59428D01*
X27365Y-59428D01*
X27328Y-59409D01*
X27309Y-59390D01*
X27290Y-59353D01*
X27290Y-59240D01*
X27309Y-59203D01*
X27328Y-59184D01*
X27365Y-59165D01*
X27440Y-59165D01*
X27478Y-59184D01*
X27665Y-59165D02*
X27665Y-59428D01*
X27665Y-59203D02*
X27684Y-59184D01*
X27721Y-59165D01*
X27778Y-59165D01*
X27815Y-59184D01*
X27834Y-59221D01*
X27834Y-59428D01*
X28190Y-59428D02*
X28190Y-59034D01*
X28190Y-59409D02*
X28153Y-59428D01*
X28078Y-59428D01*
X28040Y-59409D01*
X28021Y-59390D01*
X28003Y-59353D01*
X28003Y-59240D01*
X28021Y-59203D01*
X28040Y-59184D01*
X28078Y-59165D01*
X28153Y-59165D01*
X28190Y-59184D01*
X30100Y-19300D02*
G75*
G03X30100Y-19300I-50J0D01*
G74*
G01*
X23020Y-19600D02*
G75*
G03X23020Y-19600I-70J0D01*
G74*
G01*
X21820Y-34250D02*
G75*
G03X21820Y-34250I-70J0D01*
G74*
G01*
X30450Y-37750D02*
G75*
G03X30450Y-37750I-50J0D01*
G74*
G01*
X33500Y-36250D02*
G75*
G03X33500Y-36250I-50J0D01*
G74*
G01*
X31750Y-43700D02*
G75*
G03X31750Y-43700I-50J0D01*
G74*
G01*
X20261Y-29950D02*
G75*
G03X20261Y-29950I-111J0D01*
G74*
G01*
X15500Y-52750D02*
X15500Y-53750D01*
X15500Y-43750D02*
X15500Y-44750D01*
G54D11*
X31143Y-56704D02*
X31284Y-57294D01*
X31397Y-56872D01*
X31509Y-57294D01*
X31650Y-56704D01*
X31847Y-57125D02*
X32128Y-57125D01*
X31790Y-57294D02*
X31987Y-56704D01*
X32184Y-57294D01*
X32718Y-57294D02*
X32521Y-57013D01*
X32381Y-57294D02*
X32381Y-56704D01*
X32606Y-56704D01*
X32662Y-56732D01*
X32690Y-56760D01*
X32718Y-56816D01*
X32718Y-56901D01*
X32690Y-56957D01*
X32662Y-56985D01*
X32606Y-57013D01*
X32381Y-57013D01*
X32971Y-57294D02*
X32971Y-56704D01*
X33309Y-57294D01*
X33309Y-56704D01*
X33590Y-57294D02*
X33590Y-56704D01*
X33871Y-57294D02*
X33871Y-56704D01*
X34209Y-57294D01*
X34209Y-56704D01*
X34799Y-56732D02*
X34743Y-56704D01*
X34659Y-56704D01*
X34574Y-56732D01*
X34518Y-56788D01*
X34490Y-56844D01*
X34462Y-56957D01*
X34462Y-57041D01*
X34490Y-57154D01*
X34518Y-57210D01*
X34574Y-57266D01*
X34659Y-57294D01*
X34715Y-57294D01*
X34799Y-57266D01*
X34827Y-57238D01*
X34827Y-57041D01*
X34715Y-57041D01*
X32296Y-57845D02*
X32296Y-58239D01*
X32156Y-57620D02*
X32015Y-58042D01*
X32381Y-58042D01*
X32718Y-57649D02*
X32775Y-57649D01*
X32831Y-57677D01*
X32859Y-57705D01*
X32887Y-57761D01*
X32915Y-57874D01*
X32915Y-58014D01*
X32887Y-58127D01*
X32859Y-58183D01*
X32831Y-58211D01*
X32775Y-58239D01*
X32718Y-58239D01*
X32662Y-58211D01*
X32634Y-58183D01*
X32606Y-58127D01*
X32578Y-58014D01*
X32578Y-57874D01*
X32606Y-57761D01*
X32634Y-57705D01*
X32662Y-57677D01*
X32718Y-57649D01*
X33281Y-57649D02*
X33337Y-57649D01*
X33393Y-57677D01*
X33421Y-57705D01*
X33449Y-57761D01*
X33478Y-57874D01*
X33478Y-58014D01*
X33449Y-58127D01*
X33421Y-58183D01*
X33393Y-58211D01*
X33337Y-58239D01*
X33281Y-58239D01*
X33224Y-58211D01*
X33196Y-58183D01*
X33168Y-58127D01*
X33140Y-58014D01*
X33140Y-57874D01*
X33168Y-57761D01*
X33196Y-57705D01*
X33224Y-57677D01*
X33281Y-57649D01*
X33646Y-57649D02*
X33843Y-58239D01*
X34040Y-57649D01*
G54D12*
X17000Y-58000D02*
X17000Y-57250D01*
X19000Y-60000D02*
X17000Y-58000D01*
X33000Y-60000D02*
X19000Y-60000D01*
X35500Y-57500D02*
X33000Y-60000D01*
X35500Y-51500D02*
X35500Y-57500D01*
X34500Y-50500D02*
X35500Y-51500D01*
X34000Y-50000D02*
X34500Y-50500D01*
X32750Y-50000D02*
X34000Y-50000D01*
X32500Y-49750D02*
X32750Y-50000D01*
X32500Y-47000D02*
X32500Y-49750D01*
X31750Y-46250D02*
X32500Y-47000D01*
X30750Y-46250D02*
X31750Y-46250D01*
X30000Y-45500D02*
X30750Y-46250D01*
X30000Y-41750D02*
X30000Y-45500D01*
X28750Y-40500D02*
X30000Y-41750D01*
X16000Y-40500D02*
X28750Y-40500D01*
X15250Y-41250D02*
X16000Y-40500D01*
X15250Y-55500D02*
X15250Y-41250D01*
X17000Y-57250D02*
X15250Y-55500D01*
G54D13*
X23150Y-37300D02*
G75*
G03X23150Y-37300I-50J0D01*
G74*
G01*
X23550Y-37300D02*
X23150Y-37300D01*
X23150Y-37300D02*
X23150Y-36700D01*
X23150Y-36700D02*
X23550Y-36700D01*
X23950Y-36700D02*
X24350Y-36700D01*
X24350Y-36700D02*
X24350Y-37300D01*
X24350Y-37300D02*
X23950Y-37300D01*
G54D14*
X35950Y-27000D02*
X35950Y-26900D01*
X35950Y-26900D02*
X35050Y-26900D01*
X35050Y-26900D02*
X35050Y-27000D01*
X35950Y-27000D02*
X35050Y-27000D01*
X35050Y-27000D02*
X35050Y-27650D01*
X35950Y-28350D02*
X35950Y-29000D01*
X35950Y-29000D02*
X35050Y-29000D01*
X35050Y-29000D02*
X35050Y-28350D01*
X35950Y-27650D02*
X35950Y-27000D01*
G54D13*
X33100Y-27900D02*
G75*
G03X33100Y-27900I-50J0D01*
G74*
G01*
X33050Y-27450D02*
X33050Y-27850D01*
X33050Y-27850D02*
X32450Y-27850D01*
X32450Y-27850D02*
X32450Y-27450D01*
X32450Y-27050D02*
X32450Y-26650D01*
X32450Y-26650D02*
X33050Y-26650D01*
X33050Y-26650D02*
X33050Y-27050D01*
G54D14*
X33300Y-28000D02*
X33300Y-28100D01*
X33300Y-28100D02*
X34200Y-28100D01*
X34200Y-28100D02*
X34200Y-28000D01*
X33300Y-28000D02*
X34200Y-28000D01*
X34200Y-28000D02*
X34200Y-27350D01*
X33300Y-26650D02*
X33300Y-26000D01*
X33300Y-26000D02*
X34200Y-26000D01*
X34200Y-26000D02*
X34200Y-26650D01*
X33300Y-27350D02*
X33300Y-28000D01*
G54D13*
X36750Y-27100D02*
G75*
G03X36750Y-27100I-50J0D01*
G74*
G01*
X36700Y-27550D02*
X36700Y-27150D01*
X36700Y-27150D02*
X37300Y-27150D01*
X37300Y-27150D02*
X37300Y-27550D01*
X37300Y-27950D02*
X37300Y-28350D01*
X37300Y-28350D02*
X36700Y-28350D01*
X36700Y-28350D02*
X36700Y-27950D01*
X27650Y-37300D02*
G75*
G03X27650Y-37300I-50J0D01*
G74*
G01*
X28050Y-37300D02*
X27650Y-37300D01*
X27650Y-37300D02*
X27650Y-36700D01*
X27650Y-36700D02*
X28050Y-36700D01*
X28450Y-36700D02*
X28850Y-36700D01*
X28850Y-36700D02*
X28850Y-37300D01*
X28850Y-37300D02*
X28450Y-37300D01*
G54D14*
X29700Y-27750D02*
X29700Y-27650D01*
X29700Y-27650D02*
X28800Y-27650D01*
X28800Y-27650D02*
X28800Y-27750D01*
X29700Y-27750D02*
X28800Y-27750D01*
X28800Y-27750D02*
X28800Y-28400D01*
X29700Y-29100D02*
X29700Y-29750D01*
X29700Y-29750D02*
X28800Y-29750D01*
X28800Y-29750D02*
X28800Y-29100D01*
X29700Y-28400D02*
X29700Y-27750D01*
X26750Y-32550D02*
X26650Y-32550D01*
X26650Y-32550D02*
X26650Y-33450D01*
X26650Y-33450D02*
X26750Y-33450D01*
X26750Y-32550D02*
X26750Y-33450D01*
X26750Y-33450D02*
X27400Y-33450D01*
X28100Y-32550D02*
X28750Y-32550D01*
X28750Y-32550D02*
X28750Y-33450D01*
X28750Y-33450D02*
X28100Y-33450D01*
X27400Y-32550D02*
X26750Y-32550D01*
G54D13*
X23100Y-19400D02*
G75*
G03X23100Y-19400I-50J0D01*
G74*
G01*
X23050Y-18950D02*
X23050Y-19350D01*
X23050Y-19350D02*
X22450Y-19350D01*
X22450Y-19350D02*
X22450Y-18950D01*
X22450Y-18550D02*
X22450Y-18150D01*
X22450Y-18150D02*
X23050Y-18150D01*
X23050Y-18150D02*
X23050Y-18550D01*
X23100Y-22400D02*
G75*
G03X23100Y-22400I-50J0D01*
G74*
G01*
X23050Y-21950D02*
X23050Y-22350D01*
X23050Y-22350D02*
X22450Y-22350D01*
X22450Y-22350D02*
X22450Y-21950D01*
X22450Y-21550D02*
X22450Y-21150D01*
X22450Y-21150D02*
X23050Y-21150D01*
X23050Y-21150D02*
X23050Y-21550D01*
X28000Y-27600D02*
G75*
G03X28000Y-27600I-50J0D01*
G74*
G01*
X27950Y-28050D02*
X27950Y-27650D01*
X27950Y-27650D02*
X28550Y-27650D01*
X28550Y-27650D02*
X28550Y-28050D01*
X28550Y-28450D02*
X28550Y-28850D01*
X28550Y-28850D02*
X27950Y-28850D01*
X27950Y-28850D02*
X27950Y-28450D01*
X26900Y-34550D02*
G75*
G03X26900Y-34550I-50J0D01*
G74*
G01*
X27300Y-34550D02*
X26900Y-34550D01*
X26900Y-34550D02*
X26900Y-33950D01*
X26900Y-33950D02*
X27300Y-33950D01*
X27700Y-33950D02*
X28100Y-33950D01*
X28100Y-33950D02*
X28100Y-34550D01*
X28100Y-34550D02*
X27700Y-34550D01*
X26900Y-35550D02*
G75*
G03X26900Y-35550I-50J0D01*
G74*
G01*
X27300Y-35550D02*
X26900Y-35550D01*
X26900Y-35550D02*
X26900Y-34950D01*
X26900Y-34950D02*
X27300Y-34950D01*
X27700Y-34950D02*
X28100Y-34950D01*
X28100Y-34950D02*
X28100Y-35550D01*
X28100Y-35550D02*
X27700Y-35550D01*
X15450Y-46450D02*
G75*
G03X15450Y-46450I-50J0D01*
G74*
G01*
X14950Y-46450D02*
X15350Y-46450D01*
X15350Y-46450D02*
X15350Y-47050D01*
X15350Y-47050D02*
X14950Y-47050D01*
X14550Y-47050D02*
X14150Y-47050D01*
X14150Y-47050D02*
X14150Y-46450D01*
X14150Y-46450D02*
X14550Y-46450D01*
X31400Y-36800D02*
G75*
G03X31400Y-36800I-50J0D01*
G74*
G01*
X31800Y-36800D02*
X31400Y-36800D01*
X31400Y-36800D02*
X31400Y-36200D01*
X31400Y-36200D02*
X31800Y-36200D01*
X32200Y-36200D02*
X32600Y-36200D01*
X32600Y-36200D02*
X32600Y-36800D01*
X32600Y-36800D02*
X32200Y-36800D01*
G54D14*
X15500Y-45950D02*
X15600Y-45950D01*
X15600Y-45950D02*
X15600Y-45050D01*
X15600Y-45050D02*
X15500Y-45050D01*
X15500Y-45950D02*
X15500Y-45050D01*
X15500Y-45050D02*
X14850Y-45050D01*
X14150Y-45950D02*
X13500Y-45950D01*
X13500Y-45950D02*
X13500Y-45050D01*
X13500Y-45050D02*
X14150Y-45050D01*
X14850Y-45950D02*
X15500Y-45950D01*
G54D13*
X24650Y-20550D02*
G75*
G03X24650Y-20550I-50J0D01*
G74*
G01*
X25050Y-20550D02*
X24650Y-20550D01*
X24650Y-20550D02*
X24650Y-19950D01*
X24650Y-19950D02*
X25050Y-19950D01*
X25450Y-19950D02*
X25850Y-19950D01*
X25850Y-19950D02*
X25850Y-20550D01*
X25850Y-20550D02*
X25450Y-20550D01*
X26850Y-21400D02*
G75*
G03X26850Y-21400I-50J0D01*
G74*
G01*
X26800Y-20950D02*
X26800Y-21350D01*
X26800Y-21350D02*
X26200Y-21350D01*
X26200Y-21350D02*
X26200Y-20950D01*
X26200Y-20550D02*
X26200Y-20150D01*
X26200Y-20150D02*
X26800Y-20150D01*
X26800Y-20150D02*
X26800Y-20550D01*
X28750Y-47850D02*
G75*
G03X28750Y-47850I-50J0D01*
G74*
G01*
X28700Y-48300D02*
X28700Y-47900D01*
X28700Y-47900D02*
X29300Y-47900D01*
X29300Y-47900D02*
X29300Y-48300D01*
X29300Y-48700D02*
X29300Y-49100D01*
X29300Y-49100D02*
X28700Y-49100D01*
X28700Y-49100D02*
X28700Y-48700D01*
X27750Y-56850D02*
G75*
G03X27750Y-56850I-50J0D01*
G74*
G01*
X27700Y-57300D02*
X27700Y-56900D01*
X27700Y-56900D02*
X28300Y-56900D01*
X28300Y-56900D02*
X28300Y-57300D01*
X28300Y-57700D02*
X28300Y-58100D01*
X28300Y-58100D02*
X27700Y-58100D01*
X27700Y-58100D02*
X27700Y-57700D01*
X35150Y-37300D02*
G75*
G03X35150Y-37300I-50J0D01*
G74*
G01*
X35550Y-37300D02*
X35150Y-37300D01*
X35150Y-37300D02*
X35150Y-36700D01*
X35150Y-36700D02*
X35550Y-36700D01*
X35950Y-36700D02*
X36350Y-36700D01*
X36350Y-36700D02*
X36350Y-37300D01*
X36350Y-37300D02*
X35950Y-37300D01*
X30850Y-22150D02*
G75*
G03X30850Y-22150I-50J0D01*
G74*
G01*
X30800Y-21700D02*
X30800Y-22100D01*
X30800Y-22100D02*
X30200Y-22100D01*
X30200Y-22100D02*
X30200Y-21700D01*
X30200Y-21300D02*
X30200Y-20900D01*
X30200Y-20900D02*
X30800Y-20900D01*
X30800Y-20900D02*
X30800Y-21300D01*
X31400Y-17300D02*
G75*
G03X31400Y-17300I-50J0D01*
G74*
G01*
X31800Y-17300D02*
X31400Y-17300D01*
X31400Y-17300D02*
X31400Y-16700D01*
X31400Y-16700D02*
X31800Y-16700D01*
X32200Y-16700D02*
X32600Y-16700D01*
X32600Y-16700D02*
X32600Y-17300D01*
X32600Y-17300D02*
X32200Y-17300D01*
X31400Y-18300D02*
G75*
G03X31400Y-18300I-50J0D01*
G74*
G01*
X31800Y-18300D02*
X31400Y-18300D01*
X31400Y-18300D02*
X31400Y-17700D01*
X31400Y-17700D02*
X31800Y-17700D01*
X32200Y-17700D02*
X32600Y-17700D01*
X32600Y-17700D02*
X32600Y-18300D01*
X32600Y-18300D02*
X32200Y-18300D01*
X34150Y-20050D02*
G75*
G03X34150Y-20050I-50J0D01*
G74*
G01*
X34550Y-20050D02*
X34150Y-20050D01*
X34150Y-20050D02*
X34150Y-19450D01*
X34150Y-19450D02*
X34550Y-19450D01*
X34950Y-19450D02*
X35350Y-19450D01*
X35350Y-19450D02*
X35350Y-20050D01*
X35350Y-20050D02*
X34950Y-20050D01*
X31025Y-42225D02*
G75*
G03X31025Y-42225I-50J0D01*
G74*
G01*
X30975Y-42675D02*
X30975Y-42275D01*
X30975Y-42275D02*
X31575Y-42275D01*
X31575Y-42275D02*
X31575Y-42675D01*
X31575Y-43075D02*
X31575Y-43475D01*
X31575Y-43475D02*
X30975Y-43475D01*
X30975Y-43475D02*
X30975Y-43075D01*
X32225Y-40525D02*
G75*
G03X32225Y-40525I-50J0D01*
G74*
G01*
X32175Y-40075D02*
X32175Y-40475D01*
X32175Y-40475D02*
X31575Y-40475D01*
X31575Y-40475D02*
X31575Y-40075D01*
X31575Y-39675D02*
X31575Y-39275D01*
X31575Y-39275D02*
X32175Y-39275D01*
X32175Y-39275D02*
X32175Y-39675D01*
X17500Y-32350D02*
G75*
G03X17500Y-32350I-50J0D01*
G74*
G01*
X17450Y-32800D02*
X17450Y-32400D01*
X17450Y-32400D02*
X18050Y-32400D01*
X18050Y-32400D02*
X18050Y-32800D01*
X18050Y-33200D02*
X18050Y-33600D01*
X18050Y-33600D02*
X17450Y-33600D01*
X17450Y-33600D02*
X17450Y-33200D01*
X18750Y-29850D02*
G75*
G03X18750Y-29850I-50J0D01*
G74*
G01*
X18700Y-30300D02*
X18700Y-29900D01*
X18700Y-29900D02*
X19300Y-29900D01*
X19300Y-29900D02*
X19300Y-30300D01*
X19300Y-30700D02*
X19300Y-31100D01*
X19300Y-31100D02*
X18700Y-31100D01*
X18700Y-31100D02*
X18700Y-30700D01*
X22000Y-34100D02*
G75*
G03X22000Y-34100I-50J0D01*
G74*
G01*
X21950Y-34550D02*
X21950Y-34150D01*
X21950Y-34150D02*
X22550Y-34150D01*
X22550Y-34150D02*
X22550Y-34550D01*
X22550Y-34950D02*
X22550Y-35350D01*
X22550Y-35350D02*
X21950Y-35350D01*
X21950Y-35350D02*
X21950Y-34950D01*
X20900Y-29800D02*
G75*
G03X20900Y-29800I-50J0D01*
G74*
G01*
X21300Y-29800D02*
X20900Y-29800D01*
X20900Y-29800D02*
X20900Y-29200D01*
X20900Y-29200D02*
X21300Y-29200D01*
X21700Y-29200D02*
X22100Y-29200D01*
X22100Y-29200D02*
X22100Y-29800D01*
X22100Y-29800D02*
X21700Y-29800D01*
X24350Y-31150D02*
G75*
G03X24350Y-31150I-50J0D01*
G74*
G01*
X24300Y-30700D02*
X24300Y-31100D01*
X24300Y-31100D02*
X23700Y-31100D01*
X23700Y-31100D02*
X23700Y-30700D01*
X23700Y-30300D02*
X23700Y-29900D01*
X23700Y-29900D02*
X24300Y-29900D01*
X24300Y-29900D02*
X24300Y-30300D01*
G54D15*
X14696Y-27868D02*
X14696Y-27996D01*
X14696Y-27996D02*
X14893Y-27996D01*
X14893Y-27868D02*
X14893Y-27996D01*
X14696Y-27868D02*
X14893Y-27868D01*
X14696Y-27623D02*
X14696Y-27682D01*
X14696Y-27682D02*
X14795Y-27682D01*
X14795Y-27623D02*
X14795Y-27682D01*
X14696Y-27623D02*
X14795Y-27623D01*
X14696Y-27818D02*
X14696Y-27877D01*
X14696Y-27877D02*
X14795Y-27877D01*
X14795Y-27818D02*
X14795Y-27877D01*
X14696Y-27818D02*
X14795Y-27818D01*
X14696Y-27672D02*
X14696Y-27828D01*
X14696Y-27828D02*
X14765Y-27828D01*
X14765Y-27672D02*
X14765Y-27828D01*
X14696Y-27672D02*
X14765Y-27672D01*
X14107Y-27868D02*
X14107Y-27996D01*
X14107Y-27996D02*
X14304Y-27996D01*
X14304Y-27868D02*
X14304Y-27996D01*
X14107Y-27868D02*
X14304Y-27868D01*
X14107Y-27504D02*
X14107Y-27632D01*
X14107Y-27632D02*
X14304Y-27632D01*
X14304Y-27504D02*
X14304Y-27632D01*
X14107Y-27504D02*
X14304Y-27504D01*
X14205Y-27818D02*
X14205Y-27877D01*
X14205Y-27877D02*
X14304Y-27877D01*
X14304Y-27818D02*
X14304Y-27877D01*
X14205Y-27818D02*
X14304Y-27818D01*
X14205Y-27623D02*
X14205Y-27682D01*
X14205Y-27682D02*
X14304Y-27682D01*
X14304Y-27623D02*
X14304Y-27682D01*
X14205Y-27623D02*
X14304Y-27623D01*
X14235Y-27672D02*
X14235Y-27828D01*
X14235Y-27828D02*
X14304Y-27828D01*
X14304Y-27672D02*
X14304Y-27828D01*
X14235Y-27672D02*
X14304Y-27672D01*
X14500Y-27711D02*
X14500Y-27789D01*
X14500Y-27789D02*
X14578Y-27789D01*
X14578Y-27711D02*
X14578Y-27789D01*
X14500Y-27711D02*
X14578Y-27711D01*
X14696Y-27514D02*
X14696Y-27632D01*
X14696Y-27632D02*
X14814Y-27632D01*
X14814Y-27514D02*
X14814Y-27632D01*
X14696Y-27514D02*
X14814Y-27514D01*
X14864Y-27504D02*
X14864Y-27593D01*
X14864Y-27593D02*
X14893Y-27593D01*
X14893Y-27504D02*
X14893Y-27593D01*
X14864Y-27504D02*
X14893Y-27504D01*
G54D16*
X14706Y-27976D02*
X14294Y-27976D01*
X14304Y-27524D02*
X14864Y-27524D01*
G54D17*
X14862Y-27573D02*
G75*
G03X14862Y-27573I-28J0D01*
G74*
G01*
G54D16*
X14893Y-27613D02*
G75*
G03X14893Y-27887I0J-137D01*
G74*
G01*
X14107Y-27887D02*
G75*
G03X14107Y-27613I0J137D01*
G74*
G01*
G54D15*
X14132Y-22946D02*
X14004Y-22946D01*
X14004Y-22946D02*
X14004Y-23143D01*
X14132Y-23143D02*
X14004Y-23143D01*
X14132Y-22946D02*
X14132Y-23143D01*
X14377Y-22946D02*
X14318Y-22946D01*
X14318Y-22946D02*
X14318Y-23045D01*
X14377Y-23045D02*
X14318Y-23045D01*
X14377Y-22946D02*
X14377Y-23045D01*
X14182Y-22946D02*
X14123Y-22946D01*
X14123Y-22946D02*
X14123Y-23045D01*
X14182Y-23045D02*
X14123Y-23045D01*
X14182Y-22946D02*
X14182Y-23045D01*
X14328Y-22946D02*
X14172Y-22946D01*
X14172Y-22946D02*
X14172Y-23015D01*
X14328Y-23015D02*
X14172Y-23015D01*
X14328Y-22946D02*
X14328Y-23015D01*
X14132Y-22357D02*
X14004Y-22357D01*
X14004Y-22357D02*
X14004Y-22554D01*
X14132Y-22554D02*
X14004Y-22554D01*
X14132Y-22357D02*
X14132Y-22554D01*
X14496Y-22357D02*
X14368Y-22357D01*
X14368Y-22357D02*
X14368Y-22554D01*
X14496Y-22554D02*
X14368Y-22554D01*
X14496Y-22357D02*
X14496Y-22554D01*
X14182Y-22455D02*
X14123Y-22455D01*
X14123Y-22455D02*
X14123Y-22554D01*
X14182Y-22554D02*
X14123Y-22554D01*
X14182Y-22455D02*
X14182Y-22554D01*
X14377Y-22455D02*
X14318Y-22455D01*
X14318Y-22455D02*
X14318Y-22554D01*
X14377Y-22554D02*
X14318Y-22554D01*
X14377Y-22455D02*
X14377Y-22554D01*
X14328Y-22485D02*
X14172Y-22485D01*
X14172Y-22485D02*
X14172Y-22554D01*
X14328Y-22554D02*
X14172Y-22554D01*
X14328Y-22485D02*
X14328Y-22554D01*
X14289Y-22750D02*
X14211Y-22750D01*
X14211Y-22750D02*
X14211Y-22828D01*
X14289Y-22828D02*
X14211Y-22828D01*
X14289Y-22750D02*
X14289Y-22828D01*
X14486Y-22946D02*
X14368Y-22946D01*
X14368Y-22946D02*
X14368Y-23064D01*
X14486Y-23064D02*
X14368Y-23064D01*
X14486Y-22946D02*
X14486Y-23064D01*
X14496Y-23114D02*
X14407Y-23114D01*
X14407Y-23114D02*
X14407Y-23143D01*
X14496Y-23143D02*
X14407Y-23143D01*
X14496Y-23114D02*
X14496Y-23143D01*
G54D16*
X14024Y-22956D02*
X14024Y-22544D01*
X14476Y-22554D02*
X14476Y-23114D01*
G54D17*
X14455Y-23084D02*
G75*
G03X14455Y-23084I-28J0D01*
G74*
G01*
G54D16*
X14387Y-23143D02*
G75*
G03X14113Y-23143I-137J0D01*
G74*
G01*
X14113Y-22357D02*
G75*
G03X14387Y-22357I137J0D01*
G74*
G01*
G54D15*
X35179Y-41257D02*
X35179Y-41129D01*
X35179Y-41129D02*
X34982Y-41129D01*
X34982Y-41257D02*
X34982Y-41129D01*
X35179Y-41257D02*
X34982Y-41257D01*
X35179Y-41502D02*
X35179Y-41443D01*
X35179Y-41443D02*
X35080Y-41443D01*
X35080Y-41502D02*
X35080Y-41443D01*
X35179Y-41502D02*
X35080Y-41502D01*
X35179Y-41307D02*
X35179Y-41248D01*
X35179Y-41248D02*
X35080Y-41248D01*
X35080Y-41307D02*
X35080Y-41248D01*
X35179Y-41307D02*
X35080Y-41307D01*
X35179Y-41453D02*
X35179Y-41297D01*
X35179Y-41297D02*
X35110Y-41297D01*
X35110Y-41453D02*
X35110Y-41297D01*
X35179Y-41453D02*
X35110Y-41453D01*
X35768Y-41257D02*
X35768Y-41129D01*
X35768Y-41129D02*
X35571Y-41129D01*
X35571Y-41257D02*
X35571Y-41129D01*
X35768Y-41257D02*
X35571Y-41257D01*
X35768Y-41621D02*
X35768Y-41493D01*
X35768Y-41493D02*
X35571Y-41493D01*
X35571Y-41621D02*
X35571Y-41493D01*
X35768Y-41621D02*
X35571Y-41621D01*
X35670Y-41307D02*
X35670Y-41248D01*
X35670Y-41248D02*
X35571Y-41248D01*
X35571Y-41307D02*
X35571Y-41248D01*
X35670Y-41307D02*
X35571Y-41307D01*
X35670Y-41502D02*
X35670Y-41443D01*
X35670Y-41443D02*
X35571Y-41443D01*
X35571Y-41502D02*
X35571Y-41443D01*
X35670Y-41502D02*
X35571Y-41502D01*
X35640Y-41453D02*
X35640Y-41297D01*
X35640Y-41297D02*
X35571Y-41297D01*
X35571Y-41453D02*
X35571Y-41297D01*
X35640Y-41453D02*
X35571Y-41453D01*
X35375Y-41414D02*
X35375Y-41336D01*
X35375Y-41336D02*
X35297Y-41336D01*
X35297Y-41414D02*
X35297Y-41336D01*
X35375Y-41414D02*
X35297Y-41414D01*
X35179Y-41611D02*
X35179Y-41493D01*
X35179Y-41493D02*
X35061Y-41493D01*
X35061Y-41611D02*
X35061Y-41493D01*
X35179Y-41611D02*
X35061Y-41611D01*
X35011Y-41621D02*
X35011Y-41532D01*
X35011Y-41532D02*
X34982Y-41532D01*
X34982Y-41621D02*
X34982Y-41532D01*
X35011Y-41621D02*
X34982Y-41621D01*
G54D16*
X35169Y-41149D02*
X35581Y-41149D01*
X35571Y-41601D02*
X35011Y-41601D01*
G54D17*
X35069Y-41552D02*
G75*
G03X35069Y-41552I-28J0D01*
G74*
G01*
G54D16*
X34982Y-41512D02*
G75*
G03X34982Y-41238I0J137D01*
G74*
G01*
X35768Y-41238D02*
G75*
G03X35768Y-41512I0J-137D01*
G74*
G01*
G54D15*
X35179Y-40257D02*
X35179Y-40129D01*
X35179Y-40129D02*
X34982Y-40129D01*
X34982Y-40257D02*
X34982Y-40129D01*
X35179Y-40257D02*
X34982Y-40257D01*
X35179Y-40502D02*
X35179Y-40443D01*
X35179Y-40443D02*
X35080Y-40443D01*
X35080Y-40502D02*
X35080Y-40443D01*
X35179Y-40502D02*
X35080Y-40502D01*
X35179Y-40307D02*
X35179Y-40248D01*
X35179Y-40248D02*
X35080Y-40248D01*
X35080Y-40307D02*
X35080Y-40248D01*
X35179Y-40307D02*
X35080Y-40307D01*
X35179Y-40453D02*
X35179Y-40297D01*
X35179Y-40297D02*
X35110Y-40297D01*
X35110Y-40453D02*
X35110Y-40297D01*
X35179Y-40453D02*
X35110Y-40453D01*
X35768Y-40257D02*
X35768Y-40129D01*
X35768Y-40129D02*
X35571Y-40129D01*
X35571Y-40257D02*
X35571Y-40129D01*
X35768Y-40257D02*
X35571Y-40257D01*
X35768Y-40621D02*
X35768Y-40493D01*
X35768Y-40493D02*
X35571Y-40493D01*
X35571Y-40621D02*
X35571Y-40493D01*
X35768Y-40621D02*
X35571Y-40621D01*
X35670Y-40307D02*
X35670Y-40248D01*
X35670Y-40248D02*
X35571Y-40248D01*
X35571Y-40307D02*
X35571Y-40248D01*
X35670Y-40307D02*
X35571Y-40307D01*
X35670Y-40502D02*
X35670Y-40443D01*
X35670Y-40443D02*
X35571Y-40443D01*
X35571Y-40502D02*
X35571Y-40443D01*
X35670Y-40502D02*
X35571Y-40502D01*
X35640Y-40453D02*
X35640Y-40297D01*
X35640Y-40297D02*
X35571Y-40297D01*
X35571Y-40453D02*
X35571Y-40297D01*
X35640Y-40453D02*
X35571Y-40453D01*
X35375Y-40414D02*
X35375Y-40336D01*
X35375Y-40336D02*
X35297Y-40336D01*
X35297Y-40414D02*
X35297Y-40336D01*
X35375Y-40414D02*
X35297Y-40414D01*
X35179Y-40611D02*
X35179Y-40493D01*
X35179Y-40493D02*
X35061Y-40493D01*
X35061Y-40611D02*
X35061Y-40493D01*
X35179Y-40611D02*
X35061Y-40611D01*
X35011Y-40621D02*
X35011Y-40532D01*
X35011Y-40532D02*
X34982Y-40532D01*
X34982Y-40621D02*
X34982Y-40532D01*
X35011Y-40621D02*
X34982Y-40621D01*
G54D16*
X35169Y-40149D02*
X35581Y-40149D01*
X35571Y-40601D02*
X35011Y-40601D01*
G54D17*
X35069Y-40552D02*
G75*
G03X35069Y-40552I-28J0D01*
G74*
G01*
G54D16*
X34982Y-40512D02*
G75*
G03X34982Y-40238I0J137D01*
G74*
G01*
X35768Y-40238D02*
G75*
G03X35768Y-40512I0J-137D01*
G74*
G01*
G54D18*
X16250Y-29677D02*
X16644Y-29343D01*
X16644Y-29343D02*
X15856Y-29343D01*
X15856Y-29343D02*
X16250Y-29677D01*
X16250Y-29677D02*
X15856Y-29677D01*
X16250Y-29677D02*
X16644Y-29677D01*
X15561Y-28594D02*
X15620Y-28594D01*
X15561Y-30268D02*
X15600Y-30268D01*
X15561Y-30406D02*
X15600Y-30406D01*
X16939Y-28594D02*
X16900Y-28594D01*
X16939Y-30268D02*
X16900Y-30268D01*
X16939Y-30406D02*
X16900Y-30406D01*
X15463Y-30268D02*
X15541Y-30268D01*
X17037Y-30268D02*
X16959Y-30268D01*
X15464Y-30404D02*
X15542Y-30404D01*
X15464Y-28592D02*
X15464Y-30404D01*
X15464Y-28592D02*
X15542Y-28592D01*
X17037Y-28594D02*
X16959Y-28594D01*
X17037Y-28594D02*
X17037Y-30406D01*
X17037Y-30406D02*
X16959Y-30406D01*
X16250Y-33323D02*
X15856Y-33657D01*
X15856Y-33657D02*
X16644Y-33657D01*
X16644Y-33657D02*
X16250Y-33323D01*
X16250Y-33323D02*
X16644Y-33323D01*
X16250Y-33323D02*
X15856Y-33323D01*
X16939Y-34406D02*
X16880Y-34406D01*
X16939Y-32732D02*
X16900Y-32732D01*
X16939Y-32594D02*
X16900Y-32594D01*
X15561Y-34406D02*
X15600Y-34406D01*
X15561Y-32732D02*
X15600Y-32732D01*
X15561Y-32594D02*
X15600Y-32594D01*
X17037Y-32732D02*
X16959Y-32732D01*
X15463Y-32732D02*
X15541Y-32732D01*
X17036Y-32596D02*
X16958Y-32596D01*
X17036Y-34408D02*
X17036Y-32596D01*
X17036Y-34408D02*
X16958Y-34408D01*
X15463Y-34406D02*
X15541Y-34406D01*
X15463Y-34406D02*
X15463Y-32594D01*
X15463Y-32594D02*
X15541Y-32594D01*
G54D19*
X13750Y-17500D02*
X14750Y-17500D01*
X14750Y-17500D02*
X14750Y-20500D01*
X14750Y-20500D02*
X13750Y-20500D01*
X13750Y-20500D02*
X13750Y-17500D01*
X14750Y-18500D02*
X13750Y-18500D01*
X41000Y-27750D02*
X40000Y-27750D01*
X40000Y-27750D02*
X40000Y-24750D01*
X40000Y-24750D02*
X41000Y-24750D01*
X41000Y-24750D02*
X41000Y-27750D01*
X40000Y-26750D02*
X41000Y-26750D01*
X14750Y-27000D02*
X13750Y-27000D01*
X13750Y-27000D02*
X13750Y-24000D01*
X13750Y-24000D02*
X14750Y-24000D01*
X14750Y-24000D02*
X14750Y-27000D01*
X13750Y-26000D02*
X14750Y-26000D01*
G54D13*
X26750Y-35850D02*
G75*
G03X26750Y-35850I-50J0D01*
G74*
G01*
X26700Y-36300D02*
X26700Y-35900D01*
X26700Y-35900D02*
X27300Y-35900D01*
X27300Y-35900D02*
X27300Y-36300D01*
X27300Y-36700D02*
X27300Y-37100D01*
X27300Y-37100D02*
X26700Y-37100D01*
X26700Y-37100D02*
X26700Y-36700D01*
X29450Y-19950D02*
G75*
G03X29450Y-19950I-50J0D01*
G74*
G01*
X28950Y-19950D02*
X29350Y-19950D01*
X29350Y-19950D02*
X29350Y-20550D01*
X29350Y-20550D02*
X28950Y-20550D01*
X28550Y-20550D02*
X28150Y-20550D01*
X28150Y-20550D02*
X28150Y-19950D01*
X28150Y-19950D02*
X28550Y-19950D01*
X32250Y-18600D02*
G75*
G03X32250Y-18600I-50J0D01*
G74*
G01*
X32200Y-19050D02*
X32200Y-18650D01*
X32200Y-18650D02*
X32800Y-18650D01*
X32800Y-18650D02*
X32800Y-19050D01*
X32800Y-19450D02*
X32800Y-19850D01*
X32800Y-19850D02*
X32200Y-19850D01*
X32200Y-19850D02*
X32200Y-19450D01*
G54D14*
X22066Y-23250D02*
G75*
G03X22066Y-23250I-316J0D01*
G74*
G01*
G54D19*
X40000Y-44500D02*
X40000Y-44500D01*
X41000Y-44500D02*
X40000Y-44500D01*
X40000Y-44500D02*
X40000Y-44500D01*
X40000Y-44500D02*
X40000Y-40500D01*
X40000Y-40500D02*
X41000Y-40500D01*
X41000Y-40500D02*
X41000Y-44500D01*
X41000Y-43500D02*
X40000Y-43500D01*
X40000Y-49500D02*
X40000Y-49500D01*
X41000Y-49500D02*
X40000Y-49500D01*
X40000Y-49500D02*
X40000Y-49500D01*
X40000Y-49500D02*
X40000Y-45500D01*
X40000Y-45500D02*
X41000Y-45500D01*
X41000Y-45500D02*
X41000Y-49500D01*
X41000Y-48500D02*
X40000Y-48500D01*
X13750Y-34000D02*
X13750Y-34000D01*
X14750Y-34000D02*
X13750Y-34000D01*
X13750Y-34000D02*
X13750Y-34000D01*
X13750Y-34000D02*
X13750Y-30000D01*
X13750Y-30000D02*
X14750Y-30000D01*
X14750Y-30000D02*
X14750Y-34000D01*
X14750Y-33000D02*
X13750Y-33000D01*
G54D13*
X20350Y-38150D02*
G75*
G03X20350Y-38150I-50J0D01*
G74*
G01*
X20300Y-37700D02*
X20300Y-38100D01*
X20300Y-38100D02*
X19700Y-38100D01*
X19700Y-38100D02*
X19700Y-37700D01*
X19700Y-37300D02*
X19700Y-36900D01*
X19700Y-36900D02*
X20300Y-36900D01*
X20300Y-36900D02*
X20300Y-37300D01*
X20650Y-37300D02*
G75*
G03X20650Y-37300I-50J0D01*
G74*
G01*
X21050Y-37300D02*
X20650Y-37300D01*
X20650Y-37300D02*
X20650Y-36700D01*
X20650Y-36700D02*
X21050Y-36700D01*
X21450Y-36700D02*
X21850Y-36700D01*
X21850Y-36700D02*
X21850Y-37300D01*
X21850Y-37300D02*
X21450Y-37300D01*
X22850Y-38150D02*
G75*
G03X22850Y-38150I-50J0D01*
G74*
G01*
X22800Y-37700D02*
X22800Y-38100D01*
X22800Y-38100D02*
X22200Y-38100D01*
X22200Y-38100D02*
X22200Y-37700D01*
X22200Y-37300D02*
X22200Y-36900D01*
X22200Y-36900D02*
X22800Y-36900D01*
X22800Y-36900D02*
X22800Y-37300D01*
G54D14*
X14750Y-21800D02*
X14750Y-22700D01*
X14750Y-22700D02*
X15400Y-22700D01*
X16100Y-21800D02*
X16750Y-21800D01*
X16750Y-21800D02*
X16750Y-22700D01*
X16750Y-22700D02*
X16100Y-22700D01*
X15400Y-21800D02*
X14750Y-21800D01*
X17250Y-20550D02*
X17250Y-21450D01*
X17250Y-21450D02*
X17900Y-21450D01*
X18600Y-20550D02*
X19250Y-20550D01*
X19250Y-20550D02*
X19250Y-21450D01*
X19250Y-21450D02*
X18600Y-21450D01*
X17900Y-20550D02*
X17250Y-20550D01*
X15500Y-26300D02*
X15500Y-27200D01*
X15500Y-27200D02*
X16150Y-27200D01*
X16850Y-26300D02*
X17500Y-26300D01*
X17500Y-26300D02*
X17500Y-27200D01*
X17500Y-27200D02*
X16850Y-27200D01*
X16150Y-26300D02*
X15500Y-26300D01*
X17050Y-24000D02*
X17950Y-24000D01*
X17950Y-24000D02*
X17950Y-23350D01*
X17050Y-22650D02*
X17050Y-22000D01*
X17050Y-22000D02*
X17950Y-22000D01*
X17950Y-22000D02*
X17950Y-22650D01*
X17050Y-23350D02*
X17050Y-24000D01*
X16450Y-24000D02*
X15550Y-24000D01*
X15550Y-24000D02*
X15550Y-24650D01*
X16450Y-25350D02*
X16450Y-26000D01*
X16450Y-26000D02*
X15550Y-26000D01*
X15550Y-26000D02*
X15550Y-25350D01*
X16450Y-24650D02*
X16450Y-24000D01*
G54D13*
X20600Y-23400D02*
G75*
G03X20600Y-23400I-50J0D01*
G74*
G01*
X20550Y-22950D02*
X20550Y-23350D01*
X20550Y-23350D02*
X19950Y-23350D01*
X19950Y-23350D02*
X19950Y-22950D01*
X19950Y-22550D02*
X19950Y-22150D01*
X19950Y-22150D02*
X20550Y-22150D01*
X20550Y-22150D02*
X20550Y-22550D01*
G54D14*
X27450Y-30250D02*
X26550Y-30250D01*
X26550Y-30250D02*
X26550Y-30900D01*
X27450Y-31600D02*
X27450Y-32250D01*
X27450Y-32250D02*
X26550Y-32250D01*
X26550Y-32250D02*
X26550Y-31600D01*
X27450Y-30900D02*
X27450Y-30250D01*
G54D13*
X20900Y-22550D02*
G75*
G03X20900Y-22550I-50J0D01*
G74*
G01*
X21300Y-22550D02*
X20900Y-22550D01*
X20900Y-22550D02*
X20900Y-21950D01*
X20900Y-21950D02*
X21300Y-21950D01*
X21700Y-21950D02*
X22100Y-21950D01*
X22100Y-21950D02*
X22100Y-22550D01*
X22100Y-22550D02*
X21700Y-22550D01*
X23100Y-23900D02*
G75*
G03X23100Y-23900I-50J0D01*
G74*
G01*
X23050Y-23450D02*
X23050Y-23850D01*
X23050Y-23850D02*
X22450Y-23850D01*
X22450Y-23850D02*
X22450Y-23450D01*
X22450Y-23050D02*
X22450Y-22650D01*
X22450Y-22650D02*
X23050Y-22650D01*
X23050Y-22650D02*
X23050Y-23050D01*
X31700Y-37950D02*
G75*
G03X31700Y-37950I-50J0D01*
G74*
G01*
X31200Y-37950D02*
X31600Y-37950D01*
X31600Y-37950D02*
X31600Y-38550D01*
X31600Y-38550D02*
X31200Y-38550D01*
X30800Y-38550D02*
X30400Y-38550D01*
X30400Y-38550D02*
X30400Y-37950D01*
X30400Y-37950D02*
X30800Y-37950D01*
X32150Y-38550D02*
G75*
G03X32150Y-38550I-50J0D01*
G74*
G01*
X32550Y-38550D02*
X32150Y-38550D01*
X32150Y-38550D02*
X32150Y-37950D01*
X32150Y-37950D02*
X32550Y-37950D01*
X32950Y-37950D02*
X33350Y-37950D01*
X33350Y-37950D02*
X33350Y-38550D01*
X33350Y-38550D02*
X32950Y-38550D01*
X27250Y-20100D02*
G75*
G03X27250Y-20100I-50J0D01*
G74*
G01*
X27200Y-20550D02*
X27200Y-20150D01*
X27200Y-20150D02*
X27800Y-20150D01*
X27800Y-20150D02*
X27800Y-20550D01*
X27800Y-20950D02*
X27800Y-21350D01*
X27800Y-21350D02*
X27200Y-21350D01*
X27200Y-21350D02*
X27200Y-20950D01*
X24900Y-48800D02*
G75*
G03X24900Y-48800I-50J0D01*
G74*
G01*
X25300Y-48800D02*
X24900Y-48800D01*
X24900Y-48800D02*
X24900Y-48200D01*
X24900Y-48200D02*
X25300Y-48200D01*
X25700Y-48200D02*
X26100Y-48200D01*
X26100Y-48200D02*
X26100Y-48800D01*
X26100Y-48800D02*
X25700Y-48800D01*
G54D14*
X29870Y-48350D02*
G75*
G03X29870Y-48350I-70J0D01*
G74*
G01*
X30450Y-47200D02*
X29850Y-47200D01*
X29850Y-47200D02*
X29850Y-48300D01*
X29850Y-48300D02*
X30450Y-48300D01*
X31050Y-48300D02*
X31650Y-48300D01*
X31650Y-48300D02*
X31650Y-47200D01*
X31650Y-47200D02*
X31050Y-47200D01*
G54D13*
X31850Y-22150D02*
G75*
G03X31850Y-22150I-50J0D01*
G74*
G01*
X31800Y-21700D02*
X31800Y-22100D01*
X31800Y-22100D02*
X31200Y-22100D01*
X31200Y-22100D02*
X31200Y-21700D01*
X31200Y-21300D02*
X31200Y-20900D01*
X31200Y-20900D02*
X31800Y-20900D01*
X31800Y-20900D02*
X31800Y-21300D01*
X33250Y-19600D02*
G75*
G03X33250Y-19600I-50J0D01*
G74*
G01*
X33200Y-20050D02*
X33200Y-19650D01*
X33200Y-19650D02*
X33800Y-19650D01*
X33800Y-19650D02*
X33800Y-20050D01*
X33800Y-20450D02*
X33800Y-20850D01*
X33800Y-20850D02*
X33200Y-20850D01*
X33200Y-20850D02*
X33200Y-20450D01*
X36350Y-20900D02*
G75*
G03X36350Y-20900I-50J0D01*
G74*
G01*
X36300Y-20450D02*
X36300Y-20850D01*
X36300Y-20850D02*
X35700Y-20850D01*
X35700Y-20850D02*
X35700Y-20450D01*
X35700Y-20050D02*
X35700Y-19650D01*
X35700Y-19650D02*
X36300Y-19650D01*
X36300Y-19650D02*
X36300Y-20050D01*
X39200Y-39200D02*
G75*
G03X39200Y-39200I-50J0D01*
G74*
G01*
X38700Y-39200D02*
X39100Y-39200D01*
X39100Y-39200D02*
X39100Y-39800D01*
X39100Y-39800D02*
X38700Y-39800D01*
X38300Y-39800D02*
X37900Y-39800D01*
X37900Y-39800D02*
X37900Y-39200D01*
X37900Y-39200D02*
X38300Y-39200D01*
X39600Y-44400D02*
G75*
G03X39600Y-44400I-50J0D01*
G74*
G01*
X39550Y-43950D02*
X39550Y-44350D01*
X39550Y-44350D02*
X38950Y-44350D01*
X38950Y-44350D02*
X38950Y-43950D01*
X38950Y-43550D02*
X38950Y-43150D01*
X38950Y-43150D02*
X39550Y-43150D01*
X39550Y-43150D02*
X39550Y-43550D01*
X39600Y-46150D02*
G75*
G03X39600Y-46150I-50J0D01*
G74*
G01*
X39550Y-45700D02*
X39550Y-46100D01*
X39550Y-46100D02*
X38950Y-46100D01*
X38950Y-46100D02*
X38950Y-45700D01*
X38950Y-45300D02*
X38950Y-44900D01*
X38950Y-44900D02*
X39550Y-44900D01*
X39550Y-44900D02*
X39550Y-45300D01*
X39000Y-46350D02*
G75*
G03X39000Y-46350I-50J0D01*
G74*
G01*
X38950Y-46800D02*
X38950Y-46400D01*
X38950Y-46400D02*
X39550Y-46400D01*
X39550Y-46400D02*
X39550Y-46800D01*
X39550Y-47200D02*
X39550Y-47600D01*
X39550Y-47600D02*
X38950Y-47600D01*
X38950Y-47600D02*
X38950Y-47200D01*
X37950Y-19450D02*
G75*
G03X37950Y-19450I-50J0D01*
G74*
G01*
X37450Y-19450D02*
X37850Y-19450D01*
X37850Y-19450D02*
X37850Y-20050D01*
X37850Y-20050D02*
X37450Y-20050D01*
X37050Y-20050D02*
X36650Y-20050D01*
X36650Y-20050D02*
X36650Y-19450D01*
X36650Y-19450D02*
X37050Y-19450D01*
X39000Y-40100D02*
G75*
G03X39000Y-40100I-50J0D01*
G74*
G01*
X38950Y-40550D02*
X38950Y-40150D01*
X38950Y-40150D02*
X39550Y-40150D01*
X39550Y-40150D02*
X39550Y-40550D01*
X39550Y-40950D02*
X39550Y-41350D01*
X39550Y-41350D02*
X38950Y-41350D01*
X38950Y-41350D02*
X38950Y-40950D01*
X39600Y-42900D02*
G75*
G03X39600Y-42900I-50J0D01*
G74*
G01*
X39550Y-42450D02*
X39550Y-42850D01*
X39550Y-42850D02*
X38950Y-42850D01*
X38950Y-42850D02*
X38950Y-42450D01*
X38950Y-42050D02*
X38950Y-41650D01*
X38950Y-41650D02*
X39550Y-41650D01*
X39550Y-41650D02*
X39550Y-42050D01*
X40700Y-49950D02*
G75*
G03X40700Y-49950I-50J0D01*
G74*
G01*
X40200Y-49950D02*
X40600Y-49950D01*
X40600Y-49950D02*
X40600Y-50550D01*
X40600Y-50550D02*
X40200Y-50550D01*
X39800Y-50550D02*
X39400Y-50550D01*
X39400Y-50550D02*
X39400Y-49950D01*
X39400Y-49950D02*
X39800Y-49950D01*
X39000Y-47850D02*
G75*
G03X39000Y-47850I-50J0D01*
G74*
G01*
X38950Y-48300D02*
X38950Y-47900D01*
X38950Y-47900D02*
X39550Y-47900D01*
X39550Y-47900D02*
X39550Y-48300D01*
X39550Y-48700D02*
X39550Y-49100D01*
X39550Y-49100D02*
X38950Y-49100D01*
X38950Y-49100D02*
X38950Y-48700D01*
X38850Y-20900D02*
G75*
G03X38850Y-20900I-50J0D01*
G74*
G01*
X38800Y-20450D02*
X38800Y-20850D01*
X38800Y-20850D02*
X38200Y-20850D01*
X38200Y-20850D02*
X38200Y-20450D01*
X38200Y-20050D02*
X38200Y-19650D01*
X38200Y-19650D02*
X38800Y-19650D01*
X38800Y-19650D02*
X38800Y-20050D01*
X37625Y-48225D02*
G75*
G03X37625Y-48225I-50J0D01*
G74*
G01*
X37575Y-48675D02*
X37575Y-48275D01*
X37575Y-48275D02*
X38175Y-48275D01*
X38175Y-48275D02*
X38175Y-48675D01*
X38175Y-49075D02*
X38175Y-49475D01*
X38175Y-49475D02*
X37575Y-49475D01*
X37575Y-49475D02*
X37575Y-49075D01*
X37625Y-45725D02*
G75*
G03X37625Y-45725I-50J0D01*
G74*
G01*
X37575Y-46175D02*
X37575Y-45775D01*
X37575Y-45775D02*
X38175Y-45775D01*
X38175Y-45775D02*
X38175Y-46175D01*
X38175Y-46575D02*
X38175Y-46975D01*
X38175Y-46975D02*
X37575Y-46975D01*
X37575Y-46975D02*
X37575Y-46575D01*
X37625Y-43225D02*
G75*
G03X37625Y-43225I-50J0D01*
G74*
G01*
X37575Y-43675D02*
X37575Y-43275D01*
X37575Y-43275D02*
X38175Y-43275D01*
X38175Y-43275D02*
X38175Y-43675D01*
X38175Y-44075D02*
X38175Y-44475D01*
X38175Y-44475D02*
X37575Y-44475D01*
X37575Y-44475D02*
X37575Y-44075D01*
X36225Y-48225D02*
G75*
G03X36225Y-48225I-50J0D01*
G74*
G01*
X36175Y-48675D02*
X36175Y-48275D01*
X36175Y-48275D02*
X36775Y-48275D01*
X36775Y-48275D02*
X36775Y-48675D01*
X36775Y-49075D02*
X36775Y-49475D01*
X36775Y-49475D02*
X36175Y-49475D01*
X36175Y-49475D02*
X36175Y-49075D01*
X36225Y-45725D02*
G75*
G03X36225Y-45725I-50J0D01*
G74*
G01*
X36175Y-46175D02*
X36175Y-45775D01*
X36175Y-45775D02*
X36775Y-45775D01*
X36775Y-45775D02*
X36775Y-46175D01*
X36775Y-46575D02*
X36775Y-46975D01*
X36775Y-46975D02*
X36175Y-46975D01*
X36175Y-46975D02*
X36175Y-46575D01*
X36225Y-43225D02*
G75*
G03X36225Y-43225I-50J0D01*
G74*
G01*
X36175Y-43675D02*
X36175Y-43275D01*
X36175Y-43275D02*
X36775Y-43275D01*
X36775Y-43275D02*
X36775Y-43675D01*
X36775Y-44075D02*
X36775Y-44475D01*
X36775Y-44475D02*
X36175Y-44475D01*
X36175Y-44475D02*
X36175Y-44075D01*
X33700Y-50700D02*
G75*
G03X33700Y-50700I-50J0D01*
G74*
G01*
X33200Y-50700D02*
X33600Y-50700D01*
X33600Y-50700D02*
X33600Y-51300D01*
X33600Y-51300D02*
X33200Y-51300D01*
X32800Y-51300D02*
X32400Y-51300D01*
X32400Y-51300D02*
X32400Y-50700D01*
X32400Y-50700D02*
X32800Y-50700D01*
X35425Y-45725D02*
G75*
G03X35425Y-45725I-50J0D01*
G74*
G01*
X35375Y-46175D02*
X35375Y-45775D01*
X35375Y-45775D02*
X35975Y-45775D01*
X35975Y-45775D02*
X35975Y-46175D01*
X35975Y-46575D02*
X35975Y-46975D01*
X35975Y-46975D02*
X35375Y-46975D01*
X35375Y-46975D02*
X35375Y-46575D01*
X35425Y-43225D02*
G75*
G03X35425Y-43225I-50J0D01*
G74*
G01*
X35375Y-43675D02*
X35375Y-43275D01*
X35375Y-43275D02*
X35975Y-43275D01*
X35975Y-43275D02*
X35975Y-43675D01*
X35975Y-44075D02*
X35975Y-44475D01*
X35975Y-44475D02*
X35375Y-44475D01*
X35375Y-44475D02*
X35375Y-44075D01*
X34625Y-48225D02*
G75*
G03X34625Y-48225I-50J0D01*
G74*
G01*
X34575Y-48675D02*
X34575Y-48275D01*
X34575Y-48275D02*
X35175Y-48275D01*
X35175Y-48275D02*
X35175Y-48675D01*
X35175Y-49075D02*
X35175Y-49475D01*
X35175Y-49475D02*
X34575Y-49475D01*
X34575Y-49475D02*
X34575Y-49075D01*
X34625Y-45725D02*
G75*
G03X34625Y-45725I-50J0D01*
G74*
G01*
X34575Y-46175D02*
X34575Y-45775D01*
X34575Y-45775D02*
X35175Y-45775D01*
X35175Y-45775D02*
X35175Y-46175D01*
X35175Y-46575D02*
X35175Y-46975D01*
X35175Y-46975D02*
X34575Y-46975D01*
X34575Y-46975D02*
X34575Y-46575D01*
X34625Y-43225D02*
G75*
G03X34625Y-43225I-50J0D01*
G74*
G01*
X34575Y-43675D02*
X34575Y-43275D01*
X34575Y-43275D02*
X35175Y-43275D01*
X35175Y-43275D02*
X35175Y-43675D01*
X35175Y-44075D02*
X35175Y-44475D01*
X35175Y-44475D02*
X34575Y-44475D01*
X34575Y-44475D02*
X34575Y-44075D01*
X33125Y-40525D02*
G75*
G03X33125Y-40525I-50J0D01*
G74*
G01*
X33075Y-40075D02*
X33075Y-40475D01*
X33075Y-40475D02*
X32475Y-40475D01*
X32475Y-40475D02*
X32475Y-40075D01*
X32475Y-39675D02*
X32475Y-39275D01*
X32475Y-39275D02*
X33075Y-39275D01*
X33075Y-39275D02*
X33075Y-39675D01*
X37225Y-42525D02*
G75*
G03X37225Y-42525I-50J0D01*
G74*
G01*
X37175Y-42075D02*
X37175Y-42475D01*
X37175Y-42475D02*
X36575Y-42475D01*
X36575Y-42475D02*
X36575Y-42075D01*
X36575Y-41675D02*
X36575Y-41275D01*
X36575Y-41275D02*
X37175Y-41275D01*
X37175Y-41275D02*
X37175Y-41675D01*
X38225Y-42525D02*
G75*
G03X38225Y-42525I-50J0D01*
G74*
G01*
X38175Y-42075D02*
X38175Y-42475D01*
X38175Y-42475D02*
X37575Y-42475D01*
X37575Y-42475D02*
X37575Y-42075D01*
X37575Y-41675D02*
X37575Y-41275D01*
X37575Y-41275D02*
X38175Y-41275D01*
X38175Y-41275D02*
X38175Y-41675D01*
X19350Y-29650D02*
G75*
G03X19350Y-29650I-50J0D01*
G74*
G01*
X19300Y-29200D02*
X19300Y-29600D01*
X19300Y-29600D02*
X18700Y-29600D01*
X18700Y-29600D02*
X18700Y-29200D01*
X18700Y-28800D02*
X18700Y-28400D01*
X18700Y-28400D02*
X19300Y-28400D01*
X19300Y-28400D02*
X19300Y-28800D01*
X17500Y-30850D02*
G75*
G03X17500Y-30850I-50J0D01*
G74*
G01*
X17450Y-31300D02*
X17450Y-30900D01*
X17450Y-30900D02*
X18050Y-30900D01*
X18050Y-30900D02*
X18050Y-31300D01*
X18050Y-31700D02*
X18050Y-32100D01*
X18050Y-32100D02*
X17450Y-32100D01*
X17450Y-32100D02*
X17450Y-31700D01*
X19950Y-34950D02*
G75*
G03X19950Y-34950I-50J0D01*
G74*
G01*
X19450Y-34950D02*
X19850Y-34950D01*
X19850Y-34950D02*
X19850Y-35550D01*
X19850Y-35550D02*
X19450Y-35550D01*
X19050Y-35550D02*
X18650Y-35550D01*
X18650Y-35550D02*
X18650Y-34950D01*
X18650Y-34950D02*
X19050Y-34950D01*
X18500Y-32850D02*
G75*
G03X18500Y-32850I-50J0D01*
G74*
G01*
X18450Y-33300D02*
X18450Y-32900D01*
X18450Y-32900D02*
X19050Y-32900D01*
X19050Y-32900D02*
X19050Y-33300D01*
X19050Y-33700D02*
X19050Y-34100D01*
X19050Y-34100D02*
X18450Y-34100D01*
X18450Y-34100D02*
X18450Y-33700D01*
X23350Y-31150D02*
G75*
G03X23350Y-31150I-50J0D01*
G74*
G01*
X23300Y-30700D02*
X23300Y-31100D01*
X23300Y-31100D02*
X22700Y-31100D01*
X22700Y-31100D02*
X22700Y-30700D01*
X22700Y-30300D02*
X22700Y-29900D01*
X22700Y-29900D02*
X23300Y-29900D01*
X23300Y-29900D02*
X23300Y-30300D01*
X23350Y-33150D02*
G75*
G03X23350Y-33150I-50J0D01*
G74*
G01*
X23300Y-32700D02*
X23300Y-33100D01*
X23300Y-33100D02*
X22700Y-33100D01*
X22700Y-33100D02*
X22700Y-32700D01*
X22700Y-32300D02*
X22700Y-31900D01*
X22700Y-31900D02*
X23300Y-31900D01*
X23300Y-31900D02*
X23300Y-32300D01*
G54D18*
X22600Y-57950D02*
X22600Y-58450D01*
X22910Y-58245D02*
X22895Y-58145D01*
X22895Y-58145D02*
X22825Y-58035D01*
X22825Y-58035D02*
X22700Y-57950D01*
X22700Y-57950D02*
X22525Y-57945D01*
X22525Y-57945D02*
X22385Y-58025D01*
X22385Y-58025D02*
X22315Y-58140D01*
X22315Y-58140D02*
X22295Y-58265D01*
X22295Y-58265D02*
X22335Y-58425D01*
X22335Y-58425D02*
X22470Y-58525D01*
X22470Y-58525D02*
X22540Y-58560D01*
X25900Y-59450D02*
X22100Y-59450D01*
X22100Y-58250D02*
X22100Y-57750D01*
X22100Y-57750D02*
X25900Y-57750D01*
X25900Y-57750D02*
X25900Y-59750D01*
X22100Y-59750D02*
X22100Y-58750D01*
X22100Y-58750D02*
X22100Y-58250D01*
G54D14*
X31150Y-30200D02*
X31150Y-28750D01*
X31150Y-28750D02*
X30650Y-28750D01*
X30650Y-28750D02*
X30650Y-30200D01*
X31800Y-30200D02*
X31800Y-28750D01*
X31800Y-28750D02*
X31300Y-28750D01*
X31300Y-28750D02*
X31300Y-30200D01*
X32500Y-30200D02*
X32500Y-28750D01*
X32500Y-28750D02*
X32000Y-28750D01*
X32000Y-28750D02*
X32000Y-30200D01*
X33150Y-30200D02*
X33150Y-28750D01*
X33150Y-28750D02*
X32700Y-28750D01*
X32700Y-28750D02*
X32650Y-28750D01*
X32650Y-28750D02*
X32650Y-30200D01*
X33850Y-30200D02*
X33850Y-28750D01*
X33850Y-28750D02*
X33350Y-28750D01*
X33350Y-28750D02*
X33350Y-30200D01*
X34350Y-30200D02*
X30150Y-30200D01*
X30150Y-30200D02*
X30150Y-34200D01*
X30150Y-34200D02*
X34350Y-34200D01*
X34350Y-34200D02*
X34350Y-30200D01*
G54D18*
X24752Y-36329D02*
X24850Y-36211D01*
X24850Y-36211D02*
X24890Y-36152D01*
X24890Y-36152D02*
X24890Y-36486D01*
X24614Y-35738D02*
X24614Y-36447D01*
X24614Y-35738D02*
X24870Y-35738D01*
X26386Y-35738D02*
X26386Y-36447D01*
X26386Y-35738D02*
X26130Y-35738D01*
G54D14*
X30300Y-37200D02*
X30100Y-37500D01*
X30300Y-36500D02*
X30300Y-37525D01*
X30300Y-37525D02*
X29700Y-37525D01*
X29700Y-37525D02*
X29700Y-36500D01*
X29700Y-36500D02*
X30300Y-36500D01*
X22950Y-20050D02*
X23150Y-19750D01*
X22950Y-20750D02*
X22950Y-19725D01*
X22950Y-19725D02*
X23550Y-19725D01*
X23550Y-19725D02*
X23550Y-20750D01*
X23550Y-20750D02*
X22950Y-20750D01*
X33450Y-36800D02*
X33650Y-36500D01*
X33450Y-37500D02*
X33450Y-36475D01*
X33450Y-36475D02*
X34050Y-36475D01*
X34050Y-36475D02*
X34050Y-37500D01*
X34050Y-37500D02*
X33450Y-37500D01*
G54D18*
X16000Y-43750D02*
X16500Y-43750D01*
X16500Y-43750D02*
X16500Y-44750D01*
X16500Y-44750D02*
X16000Y-44750D01*
X16000Y-41750D02*
X29000Y-41750D01*
X29000Y-41750D02*
X29000Y-46750D01*
X29000Y-46750D02*
X16000Y-46750D01*
X16000Y-46750D02*
X16000Y-41750D01*
X16000Y-52750D02*
X16500Y-52750D01*
X16500Y-52750D02*
X16500Y-53750D01*
X16500Y-53750D02*
X16000Y-53750D01*
X16000Y-50750D02*
X29000Y-50750D01*
X29000Y-50750D02*
X29000Y-55750D01*
X29000Y-55750D02*
X16000Y-55750D01*
X16000Y-55750D02*
X16000Y-50750D01*
X30221Y-19480D02*
X29997Y-19480D01*
X29997Y-19480D02*
X29997Y-19642D01*
G54D14*
X31900Y-43650D02*
X33850Y-43650D01*
X33850Y-43650D02*
X33850Y-42100D01*
X33850Y-42100D02*
X31900Y-42100D01*
X31900Y-42100D02*
X31900Y-43650D01*
X32261Y-43400D02*
G75*
G03X32261Y-43400I-111J0D01*
G74*
G01*
X20400Y-35100D02*
X20400Y-34400D01*
X20400Y-34400D02*
X21600Y-34400D01*
X21600Y-34400D02*
X21600Y-35100D01*
X21600Y-35100D02*
X20400Y-35100D01*
G54D12*
X20763Y-30188D02*
X20291Y-30188D01*
X21708Y-30188D02*
X21236Y-30188D01*
X20763Y-30188D02*
G75*
G03X21000Y-30425I236J0D01*
G74*
G01*
X21000Y-30425D02*
G75*
G03X21236Y-30188I0J236D01*
G74*
G01*
X21708Y-30188D02*
X21708Y-33811D01*
X21708Y-33811D02*
X20291Y-33811D01*
X20291Y-33811D02*
X20291Y-30188D01*
G54D14*
X20500Y-25450D02*
X20500Y-24550D01*
X20500Y-24550D02*
X19850Y-24550D01*
X19150Y-25450D02*
X18500Y-25450D01*
X18500Y-25450D02*
X18500Y-24550D01*
X18500Y-24550D02*
X19150Y-24550D01*
X19850Y-25450D02*
X20500Y-25450D01*
X19450Y-22000D02*
X18550Y-22000D01*
X18550Y-22000D02*
X18550Y-22650D01*
X19450Y-23350D02*
X19450Y-24000D01*
X19450Y-24000D02*
X18550Y-24000D01*
X18550Y-24000D02*
X18550Y-23350D01*
X19450Y-22650D02*
X19450Y-22000D01*
G54D20*
X38000Y-26700D02*
X37300Y-26700D01*
X37300Y-26700D02*
X37050Y-26450D01*
X37050Y-26450D02*
X37050Y-25050D01*
X37050Y-25050D02*
X37300Y-24800D01*
X37300Y-24800D02*
X38700Y-24800D01*
X38700Y-24800D02*
X38950Y-25050D01*
X38950Y-25050D02*
X38950Y-26450D01*
X38950Y-26450D02*
X38700Y-26700D01*
X38700Y-26700D02*
X38000Y-26700D01*
G54D19*
X32750Y-59750D02*
X32750Y-59750D01*
X32750Y-58750D02*
X32750Y-59750D01*
X32750Y-59750D02*
X32750Y-59750D01*
X32750Y-59750D02*
X28750Y-59750D01*
X28750Y-59750D02*
X28750Y-58750D01*
X28750Y-58750D02*
X32750Y-58750D01*
X31750Y-58750D02*
X31750Y-59750D01*
X26750Y-14500D02*
X26750Y-13500D01*
X26750Y-13500D02*
X29750Y-13500D01*
X29750Y-13500D02*
X29750Y-14500D01*
X29750Y-14500D02*
X26750Y-14500D01*
X27750Y-13500D02*
X27750Y-14500D01*
X30750Y-14500D02*
X30750Y-13500D01*
X30750Y-13500D02*
X33750Y-13500D01*
X33750Y-13500D02*
X33750Y-14500D01*
X33750Y-14500D02*
X30750Y-14500D01*
X31750Y-13500D02*
X31750Y-14500D01*
X34750Y-14500D02*
X34750Y-13500D01*
X34750Y-13500D02*
X37750Y-13500D01*
X37750Y-13500D02*
X37750Y-14500D01*
X37750Y-14500D02*
X34750Y-14500D01*
X35750Y-13500D02*
X35750Y-14500D01*
G54D13*
X18350Y-35650D02*
G75*
G03X18350Y-35650I-50J0D01*
G74*
G01*
X18300Y-35200D02*
X18300Y-35600D01*
X18300Y-35600D02*
X17700Y-35600D01*
X17700Y-35600D02*
X17700Y-35200D01*
X17700Y-34800D02*
X17700Y-34400D01*
X17700Y-34400D02*
X18300Y-34400D01*
X18300Y-34400D02*
X18300Y-34800D01*
G54D14*
X36550Y-32000D02*
X36550Y-32100D01*
X36550Y-32100D02*
X37450Y-32100D01*
X37450Y-32100D02*
X37450Y-32000D01*
X36550Y-32000D02*
X37450Y-32000D01*
X37450Y-32000D02*
X37450Y-31350D01*
X36550Y-30650D02*
X36550Y-30000D01*
X36550Y-30000D02*
X37450Y-30000D01*
X37450Y-30000D02*
X37450Y-30650D01*
X36550Y-31350D02*
X36550Y-32000D01*
G54D13*
X38350Y-32150D02*
G75*
G03X38350Y-32150I-50J0D01*
G74*
G01*
X38300Y-31700D02*
X38300Y-32100D01*
X38300Y-32100D02*
X37700Y-32100D01*
X37700Y-32100D02*
X37700Y-31700D01*
X37700Y-31300D02*
X37700Y-30900D01*
X37700Y-30900D02*
X38300Y-30900D01*
X38300Y-30900D02*
X38300Y-31300D01*
G54D18*
X40400Y-32900D02*
X39050Y-32900D01*
X40400Y-29100D02*
X39050Y-29100D01*
X40850Y-33100D02*
X40850Y-28900D01*
X40450Y-31700D02*
X40950Y-31700D01*
X40450Y-30300D02*
X40950Y-30300D01*
X40400Y-28900D02*
X40400Y-33100D01*
X39050Y-33100D02*
X39050Y-28900D01*
X40950Y-28900D02*
X39050Y-28900D01*
X40950Y-33100D02*
X39050Y-33100D01*
X40950Y-33100D02*
X40950Y-28900D01*
G54D21*
X23454Y-36348D02*
X23440Y-36361D01*
X23401Y-36374D01*
X23375Y-36374D01*
X23335Y-36361D01*
X23309Y-36335D01*
X23296Y-36309D01*
X23283Y-36256D01*
X23283Y-36217D01*
X23296Y-36164D01*
X23309Y-36138D01*
X23335Y-36112D01*
X23375Y-36099D01*
X23401Y-36099D01*
X23440Y-36112D01*
X23454Y-36125D01*
X23716Y-36374D02*
X23559Y-36374D01*
X23637Y-36374D02*
X23637Y-36099D01*
X23611Y-36138D01*
X23585Y-36164D01*
X23559Y-36177D01*
X34848Y-28795D02*
X34861Y-28809D01*
X34874Y-28848D01*
X34874Y-28874D01*
X34861Y-28914D01*
X34835Y-28940D01*
X34809Y-28953D01*
X34756Y-28966D01*
X34717Y-28966D01*
X34664Y-28953D01*
X34638Y-28940D01*
X34612Y-28914D01*
X34599Y-28874D01*
X34599Y-28848D01*
X34612Y-28809D01*
X34625Y-28795D01*
X34625Y-28690D02*
X34612Y-28677D01*
X34599Y-28651D01*
X34599Y-28585D01*
X34612Y-28559D01*
X34625Y-28546D01*
X34651Y-28533D01*
X34677Y-28533D01*
X34717Y-28546D01*
X34874Y-28704D01*
X34874Y-28533D01*
X32098Y-27295D02*
X32111Y-27309D01*
X32124Y-27348D01*
X32124Y-27374D01*
X32111Y-27414D01*
X32085Y-27440D01*
X32059Y-27453D01*
X32006Y-27466D01*
X31967Y-27466D01*
X31914Y-27453D01*
X31888Y-27440D01*
X31862Y-27414D01*
X31849Y-27374D01*
X31849Y-27348D01*
X31862Y-27309D01*
X31875Y-27295D01*
X31940Y-27059D02*
X32124Y-27059D01*
X31835Y-27125D02*
X32032Y-27190D01*
X32032Y-27020D01*
X34598Y-26295D02*
X34611Y-26309D01*
X34624Y-26348D01*
X34624Y-26374D01*
X34611Y-26414D01*
X34585Y-26440D01*
X34559Y-26453D01*
X34506Y-26466D01*
X34467Y-26466D01*
X34414Y-26453D01*
X34388Y-26440D01*
X34362Y-26414D01*
X34349Y-26374D01*
X34349Y-26348D01*
X34362Y-26309D01*
X34375Y-26295D01*
X34349Y-26046D02*
X34349Y-26177D01*
X34480Y-26190D01*
X34467Y-26177D01*
X34454Y-26151D01*
X34454Y-26085D01*
X34467Y-26059D01*
X34480Y-26046D01*
X34506Y-26033D01*
X34572Y-26033D01*
X34598Y-26046D01*
X34611Y-26059D01*
X34624Y-26085D01*
X34624Y-26151D01*
X34611Y-26177D01*
X34598Y-26190D01*
X37848Y-28045D02*
X37861Y-28059D01*
X37874Y-28098D01*
X37874Y-28124D01*
X37861Y-28164D01*
X37835Y-28190D01*
X37809Y-28203D01*
X37756Y-28216D01*
X37717Y-28216D01*
X37664Y-28203D01*
X37638Y-28190D01*
X37612Y-28164D01*
X37599Y-28124D01*
X37599Y-28098D01*
X37612Y-28059D01*
X37625Y-28045D01*
X37599Y-27809D02*
X37599Y-27862D01*
X37612Y-27888D01*
X37625Y-27901D01*
X37664Y-27927D01*
X37717Y-27940D01*
X37822Y-27940D01*
X37848Y-27927D01*
X37861Y-27914D01*
X37874Y-27888D01*
X37874Y-27835D01*
X37861Y-27809D01*
X37848Y-27796D01*
X37822Y-27783D01*
X37756Y-27783D01*
X37730Y-27796D01*
X37717Y-27809D01*
X37704Y-27835D01*
X37704Y-27888D01*
X37717Y-27914D01*
X37730Y-27927D01*
X37756Y-27940D01*
X28454Y-37848D02*
X28440Y-37861D01*
X28401Y-37874D01*
X28375Y-37874D01*
X28335Y-37861D01*
X28309Y-37835D01*
X28296Y-37809D01*
X28283Y-37756D01*
X28283Y-37717D01*
X28296Y-37664D01*
X28309Y-37638D01*
X28335Y-37612D01*
X28375Y-37599D01*
X28401Y-37599D01*
X28440Y-37612D01*
X28454Y-37625D01*
X28611Y-37717D02*
X28585Y-37704D01*
X28572Y-37690D01*
X28559Y-37664D01*
X28559Y-37651D01*
X28572Y-37625D01*
X28585Y-37612D01*
X28611Y-37599D01*
X28664Y-37599D01*
X28690Y-37612D01*
X28703Y-37625D01*
X28716Y-37651D01*
X28716Y-37664D01*
X28703Y-37690D01*
X28690Y-37704D01*
X28664Y-37717D01*
X28611Y-37717D01*
X28585Y-37730D01*
X28572Y-37743D01*
X28559Y-37769D01*
X28559Y-37822D01*
X28572Y-37848D01*
X28585Y-37861D01*
X28611Y-37874D01*
X28664Y-37874D01*
X28690Y-37861D01*
X28703Y-37848D01*
X28716Y-37822D01*
X28716Y-37769D01*
X28703Y-37743D01*
X28690Y-37730D01*
X28664Y-37717D01*
X30098Y-28295D02*
X30111Y-28309D01*
X30124Y-28348D01*
X30124Y-28374D01*
X30111Y-28414D01*
X30085Y-28440D01*
X30059Y-28453D01*
X30006Y-28466D01*
X29967Y-28466D01*
X29914Y-28453D01*
X29888Y-28440D01*
X29862Y-28414D01*
X29849Y-28374D01*
X29849Y-28348D01*
X29862Y-28309D01*
X29875Y-28295D01*
X30124Y-28164D02*
X30124Y-28112D01*
X30111Y-28085D01*
X30098Y-28072D01*
X30059Y-28046D01*
X30006Y-28033D01*
X29901Y-28033D01*
X29875Y-28046D01*
X29862Y-28059D01*
X29849Y-28085D01*
X29849Y-28138D01*
X29862Y-28164D01*
X29875Y-28177D01*
X29901Y-28190D01*
X29967Y-28190D01*
X29993Y-28177D01*
X30006Y-28164D01*
X30019Y-28138D01*
X30019Y-28085D01*
X30006Y-28059D01*
X29993Y-28046D01*
X29967Y-28033D01*
X28322Y-32098D02*
X28309Y-32111D01*
X28270Y-32124D01*
X28244Y-32124D01*
X28204Y-32111D01*
X28178Y-32085D01*
X28165Y-32059D01*
X28152Y-32006D01*
X28152Y-31967D01*
X28165Y-31914D01*
X28178Y-31888D01*
X28204Y-31862D01*
X28244Y-31849D01*
X28270Y-31849D01*
X28309Y-31862D01*
X28322Y-31875D01*
X28585Y-32124D02*
X28427Y-32124D01*
X28506Y-32124D02*
X28506Y-31849D01*
X28480Y-31888D01*
X28454Y-31914D01*
X28427Y-31927D01*
X28755Y-31849D02*
X28782Y-31849D01*
X28808Y-31862D01*
X28821Y-31875D01*
X28834Y-31901D01*
X28847Y-31954D01*
X28847Y-32019D01*
X28834Y-32072D01*
X28821Y-32098D01*
X28808Y-32111D01*
X28782Y-32124D01*
X28755Y-32124D01*
X28729Y-32111D01*
X28716Y-32098D01*
X28703Y-32072D01*
X28690Y-32019D01*
X28690Y-31954D01*
X28703Y-31901D01*
X28716Y-31875D01*
X28729Y-31862D01*
X28755Y-31849D01*
X22098Y-18927D02*
X22111Y-18940D01*
X22124Y-18979D01*
X22124Y-19005D01*
X22111Y-19045D01*
X22085Y-19071D01*
X22059Y-19084D01*
X22006Y-19097D01*
X21967Y-19097D01*
X21914Y-19084D01*
X21888Y-19071D01*
X21862Y-19045D01*
X21849Y-19005D01*
X21849Y-18979D01*
X21862Y-18940D01*
X21875Y-18927D01*
X22124Y-18664D02*
X22124Y-18822D01*
X22124Y-18743D02*
X21849Y-18743D01*
X21888Y-18769D01*
X21914Y-18795D01*
X21927Y-18822D01*
X22124Y-18402D02*
X22124Y-18559D01*
X22124Y-18480D02*
X21849Y-18480D01*
X21888Y-18507D01*
X21914Y-18533D01*
X21927Y-18559D01*
X23598Y-21927D02*
X23611Y-21940D01*
X23624Y-21979D01*
X23624Y-22005D01*
X23611Y-22045D01*
X23585Y-22071D01*
X23559Y-22084D01*
X23506Y-22097D01*
X23467Y-22097D01*
X23414Y-22084D01*
X23388Y-22071D01*
X23362Y-22045D01*
X23349Y-22005D01*
X23349Y-21979D01*
X23362Y-21940D01*
X23375Y-21927D01*
X23624Y-21664D02*
X23624Y-21822D01*
X23624Y-21743D02*
X23349Y-21743D01*
X23388Y-21769D01*
X23414Y-21795D01*
X23427Y-21822D01*
X23375Y-21559D02*
X23362Y-21546D01*
X23349Y-21520D01*
X23349Y-21454D01*
X23362Y-21428D01*
X23375Y-21415D01*
X23401Y-21402D01*
X23427Y-21402D01*
X23467Y-21415D01*
X23624Y-21572D01*
X23624Y-21402D01*
X27598Y-28677D02*
X27611Y-28690D01*
X27624Y-28729D01*
X27624Y-28755D01*
X27611Y-28795D01*
X27585Y-28821D01*
X27559Y-28834D01*
X27506Y-28847D01*
X27467Y-28847D01*
X27414Y-28834D01*
X27388Y-28821D01*
X27362Y-28795D01*
X27349Y-28755D01*
X27349Y-28729D01*
X27362Y-28690D01*
X27375Y-28677D01*
X27624Y-28414D02*
X27624Y-28572D01*
X27624Y-28493D02*
X27349Y-28493D01*
X27388Y-28519D01*
X27414Y-28545D01*
X27427Y-28572D01*
X27349Y-28322D02*
X27349Y-28152D01*
X27454Y-28244D01*
X27454Y-28204D01*
X27467Y-28178D01*
X27480Y-28165D01*
X27506Y-28152D01*
X27572Y-28152D01*
X27598Y-28165D01*
X27611Y-28178D01*
X27624Y-28204D01*
X27624Y-28283D01*
X27611Y-28309D01*
X27598Y-28322D01*
X29072Y-34348D02*
X29059Y-34361D01*
X29020Y-34374D01*
X28994Y-34374D01*
X28954Y-34361D01*
X28928Y-34335D01*
X28915Y-34309D01*
X28902Y-34256D01*
X28902Y-34217D01*
X28915Y-34164D01*
X28928Y-34138D01*
X28954Y-34112D01*
X28994Y-34099D01*
X29020Y-34099D01*
X29059Y-34112D01*
X29072Y-34125D01*
X29335Y-34374D02*
X29177Y-34374D01*
X29256Y-34374D02*
X29256Y-34099D01*
X29230Y-34138D01*
X29204Y-34164D01*
X29177Y-34177D01*
X29571Y-34190D02*
X29571Y-34374D01*
X29505Y-34085D02*
X29440Y-34282D01*
X29610Y-34282D01*
X29072Y-35348D02*
X29059Y-35361D01*
X29020Y-35374D01*
X28994Y-35374D01*
X28954Y-35361D01*
X28928Y-35335D01*
X28915Y-35309D01*
X28902Y-35256D01*
X28902Y-35217D01*
X28915Y-35164D01*
X28928Y-35138D01*
X28954Y-35112D01*
X28994Y-35099D01*
X29020Y-35099D01*
X29059Y-35112D01*
X29072Y-35125D01*
X29335Y-35374D02*
X29177Y-35374D01*
X29256Y-35374D02*
X29256Y-35099D01*
X29230Y-35138D01*
X29204Y-35164D01*
X29177Y-35177D01*
X29584Y-35099D02*
X29453Y-35099D01*
X29440Y-35230D01*
X29453Y-35217D01*
X29479Y-35204D01*
X29545Y-35204D01*
X29571Y-35217D01*
X29584Y-35230D01*
X29597Y-35256D01*
X29597Y-35322D01*
X29584Y-35348D01*
X29571Y-35361D01*
X29545Y-35374D01*
X29479Y-35374D01*
X29453Y-35361D01*
X29440Y-35348D01*
X13848Y-46927D02*
X13861Y-46940D01*
X13874Y-46979D01*
X13874Y-47005D01*
X13861Y-47045D01*
X13835Y-47071D01*
X13809Y-47084D01*
X13756Y-47097D01*
X13717Y-47097D01*
X13664Y-47084D01*
X13638Y-47071D01*
X13612Y-47045D01*
X13599Y-47005D01*
X13599Y-46979D01*
X13612Y-46940D01*
X13625Y-46927D01*
X13874Y-46664D02*
X13874Y-46822D01*
X13874Y-46743D02*
X13599Y-46743D01*
X13638Y-46769D01*
X13664Y-46795D01*
X13677Y-46822D01*
X13599Y-46428D02*
X13599Y-46480D01*
X13612Y-46507D01*
X13625Y-46520D01*
X13664Y-46546D01*
X13717Y-46559D01*
X13822Y-46559D01*
X13848Y-46546D01*
X13861Y-46533D01*
X13874Y-46507D01*
X13874Y-46454D01*
X13861Y-46428D01*
X13848Y-46415D01*
X13822Y-46402D01*
X13756Y-46402D01*
X13730Y-46415D01*
X13717Y-46428D01*
X13704Y-46454D01*
X13704Y-46507D01*
X13717Y-46533D01*
X13730Y-46546D01*
X13756Y-46559D01*
X31572Y-35848D02*
X31559Y-35861D01*
X31520Y-35874D01*
X31494Y-35874D01*
X31454Y-35861D01*
X31428Y-35835D01*
X31415Y-35809D01*
X31402Y-35756D01*
X31402Y-35717D01*
X31415Y-35664D01*
X31428Y-35638D01*
X31454Y-35612D01*
X31494Y-35599D01*
X31520Y-35599D01*
X31559Y-35612D01*
X31572Y-35625D01*
X31835Y-35874D02*
X31677Y-35874D01*
X31756Y-35874D02*
X31756Y-35599D01*
X31730Y-35638D01*
X31704Y-35664D01*
X31677Y-35677D01*
X31927Y-35599D02*
X32110Y-35599D01*
X31992Y-35874D01*
X14848Y-44427D02*
X14861Y-44440D01*
X14874Y-44479D01*
X14874Y-44505D01*
X14861Y-44545D01*
X14835Y-44571D01*
X14809Y-44584D01*
X14756Y-44597D01*
X14717Y-44597D01*
X14664Y-44584D01*
X14638Y-44571D01*
X14612Y-44545D01*
X14599Y-44505D01*
X14599Y-44479D01*
X14612Y-44440D01*
X14625Y-44427D01*
X14874Y-44164D02*
X14874Y-44322D01*
X14874Y-44243D02*
X14599Y-44243D01*
X14638Y-44269D01*
X14664Y-44295D01*
X14677Y-44322D01*
X14717Y-44007D02*
X14704Y-44033D01*
X14690Y-44046D01*
X14664Y-44059D01*
X14651Y-44059D01*
X14625Y-44046D01*
X14612Y-44033D01*
X14599Y-44007D01*
X14599Y-43954D01*
X14612Y-43928D01*
X14625Y-43915D01*
X14651Y-43902D01*
X14664Y-43902D01*
X14690Y-43915D01*
X14704Y-43928D01*
X14717Y-43954D01*
X14717Y-44007D01*
X14730Y-44033D01*
X14743Y-44046D01*
X14769Y-44059D01*
X14822Y-44059D01*
X14848Y-44046D01*
X14861Y-44033D01*
X14874Y-44007D01*
X14874Y-43954D01*
X14861Y-43928D01*
X14848Y-43915D01*
X14822Y-43902D01*
X14769Y-43902D01*
X14743Y-43915D01*
X14730Y-43928D01*
X14717Y-43954D01*
X25072Y-19598D02*
X25059Y-19611D01*
X25020Y-19624D01*
X24994Y-19624D01*
X24954Y-19611D01*
X24928Y-19585D01*
X24915Y-19559D01*
X24902Y-19506D01*
X24902Y-19467D01*
X24915Y-19414D01*
X24928Y-19388D01*
X24954Y-19362D01*
X24994Y-19349D01*
X25020Y-19349D01*
X25059Y-19362D01*
X25072Y-19375D01*
X25335Y-19624D02*
X25177Y-19624D01*
X25256Y-19624D02*
X25256Y-19349D01*
X25230Y-19388D01*
X25204Y-19414D01*
X25177Y-19427D01*
X25466Y-19624D02*
X25519Y-19624D01*
X25545Y-19611D01*
X25558Y-19598D01*
X25584Y-19559D01*
X25597Y-19506D01*
X25597Y-19401D01*
X25584Y-19375D01*
X25571Y-19362D01*
X25545Y-19349D01*
X25492Y-19349D01*
X25466Y-19362D01*
X25453Y-19375D01*
X25440Y-19401D01*
X25440Y-19467D01*
X25453Y-19493D01*
X25466Y-19506D01*
X25492Y-19519D01*
X25545Y-19519D01*
X25571Y-19506D01*
X25584Y-19493D01*
X25597Y-19467D01*
X25848Y-21427D02*
X25861Y-21440D01*
X25874Y-21479D01*
X25874Y-21505D01*
X25861Y-21545D01*
X25835Y-21571D01*
X25809Y-21584D01*
X25756Y-21597D01*
X25717Y-21597D01*
X25664Y-21584D01*
X25638Y-21571D01*
X25612Y-21545D01*
X25599Y-21505D01*
X25599Y-21479D01*
X25612Y-21440D01*
X25625Y-21427D01*
X25625Y-21322D02*
X25612Y-21309D01*
X25599Y-21282D01*
X25599Y-21217D01*
X25612Y-21190D01*
X25625Y-21177D01*
X25651Y-21164D01*
X25677Y-21164D01*
X25717Y-21177D01*
X25874Y-21335D01*
X25874Y-21164D01*
X25599Y-20994D02*
X25599Y-20967D01*
X25612Y-20941D01*
X25625Y-20928D01*
X25651Y-20915D01*
X25704Y-20902D01*
X25769Y-20902D01*
X25822Y-20915D01*
X25848Y-20928D01*
X25861Y-20941D01*
X25874Y-20967D01*
X25874Y-20994D01*
X25861Y-21020D01*
X25848Y-21033D01*
X25822Y-21046D01*
X25769Y-21059D01*
X25704Y-21059D01*
X25651Y-21046D01*
X25625Y-21033D01*
X25612Y-21020D01*
X25599Y-20994D01*
X28348Y-48677D02*
X28361Y-48690D01*
X28374Y-48729D01*
X28374Y-48755D01*
X28361Y-48795D01*
X28335Y-48821D01*
X28309Y-48834D01*
X28256Y-48847D01*
X28217Y-48847D01*
X28164Y-48834D01*
X28138Y-48821D01*
X28112Y-48795D01*
X28099Y-48755D01*
X28099Y-48729D01*
X28112Y-48690D01*
X28125Y-48677D01*
X28125Y-48572D02*
X28112Y-48559D01*
X28099Y-48532D01*
X28099Y-48467D01*
X28112Y-48440D01*
X28125Y-48427D01*
X28151Y-48414D01*
X28177Y-48414D01*
X28217Y-48427D01*
X28374Y-48585D01*
X28374Y-48414D01*
X28374Y-48152D02*
X28374Y-48309D01*
X28374Y-48230D02*
X28099Y-48230D01*
X28138Y-48257D01*
X28164Y-48283D01*
X28177Y-48309D01*
X27348Y-57677D02*
X27361Y-57690D01*
X27374Y-57729D01*
X27374Y-57755D01*
X27361Y-57795D01*
X27335Y-57821D01*
X27309Y-57834D01*
X27256Y-57847D01*
X27217Y-57847D01*
X27164Y-57834D01*
X27138Y-57821D01*
X27112Y-57795D01*
X27099Y-57755D01*
X27099Y-57729D01*
X27112Y-57690D01*
X27125Y-57677D01*
X27125Y-57572D02*
X27112Y-57559D01*
X27099Y-57532D01*
X27099Y-57467D01*
X27112Y-57440D01*
X27125Y-57427D01*
X27151Y-57414D01*
X27177Y-57414D01*
X27217Y-57427D01*
X27374Y-57585D01*
X27374Y-57414D01*
X27125Y-57309D02*
X27112Y-57296D01*
X27099Y-57270D01*
X27099Y-57204D01*
X27112Y-57178D01*
X27125Y-57165D01*
X27151Y-57152D01*
X27177Y-57152D01*
X27217Y-57165D01*
X27374Y-57322D01*
X27374Y-57152D01*
X35572Y-37848D02*
X35559Y-37861D01*
X35520Y-37874D01*
X35494Y-37874D01*
X35454Y-37861D01*
X35428Y-37835D01*
X35415Y-37809D01*
X35402Y-37756D01*
X35402Y-37717D01*
X35415Y-37664D01*
X35428Y-37638D01*
X35454Y-37612D01*
X35494Y-37599D01*
X35520Y-37599D01*
X35559Y-37612D01*
X35572Y-37625D01*
X35677Y-37625D02*
X35690Y-37612D01*
X35717Y-37599D01*
X35782Y-37599D01*
X35809Y-37612D01*
X35822Y-37625D01*
X35835Y-37651D01*
X35835Y-37677D01*
X35822Y-37717D01*
X35664Y-37874D01*
X35835Y-37874D01*
X35927Y-37599D02*
X36097Y-37599D01*
X36005Y-37704D01*
X36045Y-37704D01*
X36071Y-37717D01*
X36084Y-37730D01*
X36097Y-37756D01*
X36097Y-37822D01*
X36084Y-37848D01*
X36071Y-37861D01*
X36045Y-37874D01*
X35966Y-37874D01*
X35940Y-37861D01*
X35927Y-37848D01*
X29848Y-22427D02*
X29861Y-22440D01*
X29874Y-22479D01*
X29874Y-22505D01*
X29861Y-22545D01*
X29835Y-22571D01*
X29809Y-22584D01*
X29756Y-22597D01*
X29717Y-22597D01*
X29664Y-22584D01*
X29638Y-22571D01*
X29612Y-22545D01*
X29599Y-22505D01*
X29599Y-22479D01*
X29612Y-22440D01*
X29625Y-22427D01*
X29625Y-22322D02*
X29612Y-22309D01*
X29599Y-22282D01*
X29599Y-22217D01*
X29612Y-22190D01*
X29625Y-22177D01*
X29651Y-22164D01*
X29677Y-22164D01*
X29717Y-22177D01*
X29874Y-22335D01*
X29874Y-22164D01*
X29690Y-21928D02*
X29874Y-21928D01*
X29585Y-21994D02*
X29782Y-22059D01*
X29782Y-21889D01*
X33072Y-17098D02*
X33059Y-17111D01*
X33020Y-17124D01*
X32994Y-17124D01*
X32954Y-17111D01*
X32928Y-17085D01*
X32915Y-17059D01*
X32902Y-17006D01*
X32902Y-16967D01*
X32915Y-16914D01*
X32928Y-16888D01*
X32954Y-16862D01*
X32994Y-16849D01*
X33020Y-16849D01*
X33059Y-16862D01*
X33072Y-16875D01*
X33177Y-16875D02*
X33190Y-16862D01*
X33217Y-16849D01*
X33282Y-16849D01*
X33309Y-16862D01*
X33322Y-16875D01*
X33335Y-16901D01*
X33335Y-16927D01*
X33322Y-16967D01*
X33164Y-17124D01*
X33335Y-17124D01*
X33584Y-16849D02*
X33453Y-16849D01*
X33440Y-16980D01*
X33453Y-16967D01*
X33479Y-16954D01*
X33545Y-16954D01*
X33571Y-16967D01*
X33584Y-16980D01*
X33597Y-17006D01*
X33597Y-17072D01*
X33584Y-17098D01*
X33571Y-17111D01*
X33545Y-17124D01*
X33479Y-17124D01*
X33453Y-17111D01*
X33440Y-17098D01*
X33072Y-18098D02*
X33059Y-18111D01*
X33020Y-18124D01*
X32994Y-18124D01*
X32954Y-18111D01*
X32928Y-18085D01*
X32915Y-18059D01*
X32902Y-18006D01*
X32902Y-17967D01*
X32915Y-17914D01*
X32928Y-17888D01*
X32954Y-17862D01*
X32994Y-17849D01*
X33020Y-17849D01*
X33059Y-17862D01*
X33072Y-17875D01*
X33177Y-17875D02*
X33190Y-17862D01*
X33217Y-17849D01*
X33282Y-17849D01*
X33309Y-17862D01*
X33322Y-17875D01*
X33335Y-17901D01*
X33335Y-17927D01*
X33322Y-17967D01*
X33164Y-18124D01*
X33335Y-18124D01*
X33571Y-17849D02*
X33519Y-17849D01*
X33492Y-17862D01*
X33479Y-17875D01*
X33453Y-17914D01*
X33440Y-17967D01*
X33440Y-18072D01*
X33453Y-18098D01*
X33466Y-18111D01*
X33492Y-18124D01*
X33545Y-18124D01*
X33571Y-18111D01*
X33584Y-18098D01*
X33597Y-18072D01*
X33597Y-18006D01*
X33584Y-17980D01*
X33571Y-17967D01*
X33545Y-17954D01*
X33492Y-17954D01*
X33466Y-17967D01*
X33453Y-17980D01*
X33440Y-18006D01*
X34572Y-19098D02*
X34559Y-19111D01*
X34520Y-19124D01*
X34494Y-19124D01*
X34454Y-19111D01*
X34428Y-19085D01*
X34415Y-19059D01*
X34402Y-19006D01*
X34402Y-18967D01*
X34415Y-18914D01*
X34428Y-18888D01*
X34454Y-18862D01*
X34494Y-18849D01*
X34520Y-18849D01*
X34559Y-18862D01*
X34572Y-18875D01*
X34677Y-18875D02*
X34690Y-18862D01*
X34717Y-18849D01*
X34782Y-18849D01*
X34809Y-18862D01*
X34822Y-18875D01*
X34835Y-18901D01*
X34835Y-18927D01*
X34822Y-18967D01*
X34664Y-19124D01*
X34835Y-19124D01*
X34927Y-18849D02*
X35110Y-18849D01*
X34992Y-19124D01*
X30848Y-43177D02*
X30861Y-43190D01*
X30874Y-43229D01*
X30874Y-43255D01*
X30861Y-43295D01*
X30835Y-43321D01*
X30809Y-43334D01*
X30756Y-43347D01*
X30717Y-43347D01*
X30664Y-43334D01*
X30638Y-43321D01*
X30612Y-43295D01*
X30599Y-43255D01*
X30599Y-43229D01*
X30612Y-43190D01*
X30625Y-43177D01*
X30625Y-43072D02*
X30612Y-43059D01*
X30599Y-43032D01*
X30599Y-42967D01*
X30612Y-42940D01*
X30625Y-42927D01*
X30651Y-42914D01*
X30677Y-42914D01*
X30717Y-42927D01*
X30874Y-43085D01*
X30874Y-42914D01*
X30717Y-42757D02*
X30704Y-42783D01*
X30690Y-42796D01*
X30664Y-42809D01*
X30651Y-42809D01*
X30625Y-42796D01*
X30612Y-42783D01*
X30599Y-42757D01*
X30599Y-42704D01*
X30612Y-42678D01*
X30625Y-42665D01*
X30651Y-42652D01*
X30664Y-42652D01*
X30690Y-42665D01*
X30704Y-42678D01*
X30717Y-42704D01*
X30717Y-42757D01*
X30730Y-42783D01*
X30743Y-42796D01*
X30769Y-42809D01*
X30822Y-42809D01*
X30848Y-42796D01*
X30861Y-42783D01*
X30874Y-42757D01*
X30874Y-42704D01*
X30861Y-42678D01*
X30848Y-42665D01*
X30822Y-42652D01*
X30769Y-42652D01*
X30743Y-42665D01*
X30730Y-42678D01*
X30717Y-42704D01*
X31348Y-40427D02*
X31361Y-40440D01*
X31374Y-40479D01*
X31374Y-40505D01*
X31361Y-40545D01*
X31335Y-40571D01*
X31309Y-40584D01*
X31256Y-40597D01*
X31217Y-40597D01*
X31164Y-40584D01*
X31138Y-40571D01*
X31112Y-40545D01*
X31099Y-40505D01*
X31099Y-40479D01*
X31112Y-40440D01*
X31125Y-40427D01*
X31125Y-40322D02*
X31112Y-40309D01*
X31099Y-40282D01*
X31099Y-40217D01*
X31112Y-40190D01*
X31125Y-40177D01*
X31151Y-40164D01*
X31177Y-40164D01*
X31217Y-40177D01*
X31374Y-40335D01*
X31374Y-40164D01*
X31374Y-40033D02*
X31374Y-39980D01*
X31361Y-39954D01*
X31348Y-39941D01*
X31309Y-39915D01*
X31256Y-39902D01*
X31151Y-39902D01*
X31125Y-39915D01*
X31112Y-39928D01*
X31099Y-39954D01*
X31099Y-40007D01*
X31112Y-40033D01*
X31125Y-40046D01*
X31151Y-40059D01*
X31217Y-40059D01*
X31243Y-40046D01*
X31256Y-40033D01*
X31269Y-40007D01*
X31269Y-39954D01*
X31256Y-39928D01*
X31243Y-39915D01*
X31217Y-39902D01*
X18322Y-32598D02*
X18309Y-32611D01*
X18270Y-32624D01*
X18244Y-32624D01*
X18204Y-32611D01*
X18178Y-32585D01*
X18165Y-32559D01*
X18152Y-32506D01*
X18152Y-32467D01*
X18165Y-32414D01*
X18178Y-32388D01*
X18204Y-32362D01*
X18244Y-32349D01*
X18270Y-32349D01*
X18309Y-32362D01*
X18322Y-32375D01*
X18414Y-32349D02*
X18585Y-32349D01*
X18493Y-32454D01*
X18532Y-32454D01*
X18559Y-32467D01*
X18572Y-32480D01*
X18585Y-32506D01*
X18585Y-32572D01*
X18572Y-32598D01*
X18559Y-32611D01*
X18532Y-32624D01*
X18454Y-32624D01*
X18427Y-32611D01*
X18414Y-32598D01*
X18755Y-32349D02*
X18782Y-32349D01*
X18808Y-32362D01*
X18821Y-32375D01*
X18834Y-32401D01*
X18847Y-32454D01*
X18847Y-32519D01*
X18834Y-32572D01*
X18821Y-32598D01*
X18808Y-32611D01*
X18782Y-32624D01*
X18755Y-32624D01*
X18729Y-32611D01*
X18716Y-32598D01*
X18703Y-32572D01*
X18690Y-32519D01*
X18690Y-32454D01*
X18703Y-32401D01*
X18716Y-32375D01*
X18729Y-32362D01*
X18755Y-32349D01*
X18348Y-30177D02*
X18361Y-30190D01*
X18374Y-30229D01*
X18374Y-30255D01*
X18361Y-30295D01*
X18335Y-30321D01*
X18309Y-30334D01*
X18256Y-30347D01*
X18217Y-30347D01*
X18164Y-30334D01*
X18138Y-30321D01*
X18112Y-30295D01*
X18099Y-30255D01*
X18099Y-30229D01*
X18112Y-30190D01*
X18125Y-30177D01*
X18099Y-30085D02*
X18099Y-29914D01*
X18204Y-30006D01*
X18204Y-29967D01*
X18217Y-29940D01*
X18230Y-29927D01*
X18256Y-29914D01*
X18322Y-29914D01*
X18348Y-29927D01*
X18361Y-29940D01*
X18374Y-29967D01*
X18374Y-30045D01*
X18361Y-30072D01*
X18348Y-30085D01*
X18374Y-29652D02*
X18374Y-29809D01*
X18374Y-29730D02*
X18099Y-29730D01*
X18138Y-29757D01*
X18164Y-29783D01*
X18177Y-29809D01*
X22072Y-35848D02*
X22059Y-35861D01*
X22020Y-35874D01*
X21994Y-35874D01*
X21954Y-35861D01*
X21928Y-35835D01*
X21915Y-35809D01*
X21902Y-35756D01*
X21902Y-35717D01*
X21915Y-35664D01*
X21928Y-35638D01*
X21954Y-35612D01*
X21994Y-35599D01*
X22020Y-35599D01*
X22059Y-35612D01*
X22072Y-35625D01*
X22164Y-35599D02*
X22335Y-35599D01*
X22243Y-35704D01*
X22282Y-35704D01*
X22309Y-35717D01*
X22322Y-35730D01*
X22335Y-35756D01*
X22335Y-35822D01*
X22322Y-35848D01*
X22309Y-35861D01*
X22282Y-35874D01*
X22204Y-35874D01*
X22177Y-35861D01*
X22164Y-35848D01*
X22440Y-35625D02*
X22453Y-35612D01*
X22479Y-35599D01*
X22545Y-35599D01*
X22571Y-35612D01*
X22584Y-35625D01*
X22597Y-35651D01*
X22597Y-35677D01*
X22584Y-35717D01*
X22427Y-35874D01*
X22597Y-35874D01*
X21072Y-28848D02*
X21059Y-28861D01*
X21020Y-28874D01*
X20994Y-28874D01*
X20954Y-28861D01*
X20928Y-28835D01*
X20915Y-28809D01*
X20902Y-28756D01*
X20902Y-28717D01*
X20915Y-28664D01*
X20928Y-28638D01*
X20954Y-28612D01*
X20994Y-28599D01*
X21020Y-28599D01*
X21059Y-28612D01*
X21072Y-28625D01*
X21164Y-28599D02*
X21335Y-28599D01*
X21243Y-28704D01*
X21282Y-28704D01*
X21309Y-28717D01*
X21322Y-28730D01*
X21335Y-28756D01*
X21335Y-28822D01*
X21322Y-28848D01*
X21309Y-28861D01*
X21282Y-28874D01*
X21204Y-28874D01*
X21177Y-28861D01*
X21164Y-28848D01*
X21427Y-28599D02*
X21597Y-28599D01*
X21505Y-28704D01*
X21545Y-28704D01*
X21571Y-28717D01*
X21584Y-28730D01*
X21597Y-28756D01*
X21597Y-28822D01*
X21584Y-28848D01*
X21571Y-28861D01*
X21545Y-28874D01*
X21466Y-28874D01*
X21440Y-28861D01*
X21427Y-28848D01*
X24848Y-30677D02*
X24861Y-30690D01*
X24874Y-30729D01*
X24874Y-30755D01*
X24861Y-30795D01*
X24835Y-30821D01*
X24809Y-30834D01*
X24756Y-30847D01*
X24717Y-30847D01*
X24664Y-30834D01*
X24638Y-30821D01*
X24612Y-30795D01*
X24599Y-30755D01*
X24599Y-30729D01*
X24612Y-30690D01*
X24625Y-30677D01*
X24599Y-30585D02*
X24599Y-30414D01*
X24704Y-30506D01*
X24704Y-30467D01*
X24717Y-30440D01*
X24730Y-30427D01*
X24756Y-30414D01*
X24822Y-30414D01*
X24848Y-30427D01*
X24861Y-30440D01*
X24874Y-30467D01*
X24874Y-30545D01*
X24861Y-30572D01*
X24848Y-30585D01*
X24690Y-30178D02*
X24874Y-30178D01*
X24585Y-30244D02*
X24782Y-30309D01*
X24782Y-30139D01*
X14296Y-27374D02*
X14296Y-27099D01*
X14362Y-27099D01*
X14401Y-27112D01*
X14427Y-27138D01*
X14440Y-27164D01*
X14454Y-27217D01*
X14454Y-27256D01*
X14440Y-27309D01*
X14427Y-27335D01*
X14401Y-27361D01*
X14362Y-27374D01*
X14296Y-27374D01*
X14716Y-27374D02*
X14559Y-27374D01*
X14637Y-27374D02*
X14637Y-27099D01*
X14611Y-27138D01*
X14585Y-27164D01*
X14559Y-27177D01*
X14874Y-22953D02*
X14599Y-22953D01*
X14599Y-22887D01*
X14612Y-22848D01*
X14638Y-22822D01*
X14664Y-22809D01*
X14717Y-22795D01*
X14756Y-22795D01*
X14809Y-22809D01*
X14835Y-22822D01*
X14861Y-22848D01*
X14874Y-22887D01*
X14874Y-22953D01*
X14625Y-22690D02*
X14612Y-22677D01*
X14599Y-22651D01*
X14599Y-22585D01*
X14612Y-22559D01*
X14625Y-22546D01*
X14651Y-22533D01*
X14677Y-22533D01*
X14717Y-22546D01*
X14874Y-22704D01*
X14874Y-22533D01*
X35171Y-41999D02*
X35171Y-41724D01*
X35237Y-41724D01*
X35276Y-41737D01*
X35302Y-41763D01*
X35315Y-41789D01*
X35329Y-41842D01*
X35329Y-41881D01*
X35315Y-41934D01*
X35302Y-41960D01*
X35276Y-41986D01*
X35237Y-41999D01*
X35171Y-41999D01*
X35420Y-41724D02*
X35591Y-41724D01*
X35499Y-41829D01*
X35539Y-41829D01*
X35565Y-41842D01*
X35578Y-41855D01*
X35591Y-41881D01*
X35591Y-41947D01*
X35578Y-41973D01*
X35565Y-41986D01*
X35539Y-41999D01*
X35460Y-41999D01*
X35434Y-41986D01*
X35420Y-41973D01*
X35171Y-40999D02*
X35171Y-40724D01*
X35237Y-40724D01*
X35276Y-40737D01*
X35302Y-40763D01*
X35315Y-40789D01*
X35329Y-40842D01*
X35329Y-40881D01*
X35315Y-40934D01*
X35302Y-40960D01*
X35276Y-40986D01*
X35237Y-40999D01*
X35171Y-40999D01*
X35565Y-40815D02*
X35565Y-40999D01*
X35499Y-40710D02*
X35434Y-40907D01*
X35604Y-40907D01*
X15124Y-29453D02*
X14849Y-29453D01*
X14849Y-29387D01*
X14862Y-29348D01*
X14888Y-29322D01*
X14914Y-29309D01*
X14967Y-29295D01*
X15006Y-29295D01*
X15059Y-29309D01*
X15085Y-29322D01*
X15111Y-29348D01*
X15124Y-29387D01*
X15124Y-29453D01*
X14849Y-29046D02*
X14849Y-29177D01*
X14980Y-29190D01*
X14967Y-29177D01*
X14954Y-29151D01*
X14954Y-29085D01*
X14967Y-29059D01*
X14980Y-29046D01*
X15006Y-29033D01*
X15072Y-29033D01*
X15098Y-29046D01*
X15111Y-29059D01*
X15124Y-29085D01*
X15124Y-29151D01*
X15111Y-29177D01*
X15098Y-29190D01*
X15374Y-32203D02*
X15099Y-32203D01*
X15099Y-32137D01*
X15112Y-32098D01*
X15138Y-32072D01*
X15164Y-32059D01*
X15217Y-32045D01*
X15256Y-32045D01*
X15309Y-32059D01*
X15335Y-32072D01*
X15361Y-32098D01*
X15374Y-32137D01*
X15374Y-32203D01*
X15099Y-31809D02*
X15099Y-31862D01*
X15112Y-31888D01*
X15125Y-31901D01*
X15164Y-31927D01*
X15217Y-31940D01*
X15322Y-31940D01*
X15348Y-31927D01*
X15361Y-31914D01*
X15374Y-31888D01*
X15374Y-31835D01*
X15361Y-31809D01*
X15348Y-31796D01*
X15322Y-31783D01*
X15256Y-31783D01*
X15230Y-31796D01*
X15217Y-31809D01*
X15204Y-31835D01*
X15204Y-31888D01*
X15217Y-31914D01*
X15230Y-31927D01*
X15256Y-31940D01*
X13158Y-34099D02*
X13158Y-34295D01*
X13145Y-34335D01*
X13118Y-34361D01*
X13079Y-34374D01*
X13053Y-34374D01*
X13433Y-34374D02*
X13276Y-34374D01*
X13354Y-34374D02*
X13354Y-34099D01*
X13328Y-34138D01*
X13302Y-34164D01*
X13276Y-34177D01*
X25599Y-13591D02*
X25795Y-13591D01*
X25835Y-13604D01*
X25861Y-13631D01*
X25874Y-13670D01*
X25874Y-13696D01*
X25625Y-13473D02*
X25612Y-13460D01*
X25599Y-13434D01*
X25599Y-13368D01*
X25612Y-13342D01*
X25625Y-13329D01*
X25651Y-13316D01*
X25677Y-13316D01*
X25717Y-13329D01*
X25874Y-13486D01*
X25874Y-13316D01*
X38408Y-37849D02*
X38408Y-38045D01*
X38395Y-38085D01*
X38368Y-38111D01*
X38329Y-38124D01*
X38303Y-38124D01*
X38513Y-37849D02*
X38683Y-37849D01*
X38591Y-37954D01*
X38631Y-37954D01*
X38657Y-37967D01*
X38670Y-37980D01*
X38683Y-38006D01*
X38683Y-38072D01*
X38670Y-38098D01*
X38657Y-38111D01*
X38631Y-38124D01*
X38552Y-38124D01*
X38526Y-38111D01*
X38513Y-38098D01*
X39908Y-16599D02*
X39908Y-16795D01*
X39895Y-16835D01*
X39868Y-16861D01*
X39829Y-16874D01*
X39803Y-16874D01*
X40157Y-16690D02*
X40157Y-16874D01*
X40091Y-16585D02*
X40026Y-16782D01*
X40196Y-16782D01*
X13546Y-17124D02*
X13546Y-16849D01*
X13704Y-17124D02*
X13585Y-16967D01*
X13704Y-16849D02*
X13546Y-17006D01*
X13809Y-16875D02*
X13822Y-16862D01*
X13848Y-16849D01*
X13914Y-16849D01*
X13940Y-16862D01*
X13953Y-16875D01*
X13966Y-16901D01*
X13966Y-16927D01*
X13953Y-16967D01*
X13795Y-17124D01*
X13966Y-17124D01*
X39296Y-24374D02*
X39296Y-24099D01*
X39454Y-24374D02*
X39335Y-24217D01*
X39454Y-24099D02*
X39296Y-24256D01*
X39545Y-24099D02*
X39716Y-24099D01*
X39624Y-24204D01*
X39664Y-24204D01*
X39690Y-24217D01*
X39703Y-24230D01*
X39716Y-24256D01*
X39716Y-24322D01*
X39703Y-24348D01*
X39690Y-24361D01*
X39664Y-24374D01*
X39585Y-24374D01*
X39559Y-24361D01*
X39545Y-24348D01*
X13374Y-25703D02*
X13099Y-25703D01*
X13374Y-25545D02*
X13217Y-25664D01*
X13099Y-25545D02*
X13256Y-25703D01*
X13190Y-25309D02*
X13374Y-25309D01*
X13085Y-25375D02*
X13282Y-25440D01*
X13282Y-25270D01*
X27249Y-36545D02*
X27249Y-36677D01*
X26974Y-36677D01*
X26974Y-36480D02*
X26974Y-36309D01*
X27079Y-36401D01*
X27079Y-36362D01*
X27092Y-36335D01*
X27105Y-36322D01*
X27131Y-36309D01*
X27197Y-36309D01*
X27223Y-36322D01*
X27236Y-36335D01*
X27249Y-36362D01*
X27249Y-36440D01*
X27236Y-36467D01*
X27223Y-36480D01*
X28704Y-20499D02*
X28572Y-20499D01*
X28572Y-20224D01*
X28914Y-20315D02*
X28914Y-20499D01*
X28848Y-20210D02*
X28782Y-20407D01*
X28953Y-20407D01*
X32874Y-20295D02*
X32874Y-20427D01*
X32599Y-20427D01*
X32599Y-20072D02*
X32599Y-20204D01*
X32730Y-20217D01*
X32717Y-20204D01*
X32704Y-20177D01*
X32704Y-20112D01*
X32717Y-20085D01*
X32730Y-20072D01*
X32756Y-20059D01*
X32822Y-20059D01*
X32848Y-20072D01*
X32861Y-20085D01*
X32874Y-20112D01*
X32874Y-20177D01*
X32861Y-20204D01*
X32848Y-20217D01*
X21546Y-24124D02*
X21546Y-23849D01*
X21651Y-23849D01*
X21677Y-23862D01*
X21690Y-23875D01*
X21704Y-23901D01*
X21704Y-23940D01*
X21690Y-23967D01*
X21677Y-23980D01*
X21651Y-23993D01*
X21546Y-23993D01*
X21966Y-24124D02*
X21809Y-24124D01*
X21887Y-24124D02*
X21887Y-23849D01*
X21861Y-23888D01*
X21835Y-23914D01*
X21809Y-23927D01*
X40796Y-39874D02*
X40796Y-39599D01*
X40901Y-39599D01*
X40927Y-39612D01*
X40940Y-39625D01*
X40954Y-39651D01*
X40954Y-39690D01*
X40940Y-39717D01*
X40927Y-39730D01*
X40901Y-39743D01*
X40796Y-39743D01*
X41059Y-39625D02*
X41072Y-39612D01*
X41098Y-39599D01*
X41164Y-39599D01*
X41190Y-39612D01*
X41203Y-39625D01*
X41216Y-39651D01*
X41216Y-39677D01*
X41203Y-39717D01*
X41045Y-39874D01*
X41216Y-39874D01*
X40546Y-45124D02*
X40546Y-44849D01*
X40651Y-44849D01*
X40677Y-44862D01*
X40690Y-44875D01*
X40704Y-44901D01*
X40704Y-44940D01*
X40690Y-44967D01*
X40677Y-44980D01*
X40651Y-44993D01*
X40546Y-44993D01*
X40795Y-44849D02*
X40966Y-44849D01*
X40874Y-44954D01*
X40914Y-44954D01*
X40940Y-44967D01*
X40953Y-44980D01*
X40966Y-45006D01*
X40966Y-45072D01*
X40953Y-45098D01*
X40940Y-45111D01*
X40914Y-45124D01*
X40835Y-45124D01*
X40809Y-45111D01*
X40795Y-45098D01*
X14046Y-29874D02*
X14046Y-29599D01*
X14151Y-29599D01*
X14177Y-29612D01*
X14190Y-29625D01*
X14204Y-29651D01*
X14204Y-29690D01*
X14190Y-29717D01*
X14177Y-29730D01*
X14151Y-29743D01*
X14046Y-29743D01*
X14440Y-29690D02*
X14440Y-29874D01*
X14374Y-29585D02*
X14309Y-29782D01*
X14479Y-29782D01*
X19374Y-38045D02*
X19243Y-38137D01*
X19374Y-38203D02*
X19099Y-38203D01*
X19099Y-38098D01*
X19112Y-38072D01*
X19125Y-38059D01*
X19151Y-38045D01*
X19190Y-38045D01*
X19217Y-38059D01*
X19230Y-38072D01*
X19243Y-38098D01*
X19243Y-38203D01*
X19374Y-37783D02*
X19374Y-37940D01*
X19374Y-37862D02*
X19099Y-37862D01*
X19138Y-37888D01*
X19164Y-37914D01*
X19177Y-37940D01*
X21204Y-36374D02*
X21112Y-36243D01*
X21046Y-36374D02*
X21046Y-36099D01*
X21151Y-36099D01*
X21177Y-36112D01*
X21190Y-36125D01*
X21204Y-36151D01*
X21204Y-36190D01*
X21190Y-36217D01*
X21177Y-36230D01*
X21151Y-36243D01*
X21046Y-36243D01*
X21309Y-36125D02*
X21322Y-36112D01*
X21348Y-36099D01*
X21414Y-36099D01*
X21440Y-36112D01*
X21453Y-36125D01*
X21466Y-36151D01*
X21466Y-36177D01*
X21453Y-36217D01*
X21295Y-36374D01*
X21466Y-36374D01*
X21874Y-38045D02*
X21743Y-38137D01*
X21874Y-38203D02*
X21599Y-38203D01*
X21599Y-38098D01*
X21612Y-38072D01*
X21625Y-38059D01*
X21651Y-38045D01*
X21690Y-38045D01*
X21717Y-38059D01*
X21730Y-38072D01*
X21743Y-38098D01*
X21743Y-38203D01*
X21599Y-37954D02*
X21599Y-37783D01*
X21704Y-37875D01*
X21704Y-37835D01*
X21717Y-37809D01*
X21730Y-37796D01*
X21756Y-37783D01*
X21822Y-37783D01*
X21848Y-37796D01*
X21861Y-37809D01*
X21874Y-37835D01*
X21874Y-37914D01*
X21861Y-37940D01*
X21848Y-37954D01*
X14954Y-21624D02*
X14862Y-21493D01*
X14796Y-21624D02*
X14796Y-21349D01*
X14901Y-21349D01*
X14927Y-21362D01*
X14940Y-21375D01*
X14954Y-21401D01*
X14954Y-21440D01*
X14940Y-21467D01*
X14927Y-21480D01*
X14901Y-21493D01*
X14796Y-21493D01*
X15190Y-21440D02*
X15190Y-21624D01*
X15124Y-21335D02*
X15059Y-21532D01*
X15229Y-21532D01*
X17454Y-20374D02*
X17362Y-20243D01*
X17296Y-20374D02*
X17296Y-20099D01*
X17401Y-20099D01*
X17427Y-20112D01*
X17440Y-20125D01*
X17454Y-20151D01*
X17454Y-20190D01*
X17440Y-20217D01*
X17427Y-20230D01*
X17401Y-20243D01*
X17296Y-20243D01*
X17703Y-20099D02*
X17572Y-20099D01*
X17559Y-20230D01*
X17572Y-20217D01*
X17598Y-20204D01*
X17664Y-20204D01*
X17690Y-20217D01*
X17703Y-20230D01*
X17716Y-20256D01*
X17716Y-20322D01*
X17703Y-20348D01*
X17690Y-20361D01*
X17664Y-20374D01*
X17598Y-20374D01*
X17572Y-20361D01*
X17559Y-20348D01*
X16454Y-26874D02*
X16362Y-26743D01*
X16296Y-26874D02*
X16296Y-26599D01*
X16401Y-26599D01*
X16427Y-26612D01*
X16440Y-26625D01*
X16454Y-26651D01*
X16454Y-26690D01*
X16440Y-26717D01*
X16427Y-26730D01*
X16401Y-26743D01*
X16296Y-26743D01*
X16690Y-26599D02*
X16637Y-26599D01*
X16611Y-26612D01*
X16598Y-26625D01*
X16572Y-26664D01*
X16559Y-26717D01*
X16559Y-26822D01*
X16572Y-26848D01*
X16585Y-26861D01*
X16611Y-26874D01*
X16664Y-26874D01*
X16690Y-26861D01*
X16703Y-26848D01*
X16716Y-26822D01*
X16716Y-26756D01*
X16703Y-26730D01*
X16690Y-26717D01*
X16664Y-26704D01*
X16611Y-26704D01*
X16585Y-26717D01*
X16572Y-26730D01*
X16559Y-26756D01*
X16874Y-23795D02*
X16743Y-23887D01*
X16874Y-23953D02*
X16599Y-23953D01*
X16599Y-23848D01*
X16612Y-23822D01*
X16625Y-23809D01*
X16651Y-23795D01*
X16690Y-23795D01*
X16717Y-23809D01*
X16730Y-23822D01*
X16743Y-23848D01*
X16743Y-23953D01*
X16599Y-23704D02*
X16599Y-23520D01*
X16874Y-23638D01*
X16874Y-24545D02*
X16743Y-24637D01*
X16874Y-24703D02*
X16599Y-24703D01*
X16599Y-24598D01*
X16612Y-24572D01*
X16625Y-24559D01*
X16651Y-24545D01*
X16690Y-24545D01*
X16717Y-24559D01*
X16730Y-24572D01*
X16743Y-24598D01*
X16743Y-24703D01*
X16717Y-24388D02*
X16704Y-24414D01*
X16690Y-24427D01*
X16664Y-24440D01*
X16651Y-24440D01*
X16625Y-24427D01*
X16612Y-24414D01*
X16599Y-24388D01*
X16599Y-24335D01*
X16612Y-24309D01*
X16625Y-24296D01*
X16651Y-24283D01*
X16664Y-24283D01*
X16690Y-24296D01*
X16704Y-24309D01*
X16717Y-24335D01*
X16717Y-24388D01*
X16730Y-24414D01*
X16743Y-24427D01*
X16769Y-24440D01*
X16822Y-24440D01*
X16848Y-24427D01*
X16861Y-24414D01*
X16874Y-24388D01*
X16874Y-24335D01*
X16861Y-24309D01*
X16848Y-24296D01*
X16822Y-24283D01*
X16769Y-24283D01*
X16743Y-24296D01*
X16730Y-24309D01*
X16717Y-24335D01*
X21124Y-23427D02*
X20993Y-23519D01*
X21124Y-23584D02*
X20849Y-23584D01*
X20849Y-23479D01*
X20862Y-23453D01*
X20875Y-23440D01*
X20901Y-23427D01*
X20940Y-23427D01*
X20967Y-23440D01*
X20980Y-23453D01*
X20993Y-23479D01*
X20993Y-23584D01*
X21124Y-23164D02*
X21124Y-23322D01*
X21124Y-23243D02*
X20849Y-23243D01*
X20888Y-23269D01*
X20914Y-23295D01*
X20927Y-23322D01*
X21124Y-22902D02*
X21124Y-23059D01*
X21124Y-22980D02*
X20849Y-22980D01*
X20888Y-23007D01*
X20914Y-23033D01*
X20927Y-23059D01*
X26374Y-31427D02*
X26243Y-31519D01*
X26374Y-31584D02*
X26099Y-31584D01*
X26099Y-31479D01*
X26112Y-31453D01*
X26125Y-31440D01*
X26151Y-31427D01*
X26190Y-31427D01*
X26217Y-31440D01*
X26230Y-31453D01*
X26243Y-31479D01*
X26243Y-31584D01*
X26374Y-31164D02*
X26374Y-31322D01*
X26374Y-31243D02*
X26099Y-31243D01*
X26138Y-31269D01*
X26164Y-31295D01*
X26177Y-31322D01*
X26125Y-31059D02*
X26112Y-31046D01*
X26099Y-31020D01*
X26099Y-30954D01*
X26112Y-30928D01*
X26125Y-30915D01*
X26151Y-30902D01*
X26177Y-30902D01*
X26217Y-30915D01*
X26374Y-31072D01*
X26374Y-30902D01*
X21322Y-21624D02*
X21230Y-21493D01*
X21165Y-21624D02*
X21165Y-21349D01*
X21270Y-21349D01*
X21296Y-21362D01*
X21309Y-21375D01*
X21322Y-21401D01*
X21322Y-21440D01*
X21309Y-21467D01*
X21296Y-21480D01*
X21270Y-21493D01*
X21165Y-21493D01*
X21585Y-21624D02*
X21427Y-21624D01*
X21506Y-21624D02*
X21506Y-21349D01*
X21480Y-21388D01*
X21454Y-21414D01*
X21427Y-21427D01*
X21677Y-21349D02*
X21847Y-21349D01*
X21755Y-21454D01*
X21795Y-21454D01*
X21821Y-21467D01*
X21834Y-21480D01*
X21847Y-21506D01*
X21847Y-21572D01*
X21834Y-21598D01*
X21821Y-21611D01*
X21795Y-21624D01*
X21716Y-21624D01*
X21690Y-21611D01*
X21677Y-21598D01*
X23624Y-23427D02*
X23493Y-23519D01*
X23624Y-23584D02*
X23349Y-23584D01*
X23349Y-23479D01*
X23362Y-23453D01*
X23375Y-23440D01*
X23401Y-23427D01*
X23440Y-23427D01*
X23467Y-23440D01*
X23480Y-23453D01*
X23493Y-23479D01*
X23493Y-23584D01*
X23624Y-23164D02*
X23624Y-23322D01*
X23624Y-23243D02*
X23349Y-23243D01*
X23388Y-23269D01*
X23414Y-23295D01*
X23427Y-23322D01*
X23440Y-22928D02*
X23624Y-22928D01*
X23335Y-22994D02*
X23532Y-23059D01*
X23532Y-22889D01*
X30124Y-38677D02*
X29993Y-38769D01*
X30124Y-38834D02*
X29849Y-38834D01*
X29849Y-38729D01*
X29862Y-38703D01*
X29875Y-38690D01*
X29901Y-38677D01*
X29940Y-38677D01*
X29967Y-38690D01*
X29980Y-38703D01*
X29993Y-38729D01*
X29993Y-38834D01*
X30124Y-38414D02*
X30124Y-38572D01*
X30124Y-38493D02*
X29849Y-38493D01*
X29888Y-38519D01*
X29914Y-38545D01*
X29927Y-38572D01*
X29849Y-38165D02*
X29849Y-38296D01*
X29980Y-38309D01*
X29967Y-38296D01*
X29954Y-38270D01*
X29954Y-38204D01*
X29967Y-38178D01*
X29980Y-38165D01*
X30006Y-38152D01*
X30072Y-38152D01*
X30098Y-38165D01*
X30111Y-38178D01*
X30124Y-38204D01*
X30124Y-38270D01*
X30111Y-38296D01*
X30098Y-38309D01*
X33822Y-38624D02*
X33730Y-38493D01*
X33665Y-38624D02*
X33665Y-38349D01*
X33770Y-38349D01*
X33796Y-38362D01*
X33809Y-38375D01*
X33822Y-38401D01*
X33822Y-38440D01*
X33809Y-38467D01*
X33796Y-38480D01*
X33770Y-38493D01*
X33665Y-38493D01*
X34085Y-38624D02*
X33927Y-38624D01*
X34006Y-38624D02*
X34006Y-38349D01*
X33980Y-38388D01*
X33954Y-38414D01*
X33927Y-38427D01*
X34321Y-38349D02*
X34269Y-38349D01*
X34242Y-38362D01*
X34229Y-38375D01*
X34203Y-38414D01*
X34190Y-38467D01*
X34190Y-38572D01*
X34203Y-38598D01*
X34216Y-38611D01*
X34242Y-38624D01*
X34295Y-38624D01*
X34321Y-38611D01*
X34334Y-38598D01*
X34347Y-38572D01*
X34347Y-38506D01*
X34334Y-38480D01*
X34321Y-38467D01*
X34295Y-38454D01*
X34242Y-38454D01*
X34216Y-38467D01*
X34203Y-38480D01*
X34190Y-38506D01*
X28374Y-21427D02*
X28243Y-21519D01*
X28374Y-21584D02*
X28099Y-21584D01*
X28099Y-21479D01*
X28112Y-21453D01*
X28125Y-21440D01*
X28151Y-21427D01*
X28190Y-21427D01*
X28217Y-21440D01*
X28230Y-21453D01*
X28243Y-21479D01*
X28243Y-21584D01*
X28374Y-21164D02*
X28374Y-21322D01*
X28374Y-21243D02*
X28099Y-21243D01*
X28138Y-21269D01*
X28164Y-21295D01*
X28177Y-21322D01*
X28099Y-21072D02*
X28099Y-20889D01*
X28374Y-21007D01*
X25072Y-49374D02*
X24980Y-49243D01*
X24915Y-49374D02*
X24915Y-49099D01*
X25020Y-49099D01*
X25046Y-49112D01*
X25059Y-49125D01*
X25072Y-49151D01*
X25072Y-49190D01*
X25059Y-49217D01*
X25046Y-49230D01*
X25020Y-49243D01*
X24915Y-49243D01*
X25335Y-49374D02*
X25177Y-49374D01*
X25256Y-49374D02*
X25256Y-49099D01*
X25230Y-49138D01*
X25204Y-49164D01*
X25177Y-49177D01*
X25492Y-49217D02*
X25466Y-49204D01*
X25453Y-49190D01*
X25440Y-49164D01*
X25440Y-49151D01*
X25453Y-49125D01*
X25466Y-49112D01*
X25492Y-49099D01*
X25545Y-49099D01*
X25571Y-49112D01*
X25584Y-49125D01*
X25597Y-49151D01*
X25597Y-49164D01*
X25584Y-49190D01*
X25571Y-49204D01*
X25545Y-49217D01*
X25492Y-49217D01*
X25466Y-49230D01*
X25453Y-49243D01*
X25440Y-49269D01*
X25440Y-49322D01*
X25453Y-49348D01*
X25466Y-49361D01*
X25492Y-49374D01*
X25545Y-49374D01*
X25571Y-49361D01*
X25584Y-49348D01*
X25597Y-49322D01*
X25597Y-49269D01*
X25584Y-49243D01*
X25571Y-49230D01*
X25545Y-49217D01*
X30072Y-46874D02*
X29980Y-46743D01*
X29915Y-46874D02*
X29915Y-46599D01*
X30020Y-46599D01*
X30046Y-46612D01*
X30059Y-46625D01*
X30072Y-46651D01*
X30072Y-46690D01*
X30059Y-46717D01*
X30046Y-46730D01*
X30020Y-46743D01*
X29915Y-46743D01*
X30335Y-46874D02*
X30177Y-46874D01*
X30256Y-46874D02*
X30256Y-46599D01*
X30230Y-46638D01*
X30204Y-46664D01*
X30177Y-46677D01*
X30466Y-46874D02*
X30519Y-46874D01*
X30545Y-46861D01*
X30558Y-46848D01*
X30584Y-46809D01*
X30597Y-46756D01*
X30597Y-46651D01*
X30584Y-46625D01*
X30571Y-46612D01*
X30545Y-46599D01*
X30492Y-46599D01*
X30466Y-46612D01*
X30453Y-46625D01*
X30440Y-46651D01*
X30440Y-46717D01*
X30453Y-46743D01*
X30466Y-46756D01*
X30492Y-46769D01*
X30545Y-46769D01*
X30571Y-46756D01*
X30584Y-46743D01*
X30597Y-46717D01*
X32374Y-21927D02*
X32243Y-22019D01*
X32374Y-22084D02*
X32099Y-22084D01*
X32099Y-21979D01*
X32112Y-21953D01*
X32125Y-21940D01*
X32151Y-21927D01*
X32190Y-21927D01*
X32217Y-21940D01*
X32230Y-21953D01*
X32243Y-21979D01*
X32243Y-22084D01*
X32125Y-21822D02*
X32112Y-21809D01*
X32099Y-21782D01*
X32099Y-21717D01*
X32112Y-21690D01*
X32125Y-21677D01*
X32151Y-21664D01*
X32177Y-21664D01*
X32217Y-21677D01*
X32374Y-21835D01*
X32374Y-21664D01*
X32099Y-21494D02*
X32099Y-21467D01*
X32112Y-21441D01*
X32125Y-21428D01*
X32151Y-21415D01*
X32204Y-21402D01*
X32269Y-21402D01*
X32322Y-21415D01*
X32348Y-21428D01*
X32361Y-21441D01*
X32374Y-21467D01*
X32374Y-21494D01*
X32361Y-21520D01*
X32348Y-21533D01*
X32322Y-21546D01*
X32269Y-21559D01*
X32204Y-21559D01*
X32151Y-21546D01*
X32125Y-21533D01*
X32112Y-21520D01*
X32099Y-21494D01*
X33322Y-19124D02*
X33230Y-18993D01*
X33165Y-19124D02*
X33165Y-18849D01*
X33270Y-18849D01*
X33296Y-18862D01*
X33309Y-18875D01*
X33322Y-18901D01*
X33322Y-18940D01*
X33309Y-18967D01*
X33296Y-18980D01*
X33270Y-18993D01*
X33165Y-18993D01*
X33427Y-18875D02*
X33440Y-18862D01*
X33467Y-18849D01*
X33532Y-18849D01*
X33559Y-18862D01*
X33572Y-18875D01*
X33585Y-18901D01*
X33585Y-18927D01*
X33572Y-18967D01*
X33414Y-19124D01*
X33585Y-19124D01*
X33847Y-19124D02*
X33690Y-19124D01*
X33769Y-19124D02*
X33769Y-18849D01*
X33742Y-18888D01*
X33716Y-18914D01*
X33690Y-18927D01*
X35822Y-19124D02*
X35730Y-18993D01*
X35665Y-19124D02*
X35665Y-18849D01*
X35770Y-18849D01*
X35796Y-18862D01*
X35809Y-18875D01*
X35822Y-18901D01*
X35822Y-18940D01*
X35809Y-18967D01*
X35796Y-18980D01*
X35770Y-18993D01*
X35665Y-18993D01*
X35927Y-18875D02*
X35940Y-18862D01*
X35967Y-18849D01*
X36032Y-18849D01*
X36059Y-18862D01*
X36072Y-18875D01*
X36085Y-18901D01*
X36085Y-18927D01*
X36072Y-18967D01*
X35914Y-19124D01*
X36085Y-19124D01*
X36190Y-18875D02*
X36203Y-18862D01*
X36229Y-18849D01*
X36295Y-18849D01*
X36321Y-18862D01*
X36334Y-18875D01*
X36347Y-18901D01*
X36347Y-18927D01*
X36334Y-18967D01*
X36177Y-19124D01*
X36347Y-19124D01*
X38072Y-40374D02*
X37980Y-40243D01*
X37915Y-40374D02*
X37915Y-40099D01*
X38020Y-40099D01*
X38046Y-40112D01*
X38059Y-40125D01*
X38072Y-40151D01*
X38072Y-40190D01*
X38059Y-40217D01*
X38046Y-40230D01*
X38020Y-40243D01*
X37915Y-40243D01*
X38177Y-40125D02*
X38190Y-40112D01*
X38217Y-40099D01*
X38282Y-40099D01*
X38309Y-40112D01*
X38322Y-40125D01*
X38335Y-40151D01*
X38335Y-40177D01*
X38322Y-40217D01*
X38164Y-40374D01*
X38335Y-40374D01*
X38427Y-40099D02*
X38597Y-40099D01*
X38505Y-40204D01*
X38545Y-40204D01*
X38571Y-40217D01*
X38584Y-40230D01*
X38597Y-40256D01*
X38597Y-40322D01*
X38584Y-40348D01*
X38571Y-40361D01*
X38545Y-40374D01*
X38466Y-40374D01*
X38440Y-40361D01*
X38427Y-40348D01*
X38624Y-43927D02*
X38493Y-44019D01*
X38624Y-44084D02*
X38349Y-44084D01*
X38349Y-43979D01*
X38362Y-43953D01*
X38375Y-43940D01*
X38401Y-43927D01*
X38440Y-43927D01*
X38467Y-43940D01*
X38480Y-43953D01*
X38493Y-43979D01*
X38493Y-44084D01*
X38375Y-43822D02*
X38362Y-43809D01*
X38349Y-43782D01*
X38349Y-43717D01*
X38362Y-43690D01*
X38375Y-43677D01*
X38401Y-43664D01*
X38427Y-43664D01*
X38467Y-43677D01*
X38624Y-43835D01*
X38624Y-43664D01*
X38440Y-43428D02*
X38624Y-43428D01*
X38335Y-43494D02*
X38532Y-43559D01*
X38532Y-43389D01*
X38624Y-45677D02*
X38493Y-45769D01*
X38624Y-45834D02*
X38349Y-45834D01*
X38349Y-45729D01*
X38362Y-45703D01*
X38375Y-45690D01*
X38401Y-45677D01*
X38440Y-45677D01*
X38467Y-45690D01*
X38480Y-45703D01*
X38493Y-45729D01*
X38493Y-45834D01*
X38375Y-45572D02*
X38362Y-45559D01*
X38349Y-45532D01*
X38349Y-45467D01*
X38362Y-45440D01*
X38375Y-45427D01*
X38401Y-45414D01*
X38427Y-45414D01*
X38467Y-45427D01*
X38624Y-45585D01*
X38624Y-45414D01*
X38349Y-45165D02*
X38349Y-45296D01*
X38480Y-45309D01*
X38467Y-45296D01*
X38454Y-45270D01*
X38454Y-45204D01*
X38467Y-45178D01*
X38480Y-45165D01*
X38506Y-45152D01*
X38572Y-45152D01*
X38598Y-45165D01*
X38611Y-45178D01*
X38624Y-45204D01*
X38624Y-45270D01*
X38611Y-45296D01*
X38598Y-45309D01*
X38322Y-48124D02*
X38230Y-47993D01*
X38165Y-48124D02*
X38165Y-47849D01*
X38270Y-47849D01*
X38296Y-47862D01*
X38309Y-47875D01*
X38322Y-47901D01*
X38322Y-47940D01*
X38309Y-47967D01*
X38296Y-47980D01*
X38270Y-47993D01*
X38165Y-47993D01*
X38427Y-47875D02*
X38440Y-47862D01*
X38467Y-47849D01*
X38532Y-47849D01*
X38559Y-47862D01*
X38572Y-47875D01*
X38585Y-47901D01*
X38585Y-47927D01*
X38572Y-47967D01*
X38414Y-48124D01*
X38585Y-48124D01*
X38821Y-47849D02*
X38769Y-47849D01*
X38742Y-47862D01*
X38729Y-47875D01*
X38703Y-47914D01*
X38690Y-47967D01*
X38690Y-48072D01*
X38703Y-48098D01*
X38716Y-48111D01*
X38742Y-48124D01*
X38795Y-48124D01*
X38821Y-48111D01*
X38834Y-48098D01*
X38847Y-48072D01*
X38847Y-48006D01*
X38834Y-47980D01*
X38821Y-47967D01*
X38795Y-47954D01*
X38742Y-47954D01*
X38716Y-47967D01*
X38703Y-47980D01*
X38690Y-48006D01*
X37072Y-19124D02*
X36980Y-18993D01*
X36915Y-19124D02*
X36915Y-18849D01*
X37020Y-18849D01*
X37046Y-18862D01*
X37059Y-18875D01*
X37072Y-18901D01*
X37072Y-18940D01*
X37059Y-18967D01*
X37046Y-18980D01*
X37020Y-18993D01*
X36915Y-18993D01*
X37177Y-18875D02*
X37190Y-18862D01*
X37217Y-18849D01*
X37282Y-18849D01*
X37309Y-18862D01*
X37322Y-18875D01*
X37335Y-18901D01*
X37335Y-18927D01*
X37322Y-18967D01*
X37164Y-19124D01*
X37335Y-19124D01*
X37427Y-18849D02*
X37610Y-18849D01*
X37492Y-19124D01*
X39572Y-39874D02*
X39480Y-39743D01*
X39415Y-39874D02*
X39415Y-39599D01*
X39520Y-39599D01*
X39546Y-39612D01*
X39559Y-39625D01*
X39572Y-39651D01*
X39572Y-39690D01*
X39559Y-39717D01*
X39546Y-39730D01*
X39520Y-39743D01*
X39415Y-39743D01*
X39677Y-39625D02*
X39690Y-39612D01*
X39717Y-39599D01*
X39782Y-39599D01*
X39809Y-39612D01*
X39822Y-39625D01*
X39835Y-39651D01*
X39835Y-39677D01*
X39822Y-39717D01*
X39664Y-39874D01*
X39835Y-39874D01*
X39992Y-39717D02*
X39966Y-39704D01*
X39953Y-39690D01*
X39940Y-39664D01*
X39940Y-39651D01*
X39953Y-39625D01*
X39966Y-39612D01*
X39992Y-39599D01*
X40045Y-39599D01*
X40071Y-39612D01*
X40084Y-39625D01*
X40097Y-39651D01*
X40097Y-39664D01*
X40084Y-39690D01*
X40071Y-39704D01*
X40045Y-39717D01*
X39992Y-39717D01*
X39966Y-39730D01*
X39953Y-39743D01*
X39940Y-39769D01*
X39940Y-39822D01*
X39953Y-39848D01*
X39966Y-39861D01*
X39992Y-39874D01*
X40045Y-39874D01*
X40071Y-39861D01*
X40084Y-39848D01*
X40097Y-39822D01*
X40097Y-39769D01*
X40084Y-39743D01*
X40071Y-39730D01*
X40045Y-39717D01*
X38624Y-42177D02*
X38493Y-42269D01*
X38624Y-42334D02*
X38349Y-42334D01*
X38349Y-42229D01*
X38362Y-42203D01*
X38375Y-42190D01*
X38401Y-42177D01*
X38440Y-42177D01*
X38467Y-42190D01*
X38480Y-42203D01*
X38493Y-42229D01*
X38493Y-42334D01*
X38375Y-42072D02*
X38362Y-42059D01*
X38349Y-42032D01*
X38349Y-41967D01*
X38362Y-41940D01*
X38375Y-41927D01*
X38401Y-41914D01*
X38427Y-41914D01*
X38467Y-41927D01*
X38624Y-42085D01*
X38624Y-41914D01*
X38624Y-41783D02*
X38624Y-41730D01*
X38611Y-41704D01*
X38598Y-41691D01*
X38559Y-41665D01*
X38506Y-41652D01*
X38401Y-41652D01*
X38375Y-41665D01*
X38362Y-41678D01*
X38349Y-41704D01*
X38349Y-41757D01*
X38362Y-41783D01*
X38375Y-41796D01*
X38401Y-41809D01*
X38467Y-41809D01*
X38493Y-41796D01*
X38506Y-41783D01*
X38519Y-41757D01*
X38519Y-41704D01*
X38506Y-41678D01*
X38493Y-41665D01*
X38467Y-41652D01*
X39572Y-51124D02*
X39480Y-50993D01*
X39415Y-51124D02*
X39415Y-50849D01*
X39520Y-50849D01*
X39546Y-50862D01*
X39559Y-50875D01*
X39572Y-50901D01*
X39572Y-50940D01*
X39559Y-50967D01*
X39546Y-50980D01*
X39520Y-50993D01*
X39415Y-50993D01*
X39664Y-50849D02*
X39835Y-50849D01*
X39743Y-50954D01*
X39782Y-50954D01*
X39809Y-50967D01*
X39822Y-50980D01*
X39835Y-51006D01*
X39835Y-51072D01*
X39822Y-51098D01*
X39809Y-51111D01*
X39782Y-51124D01*
X39704Y-51124D01*
X39677Y-51111D01*
X39664Y-51098D01*
X40005Y-50849D02*
X40032Y-50849D01*
X40058Y-50862D01*
X40071Y-50875D01*
X40084Y-50901D01*
X40097Y-50954D01*
X40097Y-51019D01*
X40084Y-51072D01*
X40071Y-51098D01*
X40058Y-51111D01*
X40032Y-51124D01*
X40005Y-51124D01*
X39979Y-51111D01*
X39966Y-51098D01*
X39953Y-51072D01*
X39940Y-51019D01*
X39940Y-50954D01*
X39953Y-50901D01*
X39966Y-50875D01*
X39979Y-50862D01*
X40005Y-50849D01*
X38624Y-49177D02*
X38493Y-49269D01*
X38624Y-49334D02*
X38349Y-49334D01*
X38349Y-49229D01*
X38362Y-49203D01*
X38375Y-49190D01*
X38401Y-49177D01*
X38440Y-49177D01*
X38467Y-49190D01*
X38480Y-49203D01*
X38493Y-49229D01*
X38493Y-49334D01*
X38349Y-49085D02*
X38349Y-48914D01*
X38454Y-49006D01*
X38454Y-48967D01*
X38467Y-48940D01*
X38480Y-48927D01*
X38506Y-48914D01*
X38572Y-48914D01*
X38598Y-48927D01*
X38611Y-48940D01*
X38624Y-48967D01*
X38624Y-49045D01*
X38611Y-49072D01*
X38598Y-49085D01*
X38624Y-48652D02*
X38624Y-48809D01*
X38624Y-48730D02*
X38349Y-48730D01*
X38388Y-48757D01*
X38414Y-48783D01*
X38427Y-48809D01*
X38322Y-19124D02*
X38230Y-18993D01*
X38165Y-19124D02*
X38165Y-18849D01*
X38270Y-18849D01*
X38296Y-18862D01*
X38309Y-18875D01*
X38322Y-18901D01*
X38322Y-18940D01*
X38309Y-18967D01*
X38296Y-18980D01*
X38270Y-18993D01*
X38165Y-18993D01*
X38414Y-18849D02*
X38585Y-18849D01*
X38493Y-18954D01*
X38532Y-18954D01*
X38559Y-18967D01*
X38572Y-18980D01*
X38585Y-19006D01*
X38585Y-19072D01*
X38572Y-19098D01*
X38559Y-19111D01*
X38532Y-19124D01*
X38454Y-19124D01*
X38427Y-19111D01*
X38414Y-19098D01*
X38690Y-18875D02*
X38703Y-18862D01*
X38729Y-18849D01*
X38795Y-18849D01*
X38821Y-18862D01*
X38834Y-18875D01*
X38847Y-18901D01*
X38847Y-18927D01*
X38834Y-18967D01*
X38677Y-19124D01*
X38847Y-19124D01*
X37572Y-50124D02*
X37480Y-49993D01*
X37415Y-50124D02*
X37415Y-49849D01*
X37520Y-49849D01*
X37546Y-49862D01*
X37559Y-49875D01*
X37572Y-49901D01*
X37572Y-49940D01*
X37559Y-49967D01*
X37546Y-49980D01*
X37520Y-49993D01*
X37415Y-49993D01*
X37664Y-49849D02*
X37835Y-49849D01*
X37743Y-49954D01*
X37782Y-49954D01*
X37809Y-49967D01*
X37822Y-49980D01*
X37835Y-50006D01*
X37835Y-50072D01*
X37822Y-50098D01*
X37809Y-50111D01*
X37782Y-50124D01*
X37704Y-50124D01*
X37677Y-50111D01*
X37664Y-50098D01*
X37927Y-49849D02*
X38097Y-49849D01*
X38005Y-49954D01*
X38045Y-49954D01*
X38071Y-49967D01*
X38084Y-49980D01*
X38097Y-50006D01*
X38097Y-50072D01*
X38084Y-50098D01*
X38071Y-50111D01*
X38045Y-50124D01*
X37966Y-50124D01*
X37940Y-50111D01*
X37927Y-50098D01*
X37374Y-46677D02*
X37243Y-46769D01*
X37374Y-46834D02*
X37099Y-46834D01*
X37099Y-46729D01*
X37112Y-46703D01*
X37125Y-46690D01*
X37151Y-46677D01*
X37190Y-46677D01*
X37217Y-46690D01*
X37230Y-46703D01*
X37243Y-46729D01*
X37243Y-46834D01*
X37099Y-46585D02*
X37099Y-46414D01*
X37204Y-46506D01*
X37204Y-46467D01*
X37217Y-46440D01*
X37230Y-46427D01*
X37256Y-46414D01*
X37322Y-46414D01*
X37348Y-46427D01*
X37361Y-46440D01*
X37374Y-46467D01*
X37374Y-46545D01*
X37361Y-46572D01*
X37348Y-46585D01*
X37190Y-46178D02*
X37374Y-46178D01*
X37085Y-46244D02*
X37282Y-46309D01*
X37282Y-46139D01*
X37374Y-44427D02*
X37243Y-44519D01*
X37374Y-44584D02*
X37099Y-44584D01*
X37099Y-44479D01*
X37112Y-44453D01*
X37125Y-44440D01*
X37151Y-44427D01*
X37190Y-44427D01*
X37217Y-44440D01*
X37230Y-44453D01*
X37243Y-44479D01*
X37243Y-44584D01*
X37099Y-44335D02*
X37099Y-44164D01*
X37204Y-44256D01*
X37204Y-44217D01*
X37217Y-44190D01*
X37230Y-44177D01*
X37256Y-44164D01*
X37322Y-44164D01*
X37348Y-44177D01*
X37361Y-44190D01*
X37374Y-44217D01*
X37374Y-44295D01*
X37361Y-44322D01*
X37348Y-44335D01*
X37099Y-43915D02*
X37099Y-44046D01*
X37230Y-44059D01*
X37217Y-44046D01*
X37204Y-44020D01*
X37204Y-43954D01*
X37217Y-43928D01*
X37230Y-43915D01*
X37256Y-43902D01*
X37322Y-43902D01*
X37348Y-43915D01*
X37361Y-43928D01*
X37374Y-43954D01*
X37374Y-44020D01*
X37361Y-44046D01*
X37348Y-44059D01*
X36624Y-50177D02*
X36493Y-50269D01*
X36624Y-50334D02*
X36349Y-50334D01*
X36349Y-50229D01*
X36362Y-50203D01*
X36375Y-50190D01*
X36401Y-50177D01*
X36440Y-50177D01*
X36467Y-50190D01*
X36480Y-50203D01*
X36493Y-50229D01*
X36493Y-50334D01*
X36349Y-50085D02*
X36349Y-49914D01*
X36454Y-50006D01*
X36454Y-49967D01*
X36467Y-49940D01*
X36480Y-49927D01*
X36506Y-49914D01*
X36572Y-49914D01*
X36598Y-49927D01*
X36611Y-49940D01*
X36624Y-49967D01*
X36624Y-50045D01*
X36611Y-50072D01*
X36598Y-50085D01*
X36349Y-49678D02*
X36349Y-49730D01*
X36362Y-49757D01*
X36375Y-49770D01*
X36414Y-49796D01*
X36467Y-49809D01*
X36572Y-49809D01*
X36598Y-49796D01*
X36611Y-49783D01*
X36624Y-49757D01*
X36624Y-49704D01*
X36611Y-49678D01*
X36598Y-49665D01*
X36572Y-49652D01*
X36506Y-49652D01*
X36480Y-49665D01*
X36467Y-49678D01*
X36454Y-49704D01*
X36454Y-49757D01*
X36467Y-49783D01*
X36480Y-49796D01*
X36506Y-49809D01*
X36322Y-47374D02*
X36230Y-47243D01*
X36165Y-47374D02*
X36165Y-47099D01*
X36270Y-47099D01*
X36296Y-47112D01*
X36309Y-47125D01*
X36322Y-47151D01*
X36322Y-47190D01*
X36309Y-47217D01*
X36296Y-47230D01*
X36270Y-47243D01*
X36165Y-47243D01*
X36414Y-47099D02*
X36585Y-47099D01*
X36493Y-47204D01*
X36532Y-47204D01*
X36559Y-47217D01*
X36572Y-47230D01*
X36585Y-47256D01*
X36585Y-47322D01*
X36572Y-47348D01*
X36559Y-47361D01*
X36532Y-47374D01*
X36454Y-47374D01*
X36427Y-47361D01*
X36414Y-47348D01*
X36677Y-47099D02*
X36860Y-47099D01*
X36742Y-47374D01*
X36322Y-45124D02*
X36230Y-44993D01*
X36165Y-45124D02*
X36165Y-44849D01*
X36270Y-44849D01*
X36296Y-44862D01*
X36309Y-44875D01*
X36322Y-44901D01*
X36322Y-44940D01*
X36309Y-44967D01*
X36296Y-44980D01*
X36270Y-44993D01*
X36165Y-44993D01*
X36414Y-44849D02*
X36585Y-44849D01*
X36493Y-44954D01*
X36532Y-44954D01*
X36559Y-44967D01*
X36572Y-44980D01*
X36585Y-45006D01*
X36585Y-45072D01*
X36572Y-45098D01*
X36559Y-45111D01*
X36532Y-45124D01*
X36454Y-45124D01*
X36427Y-45111D01*
X36414Y-45098D01*
X36742Y-44967D02*
X36716Y-44954D01*
X36703Y-44940D01*
X36690Y-44914D01*
X36690Y-44901D01*
X36703Y-44875D01*
X36716Y-44862D01*
X36742Y-44849D01*
X36795Y-44849D01*
X36821Y-44862D01*
X36834Y-44875D01*
X36847Y-44901D01*
X36847Y-44914D01*
X36834Y-44940D01*
X36821Y-44954D01*
X36795Y-44967D01*
X36742Y-44967D01*
X36716Y-44980D01*
X36703Y-44993D01*
X36690Y-45019D01*
X36690Y-45072D01*
X36703Y-45098D01*
X36716Y-45111D01*
X36742Y-45124D01*
X36795Y-45124D01*
X36821Y-45111D01*
X36834Y-45098D01*
X36847Y-45072D01*
X36847Y-45019D01*
X36834Y-44993D01*
X36821Y-44980D01*
X36795Y-44967D01*
X32822Y-51874D02*
X32730Y-51743D01*
X32665Y-51874D02*
X32665Y-51599D01*
X32770Y-51599D01*
X32796Y-51612D01*
X32809Y-51625D01*
X32822Y-51651D01*
X32822Y-51690D01*
X32809Y-51717D01*
X32796Y-51730D01*
X32770Y-51743D01*
X32665Y-51743D01*
X32914Y-51599D02*
X33085Y-51599D01*
X32993Y-51704D01*
X33032Y-51704D01*
X33059Y-51717D01*
X33072Y-51730D01*
X33085Y-51756D01*
X33085Y-51822D01*
X33072Y-51848D01*
X33059Y-51861D01*
X33032Y-51874D01*
X32954Y-51874D01*
X32927Y-51861D01*
X32914Y-51848D01*
X33216Y-51874D02*
X33269Y-51874D01*
X33295Y-51861D01*
X33308Y-51848D01*
X33334Y-51809D01*
X33347Y-51756D01*
X33347Y-51651D01*
X33334Y-51625D01*
X33321Y-51612D01*
X33295Y-51599D01*
X33242Y-51599D01*
X33216Y-51612D01*
X33203Y-51625D01*
X33190Y-51651D01*
X33190Y-51717D01*
X33203Y-51743D01*
X33216Y-51756D01*
X33242Y-51769D01*
X33295Y-51769D01*
X33321Y-51756D01*
X33334Y-51743D01*
X33347Y-51717D01*
X35072Y-45624D02*
X34980Y-45493D01*
X34915Y-45624D02*
X34915Y-45349D01*
X35020Y-45349D01*
X35046Y-45362D01*
X35059Y-45375D01*
X35072Y-45401D01*
X35072Y-45440D01*
X35059Y-45467D01*
X35046Y-45480D01*
X35020Y-45493D01*
X34915Y-45493D01*
X35309Y-45440D02*
X35309Y-45624D01*
X35243Y-45335D02*
X35177Y-45532D01*
X35348Y-45532D01*
X35505Y-45349D02*
X35532Y-45349D01*
X35558Y-45362D01*
X35571Y-45375D01*
X35584Y-45401D01*
X35597Y-45454D01*
X35597Y-45519D01*
X35584Y-45572D01*
X35571Y-45598D01*
X35558Y-45611D01*
X35532Y-45624D01*
X35505Y-45624D01*
X35479Y-45611D01*
X35466Y-45598D01*
X35453Y-45572D01*
X35440Y-45519D01*
X35440Y-45454D01*
X35453Y-45401D01*
X35466Y-45375D01*
X35479Y-45362D01*
X35505Y-45349D01*
X35322Y-44874D02*
X35230Y-44743D01*
X35165Y-44874D02*
X35165Y-44599D01*
X35270Y-44599D01*
X35296Y-44612D01*
X35309Y-44625D01*
X35322Y-44651D01*
X35322Y-44690D01*
X35309Y-44717D01*
X35296Y-44730D01*
X35270Y-44743D01*
X35165Y-44743D01*
X35559Y-44690D02*
X35559Y-44874D01*
X35493Y-44585D02*
X35427Y-44782D01*
X35598Y-44782D01*
X35847Y-44874D02*
X35690Y-44874D01*
X35769Y-44874D02*
X35769Y-44599D01*
X35742Y-44638D01*
X35716Y-44664D01*
X35690Y-44677D01*
X35124Y-50177D02*
X34993Y-50269D01*
X35124Y-50334D02*
X34849Y-50334D01*
X34849Y-50229D01*
X34862Y-50203D01*
X34875Y-50190D01*
X34901Y-50177D01*
X34940Y-50177D01*
X34967Y-50190D01*
X34980Y-50203D01*
X34993Y-50229D01*
X34993Y-50334D01*
X34940Y-49940D02*
X35124Y-49940D01*
X34835Y-50006D02*
X35032Y-50072D01*
X35032Y-49901D01*
X34875Y-49809D02*
X34862Y-49796D01*
X34849Y-49770D01*
X34849Y-49704D01*
X34862Y-49678D01*
X34875Y-49665D01*
X34901Y-49652D01*
X34927Y-49652D01*
X34967Y-49665D01*
X35124Y-49822D01*
X35124Y-49652D01*
X35124Y-47677D02*
X34993Y-47769D01*
X35124Y-47834D02*
X34849Y-47834D01*
X34849Y-47729D01*
X34862Y-47703D01*
X34875Y-47690D01*
X34901Y-47677D01*
X34940Y-47677D01*
X34967Y-47690D01*
X34980Y-47703D01*
X34993Y-47729D01*
X34993Y-47834D01*
X34940Y-47440D02*
X35124Y-47440D01*
X34835Y-47506D02*
X35032Y-47572D01*
X35032Y-47401D01*
X34849Y-47322D02*
X34849Y-47152D01*
X34954Y-47244D01*
X34954Y-47204D01*
X34967Y-47178D01*
X34980Y-47165D01*
X35006Y-47152D01*
X35072Y-47152D01*
X35098Y-47165D01*
X35111Y-47178D01*
X35124Y-47204D01*
X35124Y-47283D01*
X35111Y-47309D01*
X35098Y-47322D01*
X34374Y-44177D02*
X34243Y-44269D01*
X34374Y-44334D02*
X34099Y-44334D01*
X34099Y-44229D01*
X34112Y-44203D01*
X34125Y-44190D01*
X34151Y-44177D01*
X34190Y-44177D01*
X34217Y-44190D01*
X34230Y-44203D01*
X34243Y-44229D01*
X34243Y-44334D01*
X34190Y-43940D02*
X34374Y-43940D01*
X34085Y-44006D02*
X34282Y-44072D01*
X34282Y-43901D01*
X34190Y-43678D02*
X34374Y-43678D01*
X34085Y-43744D02*
X34282Y-43809D01*
X34282Y-43639D01*
X33072Y-39124D02*
X32980Y-38993D01*
X32915Y-39124D02*
X32915Y-38849D01*
X33020Y-38849D01*
X33046Y-38862D01*
X33059Y-38875D01*
X33072Y-38901D01*
X33072Y-38940D01*
X33059Y-38967D01*
X33046Y-38980D01*
X33020Y-38993D01*
X32915Y-38993D01*
X33309Y-38940D02*
X33309Y-39124D01*
X33243Y-38835D02*
X33177Y-39032D01*
X33348Y-39032D01*
X33584Y-38849D02*
X33453Y-38849D01*
X33440Y-38980D01*
X33453Y-38967D01*
X33479Y-38954D01*
X33545Y-38954D01*
X33571Y-38967D01*
X33584Y-38980D01*
X33597Y-39006D01*
X33597Y-39072D01*
X33584Y-39098D01*
X33571Y-39111D01*
X33545Y-39124D01*
X33479Y-39124D01*
X33453Y-39111D01*
X33440Y-39098D01*
X36572Y-41124D02*
X36480Y-40993D01*
X36415Y-41124D02*
X36415Y-40849D01*
X36520Y-40849D01*
X36546Y-40862D01*
X36559Y-40875D01*
X36572Y-40901D01*
X36572Y-40940D01*
X36559Y-40967D01*
X36546Y-40980D01*
X36520Y-40993D01*
X36415Y-40993D01*
X36809Y-40940D02*
X36809Y-41124D01*
X36743Y-40835D02*
X36677Y-41032D01*
X36848Y-41032D01*
X37071Y-40849D02*
X37019Y-40849D01*
X36992Y-40862D01*
X36979Y-40875D01*
X36953Y-40914D01*
X36940Y-40967D01*
X36940Y-41072D01*
X36953Y-41098D01*
X36966Y-41111D01*
X36992Y-41124D01*
X37045Y-41124D01*
X37071Y-41111D01*
X37084Y-41098D01*
X37097Y-41072D01*
X37097Y-41006D01*
X37084Y-40980D01*
X37071Y-40967D01*
X37045Y-40954D01*
X36992Y-40954D01*
X36966Y-40967D01*
X36953Y-40980D01*
X36940Y-41006D01*
X37572Y-41124D02*
X37480Y-40993D01*
X37415Y-41124D02*
X37415Y-40849D01*
X37520Y-40849D01*
X37546Y-40862D01*
X37559Y-40875D01*
X37572Y-40901D01*
X37572Y-40940D01*
X37559Y-40967D01*
X37546Y-40980D01*
X37520Y-40993D01*
X37415Y-40993D01*
X37809Y-40940D02*
X37809Y-41124D01*
X37743Y-40835D02*
X37677Y-41032D01*
X37848Y-41032D01*
X37927Y-40849D02*
X38110Y-40849D01*
X37992Y-41124D01*
X18374Y-29177D02*
X18243Y-29269D01*
X18374Y-29334D02*
X18099Y-29334D01*
X18099Y-29229D01*
X18112Y-29203D01*
X18125Y-29190D01*
X18151Y-29177D01*
X18190Y-29177D01*
X18217Y-29190D01*
X18230Y-29203D01*
X18243Y-29229D01*
X18243Y-29334D01*
X18190Y-28940D02*
X18374Y-28940D01*
X18085Y-29006D02*
X18282Y-29072D01*
X18282Y-28901D01*
X18217Y-28757D02*
X18204Y-28783D01*
X18190Y-28796D01*
X18164Y-28809D01*
X18151Y-28809D01*
X18125Y-28796D01*
X18112Y-28783D01*
X18099Y-28757D01*
X18099Y-28704D01*
X18112Y-28678D01*
X18125Y-28665D01*
X18151Y-28652D01*
X18164Y-28652D01*
X18190Y-28665D01*
X18204Y-28678D01*
X18217Y-28704D01*
X18217Y-28757D01*
X18230Y-28783D01*
X18243Y-28796D01*
X18269Y-28809D01*
X18322Y-28809D01*
X18348Y-28796D01*
X18361Y-28783D01*
X18374Y-28757D01*
X18374Y-28704D01*
X18361Y-28678D01*
X18348Y-28665D01*
X18322Y-28652D01*
X18269Y-28652D01*
X18243Y-28665D01*
X18230Y-28678D01*
X18217Y-28704D01*
X18322Y-31874D02*
X18230Y-31743D01*
X18165Y-31874D02*
X18165Y-31599D01*
X18270Y-31599D01*
X18296Y-31612D01*
X18309Y-31625D01*
X18322Y-31651D01*
X18322Y-31690D01*
X18309Y-31717D01*
X18296Y-31730D01*
X18270Y-31743D01*
X18165Y-31743D01*
X18559Y-31690D02*
X18559Y-31874D01*
X18493Y-31585D02*
X18427Y-31782D01*
X18598Y-31782D01*
X18716Y-31874D02*
X18769Y-31874D01*
X18795Y-31861D01*
X18808Y-31848D01*
X18834Y-31809D01*
X18847Y-31756D01*
X18847Y-31651D01*
X18834Y-31625D01*
X18821Y-31612D01*
X18795Y-31599D01*
X18742Y-31599D01*
X18716Y-31612D01*
X18703Y-31625D01*
X18690Y-31651D01*
X18690Y-31717D01*
X18703Y-31743D01*
X18716Y-31756D01*
X18742Y-31769D01*
X18795Y-31769D01*
X18821Y-31756D01*
X18834Y-31743D01*
X18847Y-31717D01*
X19072Y-36124D02*
X18980Y-35993D01*
X18915Y-36124D02*
X18915Y-35849D01*
X19020Y-35849D01*
X19046Y-35862D01*
X19059Y-35875D01*
X19072Y-35901D01*
X19072Y-35940D01*
X19059Y-35967D01*
X19046Y-35980D01*
X19020Y-35993D01*
X18915Y-35993D01*
X19322Y-35849D02*
X19190Y-35849D01*
X19177Y-35980D01*
X19190Y-35967D01*
X19217Y-35954D01*
X19282Y-35954D01*
X19309Y-35967D01*
X19322Y-35980D01*
X19335Y-36006D01*
X19335Y-36072D01*
X19322Y-36098D01*
X19309Y-36111D01*
X19282Y-36124D01*
X19217Y-36124D01*
X19190Y-36111D01*
X19177Y-36098D01*
X19505Y-35849D02*
X19532Y-35849D01*
X19558Y-35862D01*
X19571Y-35875D01*
X19584Y-35901D01*
X19597Y-35954D01*
X19597Y-36019D01*
X19584Y-36072D01*
X19571Y-36098D01*
X19558Y-36111D01*
X19532Y-36124D01*
X19505Y-36124D01*
X19479Y-36111D01*
X19466Y-36098D01*
X19453Y-36072D01*
X19440Y-36019D01*
X19440Y-35954D01*
X19453Y-35901D01*
X19466Y-35875D01*
X19479Y-35862D01*
X19505Y-35849D01*
X19624Y-34427D02*
X19493Y-34519D01*
X19624Y-34584D02*
X19349Y-34584D01*
X19349Y-34479D01*
X19362Y-34453D01*
X19375Y-34440D01*
X19401Y-34427D01*
X19440Y-34427D01*
X19467Y-34440D01*
X19480Y-34453D01*
X19493Y-34479D01*
X19493Y-34584D01*
X19349Y-34177D02*
X19349Y-34309D01*
X19480Y-34322D01*
X19467Y-34309D01*
X19454Y-34282D01*
X19454Y-34217D01*
X19467Y-34190D01*
X19480Y-34177D01*
X19506Y-34164D01*
X19572Y-34164D01*
X19598Y-34177D01*
X19611Y-34190D01*
X19624Y-34217D01*
X19624Y-34282D01*
X19611Y-34309D01*
X19598Y-34322D01*
X19624Y-33902D02*
X19624Y-34059D01*
X19624Y-33980D02*
X19349Y-33980D01*
X19388Y-34007D01*
X19414Y-34033D01*
X19427Y-34059D01*
X22822Y-29624D02*
X22730Y-29493D01*
X22665Y-29624D02*
X22665Y-29349D01*
X22770Y-29349D01*
X22796Y-29362D01*
X22809Y-29375D01*
X22822Y-29401D01*
X22822Y-29440D01*
X22809Y-29467D01*
X22796Y-29480D01*
X22770Y-29493D01*
X22665Y-29493D01*
X23072Y-29349D02*
X22940Y-29349D01*
X22927Y-29480D01*
X22940Y-29467D01*
X22967Y-29454D01*
X23032Y-29454D01*
X23059Y-29467D01*
X23072Y-29480D01*
X23085Y-29506D01*
X23085Y-29572D01*
X23072Y-29598D01*
X23059Y-29611D01*
X23032Y-29624D01*
X22967Y-29624D01*
X22940Y-29611D01*
X22927Y-29598D01*
X23190Y-29375D02*
X23203Y-29362D01*
X23229Y-29349D01*
X23295Y-29349D01*
X23321Y-29362D01*
X23334Y-29375D01*
X23347Y-29401D01*
X23347Y-29427D01*
X23334Y-29467D01*
X23177Y-29624D01*
X23347Y-29624D01*
X23874Y-32427D02*
X23743Y-32519D01*
X23874Y-32584D02*
X23599Y-32584D01*
X23599Y-32479D01*
X23612Y-32453D01*
X23625Y-32440D01*
X23651Y-32427D01*
X23690Y-32427D01*
X23717Y-32440D01*
X23730Y-32453D01*
X23743Y-32479D01*
X23743Y-32584D01*
X23599Y-32177D02*
X23599Y-32309D01*
X23730Y-32322D01*
X23717Y-32309D01*
X23704Y-32282D01*
X23704Y-32217D01*
X23717Y-32190D01*
X23730Y-32177D01*
X23756Y-32164D01*
X23822Y-32164D01*
X23848Y-32177D01*
X23861Y-32190D01*
X23874Y-32217D01*
X23874Y-32282D01*
X23861Y-32309D01*
X23848Y-32322D01*
X23599Y-32072D02*
X23599Y-31902D01*
X23704Y-31994D01*
X23704Y-31954D01*
X23717Y-31928D01*
X23730Y-31915D01*
X23756Y-31902D01*
X23822Y-31902D01*
X23848Y-31915D01*
X23861Y-31928D01*
X23874Y-31954D01*
X23874Y-32033D01*
X23861Y-32059D01*
X23848Y-32072D01*
X21374Y-58914D02*
X21243Y-59005D01*
X21374Y-59071D02*
X21099Y-59071D01*
X21099Y-58966D01*
X21112Y-58940D01*
X21125Y-58927D01*
X21151Y-58914D01*
X21190Y-58914D01*
X21217Y-58927D01*
X21230Y-58940D01*
X21243Y-58966D01*
X21243Y-59071D01*
X21099Y-58835D02*
X21374Y-58743D01*
X21099Y-58651D01*
X21374Y-58415D02*
X21374Y-58572D01*
X21374Y-58494D02*
X21099Y-58494D01*
X21138Y-58520D01*
X21164Y-58546D01*
X21177Y-58572D01*
X30540Y-28099D02*
X30540Y-28322D01*
X30553Y-28348D01*
X30566Y-28361D01*
X30592Y-28374D01*
X30645Y-28374D01*
X30671Y-28361D01*
X30684Y-28348D01*
X30697Y-28322D01*
X30697Y-28099D01*
X30973Y-28374D02*
X30815Y-28374D01*
X30894Y-28374D02*
X30894Y-28099D01*
X30868Y-28138D01*
X30841Y-28164D01*
X30815Y-28177D01*
X24790Y-38099D02*
X24790Y-38322D01*
X24803Y-38348D01*
X24816Y-38361D01*
X24842Y-38374D01*
X24895Y-38374D01*
X24921Y-38361D01*
X24934Y-38348D01*
X24947Y-38322D01*
X24947Y-38099D01*
X25065Y-38125D02*
X25078Y-38112D01*
X25104Y-38099D01*
X25170Y-38099D01*
X25196Y-38112D01*
X25209Y-38125D01*
X25223Y-38151D01*
X25223Y-38177D01*
X25209Y-38217D01*
X25052Y-38374D01*
X25223Y-38374D01*
X29790Y-36062D02*
X29790Y-36285D01*
X29803Y-36311D01*
X29816Y-36324D01*
X29842Y-36337D01*
X29895Y-36337D01*
X29921Y-36324D01*
X29934Y-36311D01*
X29947Y-36285D01*
X29947Y-36062D01*
X30052Y-36062D02*
X30223Y-36062D01*
X30131Y-36167D01*
X30170Y-36167D01*
X30196Y-36180D01*
X30209Y-36193D01*
X30223Y-36219D01*
X30223Y-36285D01*
X30209Y-36311D01*
X30196Y-36324D01*
X30170Y-36337D01*
X30091Y-36337D01*
X30065Y-36324D01*
X30052Y-36311D01*
X23290Y-19099D02*
X23290Y-19322D01*
X23303Y-19348D01*
X23316Y-19361D01*
X23342Y-19374D01*
X23395Y-19374D01*
X23421Y-19361D01*
X23434Y-19348D01*
X23447Y-19322D01*
X23447Y-19099D01*
X23696Y-19190D02*
X23696Y-19374D01*
X23631Y-19085D02*
X23565Y-19282D01*
X23736Y-19282D01*
X33040Y-35849D02*
X33040Y-36072D01*
X33053Y-36098D01*
X33066Y-36111D01*
X33092Y-36124D01*
X33145Y-36124D01*
X33171Y-36111D01*
X33184Y-36098D01*
X33197Y-36072D01*
X33197Y-35849D01*
X33459Y-35849D02*
X33328Y-35849D01*
X33315Y-35980D01*
X33328Y-35967D01*
X33354Y-35954D01*
X33420Y-35954D01*
X33446Y-35967D01*
X33459Y-35980D01*
X33473Y-36006D01*
X33473Y-36072D01*
X33459Y-36098D01*
X33446Y-36111D01*
X33420Y-36124D01*
X33354Y-36124D01*
X33328Y-36111D01*
X33315Y-36098D01*
X15349Y-42459D02*
X15572Y-42459D01*
X15598Y-42446D01*
X15611Y-42433D01*
X15624Y-42407D01*
X15624Y-42354D01*
X15611Y-42328D01*
X15598Y-42315D01*
X15572Y-42302D01*
X15349Y-42302D01*
X15349Y-42053D02*
X15349Y-42105D01*
X15362Y-42131D01*
X15375Y-42145D01*
X15414Y-42171D01*
X15467Y-42184D01*
X15572Y-42184D01*
X15598Y-42171D01*
X15611Y-42158D01*
X15624Y-42131D01*
X15624Y-42079D01*
X15611Y-42053D01*
X15598Y-42040D01*
X15572Y-42026D01*
X15506Y-42026D01*
X15480Y-42040D01*
X15467Y-42053D01*
X15454Y-42079D01*
X15454Y-42131D01*
X15467Y-42158D01*
X15480Y-42171D01*
X15506Y-42184D01*
X15349Y-51959D02*
X15572Y-51959D01*
X15598Y-51946D01*
X15611Y-51933D01*
X15624Y-51907D01*
X15624Y-51854D01*
X15611Y-51828D01*
X15598Y-51815D01*
X15572Y-51802D01*
X15349Y-51802D01*
X15349Y-51697D02*
X15349Y-51513D01*
X15624Y-51631D01*
X30790Y-18849D02*
X30790Y-19072D01*
X30803Y-19098D01*
X30816Y-19111D01*
X30842Y-19124D01*
X30895Y-19124D01*
X30921Y-19111D01*
X30934Y-19098D01*
X30947Y-19072D01*
X30947Y-18849D01*
X31118Y-18967D02*
X31091Y-18954D01*
X31078Y-18940D01*
X31065Y-18914D01*
X31065Y-18901D01*
X31078Y-18875D01*
X31091Y-18862D01*
X31118Y-18849D01*
X31170Y-18849D01*
X31196Y-18862D01*
X31209Y-18875D01*
X31223Y-18901D01*
X31223Y-18914D01*
X31209Y-18940D01*
X31196Y-18954D01*
X31170Y-18967D01*
X31118Y-18967D01*
X31091Y-18980D01*
X31078Y-18993D01*
X31065Y-19019D01*
X31065Y-19072D01*
X31078Y-19098D01*
X31091Y-19111D01*
X31118Y-19124D01*
X31170Y-19124D01*
X31196Y-19111D01*
X31209Y-19098D01*
X31223Y-19072D01*
X31223Y-19019D01*
X31209Y-18993D01*
X31196Y-18980D01*
X31170Y-18967D01*
X31099Y-44209D02*
X31322Y-44209D01*
X31348Y-44196D01*
X31361Y-44183D01*
X31374Y-44157D01*
X31374Y-44104D01*
X31361Y-44078D01*
X31348Y-44065D01*
X31322Y-44052D01*
X31099Y-44052D01*
X31374Y-43908D02*
X31374Y-43855D01*
X31361Y-43829D01*
X31348Y-43816D01*
X31309Y-43790D01*
X31256Y-43776D01*
X31151Y-43776D01*
X31125Y-43790D01*
X31112Y-43803D01*
X31099Y-43829D01*
X31099Y-43881D01*
X31112Y-43908D01*
X31125Y-43921D01*
X31151Y-43934D01*
X31217Y-43934D01*
X31243Y-43921D01*
X31256Y-43908D01*
X31269Y-43881D01*
X31269Y-43829D01*
X31256Y-43803D01*
X31243Y-43790D01*
X31217Y-43776D01*
X20158Y-35849D02*
X20158Y-36072D01*
X20171Y-36098D01*
X20185Y-36111D01*
X20211Y-36124D01*
X20263Y-36124D01*
X20290Y-36111D01*
X20303Y-36098D01*
X20316Y-36072D01*
X20316Y-35849D01*
X20591Y-36124D02*
X20434Y-36124D01*
X20513Y-36124D02*
X20513Y-35849D01*
X20486Y-35888D01*
X20460Y-35914D01*
X20434Y-35927D01*
X20762Y-35849D02*
X20788Y-35849D01*
X20814Y-35862D01*
X20828Y-35875D01*
X20841Y-35901D01*
X20854Y-35954D01*
X20854Y-36019D01*
X20841Y-36072D01*
X20828Y-36098D01*
X20814Y-36111D01*
X20788Y-36124D01*
X20762Y-36124D01*
X20736Y-36111D01*
X20723Y-36098D01*
X20709Y-36072D01*
X20696Y-36019D01*
X20696Y-35954D01*
X20709Y-35901D01*
X20723Y-35875D01*
X20736Y-35862D01*
X20762Y-35849D01*
X19849Y-29591D02*
X20072Y-29591D01*
X20098Y-29578D01*
X20111Y-29564D01*
X20124Y-29538D01*
X20124Y-29486D01*
X20111Y-29459D01*
X20098Y-29446D01*
X20072Y-29433D01*
X19849Y-29433D01*
X20124Y-29158D02*
X20124Y-29315D01*
X20124Y-29236D02*
X19849Y-29236D01*
X19888Y-29263D01*
X19914Y-29289D01*
X19927Y-29315D01*
X20124Y-28895D02*
X20124Y-29053D01*
X20124Y-28974D02*
X19849Y-28974D01*
X19888Y-29000D01*
X19914Y-29026D01*
X19927Y-29053D01*
X18374Y-25045D02*
X18243Y-25137D01*
X18374Y-25203D02*
X18099Y-25203D01*
X18099Y-25098D01*
X18112Y-25072D01*
X18125Y-25059D01*
X18151Y-25045D01*
X18190Y-25045D01*
X18217Y-25059D01*
X18230Y-25072D01*
X18243Y-25098D01*
X18243Y-25203D01*
X18374Y-24914D02*
X18374Y-24862D01*
X18361Y-24835D01*
X18348Y-24822D01*
X18309Y-24796D01*
X18256Y-24783D01*
X18151Y-24783D01*
X18125Y-24796D01*
X18112Y-24809D01*
X18099Y-24835D01*
X18099Y-24888D01*
X18112Y-24914D01*
X18125Y-24927D01*
X18151Y-24940D01*
X18217Y-24940D01*
X18243Y-24927D01*
X18256Y-24914D01*
X18269Y-24888D01*
X18269Y-24835D01*
X18256Y-24809D01*
X18243Y-24796D01*
X18217Y-24783D01*
X18374Y-23677D02*
X18243Y-23769D01*
X18374Y-23834D02*
X18099Y-23834D01*
X18099Y-23729D01*
X18112Y-23703D01*
X18125Y-23690D01*
X18151Y-23677D01*
X18190Y-23677D01*
X18217Y-23690D01*
X18230Y-23703D01*
X18243Y-23729D01*
X18243Y-23834D01*
X18374Y-23414D02*
X18374Y-23572D01*
X18374Y-23493D02*
X18099Y-23493D01*
X18138Y-23519D01*
X18164Y-23545D01*
X18177Y-23572D01*
X18099Y-23244D02*
X18099Y-23217D01*
X18112Y-23191D01*
X18125Y-23178D01*
X18151Y-23165D01*
X18204Y-23152D01*
X18269Y-23152D01*
X18322Y-23165D01*
X18348Y-23178D01*
X18361Y-23191D01*
X18374Y-23217D01*
X18374Y-23244D01*
X18361Y-23270D01*
X18348Y-23283D01*
X18322Y-23296D01*
X18269Y-23309D01*
X18204Y-23309D01*
X18151Y-23296D01*
X18125Y-23283D01*
X18112Y-23270D01*
X18099Y-23244D01*
X38454Y-24374D02*
X38322Y-24374D01*
X38322Y-24099D01*
X38690Y-24374D02*
X38532Y-24374D01*
X38611Y-24374D02*
X38611Y-24099D01*
X38585Y-24138D01*
X38559Y-24164D01*
X38532Y-24177D01*
X30480Y-50341D02*
X30480Y-50433D01*
X30624Y-50433D02*
X30349Y-50433D01*
X30349Y-50302D01*
X30624Y-50053D02*
X30624Y-50210D01*
X30624Y-50131D02*
X30349Y-50131D01*
X30388Y-50158D01*
X30414Y-50184D01*
X30427Y-50210D01*
X28796Y-58374D02*
X28796Y-58099D01*
X28901Y-58099D01*
X28927Y-58112D01*
X28940Y-58125D01*
X28954Y-58151D01*
X28954Y-58190D01*
X28940Y-58217D01*
X28927Y-58230D01*
X28901Y-58243D01*
X28796Y-58243D01*
X29203Y-58099D02*
X29072Y-58099D01*
X29059Y-58230D01*
X29072Y-58217D01*
X29098Y-58204D01*
X29164Y-58204D01*
X29190Y-58217D01*
X29203Y-58230D01*
X29216Y-58256D01*
X29216Y-58322D01*
X29203Y-58348D01*
X29190Y-58361D01*
X29164Y-58374D01*
X29098Y-58374D01*
X29072Y-58361D01*
X29059Y-58348D01*
X26374Y-14203D02*
X26099Y-14203D01*
X26374Y-14045D02*
X26217Y-14164D01*
X26099Y-14045D02*
X26256Y-14203D01*
X26374Y-13783D02*
X26374Y-13940D01*
X26374Y-13862D02*
X26099Y-13862D01*
X26138Y-13888D01*
X26164Y-13914D01*
X26177Y-13940D01*
X30124Y-14203D02*
X29849Y-14203D01*
X30124Y-14045D02*
X29967Y-14164D01*
X29849Y-14045D02*
X30006Y-14203D01*
X29849Y-13796D02*
X29849Y-13927D01*
X29980Y-13940D01*
X29967Y-13927D01*
X29954Y-13901D01*
X29954Y-13835D01*
X29967Y-13809D01*
X29980Y-13796D01*
X30006Y-13783D01*
X30072Y-13783D01*
X30098Y-13796D01*
X30111Y-13809D01*
X30124Y-13835D01*
X30124Y-13901D01*
X30111Y-13927D01*
X30098Y-13940D01*
X34374Y-14203D02*
X34099Y-14203D01*
X34374Y-14045D02*
X34217Y-14164D01*
X34099Y-14045D02*
X34256Y-14203D01*
X34099Y-13809D02*
X34099Y-13862D01*
X34112Y-13888D01*
X34125Y-13901D01*
X34164Y-13927D01*
X34217Y-13940D01*
X34322Y-13940D01*
X34348Y-13927D01*
X34361Y-13914D01*
X34374Y-13888D01*
X34374Y-13835D01*
X34361Y-13809D01*
X34348Y-13796D01*
X34322Y-13783D01*
X34256Y-13783D01*
X34230Y-13796D01*
X34217Y-13809D01*
X34204Y-13835D01*
X34204Y-13888D01*
X34217Y-13914D01*
X34230Y-13927D01*
X34256Y-13940D01*
X17822Y-36124D02*
X17730Y-35993D01*
X17665Y-36124D02*
X17665Y-35849D01*
X17770Y-35849D01*
X17796Y-35862D01*
X17809Y-35875D01*
X17822Y-35901D01*
X17822Y-35940D01*
X17809Y-35967D01*
X17796Y-35980D01*
X17770Y-35993D01*
X17665Y-35993D01*
X18072Y-35849D02*
X17940Y-35849D01*
X17927Y-35980D01*
X17940Y-35967D01*
X17967Y-35954D01*
X18032Y-35954D01*
X18059Y-35967D01*
X18072Y-35980D01*
X18085Y-36006D01*
X18085Y-36072D01*
X18072Y-36098D01*
X18059Y-36111D01*
X18032Y-36124D01*
X17967Y-36124D01*
X17940Y-36111D01*
X17927Y-36098D01*
X18321Y-35940D02*
X18321Y-36124D01*
X18255Y-35835D02*
X18190Y-36032D01*
X18360Y-36032D01*
X37098Y-32545D02*
X37111Y-32559D01*
X37124Y-32598D01*
X37124Y-32624D01*
X37111Y-32664D01*
X37085Y-32690D01*
X37059Y-32703D01*
X37006Y-32716D01*
X36967Y-32716D01*
X36914Y-32703D01*
X36888Y-32690D01*
X36862Y-32664D01*
X36849Y-32624D01*
X36849Y-32598D01*
X36862Y-32559D01*
X36875Y-32545D01*
X36849Y-32454D02*
X36849Y-32283D01*
X36954Y-32375D01*
X36954Y-32335D01*
X36967Y-32309D01*
X36980Y-32296D01*
X37006Y-32283D01*
X37072Y-32283D01*
X37098Y-32296D01*
X37111Y-32309D01*
X37124Y-32335D01*
X37124Y-32414D01*
X37111Y-32440D01*
X37098Y-32454D01*
X38098Y-32545D02*
X38111Y-32559D01*
X38124Y-32598D01*
X38124Y-32624D01*
X38111Y-32664D01*
X38085Y-32690D01*
X38059Y-32703D01*
X38006Y-32716D01*
X37967Y-32716D01*
X37914Y-32703D01*
X37888Y-32690D01*
X37862Y-32664D01*
X37849Y-32624D01*
X37849Y-32598D01*
X37862Y-32559D01*
X37875Y-32545D01*
X37849Y-32454D02*
X37849Y-32270D01*
X38124Y-32388D01*
X39908Y-28349D02*
X39908Y-28572D01*
X39921Y-28598D01*
X39935Y-28611D01*
X39961Y-28624D01*
X40013Y-28624D01*
X40040Y-28611D01*
X40053Y-28598D01*
X40066Y-28572D01*
X40066Y-28349D01*
X40341Y-28624D02*
X40184Y-28624D01*
X40263Y-28624D02*
X40263Y-28349D01*
X40236Y-28388D01*
X40210Y-28414D01*
X40184Y-28427D01*
X40446Y-28375D02*
X40459Y-28362D01*
X40486Y-28349D01*
X40551Y-28349D01*
X40578Y-28362D01*
X40591Y-28375D01*
X40604Y-28401D01*
X40604Y-28427D01*
X40591Y-28467D01*
X40433Y-28624D01*
X40604Y-28624D01*
M02*
