%FSLAX34Y34*%
G04 Gerber Fmt 3.4, Leading zero omitted, Abs format*
G04 (created by PCBNEW (2014-03-19 BZR 4756)-product) date Thu May 22 10:07:56 2014*
%MOIN*%
G01*
G70*
G90*
G04 APERTURE LIST*
%ADD10C,0.005906*%
%ADD11R,0.035000X0.055000*%
%ADD12R,0.080000X0.060000*%
%ADD13R,0.055000X0.035000*%
%ADD14R,0.060000X0.080000*%
%ADD15R,0.047200X0.047200*%
%ADD16R,0.090600X0.137800*%
%ADD17R,0.200787X0.094488*%
%ADD18R,0.094488X0.200787*%
%ADD19R,0.055000X0.055000*%
%ADD20C,0.055000*%
%ADD21C,0.045000*%
%ADD22R,0.050000X0.100000*%
%ADD23C,0.060000*%
%ADD24R,0.042000X0.090000*%
%ADD25R,0.420000X0.350000*%
%ADD26R,0.039400X0.098500*%
%ADD27R,0.078700X0.157500*%
%ADD28R,0.039400X0.027600*%
%ADD29R,0.059100X0.015700*%
%ADD30R,0.015748X0.055118*%
%ADD31R,0.020000X0.030000*%
%ADD32R,0.059055X0.023622*%
%ADD33R,0.059100X0.208700*%
%ADD34R,0.079900X0.104400*%
%ADD35O,0.100000X0.080000*%
%ADD36C,0.010000*%
G04 APERTURE END LIST*
G54D10*
G54D11*
X23375Y-37000D03*
X24125Y-37000D03*
G54D12*
X35500Y-27350D03*
X35500Y-28650D03*
G54D13*
X32750Y-27625D03*
X32750Y-26875D03*
G54D12*
X33750Y-27650D03*
X33750Y-26350D03*
G54D13*
X37000Y-27375D03*
X37000Y-28125D03*
G54D11*
X27875Y-37000D03*
X28625Y-37000D03*
G54D12*
X29250Y-28100D03*
X29250Y-29400D03*
G54D14*
X27100Y-33000D03*
X28400Y-33000D03*
G54D13*
X22750Y-19125D03*
X22750Y-18375D03*
X22750Y-22125D03*
X22750Y-21375D03*
X28250Y-27875D03*
X28250Y-28625D03*
G54D11*
X27125Y-34250D03*
X27875Y-34250D03*
X27125Y-35250D03*
X27875Y-35250D03*
X15125Y-46750D03*
X14375Y-46750D03*
X31625Y-36500D03*
X32375Y-36500D03*
G54D14*
X15150Y-45500D03*
X13850Y-45500D03*
G54D11*
X24875Y-20250D03*
X25625Y-20250D03*
G54D13*
X26500Y-21125D03*
X26500Y-20375D03*
X29000Y-48125D03*
X29000Y-48875D03*
X28000Y-57125D03*
X28000Y-57875D03*
G54D11*
X35375Y-37000D03*
X36125Y-37000D03*
G54D13*
X30500Y-21875D03*
X30500Y-21125D03*
G54D11*
X31625Y-17000D03*
X32375Y-17000D03*
X31625Y-18000D03*
X32375Y-18000D03*
X34375Y-19750D03*
X35125Y-19750D03*
G54D13*
X31275Y-42500D03*
X31275Y-43250D03*
X31875Y-40250D03*
X31875Y-39500D03*
X17750Y-32625D03*
X17750Y-33375D03*
X19000Y-30125D03*
X19000Y-30875D03*
X22250Y-34375D03*
X22250Y-35125D03*
G54D11*
X21125Y-29500D03*
X21875Y-29500D03*
G54D13*
X24000Y-30875D03*
X24000Y-30125D03*
G54D15*
X14087Y-27750D03*
X14913Y-27750D03*
X14250Y-22337D03*
X14250Y-23163D03*
X35788Y-41375D03*
X34962Y-41375D03*
X35788Y-40375D03*
X34962Y-40375D03*
G54D16*
X16250Y-28437D03*
X16250Y-30563D03*
X16250Y-34563D03*
X16250Y-32437D03*
G54D17*
X14000Y-37000D03*
X14000Y-35267D03*
X14000Y-38732D03*
G54D18*
X22750Y-14000D03*
X24482Y-14000D03*
X21017Y-14000D03*
G54D17*
X40500Y-37000D03*
X40500Y-35267D03*
X40500Y-38732D03*
X40500Y-19750D03*
X40500Y-18017D03*
X40500Y-21482D03*
G54D19*
X14250Y-18000D03*
G54D20*
X14250Y-19000D03*
X14250Y-20000D03*
G54D19*
X40500Y-27250D03*
G54D20*
X40500Y-26250D03*
X40500Y-25250D03*
G54D19*
X14250Y-26500D03*
G54D20*
X14250Y-25500D03*
X14250Y-24500D03*
G54D13*
X27000Y-36125D03*
X27000Y-36875D03*
G54D11*
X29125Y-20250D03*
X28375Y-20250D03*
G54D13*
X32500Y-18875D03*
X32500Y-19625D03*
G54D21*
X21750Y-23250D03*
G54D19*
X40500Y-44000D03*
G54D20*
X40500Y-43000D03*
X40500Y-42000D03*
X40500Y-41000D03*
G54D19*
X40500Y-49000D03*
G54D20*
X40500Y-48000D03*
X40500Y-47000D03*
X40500Y-46000D03*
G54D19*
X14250Y-33500D03*
G54D20*
X14250Y-32500D03*
X14250Y-31500D03*
X14250Y-30500D03*
G54D13*
X20000Y-37875D03*
X20000Y-37125D03*
G54D11*
X20875Y-37000D03*
X21625Y-37000D03*
G54D13*
X22500Y-37875D03*
X22500Y-37125D03*
G54D14*
X15100Y-22250D03*
X16400Y-22250D03*
X17600Y-21000D03*
X18900Y-21000D03*
X15850Y-26750D03*
X17150Y-26750D03*
G54D12*
X17500Y-23650D03*
X17500Y-22350D03*
X16000Y-24350D03*
X16000Y-25650D03*
G54D13*
X20250Y-23125D03*
X20250Y-22375D03*
G54D12*
X27000Y-30600D03*
X27000Y-31900D03*
G54D11*
X21125Y-22250D03*
X21875Y-22250D03*
G54D13*
X22750Y-23625D03*
X22750Y-22875D03*
G54D11*
X31375Y-38250D03*
X30625Y-38250D03*
X32375Y-38250D03*
X33125Y-38250D03*
G54D13*
X27500Y-20375D03*
X27500Y-21125D03*
G54D11*
X25125Y-48500D03*
X25875Y-48500D03*
G54D22*
X30150Y-47750D03*
X31350Y-47750D03*
G54D13*
X31500Y-21875D03*
X31500Y-21125D03*
X33500Y-19875D03*
X33500Y-20625D03*
X36000Y-20625D03*
X36000Y-19875D03*
G54D11*
X38875Y-39500D03*
X38125Y-39500D03*
G54D13*
X39250Y-44125D03*
X39250Y-43375D03*
X39250Y-45875D03*
X39250Y-45125D03*
X39250Y-46625D03*
X39250Y-47375D03*
G54D11*
X37625Y-19750D03*
X36875Y-19750D03*
G54D13*
X39250Y-40375D03*
X39250Y-41125D03*
X39250Y-42625D03*
X39250Y-41875D03*
G54D11*
X40375Y-50250D03*
X39625Y-50250D03*
G54D13*
X39250Y-48125D03*
X39250Y-48875D03*
X38500Y-20625D03*
X38500Y-19875D03*
X37875Y-48500D03*
X37875Y-49250D03*
X37875Y-46000D03*
X37875Y-46750D03*
X37875Y-43500D03*
X37875Y-44250D03*
X36475Y-48500D03*
X36475Y-49250D03*
X36475Y-46000D03*
X36475Y-46750D03*
X36475Y-43500D03*
X36475Y-44250D03*
G54D11*
X33375Y-51000D03*
X32625Y-51000D03*
G54D13*
X35675Y-46000D03*
X35675Y-46750D03*
X35675Y-43500D03*
X35675Y-44250D03*
X34875Y-48500D03*
X34875Y-49250D03*
X34875Y-46000D03*
X34875Y-46750D03*
X34875Y-43500D03*
X34875Y-44250D03*
X32775Y-40250D03*
X32775Y-39500D03*
X36875Y-42250D03*
X36875Y-41500D03*
X37875Y-42250D03*
X37875Y-41500D03*
X19000Y-29375D03*
X19000Y-28625D03*
X17750Y-31125D03*
X17750Y-31875D03*
G54D11*
X19625Y-35250D03*
X18875Y-35250D03*
G54D13*
X18750Y-33125D03*
X18750Y-33875D03*
X23000Y-30875D03*
X23000Y-30125D03*
X23000Y-32875D03*
X23000Y-32125D03*
G54D23*
X24000Y-58750D03*
X25000Y-58750D03*
X23000Y-58750D03*
G54D24*
X33590Y-29250D03*
G54D25*
X32250Y-32700D03*
G54D24*
X32250Y-29250D03*
X32920Y-29250D03*
X31580Y-29250D03*
X30910Y-29250D03*
G54D26*
X24909Y-37176D03*
X25500Y-37176D03*
X26091Y-37176D03*
G54D27*
X25500Y-35620D03*
G54D10*
G36*
X25894Y-36397D02*
X25697Y-36692D01*
X25303Y-36692D01*
X25106Y-36397D01*
X25894Y-36397D01*
X25894Y-36397D01*
G37*
G54D28*
X29500Y-37375D03*
X29500Y-37000D03*
X29500Y-36625D03*
X30500Y-36625D03*
X30500Y-37000D03*
X30500Y-37375D03*
X23750Y-19875D03*
X23750Y-20250D03*
X23750Y-20625D03*
X22750Y-20625D03*
X22750Y-20250D03*
X22750Y-19875D03*
X34250Y-36625D03*
X34250Y-37000D03*
X34250Y-37375D03*
X33250Y-37375D03*
X33250Y-37000D03*
X33250Y-36625D03*
G54D19*
X17000Y-47250D03*
G54D20*
X18000Y-47250D03*
X19000Y-47250D03*
X20000Y-47250D03*
X21000Y-47250D03*
X22000Y-47250D03*
X23000Y-47250D03*
X24000Y-47250D03*
X25000Y-47250D03*
X26000Y-47250D03*
X27000Y-47250D03*
X28000Y-47250D03*
X28000Y-41250D03*
X27000Y-41250D03*
X26000Y-41250D03*
X25000Y-41250D03*
X24000Y-41250D03*
X23000Y-41250D03*
X22000Y-41250D03*
X21000Y-41250D03*
X20000Y-41250D03*
X19000Y-41250D03*
X18000Y-41250D03*
X17000Y-41250D03*
G54D19*
X17000Y-56250D03*
G54D20*
X18000Y-56250D03*
X19000Y-56250D03*
X20000Y-56250D03*
X21000Y-56250D03*
X22000Y-56250D03*
X23000Y-56250D03*
X24000Y-56250D03*
X25000Y-56250D03*
X26000Y-56250D03*
X27000Y-56250D03*
X28000Y-56250D03*
X28000Y-50250D03*
X27000Y-50250D03*
X26000Y-50250D03*
X25000Y-50250D03*
X24000Y-50250D03*
X23000Y-50250D03*
X22000Y-50250D03*
X21000Y-50250D03*
X20000Y-50250D03*
X19000Y-50250D03*
X18000Y-50250D03*
X17000Y-50250D03*
G54D29*
X30476Y-19744D03*
X30476Y-20000D03*
X30476Y-20256D03*
X31524Y-20256D03*
X31524Y-20000D03*
X31524Y-19744D03*
G54D30*
X32750Y-43977D03*
X33000Y-43977D03*
X33250Y-43977D03*
X33500Y-43977D03*
X32000Y-41772D03*
X32000Y-43977D03*
X32250Y-43977D03*
X32500Y-43977D03*
X33750Y-41772D03*
X33500Y-41772D03*
X33250Y-41772D03*
X33000Y-41772D03*
X32750Y-41772D03*
X32500Y-41772D03*
X33750Y-43977D03*
X32250Y-41772D03*
G54D31*
X21375Y-34250D03*
X20625Y-34250D03*
X21375Y-35250D03*
X21000Y-34250D03*
X20625Y-35250D03*
G54D32*
X19937Y-30500D03*
X19937Y-31000D03*
X19937Y-31500D03*
X19937Y-32000D03*
X19937Y-32500D03*
X19937Y-33000D03*
X19937Y-33500D03*
X22062Y-33500D03*
X22062Y-33000D03*
X22062Y-32500D03*
X22062Y-32000D03*
X22062Y-31500D03*
X22062Y-31000D03*
X22062Y-30500D03*
G54D14*
X20150Y-25000D03*
X18850Y-25000D03*
G54D12*
X19000Y-22350D03*
X19000Y-23650D03*
G54D33*
X38850Y-25750D03*
X37150Y-25750D03*
G54D34*
X31500Y-49429D03*
X31500Y-51071D03*
G54D19*
X32250Y-59250D03*
G54D20*
X31250Y-59250D03*
X30250Y-59250D03*
X29250Y-59250D03*
G54D19*
X27250Y-14000D03*
G54D20*
X28250Y-14000D03*
X29250Y-14000D03*
G54D19*
X31250Y-14000D03*
G54D20*
X32250Y-14000D03*
X33250Y-14000D03*
G54D19*
X35250Y-14000D03*
G54D20*
X36250Y-14000D03*
X37250Y-14000D03*
G54D13*
X18000Y-35375D03*
X18000Y-34625D03*
G54D12*
X37000Y-31650D03*
X37000Y-30350D03*
G54D13*
X38000Y-31875D03*
X38000Y-31125D03*
G54D35*
X39750Y-31000D03*
X39750Y-32000D03*
X39750Y-30000D03*
G54D10*
G36*
X34950Y-56200D02*
X31050Y-56200D01*
X31050Y-56015D01*
X33000Y-53090D01*
X34950Y-56015D01*
X34950Y-56200D01*
X34950Y-56200D01*
G37*
G54D36*
X34950Y-56200D02*
X31050Y-56200D01*
X31050Y-56015D01*
X33000Y-53090D01*
X34950Y-56015D01*
X34950Y-56200D01*
M02*
