%FSLAX34Y34*%
G04 Gerber Fmt 3.4, Leading zero omitted, Abs format*
G04 (created by PCBNEW (2014-03-19 BZR 4756)-product) date Tue May 27 15:21:17 2014*
%MOIN*%
G01*
G70*
G90*
G04 APERTURE LIST*
%ADD10C,0.005906*%
%ADD11C,0.011811*%
G04 APERTURE END LIST*
G54D10*
G54D11*
X30037Y-16179D02*
X30037Y-16584D01*
X30060Y-16629D01*
X30105Y-16651D01*
X30127Y-16651D01*
X30037Y-16021D02*
X30060Y-16044D01*
X30037Y-16066D01*
X30015Y-16044D01*
X30037Y-16021D01*
X30037Y-16066D01*
X29745Y-16494D02*
X29790Y-16471D01*
X29812Y-16449D01*
X29835Y-16404D01*
X29835Y-16269D01*
X29812Y-16224D01*
X29790Y-16201D01*
X29745Y-16179D01*
X29677Y-16179D01*
X29632Y-16201D01*
X29610Y-16224D01*
X29587Y-16269D01*
X29587Y-16404D01*
X29610Y-16449D01*
X29632Y-16471D01*
X29677Y-16494D01*
X29745Y-16494D01*
X29385Y-16179D02*
X29385Y-16494D01*
X29385Y-16224D02*
X29362Y-16201D01*
X29317Y-16179D01*
X29250Y-16179D01*
X29205Y-16201D01*
X29182Y-16246D01*
X29182Y-16494D01*
X28597Y-16494D02*
X28597Y-16021D01*
X28552Y-16314D02*
X28417Y-16494D01*
X28417Y-16179D02*
X28597Y-16359D01*
X28147Y-16494D02*
X28192Y-16471D01*
X28215Y-16426D01*
X28215Y-16021D01*
X27787Y-16471D02*
X27832Y-16494D01*
X27922Y-16494D01*
X27967Y-16471D01*
X27990Y-16426D01*
X27990Y-16246D01*
X27967Y-16201D01*
X27922Y-16179D01*
X27832Y-16179D01*
X27787Y-16201D01*
X27765Y-16246D01*
X27765Y-16291D01*
X27990Y-16336D01*
X27562Y-16494D02*
X27562Y-16179D01*
X27562Y-16021D02*
X27585Y-16044D01*
X27562Y-16066D01*
X27540Y-16044D01*
X27562Y-16021D01*
X27562Y-16066D01*
X27337Y-16179D02*
X27337Y-16494D01*
X27337Y-16224D02*
X27315Y-16201D01*
X27270Y-16179D01*
X27202Y-16179D01*
X27157Y-16201D01*
X27135Y-16246D01*
X27135Y-16494D01*
X30037Y-16958D02*
X30037Y-17363D01*
X30060Y-17408D01*
X30105Y-17431D01*
X30127Y-17431D01*
X30037Y-16801D02*
X30060Y-16824D01*
X30037Y-16846D01*
X30015Y-16824D01*
X30037Y-16801D01*
X30037Y-16846D01*
X29880Y-16958D02*
X29700Y-16958D01*
X29812Y-16801D02*
X29812Y-17206D01*
X29790Y-17251D01*
X29745Y-17273D01*
X29700Y-17273D01*
X29542Y-17273D02*
X29542Y-16801D01*
X29497Y-17093D02*
X29362Y-17273D01*
X29362Y-16958D02*
X29542Y-17138D01*
X29092Y-17273D02*
X29137Y-17251D01*
X29160Y-17206D01*
X29160Y-16801D01*
X28732Y-17251D02*
X28777Y-17273D01*
X28867Y-17273D01*
X28912Y-17251D01*
X28935Y-17206D01*
X28935Y-17026D01*
X28912Y-16981D01*
X28867Y-16958D01*
X28777Y-16958D01*
X28732Y-16981D01*
X28710Y-17026D01*
X28710Y-17071D01*
X28935Y-17116D01*
X28507Y-17273D02*
X28507Y-16958D01*
X28507Y-16801D02*
X28530Y-16824D01*
X28507Y-16846D01*
X28485Y-16824D01*
X28507Y-16801D01*
X28507Y-16846D01*
X28282Y-16958D02*
X28282Y-17273D01*
X28282Y-17003D02*
X28260Y-16981D01*
X28215Y-16958D01*
X28147Y-16958D01*
X28102Y-16981D01*
X28080Y-17026D01*
X28080Y-17273D01*
X27562Y-17048D02*
X27585Y-17026D01*
X27630Y-17003D01*
X27675Y-17003D01*
X27720Y-17026D01*
X27742Y-17048D01*
X27765Y-17093D01*
X27765Y-17138D01*
X27742Y-17183D01*
X27720Y-17206D01*
X27675Y-17228D01*
X27630Y-17228D01*
X27585Y-17206D01*
X27562Y-17183D01*
X27562Y-17003D02*
X27562Y-17183D01*
X27540Y-17206D01*
X27517Y-17206D01*
X27472Y-17183D01*
X27450Y-17138D01*
X27450Y-17026D01*
X27495Y-16958D01*
X27562Y-16914D01*
X27652Y-16891D01*
X27742Y-16914D01*
X27810Y-16958D01*
X27855Y-17026D01*
X27877Y-17116D01*
X27855Y-17206D01*
X27810Y-17273D01*
X27742Y-17318D01*
X27652Y-17341D01*
X27562Y-17318D01*
X27495Y-17273D01*
X27045Y-17273D02*
X27045Y-17026D01*
X27067Y-16981D01*
X27112Y-16958D01*
X27202Y-16958D01*
X27247Y-16981D01*
X27045Y-17251D02*
X27090Y-17273D01*
X27202Y-17273D01*
X27247Y-17251D01*
X27270Y-17206D01*
X27270Y-17161D01*
X27247Y-17116D01*
X27202Y-17093D01*
X27090Y-17093D01*
X27045Y-17071D01*
X26752Y-17273D02*
X26797Y-17251D01*
X26820Y-17206D01*
X26820Y-16801D01*
X26370Y-17273D02*
X26370Y-17026D01*
X26392Y-16981D01*
X26437Y-16958D01*
X26527Y-16958D01*
X26572Y-16981D01*
X26370Y-17251D02*
X26415Y-17273D01*
X26527Y-17273D01*
X26572Y-17251D01*
X26595Y-17206D01*
X26595Y-17161D01*
X26572Y-17116D01*
X26527Y-17093D01*
X26415Y-17093D01*
X26370Y-17071D01*
X26167Y-17251D02*
X26123Y-17273D01*
X26033Y-17273D01*
X25988Y-17251D01*
X25965Y-17206D01*
X25965Y-17183D01*
X25988Y-17138D01*
X26033Y-17116D01*
X26100Y-17116D01*
X26145Y-17093D01*
X26167Y-17048D01*
X26167Y-17026D01*
X26145Y-16981D01*
X26100Y-16958D01*
X26033Y-16958D01*
X25988Y-16981D01*
X25763Y-17273D02*
X25763Y-16801D01*
X25718Y-17093D02*
X25583Y-17273D01*
X25583Y-16958D02*
X25763Y-17138D01*
X25178Y-17273D02*
X25178Y-17026D01*
X25200Y-16981D01*
X25245Y-16958D01*
X25335Y-16958D01*
X25380Y-16981D01*
X25178Y-17251D02*
X25223Y-17273D01*
X25335Y-17273D01*
X25380Y-17251D01*
X25403Y-17206D01*
X25403Y-17161D01*
X25380Y-17116D01*
X25335Y-17093D01*
X25223Y-17093D01*
X25178Y-17071D01*
X24953Y-17228D02*
X24930Y-17251D01*
X24953Y-17273D01*
X24975Y-17251D01*
X24953Y-17228D01*
X24953Y-17273D01*
X24548Y-17251D02*
X24593Y-17273D01*
X24683Y-17273D01*
X24728Y-17251D01*
X24750Y-17206D01*
X24750Y-17026D01*
X24728Y-16981D01*
X24683Y-16958D01*
X24593Y-16958D01*
X24548Y-16981D01*
X24525Y-17026D01*
X24525Y-17071D01*
X24750Y-17116D01*
X24120Y-17273D02*
X24120Y-16801D01*
X24120Y-17251D02*
X24165Y-17273D01*
X24255Y-17273D01*
X24300Y-17251D01*
X24323Y-17228D01*
X24345Y-17183D01*
X24345Y-17048D01*
X24323Y-17003D01*
X24300Y-16981D01*
X24255Y-16958D01*
X24165Y-16958D01*
X24120Y-16981D01*
X23693Y-16958D02*
X23693Y-17273D01*
X23895Y-16958D02*
X23895Y-17206D01*
X23873Y-17251D01*
X23828Y-17273D01*
X23760Y-17273D01*
X23715Y-17251D01*
X23693Y-17228D01*
X30037Y-18053D02*
X30037Y-17581D01*
X29992Y-17873D02*
X29857Y-18053D01*
X29857Y-17738D02*
X30037Y-17918D01*
X29587Y-18053D02*
X29632Y-18030D01*
X29655Y-18008D01*
X29677Y-17963D01*
X29677Y-17828D01*
X29655Y-17783D01*
X29632Y-17761D01*
X29587Y-17738D01*
X29520Y-17738D01*
X29475Y-17761D01*
X29452Y-17783D01*
X29430Y-17828D01*
X29430Y-17963D01*
X29452Y-18008D01*
X29475Y-18030D01*
X29520Y-18053D01*
X29587Y-18053D01*
X29025Y-18053D02*
X29025Y-17581D01*
X29025Y-18030D02*
X29070Y-18053D01*
X29160Y-18053D01*
X29205Y-18030D01*
X29227Y-18008D01*
X29250Y-17963D01*
X29250Y-17828D01*
X29227Y-17783D01*
X29205Y-17761D01*
X29160Y-17738D01*
X29070Y-17738D01*
X29025Y-17761D01*
X28800Y-18053D02*
X28800Y-17738D01*
X28800Y-17581D02*
X28822Y-17603D01*
X28800Y-17626D01*
X28777Y-17603D01*
X28800Y-17581D01*
X28800Y-17626D01*
X28372Y-18053D02*
X28372Y-17806D01*
X28395Y-17761D01*
X28440Y-17738D01*
X28530Y-17738D01*
X28575Y-17761D01*
X28372Y-18030D02*
X28417Y-18053D01*
X28530Y-18053D01*
X28575Y-18030D01*
X28597Y-17985D01*
X28597Y-17941D01*
X28575Y-17896D01*
X28530Y-17873D01*
X28417Y-17873D01*
X28372Y-17851D01*
X28147Y-18053D02*
X28147Y-17581D01*
X28102Y-17873D02*
X27967Y-18053D01*
X27967Y-17738D02*
X28147Y-17918D01*
X27427Y-17581D02*
X27427Y-17671D01*
X27247Y-17581D02*
X27247Y-17671D01*
X26842Y-18053D02*
X26842Y-17806D01*
X26865Y-17761D01*
X26910Y-17738D01*
X27000Y-17738D01*
X27045Y-17761D01*
X26842Y-18030D02*
X26887Y-18053D01*
X27000Y-18053D01*
X27045Y-18030D01*
X27067Y-17985D01*
X27067Y-17941D01*
X27045Y-17896D01*
X27000Y-17873D01*
X26887Y-17873D01*
X26842Y-17851D01*
X26415Y-17738D02*
X26415Y-18120D01*
X26437Y-18165D01*
X26460Y-18188D01*
X26505Y-18210D01*
X26572Y-18210D01*
X26617Y-18188D01*
X26415Y-18030D02*
X26460Y-18053D01*
X26550Y-18053D01*
X26595Y-18030D01*
X26617Y-18008D01*
X26640Y-17963D01*
X26640Y-17828D01*
X26617Y-17783D01*
X26595Y-17761D01*
X26550Y-17738D01*
X26460Y-17738D01*
X26415Y-17761D01*
X25988Y-18030D02*
X26033Y-18053D01*
X26123Y-18053D01*
X26167Y-18030D01*
X26190Y-18008D01*
X26212Y-17963D01*
X26212Y-17828D01*
X26190Y-17783D01*
X26167Y-17761D01*
X26123Y-17738D01*
X26033Y-17738D01*
X25988Y-17761D01*
X25808Y-17581D02*
X25808Y-17671D01*
X25628Y-17581D02*
X25628Y-17671D01*
X25065Y-18053D02*
X25065Y-17738D01*
X25065Y-17828D02*
X25043Y-17783D01*
X25020Y-17761D01*
X24975Y-17738D01*
X24930Y-17738D01*
X24683Y-17581D02*
X24638Y-17581D01*
X24593Y-17603D01*
X24570Y-17626D01*
X24548Y-17671D01*
X24525Y-17761D01*
X24525Y-17873D01*
X24548Y-17963D01*
X24570Y-18008D01*
X24593Y-18030D01*
X24638Y-18053D01*
X24683Y-18053D01*
X24728Y-18030D01*
X24750Y-18008D01*
X24773Y-17963D01*
X24795Y-17873D01*
X24795Y-17761D01*
X24773Y-17671D01*
X24750Y-17626D01*
X24728Y-17603D01*
X24683Y-17581D01*
X30060Y-18405D02*
X30037Y-18383D01*
X29992Y-18360D01*
X29880Y-18360D01*
X29835Y-18383D01*
X29812Y-18405D01*
X29790Y-18450D01*
X29790Y-18495D01*
X29812Y-18563D01*
X30082Y-18833D01*
X29790Y-18833D01*
X29497Y-18360D02*
X29452Y-18360D01*
X29407Y-18383D01*
X29385Y-18405D01*
X29362Y-18450D01*
X29340Y-18540D01*
X29340Y-18653D01*
X29362Y-18743D01*
X29385Y-18788D01*
X29407Y-18810D01*
X29452Y-18833D01*
X29497Y-18833D01*
X29542Y-18810D01*
X29565Y-18788D01*
X29587Y-18743D01*
X29610Y-18653D01*
X29610Y-18540D01*
X29587Y-18450D01*
X29565Y-18405D01*
X29542Y-18383D01*
X29497Y-18360D01*
X28890Y-18833D02*
X29160Y-18833D01*
X29025Y-18833D02*
X29025Y-18360D01*
X29070Y-18428D01*
X29115Y-18473D01*
X29160Y-18495D01*
X28485Y-18518D02*
X28485Y-18833D01*
X28597Y-18338D02*
X28710Y-18675D01*
X28417Y-18675D01*
X28237Y-18788D02*
X28215Y-18810D01*
X28237Y-18833D01*
X28260Y-18810D01*
X28237Y-18788D01*
X28237Y-18833D01*
X27922Y-18360D02*
X27877Y-18360D01*
X27832Y-18383D01*
X27810Y-18405D01*
X27787Y-18450D01*
X27765Y-18540D01*
X27765Y-18653D01*
X27787Y-18743D01*
X27810Y-18788D01*
X27832Y-18810D01*
X27877Y-18833D01*
X27922Y-18833D01*
X27967Y-18810D01*
X27990Y-18788D01*
X28012Y-18743D01*
X28035Y-18653D01*
X28035Y-18540D01*
X28012Y-18450D01*
X27990Y-18405D01*
X27967Y-18383D01*
X27922Y-18360D01*
X27337Y-18360D02*
X27562Y-18360D01*
X27585Y-18585D01*
X27562Y-18563D01*
X27517Y-18540D01*
X27405Y-18540D01*
X27360Y-18563D01*
X27337Y-18585D01*
X27315Y-18630D01*
X27315Y-18743D01*
X27337Y-18788D01*
X27360Y-18810D01*
X27405Y-18833D01*
X27517Y-18833D01*
X27562Y-18810D01*
X27585Y-18788D01*
M02*
