%FSLAX34Y34*%
G04 Gerber Fmt 3.4, Leading zero omitted, Abs format*
G04 (created by PCBNEW (2014-03-19 BZR 4756)-product) date Tue May 27 15:21:17 2014*
%MOIN*%
G01*
G70*
G90*
G04 APERTURE LIST*
%ADD10C,0.005906*%
%ADD11R,0.035000X0.055000*%
%ADD12R,0.080000X0.060000*%
%ADD13R,0.055000X0.035000*%
%ADD14R,0.060000X0.080000*%
%ADD15R,0.047200X0.047200*%
%ADD16R,0.090600X0.137800*%
%ADD17R,0.200787X0.094488*%
%ADD18R,0.094488X0.200787*%
%ADD19R,0.055000X0.055000*%
%ADD20C,0.055000*%
%ADD21C,0.045000*%
%ADD22R,0.042000X0.090000*%
%ADD23R,0.420000X0.350000*%
%ADD24R,0.039400X0.098500*%
%ADD25R,0.078700X0.157500*%
%ADD26R,0.039400X0.027600*%
%ADD27R,0.059100X0.015700*%
%ADD28R,0.055118X0.015748*%
%ADD29R,0.020000X0.030000*%
%ADD30R,0.059055X0.023622*%
%ADD31R,0.208700X0.059100*%
%ADD32O,0.098400X0.059100*%
%ADD33C,0.035000*%
%ADD34C,0.031496*%
%ADD35C,0.015748*%
%ADD36C,0.007874*%
%ADD37C,0.019685*%
G04 APERTURE END LIST*
G54D10*
G54D11*
X23375Y-37000D03*
X24125Y-37000D03*
G54D12*
X35500Y-27350D03*
X35500Y-28650D03*
G54D13*
X32750Y-27625D03*
X32750Y-26875D03*
G54D12*
X33750Y-27650D03*
X33750Y-26350D03*
G54D13*
X36600Y-27325D03*
X36600Y-28075D03*
G54D11*
X27875Y-37000D03*
X28625Y-37000D03*
G54D12*
X29250Y-28100D03*
X29250Y-29400D03*
G54D14*
X27100Y-33000D03*
X28400Y-33000D03*
G54D13*
X22750Y-19125D03*
X22750Y-18375D03*
X22750Y-22125D03*
X22750Y-21375D03*
X28250Y-27875D03*
X28250Y-28625D03*
G54D11*
X27125Y-34250D03*
X27875Y-34250D03*
X27125Y-35250D03*
X27875Y-35250D03*
X31625Y-36500D03*
X32375Y-36500D03*
X24875Y-20250D03*
X25625Y-20250D03*
G54D13*
X26500Y-21125D03*
X26500Y-20375D03*
G54D11*
X35375Y-37000D03*
X36125Y-37000D03*
G54D13*
X30500Y-21875D03*
X30500Y-21125D03*
G54D11*
X31625Y-17000D03*
X32375Y-17000D03*
X31625Y-18000D03*
X32375Y-18000D03*
X34375Y-19750D03*
X35125Y-19750D03*
X21925Y-42450D03*
X21175Y-42450D03*
X20325Y-42450D03*
X19575Y-42450D03*
G54D13*
X17750Y-32625D03*
X17750Y-33375D03*
X19000Y-30125D03*
X19000Y-30875D03*
X22250Y-34375D03*
X22250Y-35125D03*
G54D11*
X21125Y-29500D03*
X21875Y-29500D03*
G54D13*
X24000Y-30875D03*
X24000Y-30125D03*
G54D15*
X14087Y-27750D03*
X14913Y-27750D03*
X14250Y-22337D03*
X14250Y-23163D03*
X19537Y-39750D03*
X20363Y-39750D03*
X19537Y-40550D03*
X20363Y-40550D03*
G54D16*
X16250Y-28437D03*
X16250Y-30563D03*
X16250Y-34563D03*
X16250Y-32437D03*
G54D17*
X14000Y-37000D03*
X14000Y-35267D03*
X14000Y-38732D03*
G54D18*
X22750Y-14000D03*
X24482Y-14000D03*
X21017Y-14000D03*
G54D17*
X40500Y-37000D03*
X40500Y-35267D03*
X40500Y-38732D03*
X40500Y-19750D03*
X40500Y-18017D03*
X40500Y-21482D03*
G54D19*
X14250Y-18000D03*
G54D20*
X14250Y-19000D03*
X14250Y-20000D03*
G54D19*
X40500Y-25500D03*
G54D20*
X40500Y-24500D03*
X40500Y-23500D03*
G54D19*
X14250Y-26500D03*
G54D20*
X14250Y-25500D03*
X14250Y-24500D03*
G54D13*
X27000Y-36125D03*
X27000Y-36875D03*
G54D11*
X29125Y-20250D03*
X28375Y-20250D03*
G54D13*
X32500Y-18875D03*
X32500Y-19625D03*
G54D21*
X21750Y-23250D03*
G54D19*
X33850Y-43750D03*
G54D20*
X34850Y-43750D03*
X35850Y-43750D03*
X36850Y-43750D03*
G54D19*
X26650Y-43750D03*
G54D20*
X27650Y-43750D03*
X28650Y-43750D03*
X29650Y-43750D03*
G54D19*
X14250Y-33500D03*
G54D20*
X14250Y-32500D03*
X14250Y-31500D03*
X14250Y-30500D03*
G54D13*
X20000Y-37875D03*
X20000Y-37125D03*
G54D11*
X20875Y-37000D03*
X21625Y-37000D03*
G54D13*
X22500Y-37875D03*
X22500Y-37125D03*
G54D14*
X15100Y-22250D03*
X16400Y-22250D03*
X17600Y-21000D03*
X18900Y-21000D03*
X15850Y-26750D03*
X17150Y-26750D03*
G54D12*
X17500Y-23650D03*
X17500Y-22350D03*
X16000Y-24350D03*
X16000Y-25650D03*
G54D13*
X20250Y-23125D03*
X20250Y-22375D03*
G54D12*
X27000Y-30600D03*
X27000Y-31900D03*
G54D11*
X21125Y-22250D03*
X21875Y-22250D03*
G54D13*
X22750Y-23625D03*
X22750Y-22875D03*
G54D11*
X31375Y-38250D03*
X30625Y-38250D03*
X32375Y-38250D03*
X33125Y-38250D03*
G54D13*
X27500Y-20375D03*
X27500Y-21125D03*
X31500Y-21875D03*
X31500Y-21125D03*
X33500Y-19875D03*
X33500Y-20625D03*
X36000Y-20625D03*
X36000Y-19875D03*
X32650Y-43725D03*
X32650Y-42975D03*
X33650Y-41175D03*
X33650Y-41925D03*
X31350Y-43725D03*
X31350Y-42975D03*
G54D11*
X30025Y-42550D03*
X29275Y-42550D03*
X37625Y-19750D03*
X36875Y-19750D03*
G54D13*
X36850Y-42625D03*
X36850Y-41875D03*
X36850Y-40375D03*
X36850Y-41125D03*
X27750Y-41925D03*
X27750Y-41175D03*
X28650Y-41925D03*
X28650Y-41175D03*
X38500Y-20625D03*
X38500Y-19875D03*
X35850Y-41175D03*
X35850Y-41925D03*
X34950Y-41925D03*
X34950Y-41175D03*
G54D11*
X35025Y-40450D03*
X34275Y-40450D03*
G54D13*
X30450Y-41175D03*
X30450Y-41925D03*
X31550Y-41925D03*
X31550Y-41175D03*
X32750Y-41175D03*
X32750Y-41925D03*
G54D11*
X23725Y-39250D03*
X22975Y-39250D03*
G54D13*
X25550Y-39175D03*
X25550Y-39925D03*
G54D11*
X27625Y-38950D03*
X26875Y-38950D03*
X20325Y-41350D03*
X19575Y-41350D03*
X18175Y-39750D03*
X18925Y-39750D03*
X18175Y-40550D03*
X18925Y-40550D03*
G54D13*
X19000Y-29375D03*
X19000Y-28625D03*
X17750Y-31125D03*
X17750Y-31875D03*
G54D11*
X19625Y-35250D03*
X18875Y-35250D03*
G54D13*
X18750Y-33125D03*
X18750Y-33875D03*
X23000Y-30875D03*
X23000Y-30125D03*
X23000Y-32875D03*
X23000Y-32125D03*
G54D22*
X33590Y-29250D03*
G54D23*
X32250Y-32700D03*
G54D22*
X32250Y-29250D03*
X32920Y-29250D03*
X31580Y-29250D03*
X30910Y-29250D03*
G54D24*
X24909Y-37176D03*
X25500Y-37176D03*
X26091Y-37176D03*
G54D25*
X25500Y-35620D03*
G54D10*
G36*
X25894Y-36397D02*
X25697Y-36692D01*
X25303Y-36692D01*
X25106Y-36397D01*
X25894Y-36397D01*
X25894Y-36397D01*
G37*
G54D26*
X29500Y-37375D03*
X29500Y-37000D03*
X29500Y-36625D03*
X30500Y-36625D03*
X30500Y-37000D03*
X30500Y-37375D03*
X23750Y-19875D03*
X23750Y-20250D03*
X23750Y-20625D03*
X22750Y-20625D03*
X22750Y-20250D03*
X22750Y-19875D03*
X34250Y-36625D03*
X34250Y-37000D03*
X34250Y-37375D03*
X33250Y-37375D03*
X33250Y-37000D03*
X33250Y-36625D03*
G54D27*
X30476Y-19744D03*
X30476Y-20000D03*
X30476Y-20256D03*
X31524Y-20256D03*
X31524Y-20000D03*
X31524Y-19744D03*
G54D28*
X24252Y-40875D03*
X24252Y-40625D03*
X24252Y-40375D03*
X24252Y-40125D03*
X22047Y-41625D03*
X24252Y-41625D03*
X24252Y-41375D03*
X24252Y-41125D03*
X22047Y-39875D03*
X22047Y-40125D03*
X22047Y-40375D03*
X22047Y-40625D03*
X22047Y-40875D03*
X22047Y-41125D03*
X24252Y-39875D03*
X22047Y-41375D03*
G54D29*
X21375Y-34250D03*
X20625Y-34250D03*
X21375Y-35250D03*
X21000Y-34250D03*
X20625Y-35250D03*
G54D30*
X19937Y-30500D03*
X19937Y-31000D03*
X19937Y-31500D03*
X19937Y-32000D03*
X19937Y-32500D03*
X19937Y-33000D03*
X19937Y-33500D03*
X22062Y-33500D03*
X22062Y-33000D03*
X22062Y-32500D03*
X22062Y-32000D03*
X22062Y-31500D03*
X22062Y-31000D03*
X22062Y-30500D03*
G54D14*
X20150Y-25000D03*
X18850Y-25000D03*
G54D12*
X19000Y-22350D03*
X19000Y-23650D03*
G54D31*
X35500Y-24500D03*
X35500Y-26200D03*
G54D19*
X27250Y-14000D03*
G54D20*
X28250Y-14000D03*
X29250Y-14000D03*
G54D19*
X31250Y-14000D03*
G54D20*
X32250Y-14000D03*
X33250Y-14000D03*
G54D19*
X35250Y-14000D03*
G54D20*
X36250Y-14000D03*
X37250Y-14000D03*
G54D13*
X18000Y-35375D03*
X18000Y-34625D03*
G54D12*
X39500Y-31450D03*
X39500Y-32750D03*
G54D13*
X36600Y-29625D03*
X36600Y-30375D03*
G54D19*
X24550Y-43750D03*
G54D20*
X23550Y-43750D03*
X22550Y-43750D03*
G54D32*
X39500Y-28600D03*
X39500Y-27600D03*
X39500Y-29600D03*
G54D33*
X36350Y-35550D03*
X24550Y-38750D03*
X33750Y-32750D03*
X30750Y-32750D03*
X24500Y-15500D03*
X21000Y-15500D03*
X39000Y-21500D03*
X38750Y-18000D03*
X39000Y-35250D03*
X39000Y-38750D03*
X15500Y-38750D03*
X15500Y-35500D03*
X28500Y-35250D03*
X28500Y-34250D03*
X22500Y-38500D03*
X38500Y-21250D03*
X36000Y-21250D03*
X31250Y-31750D03*
X31250Y-31250D03*
X30750Y-31250D03*
X30750Y-31750D03*
X30750Y-32250D03*
X31250Y-32250D03*
X31250Y-32750D03*
X33250Y-32750D03*
X33250Y-32250D03*
X33750Y-32250D03*
X33750Y-31750D03*
X33250Y-31750D03*
X33250Y-31250D03*
X33750Y-31250D03*
X34250Y-31250D03*
X34750Y-31250D03*
X34750Y-31750D03*
X34750Y-32250D03*
X34750Y-32750D03*
X34750Y-33250D03*
X34750Y-33750D03*
X29750Y-33750D03*
X29750Y-33250D03*
X29750Y-32750D03*
X29750Y-32250D03*
X29750Y-31750D03*
X29750Y-31250D03*
X34250Y-31750D03*
X34250Y-32250D03*
X34250Y-32750D03*
X34250Y-33250D03*
X34250Y-33750D03*
X30250Y-33750D03*
X30250Y-33250D03*
X30250Y-32750D03*
X30250Y-32250D03*
X30250Y-31750D03*
X30250Y-31250D03*
X23000Y-34250D03*
X25500Y-34750D03*
X25000Y-34750D03*
X24500Y-34750D03*
X24000Y-34750D03*
X24000Y-35250D03*
X24500Y-35250D03*
X25000Y-35250D03*
X25500Y-35250D03*
X26000Y-35250D03*
X26000Y-35750D03*
X25000Y-35750D03*
X24500Y-35750D03*
X24000Y-33250D03*
X24500Y-33250D03*
X25000Y-33250D03*
X25500Y-33250D03*
X26000Y-33250D03*
X26000Y-33750D03*
X25500Y-33750D03*
X25000Y-33750D03*
X24500Y-33750D03*
X24000Y-33750D03*
X24000Y-34250D03*
X24500Y-34250D03*
X25000Y-34250D03*
X25500Y-34250D03*
X26000Y-34250D03*
X26000Y-34750D03*
X25500Y-36545D03*
X25500Y-36000D03*
X35500Y-29250D03*
X36600Y-28700D03*
X22000Y-20250D03*
X21000Y-25000D03*
X29750Y-19500D03*
X32250Y-20250D03*
X17250Y-34750D03*
X17250Y-28250D03*
X17750Y-30500D03*
X17750Y-34000D03*
X20250Y-34500D03*
X20000Y-34000D03*
X20500Y-29500D03*
X23000Y-33500D03*
X18000Y-26750D03*
X19500Y-21000D03*
X20250Y-23750D03*
X22750Y-24250D03*
X17000Y-25500D03*
X26500Y-21750D03*
X29750Y-21250D03*
X31000Y-17000D03*
X31000Y-18000D03*
X33750Y-25500D03*
X32750Y-26250D03*
X29250Y-30250D03*
X28250Y-29250D03*
X32000Y-37500D03*
X31250Y-37500D03*
X32500Y-37250D03*
X20000Y-38500D03*
X29250Y-33000D03*
X36650Y-31000D03*
X40450Y-32750D03*
X35050Y-39850D03*
X32750Y-40650D03*
X30550Y-42550D03*
X28150Y-38950D03*
X21150Y-43050D03*
X22050Y-39550D03*
X17450Y-39750D03*
X17450Y-40550D03*
X18850Y-41350D03*
X18850Y-42450D03*
X33000Y-17500D03*
X32750Y-21750D03*
X37950Y-25550D03*
X22000Y-28250D03*
X22950Y-41250D03*
X22850Y-35150D03*
X30550Y-43050D03*
X23350Y-40550D03*
X34450Y-29250D03*
X15250Y-34000D03*
X17000Y-35250D03*
X35050Y-42650D03*
X36050Y-40350D03*
X29250Y-22750D03*
X33500Y-22750D03*
X26250Y-41750D03*
X26250Y-39450D03*
X26950Y-39850D03*
X26750Y-41250D03*
X34750Y-37750D03*
X30500Y-14000D03*
X18750Y-36000D03*
X31250Y-26000D03*
X32500Y-25750D03*
X24750Y-26000D03*
X24750Y-25000D03*
X24250Y-19500D03*
X29250Y-38000D03*
X30000Y-15500D03*
X34250Y-36000D03*
X18250Y-34000D03*
X24000Y-21250D03*
X29500Y-35750D03*
G54D34*
X21625Y-37000D02*
X23375Y-37000D01*
G54D35*
X23375Y-37000D02*
X22625Y-37000D01*
X22625Y-37000D02*
X22500Y-37125D01*
X21625Y-37000D02*
X22375Y-37000D01*
X22375Y-37000D02*
X22500Y-37125D01*
G54D34*
X24125Y-37000D02*
X24733Y-37000D01*
X24733Y-37000D02*
X24909Y-37176D01*
X33750Y-27650D02*
X32775Y-27650D01*
X32775Y-27650D02*
X32750Y-27625D01*
X32750Y-27625D02*
X32750Y-28000D01*
X32920Y-28170D02*
X32920Y-29250D01*
X32750Y-28000D02*
X32920Y-28170D01*
X34600Y-27650D02*
X34900Y-27350D01*
X34900Y-27350D02*
X35500Y-27350D01*
X33750Y-27650D02*
X34600Y-27650D01*
X35525Y-27375D02*
X35500Y-27350D01*
X35500Y-26200D02*
X35500Y-27350D01*
X35525Y-27325D02*
X35500Y-27350D01*
X36600Y-27325D02*
X35525Y-27325D01*
X38250Y-27600D02*
X37975Y-27325D01*
X37975Y-27325D02*
X36600Y-27325D01*
X39500Y-27600D02*
X38250Y-27600D01*
G54D35*
X32920Y-29920D02*
X33050Y-30050D01*
X33050Y-30050D02*
X35450Y-30050D01*
X35450Y-30050D02*
X35950Y-30550D01*
X35950Y-30550D02*
X35950Y-35150D01*
X35950Y-35150D02*
X36350Y-35550D01*
X24550Y-38750D02*
X24250Y-38450D01*
X24250Y-38450D02*
X23250Y-38450D01*
X23250Y-38450D02*
X22975Y-38725D01*
X22975Y-38725D02*
X22975Y-39250D01*
X32920Y-29250D02*
X32920Y-29920D01*
G54D36*
X31250Y-32750D02*
X30750Y-32750D01*
X33750Y-32750D02*
X33250Y-32750D01*
G54D34*
X24482Y-15482D02*
X24500Y-15500D01*
X24482Y-15482D02*
X24482Y-14000D01*
X21017Y-15482D02*
X21000Y-15500D01*
X21017Y-15482D02*
X21017Y-14000D01*
X39017Y-21482D02*
X39000Y-21500D01*
X39017Y-21482D02*
X40500Y-21482D01*
X38767Y-18017D02*
X40500Y-18017D01*
X38767Y-18017D02*
X38750Y-18000D01*
X39017Y-35267D02*
X40500Y-35267D01*
X39017Y-35267D02*
X39000Y-35250D01*
X39017Y-38732D02*
X40500Y-38732D01*
X39017Y-38732D02*
X39000Y-38750D01*
X15482Y-38732D02*
X14000Y-38732D01*
X15482Y-38732D02*
X15500Y-38750D01*
X15267Y-35267D02*
X14000Y-35267D01*
X15267Y-35267D02*
X15500Y-35500D01*
X27875Y-35250D02*
X28500Y-35250D01*
X27875Y-34250D02*
X28500Y-34250D01*
X22500Y-37875D02*
X22500Y-38500D01*
X38500Y-20625D02*
X38500Y-21250D01*
X36000Y-20625D02*
X36000Y-21250D01*
G54D36*
X30750Y-31250D02*
X31250Y-31250D01*
X31250Y-31750D02*
X30750Y-31750D01*
X30750Y-32250D02*
X31250Y-32250D01*
X33250Y-32250D02*
X33750Y-32250D01*
X33750Y-31750D02*
X33250Y-31750D01*
X33250Y-31250D02*
X33750Y-31250D01*
X34250Y-31250D02*
X34250Y-31750D01*
X34750Y-31750D02*
X34750Y-31250D01*
X34750Y-32750D02*
X34750Y-32250D01*
X34750Y-33750D02*
X34750Y-33250D01*
X29750Y-33250D02*
X29750Y-33750D01*
X29750Y-32250D02*
X29750Y-32750D01*
X29750Y-31250D02*
X29750Y-31750D01*
X34250Y-32250D02*
X34250Y-32750D01*
X34250Y-33250D02*
X34250Y-33750D01*
X30250Y-33750D02*
X30250Y-33250D01*
X30250Y-32750D02*
X30250Y-32250D01*
X30250Y-31750D02*
X30250Y-31250D01*
G54D35*
X25500Y-37176D02*
X25500Y-34750D01*
X25500Y-37176D02*
X25500Y-35620D01*
X22875Y-34375D02*
X23000Y-34250D01*
X22250Y-34375D02*
X22875Y-34375D01*
X24500Y-35750D02*
X25295Y-36545D01*
X25000Y-34750D02*
X24500Y-34750D01*
X24000Y-34750D02*
X24000Y-35250D01*
X24500Y-35250D02*
X25000Y-35250D01*
X25500Y-35250D02*
X26000Y-35250D01*
X26000Y-35750D02*
X25000Y-35750D01*
X26000Y-34750D02*
X25500Y-34750D01*
X24500Y-33250D02*
X25000Y-33250D01*
X25500Y-33250D02*
X26000Y-33250D01*
X26000Y-33750D02*
X25500Y-33750D01*
X25000Y-33750D02*
X24500Y-33750D01*
X24000Y-33750D02*
X24000Y-34250D01*
X24500Y-34250D02*
X25000Y-34250D01*
X25500Y-34250D02*
X26000Y-34250D01*
X25295Y-36545D02*
X25500Y-36545D01*
X25500Y-36000D02*
X25500Y-35620D01*
G54D34*
X35500Y-28650D02*
X35500Y-29250D01*
X36600Y-28075D02*
X36600Y-28700D01*
G54D35*
X22750Y-20250D02*
X22000Y-20250D01*
G54D34*
X20150Y-25000D02*
X21000Y-25000D01*
G54D36*
X30476Y-19744D02*
X29994Y-19744D01*
X30000Y-20000D02*
X29750Y-19750D01*
X29750Y-19750D02*
X29750Y-19500D01*
X30000Y-20000D02*
X30476Y-20000D01*
X29994Y-19744D02*
X29750Y-19500D01*
X31524Y-20000D02*
X32000Y-20000D01*
X32000Y-20000D02*
X32250Y-20250D01*
G54D35*
X16250Y-34563D02*
X17063Y-34563D01*
X17063Y-34563D02*
X17250Y-34750D01*
X16250Y-28437D02*
X17063Y-28437D01*
X17063Y-28437D02*
X17250Y-28250D01*
X17750Y-31125D02*
X17750Y-30500D01*
X17750Y-33375D02*
X17750Y-34000D01*
X20625Y-34250D02*
X20500Y-34250D01*
X20500Y-34250D02*
X20250Y-34500D01*
X19937Y-33500D02*
X19937Y-33937D01*
X19937Y-33937D02*
X20000Y-34000D01*
X21125Y-29500D02*
X20500Y-29500D01*
X23000Y-32875D02*
X23000Y-33500D01*
G54D34*
X32250Y-29250D02*
X32250Y-32700D01*
X17150Y-26750D02*
X18000Y-26750D01*
X18900Y-21000D02*
X19500Y-21000D01*
X20250Y-23125D02*
X20250Y-23750D01*
X22750Y-23625D02*
X22750Y-24250D01*
X16000Y-25650D02*
X16850Y-25650D01*
X16850Y-25650D02*
X17000Y-25500D01*
X26500Y-21125D02*
X26500Y-21750D01*
G54D35*
X30500Y-21125D02*
X29875Y-21125D01*
X29875Y-21125D02*
X29750Y-21250D01*
G54D34*
X31625Y-17000D02*
X31000Y-17000D01*
X31625Y-18000D02*
X31000Y-18000D01*
X33750Y-26350D02*
X33750Y-25500D01*
X32750Y-26875D02*
X32750Y-26250D01*
X29250Y-29400D02*
X29250Y-30250D01*
X28250Y-28625D02*
X28250Y-29250D01*
G54D35*
X32375Y-38250D02*
X32375Y-37875D01*
X32375Y-37875D02*
X32000Y-37500D01*
X31375Y-38250D02*
X31375Y-37625D01*
X31375Y-37625D02*
X31250Y-37500D01*
X33250Y-37000D02*
X32750Y-37000D01*
X32750Y-37000D02*
X32500Y-37250D01*
G54D34*
X20000Y-37875D02*
X20000Y-38500D01*
X28400Y-33000D02*
X29250Y-33000D01*
X36600Y-30950D02*
X36650Y-31000D01*
X36600Y-30375D02*
X36600Y-30950D01*
X39500Y-32750D02*
X40450Y-32750D01*
G54D35*
X35025Y-39875D02*
X35050Y-39850D01*
X35025Y-40450D02*
X35025Y-39875D01*
X33650Y-41175D02*
X32750Y-41175D01*
X32750Y-41175D02*
X32750Y-40650D01*
X30025Y-42550D02*
X30550Y-42550D01*
X27625Y-38950D02*
X28150Y-38950D01*
X21175Y-43025D02*
X21150Y-43050D01*
X21175Y-42450D02*
X21175Y-43025D01*
X22047Y-39552D02*
X22050Y-39550D01*
X22047Y-39875D02*
X22047Y-39552D01*
X18175Y-39750D02*
X17450Y-39750D01*
X18175Y-40550D02*
X17450Y-40550D01*
X19575Y-41350D02*
X18850Y-41350D01*
X19575Y-42450D02*
X18850Y-42450D01*
G54D34*
X27875Y-37000D02*
X27125Y-37000D01*
X27125Y-37000D02*
X27000Y-36875D01*
X27875Y-37000D02*
X26267Y-37000D01*
X26267Y-37000D02*
X26091Y-37176D01*
G54D35*
X28625Y-37000D02*
X29500Y-37000D01*
G54D34*
X27750Y-27750D02*
X27000Y-28500D01*
X31250Y-27750D02*
X29250Y-27750D01*
X29250Y-27750D02*
X27750Y-27750D01*
X28250Y-27875D02*
X29025Y-27875D01*
X29025Y-27875D02*
X29250Y-28100D01*
X29250Y-28100D02*
X29250Y-27750D01*
G54D35*
X28250Y-27875D02*
X28250Y-27750D01*
G54D34*
X31580Y-29250D02*
X31580Y-28080D01*
X27000Y-28500D02*
X27000Y-30600D01*
X31580Y-28080D02*
X31250Y-27750D01*
X27100Y-33000D02*
X27100Y-36025D01*
X27100Y-36025D02*
X27000Y-36125D01*
G54D36*
X27125Y-35250D02*
X27125Y-34250D01*
X27125Y-35250D02*
X27125Y-36000D01*
X27125Y-36000D02*
X27000Y-36125D01*
G54D34*
X27000Y-31900D02*
X27000Y-32900D01*
X27000Y-32900D02*
X27100Y-33000D01*
X27000Y-33100D02*
X27100Y-33000D01*
G54D35*
X22750Y-19125D02*
X22750Y-19875D01*
G54D34*
X22750Y-14000D02*
X22750Y-18375D01*
G54D35*
X21875Y-22250D02*
X21875Y-23125D01*
X21875Y-23125D02*
X21750Y-23250D01*
G54D34*
X22750Y-22125D02*
X22750Y-22875D01*
X21875Y-22250D02*
X22625Y-22250D01*
X22625Y-22250D02*
X22750Y-22125D01*
G54D35*
X22750Y-20625D02*
X22750Y-21375D01*
X30500Y-36625D02*
X31500Y-36625D01*
X31500Y-36625D02*
X31625Y-36500D01*
X33250Y-36625D02*
X32500Y-36625D01*
X32500Y-36625D02*
X32375Y-36500D01*
X23750Y-20250D02*
X24875Y-20250D01*
G54D34*
X25625Y-20250D02*
X28375Y-20250D01*
G54D36*
X27500Y-20375D02*
X28250Y-20375D01*
X28250Y-20375D02*
X28375Y-20250D01*
X26500Y-20375D02*
X27500Y-20375D01*
X25625Y-20250D02*
X26375Y-20250D01*
X26375Y-20250D02*
X26500Y-20375D01*
G54D35*
X35375Y-37000D02*
X34250Y-37000D01*
G54D34*
X36125Y-37000D02*
X40500Y-37000D01*
G54D35*
X21875Y-28875D02*
X21875Y-29500D01*
X19000Y-28625D02*
X21625Y-28625D01*
X21625Y-28625D02*
X21875Y-28875D01*
X22250Y-35125D02*
X21875Y-35125D01*
X21750Y-35250D02*
X21375Y-35250D01*
X21875Y-35125D02*
X21750Y-35250D01*
X22062Y-30500D02*
X22062Y-30187D01*
X22062Y-30187D02*
X22125Y-30125D01*
G54D34*
X23000Y-30125D02*
X22125Y-30125D01*
X21875Y-29875D02*
X21875Y-29500D01*
X22125Y-30125D02*
X21875Y-29875D01*
X24000Y-30125D02*
X23000Y-30125D01*
X31500Y-21875D02*
X30500Y-21875D01*
X32375Y-17500D02*
X32375Y-18000D01*
X32375Y-17000D02*
X32375Y-17500D01*
X32375Y-18000D02*
X32375Y-18750D01*
X32375Y-18750D02*
X32500Y-18875D01*
X24000Y-28750D02*
X24000Y-30125D01*
X26000Y-26750D02*
X24000Y-28750D01*
X29000Y-26750D02*
X26000Y-26750D01*
X30500Y-25250D02*
X29000Y-26750D01*
X30500Y-21875D02*
X30500Y-25250D01*
X32500Y-17500D02*
X32375Y-17500D01*
X32375Y-17500D02*
X32500Y-17500D01*
X33000Y-17500D02*
X32375Y-17500D01*
X32625Y-21875D02*
X32750Y-21750D01*
X31500Y-21875D02*
X32625Y-21875D01*
X39500Y-31450D02*
X39500Y-29600D01*
X39475Y-29625D02*
X39500Y-29600D01*
X36600Y-29625D02*
X39475Y-29625D01*
X40150Y-29600D02*
X40500Y-29250D01*
X40500Y-29250D02*
X40500Y-25500D01*
X39500Y-29600D02*
X40150Y-29600D01*
X38000Y-25500D02*
X37950Y-25550D01*
X40500Y-25500D02*
X38000Y-25500D01*
G54D35*
X32650Y-42975D02*
X31350Y-42975D01*
X22525Y-41125D02*
X22650Y-41250D01*
X22650Y-41350D02*
X22650Y-41550D01*
X22650Y-41250D02*
X22650Y-41350D01*
X22650Y-41550D02*
X22575Y-41625D01*
X22575Y-41625D02*
X22047Y-41625D01*
X22047Y-41125D02*
X22525Y-41125D01*
X22047Y-42327D02*
X21925Y-42450D01*
X22047Y-41625D02*
X22047Y-42327D01*
X21875Y-28375D02*
X21875Y-29500D01*
X22000Y-28250D02*
X21875Y-28375D01*
X22850Y-41350D02*
X22950Y-41250D01*
X22650Y-41350D02*
X22850Y-41350D01*
X22825Y-35125D02*
X22850Y-35150D01*
X22250Y-35125D02*
X22825Y-35125D01*
X30550Y-43050D02*
X30625Y-42975D01*
X30625Y-42975D02*
X31350Y-42975D01*
G54D34*
X33500Y-19875D02*
X33500Y-19750D01*
X32500Y-19625D02*
X33125Y-19625D01*
X33125Y-19625D02*
X33250Y-19750D01*
X33250Y-19750D02*
X34375Y-19750D01*
G54D36*
X31524Y-19744D02*
X32381Y-19744D01*
X32381Y-19744D02*
X32500Y-19625D01*
G54D34*
X36875Y-19750D02*
X35125Y-19750D01*
G54D35*
X36000Y-19875D02*
X35250Y-19875D01*
X35250Y-19875D02*
X35125Y-19750D01*
X36875Y-19750D02*
X36125Y-19750D01*
X36125Y-19750D02*
X36000Y-19875D01*
X21325Y-41375D02*
X20750Y-41950D01*
X20750Y-41950D02*
X20750Y-42350D01*
X20750Y-42350D02*
X20650Y-42450D01*
X20650Y-42450D02*
X20325Y-42450D01*
X22047Y-41375D02*
X21325Y-41375D01*
X17750Y-32625D02*
X18375Y-32625D01*
X18500Y-32500D02*
X19937Y-32500D01*
X18375Y-32625D02*
X18500Y-32500D01*
G54D34*
X14250Y-30500D02*
X16187Y-30500D01*
X16187Y-30500D02*
X16250Y-30563D01*
G54D35*
X19000Y-30125D02*
X17375Y-30125D01*
X16937Y-30563D02*
X16250Y-30563D01*
X17375Y-30125D02*
X16937Y-30563D01*
X19000Y-30125D02*
X19000Y-29375D01*
X19937Y-30500D02*
X19750Y-30500D01*
X19750Y-30500D02*
X19375Y-30125D01*
X19375Y-30125D02*
X19000Y-30125D01*
X19000Y-30875D02*
X19375Y-30875D01*
X19500Y-31000D02*
X19937Y-31000D01*
X19375Y-30875D02*
X19500Y-31000D01*
X22062Y-31500D02*
X23750Y-31500D01*
X24000Y-31250D02*
X24000Y-30875D01*
X23750Y-31500D02*
X24000Y-31250D01*
G54D34*
X14087Y-27750D02*
X13750Y-27750D01*
X13750Y-18000D02*
X14250Y-18000D01*
X13500Y-18250D02*
X13750Y-18000D01*
X13500Y-27500D02*
X13500Y-18250D01*
X13750Y-27750D02*
X13500Y-27500D01*
X14913Y-27750D02*
X14913Y-26750D01*
X14913Y-26750D02*
X15000Y-26750D01*
X15850Y-26750D02*
X15000Y-26750D01*
X15000Y-26750D02*
X14500Y-26750D01*
X14500Y-26750D02*
X14250Y-26500D01*
X15100Y-22250D02*
X14337Y-22250D01*
X14337Y-22250D02*
X14250Y-22337D01*
X14250Y-20000D02*
X14250Y-22337D01*
X14337Y-22250D02*
X14250Y-22337D01*
X16000Y-24350D02*
X14400Y-24350D01*
X14400Y-24350D02*
X14250Y-24500D01*
X14250Y-23163D02*
X14250Y-24500D01*
G54D35*
X18925Y-39750D02*
X19537Y-39750D01*
X21575Y-40375D02*
X20950Y-39750D01*
X20950Y-39750D02*
X20363Y-39750D01*
X22047Y-40375D02*
X21575Y-40375D01*
X19537Y-40550D02*
X18925Y-40550D01*
X20438Y-40625D02*
X20363Y-40550D01*
X22047Y-40625D02*
X20438Y-40625D01*
X23275Y-40625D02*
X23350Y-40550D01*
X34450Y-29250D02*
X33590Y-29250D01*
X22047Y-40625D02*
X23275Y-40625D01*
X18000Y-35375D02*
X17125Y-35375D01*
X15250Y-34000D02*
X15250Y-32500D01*
X17125Y-35375D02*
X17000Y-35250D01*
G54D34*
X14250Y-32500D02*
X15250Y-32500D01*
X15250Y-32500D02*
X16187Y-32500D01*
X16187Y-32500D02*
X16250Y-32437D01*
X14250Y-31500D02*
X14250Y-32500D01*
G54D35*
X17750Y-31875D02*
X17375Y-31875D01*
X16813Y-32437D02*
X16250Y-32437D01*
X17375Y-31875D02*
X16813Y-32437D01*
X17750Y-31875D02*
X18625Y-31875D01*
X19000Y-31500D02*
X19937Y-31500D01*
X18625Y-31875D02*
X19000Y-31500D01*
G54D34*
X14000Y-37000D02*
X20875Y-37000D01*
G54D36*
X20000Y-37125D02*
X14125Y-37125D01*
X14125Y-37125D02*
X14000Y-37000D01*
X20875Y-37000D02*
X20125Y-37000D01*
X20125Y-37000D02*
X20000Y-37125D01*
G54D34*
X20000Y-37125D02*
X20125Y-37125D01*
X40500Y-19750D02*
X37625Y-19750D01*
G54D35*
X38500Y-19875D02*
X40375Y-19875D01*
X40375Y-19875D02*
X40500Y-19750D01*
X37625Y-19750D02*
X38375Y-19750D01*
X38375Y-19750D02*
X38500Y-19875D01*
X40375Y-19875D02*
X40500Y-19750D01*
G54D34*
X38350Y-23500D02*
X37350Y-24500D01*
X37350Y-24500D02*
X35500Y-24500D01*
X40500Y-23500D02*
X38350Y-23500D01*
X29125Y-20250D02*
X29750Y-20250D01*
X29750Y-20250D02*
X29756Y-20256D01*
G54D36*
X30476Y-20256D02*
X29756Y-20256D01*
X29756Y-20256D02*
X29750Y-20250D01*
G54D35*
X36850Y-42625D02*
X36850Y-43750D01*
X33825Y-43725D02*
X33850Y-43750D01*
X32650Y-43725D02*
X33825Y-43725D01*
X35050Y-42650D02*
X35075Y-42625D01*
X35075Y-42625D02*
X36850Y-42625D01*
X36050Y-40350D02*
X36075Y-40375D01*
X36075Y-40375D02*
X36850Y-40375D01*
X34850Y-43350D02*
X34250Y-42750D01*
X34250Y-42750D02*
X33850Y-42750D01*
X33850Y-42750D02*
X33650Y-42550D01*
X33650Y-42550D02*
X33650Y-41925D01*
X34850Y-43750D02*
X34850Y-43350D01*
X29675Y-43725D02*
X29650Y-43750D01*
X31350Y-43725D02*
X29675Y-43725D01*
X27750Y-42150D02*
X26650Y-43250D01*
X26650Y-43250D02*
X26650Y-43750D01*
X27750Y-41925D02*
X27750Y-42150D01*
X28650Y-42550D02*
X28650Y-43750D01*
X28650Y-41925D02*
X28650Y-42550D01*
X29275Y-42550D02*
X28650Y-42550D01*
G54D34*
X17500Y-22350D02*
X16500Y-22350D01*
X16500Y-22350D02*
X16400Y-22250D01*
X17400Y-22250D02*
X17500Y-22350D01*
X17500Y-22350D02*
X17500Y-21100D01*
X17500Y-21100D02*
X17600Y-21000D01*
X18850Y-25000D02*
X18850Y-23800D01*
X18850Y-23800D02*
X19000Y-23650D01*
X19000Y-23650D02*
X17500Y-23650D01*
G54D35*
X20250Y-22375D02*
X20250Y-22250D01*
X21125Y-22250D02*
X20375Y-22250D01*
X20375Y-22250D02*
X20250Y-22375D01*
G54D34*
X20250Y-22375D02*
X20250Y-22250D01*
X21125Y-22250D02*
X19100Y-22250D01*
X19100Y-22250D02*
X19000Y-22350D01*
G54D35*
X30500Y-37375D02*
X30625Y-37375D01*
X30625Y-37375D02*
X30625Y-38250D01*
X33125Y-38250D02*
X33125Y-37500D01*
X33125Y-37500D02*
X33250Y-37375D01*
G54D34*
X33500Y-20750D02*
X33500Y-20625D01*
X27500Y-22250D02*
X28000Y-22750D01*
X28000Y-22750D02*
X29250Y-22750D01*
X33500Y-22750D02*
X33500Y-20625D01*
X27500Y-21125D02*
X27500Y-22250D01*
G54D36*
X31524Y-20256D02*
X31524Y-21101D01*
X31524Y-21101D02*
X31500Y-21125D01*
G54D35*
X35900Y-41875D02*
X35850Y-41925D01*
X36850Y-41875D02*
X35900Y-41875D01*
X36850Y-41125D02*
X36850Y-41875D01*
X29625Y-41925D02*
X30450Y-41925D01*
X28875Y-41175D02*
X29625Y-41925D01*
X28650Y-41175D02*
X28875Y-41175D01*
X27750Y-41175D02*
X28650Y-41175D01*
X34950Y-41175D02*
X35850Y-41175D01*
X35550Y-41150D02*
X35550Y-39750D01*
X35550Y-39750D02*
X35250Y-39450D01*
X31450Y-39450D02*
X31350Y-39450D01*
X35250Y-39450D02*
X31450Y-39450D01*
X35575Y-41175D02*
X35550Y-41150D01*
X35850Y-41175D02*
X35575Y-41175D01*
X25625Y-41125D02*
X26250Y-41750D01*
X26250Y-39450D02*
X27750Y-39450D01*
X27750Y-39450D02*
X31450Y-39450D01*
X24252Y-41125D02*
X25625Y-41125D01*
X34525Y-41925D02*
X34275Y-41675D01*
X34275Y-41675D02*
X34275Y-40450D01*
X34950Y-41925D02*
X34525Y-41925D01*
X26750Y-41250D02*
X26375Y-40875D01*
X26375Y-40875D02*
X24252Y-40875D01*
X27750Y-39850D02*
X31350Y-39850D01*
X33750Y-40450D02*
X33150Y-39850D01*
X33150Y-39850D02*
X31350Y-39850D01*
X34275Y-40450D02*
X33750Y-40450D01*
X27750Y-39850D02*
X26950Y-39850D01*
X31550Y-41175D02*
X30450Y-41175D01*
X26425Y-40625D02*
X26450Y-40650D01*
X26450Y-40650D02*
X27750Y-40650D01*
X30075Y-41175D02*
X30450Y-41175D01*
X29550Y-40650D02*
X27750Y-40650D01*
X30075Y-41175D02*
X29550Y-40650D01*
X24252Y-40625D02*
X26425Y-40625D01*
X32250Y-41925D02*
X31550Y-41925D01*
X32750Y-41925D02*
X32250Y-41925D01*
X32250Y-40750D02*
X31850Y-40350D01*
X30150Y-40350D02*
X30050Y-40350D01*
X31850Y-40350D02*
X30150Y-40350D01*
X32250Y-41925D02*
X32250Y-40750D01*
X26450Y-40350D02*
X26425Y-40375D01*
X26425Y-40375D02*
X24252Y-40375D01*
X30150Y-40350D02*
X27750Y-40350D01*
X27750Y-40350D02*
X26450Y-40350D01*
X24875Y-40125D02*
X25075Y-39925D01*
X25075Y-39925D02*
X25550Y-39925D01*
X24252Y-40125D02*
X24875Y-40125D01*
X23725Y-40025D02*
X23825Y-40125D01*
X23825Y-40125D02*
X24252Y-40125D01*
X23725Y-39250D02*
X23725Y-40025D01*
X26150Y-38950D02*
X25925Y-39175D01*
X25925Y-39175D02*
X25550Y-39175D01*
X26875Y-38950D02*
X26150Y-38950D01*
X24625Y-39875D02*
X24252Y-39875D01*
X25325Y-39175D02*
X24625Y-39875D01*
X25550Y-39175D02*
X25325Y-39175D01*
X21225Y-40875D02*
X20750Y-41350D01*
X20750Y-41350D02*
X20325Y-41350D01*
X22047Y-40875D02*
X21225Y-40875D01*
X20625Y-35250D02*
X19625Y-35250D01*
X34250Y-37375D02*
X34375Y-37375D01*
X34375Y-37375D02*
X34750Y-37750D01*
X30500Y-14000D02*
X29250Y-14000D01*
X33250Y-14000D02*
X33250Y-13250D01*
X37250Y-14000D02*
X37250Y-13750D01*
X37250Y-13750D02*
X36750Y-13250D01*
X36750Y-13250D02*
X33250Y-13250D01*
X33250Y-13250D02*
X29250Y-13250D01*
X29250Y-13250D02*
X29250Y-14000D01*
X18875Y-35875D02*
X18750Y-36000D01*
X31250Y-26000D02*
X32250Y-26000D01*
X32250Y-26000D02*
X32500Y-25750D01*
X18875Y-35250D02*
X18875Y-35875D01*
X24750Y-25000D02*
X24750Y-26000D01*
X24000Y-19500D02*
X24250Y-19500D01*
X23750Y-19750D02*
X24000Y-19500D01*
X23750Y-19875D02*
X23750Y-19750D01*
X29500Y-37750D02*
X29250Y-38000D01*
X29500Y-37375D02*
X29500Y-37750D01*
X18750Y-33125D02*
X19125Y-33125D01*
X19125Y-33125D02*
X19300Y-33300D01*
X18975Y-34625D02*
X18000Y-34625D01*
X19300Y-34300D02*
X18975Y-34625D01*
X19300Y-33300D02*
X19300Y-34300D01*
X19250Y-33000D02*
X19937Y-33000D01*
X19125Y-33125D02*
X19250Y-33000D01*
X21000Y-34250D02*
X21000Y-33250D01*
X20750Y-33000D02*
X19937Y-33000D01*
X21000Y-33250D02*
X20750Y-33000D01*
X34250Y-36625D02*
X34250Y-36000D01*
X30000Y-15500D02*
X30000Y-15000D01*
X31250Y-14000D02*
X31250Y-15000D01*
X35250Y-14000D02*
X35250Y-14250D01*
X35250Y-14250D02*
X34500Y-15000D01*
X34500Y-15000D02*
X31250Y-15000D01*
X31250Y-15000D02*
X30000Y-15000D01*
X30000Y-15000D02*
X27250Y-15000D01*
X27250Y-15000D02*
X27250Y-14000D01*
X18375Y-33875D02*
X18250Y-34000D01*
X18750Y-33875D02*
X18375Y-33875D01*
X23750Y-21000D02*
X24000Y-21250D01*
X23750Y-20625D02*
X23750Y-21000D01*
X29500Y-36625D02*
X29500Y-35750D01*
X23000Y-30875D02*
X22625Y-30875D01*
X22500Y-31000D02*
X22062Y-31000D01*
X22625Y-30875D02*
X22500Y-31000D01*
X23000Y-32125D02*
X22625Y-32125D01*
X22500Y-32000D02*
X22062Y-32000D01*
X22625Y-32125D02*
X22500Y-32000D01*
X24775Y-41375D02*
X24850Y-41450D01*
X24850Y-41450D02*
X24850Y-41750D01*
X24850Y-41750D02*
X23550Y-43050D01*
X23550Y-43050D02*
X23550Y-43750D01*
X24252Y-41375D02*
X24775Y-41375D01*
X23475Y-41625D02*
X22550Y-42550D01*
X22550Y-42550D02*
X22550Y-43750D01*
X24252Y-41625D02*
X23475Y-41625D01*
G54D10*
G36*
X26151Y-36151D02*
X26065Y-36151D01*
X26061Y-36147D01*
X25952Y-36102D01*
X25835Y-36102D01*
X25047Y-36102D01*
X24938Y-36147D01*
X24934Y-36151D01*
X24348Y-36151D01*
X24348Y-35709D01*
X23848Y-35209D01*
X23848Y-33098D01*
X26151Y-33098D01*
X26151Y-36151D01*
X26151Y-36151D01*
G37*
G54D37*
X26151Y-36151D02*
X26065Y-36151D01*
X26061Y-36147D01*
X25952Y-36102D01*
X25835Y-36102D01*
X25047Y-36102D01*
X24938Y-36147D01*
X24934Y-36151D01*
X24348Y-36151D01*
X24348Y-35709D01*
X23848Y-35209D01*
X23848Y-33098D01*
X26151Y-33098D01*
X26151Y-36151D01*
G54D10*
G36*
X34901Y-35151D02*
X29598Y-35151D01*
X29598Y-31098D01*
X29750Y-31098D01*
X30250Y-31098D01*
X34750Y-31098D01*
X34901Y-31098D01*
X34901Y-35151D01*
X34901Y-35151D01*
G37*
G54D37*
X34901Y-35151D02*
X29598Y-35151D01*
X29598Y-31098D01*
X29750Y-31098D01*
X30250Y-31098D01*
X34750Y-31098D01*
X34901Y-31098D01*
X34901Y-35151D01*
M02*
