%FSLAX34Y34*%
G04 Gerber Fmt 3.4, Leading zero omitted, Abs format*
G04 (created by PCBNEW (2014-03-19 BZR 4756)-product) date Thu May 22 10:07:56 2014*
%MOIN*%
G01*
G70*
G90*
G04 APERTURE LIST*
%ADD10C,0.005906*%
%ADD11R,0.055000X0.055000*%
%ADD12C,0.055000*%
%ADD13C,0.045000*%
%ADD14C,0.060000*%
%ADD15O,0.100000X0.080000*%
%ADD16C,0.035000*%
%ADD17C,0.019685*%
G04 APERTURE END LIST*
G54D10*
G54D11*
X14250Y-18000D03*
G54D12*
X14250Y-19000D03*
X14250Y-20000D03*
G54D11*
X40500Y-27250D03*
G54D12*
X40500Y-26250D03*
X40500Y-25250D03*
G54D11*
X14250Y-26500D03*
G54D12*
X14250Y-25500D03*
X14250Y-24500D03*
G54D13*
X21750Y-23250D03*
G54D11*
X40500Y-44000D03*
G54D12*
X40500Y-43000D03*
X40500Y-42000D03*
X40500Y-41000D03*
G54D11*
X40500Y-49000D03*
G54D12*
X40500Y-48000D03*
X40500Y-47000D03*
X40500Y-46000D03*
G54D11*
X14250Y-33500D03*
G54D12*
X14250Y-32500D03*
X14250Y-31500D03*
X14250Y-30500D03*
G54D14*
X24000Y-58750D03*
X25000Y-58750D03*
X23000Y-58750D03*
G54D11*
X17000Y-47250D03*
G54D12*
X18000Y-47250D03*
X19000Y-47250D03*
X20000Y-47250D03*
X21000Y-47250D03*
X22000Y-47250D03*
X23000Y-47250D03*
X24000Y-47250D03*
X25000Y-47250D03*
X26000Y-47250D03*
X27000Y-47250D03*
X28000Y-47250D03*
X28000Y-41250D03*
X27000Y-41250D03*
X26000Y-41250D03*
X25000Y-41250D03*
X24000Y-41250D03*
X23000Y-41250D03*
X22000Y-41250D03*
X21000Y-41250D03*
X20000Y-41250D03*
X19000Y-41250D03*
X18000Y-41250D03*
X17000Y-41250D03*
G54D11*
X17000Y-56250D03*
G54D12*
X18000Y-56250D03*
X19000Y-56250D03*
X20000Y-56250D03*
X21000Y-56250D03*
X22000Y-56250D03*
X23000Y-56250D03*
X24000Y-56250D03*
X25000Y-56250D03*
X26000Y-56250D03*
X27000Y-56250D03*
X28000Y-56250D03*
X28000Y-50250D03*
X27000Y-50250D03*
X26000Y-50250D03*
X25000Y-50250D03*
X24000Y-50250D03*
X23000Y-50250D03*
X22000Y-50250D03*
X21000Y-50250D03*
X20000Y-50250D03*
X19000Y-50250D03*
X18000Y-50250D03*
X17000Y-50250D03*
G54D11*
X32250Y-59250D03*
G54D12*
X31250Y-59250D03*
X30250Y-59250D03*
X29250Y-59250D03*
G54D11*
X27250Y-14000D03*
G54D12*
X28250Y-14000D03*
X29250Y-14000D03*
G54D11*
X31250Y-14000D03*
G54D12*
X32250Y-14000D03*
X33250Y-14000D03*
G54D11*
X35250Y-14000D03*
G54D12*
X36250Y-14000D03*
X37250Y-14000D03*
G54D15*
X39750Y-31000D03*
X39750Y-32000D03*
X39750Y-30000D03*
G54D16*
X35750Y-25750D03*
X28500Y-35250D03*
X28500Y-34250D03*
X22500Y-38500D03*
X38500Y-21250D03*
X36000Y-21250D03*
X31250Y-31750D03*
X31250Y-31250D03*
X30750Y-31250D03*
X30750Y-31750D03*
X30750Y-32250D03*
X31250Y-32250D03*
X31250Y-32750D03*
X30750Y-32750D03*
X33750Y-32750D03*
X33250Y-32750D03*
X33250Y-32250D03*
X33750Y-32250D03*
X33750Y-31750D03*
X33250Y-31750D03*
X33250Y-31250D03*
X33750Y-31250D03*
X34250Y-31250D03*
X34750Y-31250D03*
X34750Y-31750D03*
X34750Y-32250D03*
X34750Y-32750D03*
X34750Y-33250D03*
X34750Y-33750D03*
X29750Y-33750D03*
X29750Y-33250D03*
X29750Y-32750D03*
X29750Y-32250D03*
X29750Y-31750D03*
X29750Y-31250D03*
X34250Y-31750D03*
X34250Y-32250D03*
X34250Y-32750D03*
X34250Y-33250D03*
X34250Y-33750D03*
X30250Y-33750D03*
X30250Y-33250D03*
X30250Y-32750D03*
X30250Y-32250D03*
X30250Y-31750D03*
X30250Y-31250D03*
X23000Y-34250D03*
X25500Y-34750D03*
X25000Y-34750D03*
X24500Y-34750D03*
X24000Y-34750D03*
X24000Y-35250D03*
X24500Y-35250D03*
X25000Y-35250D03*
X25500Y-35250D03*
X26000Y-35250D03*
X26000Y-35750D03*
X25000Y-35750D03*
X24500Y-35750D03*
X24000Y-33250D03*
X24500Y-33250D03*
X25000Y-33250D03*
X25500Y-33250D03*
X26000Y-33250D03*
X26000Y-33750D03*
X25500Y-33750D03*
X25000Y-33750D03*
X24500Y-33750D03*
X24000Y-33750D03*
X24000Y-34250D03*
X24500Y-34250D03*
X25000Y-34250D03*
X25500Y-34250D03*
X26000Y-34250D03*
X26000Y-34750D03*
X25500Y-36545D03*
X25500Y-36000D03*
X35500Y-29250D03*
X37000Y-28750D03*
X37000Y-29500D03*
X38250Y-30500D03*
X22000Y-20250D03*
X15500Y-38750D03*
X15500Y-35500D03*
X21000Y-25000D03*
X21000Y-15500D03*
X24500Y-15500D03*
X39000Y-21500D03*
X38750Y-18000D03*
X31250Y-39500D03*
X33500Y-39500D03*
X32000Y-43000D03*
X33750Y-42750D03*
X37250Y-43250D03*
X38000Y-42750D03*
X37000Y-42750D03*
X36250Y-42750D03*
X35500Y-42750D03*
X34750Y-42750D03*
X29750Y-19500D03*
X32250Y-20250D03*
X17250Y-34750D03*
X17250Y-28250D03*
X17750Y-30500D03*
X17750Y-34000D03*
X20250Y-34500D03*
X20000Y-34000D03*
X20500Y-29500D03*
X23000Y-33500D03*
X18000Y-26750D03*
X19500Y-21000D03*
X20250Y-23750D03*
X22750Y-24250D03*
X17000Y-25500D03*
X26500Y-21750D03*
X29750Y-21250D03*
X31000Y-17000D03*
X31000Y-18000D03*
X14500Y-47500D03*
X14000Y-44500D03*
X33750Y-25500D03*
X32750Y-26250D03*
X29250Y-30250D03*
X28250Y-29250D03*
X32000Y-37500D03*
X31250Y-37500D03*
X32500Y-37250D03*
X20000Y-38500D03*
X29250Y-33000D03*
X38500Y-46750D03*
X39250Y-44500D03*
X39000Y-35250D03*
X39000Y-38750D03*
X38500Y-41000D03*
X40000Y-45000D03*
X32750Y-21750D03*
X33000Y-17500D03*
X23250Y-35500D03*
X22000Y-28250D03*
X38000Y-38750D03*
X38000Y-35000D03*
X37000Y-33500D03*
X25250Y-30250D03*
X35500Y-35250D03*
X34250Y-39750D03*
X15250Y-34000D03*
X17000Y-35250D03*
X29250Y-22750D03*
X33500Y-22750D03*
X38500Y-47500D03*
X38500Y-44750D03*
X37275Y-48375D03*
X34075Y-48375D03*
X37875Y-45375D03*
X33075Y-46675D03*
X36475Y-47875D03*
X34075Y-47875D03*
X36475Y-45575D03*
X33375Y-45875D03*
X35675Y-47275D03*
X34075Y-47275D03*
X35675Y-45175D03*
X33675Y-45175D03*
X34750Y-37750D03*
X30500Y-14000D03*
X18750Y-36000D03*
X31250Y-26000D03*
X32500Y-25750D03*
X24750Y-26000D03*
X24750Y-25000D03*
X24250Y-19500D03*
X29250Y-38000D03*
X30000Y-15500D03*
X34250Y-36000D03*
X18250Y-34000D03*
X24000Y-21250D03*
X29500Y-35750D03*
G54D10*
G36*
X41185Y-59935D02*
X41070Y-59935D01*
X41070Y-47887D01*
X40983Y-47677D01*
X40823Y-47516D01*
X40783Y-47500D01*
X40822Y-47483D01*
X40983Y-47323D01*
X41070Y-47113D01*
X41070Y-46887D01*
X40983Y-46677D01*
X40823Y-46516D01*
X40783Y-46500D01*
X40822Y-46483D01*
X40983Y-46323D01*
X41070Y-46113D01*
X41070Y-45887D01*
X41070Y-42887D01*
X40983Y-42677D01*
X40823Y-42516D01*
X40783Y-42500D01*
X40822Y-42483D01*
X40983Y-42323D01*
X41070Y-42113D01*
X41070Y-41887D01*
X40983Y-41677D01*
X40823Y-41516D01*
X40783Y-41500D01*
X40822Y-41483D01*
X40983Y-41323D01*
X41070Y-41113D01*
X41070Y-40887D01*
X41070Y-25137D01*
X40983Y-24927D01*
X40823Y-24766D01*
X40613Y-24679D01*
X40484Y-24679D01*
X40484Y-14805D01*
X40334Y-14443D01*
X40058Y-14166D01*
X39696Y-14015D01*
X39305Y-14015D01*
X38943Y-14165D01*
X38666Y-14441D01*
X38515Y-14803D01*
X38515Y-15194D01*
X38665Y-15556D01*
X38941Y-15833D01*
X39303Y-15984D01*
X39694Y-15984D01*
X40056Y-15834D01*
X40333Y-15558D01*
X40484Y-15196D01*
X40484Y-14805D01*
X40484Y-24679D01*
X40387Y-24679D01*
X40177Y-24766D01*
X40016Y-24926D01*
X39929Y-25136D01*
X39929Y-25362D01*
X40016Y-25572D01*
X40176Y-25733D01*
X40386Y-25820D01*
X40612Y-25820D01*
X40822Y-25733D01*
X40983Y-25573D01*
X41070Y-25363D01*
X41070Y-25137D01*
X41070Y-40887D01*
X41070Y-40886D01*
X41070Y-27583D01*
X41070Y-27466D01*
X41070Y-26916D01*
X41025Y-26807D01*
X40942Y-26724D01*
X40833Y-26679D01*
X40716Y-26679D01*
X40166Y-26679D01*
X40057Y-26724D01*
X39974Y-26807D01*
X39929Y-26916D01*
X39929Y-27033D01*
X39929Y-27583D01*
X39974Y-27692D01*
X40057Y-27775D01*
X40166Y-27820D01*
X40283Y-27820D01*
X40833Y-27820D01*
X40942Y-27775D01*
X41025Y-27692D01*
X41070Y-27583D01*
X41070Y-40886D01*
X40983Y-40677D01*
X40823Y-40516D01*
X40613Y-40429D01*
X40560Y-40429D01*
X40560Y-32000D01*
X40560Y-30000D01*
X40507Y-29733D01*
X40357Y-29508D01*
X40131Y-29357D01*
X39865Y-29304D01*
X39634Y-29304D01*
X39368Y-29357D01*
X39142Y-29508D01*
X38992Y-29733D01*
X38939Y-30000D01*
X38992Y-30266D01*
X39142Y-30491D01*
X39368Y-30642D01*
X39634Y-30695D01*
X39865Y-30695D01*
X40131Y-30642D01*
X40357Y-30491D01*
X40507Y-30266D01*
X40560Y-30000D01*
X40560Y-32000D01*
X40507Y-31733D01*
X40357Y-31508D01*
X40131Y-31357D01*
X39865Y-31304D01*
X39634Y-31304D01*
X39368Y-31357D01*
X39142Y-31508D01*
X38992Y-31733D01*
X38939Y-32000D01*
X38992Y-32266D01*
X39142Y-32491D01*
X39368Y-32642D01*
X39634Y-32695D01*
X39865Y-32695D01*
X40131Y-32642D01*
X40357Y-32491D01*
X40507Y-32266D01*
X40560Y-32000D01*
X40560Y-40429D01*
X40387Y-40429D01*
X40177Y-40516D01*
X40016Y-40676D01*
X39929Y-40886D01*
X39929Y-41112D01*
X40016Y-41322D01*
X40176Y-41483D01*
X40216Y-41499D01*
X40177Y-41516D01*
X40016Y-41676D01*
X39929Y-41886D01*
X39929Y-42112D01*
X40016Y-42322D01*
X40176Y-42483D01*
X40216Y-42499D01*
X40177Y-42516D01*
X40016Y-42676D01*
X39929Y-42886D01*
X39929Y-43112D01*
X40016Y-43322D01*
X40135Y-43442D01*
X40057Y-43474D01*
X39974Y-43557D01*
X39929Y-43666D01*
X39929Y-43783D01*
X39929Y-44333D01*
X39974Y-44442D01*
X40057Y-44525D01*
X40068Y-44529D01*
X39906Y-44529D01*
X39733Y-44601D01*
X39601Y-44733D01*
X39529Y-44906D01*
X39529Y-45093D01*
X39601Y-45266D01*
X39733Y-45398D01*
X39906Y-45470D01*
X40093Y-45470D01*
X40266Y-45398D01*
X40398Y-45266D01*
X40470Y-45093D01*
X40470Y-44906D01*
X40398Y-44733D01*
X40266Y-44601D01*
X40191Y-44570D01*
X40283Y-44570D01*
X40833Y-44570D01*
X40942Y-44525D01*
X41025Y-44442D01*
X41070Y-44333D01*
X41070Y-44216D01*
X41070Y-43666D01*
X41025Y-43557D01*
X40942Y-43474D01*
X40864Y-43442D01*
X40983Y-43323D01*
X41070Y-43113D01*
X41070Y-42887D01*
X41070Y-45887D01*
X40983Y-45677D01*
X40823Y-45516D01*
X40613Y-45429D01*
X40387Y-45429D01*
X40177Y-45516D01*
X40016Y-45676D01*
X39929Y-45886D01*
X39929Y-46112D01*
X40016Y-46322D01*
X40176Y-46483D01*
X40216Y-46499D01*
X40177Y-46516D01*
X40016Y-46676D01*
X39929Y-46886D01*
X39929Y-47112D01*
X40016Y-47322D01*
X40176Y-47483D01*
X40216Y-47499D01*
X40177Y-47516D01*
X40016Y-47676D01*
X39929Y-47886D01*
X39929Y-48112D01*
X40016Y-48322D01*
X40135Y-48442D01*
X40057Y-48474D01*
X39974Y-48557D01*
X39929Y-48666D01*
X39929Y-48783D01*
X39929Y-49333D01*
X39974Y-49442D01*
X40057Y-49525D01*
X40166Y-49570D01*
X40283Y-49570D01*
X40833Y-49570D01*
X40942Y-49525D01*
X41025Y-49442D01*
X41070Y-49333D01*
X41070Y-49216D01*
X41070Y-48666D01*
X41025Y-48557D01*
X40942Y-48474D01*
X40864Y-48442D01*
X40983Y-48323D01*
X41070Y-48113D01*
X41070Y-47887D01*
X41070Y-59935D01*
X40484Y-59935D01*
X40484Y-58055D01*
X40334Y-57693D01*
X40058Y-57416D01*
X39696Y-57265D01*
X39305Y-57265D01*
X38970Y-57403D01*
X38970Y-47406D01*
X38970Y-44656D01*
X38970Y-40906D01*
X38898Y-40733D01*
X38766Y-40601D01*
X38593Y-40529D01*
X38470Y-40529D01*
X38470Y-38656D01*
X38470Y-34906D01*
X38398Y-34733D01*
X38266Y-34601D01*
X38093Y-34529D01*
X37906Y-34529D01*
X37820Y-34565D01*
X37820Y-13887D01*
X37733Y-13677D01*
X37573Y-13516D01*
X37363Y-13429D01*
X37137Y-13429D01*
X36927Y-13516D01*
X36766Y-13676D01*
X36679Y-13886D01*
X36679Y-14112D01*
X36766Y-14322D01*
X36926Y-14483D01*
X37136Y-14570D01*
X37362Y-14570D01*
X37572Y-14483D01*
X37733Y-14323D01*
X37820Y-14113D01*
X37820Y-13887D01*
X37820Y-34565D01*
X37733Y-34601D01*
X37601Y-34733D01*
X37529Y-34906D01*
X37529Y-35093D01*
X37601Y-35266D01*
X37733Y-35398D01*
X37906Y-35470D01*
X38093Y-35470D01*
X38266Y-35398D01*
X38398Y-35266D01*
X38470Y-35093D01*
X38470Y-34906D01*
X38470Y-38656D01*
X38398Y-38483D01*
X38266Y-38351D01*
X38093Y-38279D01*
X37906Y-38279D01*
X37733Y-38351D01*
X37601Y-38483D01*
X37529Y-38656D01*
X37529Y-38843D01*
X37601Y-39016D01*
X37733Y-39148D01*
X37906Y-39220D01*
X38093Y-39220D01*
X38266Y-39148D01*
X38398Y-39016D01*
X38470Y-38843D01*
X38470Y-38656D01*
X38470Y-40529D01*
X38406Y-40529D01*
X38233Y-40601D01*
X38101Y-40733D01*
X38029Y-40906D01*
X38029Y-41093D01*
X38101Y-41266D01*
X38233Y-41398D01*
X38406Y-41470D01*
X38593Y-41470D01*
X38766Y-41398D01*
X38898Y-41266D01*
X38970Y-41093D01*
X38970Y-40906D01*
X38970Y-44656D01*
X38898Y-44483D01*
X38766Y-44351D01*
X38593Y-44279D01*
X38406Y-44279D01*
X38233Y-44351D01*
X38101Y-44483D01*
X38029Y-44656D01*
X38029Y-44843D01*
X38072Y-44947D01*
X37968Y-44904D01*
X37781Y-44904D01*
X37608Y-44976D01*
X37476Y-45108D01*
X37470Y-45123D01*
X37470Y-33406D01*
X37398Y-33233D01*
X37266Y-33101D01*
X37093Y-33029D01*
X36906Y-33029D01*
X36733Y-33101D01*
X36601Y-33233D01*
X36529Y-33406D01*
X36529Y-33593D01*
X36601Y-33766D01*
X36733Y-33898D01*
X36906Y-33970D01*
X37093Y-33970D01*
X37266Y-33898D01*
X37398Y-33766D01*
X37470Y-33593D01*
X37470Y-33406D01*
X37470Y-45123D01*
X37404Y-45281D01*
X37404Y-45468D01*
X37476Y-45641D01*
X37608Y-45773D01*
X37781Y-45845D01*
X37968Y-45845D01*
X38141Y-45773D01*
X38273Y-45641D01*
X38345Y-45468D01*
X38345Y-45281D01*
X38302Y-45177D01*
X38406Y-45220D01*
X38593Y-45220D01*
X38766Y-45148D01*
X38898Y-45016D01*
X38970Y-44843D01*
X38970Y-44656D01*
X38970Y-47406D01*
X38898Y-47233D01*
X38766Y-47101D01*
X38593Y-47029D01*
X38406Y-47029D01*
X38233Y-47101D01*
X38101Y-47233D01*
X38029Y-47406D01*
X38029Y-47593D01*
X38101Y-47766D01*
X38233Y-47898D01*
X38406Y-47970D01*
X38593Y-47970D01*
X38766Y-47898D01*
X38898Y-47766D01*
X38970Y-47593D01*
X38970Y-47406D01*
X38970Y-57403D01*
X38943Y-57415D01*
X38666Y-57691D01*
X38515Y-58053D01*
X38515Y-58444D01*
X38665Y-58806D01*
X38941Y-59083D01*
X39303Y-59234D01*
X39694Y-59234D01*
X40056Y-59084D01*
X40333Y-58808D01*
X40484Y-58446D01*
X40484Y-58055D01*
X40484Y-59935D01*
X37745Y-59935D01*
X37745Y-48281D01*
X37673Y-48108D01*
X37541Y-47976D01*
X37368Y-47904D01*
X37181Y-47904D01*
X37008Y-47976D01*
X36894Y-48089D01*
X36945Y-47968D01*
X36945Y-47781D01*
X36945Y-45481D01*
X36873Y-45308D01*
X36741Y-45176D01*
X36568Y-45104D01*
X36381Y-45104D01*
X36220Y-45171D01*
X36220Y-25656D01*
X36148Y-25483D01*
X36016Y-25351D01*
X35843Y-25279D01*
X35820Y-25279D01*
X35820Y-14333D01*
X35820Y-14216D01*
X35820Y-13666D01*
X35775Y-13557D01*
X35692Y-13474D01*
X35583Y-13429D01*
X35466Y-13429D01*
X34916Y-13429D01*
X34807Y-13474D01*
X34724Y-13557D01*
X34679Y-13666D01*
X34679Y-13783D01*
X34679Y-14333D01*
X34724Y-14442D01*
X34807Y-14525D01*
X34916Y-14570D01*
X35033Y-14570D01*
X35583Y-14570D01*
X35692Y-14525D01*
X35775Y-14442D01*
X35820Y-14333D01*
X35820Y-25279D01*
X35656Y-25279D01*
X35483Y-25351D01*
X35351Y-25483D01*
X35279Y-25656D01*
X35279Y-25843D01*
X35351Y-26016D01*
X35483Y-26148D01*
X35656Y-26220D01*
X35843Y-26220D01*
X36016Y-26148D01*
X36148Y-26016D01*
X36220Y-25843D01*
X36220Y-25656D01*
X36220Y-45171D01*
X36208Y-45176D01*
X36145Y-45239D01*
X36145Y-45081D01*
X36073Y-44908D01*
X35970Y-44805D01*
X35970Y-35156D01*
X35898Y-34983D01*
X35766Y-34851D01*
X35593Y-34779D01*
X35406Y-34779D01*
X35233Y-34851D01*
X35101Y-34983D01*
X35029Y-35156D01*
X35029Y-35343D01*
X35101Y-35516D01*
X35233Y-35648D01*
X35406Y-35720D01*
X35593Y-35720D01*
X35766Y-35648D01*
X35898Y-35516D01*
X35970Y-35343D01*
X35970Y-35156D01*
X35970Y-44805D01*
X35941Y-44776D01*
X35768Y-44704D01*
X35581Y-44704D01*
X35408Y-44776D01*
X35276Y-44908D01*
X35220Y-45043D01*
X35220Y-37656D01*
X35148Y-37483D01*
X35016Y-37351D01*
X34843Y-37279D01*
X34720Y-37279D01*
X34720Y-35906D01*
X34648Y-35733D01*
X34516Y-35601D01*
X34343Y-35529D01*
X34156Y-35529D01*
X33983Y-35601D01*
X33970Y-35614D01*
X33970Y-22656D01*
X33898Y-22483D01*
X33820Y-22405D01*
X33820Y-13887D01*
X33733Y-13677D01*
X33573Y-13516D01*
X33363Y-13429D01*
X33137Y-13429D01*
X32927Y-13516D01*
X32766Y-13676D01*
X32679Y-13886D01*
X32679Y-14112D01*
X32766Y-14322D01*
X32926Y-14483D01*
X33136Y-14570D01*
X33362Y-14570D01*
X33572Y-14483D01*
X33733Y-14323D01*
X33820Y-14113D01*
X33820Y-13887D01*
X33820Y-22405D01*
X33766Y-22351D01*
X33593Y-22279D01*
X33470Y-22279D01*
X33470Y-17406D01*
X33398Y-17233D01*
X33266Y-17101D01*
X33093Y-17029D01*
X32906Y-17029D01*
X32733Y-17101D01*
X32601Y-17233D01*
X32529Y-17406D01*
X32529Y-17593D01*
X32601Y-17766D01*
X32733Y-17898D01*
X32906Y-17970D01*
X33093Y-17970D01*
X33266Y-17898D01*
X33398Y-17766D01*
X33470Y-17593D01*
X33470Y-17406D01*
X33470Y-22279D01*
X33406Y-22279D01*
X33233Y-22351D01*
X33220Y-22364D01*
X33220Y-21656D01*
X33148Y-21483D01*
X33016Y-21351D01*
X32843Y-21279D01*
X32656Y-21279D01*
X32483Y-21351D01*
X32351Y-21483D01*
X32279Y-21656D01*
X32279Y-21843D01*
X32351Y-22016D01*
X32483Y-22148D01*
X32656Y-22220D01*
X32843Y-22220D01*
X33016Y-22148D01*
X33148Y-22016D01*
X33220Y-21843D01*
X33220Y-21656D01*
X33220Y-22364D01*
X33101Y-22483D01*
X33029Y-22656D01*
X33029Y-22843D01*
X33101Y-23016D01*
X33233Y-23148D01*
X33406Y-23220D01*
X33593Y-23220D01*
X33766Y-23148D01*
X33898Y-23016D01*
X33970Y-22843D01*
X33970Y-22656D01*
X33970Y-35614D01*
X33851Y-35733D01*
X33779Y-35906D01*
X33779Y-36093D01*
X33851Y-36266D01*
X33983Y-36398D01*
X34156Y-36470D01*
X34343Y-36470D01*
X34516Y-36398D01*
X34648Y-36266D01*
X34720Y-36093D01*
X34720Y-35906D01*
X34720Y-37279D01*
X34656Y-37279D01*
X34483Y-37351D01*
X34351Y-37483D01*
X34279Y-37656D01*
X34279Y-37843D01*
X34351Y-38016D01*
X34483Y-38148D01*
X34656Y-38220D01*
X34843Y-38220D01*
X35016Y-38148D01*
X35148Y-38016D01*
X35220Y-37843D01*
X35220Y-37656D01*
X35220Y-45043D01*
X35204Y-45081D01*
X35204Y-45268D01*
X35276Y-45441D01*
X35408Y-45573D01*
X35581Y-45645D01*
X35768Y-45645D01*
X35941Y-45573D01*
X36004Y-45510D01*
X36004Y-45668D01*
X36076Y-45841D01*
X36208Y-45973D01*
X36381Y-46045D01*
X36568Y-46045D01*
X36741Y-45973D01*
X36873Y-45841D01*
X36945Y-45668D01*
X36945Y-45481D01*
X36945Y-47781D01*
X36873Y-47608D01*
X36741Y-47476D01*
X36568Y-47404D01*
X36381Y-47404D01*
X36208Y-47476D01*
X36145Y-47539D01*
X36145Y-47181D01*
X36073Y-47008D01*
X35941Y-46876D01*
X35768Y-46804D01*
X35581Y-46804D01*
X35408Y-46876D01*
X35276Y-47008D01*
X35204Y-47181D01*
X35204Y-47368D01*
X35276Y-47541D01*
X35408Y-47673D01*
X35581Y-47745D01*
X35768Y-47745D01*
X35941Y-47673D01*
X36073Y-47541D01*
X36145Y-47368D01*
X36145Y-47181D01*
X36145Y-47539D01*
X36076Y-47608D01*
X36004Y-47781D01*
X36004Y-47968D01*
X36076Y-48141D01*
X36208Y-48273D01*
X36381Y-48345D01*
X36568Y-48345D01*
X36741Y-48273D01*
X36855Y-48160D01*
X36804Y-48281D01*
X36804Y-48468D01*
X36876Y-48641D01*
X37008Y-48773D01*
X37181Y-48845D01*
X37368Y-48845D01*
X37541Y-48773D01*
X37673Y-48641D01*
X37745Y-48468D01*
X37745Y-48281D01*
X37745Y-59935D01*
X34593Y-59935D01*
X36946Y-57581D01*
X36946Y-51168D01*
X35081Y-49303D01*
X34720Y-49303D01*
X34720Y-39656D01*
X34648Y-39483D01*
X34516Y-39351D01*
X34343Y-39279D01*
X34156Y-39279D01*
X33983Y-39351D01*
X33851Y-39483D01*
X33779Y-39656D01*
X33779Y-39843D01*
X33851Y-40016D01*
X33983Y-40148D01*
X34156Y-40220D01*
X34343Y-40220D01*
X34516Y-40148D01*
X34648Y-40016D01*
X34720Y-39843D01*
X34720Y-39656D01*
X34720Y-49303D01*
X34545Y-49303D01*
X34545Y-48281D01*
X34480Y-48124D01*
X34545Y-47968D01*
X34545Y-47781D01*
X34473Y-47608D01*
X34440Y-47575D01*
X34473Y-47541D01*
X34545Y-47368D01*
X34545Y-47181D01*
X34473Y-47008D01*
X34341Y-46876D01*
X34168Y-46804D01*
X33981Y-46804D01*
X33808Y-46876D01*
X33676Y-47008D01*
X33604Y-47181D01*
X33604Y-47368D01*
X33676Y-47541D01*
X33709Y-47574D01*
X33676Y-47608D01*
X33604Y-47781D01*
X33604Y-47968D01*
X33669Y-48125D01*
X33604Y-48281D01*
X33604Y-48468D01*
X33676Y-48641D01*
X33808Y-48773D01*
X33981Y-48845D01*
X34168Y-48845D01*
X34341Y-48773D01*
X34473Y-48641D01*
X34545Y-48468D01*
X34545Y-48281D01*
X34545Y-49303D01*
X33581Y-49303D01*
X32696Y-48418D01*
X32696Y-46961D01*
X32808Y-47073D01*
X32981Y-47145D01*
X33168Y-47145D01*
X33341Y-47073D01*
X33473Y-46941D01*
X33545Y-46768D01*
X33545Y-46581D01*
X33473Y-46408D01*
X33410Y-46345D01*
X33468Y-46345D01*
X33641Y-46273D01*
X33773Y-46141D01*
X33845Y-45968D01*
X33845Y-45781D01*
X33785Y-45638D01*
X33941Y-45573D01*
X34073Y-45441D01*
X34145Y-45268D01*
X34145Y-45081D01*
X34073Y-44908D01*
X33941Y-44776D01*
X33768Y-44704D01*
X33581Y-44704D01*
X33408Y-44776D01*
X33276Y-44908D01*
X33204Y-45081D01*
X33204Y-45268D01*
X33264Y-45411D01*
X33108Y-45476D01*
X32976Y-45608D01*
X32970Y-45623D01*
X32970Y-25656D01*
X32898Y-25483D01*
X32766Y-25351D01*
X32593Y-25279D01*
X32406Y-25279D01*
X32233Y-25351D01*
X32101Y-25483D01*
X32029Y-25656D01*
X32029Y-25843D01*
X32101Y-26016D01*
X32233Y-26148D01*
X32406Y-26220D01*
X32593Y-26220D01*
X32766Y-26148D01*
X32898Y-26016D01*
X32970Y-25843D01*
X32970Y-25656D01*
X32970Y-45623D01*
X32904Y-45781D01*
X32904Y-45968D01*
X32976Y-46141D01*
X33039Y-46204D01*
X32981Y-46204D01*
X32808Y-46276D01*
X32681Y-46403D01*
X31820Y-45541D01*
X31820Y-14333D01*
X31820Y-14216D01*
X31820Y-13666D01*
X31775Y-13557D01*
X31692Y-13474D01*
X31583Y-13429D01*
X31466Y-13429D01*
X30916Y-13429D01*
X30807Y-13474D01*
X30724Y-13557D01*
X30715Y-13580D01*
X30593Y-13529D01*
X30406Y-13529D01*
X30233Y-13601D01*
X30101Y-13733D01*
X30029Y-13906D01*
X30029Y-14093D01*
X30101Y-14266D01*
X30233Y-14398D01*
X30406Y-14470D01*
X30593Y-14470D01*
X30715Y-14419D01*
X30724Y-14442D01*
X30807Y-14525D01*
X30916Y-14570D01*
X31033Y-14570D01*
X31583Y-14570D01*
X31692Y-14525D01*
X31775Y-14442D01*
X31820Y-14333D01*
X31820Y-45541D01*
X31720Y-45441D01*
X31720Y-25906D01*
X31648Y-25733D01*
X31516Y-25601D01*
X31343Y-25529D01*
X31156Y-25529D01*
X30983Y-25601D01*
X30851Y-25733D01*
X30779Y-25906D01*
X30779Y-26093D01*
X30851Y-26266D01*
X30983Y-26398D01*
X31156Y-26470D01*
X31343Y-26470D01*
X31516Y-26398D01*
X31648Y-26266D01*
X31720Y-26093D01*
X31720Y-25906D01*
X31720Y-45441D01*
X30470Y-44191D01*
X30470Y-15406D01*
X30398Y-15233D01*
X30266Y-15101D01*
X30093Y-15029D01*
X29906Y-15029D01*
X29820Y-15065D01*
X29820Y-13887D01*
X29733Y-13677D01*
X29573Y-13516D01*
X29363Y-13429D01*
X29137Y-13429D01*
X28927Y-13516D01*
X28766Y-13676D01*
X28679Y-13886D01*
X28679Y-14112D01*
X28766Y-14322D01*
X28926Y-14483D01*
X29136Y-14570D01*
X29362Y-14570D01*
X29572Y-14483D01*
X29733Y-14323D01*
X29820Y-14113D01*
X29820Y-13887D01*
X29820Y-15065D01*
X29733Y-15101D01*
X29601Y-15233D01*
X29529Y-15406D01*
X29529Y-15593D01*
X29601Y-15766D01*
X29733Y-15898D01*
X29906Y-15970D01*
X30093Y-15970D01*
X30266Y-15898D01*
X30398Y-15766D01*
X30470Y-15593D01*
X30470Y-15406D01*
X30470Y-44191D01*
X30446Y-44168D01*
X30446Y-40668D01*
X29970Y-40191D01*
X29970Y-35656D01*
X29898Y-35483D01*
X29766Y-35351D01*
X29720Y-35332D01*
X29720Y-22656D01*
X29648Y-22483D01*
X29516Y-22351D01*
X29343Y-22279D01*
X29156Y-22279D01*
X28983Y-22351D01*
X28851Y-22483D01*
X28779Y-22656D01*
X28779Y-22843D01*
X28851Y-23016D01*
X28983Y-23148D01*
X29156Y-23220D01*
X29343Y-23220D01*
X29516Y-23148D01*
X29648Y-23016D01*
X29720Y-22843D01*
X29720Y-22656D01*
X29720Y-35332D01*
X29593Y-35279D01*
X29406Y-35279D01*
X29233Y-35351D01*
X29101Y-35483D01*
X29029Y-35656D01*
X29029Y-35843D01*
X29101Y-36016D01*
X29233Y-36148D01*
X29406Y-36220D01*
X29593Y-36220D01*
X29766Y-36148D01*
X29898Y-36016D01*
X29970Y-35843D01*
X29970Y-35656D01*
X29970Y-40191D01*
X29720Y-39941D01*
X29720Y-37906D01*
X29648Y-37733D01*
X29516Y-37601D01*
X29343Y-37529D01*
X29156Y-37529D01*
X28983Y-37601D01*
X28851Y-37733D01*
X28779Y-37906D01*
X28779Y-38093D01*
X28851Y-38266D01*
X28983Y-38398D01*
X29156Y-38470D01*
X29343Y-38470D01*
X29516Y-38398D01*
X29648Y-38266D01*
X29720Y-38093D01*
X29720Y-37906D01*
X29720Y-39941D01*
X29581Y-39803D01*
X27820Y-39803D01*
X27820Y-14333D01*
X27820Y-14216D01*
X27820Y-13666D01*
X27775Y-13557D01*
X27692Y-13474D01*
X27583Y-13429D01*
X27466Y-13429D01*
X26916Y-13429D01*
X26807Y-13474D01*
X26724Y-13557D01*
X26679Y-13666D01*
X26679Y-13783D01*
X26679Y-14333D01*
X26724Y-14442D01*
X26807Y-14525D01*
X26916Y-14570D01*
X27033Y-14570D01*
X27583Y-14570D01*
X27692Y-14525D01*
X27775Y-14442D01*
X27820Y-14333D01*
X27820Y-39803D01*
X25720Y-39803D01*
X25720Y-30156D01*
X25648Y-29983D01*
X25516Y-29851D01*
X25343Y-29779D01*
X25220Y-29779D01*
X25220Y-25906D01*
X25220Y-24906D01*
X25148Y-24733D01*
X25016Y-24601D01*
X24843Y-24529D01*
X24720Y-24529D01*
X24720Y-19406D01*
X24648Y-19233D01*
X24516Y-19101D01*
X24343Y-19029D01*
X24156Y-19029D01*
X23983Y-19101D01*
X23851Y-19233D01*
X23779Y-19406D01*
X23779Y-19593D01*
X23851Y-19766D01*
X23983Y-19898D01*
X24156Y-19970D01*
X24343Y-19970D01*
X24516Y-19898D01*
X24648Y-19766D01*
X24720Y-19593D01*
X24720Y-19406D01*
X24720Y-24529D01*
X24656Y-24529D01*
X24483Y-24601D01*
X24470Y-24614D01*
X24470Y-21156D01*
X24398Y-20983D01*
X24266Y-20851D01*
X24093Y-20779D01*
X23906Y-20779D01*
X23733Y-20851D01*
X23601Y-20983D01*
X23529Y-21156D01*
X23529Y-21343D01*
X23601Y-21516D01*
X23733Y-21648D01*
X23906Y-21720D01*
X24093Y-21720D01*
X24266Y-21648D01*
X24398Y-21516D01*
X24470Y-21343D01*
X24470Y-21156D01*
X24470Y-24614D01*
X24351Y-24733D01*
X24279Y-24906D01*
X24279Y-25093D01*
X24351Y-25266D01*
X24483Y-25398D01*
X24656Y-25470D01*
X24843Y-25470D01*
X25016Y-25398D01*
X25148Y-25266D01*
X25220Y-25093D01*
X25220Y-24906D01*
X25220Y-25906D01*
X25148Y-25733D01*
X25016Y-25601D01*
X24843Y-25529D01*
X24656Y-25529D01*
X24483Y-25601D01*
X24351Y-25733D01*
X24279Y-25906D01*
X24279Y-26093D01*
X24351Y-26266D01*
X24483Y-26398D01*
X24656Y-26470D01*
X24843Y-26470D01*
X25016Y-26398D01*
X25148Y-26266D01*
X25220Y-26093D01*
X25220Y-25906D01*
X25220Y-29779D01*
X25156Y-29779D01*
X24983Y-29851D01*
X24851Y-29983D01*
X24779Y-30156D01*
X24779Y-30343D01*
X24851Y-30516D01*
X24983Y-30648D01*
X25156Y-30720D01*
X25343Y-30720D01*
X25516Y-30648D01*
X25648Y-30516D01*
X25720Y-30343D01*
X25720Y-30156D01*
X25720Y-39803D01*
X23720Y-39803D01*
X23720Y-35406D01*
X23648Y-35233D01*
X23516Y-35101D01*
X23343Y-35029D01*
X23156Y-35029D01*
X22983Y-35101D01*
X22851Y-35233D01*
X22779Y-35406D01*
X22779Y-35593D01*
X22851Y-35766D01*
X22983Y-35898D01*
X23156Y-35970D01*
X23343Y-35970D01*
X23516Y-35898D01*
X23648Y-35766D01*
X23720Y-35593D01*
X23720Y-35406D01*
X23720Y-39803D01*
X22470Y-39803D01*
X22470Y-28156D01*
X22398Y-27983D01*
X22270Y-27855D01*
X22270Y-23146D01*
X22191Y-22955D01*
X22045Y-22809D01*
X21853Y-22729D01*
X21646Y-22729D01*
X21455Y-22808D01*
X21309Y-22954D01*
X21229Y-23146D01*
X21229Y-23353D01*
X21308Y-23544D01*
X21454Y-23690D01*
X21646Y-23770D01*
X21853Y-23770D01*
X22044Y-23691D01*
X22190Y-23545D01*
X22270Y-23353D01*
X22270Y-23146D01*
X22270Y-27855D01*
X22266Y-27851D01*
X22093Y-27779D01*
X21906Y-27779D01*
X21733Y-27851D01*
X21601Y-27983D01*
X21529Y-28156D01*
X21529Y-28343D01*
X21601Y-28516D01*
X21733Y-28648D01*
X21906Y-28720D01*
X22093Y-28720D01*
X22266Y-28648D01*
X22398Y-28516D01*
X22470Y-28343D01*
X22470Y-28156D01*
X22470Y-39803D01*
X19220Y-39803D01*
X19220Y-35906D01*
X19148Y-35733D01*
X19016Y-35601D01*
X18843Y-35529D01*
X18720Y-35529D01*
X18720Y-33906D01*
X18648Y-33733D01*
X18516Y-33601D01*
X18343Y-33529D01*
X18156Y-33529D01*
X17983Y-33601D01*
X17851Y-33733D01*
X17779Y-33906D01*
X17779Y-34093D01*
X17851Y-34266D01*
X17983Y-34398D01*
X18156Y-34470D01*
X18343Y-34470D01*
X18516Y-34398D01*
X18648Y-34266D01*
X18720Y-34093D01*
X18720Y-33906D01*
X18720Y-35529D01*
X18656Y-35529D01*
X18483Y-35601D01*
X18351Y-35733D01*
X18279Y-35906D01*
X18279Y-36093D01*
X18351Y-36266D01*
X18483Y-36398D01*
X18656Y-36470D01*
X18843Y-36470D01*
X19016Y-36398D01*
X19148Y-36266D01*
X19220Y-36093D01*
X19220Y-35906D01*
X19220Y-39803D01*
X17470Y-39803D01*
X17470Y-35156D01*
X17398Y-34983D01*
X17266Y-34851D01*
X17093Y-34779D01*
X16906Y-34779D01*
X16733Y-34851D01*
X16601Y-34983D01*
X16529Y-35156D01*
X16529Y-35343D01*
X16601Y-35516D01*
X16733Y-35648D01*
X16906Y-35720D01*
X17093Y-35720D01*
X17266Y-35648D01*
X17398Y-35516D01*
X17470Y-35343D01*
X17470Y-35156D01*
X17470Y-39803D01*
X16250Y-39803D01*
X15984Y-39803D01*
X15984Y-14805D01*
X15834Y-14443D01*
X15558Y-14166D01*
X15196Y-14015D01*
X14805Y-14015D01*
X14443Y-14165D01*
X14166Y-14441D01*
X14015Y-14803D01*
X14015Y-15194D01*
X14165Y-15556D01*
X14441Y-15833D01*
X14803Y-15984D01*
X15194Y-15984D01*
X15556Y-15834D01*
X15833Y-15558D01*
X15984Y-15196D01*
X15984Y-14805D01*
X15984Y-39803D01*
X15720Y-39803D01*
X15720Y-33906D01*
X15648Y-33733D01*
X15516Y-33601D01*
X15343Y-33529D01*
X15156Y-33529D01*
X14983Y-33601D01*
X14851Y-33733D01*
X14820Y-33808D01*
X14820Y-33716D01*
X14820Y-33166D01*
X14775Y-33057D01*
X14692Y-32974D01*
X14614Y-32942D01*
X14733Y-32823D01*
X14820Y-32613D01*
X14820Y-32387D01*
X14733Y-32177D01*
X14573Y-32016D01*
X14533Y-32000D01*
X14572Y-31983D01*
X14733Y-31823D01*
X14820Y-31613D01*
X14820Y-31387D01*
X14733Y-31177D01*
X14573Y-31016D01*
X14533Y-31000D01*
X14572Y-30983D01*
X14733Y-30823D01*
X14820Y-30613D01*
X14820Y-30387D01*
X14820Y-24387D01*
X14820Y-19887D01*
X14820Y-19886D01*
X14820Y-18333D01*
X14820Y-18216D01*
X14820Y-17666D01*
X14775Y-17557D01*
X14692Y-17474D01*
X14583Y-17429D01*
X14466Y-17429D01*
X13916Y-17429D01*
X13807Y-17474D01*
X13724Y-17557D01*
X13679Y-17666D01*
X13679Y-17783D01*
X13679Y-18333D01*
X13724Y-18442D01*
X13807Y-18525D01*
X13916Y-18570D01*
X14033Y-18570D01*
X14583Y-18570D01*
X14692Y-18525D01*
X14775Y-18442D01*
X14820Y-18333D01*
X14820Y-19886D01*
X14733Y-19677D01*
X14573Y-19516D01*
X14363Y-19429D01*
X14137Y-19429D01*
X13927Y-19516D01*
X13766Y-19676D01*
X13679Y-19886D01*
X13679Y-20112D01*
X13766Y-20322D01*
X13926Y-20483D01*
X14136Y-20570D01*
X14362Y-20570D01*
X14572Y-20483D01*
X14733Y-20323D01*
X14820Y-20113D01*
X14820Y-19887D01*
X14820Y-24387D01*
X14733Y-24177D01*
X14573Y-24016D01*
X14363Y-23929D01*
X14137Y-23929D01*
X13927Y-24016D01*
X13766Y-24176D01*
X13679Y-24386D01*
X13679Y-24612D01*
X13766Y-24822D01*
X13926Y-24983D01*
X14136Y-25070D01*
X14362Y-25070D01*
X14572Y-24983D01*
X14733Y-24823D01*
X14820Y-24613D01*
X14820Y-24387D01*
X14820Y-30387D01*
X14820Y-30386D01*
X14820Y-26833D01*
X14820Y-26716D01*
X14820Y-26166D01*
X14775Y-26057D01*
X14692Y-25974D01*
X14583Y-25929D01*
X14466Y-25929D01*
X13916Y-25929D01*
X13807Y-25974D01*
X13724Y-26057D01*
X13679Y-26166D01*
X13679Y-26283D01*
X13679Y-26833D01*
X13724Y-26942D01*
X13807Y-27025D01*
X13916Y-27070D01*
X14033Y-27070D01*
X14583Y-27070D01*
X14692Y-27025D01*
X14775Y-26942D01*
X14820Y-26833D01*
X14820Y-30386D01*
X14733Y-30177D01*
X14573Y-30016D01*
X14363Y-29929D01*
X14137Y-29929D01*
X13927Y-30016D01*
X13766Y-30176D01*
X13679Y-30386D01*
X13679Y-30612D01*
X13766Y-30822D01*
X13926Y-30983D01*
X13966Y-30999D01*
X13927Y-31016D01*
X13766Y-31176D01*
X13679Y-31386D01*
X13679Y-31612D01*
X13766Y-31822D01*
X13926Y-31983D01*
X13966Y-31999D01*
X13927Y-32016D01*
X13766Y-32176D01*
X13679Y-32386D01*
X13679Y-32612D01*
X13766Y-32822D01*
X13885Y-32942D01*
X13807Y-32974D01*
X13724Y-33057D01*
X13679Y-33166D01*
X13679Y-33283D01*
X13679Y-33833D01*
X13724Y-33942D01*
X13807Y-34025D01*
X13916Y-34070D01*
X14033Y-34070D01*
X14583Y-34070D01*
X14692Y-34025D01*
X14775Y-33942D01*
X14779Y-33931D01*
X14779Y-34093D01*
X14851Y-34266D01*
X14983Y-34398D01*
X15156Y-34470D01*
X15343Y-34470D01*
X15516Y-34398D01*
X15648Y-34266D01*
X15720Y-34093D01*
X15720Y-33906D01*
X15720Y-39803D01*
X15303Y-39803D01*
X15303Y-56831D01*
X18406Y-59935D01*
X15984Y-59935D01*
X15984Y-58055D01*
X15834Y-57693D01*
X15558Y-57416D01*
X15196Y-57265D01*
X14805Y-57265D01*
X14443Y-57415D01*
X14166Y-57691D01*
X14015Y-58053D01*
X14015Y-58444D01*
X14165Y-58806D01*
X14441Y-59083D01*
X14803Y-59234D01*
X15194Y-59234D01*
X15556Y-59084D01*
X15833Y-58808D01*
X15984Y-58446D01*
X15984Y-58055D01*
X15984Y-59935D01*
X13314Y-59935D01*
X13314Y-42500D01*
X13314Y-13314D01*
X41185Y-13314D01*
X41185Y-59935D01*
X41185Y-59935D01*
G37*
G54D17*
X41185Y-59935D02*
X41070Y-59935D01*
X41070Y-47887D01*
X40983Y-47677D01*
X40823Y-47516D01*
X40783Y-47500D01*
X40822Y-47483D01*
X40983Y-47323D01*
X41070Y-47113D01*
X41070Y-46887D01*
X40983Y-46677D01*
X40823Y-46516D01*
X40783Y-46500D01*
X40822Y-46483D01*
X40983Y-46323D01*
X41070Y-46113D01*
X41070Y-45887D01*
X41070Y-42887D01*
X40983Y-42677D01*
X40823Y-42516D01*
X40783Y-42500D01*
X40822Y-42483D01*
X40983Y-42323D01*
X41070Y-42113D01*
X41070Y-41887D01*
X40983Y-41677D01*
X40823Y-41516D01*
X40783Y-41500D01*
X40822Y-41483D01*
X40983Y-41323D01*
X41070Y-41113D01*
X41070Y-40887D01*
X41070Y-25137D01*
X40983Y-24927D01*
X40823Y-24766D01*
X40613Y-24679D01*
X40484Y-24679D01*
X40484Y-14805D01*
X40334Y-14443D01*
X40058Y-14166D01*
X39696Y-14015D01*
X39305Y-14015D01*
X38943Y-14165D01*
X38666Y-14441D01*
X38515Y-14803D01*
X38515Y-15194D01*
X38665Y-15556D01*
X38941Y-15833D01*
X39303Y-15984D01*
X39694Y-15984D01*
X40056Y-15834D01*
X40333Y-15558D01*
X40484Y-15196D01*
X40484Y-14805D01*
X40484Y-24679D01*
X40387Y-24679D01*
X40177Y-24766D01*
X40016Y-24926D01*
X39929Y-25136D01*
X39929Y-25362D01*
X40016Y-25572D01*
X40176Y-25733D01*
X40386Y-25820D01*
X40612Y-25820D01*
X40822Y-25733D01*
X40983Y-25573D01*
X41070Y-25363D01*
X41070Y-25137D01*
X41070Y-40887D01*
X41070Y-40886D01*
X41070Y-27583D01*
X41070Y-27466D01*
X41070Y-26916D01*
X41025Y-26807D01*
X40942Y-26724D01*
X40833Y-26679D01*
X40716Y-26679D01*
X40166Y-26679D01*
X40057Y-26724D01*
X39974Y-26807D01*
X39929Y-26916D01*
X39929Y-27033D01*
X39929Y-27583D01*
X39974Y-27692D01*
X40057Y-27775D01*
X40166Y-27820D01*
X40283Y-27820D01*
X40833Y-27820D01*
X40942Y-27775D01*
X41025Y-27692D01*
X41070Y-27583D01*
X41070Y-40886D01*
X40983Y-40677D01*
X40823Y-40516D01*
X40613Y-40429D01*
X40560Y-40429D01*
X40560Y-32000D01*
X40560Y-30000D01*
X40507Y-29733D01*
X40357Y-29508D01*
X40131Y-29357D01*
X39865Y-29304D01*
X39634Y-29304D01*
X39368Y-29357D01*
X39142Y-29508D01*
X38992Y-29733D01*
X38939Y-30000D01*
X38992Y-30266D01*
X39142Y-30491D01*
X39368Y-30642D01*
X39634Y-30695D01*
X39865Y-30695D01*
X40131Y-30642D01*
X40357Y-30491D01*
X40507Y-30266D01*
X40560Y-30000D01*
X40560Y-32000D01*
X40507Y-31733D01*
X40357Y-31508D01*
X40131Y-31357D01*
X39865Y-31304D01*
X39634Y-31304D01*
X39368Y-31357D01*
X39142Y-31508D01*
X38992Y-31733D01*
X38939Y-32000D01*
X38992Y-32266D01*
X39142Y-32491D01*
X39368Y-32642D01*
X39634Y-32695D01*
X39865Y-32695D01*
X40131Y-32642D01*
X40357Y-32491D01*
X40507Y-32266D01*
X40560Y-32000D01*
X40560Y-40429D01*
X40387Y-40429D01*
X40177Y-40516D01*
X40016Y-40676D01*
X39929Y-40886D01*
X39929Y-41112D01*
X40016Y-41322D01*
X40176Y-41483D01*
X40216Y-41499D01*
X40177Y-41516D01*
X40016Y-41676D01*
X39929Y-41886D01*
X39929Y-42112D01*
X40016Y-42322D01*
X40176Y-42483D01*
X40216Y-42499D01*
X40177Y-42516D01*
X40016Y-42676D01*
X39929Y-42886D01*
X39929Y-43112D01*
X40016Y-43322D01*
X40135Y-43442D01*
X40057Y-43474D01*
X39974Y-43557D01*
X39929Y-43666D01*
X39929Y-43783D01*
X39929Y-44333D01*
X39974Y-44442D01*
X40057Y-44525D01*
X40068Y-44529D01*
X39906Y-44529D01*
X39733Y-44601D01*
X39601Y-44733D01*
X39529Y-44906D01*
X39529Y-45093D01*
X39601Y-45266D01*
X39733Y-45398D01*
X39906Y-45470D01*
X40093Y-45470D01*
X40266Y-45398D01*
X40398Y-45266D01*
X40470Y-45093D01*
X40470Y-44906D01*
X40398Y-44733D01*
X40266Y-44601D01*
X40191Y-44570D01*
X40283Y-44570D01*
X40833Y-44570D01*
X40942Y-44525D01*
X41025Y-44442D01*
X41070Y-44333D01*
X41070Y-44216D01*
X41070Y-43666D01*
X41025Y-43557D01*
X40942Y-43474D01*
X40864Y-43442D01*
X40983Y-43323D01*
X41070Y-43113D01*
X41070Y-42887D01*
X41070Y-45887D01*
X40983Y-45677D01*
X40823Y-45516D01*
X40613Y-45429D01*
X40387Y-45429D01*
X40177Y-45516D01*
X40016Y-45676D01*
X39929Y-45886D01*
X39929Y-46112D01*
X40016Y-46322D01*
X40176Y-46483D01*
X40216Y-46499D01*
X40177Y-46516D01*
X40016Y-46676D01*
X39929Y-46886D01*
X39929Y-47112D01*
X40016Y-47322D01*
X40176Y-47483D01*
X40216Y-47499D01*
X40177Y-47516D01*
X40016Y-47676D01*
X39929Y-47886D01*
X39929Y-48112D01*
X40016Y-48322D01*
X40135Y-48442D01*
X40057Y-48474D01*
X39974Y-48557D01*
X39929Y-48666D01*
X39929Y-48783D01*
X39929Y-49333D01*
X39974Y-49442D01*
X40057Y-49525D01*
X40166Y-49570D01*
X40283Y-49570D01*
X40833Y-49570D01*
X40942Y-49525D01*
X41025Y-49442D01*
X41070Y-49333D01*
X41070Y-49216D01*
X41070Y-48666D01*
X41025Y-48557D01*
X40942Y-48474D01*
X40864Y-48442D01*
X40983Y-48323D01*
X41070Y-48113D01*
X41070Y-47887D01*
X41070Y-59935D01*
X40484Y-59935D01*
X40484Y-58055D01*
X40334Y-57693D01*
X40058Y-57416D01*
X39696Y-57265D01*
X39305Y-57265D01*
X38970Y-57403D01*
X38970Y-47406D01*
X38970Y-44656D01*
X38970Y-40906D01*
X38898Y-40733D01*
X38766Y-40601D01*
X38593Y-40529D01*
X38470Y-40529D01*
X38470Y-38656D01*
X38470Y-34906D01*
X38398Y-34733D01*
X38266Y-34601D01*
X38093Y-34529D01*
X37906Y-34529D01*
X37820Y-34565D01*
X37820Y-13887D01*
X37733Y-13677D01*
X37573Y-13516D01*
X37363Y-13429D01*
X37137Y-13429D01*
X36927Y-13516D01*
X36766Y-13676D01*
X36679Y-13886D01*
X36679Y-14112D01*
X36766Y-14322D01*
X36926Y-14483D01*
X37136Y-14570D01*
X37362Y-14570D01*
X37572Y-14483D01*
X37733Y-14323D01*
X37820Y-14113D01*
X37820Y-13887D01*
X37820Y-34565D01*
X37733Y-34601D01*
X37601Y-34733D01*
X37529Y-34906D01*
X37529Y-35093D01*
X37601Y-35266D01*
X37733Y-35398D01*
X37906Y-35470D01*
X38093Y-35470D01*
X38266Y-35398D01*
X38398Y-35266D01*
X38470Y-35093D01*
X38470Y-34906D01*
X38470Y-38656D01*
X38398Y-38483D01*
X38266Y-38351D01*
X38093Y-38279D01*
X37906Y-38279D01*
X37733Y-38351D01*
X37601Y-38483D01*
X37529Y-38656D01*
X37529Y-38843D01*
X37601Y-39016D01*
X37733Y-39148D01*
X37906Y-39220D01*
X38093Y-39220D01*
X38266Y-39148D01*
X38398Y-39016D01*
X38470Y-38843D01*
X38470Y-38656D01*
X38470Y-40529D01*
X38406Y-40529D01*
X38233Y-40601D01*
X38101Y-40733D01*
X38029Y-40906D01*
X38029Y-41093D01*
X38101Y-41266D01*
X38233Y-41398D01*
X38406Y-41470D01*
X38593Y-41470D01*
X38766Y-41398D01*
X38898Y-41266D01*
X38970Y-41093D01*
X38970Y-40906D01*
X38970Y-44656D01*
X38898Y-44483D01*
X38766Y-44351D01*
X38593Y-44279D01*
X38406Y-44279D01*
X38233Y-44351D01*
X38101Y-44483D01*
X38029Y-44656D01*
X38029Y-44843D01*
X38072Y-44947D01*
X37968Y-44904D01*
X37781Y-44904D01*
X37608Y-44976D01*
X37476Y-45108D01*
X37470Y-45123D01*
X37470Y-33406D01*
X37398Y-33233D01*
X37266Y-33101D01*
X37093Y-33029D01*
X36906Y-33029D01*
X36733Y-33101D01*
X36601Y-33233D01*
X36529Y-33406D01*
X36529Y-33593D01*
X36601Y-33766D01*
X36733Y-33898D01*
X36906Y-33970D01*
X37093Y-33970D01*
X37266Y-33898D01*
X37398Y-33766D01*
X37470Y-33593D01*
X37470Y-33406D01*
X37470Y-45123D01*
X37404Y-45281D01*
X37404Y-45468D01*
X37476Y-45641D01*
X37608Y-45773D01*
X37781Y-45845D01*
X37968Y-45845D01*
X38141Y-45773D01*
X38273Y-45641D01*
X38345Y-45468D01*
X38345Y-45281D01*
X38302Y-45177D01*
X38406Y-45220D01*
X38593Y-45220D01*
X38766Y-45148D01*
X38898Y-45016D01*
X38970Y-44843D01*
X38970Y-44656D01*
X38970Y-47406D01*
X38898Y-47233D01*
X38766Y-47101D01*
X38593Y-47029D01*
X38406Y-47029D01*
X38233Y-47101D01*
X38101Y-47233D01*
X38029Y-47406D01*
X38029Y-47593D01*
X38101Y-47766D01*
X38233Y-47898D01*
X38406Y-47970D01*
X38593Y-47970D01*
X38766Y-47898D01*
X38898Y-47766D01*
X38970Y-47593D01*
X38970Y-47406D01*
X38970Y-57403D01*
X38943Y-57415D01*
X38666Y-57691D01*
X38515Y-58053D01*
X38515Y-58444D01*
X38665Y-58806D01*
X38941Y-59083D01*
X39303Y-59234D01*
X39694Y-59234D01*
X40056Y-59084D01*
X40333Y-58808D01*
X40484Y-58446D01*
X40484Y-58055D01*
X40484Y-59935D01*
X37745Y-59935D01*
X37745Y-48281D01*
X37673Y-48108D01*
X37541Y-47976D01*
X37368Y-47904D01*
X37181Y-47904D01*
X37008Y-47976D01*
X36894Y-48089D01*
X36945Y-47968D01*
X36945Y-47781D01*
X36945Y-45481D01*
X36873Y-45308D01*
X36741Y-45176D01*
X36568Y-45104D01*
X36381Y-45104D01*
X36220Y-45171D01*
X36220Y-25656D01*
X36148Y-25483D01*
X36016Y-25351D01*
X35843Y-25279D01*
X35820Y-25279D01*
X35820Y-14333D01*
X35820Y-14216D01*
X35820Y-13666D01*
X35775Y-13557D01*
X35692Y-13474D01*
X35583Y-13429D01*
X35466Y-13429D01*
X34916Y-13429D01*
X34807Y-13474D01*
X34724Y-13557D01*
X34679Y-13666D01*
X34679Y-13783D01*
X34679Y-14333D01*
X34724Y-14442D01*
X34807Y-14525D01*
X34916Y-14570D01*
X35033Y-14570D01*
X35583Y-14570D01*
X35692Y-14525D01*
X35775Y-14442D01*
X35820Y-14333D01*
X35820Y-25279D01*
X35656Y-25279D01*
X35483Y-25351D01*
X35351Y-25483D01*
X35279Y-25656D01*
X35279Y-25843D01*
X35351Y-26016D01*
X35483Y-26148D01*
X35656Y-26220D01*
X35843Y-26220D01*
X36016Y-26148D01*
X36148Y-26016D01*
X36220Y-25843D01*
X36220Y-25656D01*
X36220Y-45171D01*
X36208Y-45176D01*
X36145Y-45239D01*
X36145Y-45081D01*
X36073Y-44908D01*
X35970Y-44805D01*
X35970Y-35156D01*
X35898Y-34983D01*
X35766Y-34851D01*
X35593Y-34779D01*
X35406Y-34779D01*
X35233Y-34851D01*
X35101Y-34983D01*
X35029Y-35156D01*
X35029Y-35343D01*
X35101Y-35516D01*
X35233Y-35648D01*
X35406Y-35720D01*
X35593Y-35720D01*
X35766Y-35648D01*
X35898Y-35516D01*
X35970Y-35343D01*
X35970Y-35156D01*
X35970Y-44805D01*
X35941Y-44776D01*
X35768Y-44704D01*
X35581Y-44704D01*
X35408Y-44776D01*
X35276Y-44908D01*
X35220Y-45043D01*
X35220Y-37656D01*
X35148Y-37483D01*
X35016Y-37351D01*
X34843Y-37279D01*
X34720Y-37279D01*
X34720Y-35906D01*
X34648Y-35733D01*
X34516Y-35601D01*
X34343Y-35529D01*
X34156Y-35529D01*
X33983Y-35601D01*
X33970Y-35614D01*
X33970Y-22656D01*
X33898Y-22483D01*
X33820Y-22405D01*
X33820Y-13887D01*
X33733Y-13677D01*
X33573Y-13516D01*
X33363Y-13429D01*
X33137Y-13429D01*
X32927Y-13516D01*
X32766Y-13676D01*
X32679Y-13886D01*
X32679Y-14112D01*
X32766Y-14322D01*
X32926Y-14483D01*
X33136Y-14570D01*
X33362Y-14570D01*
X33572Y-14483D01*
X33733Y-14323D01*
X33820Y-14113D01*
X33820Y-13887D01*
X33820Y-22405D01*
X33766Y-22351D01*
X33593Y-22279D01*
X33470Y-22279D01*
X33470Y-17406D01*
X33398Y-17233D01*
X33266Y-17101D01*
X33093Y-17029D01*
X32906Y-17029D01*
X32733Y-17101D01*
X32601Y-17233D01*
X32529Y-17406D01*
X32529Y-17593D01*
X32601Y-17766D01*
X32733Y-17898D01*
X32906Y-17970D01*
X33093Y-17970D01*
X33266Y-17898D01*
X33398Y-17766D01*
X33470Y-17593D01*
X33470Y-17406D01*
X33470Y-22279D01*
X33406Y-22279D01*
X33233Y-22351D01*
X33220Y-22364D01*
X33220Y-21656D01*
X33148Y-21483D01*
X33016Y-21351D01*
X32843Y-21279D01*
X32656Y-21279D01*
X32483Y-21351D01*
X32351Y-21483D01*
X32279Y-21656D01*
X32279Y-21843D01*
X32351Y-22016D01*
X32483Y-22148D01*
X32656Y-22220D01*
X32843Y-22220D01*
X33016Y-22148D01*
X33148Y-22016D01*
X33220Y-21843D01*
X33220Y-21656D01*
X33220Y-22364D01*
X33101Y-22483D01*
X33029Y-22656D01*
X33029Y-22843D01*
X33101Y-23016D01*
X33233Y-23148D01*
X33406Y-23220D01*
X33593Y-23220D01*
X33766Y-23148D01*
X33898Y-23016D01*
X33970Y-22843D01*
X33970Y-22656D01*
X33970Y-35614D01*
X33851Y-35733D01*
X33779Y-35906D01*
X33779Y-36093D01*
X33851Y-36266D01*
X33983Y-36398D01*
X34156Y-36470D01*
X34343Y-36470D01*
X34516Y-36398D01*
X34648Y-36266D01*
X34720Y-36093D01*
X34720Y-35906D01*
X34720Y-37279D01*
X34656Y-37279D01*
X34483Y-37351D01*
X34351Y-37483D01*
X34279Y-37656D01*
X34279Y-37843D01*
X34351Y-38016D01*
X34483Y-38148D01*
X34656Y-38220D01*
X34843Y-38220D01*
X35016Y-38148D01*
X35148Y-38016D01*
X35220Y-37843D01*
X35220Y-37656D01*
X35220Y-45043D01*
X35204Y-45081D01*
X35204Y-45268D01*
X35276Y-45441D01*
X35408Y-45573D01*
X35581Y-45645D01*
X35768Y-45645D01*
X35941Y-45573D01*
X36004Y-45510D01*
X36004Y-45668D01*
X36076Y-45841D01*
X36208Y-45973D01*
X36381Y-46045D01*
X36568Y-46045D01*
X36741Y-45973D01*
X36873Y-45841D01*
X36945Y-45668D01*
X36945Y-45481D01*
X36945Y-47781D01*
X36873Y-47608D01*
X36741Y-47476D01*
X36568Y-47404D01*
X36381Y-47404D01*
X36208Y-47476D01*
X36145Y-47539D01*
X36145Y-47181D01*
X36073Y-47008D01*
X35941Y-46876D01*
X35768Y-46804D01*
X35581Y-46804D01*
X35408Y-46876D01*
X35276Y-47008D01*
X35204Y-47181D01*
X35204Y-47368D01*
X35276Y-47541D01*
X35408Y-47673D01*
X35581Y-47745D01*
X35768Y-47745D01*
X35941Y-47673D01*
X36073Y-47541D01*
X36145Y-47368D01*
X36145Y-47181D01*
X36145Y-47539D01*
X36076Y-47608D01*
X36004Y-47781D01*
X36004Y-47968D01*
X36076Y-48141D01*
X36208Y-48273D01*
X36381Y-48345D01*
X36568Y-48345D01*
X36741Y-48273D01*
X36855Y-48160D01*
X36804Y-48281D01*
X36804Y-48468D01*
X36876Y-48641D01*
X37008Y-48773D01*
X37181Y-48845D01*
X37368Y-48845D01*
X37541Y-48773D01*
X37673Y-48641D01*
X37745Y-48468D01*
X37745Y-48281D01*
X37745Y-59935D01*
X34593Y-59935D01*
X36946Y-57581D01*
X36946Y-51168D01*
X35081Y-49303D01*
X34720Y-49303D01*
X34720Y-39656D01*
X34648Y-39483D01*
X34516Y-39351D01*
X34343Y-39279D01*
X34156Y-39279D01*
X33983Y-39351D01*
X33851Y-39483D01*
X33779Y-39656D01*
X33779Y-39843D01*
X33851Y-40016D01*
X33983Y-40148D01*
X34156Y-40220D01*
X34343Y-40220D01*
X34516Y-40148D01*
X34648Y-40016D01*
X34720Y-39843D01*
X34720Y-39656D01*
X34720Y-49303D01*
X34545Y-49303D01*
X34545Y-48281D01*
X34480Y-48124D01*
X34545Y-47968D01*
X34545Y-47781D01*
X34473Y-47608D01*
X34440Y-47575D01*
X34473Y-47541D01*
X34545Y-47368D01*
X34545Y-47181D01*
X34473Y-47008D01*
X34341Y-46876D01*
X34168Y-46804D01*
X33981Y-46804D01*
X33808Y-46876D01*
X33676Y-47008D01*
X33604Y-47181D01*
X33604Y-47368D01*
X33676Y-47541D01*
X33709Y-47574D01*
X33676Y-47608D01*
X33604Y-47781D01*
X33604Y-47968D01*
X33669Y-48125D01*
X33604Y-48281D01*
X33604Y-48468D01*
X33676Y-48641D01*
X33808Y-48773D01*
X33981Y-48845D01*
X34168Y-48845D01*
X34341Y-48773D01*
X34473Y-48641D01*
X34545Y-48468D01*
X34545Y-48281D01*
X34545Y-49303D01*
X33581Y-49303D01*
X32696Y-48418D01*
X32696Y-46961D01*
X32808Y-47073D01*
X32981Y-47145D01*
X33168Y-47145D01*
X33341Y-47073D01*
X33473Y-46941D01*
X33545Y-46768D01*
X33545Y-46581D01*
X33473Y-46408D01*
X33410Y-46345D01*
X33468Y-46345D01*
X33641Y-46273D01*
X33773Y-46141D01*
X33845Y-45968D01*
X33845Y-45781D01*
X33785Y-45638D01*
X33941Y-45573D01*
X34073Y-45441D01*
X34145Y-45268D01*
X34145Y-45081D01*
X34073Y-44908D01*
X33941Y-44776D01*
X33768Y-44704D01*
X33581Y-44704D01*
X33408Y-44776D01*
X33276Y-44908D01*
X33204Y-45081D01*
X33204Y-45268D01*
X33264Y-45411D01*
X33108Y-45476D01*
X32976Y-45608D01*
X32970Y-45623D01*
X32970Y-25656D01*
X32898Y-25483D01*
X32766Y-25351D01*
X32593Y-25279D01*
X32406Y-25279D01*
X32233Y-25351D01*
X32101Y-25483D01*
X32029Y-25656D01*
X32029Y-25843D01*
X32101Y-26016D01*
X32233Y-26148D01*
X32406Y-26220D01*
X32593Y-26220D01*
X32766Y-26148D01*
X32898Y-26016D01*
X32970Y-25843D01*
X32970Y-25656D01*
X32970Y-45623D01*
X32904Y-45781D01*
X32904Y-45968D01*
X32976Y-46141D01*
X33039Y-46204D01*
X32981Y-46204D01*
X32808Y-46276D01*
X32681Y-46403D01*
X31820Y-45541D01*
X31820Y-14333D01*
X31820Y-14216D01*
X31820Y-13666D01*
X31775Y-13557D01*
X31692Y-13474D01*
X31583Y-13429D01*
X31466Y-13429D01*
X30916Y-13429D01*
X30807Y-13474D01*
X30724Y-13557D01*
X30715Y-13580D01*
X30593Y-13529D01*
X30406Y-13529D01*
X30233Y-13601D01*
X30101Y-13733D01*
X30029Y-13906D01*
X30029Y-14093D01*
X30101Y-14266D01*
X30233Y-14398D01*
X30406Y-14470D01*
X30593Y-14470D01*
X30715Y-14419D01*
X30724Y-14442D01*
X30807Y-14525D01*
X30916Y-14570D01*
X31033Y-14570D01*
X31583Y-14570D01*
X31692Y-14525D01*
X31775Y-14442D01*
X31820Y-14333D01*
X31820Y-45541D01*
X31720Y-45441D01*
X31720Y-25906D01*
X31648Y-25733D01*
X31516Y-25601D01*
X31343Y-25529D01*
X31156Y-25529D01*
X30983Y-25601D01*
X30851Y-25733D01*
X30779Y-25906D01*
X30779Y-26093D01*
X30851Y-26266D01*
X30983Y-26398D01*
X31156Y-26470D01*
X31343Y-26470D01*
X31516Y-26398D01*
X31648Y-26266D01*
X31720Y-26093D01*
X31720Y-25906D01*
X31720Y-45441D01*
X30470Y-44191D01*
X30470Y-15406D01*
X30398Y-15233D01*
X30266Y-15101D01*
X30093Y-15029D01*
X29906Y-15029D01*
X29820Y-15065D01*
X29820Y-13887D01*
X29733Y-13677D01*
X29573Y-13516D01*
X29363Y-13429D01*
X29137Y-13429D01*
X28927Y-13516D01*
X28766Y-13676D01*
X28679Y-13886D01*
X28679Y-14112D01*
X28766Y-14322D01*
X28926Y-14483D01*
X29136Y-14570D01*
X29362Y-14570D01*
X29572Y-14483D01*
X29733Y-14323D01*
X29820Y-14113D01*
X29820Y-13887D01*
X29820Y-15065D01*
X29733Y-15101D01*
X29601Y-15233D01*
X29529Y-15406D01*
X29529Y-15593D01*
X29601Y-15766D01*
X29733Y-15898D01*
X29906Y-15970D01*
X30093Y-15970D01*
X30266Y-15898D01*
X30398Y-15766D01*
X30470Y-15593D01*
X30470Y-15406D01*
X30470Y-44191D01*
X30446Y-44168D01*
X30446Y-40668D01*
X29970Y-40191D01*
X29970Y-35656D01*
X29898Y-35483D01*
X29766Y-35351D01*
X29720Y-35332D01*
X29720Y-22656D01*
X29648Y-22483D01*
X29516Y-22351D01*
X29343Y-22279D01*
X29156Y-22279D01*
X28983Y-22351D01*
X28851Y-22483D01*
X28779Y-22656D01*
X28779Y-22843D01*
X28851Y-23016D01*
X28983Y-23148D01*
X29156Y-23220D01*
X29343Y-23220D01*
X29516Y-23148D01*
X29648Y-23016D01*
X29720Y-22843D01*
X29720Y-22656D01*
X29720Y-35332D01*
X29593Y-35279D01*
X29406Y-35279D01*
X29233Y-35351D01*
X29101Y-35483D01*
X29029Y-35656D01*
X29029Y-35843D01*
X29101Y-36016D01*
X29233Y-36148D01*
X29406Y-36220D01*
X29593Y-36220D01*
X29766Y-36148D01*
X29898Y-36016D01*
X29970Y-35843D01*
X29970Y-35656D01*
X29970Y-40191D01*
X29720Y-39941D01*
X29720Y-37906D01*
X29648Y-37733D01*
X29516Y-37601D01*
X29343Y-37529D01*
X29156Y-37529D01*
X28983Y-37601D01*
X28851Y-37733D01*
X28779Y-37906D01*
X28779Y-38093D01*
X28851Y-38266D01*
X28983Y-38398D01*
X29156Y-38470D01*
X29343Y-38470D01*
X29516Y-38398D01*
X29648Y-38266D01*
X29720Y-38093D01*
X29720Y-37906D01*
X29720Y-39941D01*
X29581Y-39803D01*
X27820Y-39803D01*
X27820Y-14333D01*
X27820Y-14216D01*
X27820Y-13666D01*
X27775Y-13557D01*
X27692Y-13474D01*
X27583Y-13429D01*
X27466Y-13429D01*
X26916Y-13429D01*
X26807Y-13474D01*
X26724Y-13557D01*
X26679Y-13666D01*
X26679Y-13783D01*
X26679Y-14333D01*
X26724Y-14442D01*
X26807Y-14525D01*
X26916Y-14570D01*
X27033Y-14570D01*
X27583Y-14570D01*
X27692Y-14525D01*
X27775Y-14442D01*
X27820Y-14333D01*
X27820Y-39803D01*
X25720Y-39803D01*
X25720Y-30156D01*
X25648Y-29983D01*
X25516Y-29851D01*
X25343Y-29779D01*
X25220Y-29779D01*
X25220Y-25906D01*
X25220Y-24906D01*
X25148Y-24733D01*
X25016Y-24601D01*
X24843Y-24529D01*
X24720Y-24529D01*
X24720Y-19406D01*
X24648Y-19233D01*
X24516Y-19101D01*
X24343Y-19029D01*
X24156Y-19029D01*
X23983Y-19101D01*
X23851Y-19233D01*
X23779Y-19406D01*
X23779Y-19593D01*
X23851Y-19766D01*
X23983Y-19898D01*
X24156Y-19970D01*
X24343Y-19970D01*
X24516Y-19898D01*
X24648Y-19766D01*
X24720Y-19593D01*
X24720Y-19406D01*
X24720Y-24529D01*
X24656Y-24529D01*
X24483Y-24601D01*
X24470Y-24614D01*
X24470Y-21156D01*
X24398Y-20983D01*
X24266Y-20851D01*
X24093Y-20779D01*
X23906Y-20779D01*
X23733Y-20851D01*
X23601Y-20983D01*
X23529Y-21156D01*
X23529Y-21343D01*
X23601Y-21516D01*
X23733Y-21648D01*
X23906Y-21720D01*
X24093Y-21720D01*
X24266Y-21648D01*
X24398Y-21516D01*
X24470Y-21343D01*
X24470Y-21156D01*
X24470Y-24614D01*
X24351Y-24733D01*
X24279Y-24906D01*
X24279Y-25093D01*
X24351Y-25266D01*
X24483Y-25398D01*
X24656Y-25470D01*
X24843Y-25470D01*
X25016Y-25398D01*
X25148Y-25266D01*
X25220Y-25093D01*
X25220Y-24906D01*
X25220Y-25906D01*
X25148Y-25733D01*
X25016Y-25601D01*
X24843Y-25529D01*
X24656Y-25529D01*
X24483Y-25601D01*
X24351Y-25733D01*
X24279Y-25906D01*
X24279Y-26093D01*
X24351Y-26266D01*
X24483Y-26398D01*
X24656Y-26470D01*
X24843Y-26470D01*
X25016Y-26398D01*
X25148Y-26266D01*
X25220Y-26093D01*
X25220Y-25906D01*
X25220Y-29779D01*
X25156Y-29779D01*
X24983Y-29851D01*
X24851Y-29983D01*
X24779Y-30156D01*
X24779Y-30343D01*
X24851Y-30516D01*
X24983Y-30648D01*
X25156Y-30720D01*
X25343Y-30720D01*
X25516Y-30648D01*
X25648Y-30516D01*
X25720Y-30343D01*
X25720Y-30156D01*
X25720Y-39803D01*
X23720Y-39803D01*
X23720Y-35406D01*
X23648Y-35233D01*
X23516Y-35101D01*
X23343Y-35029D01*
X23156Y-35029D01*
X22983Y-35101D01*
X22851Y-35233D01*
X22779Y-35406D01*
X22779Y-35593D01*
X22851Y-35766D01*
X22983Y-35898D01*
X23156Y-35970D01*
X23343Y-35970D01*
X23516Y-35898D01*
X23648Y-35766D01*
X23720Y-35593D01*
X23720Y-35406D01*
X23720Y-39803D01*
X22470Y-39803D01*
X22470Y-28156D01*
X22398Y-27983D01*
X22270Y-27855D01*
X22270Y-23146D01*
X22191Y-22955D01*
X22045Y-22809D01*
X21853Y-22729D01*
X21646Y-22729D01*
X21455Y-22808D01*
X21309Y-22954D01*
X21229Y-23146D01*
X21229Y-23353D01*
X21308Y-23544D01*
X21454Y-23690D01*
X21646Y-23770D01*
X21853Y-23770D01*
X22044Y-23691D01*
X22190Y-23545D01*
X22270Y-23353D01*
X22270Y-23146D01*
X22270Y-27855D01*
X22266Y-27851D01*
X22093Y-27779D01*
X21906Y-27779D01*
X21733Y-27851D01*
X21601Y-27983D01*
X21529Y-28156D01*
X21529Y-28343D01*
X21601Y-28516D01*
X21733Y-28648D01*
X21906Y-28720D01*
X22093Y-28720D01*
X22266Y-28648D01*
X22398Y-28516D01*
X22470Y-28343D01*
X22470Y-28156D01*
X22470Y-39803D01*
X19220Y-39803D01*
X19220Y-35906D01*
X19148Y-35733D01*
X19016Y-35601D01*
X18843Y-35529D01*
X18720Y-35529D01*
X18720Y-33906D01*
X18648Y-33733D01*
X18516Y-33601D01*
X18343Y-33529D01*
X18156Y-33529D01*
X17983Y-33601D01*
X17851Y-33733D01*
X17779Y-33906D01*
X17779Y-34093D01*
X17851Y-34266D01*
X17983Y-34398D01*
X18156Y-34470D01*
X18343Y-34470D01*
X18516Y-34398D01*
X18648Y-34266D01*
X18720Y-34093D01*
X18720Y-33906D01*
X18720Y-35529D01*
X18656Y-35529D01*
X18483Y-35601D01*
X18351Y-35733D01*
X18279Y-35906D01*
X18279Y-36093D01*
X18351Y-36266D01*
X18483Y-36398D01*
X18656Y-36470D01*
X18843Y-36470D01*
X19016Y-36398D01*
X19148Y-36266D01*
X19220Y-36093D01*
X19220Y-35906D01*
X19220Y-39803D01*
X17470Y-39803D01*
X17470Y-35156D01*
X17398Y-34983D01*
X17266Y-34851D01*
X17093Y-34779D01*
X16906Y-34779D01*
X16733Y-34851D01*
X16601Y-34983D01*
X16529Y-35156D01*
X16529Y-35343D01*
X16601Y-35516D01*
X16733Y-35648D01*
X16906Y-35720D01*
X17093Y-35720D01*
X17266Y-35648D01*
X17398Y-35516D01*
X17470Y-35343D01*
X17470Y-35156D01*
X17470Y-39803D01*
X16250Y-39803D01*
X15984Y-39803D01*
X15984Y-14805D01*
X15834Y-14443D01*
X15558Y-14166D01*
X15196Y-14015D01*
X14805Y-14015D01*
X14443Y-14165D01*
X14166Y-14441D01*
X14015Y-14803D01*
X14015Y-15194D01*
X14165Y-15556D01*
X14441Y-15833D01*
X14803Y-15984D01*
X15194Y-15984D01*
X15556Y-15834D01*
X15833Y-15558D01*
X15984Y-15196D01*
X15984Y-14805D01*
X15984Y-39803D01*
X15720Y-39803D01*
X15720Y-33906D01*
X15648Y-33733D01*
X15516Y-33601D01*
X15343Y-33529D01*
X15156Y-33529D01*
X14983Y-33601D01*
X14851Y-33733D01*
X14820Y-33808D01*
X14820Y-33716D01*
X14820Y-33166D01*
X14775Y-33057D01*
X14692Y-32974D01*
X14614Y-32942D01*
X14733Y-32823D01*
X14820Y-32613D01*
X14820Y-32387D01*
X14733Y-32177D01*
X14573Y-32016D01*
X14533Y-32000D01*
X14572Y-31983D01*
X14733Y-31823D01*
X14820Y-31613D01*
X14820Y-31387D01*
X14733Y-31177D01*
X14573Y-31016D01*
X14533Y-31000D01*
X14572Y-30983D01*
X14733Y-30823D01*
X14820Y-30613D01*
X14820Y-30387D01*
X14820Y-24387D01*
X14820Y-19887D01*
X14820Y-19886D01*
X14820Y-18333D01*
X14820Y-18216D01*
X14820Y-17666D01*
X14775Y-17557D01*
X14692Y-17474D01*
X14583Y-17429D01*
X14466Y-17429D01*
X13916Y-17429D01*
X13807Y-17474D01*
X13724Y-17557D01*
X13679Y-17666D01*
X13679Y-17783D01*
X13679Y-18333D01*
X13724Y-18442D01*
X13807Y-18525D01*
X13916Y-18570D01*
X14033Y-18570D01*
X14583Y-18570D01*
X14692Y-18525D01*
X14775Y-18442D01*
X14820Y-18333D01*
X14820Y-19886D01*
X14733Y-19677D01*
X14573Y-19516D01*
X14363Y-19429D01*
X14137Y-19429D01*
X13927Y-19516D01*
X13766Y-19676D01*
X13679Y-19886D01*
X13679Y-20112D01*
X13766Y-20322D01*
X13926Y-20483D01*
X14136Y-20570D01*
X14362Y-20570D01*
X14572Y-20483D01*
X14733Y-20323D01*
X14820Y-20113D01*
X14820Y-19887D01*
X14820Y-24387D01*
X14733Y-24177D01*
X14573Y-24016D01*
X14363Y-23929D01*
X14137Y-23929D01*
X13927Y-24016D01*
X13766Y-24176D01*
X13679Y-24386D01*
X13679Y-24612D01*
X13766Y-24822D01*
X13926Y-24983D01*
X14136Y-25070D01*
X14362Y-25070D01*
X14572Y-24983D01*
X14733Y-24823D01*
X14820Y-24613D01*
X14820Y-24387D01*
X14820Y-30387D01*
X14820Y-30386D01*
X14820Y-26833D01*
X14820Y-26716D01*
X14820Y-26166D01*
X14775Y-26057D01*
X14692Y-25974D01*
X14583Y-25929D01*
X14466Y-25929D01*
X13916Y-25929D01*
X13807Y-25974D01*
X13724Y-26057D01*
X13679Y-26166D01*
X13679Y-26283D01*
X13679Y-26833D01*
X13724Y-26942D01*
X13807Y-27025D01*
X13916Y-27070D01*
X14033Y-27070D01*
X14583Y-27070D01*
X14692Y-27025D01*
X14775Y-26942D01*
X14820Y-26833D01*
X14820Y-30386D01*
X14733Y-30177D01*
X14573Y-30016D01*
X14363Y-29929D01*
X14137Y-29929D01*
X13927Y-30016D01*
X13766Y-30176D01*
X13679Y-30386D01*
X13679Y-30612D01*
X13766Y-30822D01*
X13926Y-30983D01*
X13966Y-30999D01*
X13927Y-31016D01*
X13766Y-31176D01*
X13679Y-31386D01*
X13679Y-31612D01*
X13766Y-31822D01*
X13926Y-31983D01*
X13966Y-31999D01*
X13927Y-32016D01*
X13766Y-32176D01*
X13679Y-32386D01*
X13679Y-32612D01*
X13766Y-32822D01*
X13885Y-32942D01*
X13807Y-32974D01*
X13724Y-33057D01*
X13679Y-33166D01*
X13679Y-33283D01*
X13679Y-33833D01*
X13724Y-33942D01*
X13807Y-34025D01*
X13916Y-34070D01*
X14033Y-34070D01*
X14583Y-34070D01*
X14692Y-34025D01*
X14775Y-33942D01*
X14779Y-33931D01*
X14779Y-34093D01*
X14851Y-34266D01*
X14983Y-34398D01*
X15156Y-34470D01*
X15343Y-34470D01*
X15516Y-34398D01*
X15648Y-34266D01*
X15720Y-34093D01*
X15720Y-33906D01*
X15720Y-39803D01*
X15303Y-39803D01*
X15303Y-56831D01*
X18406Y-59935D01*
X15984Y-59935D01*
X15984Y-58055D01*
X15834Y-57693D01*
X15558Y-57416D01*
X15196Y-57265D01*
X14805Y-57265D01*
X14443Y-57415D01*
X14166Y-57691D01*
X14015Y-58053D01*
X14015Y-58444D01*
X14165Y-58806D01*
X14441Y-59083D01*
X14803Y-59234D01*
X15194Y-59234D01*
X15556Y-59084D01*
X15833Y-58808D01*
X15984Y-58446D01*
X15984Y-58055D01*
X15984Y-59935D01*
X13314Y-59935D01*
X13314Y-42500D01*
X13314Y-13314D01*
X41185Y-13314D01*
X41185Y-59935D01*
M02*
