M48
;DRILL file {Pcbnew (2014-03-19 BZR 4756)-product} date Tue May 27 15:21:19 2014
;FORMAT={-:-/ absolute / inch / decimal}
FMAT,2
INCH,TZ
T1C0.025
T2C0.032
T3C0.039
T4C0.138
%
G90
G05
M72
T1
X1.525Y-3.4
X1.55Y-3.55
X1.55Y-3.875
X1.7Y-2.55
X1.7Y-3.525
X1.725Y-2.825
X1.725Y-3.475
X1.745Y-3.975
X1.745Y-4.055
X1.775Y-3.05
X1.775Y-3.4
X1.8Y-2.675
X1.825Y-3.4
X1.875Y-3.6
X1.885Y-4.135
X1.885Y-4.245
X1.95Y-2.1
X2.Y-3.4
X2.Y-3.85
X2.025Y-2.375
X2.025Y-3.45
X2.05Y-2.95
X2.1Y-1.55
X2.1Y-2.5
X2.115Y-4.305
X2.175Y-2.325
X2.2Y-2.025
X2.2Y-2.825
X2.205Y-3.955
X2.25Y-3.85
X2.275Y-2.425
X2.285Y-3.515
X2.295Y-4.125
X2.3Y-3.35
X2.3Y-3.425
X2.335Y-4.055
X2.4Y-2.125
X2.4Y-3.325
X2.4Y-3.375
X2.4Y-3.425
X2.4Y-3.475
X2.4Y-3.525
X2.425Y-1.95
X2.45Y-1.55
X2.45Y-3.325
X2.45Y-3.375
X2.45Y-3.425
X2.45Y-3.475
X2.45Y-3.525
X2.45Y-3.575
X2.455Y-3.875
X2.475Y-2.5
X2.475Y-2.6
X2.5Y-3.325
X2.5Y-3.375
X2.5Y-3.425
X2.5Y-3.475
X2.5Y-3.525
X2.5Y-3.575
X2.55Y-3.325
X2.55Y-3.375
X2.55Y-3.425
X2.55Y-3.475
X2.55Y-3.525
X2.55Y-3.6
X2.55Y-3.6545
X2.6Y-3.325
X2.6Y-3.375
X2.6Y-3.425
X2.6Y-3.475
X2.6Y-3.525
X2.6Y-3.575
X2.625Y-3.945
X2.625Y-4.175
X2.65Y-2.175
X2.675Y-4.125
X2.695Y-3.985
X2.815Y-3.895
X2.825Y-2.925
X2.85Y-3.425
X2.85Y-3.525
X2.925Y-2.275
X2.925Y-3.025
X2.925Y-3.3
X2.925Y-3.8
X2.95Y-3.575
X2.975Y-1.95
X2.975Y-2.125
X2.975Y-3.125
X2.975Y-3.175
X2.975Y-3.225
X2.975Y-3.275
X2.975Y-3.325
X2.975Y-3.375
X3.Y-1.55
X3.025Y-3.125
X3.025Y-3.175
X3.025Y-3.225
X3.025Y-3.275
X3.025Y-3.325
X3.025Y-3.375
X3.05Y-1.4
X3.055Y-4.255
X3.055Y-4.305
X3.075Y-3.125
X3.075Y-3.175
X3.075Y-3.225
X3.075Y-3.275
X3.1Y-1.7
X3.1Y-1.8
X3.125Y-2.6
X3.125Y-3.125
X3.125Y-3.175
X3.125Y-3.225
X3.125Y-3.275
X3.125Y-3.75
X3.2Y-3.75
X3.225Y-2.025
X3.25Y-2.575
X3.25Y-3.725
X3.275Y-2.175
X3.275Y-2.625
X3.275Y-4.065
X3.3Y-1.75
X3.325Y-3.125
X3.325Y-3.175
X3.325Y-3.225
X3.325Y-3.275
X3.35Y-2.275
X3.375Y-2.55
X3.375Y-3.125
X3.375Y-3.175
X3.375Y-3.225
X3.375Y-3.275
X3.425Y-3.125
X3.425Y-3.175
X3.425Y-3.225
X3.425Y-3.275
X3.425Y-3.325
X3.425Y-3.375
X3.425Y-3.6
X3.445Y-2.925
X3.475Y-3.125
X3.475Y-3.175
X3.475Y-3.225
X3.475Y-3.275
X3.475Y-3.325
X3.475Y-3.375
X3.475Y-3.775
X3.505Y-3.985
X3.505Y-4.265
X3.55Y-2.925
X3.6Y-2.125
X3.605Y-4.035
X3.635Y-3.555
X3.66Y-2.87
X3.665Y-3.1
X3.795Y-2.555
X3.85Y-2.125
X3.875Y-1.8
X3.9Y-2.15
X3.9Y-3.525
X3.9Y-3.875
X4.045Y-3.275
T2
X1.425Y-1.8
X1.425Y-1.9
X1.425Y-2.
X1.425Y-2.45
X1.425Y-2.55
X1.425Y-2.65
X1.425Y-3.05
X1.425Y-3.15
X1.425Y-3.25
X1.425Y-3.35
X2.255Y-4.375
X2.355Y-4.375
X2.455Y-4.375
X2.665Y-4.375
X2.725Y-1.4
X2.765Y-4.375
X2.825Y-1.4
X2.865Y-4.375
X2.925Y-1.4
X2.965Y-4.375
X3.125Y-1.4
X3.225Y-1.4
X3.325Y-1.4
X3.385Y-4.375
X3.485Y-4.375
X3.525Y-1.4
X3.585Y-4.375
X3.625Y-1.4
X3.685Y-4.375
X3.725Y-1.4
X4.05Y-2.35
X4.05Y-2.45
X4.05Y-2.55
T3
X3.95Y-2.76
X3.95Y-2.86
X3.95Y-2.96
T4
X1.495Y-1.495
X1.495Y-4.235
X3.945Y-4.235
X3.955Y-1.495
T0
M30
