M48
;DRILL file {Pcbnew (2014-03-19 BZR 4756)-product} date Thu May 22 10:05:50 2014
;FORMAT={-:-/ absolute / inch / decimal}
FMAT,2
INCH,TZ
T1C0.025
T2C0.032
T3C0.045
T4C0.138
%
G90
G05
M72
T1
X1.4Y-4.45
X1.45Y-4.75
X1.525Y-3.4
X1.55Y-3.55
X1.55Y-3.875
X1.7Y-2.55
X1.7Y-3.525
X1.725Y-2.825
X1.725Y-3.475
X1.775Y-3.05
X1.775Y-3.4
X1.8Y-2.675
X1.825Y-3.4
X1.875Y-3.6
X1.95Y-2.1
X2.Y-3.4
X2.Y-3.85
X2.025Y-2.375
X2.025Y-3.45
X2.05Y-2.95
X2.1Y-1.55
X2.1Y-2.5
X2.175Y-2.325
X2.2Y-2.025
X2.2Y-2.825
X2.25Y-3.85
X2.275Y-2.425
X2.3Y-3.35
X2.3Y-3.425
X2.325Y-3.55
X2.4Y-2.125
X2.4Y-3.325
X2.4Y-3.375
X2.4Y-3.425
X2.4Y-3.475
X2.4Y-3.525
X2.425Y-1.95
X2.45Y-1.55
X2.45Y-3.325
X2.45Y-3.375
X2.45Y-3.425
X2.45Y-3.475
X2.45Y-3.525
X2.45Y-3.575
X2.475Y-2.5
X2.475Y-2.6
X2.5Y-3.325
X2.5Y-3.375
X2.5Y-3.425
X2.5Y-3.475
X2.5Y-3.525
X2.5Y-3.575
X2.525Y-3.025
X2.55Y-3.325
X2.55Y-3.375
X2.55Y-3.425
X2.55Y-3.475
X2.55Y-3.525
X2.55Y-3.6
X2.55Y-3.6545
X2.6Y-3.325
X2.6Y-3.375
X2.6Y-3.425
X2.6Y-3.475
X2.6Y-3.525
X2.6Y-3.575
X2.65Y-2.175
X2.825Y-2.925
X2.85Y-3.425
X2.85Y-3.525
X2.925Y-2.275
X2.925Y-3.025
X2.925Y-3.3
X2.925Y-3.8
X2.95Y-3.575
X2.975Y-1.95
X2.975Y-2.125
X2.975Y-3.125
X2.975Y-3.175
X2.975Y-3.225
X2.975Y-3.275
X2.975Y-3.325
X2.975Y-3.375
X3.Y-1.55
X3.025Y-3.125
X3.025Y-3.175
X3.025Y-3.225
X3.025Y-3.275
X3.025Y-3.325
X3.025Y-3.375
X3.05Y-1.4
X3.075Y-3.125
X3.075Y-3.175
X3.075Y-3.225
X3.075Y-3.275
X3.1Y-1.7
X3.1Y-1.8
X3.125Y-2.6
X3.125Y-3.125
X3.125Y-3.175
X3.125Y-3.225
X3.125Y-3.275
X3.125Y-3.75
X3.125Y-3.95
X3.2Y-3.75
X3.2Y-4.3
X3.225Y-2.025
X3.25Y-2.575
X3.25Y-3.725
X3.275Y-2.175
X3.275Y-2.625
X3.3Y-1.75
X3.3075Y-4.6675
X3.325Y-3.125
X3.325Y-3.175
X3.325Y-3.225
X3.325Y-3.275
X3.3375Y-4.5875
X3.35Y-2.275
X3.35Y-3.95
X3.3675Y-4.5175
X3.375Y-2.55
X3.375Y-3.125
X3.375Y-3.175
X3.375Y-3.225
X3.375Y-3.275
X3.375Y-4.275
X3.4075Y-4.7275
X3.4075Y-4.7875
X3.4075Y-4.8375
X3.425Y-3.125
X3.425Y-3.175
X3.425Y-3.225
X3.425Y-3.275
X3.425Y-3.325
X3.425Y-3.375
X3.425Y-3.6
X3.425Y-3.975
X3.475Y-3.125
X3.475Y-3.175
X3.475Y-3.225
X3.475Y-3.275
X3.475Y-3.325
X3.475Y-3.375
X3.475Y-3.775
X3.475Y-4.275
X3.55Y-2.925
X3.55Y-3.525
X3.55Y-4.275
X3.5675Y-4.5175
X3.5675Y-4.7275
X3.575Y-2.575
X3.6Y-2.125
X3.625Y-4.275
X3.6475Y-4.5575
X3.6475Y-4.7875
X3.7Y-2.875
X3.7Y-2.95
X3.7Y-3.35
X3.7Y-4.275
X3.725Y-4.325
X3.7275Y-4.8375
X3.7875Y-4.5375
X3.8Y-3.5
X3.8Y-3.875
X3.8Y-4.275
X3.825Y-3.05
X3.85Y-2.125
X3.85Y-4.1
X3.85Y-4.475
X3.85Y-4.675
X3.85Y-4.75
X3.875Y-1.8
X3.9Y-2.15
X3.9Y-3.525
X3.9Y-3.875
X3.925Y-4.45
X4.Y-4.5
T2
X1.425Y-1.8
X1.425Y-1.9
X1.425Y-2.
X1.425Y-2.45
X1.425Y-2.55
X1.425Y-2.65
X1.425Y-3.05
X1.425Y-3.15
X1.425Y-3.25
X1.425Y-3.35
X1.7Y-4.125
X1.7Y-4.725
X1.7Y-5.025
X1.7Y-5.625
X1.8Y-4.125
X1.8Y-4.725
X1.8Y-5.025
X1.8Y-5.625
X1.9Y-4.125
X1.9Y-4.725
X1.9Y-5.025
X1.9Y-5.625
X2.Y-4.125
X2.Y-4.725
X2.Y-5.025
X2.Y-5.625
X2.1Y-4.125
X2.1Y-4.725
X2.1Y-5.025
X2.1Y-5.625
X2.2Y-4.125
X2.2Y-4.725
X2.2Y-5.025
X2.2Y-5.625
X2.3Y-4.125
X2.3Y-4.725
X2.3Y-5.025
X2.3Y-5.625
X2.3Y-5.875
X2.4Y-4.125
X2.4Y-4.725
X2.4Y-5.025
X2.4Y-5.625
X2.4Y-5.875
X2.5Y-4.125
X2.5Y-4.725
X2.5Y-5.025
X2.5Y-5.625
X2.5Y-5.875
X2.6Y-4.125
X2.6Y-4.725
X2.6Y-5.025
X2.6Y-5.625
X2.7Y-4.125
X2.7Y-4.725
X2.7Y-5.025
X2.7Y-5.625
X2.725Y-1.4
X2.8Y-4.125
X2.8Y-4.725
X2.8Y-5.025
X2.8Y-5.625
X2.825Y-1.4
X2.925Y-1.4
X2.925Y-5.925
X3.025Y-5.925
X3.125Y-1.4
X3.125Y-5.925
X3.225Y-1.4
X3.225Y-5.925
X3.325Y-1.4
X3.525Y-1.4
X3.625Y-1.4
X3.725Y-1.4
X4.05Y-2.525
X4.05Y-2.625
X4.05Y-2.725
X4.05Y-4.1
X4.05Y-4.2
X4.05Y-4.3
X4.05Y-4.4
X4.05Y-4.6
X4.05Y-4.7
X4.05Y-4.8
X4.05Y-4.9
T3
X3.975Y-3.
X3.975Y-3.1
X3.975Y-3.2
T4
X1.5Y-1.5
X1.5Y-5.825
X3.95Y-1.5
X3.95Y-5.825
T0
M30
